<?xml version="1.0" encoding="UTF-8" standalone="no"?>
<!DOCTYPE svg PUBLIC "-//W3C//DTD SVG 1.1//EN"
 "http://www.w3.org/Graphics/SVG/1.1/DTD/svg11.dtd">
<!-- Generated by graphviz version 2.40.1 (20161225.0304)
 -->
<!-- Title: add_hours Pages: 1 -->
<svg width="235pt" height="66pt"
 viewBox="0.00 0.00 235.00 66.00" xmlns="http://www.w3.org/2000/svg" xmlns:xlink="http://www.w3.org/1999/xlink">
<g id="graph0" class="graph" transform="scale(1 1) rotate(0) translate(4 62)">
<title>add_hours</title>
<polygon fill="#ffffff" stroke="transparent" points="-4,4 -4,-62 231,-62 231,4 -4,4"/>
<!-- Node0 -->
<g id="node1" class="node">
<title>Node0</title>
<polygon fill="#bfbfbf" stroke="#000000" points="0,-19.5 0,-38.5 67,-38.5 67,-19.5 0,-19.5"/>
<text text-anchor="middle" x="33.5" y="-26.5" font-family="Helvetica,sans-Serif" font-size="10.00" fill="#000000">add_hours</text>
</g>
<!-- Node1 -->
<g id="node2" class="node">
<title>Node1</title>
<g id="a_node2"><a xlink:href="date31_8f90.xhtml#afe4f985d9f0398a71f6d34284a3d42ef" target="_top" xlink:title="This file belongs in section: Small execs. ">
<polygon fill="#ffffff" stroke="#000000" points="103,-38.5 103,-57.5 153,-57.5 153,-38.5 103,-38.5"/>
<text text-anchor="middle" x="128" y="-45.5" font-family="Helvetica,sans-Serif" font-size="10.00" fill="#000000">date31</text>
</a>
</g>
</g>
<!-- Node0&#45;&gt;Node1 -->
<g id="edge1" class="edge">
<title>Node0&#45;&gt;Node1</title>
<path fill="none" stroke="#191970" d="M67.0832,-35.7522C75.4562,-37.4356 84.4555,-39.245 92.8995,-40.9428"/>
<polygon fill="#191970" stroke="#191970" points="92.3507,-44.4024 102.8444,-42.9423 93.7306,-37.5397 92.3507,-44.4024"/>
</g>
<!-- Node3 -->
<g id="node4" class="node">
<title>Node3</title>
<g id="a_node4"><a xlink:href="date13_8f90.xhtml#ac26d0a970058b166b24d7c6a90fb00dc" target="_top" xlink:title="This file belongs in section: Small execs. ">
<polygon fill="#ffffff" stroke="#000000" points="103,-.5 103,-19.5 153,-19.5 153,-.5 103,-.5"/>
<text text-anchor="middle" x="128" y="-7.5" font-family="Helvetica,sans-Serif" font-size="10.00" fill="#000000">date13</text>
</a>
</g>
</g>
<!-- Node0&#45;&gt;Node3 -->
<g id="edge3" class="edge">
<title>Node0&#45;&gt;Node3</title>
<path fill="none" stroke="#191970" d="M67.0832,-22.2478C75.4562,-20.5644 84.4555,-18.755 92.8995,-17.0572"/>
<polygon fill="#191970" stroke="#191970" points="93.7306,-20.4603 102.8444,-15.0577 92.3507,-13.5976 93.7306,-20.4603"/>
</g>
<!-- Node2 -->
<g id="node3" class="node">
<title>Node2</title>
<g id="a_node3"><a xlink:href="sum_8f90.xhtml#a025c1f845b6a4ea9c9f48b8612cd82e7" target="_top" xlink:title="Generic routines for manipulating pp&#45;fields within Fieldcalc. ">
<polygon fill="#ffffff" stroke="#000000" points="189,-38.5 189,-57.5 227,-57.5 227,-38.5 189,-38.5"/>
<text text-anchor="middle" x="208" y="-45.5" font-family="Helvetica,sans-Serif" font-size="10.00" fill="#000000">sum</text>
</a>
</g>
</g>
<!-- Node1&#45;&gt;Node2 -->
<g id="edge2" class="edge">
<title>Node1&#45;&gt;Node2</title>
<path fill="none" stroke="#191970" d="M153.3125,-48C161.4235,-48 170.4702,-48 178.8335,-48"/>
<polygon fill="#191970" stroke="#191970" points="178.9397,-51.5001 188.9396,-48 178.9396,-44.5001 178.9397,-51.5001"/>
</g>
</g>
</svg>
