<?xml version="1.0" encoding="UTF-8" standalone="no"?>
<!DOCTYPE svg PUBLIC "-//W3C//DTD SVG 1.1//EN"
 "http://www.w3.org/Graphics/SVG/1.1/DTD/svg11.dtd">
<!-- Generated by graphviz version 2.40.1 (20161225.0304)
 -->
<!-- Title: addrln Pages: 1 -->
<!--zoomable 370 -->
<svg id="main" version="1.1" xmlns="http://www.w3.org/2000/svg" xmlns:xlink="http://www.w3.org/1999/xlink" xml:space="preserve" onload="init(evt)">
<style type="text/css"><![CDATA[
.edge:hover path { stroke: red; }
.edge:hover polygon { stroke: red; fill: red; }
]]></style>
<script type="text/javascript"><![CDATA[
var edges = document.getElementsByTagName('g');
if (edges && edges.length) {
  for (var i=0;i<edges.length;i++) {
    if (edges[i].id.substr(0,4)=='edge') {
      edges[i].setAttribute('class','edge');
    }
  }
}
]]></script>
        <defs>
                <circle id="rim" cx="0" cy="0" r="7"/>
                <circle id="rim2" cx="0" cy="0" r="3.5"/>
                <g id="zoomPlus">
                        <use xlink:href="#rim" fill="#404040">
                                <set attributeName="fill" to="#808080" begin="zoomplus.mouseover" end="zoomplus.mouseout"/>
                        </use>
                        <path d="M-4,0h8M0,-4v8" fill="none" stroke="white" stroke-width="1.5" pointer-events="none"/>
                </g>
                <g id="zoomMin">
                        <use xlink:href="#rim" fill="#404040">
                                <set attributeName="fill" to="#808080" begin="zoomminus.mouseover" end="zoomminus.mouseout"/>
                        </use>
                        <path d="M-4,0h8" fill="none" stroke="white" stroke-width="1.5" pointer-events="none"/>
                </g>
                <g id="dirArrow">
                        <path fill="none" stroke="white" stroke-width="1.5" d="M0,-3.0v7 M-2.5,-0.5L0,-3.0L2.5,-0.5"/>
                </g>
               <g id="resetDef">
                       <use xlink:href="#rim2" fill="#404040">
                               <set attributeName="fill" to="#808080" begin="reset.mouseover" end="reset.mouseout"/>
                       </use>
               </g>
        </defs>

<script type="text/javascript">
var viewWidth = 896;
var viewHeight = 370;
var sectionId = 'dynsection-1';
</script>
<script xlink:href="svgpan.js"/>
<svg id="graph" class="graph">
<g id="viewport">
<title>addrln</title>
<polygon fill="#ffffff" stroke="transparent" points="-4,4 -4,-366 892,-366 892,4 -4,4"/>
<!-- Node12 -->
<g id="node1" class="node">
<title>Node12</title>
<polygon fill="#bfbfbf" stroke="#000000" points="0,-38.5 0,-57.5 47,-57.5 47,-38.5 0,-38.5"/>
<text text-anchor="middle" x="23.5" y="-45.5" font-family="Helvetica,sans-Serif" font-size="10.00" fill="#000000">addrln</text>
</g>
<!-- Node13 -->
<g id="node2" class="node">
<title>Node13</title>
<g id="a_node2"><a xlink:href="stwork_8f90.xhtml#a60176015435dd67d80b42122c78e024e" target="_top" xlink:title="Subroutine STWORK !&gt; ">
<polygon fill="#ffffff" stroke="#000000" points="85.5,-133.5 85.5,-152.5 135.5,-152.5 135.5,-133.5 85.5,-133.5"/>
<text text-anchor="middle" x="110.5" y="-140.5" font-family="Helvetica,sans-Serif" font-size="10.00" fill="#000000">stwork</text>
</a>
</g>
</g>
<!-- Node12&#45;&gt;Node13 -->
<g id="edge1" class="edge">
<title>Node12&#45;&gt;Node13</title>
<path fill="none" stroke="#191970" d="M39.3419,-65.2986C57.6375,-85.2766 87.0867,-117.4338 101.6956,-133.386"/>
<polygon fill="#191970" stroke="#191970" points="41.8178,-62.8198 32.4828,-57.8089 36.6554,-67.5475 41.8178,-62.8198"/>
</g>
<!-- Node30 -->
<g id="node19" class="node">
<title>Node30</title>
<g id="a_node19"><a xlink:href="inputl_8f90.xhtml#afbc03e3d957868673f84dc9be19a7f12" target="_top" xlink:title="Subroutine Interface: ">
<polygon fill="#ffffff" stroke="#000000" points="177,-.5 177,-19.5 221,-19.5 221,-.5 177,-.5"/>
<text text-anchor="middle" x="199" y="-7.5" font-family="Helvetica,sans-Serif" font-size="10.00" fill="#000000">inputl</text>
</a>
</g>
</g>
<!-- Node12&#45;&gt;Node30 -->
<g id="edge33" class="edge">
<title>Node12&#45;&gt;Node30</title>
<path fill="none" stroke="#191970" d="M56.6335,-36.4713C65.1562,-33.7682 74.3606,-31.0751 83,-29 115.1455,-21.2791 153.0592,-15.7213 176.5681,-12.6809"/>
<polygon fill="#191970" stroke="#191970" points="55.4356,-33.1805 47.0165,-39.6125 57.609,-39.8346 55.4356,-33.1805"/>
</g>
<!-- Node32 -->
<g id="node21" class="node">
<title>Node32</title>
<g id="a_node21"><a xlink:href="primary_8f90.xhtml#a6a9bf371681174ae25dadcf333bc7bc3" target="_top" xlink:title="Compute data lengths and addresses for primary fields. ">
<polygon fill="#ffffff" stroke="#000000" points="83,-38.5 83,-57.5 138,-57.5 138,-38.5 83,-38.5"/>
<text text-anchor="middle" x="110.5" y="-45.5" font-family="Helvetica,sans-Serif" font-size="10.00" fill="#000000">primary</text>
</a>
</g>
</g>
<!-- Node12&#45;&gt;Node32 -->
<g id="edge36" class="edge">
<title>Node12&#45;&gt;Node32</title>
<path fill="none" stroke="#191970" d="M57.5032,-48C65.8658,-48 74.7207,-48 82.7484,-48"/>
<polygon fill="#191970" stroke="#191970" points="57.2732,-44.5001 47.2731,-48 57.2731,-51.5001 57.2732,-44.5001"/>
</g>
<!-- Node14 -->
<g id="node3" class="node">
<title>Node14</title>
<g id="a_node3"><a xlink:href="stash_8f90.xhtml#aeb6381a2ce8a30249b8dbaff0df2ebb5" target="_top" xlink:title="Subroutine STASH &#45;!&gt; ">
<polygon fill="#ffffff" stroke="#000000" points="177.5,-171.5 177.5,-190.5 220.5,-190.5 220.5,-171.5 177.5,-171.5"/>
<text text-anchor="middle" x="199" y="-178.5" font-family="Helvetica,sans-Serif" font-size="10.00" fill="#000000">stash</text>
</a>
</g>
</g>
<!-- Node13&#45;&gt;Node14 -->
<g id="edge2" class="edge">
<title>Node13&#45;&gt;Node14</title>
<path fill="none" stroke="#191970" d="M142.2242,-156.6217C153.851,-161.614 166.735,-167.1461 177.2867,-171.6768"/>
<polygon fill="#191970" stroke="#191970" points="143.402,-153.3185 132.8323,-152.589 140.6401,-159.7506 143.402,-153.3185"/>
</g>
<!-- Node15 -->
<g id="node4" class="node">
<title>Node15</title>
<g id="a_node4"><a xlink:href="st__diag1_8f90.xhtml#a448077cde050b9a7c4cad654935688ac" target="_top" xlink:title="LL Subroutine ST_DIAG1 !&gt;LL. ">
<polygon fill="#ffffff" stroke="#000000" points="287.5,-152.5 287.5,-171.5 345.5,-171.5 345.5,-152.5 287.5,-152.5"/>
<text text-anchor="middle" x="316.5" y="-159.5" font-family="Helvetica,sans-Serif" font-size="10.00" fill="#000000">st_diag1</text>
</a>
</g>
</g>
<!-- Node14&#45;&gt;Node15 -->
<g id="edge3" class="edge">
<title>Node14&#45;&gt;Node15</title>
<path fill="none" stroke="#191970" d="M230.864,-175.8475C248.3947,-173.0128 269.9976,-169.5195 287.1198,-166.7508"/>
<polygon fill="#191970" stroke="#191970" points="229.8644,-172.4636 220.5513,-177.5151 230.9818,-179.3739 229.8644,-172.4636"/>
</g>
<!-- Node16 -->
<g id="node5" class="node">
<title>Node16</title>
<g id="a_node5"><a xlink:href="atm__step_8f90.xhtml#ac0ee2467a1a9959b7065fdb8fd27bce4" target="_top" xlink:title="Perform a 1&#45;timestep integration of the Atmosphere Model. ">
<polygon fill="#ffffff" stroke="#000000" points="418,-228.5 418,-247.5 480,-247.5 480,-228.5 418,-228.5"/>
<text text-anchor="middle" x="449" y="-235.5" font-family="Helvetica,sans-Serif" font-size="10.00" fill="#000000">atm_step</text>
</a>
</g>
</g>
<!-- Node14&#45;&gt;Node16 -->
<g id="edge25" class="edge">
<title>Node14&#45;&gt;Node16</title>
<path fill="none" stroke="#191970" d="M202.9455,-200.3932C209.5468,-227.1517 225.6439,-274.4182 260,-295 303.0828,-320.8097 325.355,-310.8817 373,-295 401.164,-285.612 427.2956,-261.2459 440.329,-247.606"/>
<polygon fill="#191970" stroke="#191970" points="206.3557,-199.6052 200.7348,-190.6244 199.5284,-201.1503 206.3557,-199.6052"/>
</g>
<!-- Node20 -->
<g id="node9" class="node">
<title>Node20</title>
<g id="a_node9"><a xlink:href="atm__step__4_a_8f90.xhtml#a2319aa4963e90c64cd78bdcd5f481095" target="_top" xlink:title="Perform a 1&#45;timestep integration of the Atmosphere Model. ">
<polygon fill="#ffffff" stroke="#000000" points="409,-152.5 409,-171.5 489,-171.5 489,-152.5 409,-152.5"/>
<text text-anchor="middle" x="449" y="-159.5" font-family="Helvetica,sans-Serif" font-size="10.00" fill="#000000">atm_step_4a</text>
</a>
</g>
</g>
<!-- Node14&#45;&gt;Node20 -->
<g id="edge26" class="edge">
<title>Node14&#45;&gt;Node20</title>
<path fill="none" stroke="#191970" d="M207.6553,-162.5456C217.4454,-144.1062 235.302,-116.8461 260,-105 305.2829,-83.2806 326.8646,-85.1557 373,-105 394.3713,-114.1925 390.1734,-129.3327 409,-143 413.8528,-146.5229 419.4618,-149.6629 424.9157,-152.3262"/>
<polygon fill="#191970" stroke="#191970" points="204.5227,-160.9846 203.1655,-171.4922 210.7791,-164.1244 204.5227,-160.9846"/>
</g>
<!-- Node22 -->
<g id="node11" class="node">
<title>Node22</title>
<g id="a_node11"><a xlink:href="initdiag_8f90.xhtml#a95a853661b4e10339418e4a8c29b8c9c" target="_top" xlink:title="Calculate diagnostic quantities from the initial atmosphere dump Calculate diagnostic quantities from...">
<polygon fill="#ffffff" stroke="#000000" points="422.5,-114.5 422.5,-133.5 475.5,-133.5 475.5,-114.5 422.5,-114.5"/>
<text text-anchor="middle" x="449" y="-121.5" font-family="Helvetica,sans-Serif" font-size="10.00" fill="#000000">initdiag</text>
</a>
</g>
</g>
<!-- Node14&#45;&gt;Node22 -->
<g id="edge32" class="edge">
<title>Node14&#45;&gt;Node22</title>
<path fill="none" stroke="#191970" d="M204.9911,-161.8215C213.2646,-139.0275 230.5984,-102.062 260,-86 304.0743,-61.9224 324.1213,-74.4613 373,-86 396.1151,-91.4567 420.2155,-105.0798 434.9193,-114.4392"/>
<polygon fill="#191970" stroke="#191970" points="201.6244,-160.8512 201.73,-171.4455 208.2542,-163.0977 201.6244,-160.8512"/>
</g>
<!-- Node23 -->
<g id="node12" class="node">
<title>Node23</title>
<g id="a_node12"><a xlink:href="st__diag2_8f90.xhtml#ad3935d3ef8da955602b10c37af06aa57" target="_top" xlink:title="LL. ">
<polygon fill="#ffffff" stroke="#000000" points="287.5,-114.5 287.5,-133.5 345.5,-133.5 345.5,-114.5 287.5,-114.5"/>
<text text-anchor="middle" x="316.5" y="-121.5" font-family="Helvetica,sans-Serif" font-size="10.00" fill="#000000">st_diag2</text>
</a>
</g>
</g>
<!-- Node14&#45;&gt;Node23 -->
<g id="edge12" class="edge">
<title>Node14&#45;&gt;Node23</title>
<path fill="none" stroke="#191970" d="M220.908,-165.6177C232.2237,-158.1274 246.4655,-149.3844 260,-143 268.611,-138.9381 278.3298,-135.3418 287.2481,-132.4011"/>
<polygon fill="#191970" stroke="#191970" points="218.8503,-162.7841 212.5299,-171.2872 222.7734,-168.5815 218.8503,-162.7841"/>
</g>
<!-- Node24 -->
<g id="node13" class="node">
<title>Node24</title>
<g id="a_node13"><a xlink:href="st__diag3_8f90.xhtml#a00e9b3afaa3d890cca6a5f8421814074" target="_top" xlink:title="End of Timestep climate diagnostics control routine End of Timestep climate diagnostics control routi...">
<polygon fill="#ffffff" stroke="#000000" points="287.5,-190.5 287.5,-209.5 345.5,-209.5 345.5,-190.5 287.5,-190.5"/>
<text text-anchor="middle" x="316.5" y="-197.5" font-family="Helvetica,sans-Serif" font-size="10.00" fill="#000000">st_diag3</text>
</a>
</g>
</g>
<!-- Node14&#45;&gt;Node24 -->
<g id="edge16" class="edge">
<title>Node14&#45;&gt;Node24</title>
<path fill="none" stroke="#191970" d="M230.864,-186.1525C248.3947,-188.9872 269.9976,-192.4805 287.1198,-195.2492"/>
<polygon fill="#191970" stroke="#191970" points="230.9818,-182.6261 220.5513,-184.4849 229.8644,-189.5364 230.9818,-182.6261"/>
</g>
<!-- Node25 -->
<g id="node14" class="node">
<title>Node25</title>
<g id="a_node14"><a xlink:href="st__mean_8f90.xhtml#a56c57d59e0430c6d123a6e4a366df8e6" target="_top" xlink:title="LL Routine: ST_MEAN &#45;!&gt;LL. ">
<polygon fill="#ffffff" stroke="#000000" points="287,-342.5 287,-361.5 346,-361.5 346,-342.5 287,-342.5"/>
<text text-anchor="middle" x="316.5" y="-349.5" font-family="Helvetica,sans-Serif" font-size="10.00" fill="#000000">st_mean</text>
</a>
</g>
</g>
<!-- Node14&#45;&gt;Node25 -->
<g id="edge20" class="edge">
<title>Node14&#45;&gt;Node25</title>
<path fill="none" stroke="#191970" d="M202.2304,-200.5953C208.2882,-231.5185 224.1304,-291.8299 260,-328 267.3543,-335.4159 277.3577,-340.6711 286.9044,-344.3331"/>
<polygon fill="#191970" stroke="#191970" points="205.6517,-199.8457 200.4224,-190.6314 198.7642,-201.0956 205.6517,-199.8457"/>
</g>
<!-- Node28 -->
<g id="node17" class="node">
<title>Node28</title>
<g id="a_node17"><a xlink:href="atm__step__ac__assim_8f90.xhtml#a1a53479d77027fb4fee329c374bc6062" target="_top" xlink:title="Contains atm_step code for AC assimilation. ">
<polygon fill="#ffffff" stroke="#000000" points="260,-266.5 260,-285.5 373,-285.5 373,-266.5 260,-266.5"/>
<text text-anchor="middle" x="316.5" y="-273.5" font-family="Helvetica,sans-Serif" font-size="10.00" fill="#000000">atm_step_ac_assim</text>
</a>
</g>
</g>
<!-- Node14&#45;&gt;Node28 -->
<g id="edge27" class="edge">
<title>Node14&#45;&gt;Node28</title>
<path fill="none" stroke="#191970" d="M209.3814,-199.2297C220.0319,-216.4053 238.1109,-241.72 260,-257 265.5158,-260.8504 271.873,-263.9704 278.2888,-266.4827"/>
<polygon fill="#191970" stroke="#191970" points="212.384,-197.4312 204.2516,-190.6404 206.3742,-201.0205 212.384,-197.4312"/>
</g>
<!-- Node29 -->
<g id="node18" class="node">
<title>Node29</title>
<g id="a_node18"><a xlink:href="atm__step__stash_8f90.xhtml#a8e27538bbd9060910e7d0ddcf329f7e0" target="_top" xlink:title="Contains various chunks of code from atm_step &#45; the purpose of each. ">
<polygon fill="#ffffff" stroke="#000000" points="269.5,-228.5 269.5,-247.5 363.5,-247.5 363.5,-228.5 269.5,-228.5"/>
<text text-anchor="middle" x="316.5" y="-235.5" font-family="Helvetica,sans-Serif" font-size="10.00" fill="#000000">atm_step_stash</text>
</a>
</g>
</g>
<!-- Node14&#45;&gt;Node29 -->
<g id="edge29" class="edge">
<title>Node14&#45;&gt;Node29</title>
<path fill="none" stroke="#191970" d="M220.908,-196.3823C232.2237,-203.8726 246.4655,-212.6156 260,-219 267.4878,-222.5321 275.8133,-225.7121 283.7217,-228.4151"/>
<polygon fill="#191970" stroke="#191970" points="222.7734,-193.4185 212.5299,-190.7128 218.8503,-199.2159 222.7734,-193.4185"/>
</g>
<!-- Node15&#45;&gt;Node16 -->
<g id="edge4" class="edge">
<title>Node15&#45;&gt;Node16</title>
<path fill="none" stroke="#191970" d="M355.1691,-173.1616C361.273,-175.4439 367.4093,-178.0613 373,-181 398.4023,-194.3526 424.3835,-215.8866 438.4214,-228.3118"/>
<polygon fill="#191970" stroke="#191970" points="356.2817,-169.8429 345.6869,-169.853 353.9755,-176.4522 356.2817,-169.8429"/>
</g>
<!-- Node15&#45;&gt;Node20 -->
<g id="edge8" class="edge">
<title>Node15&#45;&gt;Node20</title>
<path fill="none" stroke="#191970" d="M355.6241,-162C372.4223,-162 392.0328,-162 408.9339,-162"/>
<polygon fill="#191970" stroke="#191970" points="355.5777,-158.5001 345.5777,-162 355.5777,-165.5001 355.5777,-158.5001"/>
</g>
<!-- Node15&#45;&gt;Node22 -->
<g id="edge11" class="edge">
<title>Node15&#45;&gt;Node22</title>
<path fill="none" stroke="#191970" d="M355.3944,-150.8454C376.8916,-144.6801 403.0503,-137.178 422.244,-131.6734"/>
<polygon fill="#191970" stroke="#191970" points="354.2253,-147.5395 345.5777,-153.6607 356.1551,-154.2683 354.2253,-147.5395"/>
</g>
<!-- Node17 -->
<g id="node6" class="node">
<title>Node17</title>
<g id="a_node6"><a xlink:href="u__model_8f90.xhtml#ada0cd2ce4699433bf0f9adbd882c8eec" target="_top" xlink:title="Subroutine: U_MODEL &#45;!&gt; ">
<polygon fill="#ffffff" stroke="#000000" points="625.5,-190.5 625.5,-209.5 684.5,-209.5 684.5,-190.5 625.5,-190.5"/>
<text text-anchor="middle" x="655" y="-197.5" font-family="Helvetica,sans-Serif" font-size="10.00" fill="#000000">u_model</text>
</a>
</g>
</g>
<!-- Node16&#45;&gt;Node17 -->
<g id="edge5" class="edge">
<title>Node16&#45;&gt;Node17</title>
<path fill="none" stroke="#191970" d="M490.0425,-233.2561C516.1964,-229.9466 550.734,-225.0452 581,-219 595.6979,-216.0643 611.8385,-212.0183 625.2843,-208.4142"/>
<polygon fill="#191970" stroke="#191970" points="489.5933,-229.7849 480.1,-234.4889 490.4547,-236.7317 489.5933,-229.7849"/>
</g>
<!-- Node18 -->
<g id="node7" class="node">
<title>Node18</title>
<g id="a_node7"><a xlink:href="um__shell_8f90.xhtml#a8c9bd25362824a5c301376ecb5ed5c27" target="_top" xlink:title="Subroutine: UM_SHELL !&gt; ">
<polygon fill="#ffffff" stroke="#000000" points="729,-152.5 729,-171.5 790,-171.5 790,-152.5 729,-152.5"/>
<text text-anchor="middle" x="759.5" y="-159.5" font-family="Helvetica,sans-Serif" font-size="10.00" fill="#000000">um_shell</text>
</a>
</g>
</g>
<!-- Node17&#45;&gt;Node18 -->
<g id="edge6" class="edge">
<title>Node17&#45;&gt;Node18</title>
<path fill="none" stroke="#191970" d="M691.0745,-186.882C704.8959,-181.8561 720.3925,-176.2209 733.1387,-171.5859"/>
<polygon fill="#191970" stroke="#191970" points="689.5716,-183.7042 681.3698,-190.411 691.9638,-190.2828 689.5716,-183.7042"/>
</g>
<!-- Node19 -->
<g id="node8" class="node">
<title>Node19</title>
<g id="a_node8"><a xlink:href="um__main_8f90.xhtml#a8f2d13215621443a5313261c282f098b" target="_top" xlink:title="Code Owner: See Unified Model Code Owner&#39;s HTML page. ">
<polygon fill="#ffffff" stroke="#000000" points="826,-152.5 826,-171.5 888,-171.5 888,-152.5 826,-152.5"/>
<text text-anchor="middle" x="857" y="-159.5" font-family="Helvetica,sans-Serif" font-size="10.00" fill="#000000">um_main</text>
</a>
</g>
</g>
<!-- Node18&#45;&gt;Node19 -->
<g id="edge7" class="edge">
<title>Node18&#45;&gt;Node19</title>
<path fill="none" stroke="#191970" d="M800.2756,-162C808.8294,-162 817.72,-162 825.8551,-162"/>
<polygon fill="#191970" stroke="#191970" points="800.0821,-158.5001 790.0821,-162 800.0821,-165.5001 800.0821,-158.5001"/>
</g>
<!-- Node21 -->
<g id="node10" class="node">
<title>Node21</title>
<g id="a_node10"><a xlink:href="u__model__4_a_8f90.xhtml#afa05064dab5eba198b461d0928767c7e" target="_top" xlink:title="LL Subroutine: U_MODEL_4A (ENDGAME VERSION) !&gt;LL. ">
<polygon fill="#ffffff" stroke="#000000" points="617,-152.5 617,-171.5 693,-171.5 693,-152.5 617,-152.5"/>
<text text-anchor="middle" x="655" y="-159.5" font-family="Helvetica,sans-Serif" font-size="10.00" fill="#000000">u_model_4a</text>
</a>
</g>
</g>
<!-- Node20&#45;&gt;Node21 -->
<g id="edge9" class="edge">
<title>Node20&#45;&gt;Node21</title>
<path fill="none" stroke="#191970" d="M499.5781,-162C535.851,-162 583.9503,-162 616.9801,-162"/>
<polygon fill="#191970" stroke="#191970" points="499.2079,-158.5001 489.2079,-162 499.2079,-165.5001 499.2079,-158.5001"/>
</g>
<!-- Node21&#45;&gt;Node18 -->
<g id="edge10" class="edge">
<title>Node21&#45;&gt;Node18</title>
<path fill="none" stroke="#191970" d="M703.1579,-162C711.9023,-162 720.8005,-162 728.8647,-162"/>
<polygon fill="#191970" stroke="#191970" points="703.0225,-158.5001 693.0225,-162 703.0225,-165.5001 703.0225,-158.5001"/>
</g>
<!-- Node23&#45;&gt;Node16 -->
<g id="edge13" class="edge">
<title>Node23&#45;&gt;Node16</title>
<path fill="none" stroke="#191970" d="M355.3083,-133.7437C361.5219,-136.2159 367.657,-139.2638 373,-143 390.3959,-155.1643 427.3265,-206.7915 442.3922,-228.4136"/>
<polygon fill="#191970" stroke="#191970" points="356.1767,-130.3388 345.5819,-130.3165 353.8504,-136.9409 356.1767,-130.3388"/>
</g>
<!-- Node23&#45;&gt;Node20 -->
<g id="edge14" class="edge">
<title>Node23&#45;&gt;Node20</title>
<path fill="none" stroke="#191970" d="M355.2349,-135.1089C374.4405,-140.6169 397.3977,-147.2008 415.7891,-152.4754"/>
<polygon fill="#191970" stroke="#191970" points="356.1551,-131.7317 345.5777,-132.3393 354.2253,-138.4605 356.1551,-131.7317"/>
</g>
<!-- Node23&#45;&gt;Node22 -->
<g id="edge15" class="edge">
<title>Node23&#45;&gt;Node22</title>
<path fill="none" stroke="#191970" d="M355.6865,-124C377.1282,-124 403.1372,-124 422.244,-124"/>
<polygon fill="#191970" stroke="#191970" points="355.5777,-120.5001 345.5777,-124 355.5777,-127.5001 355.5777,-120.5001"/>
</g>
<!-- Node24&#45;&gt;Node16 -->
<g id="edge17" class="edge">
<title>Node24&#45;&gt;Node16</title>
<path fill="none" stroke="#191970" d="M355.2582,-211.1156C375.1225,-216.8125 398.9953,-223.659 417.678,-229.0171"/>
<polygon fill="#191970" stroke="#191970" points="356.1551,-207.7317 345.5777,-208.3393 354.2253,-214.4605 356.1551,-207.7317"/>
</g>
<!-- Node24&#45;&gt;Node20 -->
<g id="edge18" class="edge">
<title>Node24&#45;&gt;Node20</title>
<path fill="none" stroke="#191970" d="M355.2349,-188.8911C374.4405,-183.3831 397.3977,-176.7992 415.7891,-171.5246"/>
<polygon fill="#191970" stroke="#191970" points="354.2253,-185.5395 345.5777,-191.6607 356.1551,-192.2683 354.2253,-185.5395"/>
</g>
<!-- Node24&#45;&gt;Node22 -->
<g id="edge19" class="edge">
<title>Node24&#45;&gt;Node22</title>
<path fill="none" stroke="#191970" d="M355.245,-189.7939C361.4228,-187.3812 367.5627,-184.473 373,-181 392.6063,-168.4769 390.1734,-156.6673 409,-143 413.8528,-139.4771 419.4618,-136.3371 424.9157,-133.6738"/>
<polygon fill="#191970" stroke="#191970" points="353.8729,-186.5663 345.6015,-193.1871 356.1963,-193.1694 353.8729,-186.5663"/>
</g>
<!-- Node26 -->
<g id="node15" class="node">
<title>Node26</title>
<g id="a_node15"><a xlink:href="meandiag_8f90.xhtml#a72a0b96fb4670010dc65680c7e8ac636" target="_top" xlink:title="LL Routine: MEANDIAG !&gt;LL. ">
<polygon fill="#ffffff" stroke="#000000" points="416.5,-304.5 416.5,-323.5 481.5,-323.5 481.5,-304.5 416.5,-304.5"/>
<text text-anchor="middle" x="449" y="-311.5" font-family="Helvetica,sans-Serif" font-size="10.00" fill="#000000">meandiag</text>
</a>
</g>
</g>
<!-- Node25&#45;&gt;Node26 -->
<g id="edge21" class="edge">
<title>Node25&#45;&gt;Node26</title>
<path fill="none" stroke="#191970" d="M355.8936,-340.7022C375.0756,-335.201 397.8735,-328.6627 416.1089,-323.4329"/>
<polygon fill="#191970" stroke="#191970" points="354.8832,-337.3508 346.2356,-343.4721 356.813,-344.0796 354.8832,-337.3508"/>
</g>
<!-- Node27 -->
<g id="node16" class="node">
<title>Node27</title>
<g id="a_node16"><a xlink:href="meanctl_8f90.xhtml#a5bbbf6327297fa87e7a0d9b511eb2b00" target="_top" xlink:title="Subroutine: MEANCTL&#45;!&gt; ">
<polygon fill="#ffffff" stroke="#000000" points="525,-190.5 525,-209.5 581,-209.5 581,-190.5 525,-190.5"/>
<text text-anchor="middle" x="553" y="-197.5" font-family="Helvetica,sans-Serif" font-size="10.00" fill="#000000">meanctl</text>
</a>
</g>
</g>
<!-- Node26&#45;&gt;Node27 -->
<g id="edge22" class="edge">
<title>Node26&#45;&gt;Node27</title>
<path fill="none" stroke="#191970" d="M464.6431,-296.8528C486.7824,-272.5847 526.5212,-229.0248 544.1555,-209.695"/>
<polygon fill="#191970" stroke="#191970" points="462.0209,-294.5339 457.867,-304.2804 467.1923,-299.2516 462.0209,-294.5339"/>
</g>
<!-- Node27&#45;&gt;Node17 -->
<g id="edge23" class="edge">
<title>Node27&#45;&gt;Node17</title>
<path fill="none" stroke="#191970" d="M591.1485,-200C602.392,-200 614.527,-200 625.1674,-200"/>
<polygon fill="#191970" stroke="#191970" points="591.142,-196.5001 581.142,-200 591.1419,-203.5001 591.142,-196.5001"/>
</g>
<!-- Node27&#45;&gt;Node21 -->
<g id="edge24" class="edge">
<title>Node27&#45;&gt;Node21</title>
<path fill="none" stroke="#191970" d="M588.2115,-186.882C601.7022,-181.8561 616.8281,-176.2209 629.2693,-171.5859"/>
<polygon fill="#191970" stroke="#191970" points="586.8878,-183.6401 578.7389,-190.411 589.3316,-190.1996 586.8878,-183.6401"/>
</g>
<!-- Node28&#45;&gt;Node16 -->
<g id="edge28" class="edge">
<title>Node28&#45;&gt;Node16</title>
<path fill="none" stroke="#191970" d="M359.5654,-263.6492C378.5636,-258.2006 400.4726,-251.9173 417.8509,-246.9333"/>
<polygon fill="#191970" stroke="#191970" points="358.5829,-260.2898 349.9353,-266.411 360.5127,-267.0185 358.5829,-260.2898"/>
</g>
<!-- Node29&#45;&gt;Node16 -->
<g id="edge30" class="edge">
<title>Node29&#45;&gt;Node16</title>
<path fill="none" stroke="#191970" d="M373.8915,-238C388.9757,-238 404.6838,-238 417.8117,-238"/>
<polygon fill="#191970" stroke="#191970" points="373.5877,-234.5001 363.5876,-238 373.5876,-241.5001 373.5877,-234.5001"/>
</g>
<!-- Node29&#45;&gt;Node20 -->
<g id="edge31" class="edge">
<title>Node29&#45;&gt;Node20</title>
<path fill="none" stroke="#191970" d="M360.2928,-224.8422C364.6676,-223.0647 368.9752,-221.1156 373,-219 398.4023,-205.6474 424.3835,-184.1134 438.4214,-171.6882"/>
<polygon fill="#191970" stroke="#191970" points="358.8175,-221.6577 350.6922,-228.457 361.2842,-228.2087 358.8175,-221.6577"/>
</g>
<!-- Node31 -->
<g id="node20" class="node">
<title>Node31</title>
<g id="a_node20"><a xlink:href="stash__proc_8f90.xhtml#a6a7c940d36c620507329f9dccecc0c0d" target="_top" xlink:title="Control routine for processing of basis library STASH file. ">
<polygon fill="#ffffff" stroke="#000000" points="282,-.5 282,-19.5 351,-19.5 351,-.5 282,-.5"/>
<text text-anchor="middle" x="316.5" y="-7.5" font-family="Helvetica,sans-Serif" font-size="10.00" fill="#000000">stash_proc</text>
</a>
</g>
</g>
<!-- Node30&#45;&gt;Node31 -->
<g id="edge34" class="edge">
<title>Node30&#45;&gt;Node31</title>
<path fill="none" stroke="#191970" d="M231.3211,-10C246.9134,-10 265.6432,-10 281.5643,-10"/>
<polygon fill="#191970" stroke="#191970" points="231.1009,-6.5001 221.1009,-10 231.1008,-13.5001 231.1009,-6.5001"/>
</g>
<!-- Node31&#45;&gt;Node18 -->
<g id="edge35" class="edge">
<title>Node31&#45;&gt;Node18</title>
<path fill="none" stroke="#191970" d="M353.9332,-22.8439C440.9566,-52.703 655.2846,-126.2421 731.7988,-152.4953"/>
<polygon fill="#191970" stroke="#191970" points="354.8063,-19.4432 344.2116,-19.5083 352.5344,-26.0643 354.8063,-19.4432"/>
</g>
<!-- Node33 -->
<g id="node22" class="node">
<title>Node33</title>
<g id="a_node22"><a xlink:href="addres_8f90.xhtml#a790814c30bc97c6b4f09fd538585d3e7" target="_top" xlink:title="Set the STASH addresses for D1. ">
<polygon fill="#ffffff" stroke="#000000" points="174,-38.5 174,-57.5 224,-57.5 224,-38.5 174,-38.5"/>
<text text-anchor="middle" x="199" y="-45.5" font-family="Helvetica,sans-Serif" font-size="10.00" fill="#000000">addres</text>
</a>
</g>
</g>
<!-- Node32&#45;&gt;Node33 -->
<g id="edge37" class="edge">
<title>Node32&#45;&gt;Node33</title>
<path fill="none" stroke="#191970" d="M148.0255,-48C156.7633,-48 165.8594,-48 173.9076,-48"/>
<polygon fill="#191970" stroke="#191970" points="148.0169,-44.5001 138.0168,-48 148.0168,-51.5001 148.0169,-44.5001"/>
</g>
<!-- Node33&#45;&gt;Node31 -->
<g id="edge38" class="edge">
<title>Node33&#45;&gt;Node31</title>
<path fill="none" stroke="#191970" d="M234.1838,-36.6214C250.9431,-31.2014 270.7693,-24.7895 286.7644,-19.6166"/>
<polygon fill="#191970" stroke="#191970" points="232.6445,-33.4407 224.2067,-39.848 234.7985,-40.101 232.6445,-33.4407"/>
</g>
</g>
</svg>
        <g id="navigator" transform="translate(0 0)" fill="#404254">
                <rect fill="#f2f5e9" fill-opacity="0.5" stroke="#606060" stroke-width=".5" x="0" y="0" width="60" height="60"/>
                <use id="zoomplus" xlink:href="#zoomPlus" x="17" y="9" onmousedown="handleZoom(evt,'in')"/>
                <use id="zoomminus" xlink:href="#zoomMin" x="42" y="9" onmousedown="handleZoom(evt,'out')"/>
                <use id="reset" xlink:href="#resetDef" x="30" y="36" onmousedown="handleReset()"/>
                <g id="arrowUp" xlink:href="#dirArrow" transform="translate(30 24)" onmousedown="handlePan(0,-1)">
                  <use xlink:href="#rim" fill="#404040">
                        <set attributeName="fill" to="#808080" begin="arrowUp.mouseover" end="arrowUp.mouseout"/>
                  </use>
                  <path fill="none" stroke="white" stroke-width="1.5" d="M0,-3.0v7 M-2.5,-0.5L0,-3.0L2.5,-0.5"/>
                </g>
                <g id="arrowRight" xlink:href="#dirArrow" transform="rotate(90) translate(36 -43)" onmousedown="handlePan(1,0)">
                  <use xlink:href="#rim" fill="#404040">
                        <set attributeName="fill" to="#808080" begin="arrowRight.mouseover" end="arrowRight.mouseout"/>
                  </use>
                  <path fill="none" stroke="white" stroke-width="1.5" d="M0,-3.0v7 M-2.5,-0.5L0,-3.0L2.5,-0.5"/>
                </g>
                <g id="arrowDown" xlink:href="#dirArrow" transform="rotate(180) translate(-30 -48)" onmousedown="handlePan(0,1)">
                  <use xlink:href="#rim" fill="#404040">
                        <set attributeName="fill" to="#808080" begin="arrowDown.mouseover" end="arrowDown.mouseout"/>
                  </use>
                  <path fill="none" stroke="white" stroke-width="1.5" d="M0,-3.0v7 M-2.5,-0.5L0,-3.0L2.5,-0.5"/>
                </g>
                <g id="arrowLeft" xlink:href="#dirArrow" transform="rotate(270) translate(-36 17)" onmousedown="handlePan(-1,0)">
                  <use xlink:href="#rim" fill="#404040">
                        <set attributeName="fill" to="#808080" begin="arrowLeft.mouseover" end="arrowLeft.mouseout"/>
                  </use>
                  <path fill="none" stroke="white" stroke-width="1.5" d="M0,-3.0v7 M-2.5,-0.5L0,-3.0L2.5,-0.5"/>
                </g>
        </g>
        <svg viewBox="0 0 15 15" width="100%" height="30px" preserveAspectRatio="xMaxYMin meet">
         <g id="arrow_out" transform="scale(0.3 0.3)">
          <a xlink:href="addrln_8f90_a832ec1bd65e640388bbdf570c060d7cc_icgraph_org.svg" target="_base">
           <rect id="button" ry="5" rx="5" y="6" x="6" height="38" width="38"
                fill="#f2f5e9" fill-opacity="0.5" stroke="#606060" stroke-width="1.0"/>
           <path id="arrow"
             d="M 11.500037,31.436501 C 11.940474,20.09759 22.043105,11.32322 32.158766,21.979434 L 37.068811,17.246167 C 37.068811,17.246167 37.088388,32 37.088388,32 L 22.160133,31.978069 C 22.160133,31.978069 26.997745,27.140456 26.997745,27.140456 C 18.528582,18.264221 13.291696,25.230495 11.500037,31.436501 z"
             style="fill:#404040;"/>
          </a>
         </g>
        </svg>
</svg>
