<?xml version="1.0" encoding="UTF-8" standalone="no"?>
<!DOCTYPE svg PUBLIC "-//W3C//DTD SVG 1.1//EN"
 "http://www.w3.org/Graphics/SVG/1.1/DTD/svg11.dtd">
<!-- Generated by graphviz version 2.40.1 (20161225.0304)
 -->
<!-- Title: amend_times Pages: 1 -->
<svg width="354pt" height="66pt"
 viewBox="0.00 0.00 354.00 66.00" xmlns="http://www.w3.org/2000/svg" xmlns:xlink="http://www.w3.org/1999/xlink">
<g id="graph0" class="graph" transform="scale(1 1) rotate(0) translate(4 62)">
<title>amend_times</title>
<polygon fill="#ffffff" stroke="transparent" points="-4,4 -4,-62 350,-62 350,4 -4,4"/>
<!-- Node0 -->
<g id="node1" class="node">
<title>Node0</title>
<polygon fill="#bfbfbf" stroke="#000000" points="0,-19.5 0,-38.5 83,-38.5 83,-19.5 0,-19.5"/>
<text text-anchor="middle" x="41.5" y="-26.5" font-family="Helvetica,sans-Serif" font-size="10.00" fill="#000000">amend_times</text>
</g>
<!-- Node1 -->
<g id="node2" class="node">
<title>Node1</title>
<g id="a_node2"><a xlink:href="add__hours_8f90.xhtml#aa92714496ba0813630388bf82628c629" target="_top" xlink:title="Programming standard: Unified Model Documentation Paper No 3. ">
<polygon fill="#ffffff" stroke="#000000" points="119,-19.5 119,-38.5 186,-38.5 186,-19.5 119,-19.5"/>
<text text-anchor="middle" x="152.5" y="-26.5" font-family="Helvetica,sans-Serif" font-size="10.00" fill="#000000">add_hours</text>
</a>
</g>
</g>
<!-- Node0&#45;&gt;Node1 -->
<g id="edge1" class="edge">
<title>Node0&#45;&gt;Node1</title>
<path fill="none" stroke="#191970" d="M83.1481,-29C91.5452,-29 100.3942,-29 108.8573,-29"/>
<polygon fill="#191970" stroke="#191970" points="108.9328,-32.5001 118.9328,-29 108.9328,-25.5001 108.9328,-32.5001"/>
</g>
<!-- Node2 -->
<g id="node3" class="node">
<title>Node2</title>
<g id="a_node3"><a xlink:href="date31_8f90.xhtml#afe4f985d9f0398a71f6d34284a3d42ef" target="_top" xlink:title="This file belongs in section: Small execs. ">
<polygon fill="#ffffff" stroke="#000000" points="222,-38.5 222,-57.5 272,-57.5 272,-38.5 222,-38.5"/>
<text text-anchor="middle" x="247" y="-45.5" font-family="Helvetica,sans-Serif" font-size="10.00" fill="#000000">date31</text>
</a>
</g>
</g>
<!-- Node1&#45;&gt;Node2 -->
<g id="edge2" class="edge">
<title>Node1&#45;&gt;Node2</title>
<path fill="none" stroke="#191970" d="M186.0832,-35.7522C194.4562,-37.4356 203.4555,-39.245 211.8995,-40.9428"/>
<polygon fill="#191970" stroke="#191970" points="211.3507,-44.4024 221.8444,-42.9423 212.7306,-37.5397 211.3507,-44.4024"/>
</g>
<!-- Node4 -->
<g id="node5" class="node">
<title>Node4</title>
<g id="a_node5"><a xlink:href="date13_8f90.xhtml#ac26d0a970058b166b24d7c6a90fb00dc" target="_top" xlink:title="This file belongs in section: Small execs. ">
<polygon fill="#ffffff" stroke="#000000" points="222,-.5 222,-19.5 272,-19.5 272,-.5 222,-.5"/>
<text text-anchor="middle" x="247" y="-7.5" font-family="Helvetica,sans-Serif" font-size="10.00" fill="#000000">date13</text>
</a>
</g>
</g>
<!-- Node1&#45;&gt;Node4 -->
<g id="edge4" class="edge">
<title>Node1&#45;&gt;Node4</title>
<path fill="none" stroke="#191970" d="M186.0832,-22.2478C194.4562,-20.5644 203.4555,-18.755 211.8995,-17.0572"/>
<polygon fill="#191970" stroke="#191970" points="212.7306,-20.4603 221.8444,-15.0577 211.3507,-13.5976 212.7306,-20.4603"/>
</g>
<!-- Node3 -->
<g id="node4" class="node">
<title>Node3</title>
<g id="a_node4"><a xlink:href="sum_8f90.xhtml#a025c1f845b6a4ea9c9f48b8612cd82e7" target="_top" xlink:title="Generic routines for manipulating pp&#45;fields within Fieldcalc. ">
<polygon fill="#ffffff" stroke="#000000" points="308,-38.5 308,-57.5 346,-57.5 346,-38.5 308,-38.5"/>
<text text-anchor="middle" x="327" y="-45.5" font-family="Helvetica,sans-Serif" font-size="10.00" fill="#000000">sum</text>
</a>
</g>
</g>
<!-- Node2&#45;&gt;Node3 -->
<g id="edge3" class="edge">
<title>Node2&#45;&gt;Node3</title>
<path fill="none" stroke="#191970" d="M272.3125,-48C280.4235,-48 289.4702,-48 297.8335,-48"/>
<polygon fill="#191970" stroke="#191970" points="297.9397,-51.5001 307.9396,-48 297.9396,-44.5001 297.9397,-51.5001"/>
</g>
</g>
</svg>
