<?xml version="1.0" encoding="UTF-8" standalone="no"?>
<!DOCTYPE svg PUBLIC "-//W3C//DTD SVG 1.1//EN"
 "http://www.w3.org/Graphics/SVG/1.1/DTD/svg11.dtd">
<!-- Generated by graphviz version 2.40.1 (20161225.0304)
 -->
<!-- Title: lengths Pages: 1 -->
<svg width="460pt" height="85pt"
 viewBox="0.00 0.00 460.00 85.00" xmlns="http://www.w3.org/2000/svg" xmlns:xlink="http://www.w3.org/1999/xlink">
<g id="graph0" class="graph" transform="scale(1 1) rotate(0) translate(4 81)">
<title>lengths</title>
<polygon fill="#ffffff" stroke="transparent" points="-4,4 -4,-81 456,-81 456,4 -4,4"/>
<!-- Node1 -->
<g id="node1" class="node">
<title>Node1</title>
<polygon fill="#bfbfbf" stroke="#000000" points="0,-38.5 0,-57.5 53,-57.5 53,-38.5 0,-38.5"/>
<text text-anchor="middle" x="26.5" y="-45.5" font-family="Helvetica,sans-Serif" font-size="10.00" fill="#000000">lengths</text>
</g>
<!-- Node2 -->
<g id="node2" class="node">
<title>Node2</title>
<g id="a_node2"><a xlink:href="inithdrs_8f90.xhtml#a3c31bab5dc025c6dbd5ff986a353f77e" target="_top" xlink:title="SUBROUTINE INITHDRS &#45;!&gt; ">
<polygon fill="#ffffff" stroke="#000000" points="90.5,-57.5 90.5,-76.5 143.5,-76.5 143.5,-57.5 90.5,-57.5"/>
<text text-anchor="middle" x="117" y="-64.5" font-family="Helvetica,sans-Serif" font-size="10.00" fill="#000000">inithdrs</text>
</a>
</g>
</g>
<!-- Node1&#45;&gt;Node2 -->
<g id="edge1" class="edge">
<title>Node1&#45;&gt;Node2</title>
<path fill="none" stroke="#191970" d="M63.1111,-55.6863C72.1747,-57.5892 81.7186,-59.5929 90.2143,-61.3765"/>
<polygon fill="#191970" stroke="#191970" points="63.6693,-52.2273 53.1635,-53.5979 62.231,-59.0779 63.6693,-52.2273"/>
</g>
<!-- Node3 -->
<g id="node3" class="node">
<title>Node3</title>
<g id="a_node3"><a xlink:href="meanctl_8f90.xhtml#a5bbbf6327297fa87e7a0d9b511eb2b00" target="_top" xlink:title="Subroutine: MEANCTL&#45;!&gt; ">
<polygon fill="#ffffff" stroke="#000000" points="89,-19.5 89,-38.5 145,-38.5 145,-19.5 89,-19.5"/>
<text text-anchor="middle" x="117" y="-26.5" font-family="Helvetica,sans-Serif" font-size="10.00" fill="#000000">meanctl</text>
</a>
</g>
</g>
<!-- Node1&#45;&gt;Node3 -->
<g id="edge2" class="edge">
<title>Node1&#45;&gt;Node3</title>
<path fill="none" stroke="#191970" d="M63.0276,-40.3312C71.6707,-38.5167 80.7551,-36.6094 88.9541,-34.8881"/>
<polygon fill="#191970" stroke="#191970" points="62.231,-36.9221 53.1635,-42.4021 63.6693,-43.7727 62.231,-36.9221"/>
</g>
<!-- Node4 -->
<g id="node4" class="node">
<title>Node4</title>
<g id="a_node4"><a xlink:href="u__model_8f90.xhtml#ada0cd2ce4699433bf0f9adbd882c8eec" target="_top" xlink:title="Subroutine: U_MODEL &#45;!&gt; ">
<polygon fill="#ffffff" stroke="#000000" points="189.5,-38.5 189.5,-57.5 248.5,-57.5 248.5,-38.5 189.5,-38.5"/>
<text text-anchor="middle" x="219" y="-45.5" font-family="Helvetica,sans-Serif" font-size="10.00" fill="#000000">u_model</text>
</a>
</g>
</g>
<!-- Node3&#45;&gt;Node4 -->
<g id="edge3" class="edge">
<title>Node3&#45;&gt;Node4</title>
<path fill="none" stroke="#191970" d="M155.1485,-36.1061C166.392,-38.2005 178.527,-40.4609 189.1674,-42.4429"/>
<polygon fill="#191970" stroke="#191970" points="155.6138,-32.6326 145.142,-34.2421 154.3319,-39.5143 155.6138,-32.6326"/>
</g>
<!-- Node7 -->
<g id="node7" class="node">
<title>Node7</title>
<g id="a_node7"><a xlink:href="u__model__4_a_8f90.xhtml#afa05064dab5eba198b461d0928767c7e" target="_top" xlink:title="LL Subroutine: U_MODEL_4A (ENDGAME VERSION) !&gt;LL. ">
<polygon fill="#ffffff" stroke="#000000" points="181,-.5 181,-19.5 257,-19.5 257,-.5 181,-.5"/>
<text text-anchor="middle" x="219" y="-7.5" font-family="Helvetica,sans-Serif" font-size="10.00" fill="#000000">u_model_4a</text>
</a>
</g>
</g>
<!-- Node3&#45;&gt;Node7 -->
<g id="edge6" class="edge">
<title>Node3&#45;&gt;Node7</title>
<path fill="none" stroke="#191970" d="M155.0329,-21.9154C163.3986,-20.3571 172.2629,-18.7059 180.6414,-17.1452"/>
<polygon fill="#191970" stroke="#191970" points="154.3319,-18.4857 145.142,-23.7579 155.6138,-25.3674 154.3319,-18.4857"/>
</g>
<!-- Node5 -->
<g id="node5" class="node">
<title>Node5</title>
<g id="a_node5"><a xlink:href="um__shell_8f90.xhtml#a8c9bd25362824a5c301376ecb5ed5c27" target="_top" xlink:title="Subroutine: UM_SHELL !&gt; ">
<polygon fill="#ffffff" stroke="#000000" points="293,-19.5 293,-38.5 354,-38.5 354,-19.5 293,-19.5"/>
<text text-anchor="middle" x="323.5" y="-26.5" font-family="Helvetica,sans-Serif" font-size="10.00" fill="#000000">um_shell</text>
</a>
</g>
</g>
<!-- Node4&#45;&gt;Node5 -->
<g id="edge4" class="edge">
<title>Node4&#45;&gt;Node5</title>
<path fill="none" stroke="#191970" d="M258.701,-40.7816C269.951,-38.7362 282.0261,-36.5407 292.6677,-34.6059"/>
<polygon fill="#191970" stroke="#191970" points="257.8786,-37.3737 248.666,-42.6062 259.1308,-44.2608 257.8786,-37.3737"/>
</g>
<!-- Node6 -->
<g id="node6" class="node">
<title>Node6</title>
<g id="a_node6"><a xlink:href="um__main_8f90.xhtml#a8f2d13215621443a5313261c282f098b" target="_top" xlink:title="Code Owner: See Unified Model Code Owner&#39;s HTML page. ">
<polygon fill="#ffffff" stroke="#000000" points="390,-19.5 390,-38.5 452,-38.5 452,-19.5 390,-19.5"/>
<text text-anchor="middle" x="421" y="-26.5" font-family="Helvetica,sans-Serif" font-size="10.00" fill="#000000">um_main</text>
</a>
</g>
</g>
<!-- Node5&#45;&gt;Node6 -->
<g id="edge5" class="edge">
<title>Node5&#45;&gt;Node6</title>
<path fill="none" stroke="#191970" d="M364.2756,-29C372.8294,-29 381.72,-29 389.8551,-29"/>
<polygon fill="#191970" stroke="#191970" points="364.0821,-25.5001 354.0821,-29 364.0821,-32.5001 364.0821,-25.5001"/>
</g>
<!-- Node7&#45;&gt;Node5 -->
<g id="edge7" class="edge">
<title>Node7&#45;&gt;Node5</title>
<path fill="none" stroke="#191970" d="M266.8728,-18.7041C275.7087,-20.3107 284.7128,-21.9478 292.8647,-23.43"/>
<polygon fill="#191970" stroke="#191970" points="267.4873,-15.2586 257.0225,-16.9132 266.2351,-22.1457 267.4873,-15.2586"/>
</g>
</g>
</svg>
