<?xml version="1.0" encoding="UTF-8" standalone="no"?>
<!DOCTYPE svg PUBLIC "-//W3C//DTD SVG 1.1//EN"
 "http://www.w3.org/Graphics/SVG/1.1/DTD/svg11.dtd">
<!-- Generated by graphviz version 2.40.1 (20161225.0304)
 -->
<!-- Title: asad_fyfixr Pages: 1 -->
<svg width="698pt" height="160pt"
 viewBox="0.00 0.00 698.00 159.95" xmlns="http://www.w3.org/2000/svg" xmlns:xlink="http://www.w3.org/1999/xlink">
<g id="graph0" class="graph" transform="scale(1 1) rotate(0) translate(4 155.9539)">
<title>asad_fyfixr</title>
<polygon fill="#ffffff" stroke="transparent" points="-4,4 -4,-155.9539 694,-155.9539 694,4 -4,4"/>
<!-- Node1 -->
<g id="node1" class="node">
<title>Node1</title>
<polygon fill="#bfbfbf" stroke="#000000" points="0,-56.4539 0,-75.4539 71,-75.4539 71,-56.4539 0,-56.4539"/>
<text text-anchor="middle" x="35.5" y="-63.4539" font-family="Helvetica,sans-Serif" font-size="10.00" fill="#000000">asad_fyfixr</text>
</g>
<!-- Node2 -->
<g id="node2" class="node">
<title>Node2</title>
<g id="a_node2"><a xlink:href="asad__ftoy_8f90.xhtml#aec702c6eac425c713c6d64baf7932890" target="_top" xlink:title="(c) [University of Cambridge] [2008]. All rights reserved. ">
<polygon fill="#ffffff" stroke="#000000" points="107,-56.4539 107,-75.4539 172,-75.4539 172,-56.4539 107,-56.4539"/>
<text text-anchor="middle" x="139.5" y="-63.4539" font-family="Helvetica,sans-Serif" font-size="10.00" fill="#000000">asad_ftoy</text>
</a>
</g>
</g>
<!-- Node1&#45;&gt;Node2 -->
<g id="edge1" class="edge">
<title>Node1&#45;&gt;Node2</title>
<path fill="none" stroke="#191970" d="M81.0632,-65.9539C89.7826,-65.9539 98.7472,-65.9539 106.9559,-65.9539"/>
<polygon fill="#191970" stroke="#191970" points="81.0001,-62.454 71,-65.9539 81,-69.454 81.0001,-62.454"/>
</g>
<!-- Node3 -->
<g id="node3" class="node">
<title>Node3</title>
<g id="a_node3"><a xlink:href="asad__bedriv_8f90.xhtml#a0c0aae7845291c0c76dddad8ee5c7a2c" target="_top" xlink:title="(c) [University of Cambridge] [2008]. All rights reserved. ">
<polygon fill="#ffffff" stroke="#000000" points="347,-132.4539 347,-151.4539 423,-151.4539 423,-132.4539 347,-132.4539"/>
<text text-anchor="middle" x="385" y="-139.4539" font-family="Helvetica,sans-Serif" font-size="10.00" fill="#000000">asad_bedriv</text>
</a>
</g>
</g>
<!-- Node2&#45;&gt;Node3 -->
<g id="edge2" class="edge">
<title>Node2&#45;&gt;Node3</title>
<path fill="none" stroke="#191970" d="M156.2962,-82.7024C169.2781,-94.5834 188.3055,-109.8113 208,-117.9539 253.279,-136.6743 310.0897,-141.4288 346.9499,-142.3256"/>
<polygon fill="#191970" stroke="#191970" points="158.3551,-79.8311 148.6921,-75.4863 153.5366,-84.9088 158.3551,-79.8311"/>
</g>
<!-- Node4 -->
<g id="node4" class="node">
<title>Node4</title>
<g id="a_node4"><a xlink:href="asad__cdrive_8f90.xhtml#a7173c03e0c72a19e5fb83121b0425381" target="_top" xlink:title="(c) [University of Cambridge] [2008]. All rights reserved. ">
<polygon fill="#ffffff" stroke="#000000" points="468,-75.4539 468,-94.4539 543,-94.4539 543,-75.4539 468,-75.4539"/>
<text text-anchor="middle" x="505.5" y="-82.4539" font-family="Helvetica,sans-Serif" font-size="10.00" fill="#000000">asad_cdrive</text>
</a>
</g>
</g>
<!-- Node2&#45;&gt;Node4 -->
<g id="edge5" class="edge">
<title>Node2&#45;&gt;Node4</title>
<path fill="none" stroke="#191970" d="M177.9559,-78.3045C187.6643,-80.9547 198.135,-83.4174 208,-84.9539 300.3716,-99.3406 410.8422,-93.3836 467.6428,-88.6583"/>
<polygon fill="#191970" stroke="#191970" points="178.7489,-74.891 168.1719,-75.5058 176.8237,-81.6211 178.7489,-74.891"/>
</g>
<!-- Node6 -->
<g id="node6" class="node">
<title>Node6</title>
<g id="a_node6"><a xlink:href="asad__impact_8f90.xhtml#a5d0099db38e65c1d44c00950354ce54a" target="_top" xlink:title="(c) [University of Cambridge] [2008]. All rights reserved. ">
<polygon fill="#ffffff" stroke="#000000" points="215.5,-56.4539 215.5,-75.4539 294.5,-75.4539 294.5,-56.4539 215.5,-56.4539"/>
<text text-anchor="middle" x="255" y="-63.4539" font-family="Helvetica,sans-Serif" font-size="10.00" fill="#000000">asad_impact</text>
</a>
</g>
</g>
<!-- Node2&#45;&gt;Node6 -->
<g id="edge6" class="edge">
<title>Node2&#45;&gt;Node6</title>
<path fill="none" stroke="#191970" d="M182.3138,-65.9539C193.0627,-65.9539 204.5528,-65.9539 215.1504,-65.9539"/>
<polygon fill="#191970" stroke="#191970" points="182.2888,-62.454 172.2887,-65.9539 182.2887,-69.454 182.2888,-62.454"/>
</g>
<!-- Node7 -->
<g id="node7" class="node">
<title>Node7</title>
<g id="a_node7"><a xlink:href="asad__spimpmjp_8f90.xhtml#acee514e2bb6da1d385ec424b90d6a7ac" target="_top" xlink:title="Copyright (c) 2008, Regents of the University of California. ">
<polygon fill="#ffffff" stroke="#000000" points="208,-18.4539 208,-37.4539 302,-37.4539 302,-18.4539 208,-18.4539"/>
<text text-anchor="middle" x="255" y="-25.4539" font-family="Helvetica,sans-Serif" font-size="10.00" fill="#000000">asad_spimpmjp</text>
</a>
</g>
</g>
<!-- Node2&#45;&gt;Node7 -->
<g id="edge8" class="edge">
<title>Node2&#45;&gt;Node7</title>
<path fill="none" stroke="#191970" d="M178.4841,-53.128C193.9817,-48.0292 211.5024,-42.2648 225.8638,-37.5398"/>
<polygon fill="#191970" stroke="#191970" points="177.0508,-49.9149 168.6455,-56.3649 179.2385,-56.5643 177.0508,-49.9149"/>
</g>
<!-- Node8 -->
<g id="node8" class="node">
<title>Node8</title>
<g id="a_node8"><a xlink:href="asad__spmjpdriv_8f90.xhtml#a5015e4c19778ec6ef6b6d611beffb7ef" target="_top" xlink:title="Copyright (c) 2008, Regents of the University of California. ">
<polygon fill="#ffffff" stroke="#000000" points="338,-18.4539 338,-37.4539 432,-37.4539 432,-18.4539 338,-18.4539"/>
<text text-anchor="middle" x="385" y="-25.4539" font-family="Helvetica,sans-Serif" font-size="10.00" fill="#000000">asad_spmjpdriv</text>
</a>
</g>
</g>
<!-- Node2&#45;&gt;Node8 -->
<g id="edge11" class="edge">
<title>Node2&#45;&gt;Node8</title>
<path fill="none" stroke="#191970" d="M154.0197,-48.5306C166.657,-34.8318 186.313,-16.7969 208,-8.9539 259.5878,9.7025 324.7301,-6.6465 359.8299,-18.4272"/>
<polygon fill="#191970" stroke="#191970" points="151.0946,-46.5557 147.1028,-56.3698 156.3435,-51.187 151.0946,-46.5557"/>
</g>
<!-- Node3&#45;&gt;Node4 -->
<g id="edge3" class="edge">
<title>Node3&#45;&gt;Node4</title>
<path fill="none" stroke="#191970" d="M414.3789,-128.0568C436.3651,-117.6567 465.8661,-103.7019 485.2652,-94.5255"/>
<polygon fill="#191970" stroke="#191970" points="412.712,-124.9734 405.169,-132.4134 415.7053,-131.3012 412.712,-124.9734"/>
</g>
<!-- Node5 -->
<g id="node5" class="node">
<title>Node5</title>
<g id="a_node5"><a xlink:href="ukca__chemistry__ctl_8f90.xhtml#a236899d464f41a41baacbb5737d98bd7" target="_top" xlink:title="!&gt; (c) [University of Cambridge] [2008]. All rights reserved.!&gt; This routine has been licensed to the...">
<polygon fill="#ffffff" stroke="#000000" points="579,-75.4539 579,-94.4539 690,-94.4539 690,-75.4539 579,-75.4539"/>
<text text-anchor="middle" x="634.5" y="-82.4539" font-family="Helvetica,sans-Serif" font-size="10.00" fill="#000000">ukca_chemistry_ctl</text>
</a>
</g>
</g>
<!-- Node4&#45;&gt;Node5 -->
<g id="edge4" class="edge">
<title>Node4&#45;&gt;Node5</title>
<path fill="none" stroke="#191970" d="M553.3936,-84.9539C561.6746,-84.9539 570.3475,-84.9539 578.8139,-84.9539"/>
<polygon fill="#191970" stroke="#191970" points="553.159,-81.454 543.1589,-84.9539 553.1589,-88.454 553.159,-81.454"/>
</g>
<!-- Node6&#45;&gt;Node4 -->
<g id="edge7" class="edge">
<title>Node6&#45;&gt;Node4</title>
<path fill="none" stroke="#191970" d="M304.8447,-69.7345C352.7794,-73.3703 424.1862,-78.7864 467.633,-82.0817"/>
<polygon fill="#191970" stroke="#191970" points="304.9286,-66.2309 294.6925,-68.9645 304.3991,-73.2109 304.9286,-66.2309"/>
</g>
<!-- Node7&#45;&gt;Node8 -->
<g id="edge9" class="edge">
<title>Node7&#45;&gt;Node8</title>
<path fill="none" stroke="#191970" d="M312.5386,-27.9539C321.0345,-27.9539 329.7026,-27.9539 337.9522,-27.9539"/>
<polygon fill="#191970" stroke="#191970" points="312.3008,-24.454 302.3007,-27.9539 312.3007,-31.454 312.3008,-24.454"/>
</g>
<!-- Node8&#45;&gt;Node4 -->
<g id="edge10" class="edge">
<title>Node8&#45;&gt;Node4</title>
<path fill="none" stroke="#191970" d="M414.3789,-41.851C436.3651,-52.2511 465.8661,-66.2059 485.2652,-75.3822"/>
<polygon fill="#191970" stroke="#191970" points="415.7053,-38.6066 405.169,-37.4944 412.712,-44.9344 415.7053,-38.6066"/>
</g>
</g>
</svg>
