<?xml version="1.0" encoding="UTF-8" standalone="no"?>
<!DOCTYPE svg PUBLIC "-//W3C//DTD SVG 1.1//EN"
 "http://www.w3.org/Graphics/SVG/1.1/DTD/svg11.dtd">
<!-- Generated by graphviz version 2.40.1 (20161225.0304)
 -->
<!-- Title: asad_fyself Pages: 1 -->
<!--zoomable 160 -->
<svg id="main" version="1.1" xmlns="http://www.w3.org/2000/svg" xmlns:xlink="http://www.w3.org/1999/xlink" xml:space="preserve" onload="init(evt)">
<style type="text/css"><![CDATA[
.edge:hover path { stroke: red; }
.edge:hover polygon { stroke: red; fill: red; }
]]></style>
<script type="text/javascript"><![CDATA[
var edges = document.getElementsByTagName('g');
if (edges && edges.length) {
  for (var i=0;i<edges.length;i++) {
    if (edges[i].id.substr(0,4)=='edge') {
      edges[i].setAttribute('class','edge');
    }
  }
}
]]></script>
        <defs>
                <circle id="rim" cx="0" cy="0" r="7"/>
                <circle id="rim2" cx="0" cy="0" r="3.5"/>
                <g id="zoomPlus">
                        <use xlink:href="#rim" fill="#404040">
                                <set attributeName="fill" to="#808080" begin="zoomplus.mouseover" end="zoomplus.mouseout"/>
                        </use>
                        <path d="M-4,0h8M0,-4v8" fill="none" stroke="white" stroke-width="1.5" pointer-events="none"/>
                </g>
                <g id="zoomMin">
                        <use xlink:href="#rim" fill="#404040">
                                <set attributeName="fill" to="#808080" begin="zoomminus.mouseover" end="zoomminus.mouseout"/>
                        </use>
                        <path d="M-4,0h8" fill="none" stroke="white" stroke-width="1.5" pointer-events="none"/>
                </g>
                <g id="dirArrow">
                        <path fill="none" stroke="white" stroke-width="1.5" d="M0,-3.0v7 M-2.5,-0.5L0,-3.0L2.5,-0.5"/>
                </g>
               <g id="resetDef">
                       <use xlink:href="#rim2" fill="#404040">
                               <set attributeName="fill" to="#808080" begin="reset.mouseover" end="reset.mouseout"/>
                       </use>
               </g>
        </defs>

<script type="text/javascript">
var viewWidth = 700;
var viewHeight = 160;
var sectionId = 'dynsection-0';
</script>
<script xlink:href="svgpan.js"/>
<svg id="graph" class="graph">
<g id="viewport">
<title>asad_fyself</title>
<polygon fill="#ffffff" stroke="transparent" points="-4,4 -4,-155.9539 696,-155.9539 696,4 -4,4"/>
<!-- Node1 -->
<g id="node1" class="node">
<title>Node1</title>
<polygon fill="#bfbfbf" stroke="#000000" points="0,-56.4539 0,-75.4539 73,-75.4539 73,-56.4539 0,-56.4539"/>
<text text-anchor="middle" x="36.5" y="-63.4539" font-family="Helvetica,sans-Serif" font-size="10.00" fill="#000000">asad_fyself</text>
</g>
<!-- Node2 -->
<g id="node2" class="node">
<title>Node2</title>
<g id="a_node2"><a xlink:href="asad__ftoy_8f90.xhtml#aec702c6eac425c713c6d64baf7932890" target="_top" xlink:title="(c) [University of Cambridge] [2008]. All rights reserved. ">
<polygon fill="#ffffff" stroke="#000000" points="109,-56.4539 109,-75.4539 174,-75.4539 174,-56.4539 109,-56.4539"/>
<text text-anchor="middle" x="141.5" y="-63.4539" font-family="Helvetica,sans-Serif" font-size="10.00" fill="#000000">asad_ftoy</text>
</a>
</g>
</g>
<!-- Node1&#45;&gt;Node2 -->
<g id="edge1" class="edge">
<title>Node1&#45;&gt;Node2</title>
<path fill="none" stroke="#191970" d="M83.4972,-65.9539C92.0503,-65.9539 100.8004,-65.9539 108.826,-65.9539"/>
<polygon fill="#191970" stroke="#191970" points="83.2239,-62.454 73.2239,-65.9539 83.2239,-69.454 83.2239,-62.454"/>
</g>
<!-- Node3 -->
<g id="node3" class="node">
<title>Node3</title>
<g id="a_node3"><a xlink:href="asad__bedriv_8f90.xhtml#a0c0aae7845291c0c76dddad8ee5c7a2c" target="_top" xlink:title="(c) [University of Cambridge] [2008]. All rights reserved. ">
<polygon fill="#ffffff" stroke="#000000" points="349,-132.4539 349,-151.4539 425,-151.4539 425,-132.4539 349,-132.4539"/>
<text text-anchor="middle" x="387" y="-139.4539" font-family="Helvetica,sans-Serif" font-size="10.00" fill="#000000">asad_bedriv</text>
</a>
</g>
</g>
<!-- Node2&#45;&gt;Node3 -->
<g id="edge2" class="edge">
<title>Node2&#45;&gt;Node3</title>
<path fill="none" stroke="#191970" d="M158.2962,-82.7024C171.2781,-94.5834 190.3055,-109.8113 210,-117.9539 255.279,-136.6743 312.0897,-141.4288 348.9499,-142.3256"/>
<polygon fill="#191970" stroke="#191970" points="160.3551,-79.8311 150.6921,-75.4863 155.5366,-84.9088 160.3551,-79.8311"/>
</g>
<!-- Node4 -->
<g id="node4" class="node">
<title>Node4</title>
<g id="a_node4"><a xlink:href="asad__cdrive_8f90.xhtml#a7173c03e0c72a19e5fb83121b0425381" target="_top" xlink:title="(c) [University of Cambridge] [2008]. All rights reserved. ">
<polygon fill="#ffffff" stroke="#000000" points="470,-75.4539 470,-94.4539 545,-94.4539 545,-75.4539 470,-75.4539"/>
<text text-anchor="middle" x="507.5" y="-82.4539" font-family="Helvetica,sans-Serif" font-size="10.00" fill="#000000">asad_cdrive</text>
</a>
</g>
</g>
<!-- Node2&#45;&gt;Node4 -->
<g id="edge5" class="edge">
<title>Node2&#45;&gt;Node4</title>
<path fill="none" stroke="#191970" d="M179.9559,-78.3045C189.6643,-80.9547 200.135,-83.4174 210,-84.9539 302.3716,-99.3406 412.8422,-93.3836 469.6428,-88.6583"/>
<polygon fill="#191970" stroke="#191970" points="180.7489,-74.891 170.1719,-75.5058 178.8237,-81.6211 180.7489,-74.891"/>
</g>
<!-- Node6 -->
<g id="node6" class="node">
<title>Node6</title>
<g id="a_node6"><a xlink:href="asad__impact_8f90.xhtml#a5d0099db38e65c1d44c00950354ce54a" target="_top" xlink:title="(c) [University of Cambridge] [2008]. All rights reserved. ">
<polygon fill="#ffffff" stroke="#000000" points="217.5,-56.4539 217.5,-75.4539 296.5,-75.4539 296.5,-56.4539 217.5,-56.4539"/>
<text text-anchor="middle" x="257" y="-63.4539" font-family="Helvetica,sans-Serif" font-size="10.00" fill="#000000">asad_impact</text>
</a>
</g>
</g>
<!-- Node2&#45;&gt;Node6 -->
<g id="edge6" class="edge">
<title>Node2&#45;&gt;Node6</title>
<path fill="none" stroke="#191970" d="M184.3138,-65.9539C195.0627,-65.9539 206.5528,-65.9539 217.1504,-65.9539"/>
<polygon fill="#191970" stroke="#191970" points="184.2888,-62.454 174.2887,-65.9539 184.2887,-69.454 184.2888,-62.454"/>
</g>
<!-- Node7 -->
<g id="node7" class="node">
<title>Node7</title>
<g id="a_node7"><a xlink:href="asad__spimpmjp_8f90.xhtml#acee514e2bb6da1d385ec424b90d6a7ac" target="_top" xlink:title="Copyright (c) 2008, Regents of the University of California. ">
<polygon fill="#ffffff" stroke="#000000" points="210,-18.4539 210,-37.4539 304,-37.4539 304,-18.4539 210,-18.4539"/>
<text text-anchor="middle" x="257" y="-25.4539" font-family="Helvetica,sans-Serif" font-size="10.00" fill="#000000">asad_spimpmjp</text>
</a>
</g>
</g>
<!-- Node2&#45;&gt;Node7 -->
<g id="edge8" class="edge">
<title>Node2&#45;&gt;Node7</title>
<path fill="none" stroke="#191970" d="M180.4841,-53.128C195.9817,-48.0292 213.5024,-42.2648 227.8638,-37.5398"/>
<polygon fill="#191970" stroke="#191970" points="179.0508,-49.9149 170.6455,-56.3649 181.2385,-56.5643 179.0508,-49.9149"/>
</g>
<!-- Node8 -->
<g id="node8" class="node">
<title>Node8</title>
<g id="a_node8"><a xlink:href="asad__spmjpdriv_8f90.xhtml#a5015e4c19778ec6ef6b6d611beffb7ef" target="_top" xlink:title="Copyright (c) 2008, Regents of the University of California. ">
<polygon fill="#ffffff" stroke="#000000" points="340,-18.4539 340,-37.4539 434,-37.4539 434,-18.4539 340,-18.4539"/>
<text text-anchor="middle" x="387" y="-25.4539" font-family="Helvetica,sans-Serif" font-size="10.00" fill="#000000">asad_spmjpdriv</text>
</a>
</g>
</g>
<!-- Node2&#45;&gt;Node8 -->
<g id="edge11" class="edge">
<title>Node2&#45;&gt;Node8</title>
<path fill="none" stroke="#191970" d="M156.0197,-48.5306C168.657,-34.8318 188.313,-16.7969 210,-8.9539 261.5878,9.7025 326.7301,-6.6465 361.8299,-18.4272"/>
<polygon fill="#191970" stroke="#191970" points="153.0946,-46.5557 149.1028,-56.3698 158.3435,-51.187 153.0946,-46.5557"/>
</g>
<!-- Node3&#45;&gt;Node4 -->
<g id="edge3" class="edge">
<title>Node3&#45;&gt;Node4</title>
<path fill="none" stroke="#191970" d="M416.3789,-128.0568C438.3651,-117.6567 467.8661,-103.7019 487.2652,-94.5255"/>
<polygon fill="#191970" stroke="#191970" points="414.712,-124.9734 407.169,-132.4134 417.7053,-131.3012 414.712,-124.9734"/>
</g>
<!-- Node5 -->
<g id="node5" class="node">
<title>Node5</title>
<g id="a_node5"><a xlink:href="ukca__chemistry__ctl_8f90.xhtml#a236899d464f41a41baacbb5737d98bd7" target="_top" xlink:title="!&gt; (c) [University of Cambridge] [2008]. All rights reserved.!&gt; This routine has been licensed to the...">
<polygon fill="#ffffff" stroke="#000000" points="581,-75.4539 581,-94.4539 692,-94.4539 692,-75.4539 581,-75.4539"/>
<text text-anchor="middle" x="636.5" y="-82.4539" font-family="Helvetica,sans-Serif" font-size="10.00" fill="#000000">ukca_chemistry_ctl</text>
</a>
</g>
</g>
<!-- Node4&#45;&gt;Node5 -->
<g id="edge4" class="edge">
<title>Node4&#45;&gt;Node5</title>
<path fill="none" stroke="#191970" d="M555.3936,-84.9539C563.6746,-84.9539 572.3475,-84.9539 580.8139,-84.9539"/>
<polygon fill="#191970" stroke="#191970" points="555.159,-81.454 545.1589,-84.9539 555.1589,-88.454 555.159,-81.454"/>
</g>
<!-- Node6&#45;&gt;Node4 -->
<g id="edge7" class="edge">
<title>Node6&#45;&gt;Node4</title>
<path fill="none" stroke="#191970" d="M306.8447,-69.7345C354.7794,-73.3703 426.1862,-78.7864 469.633,-82.0817"/>
<polygon fill="#191970" stroke="#191970" points="306.9286,-66.2309 296.6925,-68.9645 306.3991,-73.2109 306.9286,-66.2309"/>
</g>
<!-- Node7&#45;&gt;Node8 -->
<g id="edge9" class="edge">
<title>Node7&#45;&gt;Node8</title>
<path fill="none" stroke="#191970" d="M314.5386,-27.9539C323.0345,-27.9539 331.7026,-27.9539 339.9522,-27.9539"/>
<polygon fill="#191970" stroke="#191970" points="314.3008,-24.454 304.3007,-27.9539 314.3007,-31.454 314.3008,-24.454"/>
</g>
<!-- Node8&#45;&gt;Node4 -->
<g id="edge10" class="edge">
<title>Node8&#45;&gt;Node4</title>
<path fill="none" stroke="#191970" d="M416.3789,-41.851C438.3651,-52.2511 467.8661,-66.2059 487.2652,-75.3822"/>
<polygon fill="#191970" stroke="#191970" points="417.7053,-38.6066 407.169,-37.4944 414.712,-44.9344 417.7053,-38.6066"/>
</g>
</g>
</svg>
        <g id="navigator" transform="translate(0 0)" fill="#404254">
                <rect fill="#f2f5e9" fill-opacity="0.5" stroke="#606060" stroke-width=".5" x="0" y="0" width="60" height="60"/>
                <use id="zoomplus" xlink:href="#zoomPlus" x="17" y="9" onmousedown="handleZoom(evt,'in')"/>
                <use id="zoomminus" xlink:href="#zoomMin" x="42" y="9" onmousedown="handleZoom(evt,'out')"/>
                <use id="reset" xlink:href="#resetDef" x="30" y="36" onmousedown="handleReset()"/>
                <g id="arrowUp" xlink:href="#dirArrow" transform="translate(30 24)" onmousedown="handlePan(0,-1)">
                  <use xlink:href="#rim" fill="#404040">
                        <set attributeName="fill" to="#808080" begin="arrowUp.mouseover" end="arrowUp.mouseout"/>
                  </use>
                  <path fill="none" stroke="white" stroke-width="1.5" d="M0,-3.0v7 M-2.5,-0.5L0,-3.0L2.5,-0.5"/>
                </g>
                <g id="arrowRight" xlink:href="#dirArrow" transform="rotate(90) translate(36 -43)" onmousedown="handlePan(1,0)">
                  <use xlink:href="#rim" fill="#404040">
                        <set attributeName="fill" to="#808080" begin="arrowRight.mouseover" end="arrowRight.mouseout"/>
                  </use>
                  <path fill="none" stroke="white" stroke-width="1.5" d="M0,-3.0v7 M-2.5,-0.5L0,-3.0L2.5,-0.5"/>
                </g>
                <g id="arrowDown" xlink:href="#dirArrow" transform="rotate(180) translate(-30 -48)" onmousedown="handlePan(0,1)">
                  <use xlink:href="#rim" fill="#404040">
                        <set attributeName="fill" to="#808080" begin="arrowDown.mouseover" end="arrowDown.mouseout"/>
                  </use>
                  <path fill="none" stroke="white" stroke-width="1.5" d="M0,-3.0v7 M-2.5,-0.5L0,-3.0L2.5,-0.5"/>
                </g>
                <g id="arrowLeft" xlink:href="#dirArrow" transform="rotate(270) translate(-36 17)" onmousedown="handlePan(-1,0)">
                  <use xlink:href="#rim" fill="#404040">
                        <set attributeName="fill" to="#808080" begin="arrowLeft.mouseover" end="arrowLeft.mouseout"/>
                  </use>
                  <path fill="none" stroke="white" stroke-width="1.5" d="M0,-3.0v7 M-2.5,-0.5L0,-3.0L2.5,-0.5"/>
                </g>
        </g>
        <svg viewBox="0 0 15 15" width="100%" height="30px" preserveAspectRatio="xMaxYMin meet">
         <g id="arrow_out" transform="scale(0.3 0.3)">
          <a xlink:href="asad__fyself_8f90_a80ba22753ffe36c0126dfaab62a56921_icgraph_org.svg" target="_base">
           <rect id="button" ry="5" rx="5" y="6" x="6" height="38" width="38"
                fill="#f2f5e9" fill-opacity="0.5" stroke="#606060" stroke-width="1.0"/>
           <path id="arrow"
             d="M 11.500037,31.436501 C 11.940474,20.09759 22.043105,11.32322 32.158766,21.979434 L 37.068811,17.246167 C 37.068811,17.246167 37.088388,32 37.088388,32 L 22.160133,31.978069 C 22.160133,31.978069 26.997745,27.140456 26.997745,27.140456 C 18.528582,18.264221 13.291696,25.230495 11.500037,31.436501 z"
             style="fill:#404040;"/>
          </a>
         </g>
        </svg>
</svg>
