<?xml version="1.0" encoding="UTF-8" standalone="no"?>
<!DOCTYPE svg PUBLIC "-//W3C//DTD SVG 1.1//EN"
 "http://www.w3.org/Graphics/SVG/1.1/DTD/svg11.dtd">
<!-- Generated by graphviz version 2.40.1 (20161225.0304)
 -->
<!-- Title: asad_inicnt Pages: 1 -->
<svg width="806pt" height="160pt"
 viewBox="0.00 0.00 806.00 159.95" xmlns="http://www.w3.org/2000/svg" xmlns:xlink="http://www.w3.org/1999/xlink">
<g id="graph0" class="graph" transform="scale(1 1) rotate(0) translate(4 155.9539)">
<title>asad_inicnt</title>
<polygon fill="#ffffff" stroke="transparent" points="-4,4 -4,-155.9539 802,-155.9539 802,4 -4,4"/>
<!-- Node1 -->
<g id="node1" class="node">
<title>Node1</title>
<polygon fill="#bfbfbf" stroke="#000000" points="0,-56.4539 0,-75.4539 72,-75.4539 72,-56.4539 0,-56.4539"/>
<text text-anchor="middle" x="36" y="-63.4539" font-family="Helvetica,sans-Serif" font-size="10.00" fill="#000000">asad_inicnt</text>
</g>
<!-- Node2 -->
<g id="node2" class="node">
<title>Node2</title>
<g id="a_node2"><a xlink:href="asad__fyinit_8f90.xhtml#ab0c0fe146d98298c968cef7e58a3bb99" target="_top" xlink:title="(c) [University of Cambridge] [2008]. All rights reserved. ">
<polygon fill="#ffffff" stroke="#000000" points="108,-56.4539 108,-75.4539 179,-75.4539 179,-56.4539 108,-56.4539"/>
<text text-anchor="middle" x="143.5" y="-63.4539" font-family="Helvetica,sans-Serif" font-size="10.00" fill="#000000">asad_fyinit</text>
</a>
</g>
</g>
<!-- Node1&#45;&gt;Node2 -->
<g id="edge1" class="edge">
<title>Node1&#45;&gt;Node2</title>
<path fill="none" stroke="#191970" d="M82.2828,-65.9539C90.7865,-65.9539 99.5446,-65.9539 107.683,-65.9539"/>
<polygon fill="#191970" stroke="#191970" points="82.095,-62.454 72.095,-65.9539 82.095,-69.454 82.095,-62.454"/>
</g>
<!-- Node3 -->
<g id="node3" class="node">
<title>Node3</title>
<g id="a_node3"><a xlink:href="asad__ftoy_8f90.xhtml#aec702c6eac425c713c6d64baf7932890" target="_top" xlink:title="(c) [University of Cambridge] [2008]. All rights reserved. ">
<polygon fill="#ffffff" stroke="#000000" points="215,-56.4539 215,-75.4539 280,-75.4539 280,-56.4539 215,-56.4539"/>
<text text-anchor="middle" x="247.5" y="-63.4539" font-family="Helvetica,sans-Serif" font-size="10.00" fill="#000000">asad_ftoy</text>
</a>
</g>
</g>
<!-- Node2&#45;&gt;Node3 -->
<g id="edge2" class="edge">
<title>Node2&#45;&gt;Node3</title>
<path fill="none" stroke="#191970" d="M189.0632,-65.9539C197.7826,-65.9539 206.7472,-65.9539 214.9559,-65.9539"/>
<polygon fill="#191970" stroke="#191970" points="189.0001,-62.454 179,-65.9539 189,-69.454 189.0001,-62.454"/>
</g>
<!-- Node4 -->
<g id="node4" class="node">
<title>Node4</title>
<g id="a_node4"><a xlink:href="asad__bedriv_8f90.xhtml#a0c0aae7845291c0c76dddad8ee5c7a2c" target="_top" xlink:title="(c) [University of Cambridge] [2008]. All rights reserved. ">
<polygon fill="#ffffff" stroke="#000000" points="455,-132.4539 455,-151.4539 531,-151.4539 531,-132.4539 455,-132.4539"/>
<text text-anchor="middle" x="493" y="-139.4539" font-family="Helvetica,sans-Serif" font-size="10.00" fill="#000000">asad_bedriv</text>
</a>
</g>
</g>
<!-- Node3&#45;&gt;Node4 -->
<g id="edge3" class="edge">
<title>Node3&#45;&gt;Node4</title>
<path fill="none" stroke="#191970" d="M264.2962,-82.7024C277.2781,-94.5834 296.3055,-109.8113 316,-117.9539 361.279,-136.6743 418.0897,-141.4288 454.9499,-142.3256"/>
<polygon fill="#191970" stroke="#191970" points="266.3551,-79.8311 256.6921,-75.4863 261.5366,-84.9088 266.3551,-79.8311"/>
</g>
<!-- Node5 -->
<g id="node5" class="node">
<title>Node5</title>
<g id="a_node5"><a xlink:href="asad__cdrive_8f90.xhtml#a7173c03e0c72a19e5fb83121b0425381" target="_top" xlink:title="(c) [University of Cambridge] [2008]. All rights reserved. ">
<polygon fill="#ffffff" stroke="#000000" points="576,-75.4539 576,-94.4539 651,-94.4539 651,-75.4539 576,-75.4539"/>
<text text-anchor="middle" x="613.5" y="-82.4539" font-family="Helvetica,sans-Serif" font-size="10.00" fill="#000000">asad_cdrive</text>
</a>
</g>
</g>
<!-- Node3&#45;&gt;Node5 -->
<g id="edge6" class="edge">
<title>Node3&#45;&gt;Node5</title>
<path fill="none" stroke="#191970" d="M285.9559,-78.3045C295.6643,-80.9547 306.135,-83.4174 316,-84.9539 408.3716,-99.3406 518.8422,-93.3836 575.6428,-88.6583"/>
<polygon fill="#191970" stroke="#191970" points="286.7489,-74.891 276.1719,-75.5058 284.8237,-81.6211 286.7489,-74.891"/>
</g>
<!-- Node7 -->
<g id="node7" class="node">
<title>Node7</title>
<g id="a_node7"><a xlink:href="asad__impact_8f90.xhtml#a5d0099db38e65c1d44c00950354ce54a" target="_top" xlink:title="(c) [University of Cambridge] [2008]. All rights reserved. ">
<polygon fill="#ffffff" stroke="#000000" points="323.5,-56.4539 323.5,-75.4539 402.5,-75.4539 402.5,-56.4539 323.5,-56.4539"/>
<text text-anchor="middle" x="363" y="-63.4539" font-family="Helvetica,sans-Serif" font-size="10.00" fill="#000000">asad_impact</text>
</a>
</g>
</g>
<!-- Node3&#45;&gt;Node7 -->
<g id="edge7" class="edge">
<title>Node3&#45;&gt;Node7</title>
<path fill="none" stroke="#191970" d="M290.3138,-65.9539C301.0627,-65.9539 312.5528,-65.9539 323.1504,-65.9539"/>
<polygon fill="#191970" stroke="#191970" points="290.2888,-62.454 280.2887,-65.9539 290.2887,-69.454 290.2888,-62.454"/>
</g>
<!-- Node8 -->
<g id="node8" class="node">
<title>Node8</title>
<g id="a_node8"><a xlink:href="asad__spimpmjp_8f90.xhtml#acee514e2bb6da1d385ec424b90d6a7ac" target="_top" xlink:title="Copyright (c) 2008, Regents of the University of California. ">
<polygon fill="#ffffff" stroke="#000000" points="316,-18.4539 316,-37.4539 410,-37.4539 410,-18.4539 316,-18.4539"/>
<text text-anchor="middle" x="363" y="-25.4539" font-family="Helvetica,sans-Serif" font-size="10.00" fill="#000000">asad_spimpmjp</text>
</a>
</g>
</g>
<!-- Node3&#45;&gt;Node8 -->
<g id="edge9" class="edge">
<title>Node3&#45;&gt;Node8</title>
<path fill="none" stroke="#191970" d="M286.4841,-53.128C301.9817,-48.0292 319.5024,-42.2648 333.8638,-37.5398"/>
<polygon fill="#191970" stroke="#191970" points="285.0508,-49.9149 276.6455,-56.3649 287.2385,-56.5643 285.0508,-49.9149"/>
</g>
<!-- Node9 -->
<g id="node9" class="node">
<title>Node9</title>
<g id="a_node9"><a xlink:href="asad__spmjpdriv_8f90.xhtml#a5015e4c19778ec6ef6b6d611beffb7ef" target="_top" xlink:title="Copyright (c) 2008, Regents of the University of California. ">
<polygon fill="#ffffff" stroke="#000000" points="446,-18.4539 446,-37.4539 540,-37.4539 540,-18.4539 446,-18.4539"/>
<text text-anchor="middle" x="493" y="-25.4539" font-family="Helvetica,sans-Serif" font-size="10.00" fill="#000000">asad_spmjpdriv</text>
</a>
</g>
</g>
<!-- Node3&#45;&gt;Node9 -->
<g id="edge12" class="edge">
<title>Node3&#45;&gt;Node9</title>
<path fill="none" stroke="#191970" d="M262.0197,-48.5306C274.657,-34.8318 294.313,-16.7969 316,-8.9539 367.5878,9.7025 432.7301,-6.6465 467.8299,-18.4272"/>
<polygon fill="#191970" stroke="#191970" points="259.0946,-46.5557 255.1028,-56.3698 264.3435,-51.187 259.0946,-46.5557"/>
</g>
<!-- Node4&#45;&gt;Node5 -->
<g id="edge4" class="edge">
<title>Node4&#45;&gt;Node5</title>
<path fill="none" stroke="#191970" d="M522.3789,-128.0568C544.3651,-117.6567 573.8661,-103.7019 593.2652,-94.5255"/>
<polygon fill="#191970" stroke="#191970" points="520.712,-124.9734 513.169,-132.4134 523.7053,-131.3012 520.712,-124.9734"/>
</g>
<!-- Node6 -->
<g id="node6" class="node">
<title>Node6</title>
<g id="a_node6"><a xlink:href="ukca__chemistry__ctl_8f90.xhtml#a236899d464f41a41baacbb5737d98bd7" target="_top" xlink:title="!&gt; (c) [University of Cambridge] [2008]. All rights reserved.!&gt; This routine has been licensed to the...">
<polygon fill="#ffffff" stroke="#000000" points="687,-75.4539 687,-94.4539 798,-94.4539 798,-75.4539 687,-75.4539"/>
<text text-anchor="middle" x="742.5" y="-82.4539" font-family="Helvetica,sans-Serif" font-size="10.00" fill="#000000">ukca_chemistry_ctl</text>
</a>
</g>
</g>
<!-- Node5&#45;&gt;Node6 -->
<g id="edge5" class="edge">
<title>Node5&#45;&gt;Node6</title>
<path fill="none" stroke="#191970" d="M661.3936,-84.9539C669.6746,-84.9539 678.3475,-84.9539 686.8139,-84.9539"/>
<polygon fill="#191970" stroke="#191970" points="661.159,-81.454 651.1589,-84.9539 661.1589,-88.454 661.159,-81.454"/>
</g>
<!-- Node7&#45;&gt;Node5 -->
<g id="edge8" class="edge">
<title>Node7&#45;&gt;Node5</title>
<path fill="none" stroke="#191970" d="M412.8447,-69.7345C460.7794,-73.3703 532.1862,-78.7864 575.633,-82.0817"/>
<polygon fill="#191970" stroke="#191970" points="412.9286,-66.2309 402.6925,-68.9645 412.3991,-73.2109 412.9286,-66.2309"/>
</g>
<!-- Node8&#45;&gt;Node9 -->
<g id="edge10" class="edge">
<title>Node8&#45;&gt;Node9</title>
<path fill="none" stroke="#191970" d="M420.5386,-27.9539C429.0345,-27.9539 437.7026,-27.9539 445.9522,-27.9539"/>
<polygon fill="#191970" stroke="#191970" points="420.3008,-24.454 410.3007,-27.9539 420.3007,-31.454 420.3008,-24.454"/>
</g>
<!-- Node9&#45;&gt;Node5 -->
<g id="edge11" class="edge">
<title>Node9&#45;&gt;Node5</title>
<path fill="none" stroke="#191970" d="M522.3789,-41.851C544.3651,-52.2511 573.8661,-66.2059 593.2652,-75.3822"/>
<polygon fill="#191970" stroke="#191970" points="523.7053,-38.6066 513.169,-37.4944 520.712,-44.9344 523.7053,-38.6066"/>
</g>
</g>
</svg>
