<?xml version="1.0" encoding="UTF-8" standalone="no"?>
<!DOCTYPE svg PUBLIC "-//W3C//DTD SVG 1.1//EN"
 "http://www.w3.org/Graphics/SVG/1.1/DTD/svg11.dtd">
<!-- Generated by graphviz version 2.40.1 (20161225.0304)
 -->
<!-- Title: asad_spmjpdriv Pages: 1 -->
<svg width="1130pt" height="389pt"
 viewBox="0.00 0.00 1130.00 388.87" xmlns="http://www.w3.org/2000/svg" xmlns:xlink="http://www.w3.org/1999/xlink">
<g id="graph0" class="graph" transform="scale(1 1) rotate(0) translate(4 384.8692)">
<title>asad_spmjpdriv</title>
<polygon fill="#ffffff" stroke="transparent" points="-4,4 -4,-384.8692 1126,-384.8692 1126,4 -4,4"/>
<!-- Node0 -->
<g id="node1" class="node">
<title>Node0</title>
<polygon fill="#bfbfbf" stroke="#000000" points="0,-209.3692 0,-228.3692 94,-228.3692 94,-209.3692 0,-209.3692"/>
<text text-anchor="middle" x="47" y="-216.3692" font-family="Helvetica,sans-Serif" font-size="10.00" fill="#000000">asad_spmjpdriv</text>
</g>
<!-- Node1 -->
<g id="node2" class="node">
<title>Node1</title>
<g id="a_node2"><a xlink:href="asad__diffun_8f90.xhtml#a24e5f2651d02752cda4bae7c366a9f0e" target="_top" xlink:title="(c) [University of Cambridge] [2008]. All rights reserved. ">
<polygon fill="#ffffff" stroke="#000000" points="302,-304.3692 302,-323.3692 375,-323.3692 375,-304.3692 302,-304.3692"/>
<text text-anchor="middle" x="338.5" y="-311.3692" font-family="Helvetica,sans-Serif" font-size="10.00" fill="#000000">asad_diffun</text>
</a>
</g>
</g>
<!-- Node0&#45;&gt;Node1 -->
<g id="edge1" class="edge">
<title>Node0&#45;&gt;Node1</title>
<path fill="none" stroke="#191970" d="M64.4079,-228.3915C80.9312,-237.1551 106.6428,-250.0876 130,-258.8692 186.1171,-279.9674 201.9685,-279.8154 260,-294.8692 270.2856,-297.5373 281.3605,-300.2908 291.8561,-302.8452"/>
<polygon fill="#191970" stroke="#191970" points="291.1543,-306.2763 301.6968,-305.224 292.7991,-299.4722 291.1543,-306.2763"/>
</g>
<!-- Node3 -->
<g id="node4" class="node">
<title>Node3</title>
<g id="a_node4"><a xlink:href="asad__spimpmjp_8f90.xhtml#acee514e2bb6da1d385ec424b90d6a7ac" target="_top" xlink:title="Copyright (c) 2008, Regents of the University of California. ">
<polygon fill="#ffffff" stroke="#000000" points="130,-190.3692 130,-209.3692 224,-209.3692 224,-190.3692 130,-190.3692"/>
<text text-anchor="middle" x="177" y="-197.3692" font-family="Helvetica,sans-Serif" font-size="10.00" fill="#000000">asad_spimpmjp</text>
</a>
</g>
</g>
<!-- Node0&#45;&gt;Node3 -->
<g id="edge3" class="edge">
<title>Node0&#45;&gt;Node3</title>
<path fill="none" stroke="#191970" d="M94.3007,-211.956C102.6495,-210.7358 111.42,-209.4539 120.0015,-208.1997"/>
<polygon fill="#191970" stroke="#191970" points="120.5635,-211.6549 129.9522,-206.7454 119.5511,-204.7284 120.5635,-211.6549"/>
</g>
<!-- Node7 -->
<g id="node8" class="node">
<title>Node7</title>
<g id="a_node8"><a xlink:href="namespaceumprintmgr.xhtml#aae44897e556705dbf5e945a26538be9a" target="_top" xlink:title="umprintmgr::umprint">
<polygon fill="#ffffff" stroke="#000000" points="626,-168.3692 626,-187.3692 745,-187.3692 745,-168.3692 626,-168.3692"/>
<text text-anchor="middle" x="685.5" y="-175.3692" font-family="Helvetica,sans-Serif" font-size="10.00" fill="#000000">umprintmgr::umprint</text>
</a>
</g>
</g>
<!-- Node0&#45;&gt;Node7 -->
<g id="edge25" class="edge">
<title>Node0&#45;&gt;Node7</title>
<path fill="none" stroke="#191970" d="M53.6502,-209.1951C77.1076,-176.0471 159.9849,-66.9948 260,-28.8692 398.6739,23.9932 466.3421,2.1894 590,-79.8692 611.0532,-93.8399 608.5972,-105.5508 626,-123.8692 638.6466,-137.181 654.0179,-151.0795 665.9688,-161.4422"/>
<polygon fill="#191970" stroke="#191970" points="663.7501,-164.1503 673.6205,-168.0009 668.3057,-158.8355 663.7501,-164.1503"/>
</g>
<!-- Node14 -->
<g id="node15" class="node">
<title>Node14</title>
<g id="a_node15"><a xlink:href="asad__ftoy_8f90.xhtml#aec702c6eac425c713c6d64baf7932890" target="_top" xlink:title="(c) [University of Cambridge] [2008]. All rights reserved. ">
<polygon fill="#ffffff" stroke="#000000" points="306,-266.3692 306,-285.3692 371,-285.3692 371,-266.3692 306,-266.3692"/>
<text text-anchor="middle" x="338.5" y="-273.3692" font-family="Helvetica,sans-Serif" font-size="10.00" fill="#000000">asad_ftoy</text>
</a>
</g>
</g>
<!-- Node0&#45;&gt;Node14 -->
<g id="edge26" class="edge">
<title>Node0&#45;&gt;Node14</title>
<path fill="none" stroke="#191970" d="M94.1585,-228.0906C150.0171,-239.0132 242.2466,-257.0477 295.9892,-267.5566"/>
<polygon fill="#191970" stroke="#191970" points="295.3948,-271.0066 305.8806,-269.4908 296.7382,-264.1367 295.3948,-271.0066"/>
</g>
<!-- Node2 -->
<g id="node3" class="node">
<title>Node2</title>
<g id="a_node3"><a xlink:href="asad__prls_8f90.xhtml#aff4ede1e3451428db2a2e8e99b0157da" target="_top" xlink:title="(c) [University of Cambridge] [2008]. All rights reserved. ">
<polygon fill="#ffffff" stroke="#000000" points="490,-361.3692 490,-380.3692 553,-380.3692 553,-361.3692 490,-361.3692"/>
<text text-anchor="middle" x="521.5" y="-368.3692" font-family="Helvetica,sans-Serif" font-size="10.00" fill="#000000">asad_prls</text>
</a>
</g>
</g>
<!-- Node1&#45;&gt;Node2 -->
<g id="edge2" class="edge">
<title>Node1&#45;&gt;Node2</title>
<path fill="none" stroke="#191970" d="M366.1408,-323.4722C389.2552,-331.399 423.1452,-342.7808 453,-351.8692 461.6639,-354.5066 470.9893,-357.1932 479.8851,-359.6841"/>
<polygon fill="#191970" stroke="#191970" points="479.1166,-363.1029 489.6881,-362.4001 480.9857,-356.3571 479.1166,-363.1029"/>
</g>
<!-- Node3&#45;&gt;Node1 -->
<g id="edge23" class="edge">
<title>Node3&#45;&gt;Node1</title>
<path fill="none" stroke="#191970" d="M182.4919,-209.4106C194.1413,-228.7489 223.2946,-272.612 260,-294.8692 269.6388,-300.7138 280.965,-304.7614 291.9683,-307.5642"/>
<polygon fill="#191970" stroke="#191970" points="291.4005,-311.0238 301.9249,-309.804 292.9369,-304.1945 291.4005,-311.0238"/>
</g>
<!-- Node4 -->
<g id="node5" class="node">
<title>Node4</title>
<g id="a_node5"><a xlink:href="namespaceasad__sparse__vars.xhtml#ad753346de8a81d2a9e6222a4de492270" target="_top" xlink:title="asad_sparse_vars::spfuljac">
<polygon fill="#ffffff" stroke="#000000" points="264.5,-38.3692 264.5,-57.3692 412.5,-57.3692 412.5,-38.3692 264.5,-38.3692"/>
<text text-anchor="middle" x="338.5" y="-45.3692" font-family="Helvetica,sans-Serif" font-size="10.00" fill="#000000">asad_sparse_vars::spfuljac</text>
</a>
</g>
</g>
<!-- Node3&#45;&gt;Node4 -->
<g id="edge4" class="edge">
<title>Node3&#45;&gt;Node4</title>
<path fill="none" stroke="#191970" d="M180.183,-190.0247C188.7497,-165.1661 214.757,-99.5232 260,-66.8692 262.6719,-64.9407 265.5148,-63.2062 268.4747,-61.6463"/>
<polygon fill="#191970" stroke="#191970" points="269.999,-64.7981 277.6517,-57.4709 267.1,-58.4265 269.999,-64.7981"/>
</g>
<!-- Node3&#45;&gt;Node7 -->
<g id="edge22" class="edge">
<title>Node3&#45;&gt;Node7</title>
<path fill="none" stroke="#191970" d="M210.6245,-209.3766C225.6052,-213.1411 243.5483,-217.0102 260,-218.8692 329.3365,-226.7039 349.6404,-237.0798 417,-218.8692 434.8813,-214.035 435.3425,-203.4659 453,-197.8692 505.8907,-181.105 568.7307,-176.5535 615.7383,-175.9458"/>
<polygon fill="#191970" stroke="#191970" points="615.8457,-179.4452 625.82,-175.8724 615.7947,-172.4454 615.8457,-179.4452"/>
</g>
<!-- Node11 -->
<g id="node12" class="node">
<title>Node11</title>
<g id="a_node12"><a xlink:href="namespaceasad__sparse__vars.xhtml#a23f8f41526216f818abcd5cadfb3a186" target="_top" xlink:title="asad_sparse_vars::splinslv2">
<polygon fill="#ffffff" stroke="#000000" points="262,-76.3692 262,-95.3692 415,-95.3692 415,-76.3692 262,-76.3692"/>
<text text-anchor="middle" x="338.5" y="-83.3692" font-family="Helvetica,sans-Serif" font-size="10.00" fill="#000000">asad_sparse_vars::splinslv2</text>
</a>
</g>
</g>
<!-- Node3&#45;&gt;Node11 -->
<g id="edge12" class="edge">
<title>Node3&#45;&gt;Node11</title>
<path fill="none" stroke="#191970" d="M182.4919,-190.3277C194.1413,-170.9895 223.2946,-127.1263 260,-104.8692 263.5745,-102.7017 267.3811,-100.7814 271.3171,-99.08"/>
<polygon fill="#191970" stroke="#191970" points="272.5993,-102.337 280.6882,-95.4944 270.0978,-95.7992 272.5993,-102.337"/>
</g>
<!-- Node12 -->
<g id="node13" class="node">
<title>Node12</title>
<g id="a_node13"><a xlink:href="namespaceasad__sparse__vars.xhtml#ae04e4ddadac276b623d0bae52db956bd" target="_top" xlink:title="asad_sparse_vars::spresolv2">
<polygon fill="#ffffff" stroke="#000000" points="260,-190.3692 260,-209.3692 417,-209.3692 417,-190.3692 260,-190.3692"/>
<text text-anchor="middle" x="338.5" y="-197.3692" font-family="Helvetica,sans-Serif" font-size="10.00" fill="#000000">asad_sparse_vars::spresolv2</text>
</a>
</g>
</g>
<!-- Node3&#45;&gt;Node12 -->
<g id="edge13" class="edge">
<title>Node3&#45;&gt;Node12</title>
<path fill="none" stroke="#191970" d="M224.1466,-199.8692C232.3317,-199.8692 241.0775,-199.8692 249.95,-199.8692"/>
<polygon fill="#191970" stroke="#191970" points="249.9981,-203.3693 259.9981,-199.8692 249.9981,-196.3693 249.9981,-203.3693"/>
</g>
<!-- Node13 -->
<g id="node14" class="node">
<title>Node13</title>
<g id="a_node14"><a xlink:href="asad__steady_8f90.xhtml#aab8e6164589bada9265c049b3dd2daf8" target="_top" xlink:title="(c) [University of Cambridge] [2008]. All rights reserved. ">
<polygon fill="#ffffff" stroke="#000000" points="299.5,-152.3692 299.5,-171.3692 377.5,-171.3692 377.5,-152.3692 299.5,-152.3692"/>
<text text-anchor="middle" x="338.5" y="-159.3692" font-family="Helvetica,sans-Serif" font-size="10.00" fill="#000000">asad_steady</text>
</a>
</g>
</g>
<!-- Node3&#45;&gt;Node13 -->
<g id="edge14" class="edge">
<title>Node3&#45;&gt;Node13</title>
<path fill="none" stroke="#191970" d="M217.7533,-190.2802C239.5679,-185.1473 266.5928,-178.7885 289.5412,-173.3889"/>
<polygon fill="#191970" stroke="#191970" points="290.4986,-176.7593 299.4311,-171.0618 288.8953,-169.9454 290.4986,-176.7593"/>
</g>
<!-- Node3&#45;&gt;Node14 -->
<g id="edge15" class="edge">
<title>Node3&#45;&gt;Node14</title>
<path fill="none" stroke="#191970" d="M189.904,-209.4678C205.7303,-220.8737 233.7028,-239.8661 260,-251.8692 271.344,-257.047 284.1041,-261.4891 295.9869,-265.0935"/>
<polygon fill="#191970" stroke="#191970" points="295.1323,-268.4899 305.7119,-267.9219 297.0872,-261.7684 295.1323,-268.4899"/>
</g>
<!-- Node19 -->
<g id="node20" class="node">
<title>Node19</title>
<g id="a_node20"><a xlink:href="asad__fuljac_8f90.xhtml#accad6d70390db3a6fd3fc4de8ccae5ab" target="_top" xlink:title="Copyright (c) 2008, Regents of the University of California. ">
<polygon fill="#ffffff" stroke="#000000" points="302.5,-114.3692 302.5,-133.3692 374.5,-133.3692 374.5,-114.3692 302.5,-114.3692"/>
<text text-anchor="middle" x="338.5" y="-121.3692" font-family="Helvetica,sans-Serif" font-size="10.00" fill="#000000">asad_fuljac</text>
</a>
</g>
</g>
<!-- Node3&#45;&gt;Node19 -->
<g id="edge24" class="edge">
<title>Node3&#45;&gt;Node19</title>
<path fill="none" stroke="#191970" d="M188.0191,-190.3212C203.2092,-177.6446 231.9035,-155.4036 260,-142.8692 270.1964,-138.3204 281.6442,-134.7631 292.5785,-132.0207"/>
<polygon fill="#191970" stroke="#191970" points="293.4806,-135.4043 302.4253,-129.7261 291.8919,-128.587 293.4806,-135.4043"/>
</g>
<!-- Node5 -->
<g id="node6" class="node">
<title>Node5</title>
<g id="a_node6"><a xlink:href="namespaceasad__sparse__vars.xhtml#aa239bf98e3a1f0d0f6fd4c88b3cfd783" target="_top" xlink:title="!&gt;!&gt;!&gt;!&gt;!&gt;!&gt;!&gt;!&gt;!&gt;!&gt;!&gt;!&gt;!&gt;!&gt;!&gt;!&gt;!&gt;!&gt;!&gt;!&gt;!&gt;!&gt;!&gt;!&gt;!&gt;!&gt;!&gt;!&gt;!&gt;!&gt;!&gt;!&gt;!&gt;!&gt;!&gt;!&gt;!&gt;!&gt;!&gt;!&gt;!&gt;!&gt;!&gt;!&gt;!&gt;!&gt;!&gt;!&gt;!&gt;!&gt;!...">
<polygon fill="#ffffff" stroke="#000000" points="453,-89.8692 453,-119.8692 590,-119.8692 590,-89.8692 453,-89.8692"/>
<text text-anchor="start" x="461" y="-107.8692" font-family="Helvetica,sans-Serif" font-size="10.00" fill="#000000">asad_sparse_vars::setup</text>
<text text-anchor="middle" x="521.5" y="-96.8692" font-family="Helvetica,sans-Serif" font-size="10.00" fill="#000000">_spfuljac</text>
</a>
</g>
</g>
<!-- Node4&#45;&gt;Node5 -->
<g id="edge5" class="edge">
<title>Node4&#45;&gt;Node5</title>
<path fill="none" stroke="#191970" d="M381.9205,-57.4658C393.396,-60.2503 405.7239,-63.4659 417,-66.8692 435.7122,-72.5168 455.9694,-79.6413 473.6223,-86.1909"/>
<polygon fill="#191970" stroke="#191970" points="472.5429,-89.5241 483.1351,-89.7575 475.0003,-82.9696 472.5429,-89.5241"/>
</g>
<!-- Node6 -->
<g id="node7" class="node">
<title>Node6</title>
<g id="a_node7"><a xlink:href="sum_8f90.xhtml#a025c1f845b6a4ea9c9f48b8612cd82e7" target="_top" xlink:title="Generic routines for manipulating pp&#45;fields within Fieldcalc. ">
<polygon fill="#ffffff" stroke="#000000" points="666.5,-95.3692 666.5,-114.3692 704.5,-114.3692 704.5,-95.3692 666.5,-95.3692"/>
<text text-anchor="middle" x="685.5" y="-102.3692" font-family="Helvetica,sans-Serif" font-size="10.00" fill="#000000">sum</text>
</a>
</g>
</g>
<!-- Node5&#45;&gt;Node6 -->
<g id="edge6" class="edge">
<title>Node5&#45;&gt;Node6</title>
<path fill="none" stroke="#191970" d="M590.1005,-104.8692C613.2866,-104.8692 637.9416,-104.8692 656.3782,-104.8692"/>
<polygon fill="#191970" stroke="#191970" points="656.4567,-108.3693 666.4566,-104.8692 656.4566,-101.3693 656.4567,-108.3693"/>
</g>
<!-- Node5&#45;&gt;Node7 -->
<g id="edge7" class="edge">
<title>Node5&#45;&gt;Node7</title>
<path fill="none" stroke="#191970" d="M555.4809,-119.9948C584.6872,-132.9952 626.4422,-151.5813 654.6901,-164.155"/>
<polygon fill="#191970" stroke="#191970" points="653.5165,-167.4636 664.0756,-168.3327 656.3631,-161.0686 653.5165,-167.4636"/>
</g>
<!-- Node8 -->
<g id="node9" class="node">
<title>Node8</title>
<g id="a_node9"><a xlink:href="namespaceumprintmgr.xhtml#a088ce22a18d574e9df7ee1850bfb10c7" target="_top" xlink:title="umprintmgr::umprintopenstream">
<polygon fill="#ffffff" stroke="#000000" points="781,-168.3692 781,-187.3692 958,-187.3692 958,-168.3692 781,-168.3692"/>
<text text-anchor="middle" x="869.5" y="-175.3692" font-family="Helvetica,sans-Serif" font-size="10.00" fill="#000000">umprintmgr::umprintopenstream</text>
</a>
</g>
</g>
<!-- Node7&#45;&gt;Node8 -->
<g id="edge8" class="edge">
<title>Node7&#45;&gt;Node8</title>
<path fill="none" stroke="#191970" d="M745.2395,-171.5024C753.4605,-171.2992 762.0751,-171.1769 770.7702,-171.1352"/>
<polygon fill="#191970" stroke="#191970" points="770.9998,-174.6351 780.9958,-171.1235 770.9917,-167.6351 770.9998,-174.6351"/>
</g>
<!-- Node9 -->
<g id="node10" class="node">
<title>Node9</title>
<g id="a_node10"><a xlink:href="namespaceumprintmgr.xhtml#ad3a290b30a6e25500eabc0bf90330b77" target="_top" xlink:title="umprintmgr::umprintflush">
<polygon fill="#ffffff" stroke="#000000" points="798.5,-130.3692 798.5,-149.3692 940.5,-149.3692 940.5,-130.3692 798.5,-130.3692"/>
<text text-anchor="middle" x="869.5" y="-137.3692" font-family="Helvetica,sans-Serif" font-size="10.00" fill="#000000">umprintmgr::umprintflush</text>
</a>
</g>
</g>
<!-- Node7&#45;&gt;Node9 -->
<g id="edge10" class="edge">
<title>Node7&#45;&gt;Node9</title>
<path fill="none" stroke="#191970" d="M731.931,-168.2802C756.6493,-163.1753 787.239,-156.8579 813.292,-151.4773"/>
<polygon fill="#191970" stroke="#191970" points="814.3175,-154.8395 823.4029,-149.3892 812.9017,-147.9842 814.3175,-154.8395"/>
</g>
<!-- Node8&#45;&gt;Node7 -->
<g id="edge9" class="edge">
<title>Node8&#45;&gt;Node7</title>
<path fill="none" stroke="#191970" d="M780.9958,-184.6148C772.3802,-184.6362 763.7236,-184.5785 755.3289,-184.4418"/>
<polygon fill="#191970" stroke="#191970" points="755.3089,-180.9408 745.2395,-184.2359 755.166,-187.9393 755.3089,-180.9408"/>
</g>
<!-- Node10 -->
<g id="node11" class="node">
<title>Node10</title>
<g id="a_node11"><a xlink:href="namespaceumflush__mod.xhtml#a3a003ab59990bdcb712b443dd5e0d1cd" target="_top" xlink:title="umflush_mod::umflush">
<polygon fill="#ffffff" stroke="#000000" points="994,-130.3692 994,-149.3692 1122,-149.3692 1122,-130.3692 994,-130.3692"/>
<text text-anchor="middle" x="1058" y="-137.3692" font-family="Helvetica,sans-Serif" font-size="10.00" fill="#000000">umflush_mod::umflush</text>
</a>
</g>
</g>
<!-- Node9&#45;&gt;Node10 -->
<g id="edge11" class="edge">
<title>Node9&#45;&gt;Node10</title>
<path fill="none" stroke="#191970" d="M940.7638,-139.8692C954.7742,-139.8692 969.5063,-139.8692 983.6162,-139.8692"/>
<polygon fill="#191970" stroke="#191970" points="983.7612,-143.3693 993.7611,-139.8692 983.7611,-136.3693 983.7612,-143.3693"/>
</g>
<!-- Node14&#45;&gt;Node2 -->
<g id="edge21" class="edge">
<title>Node14&#45;&gt;Node2</title>
<path fill="none" stroke="#191970" d="M371.0087,-278.1308C386.1291,-280.5131 403.6714,-285.3038 417,-294.8692 441.343,-312.339 428.9494,-333.9989 453,-351.8692 460.8669,-357.7145 470.4448,-361.7616 479.9151,-364.5637"/>
<polygon fill="#191970" stroke="#191970" points="479.1138,-367.9713 489.669,-367.0563 480.847,-361.1893 479.1138,-367.9713"/>
</g>
<!-- Node14&#45;&gt;Node7 -->
<g id="edge16" class="edge">
<title>Node14&#45;&gt;Node7</title>
<path fill="none" stroke="#191970" d="M371.1389,-266.4808C385.3111,-262.2524 402.0543,-257.052 417,-251.8692 433.2197,-246.2446 436.6601,-243.1344 453,-237.8692 513.7507,-218.2936 584.9996,-200.6714 632.4583,-189.6684"/>
<polygon fill="#191970" stroke="#191970" points="633.2523,-193.0772 642.212,-187.4226 631.6816,-186.2557 633.2523,-193.0772"/>
</g>
<!-- Node15 -->
<g id="node16" class="node">
<title>Node15</title>
<g id="a_node16"><a xlink:href="asad__fyinit_8f90.xhtml#ab0c0fe146d98298c968cef7e58a3bb99" target="_top" xlink:title="(c) [University of Cambridge] [2008]. All rights reserved. ">
<polygon fill="#ffffff" stroke="#000000" points="486,-323.3692 486,-342.3692 557,-342.3692 557,-323.3692 486,-323.3692"/>
<text text-anchor="middle" x="521.5" y="-330.3692" font-family="Helvetica,sans-Serif" font-size="10.00" fill="#000000">asad_fyinit</text>
</a>
</g>
</g>
<!-- Node14&#45;&gt;Node15 -->
<g id="edge17" class="edge">
<title>Node14&#45;&gt;Node15</title>
<path fill="none" stroke="#191970" d="M371.1277,-281.8682C385.4491,-284.983 402.3107,-289.3141 417,-294.8692 433.9221,-301.2686 436.1862,-307.1906 453,-313.8692 460.3388,-316.7842 468.2883,-319.429 476.0847,-321.7565"/>
<polygon fill="#191970" stroke="#191970" points="475.2444,-325.1563 485.8208,-324.5315 477.1632,-318.4244 475.2444,-325.1563"/>
</g>
<!-- Node17 -->
<g id="node18" class="node">
<title>Node17</title>
<g id="a_node18"><a xlink:href="asad__fyself_8f90.xhtml#a80ba22753ffe36c0126dfaab62a56921" target="_top" xlink:title="(c) [University of Cambridge] [2008]. All rights reserved. ">
<polygon fill="#ffffff" stroke="#000000" points="485,-285.3692 485,-304.3692 558,-304.3692 558,-285.3692 485,-285.3692"/>
<text text-anchor="middle" x="521.5" y="-292.3692" font-family="Helvetica,sans-Serif" font-size="10.00" fill="#000000">asad_fyself</text>
</a>
</g>
</g>
<!-- Node14&#45;&gt;Node17 -->
<g id="edge19" class="edge">
<title>Node14&#45;&gt;Node17</title>
<path fill="none" stroke="#191970" d="M371.2167,-279.266C400.0674,-282.2614 442.4395,-286.6607 474.8434,-290.025"/>
<polygon fill="#191970" stroke="#191970" points="474.6762,-293.5264 484.9842,-291.0779 475.3991,-286.5638 474.6762,-293.5264"/>
</g>
<!-- Node18 -->
<g id="node19" class="node">
<title>Node18</title>
<g id="a_node19"><a xlink:href="asad__fyfixr_8f90.xhtml#af3e384226c414935e2a2fcbf2b05149e" target="_top" xlink:title="(c) [University of Cambridge] [2008]. All rights reserved. ">
<polygon fill="#ffffff" stroke="#000000" points="486,-247.3692 486,-266.3692 557,-266.3692 557,-247.3692 486,-247.3692"/>
<text text-anchor="middle" x="521.5" y="-254.3692" font-family="Helvetica,sans-Serif" font-size="10.00" fill="#000000">asad_fyfixr</text>
</a>
</g>
</g>
<!-- Node14&#45;&gt;Node18 -->
<g id="edge20" class="edge">
<title>Node14&#45;&gt;Node18</title>
<path fill="none" stroke="#191970" d="M371.2167,-272.4723C400.3457,-269.448 443.2582,-264.9926 475.7784,-261.6162"/>
<polygon fill="#191970" stroke="#191970" points="476.356,-265.0752 485.9411,-260.5611 475.6331,-258.1126 476.356,-265.0752"/>
</g>
<!-- Node16 -->
<g id="node17" class="node">
<title>Node16</title>
<g id="a_node17"><a xlink:href="asad__inicnt_8f90.xhtml#ab9649da45e79e1c7aa0237675548f6af" target="_top" xlink:title="(c) [University of Cambridge] [2008]. All rights reserved. ">
<polygon fill="#ffffff" stroke="#000000" points="649.5,-323.3692 649.5,-342.3692 721.5,-342.3692 721.5,-323.3692 649.5,-323.3692"/>
<text text-anchor="middle" x="685.5" y="-330.3692" font-family="Helvetica,sans-Serif" font-size="10.00" fill="#000000">asad_inicnt</text>
</a>
</g>
</g>
<!-- Node15&#45;&gt;Node16 -->
<g id="edge18" class="edge">
<title>Node15&#45;&gt;Node16</title>
<path fill="none" stroke="#191970" d="M557.0856,-332.8692C581.2039,-332.8692 613.3099,-332.8692 639.3852,-332.8692"/>
<polygon fill="#191970" stroke="#191970" points="639.4176,-336.3693 649.4176,-332.8692 639.4175,-329.3693 639.4176,-336.3693"/>
</g>
</g>
</svg>
