<?xml version="1.0" encoding="UTF-8" standalone="no"?>
<!DOCTYPE svg PUBLIC "-//W3C//DTD SVG 1.1//EN"
 "http://www.w3.org/Graphics/SVG/1.1/DTD/svg11.dtd">
<!-- Generated by graphviz version 2.40.1 (20161225.0304)
 -->
<!-- Title: asad_bedriv Pages: 1 -->
<svg width="730pt" height="199pt"
 viewBox="0.00 0.00 730.00 199.00" xmlns="http://www.w3.org/2000/svg" xmlns:xlink="http://www.w3.org/1999/xlink">
<g id="graph0" class="graph" transform="scale(1 1) rotate(0) translate(4 195)">
<title>asad_bedriv</title>
<polygon fill="#ffffff" stroke="transparent" points="-4,4 -4,-195 726,-195 726,4 -4,4"/>
<!-- Node0 -->
<g id="node1" class="node">
<title>Node0</title>
<polygon fill="#bfbfbf" stroke="#000000" points="0,-95.5 0,-114.5 76,-114.5 76,-95.5 0,-95.5"/>
<text text-anchor="middle" x="38" y="-102.5" font-family="Helvetica,sans-Serif" font-size="10.00" fill="#000000">asad_bedriv</text>
</g>
<!-- Node1 -->
<g id="node2" class="node">
<title>Node1</title>
<g id="a_node2"><a xlink:href="namespaceumprintmgr.xhtml#aae44897e556705dbf5e945a26538be9a" target="_top" xlink:title="umprintmgr::umprint">
<polygon fill="#ffffff" stroke="#000000" points="226,-152.5 226,-171.5 345,-171.5 345,-152.5 226,-152.5"/>
<text text-anchor="middle" x="285.5" y="-159.5" font-family="Helvetica,sans-Serif" font-size="10.00" fill="#000000">umprintmgr::umprint</text>
</a>
</g>
</g>
<!-- Node0&#45;&gt;Node1 -->
<g id="edge1" class="edge">
<title>Node0&#45;&gt;Node1</title>
<path fill="none" stroke="#191970" d="M74.0689,-114.536C86.1089,-117.6457 99.6121,-121.0541 112,-124 151.1486,-133.3099 195.4699,-143.0027 229.5169,-150.2689"/>
<polygon fill="#191970" stroke="#191970" points="229.2269,-153.7854 239.7363,-152.4429 230.6834,-146.9386 229.2269,-153.7854"/>
</g>
<!-- Node5 -->
<g id="node6" class="node">
<title>Node5</title>
<g id="a_node6"><a xlink:href="asad__ftoy_8f90.xhtml#aec702c6eac425c713c6d64baf7932890" target="_top" xlink:title="(c) [University of Cambridge] [2008]. All rights reserved. ">
<polygon fill="#ffffff" stroke="#000000" points="118.5,-95.5 118.5,-114.5 183.5,-114.5 183.5,-95.5 118.5,-95.5"/>
<text text-anchor="middle" x="151" y="-102.5" font-family="Helvetica,sans-Serif" font-size="10.00" fill="#000000">asad_ftoy</text>
</a>
</g>
</g>
<!-- Node0&#45;&gt;Node5 -->
<g id="edge6" class="edge">
<title>Node0&#45;&gt;Node5</title>
<path fill="none" stroke="#191970" d="M76.2566,-105C86.5331,-105 97.7115,-105 108.2166,-105"/>
<polygon fill="#191970" stroke="#191970" points="108.4389,-108.5001 118.4389,-105 108.4389,-101.5001 108.4389,-108.5001"/>
</g>
<!-- Node11 -->
<g id="node12" class="node">
<title>Node11</title>
<g id="a_node12"><a xlink:href="asad__steady_8f90.xhtml#aab8e6164589bada9265c049b3dd2daf8" target="_top" xlink:title="(c) [University of Cambridge] [2008]. All rights reserved. ">
<polygon fill="#ffffff" stroke="#000000" points="112,-57.5 112,-76.5 190,-76.5 190,-57.5 112,-57.5"/>
<text text-anchor="middle" x="151" y="-64.5" font-family="Helvetica,sans-Serif" font-size="10.00" fill="#000000">asad_steady</text>
</a>
</g>
</g>
<!-- Node0&#45;&gt;Node11 -->
<g id="edge13" class="edge">
<title>Node0&#45;&gt;Node11</title>
<path fill="none" stroke="#191970" d="M66.5147,-95.411C80.5666,-90.6856 97.7082,-84.9211 112.8696,-79.8226"/>
<polygon fill="#191970" stroke="#191970" points="114.1317,-83.0909 122.4945,-76.5859 111.9004,-76.456 114.1317,-83.0909"/>
</g>
<!-- Node2 -->
<g id="node3" class="node">
<title>Node2</title>
<g id="a_node3"><a xlink:href="namespaceumprintmgr.xhtml#a088ce22a18d574e9df7ee1850bfb10c7" target="_top" xlink:title="umprintmgr::umprintopenstream">
<polygon fill="#ffffff" stroke="#000000" points="381,-171.5 381,-190.5 558,-190.5 558,-171.5 381,-171.5"/>
<text text-anchor="middle" x="469.5" y="-178.5" font-family="Helvetica,sans-Serif" font-size="10.00" fill="#000000">umprintmgr::umprintopenstream</text>
</a>
</g>
</g>
<!-- Node1&#45;&gt;Node2 -->
<g id="edge2" class="edge">
<title>Node1&#45;&gt;Node2</title>
<path fill="none" stroke="#191970" d="M345.2395,-161.802C369.9198,-163.7406 398.1466,-166.7734 421.4536,-170.0262"/>
<polygon fill="#191970" stroke="#191970" points="421.0501,-173.5043 431.4501,-171.4819 422.0588,-166.5773 421.0501,-173.5043"/>
</g>
<!-- Node3 -->
<g id="node4" class="node">
<title>Node3</title>
<g id="a_node4"><a xlink:href="namespaceumprintmgr.xhtml#ad3a290b30a6e25500eabc0bf90330b77" target="_top" xlink:title="umprintmgr::umprintflush">
<polygon fill="#ffffff" stroke="#000000" points="398.5,-133.5 398.5,-152.5 540.5,-152.5 540.5,-133.5 398.5,-133.5"/>
<text text-anchor="middle" x="469.5" y="-140.5" font-family="Helvetica,sans-Serif" font-size="10.00" fill="#000000">umprintmgr::umprintflush</text>
</a>
</g>
</g>
<!-- Node1&#45;&gt;Node3 -->
<g id="edge4" class="edge">
<title>Node1&#45;&gt;Node3</title>
<path fill="none" stroke="#191970" d="M345.2395,-155.8312C358.8344,-154.4274 373.5053,-152.9125 387.8373,-151.4326"/>
<polygon fill="#191970" stroke="#191970" points="388.6056,-154.8719 398.1931,-150.3632 387.8865,-147.909 388.6056,-154.8719"/>
</g>
<!-- Node2&#45;&gt;Node1 -->
<g id="edge3" class="edge">
<title>Node2&#45;&gt;Node1</title>
<path fill="none" stroke="#191970" d="M380.959,-178.6029C364.7144,-176.9654 348.3259,-175.032 333.823,-173.0124"/>
<polygon fill="#191970" stroke="#191970" points="334.0245,-169.505 323.6249,-171.5295 333.0172,-176.4321 334.0245,-169.505"/>
</g>
<!-- Node4 -->
<g id="node5" class="node">
<title>Node4</title>
<g id="a_node5"><a xlink:href="namespaceumflush__mod.xhtml#a3a003ab59990bdcb712b443dd5e0d1cd" target="_top" xlink:title="umflush_mod::umflush">
<polygon fill="#ffffff" stroke="#000000" points="594,-133.5 594,-152.5 722,-152.5 722,-133.5 594,-133.5"/>
<text text-anchor="middle" x="658" y="-140.5" font-family="Helvetica,sans-Serif" font-size="10.00" fill="#000000">umflush_mod::umflush</text>
</a>
</g>
</g>
<!-- Node3&#45;&gt;Node4 -->
<g id="edge5" class="edge">
<title>Node3&#45;&gt;Node4</title>
<path fill="none" stroke="#191970" d="M540.7638,-143C554.7742,-143 569.5063,-143 583.6162,-143"/>
<polygon fill="#191970" stroke="#191970" points="583.7612,-146.5001 593.7611,-143 583.7611,-139.5001 583.7612,-146.5001"/>
</g>
<!-- Node5&#45;&gt;Node1 -->
<g id="edge7" class="edge">
<title>Node5&#45;&gt;Node1</title>
<path fill="none" stroke="#191970" d="M167.9124,-114.5523C182.8796,-122.766 205.4708,-134.5846 226,-143 231.3993,-145.2133 237.1577,-147.3356 242.8857,-149.3074"/>
<polygon fill="#191970" stroke="#191970" points="241.8347,-152.6463 252.4281,-152.4732 244.039,-146.0024 241.8347,-152.6463"/>
</g>
<!-- Node6 -->
<g id="node7" class="node">
<title>Node6</title>
<g id="a_node7"><a xlink:href="asad__fyinit_8f90.xhtml#ab0c0fe146d98298c968cef7e58a3bb99" target="_top" xlink:title="(c) [University of Cambridge] [2008]. All rights reserved. ">
<polygon fill="#ffffff" stroke="#000000" points="250,-114.5 250,-133.5 321,-133.5 321,-114.5 250,-114.5"/>
<text text-anchor="middle" x="285.5" y="-121.5" font-family="Helvetica,sans-Serif" font-size="10.00" fill="#000000">asad_fyinit</text>
</a>
</g>
</g>
<!-- Node5&#45;&gt;Node6 -->
<g id="edge8" class="edge">
<title>Node5&#45;&gt;Node6</title>
<path fill="none" stroke="#191970" d="M183.5587,-109.5994C200.4829,-111.9901 221.4437,-114.9512 239.9492,-117.5653"/>
<polygon fill="#191970" stroke="#191970" points="239.545,-121.0429 249.9362,-118.9761 240.5241,-114.1117 239.545,-121.0429"/>
</g>
<!-- Node8 -->
<g id="node9" class="node">
<title>Node8</title>
<g id="a_node9"><a xlink:href="asad__fyself_8f90.xhtml#a80ba22753ffe36c0126dfaab62a56921" target="_top" xlink:title="(c) [University of Cambridge] [2008]. All rights reserved. ">
<polygon fill="#ffffff" stroke="#000000" points="249,-76.5 249,-95.5 322,-95.5 322,-76.5 249,-76.5"/>
<text text-anchor="middle" x="285.5" y="-83.5" font-family="Helvetica,sans-Serif" font-size="10.00" fill="#000000">asad_fyself</text>
</a>
</g>
</g>
<!-- Node5&#45;&gt;Node8 -->
<g id="edge10" class="edge">
<title>Node5&#45;&gt;Node8</title>
<path fill="none" stroke="#191970" d="M183.5587,-100.4006C200.1434,-98.0578 220.6043,-95.1674 238.8326,-92.5924"/>
<polygon fill="#191970" stroke="#191970" points="239.5628,-96.0241 248.9749,-91.1597 238.5836,-89.0929 239.5628,-96.0241"/>
</g>
<!-- Node9 -->
<g id="node10" class="node">
<title>Node9</title>
<g id="a_node10"><a xlink:href="asad__fyfixr_8f90.xhtml#af3e384226c414935e2a2fcbf2b05149e" target="_top" xlink:title="(c) [University of Cambridge] [2008]. All rights reserved. ">
<polygon fill="#ffffff" stroke="#000000" points="250,-38.5 250,-57.5 321,-57.5 321,-38.5 250,-38.5"/>
<text text-anchor="middle" x="285.5" y="-45.5" font-family="Helvetica,sans-Serif" font-size="10.00" fill="#000000">asad_fyfixr</text>
</a>
</g>
</g>
<!-- Node5&#45;&gt;Node9 -->
<g id="edge11" class="edge">
<title>Node5&#45;&gt;Node9</title>
<path fill="none" stroke="#191970" d="M170.9016,-95.4575C177.0458,-92.4704 183.8206,-89.1349 190,-86 206.1342,-77.8149 209.3179,-74.0012 226,-67 231.1869,-64.8231 236.7149,-62.7483 242.2327,-60.8236"/>
<polygon fill="#191970" stroke="#191970" points="243.704,-64.0222 252.0779,-57.5316 241.4841,-57.3835 243.704,-64.0222"/>
</g>
<!-- Node10 -->
<g id="node11" class="node">
<title>Node10</title>
<g id="a_node11"><a xlink:href="asad__prls_8f90.xhtml#aff4ede1e3451428db2a2e8e99b0157da" target="_top" xlink:title="(c) [University of Cambridge] [2008]. All rights reserved. ">
<polygon fill="#ffffff" stroke="#000000" points="254,-.5 254,-19.5 317,-19.5 317,-.5 254,-.5"/>
<text text-anchor="middle" x="285.5" y="-7.5" font-family="Helvetica,sans-Serif" font-size="10.00" fill="#000000">asad_prls</text>
</a>
</g>
</g>
<!-- Node5&#45;&gt;Node10 -->
<g id="edge12" class="edge">
<title>Node5&#45;&gt;Node10</title>
<path fill="none" stroke="#191970" d="M175.8127,-95.4832C180.8382,-92.8747 185.8484,-89.7184 190,-86 212.3194,-66.0095 202.2981,-47.3302 226,-29 231.4175,-24.8103 237.7832,-21.5315 244.2997,-18.9691"/>
<polygon fill="#191970" stroke="#191970" points="245.529,-22.2478 253.862,-15.7048 243.2675,-15.6232 245.529,-22.2478"/>
</g>
<!-- Node7 -->
<g id="node8" class="node">
<title>Node7</title>
<g id="a_node8"><a xlink:href="asad__inicnt_8f90.xhtml#ab9649da45e79e1c7aa0237675548f6af" target="_top" xlink:title="(c) [University of Cambridge] [2008]. All rights reserved. ">
<polygon fill="#ffffff" stroke="#000000" points="433.5,-95.5 433.5,-114.5 505.5,-114.5 505.5,-95.5 433.5,-95.5"/>
<text text-anchor="middle" x="469.5" y="-102.5" font-family="Helvetica,sans-Serif" font-size="10.00" fill="#000000">asad_inicnt</text>
</a>
</g>
</g>
<!-- Node6&#45;&gt;Node7 -->
<g id="edge9" class="edge">
<title>Node6&#45;&gt;Node7</title>
<path fill="none" stroke="#191970" d="M321.4139,-120.2915C350.4484,-117.2934 391.5345,-113.0508 423.0667,-109.7947"/>
<polygon fill="#191970" stroke="#191970" points="423.7752,-113.2403 433.3628,-108.7316 423.0561,-106.2773 423.7752,-113.2403"/>
</g>
</g>
</svg>
