<?xml version="1.0" encoding="UTF-8" standalone="no"?>
<!DOCTYPE svg PUBLIC "-//W3C//DTD SVG 1.1//EN"
 "http://www.w3.org/Graphics/SVG/1.1/DTD/svg11.dtd">
<!-- Generated by graphviz version 2.40.1 (20161225.0304)
 -->
<!-- Title: asad_cdrive Pages: 1 -->
<svg width="1241pt" height="762pt"
 viewBox="0.00 0.00 1241.00 761.50" xmlns="http://www.w3.org/2000/svg" xmlns:xlink="http://www.w3.org/1999/xlink">
<g id="graph0" class="graph" transform="scale(1 1) rotate(0) translate(4 757.5)">
<title>asad_cdrive</title>
<polygon fill="#ffffff" stroke="transparent" points="-4,4 -4,-757.5 1237,-757.5 1237,4 -4,4"/>
<!-- Node0 -->
<g id="node1" class="node">
<title>Node0</title>
<polygon fill="#bfbfbf" stroke="#000000" points="0,-525 0,-544 75,-544 75,-525 0,-525"/>
<text text-anchor="middle" x="37.5" y="-532" font-family="Helvetica,sans-Serif" font-size="10.00" fill="#000000">asad_cdrive</text>
</g>
<!-- Node1 -->
<g id="node2" class="node">
<title>Node1</title>
<g id="a_node2"><a xlink:href="asad__totnud_8f90.xhtml#a7de214306e21c163162cc1d5cd069d61" target="_top" xlink:title="(c) [University of Cambridge] [2008]. All rights reserved. ">
<polygon fill="#ffffff" stroke="#000000" points="119.5,-734 119.5,-753 196.5,-753 196.5,-734 119.5,-734"/>
<text text-anchor="middle" x="158" y="-741" font-family="Helvetica,sans-Serif" font-size="10.00" fill="#000000">asad_totnud</text>
</a>
</g>
</g>
<!-- Node0&#45;&gt;Node1 -->
<g id="edge1" class="edge">
<title>Node0&#45;&gt;Node1</title>
<path fill="none" stroke="#191970" d="M38.5498,-544.2383C42.3578,-574.9381 58.1331,-670.8311 111,-724.5 112.3897,-725.9108 113.8982,-727.2203 115.4938,-728.4356"/>
<polygon fill="#191970" stroke="#191970" points="113.7118,-731.4489 124.052,-733.7576 117.4084,-725.5046 113.7118,-731.4489"/>
</g>
<!-- Node2 -->
<g id="node3" class="node">
<title>Node2</title>
<g id="a_node3"><a xlink:href="asad__bimol_8f90.xhtml#a58ccc9a3892f2d61fbd2a59c1dde62dd" target="_top" xlink:title="(c) [University of Cambridge] [2008]. All rights reserved. ">
<polygon fill="#ffffff" stroke="#000000" points="121.5,-696 121.5,-715 194.5,-715 194.5,-696 121.5,-696"/>
<text text-anchor="middle" x="158" y="-703" font-family="Helvetica,sans-Serif" font-size="10.00" fill="#000000">asad_bimol</text>
</a>
</g>
</g>
<!-- Node0&#45;&gt;Node2 -->
<g id="edge2" class="edge">
<title>Node0&#45;&gt;Node2</title>
<path fill="none" stroke="#191970" d="M39.588,-544.1334C45.7852,-570.5335 66.4844,-644.8393 111,-686.5 112.6708,-688.0636 114.487,-689.5056 116.4018,-690.8346"/>
<polygon fill="#191970" stroke="#191970" points="114.8738,-693.9938 125.2839,-695.9638 118.3745,-687.932 114.8738,-693.9938"/>
</g>
<!-- Node3 -->
<g id="node4" class="node">
<title>Node3</title>
<g id="a_node4"><a xlink:href="asad__trimol_8f90.xhtml#a3702e7b997fc1bc36f27ef638e9ad26a" target="_top" xlink:title="(c) [University of Cambridge] [2008]. All rights reserved. ">
<polygon fill="#ffffff" stroke="#000000" points="121,-658 121,-677 195,-677 195,-658 121,-658"/>
<text text-anchor="middle" x="158" y="-665" font-family="Helvetica,sans-Serif" font-size="10.00" fill="#000000">asad_trimol</text>
</a>
</g>
</g>
<!-- Node0&#45;&gt;Node3 -->
<g id="edge3" class="edge">
<title>Node0&#45;&gt;Node3</title>
<path fill="none" stroke="#191970" d="M41.8991,-544.136C51.7022,-564.7191 77.1689,-613.5381 111,-643.5 115.0124,-647.0535 119.6454,-650.2363 124.4057,-653.0321"/>
<polygon fill="#191970" stroke="#191970" points="123.1165,-656.3111 133.5873,-657.9275 126.4099,-650.1342 123.1165,-656.3111"/>
</g>
<!-- Node4 -->
<g id="node5" class="node">
<title>Node4</title>
<g id="a_node5"><a xlink:href="asad__hetero_8f90.xhtml#a55f8702558d03696a8ac1cd53b35631a" target="_top" xlink:title="(c) [University of Cambridge] [2008]. All rights reserved. ">
<polygon fill="#ffffff" stroke="#000000" points="249.5,-126 249.5,-145 326.5,-145 326.5,-126 249.5,-126"/>
<text text-anchor="middle" x="288" y="-133" font-family="Helvetica,sans-Serif" font-size="10.00" fill="#000000">asad_hetero</text>
</a>
</g>
</g>
<!-- Node0&#45;&gt;Node4 -->
<g id="edge4" class="edge">
<title>Node0&#45;&gt;Node4</title>
<path fill="none" stroke="#191970" d="M37.8181,-524.8385C39.4606,-490.4568 49.5333,-372.5808 111,-306.5 141.6911,-273.505 170.4915,-297.479 205,-268.5 242.7033,-236.8382 268.565,-183.5156 280.4949,-154.9519"/>
<polygon fill="#191970" stroke="#191970" points="283.8876,-155.8969 284.3806,-145.3136 277.3953,-153.2795 283.8876,-155.8969"/>
</g>
<!-- Node9 -->
<g id="node10" class="node">
<title>Node9</title>
<g id="a_node10"><a xlink:href="asad__emissn_8f90.xhtml#a13d4309f574acf345dfd24fc4304e768" target="_top" xlink:title="(c) [University of Cambridge] [2008]. All rights reserved. ">
<polygon fill="#ffffff" stroke="#000000" points="118,-582 118,-601 198,-601 198,-582 118,-582"/>
<text text-anchor="middle" x="158" y="-589" font-family="Helvetica,sans-Serif" font-size="10.00" fill="#000000">asad_emissn</text>
</a>
</g>
</g>
<!-- Node0&#45;&gt;Node9 -->
<g id="edge10" class="edge">
<title>Node0&#45;&gt;Node9</title>
<path fill="none" stroke="#191970" d="M57.669,-544.0405C77.0453,-553.2061 106.5433,-567.1595 128.5465,-577.5676"/>
<polygon fill="#191970" stroke="#191970" points="127.2289,-580.8162 137.7652,-581.9284 130.2222,-574.4884 127.2289,-580.8162"/>
</g>
<!-- Node10 -->
<g id="node11" class="node">
<title>Node10</title>
<g id="a_node11"><a xlink:href="asad__ftoy_8f90.xhtml#aec702c6eac425c713c6d64baf7932890" target="_top" xlink:title="(c) [University of Cambridge] [2008]. All rights reserved. ">
<polygon fill="#ffffff" stroke="#000000" points="417,-392 417,-411 482,-411 482,-392 417,-392"/>
<text text-anchor="middle" x="449.5" y="-399" font-family="Helvetica,sans-Serif" font-size="10.00" fill="#000000">asad_ftoy</text>
</a>
</g>
</g>
<!-- Node0&#45;&gt;Node10 -->
<g id="edge11" class="edge">
<title>Node0&#45;&gt;Node10</title>
<path fill="none" stroke="#191970" d="M54.8047,-524.9918C69.5622,-517.0196 91.4334,-505.5244 111,-496.5 167.6591,-470.368 181.2633,-461.5183 241,-443.5 297.3369,-426.5072 364.3296,-414.3952 406.8806,-407.6722"/>
<polygon fill="#191970" stroke="#191970" points="407.5427,-411.1114 416.8878,-406.1194 406.4693,-404.1942 407.5427,-411.1114"/>
</g>
<!-- Node16 -->
<g id="node17" class="node">
<title>Node16</title>
<g id="a_node17"><a xlink:href="asad__diffun_8f90.xhtml#a24e5f2651d02752cda4bae7c366a9f0e" target="_top" xlink:title="(c) [University of Cambridge] [2008]. All rights reserved. ">
<polygon fill="#ffffff" stroke="#000000" points="413,-506 413,-525 486,-525 486,-506 413,-506"/>
<text text-anchor="middle" x="449.5" y="-513" font-family="Helvetica,sans-Serif" font-size="10.00" fill="#000000">asad_diffun</text>
</a>
</g>
</g>
<!-- Node0&#45;&gt;Node16 -->
<g id="edge18" class="edge">
<title>Node0&#45;&gt;Node16</title>
<path fill="none" stroke="#191970" d="M43.0665,-544.0636C53.6952,-561.2438 78.7231,-596.8132 111,-610.5 202.6556,-649.3659 241.3543,-644.2905 335,-610.5 377.6573,-595.1078 415.6592,-556.1449 435.3274,-533.1815"/>
<polygon fill="#191970" stroke="#191970" points="438.2266,-535.1696 441.9392,-525.2465 432.8488,-530.6886 438.2266,-535.1696"/>
</g>
<!-- Node17 -->
<g id="node18" class="node">
<title>Node17</title>
<g id="a_node18"><a xlink:href="asad__jac_8f90.xhtml#ac8bc0ac60f8e1f63973fbd75aff07421" target="_top" xlink:title="(c) [University of Cambridge] [2008]. All rights reserved. ">
<polygon fill="#ffffff" stroke="#000000" points="258.5,-582 258.5,-601 317.5,-601 317.5,-582 258.5,-582"/>
<text text-anchor="middle" x="288" y="-589" font-family="Helvetica,sans-Serif" font-size="10.00" fill="#000000">asad_jac</text>
</a>
</g>
</g>
<!-- Node0&#45;&gt;Node17 -->
<g id="edge20" class="edge">
<title>Node0&#45;&gt;Node17</title>
<path fill="none" stroke="#191970" d="M75.0911,-543.0061C109.0415,-550.6937 160.3723,-562.3298 205,-572.5 219.1269,-575.7194 234.6033,-579.2588 248.325,-582.4012"/>
<polygon fill="#191970" stroke="#191970" points="247.8955,-585.8934 258.4246,-584.715 249.4587,-579.0702 247.8955,-585.8934"/>
</g>
<!-- Node18 -->
<g id="node19" class="node">
<title>Node18</title>
<g id="a_node19"><a xlink:href="asad__impact_8f90.xhtml#a5d0099db38e65c1d44c00950354ce54a" target="_top" xlink:title="(c) [University of Cambridge] [2008]. All rights reserved. ">
<polygon fill="#ffffff" stroke="#000000" points="118.5,-506 118.5,-525 197.5,-525 197.5,-506 118.5,-506"/>
<text text-anchor="middle" x="158" y="-513" font-family="Helvetica,sans-Serif" font-size="10.00" fill="#000000">asad_impact</text>
</a>
</g>
</g>
<!-- Node0&#45;&gt;Node18 -->
<g id="edge21" class="edge">
<title>Node0&#45;&gt;Node18</title>
<path fill="none" stroke="#191970" d="M75.2963,-528.5404C85.7595,-526.8906 97.2769,-525.0746 108.307,-523.3354"/>
<polygon fill="#191970" stroke="#191970" points="108.9227,-526.7817 118.2555,-521.7668 107.8324,-519.8671 108.9227,-526.7817"/>
</g>
<!-- Node20 -->
<g id="node21" class="node">
<title>Node20</title>
<g id="a_node21"><a xlink:href="asad__spmjpdriv_8f90.xhtml#a5015e4c19778ec6ef6b6d611beffb7ef" target="_top" xlink:title="Copyright (c) 2008, Regents of the University of California. ">
<polygon fill="#ffffff" stroke="#000000" points="111,-316 111,-335 205,-335 205,-316 111,-316"/>
<text text-anchor="middle" x="158" y="-323" font-family="Helvetica,sans-Serif" font-size="10.00" fill="#000000">asad_spmjpdriv</text>
</a>
</g>
</g>
<!-- Node0&#45;&gt;Node20 -->
<g id="edge26" class="edge">
<title>Node0&#45;&gt;Node20</title>
<path fill="none" stroke="#191970" d="M38.8967,-524.7853C43.6413,-494.9969 61.682,-403.6834 111,-349.5 114.1375,-346.0529 117.8842,-343.0281 121.8741,-340.3938"/>
<polygon fill="#191970" stroke="#191970" points="123.9246,-343.2524 130.8547,-335.2384 120.4396,-337.1816 123.9246,-343.2524"/>
</g>
<!-- Node29 -->
<g id="node30" class="node">
<title>Node29</title>
<g id="a_node30"><a xlink:href="asad__bedriv_8f90.xhtml#a0c0aae7845291c0c76dddad8ee5c7a2c" target="_top" xlink:title="(c) [University of Cambridge] [2008]. All rights reserved. ">
<polygon fill="#ffffff" stroke="#000000" points="250,-316 250,-335 326,-335 326,-316 250,-316"/>
<text text-anchor="middle" x="288" y="-323" font-family="Helvetica,sans-Serif" font-size="10.00" fill="#000000">asad_bedriv</text>
</a>
</g>
</g>
<!-- Node0&#45;&gt;Node29 -->
<g id="edge42" class="edge">
<title>Node0&#45;&gt;Node29</title>
<path fill="none" stroke="#191970" d="M39.6758,-524.6954C45.9758,-498.5556 66.6751,-426.5361 111,-387.5 130.6344,-370.2084 195.3711,-350.1934 240.845,-337.6887"/>
<polygon fill="#191970" stroke="#191970" points="241.7854,-341.0602 250.5184,-335.0615 239.9506,-334.3049 241.7854,-341.0602"/>
</g>
<!-- Node30 -->
<g id="node31" class="node">
<title>Node30</title>
<g id="a_node31"><a xlink:href="asad__posthet_8f90.xhtml#a48e885bd8635e952d4cd1e40273ff696" target="_top" xlink:title="(c) [University of Cambridge] [2008]. All rights reserved. ">
<polygon fill="#ffffff" stroke="#000000" points="117,-240 117,-259 199,-259 199,-240 117,-240"/>
<text text-anchor="middle" x="158" y="-247" font-family="Helvetica,sans-Serif" font-size="10.00" fill="#000000">asad_posthet</text>
</a>
</g>
</g>
<!-- Node0&#45;&gt;Node30 -->
<g id="edge46" class="edge">
<title>Node0&#45;&gt;Node30</title>
<path fill="none" stroke="#191970" d="M39.1407,-524.9156C46.5104,-482.7676 77.6528,-314.1864 111,-273.5 113.8876,-269.9769 117.4263,-266.917 121.2544,-264.2733"/>
<polygon fill="#191970" stroke="#191970" points="123.1269,-267.2323 129.9564,-259.1323 119.5663,-261.2055 123.1269,-267.2323"/>
</g>
<!-- Node5 -->
<g id="node6" class="node">
<title>Node5</title>
<g id="a_node6"><a xlink:href="namespaceumprintmgr.xhtml#aae44897e556705dbf5e945a26538be9a" target="_top" xlink:title="umprintmgr::umprint">
<polygon fill="#ffffff" stroke="#000000" points="737,-240 737,-259 856,-259 856,-240 737,-240"/>
<text text-anchor="middle" x="796.5" y="-247" font-family="Helvetica,sans-Serif" font-size="10.00" fill="#000000">umprintmgr::umprint</text>
</a>
</g>
</g>
<!-- Node4&#45;&gt;Node5 -->
<g id="edge5" class="edge">
<title>Node4&#45;&gt;Node5</title>
<path fill="none" stroke="#191970" d="M297.6565,-125.8774C312.1231,-112.2168 340.9487,-87.8252 371,-78.5 437.6429,-57.8201 461.0085,-58.9789 528,-78.5 634.2272,-109.4542 738.5214,-196.5787 778.9358,-233.0845"/>
<polygon fill="#191970" stroke="#191970" points="776.6177,-235.7074 786.3589,-239.8738 781.342,-230.5421 776.6177,-235.7074"/>
</g>
<!-- Node6 -->
<g id="node7" class="node">
<title>Node6</title>
<g id="a_node7"><a xlink:href="namespaceumprintmgr.xhtml#a088ce22a18d574e9df7ee1850bfb10c7" target="_top" xlink:title="umprintmgr::umprintopenstream">
<polygon fill="#ffffff" stroke="#000000" points="892,-240 892,-259 1069,-259 1069,-240 892,-240"/>
<text text-anchor="middle" x="980.5" y="-247" font-family="Helvetica,sans-Serif" font-size="10.00" fill="#000000">umprintmgr::umprintopenstream</text>
</a>
</g>
</g>
<!-- Node5&#45;&gt;Node6 -->
<g id="edge6" class="edge">
<title>Node5&#45;&gt;Node6</title>
<path fill="none" stroke="#191970" d="M856.2395,-243.1333C864.4605,-242.9301 873.0751,-242.8077 881.7702,-242.7661"/>
<polygon fill="#191970" stroke="#191970" points="881.9998,-246.2659 891.9958,-242.7543 881.9917,-239.2659 881.9998,-246.2659"/>
</g>
<!-- Node7 -->
<g id="node8" class="node">
<title>Node7</title>
<g id="a_node8"><a xlink:href="namespaceumprintmgr.xhtml#ad3a290b30a6e25500eabc0bf90330b77" target="_top" xlink:title="umprintmgr::umprintflush">
<polygon fill="#ffffff" stroke="#000000" points="909.5,-202 909.5,-221 1051.5,-221 1051.5,-202 909.5,-202"/>
<text text-anchor="middle" x="980.5" y="-209" font-family="Helvetica,sans-Serif" font-size="10.00" fill="#000000">umprintmgr::umprintflush</text>
</a>
</g>
</g>
<!-- Node5&#45;&gt;Node7 -->
<g id="edge8" class="edge">
<title>Node5&#45;&gt;Node7</title>
<path fill="none" stroke="#191970" d="M842.931,-239.911C867.6493,-234.8061 898.239,-228.4887 924.292,-223.1082"/>
<polygon fill="#191970" stroke="#191970" points="925.3175,-226.4703 934.4029,-221.0201 923.9017,-219.615 925.3175,-226.4703"/>
</g>
<!-- Node6&#45;&gt;Node5 -->
<g id="edge7" class="edge">
<title>Node6&#45;&gt;Node5</title>
<path fill="none" stroke="#191970" d="M891.9958,-256.2457C883.3802,-256.267 874.7236,-256.2094 866.3289,-256.0727"/>
<polygon fill="#191970" stroke="#191970" points="866.3089,-252.5716 856.2395,-255.8667 866.166,-259.5702 866.3089,-252.5716"/>
</g>
<!-- Node8 -->
<g id="node9" class="node">
<title>Node8</title>
<g id="a_node9"><a xlink:href="namespaceumflush__mod.xhtml#a3a003ab59990bdcb712b443dd5e0d1cd" target="_top" xlink:title="umflush_mod::umflush">
<polygon fill="#ffffff" stroke="#000000" points="1105,-202 1105,-221 1233,-221 1233,-202 1105,-202"/>
<text text-anchor="middle" x="1169" y="-209" font-family="Helvetica,sans-Serif" font-size="10.00" fill="#000000">umflush_mod::umflush</text>
</a>
</g>
</g>
<!-- Node7&#45;&gt;Node8 -->
<g id="edge9" class="edge">
<title>Node7&#45;&gt;Node8</title>
<path fill="none" stroke="#191970" d="M1051.7638,-211.5C1065.7742,-211.5 1080.5063,-211.5 1094.6162,-211.5"/>
<polygon fill="#191970" stroke="#191970" points="1094.7612,-215.0001 1104.7611,-211.5 1094.7611,-208.0001 1094.7612,-215.0001"/>
</g>
<!-- Node10&#45;&gt;Node5 -->
<g id="edge12" class="edge">
<title>Node10&#45;&gt;Node5</title>
<path fill="none" stroke="#191970" d="M482.145,-407.3184C532.6375,-414.5878 631.1337,-421.7394 701,-382.5 746.8935,-356.7246 776.3601,-298.6535 789.1527,-268.4916"/>
<polygon fill="#191970" stroke="#191970" points="792.453,-269.6673 792.9819,-259.0856 785.9697,-267.0279 792.453,-269.6673"/>
</g>
<!-- Node11 -->
<g id="node12" class="node">
<title>Node11</title>
<g id="a_node12"><a xlink:href="asad__fyinit_8f90.xhtml#ab0c0fe146d98298c968cef7e58a3bb99" target="_top" xlink:title="(c) [University of Cambridge] [2008]. All rights reserved. ">
<polygon fill="#ffffff" stroke="#000000" points="597,-468 597,-487 668,-487 668,-468 597,-468"/>
<text text-anchor="middle" x="632.5" y="-475" font-family="Helvetica,sans-Serif" font-size="10.00" fill="#000000">asad_fyinit</text>
</a>
</g>
</g>
<!-- Node10&#45;&gt;Node11 -->
<g id="edge13" class="edge">
<title>Node10&#45;&gt;Node11</title>
<path fill="none" stroke="#191970" d="M466.1133,-411.0393C487.9932,-423.3036 527.9249,-444.6638 564,-458.5 571.3729,-461.3278 579.3393,-463.9289 587.1421,-466.2401"/>
<polygon fill="#191970" stroke="#191970" points="586.3052,-469.6408 596.8811,-469.0077 588.2188,-462.9074 586.3052,-469.6408"/>
</g>
<!-- Node13 -->
<g id="node14" class="node">
<title>Node13</title>
<g id="a_node14"><a xlink:href="asad__fyself_8f90.xhtml#a80ba22753ffe36c0126dfaab62a56921" target="_top" xlink:title="(c) [University of Cambridge] [2008]. All rights reserved. ">
<polygon fill="#ffffff" stroke="#000000" points="596,-354 596,-373 669,-373 669,-354 596,-354"/>
<text text-anchor="middle" x="632.5" y="-361" font-family="Helvetica,sans-Serif" font-size="10.00" fill="#000000">asad_fyself</text>
</a>
</g>
</g>
<!-- Node10&#45;&gt;Node13 -->
<g id="edge15" class="edge">
<title>Node10&#45;&gt;Node13</title>
<path fill="none" stroke="#191970" d="M482.2167,-394.7064C511.0674,-388.7155 553.4395,-379.9169 585.8434,-373.1882"/>
<polygon fill="#191970" stroke="#191970" points="586.9047,-376.5426 595.9842,-371.0825 585.4814,-369.6888 586.9047,-376.5426"/>
</g>
<!-- Node14 -->
<g id="node15" class="node">
<title>Node14</title>
<g id="a_node15"><a xlink:href="asad__fyfixr_8f90.xhtml#af3e384226c414935e2a2fcbf2b05149e" target="_top" xlink:title="(c) [University of Cambridge] [2008]. All rights reserved. ">
<polygon fill="#ffffff" stroke="#000000" points="597,-430 597,-449 668,-449 668,-430 597,-430"/>
<text text-anchor="middle" x="632.5" y="-437" font-family="Helvetica,sans-Serif" font-size="10.00" fill="#000000">asad_fyfixr</text>
</a>
</g>
</g>
<!-- Node10&#45;&gt;Node14 -->
<g id="edge16" class="edge">
<title>Node10&#45;&gt;Node14</title>
<path fill="none" stroke="#191970" d="M482.2167,-408.2936C511.3457,-414.3423 554.2582,-423.2531 586.7784,-430.0059"/>
<polygon fill="#191970" stroke="#191970" points="586.4383,-433.5099 596.9411,-432.1162 587.8615,-426.6561 586.4383,-433.5099"/>
</g>
<!-- Node15 -->
<g id="node16" class="node">
<title>Node15</title>
<g id="a_node16"><a xlink:href="asad__prls_8f90.xhtml#aff4ede1e3451428db2a2e8e99b0157da" target="_top" xlink:title="(c) [University of Cambridge] [2008]. All rights reserved. ">
<polygon fill="#ffffff" stroke="#000000" points="601,-506 601,-525 664,-525 664,-506 601,-506"/>
<text text-anchor="middle" x="632.5" y="-513" font-family="Helvetica,sans-Serif" font-size="10.00" fill="#000000">asad_prls</text>
</a>
</g>
</g>
<!-- Node10&#45;&gt;Node15 -->
<g id="edge17" class="edge">
<title>Node10&#45;&gt;Node15</title>
<path fill="none" stroke="#191970" d="M458.3015,-411.1374C476.2919,-430.2616 519.3606,-473.1706 564,-496.5 572.3537,-500.8658 581.8198,-504.3177 590.9912,-507.0125"/>
<polygon fill="#191970" stroke="#191970" points="590.1943,-510.4226 600.7607,-509.6469 592.0168,-503.664 590.1943,-510.4226"/>
</g>
<!-- Node12 -->
<g id="node13" class="node">
<title>Node12</title>
<g id="a_node13"><a xlink:href="asad__inicnt_8f90.xhtml#ab9649da45e79e1c7aa0237675548f6af" target="_top" xlink:title="(c) [University of Cambridge] [2008]. All rights reserved. ">
<polygon fill="#ffffff" stroke="#000000" points="760.5,-468 760.5,-487 832.5,-487 832.5,-468 760.5,-468"/>
<text text-anchor="middle" x="796.5" y="-475" font-family="Helvetica,sans-Serif" font-size="10.00" fill="#000000">asad_inicnt</text>
</a>
</g>
</g>
<!-- Node11&#45;&gt;Node12 -->
<g id="edge14" class="edge">
<title>Node11&#45;&gt;Node12</title>
<path fill="none" stroke="#191970" d="M668.0856,-477.5C692.2039,-477.5 724.3099,-477.5 750.3852,-477.5"/>
<polygon fill="#191970" stroke="#191970" points="750.4176,-481.0001 760.4176,-477.5 750.4175,-474.0001 750.4176,-481.0001"/>
</g>
<!-- Node16&#45;&gt;Node15 -->
<g id="edge19" class="edge">
<title>Node16&#45;&gt;Node15</title>
<path fill="none" stroke="#191970" d="M486.093,-515.5C516.268,-515.5 559.0855,-515.5 590.6249,-515.5"/>
<polygon fill="#191970" stroke="#191970" points="590.854,-519.0001 600.8539,-515.5 590.8539,-512.0001 590.854,-519.0001"/>
</g>
<!-- Node18&#45;&gt;Node10 -->
<g id="edge23" class="edge">
<title>Node18&#45;&gt;Node10</title>
<path fill="none" stroke="#191970" d="M182.3517,-505.9765C234.3287,-485.6493 356.2252,-437.978 415.6854,-414.7242"/>
<polygon fill="#191970" stroke="#191970" points="416.9742,-417.9784 425.0126,-411.0766 414.4246,-411.4592 416.9742,-417.9784"/>
</g>
<!-- Node18&#45;&gt;Node16 -->
<g id="edge24" class="edge">
<title>Node18&#45;&gt;Node16</title>
<path fill="none" stroke="#191970" d="M191.6245,-525.0074C206.6052,-528.7719 224.5483,-532.641 241,-534.5 282.5136,-539.1909 293.3634,-537.9311 335,-534.5 357.4195,-532.6525 382.0601,-528.8031 402.721,-525.0491"/>
<polygon fill="#191970" stroke="#191970" points="403.6337,-528.4393 412.8222,-523.1646 402.3499,-521.558 403.6337,-528.4393"/>
</g>
<!-- Node18&#45;&gt;Node17 -->
<g id="edge25" class="edge">
<title>Node18&#45;&gt;Node17</title>
<path fill="none" stroke="#191970" d="M179.0592,-525.1943C187.3394,-529.2765 196.8058,-534.2872 205,-539.5 222.1024,-550.3798 223.8976,-556.6202 241,-567.5 246.2494,-570.8394 252.0209,-574.0959 257.6682,-577.0785"/>
<polygon fill="#191970" stroke="#191970" points="256.442,-580.382 266.9408,-581.8057 259.6214,-574.1456 256.442,-580.382"/>
</g>
<!-- Node19 -->
<g id="node20" class="node">
<title>Node19</title>
<g id="a_node20"><a xlink:href="asad__inimpct_8f90.xhtml#a6ade389e2e7d3f1c739bbe0a008a415f" target="_top" xlink:title="(c) [University of Cambridge] [2008]. All rights reserved. ">
<polygon fill="#ffffff" stroke="#000000" points="247,-506 247,-525 329,-525 329,-506 247,-506"/>
<text text-anchor="middle" x="288" y="-513" font-family="Helvetica,sans-Serif" font-size="10.00" fill="#000000">asad_inimpct</text>
</a>
</g>
</g>
<!-- Node18&#45;&gt;Node19 -->
<g id="edge22" class="edge">
<title>Node18&#45;&gt;Node19</title>
<path fill="none" stroke="#191970" d="M197.7107,-515.5C209.9657,-515.5 223.6418,-515.5 236.5684,-515.5"/>
<polygon fill="#191970" stroke="#191970" points="236.7333,-519.0001 246.7332,-515.5 236.7332,-512.0001 236.7333,-519.0001"/>
</g>
<!-- Node20&#45;&gt;Node5 -->
<g id="edge40" class="edge">
<title>Node20&#45;&gt;Node5</title>
<path fill="none" stroke="#191970" d="M195.4058,-315.9103C209.6073,-312.5408 225.9775,-308.9805 241,-306.5 414.568,-277.8401 621.1759,-261.1714 726.7805,-253.8941"/>
<polygon fill="#191970" stroke="#191970" points="727.2505,-257.3703 736.9893,-253.1983 726.7744,-250.3865 727.2505,-257.3703"/>
</g>
<!-- Node20&#45;&gt;Node10 -->
<g id="edge41" class="edge">
<title>Node20&#45;&gt;Node10</title>
<path fill="none" stroke="#191970" d="M194.6235,-335.0485C248.7176,-349.1519 349.737,-375.4897 407.0126,-390.4227"/>
<polygon fill="#191970" stroke="#191970" points="406.2771,-393.8478 416.8366,-392.984 408.0431,-387.0743 406.2771,-393.8478"/>
</g>
<!-- Node20&#45;&gt;Node16 -->
<g id="edge27" class="edge">
<title>Node20&#45;&gt;Node16</title>
<path fill="none" stroke="#191970" d="M172.8563,-335.1833C220.3214,-366.1212 368.564,-462.7459 426.2262,-500.3301"/>
<polygon fill="#191970" stroke="#191970" points="424.3849,-503.3078 434.6736,-505.8362 428.2073,-497.4435 424.3849,-503.3078"/>
</g>
<!-- Node21 -->
<g id="node22" class="node">
<title>Node21</title>
<g id="a_node22"><a xlink:href="asad__spimpmjp_8f90.xhtml#acee514e2bb6da1d385ec424b90d6a7ac" target="_top" xlink:title="Copyright (c) 2008, Regents of the University of California. ">
<polygon fill="#ffffff" stroke="#000000" points="241,-240 241,-259 335,-259 335,-240 241,-240"/>
<text text-anchor="middle" x="288" y="-247" font-family="Helvetica,sans-Serif" font-size="10.00" fill="#000000">asad_spimpmjp</text>
</a>
</g>
</g>
<!-- Node20&#45;&gt;Node21 -->
<g id="edge28" class="edge">
<title>Node20&#45;&gt;Node21</title>
<path fill="none" stroke="#191970" d="M179.0592,-315.8057C187.3394,-311.7235 196.8058,-306.7128 205,-301.5 222.1024,-290.6202 223.8976,-284.3798 241,-273.5 246.2494,-270.1606 252.0209,-266.9041 257.6682,-263.9215"/>
<polygon fill="#191970" stroke="#191970" points="259.6214,-266.8544 266.9408,-259.1943 256.442,-260.618 259.6214,-266.8544"/>
</g>
<!-- Node21&#45;&gt;Node5 -->
<g id="edge37" class="edge">
<title>Node21&#45;&gt;Node5</title>
<path fill="none" stroke="#191970" d="M321.6245,-239.9926C336.6052,-236.2281 354.5483,-232.359 371,-230.5 495.7984,-216.3982 642.2955,-229.3718 726.7652,-239.7012"/>
<polygon fill="#191970" stroke="#191970" points="726.3972,-243.1823 736.7533,-240.9457 727.2628,-236.236 726.3972,-243.1823"/>
</g>
<!-- Node21&#45;&gt;Node10 -->
<g id="edge36" class="edge">
<title>Node21&#45;&gt;Node10</title>
<path fill="none" stroke="#191970" d="M295.8565,-259.028C313.2674,-280.0531 354.8322,-329.7262 371,-344.5 388.2045,-360.2211 409.7453,-375.6005 425.908,-386.4144"/>
<polygon fill="#191970" stroke="#191970" points="423.9963,-389.3461 434.2723,-391.9256 427.8477,-383.5009 423.9963,-389.3461"/>
</g>
<!-- Node21&#45;&gt;Node16 -->
<g id="edge38" class="edge">
<title>Node21&#45;&gt;Node16</title>
<path fill="none" stroke="#191970" d="M297.9564,-259.1324C308.4933,-269.8227 324.9577,-288.0172 335,-306.5 360.3664,-353.1868 345.6092,-373.8264 371,-420.5 387.4913,-450.8145 414.3646,-480.6421 431.9904,-498.562"/>
<polygon fill="#191970" stroke="#191970" points="429.8145,-501.335 439.3675,-505.9166 434.7566,-496.3777 429.8145,-501.335"/>
</g>
<!-- Node22 -->
<g id="node23" class="node">
<title>Node22</title>
<g id="a_node23"><a xlink:href="namespaceasad__sparse__vars.xhtml#ad753346de8a81d2a9e6222a4de492270" target="_top" xlink:title="asad_sparse_vars::spfuljac">
<polygon fill="#ffffff" stroke="#000000" points="375.5,-88 375.5,-107 523.5,-107 523.5,-88 375.5,-88"/>
<text text-anchor="middle" x="449.5" y="-95" font-family="Helvetica,sans-Serif" font-size="10.00" fill="#000000">asad_sparse_vars::spfuljac</text>
</a>
</g>
</g>
<!-- Node21&#45;&gt;Node22 -->
<g id="edge29" class="edge">
<title>Node21&#45;&gt;Node22</title>
<path fill="none" stroke="#191970" d="M292.8319,-239.7805C306.8204,-212.008 347.8267,-133.2252 371,-116.5 373.6719,-114.5715 376.5148,-112.837 379.4747,-111.2771"/>
<polygon fill="#191970" stroke="#191970" points="380.999,-114.4289 388.6517,-107.1018 378.1,-108.0574 380.999,-114.4289"/>
</g>
<!-- Node25 -->
<g id="node26" class="node">
<title>Node25</title>
<g id="a_node26"><a xlink:href="namespaceasad__sparse__vars.xhtml#a23f8f41526216f818abcd5cadfb3a186" target="_top" xlink:title="asad_sparse_vars::splinslv2">
<polygon fill="#ffffff" stroke="#000000" points="373,-164 373,-183 526,-183 526,-164 373,-164"/>
<text text-anchor="middle" x="449.5" y="-171" font-family="Helvetica,sans-Serif" font-size="10.00" fill="#000000">asad_sparse_vars::splinslv2</text>
</a>
</g>
</g>
<!-- Node21&#45;&gt;Node25 -->
<g id="edge33" class="edge">
<title>Node21&#45;&gt;Node25</title>
<path fill="none" stroke="#191970" d="M300.904,-239.9014C316.7303,-228.4955 344.7028,-209.503 371,-197.5 380.6282,-193.1053 391.2765,-189.2406 401.5428,-185.9683"/>
<polygon fill="#191970" stroke="#191970" points="402.6798,-189.2808 411.2229,-183.0145 400.6368,-182.5855 402.6798,-189.2808"/>
</g>
<!-- Node26 -->
<g id="node27" class="node">
<title>Node26</title>
<g id="a_node27"><a xlink:href="namespaceasad__sparse__vars.xhtml#ae04e4ddadac276b623d0bae52db956bd" target="_top" xlink:title="asad_sparse_vars::spresolv2">
<polygon fill="#ffffff" stroke="#000000" points="371,-126 371,-145 528,-145 528,-126 371,-126"/>
<text text-anchor="middle" x="449.5" y="-133" font-family="Helvetica,sans-Serif" font-size="10.00" fill="#000000">asad_sparse_vars::spresolv2</text>
</a>
</g>
</g>
<!-- Node21&#45;&gt;Node26 -->
<g id="edge34" class="edge">
<title>Node21&#45;&gt;Node26</title>
<path fill="none" stroke="#191970" d="M293.4919,-239.9585C305.1413,-220.6203 334.2946,-176.7571 371,-154.5 374.5745,-152.3325 378.3811,-150.4122 382.3171,-148.7109"/>
<polygon fill="#191970" stroke="#191970" points="383.5993,-151.9678 391.6882,-145.1252 381.0978,-145.43 383.5993,-151.9678"/>
</g>
<!-- Node27 -->
<g id="node28" class="node">
<title>Node27</title>
<g id="a_node28"><a xlink:href="asad__steady_8f90.xhtml#aab8e6164589bada9265c049b3dd2daf8" target="_top" xlink:title="(c) [University of Cambridge] [2008]. All rights reserved. ">
<polygon fill="#ffffff" stroke="#000000" points="410.5,-316 410.5,-335 488.5,-335 488.5,-316 410.5,-316"/>
<text text-anchor="middle" x="449.5" y="-323" font-family="Helvetica,sans-Serif" font-size="10.00" fill="#000000">asad_steady</text>
</a>
</g>
</g>
<!-- Node21&#45;&gt;Node27 -->
<g id="edge35" class="edge">
<title>Node21&#45;&gt;Node27</title>
<path fill="none" stroke="#191970" d="M308.4541,-259.1255C336.607,-272.3739 387.4776,-296.313 419.8164,-311.5313"/>
<polygon fill="#191970" stroke="#191970" points="418.6735,-314.8615 429.212,-315.9527 421.6541,-308.5278 418.6735,-314.8615"/>
</g>
<!-- Node28 -->
<g id="node29" class="node">
<title>Node28</title>
<g id="a_node29"><a xlink:href="asad__fuljac_8f90.xhtml#accad6d70390db3a6fd3fc4de8ccae5ab" target="_top" xlink:title="Copyright (c) 2008, Regents of the University of California. ">
<polygon fill="#ffffff" stroke="#000000" points="413.5,-240 413.5,-259 485.5,-259 485.5,-240 413.5,-240"/>
<text text-anchor="middle" x="449.5" y="-247" font-family="Helvetica,sans-Serif" font-size="10.00" fill="#000000">asad_fuljac</text>
</a>
</g>
</g>
<!-- Node21&#45;&gt;Node28 -->
<g id="edge39" class="edge">
<title>Node21&#45;&gt;Node28</title>
<path fill="none" stroke="#191970" d="M335.1466,-249.5C356.5895,-249.5 381.8801,-249.5 403.2179,-249.5"/>
<polygon fill="#191970" stroke="#191970" points="403.3411,-253.0001 413.3411,-249.5 403.3411,-246.0001 403.3411,-253.0001"/>
</g>
<!-- Node23 -->
<g id="node24" class="node">
<title>Node23</title>
<g id="a_node24"><a xlink:href="namespaceasad__sparse__vars.xhtml#aa239bf98e3a1f0d0f6fd4c88b3cfd783" target="_top" xlink:title="!&gt;!&gt;!&gt;!&gt;!&gt;!&gt;!&gt;!&gt;!&gt;!&gt;!&gt;!&gt;!&gt;!&gt;!&gt;!&gt;!&gt;!&gt;!&gt;!&gt;!&gt;!&gt;!&gt;!&gt;!&gt;!&gt;!&gt;!&gt;!&gt;!&gt;!&gt;!&gt;!&gt;!&gt;!&gt;!&gt;!&gt;!&gt;!&gt;!&gt;!&gt;!&gt;!&gt;!&gt;!&gt;!&gt;!&gt;!&gt;!&gt;!&gt;!...">
<polygon fill="#ffffff" stroke="#000000" points="564,-.5 564,-30.5 701,-30.5 701,-.5 564,-.5"/>
<text text-anchor="start" x="572" y="-18.5" font-family="Helvetica,sans-Serif" font-size="10.00" fill="#000000">asad_sparse_vars::setup</text>
<text text-anchor="middle" x="632.5" y="-7.5" font-family="Helvetica,sans-Serif" font-size="10.00" fill="#000000">_spfuljac</text>
</a>
</g>
</g>
<!-- Node22&#45;&gt;Node23 -->
<g id="edge30" class="edge">
<title>Node22&#45;&gt;Node23</title>
<path fill="none" stroke="#191970" d="M470.8506,-87.9331C499.8812,-74.9248 552.4567,-51.3664 589.7591,-34.6517"/>
<polygon fill="#191970" stroke="#191970" points="591.1955,-37.8434 598.89,-30.5602 588.3331,-31.4554 591.1955,-37.8434"/>
</g>
<!-- Node23&#45;&gt;Node5 -->
<g id="edge32" class="edge">
<title>Node23&#45;&gt;Node5</title>
<path fill="none" stroke="#191970" d="M679.5514,-30.6596C687.3413,-34.6255 694.8656,-39.5174 701,-45.5 755.9006,-99.0428 782.7298,-190.2623 792.2788,-230.0166"/>
<polygon fill="#191970" stroke="#191970" points="788.9205,-231.031 794.5676,-239.9954 795.7434,-229.466 788.9205,-231.031"/>
</g>
<!-- Node24 -->
<g id="node25" class="node">
<title>Node24</title>
<g id="a_node25"><a xlink:href="sum_8f90.xhtml#a025c1f845b6a4ea9c9f48b8612cd82e7" target="_top" xlink:title="Generic routines for manipulating pp&#45;fields within Fieldcalc. ">
<polygon fill="#ffffff" stroke="#000000" points="777.5,-6 777.5,-25 815.5,-25 815.5,-6 777.5,-6"/>
<text text-anchor="middle" x="796.5" y="-13" font-family="Helvetica,sans-Serif" font-size="10.00" fill="#000000">sum</text>
</a>
</g>
</g>
<!-- Node23&#45;&gt;Node24 -->
<g id="edge31" class="edge">
<title>Node23&#45;&gt;Node24</title>
<path fill="none" stroke="#191970" d="M701.1005,-15.5C724.2866,-15.5 748.9416,-15.5 767.3782,-15.5"/>
<polygon fill="#191970" stroke="#191970" points="767.4567,-19.0001 777.4566,-15.5 767.4566,-12.0001 767.4567,-19.0001"/>
</g>
<!-- Node29&#45;&gt;Node5 -->
<g id="edge43" class="edge">
<title>Node29&#45;&gt;Node5</title>
<path fill="none" stroke="#191970" d="M321.6245,-335.0074C336.6052,-338.7719 354.5483,-342.641 371,-344.5 440.3365,-352.3348 458.7392,-352.9786 528,-344.5 606.6413,-334.8731 627.1652,-330.2326 701,-301.5 726.8537,-291.4391 754.4944,-275.7939 773.3512,-264.2909"/>
<polygon fill="#191970" stroke="#191970" points="775.2005,-267.2625 781.8563,-259.0193 771.5127,-261.3127 775.2005,-267.2625"/>
</g>
<!-- Node29&#45;&gt;Node10 -->
<g id="edge44" class="edge">
<title>Node29&#45;&gt;Node10</title>
<path fill="none" stroke="#191970" d="M309.0592,-335.1943C317.3394,-339.2765 326.8058,-344.2872 335,-349.5 352.1024,-360.3798 353.0103,-368.1601 371,-377.5 382.1659,-383.2971 394.966,-387.9501 406.9453,-391.5586"/>
<polygon fill="#191970" stroke="#191970" points="406.1852,-394.9811 416.761,-394.3463 408.0976,-388.2474 406.1852,-394.9811"/>
</g>
<!-- Node29&#45;&gt;Node27 -->
<g id="edge45" class="edge">
<title>Node29&#45;&gt;Node27</title>
<path fill="none" stroke="#191970" d="M326.2732,-325.5C348.374,-325.5 376.4093,-325.5 400.1535,-325.5"/>
<polygon fill="#191970" stroke="#191970" points="400.3796,-329.0001 410.3796,-325.5 400.3796,-322.0001 400.3796,-329.0001"/>
</g>
</g>
</svg>
