<?xml version="1.0" encoding="UTF-8" standalone="no"?>
<!DOCTYPE svg PUBLIC "-//W3C//DTD SVG 1.1//EN"
 "http://www.w3.org/Graphics/SVG/1.1/DTD/svg11.dtd">
<!-- Generated by graphviz version 2.40.1 (20161225.0304)
 -->
<!-- Title: aspang Pages: 1 -->
<svg width="293pt" height="66pt"
 viewBox="0.00 0.00 293.00 66.00" xmlns="http://www.w3.org/2000/svg" xmlns:xlink="http://www.w3.org/1999/xlink">
<g id="graph0" class="graph" transform="scale(1 1) rotate(0) translate(4 62)">
<title>aspang</title>
<polygon fill="#ffffff" stroke="transparent" points="-4,4 -4,-62 289,-62 289,4 -4,4"/>
<!-- Node3 -->
<g id="node1" class="node">
<title>Node3</title>
<polygon fill="#bfbfbf" stroke="#000000" points="0,-19.5 0,-38.5 52,-38.5 52,-19.5 0,-19.5"/>
<text text-anchor="middle" x="26" y="-26.5" font-family="Helvetica,sans-Serif" font-size="10.00" fill="#000000">aspang</text>
</g>
<!-- Node4 -->
<g id="node2" class="node">
<title>Node4</title>
<g id="a_node2"><a xlink:href="setcona_8f90.xhtml#a353c87ffe0be2800c2f0bf5d6c40d099" target="_top" xlink:title="LL Subroutine SETCONA!&gt;LL. ">
<polygon fill="#ffffff" stroke="#000000" points="96.5,-38.5 96.5,-57.5 151.5,-57.5 151.5,-38.5 96.5,-38.5"/>
<text text-anchor="middle" x="124" y="-45.5" font-family="Helvetica,sans-Serif" font-size="10.00" fill="#000000">setcona</text>
</a>
</g>
</g>
<!-- Node3&#45;&gt;Node4 -->
<g id="edge1" class="edge">
<title>Node3&#45;&gt;Node4</title>
<path fill="none" stroke="#191970" d="M62.0028,-35.9801C73.2743,-38.1654 85.5349,-40.5425 96.1547,-42.6014"/>
<polygon fill="#191970" stroke="#191970" points="62.4883,-32.5092 52.0049,-34.0418 61.1559,-39.3812 62.4883,-32.5092"/>
</g>
<!-- Node6 -->
<g id="node4" class="node">
<title>Node6</title>
<g id="a_node4"><a xlink:href="setcona__4_a_8f90.xhtml#ab6beee322d7ff9bca411f17380e33743" target="_top" xlink:title="Subroutine SETCONA (ENDGAME VERSION)!&gt; Purpose : to calculate additional constants derived from...">
<polygon fill="#ffffff" stroke="#000000" points="88,-.5 88,-19.5 160,-19.5 160,-.5 88,-.5"/>
<text text-anchor="middle" x="124" y="-7.5" font-family="Helvetica,sans-Serif" font-size="10.00" fill="#000000">setcona_4a</text>
</a>
</g>
</g>
<!-- Node3&#45;&gt;Node6 -->
<g id="edge3" class="edge">
<title>Node3&#45;&gt;Node6</title>
<path fill="none" stroke="#191970" d="M61.9712,-22.026C70.4302,-20.386 79.4477,-18.6377 87.9118,-16.9967"/>
<polygon fill="#191970" stroke="#191970" points="61.1559,-18.6188 52.0049,-23.9582 62.4883,-25.4908 61.1559,-18.6188"/>
</g>
<!-- Node5 -->
<g id="node3" class="node">
<title>Node5</title>
<g id="a_node3"><a xlink:href="setcona__ctl_8f90.xhtml#a0a2ef213293e6f9a8f60060fc26ed5df" target="_top" xlink:title="Subroutine SETCONA_CTL. ">
<polygon fill="#ffffff" stroke="#000000" points="204.5,-38.5 204.5,-57.5 276.5,-57.5 276.5,-38.5 204.5,-38.5"/>
<text text-anchor="middle" x="240.5" y="-45.5" font-family="Helvetica,sans-Serif" font-size="10.00" fill="#000000">setcona_ctl</text>
</a>
</g>
</g>
<!-- Node4&#45;&gt;Node5 -->
<g id="edge2" class="edge">
<title>Node4&#45;&gt;Node5</title>
<path fill="none" stroke="#191970" d="M161.6608,-48C175.3257,-48 190.7255,-48 204.2648,-48"/>
<polygon fill="#191970" stroke="#191970" points="161.6089,-44.5001 151.6089,-48 161.6088,-51.5001 161.6089,-44.5001"/>
</g>
<!-- Node7 -->
<g id="node5" class="node">
<title>Node7</title>
<g id="a_node5"><a xlink:href="setcona__ctl__4_a_8f90.xhtml#aae00cb9b838e6f0f912412753746f414" target="_top" xlink:title="Subroutine SETCONA_CTL (ENDGAME version) ">
<polygon fill="#ffffff" stroke="#000000" points="196,-.5 196,-19.5 285,-19.5 285,-.5 196,-.5"/>
<text text-anchor="middle" x="240.5" y="-7.5" font-family="Helvetica,sans-Serif" font-size="10.00" fill="#000000">setcona_ctl_4a</text>
</a>
</g>
</g>
<!-- Node6&#45;&gt;Node7 -->
<g id="edge4" class="edge">
<title>Node6&#45;&gt;Node7</title>
<path fill="none" stroke="#191970" d="M170.225,-10C178.6069,-10 187.336,-10 195.6768,-10"/>
<polygon fill="#191970" stroke="#191970" points="170.2228,-6.5001 160.2227,-10 170.2227,-13.5001 170.2228,-6.5001"/>
</g>
</g>
</svg>
