<?xml version="1.0" encoding="UTF-8" standalone="no"?>
<!DOCTYPE svg PUBLIC "-//W3C//DTD SVG 1.1//EN"
 "http://www.w3.org/Graphics/SVG/1.1/DTD/svg11.dtd">
<!-- Generated by graphviz version 2.40.1 (20161225.0304)
 -->
<!-- Title: atm_step_diag Pages: 1 -->
<svg width="520pt" height="66pt"
 viewBox="0.00 0.00 520.00 66.00" xmlns="http://www.w3.org/2000/svg" xmlns:xlink="http://www.w3.org/1999/xlink">
<g id="graph0" class="graph" transform="scale(1 1) rotate(0) translate(4 62)">
<title>atm_step_diag</title>
<polygon fill="#ffffff" stroke="transparent" points="-4,4 -4,-62 516,-62 516,4 -4,4"/>
<!-- Node1 -->
<g id="node1" class="node">
<title>Node1</title>
<polygon fill="#bfbfbf" stroke="#000000" points="0,-19.5 0,-38.5 89,-38.5 89,-19.5 0,-19.5"/>
<text text-anchor="middle" x="44.5" y="-26.5" font-family="Helvetica,sans-Serif" font-size="10.00" fill="#000000">atm_step_diag</text>
</g>
<!-- Node2 -->
<g id="node2" class="node">
<title>Node2</title>
<g id="a_node2"><a xlink:href="atm__step_8f90.xhtml#ac0ee2467a1a9959b7065fdb8fd27bce4" target="_top" xlink:title="Perform a 1&#45;timestep integration of the Atmosphere Model. ">
<polygon fill="#ffffff" stroke="#000000" points="134,-38.5 134,-57.5 196,-57.5 196,-38.5 134,-38.5"/>
<text text-anchor="middle" x="165" y="-45.5" font-family="Helvetica,sans-Serif" font-size="10.00" fill="#000000">atm_step</text>
</a>
</g>
</g>
<!-- Node1&#45;&gt;Node2 -->
<g id="edge1" class="edge">
<title>Node1&#45;&gt;Node2</title>
<path fill="none" stroke="#191970" d="M98.9505,-37.5856C110.8994,-39.4696 123.1555,-41.4021 133.8152,-43.0829"/>
<polygon fill="#191970" stroke="#191970" points="99.4505,-34.1212 89.0274,-36.0209 98.3602,-41.0358 99.4505,-34.1212"/>
</g>
<!-- Node6 -->
<g id="node6" class="node">
<title>Node6</title>
<g id="a_node6"><a xlink:href="atm__step__4_a_8f90.xhtml#a2319aa4963e90c64cd78bdcd5f481095" target="_top" xlink:title="Perform a 1&#45;timestep integration of the Atmosphere Model. ">
<polygon fill="#ffffff" stroke="#000000" points="125,-.5 125,-19.5 205,-19.5 205,-.5 125,-.5"/>
<text text-anchor="middle" x="165" y="-7.5" font-family="Helvetica,sans-Serif" font-size="10.00" fill="#000000">atm_step_4a</text>
</a>
</g>
</g>
<!-- Node1&#45;&gt;Node6 -->
<g id="edge5" class="edge">
<title>Node1&#45;&gt;Node6</title>
<path fill="none" stroke="#191970" d="M99.028,-20.4022C107.6451,-19.0435 116.4198,-17.66 124.6383,-16.3641"/>
<polygon fill="#191970" stroke="#191970" points="98.3602,-16.9642 89.0274,-21.9791 99.4505,-23.8788 98.3602,-16.9642"/>
</g>
<!-- Node3 -->
<g id="node3" class="node">
<title>Node3</title>
<g id="a_node3"><a xlink:href="u__model_8f90.xhtml#ada0cd2ce4699433bf0f9adbd882c8eec" target="_top" xlink:title="Subroutine: U_MODEL &#45;!&gt; ">
<polygon fill="#ffffff" stroke="#000000" points="249.5,-38.5 249.5,-57.5 308.5,-57.5 308.5,-38.5 249.5,-38.5"/>
<text text-anchor="middle" x="279" y="-45.5" font-family="Helvetica,sans-Serif" font-size="10.00" fill="#000000">u_model</text>
</a>
</g>
</g>
<!-- Node2&#45;&gt;Node3 -->
<g id="edge2" class="edge">
<title>Node2&#45;&gt;Node3</title>
<path fill="none" stroke="#191970" d="M206.2532,-48C220.5539,-48 236.2895,-48 249.4568,-48"/>
<polygon fill="#191970" stroke="#191970" points="206.151,-44.5001 196.151,-48 206.151,-51.5001 206.151,-44.5001"/>
</g>
<!-- Node4 -->
<g id="node4" class="node">
<title>Node4</title>
<g id="a_node4"><a xlink:href="um__shell_8f90.xhtml#a8c9bd25362824a5c301376ecb5ed5c27" target="_top" xlink:title="Subroutine: UM_SHELL !&gt; ">
<polygon fill="#ffffff" stroke="#000000" points="353,-19.5 353,-38.5 414,-38.5 414,-19.5 353,-19.5"/>
<text text-anchor="middle" x="383.5" y="-26.5" font-family="Helvetica,sans-Serif" font-size="10.00" fill="#000000">um_shell</text>
</a>
</g>
</g>
<!-- Node3&#45;&gt;Node4 -->
<g id="edge3" class="edge">
<title>Node3&#45;&gt;Node4</title>
<path fill="none" stroke="#191970" d="M318.701,-40.7816C329.951,-38.7362 342.0261,-36.5407 352.6677,-34.6059"/>
<polygon fill="#191970" stroke="#191970" points="317.8786,-37.3737 308.666,-42.6062 319.1308,-44.2608 317.8786,-37.3737"/>
</g>
<!-- Node5 -->
<g id="node5" class="node">
<title>Node5</title>
<g id="a_node5"><a xlink:href="um__main_8f90.xhtml#a8f2d13215621443a5313261c282f098b" target="_top" xlink:title="Code Owner: See Unified Model Code Owner&#39;s HTML page. ">
<polygon fill="#ffffff" stroke="#000000" points="450,-19.5 450,-38.5 512,-38.5 512,-19.5 450,-19.5"/>
<text text-anchor="middle" x="481" y="-26.5" font-family="Helvetica,sans-Serif" font-size="10.00" fill="#000000">um_main</text>
</a>
</g>
</g>
<!-- Node4&#45;&gt;Node5 -->
<g id="edge4" class="edge">
<title>Node4&#45;&gt;Node5</title>
<path fill="none" stroke="#191970" d="M424.2756,-29C432.8294,-29 441.72,-29 449.8551,-29"/>
<polygon fill="#191970" stroke="#191970" points="424.0821,-25.5001 414.0821,-29 424.0821,-32.5001 424.0821,-25.5001"/>
</g>
<!-- Node7 -->
<g id="node7" class="node">
<title>Node7</title>
<g id="a_node7"><a xlink:href="u__model__4_a_8f90.xhtml#afa05064dab5eba198b461d0928767c7e" target="_top" xlink:title="LL Subroutine: U_MODEL_4A (ENDGAME VERSION) !&gt;LL. ">
<polygon fill="#ffffff" stroke="#000000" points="241,-.5 241,-19.5 317,-19.5 317,-.5 241,-.5"/>
<text text-anchor="middle" x="279" y="-7.5" font-family="Helvetica,sans-Serif" font-size="10.00" fill="#000000">u_model_4a</text>
</a>
</g>
</g>
<!-- Node6&#45;&gt;Node7 -->
<g id="edge6" class="edge">
<title>Node6&#45;&gt;Node7</title>
<path fill="none" stroke="#191970" d="M215.3998,-10C223.891,-10 232.5803,-10 240.7002,-10"/>
<polygon fill="#191970" stroke="#191970" points="215.1922,-6.5001 205.1921,-10 215.1921,-13.5001 215.1922,-6.5001"/>
</g>
<!-- Node7&#45;&gt;Node4 -->
<g id="edge7" class="edge">
<title>Node7&#45;&gt;Node4</title>
<path fill="none" stroke="#191970" d="M326.8728,-18.7041C335.7087,-20.3107 344.7128,-21.9478 352.8647,-23.43"/>
<polygon fill="#191970" stroke="#191970" points="327.4873,-15.2586 317.0225,-16.9132 326.2351,-22.1457 327.4873,-15.2586"/>
</g>
</g>
</svg>
