<?xml version="1.0" encoding="UTF-8" standalone="no"?>
<!DOCTYPE svg PUBLIC "-//W3C//DTD SVG 1.1//EN"
 "http://www.w3.org/Graphics/SVG/1.1/DTD/svg11.dtd">
<!-- Generated by graphviz version 2.40.1 (20161225.0304)
 -->
<!-- Title: atm_step_swapbnds Pages: 1 -->
<svg width="406pt" height="47pt"
 viewBox="0.00 0.00 406.00 47.00" xmlns="http://www.w3.org/2000/svg" xmlns:xlink="http://www.w3.org/1999/xlink">
<g id="graph0" class="graph" transform="scale(1 1) rotate(0) translate(4 43)">
<title>atm_step_swapbnds</title>
<polygon fill="#ffffff" stroke="transparent" points="-4,4 -4,-43 402,-43 402,4 -4,4"/>
<!-- Node0 -->
<g id="node1" class="node">
<title>Node0</title>
<polygon fill="#bfbfbf" stroke="#000000" points="0,-.5 0,-19.5 116,-19.5 116,-.5 0,-.5"/>
<text text-anchor="middle" x="58" y="-7.5" font-family="Helvetica,sans-Serif" font-size="10.00" fill="#000000">atm_step_swapbnds</text>
</g>
<!-- Node1 -->
<g id="node2" class="node">
<title>Node1</title>
<g id="a_node2"><a xlink:href="swap__bounds__mv-2c_8f90.xhtml#a7ec706a27cea514039111eeb3f669540" target="_top" xlink:title="Direct MPI version of swap_bounds to deal with multiple variables. ">
<polygon fill="#ffffff" stroke="#000000" points="152,-19.5 152,-38.5 256,-38.5 256,-19.5 152,-19.5"/>
<text text-anchor="middle" x="204" y="-26.5" font-family="Helvetica,sans-Serif" font-size="10.00" fill="#000000">swap_bounds_mv</text>
</a>
</g>
</g>
<!-- Node0&#45;&gt;Node1 -->
<g id="edge1" class="edge">
<title>Node0&#45;&gt;Node1</title>
<path fill="none" stroke="#191970" d="M116.1226,-17.5639C124.4897,-18.6528 133.1291,-19.7771 141.5755,-20.8763"/>
<polygon fill="#191970" stroke="#191970" points="141.3832,-24.3807 151.7513,-22.2005 142.2866,-17.4392 141.3832,-24.3807"/>
</g>
<!-- Node2 -->
<g id="node3" class="node">
<title>Node2</title>
<g id="a_node3"><a xlink:href="fill__external__halos_8f90.xhtml#a9f4e1e061e136821fb9a51281a5e69c2" target="_top" xlink:title="Routine for filling in External Halos. ">
<polygon fill="#ffffff" stroke="#000000" points="292,-.5 292,-19.5 398,-19.5 398,-.5 292,-.5"/>
<text text-anchor="middle" x="345" y="-7.5" font-family="Helvetica,sans-Serif" font-size="10.00" fill="#000000">fill_external_halos</text>
</a>
</g>
</g>
<!-- Node0&#45;&gt;Node2 -->
<g id="edge3" class="edge">
<title>Node0&#45;&gt;Node2</title>
<path fill="none" stroke="#191970" d="M116.0787,-10C164.0945,-10 232.1718,-10 281.5975,-10"/>
<polygon fill="#191970" stroke="#191970" points="281.8474,-13.5001 291.8473,-10 281.8473,-6.5001 281.8474,-13.5001"/>
</g>
<!-- Node1&#45;&gt;Node2 -->
<g id="edge2" class="edge">
<title>Node1&#45;&gt;Node2</title>
<path fill="none" stroke="#191970" d="M256.1026,-21.9791C264.4476,-20.8546 273.1623,-19.6803 281.7329,-18.5254"/>
<polygon fill="#191970" stroke="#191970" points="282.2541,-21.9868 291.6971,-17.1827 281.3192,-15.0495 282.2541,-21.9868"/>
</g>
</g>
</svg>
