<?xml version="1.0" encoding="UTF-8" standalone="no"?>
<!DOCTYPE svg PUBLIC "-//W3C//DTD SVG 1.1//EN"
 "http://www.w3.org/Graphics/SVG/1.1/DTD/svg11.dtd">
<!-- Generated by graphviz version 2.40.1 (20161225.0304)
 -->
<!-- Title: atm_step_phys_init Pages: 1 -->
<svg width="543pt" height="66pt"
 viewBox="0.00 0.00 543.00 66.00" xmlns="http://www.w3.org/2000/svg" xmlns:xlink="http://www.w3.org/1999/xlink">
<g id="graph0" class="graph" transform="scale(1 1) rotate(0) translate(4 62)">
<title>atm_step_phys_init</title>
<polygon fill="#ffffff" stroke="transparent" points="-4,4 -4,-62 539,-62 539,4 -4,4"/>
<!-- Node14 -->
<g id="node1" class="node">
<title>Node14</title>
<polygon fill="#bfbfbf" stroke="#000000" points="0,-19.5 0,-38.5 112,-38.5 112,-19.5 0,-19.5"/>
<text text-anchor="middle" x="56" y="-26.5" font-family="Helvetica,sans-Serif" font-size="10.00" fill="#000000">atm_step_phys_init</text>
</g>
<!-- Node15 -->
<g id="node2" class="node">
<title>Node15</title>
<g id="a_node2"><a xlink:href="atm__step_8f90.xhtml#ac0ee2467a1a9959b7065fdb8fd27bce4" target="_top" xlink:title="Perform a 1&#45;timestep integration of the Atmosphere Model. ">
<polygon fill="#ffffff" stroke="#000000" points="157,-38.5 157,-57.5 219,-57.5 219,-38.5 157,-38.5"/>
<text text-anchor="middle" x="188" y="-45.5" font-family="Helvetica,sans-Serif" font-size="10.00" fill="#000000">atm_step</text>
</a>
</g>
</g>
<!-- Node14&#45;&gt;Node15 -->
<g id="edge1" class="edge">
<title>Node14&#45;&gt;Node15</title>
<path fill="none" stroke="#191970" d="M122.4533,-38.5653C134.5022,-40.2996 146.531,-42.031 156.9333,-43.5283"/>
<polygon fill="#191970" stroke="#191970" points="122.7594,-35.0733 112.3628,-37.1128 121.7621,-42.0019 122.7594,-35.0733"/>
</g>
<!-- Node19 -->
<g id="node6" class="node">
<title>Node19</title>
<g id="a_node6"><a xlink:href="atm__step__4_a_8f90.xhtml#a2319aa4963e90c64cd78bdcd5f481095" target="_top" xlink:title="Perform a 1&#45;timestep integration of the Atmosphere Model. ">
<polygon fill="#ffffff" stroke="#000000" points="148,-.5 148,-19.5 228,-19.5 228,-.5 148,-.5"/>
<text text-anchor="middle" x="188" y="-7.5" font-family="Helvetica,sans-Serif" font-size="10.00" fill="#000000">atm_step_4a</text>
</a>
</g>
</g>
<!-- Node14&#45;&gt;Node19 -->
<g id="edge5" class="edge">
<title>Node14&#45;&gt;Node19</title>
<path fill="none" stroke="#191970" d="M122.4799,-19.4309C131.1241,-18.1867 139.7574,-16.944 147.7865,-15.7883"/>
<polygon fill="#191970" stroke="#191970" points="121.7621,-15.9981 112.3628,-20.8872 122.7594,-22.9267 121.7621,-15.9981"/>
</g>
<!-- Node16 -->
<g id="node3" class="node">
<title>Node16</title>
<g id="a_node3"><a xlink:href="u__model_8f90.xhtml#ada0cd2ce4699433bf0f9adbd882c8eec" target="_top" xlink:title="Subroutine: U_MODEL &#45;!&gt; ">
<polygon fill="#ffffff" stroke="#000000" points="272.5,-38.5 272.5,-57.5 331.5,-57.5 331.5,-38.5 272.5,-38.5"/>
<text text-anchor="middle" x="302" y="-45.5" font-family="Helvetica,sans-Serif" font-size="10.00" fill="#000000">u_model</text>
</a>
</g>
</g>
<!-- Node15&#45;&gt;Node16 -->
<g id="edge2" class="edge">
<title>Node15&#45;&gt;Node16</title>
<path fill="none" stroke="#191970" d="M229.2532,-48C243.5539,-48 259.2895,-48 272.4568,-48"/>
<polygon fill="#191970" stroke="#191970" points="229.151,-44.5001 219.151,-48 229.151,-51.5001 229.151,-44.5001"/>
</g>
<!-- Node17 -->
<g id="node4" class="node">
<title>Node17</title>
<g id="a_node4"><a xlink:href="um__shell_8f90.xhtml#a8c9bd25362824a5c301376ecb5ed5c27" target="_top" xlink:title="Subroutine: UM_SHELL !&gt; ">
<polygon fill="#ffffff" stroke="#000000" points="376,-19.5 376,-38.5 437,-38.5 437,-19.5 376,-19.5"/>
<text text-anchor="middle" x="406.5" y="-26.5" font-family="Helvetica,sans-Serif" font-size="10.00" fill="#000000">um_shell</text>
</a>
</g>
</g>
<!-- Node16&#45;&gt;Node17 -->
<g id="edge3" class="edge">
<title>Node16&#45;&gt;Node17</title>
<path fill="none" stroke="#191970" d="M341.701,-40.7816C352.951,-38.7362 365.0261,-36.5407 375.6677,-34.6059"/>
<polygon fill="#191970" stroke="#191970" points="340.8786,-37.3737 331.666,-42.6062 342.1308,-44.2608 340.8786,-37.3737"/>
</g>
<!-- Node18 -->
<g id="node5" class="node">
<title>Node18</title>
<g id="a_node5"><a xlink:href="um__main_8f90.xhtml#a8f2d13215621443a5313261c282f098b" target="_top" xlink:title="Code Owner: See Unified Model Code Owner&#39;s HTML page. ">
<polygon fill="#ffffff" stroke="#000000" points="473,-19.5 473,-38.5 535,-38.5 535,-19.5 473,-19.5"/>
<text text-anchor="middle" x="504" y="-26.5" font-family="Helvetica,sans-Serif" font-size="10.00" fill="#000000">um_main</text>
</a>
</g>
</g>
<!-- Node17&#45;&gt;Node18 -->
<g id="edge4" class="edge">
<title>Node17&#45;&gt;Node18</title>
<path fill="none" stroke="#191970" d="M447.2756,-29C455.8294,-29 464.72,-29 472.8551,-29"/>
<polygon fill="#191970" stroke="#191970" points="447.0821,-25.5001 437.0821,-29 447.0821,-32.5001 447.0821,-25.5001"/>
</g>
<!-- Node20 -->
<g id="node7" class="node">
<title>Node20</title>
<g id="a_node7"><a xlink:href="u__model__4_a_8f90.xhtml#afa05064dab5eba198b461d0928767c7e" target="_top" xlink:title="LL Subroutine: U_MODEL_4A (ENDGAME VERSION) !&gt;LL. ">
<polygon fill="#ffffff" stroke="#000000" points="264,-.5 264,-19.5 340,-19.5 340,-.5 264,-.5"/>
<text text-anchor="middle" x="302" y="-7.5" font-family="Helvetica,sans-Serif" font-size="10.00" fill="#000000">u_model_4a</text>
</a>
</g>
</g>
<!-- Node19&#45;&gt;Node20 -->
<g id="edge6" class="edge">
<title>Node19&#45;&gt;Node20</title>
<path fill="none" stroke="#191970" d="M238.3998,-10C246.891,-10 255.5803,-10 263.7002,-10"/>
<polygon fill="#191970" stroke="#191970" points="238.1922,-6.5001 228.1921,-10 238.1921,-13.5001 238.1922,-6.5001"/>
</g>
<!-- Node20&#45;&gt;Node17 -->
<g id="edge7" class="edge">
<title>Node20&#45;&gt;Node17</title>
<path fill="none" stroke="#191970" d="M349.8728,-18.7041C358.7087,-20.3107 367.7128,-21.9478 375.8647,-23.43"/>
<polygon fill="#191970" stroke="#191970" points="350.4873,-15.2586 340.0225,-16.9132 349.2351,-22.1457 350.4873,-15.2586"/>
</g>
</g>
</svg>
