<?xml version="1.0" encoding="UTF-8" standalone="no"?>
<!DOCTYPE svg PUBLIC "-//W3C//DTD SVG 1.1//EN"
 "http://www.w3.org/Graphics/SVG/1.1/DTD/svg11.dtd">
<!-- Generated by graphviz version 2.40.1 (20161225.0304)
 -->
<!-- Title: balance_lbc_values Pages: 1 -->
<svg width="266pt" height="66pt"
 viewBox="0.00 0.00 266.00 66.00" xmlns="http://www.w3.org/2000/svg" xmlns:xlink="http://www.w3.org/1999/xlink">
<g id="graph0" class="graph" transform="scale(1 1) rotate(0) translate(4 62)">
<title>balance_lbc_values</title>
<polygon fill="#ffffff" stroke="transparent" points="-4,4 -4,-62 262,-62 262,4 -4,4"/>
<!-- Node0 -->
<g id="node1" class="node">
<title>Node0</title>
<polygon fill="#bfbfbf" stroke="#000000" points="0,-19.5 0,-38.5 112,-38.5 112,-19.5 0,-19.5"/>
<text text-anchor="middle" x="56" y="-26.5" font-family="Helvetica,sans-Serif" font-size="10.00" fill="#000000">balance_lbc_values</text>
</g>
<!-- Node1 -->
<g id="node2" class="node">
<title>Node1</title>
<g id="a_node2"><a xlink:href="namespacevectlib__mod.xhtml#ab07e609f914c05af5e4642a0d2f800ce" target="_top" xlink:title="vectlib_mod::sin_v">
<polygon fill="#ffffff" stroke="#000000" points="149,-38.5 149,-57.5 257,-57.5 257,-38.5 149,-38.5"/>
<text text-anchor="middle" x="203" y="-45.5" font-family="Helvetica,sans-Serif" font-size="10.00" fill="#000000">vectlib_mod::sin_v</text>
</a>
</g>
</g>
<!-- Node0&#45;&gt;Node1 -->
<g id="edge1" class="edge">
<title>Node0&#45;&gt;Node1</title>
<path fill="none" stroke="#191970" d="M112.4136,-36.2916C121.0264,-37.4048 129.9706,-38.5608 138.7367,-39.6939"/>
<polygon fill="#191970" stroke="#191970" points="138.5488,-43.1986 148.9149,-41.0094 139.4461,-36.2563 138.5488,-43.1986"/>
</g>
<!-- Node2 -->
<g id="node3" class="node">
<title>Node2</title>
<g id="a_node3"><a xlink:href="namespacevectlib__mod.xhtml#a38f86ee7dbf3fe15b7a884fab0876ba1" target="_top" xlink:title="vectlib_mod::cos_v">
<polygon fill="#ffffff" stroke="#000000" points="148,-.5 148,-19.5 258,-19.5 258,-.5 148,-.5"/>
<text text-anchor="middle" x="203" y="-7.5" font-family="Helvetica,sans-Serif" font-size="10.00" fill="#000000">vectlib_mod::cos_v</text>
</a>
</g>
</g>
<!-- Node0&#45;&gt;Node2 -->
<g id="edge2" class="edge">
<title>Node0&#45;&gt;Node2</title>
<path fill="none" stroke="#191970" d="M112.4136,-21.7084C120.7936,-20.6253 129.4874,-19.5016 138.0255,-18.3981"/>
<polygon fill="#191970" stroke="#191970" points="138.4802,-21.8685 147.949,-17.1154 137.5828,-14.9262 138.4802,-21.8685"/>
</g>
</g>
</svg>
