<?xml version="1.0" encoding="UTF-8" standalone="no"?>
<!DOCTYPE svg PUBLIC "-//W3C//DTD SVG 1.1//EN"
 "http://www.w3.org/Graphics/SVG/1.1/DTD/svg11.dtd">
<!-- Generated by graphviz version 2.40.1 (20161225.0304)
 -->
<!-- Title: bi_linear Pages: 1 -->
<svg width="1493pt" height="390pt"
 viewBox="0.00 0.00 1493.00 390.17" xmlns="http://www.w3.org/2000/svg" xmlns:xlink="http://www.w3.org/1999/xlink">
<g id="graph0" class="graph" transform="scale(1 1) rotate(0) translate(4 386.1721)">
<title>bi_linear</title>
<polygon fill="#ffffff" stroke="transparent" points="-4,4 -4,-386.1721 1489,-386.1721 1489,4 -4,4"/>
<!-- Node1 -->
<g id="node1" class="node">
<title>Node1</title>
<polygon fill="#bfbfbf" stroke="#000000" points="0,-158.5 0,-177.5 59,-177.5 59,-158.5 0,-158.5"/>
<text text-anchor="middle" x="29.5" y="-165.5" font-family="Helvetica,sans-Serif" font-size="10.00" fill="#000000">bi_linear</text>
</g>
<!-- Node2 -->
<g id="node2" class="node">
<title>Node2</title>
<g id="a_node2"><a xlink:href="bi__linear__h_8f90.xhtml#a9470f524f37f965985b761d7659cfedf" target="_top" xlink:title="Subroutine Bi_Linear_H. ">
<polygon fill="#ffffff" stroke="#000000" points="103.5,-243.5 103.5,-262.5 173.5,-262.5 173.5,-243.5 103.5,-243.5"/>
<text text-anchor="middle" x="138.5" y="-250.5" font-family="Helvetica,sans-Serif" font-size="10.00" fill="#000000">bi_linear_h</text>
</a>
</g>
</g>
<!-- Node1&#45;&gt;Node2 -->
<g id="edge1" class="edge">
<title>Node1&#45;&gt;Node2</title>
<path fill="none" stroke="#191970" d="M49.9021,-183.9099C72.3142,-201.3872 107.5854,-228.8923 126.1421,-243.3631"/>
<polygon fill="#191970" stroke="#191970" points="52.0417,-181.14 42.0037,-177.7506 47.7371,-186.66 52.0417,-181.14"/>
</g>
<!-- Node18 -->
<g id="node18" class="node">
<title>Node18</title>
<g id="a_node18"><a xlink:href="eg__bi__linear__h_8f90.xhtml#acfe9665a80b7970dfbe44aa69fd38dd2" target="_top" xlink:title="Subroutine Interface: ">
<polygon fill="#ffffff" stroke="#000000" points="95,-117.5 95,-136.5 182,-136.5 182,-117.5 95,-117.5"/>
<text text-anchor="middle" x="138.5" y="-124.5" font-family="Helvetica,sans-Serif" font-size="10.00" fill="#000000">eg_bi_linear_h</text>
</a>
</g>
</g>
<!-- Node1&#45;&gt;Node18 -->
<g id="edge24" class="edge">
<title>Node1&#45;&gt;Node18</title>
<path fill="none" stroke="#191970" d="M64.2429,-154.9316C80.0653,-148.98 98.4573,-142.0619 112.9788,-136.5997"/>
<polygon fill="#191970" stroke="#191970" points="62.9083,-151.6941 54.7808,-158.4907 65.3728,-158.2459 62.9083,-151.6941"/>
</g>
<!-- Node3 -->
<g id="node3" class="node">
<title>Node3</title>
<g id="a_node3"><a xlink:href="ritchie_8f90.xhtml#ae902e59848fdf2d044e2d5b862992cc5" target="_top" xlink:title="Subroutine Ritchie. ">
<polygon fill="#ffffff" stroke="#000000" points="283,-262.5 283,-281.5 330,-281.5 330,-262.5 283,-262.5"/>
<text text-anchor="middle" x="306.5" y="-269.5" font-family="Helvetica,sans-Serif" font-size="10.00" fill="#000000">ritchie</text>
</a>
</g>
</g>
<!-- Node2&#45;&gt;Node3 -->
<g id="edge2" class="edge">
<title>Node2&#45;&gt;Node3</title>
<path fill="none" stroke="#191970" d="M183.7025,-258.1122C215.587,-261.7182 257.0288,-266.405 282.6888,-269.3071"/>
<polygon fill="#191970" stroke="#191970" points="184.0483,-254.6291 173.7183,-256.983 183.2616,-261.5847 184.0483,-254.6291"/>
</g>
<!-- Node5 -->
<g id="node5" class="node">
<title>Node5</title>
<g id="a_node5"><a xlink:href="sl__moist__nonhydro__conserve_8f90.xhtml#a195479266dc50a7e71e2138310fd3469" target="_top" xlink:title="Subroutine SL_moist_nonhydro_conserve. ">
<polygon fill="#ffffff" stroke="#000000" points="630,-186.5 630,-205.5 788,-205.5 788,-186.5 630,-186.5"/>
<text text-anchor="middle" x="709" y="-193.5" font-family="Helvetica,sans-Serif" font-size="10.00" fill="#000000">sl_moist_nonhydro_conserve</text>
</a>
</g>
</g>
<!-- Node2&#45;&gt;Node5 -->
<g id="edge21" class="edge">
<title>Node2&#45;&gt;Node5</title>
<path fill="none" stroke="#191970" d="M183.6789,-245.7127C194.8772,-244.0355 206.8602,-242.35 218,-241 362.8884,-223.4407 532.5771,-209.31 629.7623,-201.8298"/>
<polygon fill="#191970" stroke="#191970" points="183.02,-242.2726 173.6622,-247.2407 184.0756,-249.1926 183.02,-242.2726"/>
</g>
<!-- Node11 -->
<g id="node11" class="node">
<title>Node11</title>
<g id="a_node11"><a xlink:href="sl__moist__nonhydro__conserve__mix_8f90.xhtml#a8fea5324561cd0085bdd77a3db00418e" target="_top" xlink:title="Subroutine SL_moist_nonhydro_conserve_mix. ">
<polygon fill="#ffffff" stroke="#000000" points="618,-338.5 618,-357.5 800,-357.5 800,-338.5 618,-338.5"/>
<text text-anchor="middle" x="709" y="-345.5" font-family="Helvetica,sans-Serif" font-size="10.00" fill="#000000">sl_moist_nonhydro_conserve_mix</text>
</a>
</g>
</g>
<!-- Node2&#45;&gt;Node11 -->
<g id="edge22" class="edge">
<title>Node2&#45;&gt;Node11</title>
<path fill="none" stroke="#191970" d="M163.4259,-267.5475C178.6842,-275.7748 198.8891,-285.4895 218,-291 353.6405,-330.1109 517.6989,-342.4938 617.6469,-346.3493"/>
<polygon fill="#191970" stroke="#191970" points="165.0621,-264.4528 154.6186,-262.668 161.6697,-270.5759 165.0621,-264.4528"/>
</g>
<!-- Node12 -->
<g id="node12" class="node">
<title>Node12</title>
<g id="a_node12"><a xlink:href="sl__thermo_8f90.xhtml#adf4851495d7846c5a9b0e1c12a57ce8f" target="_top" xlink:title="Subroutine SL_Thermo. ">
<polygon fill="#ffffff" stroke="#000000" points="676.5,-224.5 676.5,-243.5 741.5,-243.5 741.5,-224.5 676.5,-224.5"/>
<text text-anchor="middle" x="709" y="-231.5" font-family="Helvetica,sans-Serif" font-size="10.00" fill="#000000">sl_thermo</text>
</a>
</g>
</g>
<!-- Node2&#45;&gt;Node12 -->
<g id="edge23" class="edge">
<title>Node2&#45;&gt;Node12</title>
<path fill="none" stroke="#191970" d="M183.9896,-251.485C295.4395,-247.7733 580.0467,-238.2947 676.4815,-235.083"/>
<polygon fill="#191970" stroke="#191970" points="183.6347,-247.9948 173.7568,-251.8258 183.8678,-254.9909 183.6347,-247.9948"/>
</g>
<!-- Node15 -->
<g id="node15" class="node">
<title>Node15</title>
<g id="a_node15"><a xlink:href="sl__full__wind_8f90.xhtml#a739c13209ac7d57db72c07bbd5f4f7a7" target="_top" xlink:title="Subroutine SL_Full_Wind. ">
<polygon fill="#ffffff" stroke="#000000" points="858.5,-262.5 858.5,-281.5 932.5,-281.5 932.5,-262.5 858.5,-262.5"/>
<text text-anchor="middle" x="895.5" y="-269.5" font-family="Helvetica,sans-Serif" font-size="10.00" fill="#000000">sl_full_wind</text>
</a>
</g>
</g>
<!-- Node2&#45;&gt;Node15 -->
<g id="edge20" class="edge">
<title>Node2&#45;&gt;Node15</title>
<path fill="none" stroke="#191970" d="M152.8049,-270.4893C167.3642,-286.9717 191.5072,-310.8938 218,-323 380.6707,-397.3343 439.2931,-359.8441 618,-367 698.8241,-370.2364 725.2279,-397.8567 800,-367 842.8031,-349.3362 876.5238,-302.1665 889.6064,-281.6995"/>
<polygon fill="#191970" stroke="#191970" points="155.2617,-267.9769 146.1032,-262.6503 149.941,-272.5256 155.2617,-267.9769"/>
</g>
<!-- Node4 -->
<g id="node4" class="node">
<title>Node4</title>
<g id="a_node4"><a xlink:href="departure__point_8f90.xhtml#a297b14ecfc1ba82fa9e3828f168628ac" target="_top" xlink:title="Subroutine Departure_Point. ">
<polygon fill="#ffffff" stroke="#000000" points="459.5,-262.5 459.5,-281.5 553.5,-281.5 553.5,-262.5 459.5,-262.5"/>
<text text-anchor="middle" x="506.5" y="-269.5" font-family="Helvetica,sans-Serif" font-size="10.00" fill="#000000">departure_point</text>
</a>
</g>
</g>
<!-- Node3&#45;&gt;Node4 -->
<g id="edge3" class="edge">
<title>Node3&#45;&gt;Node4</title>
<path fill="none" stroke="#191970" d="M340.6091,-272C373.2566,-272 422.7894,-272 459.2334,-272"/>
<polygon fill="#191970" stroke="#191970" points="340.228,-268.5001 330.228,-272 340.228,-275.5001 340.228,-268.5001"/>
</g>
<!-- Node4&#45;&gt;Node5 -->
<g id="edge4" class="edge">
<title>Node4&#45;&gt;Node5</title>
<path fill="none" stroke="#191970" d="M530.8373,-257.1499C552.8769,-244.2959 586.6069,-226.0768 618,-215 628.6538,-211.2409 640.2852,-208.117 651.563,-205.5619"/>
<polygon fill="#191970" stroke="#191970" points="528.9705,-254.1877 522.1484,-262.2939 532.5366,-260.2113 528.9705,-254.1877"/>
</g>
<!-- Node4&#45;&gt;Node11 -->
<g id="edge10" class="edge">
<title>Node4&#45;&gt;Node11</title>
<path fill="none" stroke="#191970" d="M530.8373,-286.8501C552.8769,-299.7041 586.6069,-317.9232 618,-329 628.6538,-332.7591 640.2852,-335.883 651.563,-338.4381"/>
<polygon fill="#191970" stroke="#191970" points="532.5366,-283.7887 522.1484,-281.7061 528.9705,-289.8123 532.5366,-283.7887"/>
</g>
<!-- Node4&#45;&gt;Node12 -->
<g id="edge11" class="edge">
<title>Node4&#45;&gt;Node12</title>
<path fill="none" stroke="#191970" d="M563.715,-261.2634C600.1053,-254.4346 645.9209,-245.8371 676.2671,-240.1425"/>
<polygon fill="#191970" stroke="#191970" points="562.9046,-257.8543 553.7217,-263.1386 564.1957,-264.7342 562.9046,-257.8543"/>
</g>
<!-- Node14 -->
<g id="node14" class="node">
<title>Node14</title>
<g id="a_node14"><a xlink:href="sl__vector__u_8f90.xhtml#a5e399b856774cc15de601c340496c8f1" target="_top" xlink:title="Subroutine SL_Vector_u. ">
<polygon fill="#ffffff" stroke="#000000" points="673,-300.5 673,-319.5 745,-319.5 745,-300.5 673,-300.5"/>
<text text-anchor="middle" x="709" y="-307.5" font-family="Helvetica,sans-Serif" font-size="10.00" fill="#000000">sl_vector_u</text>
</a>
</g>
</g>
<!-- Node4&#45;&gt;Node14 -->
<g id="edge14" class="edge">
<title>Node4&#45;&gt;Node14</title>
<path fill="none" stroke="#191970" d="M563.815,-282.7554C598.8285,-289.3258 642.5383,-297.5282 672.8012,-303.2071"/>
<polygon fill="#191970" stroke="#191970" points="564.1957,-279.2658 553.7217,-280.8614 562.9046,-286.1457 564.1957,-279.2658"/>
</g>
<!-- Node17 -->
<g id="node17" class="node">
<title>Node17</title>
<g id="a_node17"><a xlink:href="sl__vector__v_8f90.xhtml#a4e6c465727d0bb4de3fb7f972ebe5891" target="_top" xlink:title="Subroutine SL_Vector_v. ">
<polygon fill="#ffffff" stroke="#000000" points="673,-262.5 673,-281.5 745,-281.5 745,-262.5 673,-262.5"/>
<text text-anchor="middle" x="709" y="-269.5" font-family="Helvetica,sans-Serif" font-size="10.00" fill="#000000">sl_vector_v</text>
</a>
</g>
</g>
<!-- Node4&#45;&gt;Node17 -->
<g id="edge18" class="edge">
<title>Node4&#45;&gt;Node17</title>
<path fill="none" stroke="#191970" d="M563.815,-272C598.8285,-272 642.5383,-272 672.8012,-272"/>
<polygon fill="#191970" stroke="#191970" points="563.7217,-268.5001 553.7217,-272 563.7217,-275.5001 563.7217,-268.5001"/>
</g>
<!-- Node6 -->
<g id="node6" class="node">
<title>Node6</title>
<g id="a_node6"><a xlink:href="ni__sl__moist_8f90.xhtml#a0e40166b48c1cdb3d5246a3f297e7fec" target="_top" xlink:title="Subroutine NI_SL_MOIST. ">
<polygon fill="#ffffff" stroke="#000000" points="999.5,-186.5 999.5,-205.5 1071.5,-205.5 1071.5,-186.5 999.5,-186.5"/>
<text text-anchor="middle" x="1035.5" y="-193.5" font-family="Helvetica,sans-Serif" font-size="10.00" fill="#000000">ni_sl_moist</text>
</a>
</g>
</g>
<!-- Node5&#45;&gt;Node6 -->
<g id="edge5" class="edge">
<title>Node5&#45;&gt;Node6</title>
<path fill="none" stroke="#191970" d="M798.0578,-196C864.2422,-196 951.0916,-196 999.2917,-196"/>
<polygon fill="#191970" stroke="#191970" points="798.0366,-192.5001 788.0365,-196 798.0365,-199.5001 798.0366,-192.5001"/>
</g>
<!-- Node7 -->
<g id="node7" class="node">
<title>Node7</title>
<g id="a_node7"><a xlink:href="atm__step_8f90.xhtml#ac0ee2467a1a9959b7065fdb8fd27bce4" target="_top" xlink:title="Perform a 1&#45;timestep integration of the Atmosphere Model. ">
<polygon fill="#ffffff" stroke="#000000" points="1116,-205.5 1116,-224.5 1178,-224.5 1178,-205.5 1116,-205.5"/>
<text text-anchor="middle" x="1147" y="-212.5" font-family="Helvetica,sans-Serif" font-size="10.00" fill="#000000">atm_step</text>
</a>
</g>
</g>
<!-- Node6&#45;&gt;Node7 -->
<g id="edge6" class="edge">
<title>Node6&#45;&gt;Node7</title>
<path fill="none" stroke="#191970" d="M1081.6308,-203.8609C1093.1548,-205.8246 1105.2442,-207.8847 1115.8484,-209.6917"/>
<polygon fill="#191970" stroke="#191970" points="1082.1467,-200.3984 1071.7009,-202.1688 1080.9708,-207.2989 1082.1467,-200.3984"/>
</g>
<!-- Node8 -->
<g id="node8" class="node">
<title>Node8</title>
<g id="a_node8"><a xlink:href="u__model_8f90.xhtml#ada0cd2ce4699433bf0f9adbd882c8eec" target="_top" xlink:title="Subroutine: U_MODEL &#45;!&gt; ">
<polygon fill="#ffffff" stroke="#000000" points="1222.5,-189.5 1222.5,-208.5 1281.5,-208.5 1281.5,-189.5 1222.5,-189.5"/>
<text text-anchor="middle" x="1252" y="-196.5" font-family="Helvetica,sans-Serif" font-size="10.00" fill="#000000">u_model</text>
</a>
</g>
</g>
<!-- Node7&#45;&gt;Node8 -->
<g id="edge7" class="edge">
<title>Node7&#45;&gt;Node8</title>
<path fill="none" stroke="#191970" d="M1188.3265,-208.7026C1199.6233,-206.9812 1211.6439,-205.1495 1222.1625,-203.5467"/>
<polygon fill="#191970" stroke="#191970" points="1187.5778,-205.2762 1178.2192,-210.2428 1188.6323,-212.1963 1187.5778,-205.2762"/>
</g>
<!-- Node9 -->
<g id="node9" class="node">
<title>Node9</title>
<g id="a_node9"><a xlink:href="um__shell_8f90.xhtml#a8c9bd25362824a5c301376ecb5ed5c27" target="_top" xlink:title="Subroutine: UM_SHELL !&gt; ">
<polygon fill="#ffffff" stroke="#000000" points="1326,-156.5 1326,-175.5 1387,-175.5 1387,-156.5 1326,-156.5"/>
<text text-anchor="middle" x="1356.5" y="-163.5" font-family="Helvetica,sans-Serif" font-size="10.00" fill="#000000">um_shell</text>
</a>
</g>
</g>
<!-- Node8&#45;&gt;Node9 -->
<g id="edge8" class="edge">
<title>Node8&#45;&gt;Node9</title>
<path fill="none" stroke="#191970" d="M1291.5318,-186.5163C1303.0875,-182.8671 1315.5269,-178.9389 1326.397,-175.5062"/>
<polygon fill="#191970" stroke="#191970" points="1290.1478,-183.2829 1281.666,-189.6318 1292.2558,-189.958 1290.1478,-183.2829"/>
</g>
<!-- Node10 -->
<g id="node10" class="node">
<title>Node10</title>
<g id="a_node10"><a xlink:href="um__main_8f90.xhtml#a8f2d13215621443a5313261c282f098b" target="_top" xlink:title="Code Owner: See Unified Model Code Owner&#39;s HTML page. ">
<polygon fill="#ffffff" stroke="#000000" points="1423,-156.5 1423,-175.5 1485,-175.5 1485,-156.5 1423,-156.5"/>
<text text-anchor="middle" x="1454" y="-163.5" font-family="Helvetica,sans-Serif" font-size="10.00" fill="#000000">um_main</text>
</a>
</g>
</g>
<!-- Node9&#45;&gt;Node10 -->
<g id="edge9" class="edge">
<title>Node9&#45;&gt;Node10</title>
<path fill="none" stroke="#191970" d="M1397.2756,-166C1405.8294,-166 1414.72,-166 1422.8551,-166"/>
<polygon fill="#191970" stroke="#191970" points="1397.0821,-162.5001 1387.0821,-166 1397.0821,-169.5001 1397.0821,-162.5001"/>
</g>
<!-- Node13 -->
<g id="node13" class="node">
<title>Node13</title>
<g id="a_node13"><a xlink:href="ni__sl__thermo_8f90.xhtml#a17ce9696a494a15c73ba0ce0df90e052" target="_top" xlink:title="Subroutine NI_SL_Thermo. ">
<polygon fill="#ffffff" stroke="#000000" points="855.5,-224.5 855.5,-243.5 935.5,-243.5 935.5,-224.5 855.5,-224.5"/>
<text text-anchor="middle" x="895.5" y="-231.5" font-family="Helvetica,sans-Serif" font-size="10.00" fill="#000000">ni_sl_thermo</text>
</a>
</g>
</g>
<!-- Node12&#45;&gt;Node13 -->
<g id="edge12" class="edge">
<title>Node12&#45;&gt;Node13</title>
<path fill="none" stroke="#191970" d="M752.0394,-234C783.1973,-234 825.0123,-234 855.4562,-234"/>
<polygon fill="#191970" stroke="#191970" points="751.9132,-230.5001 741.9131,-234 751.9131,-237.5001 751.9132,-230.5001"/>
</g>
<!-- Node13&#45;&gt;Node7 -->
<g id="edge13" class="edge">
<title>Node13&#45;&gt;Node7</title>
<path fill="none" stroke="#191970" d="M945.7195,-230.2061C996.4296,-226.3751 1073.1726,-220.5774 1115.7533,-217.3606"/>
<polygon fill="#191970" stroke="#191970" points="945.3369,-226.7249 935.629,-230.9684 945.8643,-233.705 945.3369,-226.7249"/>
</g>
<!-- Node14&#45;&gt;Node15 -->
<g id="edge15" class="edge">
<title>Node14&#45;&gt;Node15</title>
<path fill="none" stroke="#191970" d="M755.3359,-300.5589C787.0794,-294.0911 828.6309,-285.6248 858.2325,-279.5934"/>
<polygon fill="#191970" stroke="#191970" points="754.5017,-297.1569 745.4018,-302.583 755.8993,-304.016 754.5017,-297.1569"/>
</g>
<!-- Node16 -->
<g id="node16" class="node">
<title>Node16</title>
<g id="a_node16"><a xlink:href="ni__sl__full__wind_8f90.xhtml#a282239161173ea1930089c837257d8e2" target="_top" xlink:title="Subroutine NI_SL_Full_Wind. ">
<polygon fill="#ffffff" stroke="#000000" points="991,-262.5 991,-281.5 1080,-281.5 1080,-262.5 991,-262.5"/>
<text text-anchor="middle" x="1035.5" y="-269.5" font-family="Helvetica,sans-Serif" font-size="10.00" fill="#000000">ni_sl_full_wind</text>
</a>
</g>
</g>
<!-- Node15&#45;&gt;Node16 -->
<g id="edge16" class="edge">
<title>Node15&#45;&gt;Node16</title>
<path fill="none" stroke="#191970" d="M943.068,-272C958.5568,-272 975.684,-272 990.9438,-272"/>
<polygon fill="#191970" stroke="#191970" points="942.6499,-268.5001 932.6499,-272 942.6498,-275.5001 942.6499,-268.5001"/>
</g>
<!-- Node16&#45;&gt;Node7 -->
<g id="edge17" class="edge">
<title>Node16&#45;&gt;Node7</title>
<path fill="none" stroke="#191970" d="M1063.2337,-257.8223C1083.5176,-247.4529 1110.4873,-233.6657 1128.2765,-224.5716"/>
<polygon fill="#191970" stroke="#191970" points="1061.4734,-254.7912 1054.1626,-262.4595 1064.6597,-261.024 1061.4734,-254.7912"/>
</g>
<!-- Node17&#45;&gt;Node15 -->
<g id="edge19" class="edge">
<title>Node17&#45;&gt;Node15</title>
<path fill="none" stroke="#191970" d="M755.7487,-272C787.4389,-272 828.759,-272 858.2325,-272"/>
<polygon fill="#191970" stroke="#191970" points="755.4018,-268.5001 745.4018,-272 755.4018,-275.5001 755.4018,-268.5001"/>
</g>
<!-- Node19 -->
<g id="node19" class="node">
<title>Node19</title>
<g id="a_node19"><a xlink:href="namespaceeg__adjust__vert__bound__mod__old.xhtml#a27214f9293490fc87a9a8f70b7db5fad" target="_top" xlink:title="eg_adjust_vert_bound\l_mod_old::eg_adjust_vert_bound">
<polygon fill="#ffffff" stroke="#000000" points="218,-63 218,-93 395,-93 395,-63 218,-63"/>
<text text-anchor="start" x="226" y="-81" font-family="Helvetica,sans-Serif" font-size="10.00" fill="#000000">eg_adjust_vert_bound</text>
<text text-anchor="middle" x="306.5" y="-70" font-family="Helvetica,sans-Serif" font-size="10.00" fill="#000000">_mod_old::eg_adjust_vert_bound</text>
</a>
</g>
</g>
<!-- Node18&#45;&gt;Node19 -->
<g id="edge25" class="edge">
<title>Node18&#45;&gt;Node19</title>
<path fill="none" stroke="#191970" d="M177.7555,-114.3146C190.5539,-110.2702 204.8519,-105.8485 218,-102 228.2366,-99.0038 239.1769,-95.9319 249.7515,-93.0293"/>
<polygon fill="#191970" stroke="#191970" points="176.3332,-111.0941 167.8635,-117.4591 178.4539,-117.7651 176.3332,-111.0941"/>
</g>
<!-- Node20 -->
<g id="node20" class="node">
<title>Node20</title>
<g id="a_node20"><a xlink:href="namespaceeg__adjust__vert__bound__mod.xhtml#a6433fe526f6d77e807ab060f77fc029f" target="_top" xlink:title="eg_adjust_vert_bound\l_mod::eg_adjust_vert_bound">
<polygon fill="#ffffff" stroke="#000000" points="228,-112 228,-142 385,-142 385,-112 228,-112"/>
<text text-anchor="start" x="236" y="-130" font-family="Helvetica,sans-Serif" font-size="10.00" fill="#000000">eg_adjust_vert_bound</text>
<text text-anchor="middle" x="306.5" y="-119" font-family="Helvetica,sans-Serif" font-size="10.00" fill="#000000">_mod::eg_adjust_vert_bound</text>
</a>
</g>
</g>
<!-- Node18&#45;&gt;Node20 -->
<g id="edge26" class="edge">
<title>Node18&#45;&gt;Node20</title>
<path fill="none" stroke="#191970" d="M192.3393,-127C203.6676,-127 215.8397,-127 227.8647,-127"/>
<polygon fill="#191970" stroke="#191970" points="192.2015,-123.5001 182.2015,-127 192.2014,-130.5001 192.2015,-123.5001"/>
</g>
<!-- Node21 -->
<g id="node21" class="node">
<title>Node21</title>
<g id="a_node21"><a xlink:href="namespacedeparture__point__eta__mod.xhtml#a84e8464c7a77a0d1b75b438d154dc1ba" target="_top" xlink:title="departure_point_eta\l_mod::departure_point_eta">
<polygon fill="#ffffff" stroke="#000000" points="432.5,-40 432.5,-70 580.5,-70 580.5,-40 432.5,-40"/>
<text text-anchor="start" x="440.5" y="-58" font-family="Helvetica,sans-Serif" font-size="10.00" fill="#000000">departure_point_eta</text>
<text text-anchor="middle" x="506.5" y="-47" font-family="Helvetica,sans-Serif" font-size="10.00" fill="#000000">_mod::departure_point_eta</text>
</a>
</g>
</g>
<!-- Node20&#45;&gt;Node21 -->
<g id="edge27" class="edge">
<title>Node20&#45;&gt;Node21</title>
<path fill="none" stroke="#191970" d="M378.3829,-108.6457C384.0792,-106.6025 389.6812,-104.3875 395,-102 412.3216,-94.2247 413.8069,-87.0554 431,-79 437.9746,-75.7322 445.5107,-72.7456 453.0287,-70.0736"/>
<polygon fill="#191970" stroke="#191970" points="377.083,-105.3908 368.7408,-111.9221 379.3352,-112.0186 377.083,-105.3908"/>
</g>
<!-- Node25 -->
<g id="node25" class="node">
<title>Node25</title>
<g id="a_node25"><a xlink:href="namespaceeg__sl__wind__u__mod.xhtml#ace7ba5810940b39501885fe546334902" target="_top" xlink:title="eg_sl_wind_u_mod::eg\l_sl_wind_u">
<polygon fill="#ffffff" stroke="#000000" points="645.5,-137 645.5,-167 772.5,-167 772.5,-137 645.5,-137"/>
<text text-anchor="start" x="653.5" y="-155" font-family="Helvetica,sans-Serif" font-size="10.00" fill="#000000">eg_sl_wind_u_mod::eg</text>
<text text-anchor="middle" x="709" y="-144" font-family="Helvetica,sans-Serif" font-size="10.00" fill="#000000">_sl_wind_u</text>
</a>
</g>
</g>
<!-- Node20&#45;&gt;Node25 -->
<g id="edge44" class="edge">
<title>Node20&#45;&gt;Node25</title>
<path fill="none" stroke="#191970" d="M395.055,-132.5003C470.704,-137.199 577.7044,-143.845 645.2018,-148.0374"/>
<polygon fill="#191970" stroke="#191970" points="395.2593,-129.0063 385.0616,-131.8796 394.8253,-135.9929 395.2593,-129.0063"/>
</g>
<!-- Node29 -->
<g id="node29" class="node">
<title>Node29</title>
<g id="a_node29"><a xlink:href="namespaceeg__dep__pnt__cart__eta__mod.xhtml#a4155c2bd574ad184192fb41930bcea16" target="_top" xlink:title="eg_dep_pnt_cart_eta\l_mod::eg_dep_pnt_cart_eta">
<polygon fill="#ffffff" stroke="#000000" points="431,-89 431,-119 582,-119 582,-89 431,-89"/>
<text text-anchor="start" x="439" y="-107" font-family="Helvetica,sans-Serif" font-size="10.00" fill="#000000">eg_dep_pnt_cart_eta</text>
<text text-anchor="middle" x="506.5" y="-96" font-family="Helvetica,sans-Serif" font-size="10.00" fill="#000000">_mod::eg_dep_pnt_cart_eta</text>
</a>
</g>
</g>
<!-- Node20&#45;&gt;Node29 -->
<g id="edge39" class="edge">
<title>Node20&#45;&gt;Node29</title>
<path fill="none" stroke="#191970" d="M395.523,-116.7624C407.2826,-115.41 419.2471,-114.0341 430.7555,-112.7106"/>
<polygon fill="#191970" stroke="#191970" points="394.7928,-113.3232 385.2582,-117.9428 395.5926,-120.2773 394.7928,-113.3232"/>
</g>
<!-- Node22 -->
<g id="node22" class="node">
<title>Node22</title>
<g id="a_node22"><a xlink:href="namespaceeg__sl__rho__mod.xhtml#a89794fd44e2f91d931e731f97d1ec21a" target="_top" xlink:title="eg_sl_rho_mod::eg_sl_rho">
<polygon fill="#ffffff" stroke="#000000" points="637.5,-.5 637.5,-19.5 780.5,-19.5 780.5,-.5 637.5,-.5"/>
<text text-anchor="middle" x="709" y="-7.5" font-family="Helvetica,sans-Serif" font-size="10.00" fill="#000000">eg_sl_rho_mod::eg_sl_rho</text>
</a>
</g>
</g>
<!-- Node21&#45;&gt;Node22 -->
<g id="edge28" class="edge">
<title>Node21&#45;&gt;Node22</title>
<path fill="none" stroke="#191970" d="M579.9045,-37.6276C592.5966,-34.697 605.6716,-31.724 618,-29 632.3409,-25.8313 647.9848,-22.5145 662.1934,-19.5554"/>
<polygon fill="#191970" stroke="#191970" points="578.7806,-34.2952 569.8294,-39.9632 580.3615,-41.1144 578.7806,-34.2952"/>
</g>
<!-- Node21&#45;&gt;Node25 -->
<g id="edge32" class="edge">
<title>Node21&#45;&gt;Node25</title>
<path fill="none" stroke="#191970" d="M575.404,-74.7719C577.6832,-76.0942 579.8904,-77.5018 582,-79 603.7415,-94.4408 595.9565,-111.9935 618,-127 626.2615,-132.6242 635.7527,-136.9876 645.4185,-140.3716"/>
<polygon fill="#191970" stroke="#191970" points="576.8032,-71.5555 566.311,-70.084 573.5955,-77.7773 576.8032,-71.5555"/>
</g>
<!-- Node27 -->
<g id="node27" class="node">
<title>Node27</title>
<g id="a_node27"><a xlink:href="namespaceeg__sl__wind__v__mod.xhtml#ad11ec470eb1a3e23bab3c91386117836" target="_top" xlink:title="eg_sl_wind_v_mod::eg\l_sl_wind_v">
<polygon fill="#ffffff" stroke="#000000" points="645.5,-39 645.5,-69 772.5,-69 772.5,-39 645.5,-39"/>
<text text-anchor="start" x="653.5" y="-57" font-family="Helvetica,sans-Serif" font-size="10.00" fill="#000000">eg_sl_wind_v_mod::eg</text>
<text text-anchor="middle" x="709" y="-46" font-family="Helvetica,sans-Serif" font-size="10.00" fill="#000000">_sl_wind_v</text>
</a>
</g>
</g>
<!-- Node21&#45;&gt;Node27 -->
<g id="edge35" class="edge">
<title>Node21&#45;&gt;Node27</title>
<path fill="none" stroke="#191970" d="M590.8103,-54.5837C609.0809,-54.4934 628.1088,-54.3995 645.4226,-54.314"/>
<polygon fill="#191970" stroke="#191970" points="590.7362,-51.0839 580.7537,-54.6333 590.7709,-58.0838 590.7362,-51.0839"/>
</g>
<!-- Node28 -->
<g id="node28" class="node">
<title>Node28</title>
<g id="a_node28"><a xlink:href="namespaceeg__sl__wind__w__mod.xhtml#ad0bc776e2180e669a7b22fc37c8ab5f2" target="_top" xlink:title="eg_sl_wind_w_mod::eg\l_sl_wind_w">
<polygon fill="#ffffff" stroke="#000000" points="644.5,-88 644.5,-118 773.5,-118 773.5,-88 644.5,-88"/>
<text text-anchor="start" x="652.5" y="-106" font-family="Helvetica,sans-Serif" font-size="10.00" fill="#000000">eg_sl_wind_w_mod::eg</text>
<text text-anchor="middle" x="709" y="-95" font-family="Helvetica,sans-Serif" font-size="10.00" fill="#000000">_sl_wind_w</text>
</a>
</g>
</g>
<!-- Node21&#45;&gt;Node28 -->
<g id="edge37" class="edge">
<title>Node21&#45;&gt;Node28</title>
<path fill="none" stroke="#191970" d="M579.7901,-72.3725C601.3777,-77.4895 624.8052,-83.0427 645.7087,-87.9976"/>
<polygon fill="#191970" stroke="#191970" points="580.5543,-68.9567 570.0167,-70.0558 578.9398,-75.768 580.5543,-68.9567"/>
</g>
<!-- Node23 -->
<g id="node23" class="node">
<title>Node23</title>
<g id="a_node23"><a xlink:href="atm__step__4_a_8f90.xhtml#a2319aa4963e90c64cd78bdcd5f481095" target="_top" xlink:title="Perform a 1&#45;timestep integration of the Atmosphere Model. ">
<polygon fill="#ffffff" stroke="#000000" points="995.5,-93.5 995.5,-112.5 1075.5,-112.5 1075.5,-93.5 995.5,-93.5"/>
<text text-anchor="middle" x="1035.5" y="-100.5" font-family="Helvetica,sans-Serif" font-size="10.00" fill="#000000">atm_step_4a</text>
</a>
</g>
</g>
<!-- Node22&#45;&gt;Node23 -->
<g id="edge29" class="edge">
<title>Node22&#45;&gt;Node23</title>
<path fill="none" stroke="#191970" d="M769.0828,-21.6687C779.4351,-23.9289 790.0589,-26.4071 800,-29 876.3029,-48.9021 964.5801,-78.4234 1008.2003,-93.4549"/>
<polygon fill="#191970" stroke="#191970" points="769.7823,-18.2392 759.2717,-19.5718 768.3193,-25.0846 769.7823,-18.2392"/>
</g>
<!-- Node24 -->
<g id="node24" class="node">
<title>Node24</title>
<g id="a_node24"><a xlink:href="u__model__4_a_8f90.xhtml#afa05064dab5eba198b461d0928767c7e" target="_top" xlink:title="LL Subroutine: U_MODEL_4A (ENDGAME VERSION) !&gt;LL. ">
<polygon fill="#ffffff" stroke="#000000" points="1214,-137.5 1214,-156.5 1290,-156.5 1290,-137.5 1214,-137.5"/>
<text text-anchor="middle" x="1252" y="-144.5" font-family="Helvetica,sans-Serif" font-size="10.00" fill="#000000">u_model_4a</text>
</a>
</g>
</g>
<!-- Node23&#45;&gt;Node24 -->
<g id="edge30" class="edge">
<title>Node23&#45;&gt;Node24</title>
<path fill="none" stroke="#191970" d="M1085.8223,-113.2272C1124.8857,-121.1661 1178.2155,-132.0045 1213.8168,-139.2399"/>
<polygon fill="#191970" stroke="#191970" points="1086.2114,-109.7348 1075.7146,-111.1729 1084.8172,-116.5945 1086.2114,-109.7348"/>
</g>
<!-- Node24&#45;&gt;Node9 -->
<g id="edge31" class="edge">
<title>Node24&#45;&gt;Node9</title>
<path fill="none" stroke="#191970" d="M1299.8728,-155.7041C1308.7087,-157.3107 1317.7128,-158.9478 1325.8647,-160.43"/>
<polygon fill="#191970" stroke="#191970" points="1300.4873,-152.2586 1290.0225,-153.9132 1299.2351,-159.1457 1300.4873,-152.2586"/>
</g>
<!-- Node26 -->
<g id="node26" class="node">
<title>Node26</title>
<g id="a_node26"><a xlink:href="namespaceeg__sl__full__wind__mod.xhtml#a4ff349303540ec9ebd268eb6871c2485" target="_top" xlink:title="eg_sl_full_wind_mod\l::eg_sl_full_wind">
<polygon fill="#ffffff" stroke="#000000" points="836,-88 836,-118 955,-118 955,-88 836,-88"/>
<text text-anchor="start" x="844" y="-106" font-family="Helvetica,sans-Serif" font-size="10.00" fill="#000000">eg_sl_full_wind_mod</text>
<text text-anchor="middle" x="895.5" y="-95" font-family="Helvetica,sans-Serif" font-size="10.00" fill="#000000">::eg_sl_full_wind</text>
</a>
</g>
</g>
<!-- Node25&#45;&gt;Node26 -->
<g id="edge33" class="edge">
<title>Node25&#45;&gt;Node26</title>
<path fill="none" stroke="#191970" d="M776.0748,-134.3771C796.4788,-129.0163 818.7021,-123.1775 838.3846,-118.0062"/>
<polygon fill="#191970" stroke="#191970" points="775.0059,-131.0391 766.2236,-136.9654 776.7848,-137.8093 775.0059,-131.0391"/>
</g>
<!-- Node26&#45;&gt;Node23 -->
<g id="edge34" class="edge">
<title>Node26&#45;&gt;Node23</title>
<path fill="none" stroke="#191970" d="M965.4884,-103C975.7307,-103 985.9733,-103 995.3391,-103"/>
<polygon fill="#191970" stroke="#191970" points="965.2787,-99.5001 955.2787,-103 965.2787,-106.5001 965.2787,-99.5001"/>
</g>
<!-- Node27&#45;&gt;Node26 -->
<g id="edge36" class="edge">
<title>Node27&#45;&gt;Node26</title>
<path fill="none" stroke="#191970" d="M776.0748,-71.6229C796.4788,-76.9837 818.7021,-82.8225 838.3846,-87.9938"/>
<polygon fill="#191970" stroke="#191970" points="776.7848,-68.1907 766.2236,-69.0346 775.0059,-74.9609 776.7848,-68.1907"/>
</g>
<!-- Node28&#45;&gt;Node26 -->
<g id="edge38" class="edge">
<title>Node28&#45;&gt;Node26</title>
<path fill="none" stroke="#191970" d="M783.7878,-103C801.1186,-103 819.3357,-103 835.9133,-103"/>
<polygon fill="#191970" stroke="#191970" points="783.7053,-99.5001 773.7052,-103 783.7052,-106.5001 783.7053,-99.5001"/>
</g>
<!-- Node29&#45;&gt;Node22 -->
<g id="edge40" class="edge">
<title>Node29&#45;&gt;Node22</title>
<path fill="none" stroke="#191970" d="M574.0053,-84.1901C576.7859,-82.5872 579.4661,-80.8602 582,-79 604.0734,-62.7952 595.0399,-43.9218 618,-29 623.9543,-25.1303 630.5501,-22.0295 637.3909,-19.5477"/>
<polygon fill="#191970" stroke="#191970" points="572.136,-81.2155 564.8398,-88.8977 575.3342,-87.4422 572.136,-81.2155"/>
</g>
<!-- Node29&#45;&gt;Node25 -->
<g id="edge41" class="edge">
<title>Node29&#45;&gt;Node25</title>
<path fill="none" stroke="#191970" d="M579.7901,-121.3725C601.3777,-126.4895 624.8052,-132.0427 645.7087,-136.9976"/>
<polygon fill="#191970" stroke="#191970" points="580.5543,-117.9567 570.0167,-119.0558 578.9398,-124.768 580.5543,-117.9567"/>
</g>
<!-- Node29&#45;&gt;Node27 -->
<g id="edge42" class="edge">
<title>Node29&#45;&gt;Node27</title>
<path fill="none" stroke="#191970" d="M577.0007,-86.5924C600.1115,-80.8861 625.5837,-74.5966 647.9365,-69.0774"/>
<polygon fill="#191970" stroke="#191970" points="576.1261,-83.2032 567.2567,-88.9984 577.8041,-89.9991 576.1261,-83.2032"/>
</g>
<!-- Node29&#45;&gt;Node28 -->
<g id="edge43" class="edge">
<title>Node29&#45;&gt;Node28</title>
<path fill="none" stroke="#191970" d="M592.3586,-103.576C609.776,-103.49 627.8155,-103.4009 644.3503,-103.3193"/>
<polygon fill="#191970" stroke="#191970" points="592.1741,-100.0768 582.1915,-103.6262 592.2087,-107.0767 592.1741,-100.0768"/>
</g>
</g>
</svg>
