<?xml version="1.0" encoding="UTF-8" standalone="no"?>
<!DOCTYPE svg PUBLIC "-//W3C//DTD SVG 1.1//EN"
 "http://www.w3.org/Graphics/SVG/1.1/DTD/svg11.dtd">
<!-- Generated by graphviz version 2.40.1 (20161225.0304)
 -->
<!-- Title: box_bnd Pages: 1 -->
<svg width="598pt" height="39pt"
 viewBox="0.00 0.00 598.00 39.00" xmlns="http://www.w3.org/2000/svg" xmlns:xlink="http://www.w3.org/1999/xlink">
<g id="graph0" class="graph" transform="scale(1 1) rotate(0) translate(4 35)">
<title>box_bnd</title>
<polygon fill="#ffffff" stroke="transparent" points="-4,4 -4,-35 594,-35 594,4 -4,4"/>
<!-- Node5 -->
<g id="node1" class="node">
<title>Node5</title>
<polygon fill="#bfbfbf" stroke="#000000" points="0,-6 0,-25 58,-25 58,-6 0,-6"/>
<text text-anchor="middle" x="29" y="-13" font-family="Helvetica,sans-Serif" font-size="10.00" fill="#000000">box_bnd</text>
</g>
<!-- Node6 -->
<g id="node2" class="node">
<title>Node6</title>
<g id="a_node2"><a xlink:href="h__int__init__aw_8f90.xhtml#adbab5503c455039c6422cc8a31a9b075" target="_top" xlink:title="Initialises arrays used in area weighed horizontal interpolation. ">
<polygon fill="#ffffff" stroke="#000000" points="94,-6 94,-25 175,-25 175,-6 94,-6"/>
<text text-anchor="middle" x="134.5" y="-13" font-family="Helvetica,sans-Serif" font-size="10.00" fill="#000000">h_int_init_aw</text>
</a>
</g>
</g>
<!-- Node5&#45;&gt;Node6 -->
<g id="edge1" class="edge">
<title>Node5&#45;&gt;Node6</title>
<path fill="none" stroke="#191970" d="M68.2735,-15.5C76.5527,-15.5 85.3066,-15.5 93.6425,-15.5"/>
<polygon fill="#191970" stroke="#191970" points="68.1076,-12.0001 58.1076,-15.5 68.1076,-19.0001 68.1076,-12.0001"/>
</g>
<!-- Node7 -->
<g id="node3" class="node">
<title>Node7</title>
<g id="a_node3"><a xlink:href="namespacercf__init__h__interp__mod.xhtml#a1ccd4296df1c0250f7250cef1fedad37" target="_top" xlink:title="Subroutine Rcf_init_h_interp &#45; initialises horizontal interp. weights. ">
<polygon fill="#ffffff" stroke="#000000" points="211,-.5 211,-30.5 333,-30.5 333,-.5 211,-.5"/>
<text text-anchor="start" x="219" y="-18.5" font-family="Helvetica,sans-Serif" font-size="10.00" fill="#000000">rcf_init_h_interp_mod</text>
<text text-anchor="middle" x="272" y="-7.5" font-family="Helvetica,sans-Serif" font-size="10.00" fill="#000000">::rcf_init_h_interp</text>
</a>
</g>
</g>
<!-- Node6&#45;&gt;Node7 -->
<g id="edge2" class="edge">
<title>Node6&#45;&gt;Node7</title>
<path fill="none" stroke="#191970" d="M185.0344,-15.5C193.4418,-15.5 202.2408,-15.5 210.8772,-15.5"/>
<polygon fill="#191970" stroke="#191970" points="185.0109,-12.0001 175.0108,-15.5 185.0108,-19.0001 185.0109,-12.0001"/>
</g>
<!-- Node8 -->
<g id="node4" class="node">
<title>Node8</title>
<g id="a_node4"><a xlink:href="namespacercf__control__mod.xhtml#a3ac6d1c6311ded848ddd750726da301a" target="_top" xlink:title="Subroutine Rcf_Control &#45; main control routine. ">
<polygon fill="#ffffff" stroke="#000000" points="369,-.5 369,-30.5 483,-30.5 483,-.5 369,-.5"/>
<text text-anchor="start" x="377" y="-18.5" font-family="Helvetica,sans-Serif" font-size="10.00" fill="#000000">rcf_control_mod::rcf</text>
<text text-anchor="middle" x="426" y="-7.5" font-family="Helvetica,sans-Serif" font-size="10.00" fill="#000000">_control</text>
</a>
</g>
</g>
<!-- Node7&#45;&gt;Node8 -->
<g id="edge3" class="edge">
<title>Node7&#45;&gt;Node8</title>
<path fill="none" stroke="#191970" d="M343.3104,-15.5C351.8906,-15.5 360.5654,-15.5 368.9057,-15.5"/>
<polygon fill="#191970" stroke="#191970" points="343.3074,-12.0001 333.3074,-15.5 343.3073,-19.0001 343.3074,-12.0001"/>
</g>
<!-- Node9 -->
<g id="node5" class="node">
<title>Node9</title>
<g id="a_node5"><a xlink:href="reconfigure_8f90.xhtml#a55389899cfceedbb4b0f908c73988c0c" target="_top" xlink:title="Top level program for reconfiguration. ">
<polygon fill="#ffffff" stroke="#000000" points="519,-6 519,-25 590,-25 590,-6 519,-6"/>
<text text-anchor="middle" x="554.5" y="-13" font-family="Helvetica,sans-Serif" font-size="10.00" fill="#000000">reconfigure</text>
</a>
</g>
</g>
<!-- Node8&#45;&gt;Node9 -->
<g id="edge4" class="edge">
<title>Node8&#45;&gt;Node9</title>
<path fill="none" stroke="#191970" d="M493.159,-15.5C502.0636,-15.5 510.8936,-15.5 518.9628,-15.5"/>
<polygon fill="#191970" stroke="#191970" points="493.1103,-12.0001 483.1103,-15.5 493.1103,-19.0001 493.1103,-12.0001"/>
</g>
</g>
</svg>
