<?xml version="1.0" encoding="UTF-8" standalone="no"?>
<!DOCTYPE svg PUBLIC "-//W3C//DTD SVG 1.1//EN"
 "http://www.w3.org/Graphics/SVG/1.1/DTD/svg11.dtd">
<!-- Generated by graphviz version 2.40.1 (20161225.0304)
 -->
<!-- Title: calc_pv Pages: 1 -->
<svg width="903pt" height="142pt"
 viewBox="0.00 0.00 903.00 142.00" xmlns="http://www.w3.org/2000/svg" xmlns:xlink="http://www.w3.org/1999/xlink">
<g id="graph0" class="graph" transform="scale(1 1) rotate(0) translate(4 138)">
<title>calc_pv</title>
<polygon fill="#ffffff" stroke="transparent" points="-4,4 -4,-138 899,-138 899,4 -4,4"/>
<!-- Node1 -->
<g id="node1" class="node">
<title>Node1</title>
<polygon fill="#bfbfbf" stroke="#000000" points="0,-76.5 0,-95.5 53,-95.5 53,-76.5 0,-76.5"/>
<text text-anchor="middle" x="26.5" y="-83.5" font-family="Helvetica,sans-Serif" font-size="10.00" fill="#000000">calc_pv</text>
</g>
<!-- Node2 -->
<g id="node2" class="node">
<title>Node2</title>
<g id="a_node2"><a xlink:href="calc__pv__at__theta_8f90.xhtml#a72b9c8bbd9e46137dd8a88fca6ad5bab" target="_top" xlink:title="Calculate PV at all theta points. ">
<polygon fill="#ffffff" stroke="#000000" points="89,-95.5 89,-114.5 188,-114.5 188,-95.5 89,-95.5"/>
<text text-anchor="middle" x="138.5" y="-102.5" font-family="Helvetica,sans-Serif" font-size="10.00" fill="#000000">calc_pv_at_theta</text>
</a>
</g>
</g>
<!-- Node1&#45;&gt;Node2 -->
<g id="edge1" class="edge">
<title>Node1&#45;&gt;Node2</title>
<path fill="none" stroke="#191970" d="M63.0764,-92.2049C71.3188,-93.6032 80.2021,-95.1102 88.8784,-96.5821"/>
<polygon fill="#191970" stroke="#191970" points="63.487,-88.7246 53.0424,-90.5027 62.3162,-95.626 63.487,-88.7246"/>
</g>
<!-- Node10 -->
<g id="node10" class="node">
<title>Node10</title>
<g id="a_node10"><a xlink:href="dyn__diag_8f90.xhtml#a5d7ee040db4855910fa0e51e1675dfdc" target="_top" xlink:title="Calculate various diagnostics related to dynamics variables. Calculate various diagnostics related to...">
<polygon fill="#ffffff" stroke="#000000" points="224,-57.5 224,-76.5 285,-76.5 285,-57.5 224,-57.5"/>
<text text-anchor="middle" x="254.5" y="-64.5" font-family="Helvetica,sans-Serif" font-size="10.00" fill="#000000">dyn_diag</text>
</a>
</g>
</g>
<!-- Node1&#45;&gt;Node10 -->
<g id="edge20" class="edge">
<title>Node1&#45;&gt;Node10</title>
<path fill="none" stroke="#191970" d="M63.2068,-82.9411C107.7456,-79.2295 182.0367,-73.0386 223.7194,-69.565"/>
<polygon fill="#191970" stroke="#191970" points="62.7755,-79.4648 53.1007,-83.7833 63.3569,-86.4406 62.7755,-79.4648"/>
</g>
<!-- Node3 -->
<g id="node3" class="node">
<title>Node3</title>
<g id="a_node3"><a xlink:href="iau_8f90.xhtml#a0f8a69ad9f632c479e55cb582efcb452" target="_top" xlink:title="Main routine for IAU scheme. ">
<polygon fill="#ffffff" stroke="#000000" points="334.5,-95.5 334.5,-114.5 366.5,-114.5 366.5,-95.5 334.5,-95.5"/>
<text text-anchor="middle" x="350.5" y="-102.5" font-family="Helvetica,sans-Serif" font-size="10.00" fill="#000000">iau</text>
</a>
</g>
</g>
<!-- Node2&#45;&gt;Node3 -->
<g id="edge2" class="edge">
<title>Node2&#45;&gt;Node3</title>
<path fill="none" stroke="#191970" d="M198.4607,-105C244.8579,-105 305.8613,-105 334.4338,-105"/>
<polygon fill="#191970" stroke="#191970" points="198.2046,-101.5001 188.2046,-105 198.2045,-108.5001 198.2046,-101.5001"/>
</g>
<!-- Node2&#45;&gt;Node10 -->
<g id="edge10" class="edge">
<title>Node2&#45;&gt;Node10</title>
<path fill="none" stroke="#191970" d="M177.6528,-92.1741C193.2176,-87.0753 210.8141,-81.3109 225.2377,-76.5859"/>
<polygon fill="#191970" stroke="#191970" points="176.1852,-88.9718 167.7717,-95.411 178.3644,-95.6239 176.1852,-88.9718"/>
</g>
<!-- Node4 -->
<g id="node4" class="node">
<title>Node4</title>
<g id="a_node4"><a xlink:href="atm__step_8f90.xhtml#ac0ee2467a1a9959b7065fdb8fd27bce4" target="_top" xlink:title="Perform a 1&#45;timestep integration of the Atmosphere Model. ">
<polygon fill="#ffffff" stroke="#000000" points="425,-114.5 425,-133.5 487,-133.5 487,-114.5 425,-114.5"/>
<text text-anchor="middle" x="456" y="-121.5" font-family="Helvetica,sans-Serif" font-size="10.00" fill="#000000">atm_step</text>
</a>
</g>
</g>
<!-- Node3&#45;&gt;Node4 -->
<g id="edge3" class="edge">
<title>Node3&#45;&gt;Node4</title>
<path fill="none" stroke="#191970" d="M376.4331,-109.6704C391.0887,-112.3098 409.5065,-115.6268 424.9305,-118.4045"/>
<polygon fill="#191970" stroke="#191970" points="376.9852,-106.2136 366.5232,-107.8857 375.7445,-113.1028 376.9852,-106.2136"/>
</g>
<!-- Node8 -->
<g id="node8" class="node">
<title>Node8</title>
<g id="a_node8"><a xlink:href="atm__step__4_a_8f90.xhtml#a2319aa4963e90c64cd78bdcd5f481095" target="_top" xlink:title="Perform a 1&#45;timestep integration of the Atmosphere Model. ">
<polygon fill="#ffffff" stroke="#000000" points="416,-76.5 416,-95.5 496,-95.5 496,-76.5 416,-76.5"/>
<text text-anchor="middle" x="456" y="-83.5" font-family="Helvetica,sans-Serif" font-size="10.00" fill="#000000">atm_step_4a</text>
</a>
</g>
</g>
<!-- Node3&#45;&gt;Node8 -->
<g id="edge7" class="edge">
<title>Node3&#45;&gt;Node8</title>
<path fill="none" stroke="#191970" d="M376.5606,-100.3066C388.3369,-98.1858 402.5227,-95.631 415.6281,-93.2708"/>
<polygon fill="#191970" stroke="#191970" points="375.7445,-96.8972 366.5232,-102.1143 376.9852,-103.7864 375.7445,-96.8972"/>
</g>
<!-- Node5 -->
<g id="node5" class="node">
<title>Node5</title>
<g id="a_node5"><a xlink:href="u__model_8f90.xhtml#ada0cd2ce4699433bf0f9adbd882c8eec" target="_top" xlink:title="Subroutine: U_MODEL &#45;!&gt; ">
<polygon fill="#ffffff" stroke="#000000" points="632.5,-95.5 632.5,-114.5 691.5,-114.5 691.5,-95.5 632.5,-95.5"/>
<text text-anchor="middle" x="662" y="-102.5" font-family="Helvetica,sans-Serif" font-size="10.00" fill="#000000">u_model</text>
</a>
</g>
</g>
<!-- Node4&#45;&gt;Node5 -->
<g id="edge4" class="edge">
<title>Node4&#45;&gt;Node5</title>
<path fill="none" stroke="#191970" d="M497.2563,-120.1948C537.2566,-116.5055 596.9479,-111 632.427,-107.7276"/>
<polygon fill="#191970" stroke="#191970" points="496.9232,-116.7106 487.287,-121.1143 497.5662,-123.681 496.9232,-116.7106"/>
</g>
<!-- Node6 -->
<g id="node6" class="node">
<title>Node6</title>
<g id="a_node6"><a xlink:href="um__shell_8f90.xhtml#a8c9bd25362824a5c301376ecb5ed5c27" target="_top" xlink:title="Subroutine: UM_SHELL !&gt; ">
<polygon fill="#ffffff" stroke="#000000" points="736,-76.5 736,-95.5 797,-95.5 797,-76.5 736,-76.5"/>
<text text-anchor="middle" x="766.5" y="-83.5" font-family="Helvetica,sans-Serif" font-size="10.00" fill="#000000">um_shell</text>
</a>
</g>
</g>
<!-- Node5&#45;&gt;Node6 -->
<g id="edge5" class="edge">
<title>Node5&#45;&gt;Node6</title>
<path fill="none" stroke="#191970" d="M701.701,-97.7816C712.951,-95.7362 725.0261,-93.5407 735.6677,-91.6059"/>
<polygon fill="#191970" stroke="#191970" points="700.8786,-94.3737 691.666,-99.6062 702.1308,-101.2608 700.8786,-94.3737"/>
</g>
<!-- Node7 -->
<g id="node7" class="node">
<title>Node7</title>
<g id="a_node7"><a xlink:href="um__main_8f90.xhtml#a8f2d13215621443a5313261c282f098b" target="_top" xlink:title="Code Owner: See Unified Model Code Owner&#39;s HTML page. ">
<polygon fill="#ffffff" stroke="#000000" points="833,-76.5 833,-95.5 895,-95.5 895,-76.5 833,-76.5"/>
<text text-anchor="middle" x="864" y="-83.5" font-family="Helvetica,sans-Serif" font-size="10.00" fill="#000000">um_main</text>
</a>
</g>
</g>
<!-- Node6&#45;&gt;Node7 -->
<g id="edge6" class="edge">
<title>Node6&#45;&gt;Node7</title>
<path fill="none" stroke="#191970" d="M807.2756,-86C815.8294,-86 824.72,-86 832.8551,-86"/>
<polygon fill="#191970" stroke="#191970" points="807.0821,-82.5001 797.0821,-86 807.0821,-89.5001 807.0821,-82.5001"/>
</g>
<!-- Node9 -->
<g id="node9" class="node">
<title>Node9</title>
<g id="a_node9"><a xlink:href="u__model__4_a_8f90.xhtml#afa05064dab5eba198b461d0928767c7e" target="_top" xlink:title="LL Subroutine: U_MODEL_4A (ENDGAME VERSION) !&gt;LL. ">
<polygon fill="#ffffff" stroke="#000000" points="624,-57.5 624,-76.5 700,-76.5 700,-57.5 624,-57.5"/>
<text text-anchor="middle" x="662" y="-64.5" font-family="Helvetica,sans-Serif" font-size="10.00" fill="#000000">u_model_4a</text>
</a>
</g>
</g>
<!-- Node8&#45;&gt;Node9 -->
<g id="edge8" class="edge">
<title>Node8&#45;&gt;Node9</title>
<path fill="none" stroke="#191970" d="M506.5781,-81.335C542.851,-77.9895 590.9503,-73.5531 623.9801,-70.5067"/>
<polygon fill="#191970" stroke="#191970" points="505.8442,-77.8878 496.2079,-82.2915 506.4871,-84.8582 505.8442,-77.8878"/>
</g>
<!-- Node9&#45;&gt;Node6 -->
<g id="edge9" class="edge">
<title>Node9&#45;&gt;Node6</title>
<path fill="none" stroke="#191970" d="M709.8728,-75.7041C718.7087,-77.3107 727.7128,-78.9478 735.8647,-80.43"/>
<polygon fill="#191970" stroke="#191970" points="710.4873,-72.2586 700.0225,-73.9132 709.2351,-79.1457 710.4873,-72.2586"/>
</g>
<!-- Node11 -->
<g id="node11" class="node">
<title>Node11</title>
<g id="a_node11"><a xlink:href="st__diag1_8f90.xhtml#a448077cde050b9a7c4cad654935688ac" target="_top" xlink:title="LL Subroutine ST_DIAG1 !&gt;LL. ">
<polygon fill="#ffffff" stroke="#000000" points="321.5,-57.5 321.5,-76.5 379.5,-76.5 379.5,-57.5 321.5,-57.5"/>
<text text-anchor="middle" x="350.5" y="-64.5" font-family="Helvetica,sans-Serif" font-size="10.00" fill="#000000">st_diag1</text>
</a>
</g>
</g>
<!-- Node10&#45;&gt;Node11 -->
<g id="edge11" class="edge">
<title>Node10&#45;&gt;Node11</title>
<path fill="none" stroke="#191970" d="M295.2542,-67C304.0637,-67 313.2066,-67 321.4587,-67"/>
<polygon fill="#191970" stroke="#191970" points="295.139,-63.5001 285.1389,-67 295.1389,-70.5001 295.139,-63.5001"/>
</g>
<!-- Node13 -->
<g id="node13" class="node">
<title>Node13</title>
<g id="a_node13"><a xlink:href="st__mean_8f90.xhtml#a56c57d59e0430c6d123a6e4a366df8e6" target="_top" xlink:title="LL Routine: ST_MEAN &#45;!&gt;LL. ">
<polygon fill="#ffffff" stroke="#000000" points="321,-.5 321,-19.5 380,-19.5 380,-.5 321,-.5"/>
<text text-anchor="middle" x="350.5" y="-7.5" font-family="Helvetica,sans-Serif" font-size="10.00" fill="#000000">st_mean</text>
</a>
</g>
</g>
<!-- Node10&#45;&gt;Node13 -->
<g id="edge15" class="edge">
<title>Node10&#45;&gt;Node13</title>
<path fill="none" stroke="#191970" d="M279.7978,-51.9794C297.1136,-41.6982 319.5507,-28.3762 334.4554,-19.5265"/>
<polygon fill="#191970" stroke="#191970" points="277.5968,-49.2158 270.7851,-57.3307 281.1706,-55.2348 277.5968,-49.2158"/>
</g>
<!-- Node11&#45;&gt;Node4 -->
<g id="edge12" class="edge">
<title>Node11&#45;&gt;Node4</title>
<path fill="none" stroke="#191970" d="M374.8864,-81.7877C387.0975,-89.0278 402.1875,-97.7286 416,-105 422.1227,-108.2232 428.8842,-111.5284 435.0786,-114.4596"/>
<polygon fill="#191970" stroke="#191970" points="376.5579,-78.7093 366.1784,-76.5838 372.967,-84.7181 376.5579,-78.7093"/>
</g>
<!-- Node11&#45;&gt;Node8 -->
<g id="edge13" class="edge">
<title>Node11&#45;&gt;Node8</title>
<path fill="none" stroke="#191970" d="M389.7244,-74.0641C398.2797,-75.6049 407.344,-77.2373 415.9316,-78.7839"/>
<polygon fill="#191970" stroke="#191970" points="390.0697,-70.5701 379.6076,-72.2421 388.8289,-77.4592 390.0697,-70.5701"/>
</g>
<!-- Node12 -->
<g id="node12" class="node">
<title>Node12</title>
<g id="a_node12"><a xlink:href="initdiag_8f90.xhtml#a95a853661b4e10339418e4a8c29b8c9c" target="_top" xlink:title="Calculate diagnostic quantities from the initial atmosphere dump Calculate diagnostic quantities from...">
<polygon fill="#ffffff" stroke="#000000" points="429.5,-38.5 429.5,-57.5 482.5,-57.5 482.5,-38.5 429.5,-38.5"/>
<text text-anchor="middle" x="456" y="-45.5" font-family="Helvetica,sans-Serif" font-size="10.00" fill="#000000">initdiag</text>
</a>
</g>
</g>
<!-- Node11&#45;&gt;Node12 -->
<g id="edge14" class="edge">
<title>Node11&#45;&gt;Node12</title>
<path fill="none" stroke="#191970" d="M389.8011,-59.9221C402.9135,-57.5606 417.214,-54.9852 429.1572,-52.8342"/>
<polygon fill="#191970" stroke="#191970" points="388.8289,-56.5408 379.6076,-61.7579 390.0697,-63.4299 388.8289,-56.5408"/>
</g>
<!-- Node14 -->
<g id="node14" class="node">
<title>Node14</title>
<g id="a_node14"><a xlink:href="meandiag_8f90.xhtml#a72a0b96fb4670010dc65680c7e8ac636" target="_top" xlink:title="LL Routine: MEANDIAG !&gt;LL. ">
<polygon fill="#ffffff" stroke="#000000" points="423.5,-.5 423.5,-19.5 488.5,-19.5 488.5,-.5 423.5,-.5"/>
<text text-anchor="middle" x="456" y="-7.5" font-family="Helvetica,sans-Serif" font-size="10.00" fill="#000000">meandiag</text>
</a>
</g>
</g>
<!-- Node13&#45;&gt;Node14 -->
<g id="edge16" class="edge">
<title>Node13&#45;&gt;Node14</title>
<path fill="none" stroke="#191970" d="M390.2809,-10C401.1467,-10 412.7952,-10 423.2222,-10"/>
<polygon fill="#191970" stroke="#191970" points="390.1684,-6.5001 380.1684,-10 390.1684,-13.5001 390.1684,-6.5001"/>
</g>
<!-- Node15 -->
<g id="node15" class="node">
<title>Node15</title>
<g id="a_node15"><a xlink:href="meanctl_8f90.xhtml#a5bbbf6327297fa87e7a0d9b511eb2b00" target="_top" xlink:title="Subroutine: MEANCTL&#45;!&gt; ">
<polygon fill="#ffffff" stroke="#000000" points="532,-38.5 532,-57.5 588,-57.5 588,-38.5 532,-38.5"/>
<text text-anchor="middle" x="560" y="-45.5" font-family="Helvetica,sans-Serif" font-size="10.00" fill="#000000">meanctl</text>
</a>
</g>
</g>
<!-- Node14&#45;&gt;Node15 -->
<g id="edge17" class="edge">
<title>Node14&#45;&gt;Node15</title>
<path fill="none" stroke="#191970" d="M491.9019,-23.118C505.6571,-28.1439 521.0796,-33.7791 533.7648,-38.4141"/>
<polygon fill="#191970" stroke="#191970" points="492.8374,-19.7336 482.2436,-19.589 490.435,-26.3084 492.8374,-19.7336"/>
</g>
<!-- Node15&#45;&gt;Node5 -->
<g id="edge18" class="edge">
<title>Node15&#45;&gt;Node5</title>
<path fill="none" stroke="#191970" d="M584.2053,-62.931C596.08,-70.1118 610.6653,-78.7199 624,-86 629.8265,-89.181 636.253,-92.4737 642.1373,-95.4064"/>
<polygon fill="#191970" stroke="#191970" points="585.7,-59.7433 575.3388,-57.5308 582.0588,-65.7218 585.7,-59.7433"/>
</g>
<!-- Node15&#45;&gt;Node9 -->
<g id="edge19" class="edge">
<title>Node15&#45;&gt;Node9</title>
<path fill="none" stroke="#191970" d="M598.0329,-55.0846C606.3986,-56.6429 615.2629,-58.2941 623.6414,-59.8548"/>
<polygon fill="#191970" stroke="#191970" points="598.6138,-51.6326 588.142,-53.2421 597.3319,-58.5143 598.6138,-51.6326"/>
</g>
</g>
</svg>
