<?xml version="1.0" encoding="UTF-8" standalone="no"?>
<!DOCTYPE svg PUBLIC "-//W3C//DTD SVG 1.1//EN"
 "http://www.w3.org/Graphics/SVG/1.1/DTD/svg11.dtd">
<!-- Generated by graphviz version 2.40.1 (20161225.0304)
 -->
<!-- Title: calc_press Pages: 1 -->
<svg width="381pt" height="142pt"
 viewBox="0.00 0.00 381.00 142.00" xmlns="http://www.w3.org/2000/svg" xmlns:xlink="http://www.w3.org/1999/xlink">
<g id="graph0" class="graph" transform="scale(1 1) rotate(0) translate(4 138)">
<title>calc_press</title>
<polygon fill="#ffffff" stroke="transparent" points="-4,4 -4,-138 377,-138 377,4 -4,4"/>
<!-- Node0 -->
<g id="node1" class="node">
<title>Node0</title>
<polygon fill="#bfbfbf" stroke="#000000" points="0,-57.5 0,-76.5 68,-76.5 68,-57.5 0,-57.5"/>
<text text-anchor="middle" x="34" y="-64.5" font-family="Helvetica,sans-Serif" font-size="10.00" fill="#000000">calc_press</text>
</g>
<!-- Node1 -->
<g id="node2" class="node">
<title>Node1</title>
<g id="a_node2"><a xlink:href="calc__exner__at__theta_8f90.xhtml#a40aa93c9e00f9db47f7836ae18d9c56a" target="_top" xlink:title="*****************************COPYRIGHT****************************** *****************************COP...">
<polygon fill="#ffffff" stroke="#000000" points="104,-114.5 104,-133.5 219,-133.5 219,-114.5 104,-114.5"/>
<text text-anchor="middle" x="161.5" y="-121.5" font-family="Helvetica,sans-Serif" font-size="10.00" fill="#000000">calc_exner_at_theta</text>
</a>
</g>
</g>
<!-- Node0&#45;&gt;Node1 -->
<g id="edge1" class="edge">
<title>Node0&#45;&gt;Node1</title>
<path fill="none" stroke="#191970" d="M49.7202,-76.5875C63.6481,-84.8238 84.7087,-96.6557 104,-105 109.0057,-107.1652 114.3437,-109.233 119.6739,-111.1541"/>
<polygon fill="#191970" stroke="#191970" points="118.5915,-114.4831 129.1863,-114.4428 120.8788,-107.8673 118.5915,-114.4831"/>
</g>
<!-- Node2 -->
<g id="node3" class="node">
<title>Node2</title>
<g id="a_node3"><a xlink:href="calc__p__from__exner_8f90.xhtml#aa061d001584c20188f7bb3f8c9fb46cb" target="_top" xlink:title="*****************************COPYRIGHT****************************** *****************************COP...">
<polygon fill="#ffffff" stroke="#000000" points="107,-76.5 107,-95.5 216,-95.5 216,-76.5 107,-76.5"/>
<text text-anchor="middle" x="161.5" y="-83.5" font-family="Helvetica,sans-Serif" font-size="10.00" fill="#000000">calc_p_from_exner</text>
</a>
</g>
</g>
<!-- Node0&#45;&gt;Node2 -->
<g id="edge2" class="edge">
<title>Node0&#45;&gt;Node2</title>
<path fill="none" stroke="#191970" d="M68.1677,-72.0917C76.9271,-73.397 86.644,-74.845 96.403,-76.2993"/>
<polygon fill="#191970" stroke="#191970" points="96.143,-79.7991 106.5497,-77.8113 97.1748,-72.8756 96.143,-79.7991"/>
</g>
<!-- Node4 -->
<g id="node5" class="node">
<title>Node4</title>
<g id="a_node5"><a xlink:href="calc__rho_8f90.xhtml#abd2680b6c3ed9672aeb908321fe9ba0b" target="_top" xlink:title="Calculates rho in the SCM. ">
<polygon fill="#ffffff" stroke="#000000" points="133,-38.5 133,-57.5 190,-57.5 190,-38.5 133,-38.5"/>
<text text-anchor="middle" x="161.5" y="-45.5" font-family="Helvetica,sans-Serif" font-size="10.00" fill="#000000">calc_rho</text>
</a>
</g>
</g>
<!-- Node0&#45;&gt;Node4 -->
<g id="edge4" class="edge">
<title>Node0&#45;&gt;Node4</title>
<path fill="none" stroke="#191970" d="M68.1677,-61.9083C84.9051,-59.4141 105.1382,-56.399 122.4813,-53.8145"/>
<polygon fill="#191970" stroke="#191970" points="123.4744,-57.2053 132.8493,-52.2695 122.4426,-50.2817 123.4744,-57.2053"/>
</g>
<!-- Node5 -->
<g id="node6" class="node">
<title>Node5</title>
<g id="a_node6"><a xlink:href="calc__p__star_8f90.xhtml#ab386eeb1ddf732f522429c68244b2b8d" target="_top" xlink:title="Subroutine Calc_P_star. ">
<polygon fill="#ffffff" stroke="#000000" points="126,-.5 126,-19.5 197,-19.5 197,-.5 126,-.5"/>
<text text-anchor="middle" x="161.5" y="-7.5" font-family="Helvetica,sans-Serif" font-size="10.00" fill="#000000">calc_p_star</text>
</a>
</g>
</g>
<!-- Node0&#45;&gt;Node5 -->
<g id="edge5" class="edge">
<title>Node0&#45;&gt;Node5</title>
<path fill="none" stroke="#191970" d="M49.7202,-57.4125C63.6481,-49.1762 84.7087,-37.3443 104,-29 109.0057,-26.8348 114.3437,-24.767 119.6739,-22.8459"/>
<polygon fill="#191970" stroke="#191970" points="120.8788,-26.1327 129.1863,-19.5572 118.5915,-19.5169 120.8788,-26.1327"/>
</g>
<!-- Node3 -->
<g id="node4" class="node">
<title>Node3</title>
<g id="a_node4"><a xlink:href="namespacevectlib__mod.xhtml#ae619493e9e4d10fb153e38fc3413a371" target="_top" xlink:title="vectlib_mod::powr_v">
<polygon fill="#ffffff" stroke="#000000" points="255,-76.5 255,-95.5 373,-95.5 373,-76.5 255,-76.5"/>
<text text-anchor="middle" x="314" y="-83.5" font-family="Helvetica,sans-Serif" font-size="10.00" fill="#000000">vectlib_mod::powr_v</text>
</a>
</g>
</g>
<!-- Node2&#45;&gt;Node3 -->
<g id="edge3" class="edge">
<title>Node2&#45;&gt;Node3</title>
<path fill="none" stroke="#191970" d="M216.1253,-86C225.3515,-86 235.0382,-86 244.5811,-86"/>
<polygon fill="#191970" stroke="#191970" points="244.8511,-89.5001 254.8511,-86 244.8511,-82.5001 244.8511,-89.5001"/>
</g>
</g>
</svg>
