<?xml version="1.0" encoding="UTF-8" standalone="no"?>
<!DOCTYPE svg PUBLIC "-//W3C//DTD SVG 1.1//EN"
 "http://www.w3.org/Graphics/SVG/1.1/DTD/svg11.dtd">
<!-- Generated by graphviz version 2.40.1 (20161225.0304)
 -->
<!-- Title: calc_non_int_sl_theta Pages: 1 -->
<svg width="473pt" height="370pt"
 viewBox="0.00 0.00 473.00 370.00" xmlns="http://www.w3.org/2000/svg" xmlns:xlink="http://www.w3.org/1999/xlink">
<g id="graph0" class="graph" transform="scale(1 1) rotate(0) translate(4 366)">
<title>calc_non_int_sl_theta</title>
<polygon fill="#ffffff" stroke="transparent" points="-4,4 -4,-366 469,-366 469,4 -4,4"/>
<!-- Node0 -->
<g id="node1" class="node">
<title>Node0</title>
<polygon fill="#bfbfbf" stroke="#000000" points="0,-171.5 0,-190.5 122,-190.5 122,-171.5 0,-171.5"/>
<text text-anchor="middle" x="61" y="-178.5" font-family="Helvetica,sans-Serif" font-size="10.00" fill="#000000">calc_non_int_sl_theta</text>
</g>
<!-- Node1 -->
<g id="node2" class="node">
<title>Node1</title>
<g id="a_node2"><a xlink:href="swap__bounds-swpbnd2a_8f90.xhtml#aa0269e41062e156c437596022ea9ccd0" target="_top" xlink:title="Portable GCOM based version SWAP_BOUNDS. ">
<polygon fill="#ffffff" stroke="#000000" points="199,-342.5 199,-361.5 282,-361.5 282,-342.5 199,-342.5"/>
<text text-anchor="middle" x="240.5" y="-349.5" font-family="Helvetica,sans-Serif" font-size="10.00" fill="#000000">swap_bounds</text>
</a>
</g>
</g>
<!-- Node0&#45;&gt;Node1 -->
<g id="edge1" class="edge">
<title>Node0&#45;&gt;Node1</title>
<path fill="none" stroke="#191970" d="M64.5527,-190.5854C74.7686,-216.8042 106.8101,-290.259 158,-328 167.1004,-334.7095 178.0442,-339.5498 188.942,-343.0396"/>
<polygon fill="#191970" stroke="#191970" points="188.3062,-346.498 198.883,-345.8798 190.2292,-339.7673 188.3062,-346.498"/>
</g>
<!-- Node2 -->
<g id="node3" class="node">
<title>Node2</title>
<g id="a_node3"><a xlink:href="fill__external__halos_8f90.xhtml#a9f4e1e061e136821fb9a51281a5e69c2" target="_top" xlink:title="Routine for filling in External Halos. ">
<polygon fill="#ffffff" stroke="#000000" points="359,-323.5 359,-342.5 465,-342.5 465,-323.5 359,-323.5"/>
<text text-anchor="middle" x="412" y="-330.5" font-family="Helvetica,sans-Serif" font-size="10.00" fill="#000000">fill_external_halos</text>
</a>
</g>
</g>
<!-- Node0&#45;&gt;Node2 -->
<g id="edge4" class="edge">
<title>Node0&#45;&gt;Node2</title>
<path fill="none" stroke="#191970" d="M66.0021,-190.6741C78.2478,-213.2656 112.1142,-269.5048 158,-295 189.8171,-312.6782 284.3613,-323.2635 348.6823,-328.6127"/>
<polygon fill="#191970" stroke="#191970" points="348.4818,-332.1078 358.7317,-329.4265 349.0469,-325.1307 348.4818,-332.1078"/>
</g>
<!-- Node3 -->
<g id="node4" class="node">
<title>Node3</title>
<g id="a_node4"><a xlink:href="set__lateral__boundaries-setlbc1a_8f90.xhtml#a472980d948c1a3327518529ba3f5514a" target="_top" xlink:title="Fills the LBC region of a LAM model with data from LBCs. ">
<polygon fill="#ffffff" stroke="#000000" points="176.5,-266.5 176.5,-285.5 304.5,-285.5 304.5,-266.5 176.5,-266.5"/>
<text text-anchor="middle" x="240.5" y="-273.5" font-family="Helvetica,sans-Serif" font-size="10.00" fill="#000000">set_lateral_boundaries</text>
</a>
</g>
</g>
<!-- Node0&#45;&gt;Node3 -->
<g id="edge3" class="edge">
<title>Node0&#45;&gt;Node3</title>
<path fill="none" stroke="#191970" d="M70.2136,-190.5699C86.4057,-206.8059 121.7052,-239.6696 158,-257 163.0567,-259.4145 168.437,-261.5313 173.9323,-263.3854"/>
<polygon fill="#191970" stroke="#191970" points="173.3164,-266.8575 183.9032,-266.4467 175.371,-260.1658 173.3164,-266.8575"/>
</g>
<!-- Node4 -->
<g id="node5" class="node">
<title>Node4</title>
<g id="a_node5"><a xlink:href="cnislt__distribute__poles__c96__1c_8f90.xhtml#a89cd185088872ba61ee746be63e7748b" target="_top" xlink:title="Performs distribution of polar data from the calc_non_int_sl_theta. ">
<polygon fill="#ffffff" stroke="#000000" points="177.5,-228.5 177.5,-247.5 303.5,-247.5 303.5,-228.5 177.5,-228.5"/>
<text text-anchor="middle" x="240.5" y="-235.5" font-family="Helvetica,sans-Serif" font-size="10.00" fill="#000000">cnislt_distribute_poles</text>
</a>
</g>
</g>
<!-- Node0&#45;&gt;Node4 -->
<g id="edge5" class="edge">
<title>Node0&#45;&gt;Node4</title>
<path fill="none" stroke="#191970" d="M82.6326,-190.5347C102.0785,-198.849 131.5626,-210.8258 158,-219 166.1751,-221.5276 174.8986,-223.8883 183.4984,-226.0271"/>
<polygon fill="#191970" stroke="#191970" points="182.9552,-229.4963 193.4966,-228.4328 184.5928,-222.6905 182.9552,-229.4963"/>
</g>
<!-- Node6 -->
<g id="node7" class="node">
<title>Node6</title>
<g id="a_node7"><a xlink:href="zero__lateral__boundaries-setlbc1a_8f90.xhtml#a1b81ce1a41233c40aea95ff41b0f55c1" target="_top" xlink:title="Fills the LBC region of a LAM model with zeros. ">
<polygon fill="#ffffff" stroke="#000000" points="173.5,-190.5 173.5,-209.5 307.5,-209.5 307.5,-190.5 173.5,-190.5"/>
<text text-anchor="middle" x="240.5" y="-197.5" font-family="Helvetica,sans-Serif" font-size="10.00" fill="#000000">zero_lateral_boundaries</text>
</a>
</g>
</g>
<!-- Node0&#45;&gt;Node6 -->
<g id="edge7" class="edge">
<title>Node0&#45;&gt;Node6</title>
<path fill="none" stroke="#191970" d="M122.021,-187.459C135.3519,-188.8701 149.6281,-190.3813 163.4905,-191.8486"/>
<polygon fill="#191970" stroke="#191970" points="163.1789,-195.3351 173.4918,-192.9072 163.9158,-188.374 163.1789,-195.3351"/>
</g>
<!-- Node7 -->
<g id="node8" class="node">
<title>Node7</title>
<g id="a_node8"><a xlink:href="cubic__lagrange__niv_8f90.xhtml#a3bf3f6e3bc79cc5fb16de9ae3b9fa825" target="_top" xlink:title="Subroutine Cubic_Lagrange_niv. ">
<polygon fill="#ffffff" stroke="#000000" points="185.5,-152.5 185.5,-171.5 295.5,-171.5 295.5,-152.5 185.5,-152.5"/>
<text text-anchor="middle" x="240.5" y="-159.5" font-family="Helvetica,sans-Serif" font-size="10.00" fill="#000000">cubic_lagrange_niv</text>
</a>
</g>
</g>
<!-- Node0&#45;&gt;Node7 -->
<g id="edge8" class="edge">
<title>Node0&#45;&gt;Node7</title>
<path fill="none" stroke="#191970" d="M122.021,-174.541C139.1831,-172.7244 157.9119,-170.7419 175.3074,-168.9006"/>
<polygon fill="#191970" stroke="#191970" points="175.7976,-172.3684 185.3736,-167.8351 175.0607,-165.4073 175.7976,-172.3684"/>
</g>
<!-- Node8 -->
<g id="node9" class="node">
<title>Node8</title>
<g id="a_node9"><a xlink:href="quintic__lagrange__niv_8f90.xhtml#a68910f041d7c40a4a79d4cb06689c3b5" target="_top" xlink:title="Subroutine Quintic_Lagrange_niv. ">
<polygon fill="#ffffff" stroke="#000000" points="181.5,-114.5 181.5,-133.5 299.5,-133.5 299.5,-114.5 181.5,-114.5"/>
<text text-anchor="middle" x="240.5" y="-121.5" font-family="Helvetica,sans-Serif" font-size="10.00" fill="#000000">quintic_lagrange_niv</text>
</a>
</g>
</g>
<!-- Node0&#45;&gt;Node8 -->
<g id="edge9" class="edge">
<title>Node0&#45;&gt;Node8</title>
<path fill="none" stroke="#191970" d="M82.6326,-171.4653C102.0785,-163.151 131.5626,-151.1742 158,-143 166.1751,-140.4724 174.8986,-138.1117 183.4984,-135.9729"/>
<polygon fill="#191970" stroke="#191970" points="184.5928,-139.3095 193.4966,-133.5672 182.9552,-132.5037 184.5928,-139.3095"/>
</g>
<!-- Node9 -->
<g id="node10" class="node">
<title>Node9</title>
<g id="a_node10"><a xlink:href="ecmwf__quasi__cubic__niv_8f90.xhtml#aa6fe43314057a72d830450fb59966308" target="_top" xlink:title="Subroutine ECMWF_quasi_cubic_niv. ">
<polygon fill="#ffffff" stroke="#000000" points="174.5,-76.5 174.5,-95.5 306.5,-95.5 306.5,-76.5 174.5,-76.5"/>
<text text-anchor="middle" x="240.5" y="-83.5" font-family="Helvetica,sans-Serif" font-size="10.00" fill="#000000">ecmwf_quasi_cubic_niv</text>
</a>
</g>
</g>
<!-- Node0&#45;&gt;Node9 -->
<g id="edge10" class="edge">
<title>Node0&#45;&gt;Node9</title>
<path fill="none" stroke="#191970" d="M70.2136,-171.4301C86.4057,-155.1941 121.7052,-122.3304 158,-105 163.0567,-102.5855 168.437,-100.4687 173.9323,-98.6146"/>
<polygon fill="#191970" stroke="#191970" points="175.371,-101.8342 183.9032,-95.5533 173.3164,-95.1425 175.371,-101.8342"/>
</g>
<!-- Node10 -->
<g id="node11" class="node">
<title>Node10</title>
<g id="a_node11"><a xlink:href="bi__linear__niv_8f90.xhtml#aca5708048fa27415ac4c6ff18b7fafd8" target="_top" xlink:title="Subroutine Bi_linear_niv. ">
<polygon fill="#ffffff" stroke="#000000" points="201,-38.5 201,-57.5 280,-57.5 280,-38.5 201,-38.5"/>
<text text-anchor="middle" x="240.5" y="-45.5" font-family="Helvetica,sans-Serif" font-size="10.00" fill="#000000">bi_linear_niv</text>
</a>
</g>
</g>
<!-- Node0&#45;&gt;Node10 -->
<g id="edge11" class="edge">
<title>Node0&#45;&gt;Node10</title>
<path fill="none" stroke="#191970" d="M66.3271,-171.2313C79.0225,-148.9336 113.3632,-94.1266 158,-67 167.9089,-60.9782 179.5454,-56.8634 190.9037,-54.0522"/>
<polygon fill="#191970" stroke="#191970" points="191.7385,-57.4525 200.7631,-51.9022 190.247,-50.6133 191.7385,-57.4525"/>
</g>
<!-- Node11 -->
<g id="node12" class="node">
<title>Node11</title>
<g id="a_node12"><a xlink:href="ecmwf__mono__quasi__cubic__niv_8f90.xhtml#aa93bccca5c917fbdd0c19bc04e904b50" target="_top" xlink:title="Subroutine ECMWF_mono_quasi_cubic_niv. ">
<polygon fill="#ffffff" stroke="#000000" points="158,-.5 158,-19.5 323,-19.5 323,-.5 158,-.5"/>
<text text-anchor="middle" x="240.5" y="-7.5" font-family="Helvetica,sans-Serif" font-size="10.00" fill="#000000">ecmwf_mono_quasi_cubic_niv</text>
</a>
</g>
</g>
<!-- Node0&#45;&gt;Node11 -->
<g id="edge12" class="edge">
<title>Node0&#45;&gt;Node11</title>
<path fill="none" stroke="#191970" d="M64.2028,-171.3258C73.7198,-144.1632 104.5454,-66.7255 158,-29 160.8482,-26.9899 163.8769,-25.1891 167.0281,-23.5762"/>
<polygon fill="#191970" stroke="#191970" points="168.4661,-26.7673 176.1852,-19.5101 165.6252,-20.3696 168.4661,-26.7673"/>
</g>
<!-- Node1&#45;&gt;Node2 -->
<g id="edge2" class="edge">
<title>Node1&#45;&gt;Node2</title>
<path fill="none" stroke="#191970" d="M282.0154,-347.4006C302.0456,-345.1815 326.5101,-342.4712 348.7896,-340.0029"/>
<polygon fill="#191970" stroke="#191970" points="349.2948,-343.4684 358.8486,-338.8885 348.524,-336.511 349.2948,-343.4684"/>
</g>
<!-- Node5 -->
<g id="node6" class="node">
<title>Node5</title>
<g id="a_node6"><a xlink:href="sum_8f90.xhtml#a025c1f845b6a4ea9c9f48b8612cd82e7" target="_top" xlink:title="Generic routines for manipulating pp&#45;fields within Fieldcalc. ">
<polygon fill="#ffffff" stroke="#000000" points="393,-228.5 393,-247.5 431,-247.5 431,-228.5 393,-228.5"/>
<text text-anchor="middle" x="412" y="-235.5" font-family="Helvetica,sans-Serif" font-size="10.00" fill="#000000">sum</text>
</a>
</g>
</g>
<!-- Node4&#45;&gt;Node5 -->
<g id="edge6" class="edge">
<title>Node4&#45;&gt;Node5</title>
<path fill="none" stroke="#191970" d="M303.873,-238C330.8099,-238 360.9144,-238 382.5042,-238"/>
<polygon fill="#191970" stroke="#191970" points="382.6615,-241.5001 392.6614,-238 382.6614,-234.5001 382.6615,-241.5001"/>
</g>
</g>
</svg>
