<?xml version="1.0" encoding="UTF-8" standalone="no"?>
<!DOCTYPE svg PUBLIC "-//W3C//DTD SVG 1.1//EN"
 "http://www.w3.org/Graphics/SVG/1.1/DTD/svg11.dtd">
<!-- Generated by graphviz version 2.40.1 (20161225.0304)
 -->
<!-- Title: calc_cfi_and_fld Pages: 1 -->
<svg width="280pt" height="28pt"
 viewBox="0.00 0.00 280.00 28.00" xmlns="http://www.w3.org/2000/svg" xmlns:xlink="http://www.w3.org/1999/xlink">
<g id="graph0" class="graph" transform="scale(1 1) rotate(0) translate(4 24)">
<title>calc_cfi_and_fld</title>
<polygon fill="#ffffff" stroke="transparent" points="-4,4 -4,-24 276,-24 276,4 -4,4"/>
<!-- Node7 -->
<g id="node1" class="node">
<title>Node7</title>
<polygon fill="#bfbfbf" stroke="#000000" points="0,-.5 0,-19.5 93,-19.5 93,-.5 0,-.5"/>
<text text-anchor="middle" x="46.5" y="-7.5" font-family="Helvetica,sans-Serif" font-size="10.00" fill="#000000">calc_cfi_and_fld</text>
</g>
<!-- Node8 -->
<g id="node2" class="node">
<title>Node8</title>
<g id="a_node2"><a xlink:href="anc__fld_8f90.xhtml#acb49fa3e2632bf2e500c1c76ae757639" target="_top" xlink:title="Subroutine interface: ">
<polygon fill="#ffffff" stroke="#000000" points="129,-.5 129,-19.5 180,-19.5 180,-.5 129,-.5"/>
<text text-anchor="middle" x="154.5" y="-7.5" font-family="Helvetica,sans-Serif" font-size="10.00" fill="#000000">anc_fld</text>
</a>
</g>
</g>
<!-- Node7&#45;&gt;Node8 -->
<g id="edge1" class="edge">
<title>Node7&#45;&gt;Node8</title>
<path fill="none" stroke="#191970" d="M103.3106,-10C112.2359,-10 121.0585,-10 128.7996,-10"/>
<polygon fill="#191970" stroke="#191970" points="103.2423,-6.5001 93.2422,-10 103.2422,-13.5001 103.2423,-6.5001"/>
</g>
<!-- Node9 -->
<g id="node3" class="node">
<title>Node9</title>
<g id="a_node3"><a xlink:href="pptoanc_8f90.xhtml#a2e730625ecfdf710fce82f4ee59e0c2c" target="_top" xlink:title="pptoanc">
<polygon fill="#ffffff" stroke="#000000" points="216,-.5 216,-19.5 272,-19.5 272,-.5 216,-.5"/>
<text text-anchor="middle" x="244" y="-7.5" font-family="Helvetica,sans-Serif" font-size="10.00" fill="#000000">pptoanc</text>
</a>
</g>
</g>
<!-- Node8&#45;&gt;Node9 -->
<g id="edge2" class="edge">
<title>Node8&#45;&gt;Node9</title>
<path fill="none" stroke="#191970" d="M190.45,-10C198.9503,-10 207.8916,-10 215.9808,-10"/>
<polygon fill="#191970" stroke="#191970" points="190.3871,-6.5001 180.3871,-10 190.3871,-13.5001 190.3871,-6.5001"/>
</g>
</g>
</svg>
