<?xml version="1.0" encoding="UTF-8" standalone="no"?>
<!DOCTYPE svg PUBLIC "-//W3C//DTD SVG 1.1//EN"
 "http://www.w3.org/Graphics/SVG/1.1/DTD/svg11.dtd">
<!-- Generated by graphviz version 2.40.1 (20161225.0304)
 -->
<!-- Title: calc_vis_prob Pages: 1 -->
<svg width="269pt" height="66pt"
 viewBox="0.00 0.00 269.00 66.00" xmlns="http://www.w3.org/2000/svg" xmlns:xlink="http://www.w3.org/1999/xlink">
<g id="graph0" class="graph" transform="scale(1 1) rotate(0) translate(4 62)">
<title>calc_vis_prob</title>
<polygon fill="#ffffff" stroke="transparent" points="-4,4 -4,-62 265,-62 265,4 -4,4"/>
<!-- Node0 -->
<g id="node1" class="node">
<title>Node0</title>
<polygon fill="#bfbfbf" stroke="#000000" points="0,-19.5 0,-38.5 83,-38.5 83,-19.5 0,-19.5"/>
<text text-anchor="middle" x="41.5" y="-26.5" font-family="Helvetica,sans-Serif" font-size="10.00" fill="#000000">calc_vis_prob</text>
</g>
<!-- Node1 -->
<g id="node2" class="node">
<title>Node1</title>
<g id="a_node2"><a xlink:href="fog__fr_8f90.xhtml#ab2b1acee98379aa88f9884332c5467be" target="_top" xlink:title="Calculates fraction of grid&#45;box covered with fog. ">
<polygon fill="#ffffff" stroke="#000000" points="119,-19.5 119,-38.5 164,-38.5 164,-19.5 119,-19.5"/>
<text text-anchor="middle" x="141.5" y="-26.5" font-family="Helvetica,sans-Serif" font-size="10.00" fill="#000000">fog_fr</text>
</a>
</g>
</g>
<!-- Node0&#45;&gt;Node1 -->
<g id="edge1" class="edge">
<title>Node0&#45;&gt;Node1</title>
<path fill="none" stroke="#191970" d="M83.0402,-29C91.5473,-29 100.3909,-29 108.547,-29"/>
<polygon fill="#191970" stroke="#191970" points="108.787,-32.5001 118.787,-29 108.7869,-25.5001 108.787,-32.5001"/>
</g>
<!-- Node2 -->
<g id="node3" class="node">
<title>Node2</title>
<g id="a_node3"><a xlink:href="qsat__wat_8f90.xhtml#a0c0fb3b560128ff260172760c051f507" target="_top" xlink:title="Saturation Specific Humidity Scheme (Qsat_Wat): Vapour to Liquid. ">
<polygon fill="#ffffff" stroke="#000000" points="200,-38.5 200,-57.5 261,-57.5 261,-38.5 200,-38.5"/>
<text text-anchor="middle" x="230.5" y="-45.5" font-family="Helvetica,sans-Serif" font-size="10.00" fill="#000000">qsat_wat</text>
</a>
</g>
</g>
<!-- Node1&#45;&gt;Node2 -->
<g id="edge2" class="edge">
<title>Node1&#45;&gt;Node2</title>
<path fill="none" stroke="#191970" d="M164.4197,-33.893C172.2781,-35.5706 181.3212,-37.5012 190.145,-39.3849"/>
<polygon fill="#191970" stroke="#191970" points="189.429,-42.8108 199.9394,-41.4758 190.8905,-35.9651 189.429,-42.8108"/>
</g>
<!-- Node3 -->
<g id="node4" class="node">
<title>Node3</title>
<g id="a_node4"><a xlink:href="vistoqt_8f90.xhtml#a71b9cec6b0f6031704266b2e3d0cf033" target="_top" xlink:title="Invert relationship between aerosol, visibility and water content. ">
<polygon fill="#ffffff" stroke="#000000" points="205.5,-.5 205.5,-19.5 255.5,-19.5 255.5,-.5 205.5,-.5"/>
<text text-anchor="middle" x="230.5" y="-7.5" font-family="Helvetica,sans-Serif" font-size="10.00" fill="#000000">vistoqt</text>
</a>
</g>
</g>
<!-- Node1&#45;&gt;Node3 -->
<g id="edge3" class="edge">
<title>Node1&#45;&gt;Node3</title>
<path fill="none" stroke="#191970" d="M164.4197,-24.107C173.845,-22.0949 184.9744,-19.7189 195.3857,-17.4963"/>
<polygon fill="#191970" stroke="#191970" points="196.4191,-20.8546 205.468,-15.3439 194.9576,-14.0089 196.4191,-20.8546"/>
</g>
</g>
</svg>
