<?xml version="1.0" encoding="UTF-8" standalone="no"?>
<!DOCTYPE svg PUBLIC "-//W3C//DTD SVG 1.1//EN"
 "http://www.w3.org/Graphics/SVG/1.1/DTD/svg11.dtd">
<!-- Generated by graphviz version 2.40.1 (20161225.0304)
 -->
<!-- Title: caturb Pages: 1 -->
<svg width="765pt" height="157pt"
 viewBox="0.00 0.00 765.00 157.08" xmlns="http://www.w3.org/2000/svg" xmlns:xlink="http://www.w3.org/1999/xlink">
<g id="graph0" class="graph" transform="scale(1 1) rotate(0) translate(4 153.0828)">
<title>caturb</title>
<polygon fill="#ffffff" stroke="transparent" points="-4,4 -4,-153.0828 761,-153.0828 761,4 -4,4"/>
<!-- Node0 -->
<g id="node1" class="node">
<title>Node0</title>
<polygon fill="#bfbfbf" stroke="#000000" points="0,-76.5 0,-95.5 47,-95.5 47,-76.5 0,-76.5"/>
<text text-anchor="middle" x="23.5" y="-83.5" font-family="Helvetica,sans-Serif" font-size="10.00" fill="#000000">caturb</text>
</g>
<!-- Node1 -->
<g id="node2" class="node">
<title>Node1</title>
<g id="a_node2"><a xlink:href="timer-timer1a_8f90.xhtml#a9ec0272078965f809aa1a1cbc6a05ea4" target="_top" xlink:title="timer">
<polygon fill="#ffffff" stroke="#000000" points="182,-114.5 182,-133.5 225,-133.5 225,-114.5 182,-114.5"/>
<text text-anchor="middle" x="203.5" y="-121.5" font-family="Helvetica,sans-Serif" font-size="10.00" fill="#000000">timer</text>
</a>
</g>
</g>
<!-- Node0&#45;&gt;Node1 -->
<g id="edge1" class="edge">
<title>Node0&#45;&gt;Node1</title>
<path fill="none" stroke="#191970" d="M29.8009,-95.5505C39.3974,-109.1213 59.1067,-133.402 83,-143 112.3633,-154.7952 148.4987,-146.3497 173.4987,-137.2723"/>
<polygon fill="#191970" stroke="#191970" points="175.089,-140.4098 183.151,-133.5356 172.5618,-133.8819 175.089,-140.4098"/>
</g>
<!-- Node6 -->
<g id="node7" class="node">
<title>Node6</title>
<g id="a_node7"><a xlink:href="diffp_8f90.xhtml#aad082f5b8769acd0106487c49813d25f" target="_top" xlink:title="Routines to calculate Clear Air Turbulence diagnostics. ">
<polygon fill="#ffffff" stroke="#000000" points="95.5,-114.5 95.5,-133.5 133.5,-133.5 133.5,-114.5 95.5,-114.5"/>
<text text-anchor="middle" x="114.5" y="-121.5" font-family="Helvetica,sans-Serif" font-size="10.00" fill="#000000">diffp</text>
</a>
</g>
</g>
<!-- Node0&#45;&gt;Node6 -->
<g id="edge7" class="edge">
<title>Node0&#45;&gt;Node6</title>
<path fill="none" stroke="#191970" d="M46.4631,-95.589C58.4629,-100.5999 73.2606,-106.7792 85.9878,-112.0938"/>
<polygon fill="#191970" stroke="#191970" points="84.6595,-115.332 95.236,-115.9557 87.3569,-108.8726 84.6595,-115.332"/>
</g>
<!-- Node7 -->
<g id="node8" class="node">
<title>Node7</title>
<g id="a_node8"><a xlink:href="diffx_8f90.xhtml#a3148b7b77578d896f341f368273bcc11" target="_top" xlink:title="Routines to calculate horizontal derivatives. ">
<polygon fill="#ffffff" stroke="#000000" points="184.5,-76.5 184.5,-95.5 222.5,-95.5 222.5,-76.5 184.5,-76.5"/>
<text text-anchor="middle" x="203.5" y="-83.5" font-family="Helvetica,sans-Serif" font-size="10.00" fill="#000000">diffx</text>
</a>
</g>
</g>
<!-- Node0&#45;&gt;Node7 -->
<g id="edge9" class="edge">
<title>Node0&#45;&gt;Node7</title>
<path fill="none" stroke="#191970" d="M47.0319,-86C79.6764,-86 138.6813,-86 174.1595,-86"/>
<polygon fill="#191970" stroke="#191970" points="174.3594,-89.5001 184.3594,-86 174.3594,-82.5001 174.3594,-89.5001"/>
</g>
<!-- Node8 -->
<g id="node9" class="node">
<title>Node8</title>
<g id="a_node9"><a xlink:href="diffy_8f90.xhtml#acaab050750db5ae540e1cbd7e634df5c" target="_top" xlink:title="Routines to calculate horizontal derivatives. ">
<polygon fill="#ffffff" stroke="#000000" points="95.5,-38.5 95.5,-57.5 133.5,-57.5 133.5,-38.5 95.5,-38.5"/>
<text text-anchor="middle" x="114.5" y="-45.5" font-family="Helvetica,sans-Serif" font-size="10.00" fill="#000000">diffy</text>
</a>
</g>
</g>
<!-- Node0&#45;&gt;Node8 -->
<g id="edge11" class="edge">
<title>Node0&#45;&gt;Node8</title>
<path fill="none" stroke="#191970" d="M46.4631,-76.411C58.4629,-71.4001 73.2606,-65.2208 85.9878,-59.9062"/>
<polygon fill="#191970" stroke="#191970" points="87.3569,-63.1274 95.236,-56.0443 84.6595,-56.668 87.3569,-63.1274"/>
</g>
<!-- Node9 -->
<g id="node10" class="node">
<title>Node9</title>
<g id="a_node10"><a xlink:href="duttoncat_8f90.xhtml#ac08ee7f6c35bec22c171bba4e6c65a79" target="_top" xlink:title="Routines to calculate Clear Air Turbulence diagnostics. ">
<polygon fill="#ffffff" stroke="#000000" points="83,-.5 83,-19.5 146,-19.5 146,-.5 83,-.5"/>
<text text-anchor="middle" x="114.5" y="-7.5" font-family="Helvetica,sans-Serif" font-size="10.00" fill="#000000">duttoncat</text>
</a>
</g>
</g>
<!-- Node0&#45;&gt;Node9 -->
<g id="edge12" class="edge">
<title>Node0&#45;&gt;Node9</title>
<path fill="none" stroke="#191970" d="M32.2038,-76.4472C43.3193,-64.5455 63.4626,-43.9559 83,-29 84.7718,-27.6437 86.6466,-26.3037 88.5635,-25.0009"/>
<polygon fill="#191970" stroke="#191970" points="90.4966,-27.9193 97.046,-19.5913 86.7326,-22.0173 90.4966,-27.9193"/>
</g>
<!-- Node2 -->
<g id="node3" class="node">
<title>Node2</title>
<g id="a_node3"><a xlink:href="namespaceumprintmgr.xhtml#aae44897e556705dbf5e945a26538be9a" target="_top" xlink:title="umprintmgr::umprint">
<polygon fill="#ffffff" stroke="#000000" points="261,-95.5 261,-114.5 380,-114.5 380,-95.5 261,-95.5"/>
<text text-anchor="middle" x="320.5" y="-102.5" font-family="Helvetica,sans-Serif" font-size="10.00" fill="#000000">umprintmgr::umprint</text>
</a>
</g>
</g>
<!-- Node1&#45;&gt;Node2 -->
<g id="edge2" class="edge">
<title>Node1&#45;&gt;Node2</title>
<path fill="none" stroke="#191970" d="M225.2326,-120.4708C232.9821,-119.2123 242.1792,-117.7188 251.7543,-116.1638"/>
<polygon fill="#191970" stroke="#191970" points="252.515,-119.5862 261.8246,-114.5285 251.3928,-112.6768 252.515,-119.5862"/>
</g>
<!-- Node3 -->
<g id="node4" class="node">
<title>Node3</title>
<g id="a_node4"><a xlink:href="namespaceumprintmgr.xhtml#a088ce22a18d574e9df7ee1850bfb10c7" target="_top" xlink:title="umprintmgr::umprintopenstream">
<polygon fill="#ffffff" stroke="#000000" points="416,-95.5 416,-114.5 593,-114.5 593,-95.5 416,-95.5"/>
<text text-anchor="middle" x="504.5" y="-102.5" font-family="Helvetica,sans-Serif" font-size="10.00" fill="#000000">umprintmgr::umprintopenstream</text>
</a>
</g>
</g>
<!-- Node2&#45;&gt;Node3 -->
<g id="edge3" class="edge">
<title>Node2&#45;&gt;Node3</title>
<path fill="none" stroke="#191970" d="M380.2395,-98.6333C388.4605,-98.4301 397.0751,-98.3077 405.7702,-98.2661"/>
<polygon fill="#191970" stroke="#191970" points="405.9998,-101.7659 415.9958,-98.2543 405.9917,-94.7659 405.9998,-101.7659"/>
</g>
<!-- Node4 -->
<g id="node5" class="node">
<title>Node4</title>
<g id="a_node5"><a xlink:href="namespaceumprintmgr.xhtml#ad3a290b30a6e25500eabc0bf90330b77" target="_top" xlink:title="umprintmgr::umprintflush">
<polygon fill="#ffffff" stroke="#000000" points="433.5,-57.5 433.5,-76.5 575.5,-76.5 575.5,-57.5 433.5,-57.5"/>
<text text-anchor="middle" x="504.5" y="-64.5" font-family="Helvetica,sans-Serif" font-size="10.00" fill="#000000">umprintmgr::umprintflush</text>
</a>
</g>
</g>
<!-- Node2&#45;&gt;Node4 -->
<g id="edge5" class="edge">
<title>Node2&#45;&gt;Node4</title>
<path fill="none" stroke="#191970" d="M366.931,-95.411C391.6493,-90.3061 422.239,-83.9887 448.292,-78.6082"/>
<polygon fill="#191970" stroke="#191970" points="449.3175,-81.9703 458.4029,-76.5201 447.9017,-75.115 449.3175,-81.9703"/>
</g>
<!-- Node3&#45;&gt;Node2 -->
<g id="edge4" class="edge">
<title>Node3&#45;&gt;Node2</title>
<path fill="none" stroke="#191970" d="M415.9958,-111.7457C407.3802,-111.767 398.7236,-111.7094 390.3289,-111.5727"/>
<polygon fill="#191970" stroke="#191970" points="390.3089,-108.0716 380.2395,-111.3667 390.166,-115.0702 390.3089,-108.0716"/>
</g>
<!-- Node5 -->
<g id="node6" class="node">
<title>Node5</title>
<g id="a_node6"><a xlink:href="namespaceumflush__mod.xhtml#a3a003ab59990bdcb712b443dd5e0d1cd" target="_top" xlink:title="umflush_mod::umflush">
<polygon fill="#ffffff" stroke="#000000" points="629,-57.5 629,-76.5 757,-76.5 757,-57.5 629,-57.5"/>
<text text-anchor="middle" x="693" y="-64.5" font-family="Helvetica,sans-Serif" font-size="10.00" fill="#000000">umflush_mod::umflush</text>
</a>
</g>
</g>
<!-- Node4&#45;&gt;Node5 -->
<g id="edge6" class="edge">
<title>Node4&#45;&gt;Node5</title>
<path fill="none" stroke="#191970" d="M575.7638,-67C589.7742,-67 604.5063,-67 618.6162,-67"/>
<polygon fill="#191970" stroke="#191970" points="618.7612,-70.5001 628.7611,-67 618.7611,-63.5001 618.7612,-70.5001"/>
</g>
<!-- Node6&#45;&gt;Node1 -->
<g id="edge8" class="edge">
<title>Node6&#45;&gt;Node1</title>
<path fill="none" stroke="#191970" d="M133.8117,-124C144.8353,-124 158.9339,-124 171.5623,-124"/>
<polygon fill="#191970" stroke="#191970" points="171.7246,-127.5001 181.7246,-124 171.7246,-120.5001 171.7246,-127.5001"/>
</g>
<!-- Node7&#45;&gt;Node2 -->
<g id="edge10" class="edge">
<title>Node7&#45;&gt;Node2</title>
<path fill="none" stroke="#191970" d="M222.5585,-89.095C230.8377,-90.4395 241.0898,-92.1043 251.813,-93.8457"/>
<polygon fill="#191970" stroke="#191970" points="251.3185,-97.3112 261.7503,-95.4594 252.4406,-90.4017 251.3185,-97.3112"/>
</g>
</g>
</svg>
