<?xml version="1.0" encoding="UTF-8" standalone="no"?>
<!DOCTYPE svg PUBLIC "-//W3C//DTD SVG 1.1//EN"
 "http://www.w3.org/Graphics/SVG/1.1/DTD/svg11.dtd">
<!-- Generated by graphviz version 2.40.1 (20161225.0304)
 -->
<!-- Title: cloud_w_4a5a Pages: 1 -->
<svg width="1298pt" height="256pt"
 viewBox="0.00 0.00 1298.00 256.00" xmlns="http://www.w3.org/2000/svg" xmlns:xlink="http://www.w3.org/1999/xlink">
<g id="graph0" class="graph" transform="scale(1 1) rotate(0) translate(4 252)">
<title>cloud_w_4a5a</title>
<polygon fill="#ffffff" stroke="transparent" points="-4,4 -4,-252 1294,-252 1294,4 -4,4"/>
<!-- Node2 -->
<g id="node1" class="node">
<title>Node2</title>
<polygon fill="#bfbfbf" stroke="#000000" points="0,-114.5 0,-133.5 86,-133.5 86,-114.5 0,-114.5"/>
<text text-anchor="middle" x="43" y="-121.5" font-family="Helvetica,sans-Serif" font-size="10.00" fill="#000000">cloud_w_4a5a</text>
</g>
<!-- Node3 -->
<g id="node2" class="node">
<title>Node3</title>
<g id="a_node2"><a xlink:href="parcel-parcel4a_8f90.xhtml#a0a5729491c30601478bf7dba9a99d975" target="_top" xlink:title="Completes lifting of the parcel from layer k to k+1. ">
<polygon fill="#ffffff" stroke="#000000" points="122,-114.5 122,-133.5 198,-133.5 198,-114.5 122,-114.5"/>
<text text-anchor="middle" x="160" y="-121.5" font-family="Helvetica,sans-Serif" font-size="10.00" fill="#000000">parcel_4a5a</text>
</a>
</g>
</g>
<!-- Node2&#45;&gt;Node3 -->
<g id="edge1" class="edge">
<title>Node2&#45;&gt;Node3</title>
<path fill="none" stroke="#191970" d="M96.283,-124C104.9424,-124 113.7556,-124 121.9553,-124"/>
<polygon fill="#191970" stroke="#191970" points="96.2341,-120.5001 86.2341,-124 96.234,-127.5001 96.2341,-120.5001"/>
</g>
<!-- Node4 -->
<g id="node3" class="node">
<title>Node4</title>
<g id="a_node3"><a xlink:href="convec2-conv24a_8f90.xhtml#a9b41c79077663aeb17d05e1d1061d13a" target="_top" xlink:title="Completes lifting of the parcel from layer k to k+1. ">
<polygon fill="#ffffff" stroke="#000000" points="234,-114.5 234,-133.5 320,-133.5 320,-114.5 234,-114.5"/>
<text text-anchor="middle" x="277" y="-121.5" font-family="Helvetica,sans-Serif" font-size="10.00" fill="#000000">convec2_4a5a</text>
</a>
</g>
</g>
<!-- Node3&#45;&gt;Node4 -->
<g id="edge2" class="edge">
<title>Node3&#45;&gt;Node4</title>
<path fill="none" stroke="#191970" d="M208.3751,-124C216.7834,-124 225.4796,-124 233.74,-124"/>
<polygon fill="#191970" stroke="#191970" points="208.3102,-120.5001 198.3102,-124 208.3101,-127.5001 208.3102,-120.5001"/>
</g>
<!-- Node5 -->
<g id="node4" class="node">
<title>Node5</title>
<g id="a_node4"><a xlink:href="congest__conv_8f90.xhtml#a7c8195a99d74e6fe8fb182bba742ffed" target="_top" xlink:title="Congestus convection scheme. ">
<polygon fill="#ffffff" stroke="#000000" points="364.5,-228.5 364.5,-247.5 447.5,-247.5 447.5,-228.5 364.5,-228.5"/>
<text text-anchor="middle" x="406" y="-235.5" font-family="Helvetica,sans-Serif" font-size="10.00" fill="#000000">congest_conv</text>
</a>
</g>
</g>
<!-- Node4&#45;&gt;Node5 -->
<g id="edge3" class="edge">
<title>Node4&#45;&gt;Node5</title>
<path fill="none" stroke="#191970" d="M288.1339,-142.4468C301.7457,-163.5931 326.6318,-198.0284 356,-219 361.29,-222.7776 367.4255,-225.9098 373.5485,-228.4673"/>
<polygon fill="#191970" stroke="#191970" points="290.9702,-140.3814 282.6975,-133.7622 285.0368,-144.0955 290.9702,-140.3814"/>
</g>
<!-- Node17 -->
<g id="node16" class="node">
<title>Node17</title>
<g id="a_node16"><a xlink:href="deep__conv-dpconv4a_8f90.xhtml#a4a054214a4fde2ea5c75f564b22b7730" target="_top" xlink:title="Deep convection scheme. ">
<polygon fill="#ffffff" stroke="#000000" points="363,-76.5 363,-95.5 449,-95.5 449,-76.5 363,-76.5"/>
<text text-anchor="middle" x="406" y="-83.5" font-family="Helvetica,sans-Serif" font-size="10.00" fill="#000000">deep_conv_4a</text>
</a>
</g>
</g>
<!-- Node4&#45;&gt;Node17 -->
<g id="edge16" class="edge">
<title>Node4&#45;&gt;Node17</title>
<path fill="none" stroke="#191970" d="M319.554,-111.4647C337.103,-106.2952 357.1127,-100.4009 373.4583,-95.5859"/>
<polygon fill="#191970" stroke="#191970" points="318.1556,-108.2279 309.5521,-114.411 320.1336,-114.9426 318.1556,-108.2279"/>
</g>
<!-- Node19 -->
<g id="node18" class="node">
<title>Node19</title>
<g id="a_node18"><a xlink:href="deep__conv-dpconv5a_8f90.xhtml#ae86fee3769d20ffd6fc73ad19a1cf983" target="_top" xlink:title="Deep convection scheme. ">
<polygon fill="#ffffff" stroke="#000000" points="363,-190.5 363,-209.5 449,-209.5 449,-190.5 363,-190.5"/>
<text text-anchor="middle" x="406" y="-197.5" font-family="Helvetica,sans-Serif" font-size="10.00" fill="#000000">deep_conv_5a</text>
</a>
</g>
</g>
<!-- Node4&#45;&gt;Node19 -->
<g id="edge19" class="edge">
<title>Node4&#45;&gt;Node19</title>
<path fill="none" stroke="#191970" d="M295.9245,-139.8361C311.3706,-152.2091 334.1397,-169.225 356,-181 362.5405,-184.523 369.8759,-187.6996 376.8708,-190.4022"/>
<polygon fill="#191970" stroke="#191970" points="298.1129,-137.1044 288.1491,-133.5026 293.692,-142.5318 298.1129,-137.1044"/>
</g>
<!-- Node20 -->
<g id="node19" class="node">
<title>Node20</title>
<g id="a_node19"><a xlink:href="mid__conv-mdconv4a_8f90.xhtml#a27f844a5905bbf9765e10d27e2f7e157" target="_top" xlink:title="Mid&#45;level convection scheme. ">
<polygon fill="#ffffff" stroke="#000000" points="365.5,-38.5 365.5,-57.5 446.5,-57.5 446.5,-38.5 365.5,-38.5"/>
<text text-anchor="middle" x="406" y="-45.5" font-family="Helvetica,sans-Serif" font-size="10.00" fill="#000000">mid_conv_4a</text>
</a>
</g>
</g>
<!-- Node4&#45;&gt;Node20 -->
<g id="edge21" class="edge">
<title>Node4&#45;&gt;Node20</title>
<path fill="none" stroke="#191970" d="M295.9245,-108.1639C311.3706,-95.7909 334.1397,-78.775 356,-67 362.5405,-63.477 369.8759,-60.3004 376.8708,-57.5978"/>
<polygon fill="#191970" stroke="#191970" points="293.692,-105.4682 288.1491,-114.4974 298.1129,-110.8956 293.692,-105.4682"/>
</g>
<!-- Node21 -->
<g id="node20" class="node">
<title>Node21</title>
<g id="a_node20"><a xlink:href="mid__conv-mdconv5a_8f90.xhtml#ab66fee07f6cbf1091693ce2ebca374e0" target="_top" xlink:title="Mid&#45;level convection scheme. ">
<polygon fill="#ffffff" stroke="#000000" points="365.5,-152.5 365.5,-171.5 446.5,-171.5 446.5,-152.5 365.5,-152.5"/>
<text text-anchor="middle" x="406" y="-159.5" font-family="Helvetica,sans-Serif" font-size="10.00" fill="#000000">mid_conv_5a</text>
</a>
</g>
</g>
<!-- Node4&#45;&gt;Node21 -->
<g id="edge23" class="edge">
<title>Node4&#45;&gt;Node21</title>
<path fill="none" stroke="#191970" d="M319.554,-136.5353C337.103,-141.7048 357.1127,-147.5991 373.4583,-152.4141"/>
<polygon fill="#191970" stroke="#191970" points="320.1336,-133.0574 309.5521,-133.589 318.1556,-139.7721 320.1336,-133.0574"/>
</g>
<!-- Node22 -->
<g id="node21" class="node">
<title>Node22</title>
<g id="a_node21"><a xlink:href="shallow__conv-shconv4a_8f90.xhtml#aee87339d94d1e5bd657d531a71992cf3" target="_top" xlink:title="Shallow convection scheme. ">
<polygon fill="#ffffff" stroke="#000000" points="356,-.5 356,-19.5 456,-19.5 456,-.5 356,-.5"/>
<text text-anchor="middle" x="406" y="-7.5" font-family="Helvetica,sans-Serif" font-size="10.00" fill="#000000">shallow_conv_4a</text>
</a>
</g>
</g>
<!-- Node4&#45;&gt;Node22 -->
<g id="edge25" class="edge">
<title>Node4&#45;&gt;Node22</title>
<path fill="none" stroke="#191970" d="M288.1339,-105.5532C301.7457,-84.4069 326.6318,-49.9716 356,-29 361.29,-25.2224 367.4255,-22.0902 373.5485,-19.5327"/>
<polygon fill="#191970" stroke="#191970" points="285.0368,-103.9045 282.6975,-114.2378 290.9702,-107.6186 285.0368,-103.9045"/>
</g>
<!-- Node23 -->
<g id="node22" class="node">
<title>Node23</title>
<g id="a_node22"><a xlink:href="shallow__conv-shconv5a_8f90.xhtml#a9ee8df16ba28e0c3503e5d848118c242" target="_top" xlink:title="Shallow convection scheme. ">
<polygon fill="#ffffff" stroke="#000000" points="356,-114.5 356,-133.5 456,-133.5 456,-114.5 356,-114.5"/>
<text text-anchor="middle" x="406" y="-121.5" font-family="Helvetica,sans-Serif" font-size="10.00" fill="#000000">shallow_conv_5a</text>
</a>
</g>
</g>
<!-- Node4&#45;&gt;Node23 -->
<g id="edge27" class="edge">
<title>Node4&#45;&gt;Node23</title>
<path fill="none" stroke="#191970" d="M330.4254,-124C338.8538,-124 347.5422,-124 355.8915,-124"/>
<polygon fill="#191970" stroke="#191970" points="330.314,-120.5001 320.314,-124 330.314,-127.5001 330.314,-120.5001"/>
</g>
<!-- Node6 -->
<g id="node5" class="node">
<title>Node6</title>
<g id="a_node5"><a xlink:href="namespaceglue__conv__5a__mod.xhtml#a0a2a4645b74dadcd85116112a3eb1255" target="_top" xlink:title="Gather&#45;scatter routine for deep and shallow convection points. ">
<polygon fill="#ffffff" stroke="#000000" points="492,-147 492,-177 629,-177 629,-147 492,-147"/>
<text text-anchor="start" x="500" y="-165" font-family="Helvetica,sans-Serif" font-size="10.00" fill="#000000">glue_conv_5a_mod::glue</text>
<text text-anchor="middle" x="560.5" y="-154" font-family="Helvetica,sans-Serif" font-size="10.00" fill="#000000">_conv_5a</text>
</a>
</g>
</g>
<!-- Node5&#45;&gt;Node6 -->
<g id="edge4" class="edge">
<title>Node5&#45;&gt;Node6</title>
<path fill="none" stroke="#191970" d="M442.9048,-224.6308C447.3547,-222.8268 451.8057,-220.9299 456,-219 483.7851,-206.2152 514.3705,-189.1618 535.2319,-177.0484"/>
<polygon fill="#191970" stroke="#191970" points="441.2989,-221.5009 433.2653,-228.4083 443.8529,-228.0184 441.2989,-221.5009"/>
</g>
<!-- Node7 -->
<g id="node6" class="node">
<title>Node7</title>
<g id="a_node6"><a xlink:href="ni__conv__ctl_8f90.xhtml#a9923a06c286e88170babe094e612732d" target="_top" xlink:title="Subroutine NI_conv_ctl. ">
<polygon fill="#ffffff" stroke="#000000" points="665,-114.5 665,-133.5 736,-133.5 736,-114.5 665,-114.5"/>
<text text-anchor="middle" x="700.5" y="-121.5" font-family="Helvetica,sans-Serif" font-size="10.00" fill="#000000">ni_conv_ctl</text>
</a>
</g>
</g>
<!-- Node6&#45;&gt;Node7 -->
<g id="edge5" class="edge">
<title>Node6&#45;&gt;Node7</title>
<path fill="none" stroke="#191970" d="M625.6975,-144.3035C639.3469,-140.5987 653.241,-136.8275 665.2907,-133.5568"/>
<polygon fill="#191970" stroke="#191970" points="624.5657,-140.984 615.8317,-146.9814 626.3994,-147.7396 624.5657,-140.984"/>
</g>
<!-- Node8 -->
<g id="node7" class="node">
<title>Node8</title>
<g id="a_node7"><a xlink:href="atmos__physics2_8f90.xhtml#a0f74e8c75312201121b305cd566b175a" target="_top" xlink:title="Interface to Atmos Physics parametrizations after S&#45;L advection. ">
<polygon fill="#ffffff" stroke="#000000" points="772,-114.5 772,-133.5 867,-133.5 867,-114.5 772,-114.5"/>
<text text-anchor="middle" x="819.5" y="-121.5" font-family="Helvetica,sans-Serif" font-size="10.00" fill="#000000">atmos_physics2</text>
</a>
</g>
</g>
<!-- Node7&#45;&gt;Node8 -->
<g id="edge6" class="edge">
<title>Node7&#45;&gt;Node8</title>
<path fill="none" stroke="#191970" d="M746.2309,-124C754.6494,-124 763.457,-124 771.9283,-124"/>
<polygon fill="#191970" stroke="#191970" points="746.204,-120.5001 736.2039,-124 746.2039,-127.5001 746.204,-120.5001"/>
</g>
<!-- Node9 -->
<g id="node8" class="node">
<title>Node9</title>
<g id="a_node8"><a xlink:href="atm__step_8f90.xhtml#ac0ee2467a1a9959b7065fdb8fd27bce4" target="_top" xlink:title="Perform a 1&#45;timestep integration of the Atmosphere Model. ">
<polygon fill="#ffffff" stroke="#000000" points="912,-152.5 912,-171.5 974,-171.5 974,-152.5 912,-152.5"/>
<text text-anchor="middle" x="943" y="-159.5" font-family="Helvetica,sans-Serif" font-size="10.00" fill="#000000">atm_step</text>
</a>
</g>
</g>
<!-- Node8&#45;&gt;Node9 -->
<g id="edge7" class="edge">
<title>Node8&#45;&gt;Node9</title>
<path fill="none" stroke="#191970" d="M860.2397,-136.5353C877.0405,-141.7048 896.197,-147.5991 911.8457,-152.4141"/>
<polygon fill="#191970" stroke="#191970" points="861.2514,-133.1847 850.6643,-133.589 859.1927,-139.8752 861.2514,-133.1847"/>
</g>
<!-- Node13 -->
<g id="node12" class="node">
<title>Node13</title>
<g id="a_node12"><a xlink:href="atm__step__4_a_8f90.xhtml#a2319aa4963e90c64cd78bdcd5f481095" target="_top" xlink:title="Perform a 1&#45;timestep integration of the Atmosphere Model. ">
<polygon fill="#ffffff" stroke="#000000" points="903,-114.5 903,-133.5 983,-133.5 983,-114.5 903,-114.5"/>
<text text-anchor="middle" x="943" y="-121.5" font-family="Helvetica,sans-Serif" font-size="10.00" fill="#000000">atm_step_4a</text>
</a>
</g>
</g>
<!-- Node8&#45;&gt;Node13 -->
<g id="edge11" class="edge">
<title>Node8&#45;&gt;Node13</title>
<path fill="none" stroke="#191970" d="M877.3434,-124C886.0185,-124 894.7967,-124 902.9897,-124"/>
<polygon fill="#191970" stroke="#191970" points="877.2484,-120.5001 867.2483,-124 877.2483,-127.5001 877.2484,-120.5001"/>
</g>
<!-- Node15 -->
<g id="node14" class="node">
<title>Node15</title>
<g id="a_node14"><a xlink:href="scm__main_8f90.xhtml#a2c730136605550612e094ce51d33a2a5" target="_top" xlink:title="*********************************COPYRIGHT********************************* ">
<polygon fill="#ffffff" stroke="#000000" points="909.5,-76.5 909.5,-95.5 976.5,-95.5 976.5,-76.5 909.5,-76.5"/>
<text text-anchor="middle" x="943" y="-83.5" font-family="Helvetica,sans-Serif" font-size="10.00" fill="#000000">scm_main</text>
</a>
</g>
</g>
<!-- Node8&#45;&gt;Node15 -->
<g id="edge14" class="edge">
<title>Node8&#45;&gt;Node15</title>
<path fill="none" stroke="#191970" d="M860.2397,-111.4647C877.0405,-106.2952 896.197,-100.4009 911.8457,-95.5859"/>
<polygon fill="#191970" stroke="#191970" points="859.1927,-108.1248 850.6643,-114.411 861.2514,-114.8153 859.1927,-108.1248"/>
</g>
<!-- Node10 -->
<g id="node9" class="node">
<title>Node10</title>
<g id="a_node9"><a xlink:href="u__model_8f90.xhtml#ada0cd2ce4699433bf0f9adbd882c8eec" target="_top" xlink:title="Subroutine: U_MODEL &#45;!&gt; ">
<polygon fill="#ffffff" stroke="#000000" points="1027.5,-152.5 1027.5,-171.5 1086.5,-171.5 1086.5,-152.5 1027.5,-152.5"/>
<text text-anchor="middle" x="1057" y="-159.5" font-family="Helvetica,sans-Serif" font-size="10.00" fill="#000000">u_model</text>
</a>
</g>
</g>
<!-- Node9&#45;&gt;Node10 -->
<g id="edge8" class="edge">
<title>Node9&#45;&gt;Node10</title>
<path fill="none" stroke="#191970" d="M984.2532,-162C998.5539,-162 1014.2895,-162 1027.4568,-162"/>
<polygon fill="#191970" stroke="#191970" points="984.151,-158.5001 974.151,-162 984.151,-165.5001 984.151,-158.5001"/>
</g>
<!-- Node11 -->
<g id="node10" class="node">
<title>Node11</title>
<g id="a_node10"><a xlink:href="um__shell_8f90.xhtml#a8c9bd25362824a5c301376ecb5ed5c27" target="_top" xlink:title="Subroutine: UM_SHELL !&gt; ">
<polygon fill="#ffffff" stroke="#000000" points="1131,-133.5 1131,-152.5 1192,-152.5 1192,-133.5 1131,-133.5"/>
<text text-anchor="middle" x="1161.5" y="-140.5" font-family="Helvetica,sans-Serif" font-size="10.00" fill="#000000">um_shell</text>
</a>
</g>
</g>
<!-- Node10&#45;&gt;Node11 -->
<g id="edge9" class="edge">
<title>Node10&#45;&gt;Node11</title>
<path fill="none" stroke="#191970" d="M1096.701,-154.7816C1107.951,-152.7362 1120.0261,-150.5407 1130.6677,-148.6059"/>
<polygon fill="#191970" stroke="#191970" points="1095.8786,-151.3737 1086.666,-156.6062 1097.1308,-158.2608 1095.8786,-151.3737"/>
</g>
<!-- Node12 -->
<g id="node11" class="node">
<title>Node12</title>
<g id="a_node11"><a xlink:href="um__main_8f90.xhtml#a8f2d13215621443a5313261c282f098b" target="_top" xlink:title="Code Owner: See Unified Model Code Owner&#39;s HTML page. ">
<polygon fill="#ffffff" stroke="#000000" points="1228,-133.5 1228,-152.5 1290,-152.5 1290,-133.5 1228,-133.5"/>
<text text-anchor="middle" x="1259" y="-140.5" font-family="Helvetica,sans-Serif" font-size="10.00" fill="#000000">um_main</text>
</a>
</g>
</g>
<!-- Node11&#45;&gt;Node12 -->
<g id="edge10" class="edge">
<title>Node11&#45;&gt;Node12</title>
<path fill="none" stroke="#191970" d="M1202.2756,-143C1210.8294,-143 1219.72,-143 1227.8551,-143"/>
<polygon fill="#191970" stroke="#191970" points="1202.0821,-139.5001 1192.0821,-143 1202.0821,-146.5001 1202.0821,-139.5001"/>
</g>
<!-- Node14 -->
<g id="node13" class="node">
<title>Node14</title>
<g id="a_node13"><a xlink:href="u__model__4_a_8f90.xhtml#afa05064dab5eba198b461d0928767c7e" target="_top" xlink:title="LL Subroutine: U_MODEL_4A (ENDGAME VERSION) !&gt;LL. ">
<polygon fill="#ffffff" stroke="#000000" points="1019,-114.5 1019,-133.5 1095,-133.5 1095,-114.5 1019,-114.5"/>
<text text-anchor="middle" x="1057" y="-121.5" font-family="Helvetica,sans-Serif" font-size="10.00" fill="#000000">u_model_4a</text>
</a>
</g>
</g>
<!-- Node13&#45;&gt;Node14 -->
<g id="edge12" class="edge">
<title>Node13&#45;&gt;Node14</title>
<path fill="none" stroke="#191970" d="M993.3998,-124C1001.891,-124 1010.5803,-124 1018.7002,-124"/>
<polygon fill="#191970" stroke="#191970" points="993.1922,-120.5001 983.1921,-124 993.1921,-127.5001 993.1922,-120.5001"/>
</g>
<!-- Node14&#45;&gt;Node11 -->
<g id="edge13" class="edge">
<title>Node14&#45;&gt;Node11</title>
<path fill="none" stroke="#191970" d="M1104.8728,-132.7041C1113.7087,-134.3107 1122.7128,-135.9478 1130.8647,-137.43"/>
<polygon fill="#191970" stroke="#191970" points="1105.4873,-129.2586 1095.0225,-130.9132 1104.2351,-136.1457 1105.4873,-129.2586"/>
</g>
<!-- Node16 -->
<g id="node15" class="node">
<title>Node16</title>
<g id="a_node15"><a xlink:href="scm__shell_8f90.xhtml#ab15255829ee7b5be626b1c0861b40c8d" target="_top" xlink:title="scm_shell is the main calling program for the Single Column Model. ">
<polygon fill="#ffffff" stroke="#000000" points="1024.5,-76.5 1024.5,-95.5 1089.5,-95.5 1089.5,-76.5 1024.5,-76.5"/>
<text text-anchor="middle" x="1057" y="-83.5" font-family="Helvetica,sans-Serif" font-size="10.00" fill="#000000">scm_shell</text>
</a>
</g>
</g>
<!-- Node15&#45;&gt;Node16 -->
<g id="edge15" class="edge">
<title>Node15&#45;&gt;Node16</title>
<path fill="none" stroke="#191970" d="M986.8248,-86C999.3307,-86 1012.7319,-86 1024.4371,-86"/>
<polygon fill="#191970" stroke="#191970" points="986.5872,-82.5001 976.5872,-86 986.5871,-89.5001 986.5872,-82.5001"/>
</g>
<!-- Node18 -->
<g id="node17" class="node">
<title>Node18</title>
<g id="a_node17"><a xlink:href="namespaceglue__conv__4a__mod.xhtml#a4cb48dc3e9cfb0ea5d0daf6d1889ed9b" target="_top" xlink:title="Gather&#45;scatter routine for deep and shallow convection points. ">
<polygon fill="#ffffff" stroke="#000000" points="492,-52 492,-82 629,-82 629,-52 492,-52"/>
<text text-anchor="start" x="500" y="-70" font-family="Helvetica,sans-Serif" font-size="10.00" fill="#000000">glue_conv_4a_mod::glue</text>
<text text-anchor="middle" x="560.5" y="-59" font-family="Helvetica,sans-Serif" font-size="10.00" fill="#000000">_conv_4a</text>
</a>
</g>
</g>
<!-- Node17&#45;&gt;Node18 -->
<g id="edge17" class="edge">
<title>Node17&#45;&gt;Node18</title>
<path fill="none" stroke="#191970" d="M458.9715,-79.4857C469.5821,-78.1808 480.8729,-76.7923 491.924,-75.4333"/>
<polygon fill="#191970" stroke="#191970" points="458.5349,-76.0129 449.0369,-80.7074 459.3893,-82.9606 458.5349,-76.0129"/>
</g>
<!-- Node18&#45;&gt;Node7 -->
<g id="edge18" class="edge">
<title>Node18&#45;&gt;Node7</title>
<path fill="none" stroke="#191970" d="M607.0615,-85.9572C630.4531,-95.4809 657.7922,-106.6118 676.8313,-114.3635"/>
<polygon fill="#191970" stroke="#191970" points="608.2315,-82.6546 597.6499,-82.1253 605.5918,-89.1379 608.2315,-82.6546"/>
</g>
<!-- Node19&#45;&gt;Node6 -->
<g id="edge20" class="edge">
<title>Node19&#45;&gt;Node6</title>
<path fill="none" stroke="#191970" d="M454.9465,-187.9614C469.0221,-184.4994 484.5524,-180.6797 499.2711,-177.0595"/>
<polygon fill="#191970" stroke="#191970" points="453.8615,-184.6238 444.9869,-190.411 455.5334,-191.4213 453.8615,-184.6238"/>
</g>
<!-- Node20&#45;&gt;Node18 -->
<g id="edge22" class="edge">
<title>Node20&#45;&gt;Node18</title>
<path fill="none" stroke="#191970" d="M456.6422,-54.2278C467.8818,-55.6101 479.9776,-57.0976 491.8027,-58.5518"/>
<polygon fill="#191970" stroke="#191970" points="456.9455,-50.7389 446.5931,-52.992 456.0911,-57.6865 456.9455,-50.7389"/>
</g>
<!-- Node21&#45;&gt;Node6 -->
<g id="edge24" class="edge">
<title>Node21&#45;&gt;Node6</title>
<path fill="none" stroke="#191970" d="M456.6422,-162C467.8818,-162 479.9776,-162 491.8027,-162"/>
<polygon fill="#191970" stroke="#191970" points="456.5931,-158.5001 446.5931,-162 456.593,-165.5001 456.5931,-158.5001"/>
</g>
<!-- Node22&#45;&gt;Node18 -->
<g id="edge26" class="edge">
<title>Node22&#45;&gt;Node18</title>
<path fill="none" stroke="#191970" d="M441.374,-23.0506C464.7099,-31.66 495.3523,-42.9649 519.7151,-51.9532"/>
<polygon fill="#191970" stroke="#191970" points="442.4532,-19.7182 431.8598,-19.5405 440.0302,-26.2855 442.4532,-19.7182"/>
</g>
<!-- Node23&#45;&gt;Node6 -->
<g id="edge28" class="edge">
<title>Node23&#45;&gt;Node6</title>
<path fill="none" stroke="#191970" d="M454.9465,-136.0386C469.0221,-139.5006 484.5524,-143.3203 499.2711,-146.9405"/>
<polygon fill="#191970" stroke="#191970" points="455.5334,-132.5787 444.9869,-133.589 453.8615,-139.3762 455.5334,-132.5787"/>
</g>
</g>
</svg>
