<?xml version="1.0" encoding="UTF-8" standalone="no"?>
<!DOCTYPE svg PUBLIC "-//W3C//DTD SVG 1.1//EN"
 "http://www.w3.org/Graphics/SVG/1.1/DTD/svg11.dtd">
<!-- Generated by graphviz version 2.40.1 (20161225.0304)
 -->
<!-- Title: compare Pages: 1 -->
<!--zoomable 165 -->
<svg id="main" version="1.1" xmlns="http://www.w3.org/2000/svg" xmlns:xlink="http://www.w3.org/1999/xlink" xml:space="preserve" onload="init(evt)">
<style type="text/css"><![CDATA[
.edge:hover path { stroke: red; }
.edge:hover polygon { stroke: red; fill: red; }
]]></style>
<script type="text/javascript"><![CDATA[
var edges = document.getElementsByTagName('g');
if (edges && edges.length) {
  for (var i=0;i<edges.length;i++) {
    if (edges[i].id.substr(0,4)=='edge') {
      edges[i].setAttribute('class','edge');
    }
  }
}
]]></script>
        <defs>
                <circle id="rim" cx="0" cy="0" r="7"/>
                <circle id="rim2" cx="0" cy="0" r="3.5"/>
                <g id="zoomPlus">
                        <use xlink:href="#rim" fill="#404040">
                                <set attributeName="fill" to="#808080" begin="zoomplus.mouseover" end="zoomplus.mouseout"/>
                        </use>
                        <path d="M-4,0h8M0,-4v8" fill="none" stroke="white" stroke-width="1.5" pointer-events="none"/>
                </g>
                <g id="zoomMin">
                        <use xlink:href="#rim" fill="#404040">
                                <set attributeName="fill" to="#808080" begin="zoomminus.mouseover" end="zoomminus.mouseout"/>
                        </use>
                        <path d="M-4,0h8" fill="none" stroke="white" stroke-width="1.5" pointer-events="none"/>
                </g>
                <g id="dirArrow">
                        <path fill="none" stroke="white" stroke-width="1.5" d="M0,-3.0v7 M-2.5,-0.5L0,-3.0L2.5,-0.5"/>
                </g>
               <g id="resetDef">
                       <use xlink:href="#rim2" fill="#404040">
                               <set attributeName="fill" to="#808080" begin="reset.mouseover" end="reset.mouseout"/>
                       </use>
               </g>
        </defs>

<script type="text/javascript">
var viewWidth = 769;
var viewHeight = 165;
var sectionId = 'dynsection-1';
</script>
<script xlink:href="svgpan.js"/>
<svg id="graph" class="graph">
<g id="viewport">
<title>compare</title>
<polygon fill="#ffffff" stroke="transparent" points="-4,4 -4,-160.5 765,-160.5 765,4 -4,4"/>
<!-- Node178 -->
<g id="node1" class="node">
<title>Node178</title>
<polygon fill="#bfbfbf" stroke="#000000" points="0,-77 0,-96 59,-96 59,-77 0,-77"/>
<text text-anchor="middle" x="29.5" y="-84" font-family="Helvetica,sans-Serif" font-size="10.00" fill="#000000">compare</text>
</g>
<!-- Node179 -->
<g id="node2" class="node">
<title>Node179</title>
<g id="a_node2"><a xlink:href="main__compare_8f90.xhtml#a859636429424208eb8d60d10a418297b" target="_top" xlink:title="Program MAIN_COMPARE and Subroutine COMPARE. ">
<polygon fill="#ffffff" stroke="#000000" points="107.5,-137 107.5,-156 196.5,-156 196.5,-137 107.5,-137"/>
<text text-anchor="middle" x="152" y="-144" font-family="Helvetica,sans-Serif" font-size="10.00" fill="#000000">main_compare</text>
</a>
</g>
</g>
<!-- Node178&#45;&gt;Node179 -->
<g id="edge1" class="edge">
<title>Node178&#45;&gt;Node179</title>
<path fill="none" stroke="#191970" d="M54.6871,-101.1445C66.733,-107.9406 81.4508,-115.9461 95,-122.5 105.5357,-127.5963 117.4332,-132.7038 127.6227,-136.8889"/>
<polygon fill="#191970" stroke="#191970" points="56.0934,-97.9174 45.6727,-96.0042 52.6259,-103.9982 56.0934,-97.9174"/>
</g>
<!-- Node180 -->
<g id="node3" class="node">
<title>Node180</title>
<g id="a_node3"><a xlink:href="namespacercf__grib__check__mod.xhtml#aabd82bfcb65d0bc36c6702bed0e660a1" target="_top" xlink:title="SUBROUTINE Rcf_Grib_Check Perform Basic consistancy checks on GRIB Data being handled. &#45;and!&gt; FUNCTION Find_Match &#45; recursively traverse a list to find a match. ">
<polygon fill="#ffffff" stroke="#000000" points="245,-49.5 245,-79.5 359,-79.5 359,-49.5 245,-49.5"/>
<text text-anchor="start" x="253" y="-67.5" font-family="Helvetica,sans-Serif" font-size="10.00" fill="#000000">rcf_grib_check_mod</text>
<text text-anchor="middle" x="302" y="-56.5" font-family="Helvetica,sans-Serif" font-size="10.00" fill="#000000">::rcf_grib_check</text>
</a>
</g>
</g>
<!-- Node178&#45;&gt;Node180 -->
<g id="edge2" class="edge">
<title>Node178&#45;&gt;Node180</title>
<path fill="none" stroke="#191970" d="M69.2446,-88.6124C77.7412,-88.9822 86.6665,-89.3093 95,-89.5 145.6534,-90.6594 158.7695,-96.1337 209,-89.5 224.4149,-87.4642 240.9034,-83.6083 255.6511,-79.5232"/>
<polygon fill="#191970" stroke="#191970" points="69.3128,-85.1119 59.1618,-88.1464 68.9895,-92.1044 69.3128,-85.1119"/>
</g>
<!-- Node184 -->
<g id="node7" class="node">
<title>Node184</title>
<g id="a_node7"><a xlink:href="namespacercf__grib__check__mod.xhtml#ac6c4e0c34e93a10bb0c03bfa8113a544" target="_top" xlink:title="rcf_grib_check_mod\l::find_match">
<polygon fill="#ffffff" stroke="#000000" points="95,-49.5 95,-79.5 209,-79.5 209,-49.5 95,-49.5"/>
<text text-anchor="start" x="103" y="-67.5" font-family="Helvetica,sans-Serif" font-size="10.00" fill="#000000">rcf_grib_check_mod</text>
<text text-anchor="middle" x="152" y="-56.5" font-family="Helvetica,sans-Serif" font-size="10.00" fill="#000000">::find_match</text>
</a>
</g>
</g>
<!-- Node178&#45;&gt;Node184 -->
<g id="edge6" class="edge">
<title>Node178&#45;&gt;Node184</title>
<path fill="none" stroke="#191970" d="M69.1609,-79.3772C77.3522,-77.9061 86.1342,-76.329 94.8073,-74.7713"/>
<polygon fill="#191970" stroke="#191970" points="68.3777,-75.9618 59.1538,-81.1744 69.6151,-82.8516 68.3777,-75.9618"/>
</g>
<!-- Node185 -->
<g id="node8" class="node">
<title>Node185</title>
<g id="a_node8"><a xlink:href="namespacercf__grib__check__mod.xhtml#af0ed2f6b3c790f175c07d9ba420cd13e" target="_top" xlink:title="rcf_grib_check_mod\l::find_match_vert">
<polygon fill="#ffffff" stroke="#000000" points="95,-.5 95,-30.5 209,-30.5 209,-.5 95,-.5"/>
<text text-anchor="start" x="103" y="-18.5" font-family="Helvetica,sans-Serif" font-size="10.00" fill="#000000">rcf_grib_check_mod</text>
<text text-anchor="middle" x="152" y="-7.5" font-family="Helvetica,sans-Serif" font-size="10.00" fill="#000000">::find_match_vert</text>
</a>
</g>
</g>
<!-- Node178&#45;&gt;Node185 -->
<g id="edge8" class="edge">
<title>Node178&#45;&gt;Node185</title>
<path fill="none" stroke="#191970" d="M49.5734,-70.8311C62.1981,-61.3799 79.0624,-49.4734 95,-40.5 101.2145,-37.001 108.0133,-33.6445 114.682,-30.5896"/>
<polygon fill="#191970" stroke="#191970" points="47.4142,-68.0759 41.574,-76.9157 51.6521,-73.6473 47.4142,-68.0759"/>
</g>
<!-- Node181 -->
<g id="node4" class="node">
<title>Node181</title>
<g id="a_node4"><a xlink:href="namespacercf__grib__control__mod.xhtml#ac6174bbd64f507e15341873465221613" target="_top" xlink:title="SUBROUTINE Rcf_Grib_Control. ">
<polygon fill="#ffffff" stroke="#000000" points="395,-49.5 395,-79.5 514,-79.5 514,-49.5 395,-49.5"/>
<text text-anchor="start" x="403" y="-67.5" font-family="Helvetica,sans-Serif" font-size="10.00" fill="#000000">rcf_grib_control_mod</text>
<text text-anchor="middle" x="454.5" y="-56.5" font-family="Helvetica,sans-Serif" font-size="10.00" fill="#000000">::rcf_grib_control</text>
</a>
</g>
</g>
<!-- Node180&#45;&gt;Node181 -->
<g id="edge3" class="edge">
<title>Node180&#45;&gt;Node181</title>
<path fill="none" stroke="#191970" d="M369.4639,-64.5C377.9459,-64.5 386.575,-64.5 394.9236,-64.5"/>
<polygon fill="#191970" stroke="#191970" points="369.2193,-61.0001 359.2192,-64.5 369.2192,-68.0001 369.2193,-61.0001"/>
</g>
<!-- Node182 -->
<g id="node5" class="node">
<title>Node182</title>
<g id="a_node5"><a xlink:href="namespacercf__initialise__mod.xhtml#ab7086bd455bd5857b757207d0255c3f4" target="_top" xlink:title="Subroutine Rcf_Initialise &#45; initialisation tasks. ">
<polygon fill="#ffffff" stroke="#000000" points="550,-49.5 550,-79.5 654,-79.5 654,-49.5 550,-49.5"/>
<text text-anchor="start" x="558" y="-67.5" font-family="Helvetica,sans-Serif" font-size="10.00" fill="#000000">rcf_initialise_mod</text>
<text text-anchor="middle" x="602" y="-56.5" font-family="Helvetica,sans-Serif" font-size="10.00" fill="#000000">::rcf_initialise</text>
</a>
</g>
</g>
<!-- Node181&#45;&gt;Node182 -->
<g id="edge4" class="edge">
<title>Node181&#45;&gt;Node182</title>
<path fill="none" stroke="#191970" d="M524.1447,-64.5C532.7816,-64.5 541.4939,-64.5 549.8057,-64.5"/>
<polygon fill="#191970" stroke="#191970" points="524.0688,-61.0001 514.0687,-64.5 524.0687,-68.0001 524.0688,-61.0001"/>
</g>
<!-- Node183 -->
<g id="node6" class="node">
<title>Node183</title>
<g id="a_node6"><a xlink:href="reconfigure_8f90.xhtml#a55389899cfceedbb4b0f908c73988c0c" target="_top" xlink:title="Top level program for reconfiguration. ">
<polygon fill="#ffffff" stroke="#000000" points="690,-55 690,-74 761,-74 761,-55 690,-55"/>
<text text-anchor="middle" x="725.5" y="-62" font-family="Helvetica,sans-Serif" font-size="10.00" fill="#000000">reconfigure</text>
</a>
</g>
</g>
<!-- Node182&#45;&gt;Node183 -->
<g id="edge5" class="edge">
<title>Node182&#45;&gt;Node183</title>
<path fill="none" stroke="#191970" d="M664.2179,-64.5C672.938,-64.5 681.6456,-64.5 689.6452,-64.5"/>
<polygon fill="#191970" stroke="#191970" points="664.0172,-61.0001 654.0172,-64.5 664.0171,-68.0001 664.0172,-61.0001"/>
</g>
<!-- Node184&#45;&gt;Node180 -->
<g id="edge7" class="edge">
<title>Node184&#45;&gt;Node180</title>
<path fill="none" stroke="#191970" d="M219.3106,-64.5C227.7284,-64.5 236.2768,-64.5 244.5255,-64.5"/>
<polygon fill="#191970" stroke="#191970" points="219.1365,-61.0001 209.1365,-64.5 219.1364,-68.0001 219.1365,-61.0001"/>
</g>
<!-- Node185&#45;&gt;Node180 -->
<g id="edge9" class="edge">
<title>Node185&#45;&gt;Node180</title>
<path fill="none" stroke="#191970" d="M207.8951,-33.7591C223.7161,-38.9273 240.7523,-44.4924 255.9237,-49.4484"/>
<polygon fill="#191970" stroke="#191970" points="208.8214,-30.3797 198.2289,-30.6014 206.6477,-37.0337 208.8214,-30.3797"/>
</g>
</g>
</svg>
        <g id="navigator" transform="translate(0 0)" fill="#404254">
                <rect fill="#f2f5e9" fill-opacity="0.5" stroke="#606060" stroke-width=".5" x="0" y="0" width="60" height="60"/>
                <use id="zoomplus" xlink:href="#zoomPlus" x="17" y="9" onmousedown="handleZoom(evt,'in')"/>
                <use id="zoomminus" xlink:href="#zoomMin" x="42" y="9" onmousedown="handleZoom(evt,'out')"/>
                <use id="reset" xlink:href="#resetDef" x="30" y="36" onmousedown="handleReset()"/>
                <g id="arrowUp" xlink:href="#dirArrow" transform="translate(30 24)" onmousedown="handlePan(0,-1)">
                  <use xlink:href="#rim" fill="#404040">
                        <set attributeName="fill" to="#808080" begin="arrowUp.mouseover" end="arrowUp.mouseout"/>
                  </use>
                  <path fill="none" stroke="white" stroke-width="1.5" d="M0,-3.0v7 M-2.5,-0.5L0,-3.0L2.5,-0.5"/>
                </g>
                <g id="arrowRight" xlink:href="#dirArrow" transform="rotate(90) translate(36 -43)" onmousedown="handlePan(1,0)">
                  <use xlink:href="#rim" fill="#404040">
                        <set attributeName="fill" to="#808080" begin="arrowRight.mouseover" end="arrowRight.mouseout"/>
                  </use>
                  <path fill="none" stroke="white" stroke-width="1.5" d="M0,-3.0v7 M-2.5,-0.5L0,-3.0L2.5,-0.5"/>
                </g>
                <g id="arrowDown" xlink:href="#dirArrow" transform="rotate(180) translate(-30 -48)" onmousedown="handlePan(0,1)">
                  <use xlink:href="#rim" fill="#404040">
                        <set attributeName="fill" to="#808080" begin="arrowDown.mouseover" end="arrowDown.mouseout"/>
                  </use>
                  <path fill="none" stroke="white" stroke-width="1.5" d="M0,-3.0v7 M-2.5,-0.5L0,-3.0L2.5,-0.5"/>
                </g>
                <g id="arrowLeft" xlink:href="#dirArrow" transform="rotate(270) translate(-36 17)" onmousedown="handlePan(-1,0)">
                  <use xlink:href="#rim" fill="#404040">
                        <set attributeName="fill" to="#808080" begin="arrowLeft.mouseover" end="arrowLeft.mouseout"/>
                  </use>
                  <path fill="none" stroke="white" stroke-width="1.5" d="M0,-3.0v7 M-2.5,-0.5L0,-3.0L2.5,-0.5"/>
                </g>
        </g>
        <svg viewBox="0 0 15 15" width="100%" height="30px" preserveAspectRatio="xMaxYMin meet">
         <g id="arrow_out" transform="scale(0.3 0.3)">
          <a xlink:href="compare_8f90_a8263e041986ac65a9137b8fddbcdce4e_icgraph_org.svg" target="_base">
           <rect id="button" ry="5" rx="5" y="6" x="6" height="38" width="38"
                fill="#f2f5e9" fill-opacity="0.5" stroke="#606060" stroke-width="1.0"/>
           <path id="arrow"
             d="M 11.500037,31.436501 C 11.940474,20.09759 22.043105,11.32322 32.158766,21.979434 L 37.068811,17.246167 C 37.068811,17.246167 37.088388,32 37.088388,32 L 22.160133,31.978069 C 22.160133,31.978069 26.997745,27.140456 26.997745,27.140456 C 18.528582,18.264221 13.291696,25.230495 11.500037,31.436501 z"
             style="fill:#404040;"/>
          </a>
         </g>
        </svg>
</svg>
