<?xml version="1.0" encoding="UTF-8" standalone="no"?>
<!DOCTYPE svg PUBLIC "-//W3C//DTD SVG 1.1//EN"
 "http://www.w3.org/Graphics/SVG/1.1/DTD/svg11.dtd">
<!-- Generated by graphviz version 2.40.1 (20161225.0304)
 -->
<!-- Title: convert_lbcs Pages: 1 -->
<svg width="762pt" height="66pt"
 viewBox="0.00 0.00 762.00 66.00" xmlns="http://www.w3.org/2000/svg" xmlns:xlink="http://www.w3.org/1999/xlink">
<g id="graph0" class="graph" transform="scale(1 1) rotate(0) translate(4 62)">
<title>convert_lbcs</title>
<polygon fill="#ffffff" stroke="transparent" points="-4,4 -4,-62 758,-62 758,4 -4,4"/>
<!-- Node1 -->
<g id="node1" class="node">
<title>Node1</title>
<polygon fill="#bfbfbf" stroke="#000000" points="0,-19.5 0,-38.5 78,-38.5 78,-19.5 0,-19.5"/>
<text text-anchor="middle" x="39" y="-26.5" font-family="Helvetica,sans-Serif" font-size="10.00" fill="#000000">convert_lbcs</text>
</g>
<!-- Node2 -->
<g id="node2" class="node">
<title>Node2</title>
<g id="a_node2"><a xlink:href="read__atmos__lbcs_8f90.xhtml#ad3a7d38687c4b1f39cc2ab5e16a155c1" target="_top" xlink:title="Subroutine READ_ATMOS_LBCS. ">
<polygon fill="#ffffff" stroke="#000000" points="114,-19.5 114,-38.5 213,-38.5 213,-19.5 114,-19.5"/>
<text text-anchor="middle" x="163.5" y="-26.5" font-family="Helvetica,sans-Serif" font-size="10.00" fill="#000000">read_atmos_lbcs</text>
</a>
</g>
</g>
<!-- Node1&#45;&gt;Node2 -->
<g id="edge1" class="edge">
<title>Node1&#45;&gt;Node2</title>
<path fill="none" stroke="#191970" d="M88.0749,-29C96.4645,-29 105.1886,-29 113.5994,-29"/>
<polygon fill="#191970" stroke="#191970" points="88.051,-25.5001 78.051,-29 88.051,-32.5001 88.051,-25.5001"/>
</g>
<!-- Node3 -->
<g id="node3" class="node">
<title>Node3</title>
<g id="a_node3"><a xlink:href="up__bound_8f90.xhtml#ac2e7fd43b80882c18f785e2218f8adb3" target="_top" xlink:title="Subroutine UP_BOUND. ">
<polygon fill="#ffffff" stroke="#000000" points="249,-19.5 249,-38.5 313,-38.5 313,-19.5 249,-19.5"/>
<text text-anchor="middle" x="281" y="-26.5" font-family="Helvetica,sans-Serif" font-size="10.00" fill="#000000">up_bound</text>
</a>
</g>
</g>
<!-- Node2&#45;&gt;Node3 -->
<g id="edge2" class="edge">
<title>Node2&#45;&gt;Node3</title>
<path fill="none" stroke="#191970" d="M223.5381,-29C232.2578,-29 240.9397,-29 248.8149,-29"/>
<polygon fill="#191970" stroke="#191970" points="223.3306,-25.5001 213.3306,-29 223.3305,-32.5001 223.3306,-25.5001"/>
</g>
<!-- Node4 -->
<g id="node4" class="node">
<title>Node4</title>
<g id="a_node4"><a xlink:href="lbc__coup__update_8f90.xhtml#a2c51aafe798b241de6166771c418ada6" target="_top" xlink:title="Update LBC coupling. ">
<polygon fill="#ffffff" stroke="#000000" points="349,-19.5 349,-38.5 447,-38.5 447,-19.5 349,-19.5"/>
<text text-anchor="middle" x="398" y="-26.5" font-family="Helvetica,sans-Serif" font-size="10.00" fill="#000000">lbc_coup_update</text>
</a>
</g>
</g>
<!-- Node3&#45;&gt;Node4 -->
<g id="edge3" class="edge">
<title>Node3&#45;&gt;Node4</title>
<path fill="none" stroke="#191970" d="M323.3944,-29C331.6163,-29 340.2985,-29 348.7192,-29"/>
<polygon fill="#191970" stroke="#191970" points="323.2805,-25.5001 313.2805,-29 323.2804,-32.5001 323.2805,-25.5001"/>
</g>
<!-- Node5 -->
<g id="node5" class="node">
<title>Node5</title>
<g id="a_node5"><a xlink:href="u__model_8f90.xhtml#ada0cd2ce4699433bf0f9adbd882c8eec" target="_top" xlink:title="Subroutine: U_MODEL &#45;!&gt; ">
<polygon fill="#ffffff" stroke="#000000" points="491.5,-38.5 491.5,-57.5 550.5,-57.5 550.5,-38.5 491.5,-38.5"/>
<text text-anchor="middle" x="521" y="-45.5" font-family="Helvetica,sans-Serif" font-size="10.00" fill="#000000">u_model</text>
</a>
</g>
</g>
<!-- Node4&#45;&gt;Node5 -->
<g id="edge4" class="edge">
<title>Node4&#45;&gt;Node5</title>
<path fill="none" stroke="#191970" d="M457.2497,-38.1524C469.1487,-39.9905 481.1603,-41.8459 491.4993,-43.443"/>
<polygon fill="#191970" stroke="#191970" points="457.7372,-34.6863 447.3201,-36.6185 456.6685,-41.6042 457.7372,-34.6863"/>
</g>
<!-- Node8 -->
<g id="node8" class="node">
<title>Node8</title>
<g id="a_node8"><a xlink:href="u__model__4_a_8f90.xhtml#afa05064dab5eba198b461d0928767c7e" target="_top" xlink:title="LL Subroutine: U_MODEL_4A (ENDGAME VERSION) !&gt;LL. ">
<polygon fill="#ffffff" stroke="#000000" points="483,-.5 483,-19.5 559,-19.5 559,-.5 483,-.5"/>
<text text-anchor="middle" x="521" y="-7.5" font-family="Helvetica,sans-Serif" font-size="10.00" fill="#000000">u_model_4a</text>
</a>
</g>
</g>
<!-- Node4&#45;&gt;Node8 -->
<g id="edge7" class="edge">
<title>Node4&#45;&gt;Node8</title>
<path fill="none" stroke="#191970" d="M457.3517,-19.8319C465.9534,-18.5031 474.6113,-17.1657 482.6511,-15.9238"/>
<polygon fill="#191970" stroke="#191970" points="456.6685,-16.3958 447.3201,-21.3815 457.7372,-23.3137 456.6685,-16.3958"/>
</g>
<!-- Node6 -->
<g id="node6" class="node">
<title>Node6</title>
<g id="a_node6"><a xlink:href="um__shell_8f90.xhtml#a8c9bd25362824a5c301376ecb5ed5c27" target="_top" xlink:title="Subroutine: UM_SHELL !&gt; ">
<polygon fill="#ffffff" stroke="#000000" points="595,-19.5 595,-38.5 656,-38.5 656,-19.5 595,-19.5"/>
<text text-anchor="middle" x="625.5" y="-26.5" font-family="Helvetica,sans-Serif" font-size="10.00" fill="#000000">um_shell</text>
</a>
</g>
</g>
<!-- Node5&#45;&gt;Node6 -->
<g id="edge5" class="edge">
<title>Node5&#45;&gt;Node6</title>
<path fill="none" stroke="#191970" d="M560.701,-40.7816C571.951,-38.7362 584.0261,-36.5407 594.6677,-34.6059"/>
<polygon fill="#191970" stroke="#191970" points="559.8786,-37.3737 550.666,-42.6062 561.1308,-44.2608 559.8786,-37.3737"/>
</g>
<!-- Node7 -->
<g id="node7" class="node">
<title>Node7</title>
<g id="a_node7"><a xlink:href="um__main_8f90.xhtml#a8f2d13215621443a5313261c282f098b" target="_top" xlink:title="Code Owner: See Unified Model Code Owner&#39;s HTML page. ">
<polygon fill="#ffffff" stroke="#000000" points="692,-19.5 692,-38.5 754,-38.5 754,-19.5 692,-19.5"/>
<text text-anchor="middle" x="723" y="-26.5" font-family="Helvetica,sans-Serif" font-size="10.00" fill="#000000">um_main</text>
</a>
</g>
</g>
<!-- Node6&#45;&gt;Node7 -->
<g id="edge6" class="edge">
<title>Node6&#45;&gt;Node7</title>
<path fill="none" stroke="#191970" d="M666.2756,-29C674.8294,-29 683.72,-29 691.8551,-29"/>
<polygon fill="#191970" stroke="#191970" points="666.0821,-25.5001 656.0821,-29 666.0821,-32.5001 666.0821,-25.5001"/>
</g>
<!-- Node8&#45;&gt;Node6 -->
<g id="edge8" class="edge">
<title>Node8&#45;&gt;Node6</title>
<path fill="none" stroke="#191970" d="M568.8728,-18.7041C577.7087,-20.3107 586.7128,-21.9478 594.8647,-23.43"/>
<polygon fill="#191970" stroke="#191970" points="569.4873,-15.2586 559.0225,-16.9132 568.2351,-22.1457 569.4873,-15.2586"/>
</g>
</g>
</svg>
