<?xml version="1.0" encoding="UTF-8" standalone="no"?>
<!DOCTYPE svg PUBLIC "-//W3C//DTD SVG 1.1//EN"
 "http://www.w3.org/Graphics/SVG/1.1/DTD/svg11.dtd">
<!-- Generated by graphviz version 2.40.1 (20161225.0304)
 -->
<!-- Title: cray_ibm Pages: 1 -->
<svg width="307pt" height="28pt"
 viewBox="0.00 0.00 307.00 28.00" xmlns="http://www.w3.org/2000/svg" xmlns:xlink="http://www.w3.org/1999/xlink">
<g id="graph0" class="graph" transform="scale(1 1) rotate(0) translate(4 24)">
<title>cray_ibm</title>
<polygon fill="#ffffff" stroke="transparent" points="-4,4 -4,-24 303,-24 303,4 -4,4"/>
<!-- Node188 -->
<g id="node1" class="node">
<title>Node188</title>
<polygon fill="#bfbfbf" stroke="#000000" points="0,-.5 0,-19.5 62,-19.5 62,-.5 0,-.5"/>
<text text-anchor="middle" x="31" y="-7.5" font-family="Helvetica,sans-Serif" font-size="10.00" fill="#000000">cray_ibm</text>
</g>
<!-- Node189 -->
<g id="node2" class="node">
<title>Node189</title>
<g id="a_node2"><a xlink:href="read__write-fieldcos_8f90.xhtml#a83a915a972fd004dc6753151cced432b" target="_top" xlink:title="LL LL LL Subroutine: READ_WRITE!&gt;LL LL Purpose: To read a direct access PP file and convert it to a L...">
<polygon fill="#ffffff" stroke="#000000" points="98,-.5 98,-19.5 209,-19.5 209,-.5 98,-.5"/>
<text text-anchor="middle" x="153.5" y="-7.5" font-family="Helvetica,sans-Serif" font-size="10.00" fill="#000000">read_write_fieldcos</text>
</a>
</g>
</g>
<!-- Node188&#45;&gt;Node189 -->
<g id="edge1" class="edge">
<title>Node188&#45;&gt;Node189</title>
<path fill="none" stroke="#191970" d="M72.4817,-10C80.5468,-10 89.1241,-10 97.5657,-10"/>
<polygon fill="#191970" stroke="#191970" points="72.2289,-6.5001 62.2289,-10 72.2288,-13.5001 72.2289,-6.5001"/>
</g>
<!-- Node190 -->
<g id="node3" class="node">
<title>Node190</title>
<g id="a_node3"><a xlink:href="fieldcos_8f90.xhtml#a964738f376f82ff1c74d785687a11a4b" target="_top" xlink:title="Program: FIELDCOS!&gt; ">
<polygon fill="#ffffff" stroke="#000000" points="245,-.5 245,-19.5 299,-19.5 299,-.5 245,-.5"/>
<text text-anchor="middle" x="272" y="-7.5" font-family="Helvetica,sans-Serif" font-size="10.00" fill="#000000">fieldcos</text>
</a>
</g>
</g>
<!-- Node189&#45;&gt;Node190 -->
<g id="edge2" class="edge">
<title>Node189&#45;&gt;Node190</title>
<path fill="none" stroke="#191970" d="M219.4253,-10C228.3728,-10 237.1147,-10 244.8207,-10"/>
<polygon fill="#191970" stroke="#191970" points="219.2801,-6.5001 209.2801,-10 219.2801,-13.5001 219.2801,-6.5001"/>
</g>
</g>
</svg>
