<?xml version="1.0" encoding="UTF-8" standalone="no"?>
<!DOCTYPE svg PUBLIC "-//W3C//DTD SVG 1.1//EN"
 "http://www.w3.org/Graphics/SVG/1.1/DTD/svg11.dtd">
<!-- Generated by graphviz version 2.40.1 (20161225.0304)
 -->
<!-- Title: ctobgrid Pages: 1 -->
<svg width="261pt" height="85pt"
 viewBox="0.00 0.00 261.00 85.00" xmlns="http://www.w3.org/2000/svg" xmlns:xlink="http://www.w3.org/1999/xlink">
<g id="graph0" class="graph" transform="scale(1 1) rotate(0) translate(4 81)">
<title>ctobgrid</title>
<polygon fill="#ffffff" stroke="transparent" points="-4,4 -4,-81 257,-81 257,4 -4,4"/>
<!-- Node5 -->
<g id="node1" class="node">
<title>Node5</title>
<polygon fill="#bfbfbf" stroke="#000000" points="0,-38.5 0,-57.5 56,-57.5 56,-38.5 0,-38.5"/>
<text text-anchor="middle" x="28" y="-45.5" font-family="Helvetica,sans-Serif" font-size="10.00" fill="#000000">ctobgrid</text>
</g>
<!-- Node6 -->
<g id="node2" class="node">
<title>Node6</title>
<g id="a_node2"><a xlink:href="fieldcalc_8f90.xhtml#ac71d10790a6550f257c927ee60db58b2" target="_top" xlink:title="Program for post&#45;processing of UM output. ">
<polygon fill="#ffffff" stroke="#000000" points="196,-57.5 196,-76.5 253,-76.5 253,-57.5 196,-57.5"/>
<text text-anchor="middle" x="224.5" y="-64.5" font-family="Helvetica,sans-Serif" font-size="10.00" fill="#000000">fieldcalc</text>
</a>
</g>
</g>
<!-- Node5&#45;&gt;Node6 -->
<g id="edge1" class="edge">
<title>Node5&#45;&gt;Node6</title>
<path fill="none" stroke="#191970" d="M63.3883,-60.482C72.5875,-63.1779 82.566,-65.6292 92,-67 127.5125,-72.1601 168.9464,-71.0313 195.8979,-69.3621"/>
<polygon fill="#191970" stroke="#191970" points="64.3628,-57.1198 53.7747,-57.5001 62.289,-63.8056 64.3628,-57.1198"/>
</g>
<!-- Node7 -->
<g id="node3" class="node">
<title>Node7</title>
<g id="a_node3"><a xlink:href="getb__flds_8f90.xhtml#a5077863a1108379b7bb47d53a5bc241c" target="_top" xlink:title="Routines to read requested fields from a UM fieldsfile. ">
<polygon fill="#ffffff" stroke="#000000" points="95.5,-38.5 95.5,-57.5 156.5,-57.5 156.5,-38.5 95.5,-38.5"/>
<text text-anchor="middle" x="126" y="-45.5" font-family="Helvetica,sans-Serif" font-size="10.00" fill="#000000">getb_flds</text>
</a>
</g>
</g>
<!-- Node5&#45;&gt;Node7 -->
<g id="edge2" class="edge">
<title>Node5&#45;&gt;Node7</title>
<path fill="none" stroke="#191970" d="M66.1958,-48C75.7948,-48 85.976,-48 95.1645,-48"/>
<polygon fill="#191970" stroke="#191970" points="66.0829,-44.5001 56.0829,-48 66.0828,-51.5001 66.0829,-44.5001"/>
</g>
<!-- Node8 -->
<g id="node4" class="node">
<title>Node8</title>
<g id="a_node4"><a xlink:href="wshear__sq_8f90.xhtml#a7383d366fc1a9ae024fe2226695b6b15" target="_top" xlink:title="wshear_sq">
<polygon fill="#ffffff" stroke="#000000" points="92,-.5 92,-19.5 160,-19.5 160,-.5 92,-.5"/>
<text text-anchor="middle" x="126" y="-7.5" font-family="Helvetica,sans-Serif" font-size="10.00" fill="#000000">wshear_sq</text>
</a>
</g>
</g>
<!-- Node5&#45;&gt;Node8 -->
<g id="edge4" class="edge">
<title>Node5&#45;&gt;Node8</title>
<path fill="none" stroke="#191970" d="M62.2086,-34.7354C75.0742,-29.7467 89.4411,-24.1759 101.2784,-19.5859"/>
<polygon fill="#191970" stroke="#191970" points="60.7878,-31.5324 52.7295,-38.411 63.3185,-38.0589 60.7878,-31.5324"/>
</g>
<!-- Node7&#45;&gt;Node6 -->
<g id="edge3" class="edge">
<title>Node7&#45;&gt;Node6</title>
<path fill="none" stroke="#191970" d="M166.631,-55.8375C176.4616,-57.7337 186.7651,-59.7212 195.9084,-61.4849"/>
<polygon fill="#191970" stroke="#191970" points="167.108,-52.365 156.6261,-53.9076 165.7821,-59.2383 167.108,-52.365"/>
</g>
</g>
</svg>
