<?xml version="1.0" encoding="UTF-8" standalone="no"?>
<!DOCTYPE svg PUBLIC "-//W3C//DTD SVG 1.1//EN"
 "http://www.w3.org/Graphics/SVG/1.1/DTD/svg11.dtd">
<!-- Generated by graphviz version 2.40.1 (20161225.0304)
 -->
<!-- Title: dd_all_call_4a5a Pages: 1 -->
<svg width="553pt" height="365pt"
 viewBox="0.00 0.00 553.00 365.36" xmlns="http://www.w3.org/2000/svg" xmlns:xlink="http://www.w3.org/1999/xlink">
<g id="graph0" class="graph" transform="scale(1 1) rotate(0) translate(4 361.3552)">
<title>dd_all_call_4a5a</title>
<polygon fill="#ffffff" stroke="transparent" points="-4,4 -4,-361.3552 549,-361.3552 549,4 -4,4"/>
<!-- Node0 -->
<g id="node1" class="node">
<title>Node0</title>
<polygon fill="#bfbfbf" stroke="#000000" points="0,-174.9519 0,-193.9519 98,-193.9519 98,-174.9519 0,-174.9519"/>
<text text-anchor="middle" x="49" y="-181.9519" font-family="Helvetica,sans-Serif" font-size="10.00" fill="#000000">dd_all_call_4a5a</text>
</g>
<!-- Node1 -->
<g id="node2" class="node">
<title>Node1</title>
<g id="a_node2"><a xlink:href="flx__init-flxini2a_8f90.xhtml#ac1a6c305bde6d9fc0a5ebf0fa97a64cb" target="_top" xlink:title="Calculate initial downdraught mass flux. ">
<polygon fill="#ffffff" stroke="#000000" points="138.5,-231.9519 138.5,-250.9519 217.5,-250.9519 217.5,-231.9519 138.5,-231.9519"/>
<text text-anchor="middle" x="178" y="-238.9519" font-family="Helvetica,sans-Serif" font-size="10.00" fill="#000000">flx_init_4a5a</text>
</a>
</g>
</g>
<!-- Node0&#45;&gt;Node1 -->
<g id="edge1" class="edge">
<title>Node0&#45;&gt;Node1</title>
<path fill="none" stroke="#191970" d="M70.2752,-194.0536C87.4481,-201.7821 112.2458,-212.8927 134,-222.4519 137.9421,-224.1842 142.0885,-225.9925 146.1954,-227.7753"/>
<polygon fill="#191970" stroke="#191970" points="145.0244,-231.0822 155.592,-231.8413 147.8043,-224.6578 145.0244,-231.0822"/>
</g>
<!-- Node2 -->
<g id="node3" class="node">
<title>Node2</title>
<g id="a_node3"><a xlink:href="layer__dd-layerd4a_8f90.xhtml#afeb7bca72d17946e9bbf69f65f4de64c" target="_top" xlink:title="Calculates layer dependent constants for layer k, downdraught code. ">
<polygon fill="#ffffff" stroke="#000000" points="134,-193.9519 134,-212.9519 222,-212.9519 222,-193.9519 134,-193.9519"/>
<text text-anchor="middle" x="178" y="-200.9519" font-family="Helvetica,sans-Serif" font-size="10.00" fill="#000000">layer_dd_4a5a</text>
</a>
</g>
</g>
<!-- Node0&#45;&gt;Node2 -->
<g id="edge2" class="edge">
<title>Node0&#45;&gt;Node2</title>
<path fill="none" stroke="#191970" d="M98.1374,-191.6892C106.4391,-192.9119 115.1013,-194.1878 123.5293,-195.4291"/>
<polygon fill="#191970" stroke="#191970" points="123.2502,-198.9257 133.6535,-196.9203 124.2702,-192.0004 123.2502,-198.9257"/>
</g>
<!-- Node3 -->
<g id="node4" class="node">
<title>Node3</title>
<g id="a_node4"><a xlink:href="dd__init-ddinit4a_8f90.xhtml#a8c4ecea863d8cd7692364f9a30b19638" target="_top" xlink:title="Routine to initialise the downdraught. ">
<polygon fill="#ffffff" stroke="#000000" points="273,-89.9519 273,-108.9519 323,-108.9519 323,-89.9519 273,-89.9519"/>
<text text-anchor="middle" x="298" y="-96.9519" font-family="Helvetica,sans-Serif" font-size="10.00" fill="#000000">dd_init</text>
</a>
</g>
</g>
<!-- Node0&#45;&gt;Node3 -->
<g id="edge3" class="edge">
<title>Node0&#45;&gt;Node3</title>
<path fill="none" stroke="#191970" d="M68.2584,-174.9016C85.2797,-166.6891 110.9175,-154.8713 134,-146.4519 177.7508,-130.4938 229.6253,-116.4083 263.1401,-107.9152"/>
<polygon fill="#191970" stroke="#191970" points="264.0736,-111.2896 272.9224,-105.4631 262.3715,-104.4996 264.0736,-111.2896"/>
</g>
<!-- Node8 -->
<g id="node9" class="node">
<title>Node8</title>
<g id="a_node9"><a xlink:href="downd-downd4a_8f90.xhtml#ae54264a46dda0e0b90f2e62e7fda0dbc" target="_top" xlink:title="Calls downdraught calculation or checks for change of phase. ">
<polygon fill="#ffffff" stroke="#000000" points="139,-155.9519 139,-174.9519 217,-174.9519 217,-155.9519 139,-155.9519"/>
<text text-anchor="middle" x="178" y="-162.9519" font-family="Helvetica,sans-Serif" font-size="10.00" fill="#000000">downd_4a5a</text>
</a>
</g>
</g>
<!-- Node0&#45;&gt;Node8 -->
<g id="edge9" class="edge">
<title>Node0&#45;&gt;Node8</title>
<path fill="none" stroke="#191970" d="M98.1374,-177.2146C108.0722,-175.7514 118.5234,-174.212 128.4717,-172.7468"/>
<polygon fill="#191970" stroke="#191970" points="129.2308,-176.1728 138.614,-171.253 128.2107,-169.2475 129.2308,-176.1728"/>
</g>
<!-- Node4 -->
<g id="node5" class="node">
<title>Node4</title>
<g id="a_node5"><a xlink:href="satcal-satcal3c_8f90.xhtml#ac097178d36bf563e8980fe8f3da31b7a" target="_top" xlink:title="Calculate saturated temperature. ">
<polygon fill="#ffffff" stroke="#000000" points="374,-51.9519 374,-70.9519 437,-70.9519 437,-51.9519 374,-51.9519"/>
<text text-anchor="middle" x="405.5" y="-58.9519" font-family="Helvetica,sans-Serif" font-size="10.00" fill="#000000">satcal_4a</text>
</a>
</g>
</g>
<!-- Node3&#45;&gt;Node4 -->
<g id="edge4" class="edge">
<title>Node3&#45;&gt;Node4</title>
<path fill="none" stroke="#191970" d="M323.204,-90.5426C336.8471,-85.7199 353.9468,-79.6754 369.0194,-74.3474"/>
<polygon fill="#191970" stroke="#191970" points="370.313,-77.6024 378.5748,-70.9697 367.98,-71.0026 370.313,-77.6024"/>
</g>
<!-- Node7 -->
<g id="node8" class="node">
<title>Node7</title>
<g id="a_node8"><a xlink:href="satcal-5a_8f90.xhtml#a47ac06b51422732dd6027cd7c3fbfc69" target="_top" xlink:title="Calculate saturated temperature. ">
<polygon fill="#ffffff" stroke="#000000" points="382.5,-127.9519 382.5,-146.9519 428.5,-146.9519 428.5,-127.9519 382.5,-127.9519"/>
<text text-anchor="middle" x="405.5" y="-134.9519" font-family="Helvetica,sans-Serif" font-size="10.00" fill="#000000">satcal</text>
</a>
</g>
</g>
<!-- Node3&#45;&gt;Node7 -->
<g id="edge7" class="edge">
<title>Node3&#45;&gt;Node7</title>
<path fill="none" stroke="#191970" d="M323.204,-108.3612C338.0048,-113.5932 356.8739,-120.2632 372.8095,-125.8962"/>
<polygon fill="#191970" stroke="#191970" points="371.6951,-129.2145 382.2899,-129.2474 374.0281,-122.6147 371.6951,-129.2145"/>
</g>
<!-- Node5 -->
<g id="node6" class="node">
<title>Node5</title>
<g id="a_node6"><a xlink:href="qsat_8f90.xhtml#aea6c2f88cb65e881fc815b7be5559cc9" target="_top" xlink:title="Saturation Specific Humidity Scheme (Qsat): Vapour to Liquid/Ice. ">
<polygon fill="#ffffff" stroke="#000000" points="490,-127.9519 490,-146.9519 528,-146.9519 528,-127.9519 490,-127.9519"/>
<text text-anchor="middle" x="509" y="-134.9519" font-family="Helvetica,sans-Serif" font-size="10.00" fill="#000000">qsat</text>
</a>
</g>
</g>
<!-- Node4&#45;&gt;Node5 -->
<g id="edge5" class="edge">
<title>Node4&#45;&gt;Node5</title>
<path fill="none" stroke="#191970" d="M415.4689,-71.0702C428.1767,-83.0396 451.1292,-103.6989 473,-118.4519 475.554,-120.1747 478.2822,-121.8618 481.051,-123.4753"/>
<polygon fill="#191970" stroke="#191970" points="479.4231,-126.5744 489.8711,-128.3323 482.7998,-120.4426 479.4231,-126.5744"/>
</g>
<!-- Node6 -->
<g id="node7" class="node">
<title>Node6</title>
<g id="a_node7"><a xlink:href="dqs__dth-dqsdth3c_8f90.xhtml#a44d04aafc0eeaeb5217c182be9bf4836" target="_top" xlink:title="Calculates gradient of saturation mixing ratio. ">
<polygon fill="#ffffff" stroke="#000000" points="473,-51.9519 473,-70.9519 545,-70.9519 545,-51.9519 473,-51.9519"/>
<text text-anchor="middle" x="509" y="-58.9519" font-family="Helvetica,sans-Serif" font-size="10.00" fill="#000000">dqs_dth_4a</text>
</a>
</g>
</g>
<!-- Node4&#45;&gt;Node6 -->
<g id="edge6" class="edge">
<title>Node4&#45;&gt;Node6</title>
<path fill="none" stroke="#191970" d="M437.1158,-61.4519C445.2342,-61.4519 454.1358,-61.4519 462.8253,-61.4519"/>
<polygon fill="#191970" stroke="#191970" points="462.8689,-64.952 472.8688,-61.4519 462.8688,-57.952 462.8689,-64.952"/>
</g>
<!-- Node7&#45;&gt;Node5 -->
<g id="edge8" class="edge">
<title>Node7&#45;&gt;Node5</title>
<path fill="none" stroke="#191970" d="M428.7274,-137.4519C443.6423,-137.4519 463.1541,-137.4519 479.206,-137.4519"/>
<polygon fill="#191970" stroke="#191970" points="479.6672,-140.952 489.6671,-137.4519 479.6671,-133.952 479.6672,-140.952"/>
</g>
<!-- Node9 -->
<g id="node10" class="node">
<title>Node9</title>
<g id="a_node10"><a xlink:href="ddraught-ddraug4a_8f90.xhtml#aadb64419a97147967f329377ce1a07fa" target="_top" xlink:title="Downdraught routine. ">
<polygon fill="#ffffff" stroke="#000000" points="259.5,-203.9519 259.5,-222.9519 336.5,-222.9519 336.5,-203.9519 259.5,-203.9519"/>
<text text-anchor="middle" x="298" y="-210.9519" font-family="Helvetica,sans-Serif" font-size="10.00" fill="#000000">ddraught_4a</text>
</a>
</g>
</g>
<!-- Node8&#45;&gt;Node9 -->
<g id="edge10" class="edge">
<title>Node8&#45;&gt;Node9</title>
<path fill="none" stroke="#191970" d="M201.9954,-175.0501C219.9815,-182.2445 244.8176,-192.1789 264.7225,-200.1409"/>
<polygon fill="#191970" stroke="#191970" points="263.4615,-203.4061 274.0462,-203.8704 266.0613,-196.9068 263.4615,-203.4061"/>
</g>
<!-- Node15 -->
<g id="node16" class="node">
<title>Node15</title>
<g id="a_node16"><a xlink:href="ddraught-5a_8f90.xhtml#ad856dadae3553b4e962ced784362031a" target="_top" xlink:title="Downdraught routine. ">
<polygon fill="#ffffff" stroke="#000000" points="259.5,-241.9519 259.5,-260.9519 336.5,-260.9519 336.5,-241.9519 259.5,-241.9519"/>
<text text-anchor="middle" x="298" y="-248.9519" font-family="Helvetica,sans-Serif" font-size="10.00" fill="#000000">ddraught_5a</text>
</a>
</g>
</g>
<!-- Node8&#45;&gt;Node15 -->
<g id="edge18" class="edge">
<title>Node8&#45;&gt;Node15</title>
<path fill="none" stroke="#191970" d="M206.2242,-175.0413C211.7558,-177.6183 217.2948,-180.7436 222,-184.4519 242.9438,-200.9585 237.3551,-215.573 258,-232.4519 259.7893,-233.9148 261.71,-235.2962 263.7065,-236.5949"/>
<polygon fill="#191970" stroke="#191970" points="262.3511,-239.8507 272.7731,-241.7571 265.8146,-233.7676 262.3511,-239.8507"/>
</g>
<!-- Node16 -->
<g id="node17" class="node">
<title>Node16</title>
<g id="a_node17"><a xlink:href="chg__phse-chgphs3c_8f90.xhtml#af446221815da53b433d5544f7a43e982" target="_top" xlink:title="Change phase for points where no downdraught occurring. ">
<polygon fill="#ffffff" stroke="#000000" points="267,-165.9519 267,-184.9519 329,-184.9519 329,-165.9519 267,-165.9519"/>
<text text-anchor="middle" x="298" y="-172.9519" font-family="Helvetica,sans-Serif" font-size="10.00" fill="#000000">chg_phse</text>
</a>
</g>
</g>
<!-- Node8&#45;&gt;Node16 -->
<g id="edge25" class="edge">
<title>Node8&#45;&gt;Node16</title>
<path fill="none" stroke="#191970" d="M217.2925,-168.7263C230.0212,-169.787 244.1672,-170.9658 257.0156,-172.0365"/>
<polygon fill="#191970" stroke="#191970" points="256.7336,-175.5251 266.9898,-172.8677 257.315,-168.5493 256.7336,-175.5251"/>
</g>
<!-- Node17 -->
<g id="node18" class="node">
<title>Node17</title>
<g id="a_node18"><a xlink:href="pevp__bcb-pevbcb3a_8f90.xhtml#a37f244e71c0d58b683dfcb4319d6e76d" target="_top" xlink:title="Evaporate rain below cloud base if no downdraught. ">
<polygon fill="#ffffff" stroke="#000000" points="258,-32.9519 258,-51.9519 338,-51.9519 338,-32.9519 258,-32.9519"/>
<text text-anchor="middle" x="298" y="-39.9519" font-family="Helvetica,sans-Serif" font-size="10.00" fill="#000000">pevp_bcb_4a</text>
</a>
</g>
</g>
<!-- Node8&#45;&gt;Node17 -->
<g id="edge26" class="edge">
<title>Node8&#45;&gt;Node17</title>
<path fill="none" stroke="#191970" d="M186.7088,-155.8539C201.2268,-139.9325 231.4093,-107.1668 258,-80.4519 265.0909,-73.3279 273.0896,-65.6593 280.0605,-59.0895"/>
<polygon fill="#191970" stroke="#191970" points="282.7464,-61.3695 287.6554,-51.9805 277.9629,-56.2589 282.7464,-61.3695"/>
</g>
<!-- Node18 -->
<g id="node19" class="node">
<title>Node18</title>
<g id="a_node19"><a xlink:href="pevp__bcb-5a_8f90.xhtml#a8e21b919ee020fc23b978f8fe834452f" target="_top" xlink:title="Evaporate rain below cloud base if no downdraught. ">
<polygon fill="#ffffff" stroke="#000000" points="266.5,-127.9519 266.5,-146.9519 329.5,-146.9519 329.5,-127.9519 266.5,-127.9519"/>
<text text-anchor="middle" x="298" y="-134.9519" font-family="Helvetica,sans-Serif" font-size="10.00" fill="#000000">pevp_bcb</text>
</a>
</g>
</g>
<!-- Node8&#45;&gt;Node18 -->
<g id="edge30" class="edge">
<title>Node8&#45;&gt;Node18</title>
<path fill="none" stroke="#191970" d="M217.2925,-156.2837C229.8055,-153.364 243.688,-150.1247 256.3612,-147.1676"/>
<polygon fill="#191970" stroke="#191970" points="257.2731,-150.5489 266.2162,-144.8681 255.6825,-143.7321 257.2731,-150.5489"/>
</g>
<!-- Node9&#45;&gt;Node4 -->
<g id="edge11" class="edge">
<title>Node9&#45;&gt;Node4</title>
<path fill="none" stroke="#191970" d="M325.0548,-203.7456C329.7512,-201.2249 334.3053,-198.1506 338,-194.4519 364.4144,-168.0092 356.9526,-151.7134 374,-118.4519 380.7008,-105.3778 388.7146,-90.891 394.9822,-79.7939"/>
<polygon fill="#191970" stroke="#191970" points="398.0622,-81.4579 399.9637,-71.0351 391.9775,-77.9973 398.0622,-81.4579"/>
</g>
<!-- Node9&#45;&gt;Node5 -->
<g id="edge13" class="edge">
<title>Node9&#45;&gt;Node5</title>
<path fill="none" stroke="#191970" d="M324.7233,-203.8265C364.5927,-189.4659 439.3353,-162.5444 480.3149,-147.784"/>
<polygon fill="#191970" stroke="#191970" points="481.7421,-150.9901 489.9643,-144.3084 479.3699,-144.4043 481.7421,-150.9901"/>
</g>
<!-- Node10 -->
<g id="node11" class="node">
<title>Node10</title>
<g id="a_node11"><a xlink:href="crs__frzl-crsfrz3c_8f90.xhtml#af72c40e61aacc2460b4b4144e3c5122e" target="_top" xlink:title="Change of phase routine where precip crosses a melting or freezing level. ">
<polygon fill="#ffffff" stroke="#000000" points="379.5,-241.9519 379.5,-260.9519 431.5,-260.9519 431.5,-241.9519 379.5,-241.9519"/>
<text text-anchor="middle" x="405.5" y="-248.9519" font-family="Helvetica,sans-Serif" font-size="10.00" fill="#000000">crs_frzl</text>
</a>
</g>
</g>
<!-- Node9&#45;&gt;Node10 -->
<g id="edge12" class="edge">
<title>Node9&#45;&gt;Node10</title>
<path fill="none" stroke="#191970" d="M325.1268,-223.0409C338.6707,-227.8285 355.2317,-233.6827 369.7939,-238.8302"/>
<polygon fill="#191970" stroke="#191970" points="368.8996,-242.2263 379.4944,-242.2592 371.2326,-235.6265 368.8996,-242.2263"/>
</g>
<!-- Node11 -->
<g id="node12" class="node">
<title>Node11</title>
<g id="a_node12"><a xlink:href="devap-devap3a_8f90.xhtml#a17ba90fce56ef249f2a4a49685316d99" target="_top" xlink:title="Evaporation routine. ">
<polygon fill="#ffffff" stroke="#000000" points="382,-317.9519 382,-336.9519 429,-336.9519 429,-317.9519 382,-317.9519"/>
<text text-anchor="middle" x="405.5" y="-324.9519" font-family="Helvetica,sans-Serif" font-size="10.00" fill="#000000">devap</text>
</a>
</g>
</g>
<!-- Node9&#45;&gt;Node11 -->
<g id="edge14" class="edge">
<title>Node9&#45;&gt;Node11</title>
<path fill="none" stroke="#191970" d="M325.0548,-223.1582C329.7512,-225.6789 334.3053,-228.7533 338,-232.4519 364.4144,-258.8947 348.9306,-280.7308 374,-308.4519 375.0174,-309.5769 376.1171,-310.6567 377.2752,-311.69"/>
<polygon fill="#191970" stroke="#191970" points="375.3978,-314.6558 385.509,-317.8207 379.5784,-309.0412 375.3978,-314.6558"/>
</g>
<!-- Node13 -->
<g id="node14" class="node">
<title>Node13</title>
<g id="a_node14"><a xlink:href="termdd-termdd2a_8f90.xhtml#aa3828f78344c5b583d8f06c5c86680de" target="_top" xlink:title="Calculate whether downdraught is able to continue. ">
<polygon fill="#ffffff" stroke="#000000" points="379.5,-203.9519 379.5,-222.9519 431.5,-222.9519 431.5,-203.9519 379.5,-203.9519"/>
<text text-anchor="middle" x="405.5" y="-210.9519" font-family="Helvetica,sans-Serif" font-size="10.00" fill="#000000">termdd</text>
</a>
</g>
</g>
<!-- Node9&#45;&gt;Node13 -->
<g id="edge16" class="edge">
<title>Node9&#45;&gt;Node13</title>
<path fill="none" stroke="#191970" d="M336.5063,-213.4519C347.1699,-213.4519 358.7061,-213.4519 369.2371,-213.4519"/>
<polygon fill="#191970" stroke="#191970" points="369.3636,-216.952 379.3636,-213.4519 369.3636,-209.952 369.3636,-216.952"/>
</g>
<!-- Node14 -->
<g id="node15" class="node">
<title>Node14</title>
<g id="a_node15"><a xlink:href="dd__env-ddenv4a_8f90.xhtml#a826a0e1922f06a0c98338351c9144b4b" target="_top" xlink:title="Calculate the effect of the downdraught on the large&#45;scale atmosphere. ">
<polygon fill="#ffffff" stroke="#000000" points="379.5,-279.9519 379.5,-298.9519 431.5,-298.9519 431.5,-279.9519 379.5,-279.9519"/>
<text text-anchor="middle" x="405.5" y="-286.9519" font-family="Helvetica,sans-Serif" font-size="10.00" fill="#000000">dd_env</text>
</a>
</g>
</g>
<!-- Node9&#45;&gt;Node14 -->
<g id="edge17" class="edge">
<title>Node9&#45;&gt;Node14</title>
<path fill="none" stroke="#191970" d="M322.0843,-223.1257C327.5382,-225.789 333.1472,-228.929 338,-232.4519 356.8266,-246.1192 355.8749,-255.8671 374,-270.4519 375.5673,-271.7131 377.2259,-272.9516 378.9295,-274.1539"/>
<polygon fill="#191970" stroke="#191970" points="377.3182,-277.2811 387.609,-279.801 381.1357,-271.4137 377.3182,-277.2811"/>
</g>
<!-- Node12 -->
<g id="node13" class="node">
<title>Node12</title>
<g id="a_node13"><a xlink:href="evp-evp3a_8f90.xhtml#a1f5f8c5d680d3475f55a0e4d9037eae0" target="_top" xlink:title="Calculates the evaporation of precipitation. ">
<polygon fill="#ffffff" stroke="#000000" points="491.5,-89.9519 491.5,-108.9519 526.5,-108.9519 526.5,-89.9519 491.5,-89.9519"/>
<text text-anchor="middle" x="509" y="-96.9519" font-family="Helvetica,sans-Serif" font-size="10.00" fill="#000000">evp</text>
</a>
</g>
</g>
<!-- Node11&#45;&gt;Node12 -->
<g id="edge15" class="edge">
<title>Node11&#45;&gt;Node12</title>
<path fill="none" stroke="#191970" d="M427.1802,-317.7494C430.9358,-315.2059 434.4476,-312.1222 437,-308.4519 486.0705,-237.8902 421.9343,-187.5834 473,-118.4519 475.48,-115.0946 478.7319,-112.275 482.2675,-109.9239"/>
<polygon fill="#191970" stroke="#191970" points="484.2318,-112.8407 491.3626,-105.0047 480.9016,-106.6835 484.2318,-112.8407"/>
</g>
<!-- Node15&#45;&gt;Node5 -->
<g id="edge21" class="edge">
<title>Node15&#45;&gt;Node5</title>
<path fill="none" stroke="#191970" d="M302.1313,-261.0818C311.4568,-281.4135 336.3071,-328.3358 374,-346.4519 399.2365,-358.5812 414.2035,-362.7099 437,-346.4519 468.819,-323.7593 495.5818,-204.8844 505.1933,-157.2349"/>
<polygon fill="#191970" stroke="#191970" points="508.6644,-157.7231 507.168,-147.2345 501.797,-156.367 508.6644,-157.7231"/>
</g>
<!-- Node15&#45;&gt;Node7 -->
<g id="edge19" class="edge">
<title>Node15&#45;&gt;Node7</title>
<path fill="none" stroke="#191970" d="M323.2978,-241.8426C328.4616,-239.2399 333.6423,-236.1093 338,-232.4519 363.8372,-210.767 384.6498,-177.0351 396.0242,-156.1442"/>
<polygon fill="#191970" stroke="#191970" points="399.2621,-157.5074 400.8305,-147.0293 393.0702,-154.2424 399.2621,-157.5074"/>
</g>
<!-- Node15&#45;&gt;Node10 -->
<g id="edge20" class="edge">
<title>Node15&#45;&gt;Node10</title>
<path fill="none" stroke="#191970" d="M336.5063,-251.4519C347.1699,-251.4519 358.7061,-251.4519 369.2371,-251.4519"/>
<polygon fill="#191970" stroke="#191970" points="369.3636,-254.952 379.3636,-251.4519 369.3636,-247.952 369.3636,-254.952"/>
</g>
<!-- Node15&#45;&gt;Node11 -->
<g id="edge22" class="edge">
<title>Node15&#45;&gt;Node11</title>
<path fill="none" stroke="#191970" d="M310.0968,-261.122C324.865,-272.7864 350.7508,-292.7798 374,-308.4519 375.9362,-309.7571 377.962,-311.0771 380.0121,-312.3809"/>
<polygon fill="#191970" stroke="#191970" points="378.6062,-315.6261 388.9545,-317.8984 382.2819,-309.6687 378.6062,-315.6261"/>
</g>
<!-- Node15&#45;&gt;Node13 -->
<g id="edge23" class="edge">
<title>Node15&#45;&gt;Node13</title>
<path fill="none" stroke="#191970" d="M325.1268,-241.8629C338.6707,-237.0753 355.2317,-231.2212 369.7939,-226.0736"/>
<polygon fill="#191970" stroke="#191970" points="371.2326,-229.2774 379.4944,-222.6446 368.8996,-222.6775 371.2326,-229.2774"/>
</g>
<!-- Node15&#45;&gt;Node14 -->
<g id="edge24" class="edge">
<title>Node15&#45;&gt;Node14</title>
<path fill="none" stroke="#191970" d="M325.1268,-261.0409C338.6707,-265.8285 355.2317,-271.6827 369.7939,-276.8302"/>
<polygon fill="#191970" stroke="#191970" points="368.8996,-280.2263 379.4944,-280.2592 371.2326,-273.6265 368.8996,-280.2263"/>
</g>
<!-- Node17&#45;&gt;Node4 -->
<g id="edge29" class="edge">
<title>Node17&#45;&gt;Node4</title>
<path fill="none" stroke="#191970" d="M338.029,-49.5268C346.432,-51.012 355.3145,-52.5819 363.7776,-54.0777"/>
<polygon fill="#191970" stroke="#191970" points="363.3758,-57.5609 373.8324,-55.8549 364.5942,-50.6677 363.3758,-57.5609"/>
</g>
<!-- Node17&#45;&gt;Node5 -->
<g id="edge27" class="edge">
<title>Node17&#45;&gt;Node5</title>
<path fill="none" stroke="#191970" d="M331.9522,-32.9253C361.9596,-26.5897 405.6987,-22.6434 437,-42.4519 468.5828,-62.4385 447.1491,-91.4581 473,-118.4519 475.3462,-120.9019 478.0782,-123.101 480.9689,-125.0574"/>
<polygon fill="#191970" stroke="#191970" points="479.4789,-128.2385 489.8896,-130.2057 482.9779,-122.1757 479.4789,-128.2385"/>
</g>
<!-- Node17&#45;&gt;Node12 -->
<g id="edge28" class="edge">
<title>Node17&#45;&gt;Node12</title>
<path fill="none" stroke="#191970" d="M311.7,-32.8883C337.9193,-15.8781 396.2095,15.5999 437,-9.4519 467.1483,-27.9677 448.1879,-55.2306 473,-80.4519 475.8188,-83.3172 479.162,-85.8472 482.6575,-88.0493"/>
<polygon fill="#191970" stroke="#191970" points="480.9945,-91.129 491.4482,-92.8526 484.351,-84.9862 480.9945,-91.129"/>
</g>
<!-- Node18&#45;&gt;Node7 -->
<g id="edge32" class="edge">
<title>Node18&#45;&gt;Node7</title>
<path fill="none" stroke="#191970" d="M329.6721,-137.4519C342.9645,-137.4519 358.4373,-137.4519 371.9268,-137.4519"/>
<polygon fill="#191970" stroke="#191970" points="372.2403,-140.952 382.2403,-137.4519 372.2403,-133.952 372.2403,-140.952"/>
</g>
<!-- Node18&#45;&gt;Node12 -->
<g id="edge31" class="edge">
<title>Node18&#45;&gt;Node12</title>
<path fill="none" stroke="#191970" d="M329.6341,-128.7526C343.2185,-125.2229 359.3155,-121.3126 374,-118.4519 410.9167,-111.2602 454.0188,-105.6759 481.4034,-102.4745"/>
<polygon fill="#191970" stroke="#191970" points="481.8895,-105.9418 491.4266,-101.3274 481.0935,-98.9872 481.8895,-105.9418"/>
</g>
</g>
</svg>
