<?xml version="1.0" encoding="UTF-8" standalone="no"?>
<!DOCTYPE svg PUBLIC "-//W3C//DTD SVG 1.1//EN"
 "http://www.w3.org/Graphics/SVG/1.1/DTD/svg11.dtd">
<!-- Generated by graphviz version 2.40.1 (20161225.0304)
 -->
<!-- Title: init_umhdr Pages: 1 -->
<svg width="266pt" height="28pt"
 viewBox="0.00 0.00 266.00 28.00" xmlns="http://www.w3.org/2000/svg" xmlns:xlink="http://www.w3.org/1999/xlink">
<g id="graph0" class="graph" transform="scale(1 1) rotate(0) translate(4 24)">
<title>init_umhdr</title>
<polygon fill="#ffffff" stroke="transparent" points="-4,4 -4,-24 262,-24 262,4 -4,4"/>
<!-- Node240 -->
<g id="node1" class="node">
<title>Node240</title>
<polygon fill="#bfbfbf" stroke="#000000" points="0,-.5 0,-19.5 69,-19.5 69,-.5 0,-.5"/>
<text text-anchor="middle" x="34.5" y="-7.5" font-family="Helvetica,sans-Serif" font-size="10.00" fill="#000000">init_umhdr</text>
</g>
<!-- Node241 -->
<g id="node2" class="node">
<title>Node241</title>
<g id="a_node2"><a xlink:href="degribify_8f90.xhtml#af83e6bde65cc2f47da36cddae7e9a38f" target="_top" xlink:title="Routines for converting fields from fieldsfile to GRIB. ">
<polygon fill="#ffffff" stroke="#000000" points="105,-.5 105,-19.5 165,-19.5 165,-.5 105,-.5"/>
<text text-anchor="middle" x="135" y="-7.5" font-family="Helvetica,sans-Serif" font-size="10.00" fill="#000000">degribify</text>
</a>
</g>
</g>
<!-- Node240&#45;&gt;Node241 -->
<g id="edge1" class="edge">
<title>Node240&#45;&gt;Node241</title>
<path fill="none" stroke="#191970" d="M79.0895,-10C87.7532,-10 96.6442,-10 104.7147,-10"/>
<polygon fill="#191970" stroke="#191970" points="79.0864,-6.5001 69.0864,-10 79.0864,-13.5001 79.0864,-6.5001"/>
</g>
<!-- Node242 -->
<g id="node3" class="node">
<title>Node242</title>
<g id="a_node3"><a xlink:href="fieldcalc_8f90.xhtml#ac71d10790a6550f257c927ee60db58b2" target="_top" xlink:title="Program for post&#45;processing of UM output. ">
<polygon fill="#ffffff" stroke="#000000" points="201,-.5 201,-19.5 258,-19.5 258,-.5 201,-.5"/>
<text text-anchor="middle" x="229.5" y="-7.5" font-family="Helvetica,sans-Serif" font-size="10.00" fill="#000000">fieldcalc</text>
</a>
</g>
</g>
<!-- Node241&#45;&gt;Node242 -->
<g id="edge2" class="edge">
<title>Node241&#45;&gt;Node242</title>
<path fill="none" stroke="#191970" d="M175.4003,-10C183.9848,-10 192.8776,-10 200.9125,-10"/>
<polygon fill="#191970" stroke="#191970" points="175.1602,-6.5001 165.1602,-10 175.1602,-13.5001 175.1602,-6.5001"/>
</g>
</g>
</svg>
