<?xml version="1.0" encoding="UTF-8" standalone="no"?>
<!DOCTYPE svg PUBLIC "-//W3C//DTD SVG 1.1//EN"
 "http://www.w3.org/Graphics/SVG/1.1/DTD/svg11.dtd">
<!-- Generated by graphviz version 2.40.1 (20161225.0304)
 -->
<!-- Title: derv_intf_a Pages: 1 -->
<svg width="299pt" height="66pt"
 viewBox="0.00 0.00 299.00 66.00" xmlns="http://www.w3.org/2000/svg" xmlns:xlink="http://www.w3.org/1999/xlink">
<g id="graph0" class="graph" transform="scale(1 1) rotate(0) translate(4 62)">
<title>derv_intf_a</title>
<polygon fill="#ffffff" stroke="transparent" points="-4,4 -4,-62 295,-62 295,4 -4,4"/>
<!-- Node6 -->
<g id="node1" class="node">
<title>Node6</title>
<polygon fill="#bfbfbf" stroke="#000000" points="0,-19.5 0,-38.5 71,-38.5 71,-19.5 0,-19.5"/>
<text text-anchor="middle" x="35.5" y="-26.5" font-family="Helvetica,sans-Serif" font-size="10.00" fill="#000000">derv_intf_a</text>
</g>
<!-- Node7 -->
<g id="node2" class="node">
<title>Node7</title>
<g id="a_node2"><a xlink:href="um__shell_8f90.xhtml#a8c9bd25362824a5c301376ecb5ed5c27" target="_top" xlink:title="Subroutine: UM_SHELL !&gt; ">
<polygon fill="#ffffff" stroke="#000000" points="119.5,-38.5 119.5,-57.5 180.5,-57.5 180.5,-38.5 119.5,-38.5"/>
<text text-anchor="middle" x="150" y="-45.5" font-family="Helvetica,sans-Serif" font-size="10.00" fill="#000000">um_shell</text>
</a>
</g>
</g>
<!-- Node6&#45;&gt;Node7 -->
<g id="edge1" class="edge">
<title>Node6&#45;&gt;Node7</title>
<path fill="none" stroke="#191970" d="M81.1837,-36.5807C94.0385,-38.7138 107.7052,-40.9816 119.443,-42.9294"/>
<polygon fill="#191970" stroke="#191970" points="81.539,-33.0919 71.1009,-34.9076 80.393,-39.9974 81.539,-33.0919"/>
</g>
<!-- Node9 -->
<g id="node4" class="node">
<title>Node9</title>
<g id="a_node4"><a xlink:href="main__makebc_8f90.xhtml#a50b6c2de94add4874d93c8719b2fe8c3" target="_top" xlink:title="Program MAKEBC : Top&#45;level program to create boundary dataset. ">
<polygon fill="#ffffff" stroke="#000000" points="107,-.5 107,-19.5 193,-19.5 193,-.5 107,-.5"/>
<text text-anchor="middle" x="150" y="-7.5" font-family="Helvetica,sans-Serif" font-size="10.00" fill="#000000">main_makebc</text>
</a>
</g>
</g>
<!-- Node6&#45;&gt;Node9 -->
<g id="edge3" class="edge">
<title>Node6&#45;&gt;Node9</title>
<path fill="none" stroke="#191970" d="M81.1708,-21.4214C89.6116,-20.0208 98.4028,-18.562 106.7686,-17.1738"/>
<polygon fill="#191970" stroke="#191970" points="80.393,-18.0026 71.1009,-23.0924 81.539,-24.9081 80.393,-18.0026"/>
</g>
<!-- Node8 -->
<g id="node3" class="node">
<title>Node8</title>
<g id="a_node3"><a xlink:href="um__main_8f90.xhtml#a8f2d13215621443a5313261c282f098b" target="_top" xlink:title="Code Owner: See Unified Model Code Owner&#39;s HTML page. ">
<polygon fill="#ffffff" stroke="#000000" points="229,-38.5 229,-57.5 291,-57.5 291,-38.5 229,-38.5"/>
<text text-anchor="middle" x="260" y="-45.5" font-family="Helvetica,sans-Serif" font-size="10.00" fill="#000000">um_main</text>
</a>
</g>
</g>
<!-- Node7&#45;&gt;Node8 -->
<g id="edge2" class="edge">
<title>Node7&#45;&gt;Node8</title>
<path fill="none" stroke="#191970" d="M190.859,-48C203.392,-48 216.9759,-48 228.7589,-48"/>
<polygon fill="#191970" stroke="#191970" points="190.6412,-44.5001 180.6411,-48 190.6411,-51.5001 190.6412,-44.5001"/>
</g>
</g>
</svg>
