<?xml version="1.0" encoding="UTF-8" standalone="no"?>
<!DOCTYPE svg PUBLIC "-//W3C//DTD SVG 1.1//EN"
 "http://www.w3.org/Graphics/SVG/1.1/DTD/svg11.dtd">
<!-- Generated by graphviz version 2.40.1 (20161225.0304)
 -->
<!-- Title: det_rate_4a5a Pages: 1 -->
<!--zoomable 256 -->
<svg id="main" version="1.1" xmlns="http://www.w3.org/2000/svg" xmlns:xlink="http://www.w3.org/1999/xlink" xml:space="preserve" onload="init(evt)">
<style type="text/css"><![CDATA[
.edge:hover path { stroke: red; }
.edge:hover polygon { stroke: red; fill: red; }
]]></style>
<script type="text/javascript"><![CDATA[
var edges = document.getElementsByTagName('g');
if (edges && edges.length) {
  for (var i=0;i<edges.length;i++) {
    if (edges[i].id.substr(0,4)=='edge') {
      edges[i].setAttribute('class','edge');
    }
  }
}
]]></script>
        <defs>
                <circle id="rim" cx="0" cy="0" r="7"/>
                <circle id="rim2" cx="0" cy="0" r="3.5"/>
                <g id="zoomPlus">
                        <use xlink:href="#rim" fill="#404040">
                                <set attributeName="fill" to="#808080" begin="zoomplus.mouseover" end="zoomplus.mouseout"/>
                        </use>
                        <path d="M-4,0h8M0,-4v8" fill="none" stroke="white" stroke-width="1.5" pointer-events="none"/>
                </g>
                <g id="zoomMin">
                        <use xlink:href="#rim" fill="#404040">
                                <set attributeName="fill" to="#808080" begin="zoomminus.mouseover" end="zoomminus.mouseout"/>
                        </use>
                        <path d="M-4,0h8" fill="none" stroke="white" stroke-width="1.5" pointer-events="none"/>
                </g>
                <g id="dirArrow">
                        <path fill="none" stroke="white" stroke-width="1.5" d="M0,-3.0v7 M-2.5,-0.5L0,-3.0L2.5,-0.5"/>
                </g>
               <g id="resetDef">
                       <use xlink:href="#rim2" fill="#404040">
                               <set attributeName="fill" to="#808080" begin="reset.mouseover" end="reset.mouseout"/>
                       </use>
               </g>
        </defs>

<script type="text/javascript">
var viewWidth = 1414;
var viewHeight = 256;
var sectionId = 'dynsection-0';
</script>
<script xlink:href="svgpan.js"/>
<svg id="graph" class="graph">
<g id="viewport">
<title>det_rate_4a5a</title>
<polygon fill="#ffffff" stroke="transparent" points="-4,4 -4,-252 1410,-252 1410,4 -4,4"/>
<!-- Node1 -->
<g id="node1" class="node">
<title>Node1</title>
<polygon fill="#bfbfbf" stroke="#000000" points="0,-114.5 0,-133.5 86,-133.5 86,-114.5 0,-114.5"/>
<text text-anchor="middle" x="43" y="-121.5" font-family="Helvetica,sans-Serif" font-size="10.00" fill="#000000">det_rate_4a5a</text>
</g>
<!-- Node2 -->
<g id="node2" class="node">
<title>Node2</title>
<g id="a_node2"><a xlink:href="detrain-detrai4a_8f90.xhtml#ad61df286e88aa4c333debed73820a669" target="_top" xlink:title="forced detrainment calculation ">
<polygon fill="#ffffff" stroke="#000000" points="122,-114.5 122,-133.5 202,-133.5 202,-114.5 122,-114.5"/>
<text text-anchor="middle" x="162" y="-121.5" font-family="Helvetica,sans-Serif" font-size="10.00" fill="#000000">detrain_4a5a</text>
</a>
</g>
</g>
<!-- Node1&#45;&gt;Node2 -->
<g id="edge1" class="edge">
<title>Node1&#45;&gt;Node2</title>
<path fill="none" stroke="#191970" d="M96.5006,-124C104.9695,-124 113.6022,-124 121.703,-124"/>
<polygon fill="#191970" stroke="#191970" points="96.2984,-120.5001 86.2984,-124 96.2983,-127.5001 96.2984,-120.5001"/>
</g>
<!-- Node3 -->
<g id="node3" class="node">
<title>Node3</title>
<g id="a_node3"><a xlink:href="parcel-parcel4a_8f90.xhtml#a0a5729491c30601478bf7dba9a99d975" target="_top" xlink:title="Completes lifting of the parcel from layer k to k+1. ">
<polygon fill="#ffffff" stroke="#000000" points="238,-114.5 238,-133.5 314,-133.5 314,-114.5 238,-114.5"/>
<text text-anchor="middle" x="276" y="-121.5" font-family="Helvetica,sans-Serif" font-size="10.00" fill="#000000">parcel_4a5a</text>
</a>
</g>
</g>
<!-- Node2&#45;&gt;Node3 -->
<g id="edge2" class="edge">
<title>Node2&#45;&gt;Node3</title>
<path fill="none" stroke="#191970" d="M212.3998,-124C220.891,-124 229.5803,-124 237.7002,-124"/>
<polygon fill="#191970" stroke="#191970" points="212.1922,-120.5001 202.1921,-124 212.1921,-127.5001 212.1922,-120.5001"/>
</g>
<!-- Node4 -->
<g id="node4" class="node">
<title>Node4</title>
<g id="a_node4"><a xlink:href="convec2-conv24a_8f90.xhtml#a9b41c79077663aeb17d05e1d1061d13a" target="_top" xlink:title="Completes lifting of the parcel from layer k to k+1. ">
<polygon fill="#ffffff" stroke="#000000" points="350,-114.5 350,-133.5 436,-133.5 436,-114.5 350,-114.5"/>
<text text-anchor="middle" x="393" y="-121.5" font-family="Helvetica,sans-Serif" font-size="10.00" fill="#000000">convec2_4a5a</text>
</a>
</g>
</g>
<!-- Node3&#45;&gt;Node4 -->
<g id="edge3" class="edge">
<title>Node3&#45;&gt;Node4</title>
<path fill="none" stroke="#191970" d="M324.3751,-124C332.7834,-124 341.4796,-124 349.74,-124"/>
<polygon fill="#191970" stroke="#191970" points="324.3102,-120.5001 314.3102,-124 324.3101,-127.5001 324.3102,-120.5001"/>
</g>
<!-- Node5 -->
<g id="node5" class="node">
<title>Node5</title>
<g id="a_node5"><a xlink:href="congest__conv_8f90.xhtml#a7c8195a99d74e6fe8fb182bba742ffed" target="_top" xlink:title="Congestus convection scheme. ">
<polygon fill="#ffffff" stroke="#000000" points="480.5,-228.5 480.5,-247.5 563.5,-247.5 563.5,-228.5 480.5,-228.5"/>
<text text-anchor="middle" x="522" y="-235.5" font-family="Helvetica,sans-Serif" font-size="10.00" fill="#000000">congest_conv</text>
</a>
</g>
</g>
<!-- Node4&#45;&gt;Node5 -->
<g id="edge4" class="edge">
<title>Node4&#45;&gt;Node5</title>
<path fill="none" stroke="#191970" d="M404.1339,-142.4468C417.7457,-163.5931 442.6318,-198.0284 472,-219 477.29,-222.7776 483.4255,-225.9098 489.5485,-228.4673"/>
<polygon fill="#191970" stroke="#191970" points="406.9702,-140.3814 398.6975,-133.7622 401.0368,-144.0955 406.9702,-140.3814"/>
</g>
<!-- Node17 -->
<g id="node17" class="node">
<title>Node17</title>
<g id="a_node17"><a xlink:href="deep__conv-dpconv4a_8f90.xhtml#a4a054214a4fde2ea5c75f564b22b7730" target="_top" xlink:title="Deep convection scheme. ">
<polygon fill="#ffffff" stroke="#000000" points="479,-76.5 479,-95.5 565,-95.5 565,-76.5 479,-76.5"/>
<text text-anchor="middle" x="522" y="-83.5" font-family="Helvetica,sans-Serif" font-size="10.00" fill="#000000">deep_conv_4a</text>
</a>
</g>
</g>
<!-- Node4&#45;&gt;Node17 -->
<g id="edge17" class="edge">
<title>Node4&#45;&gt;Node17</title>
<path fill="none" stroke="#191970" d="M435.554,-111.4647C453.103,-106.2952 473.1127,-100.4009 489.4583,-95.5859"/>
<polygon fill="#191970" stroke="#191970" points="434.1556,-108.2279 425.5521,-114.411 436.1336,-114.9426 434.1556,-108.2279"/>
</g>
<!-- Node19 -->
<g id="node19" class="node">
<title>Node19</title>
<g id="a_node19"><a xlink:href="deep__conv-dpconv5a_8f90.xhtml#ae86fee3769d20ffd6fc73ad19a1cf983" target="_top" xlink:title="Deep convection scheme. ">
<polygon fill="#ffffff" stroke="#000000" points="479,-190.5 479,-209.5 565,-209.5 565,-190.5 479,-190.5"/>
<text text-anchor="middle" x="522" y="-197.5" font-family="Helvetica,sans-Serif" font-size="10.00" fill="#000000">deep_conv_5a</text>
</a>
</g>
</g>
<!-- Node4&#45;&gt;Node19 -->
<g id="edge20" class="edge">
<title>Node4&#45;&gt;Node19</title>
<path fill="none" stroke="#191970" d="M411.9245,-139.8361C427.3706,-152.2091 450.1397,-169.225 472,-181 478.5405,-184.523 485.8759,-187.6996 492.8708,-190.4022"/>
<polygon fill="#191970" stroke="#191970" points="414.1129,-137.1044 404.1491,-133.5026 409.692,-142.5318 414.1129,-137.1044"/>
</g>
<!-- Node20 -->
<g id="node20" class="node">
<title>Node20</title>
<g id="a_node20"><a xlink:href="mid__conv-mdconv4a_8f90.xhtml#a27f844a5905bbf9765e10d27e2f7e157" target="_top" xlink:title="Mid&#45;level convection scheme. ">
<polygon fill="#ffffff" stroke="#000000" points="481.5,-38.5 481.5,-57.5 562.5,-57.5 562.5,-38.5 481.5,-38.5"/>
<text text-anchor="middle" x="522" y="-45.5" font-family="Helvetica,sans-Serif" font-size="10.00" fill="#000000">mid_conv_4a</text>
</a>
</g>
</g>
<!-- Node4&#45;&gt;Node20 -->
<g id="edge22" class="edge">
<title>Node4&#45;&gt;Node20</title>
<path fill="none" stroke="#191970" d="M411.9245,-108.1639C427.3706,-95.7909 450.1397,-78.775 472,-67 478.5405,-63.477 485.8759,-60.3004 492.8708,-57.5978"/>
<polygon fill="#191970" stroke="#191970" points="409.692,-105.4682 404.1491,-114.4974 414.1129,-110.8956 409.692,-105.4682"/>
</g>
<!-- Node21 -->
<g id="node21" class="node">
<title>Node21</title>
<g id="a_node21"><a xlink:href="mid__conv-mdconv5a_8f90.xhtml#ab66fee07f6cbf1091693ce2ebca374e0" target="_top" xlink:title="Mid&#45;level convection scheme. ">
<polygon fill="#ffffff" stroke="#000000" points="481.5,-152.5 481.5,-171.5 562.5,-171.5 562.5,-152.5 481.5,-152.5"/>
<text text-anchor="middle" x="522" y="-159.5" font-family="Helvetica,sans-Serif" font-size="10.00" fill="#000000">mid_conv_5a</text>
</a>
</g>
</g>
<!-- Node4&#45;&gt;Node21 -->
<g id="edge24" class="edge">
<title>Node4&#45;&gt;Node21</title>
<path fill="none" stroke="#191970" d="M435.554,-136.5353C453.103,-141.7048 473.1127,-147.5991 489.4583,-152.4141"/>
<polygon fill="#191970" stroke="#191970" points="436.1336,-133.0574 425.5521,-133.589 434.1556,-139.7721 436.1336,-133.0574"/>
</g>
<!-- Node22 -->
<g id="node22" class="node">
<title>Node22</title>
<g id="a_node22"><a xlink:href="shallow__conv-shconv4a_8f90.xhtml#aee87339d94d1e5bd657d531a71992cf3" target="_top" xlink:title="Shallow convection scheme. ">
<polygon fill="#ffffff" stroke="#000000" points="472,-.5 472,-19.5 572,-19.5 572,-.5 472,-.5"/>
<text text-anchor="middle" x="522" y="-7.5" font-family="Helvetica,sans-Serif" font-size="10.00" fill="#000000">shallow_conv_4a</text>
</a>
</g>
</g>
<!-- Node4&#45;&gt;Node22 -->
<g id="edge26" class="edge">
<title>Node4&#45;&gt;Node22</title>
<path fill="none" stroke="#191970" d="M404.1339,-105.5532C417.7457,-84.4069 442.6318,-49.9716 472,-29 477.29,-25.2224 483.4255,-22.0902 489.5485,-19.5327"/>
<polygon fill="#191970" stroke="#191970" points="401.0368,-103.9045 398.6975,-114.2378 406.9702,-107.6186 401.0368,-103.9045"/>
</g>
<!-- Node23 -->
<g id="node23" class="node">
<title>Node23</title>
<g id="a_node23"><a xlink:href="shallow__conv-shconv5a_8f90.xhtml#a9ee8df16ba28e0c3503e5d848118c242" target="_top" xlink:title="Shallow convection scheme. ">
<polygon fill="#ffffff" stroke="#000000" points="472,-114.5 472,-133.5 572,-133.5 572,-114.5 472,-114.5"/>
<text text-anchor="middle" x="522" y="-121.5" font-family="Helvetica,sans-Serif" font-size="10.00" fill="#000000">shallow_conv_5a</text>
</a>
</g>
</g>
<!-- Node4&#45;&gt;Node23 -->
<g id="edge28" class="edge">
<title>Node4&#45;&gt;Node23</title>
<path fill="none" stroke="#191970" d="M446.4254,-124C454.8538,-124 463.5422,-124 471.8915,-124"/>
<polygon fill="#191970" stroke="#191970" points="446.314,-120.5001 436.314,-124 446.314,-127.5001 446.314,-120.5001"/>
</g>
<!-- Node6 -->
<g id="node6" class="node">
<title>Node6</title>
<g id="a_node6"><a xlink:href="namespaceglue__conv__5a__mod.xhtml#a0a2a4645b74dadcd85116112a3eb1255" target="_top" xlink:title="Gather&#45;scatter routine for deep and shallow convection points. ">
<polygon fill="#ffffff" stroke="#000000" points="608,-147 608,-177 745,-177 745,-147 608,-147"/>
<text text-anchor="start" x="616" y="-165" font-family="Helvetica,sans-Serif" font-size="10.00" fill="#000000">glue_conv_5a_mod::glue</text>
<text text-anchor="middle" x="676.5" y="-154" font-family="Helvetica,sans-Serif" font-size="10.00" fill="#000000">_conv_5a</text>
</a>
</g>
</g>
<!-- Node5&#45;&gt;Node6 -->
<g id="edge5" class="edge">
<title>Node5&#45;&gt;Node6</title>
<path fill="none" stroke="#191970" d="M558.9048,-224.6308C563.3547,-222.8268 567.8057,-220.9299 572,-219 599.7851,-206.2152 630.3705,-189.1618 651.2319,-177.0484"/>
<polygon fill="#191970" stroke="#191970" points="557.2989,-221.5009 549.2653,-228.4083 559.8529,-228.0184 557.2989,-221.5009"/>
</g>
<!-- Node7 -->
<g id="node7" class="node">
<title>Node7</title>
<g id="a_node7"><a xlink:href="ni__conv__ctl_8f90.xhtml#a9923a06c286e88170babe094e612732d" target="_top" xlink:title="Subroutine NI_conv_ctl. ">
<polygon fill="#ffffff" stroke="#000000" points="781,-114.5 781,-133.5 852,-133.5 852,-114.5 781,-114.5"/>
<text text-anchor="middle" x="816.5" y="-121.5" font-family="Helvetica,sans-Serif" font-size="10.00" fill="#000000">ni_conv_ctl</text>
</a>
</g>
</g>
<!-- Node6&#45;&gt;Node7 -->
<g id="edge6" class="edge">
<title>Node6&#45;&gt;Node7</title>
<path fill="none" stroke="#191970" d="M741.6975,-144.3035C755.3469,-140.5987 769.241,-136.8275 781.2907,-133.5568"/>
<polygon fill="#191970" stroke="#191970" points="740.5657,-140.984 731.8317,-146.9814 742.3994,-147.7396 740.5657,-140.984"/>
</g>
<!-- Node8 -->
<g id="node8" class="node">
<title>Node8</title>
<g id="a_node8"><a xlink:href="atmos__physics2_8f90.xhtml#a0f74e8c75312201121b305cd566b175a" target="_top" xlink:title="Interface to Atmos Physics parametrizations after S&#45;L advection. ">
<polygon fill="#ffffff" stroke="#000000" points="888,-114.5 888,-133.5 983,-133.5 983,-114.5 888,-114.5"/>
<text text-anchor="middle" x="935.5" y="-121.5" font-family="Helvetica,sans-Serif" font-size="10.00" fill="#000000">atmos_physics2</text>
</a>
</g>
</g>
<!-- Node7&#45;&gt;Node8 -->
<g id="edge7" class="edge">
<title>Node7&#45;&gt;Node8</title>
<path fill="none" stroke="#191970" d="M862.2309,-124C870.6494,-124 879.457,-124 887.9283,-124"/>
<polygon fill="#191970" stroke="#191970" points="862.204,-120.5001 852.2039,-124 862.2039,-127.5001 862.204,-120.5001"/>
</g>
<!-- Node9 -->
<g id="node9" class="node">
<title>Node9</title>
<g id="a_node9"><a xlink:href="atm__step_8f90.xhtml#ac0ee2467a1a9959b7065fdb8fd27bce4" target="_top" xlink:title="Perform a 1&#45;timestep integration of the Atmosphere Model. ">
<polygon fill="#ffffff" stroke="#000000" points="1028,-152.5 1028,-171.5 1090,-171.5 1090,-152.5 1028,-152.5"/>
<text text-anchor="middle" x="1059" y="-159.5" font-family="Helvetica,sans-Serif" font-size="10.00" fill="#000000">atm_step</text>
</a>
</g>
</g>
<!-- Node8&#45;&gt;Node9 -->
<g id="edge8" class="edge">
<title>Node8&#45;&gt;Node9</title>
<path fill="none" stroke="#191970" d="M976.2397,-136.5353C993.0405,-141.7048 1012.197,-147.5991 1027.8457,-152.4141"/>
<polygon fill="#191970" stroke="#191970" points="977.2514,-133.1847 966.6643,-133.589 975.1927,-139.8752 977.2514,-133.1847"/>
</g>
<!-- Node13 -->
<g id="node13" class="node">
<title>Node13</title>
<g id="a_node13"><a xlink:href="atm__step__4_a_8f90.xhtml#a2319aa4963e90c64cd78bdcd5f481095" target="_top" xlink:title="Perform a 1&#45;timestep integration of the Atmosphere Model. ">
<polygon fill="#ffffff" stroke="#000000" points="1019,-114.5 1019,-133.5 1099,-133.5 1099,-114.5 1019,-114.5"/>
<text text-anchor="middle" x="1059" y="-121.5" font-family="Helvetica,sans-Serif" font-size="10.00" fill="#000000">atm_step_4a</text>
</a>
</g>
</g>
<!-- Node8&#45;&gt;Node13 -->
<g id="edge12" class="edge">
<title>Node8&#45;&gt;Node13</title>
<path fill="none" stroke="#191970" d="M993.3434,-124C1002.0185,-124 1010.7967,-124 1018.9897,-124"/>
<polygon fill="#191970" stroke="#191970" points="993.2484,-120.5001 983.2483,-124 993.2483,-127.5001 993.2484,-120.5001"/>
</g>
<!-- Node15 -->
<g id="node15" class="node">
<title>Node15</title>
<g id="a_node15"><a xlink:href="scm__main_8f90.xhtml#a2c730136605550612e094ce51d33a2a5" target="_top" xlink:title="*********************************COPYRIGHT********************************* ">
<polygon fill="#ffffff" stroke="#000000" points="1025.5,-76.5 1025.5,-95.5 1092.5,-95.5 1092.5,-76.5 1025.5,-76.5"/>
<text text-anchor="middle" x="1059" y="-83.5" font-family="Helvetica,sans-Serif" font-size="10.00" fill="#000000">scm_main</text>
</a>
</g>
</g>
<!-- Node8&#45;&gt;Node15 -->
<g id="edge15" class="edge">
<title>Node8&#45;&gt;Node15</title>
<path fill="none" stroke="#191970" d="M976.2397,-111.4647C993.0405,-106.2952 1012.197,-100.4009 1027.8457,-95.5859"/>
<polygon fill="#191970" stroke="#191970" points="975.1927,-108.1248 966.6643,-114.411 977.2514,-114.8153 975.1927,-108.1248"/>
</g>
<!-- Node10 -->
<g id="node10" class="node">
<title>Node10</title>
<g id="a_node10"><a xlink:href="u__model_8f90.xhtml#ada0cd2ce4699433bf0f9adbd882c8eec" target="_top" xlink:title="Subroutine: U_MODEL &#45;!&gt; ">
<polygon fill="#ffffff" stroke="#000000" points="1143.5,-152.5 1143.5,-171.5 1202.5,-171.5 1202.5,-152.5 1143.5,-152.5"/>
<text text-anchor="middle" x="1173" y="-159.5" font-family="Helvetica,sans-Serif" font-size="10.00" fill="#000000">u_model</text>
</a>
</g>
</g>
<!-- Node9&#45;&gt;Node10 -->
<g id="edge9" class="edge">
<title>Node9&#45;&gt;Node10</title>
<path fill="none" stroke="#191970" d="M1100.2532,-162C1114.5539,-162 1130.2895,-162 1143.4568,-162"/>
<polygon fill="#191970" stroke="#191970" points="1100.151,-158.5001 1090.151,-162 1100.151,-165.5001 1100.151,-158.5001"/>
</g>
<!-- Node11 -->
<g id="node11" class="node">
<title>Node11</title>
<g id="a_node11"><a xlink:href="um__shell_8f90.xhtml#a8c9bd25362824a5c301376ecb5ed5c27" target="_top" xlink:title="Subroutine: UM_SHELL !&gt; ">
<polygon fill="#ffffff" stroke="#000000" points="1247,-133.5 1247,-152.5 1308,-152.5 1308,-133.5 1247,-133.5"/>
<text text-anchor="middle" x="1277.5" y="-140.5" font-family="Helvetica,sans-Serif" font-size="10.00" fill="#000000">um_shell</text>
</a>
</g>
</g>
<!-- Node10&#45;&gt;Node11 -->
<g id="edge10" class="edge">
<title>Node10&#45;&gt;Node11</title>
<path fill="none" stroke="#191970" d="M1212.701,-154.7816C1223.951,-152.7362 1236.0261,-150.5407 1246.6677,-148.6059"/>
<polygon fill="#191970" stroke="#191970" points="1211.8786,-151.3737 1202.666,-156.6062 1213.1308,-158.2608 1211.8786,-151.3737"/>
</g>
<!-- Node12 -->
<g id="node12" class="node">
<title>Node12</title>
<g id="a_node12"><a xlink:href="um__main_8f90.xhtml#a8f2d13215621443a5313261c282f098b" target="_top" xlink:title="Code Owner: See Unified Model Code Owner&#39;s HTML page. ">
<polygon fill="#ffffff" stroke="#000000" points="1344,-133.5 1344,-152.5 1406,-152.5 1406,-133.5 1344,-133.5"/>
<text text-anchor="middle" x="1375" y="-140.5" font-family="Helvetica,sans-Serif" font-size="10.00" fill="#000000">um_main</text>
</a>
</g>
</g>
<!-- Node11&#45;&gt;Node12 -->
<g id="edge11" class="edge">
<title>Node11&#45;&gt;Node12</title>
<path fill="none" stroke="#191970" d="M1318.2756,-143C1326.8294,-143 1335.72,-143 1343.8551,-143"/>
<polygon fill="#191970" stroke="#191970" points="1318.0821,-139.5001 1308.0821,-143 1318.0821,-146.5001 1318.0821,-139.5001"/>
</g>
<!-- Node14 -->
<g id="node14" class="node">
<title>Node14</title>
<g id="a_node14"><a xlink:href="u__model__4_a_8f90.xhtml#afa05064dab5eba198b461d0928767c7e" target="_top" xlink:title="LL Subroutine: U_MODEL_4A (ENDGAME VERSION) !&gt;LL. ">
<polygon fill="#ffffff" stroke="#000000" points="1135,-114.5 1135,-133.5 1211,-133.5 1211,-114.5 1135,-114.5"/>
<text text-anchor="middle" x="1173" y="-121.5" font-family="Helvetica,sans-Serif" font-size="10.00" fill="#000000">u_model_4a</text>
</a>
</g>
</g>
<!-- Node13&#45;&gt;Node14 -->
<g id="edge13" class="edge">
<title>Node13&#45;&gt;Node14</title>
<path fill="none" stroke="#191970" d="M1109.3998,-124C1117.891,-124 1126.5803,-124 1134.7002,-124"/>
<polygon fill="#191970" stroke="#191970" points="1109.1922,-120.5001 1099.1921,-124 1109.1921,-127.5001 1109.1922,-120.5001"/>
</g>
<!-- Node14&#45;&gt;Node11 -->
<g id="edge14" class="edge">
<title>Node14&#45;&gt;Node11</title>
<path fill="none" stroke="#191970" d="M1220.8728,-132.7041C1229.7087,-134.3107 1238.7128,-135.9478 1246.8647,-137.43"/>
<polygon fill="#191970" stroke="#191970" points="1221.4873,-129.2586 1211.0225,-130.9132 1220.2351,-136.1457 1221.4873,-129.2586"/>
</g>
<!-- Node16 -->
<g id="node16" class="node">
<title>Node16</title>
<g id="a_node16"><a xlink:href="scm__shell_8f90.xhtml#ab15255829ee7b5be626b1c0861b40c8d" target="_top" xlink:title="scm_shell is the main calling program for the Single Column Model. ">
<polygon fill="#ffffff" stroke="#000000" points="1140.5,-76.5 1140.5,-95.5 1205.5,-95.5 1205.5,-76.5 1140.5,-76.5"/>
<text text-anchor="middle" x="1173" y="-83.5" font-family="Helvetica,sans-Serif" font-size="10.00" fill="#000000">scm_shell</text>
</a>
</g>
</g>
<!-- Node15&#45;&gt;Node16 -->
<g id="edge16" class="edge">
<title>Node15&#45;&gt;Node16</title>
<path fill="none" stroke="#191970" d="M1102.8248,-86C1115.3307,-86 1128.7319,-86 1140.4371,-86"/>
<polygon fill="#191970" stroke="#191970" points="1102.5872,-82.5001 1092.5872,-86 1102.5871,-89.5001 1102.5872,-82.5001"/>
</g>
<!-- Node18 -->
<g id="node18" class="node">
<title>Node18</title>
<g id="a_node18"><a xlink:href="namespaceglue__conv__4a__mod.xhtml#a4cb48dc3e9cfb0ea5d0daf6d1889ed9b" target="_top" xlink:title="Gather&#45;scatter routine for deep and shallow convection points. ">
<polygon fill="#ffffff" stroke="#000000" points="608,-52 608,-82 745,-82 745,-52 608,-52"/>
<text text-anchor="start" x="616" y="-70" font-family="Helvetica,sans-Serif" font-size="10.00" fill="#000000">glue_conv_4a_mod::glue</text>
<text text-anchor="middle" x="676.5" y="-59" font-family="Helvetica,sans-Serif" font-size="10.00" fill="#000000">_conv_4a</text>
</a>
</g>
</g>
<!-- Node17&#45;&gt;Node18 -->
<g id="edge18" class="edge">
<title>Node17&#45;&gt;Node18</title>
<path fill="none" stroke="#191970" d="M574.9715,-79.4857C585.5821,-78.1808 596.8729,-76.7923 607.924,-75.4333"/>
<polygon fill="#191970" stroke="#191970" points="574.5349,-76.0129 565.0369,-80.7074 575.3893,-82.9606 574.5349,-76.0129"/>
</g>
<!-- Node18&#45;&gt;Node7 -->
<g id="edge19" class="edge">
<title>Node18&#45;&gt;Node7</title>
<path fill="none" stroke="#191970" d="M723.0615,-85.9572C746.4531,-95.4809 773.7922,-106.6118 792.8313,-114.3635"/>
<polygon fill="#191970" stroke="#191970" points="724.2315,-82.6546 713.6499,-82.1253 721.5918,-89.1379 724.2315,-82.6546"/>
</g>
<!-- Node19&#45;&gt;Node6 -->
<g id="edge21" class="edge">
<title>Node19&#45;&gt;Node6</title>
<path fill="none" stroke="#191970" d="M570.9465,-187.9614C585.0221,-184.4994 600.5524,-180.6797 615.2711,-177.0595"/>
<polygon fill="#191970" stroke="#191970" points="569.8615,-184.6238 560.9869,-190.411 571.5334,-191.4213 569.8615,-184.6238"/>
</g>
<!-- Node20&#45;&gt;Node18 -->
<g id="edge23" class="edge">
<title>Node20&#45;&gt;Node18</title>
<path fill="none" stroke="#191970" d="M572.6422,-54.2278C583.8818,-55.6101 595.9776,-57.0976 607.8027,-58.5518"/>
<polygon fill="#191970" stroke="#191970" points="572.9455,-50.7389 562.5931,-52.992 572.0911,-57.6865 572.9455,-50.7389"/>
</g>
<!-- Node21&#45;&gt;Node6 -->
<g id="edge25" class="edge">
<title>Node21&#45;&gt;Node6</title>
<path fill="none" stroke="#191970" d="M572.6422,-162C583.8818,-162 595.9776,-162 607.8027,-162"/>
<polygon fill="#191970" stroke="#191970" points="572.5931,-158.5001 562.5931,-162 572.593,-165.5001 572.5931,-158.5001"/>
</g>
<!-- Node22&#45;&gt;Node18 -->
<g id="edge27" class="edge">
<title>Node22&#45;&gt;Node18</title>
<path fill="none" stroke="#191970" d="M557.374,-23.0506C580.7099,-31.66 611.3523,-42.9649 635.7151,-51.9532"/>
<polygon fill="#191970" stroke="#191970" points="558.4532,-19.7182 547.8598,-19.5405 556.0302,-26.2855 558.4532,-19.7182"/>
</g>
<!-- Node23&#45;&gt;Node6 -->
<g id="edge29" class="edge">
<title>Node23&#45;&gt;Node6</title>
<path fill="none" stroke="#191970" d="M570.9465,-136.0386C585.0221,-139.5006 600.5524,-143.3203 615.2711,-146.9405"/>
<polygon fill="#191970" stroke="#191970" points="571.5334,-132.5787 560.9869,-133.589 569.8615,-139.3762 571.5334,-132.5787"/>
</g>
</g>
</svg>
        <g id="navigator" transform="translate(0 0)" fill="#404254">
                <rect fill="#f2f5e9" fill-opacity="0.5" stroke="#606060" stroke-width=".5" x="0" y="0" width="60" height="60"/>
                <use id="zoomplus" xlink:href="#zoomPlus" x="17" y="9" onmousedown="handleZoom(evt,'in')"/>
                <use id="zoomminus" xlink:href="#zoomMin" x="42" y="9" onmousedown="handleZoom(evt,'out')"/>
                <use id="reset" xlink:href="#resetDef" x="30" y="36" onmousedown="handleReset()"/>
                <g id="arrowUp" xlink:href="#dirArrow" transform="translate(30 24)" onmousedown="handlePan(0,-1)">
                  <use xlink:href="#rim" fill="#404040">
                        <set attributeName="fill" to="#808080" begin="arrowUp.mouseover" end="arrowUp.mouseout"/>
                  </use>
                  <path fill="none" stroke="white" stroke-width="1.5" d="M0,-3.0v7 M-2.5,-0.5L0,-3.0L2.5,-0.5"/>
                </g>
                <g id="arrowRight" xlink:href="#dirArrow" transform="rotate(90) translate(36 -43)" onmousedown="handlePan(1,0)">
                  <use xlink:href="#rim" fill="#404040">
                        <set attributeName="fill" to="#808080" begin="arrowRight.mouseover" end="arrowRight.mouseout"/>
                  </use>
                  <path fill="none" stroke="white" stroke-width="1.5" d="M0,-3.0v7 M-2.5,-0.5L0,-3.0L2.5,-0.5"/>
                </g>
                <g id="arrowDown" xlink:href="#dirArrow" transform="rotate(180) translate(-30 -48)" onmousedown="handlePan(0,1)">
                  <use xlink:href="#rim" fill="#404040">
                        <set attributeName="fill" to="#808080" begin="arrowDown.mouseover" end="arrowDown.mouseout"/>
                  </use>
                  <path fill="none" stroke="white" stroke-width="1.5" d="M0,-3.0v7 M-2.5,-0.5L0,-3.0L2.5,-0.5"/>
                </g>
                <g id="arrowLeft" xlink:href="#dirArrow" transform="rotate(270) translate(-36 17)" onmousedown="handlePan(-1,0)">
                  <use xlink:href="#rim" fill="#404040">
                        <set attributeName="fill" to="#808080" begin="arrowLeft.mouseover" end="arrowLeft.mouseout"/>
                  </use>
                  <path fill="none" stroke="white" stroke-width="1.5" d="M0,-3.0v7 M-2.5,-0.5L0,-3.0L2.5,-0.5"/>
                </g>
        </g>
        <svg viewBox="0 0 15 15" width="100%" height="30px" preserveAspectRatio="xMaxYMin meet">
         <g id="arrow_out" transform="scale(0.3 0.3)">
          <a xlink:href="det__rate-detrat3c_8f90_adb797eb497db15c10b3f2c8707eaba06_icgraph_org.svg" target="_base">
           <rect id="button" ry="5" rx="5" y="6" x="6" height="38" width="38"
                fill="#f2f5e9" fill-opacity="0.5" stroke="#606060" stroke-width="1.0"/>
           <path id="arrow"
             d="M 11.500037,31.436501 C 11.940474,20.09759 22.043105,11.32322 32.158766,21.979434 L 37.068811,17.246167 C 37.068811,17.246167 37.088388,32 37.088388,32 L 22.160133,31.978069 C 22.160133,31.978069 26.997745,27.140456 26.997745,27.140456 C 18.528582,18.264221 13.291696,25.230495 11.500037,31.436501 z"
             style="fill:#404040;"/>
          </a>
         </g>
        </svg>
</svg>
