<?xml version="1.0" encoding="UTF-8" standalone="no"?>
<!DOCTYPE svg PUBLIC "-//W3C//DTD SVG 1.1//EN"
 "http://www.w3.org/Graphics/SVG/1.1/DTD/svg11.dtd">
<!-- Generated by graphviz version 2.40.1 (20161225.0304)
 -->
<!-- Title: diff_divdamp_ctl Pages: 1 -->
<svg width="594pt" height="28pt"
 viewBox="0.00 0.00 594.00 28.00" xmlns="http://www.w3.org/2000/svg" xmlns:xlink="http://www.w3.org/1999/xlink">
<g id="graph0" class="graph" transform="scale(1 1) rotate(0) translate(4 24)">
<title>diff_divdamp_ctl</title>
<polygon fill="#ffffff" stroke="transparent" points="-4,4 -4,-24 590,-24 590,4 -4,4"/>
<!-- Node38 -->
<g id="node1" class="node">
<title>Node38</title>
<polygon fill="#bfbfbf" stroke="#000000" points="0,-.5 0,-19.5 98,-19.5 98,-.5 0,-.5"/>
<text text-anchor="middle" x="49" y="-7.5" font-family="Helvetica,sans-Serif" font-size="10.00" fill="#000000">diff_divdamp_ctl</text>
</g>
<!-- Node39 -->
<g id="node2" class="node">
<title>Node39</title>
<g id="a_node2"><a xlink:href="ni__diff__ctl_8f90.xhtml#a1007de4d9c67f1cc7bebc717748c86ee" target="_top" xlink:title="Subroutine NI_DIFF_CTL. ">
<polygon fill="#ffffff" stroke="#000000" points="134,-.5 134,-19.5 198,-19.5 198,-.5 134,-.5"/>
<text text-anchor="middle" x="166" y="-7.5" font-family="Helvetica,sans-Serif" font-size="10.00" fill="#000000">ni_diff_ctl</text>
</a>
</g>
</g>
<!-- Node38&#45;&gt;Node39 -->
<g id="edge1" class="edge">
<title>Node38&#45;&gt;Node39</title>
<path fill="none" stroke="#191970" d="M108.4761,-10C117.1903,-10 125.8756,-10 133.7583,-10"/>
<polygon fill="#191970" stroke="#191970" points="108.2795,-6.5001 98.2794,-10 108.2794,-13.5001 108.2795,-6.5001"/>
</g>
<!-- Node40 -->
<g id="node3" class="node">
<title>Node40</title>
<g id="a_node3"><a xlink:href="atm__step_8f90.xhtml#ac0ee2467a1a9959b7065fdb8fd27bce4" target="_top" xlink:title="Perform a 1&#45;timestep integration of the Atmosphere Model. ">
<polygon fill="#ffffff" stroke="#000000" points="234,-.5 234,-19.5 296,-19.5 296,-.5 234,-.5"/>
<text text-anchor="middle" x="265" y="-7.5" font-family="Helvetica,sans-Serif" font-size="10.00" fill="#000000">atm_step</text>
</a>
</g>
</g>
<!-- Node39&#45;&gt;Node40 -->
<g id="edge2" class="edge">
<title>Node39&#45;&gt;Node40</title>
<path fill="none" stroke="#191970" d="M208.3157,-10C216.831,-10 225.636,-10 233.6938,-10"/>
<polygon fill="#191970" stroke="#191970" points="208.1425,-6.5001 198.1425,-10 208.1424,-13.5001 208.1425,-6.5001"/>
</g>
<!-- Node41 -->
<g id="node4" class="node">
<title>Node41</title>
<g id="a_node4"><a xlink:href="u__model_8f90.xhtml#ada0cd2ce4699433bf0f9adbd882c8eec" target="_top" xlink:title="Subroutine: U_MODEL &#45;!&gt; ">
<polygon fill="#ffffff" stroke="#000000" points="332,-.5 332,-19.5 391,-19.5 391,-.5 332,-.5"/>
<text text-anchor="middle" x="361.5" y="-7.5" font-family="Helvetica,sans-Serif" font-size="10.00" fill="#000000">u_model</text>
</a>
</g>
</g>
<!-- Node40&#45;&gt;Node41 -->
<g id="edge3" class="edge">
<title>Node40&#45;&gt;Node41</title>
<path fill="none" stroke="#191970" d="M306.3007,-10C314.8757,-10 323.7497,-10 331.8088,-10"/>
<polygon fill="#191970" stroke="#191970" points="306.0644,-6.5001 296.0644,-10 306.0644,-13.5001 306.0644,-6.5001"/>
</g>
<!-- Node42 -->
<g id="node5" class="node">
<title>Node42</title>
<g id="a_node5"><a xlink:href="um__shell_8f90.xhtml#a8c9bd25362824a5c301376ecb5ed5c27" target="_top" xlink:title="Subroutine: UM_SHELL !&gt; ">
<polygon fill="#ffffff" stroke="#000000" points="427,-.5 427,-19.5 488,-19.5 488,-.5 427,-.5"/>
<text text-anchor="middle" x="457.5" y="-7.5" font-family="Helvetica,sans-Serif" font-size="10.00" fill="#000000">um_shell</text>
</a>
</g>
</g>
<!-- Node41&#45;&gt;Node42 -->
<g id="edge4" class="edge">
<title>Node41&#45;&gt;Node42</title>
<path fill="none" stroke="#191970" d="M401.2581,-10C409.8053,-10 418.7119,-10 426.8497,-10"/>
<polygon fill="#191970" stroke="#191970" points="401.0865,-6.5001 391.0865,-10 401.0865,-13.5001 401.0865,-6.5001"/>
</g>
<!-- Node43 -->
<g id="node6" class="node">
<title>Node43</title>
<g id="a_node6"><a xlink:href="um__main_8f90.xhtml#a8f2d13215621443a5313261c282f098b" target="_top" xlink:title="Code Owner: See Unified Model Code Owner&#39;s HTML page. ">
<polygon fill="#ffffff" stroke="#000000" points="524,-.5 524,-19.5 586,-19.5 586,-.5 524,-.5"/>
<text text-anchor="middle" x="555" y="-7.5" font-family="Helvetica,sans-Serif" font-size="10.00" fill="#000000">um_main</text>
</a>
</g>
</g>
<!-- Node42&#45;&gt;Node43 -->
<g id="edge5" class="edge">
<title>Node42&#45;&gt;Node43</title>
<path fill="none" stroke="#191970" d="M498.2756,-10C506.8294,-10 515.72,-10 523.8551,-10"/>
<polygon fill="#191970" stroke="#191970" points="498.0821,-6.5001 488.0821,-10 498.0821,-13.5001 498.0821,-6.5001"/>
</g>
</g>
</svg>
