<?xml version="1.0" encoding="UTF-8" standalone="no"?>
<!DOCTYPE svg PUBLIC "-//W3C//DTD SVG 1.1//EN"
 "http://www.w3.org/Graphics/SVG/1.1/DTD/svg11.dtd">
<!-- Generated by graphviz version 2.40.1 (20161225.0304)
 -->
<!-- Title: downd_6a Pages: 1 -->
<!--zoomable 186 -->
<svg id="main" version="1.1" xmlns="http://www.w3.org/2000/svg" xmlns:xlink="http://www.w3.org/1999/xlink" xml:space="preserve" onload="init(evt)">
<style type="text/css"><![CDATA[
.edge:hover path { stroke: red; }
.edge:hover polygon { stroke: red; fill: red; }
]]></style>
<script type="text/javascript"><![CDATA[
var edges = document.getElementsByTagName('g');
if (edges && edges.length) {
  for (var i=0;i<edges.length;i++) {
    if (edges[i].id.substr(0,4)=='edge') {
      edges[i].setAttribute('class','edge');
    }
  }
}
]]></script>
        <defs>
                <circle id="rim" cx="0" cy="0" r="7"/>
                <circle id="rim2" cx="0" cy="0" r="3.5"/>
                <g id="zoomPlus">
                        <use xlink:href="#rim" fill="#404040">
                                <set attributeName="fill" to="#808080" begin="zoomplus.mouseover" end="zoomplus.mouseout"/>
                        </use>
                        <path d="M-4,0h8M0,-4v8" fill="none" stroke="white" stroke-width="1.5" pointer-events="none"/>
                </g>
                <g id="zoomMin">
                        <use xlink:href="#rim" fill="#404040">
                                <set attributeName="fill" to="#808080" begin="zoomminus.mouseover" end="zoomminus.mouseout"/>
                        </use>
                        <path d="M-4,0h8" fill="none" stroke="white" stroke-width="1.5" pointer-events="none"/>
                </g>
                <g id="dirArrow">
                        <path fill="none" stroke="white" stroke-width="1.5" d="M0,-3.0v7 M-2.5,-0.5L0,-3.0L2.5,-0.5"/>
                </g>
               <g id="resetDef">
                       <use xlink:href="#rim2" fill="#404040">
                               <set attributeName="fill" to="#808080" begin="reset.mouseover" end="reset.mouseout"/>
                       </use>
               </g>
        </defs>

<script type="text/javascript">
var viewWidth = 1209;
var viewHeight = 186;
var sectionId = 'dynsection-1';
</script>
<script xlink:href="svgpan.js"/>
<svg id="graph" class="graph">
<g id="viewport">
<title>downd_6a</title>
<polygon fill="#ffffff" stroke="transparent" points="-4,4 -4,-182 1205,-182 1205,4 -4,4"/>
<!-- Node11 -->
<g id="node1" class="node">
<title>Node11</title>
<polygon fill="#bfbfbf" stroke="#000000" points="0,-55 0,-74 66,-74 66,-55 0,-55"/>
<text text-anchor="middle" x="33" y="-62" font-family="Helvetica,sans-Serif" font-size="10.00" fill="#000000">downd_6a</text>
</g>
<!-- Node12 -->
<g id="node2" class="node">
<title>Node12</title>
<g id="a_node2"><a xlink:href="dd__all__call-ddacall6a_8f90.xhtml#ae3f35ab59d11da2be5674357dbd9b73b" target="_top" xlink:title="Calculate initial Downdraught massflux. ">
<polygon fill="#ffffff" stroke="#000000" points="102,-79 102,-98 188,-98 188,-79 102,-79"/>
<text text-anchor="middle" x="145" y="-86" font-family="Helvetica,sans-Serif" font-size="10.00" fill="#000000">dd_all_call_6a</text>
</a>
</g>
</g>
<!-- Node11&#45;&gt;Node12 -->
<g id="edge1" class="edge">
<title>Node11&#45;&gt;Node12</title>
<path fill="none" stroke="#191970" d="M76.2233,-73.7621C84.5644,-75.5495 93.3051,-77.4225 101.6503,-79.2108"/>
<polygon fill="#191970" stroke="#191970" points="76.8119,-70.3089 66.3005,-71.6358 75.3451,-77.1535 76.8119,-70.3089"/>
</g>
<!-- Node27 -->
<g id="node17" class="node">
<title>Node27</title>
<g id="a_node17"><a xlink:href="dd__call-ddcall6a_8f90.xhtml#a5bf4e1df4d1a68c781a22c6896494114" target="_top" xlink:title="Calculate initial Downdraught massflux. ">
<polygon fill="#ffffff" stroke="#000000" points="111,-36 111,-55 179,-55 179,-36 111,-36"/>
<text text-anchor="middle" x="145" y="-43" font-family="Helvetica,sans-Serif" font-size="10.00" fill="#000000">dd_call_6a</text>
</a>
</g>
</g>
<!-- Node11&#45;&gt;Node27 -->
<g id="edge19" class="edge">
<title>Node11&#45;&gt;Node27</title>
<path fill="none" stroke="#191970" d="M76.5048,-57.1197C87.9021,-55.1862 100.027,-53.1293 110.858,-51.2919"/>
<polygon fill="#191970" stroke="#191970" points="75.5742,-53.7275 66.3005,-58.8508 76.745,-60.6289 75.5742,-53.7275"/>
</g>
<!-- Node13 -->
<g id="node3" class="node">
<title>Node13</title>
<g id="a_node3"><a xlink:href="namespacecongest__conv__6a__mod.xhtml#a34f32d0f99e7c24f6993de3bfcc644a9" target="_top" xlink:title="Congetus convection scheme works on points diagnosed as congestus in subroutine CONV_DIAG. Called by GLUE_CONV. ">
<polygon fill="#ffffff" stroke="#000000" points="231.5,-147.5 231.5,-177.5 359.5,-177.5 359.5,-147.5 231.5,-147.5"/>
<text text-anchor="start" x="239.5" y="-165.5" font-family="Helvetica,sans-Serif" font-size="10.00" fill="#000000">congest_conv_6a_mod</text>
<text text-anchor="middle" x="295.5" y="-154.5" font-family="Helvetica,sans-Serif" font-size="10.00" fill="#000000">::congest_conv_6a</text>
</a>
</g>
</g>
<!-- Node12&#45;&gt;Node13 -->
<g id="edge2" class="edge">
<title>Node12&#45;&gt;Node13</title>
<path fill="none" stroke="#191970" d="M166.1771,-103.881C181.6412,-114.6114 203.4157,-128.7071 224,-138.5 230.8579,-141.7626 238.2784,-144.7788 245.6547,-147.4927"/>
<polygon fill="#191970" stroke="#191970" points="168.0464,-100.9163 157.858,-98.0099 164.0101,-106.6355 168.0464,-100.9163"/>
</g>
<!-- Node25 -->
<g id="node15" class="node">
<title>Node25</title>
<g id="a_node15"><a xlink:href="namespacedeep__conv__6a__mod.xhtml#a8664b8c0a5a6e9427fb43c80b704b89b" target="_top" xlink:title="Deep convection scheme works on points diagnosed as deep in subroutine CONV_DIAG. Called by GLUE_CONV...">
<polygon fill="#ffffff" stroke="#000000" points="224,-98.5 224,-128.5 367,-128.5 367,-98.5 224,-98.5"/>
<text text-anchor="start" x="232" y="-116.5" font-family="Helvetica,sans-Serif" font-size="10.00" fill="#000000">deep_conv_6a_mod::deep</text>
<text text-anchor="middle" x="295.5" y="-105.5" font-family="Helvetica,sans-Serif" font-size="10.00" fill="#000000">_conv_6a</text>
</a>
</g>
</g>
<!-- Node12&#45;&gt;Node25 -->
<g id="edge15" class="edge">
<title>Node12&#45;&gt;Node25</title>
<path fill="none" stroke="#191970" d="M198.1059,-97.3216C206.4755,-98.7119 215.2462,-100.1688 223.9508,-101.6148"/>
<polygon fill="#191970" stroke="#191970" points="198.5656,-93.8501 188.1273,-95.664 197.4185,-100.7554 198.5656,-93.8501"/>
</g>
<!-- Node26 -->
<g id="node16" class="node">
<title>Node26</title>
<g id="a_node16"><a xlink:href="namespaceshallow__conv__6a__mod.xhtml#a30d23940475bbcbb1e8185a7977dc4a5" target="_top" xlink:title="Shallow convection scheme Works only on points diagnosed as shallow in subroutine CONV_DIAG Called by...">
<polygon fill="#ffffff" stroke="#000000" points="232,-49.5 232,-79.5 359,-79.5 359,-49.5 232,-49.5"/>
<text text-anchor="start" x="240" y="-67.5" font-family="Helvetica,sans-Serif" font-size="10.00" fill="#000000">shallow_conv_6a_mod</text>
<text text-anchor="middle" x="295.5" y="-56.5" font-family="Helvetica,sans-Serif" font-size="10.00" fill="#000000">::shallow_conv_6a</text>
</a>
</g>
</g>
<!-- Node12&#45;&gt;Node26 -->
<g id="edge17" class="edge">
<title>Node12&#45;&gt;Node26</title>
<path fill="none" stroke="#191970" d="M198.307,-79.9992C209.1732,-78.2664 220.7082,-76.4269 231.8917,-74.6435"/>
<polygon fill="#191970" stroke="#191970" points="197.4513,-76.5914 188.1273,-81.6226 198.5537,-83.504 197.4513,-76.5914"/>
</g>
<!-- Node14 -->
<g id="node4" class="node">
<title>Node14</title>
<g id="a_node4"><a xlink:href="namespaceglue__conv__6a__mod.xhtml#a6d5d1edc7767ff4cca5aa84b5368b646" target="_top" xlink:title="glue_conv_6a_mod::glue\l_conv_6a">
<polygon fill="#ffffff" stroke="#000000" points="403,-73.5 403,-103.5 540,-103.5 540,-73.5 403,-73.5"/>
<text text-anchor="start" x="411" y="-91.5" font-family="Helvetica,sans-Serif" font-size="10.00" fill="#000000">glue_conv_6a_mod::glue</text>
<text text-anchor="middle" x="471.5" y="-80.5" font-family="Helvetica,sans-Serif" font-size="10.00" fill="#000000">_conv_6a</text>
</a>
</g>
</g>
<!-- Node13&#45;&gt;Node14 -->
<g id="edge3" class="edge">
<title>Node13&#45;&gt;Node14</title>
<path fill="none" stroke="#191970" d="M352.5597,-144.0502C357.4719,-142.2497 362.3413,-140.3881 367,-138.5 392.9088,-127.9993 421.4904,-114.161 442.2041,-103.7052"/>
<polygon fill="#191970" stroke="#191970" points="351.3442,-140.7678 343.1049,-147.4284 353.6995,-147.3596 351.3442,-140.7678"/>
</g>
<!-- Node15 -->
<g id="node5" class="node">
<title>Node15</title>
<g id="a_node5"><a xlink:href="ni__conv__ctl_8f90.xhtml#a9923a06c286e88170babe094e612732d" target="_top" xlink:title="Subroutine NI_conv_ctl. ">
<polygon fill="#ffffff" stroke="#000000" points="576,-79 576,-98 647,-98 647,-79 576,-79"/>
<text text-anchor="middle" x="611.5" y="-86" font-family="Helvetica,sans-Serif" font-size="10.00" fill="#000000">ni_conv_ctl</text>
</a>
</g>
</g>
<!-- Node14&#45;&gt;Node15 -->
<g id="edge4" class="edge">
<title>Node14&#45;&gt;Node15</title>
<path fill="none" stroke="#191970" d="M550.347,-88.5C559.2275,-88.5 567.9151,-88.5 575.8254,-88.5"/>
<polygon fill="#191970" stroke="#191970" points="550.2696,-85.0001 540.2696,-88.5 550.2696,-92.0001 550.2696,-85.0001"/>
</g>
<!-- Node16 -->
<g id="node6" class="node">
<title>Node16</title>
<g id="a_node6"><a xlink:href="atmos__physics2_8f90.xhtml#a0f74e8c75312201121b305cd566b175a" target="_top" xlink:title="Interface to Atmos Physics parametrizations after S&#45;L advection. ">
<polygon fill="#ffffff" stroke="#000000" points="683,-79 683,-98 778,-98 778,-79 683,-79"/>
<text text-anchor="middle" x="730.5" y="-86" font-family="Helvetica,sans-Serif" font-size="10.00" fill="#000000">atmos_physics2</text>
</a>
</g>
</g>
<!-- Node15&#45;&gt;Node16 -->
<g id="edge5" class="edge">
<title>Node15&#45;&gt;Node16</title>
<path fill="none" stroke="#191970" d="M657.2309,-88.5C665.6494,-88.5 674.457,-88.5 682.9283,-88.5"/>
<polygon fill="#191970" stroke="#191970" points="657.204,-85.0001 647.2039,-88.5 657.2039,-92.0001 657.204,-85.0001"/>
</g>
<!-- Node17 -->
<g id="node7" class="node">
<title>Node17</title>
<g id="a_node7"><a xlink:href="atm__step_8f90.xhtml#ac0ee2467a1a9959b7065fdb8fd27bce4" target="_top" xlink:title="Perform a 1&#45;timestep integration of the Atmosphere Model. ">
<polygon fill="#ffffff" stroke="#000000" points="823,-117 823,-136 885,-136 885,-117 823,-117"/>
<text text-anchor="middle" x="854" y="-124" font-family="Helvetica,sans-Serif" font-size="10.00" fill="#000000">atm_step</text>
</a>
</g>
</g>
<!-- Node16&#45;&gt;Node17 -->
<g id="edge6" class="edge">
<title>Node16&#45;&gt;Node17</title>
<path fill="none" stroke="#191970" d="M771.2397,-101.0353C788.0405,-106.2048 807.197,-112.0991 822.8457,-116.9141"/>
<polygon fill="#191970" stroke="#191970" points="772.2514,-97.6847 761.6643,-98.089 770.1927,-104.3752 772.2514,-97.6847"/>
</g>
<!-- Node21 -->
<g id="node11" class="node">
<title>Node21</title>
<g id="a_node11"><a xlink:href="atm__step__4_a_8f90.xhtml#a2319aa4963e90c64cd78bdcd5f481095" target="_top" xlink:title="Perform a 1&#45;timestep integration of the Atmosphere Model. ">
<polygon fill="#ffffff" stroke="#000000" points="814,-79 814,-98 894,-98 894,-79 814,-79"/>
<text text-anchor="middle" x="854" y="-86" font-family="Helvetica,sans-Serif" font-size="10.00" fill="#000000">atm_step_4a</text>
</a>
</g>
</g>
<!-- Node16&#45;&gt;Node21 -->
<g id="edge10" class="edge">
<title>Node16&#45;&gt;Node21</title>
<path fill="none" stroke="#191970" d="M788.3434,-88.5C797.0185,-88.5 805.7967,-88.5 813.9897,-88.5"/>
<polygon fill="#191970" stroke="#191970" points="788.2484,-85.0001 778.2483,-88.5 788.2483,-92.0001 788.2484,-85.0001"/>
</g>
<!-- Node23 -->
<g id="node13" class="node">
<title>Node23</title>
<g id="a_node13"><a xlink:href="scm__main_8f90.xhtml#a2c730136605550612e094ce51d33a2a5" target="_top" xlink:title="*********************************COPYRIGHT********************************* ">
<polygon fill="#ffffff" stroke="#000000" points="820.5,-41 820.5,-60 887.5,-60 887.5,-41 820.5,-41"/>
<text text-anchor="middle" x="854" y="-48" font-family="Helvetica,sans-Serif" font-size="10.00" fill="#000000">scm_main</text>
</a>
</g>
</g>
<!-- Node16&#45;&gt;Node23 -->
<g id="edge13" class="edge">
<title>Node16&#45;&gt;Node23</title>
<path fill="none" stroke="#191970" d="M771.2397,-75.9647C788.0405,-70.7952 807.197,-64.9009 822.8457,-60.0859"/>
<polygon fill="#191970" stroke="#191970" points="770.1927,-72.6248 761.6643,-78.911 772.2514,-79.3153 770.1927,-72.6248"/>
</g>
<!-- Node18 -->
<g id="node8" class="node">
<title>Node18</title>
<g id="a_node8"><a xlink:href="u__model_8f90.xhtml#ada0cd2ce4699433bf0f9adbd882c8eec" target="_top" xlink:title="Subroutine: U_MODEL &#45;!&gt; ">
<polygon fill="#ffffff" stroke="#000000" points="938.5,-117 938.5,-136 997.5,-136 997.5,-117 938.5,-117"/>
<text text-anchor="middle" x="968" y="-124" font-family="Helvetica,sans-Serif" font-size="10.00" fill="#000000">u_model</text>
</a>
</g>
</g>
<!-- Node17&#45;&gt;Node18 -->
<g id="edge7" class="edge">
<title>Node17&#45;&gt;Node18</title>
<path fill="none" stroke="#191970" d="M895.2532,-126.5C909.5539,-126.5 925.2895,-126.5 938.4568,-126.5"/>
<polygon fill="#191970" stroke="#191970" points="895.151,-123.0001 885.151,-126.5 895.151,-130.0001 895.151,-123.0001"/>
</g>
<!-- Node19 -->
<g id="node9" class="node">
<title>Node19</title>
<g id="a_node9"><a xlink:href="um__shell_8f90.xhtml#a8c9bd25362824a5c301376ecb5ed5c27" target="_top" xlink:title="Subroutine: UM_SHELL !&gt; ">
<polygon fill="#ffffff" stroke="#000000" points="1042,-98 1042,-117 1103,-117 1103,-98 1042,-98"/>
<text text-anchor="middle" x="1072.5" y="-105" font-family="Helvetica,sans-Serif" font-size="10.00" fill="#000000">um_shell</text>
</a>
</g>
</g>
<!-- Node18&#45;&gt;Node19 -->
<g id="edge8" class="edge">
<title>Node18&#45;&gt;Node19</title>
<path fill="none" stroke="#191970" d="M1007.701,-119.2816C1018.951,-117.2362 1031.0261,-115.0407 1041.6677,-113.1059"/>
<polygon fill="#191970" stroke="#191970" points="1006.8786,-115.8737 997.666,-121.1062 1008.1308,-122.7608 1006.8786,-115.8737"/>
</g>
<!-- Node20 -->
<g id="node10" class="node">
<title>Node20</title>
<g id="a_node10"><a xlink:href="um__main_8f90.xhtml#a8f2d13215621443a5313261c282f098b" target="_top" xlink:title="Code Owner: See Unified Model Code Owner&#39;s HTML page. ">
<polygon fill="#ffffff" stroke="#000000" points="1139,-98 1139,-117 1201,-117 1201,-98 1139,-98"/>
<text text-anchor="middle" x="1170" y="-105" font-family="Helvetica,sans-Serif" font-size="10.00" fill="#000000">um_main</text>
</a>
</g>
</g>
<!-- Node19&#45;&gt;Node20 -->
<g id="edge9" class="edge">
<title>Node19&#45;&gt;Node20</title>
<path fill="none" stroke="#191970" d="M1113.2756,-107.5C1121.8294,-107.5 1130.72,-107.5 1138.8551,-107.5"/>
<polygon fill="#191970" stroke="#191970" points="1113.0821,-104.0001 1103.0821,-107.5 1113.0821,-111.0001 1113.0821,-104.0001"/>
</g>
<!-- Node22 -->
<g id="node12" class="node">
<title>Node22</title>
<g id="a_node12"><a xlink:href="u__model__4_a_8f90.xhtml#afa05064dab5eba198b461d0928767c7e" target="_top" xlink:title="LL Subroutine: U_MODEL_4A (ENDGAME VERSION) !&gt;LL. ">
<polygon fill="#ffffff" stroke="#000000" points="930,-79 930,-98 1006,-98 1006,-79 930,-79"/>
<text text-anchor="middle" x="968" y="-86" font-family="Helvetica,sans-Serif" font-size="10.00" fill="#000000">u_model_4a</text>
</a>
</g>
</g>
<!-- Node21&#45;&gt;Node22 -->
<g id="edge11" class="edge">
<title>Node21&#45;&gt;Node22</title>
<path fill="none" stroke="#191970" d="M904.3998,-88.5C912.891,-88.5 921.5803,-88.5 929.7002,-88.5"/>
<polygon fill="#191970" stroke="#191970" points="904.1922,-85.0001 894.1921,-88.5 904.1921,-92.0001 904.1922,-85.0001"/>
</g>
<!-- Node22&#45;&gt;Node19 -->
<g id="edge12" class="edge">
<title>Node22&#45;&gt;Node19</title>
<path fill="none" stroke="#191970" d="M1015.8728,-97.2041C1024.7087,-98.8107 1033.7128,-100.4478 1041.8647,-101.93"/>
<polygon fill="#191970" stroke="#191970" points="1016.4873,-93.7586 1006.0225,-95.4132 1015.2351,-100.6457 1016.4873,-93.7586"/>
</g>
<!-- Node24 -->
<g id="node14" class="node">
<title>Node24</title>
<g id="a_node14"><a xlink:href="scm__shell_8f90.xhtml#ab15255829ee7b5be626b1c0861b40c8d" target="_top" xlink:title="scm_shell is the main calling program for the Single Column Model. ">
<polygon fill="#ffffff" stroke="#000000" points="935.5,-41 935.5,-60 1000.5,-60 1000.5,-41 935.5,-41"/>
<text text-anchor="middle" x="968" y="-48" font-family="Helvetica,sans-Serif" font-size="10.00" fill="#000000">scm_shell</text>
</a>
</g>
</g>
<!-- Node23&#45;&gt;Node24 -->
<g id="edge14" class="edge">
<title>Node23&#45;&gt;Node24</title>
<path fill="none" stroke="#191970" d="M897.8248,-50.5C910.3307,-50.5 923.7319,-50.5 935.4371,-50.5"/>
<polygon fill="#191970" stroke="#191970" points="897.5872,-47.0001 887.5872,-50.5 897.5871,-54.0001 897.5872,-47.0001"/>
</g>
<!-- Node25&#45;&gt;Node14 -->
<g id="edge16" class="edge">
<title>Node25&#45;&gt;Node14</title>
<path fill="none" stroke="#191970" d="M377.1201,-101.9062C385.7165,-100.6852 394.3945,-99.4525 402.8238,-98.2551"/>
<polygon fill="#191970" stroke="#191970" points="376.4943,-98.4599 367.0859,-103.3315 377.4788,-105.3903 376.4943,-98.4599"/>
</g>
<!-- Node26&#45;&gt;Node14 -->
<g id="edge18" class="edge">
<title>Node26&#45;&gt;Node14</title>
<path fill="none" stroke="#191970" d="M369.2109,-74.5515C380.4063,-76.0781 391.9187,-77.648 402.9971,-79.1587"/>
<polygon fill="#191970" stroke="#191970" points="369.4213,-71.0479 359.04,-73.1646 368.4754,-77.9837 369.4213,-71.0479"/>
</g>
<!-- Node28 -->
<g id="node18" class="node">
<title>Node28</title>
<g id="a_node18"><a xlink:href="namespacemid__conv__6a__mod.xhtml#a94ce408755640470c310456d5ba3c800" target="_top" xlink:title="Mid level convection scheme. ">
<polygon fill="#ffffff" stroke="#000000" points="229,-.5 229,-30.5 362,-30.5 362,-.5 229,-.5"/>
<text text-anchor="start" x="237" y="-18.5" font-family="Helvetica,sans-Serif" font-size="10.00" fill="#000000">mid_conv_6a_mod::mid</text>
<text text-anchor="middle" x="295.5" y="-7.5" font-family="Helvetica,sans-Serif" font-size="10.00" fill="#000000">_conv_6a</text>
</a>
</g>
</g>
<!-- Node27&#45;&gt;Node28 -->
<g id="edge20" class="edge">
<title>Node27&#45;&gt;Node28</title>
<path fill="none" stroke="#191970" d="M189.2239,-36.6846C201.6439,-34.2089 215.4309,-31.4606 228.8484,-28.786"/>
<polygon fill="#191970" stroke="#191970" points="188.2736,-33.3051 179.1508,-38.6925 189.6421,-40.17 188.2736,-33.3051"/>
</g>
<!-- Node28&#45;&gt;Node14 -->
<g id="edge21" class="edge">
<title>Node28&#45;&gt;Node14</title>
<path fill="none" stroke="#191970" d="M350.2718,-34.0555C355.9487,-36.1561 361.6094,-38.3252 367,-40.5 392.18,-50.6588 420.0989,-63.5707 440.7402,-73.4435"/>
<polygon fill="#191970" stroke="#191970" points="351.3417,-30.7204 340.7476,-30.5962 348.9519,-37.2999 351.3417,-30.7204"/>
</g>
</g>
</svg>
        <g id="navigator" transform="translate(0 0)" fill="#404254">
                <rect fill="#f2f5e9" fill-opacity="0.5" stroke="#606060" stroke-width=".5" x="0" y="0" width="60" height="60"/>
                <use id="zoomplus" xlink:href="#zoomPlus" x="17" y="9" onmousedown="handleZoom(evt,'in')"/>
                <use id="zoomminus" xlink:href="#zoomMin" x="42" y="9" onmousedown="handleZoom(evt,'out')"/>
                <use id="reset" xlink:href="#resetDef" x="30" y="36" onmousedown="handleReset()"/>
                <g id="arrowUp" xlink:href="#dirArrow" transform="translate(30 24)" onmousedown="handlePan(0,-1)">
                  <use xlink:href="#rim" fill="#404040">
                        <set attributeName="fill" to="#808080" begin="arrowUp.mouseover" end="arrowUp.mouseout"/>
                  </use>
                  <path fill="none" stroke="white" stroke-width="1.5" d="M0,-3.0v7 M-2.5,-0.5L0,-3.0L2.5,-0.5"/>
                </g>
                <g id="arrowRight" xlink:href="#dirArrow" transform="rotate(90) translate(36 -43)" onmousedown="handlePan(1,0)">
                  <use xlink:href="#rim" fill="#404040">
                        <set attributeName="fill" to="#808080" begin="arrowRight.mouseover" end="arrowRight.mouseout"/>
                  </use>
                  <path fill="none" stroke="white" stroke-width="1.5" d="M0,-3.0v7 M-2.5,-0.5L0,-3.0L2.5,-0.5"/>
                </g>
                <g id="arrowDown" xlink:href="#dirArrow" transform="rotate(180) translate(-30 -48)" onmousedown="handlePan(0,1)">
                  <use xlink:href="#rim" fill="#404040">
                        <set attributeName="fill" to="#808080" begin="arrowDown.mouseover" end="arrowDown.mouseout"/>
                  </use>
                  <path fill="none" stroke="white" stroke-width="1.5" d="M0,-3.0v7 M-2.5,-0.5L0,-3.0L2.5,-0.5"/>
                </g>
                <g id="arrowLeft" xlink:href="#dirArrow" transform="rotate(270) translate(-36 17)" onmousedown="handlePan(-1,0)">
                  <use xlink:href="#rim" fill="#404040">
                        <set attributeName="fill" to="#808080" begin="arrowLeft.mouseover" end="arrowLeft.mouseout"/>
                  </use>
                  <path fill="none" stroke="white" stroke-width="1.5" d="M0,-3.0v7 M-2.5,-0.5L0,-3.0L2.5,-0.5"/>
                </g>
        </g>
        <svg viewBox="0 0 15 15" width="100%" height="30px" preserveAspectRatio="xMaxYMin meet">
         <g id="arrow_out" transform="scale(0.3 0.3)">
          <a xlink:href="downd-downd6a_8f90_a1faeed302db7ef9058b2234cd2b7fc51_icgraph_org.svg" target="_base">
           <rect id="button" ry="5" rx="5" y="6" x="6" height="38" width="38"
                fill="#f2f5e9" fill-opacity="0.5" stroke="#606060" stroke-width="1.0"/>
           <path id="arrow"
             d="M 11.500037,31.436501 C 11.940474,20.09759 22.043105,11.32322 32.158766,21.979434 L 37.068811,17.246167 C 37.068811,17.246167 37.088388,32 37.088388,32 L 22.160133,31.978069 C 22.160133,31.978069 26.997745,27.140456 26.997745,27.140456 C 18.528582,18.264221 13.291696,25.230495 11.500037,31.436501 z"
             style="fill:#404040;"/>
          </a>
         </g>
        </svg>
</svg>
