<?xml version="1.0" encoding="UTF-8" standalone="no"?>
<!DOCTYPE svg PUBLIC "-//W3C//DTD SVG 1.1//EN"
 "http://www.w3.org/Graphics/SVG/1.1/DTD/svg11.dtd">
<!-- Generated by graphviz version 2.40.1 (20161225.0304)
 -->
<!-- Title: dts_rainprod Pages: 1 -->
<svg width="1049pt" height="104pt"
 viewBox="0.00 0.00 1049.00 104.00" xmlns="http://www.w3.org/2000/svg" xmlns:xlink="http://www.w3.org/1999/xlink">
<g id="graph0" class="graph" transform="scale(1 1) rotate(0) translate(4 100)">
<title>dts_rainprod</title>
<polygon fill="#ffffff" stroke="transparent" points="-4,4 -4,-100 1045,-100 1045,4 -4,4"/>
<!-- Node1 -->
<g id="node1" class="node">
<title>Node1</title>
<polygon fill="#bfbfbf" stroke="#000000" points="0,-38.5 0,-57.5 77,-57.5 77,-38.5 0,-38.5"/>
<text text-anchor="middle" x="38.5" y="-45.5" font-family="Helvetica,sans-Serif" font-size="10.00" fill="#000000">dts_rainprod</text>
</g>
<!-- Node2 -->
<g id="node2" class="node">
<title>Node2</title>
<g id="a_node2"><a xlink:href="dts__deep__turb__conv_8f90.xhtml#a9563c03a0f1aff651a0a0e21deb27898" target="_top" xlink:title="Deep turbulent convection scheme. ">
<polygon fill="#ffffff" stroke="#000000" points="113,-38.5 113,-57.5 207,-57.5 207,-38.5 113,-38.5"/>
<text text-anchor="middle" x="160" y="-45.5" font-family="Helvetica,sans-Serif" font-size="10.00" fill="#000000">deep_turb_conv</text>
</a>
</g>
</g>
<!-- Node1&#45;&gt;Node2 -->
<g id="edge1" class="edge">
<title>Node1&#45;&gt;Node2</title>
<path fill="none" stroke="#191970" d="M87.2802,-48C95.6458,-48 104.3267,-48 112.6539,-48"/>
<polygon fill="#191970" stroke="#191970" points="87.2774,-44.5001 77.2774,-48 87.2774,-51.5001 87.2774,-44.5001"/>
</g>
<!-- Node3 -->
<g id="node3" class="node">
<title>Node3</title>
<g id="a_node3"><a xlink:href="namespaceglue__conv__6a__mod.xhtml#a6d5d1edc7767ff4cca5aa84b5368b646" target="_top" xlink:title="glue_conv_6a_mod::glue\l_conv_6a">
<polygon fill="#ffffff" stroke="#000000" points="243,-58 243,-88 380,-88 380,-58 243,-58"/>
<text text-anchor="start" x="251" y="-76" font-family="Helvetica,sans-Serif" font-size="10.00" fill="#000000">glue_conv_6a_mod::glue</text>
<text text-anchor="middle" x="311.5" y="-65" font-family="Helvetica,sans-Serif" font-size="10.00" fill="#000000">_conv_6a</text>
</a>
</g>
</g>
<!-- Node2&#45;&gt;Node3 -->
<g id="edge2" class="edge">
<title>Node2&#45;&gt;Node3</title>
<path fill="none" stroke="#191970" d="M217.1172,-57.4253C225.4812,-58.8055 234.1683,-60.239 242.7352,-61.6527"/>
<polygon fill="#191970" stroke="#191970" points="217.5415,-53.948 207.1051,-55.7731 216.4018,-60.8546 217.5415,-53.948"/>
</g>
<!-- Node14 -->
<g id="node14" class="node">
<title>Node14</title>
<g id="a_node14"><a xlink:href="namespaceglue__conv__5a__mod.xhtml#a0a2a4645b74dadcd85116112a3eb1255" target="_top" xlink:title="Gather&#45;scatter routine for deep and shallow convection points. ">
<polygon fill="#ffffff" stroke="#000000" points="243,-9 243,-39 380,-39 380,-9 243,-9"/>
<text text-anchor="start" x="251" y="-27" font-family="Helvetica,sans-Serif" font-size="10.00" fill="#000000">glue_conv_5a_mod::glue</text>
<text text-anchor="middle" x="311.5" y="-16" font-family="Helvetica,sans-Serif" font-size="10.00" fill="#000000">_conv_5a</text>
</a>
</g>
</g>
<!-- Node2&#45;&gt;Node14 -->
<g id="edge14" class="edge">
<title>Node2&#45;&gt;Node14</title>
<path fill="none" stroke="#191970" d="M217.1172,-38.9517C225.4812,-37.6267 234.1683,-36.2506 242.7352,-34.8934"/>
<polygon fill="#191970" stroke="#191970" points="216.4343,-35.5162 207.1051,-40.5378 217.5296,-42.43 216.4343,-35.5162"/>
</g>
<!-- Node4 -->
<g id="node4" class="node">
<title>Node4</title>
<g id="a_node4"><a xlink:href="ni__conv__ctl_8f90.xhtml#a9923a06c286e88170babe094e612732d" target="_top" xlink:title="Subroutine NI_conv_ctl. ">
<polygon fill="#ffffff" stroke="#000000" points="416,-38.5 416,-57.5 487,-57.5 487,-38.5 416,-38.5"/>
<text text-anchor="middle" x="451.5" y="-45.5" font-family="Helvetica,sans-Serif" font-size="10.00" fill="#000000">ni_conv_ctl</text>
</a>
</g>
</g>
<!-- Node3&#45;&gt;Node4 -->
<g id="edge3" class="edge">
<title>Node3&#45;&gt;Node4</title>
<path fill="none" stroke="#191970" d="M390.347,-58.9202C399.2275,-57.3344 407.9151,-55.783 415.8254,-54.3705"/>
<polygon fill="#191970" stroke="#191970" points="389.4986,-55.5162 380.2696,-60.7197 390.7292,-62.4072 389.4986,-55.5162"/>
</g>
<!-- Node5 -->
<g id="node5" class="node">
<title>Node5</title>
<g id="a_node5"><a xlink:href="atmos__physics2_8f90.xhtml#a0f74e8c75312201121b305cd566b175a" target="_top" xlink:title="Interface to Atmos Physics parametrizations after S&#45;L advection. ">
<polygon fill="#ffffff" stroke="#000000" points="523,-38.5 523,-57.5 618,-57.5 618,-38.5 523,-38.5"/>
<text text-anchor="middle" x="570.5" y="-45.5" font-family="Helvetica,sans-Serif" font-size="10.00" fill="#000000">atmos_physics2</text>
</a>
</g>
</g>
<!-- Node4&#45;&gt;Node5 -->
<g id="edge4" class="edge">
<title>Node4&#45;&gt;Node5</title>
<path fill="none" stroke="#191970" d="M497.2309,-48C505.6494,-48 514.457,-48 522.9283,-48"/>
<polygon fill="#191970" stroke="#191970" points="497.204,-44.5001 487.2039,-48 497.2039,-51.5001 497.204,-44.5001"/>
</g>
<!-- Node6 -->
<g id="node6" class="node">
<title>Node6</title>
<g id="a_node6"><a xlink:href="atm__step_8f90.xhtml#ac0ee2467a1a9959b7065fdb8fd27bce4" target="_top" xlink:title="Perform a 1&#45;timestep integration of the Atmosphere Model. ">
<polygon fill="#ffffff" stroke="#000000" points="663,-76.5 663,-95.5 725,-95.5 725,-76.5 663,-76.5"/>
<text text-anchor="middle" x="694" y="-83.5" font-family="Helvetica,sans-Serif" font-size="10.00" fill="#000000">atm_step</text>
</a>
</g>
</g>
<!-- Node5&#45;&gt;Node6 -->
<g id="edge5" class="edge">
<title>Node5&#45;&gt;Node6</title>
<path fill="none" stroke="#191970" d="M611.2397,-60.5353C628.0405,-65.7048 647.197,-71.5991 662.8457,-76.4141"/>
<polygon fill="#191970" stroke="#191970" points="612.2514,-57.1847 601.6643,-57.589 610.1927,-63.8752 612.2514,-57.1847"/>
</g>
<!-- Node10 -->
<g id="node10" class="node">
<title>Node10</title>
<g id="a_node10"><a xlink:href="atm__step__4_a_8f90.xhtml#a2319aa4963e90c64cd78bdcd5f481095" target="_top" xlink:title="Perform a 1&#45;timestep integration of the Atmosphere Model. ">
<polygon fill="#ffffff" stroke="#000000" points="654,-38.5 654,-57.5 734,-57.5 734,-38.5 654,-38.5"/>
<text text-anchor="middle" x="694" y="-45.5" font-family="Helvetica,sans-Serif" font-size="10.00" fill="#000000">atm_step_4a</text>
</a>
</g>
</g>
<!-- Node5&#45;&gt;Node10 -->
<g id="edge9" class="edge">
<title>Node5&#45;&gt;Node10</title>
<path fill="none" stroke="#191970" d="M628.3434,-48C637.0185,-48 645.7967,-48 653.9897,-48"/>
<polygon fill="#191970" stroke="#191970" points="628.2484,-44.5001 618.2483,-48 628.2483,-51.5001 628.2484,-44.5001"/>
</g>
<!-- Node12 -->
<g id="node12" class="node">
<title>Node12</title>
<g id="a_node12"><a xlink:href="scm__main_8f90.xhtml#a2c730136605550612e094ce51d33a2a5" target="_top" xlink:title="*********************************COPYRIGHT********************************* ">
<polygon fill="#ffffff" stroke="#000000" points="660.5,-.5 660.5,-19.5 727.5,-19.5 727.5,-.5 660.5,-.5"/>
<text text-anchor="middle" x="694" y="-7.5" font-family="Helvetica,sans-Serif" font-size="10.00" fill="#000000">scm_main</text>
</a>
</g>
</g>
<!-- Node5&#45;&gt;Node12 -->
<g id="edge12" class="edge">
<title>Node5&#45;&gt;Node12</title>
<path fill="none" stroke="#191970" d="M611.2397,-35.4647C628.0405,-30.2952 647.197,-24.4009 662.8457,-19.5859"/>
<polygon fill="#191970" stroke="#191970" points="610.1927,-32.1248 601.6643,-38.411 612.2514,-38.8153 610.1927,-32.1248"/>
</g>
<!-- Node7 -->
<g id="node7" class="node">
<title>Node7</title>
<g id="a_node7"><a xlink:href="u__model_8f90.xhtml#ada0cd2ce4699433bf0f9adbd882c8eec" target="_top" xlink:title="Subroutine: U_MODEL &#45;!&gt; ">
<polygon fill="#ffffff" stroke="#000000" points="778.5,-76.5 778.5,-95.5 837.5,-95.5 837.5,-76.5 778.5,-76.5"/>
<text text-anchor="middle" x="808" y="-83.5" font-family="Helvetica,sans-Serif" font-size="10.00" fill="#000000">u_model</text>
</a>
</g>
</g>
<!-- Node6&#45;&gt;Node7 -->
<g id="edge6" class="edge">
<title>Node6&#45;&gt;Node7</title>
<path fill="none" stroke="#191970" d="M735.2532,-86C749.5539,-86 765.2895,-86 778.4568,-86"/>
<polygon fill="#191970" stroke="#191970" points="735.151,-82.5001 725.151,-86 735.151,-89.5001 735.151,-82.5001"/>
</g>
<!-- Node8 -->
<g id="node8" class="node">
<title>Node8</title>
<g id="a_node8"><a xlink:href="um__shell_8f90.xhtml#a8c9bd25362824a5c301376ecb5ed5c27" target="_top" xlink:title="Subroutine: UM_SHELL !&gt; ">
<polygon fill="#ffffff" stroke="#000000" points="882,-57.5 882,-76.5 943,-76.5 943,-57.5 882,-57.5"/>
<text text-anchor="middle" x="912.5" y="-64.5" font-family="Helvetica,sans-Serif" font-size="10.00" fill="#000000">um_shell</text>
</a>
</g>
</g>
<!-- Node7&#45;&gt;Node8 -->
<g id="edge7" class="edge">
<title>Node7&#45;&gt;Node8</title>
<path fill="none" stroke="#191970" d="M847.701,-78.7816C858.951,-76.7362 871.0261,-74.5407 881.6677,-72.6059"/>
<polygon fill="#191970" stroke="#191970" points="846.8786,-75.3737 837.666,-80.6062 848.1308,-82.2608 846.8786,-75.3737"/>
</g>
<!-- Node9 -->
<g id="node9" class="node">
<title>Node9</title>
<g id="a_node9"><a xlink:href="um__main_8f90.xhtml#a8f2d13215621443a5313261c282f098b" target="_top" xlink:title="Code Owner: See Unified Model Code Owner&#39;s HTML page. ">
<polygon fill="#ffffff" stroke="#000000" points="979,-57.5 979,-76.5 1041,-76.5 1041,-57.5 979,-57.5"/>
<text text-anchor="middle" x="1010" y="-64.5" font-family="Helvetica,sans-Serif" font-size="10.00" fill="#000000">um_main</text>
</a>
</g>
</g>
<!-- Node8&#45;&gt;Node9 -->
<g id="edge8" class="edge">
<title>Node8&#45;&gt;Node9</title>
<path fill="none" stroke="#191970" d="M953.2756,-67C961.8294,-67 970.72,-67 978.8551,-67"/>
<polygon fill="#191970" stroke="#191970" points="953.0821,-63.5001 943.0821,-67 953.0821,-70.5001 953.0821,-63.5001"/>
</g>
<!-- Node11 -->
<g id="node11" class="node">
<title>Node11</title>
<g id="a_node11"><a xlink:href="u__model__4_a_8f90.xhtml#afa05064dab5eba198b461d0928767c7e" target="_top" xlink:title="LL Subroutine: U_MODEL_4A (ENDGAME VERSION) !&gt;LL. ">
<polygon fill="#ffffff" stroke="#000000" points="770,-38.5 770,-57.5 846,-57.5 846,-38.5 770,-38.5"/>
<text text-anchor="middle" x="808" y="-45.5" font-family="Helvetica,sans-Serif" font-size="10.00" fill="#000000">u_model_4a</text>
</a>
</g>
</g>
<!-- Node10&#45;&gt;Node11 -->
<g id="edge10" class="edge">
<title>Node10&#45;&gt;Node11</title>
<path fill="none" stroke="#191970" d="M744.3998,-48C752.891,-48 761.5803,-48 769.7002,-48"/>
<polygon fill="#191970" stroke="#191970" points="744.1922,-44.5001 734.1921,-48 744.1921,-51.5001 744.1922,-44.5001"/>
</g>
<!-- Node11&#45;&gt;Node8 -->
<g id="edge11" class="edge">
<title>Node11&#45;&gt;Node8</title>
<path fill="none" stroke="#191970" d="M855.8728,-56.7041C864.7087,-58.3107 873.7128,-59.9478 881.8647,-61.43"/>
<polygon fill="#191970" stroke="#191970" points="856.4873,-53.2586 846.0225,-54.9132 855.2351,-60.1457 856.4873,-53.2586"/>
</g>
<!-- Node13 -->
<g id="node13" class="node">
<title>Node13</title>
<g id="a_node13"><a xlink:href="scm__shell_8f90.xhtml#ab15255829ee7b5be626b1c0861b40c8d" target="_top" xlink:title="scm_shell is the main calling program for the Single Column Model. ">
<polygon fill="#ffffff" stroke="#000000" points="775.5,-.5 775.5,-19.5 840.5,-19.5 840.5,-.5 775.5,-.5"/>
<text text-anchor="middle" x="808" y="-7.5" font-family="Helvetica,sans-Serif" font-size="10.00" fill="#000000">scm_shell</text>
</a>
</g>
</g>
<!-- Node12&#45;&gt;Node13 -->
<g id="edge13" class="edge">
<title>Node12&#45;&gt;Node13</title>
<path fill="none" stroke="#191970" d="M737.8248,-10C750.3307,-10 763.7319,-10 775.4371,-10"/>
<polygon fill="#191970" stroke="#191970" points="737.5872,-6.5001 727.5872,-10 737.5871,-13.5001 737.5872,-6.5001"/>
</g>
<!-- Node14&#45;&gt;Node4 -->
<g id="edge15" class="edge">
<title>Node14&#45;&gt;Node4</title>
<path fill="none" stroke="#191970" d="M390.347,-37.5166C399.2275,-39.039 407.9151,-40.5283 415.8254,-41.8844"/>
<polygon fill="#191970" stroke="#191970" points="390.7172,-34.0291 380.2696,-35.7891 389.5344,-40.9285 390.7172,-34.0291"/>
</g>
</g>
</svg>
