<?xml version="1.0" encoding="UTF-8" standalone="no"?>
<!DOCTYPE svg PUBLIC "-//W3C//DTD SVG 1.1//EN"
 "http://www.w3.org/Graphics/SVG/1.1/DTD/svg11.dtd">
<!-- Generated by graphviz version 2.40.1 (20161225.0304)
 -->
<!-- Title: dts_conv_classify Pages: 1 -->
<svg width="1075pt" height="104pt"
 viewBox="0.00 0.00 1075.00 104.00" xmlns="http://www.w3.org/2000/svg" xmlns:xlink="http://www.w3.org/1999/xlink">
<g id="graph0" class="graph" transform="scale(1 1) rotate(0) translate(4 100)">
<title>dts_conv_classify</title>
<polygon fill="#ffffff" stroke="transparent" points="-4,4 -4,-100 1071,-100 1071,4 -4,4"/>
<!-- Node1 -->
<g id="node1" class="node">
<title>Node1</title>
<polygon fill="#bfbfbf" stroke="#000000" points="0,-38.5 0,-57.5 103,-57.5 103,-38.5 0,-38.5"/>
<text text-anchor="middle" x="51.5" y="-45.5" font-family="Helvetica,sans-Serif" font-size="10.00" fill="#000000">dts_conv_classify</text>
</g>
<!-- Node2 -->
<g id="node2" class="node">
<title>Node2</title>
<g id="a_node2"><a xlink:href="dts__deep__turb__conv_8f90.xhtml#a9563c03a0f1aff651a0a0e21deb27898" target="_top" xlink:title="Deep turbulent convection scheme. ">
<polygon fill="#ffffff" stroke="#000000" points="139,-38.5 139,-57.5 233,-57.5 233,-38.5 139,-38.5"/>
<text text-anchor="middle" x="186" y="-45.5" font-family="Helvetica,sans-Serif" font-size="10.00" fill="#000000">deep_turb_conv</text>
</a>
</g>
</g>
<!-- Node1&#45;&gt;Node2 -->
<g id="edge1" class="edge">
<title>Node1&#45;&gt;Node2</title>
<path fill="none" stroke="#191970" d="M113.1173,-48C121.7138,-48 130.4338,-48 138.7104,-48"/>
<polygon fill="#191970" stroke="#191970" points="113.1166,-44.5001 103.1166,-48 113.1165,-51.5001 113.1166,-44.5001"/>
</g>
<!-- Node3 -->
<g id="node3" class="node">
<title>Node3</title>
<g id="a_node3"><a xlink:href="namespaceglue__conv__6a__mod.xhtml#a6d5d1edc7767ff4cca5aa84b5368b646" target="_top" xlink:title="glue_conv_6a_mod::glue\l_conv_6a">
<polygon fill="#ffffff" stroke="#000000" points="269,-58 269,-88 406,-88 406,-58 269,-58"/>
<text text-anchor="start" x="277" y="-76" font-family="Helvetica,sans-Serif" font-size="10.00" fill="#000000">glue_conv_6a_mod::glue</text>
<text text-anchor="middle" x="337.5" y="-65" font-family="Helvetica,sans-Serif" font-size="10.00" fill="#000000">_conv_6a</text>
</a>
</g>
</g>
<!-- Node2&#45;&gt;Node3 -->
<g id="edge2" class="edge">
<title>Node2&#45;&gt;Node3</title>
<path fill="none" stroke="#191970" d="M243.1172,-57.4253C251.4812,-58.8055 260.1683,-60.239 268.7352,-61.6527"/>
<polygon fill="#191970" stroke="#191970" points="243.5415,-53.948 233.1051,-55.7731 242.4018,-60.8546 243.5415,-53.948"/>
</g>
<!-- Node14 -->
<g id="node14" class="node">
<title>Node14</title>
<g id="a_node14"><a xlink:href="namespaceglue__conv__5a__mod.xhtml#a0a2a4645b74dadcd85116112a3eb1255" target="_top" xlink:title="Gather&#45;scatter routine for deep and shallow convection points. ">
<polygon fill="#ffffff" stroke="#000000" points="269,-9 269,-39 406,-39 406,-9 269,-9"/>
<text text-anchor="start" x="277" y="-27" font-family="Helvetica,sans-Serif" font-size="10.00" fill="#000000">glue_conv_5a_mod::glue</text>
<text text-anchor="middle" x="337.5" y="-16" font-family="Helvetica,sans-Serif" font-size="10.00" fill="#000000">_conv_5a</text>
</a>
</g>
</g>
<!-- Node2&#45;&gt;Node14 -->
<g id="edge14" class="edge">
<title>Node2&#45;&gt;Node14</title>
<path fill="none" stroke="#191970" d="M243.1172,-38.9517C251.4812,-37.6267 260.1683,-36.2506 268.7352,-34.8934"/>
<polygon fill="#191970" stroke="#191970" points="242.4343,-35.5162 233.1051,-40.5378 243.5296,-42.43 242.4343,-35.5162"/>
</g>
<!-- Node4 -->
<g id="node4" class="node">
<title>Node4</title>
<g id="a_node4"><a xlink:href="ni__conv__ctl_8f90.xhtml#a9923a06c286e88170babe094e612732d" target="_top" xlink:title="Subroutine NI_conv_ctl. ">
<polygon fill="#ffffff" stroke="#000000" points="442,-38.5 442,-57.5 513,-57.5 513,-38.5 442,-38.5"/>
<text text-anchor="middle" x="477.5" y="-45.5" font-family="Helvetica,sans-Serif" font-size="10.00" fill="#000000">ni_conv_ctl</text>
</a>
</g>
</g>
<!-- Node3&#45;&gt;Node4 -->
<g id="edge3" class="edge">
<title>Node3&#45;&gt;Node4</title>
<path fill="none" stroke="#191970" d="M416.347,-58.9202C425.2275,-57.3344 433.9151,-55.783 441.8254,-54.3705"/>
<polygon fill="#191970" stroke="#191970" points="415.4986,-55.5162 406.2696,-60.7197 416.7292,-62.4072 415.4986,-55.5162"/>
</g>
<!-- Node5 -->
<g id="node5" class="node">
<title>Node5</title>
<g id="a_node5"><a xlink:href="atmos__physics2_8f90.xhtml#a0f74e8c75312201121b305cd566b175a" target="_top" xlink:title="Interface to Atmos Physics parametrizations after S&#45;L advection. ">
<polygon fill="#ffffff" stroke="#000000" points="549,-38.5 549,-57.5 644,-57.5 644,-38.5 549,-38.5"/>
<text text-anchor="middle" x="596.5" y="-45.5" font-family="Helvetica,sans-Serif" font-size="10.00" fill="#000000">atmos_physics2</text>
</a>
</g>
</g>
<!-- Node4&#45;&gt;Node5 -->
<g id="edge4" class="edge">
<title>Node4&#45;&gt;Node5</title>
<path fill="none" stroke="#191970" d="M523.2309,-48C531.6494,-48 540.457,-48 548.9283,-48"/>
<polygon fill="#191970" stroke="#191970" points="523.204,-44.5001 513.2039,-48 523.2039,-51.5001 523.204,-44.5001"/>
</g>
<!-- Node6 -->
<g id="node6" class="node">
<title>Node6</title>
<g id="a_node6"><a xlink:href="atm__step_8f90.xhtml#ac0ee2467a1a9959b7065fdb8fd27bce4" target="_top" xlink:title="Perform a 1&#45;timestep integration of the Atmosphere Model. ">
<polygon fill="#ffffff" stroke="#000000" points="689,-76.5 689,-95.5 751,-95.5 751,-76.5 689,-76.5"/>
<text text-anchor="middle" x="720" y="-83.5" font-family="Helvetica,sans-Serif" font-size="10.00" fill="#000000">atm_step</text>
</a>
</g>
</g>
<!-- Node5&#45;&gt;Node6 -->
<g id="edge5" class="edge">
<title>Node5&#45;&gt;Node6</title>
<path fill="none" stroke="#191970" d="M637.2397,-60.5353C654.0405,-65.7048 673.197,-71.5991 688.8457,-76.4141"/>
<polygon fill="#191970" stroke="#191970" points="638.2514,-57.1847 627.6643,-57.589 636.1927,-63.8752 638.2514,-57.1847"/>
</g>
<!-- Node10 -->
<g id="node10" class="node">
<title>Node10</title>
<g id="a_node10"><a xlink:href="atm__step__4_a_8f90.xhtml#a2319aa4963e90c64cd78bdcd5f481095" target="_top" xlink:title="Perform a 1&#45;timestep integration of the Atmosphere Model. ">
<polygon fill="#ffffff" stroke="#000000" points="680,-38.5 680,-57.5 760,-57.5 760,-38.5 680,-38.5"/>
<text text-anchor="middle" x="720" y="-45.5" font-family="Helvetica,sans-Serif" font-size="10.00" fill="#000000">atm_step_4a</text>
</a>
</g>
</g>
<!-- Node5&#45;&gt;Node10 -->
<g id="edge9" class="edge">
<title>Node5&#45;&gt;Node10</title>
<path fill="none" stroke="#191970" d="M654.3434,-48C663.0185,-48 671.7967,-48 679.9897,-48"/>
<polygon fill="#191970" stroke="#191970" points="654.2484,-44.5001 644.2483,-48 654.2483,-51.5001 654.2484,-44.5001"/>
</g>
<!-- Node12 -->
<g id="node12" class="node">
<title>Node12</title>
<g id="a_node12"><a xlink:href="scm__main_8f90.xhtml#a2c730136605550612e094ce51d33a2a5" target="_top" xlink:title="*********************************COPYRIGHT********************************* ">
<polygon fill="#ffffff" stroke="#000000" points="686.5,-.5 686.5,-19.5 753.5,-19.5 753.5,-.5 686.5,-.5"/>
<text text-anchor="middle" x="720" y="-7.5" font-family="Helvetica,sans-Serif" font-size="10.00" fill="#000000">scm_main</text>
</a>
</g>
</g>
<!-- Node5&#45;&gt;Node12 -->
<g id="edge12" class="edge">
<title>Node5&#45;&gt;Node12</title>
<path fill="none" stroke="#191970" d="M637.2397,-35.4647C654.0405,-30.2952 673.197,-24.4009 688.8457,-19.5859"/>
<polygon fill="#191970" stroke="#191970" points="636.1927,-32.1248 627.6643,-38.411 638.2514,-38.8153 636.1927,-32.1248"/>
</g>
<!-- Node7 -->
<g id="node7" class="node">
<title>Node7</title>
<g id="a_node7"><a xlink:href="u__model_8f90.xhtml#ada0cd2ce4699433bf0f9adbd882c8eec" target="_top" xlink:title="Subroutine: U_MODEL &#45;!&gt; ">
<polygon fill="#ffffff" stroke="#000000" points="804.5,-76.5 804.5,-95.5 863.5,-95.5 863.5,-76.5 804.5,-76.5"/>
<text text-anchor="middle" x="834" y="-83.5" font-family="Helvetica,sans-Serif" font-size="10.00" fill="#000000">u_model</text>
</a>
</g>
</g>
<!-- Node6&#45;&gt;Node7 -->
<g id="edge6" class="edge">
<title>Node6&#45;&gt;Node7</title>
<path fill="none" stroke="#191970" d="M761.2532,-86C775.5539,-86 791.2895,-86 804.4568,-86"/>
<polygon fill="#191970" stroke="#191970" points="761.151,-82.5001 751.151,-86 761.151,-89.5001 761.151,-82.5001"/>
</g>
<!-- Node8 -->
<g id="node8" class="node">
<title>Node8</title>
<g id="a_node8"><a xlink:href="um__shell_8f90.xhtml#a8c9bd25362824a5c301376ecb5ed5c27" target="_top" xlink:title="Subroutine: UM_SHELL !&gt; ">
<polygon fill="#ffffff" stroke="#000000" points="908,-57.5 908,-76.5 969,-76.5 969,-57.5 908,-57.5"/>
<text text-anchor="middle" x="938.5" y="-64.5" font-family="Helvetica,sans-Serif" font-size="10.00" fill="#000000">um_shell</text>
</a>
</g>
</g>
<!-- Node7&#45;&gt;Node8 -->
<g id="edge7" class="edge">
<title>Node7&#45;&gt;Node8</title>
<path fill="none" stroke="#191970" d="M873.701,-78.7816C884.951,-76.7362 897.0261,-74.5407 907.6677,-72.6059"/>
<polygon fill="#191970" stroke="#191970" points="872.8786,-75.3737 863.666,-80.6062 874.1308,-82.2608 872.8786,-75.3737"/>
</g>
<!-- Node9 -->
<g id="node9" class="node">
<title>Node9</title>
<g id="a_node9"><a xlink:href="um__main_8f90.xhtml#a8f2d13215621443a5313261c282f098b" target="_top" xlink:title="Code Owner: See Unified Model Code Owner&#39;s HTML page. ">
<polygon fill="#ffffff" stroke="#000000" points="1005,-57.5 1005,-76.5 1067,-76.5 1067,-57.5 1005,-57.5"/>
<text text-anchor="middle" x="1036" y="-64.5" font-family="Helvetica,sans-Serif" font-size="10.00" fill="#000000">um_main</text>
</a>
</g>
</g>
<!-- Node8&#45;&gt;Node9 -->
<g id="edge8" class="edge">
<title>Node8&#45;&gt;Node9</title>
<path fill="none" stroke="#191970" d="M979.2756,-67C987.8294,-67 996.72,-67 1004.8551,-67"/>
<polygon fill="#191970" stroke="#191970" points="979.0821,-63.5001 969.0821,-67 979.0821,-70.5001 979.0821,-63.5001"/>
</g>
<!-- Node11 -->
<g id="node11" class="node">
<title>Node11</title>
<g id="a_node11"><a xlink:href="u__model__4_a_8f90.xhtml#afa05064dab5eba198b461d0928767c7e" target="_top" xlink:title="LL Subroutine: U_MODEL_4A (ENDGAME VERSION) !&gt;LL. ">
<polygon fill="#ffffff" stroke="#000000" points="796,-38.5 796,-57.5 872,-57.5 872,-38.5 796,-38.5"/>
<text text-anchor="middle" x="834" y="-45.5" font-family="Helvetica,sans-Serif" font-size="10.00" fill="#000000">u_model_4a</text>
</a>
</g>
</g>
<!-- Node10&#45;&gt;Node11 -->
<g id="edge10" class="edge">
<title>Node10&#45;&gt;Node11</title>
<path fill="none" stroke="#191970" d="M770.3998,-48C778.891,-48 787.5803,-48 795.7002,-48"/>
<polygon fill="#191970" stroke="#191970" points="770.1922,-44.5001 760.1921,-48 770.1921,-51.5001 770.1922,-44.5001"/>
</g>
<!-- Node11&#45;&gt;Node8 -->
<g id="edge11" class="edge">
<title>Node11&#45;&gt;Node8</title>
<path fill="none" stroke="#191970" d="M881.8728,-56.7041C890.7087,-58.3107 899.7128,-59.9478 907.8647,-61.43"/>
<polygon fill="#191970" stroke="#191970" points="882.4873,-53.2586 872.0225,-54.9132 881.2351,-60.1457 882.4873,-53.2586"/>
</g>
<!-- Node13 -->
<g id="node13" class="node">
<title>Node13</title>
<g id="a_node13"><a xlink:href="scm__shell_8f90.xhtml#ab15255829ee7b5be626b1c0861b40c8d" target="_top" xlink:title="scm_shell is the main calling program for the Single Column Model. ">
<polygon fill="#ffffff" stroke="#000000" points="801.5,-.5 801.5,-19.5 866.5,-19.5 866.5,-.5 801.5,-.5"/>
<text text-anchor="middle" x="834" y="-7.5" font-family="Helvetica,sans-Serif" font-size="10.00" fill="#000000">scm_shell</text>
</a>
</g>
</g>
<!-- Node12&#45;&gt;Node13 -->
<g id="edge13" class="edge">
<title>Node12&#45;&gt;Node13</title>
<path fill="none" stroke="#191970" d="M763.8248,-10C776.3307,-10 789.7319,-10 801.4371,-10"/>
<polygon fill="#191970" stroke="#191970" points="763.5872,-6.5001 753.5872,-10 763.5871,-13.5001 763.5872,-6.5001"/>
</g>
<!-- Node14&#45;&gt;Node4 -->
<g id="edge15" class="edge">
<title>Node14&#45;&gt;Node4</title>
<path fill="none" stroke="#191970" d="M416.347,-37.5166C425.2275,-39.039 433.9151,-40.5283 441.8254,-41.8844"/>
<polygon fill="#191970" stroke="#191970" points="416.7172,-34.0291 406.2696,-35.7891 415.5344,-40.9285 416.7172,-34.0291"/>
</g>
</g>
</svg>
