<?xml version="1.0" encoding="UTF-8" standalone="no"?>
<!DOCTYPE svg PUBLIC "-//W3C//DTD SVG 1.1//EN"
 "http://www.w3.org/Graphics/SVG/1.1/DTD/svg11.dtd">
<!-- Generated by graphviz version 2.40.1 (20161225.0304)
 -->
<!-- Title: dust_calc_emiss_frac Pages: 1 -->
<svg width="871pt" height="104pt"
 viewBox="0.00 0.00 871.00 104.00" xmlns="http://www.w3.org/2000/svg" xmlns:xlink="http://www.w3.org/1999/xlink">
<g id="graph0" class="graph" transform="scale(1 1) rotate(0) translate(4 100)">
<title>dust_calc_emiss_frac</title>
<polygon fill="#ffffff" stroke="transparent" points="-4,4 -4,-100 867,-100 867,4 -4,4"/>
<!-- Node1 -->
<g id="node1" class="node">
<title>Node1</title>
<polygon fill="#bfbfbf" stroke="#000000" points="0,-38.5 0,-57.5 121,-57.5 121,-38.5 0,-38.5"/>
<text text-anchor="middle" x="60.5" y="-45.5" font-family="Helvetica,sans-Serif" font-size="10.00" fill="#000000">dust_calc_emiss_frac</text>
</g>
<!-- Node2 -->
<g id="node2" class="node">
<title>Node2</title>
<g id="a_node2"><a xlink:href="bdy__layr_8f90.xhtml#af7679ff7941f4d90c6fcfd7f286c0a43" target="_top" xlink:title="SUBROUTINE BDY_LAYR&#45; SUBROUTINE BDY_LAYR&#45; Purpose: Calculate turbulent fluxes of heat, moisture and momentum between (a) surface and atmosphere, (b) atmospheric levels within the boundary layer, and/or the effects of these fluxes on the primary model variables. The flux of heat into and through the soil is also modelled. Numerous related diagnostics are also calculated. ">
<polygon fill="#ffffff" stroke="#000000" points="157,-38.5 157,-57.5 216,-57.5 216,-38.5 157,-38.5"/>
<text text-anchor="middle" x="186.5" y="-45.5" font-family="Helvetica,sans-Serif" font-size="10.00" fill="#000000">bdy_layr</text>
</a>
</g>
</g>
<!-- Node1&#45;&gt;Node2 -->
<g id="edge1" class="edge">
<title>Node1&#45;&gt;Node2</title>
<path fill="none" stroke="#191970" d="M131.3903,-48C140.2942,-48 148.9845,-48 156.7345,-48"/>
<polygon fill="#191970" stroke="#191970" points="131.2856,-44.5001 121.2856,-48 131.2855,-51.5001 131.2856,-44.5001"/>
</g>
<!-- Node3 -->
<g id="node3" class="node">
<title>Node3</title>
<g id="a_node3"><a xlink:href="ni__bl__ctl_8f90.xhtml#a84fd4731893010fbf9c31b6e7e2d6b49" target="_top" xlink:title="Subroutine NI_bl_ctl Subroutine NI_bl_ctl &#160;">
<polygon fill="#ffffff" stroke="#000000" points="252,-38.5 252,-57.5 309,-57.5 309,-38.5 252,-38.5"/>
<text text-anchor="middle" x="280.5" y="-45.5" font-family="Helvetica,sans-Serif" font-size="10.00" fill="#000000">ni_bl_ctl</text>
</a>
</g>
</g>
<!-- Node2&#45;&gt;Node3 -->
<g id="edge2" class="edge">
<title>Node2&#45;&gt;Node3</title>
<path fill="none" stroke="#191970" d="M226.4465,-48C235.0065,-48 243.886,-48 251.914,-48"/>
<polygon fill="#191970" stroke="#191970" points="226.2422,-44.5001 216.2422,-48 226.2422,-51.5001 226.2422,-44.5001"/>
</g>
<!-- Node4 -->
<g id="node4" class="node">
<title>Node4</title>
<g id="a_node4"><a xlink:href="atmos__physics2_8f90.xhtml#a0f74e8c75312201121b305cd566b175a" target="_top" xlink:title="Interface to Atmos Physics parametrizations after S&#45;L advection. ">
<polygon fill="#ffffff" stroke="#000000" points="345,-38.5 345,-57.5 440,-57.5 440,-38.5 345,-38.5"/>
<text text-anchor="middle" x="392.5" y="-45.5" font-family="Helvetica,sans-Serif" font-size="10.00" fill="#000000">atmos_physics2</text>
</a>
</g>
</g>
<!-- Node3&#45;&gt;Node4 -->
<g id="edge3" class="edge">
<title>Node3&#45;&gt;Node4</title>
<path fill="none" stroke="#191970" d="M319.1734,-48C327.4495,-48 336.2856,-48 344.8547,-48"/>
<polygon fill="#191970" stroke="#191970" points="319.0522,-44.5001 309.0521,-48 319.0521,-51.5001 319.0522,-44.5001"/>
</g>
<!-- Node5 -->
<g id="node5" class="node">
<title>Node5</title>
<g id="a_node5"><a xlink:href="atm__step_8f90.xhtml#ac0ee2467a1a9959b7065fdb8fd27bce4" target="_top" xlink:title="Perform a 1&#45;timestep integration of the Atmosphere Model. ">
<polygon fill="#ffffff" stroke="#000000" points="485,-76.5 485,-95.5 547,-95.5 547,-76.5 485,-76.5"/>
<text text-anchor="middle" x="516" y="-83.5" font-family="Helvetica,sans-Serif" font-size="10.00" fill="#000000">atm_step</text>
</a>
</g>
</g>
<!-- Node4&#45;&gt;Node5 -->
<g id="edge4" class="edge">
<title>Node4&#45;&gt;Node5</title>
<path fill="none" stroke="#191970" d="M433.2397,-60.5353C450.0405,-65.7048 469.197,-71.5991 484.8457,-76.4141"/>
<polygon fill="#191970" stroke="#191970" points="434.2514,-57.1847 423.6643,-57.589 432.1927,-63.8752 434.2514,-57.1847"/>
</g>
<!-- Node9 -->
<g id="node9" class="node">
<title>Node9</title>
<g id="a_node9"><a xlink:href="atm__step__4_a_8f90.xhtml#a2319aa4963e90c64cd78bdcd5f481095" target="_top" xlink:title="Perform a 1&#45;timestep integration of the Atmosphere Model. ">
<polygon fill="#ffffff" stroke="#000000" points="476,-38.5 476,-57.5 556,-57.5 556,-38.5 476,-38.5"/>
<text text-anchor="middle" x="516" y="-45.5" font-family="Helvetica,sans-Serif" font-size="10.00" fill="#000000">atm_step_4a</text>
</a>
</g>
</g>
<!-- Node4&#45;&gt;Node9 -->
<g id="edge8" class="edge">
<title>Node4&#45;&gt;Node9</title>
<path fill="none" stroke="#191970" d="M450.3434,-48C459.0185,-48 467.7967,-48 475.9897,-48"/>
<polygon fill="#191970" stroke="#191970" points="450.2484,-44.5001 440.2483,-48 450.2483,-51.5001 450.2484,-44.5001"/>
</g>
<!-- Node11 -->
<g id="node11" class="node">
<title>Node11</title>
<g id="a_node11"><a xlink:href="scm__main_8f90.xhtml#a2c730136605550612e094ce51d33a2a5" target="_top" xlink:title="*********************************COPYRIGHT********************************* ">
<polygon fill="#ffffff" stroke="#000000" points="482.5,-.5 482.5,-19.5 549.5,-19.5 549.5,-.5 482.5,-.5"/>
<text text-anchor="middle" x="516" y="-7.5" font-family="Helvetica,sans-Serif" font-size="10.00" fill="#000000">scm_main</text>
</a>
</g>
</g>
<!-- Node4&#45;&gt;Node11 -->
<g id="edge11" class="edge">
<title>Node4&#45;&gt;Node11</title>
<path fill="none" stroke="#191970" d="M433.2397,-35.4647C450.0405,-30.2952 469.197,-24.4009 484.8457,-19.5859"/>
<polygon fill="#191970" stroke="#191970" points="432.1927,-32.1248 423.6643,-38.411 434.2514,-38.8153 432.1927,-32.1248"/>
</g>
<!-- Node6 -->
<g id="node6" class="node">
<title>Node6</title>
<g id="a_node6"><a xlink:href="u__model_8f90.xhtml#ada0cd2ce4699433bf0f9adbd882c8eec" target="_top" xlink:title="Subroutine: U_MODEL &#45;!&gt; ">
<polygon fill="#ffffff" stroke="#000000" points="600.5,-76.5 600.5,-95.5 659.5,-95.5 659.5,-76.5 600.5,-76.5"/>
<text text-anchor="middle" x="630" y="-83.5" font-family="Helvetica,sans-Serif" font-size="10.00" fill="#000000">u_model</text>
</a>
</g>
</g>
<!-- Node5&#45;&gt;Node6 -->
<g id="edge5" class="edge">
<title>Node5&#45;&gt;Node6</title>
<path fill="none" stroke="#191970" d="M557.2532,-86C571.5539,-86 587.2895,-86 600.4568,-86"/>
<polygon fill="#191970" stroke="#191970" points="557.151,-82.5001 547.151,-86 557.151,-89.5001 557.151,-82.5001"/>
</g>
<!-- Node7 -->
<g id="node7" class="node">
<title>Node7</title>
<g id="a_node7"><a xlink:href="um__shell_8f90.xhtml#a8c9bd25362824a5c301376ecb5ed5c27" target="_top" xlink:title="Subroutine: UM_SHELL !&gt; ">
<polygon fill="#ffffff" stroke="#000000" points="704,-57.5 704,-76.5 765,-76.5 765,-57.5 704,-57.5"/>
<text text-anchor="middle" x="734.5" y="-64.5" font-family="Helvetica,sans-Serif" font-size="10.00" fill="#000000">um_shell</text>
</a>
</g>
</g>
<!-- Node6&#45;&gt;Node7 -->
<g id="edge6" class="edge">
<title>Node6&#45;&gt;Node7</title>
<path fill="none" stroke="#191970" d="M669.701,-78.7816C680.951,-76.7362 693.0261,-74.5407 703.6677,-72.6059"/>
<polygon fill="#191970" stroke="#191970" points="668.8786,-75.3737 659.666,-80.6062 670.1308,-82.2608 668.8786,-75.3737"/>
</g>
<!-- Node8 -->
<g id="node8" class="node">
<title>Node8</title>
<g id="a_node8"><a xlink:href="um__main_8f90.xhtml#a8f2d13215621443a5313261c282f098b" target="_top" xlink:title="Code Owner: See Unified Model Code Owner&#39;s HTML page. ">
<polygon fill="#ffffff" stroke="#000000" points="801,-57.5 801,-76.5 863,-76.5 863,-57.5 801,-57.5"/>
<text text-anchor="middle" x="832" y="-64.5" font-family="Helvetica,sans-Serif" font-size="10.00" fill="#000000">um_main</text>
</a>
</g>
</g>
<!-- Node7&#45;&gt;Node8 -->
<g id="edge7" class="edge">
<title>Node7&#45;&gt;Node8</title>
<path fill="none" stroke="#191970" d="M775.2756,-67C783.8294,-67 792.72,-67 800.8551,-67"/>
<polygon fill="#191970" stroke="#191970" points="775.0821,-63.5001 765.0821,-67 775.0821,-70.5001 775.0821,-63.5001"/>
</g>
<!-- Node10 -->
<g id="node10" class="node">
<title>Node10</title>
<g id="a_node10"><a xlink:href="u__model__4_a_8f90.xhtml#afa05064dab5eba198b461d0928767c7e" target="_top" xlink:title="LL Subroutine: U_MODEL_4A (ENDGAME VERSION) !&gt;LL. ">
<polygon fill="#ffffff" stroke="#000000" points="592,-38.5 592,-57.5 668,-57.5 668,-38.5 592,-38.5"/>
<text text-anchor="middle" x="630" y="-45.5" font-family="Helvetica,sans-Serif" font-size="10.00" fill="#000000">u_model_4a</text>
</a>
</g>
</g>
<!-- Node9&#45;&gt;Node10 -->
<g id="edge9" class="edge">
<title>Node9&#45;&gt;Node10</title>
<path fill="none" stroke="#191970" d="M566.3998,-48C574.891,-48 583.5803,-48 591.7002,-48"/>
<polygon fill="#191970" stroke="#191970" points="566.1922,-44.5001 556.1921,-48 566.1921,-51.5001 566.1922,-44.5001"/>
</g>
<!-- Node10&#45;&gt;Node7 -->
<g id="edge10" class="edge">
<title>Node10&#45;&gt;Node7</title>
<path fill="none" stroke="#191970" d="M677.8728,-56.7041C686.7087,-58.3107 695.7128,-59.9478 703.8647,-61.43"/>
<polygon fill="#191970" stroke="#191970" points="678.4873,-53.2586 668.0225,-54.9132 677.2351,-60.1457 678.4873,-53.2586"/>
</g>
<!-- Node12 -->
<g id="node12" class="node">
<title>Node12</title>
<g id="a_node12"><a xlink:href="scm__shell_8f90.xhtml#ab15255829ee7b5be626b1c0861b40c8d" target="_top" xlink:title="scm_shell is the main calling program for the Single Column Model. ">
<polygon fill="#ffffff" stroke="#000000" points="597.5,-.5 597.5,-19.5 662.5,-19.5 662.5,-.5 597.5,-.5"/>
<text text-anchor="middle" x="630" y="-7.5" font-family="Helvetica,sans-Serif" font-size="10.00" fill="#000000">scm_shell</text>
</a>
</g>
</g>
<!-- Node11&#45;&gt;Node12 -->
<g id="edge12" class="edge">
<title>Node11&#45;&gt;Node12</title>
<path fill="none" stroke="#191970" d="M559.8248,-10C572.3307,-10 585.7319,-10 597.4371,-10"/>
<polygon fill="#191970" stroke="#191970" points="559.5872,-6.5001 549.5872,-10 559.5871,-13.5001 559.5872,-6.5001"/>
</g>
</g>
</svg>
