<?xml version="1.0" encoding="UTF-8" standalone="no"?>
<!DOCTYPE svg PUBLIC "-//W3C//DTD SVG 1.1//EN"
 "http://www.w3.org/Graphics/SVG/1.1/DTD/svg11.dtd">
<!-- Generated by graphviz version 2.40.1 (20161225.0304)
 -->
<!-- Title: eg_vert_weights_eta Pages: 1 -->
<!--zoomable 343 -->
<svg id="main" version="1.1" xmlns="http://www.w3.org/2000/svg" xmlns:xlink="http://www.w3.org/1999/xlink" xml:space="preserve" onload="init(evt)">
<style type="text/css"><![CDATA[
.edge:hover path { stroke: red; }
.edge:hover polygon { stroke: red; fill: red; }
]]></style>
<script type="text/javascript"><![CDATA[
var edges = document.getElementsByTagName('g');
if (edges && edges.length) {
  for (var i=0;i<edges.length;i++) {
    if (edges[i].id.substr(0,4)=='edge') {
      edges[i].setAttribute('class','edge');
    }
  }
}
]]></script>
        <defs>
                <circle id="rim" cx="0" cy="0" r="7"/>
                <circle id="rim2" cx="0" cy="0" r="3.5"/>
                <g id="zoomPlus">
                        <use xlink:href="#rim" fill="#404040">
                                <set attributeName="fill" to="#808080" begin="zoomplus.mouseover" end="zoomplus.mouseout"/>
                        </use>
                        <path d="M-4,0h8M0,-4v8" fill="none" stroke="white" stroke-width="1.5" pointer-events="none"/>
                </g>
                <g id="zoomMin">
                        <use xlink:href="#rim" fill="#404040">
                                <set attributeName="fill" to="#808080" begin="zoomminus.mouseover" end="zoomminus.mouseout"/>
                        </use>
                        <path d="M-4,0h8" fill="none" stroke="white" stroke-width="1.5" pointer-events="none"/>
                </g>
                <g id="dirArrow">
                        <path fill="none" stroke="white" stroke-width="1.5" d="M0,-3.0v7 M-2.5,-0.5L0,-3.0L2.5,-0.5"/>
                </g>
               <g id="resetDef">
                       <use xlink:href="#rim2" fill="#404040">
                               <set attributeName="fill" to="#808080" begin="reset.mouseover" end="reset.mouseout"/>
                       </use>
               </g>
        </defs>

<script type="text/javascript">
var viewWidth = 1265;
var viewHeight = 343;
var sectionId = 'dynsection-2';
</script>
<script xlink:href="svgpan.js"/>
<svg id="graph" class="graph">
<g id="viewport">
<title>eg_vert_weights_eta</title>
<polygon fill="#ffffff" stroke="transparent" points="-4,4 -4,-339.2045 1261,-339.2045 1261,4 -4,4"/>
<!-- Node22 -->
<g id="node1" class="node">
<title>Node22</title>
<polygon fill="#bfbfbf" stroke="#000000" points="0,-167.9538 0,-186.9538 118,-186.9538 118,-167.9538 0,-167.9538"/>
<text text-anchor="middle" x="59" y="-174.9538" font-family="Helvetica,sans-Serif" font-size="10.00" fill="#000000">eg_vert_weights_eta</text>
</g>
<!-- Node23 -->
<g id="node2" class="node">
<title>Node23</title>
<g id="a_node2"><a xlink:href="namespaceeg__interpolation__eta__mod.xhtml#a15fdb740e645ed52674e46e9d9e4df1a" target="_top" xlink:title="eg_interpolation_eta\l_mod::eg_interpolation_eta">
<polygon fill="#ffffff" stroke="#000000" points="154,-162.4538 154,-192.4538 304,-192.4538 304,-162.4538 154,-162.4538"/>
<text text-anchor="start" x="162" y="-180.4538" font-family="Helvetica,sans-Serif" font-size="10.00" fill="#000000">eg_interpolation_eta</text>
<text text-anchor="middle" x="229" y="-169.4538" font-family="Helvetica,sans-Serif" font-size="10.00" fill="#000000">_mod::eg_interpolation_eta</text>
</a>
</g>
</g>
<!-- Node22&#45;&gt;Node23 -->
<g id="edge1" class="edge">
<title>Node22&#45;&gt;Node23</title>
<path fill="none" stroke="#191970" d="M128.4853,-177.4538C136.808,-177.4538 145.3361,-177.4538 153.7357,-177.4538"/>
<polygon fill="#191970" stroke="#191970" points="128.4578,-173.9539 118.4578,-177.4538 128.4577,-180.9539 128.4578,-173.9539"/>
</g>
<!-- Node24 -->
<g id="node3" class="node">
<title>Node24</title>
<g id="a_node3"><a xlink:href="namespacedeparture__point__eta__mod.xhtml#a84e8464c7a77a0d1b75b438d154dc1ba" target="_top" xlink:title="departure_point_eta\l_mod::departure_point_eta">
<polygon fill="#ffffff" stroke="#000000" points="341.5,-206.4538 341.5,-236.4538 489.5,-236.4538 489.5,-206.4538 341.5,-206.4538"/>
<text text-anchor="start" x="349.5" y="-224.4538" font-family="Helvetica,sans-Serif" font-size="10.00" fill="#000000">departure_point_eta</text>
<text text-anchor="middle" x="415.5" y="-213.4538" font-family="Helvetica,sans-Serif" font-size="10.00" fill="#000000">_mod::departure_point_eta</text>
</a>
</g>
</g>
<!-- Node23&#45;&gt;Node24 -->
<g id="edge2" class="edge">
<title>Node23&#45;&gt;Node24</title>
<path fill="none" stroke="#191970" d="M302.6543,-194.8307C318.9068,-198.6651 335.9909,-202.6957 351.8094,-206.4276"/>
<polygon fill="#191970" stroke="#191970" points="303.1976,-191.3629 292.6611,-192.4731 301.5902,-198.1759 303.1976,-191.3629"/>
</g>
<!-- Node25 -->
<g id="node4" class="node">
<title>Node25</title>
<g id="a_node4"><a xlink:href="namespaceeg__sl__rho__mod.xhtml#a89794fd44e2f91d931e731f97d1ec21a" target="_top" xlink:title="eg_sl_rho_mod::eg_sl_rho">
<polygon fill="#ffffff" stroke="#000000" points="527,-290.9538 527,-309.9538 670,-309.9538 670,-290.9538 527,-290.9538"/>
<text text-anchor="middle" x="598.5" y="-297.9538" font-family="Helvetica,sans-Serif" font-size="10.00" fill="#000000">eg_sl_rho_mod::eg_sl_rho</text>
</a>
</g>
</g>
<!-- Node23&#45;&gt;Node25 -->
<g id="edge22" class="edge">
<title>Node23&#45;&gt;Node25</title>
<path fill="none" stroke="#191970" d="M239.9423,-201.8738C256.2955,-234.9727 290.5697,-292.6697 340,-316.4538 417.7945,-353.8859 524.3035,-326.1699 572.6958,-309.9724"/>
<polygon fill="#191970" stroke="#191970" points="242.9129,-199.9722 235.4455,-192.4562 236.596,-202.9884 242.9129,-199.9722"/>
</g>
<!-- Node30 -->
<g id="node9" class="node">
<title>Node30</title>
<g id="a_node9"><a xlink:href="namespaceeg__sl__wind__u__mod.xhtml#ace7ba5810940b39501885fe546334902" target="_top" xlink:title="eg_sl_wind_u_mod::eg\l_sl_wind_u">
<polygon fill="#ffffff" stroke="#000000" points="535,-241.4538 535,-271.4538 662,-271.4538 662,-241.4538 535,-241.4538"/>
<text text-anchor="start" x="543" y="-259.4538" font-family="Helvetica,sans-Serif" font-size="10.00" fill="#000000">eg_sl_wind_u_mod::eg</text>
<text text-anchor="middle" x="598.5" y="-248.4538" font-family="Helvetica,sans-Serif" font-size="10.00" fill="#000000">_sl_wind_u</text>
</a>
</g>
</g>
<!-- Node23&#45;&gt;Node30 -->
<g id="edge25" class="edge">
<title>Node23&#45;&gt;Node30</title>
<path fill="none" stroke="#191970" d="M242.8426,-201.3077C260.9766,-229.8918 295.7377,-276.3224 340,-295.4538 401.603,-322.0805 425.0396,-307.8281 491,-295.4538 507.8729,-292.2885 510.895,-287.3989 527,-281.4538 535.8822,-278.175 545.424,-274.763 554.5516,-271.5521"/>
<polygon fill="#191970" stroke="#191970" points="245.7725,-199.3906 237.5482,-192.7114 239.8123,-203.0616 245.7725,-199.3906"/>
</g>
<!-- Node32 -->
<g id="node11" class="node">
<title>Node32</title>
<g id="a_node11"><a xlink:href="namespaceeg__sl__wind__v__mod.xhtml#ad11ec470eb1a3e23bab3c91386117836" target="_top" xlink:title="eg_sl_wind_v_mod::eg\l_sl_wind_v">
<polygon fill="#ffffff" stroke="#000000" points="535,-192.4538 535,-222.4538 662,-222.4538 662,-192.4538 535,-192.4538"/>
<text text-anchor="start" x="543" y="-210.4538" font-family="Helvetica,sans-Serif" font-size="10.00" fill="#000000">eg_sl_wind_v_mod::eg</text>
<text text-anchor="middle" x="598.5" y="-199.4538" font-family="Helvetica,sans-Serif" font-size="10.00" fill="#000000">_sl_wind_v</text>
</a>
</g>
</g>
<!-- Node23&#45;&gt;Node32 -->
<g id="edge26" class="edge">
<title>Node23&#45;&gt;Node32</title>
<path fill="none" stroke="#191970" d="M314.1697,-183.5968C365.4281,-187.3832 431.9785,-192.4563 491,-197.4538 505.1945,-198.6557 520.4355,-200.0254 534.8506,-201.3572"/>
<polygon fill="#191970" stroke="#191970" points="314.3588,-180.1014 304.1287,-182.8571 313.8445,-187.0824 314.3588,-180.1014"/>
</g>
<!-- Node33 -->
<g id="node12" class="node">
<title>Node33</title>
<g id="a_node12"><a xlink:href="namespaceeg__sl__wind__w__mod.xhtml#ad0bc776e2180e669a7b22fc37c8ab5f2" target="_top" xlink:title="eg_sl_wind_w_mod::eg\l_sl_wind_w">
<polygon fill="#ffffff" stroke="#000000" points="534,-143.4538 534,-173.4538 663,-173.4538 663,-143.4538 534,-143.4538"/>
<text text-anchor="start" x="542" y="-161.4538" font-family="Helvetica,sans-Serif" font-size="10.00" fill="#000000">eg_sl_wind_w_mod::eg</text>
<text text-anchor="middle" x="598.5" y="-150.4538" font-family="Helvetica,sans-Serif" font-size="10.00" fill="#000000">_sl_wind_w</text>
</a>
</g>
</g>
<!-- Node23&#45;&gt;Node33 -->
<g id="edge27" class="edge">
<title>Node23&#45;&gt;Node33</title>
<path fill="none" stroke="#191970" d="M314.2811,-165.7688C322.9559,-164.8589 331.6456,-164.0598 340,-163.4538 405.9227,-158.6726 481.5332,-157.7374 533.8762,-157.8057"/>
<polygon fill="#191970" stroke="#191970" points="313.684,-162.3132 304.1254,-166.883 314.4474,-169.2715 313.684,-162.3132"/>
</g>
<!-- Node34 -->
<g id="node13" class="node">
<title>Node34</title>
<g id="a_node13"><a xlink:href="namespaceeg__dep__pnt__cart__eta__mod.xhtml#a4155c2bd574ad184192fb41930bcea16" target="_top" xlink:title="eg_dep_pnt_cart_eta\l_mod::eg_dep_pnt_cart_eta">
<polygon fill="#ffffff" stroke="#000000" points="340,-255.4538 340,-285.4538 491,-285.4538 491,-255.4538 340,-255.4538"/>
<text text-anchor="start" x="348" y="-273.4538" font-family="Helvetica,sans-Serif" font-size="10.00" fill="#000000">eg_dep_pnt_cart_eta</text>
<text text-anchor="middle" x="415.5" y="-262.4538" font-family="Helvetica,sans-Serif" font-size="10.00" fill="#000000">_mod::eg_dep_pnt_cart_eta</text>
</a>
</g>
</g>
<!-- Node23&#45;&gt;Node34 -->
<g id="edge15" class="edge">
<title>Node23&#45;&gt;Node34</title>
<path fill="none" stroke="#191970" d="M258.2516,-198.4477C280.0034,-213.3478 310.8413,-233.0113 340,-246.4538 347.1196,-249.7361 354.8117,-252.7465 362.4685,-255.4434"/>
<polygon fill="#191970" stroke="#191970" points="260.018,-195.4133 249.8065,-192.589 256.0279,-201.1648 260.018,-195.4133"/>
</g>
<!-- Node35 -->
<g id="node14" class="node">
<title>Node35</title>
<g id="a_node14"><a xlink:href="namespaceeg__sl__moisture__mod.xhtml#a76a3ce34dd9f9a905f72ca6782522afe" target="_top" xlink:title="eg_sl_moisture_mod\l::eg_sl_moisture">
<polygon fill="#ffffff" stroke="#000000" points="711,-97.4538 711,-127.4538 829,-127.4538 829,-97.4538 711,-97.4538"/>
<text text-anchor="start" x="719" y="-115.4538" font-family="Helvetica,sans-Serif" font-size="10.00" fill="#000000">eg_sl_moisture_mod</text>
<text text-anchor="middle" x="770" y="-104.4538" font-family="Helvetica,sans-Serif" font-size="10.00" fill="#000000">::eg_sl_moisture</text>
</a>
</g>
</g>
<!-- Node23&#45;&gt;Node35 -->
<g id="edge20" class="edge">
<title>Node23&#45;&gt;Node35</title>
<path fill="none" stroke="#191970" d="M302.6199,-160.3311C315.0524,-157.7861 327.8611,-155.3767 340,-153.4538 471.6557,-132.5992 627.7888,-120.9386 710.9368,-115.7586"/>
<polygon fill="#191970" stroke="#191970" points="301.822,-156.9222 292.7498,-162.3946 303.2545,-163.7741 301.822,-156.9222"/>
</g>
<!-- Node36 -->
<g id="node15" class="node">
<title>Node36</title>
<g id="a_node15"><a xlink:href="namespaceeg__sl__thermo__mod.xhtml#a8ef22f6b60faca8b378a28649918765f" target="_top" xlink:title="eg_sl_thermo_mod::eg\l_sl_thermo">
<polygon fill="#ffffff" stroke="#000000" points="706,-48.4538 706,-78.4538 834,-78.4538 834,-48.4538 706,-48.4538"/>
<text text-anchor="start" x="714" y="-66.4538" font-family="Helvetica,sans-Serif" font-size="10.00" fill="#000000">eg_sl_thermo_mod::eg</text>
<text text-anchor="middle" x="770" y="-55.4538" font-family="Helvetica,sans-Serif" font-size="10.00" fill="#000000">_sl_thermo</text>
</a>
</g>
</g>
<!-- Node23&#45;&gt;Node36 -->
<g id="edge23" class="edge">
<title>Node23&#45;&gt;Node36</title>
<path fill="none" stroke="#191970" d="M268.0768,-158.1174C288.9674,-148.501 315.3909,-137.4651 340,-130.4538 466.9769,-94.2773 620.966,-76.2705 705.9224,-68.4845"/>
<polygon fill="#191970" stroke="#191970" points="266.4668,-155.0065 258.8942,-162.4163 269.4348,-161.3461 266.4668,-155.0065"/>
</g>
<!-- Node37 -->
<g id="node16" class="node">
<title>Node37</title>
<g id="a_node16"><a xlink:href="namespacesl__tracer1__mod.xhtml#aad75ba9204381865c515d9fff5fd2062" target="_top" xlink:title="sl_tracer1_mod::sl\l_tracer1_4a">
<polygon fill="#ffffff" stroke="#000000" points="362.5,-4.4538 362.5,-34.4538 468.5,-34.4538 468.5,-4.4538 362.5,-4.4538"/>
<text text-anchor="start" x="370.5" y="-22.4538" font-family="Helvetica,sans-Serif" font-size="10.00" fill="#000000">sl_tracer1_mod::sl</text>
<text text-anchor="middle" x="415.5" y="-11.4538" font-family="Helvetica,sans-Serif" font-size="10.00" fill="#000000">_tracer1_4a</text>
</a>
</g>
</g>
<!-- Node23&#45;&gt;Node37 -->
<g id="edge28" class="edge">
<title>Node23&#45;&gt;Node37</title>
<path fill="none" stroke="#191970" d="M244.1746,-153.8933C263.4284,-125.6465 299.0947,-78.491 340,-49.4538 348.2809,-43.5755 357.876,-38.6307 367.391,-34.5593"/>
<polygon fill="#191970" stroke="#191970" points="241.1664,-152.0955 238.5143,-162.353 246.9842,-155.9882 241.1664,-152.0955"/>
</g>
<!-- Node24&#45;&gt;Node25 -->
<g id="edge3" class="edge">
<title>Node24&#45;&gt;Node25</title>
<path fill="none" stroke="#191970" d="M480.2448,-240.6661C483.9646,-242.4505 487.5789,-244.3773 491,-246.4538 510.0762,-258.0328 507.5849,-270.4526 527,-281.4538 533.8166,-285.3163 541.4443,-288.4169 549.1095,-290.8993"/>
<polygon fill="#191970" stroke="#191970" points="481.3933,-237.3476 470.8308,-236.52 478.5718,-243.7538 481.3933,-237.3476"/>
</g>
<!-- Node24&#45;&gt;Node30 -->
<g id="edge8" class="edge">
<title>Node24&#45;&gt;Node30</title>
<path fill="none" stroke="#191970" d="M499.5617,-237.5312C511.4061,-239.7965 523.4179,-242.0939 534.796,-244.27"/>
<polygon fill="#191970" stroke="#191970" points="500.1488,-234.0801 489.6693,-235.6392 498.8338,-240.9555 500.1488,-234.0801"/>
</g>
<!-- Node24&#45;&gt;Node32 -->
<g id="edge11" class="edge">
<title>Node24&#45;&gt;Node32</title>
<path fill="none" stroke="#191970" d="M499.9171,-214.9957C511.6463,-214.0984 523.5316,-213.1891 534.796,-212.3274"/>
<polygon fill="#191970" stroke="#191970" points="499.3731,-211.527 489.6693,-215.7797 499.9072,-218.5066 499.3731,-211.527"/>
</g>
<!-- Node24&#45;&gt;Node33 -->
<g id="edge13" class="edge">
<title>Node24&#45;&gt;Node33</title>
<path fill="none" stroke="#191970" d="M469.0972,-203.0023C496.3307,-193.6269 529.0055,-182.3782 554.7078,-173.5298"/>
<polygon fill="#191970" stroke="#191970" points="467.6491,-199.7992 459.3331,-206.3638 469.9278,-206.418 467.6491,-199.7992"/>
</g>
<!-- Node26 -->
<g id="node5" class="node">
<title>Node26</title>
<g id="a_node5"><a xlink:href="atm__step__4_a_8f90.xhtml#a2319aa4963e90c64cd78bdcd5f481095" target="_top" xlink:title="Perform a 1&#45;timestep integration of the Atmosphere Model. ">
<polygon fill="#ffffff" stroke="#000000" points="870,-102.9538 870,-121.9538 950,-121.9538 950,-102.9538 870,-102.9538"/>
<text text-anchor="middle" x="910" y="-109.9538" font-family="Helvetica,sans-Serif" font-size="10.00" fill="#000000">atm_step_4a</text>
</a>
</g>
</g>
<!-- Node25&#45;&gt;Node26 -->
<g id="edge4" class="edge">
<title>Node25&#45;&gt;Node26</title>
<path fill="none" stroke="#191970" d="M647.7634,-288.2167C698.3234,-273.8716 777.3899,-246.3187 834,-202.4538 865.0382,-178.4037 892.2691,-139.8038 903.9447,-122.0069"/>
<polygon fill="#191970" stroke="#191970" points="646.7481,-284.8661 638.0467,-290.9105 648.6183,-291.6117 646.7481,-284.8661"/>
</g>
<!-- Node27 -->
<g id="node6" class="node">
<title>Node27</title>
<g id="a_node6"><a xlink:href="u__model__4_a_8f90.xhtml#afa05064dab5eba198b461d0928767c7e" target="_top" xlink:title="LL Subroutine: U_MODEL_4A (ENDGAME VERSION) !&gt;LL. ">
<polygon fill="#ffffff" stroke="#000000" points="986,-102.9538 986,-121.9538 1062,-121.9538 1062,-102.9538 986,-102.9538"/>
<text text-anchor="middle" x="1024" y="-109.9538" font-family="Helvetica,sans-Serif" font-size="10.00" fill="#000000">u_model_4a</text>
</a>
</g>
</g>
<!-- Node26&#45;&gt;Node27 -->
<g id="edge5" class="edge">
<title>Node26&#45;&gt;Node27</title>
<path fill="none" stroke="#191970" d="M960.3998,-112.4538C968.891,-112.4538 977.5803,-112.4538 985.7002,-112.4538"/>
<polygon fill="#191970" stroke="#191970" points="960.1922,-108.9539 950.1921,-112.4538 960.1921,-115.9539 960.1922,-108.9539"/>
</g>
<!-- Node28 -->
<g id="node7" class="node">
<title>Node28</title>
<g id="a_node7"><a xlink:href="um__shell_8f90.xhtml#a8c9bd25362824a5c301376ecb5ed5c27" target="_top" xlink:title="Subroutine: UM_SHELL !&gt; ">
<polygon fill="#ffffff" stroke="#000000" points="1098,-102.9538 1098,-121.9538 1159,-121.9538 1159,-102.9538 1098,-102.9538"/>
<text text-anchor="middle" x="1128.5" y="-109.9538" font-family="Helvetica,sans-Serif" font-size="10.00" fill="#000000">um_shell</text>
</a>
</g>
</g>
<!-- Node27&#45;&gt;Node28 -->
<g id="edge6" class="edge">
<title>Node27&#45;&gt;Node28</title>
<path fill="none" stroke="#191970" d="M1072.1579,-112.4538C1080.9023,-112.4538 1089.8005,-112.4538 1097.8647,-112.4538"/>
<polygon fill="#191970" stroke="#191970" points="1072.0225,-108.9539 1062.0225,-112.4538 1072.0225,-115.9539 1072.0225,-108.9539"/>
</g>
<!-- Node29 -->
<g id="node8" class="node">
<title>Node29</title>
<g id="a_node8"><a xlink:href="um__main_8f90.xhtml#a8f2d13215621443a5313261c282f098b" target="_top" xlink:title="Code Owner: See Unified Model Code Owner&#39;s HTML page. ">
<polygon fill="#ffffff" stroke="#000000" points="1195,-102.9538 1195,-121.9538 1257,-121.9538 1257,-102.9538 1195,-102.9538"/>
<text text-anchor="middle" x="1226" y="-109.9538" font-family="Helvetica,sans-Serif" font-size="10.00" fill="#000000">um_main</text>
</a>
</g>
</g>
<!-- Node28&#45;&gt;Node29 -->
<g id="edge7" class="edge">
<title>Node28&#45;&gt;Node29</title>
<path fill="none" stroke="#191970" d="M1169.2756,-112.4538C1177.8294,-112.4538 1186.72,-112.4538 1194.8551,-112.4538"/>
<polygon fill="#191970" stroke="#191970" points="1169.0821,-108.9539 1159.0821,-112.4538 1169.0821,-115.9539 1169.0821,-108.9539"/>
</g>
<!-- Node31 -->
<g id="node10" class="node">
<title>Node31</title>
<g id="a_node10"><a xlink:href="namespaceeg__sl__full__wind__mod.xhtml#a4ff349303540ec9ebd268eb6871c2485" target="_top" xlink:title="eg_sl_full_wind_mod\l::eg_sl_full_wind">
<polygon fill="#ffffff" stroke="#000000" points="710.5,-162.4538 710.5,-192.4538 829.5,-192.4538 829.5,-162.4538 710.5,-162.4538"/>
<text text-anchor="start" x="718.5" y="-180.4538" font-family="Helvetica,sans-Serif" font-size="10.00" fill="#000000">eg_sl_full_wind_mod</text>
<text text-anchor="middle" x="770" y="-169.4538" font-family="Helvetica,sans-Serif" font-size="10.00" fill="#000000">::eg_sl_full_wind</text>
</a>
</g>
</g>
<!-- Node30&#45;&gt;Node31 -->
<g id="edge9" class="edge">
<title>Node30&#45;&gt;Node31</title>
<path fill="none" stroke="#191970" d="M657.0918,-237.7468C661.4956,-236.0488 665.8406,-234.2782 670,-232.4538 696.6733,-220.7546 725.6867,-204.3562 745.5578,-192.5129"/>
<polygon fill="#191970" stroke="#191970" points="655.5641,-234.5804 647.4061,-241.3403 657.9991,-241.1432 655.5641,-234.5804"/>
</g>
<!-- Node31&#45;&gt;Node26 -->
<g id="edge10" class="edge">
<title>Node31&#45;&gt;Node26</title>
<path fill="none" stroke="#191970" d="M811.6123,-158.1339C837.2652,-146.2236 869.0421,-131.47 889.4177,-122.0099"/>
<polygon fill="#191970" stroke="#191970" points="810.0669,-154.9925 802.4707,-162.3782 813.0147,-161.3415 810.0669,-154.9925"/>
</g>
<!-- Node32&#45;&gt;Node31 -->
<g id="edge12" class="edge">
<title>Node32&#45;&gt;Node31</title>
<path fill="none" stroke="#191970" d="M672.4227,-194.5228C685.0905,-192.3068 698.1094,-190.0295 710.3449,-187.8892"/>
<polygon fill="#191970" stroke="#191970" points="671.6076,-191.1121 662.3603,-196.283 672.8138,-198.0074 671.6076,-191.1121"/>
</g>
<!-- Node33&#45;&gt;Node31 -->
<g id="edge14" class="edge">
<title>Node33&#45;&gt;Node31</title>
<path fill="none" stroke="#191970" d="M673.5992,-166.7739C685.927,-168.1396 698.5531,-169.5384 710.4369,-170.855"/>
<polygon fill="#191970" stroke="#191970" points="673.6614,-163.2594 663.3368,-165.6369 672.8906,-170.2169 673.6614,-163.2594"/>
</g>
<!-- Node34&#45;&gt;Node25 -->
<g id="edge16" class="edge">
<title>Node34&#45;&gt;Node25</title>
<path fill="none" stroke="#191970" d="M501.3285,-284.5241C514.5674,-286.6944 527.9652,-288.8908 540.4076,-290.9305"/>
<polygon fill="#191970" stroke="#191970" points="501.6886,-281.0365 491.2541,-282.8726 500.5561,-287.9443 501.6886,-281.0365"/>
</g>
<!-- Node34&#45;&gt;Node30 -->
<g id="edge17" class="edge">
<title>Node34&#45;&gt;Node30</title>
<path fill="none" stroke="#191970" d="M501.4871,-263.8756C512.6845,-263.019 523.9924,-262.1539 534.7368,-261.3319"/>
<polygon fill="#191970" stroke="#191970" points="500.9579,-260.4058 491.2541,-264.6585 501.492,-267.3854 500.9579,-260.4058"/>
</g>
<!-- Node34&#45;&gt;Node32 -->
<g id="edge18" class="edge">
<title>Node34&#45;&gt;Node32</title>
<path fill="none" stroke="#191970" d="M474.036,-252.2489C479.7844,-250.3405 485.5163,-248.3895 491,-246.4538 507.1883,-240.7395 510.895,-238.3989 527,-232.4538 535.8822,-229.175 545.424,-225.763 554.5516,-222.5521"/>
<polygon fill="#191970" stroke="#191970" points="472.8004,-248.9706 464.3871,-255.4102 474.9798,-255.6227 472.8004,-248.9706"/>
</g>
<!-- Node34&#45;&gt;Node33 -->
<g id="edge19" class="edge">
<title>Node34&#45;&gt;Node33</title>
<path fill="none" stroke="#191970" d="M485.9866,-250.1392C487.7197,-248.9779 489.3954,-247.7506 491,-246.4538 516.0817,-226.183 502.2105,-204.081 527,-183.4538 531.6498,-179.5847 536.9372,-176.2989 542.4829,-173.5116"/>
<polygon fill="#191970" stroke="#191970" points="483.7959,-247.3642 476.9077,-255.4142 487.3125,-253.4167 483.7959,-247.3642"/>
</g>
<!-- Node35&#45;&gt;Node26 -->
<g id="edge21" class="edge">
<title>Node35&#45;&gt;Node26</title>
<path fill="none" stroke="#191970" d="M839.6147,-112.4538C849.8933,-112.4538 860.183,-112.4538 869.5972,-112.4538"/>
<polygon fill="#191970" stroke="#191970" points="839.3726,-108.9539 829.3726,-112.4538 839.3726,-115.9539 839.3726,-108.9539"/>
</g>
<!-- Node36&#45;&gt;Node26 -->
<g id="edge24" class="edge">
<title>Node36&#45;&gt;Node26</title>
<path fill="none" stroke="#191970" d="M822.6578,-81.8841C843.0714,-89.0288 865.5851,-96.9086 882.6417,-102.8784"/>
<polygon fill="#191970" stroke="#191970" points="823.7418,-78.5554 813.147,-78.5553 821.4293,-85.1624 823.7418,-78.5554"/>
</g>
<!-- Node37&#45;&gt;Node26 -->
<g id="edge29" class="edge">
<title>Node37&#45;&gt;Node26</title>
<path fill="none" stroke="#191970" d="M478.676,-9.1902C563.3796,1.6787 716.6716,11.0546 834,-39.4538 865.76,-53.1262 892.0489,-86.3998 903.634,-102.8799"/>
<polygon fill="#191970" stroke="#191970" points="478.144,-5.73 468.6933,-10.5191 479.0678,-12.6688 478.144,-5.73"/>
</g>
</g>
</svg>
        <g id="navigator" transform="translate(0 0)" fill="#404254">
                <rect fill="#f2f5e9" fill-opacity="0.5" stroke="#606060" stroke-width=".5" x="0" y="0" width="60" height="60"/>
                <use id="zoomplus" xlink:href="#zoomPlus" x="17" y="9" onmousedown="handleZoom(evt,'in')"/>
                <use id="zoomminus" xlink:href="#zoomMin" x="42" y="9" onmousedown="handleZoom(evt,'out')"/>
                <use id="reset" xlink:href="#resetDef" x="30" y="36" onmousedown="handleReset()"/>
                <g id="arrowUp" xlink:href="#dirArrow" transform="translate(30 24)" onmousedown="handlePan(0,-1)">
                  <use xlink:href="#rim" fill="#404040">
                        <set attributeName="fill" to="#808080" begin="arrowUp.mouseover" end="arrowUp.mouseout"/>
                  </use>
                  <path fill="none" stroke="white" stroke-width="1.5" d="M0,-3.0v7 M-2.5,-0.5L0,-3.0L2.5,-0.5"/>
                </g>
                <g id="arrowRight" xlink:href="#dirArrow" transform="rotate(90) translate(36 -43)" onmousedown="handlePan(1,0)">
                  <use xlink:href="#rim" fill="#404040">
                        <set attributeName="fill" to="#808080" begin="arrowRight.mouseover" end="arrowRight.mouseout"/>
                  </use>
                  <path fill="none" stroke="white" stroke-width="1.5" d="M0,-3.0v7 M-2.5,-0.5L0,-3.0L2.5,-0.5"/>
                </g>
                <g id="arrowDown" xlink:href="#dirArrow" transform="rotate(180) translate(-30 -48)" onmousedown="handlePan(0,1)">
                  <use xlink:href="#rim" fill="#404040">
                        <set attributeName="fill" to="#808080" begin="arrowDown.mouseover" end="arrowDown.mouseout"/>
                  </use>
                  <path fill="none" stroke="white" stroke-width="1.5" d="M0,-3.0v7 M-2.5,-0.5L0,-3.0L2.5,-0.5"/>
                </g>
                <g id="arrowLeft" xlink:href="#dirArrow" transform="rotate(270) translate(-36 17)" onmousedown="handlePan(-1,0)">
                  <use xlink:href="#rim" fill="#404040">
                        <set attributeName="fill" to="#808080" begin="arrowLeft.mouseover" end="arrowLeft.mouseout"/>
                  </use>
                  <path fill="none" stroke="white" stroke-width="1.5" d="M0,-3.0v7 M-2.5,-0.5L0,-3.0L2.5,-0.5"/>
                </g>
        </g>
        <svg viewBox="0 0 15 15" width="100%" height="30px" preserveAspectRatio="xMaxYMin meet">
         <g id="arrow_out" transform="scale(0.3 0.3)">
          <a xlink:href="eg__vert__weights__eta_8f90_ad5b60d4a964b2b15eee4f9fa41fd65c8_icgraph_org.svg" target="_base">
           <rect id="button" ry="5" rx="5" y="6" x="6" height="38" width="38"
                fill="#f2f5e9" fill-opacity="0.5" stroke="#606060" stroke-width="1.0"/>
           <path id="arrow"
             d="M 11.500037,31.436501 C 11.940474,20.09759 22.043105,11.32322 32.158766,21.979434 L 37.068811,17.246167 C 37.068811,17.246167 37.088388,32 37.088388,32 L 22.160133,31.978069 C 22.160133,31.978069 26.997745,27.140456 26.997745,27.140456 C 18.528582,18.264221 13.291696,25.230495 11.500037,31.436501 z"
             style="fill:#404040;"/>
          </a>
         </g>
        </svg>
</svg>
