<?xml version="1.0" encoding="UTF-8" standalone="no"?>
<!DOCTYPE svg PUBLIC "-//W3C//DTD SVG 1.1//EN"
 "http://www.w3.org/Graphics/SVG/1.1/DTD/svg11.dtd">
<!-- Generated by graphviz version 2.40.1 (20161225.0304)
 -->
<!-- Title: eg_idl_initial_data Pages: 1 -->
<!--zoomable 180 -->
<svg id="main" version="1.1" xmlns="http://www.w3.org/2000/svg" xmlns:xlink="http://www.w3.org/1999/xlink" xml:space="preserve" onload="init(evt)">
<style type="text/css"><![CDATA[
.edge:hover path { stroke: red; }
.edge:hover polygon { stroke: red; fill: red; }
]]></style>
<script type="text/javascript"><![CDATA[
var edges = document.getElementsByTagName('g');
if (edges && edges.length) {
  for (var i=0;i<edges.length;i++) {
    if (edges[i].id.substr(0,4)=='edge') {
      edges[i].setAttribute('class','edge');
    }
  }
}
]]></script>
        <defs>
                <circle id="rim" cx="0" cy="0" r="7"/>
                <circle id="rim2" cx="0" cy="0" r="3.5"/>
                <g id="zoomPlus">
                        <use xlink:href="#rim" fill="#404040">
                                <set attributeName="fill" to="#808080" begin="zoomplus.mouseover" end="zoomplus.mouseout"/>
                        </use>
                        <path d="M-4,0h8M0,-4v8" fill="none" stroke="white" stroke-width="1.5" pointer-events="none"/>
                </g>
                <g id="zoomMin">
                        <use xlink:href="#rim" fill="#404040">
                                <set attributeName="fill" to="#808080" begin="zoomminus.mouseover" end="zoomminus.mouseout"/>
                        </use>
                        <path d="M-4,0h8" fill="none" stroke="white" stroke-width="1.5" pointer-events="none"/>
                </g>
                <g id="dirArrow">
                        <path fill="none" stroke="white" stroke-width="1.5" d="M0,-3.0v7 M-2.5,-0.5L0,-3.0L2.5,-0.5"/>
                </g>
               <g id="resetDef">
                       <use xlink:href="#rim2" fill="#404040">
                               <set attributeName="fill" to="#808080" begin="reset.mouseover" end="reset.mouseout"/>
                       </use>
               </g>
        </defs>

<script type="text/javascript">
var viewWidth = 807;
var viewHeight = 180;
var sectionId = 'dynsection-0';
</script>
<script xlink:href="svgpan.js"/>
<svg id="graph" class="graph">
<g id="viewport">
<title>eg_idl_initial_data</title>
<polygon fill="#ffffff" stroke="transparent" points="-4,4 -4,-176 803,-176 803,4 -4,4"/>
<!-- Node0 -->
<g id="node1" class="node">
<title>Node0</title>
<polygon fill="#bfbfbf" stroke="#000000" points="0,-76.5 0,-95.5 106,-95.5 106,-76.5 0,-76.5"/>
<text text-anchor="middle" x="53" y="-83.5" font-family="Helvetica,sans-Serif" font-size="10.00" fill="#000000">eg_idl_initial_data</text>
</g>
<!-- Node1 -->
<g id="node2" class="node">
<title>Node1</title>
<g id="a_node2"><a xlink:href="namespaceeqtoll__mod.xhtml#aa7e9a170440dd6cdf13b810ef4e407dd" target="_top" xlink:title="eqtoll_mod::eqtoll">
<polygon fill="#ffffff" stroke="#000000" points="152,-152.5 152,-171.5 257,-171.5 257,-152.5 152,-152.5"/>
<text text-anchor="middle" x="204.5" y="-159.5" font-family="Helvetica,sans-Serif" font-size="10.00" fill="#000000">eqtoll_mod::eqtoll</text>
</a>
</g>
</g>
<!-- Node0&#45;&gt;Node1 -->
<g id="edge1" class="edge">
<title>Node0&#45;&gt;Node1</title>
<path fill="none" stroke="#191970" d="M65.6217,-95.6803C82.3135,-108.097 113.0115,-129.6218 142,-143 146.9556,-145.287 152.2567,-147.3856 157.5983,-149.2858"/>
<polygon fill="#191970" stroke="#191970" points="156.5973,-152.6415 167.1911,-152.4898 158.815,-146.002 156.5973,-152.6415"/>
</g>
<!-- Node2 -->
<g id="node3" class="node">
<title>Node2</title>
<g id="a_node3"><a xlink:href="namespacew__coeff__mod.xhtml#a136b5a27ce2a0c71171743cf053a164d" target="_top" xlink:title="w_coeff_mod::w_coeff">
<polygon fill="#ffffff" stroke="#000000" points="142,-114.5 142,-133.5 267,-133.5 267,-114.5 142,-114.5"/>
<text text-anchor="middle" x="204.5" y="-121.5" font-family="Helvetica,sans-Serif" font-size="10.00" fill="#000000">w_coeff_mod::w_coeff</text>
</a>
</g>
</g>
<!-- Node0&#45;&gt;Node2 -->
<g id="edge2" class="edge">
<title>Node0&#45;&gt;Node2</title>
<path fill="none" stroke="#191970" d="M91.2298,-95.589C111.1319,-100.5809 135.6567,-106.7324 156.7909,-112.0334"/>
<polygon fill="#191970" stroke="#191970" points="155.994,-115.4418 166.5451,-114.4799 157.6971,-108.6521 155.994,-115.4418"/>
</g>
<!-- Node3 -->
<g id="node4" class="node">
<title>Node3</title>
<g id="a_node4"><a xlink:href="w__lltoeq_8f90.xhtml#a4bbee9fd6dbf966e3bdeff44385fe822" target="_top" xlink:title="w_lltoeq">
<polygon fill="#ffffff" stroke="#000000" points="175.5,-76.5 175.5,-95.5 233.5,-95.5 233.5,-76.5 175.5,-76.5"/>
<text text-anchor="middle" x="204.5" y="-83.5" font-family="Helvetica,sans-Serif" font-size="10.00" fill="#000000">w_lltoeq</text>
</a>
</g>
</g>
<!-- Node0&#45;&gt;Node3 -->
<g id="edge3" class="edge">
<title>Node0&#45;&gt;Node3</title>
<path fill="none" stroke="#191970" d="M106.4132,-86C125.7835,-86 147.2939,-86 165.2233,-86"/>
<polygon fill="#191970" stroke="#191970" points="165.323,-89.5001 175.3229,-86 165.3229,-82.5001 165.323,-89.5001"/>
</g>
<!-- Node4 -->
<g id="node5" class="node">
<title>Node4</title>
<g id="a_node5"><a xlink:href="namespaceumprintmgr.xhtml#aae44897e556705dbf5e945a26538be9a" target="_top" xlink:title="umprintmgr::umprint">
<polygon fill="#ffffff" stroke="#000000" points="303,-38.5 303,-57.5 422,-57.5 422,-38.5 303,-38.5"/>
<text text-anchor="middle" x="362.5" y="-45.5" font-family="Helvetica,sans-Serif" font-size="10.00" fill="#000000">umprintmgr::umprint</text>
</a>
</g>
</g>
<!-- Node0&#45;&gt;Node4 -->
<g id="edge4" class="edge">
<title>Node0&#45;&gt;Node4</title>
<path fill="none" stroke="#191970" d="M92.681,-76.4245C108.0128,-73.0158 125.7484,-69.4253 142,-67 192.134,-59.5183 249.1537,-54.702 292.6486,-51.7908"/>
<polygon fill="#191970" stroke="#191970" points="293.0868,-55.2697 302.8381,-51.127 292.6316,-48.2846 293.0868,-55.2697"/>
</g>
<!-- Node8 -->
<g id="node9" class="node">
<title>Node8</title>
<g id="a_node9"><a xlink:href="idl__pr__balance_8f90.xhtml#ad50a3649016198e8edadfdb615c42150" target="_top" xlink:title="Subroutine IDL_pr_balance. ">
<polygon fill="#ffffff" stroke="#000000" points="161,-.5 161,-19.5 248,-19.5 248,-.5 161,-.5"/>
<text text-anchor="middle" x="204.5" y="-7.5" font-family="Helvetica,sans-Serif" font-size="10.00" fill="#000000">idl_pr_balance</text>
</a>
</g>
</g>
<!-- Node0&#45;&gt;Node8 -->
<g id="edge9" class="edge">
<title>Node0&#45;&gt;Node8</title>
<path fill="none" stroke="#191970" d="M67.7125,-76.4044C85.0388,-65.3422 114.8987,-47.0148 142,-34 149.9827,-30.1665 158.7496,-26.4891 167.1269,-23.2144"/>
<polygon fill="#191970" stroke="#191970" points="168.6086,-26.3955 176.7118,-19.5699 166.1208,-19.8525 168.6086,-26.3955"/>
</g>
<!-- Node5 -->
<g id="node6" class="node">
<title>Node5</title>
<g id="a_node6"><a xlink:href="namespaceumprintmgr.xhtml#a088ce22a18d574e9df7ee1850bfb10c7" target="_top" xlink:title="umprintmgr::umprintopenstream">
<polygon fill="#ffffff" stroke="#000000" points="458,-38.5 458,-57.5 635,-57.5 635,-38.5 458,-38.5"/>
<text text-anchor="middle" x="546.5" y="-45.5" font-family="Helvetica,sans-Serif" font-size="10.00" fill="#000000">umprintmgr::umprintopenstream</text>
</a>
</g>
</g>
<!-- Node4&#45;&gt;Node5 -->
<g id="edge5" class="edge">
<title>Node4&#45;&gt;Node5</title>
<path fill="none" stroke="#191970" d="M422.2395,-41.6333C430.4605,-41.4301 439.0751,-41.3077 447.7702,-41.2661"/>
<polygon fill="#191970" stroke="#191970" points="447.9998,-44.7659 457.9958,-41.2543 447.9917,-37.7659 447.9998,-44.7659"/>
</g>
<!-- Node6 -->
<g id="node7" class="node">
<title>Node6</title>
<g id="a_node7"><a xlink:href="namespaceumprintmgr.xhtml#ad3a290b30a6e25500eabc0bf90330b77" target="_top" xlink:title="umprintmgr::umprintflush">
<polygon fill="#ffffff" stroke="#000000" points="475.5,-.5 475.5,-19.5 617.5,-19.5 617.5,-.5 475.5,-.5"/>
<text text-anchor="middle" x="546.5" y="-7.5" font-family="Helvetica,sans-Serif" font-size="10.00" fill="#000000">umprintmgr::umprintflush</text>
</a>
</g>
</g>
<!-- Node4&#45;&gt;Node6 -->
<g id="edge7" class="edge">
<title>Node4&#45;&gt;Node6</title>
<path fill="none" stroke="#191970" d="M408.931,-38.411C433.6493,-33.3061 464.239,-26.9887 490.292,-21.6082"/>
<polygon fill="#191970" stroke="#191970" points="491.3175,-24.9703 500.4029,-19.5201 489.9017,-18.115 491.3175,-24.9703"/>
</g>
<!-- Node5&#45;&gt;Node4 -->
<g id="edge6" class="edge">
<title>Node5&#45;&gt;Node4</title>
<path fill="none" stroke="#191970" d="M457.9958,-54.7457C449.3802,-54.767 440.7236,-54.7094 432.3289,-54.5727"/>
<polygon fill="#191970" stroke="#191970" points="432.3089,-51.0716 422.2395,-54.3667 432.166,-58.0702 432.3089,-51.0716"/>
</g>
<!-- Node7 -->
<g id="node8" class="node">
<title>Node7</title>
<g id="a_node8"><a xlink:href="namespaceumflush__mod.xhtml#a3a003ab59990bdcb712b443dd5e0d1cd" target="_top" xlink:title="umflush_mod::umflush">
<polygon fill="#ffffff" stroke="#000000" points="671,-.5 671,-19.5 799,-19.5 799,-.5 671,-.5"/>
<text text-anchor="middle" x="735" y="-7.5" font-family="Helvetica,sans-Serif" font-size="10.00" fill="#000000">umflush_mod::umflush</text>
</a>
</g>
</g>
<!-- Node6&#45;&gt;Node7 -->
<g id="edge8" class="edge">
<title>Node6&#45;&gt;Node7</title>
<path fill="none" stroke="#191970" d="M617.7638,-10C631.7742,-10 646.5063,-10 660.6162,-10"/>
<polygon fill="#191970" stroke="#191970" points="660.7612,-13.5001 670.7611,-10 660.7611,-6.5001 660.7612,-13.5001"/>
</g>
<!-- Node8&#45;&gt;Node4 -->
<g id="edge10" class="edge">
<title>Node8&#45;&gt;Node4</title>
<path fill="none" stroke="#191970" d="M244.3701,-19.589C265.2199,-24.6035 290.9346,-30.7881 313.0429,-36.1053"/>
<polygon fill="#191970" stroke="#191970" points="312.3754,-39.5445 322.9166,-38.4799 314.0123,-32.7385 312.3754,-39.5445"/>
</g>
<!-- Node9 -->
<g id="node10" class="node">
<title>Node9</title>
<g id="a_node10"><a xlink:href="csigma_8h.xhtml#a632bc67727118dd1c230108e7ac4371c" target="_top" xlink:title="constant">
<polygon fill="#ffffff" stroke="#000000" points="333,-.5 333,-19.5 392,-19.5 392,-.5 333,-.5"/>
<text text-anchor="middle" x="362.5" y="-7.5" font-family="Helvetica,sans-Serif" font-size="10.00" fill="#000000">constant</text>
</a>
</g>
</g>
<!-- Node8&#45;&gt;Node9 -->
<g id="edge11" class="edge">
<title>Node8&#45;&gt;Node9</title>
<path fill="none" stroke="#191970" d="M248.0924,-10C271.2755,-10 299.5877,-10 322.2472,-10"/>
<polygon fill="#191970" stroke="#191970" points="322.5448,-13.5001 332.5448,-10 322.5448,-6.5001 322.5448,-13.5001"/>
</g>
</g>
</svg>
        <g id="navigator" transform="translate(0 0)" fill="#404254">
                <rect fill="#f2f5e9" fill-opacity="0.5" stroke="#606060" stroke-width=".5" x="0" y="0" width="60" height="60"/>
                <use id="zoomplus" xlink:href="#zoomPlus" x="17" y="9" onmousedown="handleZoom(evt,'in')"/>
                <use id="zoomminus" xlink:href="#zoomMin" x="42" y="9" onmousedown="handleZoom(evt,'out')"/>
                <use id="reset" xlink:href="#resetDef" x="30" y="36" onmousedown="handleReset()"/>
                <g id="arrowUp" xlink:href="#dirArrow" transform="translate(30 24)" onmousedown="handlePan(0,-1)">
                  <use xlink:href="#rim" fill="#404040">
                        <set attributeName="fill" to="#808080" begin="arrowUp.mouseover" end="arrowUp.mouseout"/>
                  </use>
                  <path fill="none" stroke="white" stroke-width="1.5" d="M0,-3.0v7 M-2.5,-0.5L0,-3.0L2.5,-0.5"/>
                </g>
                <g id="arrowRight" xlink:href="#dirArrow" transform="rotate(90) translate(36 -43)" onmousedown="handlePan(1,0)">
                  <use xlink:href="#rim" fill="#404040">
                        <set attributeName="fill" to="#808080" begin="arrowRight.mouseover" end="arrowRight.mouseout"/>
                  </use>
                  <path fill="none" stroke="white" stroke-width="1.5" d="M0,-3.0v7 M-2.5,-0.5L0,-3.0L2.5,-0.5"/>
                </g>
                <g id="arrowDown" xlink:href="#dirArrow" transform="rotate(180) translate(-30 -48)" onmousedown="handlePan(0,1)">
                  <use xlink:href="#rim" fill="#404040">
                        <set attributeName="fill" to="#808080" begin="arrowDown.mouseover" end="arrowDown.mouseout"/>
                  </use>
                  <path fill="none" stroke="white" stroke-width="1.5" d="M0,-3.0v7 M-2.5,-0.5L0,-3.0L2.5,-0.5"/>
                </g>
                <g id="arrowLeft" xlink:href="#dirArrow" transform="rotate(270) translate(-36 17)" onmousedown="handlePan(-1,0)">
                  <use xlink:href="#rim" fill="#404040">
                        <set attributeName="fill" to="#808080" begin="arrowLeft.mouseover" end="arrowLeft.mouseout"/>
                  </use>
                  <path fill="none" stroke="white" stroke-width="1.5" d="M0,-3.0v7 M-2.5,-0.5L0,-3.0L2.5,-0.5"/>
                </g>
        </g>
        <svg viewBox="0 0 15 15" width="100%" height="30px" preserveAspectRatio="xMaxYMin meet">
         <g id="arrow_out" transform="scale(0.3 0.3)">
          <a xlink:href="eg__idl__initial__data_8f90_a66275425af8bdd5e672223bb381dfea1_cgraph_org.svg" target="_base">
           <rect id="button" ry="5" rx="5" y="6" x="6" height="38" width="38"
                fill="#f2f5e9" fill-opacity="0.5" stroke="#606060" stroke-width="1.0"/>
           <path id="arrow"
             d="M 11.500037,31.436501 C 11.940474,20.09759 22.043105,11.32322 32.158766,21.979434 L 37.068811,17.246167 C 37.068811,17.246167 37.088388,32 37.088388,32 L 22.160133,31.978069 C 22.160133,31.978069 26.997745,27.140456 26.997745,27.140456 C 18.528582,18.264221 13.291696,25.230495 11.500037,31.436501 z"
             style="fill:#404040;"/>
          </a>
         </g>
        </svg>
</svg>
