<?xml version="1.0" encoding="UTF-8" standalone="no"?>
<!DOCTYPE svg PUBLIC "-//W3C//DTD SVG 1.1//EN"
 "http://www.w3.org/Graphics/SVG/1.1/DTD/svg11.dtd">
<!-- Generated by graphviz version 2.40.1 (20161225.0304)
 -->
<!-- Title: eg_diff_ctl Pages: 1 -->
<svg width="467pt" height="66pt"
 viewBox="0.00 0.00 467.00 66.00" xmlns="http://www.w3.org/2000/svg" xmlns:xlink="http://www.w3.org/1999/xlink">
<g id="graph0" class="graph" transform="scale(1 1) rotate(0) translate(4 62)">
<title>eg_diff_ctl</title>
<polygon fill="#ffffff" stroke="transparent" points="-4,4 -4,-62 463,-62 463,4 -4,4"/>
<!-- Node0 -->
<g id="node1" class="node">
<title>Node0</title>
<polygon fill="#bfbfbf" stroke="#000000" points="0,-19.5 0,-38.5 67,-38.5 67,-19.5 0,-19.5"/>
<text text-anchor="middle" x="33.5" y="-26.5" font-family="Helvetica,sans-Serif" font-size="10.00" fill="#000000">eg_diff_ctl</text>
</g>
<!-- Node1 -->
<g id="node2" class="node">
<title>Node1</title>
<g id="a_node2"><a xlink:href="swap__bounds__mv-2c_8f90.xhtml#a7ec706a27cea514039111eeb3f669540" target="_top" xlink:title="Direct MPI version of swap_bounds to deal with multiple variables. ">
<polygon fill="#ffffff" stroke="#000000" points="213,-38.5 213,-57.5 317,-57.5 317,-38.5 213,-38.5"/>
<text text-anchor="middle" x="265" y="-45.5" font-family="Helvetica,sans-Serif" font-size="10.00" fill="#000000">swap_bounds_mv</text>
</a>
</g>
</g>
<!-- Node0&#45;&gt;Node1 -->
<g id="edge1" class="edge">
<title>Node0&#45;&gt;Node1</title>
<path fill="none" stroke="#191970" d="M67.1621,-31.7628C102.5711,-34.6689 159.0954,-39.308 202.676,-42.8849"/>
<polygon fill="#191970" stroke="#191970" points="202.6374,-46.3934 212.8902,-43.7232 203.2101,-39.4168 202.6374,-46.3934"/>
</g>
<!-- Node3 -->
<g id="node4" class="node">
<title>Node3</title>
<g id="a_node4"><a xlink:href="eg__turb__diff_8f90.xhtml#a393858cb068e4c1402da1d6d4d0a7ba9" target="_top" xlink:title="Subroutine eg_turb_diff. ">
<polygon fill="#ffffff" stroke="#000000" points="103,-.5 103,-19.5 177,-19.5 177,-.5 103,-.5"/>
<text text-anchor="middle" x="140" y="-7.5" font-family="Helvetica,sans-Serif" font-size="10.00" fill="#000000">eg_turb_diff</text>
</a>
</g>
</g>
<!-- Node0&#45;&gt;Node3 -->
<g id="edge3" class="edge">
<title>Node0&#45;&gt;Node3</title>
<path fill="none" stroke="#191970" d="M67.1973,-22.9883C75.3442,-21.5348 84.2001,-19.9549 92.8394,-18.4136"/>
<polygon fill="#191970" stroke="#191970" points="93.5964,-21.8339 102.8262,-16.6319 92.3669,-14.9427 93.5964,-21.8339"/>
</g>
<!-- Node2 -->
<g id="node3" class="node">
<title>Node2</title>
<g id="a_node3"><a xlink:href="fill__external__halos_8f90.xhtml#a9f4e1e061e136821fb9a51281a5e69c2" target="_top" xlink:title="Routine for filling in External Halos. ">
<polygon fill="#ffffff" stroke="#000000" points="353,-19.5 353,-38.5 459,-38.5 459,-19.5 353,-19.5"/>
<text text-anchor="middle" x="406" y="-26.5" font-family="Helvetica,sans-Serif" font-size="10.00" fill="#000000">fill_external_halos</text>
</a>
</g>
</g>
<!-- Node1&#45;&gt;Node2 -->
<g id="edge2" class="edge">
<title>Node1&#45;&gt;Node2</title>
<path fill="none" stroke="#191970" d="M317.1026,-40.9791C325.4476,-39.8546 334.1623,-38.6803 342.7329,-37.5254"/>
<polygon fill="#191970" stroke="#191970" points="343.2541,-40.9868 352.6971,-36.1827 342.3192,-34.0495 343.2541,-40.9868"/>
</g>
<!-- Node4 -->
<g id="node5" class="node">
<title>Node4</title>
<g id="a_node5"><a xlink:href="swap__bounds-swpbnd2a_8f90.xhtml#aa0269e41062e156c437596022ea9ccd0" target="_top" xlink:title="Portable GCOM based version SWAP_BOUNDS. ">
<polygon fill="#ffffff" stroke="#000000" points="223.5,-.5 223.5,-19.5 306.5,-19.5 306.5,-.5 223.5,-.5"/>
<text text-anchor="middle" x="265" y="-7.5" font-family="Helvetica,sans-Serif" font-size="10.00" fill="#000000">swap_bounds</text>
</a>
</g>
</g>
<!-- Node3&#45;&gt;Node4 -->
<g id="edge4" class="edge">
<title>Node3&#45;&gt;Node4</title>
<path fill="none" stroke="#191970" d="M177.1657,-10C188.5228,-10 201.2234,-10 213.3603,-10"/>
<polygon fill="#191970" stroke="#191970" points="213.3809,-13.5001 223.3809,-10 213.3808,-6.5001 213.3809,-13.5001"/>
</g>
<!-- Node4&#45;&gt;Node2 -->
<g id="edge5" class="edge">
<title>Node4&#45;&gt;Node2</title>
<path fill="none" stroke="#191970" d="M306.542,-15.5979C317.902,-17.1286 330.4761,-18.823 342.7537,-20.4774"/>
<polygon fill="#191970" stroke="#191970" points="342.586,-23.9864 352.9639,-21.8533 343.5209,-17.0491 342.586,-23.9864"/>
</g>
</g>
</svg>
