<?xml version="1.0" encoding="UTF-8" standalone="no"?>
<!DOCTYPE svg PUBLIC "-//W3C//DTD SVG 1.1//EN"
 "http://www.w3.org/Graphics/SVG/1.1/DTD/svg11.dtd">
<!-- Generated by graphviz version 2.40.1 (20161225.0304)
 -->
<!-- Title: etadot_calc Pages: 1 -->
<svg width="239pt" height="78pt"
 viewBox="0.00 0.00 239.00 77.50" xmlns="http://www.w3.org/2000/svg" xmlns:xlink="http://www.w3.org/1999/xlink">
<g id="graph0" class="graph" transform="scale(1 1) rotate(0) translate(4 73.5)">
<title>etadot_calc</title>
<polygon fill="#ffffff" stroke="transparent" points="-4,4 -4,-73.5 235,-73.5 235,4 -4,4"/>
<!-- Node0 -->
<g id="node1" class="node">
<title>Node0</title>
<polygon fill="#bfbfbf" stroke="#000000" points="0,-22.5 0,-41.5 73,-41.5 73,-22.5 0,-22.5"/>
<text text-anchor="middle" x="36.5" y="-29.5" font-family="Helvetica,sans-Serif" font-size="10.00" fill="#000000">etadot_calc</text>
</g>
<!-- Node1 -->
<g id="node2" class="node">
<title>Node1</title>
<g id="a_node2"><a xlink:href="namespaceglobal__2d__sums__mod.xhtml#ac3fe3c2679168085c4635a17e5f82215" target="_top" xlink:title="global_2d_sums_mod\l::global_2d_sums">
<polygon fill="#ffffff" stroke="#000000" points="109,-39 109,-69 231,-69 231,-39 109,-39"/>
<text text-anchor="start" x="117" y="-57" font-family="Helvetica,sans-Serif" font-size="10.00" fill="#000000">global_2d_sums_mod</text>
<text text-anchor="middle" x="170" y="-46" font-family="Helvetica,sans-Serif" font-size="10.00" fill="#000000">::global_2d_sums</text>
</a>
</g>
</g>
<!-- Node0&#45;&gt;Node1 -->
<g id="edge1" class="edge">
<title>Node0&#45;&gt;Node1</title>
<path fill="none" stroke="#191970" d="M73.3329,-38.0698C81.3515,-39.3913 90.0965,-40.8324 98.9428,-42.2902"/>
<polygon fill="#191970" stroke="#191970" points="98.5042,-45.765 108.9402,-43.9377 99.6424,-38.8582 98.5042,-45.765"/>
</g>
<!-- Node2 -->
<g id="node3" class="node">
<title>Node2</title>
<g id="a_node3"><a xlink:href="typ__atm__fields_8h.xhtml#a1d13dba4219cf2e3ed6ab69d2d9ce035" target="_top" xlink:title="etadot">
<polygon fill="#ffffff" stroke="#000000" points="146,-.5 146,-19.5 194,-19.5 194,-.5 146,-.5"/>
<text text-anchor="middle" x="170" y="-7.5" font-family="Helvetica,sans-Serif" font-size="10.00" fill="#000000">etadot</text>
</a>
</g>
</g>
<!-- Node0&#45;&gt;Node2 -->
<g id="edge2" class="edge">
<title>Node0&#45;&gt;Node2</title>
<path fill="none" stroke="#191970" d="M73.3329,-25.9302C92.8686,-22.7108 116.715,-18.781 135.835,-15.6302"/>
<polygon fill="#191970" stroke="#191970" points="136.6158,-19.0488 145.9135,-13.9693 135.4775,-12.142 136.6158,-19.0488"/>
</g>
</g>
</svg>
