<?xml version="1.0" encoding="UTF-8" standalone="no"?>
<!DOCTYPE svg PUBLIC "-//W3C//DTD SVG 1.1//EN"
 "http://www.w3.org/Graphics/SVG/1.1/DTD/svg11.dtd">
<!-- Generated by graphviz version 2.40.1 (20161225.0304)
 -->
<!-- Title: evap_bcb_nodd Pages: 1 -->
<!--zoomable 137 -->
<svg id="main" version="1.1" xmlns="http://www.w3.org/2000/svg" xmlns:xlink="http://www.w3.org/1999/xlink" xml:space="preserve" onload="init(evt)">
<style type="text/css"><![CDATA[
.edge:hover path { stroke: red; }
.edge:hover polygon { stroke: red; fill: red; }
]]></style>
<script type="text/javascript"><![CDATA[
var edges = document.getElementsByTagName('g');
if (edges && edges.length) {
  for (var i=0;i<edges.length;i++) {
    if (edges[i].id.substr(0,4)=='edge') {
      edges[i].setAttribute('class','edge');
    }
  }
}
]]></script>
        <defs>
                <circle id="rim" cx="0" cy="0" r="7"/>
                <circle id="rim2" cx="0" cy="0" r="3.5"/>
                <g id="zoomPlus">
                        <use xlink:href="#rim" fill="#404040">
                                <set attributeName="fill" to="#808080" begin="zoomplus.mouseover" end="zoomplus.mouseout"/>
                        </use>
                        <path d="M-4,0h8M0,-4v8" fill="none" stroke="white" stroke-width="1.5" pointer-events="none"/>
                </g>
                <g id="zoomMin">
                        <use xlink:href="#rim" fill="#404040">
                                <set attributeName="fill" to="#808080" begin="zoomminus.mouseover" end="zoomminus.mouseout"/>
                        </use>
                        <path d="M-4,0h8" fill="none" stroke="white" stroke-width="1.5" pointer-events="none"/>
                </g>
                <g id="dirArrow">
                        <path fill="none" stroke="white" stroke-width="1.5" d="M0,-3.0v7 M-2.5,-0.5L0,-3.0L2.5,-0.5"/>
                </g>
               <g id="resetDef">
                       <use xlink:href="#rim2" fill="#404040">
                               <set attributeName="fill" to="#808080" begin="reset.mouseover" end="reset.mouseout"/>
                       </use>
               </g>
        </defs>

<script type="text/javascript">
var viewWidth = 1103;
var viewHeight = 137;
var sectionId = 'dynsection-1';
</script>
<script xlink:href="svgpan.js"/>
<svg id="graph" class="graph">
<g id="viewport">
<title>evap_bcb_nodd</title>
<polygon fill="#ffffff" stroke="transparent" points="-4,4 -4,-133 1099,-133 1099,4 -4,4"/>
<!-- Node9 -->
<g id="node1" class="node">
<title>Node9</title>
<polygon fill="#bfbfbf" stroke="#000000" points="0,-55 0,-74 92,-74 92,-55 0,-55"/>
<text text-anchor="middle" x="46" y="-62" font-family="Helvetica,sans-Serif" font-size="10.00" fill="#000000">evap_bcb_nodd</text>
</g>
<!-- Node10 -->
<g id="node2" class="node">
<title>Node10</title>
<g id="a_node2"><a xlink:href="mid__conv-mdconv4a_8f90.xhtml#a27f844a5905bbf9765e10d27e2f7e157" target="_top" xlink:title="Mid&#45;level convection scheme. ">
<polygon fill="#ffffff" stroke="#000000" points="154,-98 154,-117 235,-117 235,-98 154,-98"/>
<text text-anchor="middle" x="194.5" y="-105" font-family="Helvetica,sans-Serif" font-size="10.00" fill="#000000">mid_conv_4a</text>
</a>
</g>
</g>
<!-- Node9&#45;&gt;Node10 -->
<g id="edge1" class="edge">
<title>Node9&#45;&gt;Node10</title>
<path fill="none" stroke="#191970" d="M88.5666,-76.8257C111.7976,-83.5525 140.1217,-91.7541 161.6352,-97.9836"/>
<polygon fill="#191970" stroke="#191970" points="89.5359,-73.4626 78.957,-74.0431 87.5889,-80.1864 89.5359,-73.4626"/>
</g>
<!-- Node22 -->
<g id="node14" class="node">
<title>Node22</title>
<g id="a_node14"><a xlink:href="mid__conv-mdconv5a_8f90.xhtml#ab66fee07f6cbf1091693ce2ebca374e0" target="_top" xlink:title="Mid&#45;level convection scheme. ">
<polygon fill="#ffffff" stroke="#000000" points="154,-55 154,-74 235,-74 235,-55 154,-55"/>
<text text-anchor="middle" x="194.5" y="-62" font-family="Helvetica,sans-Serif" font-size="10.00" fill="#000000">mid_conv_5a</text>
</a>
</g>
</g>
<!-- Node9&#45;&gt;Node22 -->
<g id="edge14" class="edge">
<title>Node9&#45;&gt;Node22</title>
<path fill="none" stroke="#191970" d="M102.598,-64.5C119.6728,-64.5 138.0696,-64.5 153.8849,-64.5"/>
<polygon fill="#191970" stroke="#191970" points="102.1723,-61.0001 92.1723,-64.5 102.1723,-68.0001 102.1723,-61.0001"/>
</g>
<!-- Node24 -->
<g id="node16" class="node">
<title>Node24</title>
<g id="a_node16"><a xlink:href="namespacemid__conv__6a__mod.xhtml#a94ce408755640470c310456d5ba3c800" target="_top" xlink:title="Mid level convection scheme. ">
<polygon fill="#ffffff" stroke="#000000" points="128,-3.5 128,-33.5 261,-33.5 261,-3.5 128,-3.5"/>
<text text-anchor="start" x="136" y="-21.5" font-family="Helvetica,sans-Serif" font-size="10.00" fill="#000000">mid_conv_6a_mod::mid</text>
<text text-anchor="middle" x="194.5" y="-10.5" font-family="Helvetica,sans-Serif" font-size="10.00" fill="#000000">_conv_6a</text>
</a>
</g>
</g>
<!-- Node9&#45;&gt;Node24 -->
<g id="edge17" class="edge">
<title>Node9&#45;&gt;Node24</title>
<path fill="none" stroke="#191970" d="M86.5631,-51.935C104.9062,-46.253 126.7302,-39.4927 145.9382,-33.5427"/>
<polygon fill="#191970" stroke="#191970" points="85.2859,-48.6665 76.7693,-54.9688 87.3572,-55.353 85.2859,-48.6665"/>
</g>
<!-- Node11 -->
<g id="node3" class="node">
<title>Node11</title>
<g id="a_node3"><a xlink:href="namespaceglue__conv__4a__mod.xhtml#a4cb48dc3e9cfb0ea5d0daf6d1889ed9b" target="_top" xlink:title="Gather&#45;scatter routine for deep and shallow convection points. ">
<polygon fill="#ffffff" stroke="#000000" points="297,-98.5 297,-128.5 434,-128.5 434,-98.5 297,-98.5"/>
<text text-anchor="start" x="305" y="-116.5" font-family="Helvetica,sans-Serif" font-size="10.00" fill="#000000">glue_conv_4a_mod::glue</text>
<text text-anchor="middle" x="365.5" y="-105.5" font-family="Helvetica,sans-Serif" font-size="10.00" fill="#000000">_conv_4a</text>
</a>
</g>
</g>
<!-- Node10&#45;&gt;Node11 -->
<g id="edge2" class="edge">
<title>Node10&#45;&gt;Node11</title>
<path fill="none" stroke="#191970" d="M245.3287,-109.2835C261.4918,-109.8506 279.645,-110.4875 296.8504,-111.0912"/>
<polygon fill="#191970" stroke="#191970" points="245.1412,-105.7748 235.0246,-108.9219 244.8957,-112.7705 245.1412,-105.7748"/>
</g>
<!-- Node12 -->
<g id="node4" class="node">
<title>Node12</title>
<g id="a_node4"><a xlink:href="ni__conv__ctl_8f90.xhtml#a9923a06c286e88170babe094e612732d" target="_top" xlink:title="Subroutine NI_conv_ctl. ">
<polygon fill="#ffffff" stroke="#000000" points="470,-55 470,-74 541,-74 541,-55 470,-55"/>
<text text-anchor="middle" x="505.5" y="-62" font-family="Helvetica,sans-Serif" font-size="10.00" fill="#000000">ni_conv_ctl</text>
</a>
</g>
</g>
<!-- Node11&#45;&gt;Node12 -->
<g id="edge3" class="edge">
<title>Node11&#45;&gt;Node12</title>
<path fill="none" stroke="#191970" d="M418.1578,-95.0698C438.5714,-87.925 461.0851,-80.0452 478.1417,-74.0754"/>
<polygon fill="#191970" stroke="#191970" points="416.9293,-91.7915 408.647,-98.3986 419.2418,-98.3985 416.9293,-91.7915"/>
</g>
<!-- Node13 -->
<g id="node5" class="node">
<title>Node13</title>
<g id="a_node5"><a xlink:href="atmos__physics2_8f90.xhtml#a0f74e8c75312201121b305cd566b175a" target="_top" xlink:title="Interface to Atmos Physics parametrizations after S&#45;L advection. ">
<polygon fill="#ffffff" stroke="#000000" points="577,-55 577,-74 672,-74 672,-55 577,-55"/>
<text text-anchor="middle" x="624.5" y="-62" font-family="Helvetica,sans-Serif" font-size="10.00" fill="#000000">atmos_physics2</text>
</a>
</g>
</g>
<!-- Node12&#45;&gt;Node13 -->
<g id="edge4" class="edge">
<title>Node12&#45;&gt;Node13</title>
<path fill="none" stroke="#191970" d="M551.2309,-64.5C559.6494,-64.5 568.457,-64.5 576.9283,-64.5"/>
<polygon fill="#191970" stroke="#191970" points="551.204,-61.0001 541.2039,-64.5 551.2039,-68.0001 551.204,-61.0001"/>
</g>
<!-- Node14 -->
<g id="node6" class="node">
<title>Node14</title>
<g id="a_node6"><a xlink:href="atm__step_8f90.xhtml#ac0ee2467a1a9959b7065fdb8fd27bce4" target="_top" xlink:title="Perform a 1&#45;timestep integration of the Atmosphere Model. ">
<polygon fill="#ffffff" stroke="#000000" points="717,-93 717,-112 779,-112 779,-93 717,-93"/>
<text text-anchor="middle" x="748" y="-100" font-family="Helvetica,sans-Serif" font-size="10.00" fill="#000000">atm_step</text>
</a>
</g>
</g>
<!-- Node13&#45;&gt;Node14 -->
<g id="edge5" class="edge">
<title>Node13&#45;&gt;Node14</title>
<path fill="none" stroke="#191970" d="M665.2397,-77.0353C682.0405,-82.2048 701.197,-88.0991 716.8457,-92.9141"/>
<polygon fill="#191970" stroke="#191970" points="666.2514,-73.6847 655.6643,-74.089 664.1927,-80.3752 666.2514,-73.6847"/>
</g>
<!-- Node18 -->
<g id="node10" class="node">
<title>Node18</title>
<g id="a_node10"><a xlink:href="atm__step__4_a_8f90.xhtml#a2319aa4963e90c64cd78bdcd5f481095" target="_top" xlink:title="Perform a 1&#45;timestep integration of the Atmosphere Model. ">
<polygon fill="#ffffff" stroke="#000000" points="708,-55 708,-74 788,-74 788,-55 708,-55"/>
<text text-anchor="middle" x="748" y="-62" font-family="Helvetica,sans-Serif" font-size="10.00" fill="#000000">atm_step_4a</text>
</a>
</g>
</g>
<!-- Node13&#45;&gt;Node18 -->
<g id="edge9" class="edge">
<title>Node13&#45;&gt;Node18</title>
<path fill="none" stroke="#191970" d="M682.3434,-64.5C691.0185,-64.5 699.7967,-64.5 707.9897,-64.5"/>
<polygon fill="#191970" stroke="#191970" points="682.2484,-61.0001 672.2483,-64.5 682.2483,-68.0001 682.2484,-61.0001"/>
</g>
<!-- Node20 -->
<g id="node12" class="node">
<title>Node20</title>
<g id="a_node12"><a xlink:href="scm__main_8f90.xhtml#a2c730136605550612e094ce51d33a2a5" target="_top" xlink:title="*********************************COPYRIGHT********************************* ">
<polygon fill="#ffffff" stroke="#000000" points="714.5,-17 714.5,-36 781.5,-36 781.5,-17 714.5,-17"/>
<text text-anchor="middle" x="748" y="-24" font-family="Helvetica,sans-Serif" font-size="10.00" fill="#000000">scm_main</text>
</a>
</g>
</g>
<!-- Node13&#45;&gt;Node20 -->
<g id="edge12" class="edge">
<title>Node13&#45;&gt;Node20</title>
<path fill="none" stroke="#191970" d="M665.2397,-51.9647C682.0405,-46.7952 701.197,-40.9009 716.8457,-36.0859"/>
<polygon fill="#191970" stroke="#191970" points="664.1927,-48.6248 655.6643,-54.911 666.2514,-55.3153 664.1927,-48.6248"/>
</g>
<!-- Node15 -->
<g id="node7" class="node">
<title>Node15</title>
<g id="a_node7"><a xlink:href="u__model_8f90.xhtml#ada0cd2ce4699433bf0f9adbd882c8eec" target="_top" xlink:title="Subroutine: U_MODEL &#45;!&gt; ">
<polygon fill="#ffffff" stroke="#000000" points="832.5,-93 832.5,-112 891.5,-112 891.5,-93 832.5,-93"/>
<text text-anchor="middle" x="862" y="-100" font-family="Helvetica,sans-Serif" font-size="10.00" fill="#000000">u_model</text>
</a>
</g>
</g>
<!-- Node14&#45;&gt;Node15 -->
<g id="edge6" class="edge">
<title>Node14&#45;&gt;Node15</title>
<path fill="none" stroke="#191970" d="M789.2532,-102.5C803.5539,-102.5 819.2895,-102.5 832.4568,-102.5"/>
<polygon fill="#191970" stroke="#191970" points="789.151,-99.0001 779.151,-102.5 789.151,-106.0001 789.151,-99.0001"/>
</g>
<!-- Node16 -->
<g id="node8" class="node">
<title>Node16</title>
<g id="a_node8"><a xlink:href="um__shell_8f90.xhtml#a8c9bd25362824a5c301376ecb5ed5c27" target="_top" xlink:title="Subroutine: UM_SHELL !&gt; ">
<polygon fill="#ffffff" stroke="#000000" points="936,-74 936,-93 997,-93 997,-74 936,-74"/>
<text text-anchor="middle" x="966.5" y="-81" font-family="Helvetica,sans-Serif" font-size="10.00" fill="#000000">um_shell</text>
</a>
</g>
</g>
<!-- Node15&#45;&gt;Node16 -->
<g id="edge7" class="edge">
<title>Node15&#45;&gt;Node16</title>
<path fill="none" stroke="#191970" d="M901.701,-95.2816C912.951,-93.2362 925.0261,-91.0407 935.6677,-89.1059"/>
<polygon fill="#191970" stroke="#191970" points="900.8786,-91.8737 891.666,-97.1062 902.1308,-98.7608 900.8786,-91.8737"/>
</g>
<!-- Node17 -->
<g id="node9" class="node">
<title>Node17</title>
<g id="a_node9"><a xlink:href="um__main_8f90.xhtml#a8f2d13215621443a5313261c282f098b" target="_top" xlink:title="Code Owner: See Unified Model Code Owner&#39;s HTML page. ">
<polygon fill="#ffffff" stroke="#000000" points="1033,-74 1033,-93 1095,-93 1095,-74 1033,-74"/>
<text text-anchor="middle" x="1064" y="-81" font-family="Helvetica,sans-Serif" font-size="10.00" fill="#000000">um_main</text>
</a>
</g>
</g>
<!-- Node16&#45;&gt;Node17 -->
<g id="edge8" class="edge">
<title>Node16&#45;&gt;Node17</title>
<path fill="none" stroke="#191970" d="M1007.2756,-83.5C1015.8294,-83.5 1024.72,-83.5 1032.8551,-83.5"/>
<polygon fill="#191970" stroke="#191970" points="1007.0821,-80.0001 997.0821,-83.5 1007.0821,-87.0001 1007.0821,-80.0001"/>
</g>
<!-- Node19 -->
<g id="node11" class="node">
<title>Node19</title>
<g id="a_node11"><a xlink:href="u__model__4_a_8f90.xhtml#afa05064dab5eba198b461d0928767c7e" target="_top" xlink:title="LL Subroutine: U_MODEL_4A (ENDGAME VERSION) !&gt;LL. ">
<polygon fill="#ffffff" stroke="#000000" points="824,-55 824,-74 900,-74 900,-55 824,-55"/>
<text text-anchor="middle" x="862" y="-62" font-family="Helvetica,sans-Serif" font-size="10.00" fill="#000000">u_model_4a</text>
</a>
</g>
</g>
<!-- Node18&#45;&gt;Node19 -->
<g id="edge10" class="edge">
<title>Node18&#45;&gt;Node19</title>
<path fill="none" stroke="#191970" d="M798.3998,-64.5C806.891,-64.5 815.5803,-64.5 823.7002,-64.5"/>
<polygon fill="#191970" stroke="#191970" points="798.1922,-61.0001 788.1921,-64.5 798.1921,-68.0001 798.1922,-61.0001"/>
</g>
<!-- Node19&#45;&gt;Node16 -->
<g id="edge11" class="edge">
<title>Node19&#45;&gt;Node16</title>
<path fill="none" stroke="#191970" d="M909.8728,-73.2041C918.7087,-74.8107 927.7128,-76.4478 935.8647,-77.93"/>
<polygon fill="#191970" stroke="#191970" points="910.4873,-69.7586 900.0225,-71.4132 909.2351,-76.6457 910.4873,-69.7586"/>
</g>
<!-- Node21 -->
<g id="node13" class="node">
<title>Node21</title>
<g id="a_node13"><a xlink:href="scm__shell_8f90.xhtml#ab15255829ee7b5be626b1c0861b40c8d" target="_top" xlink:title="scm_shell is the main calling program for the Single Column Model. ">
<polygon fill="#ffffff" stroke="#000000" points="829.5,-17 829.5,-36 894.5,-36 894.5,-17 829.5,-17"/>
<text text-anchor="middle" x="862" y="-24" font-family="Helvetica,sans-Serif" font-size="10.00" fill="#000000">scm_shell</text>
</a>
</g>
</g>
<!-- Node20&#45;&gt;Node21 -->
<g id="edge13" class="edge">
<title>Node20&#45;&gt;Node21</title>
<path fill="none" stroke="#191970" d="M791.8248,-26.5C804.3307,-26.5 817.7319,-26.5 829.4371,-26.5"/>
<polygon fill="#191970" stroke="#191970" points="791.5872,-23.0001 781.5872,-26.5 791.5871,-30.0001 791.5872,-23.0001"/>
</g>
<!-- Node23 -->
<g id="node15" class="node">
<title>Node23</title>
<g id="a_node15"><a xlink:href="namespaceglue__conv__5a__mod.xhtml#a0a2a4645b74dadcd85116112a3eb1255" target="_top" xlink:title="Gather&#45;scatter routine for deep and shallow convection points. ">
<polygon fill="#ffffff" stroke="#000000" points="297,-49.5 297,-79.5 434,-79.5 434,-49.5 297,-49.5"/>
<text text-anchor="start" x="305" y="-67.5" font-family="Helvetica,sans-Serif" font-size="10.00" fill="#000000">glue_conv_5a_mod::glue</text>
<text text-anchor="middle" x="365.5" y="-56.5" font-family="Helvetica,sans-Serif" font-size="10.00" fill="#000000">_conv_5a</text>
</a>
</g>
</g>
<!-- Node22&#45;&gt;Node23 -->
<g id="edge15" class="edge">
<title>Node22&#45;&gt;Node23</title>
<path fill="none" stroke="#191970" d="M245.3287,-64.5C261.4918,-64.5 279.645,-64.5 296.8504,-64.5"/>
<polygon fill="#191970" stroke="#191970" points="245.0246,-61.0001 235.0246,-64.5 245.0246,-68.0001 245.0246,-61.0001"/>
</g>
<!-- Node23&#45;&gt;Node12 -->
<g id="edge16" class="edge">
<title>Node23&#45;&gt;Node12</title>
<path fill="none" stroke="#191970" d="M444.347,-64.5C453.2275,-64.5 461.9151,-64.5 469.8254,-64.5"/>
<polygon fill="#191970" stroke="#191970" points="444.2696,-61.0001 434.2696,-64.5 444.2696,-68.0001 444.2696,-61.0001"/>
</g>
<!-- Node25 -->
<g id="node17" class="node">
<title>Node25</title>
<g id="a_node17"><a xlink:href="namespaceglue__conv__6a__mod.xhtml#a6d5d1edc7767ff4cca5aa84b5368b646" target="_top" xlink:title="glue_conv_6a_mod::glue\l_conv_6a">
<polygon fill="#ffffff" stroke="#000000" points="297,-.5 297,-30.5 434,-30.5 434,-.5 297,-.5"/>
<text text-anchor="start" x="305" y="-18.5" font-family="Helvetica,sans-Serif" font-size="10.00" fill="#000000">glue_conv_6a_mod::glue</text>
<text text-anchor="middle" x="365.5" y="-7.5" font-family="Helvetica,sans-Serif" font-size="10.00" fill="#000000">_conv_6a</text>
</a>
</g>
</g>
<!-- Node24&#45;&gt;Node25 -->
<g id="edge18" class="edge">
<title>Node24&#45;&gt;Node25</title>
<path fill="none" stroke="#191970" d="M271.3703,-17.1514C279.8531,-17.0026 288.4503,-16.8517 296.8235,-16.7049"/>
<polygon fill="#191970" stroke="#191970" points="271.0397,-13.6566 261.1027,-17.3315 271.1626,-20.6555 271.0397,-13.6566"/>
</g>
<!-- Node25&#45;&gt;Node12 -->
<g id="edge19" class="edge">
<title>Node25&#45;&gt;Node12</title>
<path fill="none" stroke="#191970" d="M418.1578,-33.9302C438.5714,-41.075 461.0851,-48.9548 478.1417,-54.9246"/>
<polygon fill="#191970" stroke="#191970" points="419.2418,-30.6015 408.647,-30.6014 416.9293,-37.2085 419.2418,-30.6015"/>
</g>
</g>
</svg>
        <g id="navigator" transform="translate(0 0)" fill="#404254">
                <rect fill="#f2f5e9" fill-opacity="0.5" stroke="#606060" stroke-width=".5" x="0" y="0" width="60" height="60"/>
                <use id="zoomplus" xlink:href="#zoomPlus" x="17" y="9" onmousedown="handleZoom(evt,'in')"/>
                <use id="zoomminus" xlink:href="#zoomMin" x="42" y="9" onmousedown="handleZoom(evt,'out')"/>
                <use id="reset" xlink:href="#resetDef" x="30" y="36" onmousedown="handleReset()"/>
                <g id="arrowUp" xlink:href="#dirArrow" transform="translate(30 24)" onmousedown="handlePan(0,-1)">
                  <use xlink:href="#rim" fill="#404040">
                        <set attributeName="fill" to="#808080" begin="arrowUp.mouseover" end="arrowUp.mouseout"/>
                  </use>
                  <path fill="none" stroke="white" stroke-width="1.5" d="M0,-3.0v7 M-2.5,-0.5L0,-3.0L2.5,-0.5"/>
                </g>
                <g id="arrowRight" xlink:href="#dirArrow" transform="rotate(90) translate(36 -43)" onmousedown="handlePan(1,0)">
                  <use xlink:href="#rim" fill="#404040">
                        <set attributeName="fill" to="#808080" begin="arrowRight.mouseover" end="arrowRight.mouseout"/>
                  </use>
                  <path fill="none" stroke="white" stroke-width="1.5" d="M0,-3.0v7 M-2.5,-0.5L0,-3.0L2.5,-0.5"/>
                </g>
                <g id="arrowDown" xlink:href="#dirArrow" transform="rotate(180) translate(-30 -48)" onmousedown="handlePan(0,1)">
                  <use xlink:href="#rim" fill="#404040">
                        <set attributeName="fill" to="#808080" begin="arrowDown.mouseover" end="arrowDown.mouseout"/>
                  </use>
                  <path fill="none" stroke="white" stroke-width="1.5" d="M0,-3.0v7 M-2.5,-0.5L0,-3.0L2.5,-0.5"/>
                </g>
                <g id="arrowLeft" xlink:href="#dirArrow" transform="rotate(270) translate(-36 17)" onmousedown="handlePan(-1,0)">
                  <use xlink:href="#rim" fill="#404040">
                        <set attributeName="fill" to="#808080" begin="arrowLeft.mouseover" end="arrowLeft.mouseout"/>
                  </use>
                  <path fill="none" stroke="white" stroke-width="1.5" d="M0,-3.0v7 M-2.5,-0.5L0,-3.0L2.5,-0.5"/>
                </g>
        </g>
        <svg viewBox="0 0 15 15" width="100%" height="30px" preserveAspectRatio="xMaxYMin meet">
         <g id="arrow_out" transform="scale(0.3 0.3)">
          <a xlink:href="evap__bcb__nodd-evapud3c_8f90_a169e3830ecaea7be06365e0fe95da19b_icgraph_org.svg" target="_base">
           <rect id="button" ry="5" rx="5" y="6" x="6" height="38" width="38"
                fill="#f2f5e9" fill-opacity="0.5" stroke="#606060" stroke-width="1.0"/>
           <path id="arrow"
             d="M 11.500037,31.436501 C 11.940474,20.09759 22.043105,11.32322 32.158766,21.979434 L 37.068811,17.246167 C 37.068811,17.246167 37.088388,32 37.088388,32 L 22.160133,31.978069 C 22.160133,31.978069 26.997745,27.140456 26.997745,27.140456 C 18.528582,18.264221 13.291696,25.230495 11.500037,31.436501 z"
             style="fill:#404040;"/>
          </a>
         </g>
        </svg>
</svg>
