<?xml version="1.0" encoding="UTF-8" standalone="no"?>
<!DOCTYPE svg PUBLIC "-//W3C//DTD SVG 1.1//EN"
 "http://www.w3.org/Graphics/SVG/1.1/DTD/svg11.dtd">
<!-- Generated by graphviz version 2.40.1 (20161225.0304)
 -->
<!-- Title: ex_flux_uv Pages: 1 -->
<svg width="734pt" height="104pt"
 viewBox="0.00 0.00 734.00 104.00" xmlns="http://www.w3.org/2000/svg" xmlns:xlink="http://www.w3.org/1999/xlink">
<g id="graph0" class="graph" transform="scale(1 1) rotate(0) translate(4 100)">
<title>ex_flux_uv</title>
<polygon fill="#ffffff" stroke="transparent" points="-4,4 -4,-100 730,-100 730,4 -4,4"/>
<!-- Node1 -->
<g id="node1" class="node">
<title>Node1</title>
<polygon fill="#bfbfbf" stroke="#000000" points="0,-38.5 0,-57.5 69,-57.5 69,-38.5 0,-38.5"/>
<text text-anchor="middle" x="34.5" y="-45.5" font-family="Helvetica,sans-Serif" font-size="10.00" fill="#000000">ex_flux_uv</text>
</g>
<!-- Node2 -->
<g id="node2" class="node">
<title>Node2</title>
<g id="a_node2"><a xlink:href="bdy__expl3_8f90.xhtml#a3c8514a3f1b6732c778acb1d3b4cf6f2" target="_top" xlink:title="SUBROUTINE BDY_EXPL3 SUBROUTINE BDY_EXPL3 Purpose: Calculate explicit fluxes taux and tauy on their n...">
<polygon fill="#ffffff" stroke="#000000" points="105,-38.5 105,-57.5 172,-57.5 172,-38.5 105,-38.5"/>
<text text-anchor="middle" x="138.5" y="-45.5" font-family="Helvetica,sans-Serif" font-size="10.00" fill="#000000">bdy_expl3</text>
</a>
</g>
</g>
<!-- Node1&#45;&gt;Node2 -->
<g id="edge1" class="edge">
<title>Node1&#45;&gt;Node2</title>
<path fill="none" stroke="#191970" d="M79.3272,-48C87.8448,-48 96.6242,-48 104.7274,-48"/>
<polygon fill="#191970" stroke="#191970" points="79.1305,-44.5001 69.1305,-48 79.1305,-51.5001 79.1305,-44.5001"/>
</g>
<!-- Node3 -->
<g id="node3" class="node">
<title>Node3</title>
<g id="a_node3"><a xlink:href="atmos__physics2_8f90.xhtml#a0f74e8c75312201121b305cd566b175a" target="_top" xlink:title="Interface to Atmos Physics parametrizations after S&#45;L advection. ">
<polygon fill="#ffffff" stroke="#000000" points="208,-38.5 208,-57.5 303,-57.5 303,-38.5 208,-38.5"/>
<text text-anchor="middle" x="255.5" y="-45.5" font-family="Helvetica,sans-Serif" font-size="10.00" fill="#000000">atmos_physics2</text>
</a>
</g>
</g>
<!-- Node2&#45;&gt;Node3 -->
<g id="edge2" class="edge">
<title>Node2&#45;&gt;Node3</title>
<path fill="none" stroke="#191970" d="M182.2248,-48C190.4962,-48 199.1894,-48 207.582,-48"/>
<polygon fill="#191970" stroke="#191970" points="182.0275,-44.5001 172.0275,-48 182.0275,-51.5001 182.0275,-44.5001"/>
</g>
<!-- Node4 -->
<g id="node4" class="node">
<title>Node4</title>
<g id="a_node4"><a xlink:href="atm__step_8f90.xhtml#ac0ee2467a1a9959b7065fdb8fd27bce4" target="_top" xlink:title="Perform a 1&#45;timestep integration of the Atmosphere Model. ">
<polygon fill="#ffffff" stroke="#000000" points="348,-76.5 348,-95.5 410,-95.5 410,-76.5 348,-76.5"/>
<text text-anchor="middle" x="379" y="-83.5" font-family="Helvetica,sans-Serif" font-size="10.00" fill="#000000">atm_step</text>
</a>
</g>
</g>
<!-- Node3&#45;&gt;Node4 -->
<g id="edge3" class="edge">
<title>Node3&#45;&gt;Node4</title>
<path fill="none" stroke="#191970" d="M296.2397,-60.5353C313.0405,-65.7048 332.197,-71.5991 347.8457,-76.4141"/>
<polygon fill="#191970" stroke="#191970" points="297.2514,-57.1847 286.6643,-57.589 295.1927,-63.8752 297.2514,-57.1847"/>
</g>
<!-- Node8 -->
<g id="node8" class="node">
<title>Node8</title>
<g id="a_node8"><a xlink:href="atm__step__4_a_8f90.xhtml#a2319aa4963e90c64cd78bdcd5f481095" target="_top" xlink:title="Perform a 1&#45;timestep integration of the Atmosphere Model. ">
<polygon fill="#ffffff" stroke="#000000" points="339,-38.5 339,-57.5 419,-57.5 419,-38.5 339,-38.5"/>
<text text-anchor="middle" x="379" y="-45.5" font-family="Helvetica,sans-Serif" font-size="10.00" fill="#000000">atm_step_4a</text>
</a>
</g>
</g>
<!-- Node3&#45;&gt;Node8 -->
<g id="edge7" class="edge">
<title>Node3&#45;&gt;Node8</title>
<path fill="none" stroke="#191970" d="M313.3434,-48C322.0185,-48 330.7967,-48 338.9897,-48"/>
<polygon fill="#191970" stroke="#191970" points="313.2484,-44.5001 303.2483,-48 313.2483,-51.5001 313.2484,-44.5001"/>
</g>
<!-- Node10 -->
<g id="node10" class="node">
<title>Node10</title>
<g id="a_node10"><a xlink:href="scm__main_8f90.xhtml#a2c730136605550612e094ce51d33a2a5" target="_top" xlink:title="*********************************COPYRIGHT********************************* ">
<polygon fill="#ffffff" stroke="#000000" points="345.5,-.5 345.5,-19.5 412.5,-19.5 412.5,-.5 345.5,-.5"/>
<text text-anchor="middle" x="379" y="-7.5" font-family="Helvetica,sans-Serif" font-size="10.00" fill="#000000">scm_main</text>
</a>
</g>
</g>
<!-- Node3&#45;&gt;Node10 -->
<g id="edge10" class="edge">
<title>Node3&#45;&gt;Node10</title>
<path fill="none" stroke="#191970" d="M296.2397,-35.4647C313.0405,-30.2952 332.197,-24.4009 347.8457,-19.5859"/>
<polygon fill="#191970" stroke="#191970" points="295.1927,-32.1248 286.6643,-38.411 297.2514,-38.8153 295.1927,-32.1248"/>
</g>
<!-- Node5 -->
<g id="node5" class="node">
<title>Node5</title>
<g id="a_node5"><a xlink:href="u__model_8f90.xhtml#ada0cd2ce4699433bf0f9adbd882c8eec" target="_top" xlink:title="Subroutine: U_MODEL &#45;!&gt; ">
<polygon fill="#ffffff" stroke="#000000" points="463.5,-76.5 463.5,-95.5 522.5,-95.5 522.5,-76.5 463.5,-76.5"/>
<text text-anchor="middle" x="493" y="-83.5" font-family="Helvetica,sans-Serif" font-size="10.00" fill="#000000">u_model</text>
</a>
</g>
</g>
<!-- Node4&#45;&gt;Node5 -->
<g id="edge4" class="edge">
<title>Node4&#45;&gt;Node5</title>
<path fill="none" stroke="#191970" d="M420.2532,-86C434.5539,-86 450.2895,-86 463.4568,-86"/>
<polygon fill="#191970" stroke="#191970" points="420.151,-82.5001 410.151,-86 420.151,-89.5001 420.151,-82.5001"/>
</g>
<!-- Node6 -->
<g id="node6" class="node">
<title>Node6</title>
<g id="a_node6"><a xlink:href="um__shell_8f90.xhtml#a8c9bd25362824a5c301376ecb5ed5c27" target="_top" xlink:title="Subroutine: UM_SHELL !&gt; ">
<polygon fill="#ffffff" stroke="#000000" points="567,-57.5 567,-76.5 628,-76.5 628,-57.5 567,-57.5"/>
<text text-anchor="middle" x="597.5" y="-64.5" font-family="Helvetica,sans-Serif" font-size="10.00" fill="#000000">um_shell</text>
</a>
</g>
</g>
<!-- Node5&#45;&gt;Node6 -->
<g id="edge5" class="edge">
<title>Node5&#45;&gt;Node6</title>
<path fill="none" stroke="#191970" d="M532.701,-78.7816C543.951,-76.7362 556.0261,-74.5407 566.6677,-72.6059"/>
<polygon fill="#191970" stroke="#191970" points="531.8786,-75.3737 522.666,-80.6062 533.1308,-82.2608 531.8786,-75.3737"/>
</g>
<!-- Node7 -->
<g id="node7" class="node">
<title>Node7</title>
<g id="a_node7"><a xlink:href="um__main_8f90.xhtml#a8f2d13215621443a5313261c282f098b" target="_top" xlink:title="Code Owner: See Unified Model Code Owner&#39;s HTML page. ">
<polygon fill="#ffffff" stroke="#000000" points="664,-57.5 664,-76.5 726,-76.5 726,-57.5 664,-57.5"/>
<text text-anchor="middle" x="695" y="-64.5" font-family="Helvetica,sans-Serif" font-size="10.00" fill="#000000">um_main</text>
</a>
</g>
</g>
<!-- Node6&#45;&gt;Node7 -->
<g id="edge6" class="edge">
<title>Node6&#45;&gt;Node7</title>
<path fill="none" stroke="#191970" d="M638.2756,-67C646.8294,-67 655.72,-67 663.8551,-67"/>
<polygon fill="#191970" stroke="#191970" points="638.0821,-63.5001 628.0821,-67 638.0821,-70.5001 638.0821,-63.5001"/>
</g>
<!-- Node9 -->
<g id="node9" class="node">
<title>Node9</title>
<g id="a_node9"><a xlink:href="u__model__4_a_8f90.xhtml#afa05064dab5eba198b461d0928767c7e" target="_top" xlink:title="LL Subroutine: U_MODEL_4A (ENDGAME VERSION) !&gt;LL. ">
<polygon fill="#ffffff" stroke="#000000" points="455,-38.5 455,-57.5 531,-57.5 531,-38.5 455,-38.5"/>
<text text-anchor="middle" x="493" y="-45.5" font-family="Helvetica,sans-Serif" font-size="10.00" fill="#000000">u_model_4a</text>
</a>
</g>
</g>
<!-- Node8&#45;&gt;Node9 -->
<g id="edge8" class="edge">
<title>Node8&#45;&gt;Node9</title>
<path fill="none" stroke="#191970" d="M429.3998,-48C437.891,-48 446.5803,-48 454.7002,-48"/>
<polygon fill="#191970" stroke="#191970" points="429.1922,-44.5001 419.1921,-48 429.1921,-51.5001 429.1922,-44.5001"/>
</g>
<!-- Node9&#45;&gt;Node6 -->
<g id="edge9" class="edge">
<title>Node9&#45;&gt;Node6</title>
<path fill="none" stroke="#191970" d="M540.8728,-56.7041C549.7087,-58.3107 558.7128,-59.9478 566.8647,-61.43"/>
<polygon fill="#191970" stroke="#191970" points="541.4873,-53.2586 531.0225,-54.9132 540.2351,-60.1457 541.4873,-53.2586"/>
</g>
<!-- Node11 -->
<g id="node11" class="node">
<title>Node11</title>
<g id="a_node11"><a xlink:href="scm__shell_8f90.xhtml#ab15255829ee7b5be626b1c0861b40c8d" target="_top" xlink:title="scm_shell is the main calling program for the Single Column Model. ">
<polygon fill="#ffffff" stroke="#000000" points="460.5,-.5 460.5,-19.5 525.5,-19.5 525.5,-.5 460.5,-.5"/>
<text text-anchor="middle" x="493" y="-7.5" font-family="Helvetica,sans-Serif" font-size="10.00" fill="#000000">scm_shell</text>
</a>
</g>
</g>
<!-- Node10&#45;&gt;Node11 -->
<g id="edge11" class="edge">
<title>Node10&#45;&gt;Node11</title>
<path fill="none" stroke="#191970" d="M422.8248,-10C435.3307,-10 448.7319,-10 460.4371,-10"/>
<polygon fill="#191970" stroke="#191970" points="422.5872,-6.5001 412.5872,-10 422.5871,-13.5001 422.5872,-6.5001"/>
</g>
</g>
</svg>
