<?xml version="1.0" encoding="UTF-8" standalone="no"?>
<!DOCTYPE svg PUBLIC "-//W3C//DTD SVG 1.1//EN"
 "http://www.w3.org/Graphics/SVG/1.1/DTD/svg11.dtd">
<!-- Generated by graphviz version 2.40.1 (20161225.0304)
 -->
<!-- Title: extra_variable_grid Pages: 1 -->
<svg width="1033pt" height="334pt"
 viewBox="0.00 0.00 1033.00 333.70" xmlns="http://www.w3.org/2000/svg" xmlns:xlink="http://www.w3.org/1999/xlink">
<g id="graph0" class="graph" transform="scale(1 1) rotate(0) translate(4 329.7037)">
<title>extra_variable_grid</title>
<polygon fill="#ffffff" stroke="transparent" points="-4,4 -4,-329.7037 1029,-329.7037 1029,4 -4,4"/>
<!-- Node3 -->
<g id="node1" class="node">
<title>Node3</title>
<polygon fill="#bfbfbf" stroke="#000000" points="0,-234.6061 0,-253.6061 111,-253.6061 111,-234.6061 0,-234.6061"/>
<text text-anchor="middle" x="55.5" y="-241.6061" font-family="Helvetica,sans-Serif" font-size="10.00" fill="#000000">extra_variable_grid</text>
</g>
<!-- Node4 -->
<g id="node2" class="node">
<title>Node4</title>
<g id="a_node2"><a xlink:href="pp__file_8f90.xhtml#a16dcddb977828f88bb3f21e8bc1b8c30" target="_top" xlink:title="SUBROUTINE PP_FILE &#45;!&gt; ">
<polygon fill="#ffffff" stroke="#000000" points="147,-234.6061 147,-253.6061 196,-253.6061 196,-234.6061 147,-234.6061"/>
<text text-anchor="middle" x="171.5" y="-241.6061" font-family="Helvetica,sans-Serif" font-size="10.00" fill="#000000">pp_file</text>
</a>
</g>
</g>
<!-- Node3&#45;&gt;Node4 -->
<g id="edge1" class="edge">
<title>Node3&#45;&gt;Node4</title>
<path fill="none" stroke="#191970" d="M121.4096,-244.1061C130.4657,-244.1061 139.2598,-244.1061 146.8861,-244.1061"/>
<polygon fill="#191970" stroke="#191970" points="121.1217,-240.6062 111.1217,-244.1061 121.1217,-247.6062 121.1217,-240.6062"/>
</g>
<!-- Node5 -->
<g id="node3" class="node">
<title>Node5</title>
<g id="a_node3"><a xlink:href="meandiag_8f90.xhtml#a72a0b96fb4670010dc65680c7e8ac636" target="_top" xlink:title="LL Routine: MEANDIAG !&gt;LL. ">
<polygon fill="#ffffff" stroke="#000000" points="553.5,-291.6061 553.5,-310.6061 618.5,-310.6061 618.5,-291.6061 553.5,-291.6061"/>
<text text-anchor="middle" x="586" y="-298.6061" font-family="Helvetica,sans-Serif" font-size="10.00" fill="#000000">meandiag</text>
</a>
</g>
</g>
<!-- Node4&#45;&gt;Node5 -->
<g id="edge2" class="edge">
<title>Node4&#45;&gt;Node5</title>
<path fill="none" stroke="#191970" d="M201.5781,-257.7644C244.066,-276.2338 324.5703,-308.2289 397,-320.1061 446.5603,-328.2332 460.1541,-326.2425 510,-320.1061 525.1185,-318.245 541.5551,-314.3756 555.2628,-310.6115"/>
<polygon fill="#191970" stroke="#191970" points="202.9259,-254.5337 192.3631,-253.7105 200.1071,-260.941 202.9259,-254.5337"/>
</g>
<!-- Node11 -->
<g id="node9" class="node">
<title>Node11</title>
<g id="a_node9"><a xlink:href="stwork_8f90.xhtml#a60176015435dd67d80b42122c78e024e" target="_top" xlink:title="Subroutine STWORK !&gt; ">
<polygon fill="#ffffff" stroke="#000000" points="232,-215.6061 232,-234.6061 282,-234.6061 282,-215.6061 232,-215.6061"/>
<text text-anchor="middle" x="257" y="-222.6061" font-family="Helvetica,sans-Serif" font-size="10.00" fill="#000000">stwork</text>
</a>
</g>
</g>
<!-- Node4&#45;&gt;Node11 -->
<g id="edge9" class="edge">
<title>Node4&#45;&gt;Node11</title>
<path fill="none" stroke="#191970" d="M206.0218,-236.4346C214.618,-234.5244 223.6754,-232.5116 231.7321,-230.7212"/>
<polygon fill="#191970" stroke="#191970" points="205.2327,-233.0245 196.2301,-238.6106 206.7513,-239.8578 205.2327,-233.0245"/>
</g>
<!-- Node6 -->
<g id="node4" class="node">
<title>Node6</title>
<g id="a_node4"><a xlink:href="meanctl_8f90.xhtml#a5bbbf6327297fa87e7a0d9b511eb2b00" target="_top" xlink:title="Subroutine: MEANCTL&#45;!&gt; ">
<polygon fill="#ffffff" stroke="#000000" points="662,-196.6061 662,-215.6061 718,-215.6061 718,-196.6061 662,-196.6061"/>
<text text-anchor="middle" x="690" y="-203.6061" font-family="Helvetica,sans-Serif" font-size="10.00" fill="#000000">meanctl</text>
</a>
</g>
</g>
<!-- Node5&#45;&gt;Node6 -->
<g id="edge3" class="edge">
<title>Node5&#45;&gt;Node6</title>
<path fill="none" stroke="#191970" d="M604.3574,-284.3374C626.1808,-264.4025 661.8565,-231.8142 679.4752,-215.7201"/>
<polygon fill="#191970" stroke="#191970" points="601.7609,-281.9687 596.7381,-291.2973 606.482,-287.137 601.7609,-281.9687"/>
</g>
<!-- Node7 -->
<g id="node5" class="node">
<title>Node7</title>
<g id="a_node5"><a xlink:href="u__model_8f90.xhtml#ada0cd2ce4699433bf0f9adbd882c8eec" target="_top" xlink:title="Subroutine: U_MODEL &#45;!&gt; ">
<polygon fill="#ffffff" stroke="#000000" points="762.5,-177.6061 762.5,-196.6061 821.5,-196.6061 821.5,-177.6061 762.5,-177.6061"/>
<text text-anchor="middle" x="792" y="-184.6061" font-family="Helvetica,sans-Serif" font-size="10.00" fill="#000000">u_model</text>
</a>
</g>
</g>
<!-- Node6&#45;&gt;Node7 -->
<g id="edge4" class="edge">
<title>Node6&#45;&gt;Node7</title>
<path fill="none" stroke="#191970" d="M728.1485,-199C739.392,-196.9057 751.527,-194.6452 762.1674,-192.6632"/>
<polygon fill="#191970" stroke="#191970" points="727.3319,-195.5919 718.142,-200.864 728.6138,-202.4735 727.3319,-195.5919"/>
</g>
<!-- Node10 -->
<g id="node8" class="node">
<title>Node10</title>
<g id="a_node8"><a xlink:href="u__model__4_a_8f90.xhtml#afa05064dab5eba198b461d0928767c7e" target="_top" xlink:title="LL Subroutine: U_MODEL_4A (ENDGAME VERSION) !&gt;LL. ">
<polygon fill="#ffffff" stroke="#000000" points="754,-139.6061 754,-158.6061 830,-158.6061 830,-139.6061 754,-139.6061"/>
<text text-anchor="middle" x="792" y="-146.6061" font-family="Helvetica,sans-Serif" font-size="10.00" fill="#000000">u_model_4a</text>
</a>
</g>
</g>
<!-- Node6&#45;&gt;Node10 -->
<g id="edge7" class="edge">
<title>Node6&#45;&gt;Node10</title>
<path fill="none" stroke="#191970" d="M714.2053,-191.1751C726.08,-183.9943 740.6653,-175.3862 754,-168.1061 759.8265,-164.9251 766.253,-161.6324 772.1373,-158.6998"/>
<polygon fill="#191970" stroke="#191970" points="712.0588,-188.3844 705.3388,-196.5754 715.7,-194.3628 712.0588,-188.3844"/>
</g>
<!-- Node8 -->
<g id="node6" class="node">
<title>Node8</title>
<g id="a_node6"><a xlink:href="um__shell_8f90.xhtml#a8c9bd25362824a5c301376ecb5ed5c27" target="_top" xlink:title="Subroutine: UM_SHELL !&gt; ">
<polygon fill="#ffffff" stroke="#000000" points="866,-158.6061 866,-177.6061 927,-177.6061 927,-158.6061 866,-158.6061"/>
<text text-anchor="middle" x="896.5" y="-165.6061" font-family="Helvetica,sans-Serif" font-size="10.00" fill="#000000">um_shell</text>
</a>
</g>
</g>
<!-- Node7&#45;&gt;Node8 -->
<g id="edge5" class="edge">
<title>Node7&#45;&gt;Node8</title>
<path fill="none" stroke="#191970" d="M831.701,-179.8878C842.951,-177.8423 855.0261,-175.6469 865.6677,-173.712"/>
<polygon fill="#191970" stroke="#191970" points="830.8786,-176.4798 821.666,-181.7123 832.1308,-183.3669 830.8786,-176.4798"/>
</g>
<!-- Node9 -->
<g id="node7" class="node">
<title>Node9</title>
<g id="a_node7"><a xlink:href="um__main_8f90.xhtml#a8f2d13215621443a5313261c282f098b" target="_top" xlink:title="Code Owner: See Unified Model Code Owner&#39;s HTML page. ">
<polygon fill="#ffffff" stroke="#000000" points="963,-158.6061 963,-177.6061 1025,-177.6061 1025,-158.6061 963,-158.6061"/>
<text text-anchor="middle" x="994" y="-165.6061" font-family="Helvetica,sans-Serif" font-size="10.00" fill="#000000">um_main</text>
</a>
</g>
</g>
<!-- Node8&#45;&gt;Node9 -->
<g id="edge6" class="edge">
<title>Node8&#45;&gt;Node9</title>
<path fill="none" stroke="#191970" d="M937.2756,-168.1061C945.8294,-168.1061 954.72,-168.1061 962.8551,-168.1061"/>
<polygon fill="#191970" stroke="#191970" points="937.0821,-164.6062 927.0821,-168.1061 937.0821,-171.6062 937.0821,-164.6062"/>
</g>
<!-- Node10&#45;&gt;Node8 -->
<g id="edge8" class="edge">
<title>Node10&#45;&gt;Node8</title>
<path fill="none" stroke="#191970" d="M839.8728,-157.8103C848.7087,-159.4168 857.7128,-161.0539 865.8647,-162.5361"/>
<polygon fill="#191970" stroke="#191970" points="840.4873,-154.3647 830.0225,-156.0193 839.2351,-161.2518 840.4873,-154.3647"/>
</g>
<!-- Node12 -->
<g id="node10" class="node">
<title>Node12</title>
<g id="a_node10"><a xlink:href="stash_8f90.xhtml#aeb6381a2ce8a30249b8dbaff0df2ebb5" target="_top" xlink:title="Subroutine STASH &#45;!&gt; ">
<polygon fill="#ffffff" stroke="#000000" points="318,-158.6061 318,-177.6061 361,-177.6061 361,-158.6061 318,-158.6061"/>
<text text-anchor="middle" x="339.5" y="-165.6061" font-family="Helvetica,sans-Serif" font-size="10.00" fill="#000000">stash</text>
</a>
</g>
</g>
<!-- Node11&#45;&gt;Node12 -->
<g id="edge10" class="edge">
<title>Node11&#45;&gt;Node12</title>
<path fill="none" stroke="#191970" d="M279.5714,-209.5113C294.333,-199.3124 313.1401,-186.3184 325.7117,-177.6326"/>
<polygon fill="#191970" stroke="#191970" points="277.2328,-206.8729 270.995,-215.4369 281.2118,-212.6321 277.2328,-206.8729"/>
</g>
<!-- Node13 -->
<g id="node11" class="node">
<title>Node13</title>
<g id="a_node11"><a xlink:href="st__diag1_8f90.xhtml#a448077cde050b9a7c4cad654935688ac" target="_top" xlink:title="LL Subroutine ST_DIAG1 !&gt;LL. ">
<polygon fill="#ffffff" stroke="#000000" points="424.5,-139.6061 424.5,-158.6061 482.5,-158.6061 482.5,-139.6061 424.5,-139.6061"/>
<text text-anchor="middle" x="453.5" y="-146.6061" font-family="Helvetica,sans-Serif" font-size="10.00" fill="#000000">st_diag1</text>
</a>
</g>
</g>
<!-- Node12&#45;&gt;Node13 -->
<g id="edge11" class="edge">
<title>Node12&#45;&gt;Node13</title>
<path fill="none" stroke="#191970" d="M371.4805,-162.7761C387.9916,-160.0242 407.9971,-156.69 424.1167,-154.0034"/>
<polygon fill="#191970" stroke="#191970" points="370.4994,-159.3912 361.2109,-164.4877 371.6502,-166.296 370.4994,-159.3912"/>
</g>
<!-- Node14 -->
<g id="node12" class="node">
<title>Node14</title>
<g id="a_node12"><a xlink:href="atm__step_8f90.xhtml#ac0ee2467a1a9959b7065fdb8fd27bce4" target="_top" xlink:title="Perform a 1&#45;timestep integration of the Atmosphere Model. ">
<polygon fill="#ffffff" stroke="#000000" points="555,-158.6061 555,-177.6061 617,-177.6061 617,-158.6061 555,-158.6061"/>
<text text-anchor="middle" x="586" y="-165.6061" font-family="Helvetica,sans-Serif" font-size="10.00" fill="#000000">atm_step</text>
</a>
</g>
</g>
<!-- Node12&#45;&gt;Node14 -->
<g id="edge27" class="edge">
<title>Node12&#45;&gt;Node14</title>
<path fill="none" stroke="#191970" d="M347.6408,-187.0718C356.6976,-205.4723 373.2512,-232.294 397,-244.1061 441.9672,-266.4719 463.6007,-263.3254 510,-244.1061 542.9272,-230.4672 569.0267,-194.8743 580.1576,-177.679"/>
<polygon fill="#191970" stroke="#191970" points="350.757,-185.4715 343.3825,-177.8645 344.4036,-188.41 350.757,-185.4715"/>
</g>
<!-- Node15 -->
<g id="node13" class="node">
<title>Node15</title>
<g id="a_node13"><a xlink:href="atm__step__4_a_8f90.xhtml#a2319aa4963e90c64cd78bdcd5f481095" target="_top" xlink:title="Perform a 1&#45;timestep integration of the Atmosphere Model. ">
<polygon fill="#ffffff" stroke="#000000" points="546,-111.6061 546,-130.6061 626,-130.6061 626,-111.6061 546,-111.6061"/>
<text text-anchor="middle" x="586" y="-118.6061" font-family="Helvetica,sans-Serif" font-size="10.00" fill="#000000">atm_step_4a</text>
</a>
</g>
</g>
<!-- Node12&#45;&gt;Node15 -->
<g id="edge28" class="edge">
<title>Node12&#45;&gt;Node15</title>
<path fill="none" stroke="#191970" d="M347.6408,-149.1405C356.6976,-130.74 373.2512,-103.9183 397,-92.1061 454.3653,-63.5738 532.6573,-94.5458 567.7175,-111.5177"/>
<polygon fill="#191970" stroke="#191970" points="344.4036,-147.8023 343.3825,-158.3478 350.757,-150.7408 344.4036,-147.8023"/>
</g>
<!-- Node16 -->
<g id="node14" class="node">
<title>Node16</title>
<g id="a_node14"><a xlink:href="initdiag_8f90.xhtml#a95a853661b4e10339418e4a8c29b8c9c" target="_top" xlink:title="Calculate diagnostic quantities from the initial atmosphere dump Calculate diagnostic quantities from...">
<polygon fill="#ffffff" stroke="#000000" points="559.5,-35.6061 559.5,-54.6061 612.5,-54.6061 612.5,-35.6061 559.5,-35.6061"/>
<text text-anchor="middle" x="586" y="-42.6061" font-family="Helvetica,sans-Serif" font-size="10.00" fill="#000000">initdiag</text>
</a>
</g>
</g>
<!-- Node12&#45;&gt;Node16 -->
<g id="edge34" class="edge">
<title>Node12&#45;&gt;Node16</title>
<path fill="none" stroke="#191970" d="M344.031,-148.3791C353.0863,-110.8805 374.4908,-31.6571 397,-16.1061 451.0783,21.255 534.5651,-16.5249 569.6192,-35.5616"/>
<polygon fill="#191970" stroke="#191970" points="340.5188,-148.0239 341.6296,-158.5603 347.3318,-149.6309 340.5188,-148.0239"/>
</g>
<!-- Node17 -->
<g id="node15" class="node">
<title>Node17</title>
<g id="a_node15"><a xlink:href="st__diag2_8f90.xhtml#ad3935d3ef8da955602b10c37af06aa57" target="_top" xlink:title="LL. ">
<polygon fill="#ffffff" stroke="#000000" points="424.5,-101.6061 424.5,-120.6061 482.5,-120.6061 482.5,-101.6061 424.5,-101.6061"/>
<text text-anchor="middle" x="453.5" y="-108.6061" font-family="Helvetica,sans-Serif" font-size="10.00" fill="#000000">st_diag2</text>
</a>
</g>
</g>
<!-- Node12&#45;&gt;Node17 -->
<g id="edge17" class="edge">
<title>Node12&#45;&gt;Node17</title>
<path fill="none" stroke="#191970" d="M360.3505,-152.4259C370.9362,-144.9673 384.2314,-136.3402 397,-130.1061 405.6486,-125.8836 415.47,-122.2215 424.4706,-119.2699"/>
<polygon fill="#191970" stroke="#191970" points="358.2231,-149.6449 352.1667,-158.3381 362.3223,-155.3191 358.2231,-149.6449"/>
</g>
<!-- Node18 -->
<g id="node16" class="node">
<title>Node18</title>
<g id="a_node16"><a xlink:href="st__diag3_8f90.xhtml#a00e9b3afaa3d890cca6a5f8421814074" target="_top" xlink:title="End of Timestep climate diagnostics control routine End of Timestep climate diagnostics control routi...">
<polygon fill="#ffffff" stroke="#000000" points="424.5,-25.6061 424.5,-44.6061 482.5,-44.6061 482.5,-25.6061 424.5,-25.6061"/>
<text text-anchor="middle" x="453.5" y="-32.6061" font-family="Helvetica,sans-Serif" font-size="10.00" fill="#000000">st_diag3</text>
</a>
</g>
</g>
<!-- Node12&#45;&gt;Node18 -->
<g id="edge21" class="edge">
<title>Node12&#45;&gt;Node18</title>
<path fill="none" stroke="#191970" d="M345.181,-148.8846C353.157,-124.927 369.8224,-84.0981 397,-59.1061 404.6878,-52.0366 414.7694,-46.8626 424.2855,-43.1688"/>
<polygon fill="#191970" stroke="#191970" points="341.7908,-147.9978 342.1213,-158.5875 348.4668,-150.103 341.7908,-147.9978"/>
</g>
<!-- Node19 -->
<g id="node17" class="node">
<title>Node19</title>
<g id="a_node17"><a xlink:href="st__mean_8f90.xhtml#a56c57d59e0430c6d123a6e4a366df8e6" target="_top" xlink:title="LL Routine: ST_MEAN &#45;!&gt;LL. ">
<polygon fill="#ffffff" stroke="#000000" points="424,-291.6061 424,-310.6061 483,-310.6061 483,-291.6061 424,-291.6061"/>
<text text-anchor="middle" x="453.5" y="-298.6061" font-family="Helvetica,sans-Serif" font-size="10.00" fill="#000000">st_mean</text>
</a>
</g>
</g>
<!-- Node12&#45;&gt;Node19 -->
<g id="edge25" class="edge">
<title>Node12&#45;&gt;Node19</title>
<path fill="none" stroke="#191970" d="M345.181,-187.3277C353.157,-211.2853 369.8224,-252.1141 397,-277.1061 404.6093,-284.1035 414.5639,-289.2439 423.994,-292.9299"/>
<polygon fill="#191970" stroke="#191970" points="348.4668,-186.1092 342.1213,-177.6248 341.7908,-188.2145 348.4668,-186.1092"/>
</g>
<!-- Node20 -->
<g id="node18" class="node">
<title>Node20</title>
<g id="a_node18"><a xlink:href="atm__step__ac__assim_8f90.xhtml#a1a53479d77027fb4fee329c374bc6062" target="_top" xlink:title="Contains atm_step code for AC assimilation. ">
<polygon fill="#ffffff" stroke="#000000" points="397,-215.6061 397,-234.6061 510,-234.6061 510,-215.6061 397,-215.6061"/>
<text text-anchor="middle" x="453.5" y="-222.6061" font-family="Helvetica,sans-Serif" font-size="10.00" fill="#000000">atm_step_ac_assim</text>
</a>
</g>
</g>
<!-- Node12&#45;&gt;Node20 -->
<g id="edge29" class="edge">
<title>Node12&#45;&gt;Node20</title>
<path fill="none" stroke="#191970" d="M360.3505,-183.7864C370.9362,-191.245 384.2314,-199.8721 397,-206.1061 404.3467,-209.693 412.5396,-212.8755 420.3568,-215.5616"/>
<polygon fill="#191970" stroke="#191970" points="362.3223,-180.8931 352.1667,-177.8742 358.2231,-186.5673 362.3223,-180.8931"/>
</g>
<!-- Node21 -->
<g id="node19" class="node">
<title>Node21</title>
<g id="a_node19"><a xlink:href="atm__step__stash_8f90.xhtml#a8e27538bbd9060910e7d0ddcf329f7e0" target="_top" xlink:title="Contains various chunks of code from atm_step &#45; the purpose of each. ">
<polygon fill="#ffffff" stroke="#000000" points="406.5,-177.6061 406.5,-196.6061 500.5,-196.6061 500.5,-177.6061 406.5,-177.6061"/>
<text text-anchor="middle" x="453.5" y="-184.6061" font-family="Helvetica,sans-Serif" font-size="10.00" fill="#000000">atm_step_stash</text>
</a>
</g>
</g>
<!-- Node12&#45;&gt;Node21 -->
<g id="edge31" class="edge">
<title>Node12&#45;&gt;Node21</title>
<path fill="none" stroke="#191970" d="M371.1221,-173.3765C382.0308,-175.1946 394.4977,-177.2724 406.3746,-179.2519"/>
<polygon fill="#191970" stroke="#191970" points="371.6502,-169.9163 361.2109,-171.7246 370.4994,-176.8211 371.6502,-169.9163"/>
</g>
<!-- Node13&#45;&gt;Node14 -->
<g id="edge12" class="edge">
<title>Node13&#45;&gt;Node14</title>
<path fill="none" stroke="#191970" d="M492.5306,-154.703C512.3404,-157.5436 536.0806,-160.9479 554.678,-163.6147"/>
<polygon fill="#191970" stroke="#191970" points="492.9733,-151.2307 482.5777,-153.2758 491.9796,-158.1599 492.9733,-151.2307"/>
</g>
<!-- Node13&#45;&gt;Node15 -->
<g id="edge14" class="edge">
<title>Node13&#45;&gt;Node15</title>
<path fill="none" stroke="#191970" d="M492.6241,-140.8384C509.4223,-137.2886 529.0328,-133.1445 545.9339,-129.5729"/>
<polygon fill="#191970" stroke="#191970" points="491.6379,-137.4694 482.5777,-142.9614 493.0853,-144.3182 491.6379,-137.4694"/>
</g>
<!-- Node13&#45;&gt;Node16 -->
<g id="edge16" class="edge">
<title>Node13&#45;&gt;Node16</title>
<path fill="none" stroke="#191970" d="M492.3319,-139.0339C498.4994,-136.6054 504.6133,-133.6571 510,-130.1061 541.5675,-109.2965 568.3362,-72.223 579.8946,-54.7382"/>
<polygon fill="#191970" stroke="#191970" points="490.959,-135.8068 482.693,-142.4342 493.2878,-142.408 490.959,-135.8068"/>
</g>
<!-- Node14&#45;&gt;Node7 -->
<g id="edge13" class="edge">
<title>Node14&#45;&gt;Node7</title>
<path fill="none" stroke="#191970" d="M627.2563,-171.9113C667.2566,-175.6007 726.9479,-181.1062 762.427,-184.3785"/>
<polygon fill="#191970" stroke="#191970" points="627.5662,-168.4251 617.287,-170.9918 626.9232,-175.3956 627.5662,-168.4251"/>
</g>
<!-- Node15&#45;&gt;Node10 -->
<g id="edge15" class="edge">
<title>Node15&#45;&gt;Node10</title>
<path fill="none" stroke="#191970" d="M636.5781,-127.9808C672.851,-132.9111 720.9503,-139.4489 753.9801,-143.9384"/>
<polygon fill="#191970" stroke="#191970" points="636.5882,-124.4501 626.2079,-126.5713 635.6454,-131.3863 636.5882,-124.4501"/>
</g>
<!-- Node17&#45;&gt;Node14 -->
<g id="edge18" class="edge">
<title>Node17&#45;&gt;Node14</title>
<path fill="none" stroke="#191970" d="M492.3831,-123.3861C498.3346,-125.4941 504.3681,-127.7646 510,-130.1061 530.5683,-138.6578 553.3141,-150.342 568.5125,-158.488"/>
<polygon fill="#191970" stroke="#191970" points="493.1245,-119.9403 482.5298,-120.008 490.8543,-126.562 493.1245,-119.9403"/>
</g>
<!-- Node17&#45;&gt;Node15 -->
<g id="edge19" class="edge">
<title>Node17&#45;&gt;Node15</title>
<path fill="none" stroke="#191970" d="M492.6241,-114.0589C509.4223,-115.3267 529.0328,-116.8067 545.9339,-118.0823"/>
<polygon fill="#191970" stroke="#191970" points="492.8128,-110.5633 482.5777,-113.3007 492.2859,-117.5434 492.8128,-110.5633"/>
</g>
<!-- Node17&#45;&gt;Node16 -->
<g id="edge20" class="edge">
<title>Node17&#45;&gt;Node16</title>
<path fill="none" stroke="#191970" d="M481.9648,-96.9275C507.5481,-84.1841 544.4246,-65.8154 566.7101,-54.7147"/>
<polygon fill="#191970" stroke="#191970" points="480.1571,-93.9176 472.7666,-101.5092 483.2782,-100.1834 480.1571,-93.9176"/>
</g>
<!-- Node18&#45;&gt;Node14 -->
<g id="edge22" class="edge">
<title>Node18&#45;&gt;Node14</title>
<path fill="none" stroke="#191970" d="M471.2277,-51.7592C482.6947,-62.824 497.7182,-77.8819 510,-92.1061 527.4276,-112.29 526.8374,-121.5615 546,-140.1061 553.1879,-147.0622 562.2479,-153.5546 569.9271,-158.5329"/>
<polygon fill="#191970" stroke="#191970" points="473.5845,-49.1702 463.9346,-44.7963 468.7506,-54.2333 473.5845,-49.1702"/>
</g>
<!-- Node18&#45;&gt;Node15 -->
<g id="edge23" class="edge">
<title>Node18&#45;&gt;Node15</title>
<path fill="none" stroke="#191970" d="M489.4845,-48.583C496.4689,-51.6978 503.6015,-55.2446 510,-59.1061 535.6588,-74.5912 561.9586,-98.089 575.8903,-111.2629"/>
<polygon fill="#191970" stroke="#191970" points="490.7078,-45.3 480.1351,-44.6144 487.9726,-51.7436 490.7078,-45.3"/>
</g>
<!-- Node18&#45;&gt;Node16 -->
<g id="edge24" class="edge">
<title>Node18&#45;&gt;Node16</title>
<path fill="none" stroke="#191970" d="M492.6865,-38.0636C514.1282,-39.6819 540.1372,-41.6448 559.244,-43.0868"/>
<polygon fill="#191970" stroke="#191970" points="492.8128,-34.5633 482.5777,-37.3007 492.2859,-41.5434 492.8128,-34.5633"/>
</g>
<!-- Node19&#45;&gt;Node5 -->
<g id="edge26" class="edge">
<title>Node19&#45;&gt;Node5</title>
<path fill="none" stroke="#191970" d="M493.4225,-301.1061C512.4935,-301.1061 535.0408,-301.1061 553.1089,-301.1061"/>
<polygon fill="#191970" stroke="#191970" points="493.2356,-297.6062 483.2356,-301.1061 493.2356,-304.6062 493.2356,-297.6062"/>
</g>
<!-- Node20&#45;&gt;Node14 -->
<g id="edge30" class="edge">
<title>Node20&#45;&gt;Node14</title>
<path fill="none" stroke="#191970" d="M494.1459,-212.1978C499.5208,-210.2697 504.9235,-208.2168 510,-206.1061 530.5683,-197.5545 553.3141,-185.8703 568.5125,-177.7243"/>
<polygon fill="#191970" stroke="#191970" points="492.8767,-208.9335 484.5776,-215.5194 495.1724,-215.5463 492.8767,-208.9335"/>
</g>
<!-- Node21&#45;&gt;Node14 -->
<g id="edge32" class="edge">
<title>Node21&#45;&gt;Node14</title>
<path fill="none" stroke="#191970" d="M510.8915,-178.8764C525.9757,-176.7134 541.6838,-174.4609 554.8117,-172.5784"/>
<polygon fill="#191970" stroke="#191970" points="509.9895,-175.4699 500.5876,-180.354 510.9832,-182.399 509.9895,-175.4699"/>
</g>
<!-- Node21&#45;&gt;Node15 -->
<g id="edge33" class="edge">
<title>Node21&#45;&gt;Node15</title>
<path fill="none" stroke="#191970" d="M495.4714,-174.1978C500.4355,-172.3185 505.3765,-170.2779 510,-168.1061 533.0285,-157.2893 557.7422,-141.0427 572.531,-130.7625"/>
<polygon fill="#191970" stroke="#191970" points="494.2045,-170.9338 485.9738,-177.605 496.5683,-177.5226 494.2045,-170.9338"/>
</g>
</g>
</svg>
