<?xml version="1.0" encoding="UTF-8" standalone="no"?>
<!DOCTYPE svg PUBLIC "-//W3C//DTD SVG 1.1//EN"
 "http://www.w3.org/Graphics/SVG/1.1/DTD/svg11.dtd">
<!-- Generated by graphviz version 2.40.1 (20161225.0304)
 -->
<!-- Title: fastj_inphot Pages: 1 -->
<svg width="250pt" height="66pt"
 viewBox="0.00 0.00 250.00 66.00" xmlns="http://www.w3.org/2000/svg" xmlns:xlink="http://www.w3.org/1999/xlink">
<g id="graph0" class="graph" transform="scale(1 1) rotate(0) translate(4 62)">
<title>fastj_inphot</title>
<polygon fill="#ffffff" stroke="transparent" points="-4,4 -4,-62 246,-62 246,4 -4,4"/>
<!-- Node6 -->
<g id="node1" class="node">
<title>Node6</title>
<polygon fill="#bfbfbf" stroke="#000000" points="0,-19.5 0,-38.5 74,-38.5 74,-19.5 0,-19.5"/>
<text text-anchor="middle" x="37" y="-26.5" font-family="Helvetica,sans-Serif" font-size="10.00" fill="#000000">fastj_inphot</text>
</g>
<!-- Node7 -->
<g id="node2" class="node">
<title>Node7</title>
<g id="a_node2"><a xlink:href="ukca__fastj_8f90.xhtml#a16d653626c52a74f82ff74b073b7eb41" target="_top" xlink:title="(C) Crown copyright Met Office. All rights reserved.!&gt; For further details please refer to the file C...">
<polygon fill="#ffffff" stroke="#000000" points="142.5,-38.5 142.5,-57.5 209.5,-57.5 209.5,-38.5 142.5,-38.5"/>
<text text-anchor="middle" x="176" y="-45.5" font-family="Helvetica,sans-Serif" font-size="10.00" fill="#000000">ukca_fastj</text>
</a>
</g>
</g>
<!-- Node6&#45;&gt;Node7 -->
<g id="edge1" class="edge">
<title>Node6&#45;&gt;Node7</title>
<path fill="none" stroke="#191970" d="M84.2727,-35.4617C103.3851,-38.0742 125.0041,-41.0293 142.4517,-43.4143"/>
<polygon fill="#191970" stroke="#191970" points="84.6314,-31.9783 74.2494,-34.0917 83.6833,-38.9138 84.6314,-31.9783"/>
</g>
<!-- Node8 -->
<g id="node3" class="node">
<title>Node8</title>
<g id="a_node3"><a xlink:href="interfacesubroutine.xhtml#a876adb2b34cc3755b59c18b0b796dddc" target="_top" xlink:title="subroutine::fastj_photoj">
<polygon fill="#ffffff" stroke="#000000" points="110,-.5 110,-19.5 242,-19.5 242,-.5 110,-.5"/>
<text text-anchor="middle" x="176" y="-7.5" font-family="Helvetica,sans-Serif" font-size="10.00" fill="#000000">subroutine::fastj_photoj</text>
</a>
</g>
</g>
<!-- Node6&#45;&gt;Node8 -->
<g id="edge2" class="edge">
<title>Node6&#45;&gt;Node8</title>
<path fill="none" stroke="#191970" d="M84.3888,-22.5224C92.6203,-21.3972 101.3136,-20.2089 109.9363,-19.0303"/>
<polygon fill="#191970" stroke="#191970" points="83.6833,-19.0862 74.2494,-23.9083 84.6314,-26.0217 83.6833,-19.0862"/>
</g>
</g>
</svg>
