<?xml version="1.0" encoding="UTF-8" standalone="no"?>
<!DOCTYPE svg PUBLIC "-//W3C//DTD SVG 1.1//EN"
 "http://www.w3.org/Graphics/SVG/1.1/DTD/svg11.dtd">
<!-- Generated by graphviz version 2.40.1 (20161225.0304)
 -->
<!-- Title: fastj_jvalue Pages: 1 -->
<svg width="535pt" height="47pt"
 viewBox="0.00 0.00 535.00 47.00" xmlns="http://www.w3.org/2000/svg" xmlns:xlink="http://www.w3.org/1999/xlink">
<g id="graph0" class="graph" transform="scale(1 1) rotate(0) translate(4 43)">
<title>fastj_jvalue</title>
<polygon fill="#ffffff" stroke="transparent" points="-4,4 -4,-43 531,-43 531,4 -4,4"/>
<!-- Node15 -->
<g id="node1" class="node">
<title>Node15</title>
<polygon fill="#bfbfbf" stroke="#000000" points="0,-19.5 0,-38.5 74,-38.5 74,-19.5 0,-19.5"/>
<text text-anchor="middle" x="37" y="-26.5" font-family="Helvetica,sans-Serif" font-size="10.00" fill="#000000">fastj_jvalue</text>
</g>
<!-- Node16 -->
<g id="node2" class="node">
<title>Node16</title>
<g id="a_node2"><a xlink:href="fastj__photoj_8f90.xhtml#abddf8569dbe52aa8ce0e18e23bc81ca4" target="_top" xlink:title="Copyright (c) 2008, Regents of the University of California. ">
<polygon fill="#ffffff" stroke="#000000" points="110,-19.5 110,-38.5 184,-38.5 184,-19.5 110,-19.5"/>
<text text-anchor="middle" x="147" y="-26.5" font-family="Helvetica,sans-Serif" font-size="10.00" fill="#000000">fastj_photoj</text>
</a>
</g>
</g>
<!-- Node15&#45;&gt;Node16 -->
<g id="edge1" class="edge">
<title>Node15&#45;&gt;Node16</title>
<path fill="none" stroke="#191970" d="M84.4196,-29C92.9099,-29 101.6459,-29 109.7974,-29"/>
<polygon fill="#191970" stroke="#191970" points="84.241,-25.5001 74.241,-29 84.2409,-32.5001 84.241,-25.5001"/>
</g>
<!-- Node17 -->
<g id="node3" class="node">
<title>Node17</title>
<g id="a_node3"><a xlink:href="interfacesubroutine.xhtml#a876adb2b34cc3755b59c18b0b796dddc" target="_top" xlink:title="subroutine::fastj_photoj">
<polygon fill="#ffffff" stroke="#000000" points="395,-19.5 395,-38.5 527,-38.5 527,-19.5 395,-19.5"/>
<text text-anchor="middle" x="461" y="-26.5" font-family="Helvetica,sans-Serif" font-size="10.00" fill="#000000">subroutine::fastj_photoj</text>
</a>
</g>
</g>
<!-- Node16&#45;&gt;Node17 -->
<g id="edge2" class="edge">
<title>Node16&#45;&gt;Node17</title>
<path fill="none" stroke="#191970" d="M194.4539,-29C247.7899,-29 334.7526,-29 394.7654,-29"/>
<polygon fill="#191970" stroke="#191970" points="194.253,-25.5001 184.253,-29 194.2529,-32.5001 194.253,-25.5001"/>
</g>
<!-- Node18 -->
<g id="node4" class="node">
<title>Node18</title>
<g id="a_node4"><a xlink:href="ukca__fastj_8f90.xhtml#a040d88eea4984061e09391e721de7352" target="_top" xlink:title="fastj_loadbalance_photoj">
<polygon fill="#ffffff" stroke="#000000" points="220,-.5 220,-19.5 359,-19.5 359,-.5 220,-.5"/>
<text text-anchor="middle" x="289.5" y="-7.5" font-family="Helvetica,sans-Serif" font-size="10.00" fill="#000000">fastj_loadbalance_photoj</text>
</a>
</g>
</g>
<!-- Node16&#45;&gt;Node18 -->
<g id="edge3" class="edge">
<title>Node16&#45;&gt;Node18</title>
<path fill="none" stroke="#191970" d="M194.1723,-22.7104C202.3838,-21.6155 211.0789,-20.4561 219.7445,-19.3007"/>
<polygon fill="#191970" stroke="#191970" points="193.5179,-19.2666 184.0682,-24.0576 194.4431,-26.2051 193.5179,-19.2666"/>
</g>
<!-- Node18&#45;&gt;Node17 -->
<g id="edge4" class="edge">
<title>Node18&#45;&gt;Node17</title>
<path fill="none" stroke="#191970" d="M369.2711,-18.8376C377.8519,-19.7883 386.513,-20.7478 394.9083,-21.6779"/>
<polygon fill="#191970" stroke="#191970" points="369.5802,-15.3505 359.2556,-17.728 368.8094,-22.308 369.5802,-15.3505"/>
</g>
</g>
</svg>
