<?xml version="1.0" encoding="UTF-8" standalone="no"?>
<!DOCTYPE svg PUBLIC "-//W3C//DTD SVG 1.1//EN"
 "http://www.w3.org/Graphics/SVG/1.1/DTD/svg11.dtd">
<!-- Generated by graphviz version 2.40.1 (20161225.0304)
 -->
<!-- Title: fastj_matin4 Pages: 1 -->
<!--zoomable 47 -->
<svg id="main" version="1.1" xmlns="http://www.w3.org/2000/svg" xmlns:xlink="http://www.w3.org/1999/xlink" xml:space="preserve" onload="init(evt)">
<style type="text/css"><![CDATA[
.edge:hover path { stroke: red; }
.edge:hover polygon { stroke: red; fill: red; }
]]></style>
<script type="text/javascript"><![CDATA[
var edges = document.getElementsByTagName('g');
if (edges && edges.length) {
  for (var i=0;i<edges.length;i++) {
    if (edges[i].id.substr(0,4)=='edge') {
      edges[i].setAttribute('class','edge');
    }
  }
}
]]></script>
        <defs>
                <circle id="rim" cx="0" cy="0" r="7"/>
                <circle id="rim2" cx="0" cy="0" r="3.5"/>
                <g id="zoomPlus">
                        <use xlink:href="#rim" fill="#404040">
                                <set attributeName="fill" to="#808080" begin="zoomplus.mouseover" end="zoomplus.mouseout"/>
                        </use>
                        <path d="M-4,0h8M0,-4v8" fill="none" stroke="white" stroke-width="1.5" pointer-events="none"/>
                </g>
                <g id="zoomMin">
                        <use xlink:href="#rim" fill="#404040">
                                <set attributeName="fill" to="#808080" begin="zoomminus.mouseover" end="zoomminus.mouseout"/>
                        </use>
                        <path d="M-4,0h8" fill="none" stroke="white" stroke-width="1.5" pointer-events="none"/>
                </g>
                <g id="dirArrow">
                        <path fill="none" stroke="white" stroke-width="1.5" d="M0,-3.0v7 M-2.5,-0.5L0,-3.0L2.5,-0.5"/>
                </g>
               <g id="resetDef">
                       <use xlink:href="#rim2" fill="#404040">
                               <set attributeName="fill" to="#808080" begin="reset.mouseover" end="reset.mouseout"/>
                       </use>
               </g>
        </defs>

<script type="text/javascript">
var viewWidth = 981;
var viewHeight = 47;
var sectionId = 'dynsection-0';
</script>
<script xlink:href="svgpan.js"/>
<svg id="graph" class="graph">
<g id="viewport">
<title>fastj_matin4</title>
<polygon fill="#ffffff" stroke="transparent" points="-4,4 -4,-43 977,-43 977,4 -4,4"/>
<!-- Node1 -->
<g id="node1" class="node">
<title>Node1</title>
<polygon fill="#bfbfbf" stroke="#000000" points="0,-19.5 0,-38.5 78,-38.5 78,-19.5 0,-19.5"/>
<text text-anchor="middle" x="39" y="-26.5" font-family="Helvetica,sans-Serif" font-size="10.00" fill="#000000">fastj_matin4</text>
</g>
<!-- Node2 -->
<g id="node2" class="node">
<title>Node2</title>
<g id="a_node2"><a xlink:href="fastj__blkslv_8f90.xhtml#acbe9abcc85c8f8840063b084d0d7a702" target="_top" xlink:title="Copyright (c) 2008, Regents of the University of California. ">
<polygon fill="#ffffff" stroke="#000000" points="114,-19.5 114,-38.5 187,-38.5 187,-19.5 114,-19.5"/>
<text text-anchor="middle" x="150.5" y="-26.5" font-family="Helvetica,sans-Serif" font-size="10.00" fill="#000000">fastj_blkslv</text>
</a>
</g>
</g>
<!-- Node1&#45;&gt;Node2 -->
<g id="edge1" class="edge">
<title>Node1&#45;&gt;Node2</title>
<path fill="none" stroke="#191970" d="M88.5197,-29C97.0128,-29 105.7012,-29 113.7832,-29"/>
<polygon fill="#191970" stroke="#191970" points="88.3108,-25.5001 78.3107,-29 88.3107,-32.5001 88.3108,-25.5001"/>
</g>
<!-- Node3 -->
<g id="node3" class="node">
<title>Node3</title>
<g id="a_node3"><a xlink:href="fastj__miesct_8f90.xhtml#a3e4f100dab5806d2632140949a92c34c" target="_top" xlink:title="Copyright (c) 2008, Regents of the University of California. ">
<polygon fill="#ffffff" stroke="#000000" points="223,-19.5 223,-38.5 300,-38.5 300,-19.5 223,-19.5"/>
<text text-anchor="middle" x="261.5" y="-26.5" font-family="Helvetica,sans-Serif" font-size="10.00" fill="#000000">fastj_miesct</text>
</a>
</g>
</g>
<!-- Node2&#45;&gt;Node3 -->
<g id="edge2" class="edge">
<title>Node2&#45;&gt;Node3</title>
<path fill="none" stroke="#191970" d="M197.3704,-29C205.9061,-29 214.721,-29 222.9806,-29"/>
<polygon fill="#191970" stroke="#191970" points="197.1532,-25.5001 187.1532,-29 197.1531,-32.5001 197.1532,-25.5001"/>
</g>
<!-- Node4 -->
<g id="node4" class="node">
<title>Node4</title>
<g id="a_node4"><a xlink:href="fastj__opmie_8f90.xhtml#a791e7e10330d334905cc420a7d0b6159" target="_top" xlink:title="Copyright (c) 2008, Regents of the University of California. ">
<polygon fill="#ffffff" stroke="#000000" points="336,-19.5 336,-38.5 410,-38.5 410,-19.5 336,-19.5"/>
<text text-anchor="middle" x="373" y="-26.5" font-family="Helvetica,sans-Serif" font-size="10.00" fill="#000000">fastj_opmie</text>
</a>
</g>
</g>
<!-- Node3&#45;&gt;Node4 -->
<g id="edge3" class="edge">
<title>Node3&#45;&gt;Node4</title>
<path fill="none" stroke="#191970" d="M310.4378,-29C318.9768,-29 327.7323,-29 335.8866,-29"/>
<polygon fill="#191970" stroke="#191970" points="310.1844,-25.5001 300.1844,-29 310.1843,-32.5001 310.1844,-25.5001"/>
</g>
<!-- Node5 -->
<g id="node5" class="node">
<title>Node5</title>
<g id="a_node5"><a xlink:href="fastj__jvalue_8f90.xhtml#ac56387b10ced35868357d200bc18ac63" target="_top" xlink:title="Copyright (c) 2008, Regents of the University of California. ">
<polygon fill="#ffffff" stroke="#000000" points="446,-19.5 446,-38.5 520,-38.5 520,-19.5 446,-19.5"/>
<text text-anchor="middle" x="483" y="-26.5" font-family="Helvetica,sans-Serif" font-size="10.00" fill="#000000">fastj_jvalue</text>
</a>
</g>
</g>
<!-- Node4&#45;&gt;Node5 -->
<g id="edge4" class="edge">
<title>Node4&#45;&gt;Node5</title>
<path fill="none" stroke="#191970" d="M420.4196,-29C428.9099,-29 437.6459,-29 445.7974,-29"/>
<polygon fill="#191970" stroke="#191970" points="420.241,-25.5001 410.241,-29 420.2409,-32.5001 420.241,-25.5001"/>
</g>
<!-- Node6 -->
<g id="node6" class="node">
<title>Node6</title>
<g id="a_node6"><a xlink:href="fastj__photoj_8f90.xhtml#abddf8569dbe52aa8ce0e18e23bc81ca4" target="_top" xlink:title="Copyright (c) 2008, Regents of the University of California. ">
<polygon fill="#ffffff" stroke="#000000" points="556,-19.5 556,-38.5 630,-38.5 630,-19.5 556,-19.5"/>
<text text-anchor="middle" x="593" y="-26.5" font-family="Helvetica,sans-Serif" font-size="10.00" fill="#000000">fastj_photoj</text>
</a>
</g>
</g>
<!-- Node5&#45;&gt;Node6 -->
<g id="edge5" class="edge">
<title>Node5&#45;&gt;Node6</title>
<path fill="none" stroke="#191970" d="M530.4196,-29C538.9099,-29 547.6459,-29 555.7974,-29"/>
<polygon fill="#191970" stroke="#191970" points="530.241,-25.5001 520.241,-29 530.2409,-32.5001 530.241,-25.5001"/>
</g>
<!-- Node7 -->
<g id="node7" class="node">
<title>Node7</title>
<g id="a_node7"><a xlink:href="interfacesubroutine.xhtml#a876adb2b34cc3755b59c18b0b796dddc" target="_top" xlink:title="subroutine::fastj_photoj">
<polygon fill="#ffffff" stroke="#000000" points="841,-19.5 841,-38.5 973,-38.5 973,-19.5 841,-19.5"/>
<text text-anchor="middle" x="907" y="-26.5" font-family="Helvetica,sans-Serif" font-size="10.00" fill="#000000">subroutine::fastj_photoj</text>
</a>
</g>
</g>
<!-- Node6&#45;&gt;Node7 -->
<g id="edge6" class="edge">
<title>Node6&#45;&gt;Node7</title>
<path fill="none" stroke="#191970" d="M640.4539,-29C693.7899,-29 780.7526,-29 840.7654,-29"/>
<polygon fill="#191970" stroke="#191970" points="640.253,-25.5001 630.253,-29 640.2529,-32.5001 640.253,-25.5001"/>
</g>
<!-- Node8 -->
<g id="node8" class="node">
<title>Node8</title>
<g id="a_node8"><a xlink:href="ukca__fastj_8f90.xhtml#a040d88eea4984061e09391e721de7352" target="_top" xlink:title="fastj_loadbalance_photoj">
<polygon fill="#ffffff" stroke="#000000" points="666,-.5 666,-19.5 805,-19.5 805,-.5 666,-.5"/>
<text text-anchor="middle" x="735.5" y="-7.5" font-family="Helvetica,sans-Serif" font-size="10.00" fill="#000000">fastj_loadbalance_photoj</text>
</a>
</g>
</g>
<!-- Node6&#45;&gt;Node8 -->
<g id="edge7" class="edge">
<title>Node6&#45;&gt;Node8</title>
<path fill="none" stroke="#191970" d="M640.1723,-22.7104C648.3838,-21.6155 657.0789,-20.4561 665.7445,-19.3007"/>
<polygon fill="#191970" stroke="#191970" points="639.5179,-19.2666 630.0682,-24.0576 640.4431,-26.2051 639.5179,-19.2666"/>
</g>
<!-- Node8&#45;&gt;Node7 -->
<g id="edge8" class="edge">
<title>Node8&#45;&gt;Node7</title>
<path fill="none" stroke="#191970" d="M815.2711,-18.8376C823.8519,-19.7883 832.513,-20.7478 840.9083,-21.6779"/>
<polygon fill="#191970" stroke="#191970" points="815.5802,-15.3505 805.2556,-17.728 814.8094,-22.308 815.5802,-15.3505"/>
</g>
</g>
</svg>
        <g id="navigator" transform="translate(0 0)" fill="#404254">
                <rect fill="#f2f5e9" fill-opacity="0.5" stroke="#606060" stroke-width=".5" x="0" y="0" width="60" height="60"/>
                <use id="zoomplus" xlink:href="#zoomPlus" x="17" y="9" onmousedown="handleZoom(evt,'in')"/>
                <use id="zoomminus" xlink:href="#zoomMin" x="42" y="9" onmousedown="handleZoom(evt,'out')"/>
                <use id="reset" xlink:href="#resetDef" x="30" y="36" onmousedown="handleReset()"/>
                <g id="arrowUp" xlink:href="#dirArrow" transform="translate(30 24)" onmousedown="handlePan(0,-1)">
                  <use xlink:href="#rim" fill="#404040">
                        <set attributeName="fill" to="#808080" begin="arrowUp.mouseover" end="arrowUp.mouseout"/>
                  </use>
                  <path fill="none" stroke="white" stroke-width="1.5" d="M0,-3.0v7 M-2.5,-0.5L0,-3.0L2.5,-0.5"/>
                </g>
                <g id="arrowRight" xlink:href="#dirArrow" transform="rotate(90) translate(36 -43)" onmousedown="handlePan(1,0)">
                  <use xlink:href="#rim" fill="#404040">
                        <set attributeName="fill" to="#808080" begin="arrowRight.mouseover" end="arrowRight.mouseout"/>
                  </use>
                  <path fill="none" stroke="white" stroke-width="1.5" d="M0,-3.0v7 M-2.5,-0.5L0,-3.0L2.5,-0.5"/>
                </g>
                <g id="arrowDown" xlink:href="#dirArrow" transform="rotate(180) translate(-30 -48)" onmousedown="handlePan(0,1)">
                  <use xlink:href="#rim" fill="#404040">
                        <set attributeName="fill" to="#808080" begin="arrowDown.mouseover" end="arrowDown.mouseout"/>
                  </use>
                  <path fill="none" stroke="white" stroke-width="1.5" d="M0,-3.0v7 M-2.5,-0.5L0,-3.0L2.5,-0.5"/>
                </g>
                <g id="arrowLeft" xlink:href="#dirArrow" transform="rotate(270) translate(-36 17)" onmousedown="handlePan(-1,0)">
                  <use xlink:href="#rim" fill="#404040">
                        <set attributeName="fill" to="#808080" begin="arrowLeft.mouseover" end="arrowLeft.mouseout"/>
                  </use>
                  <path fill="none" stroke="white" stroke-width="1.5" d="M0,-3.0v7 M-2.5,-0.5L0,-3.0L2.5,-0.5"/>
                </g>
        </g>
        <svg viewBox="0 0 15 15" width="100%" height="30px" preserveAspectRatio="xMaxYMin meet">
         <g id="arrow_out" transform="scale(0.3 0.3)">
          <a xlink:href="fastj__matin4_8f90_aced04eeb074e87ea2a99b1fa2f867950_icgraph_org.svg" target="_base">
           <rect id="button" ry="5" rx="5" y="6" x="6" height="38" width="38"
                fill="#f2f5e9" fill-opacity="0.5" stroke="#606060" stroke-width="1.0"/>
           <path id="arrow"
             d="M 11.500037,31.436501 C 11.940474,20.09759 22.043105,11.32322 32.158766,21.979434 L 37.068811,17.246167 C 37.068811,17.246167 37.088388,32 37.088388,32 L 22.160133,31.978069 C 22.160133,31.978069 26.997745,27.140456 26.997745,27.140456 C 18.528582,18.264221 13.291696,25.230495 11.500037,31.436501 z"
             style="fill:#404040;"/>
          </a>
         </g>
        </svg>
</svg>
