<?xml version="1.0" encoding="UTF-8" standalone="no"?>
<!DOCTYPE svg PUBLIC "-//W3C//DTD SVG 1.1//EN"
 "http://www.w3.org/Graphics/SVG/1.1/DTD/svg11.dtd">
<!-- Generated by graphviz version 2.40.1 (20161225.0304)
 -->
<!-- Title: fastjx_miesct Pages: 1 -->
<!--zoomable 142 -->
<svg id="main" version="1.1" xmlns="http://www.w3.org/2000/svg" xmlns:xlink="http://www.w3.org/1999/xlink" xml:space="preserve" onload="init(evt)">
<style type="text/css"><![CDATA[
.edge:hover path { stroke: red; }
.edge:hover polygon { stroke: red; fill: red; }
]]></style>
<script type="text/javascript"><![CDATA[
var edges = document.getElementsByTagName('g');
if (edges && edges.length) {
  for (var i=0;i<edges.length;i++) {
    if (edges[i].id.substr(0,4)=='edge') {
      edges[i].setAttribute('class','edge');
    }
  }
}
]]></script>
        <defs>
                <circle id="rim" cx="0" cy="0" r="7"/>
                <circle id="rim2" cx="0" cy="0" r="3.5"/>
                <g id="zoomPlus">
                        <use xlink:href="#rim" fill="#404040">
                                <set attributeName="fill" to="#808080" begin="zoomplus.mouseover" end="zoomplus.mouseout"/>
                        </use>
                        <path d="M-4,0h8M0,-4v8" fill="none" stroke="white" stroke-width="1.5" pointer-events="none"/>
                </g>
                <g id="zoomMin">
                        <use xlink:href="#rim" fill="#404040">
                                <set attributeName="fill" to="#808080" begin="zoomminus.mouseover" end="zoomminus.mouseout"/>
                        </use>
                        <path d="M-4,0h8" fill="none" stroke="white" stroke-width="1.5" pointer-events="none"/>
                </g>
                <g id="dirArrow">
                        <path fill="none" stroke="white" stroke-width="1.5" d="M0,-3.0v7 M-2.5,-0.5L0,-3.0L2.5,-0.5"/>
                </g>
               <g id="resetDef">
                       <use xlink:href="#rim2" fill="#404040">
                               <set attributeName="fill" to="#808080" begin="reset.mouseover" end="reset.mouseout"/>
                       </use>
               </g>
        </defs>

<script type="text/javascript">
var viewWidth = 970;
var viewHeight = 142;
var sectionId = 'dynsection-2';
</script>
<script xlink:href="svgpan.js"/>
<svg id="graph" class="graph">
<g id="viewport">
<title>fastjx_miesct</title>
<polygon fill="#ffffff" stroke="transparent" points="-4,4 -4,-138 966,-138 966,4 -4,4"/>
<!-- Node14 -->
<g id="node1" class="node">
<title>Node14</title>
<polygon fill="#bfbfbf" stroke="#000000" points="0,-76.5 0,-95.5 83,-95.5 83,-76.5 0,-76.5"/>
<text text-anchor="middle" x="41.5" y="-83.5" font-family="Helvetica,sans-Serif" font-size="10.00" fill="#000000">fastjx_miesct</text>
</g>
<!-- Node15 -->
<g id="node2" class="node">
<title>Node15</title>
<g id="a_node2"><a xlink:href="fastjx__miesct_8f90.xhtml#aadf50b3bda7b8360df968f000f1eff26" target="_top" xlink:title="legnd0">
<polygon fill="#ffffff" stroke="#000000" points="119,-95.5 119,-114.5 169,-114.5 169,-95.5 119,-95.5"/>
<text text-anchor="middle" x="144" y="-102.5" font-family="Helvetica,sans-Serif" font-size="10.00" fill="#000000">legnd0</text>
</a>
</g>
</g>
<!-- Node14&#45;&gt;Node15 -->
<g id="edge1" class="edge">
<title>Node14&#45;&gt;Node15</title>
<path fill="none" stroke="#191970" d="M83.1907,-93.728C91.6863,-95.3028 100.5453,-96.945 108.7886,-98.473"/>
<polygon fill="#191970" stroke="#191970" points="108.3568,-101.9525 118.8272,-100.3338 109.6327,-95.0698 108.3568,-101.9525"/>
</g>
<!-- Node16 -->
<g id="node3" class="node">
<title>Node16</title>
<g id="a_node3"><a xlink:href="fastjx__miesct_8f90.xhtml#a599dd71b194be842b0bb98048f15d1e1" target="_top" xlink:title="blkslv">
<polygon fill="#ffffff" stroke="#000000" points="121,-57.5 121,-76.5 167,-76.5 167,-57.5 121,-57.5"/>
<text text-anchor="middle" x="144" y="-64.5" font-family="Helvetica,sans-Serif" font-size="10.00" fill="#000000">blkslv</text>
</a>
</g>
</g>
<!-- Node14&#45;&gt;Node16 -->
<g id="edge2" class="edge">
<title>Node14&#45;&gt;Node16</title>
<path fill="none" stroke="#191970" d="M83.1907,-78.272C92.4328,-76.5588 102.105,-74.7659 110.9467,-73.1269"/>
<polygon fill="#191970" stroke="#191970" points="111.6746,-76.5517 120.8692,-71.2877 110.3987,-69.669 111.6746,-76.5517"/>
</g>
<!-- Node17 -->
<g id="node4" class="node">
<title>Node17</title>
<g id="a_node4"><a xlink:href="fastjx__miesct_8f90.xhtml#a2f4061c5256d5a7bd8fd622127565169" target="_top" xlink:title="gen_id">
<polygon fill="#ffffff" stroke="#000000" points="207,-114.5 207,-133.5 256,-133.5 256,-114.5 207,-114.5"/>
<text text-anchor="middle" x="231.5" y="-121.5" font-family="Helvetica,sans-Serif" font-size="10.00" fill="#000000">gen_id</text>
</a>
</g>
</g>
<!-- Node16&#45;&gt;Node17 -->
<g id="edge3" class="edge">
<title>Node16&#45;&gt;Node17</title>
<path fill="none" stroke="#191970" d="M158.8432,-76.6693C172.3751,-85.4843 192.5851,-98.6497 208.2575,-108.8592"/>
<polygon fill="#191970" stroke="#191970" points="206.5866,-111.9478 216.876,-114.4735 210.4075,-106.0825 206.5866,-111.9478"/>
</g>
<!-- Node19 -->
<g id="node6" class="node">
<title>Node19</title>
<g id="a_node6"><a xlink:href="fastjx__miesct_8f90.xhtml#a5f9df03f6374d93ede70757bb36d9d41" target="_top" xlink:title="matinw">
<polygon fill="#ffffff" stroke="#000000" points="205,-76.5 205,-95.5 258,-95.5 258,-76.5 205,-76.5"/>
<text text-anchor="middle" x="231.5" y="-83.5" font-family="Helvetica,sans-Serif" font-size="10.00" fill="#000000">matinw</text>
</a>
</g>
</g>
<!-- Node16&#45;&gt;Node19 -->
<g id="edge5" class="edge">
<title>Node16&#45;&gt;Node19</title>
<path fill="none" stroke="#191970" d="M167.4484,-72.0917C175.9244,-73.9322 185.7068,-76.0563 195.0346,-78.0818"/>
<polygon fill="#191970" stroke="#191970" points="194.3795,-81.521 204.8945,-80.2228 195.8649,-74.6804 194.3795,-81.521"/>
</g>
<!-- Node26 -->
<g id="node13" class="node">
<title>Node26</title>
<g id="a_node13"><a xlink:href="ccarbon_8h.xhtml#a828c404e63c2dc4d0a79d381e906dae9" target="_top" xlink:title="flux">
<polygon fill="#ffffff" stroke="#000000" points="214,-38.5 214,-57.5 249,-57.5 249,-38.5 214,-38.5"/>
<text text-anchor="middle" x="231.5" y="-45.5" font-family="Helvetica,sans-Serif" font-size="10.00" fill="#000000">flux</text>
</a>
</g>
</g>
<!-- Node16&#45;&gt;Node26 -->
<g id="edge13" class="edge">
<title>Node16&#45;&gt;Node26</title>
<path fill="none" stroke="#191970" d="M167.4484,-61.9083C178.6106,-59.4846 192.0382,-56.5688 203.7097,-54.0345"/>
<polygon fill="#191970" stroke="#191970" points="204.7899,-57.3816 213.8194,-51.8392 203.3044,-50.541 204.7899,-57.3816"/>
</g>
<!-- Node27 -->
<g id="node14" class="node">
<title>Node27</title>
<g id="a_node14"><a xlink:href="artinfa_8h.xhtml#a339820c042394ba89888471d68213699" target="_top" xlink:title="out">
<polygon fill="#ffffff" stroke="#000000" points="215.5,-.5 215.5,-19.5 247.5,-19.5 247.5,-.5 215.5,-.5"/>
<text text-anchor="middle" x="231.5" y="-7.5" font-family="Helvetica,sans-Serif" font-size="10.00" fill="#000000">out</text>
</a>
</g>
</g>
<!-- Node16&#45;&gt;Node27 -->
<g id="edge14" class="edge">
<title>Node16&#45;&gt;Node27</title>
<path fill="none" stroke="#191970" d="M158.8432,-57.3307C172.3751,-48.5157 192.5851,-35.3503 208.2575,-25.1408"/>
<polygon fill="#191970" stroke="#191970" points="210.4075,-27.9175 216.876,-19.5265 206.5866,-22.0522 210.4075,-27.9175"/>
</g>
<!-- Node18 -->
<g id="node5" class="node">
<title>Node18</title>
<g id="a_node5"><a xlink:href="order_8f90.xhtml#a8b1a12e49ba3f175266fbeb9ddd6e23b" target="_top" xlink:title="Bubble sort of STASH list by model/section/item/input code. ">
<polygon fill="#ffffff" stroke="#000000" points="301.5,-114.5 301.5,-133.5 343.5,-133.5 343.5,-114.5 301.5,-114.5"/>
<text text-anchor="middle" x="322.5" y="-121.5" font-family="Helvetica,sans-Serif" font-size="10.00" fill="#000000">order</text>
</a>
</g>
</g>
<!-- Node17&#45;&gt;Node18 -->
<g id="edge4" class="edge">
<title>Node17&#45;&gt;Node18</title>
<path fill="none" stroke="#191970" d="M256.3661,-124C267.1639,-124 279.9286,-124 291.3495,-124"/>
<polygon fill="#191970" stroke="#191970" points="291.3654,-127.5001 301.3654,-124 291.3654,-120.5001 291.3654,-127.5001"/>
</g>
<!-- Node20 -->
<g id="node7" class="node">
<title>Node20</title>
<g id="a_node7"><a xlink:href="multiply_8f90.xhtml#a50374c2d66f225fa363b2dfdc3024cc8" target="_top" xlink:title="multiply">
<polygon fill="#ffffff" stroke="#000000" points="294,-76.5 294,-95.5 351,-95.5 351,-76.5 294,-76.5"/>
<text text-anchor="middle" x="322.5" y="-83.5" font-family="Helvetica,sans-Serif" font-size="10.00" fill="#000000">multiply</text>
</a>
</g>
</g>
<!-- Node19&#45;&gt;Node20 -->
<g id="edge6" class="edge">
<title>Node19&#45;&gt;Node20</title>
<path fill="none" stroke="#191970" d="M258.3108,-86C266.2871,-86 275.1909,-86 283.7666,-86"/>
<polygon fill="#191970" stroke="#191970" points="283.9801,-89.5001 293.9801,-86 283.9801,-82.5001 283.9801,-89.5001"/>
</g>
<!-- Node21 -->
<g id="node8" class="node">
<title>Node21</title>
<g id="a_node8"><a xlink:href="timer-timer1a_8f90.xhtml#a9ec0272078965f809aa1a1cbc6a05ea4" target="_top" xlink:title="timer">
<polygon fill="#ffffff" stroke="#000000" points="387,-76.5 387,-95.5 430,-95.5 430,-76.5 387,-76.5"/>
<text text-anchor="middle" x="408.5" y="-83.5" font-family="Helvetica,sans-Serif" font-size="10.00" fill="#000000">timer</text>
</a>
</g>
</g>
<!-- Node20&#45;&gt;Node21 -->
<g id="edge7" class="edge">
<title>Node20&#45;&gt;Node21</title>
<path fill="none" stroke="#191970" d="M351.1368,-86C359.3135,-86 368.2732,-86 376.6305,-86"/>
<polygon fill="#191970" stroke="#191970" points="376.7899,-89.5001 386.7899,-86 376.7899,-82.5001 376.7899,-89.5001"/>
</g>
<!-- Node22 -->
<g id="node9" class="node">
<title>Node22</title>
<g id="a_node9"><a xlink:href="namespaceumprintmgr.xhtml#aae44897e556705dbf5e945a26538be9a" target="_top" xlink:title="umprintmgr::umprint">
<polygon fill="#ffffff" stroke="#000000" points="466,-76.5 466,-95.5 585,-95.5 585,-76.5 466,-76.5"/>
<text text-anchor="middle" x="525.5" y="-83.5" font-family="Helvetica,sans-Serif" font-size="10.00" fill="#000000">umprintmgr::umprint</text>
</a>
</g>
</g>
<!-- Node21&#45;&gt;Node22 -->
<g id="edge8" class="edge">
<title>Node21&#45;&gt;Node22</title>
<path fill="none" stroke="#191970" d="M430.2326,-86C437.7064,-86 446.5267,-86 455.7339,-86"/>
<polygon fill="#191970" stroke="#191970" points="455.8312,-89.5001 465.8312,-86 455.8311,-82.5001 455.8312,-89.5001"/>
</g>
<!-- Node23 -->
<g id="node10" class="node">
<title>Node23</title>
<g id="a_node10"><a xlink:href="namespaceumprintmgr.xhtml#a088ce22a18d574e9df7ee1850bfb10c7" target="_top" xlink:title="umprintmgr::umprintopenstream">
<polygon fill="#ffffff" stroke="#000000" points="621,-76.5 621,-95.5 798,-95.5 798,-76.5 621,-76.5"/>
<text text-anchor="middle" x="709.5" y="-83.5" font-family="Helvetica,sans-Serif" font-size="10.00" fill="#000000">umprintmgr::umprintopenstream</text>
</a>
</g>
</g>
<!-- Node22&#45;&gt;Node23 -->
<g id="edge9" class="edge">
<title>Node22&#45;&gt;Node23</title>
<path fill="none" stroke="#191970" d="M585.2395,-79.6333C593.4605,-79.4301 602.0751,-79.3077 610.7702,-79.2661"/>
<polygon fill="#191970" stroke="#191970" points="610.9998,-82.7659 620.9958,-79.2543 610.9917,-75.7659 610.9998,-82.7659"/>
</g>
<!-- Node24 -->
<g id="node11" class="node">
<title>Node24</title>
<g id="a_node11"><a xlink:href="namespaceumprintmgr.xhtml#ad3a290b30a6e25500eabc0bf90330b77" target="_top" xlink:title="umprintmgr::umprintflush">
<polygon fill="#ffffff" stroke="#000000" points="638.5,-38.5 638.5,-57.5 780.5,-57.5 780.5,-38.5 638.5,-38.5"/>
<text text-anchor="middle" x="709.5" y="-45.5" font-family="Helvetica,sans-Serif" font-size="10.00" fill="#000000">umprintmgr::umprintflush</text>
</a>
</g>
</g>
<!-- Node22&#45;&gt;Node24 -->
<g id="edge11" class="edge">
<title>Node22&#45;&gt;Node24</title>
<path fill="none" stroke="#191970" d="M571.931,-76.411C596.6493,-71.3061 627.239,-64.9887 653.292,-59.6082"/>
<polygon fill="#191970" stroke="#191970" points="654.3175,-62.9703 663.4029,-57.5201 652.9017,-56.115 654.3175,-62.9703"/>
</g>
<!-- Node23&#45;&gt;Node22 -->
<g id="edge10" class="edge">
<title>Node23&#45;&gt;Node22</title>
<path fill="none" stroke="#191970" d="M620.9958,-92.7457C612.3802,-92.767 603.7236,-92.7094 595.3289,-92.5727"/>
<polygon fill="#191970" stroke="#191970" points="595.3089,-89.0716 585.2395,-92.3667 595.166,-96.0702 595.3089,-89.0716"/>
</g>
<!-- Node25 -->
<g id="node12" class="node">
<title>Node25</title>
<g id="a_node12"><a xlink:href="namespaceumflush__mod.xhtml#a3a003ab59990bdcb712b443dd5e0d1cd" target="_top" xlink:title="umflush_mod::umflush">
<polygon fill="#ffffff" stroke="#000000" points="834,-38.5 834,-57.5 962,-57.5 962,-38.5 834,-38.5"/>
<text text-anchor="middle" x="898" y="-45.5" font-family="Helvetica,sans-Serif" font-size="10.00" fill="#000000">umflush_mod::umflush</text>
</a>
</g>
</g>
<!-- Node24&#45;&gt;Node25 -->
<g id="edge12" class="edge">
<title>Node24&#45;&gt;Node25</title>
<path fill="none" stroke="#191970" d="M780.7638,-48C794.7742,-48 809.5063,-48 823.6162,-48"/>
<polygon fill="#191970" stroke="#191970" points="823.7612,-51.5001 833.7611,-48 823.7611,-44.5001 823.7612,-51.5001"/>
</g>
</g>
</svg>
        <g id="navigator" transform="translate(0 0)" fill="#404254">
                <rect fill="#f2f5e9" fill-opacity="0.5" stroke="#606060" stroke-width=".5" x="0" y="0" width="60" height="60"/>
                <use id="zoomplus" xlink:href="#zoomPlus" x="17" y="9" onmousedown="handleZoom(evt,'in')"/>
                <use id="zoomminus" xlink:href="#zoomMin" x="42" y="9" onmousedown="handleZoom(evt,'out')"/>
                <use id="reset" xlink:href="#resetDef" x="30" y="36" onmousedown="handleReset()"/>
                <g id="arrowUp" xlink:href="#dirArrow" transform="translate(30 24)" onmousedown="handlePan(0,-1)">
                  <use xlink:href="#rim" fill="#404040">
                        <set attributeName="fill" to="#808080" begin="arrowUp.mouseover" end="arrowUp.mouseout"/>
                  </use>
                  <path fill="none" stroke="white" stroke-width="1.5" d="M0,-3.0v7 M-2.5,-0.5L0,-3.0L2.5,-0.5"/>
                </g>
                <g id="arrowRight" xlink:href="#dirArrow" transform="rotate(90) translate(36 -43)" onmousedown="handlePan(1,0)">
                  <use xlink:href="#rim" fill="#404040">
                        <set attributeName="fill" to="#808080" begin="arrowRight.mouseover" end="arrowRight.mouseout"/>
                  </use>
                  <path fill="none" stroke="white" stroke-width="1.5" d="M0,-3.0v7 M-2.5,-0.5L0,-3.0L2.5,-0.5"/>
                </g>
                <g id="arrowDown" xlink:href="#dirArrow" transform="rotate(180) translate(-30 -48)" onmousedown="handlePan(0,1)">
                  <use xlink:href="#rim" fill="#404040">
                        <set attributeName="fill" to="#808080" begin="arrowDown.mouseover" end="arrowDown.mouseout"/>
                  </use>
                  <path fill="none" stroke="white" stroke-width="1.5" d="M0,-3.0v7 M-2.5,-0.5L0,-3.0L2.5,-0.5"/>
                </g>
                <g id="arrowLeft" xlink:href="#dirArrow" transform="rotate(270) translate(-36 17)" onmousedown="handlePan(-1,0)">
                  <use xlink:href="#rim" fill="#404040">
                        <set attributeName="fill" to="#808080" begin="arrowLeft.mouseover" end="arrowLeft.mouseout"/>
                  </use>
                  <path fill="none" stroke="white" stroke-width="1.5" d="M0,-3.0v7 M-2.5,-0.5L0,-3.0L2.5,-0.5"/>
                </g>
        </g>
        <svg viewBox="0 0 15 15" width="100%" height="30px" preserveAspectRatio="xMaxYMin meet">
         <g id="arrow_out" transform="scale(0.3 0.3)">
          <a xlink:href="fastjx__miesct_8f90_a44d22481361e6697da25d5c0fbe01ae6_cgraph_org.svg" target="_base">
           <rect id="button" ry="5" rx="5" y="6" x="6" height="38" width="38"
                fill="#f2f5e9" fill-opacity="0.5" stroke="#606060" stroke-width="1.0"/>
           <path id="arrow"
             d="M 11.500037,31.436501 C 11.940474,20.09759 22.043105,11.32322 32.158766,21.979434 L 37.068811,17.246167 C 37.068811,17.246167 37.088388,32 37.088388,32 L 22.160133,31.978069 C 22.160133,31.978069 26.997745,27.140456 26.997745,27.140456 C 18.528582,18.264221 13.291696,25.230495 11.500037,31.436501 z"
             style="fill:#404040;"/>
          </a>
         </g>
        </svg>
</svg>
