<?xml version="1.0" encoding="UTF-8" standalone="no"?>
<!DOCTYPE svg PUBLIC "-//W3C//DTD SVG 1.1//EN"
 "http://www.w3.org/Graphics/SVG/1.1/DTD/svg11.dtd">
<!-- Generated by graphviz version 2.40.1 (20161225.0304)
 -->
<!-- Title: fill_missing_data_lw Pages: 1 -->
<svg width="512pt" height="104pt"
 viewBox="0.00 0.00 512.00 104.00" xmlns="http://www.w3.org/2000/svg" xmlns:xlink="http://www.w3.org/1999/xlink">
<g id="graph0" class="graph" transform="scale(1 1) rotate(0) translate(4 100)">
<title>fill_missing_data_lw</title>
<polygon fill="#ffffff" stroke="transparent" points="-4,4 -4,-100 508,-100 508,4 -4,4"/>
<!-- Node0 -->
<g id="node1" class="node">
<title>Node0</title>
<polygon fill="#bfbfbf" stroke="#000000" points="0,-38.5 0,-57.5 116,-57.5 116,-38.5 0,-38.5"/>
<text text-anchor="middle" x="58" y="-45.5" font-family="Helvetica,sans-Serif" font-size="10.00" fill="#000000">fill_missing_data_lw</text>
</g>
<!-- Node1 -->
<g id="node2" class="node">
<title>Node1</title>
<g id="a_node2"><a xlink:href="rad3d__inp_8f90.xhtml#a963851673a12d183433292296d8a5602" target="_top" xlink:title="Subroutine to complete 3D radiation fields. ">
<polygon fill="#ffffff" stroke="#000000" points="152,-38.5 152,-57.5 217,-57.5 217,-38.5 152,-38.5"/>
<text text-anchor="middle" x="184.5" y="-45.5" font-family="Helvetica,sans-Serif" font-size="10.00" fill="#000000">rad3d_inp</text>
</a>
</g>
</g>
<!-- Node0&#45;&gt;Node1 -->
<g id="edge1" class="edge">
<title>Node0&#45;&gt;Node1</title>
<path fill="none" stroke="#191970" d="M116.0667,-48C124.7437,-48 133.5517,-48 141.8315,-48"/>
<polygon fill="#191970" stroke="#191970" points="141.9873,-51.5001 151.9873,-48 141.9873,-44.5001 141.9873,-51.5001"/>
</g>
<!-- Node2 -->
<g id="node3" class="node">
<title>Node2</title>
<g id="a_node3"><a xlink:href="swap__bounds-swpbnd2a_8f90.xhtml#aa0269e41062e156c437596022ea9ccd0" target="_top" xlink:title="Portable GCOM based version SWAP_BOUNDS. ">
<polygon fill="#ffffff" stroke="#000000" points="266,-76.5 266,-95.5 349,-95.5 349,-76.5 266,-76.5"/>
<text text-anchor="middle" x="307.5" y="-83.5" font-family="Helvetica,sans-Serif" font-size="10.00" fill="#000000">swap_bounds</text>
</a>
</g>
</g>
<!-- Node1&#45;&gt;Node2 -->
<g id="edge2" class="edge">
<title>Node1&#45;&gt;Node2</title>
<path fill="none" stroke="#191970" d="M215.5381,-57.589C230.9792,-62.3594 249.8478,-68.1888 266.4661,-73.3229"/>
<polygon fill="#191970" stroke="#191970" points="265.8843,-76.8063 276.4718,-76.4141 267.9506,-70.1182 265.8843,-76.8063"/>
</g>
<!-- Node4 -->
<g id="node5" class="node">
<title>Node4</title>
<g id="a_node5"><a xlink:href="set__external__halos_8f90.xhtml#a22e69285a24b545cbba3a6fc32f714b7" target="_top" xlink:title="Routine for setting the External Halos to a provided. ">
<polygon fill="#ffffff" stroke="#000000" points="253,-38.5 253,-57.5 362,-57.5 362,-38.5 253,-38.5"/>
<text text-anchor="middle" x="307.5" y="-45.5" font-family="Helvetica,sans-Serif" font-size="10.00" fill="#000000">set_external_halos</text>
</a>
</g>
</g>
<!-- Node1&#45;&gt;Node4 -->
<g id="edge4" class="edge">
<title>Node1&#45;&gt;Node4</title>
<path fill="none" stroke="#191970" d="M217.1388,-48C225.1021,-48 233.9004,-48 242.7883,-48"/>
<polygon fill="#191970" stroke="#191970" points="242.8215,-51.5001 252.8215,-48 242.8215,-44.5001 242.8215,-51.5001"/>
</g>
<!-- Node5 -->
<g id="node6" class="node">
<title>Node5</title>
<g id="a_node6"><a xlink:href="interp__field_8f90.xhtml#a13cb075bef6a9d6954e0090aa909898e" target="_top" xlink:title="Interpolation routine for radiation calculations. ">
<polygon fill="#ffffff" stroke="#000000" points="272,-.5 272,-19.5 343,-19.5 343,-.5 272,-.5"/>
<text text-anchor="middle" x="307.5" y="-7.5" font-family="Helvetica,sans-Serif" font-size="10.00" fill="#000000">interp_field</text>
</a>
</g>
</g>
<!-- Node1&#45;&gt;Node5 -->
<g id="edge5" class="edge">
<title>Node1&#45;&gt;Node5</title>
<path fill="none" stroke="#191970" d="M215.5381,-38.411C230.9792,-33.6406 249.8478,-27.8112 266.4661,-22.6771"/>
<polygon fill="#191970" stroke="#191970" points="267.9506,-25.8818 276.4718,-19.5859 265.8843,-19.1937 267.9506,-25.8818"/>
</g>
<!-- Node3 -->
<g id="node4" class="node">
<title>Node3</title>
<g id="a_node4"><a xlink:href="fill__external__halos_8f90.xhtml#a9f4e1e061e136821fb9a51281a5e69c2" target="_top" xlink:title="Routine for filling in External Halos. ">
<polygon fill="#ffffff" stroke="#000000" points="398,-76.5 398,-95.5 504,-95.5 504,-76.5 398,-76.5"/>
<text text-anchor="middle" x="451" y="-83.5" font-family="Helvetica,sans-Serif" font-size="10.00" fill="#000000">fill_external_halos</text>
</a>
</g>
</g>
<!-- Node2&#45;&gt;Node3 -->
<g id="edge3" class="edge">
<title>Node2&#45;&gt;Node3</title>
<path fill="none" stroke="#191970" d="M349.0061,-86C361.0241,-86 374.4277,-86 387.4647,-86"/>
<polygon fill="#191970" stroke="#191970" points="387.8081,-89.5001 397.808,-86 387.808,-82.5001 387.8081,-89.5001"/>
</g>
</g>
</svg>
