<?xml version="1.0" encoding="UTF-8" standalone="no"?>
<!DOCTYPE svg PUBLIC "-//W3C//DTD SVG 1.1//EN"
 "http://www.w3.org/Graphics/SVG/1.1/DTD/svg11.dtd">
<!-- Generated by graphviz version 2.40.1 (20161225.0304)
 -->
<!-- Title: flag_wet Pages: 1 -->
<!--zoomable 453 -->
<svg id="main" version="1.1" xmlns="http://www.w3.org/2000/svg" xmlns:xlink="http://www.w3.org/1999/xlink" xml:space="preserve" onload="init(evt)">
<style type="text/css"><![CDATA[
.edge:hover path { stroke: red; }
.edge:hover polygon { stroke: red; fill: red; }
]]></style>
<script type="text/javascript"><![CDATA[
var edges = document.getElementsByTagName('g');
if (edges && edges.length) {
  for (var i=0;i<edges.length;i++) {
    if (edges[i].id.substr(0,4)=='edge') {
      edges[i].setAttribute('class','edge');
    }
  }
}
]]></script>
        <defs>
                <circle id="rim" cx="0" cy="0" r="7"/>
                <circle id="rim2" cx="0" cy="0" r="3.5"/>
                <g id="zoomPlus">
                        <use xlink:href="#rim" fill="#404040">
                                <set attributeName="fill" to="#808080" begin="zoomplus.mouseover" end="zoomplus.mouseout"/>
                        </use>
                        <path d="M-4,0h8M0,-4v8" fill="none" stroke="white" stroke-width="1.5" pointer-events="none"/>
                </g>
                <g id="zoomMin">
                        <use xlink:href="#rim" fill="#404040">
                                <set attributeName="fill" to="#808080" begin="zoomminus.mouseover" end="zoomminus.mouseout"/>
                        </use>
                        <path d="M-4,0h8" fill="none" stroke="white" stroke-width="1.5" pointer-events="none"/>
                </g>
                <g id="dirArrow">
                        <path fill="none" stroke="white" stroke-width="1.5" d="M0,-3.0v7 M-2.5,-0.5L0,-3.0L2.5,-0.5"/>
                </g>
               <g id="resetDef">
                       <use xlink:href="#rim2" fill="#404040">
                               <set attributeName="fill" to="#808080" begin="reset.mouseover" end="reset.mouseout"/>
                       </use>
               </g>
        </defs>

<script type="text/javascript">
var viewWidth = 1079;
var viewHeight = 453;
var sectionId = 'dynsection-0';
</script>
<script xlink:href="svgpan.js"/>
<svg id="graph" class="graph">
<g id="viewport">
<title>flag_wet</title>
<polygon fill="#ffffff" stroke="transparent" points="-4,4 -4,-449 1075,-449 1075,4 -4,4"/>
<!-- Node1 -->
<g id="node1" class="node">
<title>Node1</title>
<polygon fill="#bfbfbf" stroke="#000000" points="0,-218.5 0,-237.5 58,-237.5 58,-218.5 0,-218.5"/>
<text text-anchor="middle" x="29" y="-225.5" font-family="Helvetica,sans-Serif" font-size="10.00" fill="#000000">flag_wet</text>
</g>
<!-- Node2 -->
<g id="node2" class="node">
<title>Node2</title>
<g id="a_node2"><a xlink:href="congest__conv_8f90.xhtml#a7c8195a99d74e6fe8fb182bba742ffed" target="_top" xlink:title="Congestus convection scheme. ">
<polygon fill="#ffffff" stroke="#000000" points="124,-425.5 124,-444.5 207,-444.5 207,-425.5 124,-425.5"/>
<text text-anchor="middle" x="165.5" y="-432.5" font-family="Helvetica,sans-Serif" font-size="10.00" fill="#000000">congest_conv</text>
</a>
</g>
</g>
<!-- Node1&#45;&gt;Node2 -->
<g id="edge1" class="edge">
<title>Node1&#45;&gt;Node2</title>
<path fill="none" stroke="#191970" d="M30.0004,-248.2904C33.0222,-286.7853 45.1703,-370.6175 94,-416 102.185,-423.6072 113.0646,-428.2383 123.862,-431.0375"/>
<polygon fill="#191970" stroke="#191970" points="33.4659,-247.6441 29.325,-237.892 26.4806,-248.0978 33.4659,-247.6441"/>
</g>
<!-- Node14 -->
<g id="node14" class="node">
<title>Node14</title>
<g id="a_node14"><a xlink:href="namespacecongest__conv__6a__mod.xhtml#a34f32d0f99e7c24f6993de3bfcc644a9" target="_top" xlink:title="Congetus convection scheme works on points diagnosed as congestus in subroutine CONV_DIAG. Called by GLUE_CONV. ">
<polygon fill="#ffffff" stroke="#000000" points="101.5,-262 101.5,-292 229.5,-292 229.5,-262 101.5,-262"/>
<text text-anchor="start" x="109.5" y="-280" font-family="Helvetica,sans-Serif" font-size="10.00" fill="#000000">congest_conv_6a_mod</text>
<text text-anchor="middle" x="165.5" y="-269" font-family="Helvetica,sans-Serif" font-size="10.00" fill="#000000">::congest_conv_6a</text>
</a>
</g>
</g>
<!-- Node1&#45;&gt;Node14 -->
<g id="edge14" class="edge">
<title>Node1&#45;&gt;Node14</title>
<path fill="none" stroke="#191970" d="M64.2619,-241.1463C73.8932,-244.7025 84.3378,-248.5273 94,-252 103.0338,-255.2468 112.7295,-258.6748 121.975,-261.9166"/>
<polygon fill="#191970" stroke="#191970" points="65.1794,-237.7538 54.5863,-237.5636 62.7487,-244.3183 65.1794,-237.7538"/>
</g>
<!-- Node16 -->
<g id="node16" class="node">
<title>Node16</title>
<g id="a_node16"><a xlink:href="deep__conv-dpconv4a_8f90.xhtml#a4a054214a4fde2ea5c75f564b22b7730" target="_top" xlink:title="Deep convection scheme. ">
<polygon fill="#ffffff" stroke="#000000" points="122.5,-76.5 122.5,-95.5 208.5,-95.5 208.5,-76.5 122.5,-76.5"/>
<text text-anchor="middle" x="165.5" y="-83.5" font-family="Helvetica,sans-Serif" font-size="10.00" fill="#000000">deep_conv_4a</text>
</a>
</g>
</g>
<!-- Node1&#45;&gt;Node16 -->
<g id="edge17" class="edge">
<title>Node1&#45;&gt;Node16</title>
<path fill="none" stroke="#191970" d="M34.0007,-208.3506C41.9905,-181.0093 60.2818,-131.8337 94,-105 102.1404,-98.5217 112.2876,-94.2407 122.3566,-91.4153"/>
<polygon fill="#191970" stroke="#191970" points="30.5435,-207.7229 31.2714,-218.2927 37.2938,-209.576 30.5435,-207.7229"/>
</g>
<!-- Node18 -->
<g id="node18" class="node">
<title>Node18</title>
<g id="a_node18"><a xlink:href="deep__conv-dpconv5a_8f90.xhtml#ae86fee3769d20ffd6fc73ad19a1cf983" target="_top" xlink:title="Deep convection scheme. ">
<polygon fill="#ffffff" stroke="#000000" points="122.5,-387.5 122.5,-406.5 208.5,-406.5 208.5,-387.5 122.5,-387.5"/>
<text text-anchor="middle" x="165.5" y="-394.5" font-family="Helvetica,sans-Serif" font-size="10.00" fill="#000000">deep_conv_5a</text>
</a>
</g>
</g>
<!-- Node1&#45;&gt;Node18 -->
<g id="edge20" class="edge">
<title>Node1&#45;&gt;Node18</title>
<path fill="none" stroke="#191970" d="M31.9426,-247.7543C37.7979,-279.9375 53.9807,-343.5459 94,-378 101.9816,-384.8716 112.1858,-389.2905 122.37,-392.1229"/>
<polygon fill="#191970" stroke="#191970" points="35.3768,-247.0689 30.2801,-237.7805 28.472,-248.2199 35.3768,-247.0689"/>
</g>
<!-- Node19 -->
<g id="node19" class="node">
<title>Node19</title>
<g id="a_node19"><a xlink:href="namespacedeep__conv__6a__mod.xhtml#a8664b8c0a5a6e9427fb43c80b704b89b" target="_top" xlink:title="Deep convection scheme works on points diagnosed as deep in subroutine CONV_DIAG. Called by GLUE_CONV...">
<polygon fill="#ffffff" stroke="#000000" points="94,-213 94,-243 237,-243 237,-213 94,-213"/>
<text text-anchor="start" x="102" y="-231" font-family="Helvetica,sans-Serif" font-size="10.00" fill="#000000">deep_conv_6a_mod::deep</text>
<text text-anchor="middle" x="165.5" y="-220" font-family="Helvetica,sans-Serif" font-size="10.00" fill="#000000">_conv_6a</text>
</a>
</g>
</g>
<!-- Node1&#45;&gt;Node19 -->
<g id="edge22" class="edge">
<title>Node1&#45;&gt;Node19</title>
<path fill="none" stroke="#191970" d="M68.4233,-228C76.4605,-228 85.1511,-228 93.9153,-228"/>
<polygon fill="#191970" stroke="#191970" points="68.2827,-224.5001 58.2827,-228 68.2826,-231.5001 68.2827,-224.5001"/>
</g>
<!-- Node20 -->
<g id="node20" class="node">
<title>Node20</title>
<g id="a_node20"><a xlink:href="mid__conv-mdconv4a_8f90.xhtml#a27f844a5905bbf9765e10d27e2f7e157" target="_top" xlink:title="Mid&#45;level convection scheme. ">
<polygon fill="#ffffff" stroke="#000000" points="125,-38.5 125,-57.5 206,-57.5 206,-38.5 125,-38.5"/>
<text text-anchor="middle" x="165.5" y="-45.5" font-family="Helvetica,sans-Serif" font-size="10.00" fill="#000000">mid_conv_4a</text>
</a>
</g>
</g>
<!-- Node1&#45;&gt;Node20 -->
<g id="edge24" class="edge">
<title>Node1&#45;&gt;Node20</title>
<path fill="none" stroke="#191970" d="M31.2773,-208.2608C36.2713,-174.252 51.3712,-104.646 94,-67 102.5683,-59.4332 113.8208,-54.8313 124.8555,-52.0473"/>
<polygon fill="#191970" stroke="#191970" points="27.7868,-207.9595 29.9459,-218.3319 34.7264,-208.8769 27.7868,-207.9595"/>
</g>
<!-- Node21 -->
<g id="node21" class="node">
<title>Node21</title>
<g id="a_node21"><a xlink:href="mid__conv-mdconv5a_8f90.xhtml#ab66fee07f6cbf1091693ce2ebca374e0" target="_top" xlink:title="Mid&#45;level convection scheme. ">
<polygon fill="#ffffff" stroke="#000000" points="125,-349.5 125,-368.5 206,-368.5 206,-349.5 125,-349.5"/>
<text text-anchor="middle" x="165.5" y="-356.5" font-family="Helvetica,sans-Serif" font-size="10.00" fill="#000000">mid_conv_5a</text>
</a>
</g>
</g>
<!-- Node1&#45;&gt;Node21 -->
<g id="edge26" class="edge">
<title>Node1&#45;&gt;Node21</title>
<path fill="none" stroke="#191970" d="M35.0141,-247.3694C43.8408,-272.5488 62.7353,-316.1169 94,-340 102.8798,-346.7833 113.9819,-351.1505 124.7703,-353.9603"/>
<polygon fill="#191970" stroke="#191970" points="38.3145,-246.2022 31.8409,-237.8151 31.6713,-248.4086 38.3145,-246.2022"/>
</g>
<!-- Node22 -->
<g id="node22" class="node">
<title>Node22</title>
<g id="a_node22"><a xlink:href="namespacemid__conv__6a__mod.xhtml#a94ce408755640470c310456d5ba3c800" target="_top" xlink:title="Mid level convection scheme. ">
<polygon fill="#ffffff" stroke="#000000" points="99,-164 99,-194 232,-194 232,-164 99,-164"/>
<text text-anchor="start" x="107" y="-182" font-family="Helvetica,sans-Serif" font-size="10.00" fill="#000000">mid_conv_6a_mod::mid</text>
<text text-anchor="middle" x="165.5" y="-171" font-family="Helvetica,sans-Serif" font-size="10.00" fill="#000000">_conv_6a</text>
</a>
</g>
</g>
<!-- Node1&#45;&gt;Node22 -->
<g id="edge28" class="edge">
<title>Node1&#45;&gt;Node22</title>
<path fill="none" stroke="#191970" d="M62.3186,-214.8669C72.4574,-210.9565 83.6549,-206.7237 94,-203 102.2544,-200.0288 111.0857,-196.969 119.6264,-194.0703"/>
<polygon fill="#191970" stroke="#191970" points="61.0404,-211.6085 52.9846,-218.49 63.5735,-218.1342 61.0404,-211.6085"/>
</g>
<!-- Node23 -->
<g id="node23" class="node">
<title>Node23</title>
<g id="a_node23"><a xlink:href="shallow__conv-shconv4a_8f90.xhtml#aee87339d94d1e5bd657d531a71992cf3" target="_top" xlink:title="Shallow convection scheme. ">
<polygon fill="#ffffff" stroke="#000000" points="115.5,-.5 115.5,-19.5 215.5,-19.5 215.5,-.5 115.5,-.5"/>
<text text-anchor="middle" x="165.5" y="-7.5" font-family="Helvetica,sans-Serif" font-size="10.00" fill="#000000">shallow_conv_4a</text>
</a>
</g>
</g>
<!-- Node1&#45;&gt;Node23 -->
<g id="edge30" class="edge">
<title>Node1&#45;&gt;Node23</title>
<path fill="none" stroke="#191970" d="M32.9112,-208.4655C42.3042,-163.4227 67.3415,-54.2065 94,-29 99.9729,-23.3524 107.4281,-19.3411 115.2512,-16.5009"/>
<polygon fill="#191970" stroke="#191970" points="29.4451,-207.9455 30.8687,-218.4442 36.3029,-209.3492 29.4451,-207.9455"/>
</g>
<!-- Node24 -->
<g id="node24" class="node">
<title>Node24</title>
<g id="a_node24"><a xlink:href="shallow__conv-shconv5a_8f90.xhtml#a9ee8df16ba28e0c3503e5d848118c242" target="_top" xlink:title="Shallow convection scheme. ">
<polygon fill="#ffffff" stroke="#000000" points="115.5,-311.5 115.5,-330.5 215.5,-330.5 215.5,-311.5 115.5,-311.5"/>
<text text-anchor="middle" x="165.5" y="-318.5" font-family="Helvetica,sans-Serif" font-size="10.00" fill="#000000">shallow_conv_5a</text>
</a>
</g>
</g>
<!-- Node1&#45;&gt;Node24 -->
<g id="edge32" class="edge">
<title>Node1&#45;&gt;Node24</title>
<path fill="none" stroke="#191970" d="M40.518,-245.9985C52.0878,-262.6518 71.4084,-286.8982 94,-301 100.998,-305.3682 108.9657,-308.8022 116.981,-311.4963"/>
<polygon fill="#191970" stroke="#191970" points="43.3911,-243.9987 34.9162,-237.6405 37.5764,-247.8959 43.3911,-243.9987"/>
</g>
<!-- Node25 -->
<g id="node25" class="node">
<title>Node25</title>
<g id="a_node25"><a xlink:href="namespaceshallow__conv__6a__mod.xhtml#a30d23940475bbcbb1e8185a7977dc4a5" target="_top" xlink:title="Shallow convection scheme Works only on points diagnosed as shallow in subroutine CONV_DIAG Called by...">
<polygon fill="#ffffff" stroke="#000000" points="102,-115 102,-145 229,-145 229,-115 102,-115"/>
<text text-anchor="start" x="110" y="-133" font-family="Helvetica,sans-Serif" font-size="10.00" fill="#000000">shallow_conv_6a_mod</text>
<text text-anchor="middle" x="165.5" y="-122" font-family="Helvetica,sans-Serif" font-size="10.00" fill="#000000">::shallow_conv_6a</text>
</a>
</g>
</g>
<!-- Node1&#45;&gt;Node25 -->
<g id="edge34" class="edge">
<title>Node1&#45;&gt;Node25</title>
<path fill="none" stroke="#191970" d="M40.6291,-210.0098C52.2793,-193.3126 71.6557,-168.8623 94,-154 99.1241,-150.5917 104.7767,-147.6259 110.5911,-145.0551"/>
<polygon fill="#191970" stroke="#191970" points="37.6745,-208.1313 34.982,-218.3783 43.4769,-212.0469 37.6745,-208.1313"/>
</g>
<!-- Node3 -->
<g id="node3" class="node">
<title>Node3</title>
<g id="a_node3"><a xlink:href="namespaceglue__conv__5a__mod.xhtml#a0a2a4645b74dadcd85116112a3eb1255" target="_top" xlink:title="Gather&#45;scatter routine for deep and shallow convection points. ">
<polygon fill="#ffffff" stroke="#000000" points="273,-344 273,-374 410,-374 410,-344 273,-344"/>
<text text-anchor="start" x="281" y="-362" font-family="Helvetica,sans-Serif" font-size="10.00" fill="#000000">glue_conv_5a_mod::glue</text>
<text text-anchor="middle" x="341.5" y="-351" font-family="Helvetica,sans-Serif" font-size="10.00" fill="#000000">_conv_5a</text>
</a>
</g>
</g>
<!-- Node2&#45;&gt;Node3 -->
<g id="edge2" class="edge">
<title>Node2&#45;&gt;Node3</title>
<path fill="none" stroke="#191970" d="M217.1177,-422.8726C223.8877,-420.821 230.6678,-418.5258 237,-416 265.9846,-404.4387 297.1336,-386.6849 317.8095,-374.0662"/>
<polygon fill="#191970" stroke="#191970" points="215.9054,-419.5792 207.2594,-425.7027 217.8369,-426.3074 215.9054,-419.5792"/>
</g>
<!-- Node4 -->
<g id="node4" class="node">
<title>Node4</title>
<g id="a_node4"><a xlink:href="ni__conv__ctl_8f90.xhtml#a9923a06c286e88170babe094e612732d" target="_top" xlink:title="Subroutine NI_conv_ctl. ">
<polygon fill="#ffffff" stroke="#000000" points="446,-193.5 446,-212.5 517,-212.5 517,-193.5 446,-193.5"/>
<text text-anchor="middle" x="481.5" y="-200.5" font-family="Helvetica,sans-Serif" font-size="10.00" fill="#000000">ni_conv_ctl</text>
</a>
</g>
</g>
<!-- Node3&#45;&gt;Node4 -->
<g id="edge3" class="edge">
<title>Node3&#45;&gt;Node4</title>
<path fill="none" stroke="#191970" d="M362.1289,-336.0135C393.2932,-301.2876 451.0523,-236.9274 472.8612,-212.6261"/>
<polygon fill="#191970" stroke="#191970" points="359.253,-333.9779 355.1787,-343.758 364.4627,-338.6533 359.253,-333.9779"/>
</g>
<!-- Node5 -->
<g id="node5" class="node">
<title>Node5</title>
<g id="a_node5"><a xlink:href="atmos__physics2_8f90.xhtml#a0f74e8c75312201121b305cd566b175a" target="_top" xlink:title="Interface to Atmos Physics parametrizations after S&#45;L advection. ">
<polygon fill="#ffffff" stroke="#000000" points="553,-193.5 553,-212.5 648,-212.5 648,-193.5 553,-193.5"/>
<text text-anchor="middle" x="600.5" y="-200.5" font-family="Helvetica,sans-Serif" font-size="10.00" fill="#000000">atmos_physics2</text>
</a>
</g>
</g>
<!-- Node4&#45;&gt;Node5 -->
<g id="edge4" class="edge">
<title>Node4&#45;&gt;Node5</title>
<path fill="none" stroke="#191970" d="M527.2309,-203C535.6494,-203 544.457,-203 552.9283,-203"/>
<polygon fill="#191970" stroke="#191970" points="527.204,-199.5001 517.2039,-203 527.2039,-206.5001 527.204,-199.5001"/>
</g>
<!-- Node6 -->
<g id="node6" class="node">
<title>Node6</title>
<g id="a_node6"><a xlink:href="atm__step_8f90.xhtml#ac0ee2467a1a9959b7065fdb8fd27bce4" target="_top" xlink:title="Perform a 1&#45;timestep integration of the Atmosphere Model. ">
<polygon fill="#ffffff" stroke="#000000" points="693,-231.5 693,-250.5 755,-250.5 755,-231.5 693,-231.5"/>
<text text-anchor="middle" x="724" y="-238.5" font-family="Helvetica,sans-Serif" font-size="10.00" fill="#000000">atm_step</text>
</a>
</g>
</g>
<!-- Node5&#45;&gt;Node6 -->
<g id="edge5" class="edge">
<title>Node5&#45;&gt;Node6</title>
<path fill="none" stroke="#191970" d="M641.2397,-215.5353C658.0405,-220.7048 677.197,-226.5991 692.8457,-231.4141"/>
<polygon fill="#191970" stroke="#191970" points="642.2514,-212.1847 631.6643,-212.589 640.1927,-218.8752 642.2514,-212.1847"/>
</g>
<!-- Node10 -->
<g id="node10" class="node">
<title>Node10</title>
<g id="a_node10"><a xlink:href="atm__step__4_a_8f90.xhtml#a2319aa4963e90c64cd78bdcd5f481095" target="_top" xlink:title="Perform a 1&#45;timestep integration of the Atmosphere Model. ">
<polygon fill="#ffffff" stroke="#000000" points="684,-193.5 684,-212.5 764,-212.5 764,-193.5 684,-193.5"/>
<text text-anchor="middle" x="724" y="-200.5" font-family="Helvetica,sans-Serif" font-size="10.00" fill="#000000">atm_step_4a</text>
</a>
</g>
</g>
<!-- Node5&#45;&gt;Node10 -->
<g id="edge9" class="edge">
<title>Node5&#45;&gt;Node10</title>
<path fill="none" stroke="#191970" d="M658.3434,-203C667.0185,-203 675.7967,-203 683.9897,-203"/>
<polygon fill="#191970" stroke="#191970" points="658.2484,-199.5001 648.2483,-203 658.2483,-206.5001 658.2484,-199.5001"/>
</g>
<!-- Node12 -->
<g id="node12" class="node">
<title>Node12</title>
<g id="a_node12"><a xlink:href="scm__main_8f90.xhtml#a2c730136605550612e094ce51d33a2a5" target="_top" xlink:title="*********************************COPYRIGHT********************************* ">
<polygon fill="#ffffff" stroke="#000000" points="690.5,-155.5 690.5,-174.5 757.5,-174.5 757.5,-155.5 690.5,-155.5"/>
<text text-anchor="middle" x="724" y="-162.5" font-family="Helvetica,sans-Serif" font-size="10.00" fill="#000000">scm_main</text>
</a>
</g>
</g>
<!-- Node5&#45;&gt;Node12 -->
<g id="edge12" class="edge">
<title>Node5&#45;&gt;Node12</title>
<path fill="none" stroke="#191970" d="M641.2397,-190.4647C658.0405,-185.2952 677.197,-179.4009 692.8457,-174.5859"/>
<polygon fill="#191970" stroke="#191970" points="640.1927,-187.1248 631.6643,-193.411 642.2514,-193.8153 640.1927,-187.1248"/>
</g>
<!-- Node7 -->
<g id="node7" class="node">
<title>Node7</title>
<g id="a_node7"><a xlink:href="u__model_8f90.xhtml#ada0cd2ce4699433bf0f9adbd882c8eec" target="_top" xlink:title="Subroutine: U_MODEL &#45;!&gt; ">
<polygon fill="#ffffff" stroke="#000000" points="808.5,-231.5 808.5,-250.5 867.5,-250.5 867.5,-231.5 808.5,-231.5"/>
<text text-anchor="middle" x="838" y="-238.5" font-family="Helvetica,sans-Serif" font-size="10.00" fill="#000000">u_model</text>
</a>
</g>
</g>
<!-- Node6&#45;&gt;Node7 -->
<g id="edge6" class="edge">
<title>Node6&#45;&gt;Node7</title>
<path fill="none" stroke="#191970" d="M765.2532,-241C779.5539,-241 795.2895,-241 808.4568,-241"/>
<polygon fill="#191970" stroke="#191970" points="765.151,-237.5001 755.151,-241 765.151,-244.5001 765.151,-237.5001"/>
</g>
<!-- Node8 -->
<g id="node8" class="node">
<title>Node8</title>
<g id="a_node8"><a xlink:href="um__shell_8f90.xhtml#a8c9bd25362824a5c301376ecb5ed5c27" target="_top" xlink:title="Subroutine: UM_SHELL !&gt; ">
<polygon fill="#ffffff" stroke="#000000" points="912,-212.5 912,-231.5 973,-231.5 973,-212.5 912,-212.5"/>
<text text-anchor="middle" x="942.5" y="-219.5" font-family="Helvetica,sans-Serif" font-size="10.00" fill="#000000">um_shell</text>
</a>
</g>
</g>
<!-- Node7&#45;&gt;Node8 -->
<g id="edge7" class="edge">
<title>Node7&#45;&gt;Node8</title>
<path fill="none" stroke="#191970" d="M877.701,-233.7816C888.951,-231.7362 901.0261,-229.5407 911.6677,-227.6059"/>
<polygon fill="#191970" stroke="#191970" points="876.8786,-230.3737 867.666,-235.6062 878.1308,-237.2608 876.8786,-230.3737"/>
</g>
<!-- Node9 -->
<g id="node9" class="node">
<title>Node9</title>
<g id="a_node9"><a xlink:href="um__main_8f90.xhtml#a8f2d13215621443a5313261c282f098b" target="_top" xlink:title="Code Owner: See Unified Model Code Owner&#39;s HTML page. ">
<polygon fill="#ffffff" stroke="#000000" points="1009,-212.5 1009,-231.5 1071,-231.5 1071,-212.5 1009,-212.5"/>
<text text-anchor="middle" x="1040" y="-219.5" font-family="Helvetica,sans-Serif" font-size="10.00" fill="#000000">um_main</text>
</a>
</g>
</g>
<!-- Node8&#45;&gt;Node9 -->
<g id="edge8" class="edge">
<title>Node8&#45;&gt;Node9</title>
<path fill="none" stroke="#191970" d="M983.2756,-222C991.8294,-222 1000.72,-222 1008.8551,-222"/>
<polygon fill="#191970" stroke="#191970" points="983.0821,-218.5001 973.0821,-222 983.0821,-225.5001 983.0821,-218.5001"/>
</g>
<!-- Node11 -->
<g id="node11" class="node">
<title>Node11</title>
<g id="a_node11"><a xlink:href="u__model__4_a_8f90.xhtml#afa05064dab5eba198b461d0928767c7e" target="_top" xlink:title="LL Subroutine: U_MODEL_4A (ENDGAME VERSION) !&gt;LL. ">
<polygon fill="#ffffff" stroke="#000000" points="800,-193.5 800,-212.5 876,-212.5 876,-193.5 800,-193.5"/>
<text text-anchor="middle" x="838" y="-200.5" font-family="Helvetica,sans-Serif" font-size="10.00" fill="#000000">u_model_4a</text>
</a>
</g>
</g>
<!-- Node10&#45;&gt;Node11 -->
<g id="edge10" class="edge">
<title>Node10&#45;&gt;Node11</title>
<path fill="none" stroke="#191970" d="M774.3998,-203C782.891,-203 791.5803,-203 799.7002,-203"/>
<polygon fill="#191970" stroke="#191970" points="774.1922,-199.5001 764.1921,-203 774.1921,-206.5001 774.1922,-199.5001"/>
</g>
<!-- Node11&#45;&gt;Node8 -->
<g id="edge11" class="edge">
<title>Node11&#45;&gt;Node8</title>
<path fill="none" stroke="#191970" d="M885.8728,-211.7041C894.7087,-213.3107 903.7128,-214.9478 911.8647,-216.43"/>
<polygon fill="#191970" stroke="#191970" points="886.4873,-208.2586 876.0225,-209.9132 885.2351,-215.1457 886.4873,-208.2586"/>
</g>
<!-- Node13 -->
<g id="node13" class="node">
<title>Node13</title>
<g id="a_node13"><a xlink:href="scm__shell_8f90.xhtml#ab15255829ee7b5be626b1c0861b40c8d" target="_top" xlink:title="scm_shell is the main calling program for the Single Column Model. ">
<polygon fill="#ffffff" stroke="#000000" points="805.5,-155.5 805.5,-174.5 870.5,-174.5 870.5,-155.5 805.5,-155.5"/>
<text text-anchor="middle" x="838" y="-162.5" font-family="Helvetica,sans-Serif" font-size="10.00" fill="#000000">scm_shell</text>
</a>
</g>
</g>
<!-- Node12&#45;&gt;Node13 -->
<g id="edge13" class="edge">
<title>Node12&#45;&gt;Node13</title>
<path fill="none" stroke="#191970" d="M767.8248,-165C780.3307,-165 793.7319,-165 805.4371,-165"/>
<polygon fill="#191970" stroke="#191970" points="767.5872,-161.5001 757.5872,-165 767.5871,-168.5001 767.5872,-161.5001"/>
</g>
<!-- Node15 -->
<g id="node15" class="node">
<title>Node15</title>
<g id="a_node15"><a xlink:href="namespaceglue__conv__6a__mod.xhtml#a6d5d1edc7767ff4cca5aa84b5368b646" target="_top" xlink:title="glue_conv_6a_mod::glue\l_conv_6a">
<polygon fill="#ffffff" stroke="#000000" points="273,-188 273,-218 410,-218 410,-188 273,-188"/>
<text text-anchor="start" x="281" y="-206" font-family="Helvetica,sans-Serif" font-size="10.00" fill="#000000">glue_conv_6a_mod::glue</text>
<text text-anchor="middle" x="341.5" y="-195" font-family="Helvetica,sans-Serif" font-size="10.00" fill="#000000">_conv_6a</text>
</a>
</g>
</g>
<!-- Node14&#45;&gt;Node15 -->
<g id="edge15" class="edge">
<title>Node14&#45;&gt;Node15</title>
<path fill="none" stroke="#191970" d="M220.2895,-258.4881C225.9629,-256.379 231.618,-254.196 237,-252 262.4173,-241.6289 290.5582,-228.3249 311.2282,-218.1973"/>
<polygon fill="#191970" stroke="#191970" points="218.9667,-255.2449 210.7691,-261.9568 221.3631,-261.8219 218.9667,-255.2449"/>
</g>
<!-- Node15&#45;&gt;Node4 -->
<g id="edge16" class="edge">
<title>Node15&#45;&gt;Node4</title>
<path fill="none" stroke="#191970" d="M420.347,-203C429.2275,-203 437.9151,-203 445.8254,-203"/>
<polygon fill="#191970" stroke="#191970" points="420.2696,-199.5001 410.2696,-203 420.2696,-206.5001 420.2696,-199.5001"/>
</g>
<!-- Node17 -->
<g id="node17" class="node">
<title>Node17</title>
<g id="a_node17"><a xlink:href="namespaceglue__conv__4a__mod.xhtml#a4cb48dc3e9cfb0ea5d0daf6d1889ed9b" target="_top" xlink:title="Gather&#45;scatter routine for deep and shallow convection points. ">
<polygon fill="#ffffff" stroke="#000000" points="273,-52 273,-82 410,-82 410,-52 273,-52"/>
<text text-anchor="start" x="281" y="-70" font-family="Helvetica,sans-Serif" font-size="10.00" fill="#000000">glue_conv_4a_mod::glue</text>
<text text-anchor="middle" x="341.5" y="-59" font-family="Helvetica,sans-Serif" font-size="10.00" fill="#000000">_conv_4a</text>
</a>
</g>
</g>
<!-- Node16&#45;&gt;Node17 -->
<g id="edge18" class="edge">
<title>Node16&#45;&gt;Node17</title>
<path fill="none" stroke="#191970" d="M218.8467,-80.241C235.8486,-78.4056 254.9043,-76.3484 272.8336,-74.4128"/>
<polygon fill="#191970" stroke="#191970" points="218.121,-76.7989 208.5544,-81.3521 218.8724,-83.7585 218.121,-76.7989"/>
</g>
<!-- Node17&#45;&gt;Node4 -->
<g id="edge19" class="edge">
<title>Node17&#45;&gt;Node4</title>
<path fill="none" stroke="#191970" d="M364.3525,-89.1996C395.2789,-119.2423 449.1476,-171.5719 471.4192,-193.2073"/>
<polygon fill="#191970" stroke="#191970" points="366.6289,-86.5314 357.0174,-82.074 361.7514,-91.5524 366.6289,-86.5314"/>
</g>
<!-- Node18&#45;&gt;Node3 -->
<g id="edge21" class="edge">
<title>Node18&#45;&gt;Node3</title>
<path fill="none" stroke="#191970" d="M218.366,-385.5857C235.4889,-381.8888 254.7351,-377.7333 272.8336,-373.8257"/>
<polygon fill="#191970" stroke="#191970" points="217.5905,-382.1724 208.5544,-387.7042 219.0679,-389.0148 217.5905,-382.1724"/>
</g>
<!-- Node19&#45;&gt;Node15 -->
<g id="edge23" class="edge">
<title>Node19&#45;&gt;Node15</title>
<path fill="none" stroke="#191970" d="M247.1201,-216.4062C255.7165,-215.1852 264.3945,-213.9525 272.8238,-212.7551"/>
<polygon fill="#191970" stroke="#191970" points="246.4943,-212.9599 237.0859,-217.8315 247.4788,-219.8903 246.4943,-212.9599"/>
</g>
<!-- Node20&#45;&gt;Node17 -->
<g id="edge25" class="edge">
<title>Node20&#45;&gt;Node17</title>
<path fill="none" stroke="#191970" d="M216.404,-53.4953C234.0559,-55.4009 254.1455,-57.5697 272.9814,-59.6031"/>
<polygon fill="#191970" stroke="#191970" points="216.6382,-50.0004 206.3203,-52.4067 215.8869,-56.9599 216.6382,-50.0004"/>
</g>
<!-- Node21&#45;&gt;Node3 -->
<g id="edge27" class="edge">
<title>Node21&#45;&gt;Node3</title>
<path fill="none" stroke="#191970" d="M216.404,-359C234.0559,-359 254.1455,-359 272.9814,-359"/>
<polygon fill="#191970" stroke="#191970" points="216.3203,-355.5001 206.3203,-359 216.3203,-362.5001 216.3203,-355.5001"/>
</g>
<!-- Node22&#45;&gt;Node15 -->
<g id="edge29" class="edge">
<title>Node22&#45;&gt;Node15</title>
<path fill="none" stroke="#191970" d="M242.1507,-189.4524C252.3531,-190.8436 262.7625,-192.2631 272.8178,-193.6343"/>
<polygon fill="#191970" stroke="#191970" points="242.4193,-185.9567 232.0381,-188.0734 241.4734,-192.8925 242.4193,-185.9567"/>
</g>
<!-- Node23&#45;&gt;Node17 -->
<g id="edge31" class="edge">
<title>Node23&#45;&gt;Node17</title>
<path fill="none" stroke="#191970" d="M213.6785,-22.174C221.5078,-24.3325 229.5039,-26.6462 237,-29 258.9174,-35.8821 283.0388,-44.577 302.5793,-51.9123"/>
<polygon fill="#191970" stroke="#191970" points="214.4677,-18.7618 203.9008,-19.5317 212.6414,-25.5194 214.4677,-18.7618"/>
</g>
<!-- Node24&#45;&gt;Node3 -->
<g id="edge33" class="edge">
<title>Node24&#45;&gt;Node3</title>
<path fill="none" stroke="#191970" d="M220.0276,-332.773C236.7073,-336.3743 255.2723,-340.3826 272.7686,-344.1603"/>
<polygon fill="#191970" stroke="#191970" points="220.4257,-329.2784 209.9122,-330.589 218.9483,-336.1207 220.4257,-329.2784"/>
</g>
<!-- Node25&#45;&gt;Node15 -->
<g id="edge35" class="edge">
<title>Node25&#45;&gt;Node15</title>
<path fill="none" stroke="#191970" d="M222.5438,-148.4893C227.4594,-150.2813 232.3339,-152.1301 237,-154 262.6677,-164.2864 291.0289,-177.7216 311.721,-187.9217"/>
<polygon fill="#191970" stroke="#191970" points="223.679,-145.1783 213.0843,-145.1226 221.3319,-151.7731 223.679,-145.1783"/>
</g>
</g>
</svg>
        <g id="navigator" transform="translate(0 0)" fill="#404254">
                <rect fill="#f2f5e9" fill-opacity="0.5" stroke="#606060" stroke-width=".5" x="0" y="0" width="60" height="60"/>
                <use id="zoomplus" xlink:href="#zoomPlus" x="17" y="9" onmousedown="handleZoom(evt,'in')"/>
                <use id="zoomminus" xlink:href="#zoomMin" x="42" y="9" onmousedown="handleZoom(evt,'out')"/>
                <use id="reset" xlink:href="#resetDef" x="30" y="36" onmousedown="handleReset()"/>
                <g id="arrowUp" xlink:href="#dirArrow" transform="translate(30 24)" onmousedown="handlePan(0,-1)">
                  <use xlink:href="#rim" fill="#404040">
                        <set attributeName="fill" to="#808080" begin="arrowUp.mouseover" end="arrowUp.mouseout"/>
                  </use>
                  <path fill="none" stroke="white" stroke-width="1.5" d="M0,-3.0v7 M-2.5,-0.5L0,-3.0L2.5,-0.5"/>
                </g>
                <g id="arrowRight" xlink:href="#dirArrow" transform="rotate(90) translate(36 -43)" onmousedown="handlePan(1,0)">
                  <use xlink:href="#rim" fill="#404040">
                        <set attributeName="fill" to="#808080" begin="arrowRight.mouseover" end="arrowRight.mouseout"/>
                  </use>
                  <path fill="none" stroke="white" stroke-width="1.5" d="M0,-3.0v7 M-2.5,-0.5L0,-3.0L2.5,-0.5"/>
                </g>
                <g id="arrowDown" xlink:href="#dirArrow" transform="rotate(180) translate(-30 -48)" onmousedown="handlePan(0,1)">
                  <use xlink:href="#rim" fill="#404040">
                        <set attributeName="fill" to="#808080" begin="arrowDown.mouseover" end="arrowDown.mouseout"/>
                  </use>
                  <path fill="none" stroke="white" stroke-width="1.5" d="M0,-3.0v7 M-2.5,-0.5L0,-3.0L2.5,-0.5"/>
                </g>
                <g id="arrowLeft" xlink:href="#dirArrow" transform="rotate(270) translate(-36 17)" onmousedown="handlePan(-1,0)">
                  <use xlink:href="#rim" fill="#404040">
                        <set attributeName="fill" to="#808080" begin="arrowLeft.mouseover" end="arrowLeft.mouseout"/>
                  </use>
                  <path fill="none" stroke="white" stroke-width="1.5" d="M0,-3.0v7 M-2.5,-0.5L0,-3.0L2.5,-0.5"/>
                </g>
        </g>
        <svg viewBox="0 0 15 15" width="100%" height="30px" preserveAspectRatio="xMaxYMin meet">
         <g id="arrow_out" transform="scale(0.3 0.3)">
          <a xlink:href="flag__wet-flagw3c_8f90_a521379d7c8baed5c40f3e63ce2763102_icgraph_org.svg" target="_base">
           <rect id="button" ry="5" rx="5" y="6" x="6" height="38" width="38"
                fill="#f2f5e9" fill-opacity="0.5" stroke="#606060" stroke-width="1.0"/>
           <path id="arrow"
             d="M 11.500037,31.436501 C 11.940474,20.09759 22.043105,11.32322 32.158766,21.979434 L 37.068811,17.246167 C 37.068811,17.246167 37.088388,32 37.088388,32 L 22.160133,31.978069 C 22.160133,31.978069 26.997745,27.140456 26.997745,27.140456 C 18.528582,18.264221 13.291696,25.230495 11.500037,31.436501 z"
             style="fill:#404040;"/>
          </a>
         </g>
        </svg>
</svg>
