<?xml version="1.0" encoding="UTF-8" standalone="no"?>
<!DOCTYPE svg PUBLIC "-//W3C//DTD SVG 1.1//EN"
 "http://www.w3.org/Graphics/SVG/1.1/DTD/svg11.dtd">
<!-- Generated by graphviz version 2.40.1 (20161225.0304)
 -->
<!-- Title: fldop_pp_file Pages: 1 -->
<!--zoomable 28 -->
<svg id="main" version="1.1" xmlns="http://www.w3.org/2000/svg" xmlns:xlink="http://www.w3.org/1999/xlink" xml:space="preserve" onload="init(evt)">
<style type="text/css"><![CDATA[
.edge:hover path { stroke: red; }
.edge:hover polygon { stroke: red; fill: red; }
]]></style>
<script type="text/javascript"><![CDATA[
var edges = document.getElementsByTagName('g');
if (edges && edges.length) {
  for (var i=0;i<edges.length;i++) {
    if (edges[i].id.substr(0,4)=='edge') {
      edges[i].setAttribute('class','edge');
    }
  }
}
]]></script>
        <defs>
                <circle id="rim" cx="0" cy="0" r="7"/>
                <circle id="rim2" cx="0" cy="0" r="3.5"/>
                <g id="zoomPlus">
                        <use xlink:href="#rim" fill="#404040">
                                <set attributeName="fill" to="#808080" begin="zoomplus.mouseover" end="zoomplus.mouseout"/>
                        </use>
                        <path d="M-4,0h8M0,-4v8" fill="none" stroke="white" stroke-width="1.5" pointer-events="none"/>
                </g>
                <g id="zoomMin">
                        <use xlink:href="#rim" fill="#404040">
                                <set attributeName="fill" to="#808080" begin="zoomminus.mouseover" end="zoomminus.mouseout"/>
                        </use>
                        <path d="M-4,0h8" fill="none" stroke="white" stroke-width="1.5" pointer-events="none"/>
                </g>
                <g id="dirArrow">
                        <path fill="none" stroke="white" stroke-width="1.5" d="M0,-3.0v7 M-2.5,-0.5L0,-3.0L2.5,-0.5"/>
                </g>
               <g id="resetDef">
                       <use xlink:href="#rim2" fill="#404040">
                               <set attributeName="fill" to="#808080" begin="reset.mouseover" end="reset.mouseout"/>
                       </use>
               </g>
        </defs>

<script type="text/javascript">
var viewWidth = 521;
var viewHeight = 28;
var sectionId = 'dynsection-1';
</script>
<script xlink:href="svgpan.js"/>
<svg id="graph" class="graph">
<g id="viewport">
<title>fldop_pp_file</title>
<polygon fill="#ffffff" stroke="transparent" points="-4,4 -4,-24 517,-24 517,4 -4,4"/>
<!-- Node175 -->
<g id="node1" class="node">
<title>Node175</title>
<polygon fill="#bfbfbf" stroke="#000000" points="0,-.5 0,-19.5 78,-19.5 78,-.5 0,-.5"/>
<text text-anchor="middle" x="39" y="-7.5" font-family="Helvetica,sans-Serif" font-size="10.00" fill="#000000">fldop_pp_file</text>
</g>
<!-- Node176 -->
<g id="node2" class="node">
<title>Node176</title>
<g id="a_node2"><a xlink:href="writeff_8f90.xhtml#a9d615efe637ebed89fde6ba0bb9bcf63" target="_top" xlink:title="writeff">
<polygon fill="#ffffff" stroke="#000000" points="114,-.5 114,-19.5 162,-19.5 162,-.5 114,-.5"/>
<text text-anchor="middle" x="138" y="-7.5" font-family="Helvetica,sans-Serif" font-size="10.00" fill="#000000">writeff</text>
</a>
</g>
</g>
<!-- Node175&#45;&gt;Node176 -->
<g id="edge1" class="edge">
<title>Node175&#45;&gt;Node176</title>
<path fill="none" stroke="#191970" d="M88.1901,-10C97.1636,-10 106.1507,-10 113.9717,-10"/>
<polygon fill="#191970" stroke="#191970" points="88.1275,-6.5001 78.1274,-10 88.1274,-13.5001 88.1275,-6.5001"/>
</g>
<!-- Node177 -->
<g id="node3" class="node">
<title>Node177</title>
<g id="a_node3"><a xlink:href="read__write-fieldop1_8f90.xhtml#a723e5c513b88abc5c34318df643b9cb6" target="_top" xlink:title="This file belongs in section: Small execs. ">
<polygon fill="#ffffff" stroke="#000000" points="198,-.5 198,-19.5 311,-19.5 311,-.5 198,-.5"/>
<text text-anchor="middle" x="254.5" y="-7.5" font-family="Helvetica,sans-Serif" font-size="10.00" fill="#000000">read_write_fieldop1</text>
</a>
</g>
</g>
<!-- Node176&#45;&gt;Node177 -->
<g id="edge2" class="edge">
<title>Node176&#45;&gt;Node177</title>
<path fill="none" stroke="#191970" d="M172.2,-10C180.2273,-10 188.9938,-10 197.7164,-10"/>
<polygon fill="#191970" stroke="#191970" points="172.1389,-6.5001 162.1389,-10 172.1388,-13.5001 172.1389,-6.5001"/>
</g>
<!-- Node178 -->
<g id="node4" class="node">
<title>Node178</title>
<g id="a_node4"><a xlink:href="fieldop__main_8f90.xhtml#aa97ac2f988f899c6286de711c370aef9" target="_top" xlink:title="Subroutine interface: ">
<polygon fill="#ffffff" stroke="#000000" points="347,-.5 347,-19.5 427,-19.5 427,-.5 347,-.5"/>
<text text-anchor="middle" x="387" y="-7.5" font-family="Helvetica,sans-Serif" font-size="10.00" fill="#000000">fieldop_main</text>
</a>
</g>
</g>
<!-- Node177&#45;&gt;Node178 -->
<g id="edge3" class="edge">
<title>Node177&#45;&gt;Node178</title>
<path fill="none" stroke="#191970" d="M321.2317,-10C329.9087,-10 338.5746,-10 346.6342,-10"/>
<polygon fill="#191970" stroke="#191970" points="321.0763,-6.5001 311.0763,-10 321.0762,-13.5001 321.0763,-6.5001"/>
</g>
<!-- Node179 -->
<g id="node5" class="node">
<title>Node179</title>
<g id="a_node5"><a xlink:href="fieldop_8f90.xhtml#a23485bba0dce2ebf2edfa827cd3f6b2b" target="_top" xlink:title="fieldop">
<polygon fill="#ffffff" stroke="#000000" points="463,-.5 463,-19.5 513,-19.5 513,-.5 463,-.5"/>
<text text-anchor="middle" x="488" y="-7.5" font-family="Helvetica,sans-Serif" font-size="10.00" fill="#000000">fieldop</text>
</a>
</g>
</g>
<!-- Node178&#45;&gt;Node179 -->
<g id="edge4" class="edge">
<title>Node178&#45;&gt;Node179</title>
<path fill="none" stroke="#191970" d="M437.4549,-10C446.2386,-10 455.0242,-10 462.7486,-10"/>
<polygon fill="#191970" stroke="#191970" points="437.2081,-6.5001 427.2081,-10 437.208,-13.5001 437.2081,-6.5001"/>
</g>
</g>
</svg>
        <g id="navigator" transform="translate(0 0)" fill="#404254">
                <rect fill="#f2f5e9" fill-opacity="0.5" stroke="#606060" stroke-width=".5" x="0" y="0" width="60" height="60"/>
                <use id="zoomplus" xlink:href="#zoomPlus" x="17" y="9" onmousedown="handleZoom(evt,'in')"/>
                <use id="zoomminus" xlink:href="#zoomMin" x="42" y="9" onmousedown="handleZoom(evt,'out')"/>
                <use id="reset" xlink:href="#resetDef" x="30" y="36" onmousedown="handleReset()"/>
                <g id="arrowUp" xlink:href="#dirArrow" transform="translate(30 24)" onmousedown="handlePan(0,-1)">
                  <use xlink:href="#rim" fill="#404040">
                        <set attributeName="fill" to="#808080" begin="arrowUp.mouseover" end="arrowUp.mouseout"/>
                  </use>
                  <path fill="none" stroke="white" stroke-width="1.5" d="M0,-3.0v7 M-2.5,-0.5L0,-3.0L2.5,-0.5"/>
                </g>
                <g id="arrowRight" xlink:href="#dirArrow" transform="rotate(90) translate(36 -43)" onmousedown="handlePan(1,0)">
                  <use xlink:href="#rim" fill="#404040">
                        <set attributeName="fill" to="#808080" begin="arrowRight.mouseover" end="arrowRight.mouseout"/>
                  </use>
                  <path fill="none" stroke="white" stroke-width="1.5" d="M0,-3.0v7 M-2.5,-0.5L0,-3.0L2.5,-0.5"/>
                </g>
                <g id="arrowDown" xlink:href="#dirArrow" transform="rotate(180) translate(-30 -48)" onmousedown="handlePan(0,1)">
                  <use xlink:href="#rim" fill="#404040">
                        <set attributeName="fill" to="#808080" begin="arrowDown.mouseover" end="arrowDown.mouseout"/>
                  </use>
                  <path fill="none" stroke="white" stroke-width="1.5" d="M0,-3.0v7 M-2.5,-0.5L0,-3.0L2.5,-0.5"/>
                </g>
                <g id="arrowLeft" xlink:href="#dirArrow" transform="rotate(270) translate(-36 17)" onmousedown="handlePan(-1,0)">
                  <use xlink:href="#rim" fill="#404040">
                        <set attributeName="fill" to="#808080" begin="arrowLeft.mouseover" end="arrowLeft.mouseout"/>
                  </use>
                  <path fill="none" stroke="white" stroke-width="1.5" d="M0,-3.0v7 M-2.5,-0.5L0,-3.0L2.5,-0.5"/>
                </g>
        </g>
        <svg viewBox="0 0 15 15" width="100%" height="30px" preserveAspectRatio="xMaxYMin meet">
         <g id="arrow_out" transform="scale(0.3 0.3)">
          <a xlink:href="fldop__pp__file_8f90_a6395102c1fa298b33079c5095e061908_icgraph_org.svg" target="_base">
           <rect id="button" ry="5" rx="5" y="6" x="6" height="38" width="38"
                fill="#f2f5e9" fill-opacity="0.5" stroke="#606060" stroke-width="1.0"/>
           <path id="arrow"
             d="M 11.500037,31.436501 C 11.940474,20.09759 22.043105,11.32322 32.158766,21.979434 L 37.068811,17.246167 C 37.068811,17.246167 37.088388,32 37.088388,32 L 22.160133,31.978069 C 22.160133,31.978069 26.997745,27.140456 26.997745,27.140456 C 18.528582,18.264221 13.291696,25.230495 11.500037,31.436501 z"
             style="fill:#404040;"/>
          </a>
         </g>
        </svg>
</svg>
