<?xml version="1.0" encoding="UTF-8" standalone="no"?>
<!DOCTYPE svg PUBLIC "-//W3C//DTD SVG 1.1//EN"
 "http://www.w3.org/Graphics/SVG/1.1/DTD/svg11.dtd">
<!-- Generated by graphviz version 2.40.1 (20161225.0304)
 -->
<!-- Title: g05cfe Pages: 1 -->
<svg width="440pt" height="28pt"
 viewBox="0.00 0.00 440.00 28.00" xmlns="http://www.w3.org/2000/svg" xmlns:xlink="http://www.w3.org/1999/xlink">
<g id="graph0" class="graph" transform="scale(1 1) rotate(0) translate(4 24)">
<title>g05cfe</title>
<polygon fill="#ffffff" stroke="transparent" points="-4,4 -4,-24 436,-24 436,4 -4,4"/>
<!-- Node1 -->
<g id="node1" class="node">
<title>Node1</title>
<polygon fill="#bfbfbf" stroke="#000000" points="0,-.5 0,-19.5 50,-19.5 50,-.5 0,-.5"/>
<text text-anchor="middle" x="25" y="-7.5" font-family="Helvetica,sans-Serif" font-size="10.00" fill="#000000">g05cfe</text>
</g>
<!-- Node2 -->
<g id="node2" class="node">
<title>Node2</title>
<g id="a_node2"><a xlink:href="statstep_8f90.xhtml#a66da6b47b1629ba1e2c316385a7b8a83" target="_top" xlink:title="SUBROUTINE StatStep. ">
<polygon fill="#ffffff" stroke="#000000" points="86,-.5 86,-19.5 142,-19.5 142,-.5 86,-.5"/>
<text text-anchor="middle" x="114" y="-7.5" font-family="Helvetica,sans-Serif" font-size="10.00" fill="#000000">statstep</text>
</a>
</g>
</g>
<!-- Node1&#45;&gt;Node2 -->
<g id="edge1" class="edge">
<title>Node1&#45;&gt;Node2</title>
<path fill="none" stroke="#191970" d="M60.2996,-10C68.7876,-10 77.7426,-10 85.8551,-10"/>
<polygon fill="#191970" stroke="#191970" points="60.2658,-6.5001 50.2658,-10 60.2657,-13.5001 60.2658,-6.5001"/>
</g>
<!-- Node3 -->
<g id="node3" class="node">
<title>Node3</title>
<g id="a_node3"><a xlink:href="forcing_8f90.xhtml#a686cb010df42adf093fbebe646a89482" target="_top" xlink:title="Subroutine forcing. ">
<polygon fill="#ffffff" stroke="#000000" points="178,-.5 178,-19.5 228,-19.5 228,-.5 178,-.5"/>
<text text-anchor="middle" x="203" y="-7.5" font-family="Helvetica,sans-Serif" font-size="10.00" fill="#000000">forcing</text>
</a>
</g>
</g>
<!-- Node2&#45;&gt;Node3 -->
<g id="edge2" class="edge">
<title>Node2&#45;&gt;Node3</title>
<path fill="none" stroke="#191970" d="M152.3817,-10C160.9593,-10 169.846,-10 177.7342,-10"/>
<polygon fill="#191970" stroke="#191970" points="152.1602,-6.5001 142.1602,-10 152.1601,-13.5001 152.1602,-6.5001"/>
</g>
<!-- Node4 -->
<g id="node4" class="node">
<title>Node4</title>
<g id="a_node4"><a xlink:href="scm__main_8f90.xhtml#a2c730136605550612e094ce51d33a2a5" target="_top" xlink:title="*********************************COPYRIGHT********************************* ">
<polygon fill="#ffffff" stroke="#000000" points="264,-.5 264,-19.5 331,-19.5 331,-.5 264,-.5"/>
<text text-anchor="middle" x="297.5" y="-7.5" font-family="Helvetica,sans-Serif" font-size="10.00" fill="#000000">scm_main</text>
</a>
</g>
</g>
<!-- Node3&#45;&gt;Node4 -->
<g id="edge3" class="edge">
<title>Node3&#45;&gt;Node4</title>
<path fill="none" stroke="#191970" d="M238.5101,-10C246.8379,-10 255.6851,-10 263.9251,-10"/>
<polygon fill="#191970" stroke="#191970" points="238.3243,-6.5001 228.3243,-10 238.3242,-13.5001 238.3243,-6.5001"/>
</g>
<!-- Node5 -->
<g id="node5" class="node">
<title>Node5</title>
<g id="a_node5"><a xlink:href="scm__shell_8f90.xhtml#ab15255829ee7b5be626b1c0861b40c8d" target="_top" xlink:title="scm_shell is the main calling program for the Single Column Model. ">
<polygon fill="#ffffff" stroke="#000000" points="367,-.5 367,-19.5 432,-19.5 432,-.5 367,-.5"/>
<text text-anchor="middle" x="399.5" y="-7.5" font-family="Helvetica,sans-Serif" font-size="10.00" fill="#000000">scm_shell</text>
</a>
</g>
</g>
<!-- Node4&#45;&gt;Node5 -->
<g id="edge4" class="edge">
<title>Node4&#45;&gt;Node5</title>
<path fill="none" stroke="#191970" d="M341.4121,-10C349.9642,-10 358.7874,-10 366.8946,-10"/>
<polygon fill="#191970" stroke="#191970" points="341.1813,-6.5001 331.1813,-10 341.1813,-13.5001 341.1813,-6.5001"/>
</g>
</g>
</svg>
