<?xml version="1.0" encoding="UTF-8" standalone="no"?>
<!DOCTYPE svg PUBLIC "-//W3C//DTD SVG 1.1//EN"
 "http://www.w3.org/Graphics/SVG/1.1/DTD/svg11.dtd">
<!-- Generated by graphviz version 2.40.1 (20161225.0304)
 -->
<!-- Title: gcr_k Pages: 1 -->
<svg width="741pt" height="750pt"
 viewBox="0.00 0.00 741.00 750.00" xmlns="http://www.w3.org/2000/svg" xmlns:xlink="http://www.w3.org/1999/xlink">
<g id="graph0" class="graph" transform="scale(1 1) rotate(0) translate(4 746)">
<title>gcr_k</title>
<polygon fill="#ffffff" stroke="transparent" points="-4,4 -4,-746 737,-746 737,4 -4,4"/>
<!-- Node0 -->
<g id="node1" class="node">
<title>Node0</title>
<polygon fill="#bfbfbf" stroke="#000000" points="0,-418.5 0,-437.5 43,-437.5 43,-418.5 0,-418.5"/>
<text text-anchor="middle" x="21.5" y="-425.5" font-family="Helvetica,sans-Serif" font-size="10.00" fill="#000000">gcr_k</text>
</g>
<!-- Node1 -->
<g id="node2" class="node">
<title>Node1</title>
<g id="a_node2"><a xlink:href="namespaceumprintmgr.xhtml#aae44897e556705dbf5e945a26538be9a" target="_top" xlink:title="umprintmgr::umprint">
<polygon fill="#ffffff" stroke="#000000" points="237,-722.5 237,-741.5 356,-741.5 356,-722.5 237,-722.5"/>
<text text-anchor="middle" x="296.5" y="-729.5" font-family="Helvetica,sans-Serif" font-size="10.00" fill="#000000">umprintmgr::umprint</text>
</a>
</g>
</g>
<!-- Node0&#45;&gt;Node1 -->
<g id="edge1" class="edge">
<title>Node0&#45;&gt;Node1</title>
<path fill="none" stroke="#191970" d="M22.4136,-437.5007C26.5435,-478.5033 44.7689,-639.8114 79,-675 90.377,-686.6953 179.6645,-707.4267 240.2439,-720.4029"/>
<polygon fill="#191970" stroke="#191970" points="239.5664,-723.8371 250.0759,-722.4951 241.0234,-716.9903 239.5664,-723.8371"/>
</g>
<!-- Node5 -->
<g id="node6" class="node">
<title>Node5</title>
<g id="a_node6"><a xlink:href="gcr__two__norm-gcrtwo2a_8f90.xhtml#a7287918847abe7a0999eb4337b85524d" target="_top" xlink:title="Subroutine GCR_Two_Norm. ">
<polygon fill="#ffffff" stroke="#000000" points="253.5,-494.5 253.5,-513.5 339.5,-513.5 339.5,-494.5 253.5,-494.5"/>
<text text-anchor="middle" x="296.5" y="-501.5" font-family="Helvetica,sans-Serif" font-size="10.00" fill="#000000">gcr_two_norm</text>
</a>
</g>
</g>
<!-- Node0&#45;&gt;Node5 -->
<g id="edge6" class="edge">
<title>Node0&#45;&gt;Node5</title>
<path fill="none" stroke="#191970" d="M27.9391,-437.7195C37.3684,-451.0304 56.3002,-474.477 79,-485 131.1125,-509.1579 197.742,-511.373 243.4414,-509.1583"/>
<polygon fill="#191970" stroke="#191970" points="243.6516,-512.6521 253.4356,-508.5873 243.2523,-505.6635 243.6516,-512.6521"/>
</g>
<!-- Node7 -->
<g id="node8" class="node">
<title>Node7</title>
<g id="a_node8"><a xlink:href="gcr__elliptic__operator-gcrell2a_8f90.xhtml#a7f00ed4d3f4c8050c321052ba23d5305" target="_top" xlink:title="Subroutine GCR_Elliptic_Operator. ">
<polygon fill="#ffffff" stroke="#000000" points="238.5,-228.5 238.5,-247.5 354.5,-247.5 354.5,-228.5 238.5,-228.5"/>
<text text-anchor="middle" x="296.5" y="-235.5" font-family="Helvetica,sans-Serif" font-size="10.00" fill="#000000">gcr_elliptic_operator</text>
</a>
</g>
</g>
<!-- Node0&#45;&gt;Node7 -->
<g id="edge8" class="edge">
<title>Node0&#45;&gt;Node7</title>
<path fill="none" stroke="#191970" d="M23.6141,-418.4629C28.9448,-396.6519 45.0028,-342.7984 79,-314 122.334,-277.2924 149.5031,-299.9448 201,-276 218.2165,-267.9947 219.5699,-260.5289 237,-253 238.797,-252.2238 240.6426,-251.4817 242.5206,-250.7729"/>
<polygon fill="#191970" stroke="#191970" points="243.7713,-254.0443 252.1046,-247.5017 241.5101,-247.4196 243.7713,-254.0443"/>
</g>
<!-- Node8 -->
<g id="node9" class="node">
<title>Node8</title>
<g id="a_node9"><a xlink:href="swap__bounds-swpbnd2a_8f90.xhtml#aa0269e41062e156c437596022ea9ccd0" target="_top" xlink:title="Portable GCOM based version SWAP_BOUNDS. ">
<polygon fill="#ffffff" stroke="#000000" points="439,-152.5 439,-171.5 522,-171.5 522,-152.5 439,-152.5"/>
<text text-anchor="middle" x="480.5" y="-159.5" font-family="Helvetica,sans-Serif" font-size="10.00" fill="#000000">swap_bounds</text>
</a>
</g>
</g>
<!-- Node0&#45;&gt;Node8 -->
<g id="edge36" class="edge">
<title>Node0&#45;&gt;Node8</title>
<path fill="none" stroke="#191970" d="M22.3491,-418.2597C26.3281,-374.6348 44.4063,-197.5394 79,-156 159.9236,-58.8286 233.7671,-58.5959 356,-91 396.3079,-101.6857 437.197,-128.8087 460.6319,-146.2682"/>
<polygon fill="#191970" stroke="#191970" points="458.646,-149.1552 468.7213,-152.4321 462.8885,-143.5874 458.646,-149.1552"/>
</g>
<!-- Node10 -->
<g id="node11" class="node">
<title>Node10</title>
<g id="a_node11"><a xlink:href="gcr__precon__1__setup-gcrp1s2a_8f90.xhtml#a9a641bdd1b984353964630b0dbfaf69d" target="_top" xlink:title="subroutine GCR_precon_1_setup ">
<polygon fill="#ffffff" stroke="#000000" points="240,-380.5 240,-399.5 353,-399.5 353,-380.5 240,-380.5"/>
<text text-anchor="middle" x="296.5" y="-387.5" font-family="Helvetica,sans-Serif" font-size="10.00" fill="#000000">gcr_precon_1_setup</text>
</a>
</g>
</g>
<!-- Node0&#45;&gt;Node10 -->
<g id="edge12" class="edge">
<title>Node0&#45;&gt;Node10</title>
<path fill="none" stroke="#191970" d="M43.0196,-419.5708C53.6832,-415.7352 66.8491,-411.5028 79,-409 128.8358,-398.7349 186.2112,-394.0109 229.5162,-391.8394"/>
<polygon fill="#191970" stroke="#191970" points="229.8237,-395.3289 239.6489,-391.3648 229.4961,-388.3366 229.8237,-395.3289"/>
</g>
<!-- Node11 -->
<g id="node12" class="node">
<title>Node11</title>
<g id="a_node12"><a xlink:href="gcr__precon__adi__setup__trisolve-gcrpst2a_8f90.xhtml#ae9d7f7d873cb5aebe4668efebe8e2a75" target="_top" xlink:title="subroutine GCR_precon_ADI_setup_trisol ">
<polygon fill="#ffffff" stroke="#000000" points="79,-540 79,-570 201,-570 201,-540 79,-540"/>
<text text-anchor="start" x="87" y="-558" font-family="Helvetica,sans-Serif" font-size="10.00" fill="#000000">gcr_precon_adi_setup</text>
<text text-anchor="middle" x="140" y="-547" font-family="Helvetica,sans-Serif" font-size="10.00" fill="#000000">_trisol</text>
</a>
</g>
</g>
<!-- Node0&#45;&gt;Node11 -->
<g id="edge14" class="edge">
<title>Node0&#45;&gt;Node11</title>
<path fill="none" stroke="#191970" d="M25.839,-437.6736C34.1284,-455.3334 53.6681,-493.2515 79,-518 85.3043,-524.1591 92.8167,-529.7528 100.3786,-534.6197"/>
<polygon fill="#191970" stroke="#191970" points="98.8462,-537.7841 109.209,-539.9894 102.4832,-531.8031 98.8462,-537.7841"/>
</g>
<!-- Node14 -->
<g id="node15" class="node">
<title>Node14</title>
<g id="a_node15"><a xlink:href="gcr__precon__adi__setup-gcrpas2a_8f90.xhtml#a22b68d161997e471d7c6ad4c9f2d3401" target="_top" xlink:title="subroutine GCR_precon_ADI_setup ">
<polygon fill="#ffffff" stroke="#000000" points="79,-456.5 79,-475.5 201,-475.5 201,-456.5 79,-456.5"/>
<text text-anchor="middle" x="140" y="-463.5" font-family="Helvetica,sans-Serif" font-size="10.00" fill="#000000">gcr_precon_adi_setup</text>
</a>
</g>
</g>
<!-- Node0&#45;&gt;Node14 -->
<g id="edge18" class="edge">
<title>Node0&#45;&gt;Node14</title>
<path fill="none" stroke="#191970" d="M43.0422,-435.2156C53.8252,-438.8026 67.0874,-443.1769 79,-447 85.5284,-449.0951 92.4604,-451.2862 99.2207,-453.4048"/>
<polygon fill="#191970" stroke="#191970" points="98.3465,-456.7984 108.9352,-456.4372 100.4324,-450.1164 98.3465,-456.7984"/>
</g>
<!-- Node16 -->
<g id="node17" class="node">
<title>Node16</title>
<g id="a_node17"><a xlink:href="gcr__precon__1__exec-gcrp1e2a_8f90.xhtml#a39db747754a09b579aec79dea0ee5803" target="_top" xlink:title="Purpose: ">
<polygon fill="#ffffff" stroke="#000000" points="85,-418.5 85,-437.5 195,-437.5 195,-418.5 85,-418.5"/>
<text text-anchor="middle" x="140" y="-425.5" font-family="Helvetica,sans-Serif" font-size="10.00" fill="#000000">gcr_precon_1_exec</text>
</a>
</g>
</g>
<!-- Node0&#45;&gt;Node16 -->
<g id="edge22" class="edge">
<title>Node0&#45;&gt;Node16</title>
<path fill="none" stroke="#191970" d="M43.2347,-428C52.3301,-428 63.4291,-428 74.8234,-428"/>
<polygon fill="#191970" stroke="#191970" points="74.8697,-431.5001 84.8697,-428 74.8696,-424.5001 74.8697,-431.5001"/>
</g>
<!-- Node17 -->
<g id="node18" class="node">
<title>Node17</title>
<g id="a_node18"><a xlink:href="gcr__precon__adi__exec__trisolve-gcrpat2a_8f90.xhtml#a1feb1a044e9e1d8f905399b4b6d5170d" target="_top" xlink:title="subroutine GCR_precon_ADI_exec_trisolve ">
<polygon fill="#ffffff" stroke="#000000" points="80.5,-166 80.5,-196 199.5,-196 199.5,-166 80.5,-166"/>
<text text-anchor="start" x="88.5" y="-184" font-family="Helvetica,sans-Serif" font-size="10.00" fill="#000000">gcr_precon_adi_exec</text>
<text text-anchor="middle" x="140" y="-173" font-family="Helvetica,sans-Serif" font-size="10.00" fill="#000000">_trisol</text>
</a>
</g>
</g>
<!-- Node0&#45;&gt;Node17 -->
<g id="edge23" class="edge">
<title>Node0&#45;&gt;Node17</title>
<path fill="none" stroke="#191970" d="M22.6444,-418.1749C26.4326,-388.7803 40.5843,-299.7427 79,-238 87.318,-224.631 99.5609,-212.3442 110.8998,-202.6285"/>
<polygon fill="#191970" stroke="#191970" points="113.4249,-205.0835 118.9274,-196.0296 108.9798,-199.676 113.4249,-205.0835"/>
</g>
<!-- Node20 -->
<g id="node21" class="node">
<title>Node20</title>
<g id="a_node21"><a xlink:href="gcr__precon__adi__exec-gcrpae2a_8f90.xhtml#a7a2461a86b23fe848ffae77bf81a5966" target="_top" xlink:title="subroutine GCR_precon_ADI_exec ">
<polygon fill="#ffffff" stroke="#000000" points="80.5,-323.5 80.5,-342.5 199.5,-342.5 199.5,-323.5 80.5,-323.5"/>
<text text-anchor="middle" x="140" y="-330.5" font-family="Helvetica,sans-Serif" font-size="10.00" fill="#000000">gcr_precon_adi_exec</text>
</a>
</g>
</g>
<!-- Node0&#45;&gt;Node20 -->
<g id="edge29" class="edge">
<title>Node0&#45;&gt;Node20</title>
<path fill="none" stroke="#191970" d="M31.3538,-418.4124C42.5546,-407.6767 61.5517,-389.9551 79,-376 91.1757,-366.2619 105.3822,-356.1783 117.0204,-348.2254"/>
<polygon fill="#191970" stroke="#191970" points="119.0182,-351.0996 125.3435,-342.6 115.0984,-345.3 119.0182,-351.0996"/>
</g>
<!-- Node22 -->
<g id="node23" class="node">
<title>Node22</title>
<g id="a_node23"><a xlink:href="gcr__error__print-gcrerr2a_8f90.xhtml#ad3b23bf9a527641766c5ca9ed51d5bb4" target="_top" xlink:title="Subroutine GCR_error_print. ">
<polygon fill="#ffffff" stroke="#000000" points="96,-722.5 96,-741.5 184,-741.5 184,-722.5 96,-722.5"/>
<text text-anchor="middle" x="140" y="-729.5" font-family="Helvetica,sans-Serif" font-size="10.00" fill="#000000">gcr_error_print</text>
</a>
</g>
</g>
<!-- Node0&#45;&gt;Node22 -->
<g id="edge37" class="edge">
<title>Node0&#45;&gt;Node22</title>
<path fill="none" stroke="#191970" d="M22.269,-437.7383C25.9564,-482.1754 43.1461,-665.3678 79,-708 82.1749,-711.7751 86.0234,-714.9599 90.2263,-717.646"/>
<polygon fill="#191970" stroke="#191970" points="88.7826,-720.8434 99.2489,-722.4887 92.093,-714.6756 88.7826,-720.8434"/>
</g>
<!-- Node23 -->
<g id="node24" class="node">
<title>Node23</title>
<g id="a_node24"><a xlink:href="gcr__calc__abs__norm-gcrcal2a_8f90.xhtml#a1ee251168b3af6f588a0af6c0a4e0b60" target="_top" xlink:title="Purpose: ">
<polygon fill="#ffffff" stroke="#000000" points="85,-247.5 85,-266.5 195,-266.5 195,-247.5 85,-247.5"/>
<text text-anchor="middle" x="140" y="-254.5" font-family="Helvetica,sans-Serif" font-size="10.00" fill="#000000">gcr_calc_abs_norm</text>
</a>
</g>
</g>
<!-- Node0&#45;&gt;Node23 -->
<g id="edge39" class="edge">
<title>Node0&#45;&gt;Node23</title>
<path fill="none" stroke="#191970" d="M22.6091,-418.318C26.0653,-392.4824 38.9286,-321.1509 79,-281 82.9191,-277.0731 87.5577,-273.7715 92.4996,-270.9994"/>
<polygon fill="#191970" stroke="#191970" points="94.1684,-274.0799 101.6326,-266.5608 91.1086,-267.784 94.1684,-274.0799"/>
</g>
<!-- Node24 -->
<g id="node25" class="node">
<title>Node24</title>
<g id="a_node25"><a xlink:href="gcr__abs__print-gcrabs2a_8f90.xhtml#ac8d20a05c16a56c7bea7e89fafd8628c" target="_top" xlink:title="Subroutine GCR_abs_print. ">
<polygon fill="#ffffff" stroke="#000000" points="99,-646.5 99,-665.5 181,-665.5 181,-646.5 99,-646.5"/>
<text text-anchor="middle" x="140" y="-653.5" font-family="Helvetica,sans-Serif" font-size="10.00" fill="#000000">gcr_abs_print</text>
</a>
</g>
</g>
<!-- Node0&#45;&gt;Node24 -->
<g id="edge40" class="edge">
<title>Node0&#45;&gt;Node24</title>
<path fill="none" stroke="#191970" d="M23.082,-437.621C29.1974,-473.7913 52.2843,-601.0829 79,-631 82.9069,-635.3751 87.6944,-639.0004 92.8531,-642.0008"/>
<polygon fill="#191970" stroke="#191970" points="91.2873,-645.131 101.7956,-646.4823 94.4236,-638.8729 91.2873,-645.131"/>
</g>
<!-- Node25 -->
<g id="node26" class="node">
<title>Node25</title>
<g id="a_node26"><a xlink:href="gcr__coefficient-gcrco2a_8f90.xhtml#a1b4a3637c95af47dad32636aa601cba2" target="_top" xlink:title="Subroutine GCR_Coefficient. ">
<polygon fill="#ffffff" stroke="#000000" points="96,-602.5 96,-621.5 184,-621.5 184,-602.5 96,-602.5"/>
<text text-anchor="middle" x="140" y="-609.5" font-family="Helvetica,sans-Serif" font-size="10.00" fill="#000000">gcr_coefficient</text>
</a>
</g>
</g>
<!-- Node0&#45;&gt;Node25 -->
<g id="edge43" class="edge">
<title>Node0&#45;&gt;Node25</title>
<path fill="none" stroke="#191970" d="M22.7583,-437.7683C26.5849,-463.8793 40.2858,-536.2724 79,-580 85.5308,-587.3766 94.1755,-593.3194 102.8972,-597.9873"/>
<polygon fill="#191970" stroke="#191970" points="101.4068,-601.1545 111.9286,-602.397 104.4781,-594.8643 101.4068,-601.1545"/>
</g>
<!-- Node26 -->
<g id="node27" class="node">
<title>Node26</title>
<g id="a_node27"><a xlink:href="icwriteentry_8f90.xhtml#aed007cadf196f4089c98c88829da1449" target="_top" xlink:title="Routines that are used to manage a fortran unit file stream!&gt; which records a list of iteration count...">
<polygon fill="#ffffff" stroke="#000000" points="102.5,-.5 102.5,-19.5 177.5,-19.5 177.5,-.5 102.5,-.5"/>
<text text-anchor="middle" x="140" y="-7.5" font-family="Helvetica,sans-Serif" font-size="10.00" fill="#000000">icwriteentry</text>
</a>
</g>
</g>
<!-- Node0&#45;&gt;Node26 -->
<g id="edge45" class="edge">
<title>Node0&#45;&gt;Node26</title>
<path fill="none" stroke="#191970" d="M21.6365,-418.2064C22.5844,-363.5194 29.714,-96.1541 79,-34 82.8051,-29.2014 87.7058,-25.3598 93.0735,-22.2848"/>
<polygon fill="#191970" stroke="#191970" points="94.9298,-25.2764 102.4366,-17.7999 91.9058,-18.9633 94.9298,-25.2764"/>
</g>
<!-- Node2 -->
<g id="node3" class="node">
<title>Node2</title>
<g id="a_node3"><a xlink:href="namespaceumprintmgr.xhtml#a088ce22a18d574e9df7ee1850bfb10c7" target="_top" xlink:title="umprintmgr::umprintopenstream">
<polygon fill="#ffffff" stroke="#000000" points="392,-722.5 392,-741.5 569,-741.5 569,-722.5 392,-722.5"/>
<text text-anchor="middle" x="480.5" y="-729.5" font-family="Helvetica,sans-Serif" font-size="10.00" fill="#000000">umprintmgr::umprintopenstream</text>
</a>
</g>
</g>
<!-- Node1&#45;&gt;Node2 -->
<g id="edge2" class="edge">
<title>Node1&#45;&gt;Node2</title>
<path fill="none" stroke="#191970" d="M356.2395,-725.6333C364.4605,-725.4301 373.0751,-725.3077 381.7702,-725.2661"/>
<polygon fill="#191970" stroke="#191970" points="381.9998,-728.7659 391.9958,-725.2543 381.9917,-721.7659 381.9998,-728.7659"/>
</g>
<!-- Node3 -->
<g id="node4" class="node">
<title>Node3</title>
<g id="a_node4"><a xlink:href="namespaceumprintmgr.xhtml#ad3a290b30a6e25500eabc0bf90330b77" target="_top" xlink:title="umprintmgr::umprintflush">
<polygon fill="#ffffff" stroke="#000000" points="409.5,-684.5 409.5,-703.5 551.5,-703.5 551.5,-684.5 409.5,-684.5"/>
<text text-anchor="middle" x="480.5" y="-691.5" font-family="Helvetica,sans-Serif" font-size="10.00" fill="#000000">umprintmgr::umprintflush</text>
</a>
</g>
</g>
<!-- Node1&#45;&gt;Node3 -->
<g id="edge4" class="edge">
<title>Node1&#45;&gt;Node3</title>
<path fill="none" stroke="#191970" d="M342.931,-722.411C367.6493,-717.3061 398.239,-710.9887 424.292,-705.6082"/>
<polygon fill="#191970" stroke="#191970" points="425.3175,-708.9703 434.4029,-703.5201 423.9017,-702.115 425.3175,-708.9703"/>
</g>
<!-- Node2&#45;&gt;Node1 -->
<g id="edge3" class="edge">
<title>Node2&#45;&gt;Node1</title>
<path fill="none" stroke="#191970" d="M391.9958,-738.7457C383.3802,-738.767 374.7236,-738.7094 366.3289,-738.5727"/>
<polygon fill="#191970" stroke="#191970" points="366.3089,-735.0716 356.2395,-738.3667 366.166,-742.0702 366.3089,-735.0716"/>
</g>
<!-- Node4 -->
<g id="node5" class="node">
<title>Node4</title>
<g id="a_node5"><a xlink:href="namespaceumflush__mod.xhtml#a3a003ab59990bdcb712b443dd5e0d1cd" target="_top" xlink:title="umflush_mod::umflush">
<polygon fill="#ffffff" stroke="#000000" points="605,-684.5 605,-703.5 733,-703.5 733,-684.5 605,-684.5"/>
<text text-anchor="middle" x="669" y="-691.5" font-family="Helvetica,sans-Serif" font-size="10.00" fill="#000000">umflush_mod::umflush</text>
</a>
</g>
</g>
<!-- Node3&#45;&gt;Node4 -->
<g id="edge5" class="edge">
<title>Node3&#45;&gt;Node4</title>
<path fill="none" stroke="#191970" d="M551.7638,-694C565.7742,-694 580.5063,-694 594.6162,-694"/>
<polygon fill="#191970" stroke="#191970" points="594.7612,-697.5001 604.7611,-694 594.7611,-690.5001 594.7612,-697.5001"/>
</g>
<!-- Node6 -->
<g id="node7" class="node">
<title>Node6</title>
<g id="a_node7"><a xlink:href="namespaceglobal__2d__sums__mod.xhtml#ac3fe3c2679168085c4635a17e5f82215" target="_top" xlink:title="global_2d_sums_mod\l::global_2d_sums">
<polygon fill="#ffffff" stroke="#000000" points="419.5,-451 419.5,-481 541.5,-481 541.5,-451 419.5,-451"/>
<text text-anchor="start" x="427.5" y="-469" font-family="Helvetica,sans-Serif" font-size="10.00" fill="#000000">global_2d_sums_mod</text>
<text text-anchor="middle" x="480.5" y="-458" font-family="Helvetica,sans-Serif" font-size="10.00" fill="#000000">::global_2d_sums</text>
</a>
</g>
</g>
<!-- Node5&#45;&gt;Node6 -->
<g id="edge7" class="edge">
<title>Node5&#45;&gt;Node6</title>
<path fill="none" stroke="#191970" d="M339.6398,-495.0907C360.3661,-490.8103 385.7532,-485.5673 409.2383,-480.7171"/>
<polygon fill="#191970" stroke="#191970" points="410.0823,-484.1167 419.1677,-478.6664 408.6665,-477.2614 410.0823,-484.1167"/>
</g>
<!-- Node7&#45;&gt;Node6 -->
<g id="edge9" class="edge">
<title>Node7&#45;&gt;Node6</title>
<path fill="none" stroke="#191970" d="M307.598,-247.5508C319.9965,-258.4595 340.3762,-277.1174 356,-295 399.0657,-344.2919 442.5163,-407.8407 464.9386,-441.8979"/>
<polygon fill="#191970" stroke="#191970" points="462.2838,-444.2331 470.6874,-450.6853 468.1417,-440.4009 462.2838,-444.2331"/>
</g>
<!-- Node7&#45;&gt;Node8 -->
<g id="edge10" class="edge">
<title>Node7&#45;&gt;Node8</title>
<path fill="none" stroke="#191970" d="M328.8613,-228.4444C337.7343,-225.614 347.3028,-222.3655 356,-219 389.664,-205.9732 427.194,-188.3464 452.1604,-176.1595"/>
<polygon fill="#191970" stroke="#191970" points="453.97,-179.17 461.4002,-171.6173 450.8818,-172.888 453.97,-179.17"/>
</g>
<!-- Node9 -->
<g id="node10" class="node">
<title>Node9</title>
<g id="a_node10"><a xlink:href="fill__external__halos_8f90.xhtml#a9f4e1e061e136821fb9a51281a5e69c2" target="_top" xlink:title="Routine for filling in External Halos. ">
<polygon fill="#ffffff" stroke="#000000" points="616,-152.5 616,-171.5 722,-171.5 722,-152.5 616,-152.5"/>
<text text-anchor="middle" x="669" y="-159.5" font-family="Helvetica,sans-Serif" font-size="10.00" fill="#000000">fill_external_halos</text>
</a>
</g>
</g>
<!-- Node8&#45;&gt;Node9 -->
<g id="edge11" class="edge">
<title>Node8&#45;&gt;Node9</title>
<path fill="none" stroke="#191970" d="M522.3343,-162C546.7633,-162 578.0809,-162 605.4993,-162"/>
<polygon fill="#191970" stroke="#191970" points="605.7943,-165.5001 615.7943,-162 605.7943,-158.5001 605.7943,-165.5001"/>
</g>
<!-- Node10&#45;&gt;Node6 -->
<g id="edge13" class="edge">
<title>Node10&#45;&gt;Node6</title>
<path fill="none" stroke="#191970" d="M328.8613,-399.5556C337.7343,-402.386 347.3028,-405.6345 356,-409 384.9667,-420.2091 416.7958,-434.8241 441.0202,-446.4486"/>
<polygon fill="#191970" stroke="#191970" points="439.7139,-449.7046 450.2405,-450.9048 442.7599,-443.402 439.7139,-449.7046"/>
</g>
<!-- Node11&#45;&gt;Node6 -->
<g id="edge15" class="edge">
<title>Node11&#45;&gt;Node6</title>
<path fill="none" stroke="#191970" d="M201.2666,-567.7969C245.4525,-574.395 305.8889,-577.9351 356,-561 398.1172,-546.7664 437.2246,-511.9577 459.9841,-488.6649"/>
<polygon fill="#191970" stroke="#191970" points="462.685,-490.9043 467.0566,-481.2534 457.6208,-486.0717 462.685,-490.9043"/>
</g>
<!-- Node12 -->
<g id="node13" class="node">
<title>Node12</title>
<g id="a_node13"><a xlink:href="mpp__tri__solve__setup_8f90.xhtml#a2e951f93b66286f60c7c170802882eb9" target="_top" xlink:title="subroutine Mpp_tri_solve_setup ">
<polygon fill="#ffffff" stroke="#000000" points="237.5,-608.5 237.5,-627.5 355.5,-627.5 355.5,-608.5 237.5,-608.5"/>
<text text-anchor="middle" x="296.5" y="-615.5" font-family="Helvetica,sans-Serif" font-size="10.00" fill="#000000">mpp_tri_solve_setup</text>
</a>
</g>
</g>
<!-- Node11&#45;&gt;Node12 -->
<g id="edge16" class="edge">
<title>Node11&#45;&gt;Node12</title>
<path fill="none" stroke="#191970" d="M177.4856,-570.0901C203.5105,-580.5665 237.8819,-594.4029 262.9937,-604.5118"/>
<polygon fill="#191970" stroke="#191970" points="261.8797,-607.8363 272.4633,-608.3239 264.4938,-601.3427 261.8797,-607.8363"/>
</g>
<!-- Node13 -->
<g id="node14" class="node">
<title>Node13</title>
<g id="a_node14"><a xlink:href="solve__forward__y1_8f90.xhtml#a839159be24ea73ecf1968cc3cab1a77c" target="_top" xlink:title="Subroutine solve_forward_y1. ">
<polygon fill="#ffffff" stroke="#000000" points="245,-532.5 245,-551.5 348,-551.5 348,-532.5 245,-532.5"/>
<text text-anchor="middle" x="296.5" y="-539.5" font-family="Helvetica,sans-Serif" font-size="10.00" fill="#000000">solve_forward_y1</text>
</a>
</g>
</g>
<!-- Node11&#45;&gt;Node13 -->
<g id="edge17" class="edge">
<title>Node11&#45;&gt;Node13</title>
<path fill="none" stroke="#191970" d="M201.4038,-549.8994C212.306,-548.9938 223.6662,-548.0501 234.5826,-547.1433"/>
<polygon fill="#191970" stroke="#191970" points="235.2075,-550.6035 244.8834,-546.2876 234.6279,-543.6276 235.2075,-550.6035"/>
</g>
<!-- Node14&#45;&gt;Node6 -->
<g id="edge19" class="edge">
<title>Node14&#45;&gt;Node6</title>
<path fill="none" stroke="#191970" d="M201.2678,-466C259.7603,-466 347.8614,-466 409.4143,-466"/>
<polygon fill="#191970" stroke="#191970" points="409.4378,-469.5001 419.4377,-466 409.4377,-462.5001 409.4378,-469.5001"/>
</g>
<!-- Node14&#45;&gt;Node13 -->
<g id="edge21" class="edge">
<title>Node14&#45;&gt;Node13</title>
<path fill="none" stroke="#191970" d="M153.9298,-475.5307C172.3096,-487.7857 205.9696,-509.1359 237,-523 241.9502,-525.2117 247.2366,-527.2843 252.5388,-529.1877"/>
<polygon fill="#191970" stroke="#191970" points="251.4364,-532.5096 262.0309,-532.4246 253.6958,-525.8843 251.4364,-532.5096"/>
</g>
<!-- Node15 -->
<g id="node16" class="node">
<title>Node15</title>
<g id="a_node16"><a xlink:href="solve__backward__x1_8f90.xhtml#ad16ba821c6ee0cef37b0276b4002c6e9" target="_top" xlink:title="Subroutine solve_backward_x1. ">
<polygon fill="#ffffff" stroke="#000000" points="240,-418.5 240,-437.5 353,-437.5 353,-418.5 240,-418.5"/>
<text text-anchor="middle" x="296.5" y="-425.5" font-family="Helvetica,sans-Serif" font-size="10.00" fill="#000000">solve_backward_x1</text>
</a>
</g>
</g>
<!-- Node14&#45;&gt;Node15 -->
<g id="edge20" class="edge">
<title>Node14&#45;&gt;Node15</title>
<path fill="none" stroke="#191970" d="M179.4916,-456.411C200.1434,-451.3965 225.614,-445.2119 247.5125,-439.8947"/>
<polygon fill="#191970" stroke="#191970" points="248.4007,-443.2809 257.2924,-437.5201 246.7489,-436.4785 248.4007,-443.2809"/>
</g>
<!-- Node17&#45;&gt;Node6 -->
<g id="edge24" class="edge">
<title>Node17&#45;&gt;Node6</title>
<path fill="none" stroke="#191970" d="M192.5324,-165.9394C239.3275,-155.8006 307.6775,-149.3773 356,-181 447.0432,-240.5796 471.898,-382.9534 478.3539,-440.8604"/>
<polygon fill="#191970" stroke="#191970" points="474.8874,-441.3668 479.3857,-450.9592 481.8511,-440.6553 474.8874,-441.3668"/>
</g>
<!-- Node17&#45;&gt;Node7 -->
<g id="edge26" class="edge">
<title>Node17&#45;&gt;Node7</title>
<path fill="none" stroke="#191970" d="M177.0998,-196.1799C195.0842,-203.3725 217.059,-211.9184 237,-219 242.9683,-221.1195 249.3103,-223.2608 255.5449,-225.3038"/>
<polygon fill="#191970" stroke="#191970" points="254.5929,-228.6742 265.1846,-228.4158 256.7435,-222.0128 254.5929,-228.6742"/>
</g>
<!-- Node17&#45;&gt;Node8 -->
<g id="edge25" class="edge">
<title>Node17&#45;&gt;Node8</title>
<path fill="none" stroke="#191970" d="M153.242,-165.6992C170.3856,-147.1852 202.2159,-117.0039 237,-105 286.9956,-87.7466 304.3251,-93.7332 356,-105 392.9084,-113.0473 431.9669,-133.0665 456.2853,-147.0943"/>
<polygon fill="#191970" stroke="#191970" points="454.7591,-150.2576 465.1509,-152.3219 458.3146,-144.2277 454.7591,-150.2576"/>
</g>
<!-- Node18 -->
<g id="node19" class="node">
<title>Node18</title>
<g id="a_node19"><a xlink:href="mpp__tri__solve__exec_8f90.xhtml#aa86f8306d47932da5d2b84f847a9e663" target="_top" xlink:title="subroutine Mpp_tri_solve_exec ">
<polygon fill="#ffffff" stroke="#000000" points="239.5,-114.5 239.5,-133.5 353.5,-133.5 353.5,-114.5 239.5,-114.5"/>
<text text-anchor="middle" x="296.5" y="-121.5" font-family="Helvetica,sans-Serif" font-size="10.00" fill="#000000">mpp_tri_solve_exec</text>
</a>
</g>
</g>
<!-- Node17&#45;&gt;Node18 -->
<g id="edge27" class="edge">
<title>Node17&#45;&gt;Node18</title>
<path fill="none" stroke="#191970" d="M181.5282,-165.8747C206.0912,-156.9285 236.8973,-145.7083 260.4374,-137.1346"/>
<polygon fill="#191970" stroke="#191970" points="261.8435,-140.3475 270.0418,-133.6365 259.4478,-133.7702 261.8435,-140.3475"/>
</g>
<!-- Node19 -->
<g id="node20" class="node">
<title>Node19</title>
<g id="a_node20"><a xlink:href="solve__forward__y2_8f90.xhtml#a165c227d7694d4a931ad5789c5c5b970" target="_top" xlink:title="Subroutine solve_forward_y2. ">
<polygon fill="#ffffff" stroke="#000000" points="245,-190.5 245,-209.5 348,-209.5 348,-190.5 245,-190.5"/>
<text text-anchor="middle" x="296.5" y="-197.5" font-family="Helvetica,sans-Serif" font-size="10.00" fill="#000000">solve_forward_y2</text>
</a>
</g>
</g>
<!-- Node17&#45;&gt;Node19 -->
<g id="edge28" class="edge">
<title>Node17&#45;&gt;Node19</title>
<path fill="none" stroke="#191970" d="M199.6124,-188.2373C211.1705,-189.6405 223.3046,-191.1137 234.9243,-192.5244"/>
<polygon fill="#191970" stroke="#191970" points="234.6268,-196.0139 244.9757,-193.7447 235.4705,-189.0649 234.6268,-196.0139"/>
</g>
<!-- Node20&#45;&gt;Node6 -->
<g id="edge30" class="edge">
<title>Node20&#45;&gt;Node6</title>
<path fill="none" stroke="#191970" d="M199.9519,-335.9025C244.5753,-339.8517 306.1289,-349.1479 356,-371 396.0487,-388.5482 434.9126,-421.5395 458.2755,-443.6459"/>
<polygon fill="#191970" stroke="#191970" points="455.9539,-446.2694 465.5836,-450.6875 460.8109,-441.2285 455.9539,-446.2694"/>
</g>
<!-- Node20&#45;&gt;Node7 -->
<g id="edge32" class="edge">
<title>Node20&#45;&gt;Node7</title>
<path fill="none" stroke="#191970" d="M173.6829,-323.4696C183.0753,-319.856 192.9123,-315.0974 201,-309 222.0104,-293.16 216.0575,-277.9298 237,-262 242.2361,-258.0172 248.2232,-254.5947 254.3361,-251.6859"/>
<polygon fill="#191970" stroke="#191970" points="256.1631,-254.7094 263.9557,-247.5312 253.3876,-248.2831 256.1631,-254.7094"/>
</g>
<!-- Node20&#45;&gt;Node8 -->
<g id="edge31" class="edge">
<title>Node20&#45;&gt;Node8</title>
<path fill="none" stroke="#191970" d="M164.2594,-323.4514C191.7917,-312.6214 233.3782,-296.2862 237,-295 289.3188,-276.4202 306.7655,-282.66 356,-257 397.6582,-235.2886 439.7969,-199.6094 462.7912,-178.707"/>
<polygon fill="#191970" stroke="#191970" points="465.381,-181.0799 470.3602,-171.728 460.6358,-175.9336 465.381,-181.0799"/>
</g>
<!-- Node20&#45;&gt;Node15 -->
<g id="edge34" class="edge">
<title>Node20&#45;&gt;Node15</title>
<path fill="none" stroke="#191970" d="M149.6357,-342.5082C166.1822,-358.3582 201.6421,-390.2835 237,-409 241.0447,-411.141 245.3728,-413.0925 249.7811,-414.8588"/>
<polygon fill="#191970" stroke="#191970" points="248.887,-418.2593 259.4805,-418.4311 251.3064,-411.6906 248.887,-418.2593"/>
</g>
<!-- Node20&#45;&gt;Node19 -->
<g id="edge35" class="edge">
<title>Node20&#45;&gt;Node19</title>
<path fill="none" stroke="#191970" d="M152.1004,-323.3019C165.0732,-312.5554 185.8454,-294.3132 201,-276 220.1025,-252.916 213.2981,-237.3302 237,-219 239.3321,-217.1964 241.8399,-215.5617 244.4599,-214.0802"/>
<polygon fill="#191970" stroke="#191970" points="246.2264,-217.1138 253.7071,-209.6111 243.1804,-210.8112 246.2264,-217.1138"/>
</g>
<!-- Node21 -->
<g id="node22" class="node">
<title>Node21</title>
<g id="a_node22"><a xlink:href="solve__forward__x2_8f90.xhtml#a85315af01cd761bf23926520911503f1" target="_top" xlink:title="Subroutine solve_forward_x2. ">
<polygon fill="#ffffff" stroke="#000000" points="245,-304.5 245,-323.5 348,-323.5 348,-304.5 245,-304.5"/>
<text text-anchor="middle" x="296.5" y="-311.5" font-family="Helvetica,sans-Serif" font-size="10.00" fill="#000000">solve_forward_x2</text>
</a>
</g>
</g>
<!-- Node20&#45;&gt;Node21 -->
<g id="edge33" class="edge">
<title>Node20&#45;&gt;Node21</title>
<path fill="none" stroke="#191970" d="M199.6124,-325.7627C211.1705,-324.3595 223.3046,-322.8863 234.9243,-321.4756"/>
<polygon fill="#191970" stroke="#191970" points="235.4705,-324.9351 244.9757,-320.2553 234.6268,-317.9861 235.4705,-324.9351"/>
</g>
<!-- Node22&#45;&gt;Node1 -->
<g id="edge38" class="edge">
<title>Node22&#45;&gt;Node1</title>
<path fill="none" stroke="#191970" d="M184.0105,-732C197.1782,-732 211.9573,-732 226.3654,-732"/>
<polygon fill="#191970" stroke="#191970" points="226.7629,-735.5001 236.7628,-732 226.7628,-728.5001 226.7629,-735.5001"/>
</g>
<!-- Node24&#45;&gt;Node1 -->
<g id="edge42" class="edge">
<title>Node24&#45;&gt;Node1</title>
<path fill="none" stroke="#191970" d="M169.333,-665.5979C179.6414,-669.471 191.1122,-674.3656 201,-680 218.6112,-690.0354 219.4319,-697.8893 237,-708 243.7034,-711.8579 251.1479,-715.3887 258.4382,-718.486"/>
<polygon fill="#191970" stroke="#191970" points="257.6169,-721.9291 268.1999,-722.4309 260.2397,-715.439 257.6169,-721.9291"/>
</g>
<!-- Node24&#45;&gt;Node6 -->
<g id="edge41" class="edge">
<title>Node24&#45;&gt;Node6</title>
<path fill="none" stroke="#191970" d="M172.3514,-665.5081C216.7465,-676.6042 297.6768,-689.6927 356,-658 422.1086,-622.0767 458.5415,-534.2265 473.0259,-490.9389"/>
<polygon fill="#191970" stroke="#191970" points="476.4301,-491.7859 476.1654,-481.1944 469.7674,-489.6392 476.4301,-491.7859"/>
</g>
<!-- Node25&#45;&gt;Node6 -->
<g id="edge44" class="edge">
<title>Node25&#45;&gt;Node6</title>
<path fill="none" stroke="#191970" d="M160.3863,-621.5336C200.3404,-638.7319 290.73,-670.2157 356,-637 416.817,-606.0504 454.9414,-529.9328 471.2729,-490.5271"/>
<polygon fill="#191970" stroke="#191970" points="474.5697,-491.7092 475.043,-481.125 468.0726,-489.1039 474.5697,-491.7092"/>
</g>
</g>
</svg>
