<?xml version="1.0" encoding="UTF-8" standalone="no"?>
<!DOCTYPE svg PUBLIC "-//W3C//DTD SVG 1.1//EN"
 "http://www.w3.org/Graphics/SVG/1.1/DTD/svg11.dtd">
<!-- Generated by graphviz version 2.40.1 (20161225.0304)
 -->
<!-- Title: gcr_precon_adi_exec Pages: 1 -->
<!--zoomable 216 -->
<svg id="main" version="1.1" xmlns="http://www.w3.org/2000/svg" xmlns:xlink="http://www.w3.org/1999/xlink" xml:space="preserve" onload="init(evt)">
<style type="text/css"><![CDATA[
.edge:hover path { stroke: red; }
.edge:hover polygon { stroke: red; fill: red; }
]]></style>
<script type="text/javascript"><![CDATA[
var edges = document.getElementsByTagName('g');
if (edges && edges.length) {
  for (var i=0;i<edges.length;i++) {
    if (edges[i].id.substr(0,4)=='edge') {
      edges[i].setAttribute('class','edge');
    }
  }
}
]]></script>
        <defs>
                <circle id="rim" cx="0" cy="0" r="7"/>
                <circle id="rim2" cx="0" cy="0" r="3.5"/>
                <g id="zoomPlus">
                        <use xlink:href="#rim" fill="#404040">
                                <set attributeName="fill" to="#808080" begin="zoomplus.mouseover" end="zoomplus.mouseout"/>
                        </use>
                        <path d="M-4,0h8M0,-4v8" fill="none" stroke="white" stroke-width="1.5" pointer-events="none"/>
                </g>
                <g id="zoomMin">
                        <use xlink:href="#rim" fill="#404040">
                                <set attributeName="fill" to="#808080" begin="zoomminus.mouseover" end="zoomminus.mouseout"/>
                        </use>
                        <path d="M-4,0h8" fill="none" stroke="white" stroke-width="1.5" pointer-events="none"/>
                </g>
                <g id="dirArrow">
                        <path fill="none" stroke="white" stroke-width="1.5" d="M0,-3.0v7 M-2.5,-0.5L0,-3.0L2.5,-0.5"/>
                </g>
               <g id="resetDef">
                       <use xlink:href="#rim2" fill="#404040">
                               <set attributeName="fill" to="#808080" begin="reset.mouseover" end="reset.mouseout"/>
                       </use>
               </g>
        </defs>

<script type="text/javascript">
var viewWidth = 579;
var viewHeight = 216;
var sectionId = 'dynsection-0';
</script>
<script xlink:href="svgpan.js"/>
<svg id="graph" class="graph">
<g id="viewport">
<title>gcr_precon_adi_exec</title>
<polygon fill="#ffffff" stroke="transparent" points="-4,4 -4,-211.5 575,-211.5 575,4 -4,4"/>
<!-- Node0 -->
<g id="node1" class="node">
<title>Node0</title>
<polygon fill="#bfbfbf" stroke="#000000" points="0,-95.5 0,-114.5 119,-114.5 119,-95.5 0,-95.5"/>
<text text-anchor="middle" x="59.5" y="-102.5" font-family="Helvetica,sans-Serif" font-size="10.00" fill="#000000">gcr_precon_adi_exec</text>
</g>
<!-- Node1 -->
<g id="node2" class="node">
<title>Node1</title>
<g id="a_node2"><a xlink:href="namespaceglobal__2d__sums__mod.xhtml#ac3fe3c2679168085c4635a17e5f82215" target="_top" xlink:title="global_2d_sums_mod\l::global_2d_sums">
<polygon fill="#ffffff" stroke="#000000" points="307,-177 307,-207 429,-207 429,-177 307,-177"/>
<text text-anchor="start" x="315" y="-195" font-family="Helvetica,sans-Serif" font-size="10.00" fill="#000000">global_2d_sums_mod</text>
<text text-anchor="middle" x="368" y="-184" font-family="Helvetica,sans-Serif" font-size="10.00" fill="#000000">::global_2d_sums</text>
</a>
</g>
</g>
<!-- Node0&#45;&gt;Node1 -->
<g id="edge1" class="edge">
<title>Node0&#45;&gt;Node1</title>
<path fill="none" stroke="#191970" d="M67.762,-114.7077C82.9803,-131.7865 117.348,-166.7464 155,-181 199.9491,-198.016 254.0742,-200.6048 296.5151,-199.0219"/>
<polygon fill="#191970" stroke="#191970" points="296.9344,-202.5064 306.7632,-198.551 296.6131,-195.5138 296.9344,-202.5064"/>
</g>
<!-- Node2 -->
<g id="node3" class="node">
<title>Node2</title>
<g id="a_node3"><a xlink:href="swap__bounds-swpbnd2a_8f90.xhtml#aa0269e41062e156c437596022ea9ccd0" target="_top" xlink:title="Portable GCOM based version SWAP_BOUNDS. ">
<polygon fill="#ffffff" stroke="#000000" points="326.5,-130.5 326.5,-149.5 409.5,-149.5 409.5,-130.5 326.5,-130.5"/>
<text text-anchor="middle" x="368" y="-137.5" font-family="Helvetica,sans-Serif" font-size="10.00" fill="#000000">swap_bounds</text>
</a>
</g>
</g>
<!-- Node0&#45;&gt;Node2 -->
<g id="edge2" class="edge">
<title>Node0&#45;&gt;Node2</title>
<path fill="none" stroke="#191970" d="M119.3477,-111.7899C176.4683,-118.2703 261.6518,-127.9346 316.0071,-134.1013"/>
<polygon fill="#191970" stroke="#191970" points="315.7857,-137.5985 326.1166,-135.2482 316.5749,-130.6432 315.7857,-137.5985"/>
</g>
<!-- Node4 -->
<g id="node5" class="node">
<title>Node4</title>
<g id="a_node5"><a xlink:href="gcr__elliptic__operator-gcrell2a_8f90.xhtml#a7f00ed4d3f4c8050c321052ba23d5305" target="_top" xlink:title="Subroutine GCR_Elliptic_Operator. ">
<polygon fill="#ffffff" stroke="#000000" points="155,-152.5 155,-171.5 271,-171.5 271,-152.5 155,-152.5"/>
<text text-anchor="middle" x="213" y="-159.5" font-family="Helvetica,sans-Serif" font-size="10.00" fill="#000000">gcr_elliptic_operator</text>
</a>
</g>
</g>
<!-- Node0&#45;&gt;Node4 -->
<g id="edge4" class="edge">
<title>Node0&#45;&gt;Node4</title>
<path fill="none" stroke="#191970" d="M85.1924,-114.5405C110.5392,-123.9527 149.4828,-138.4138 177.7216,-148.8999"/>
<polygon fill="#191970" stroke="#191970" points="176.6308,-152.2283 187.2237,-152.4284 179.0676,-145.6661 176.6308,-152.2283"/>
</g>
<!-- Node5 -->
<g id="node6" class="node">
<title>Node5</title>
<g id="a_node6"><a xlink:href="solve__forward__x2_8f90.xhtml#a85315af01cd761bf23926520911503f1" target="_top" xlink:title="Subroutine solve_forward_x2. ">
<polygon fill="#ffffff" stroke="#000000" points="161.5,-76.5 161.5,-95.5 264.5,-95.5 264.5,-76.5 161.5,-76.5"/>
<text text-anchor="middle" x="213" y="-83.5" font-family="Helvetica,sans-Serif" font-size="10.00" fill="#000000">solve_forward_x2</text>
</a>
</g>
</g>
<!-- Node0&#45;&gt;Node5 -->
<g id="edge7" class="edge">
<title>Node0&#45;&gt;Node5</title>
<path fill="none" stroke="#191970" d="M119.2866,-97.5997C129.7487,-96.3047 140.6533,-94.955 151.1694,-93.6533"/>
<polygon fill="#191970" stroke="#191970" points="151.6112,-97.1254 161.1055,-92.4234 150.7512,-90.1784 151.6112,-97.1254"/>
</g>
<!-- Node6 -->
<g id="node7" class="node">
<title>Node6</title>
<g id="a_node7"><a xlink:href="solve__backward__x1_8f90.xhtml#ad16ba821c6ee0cef37b0276b4002c6e9" target="_top" xlink:title="Subroutine solve_backward_x1. ">
<polygon fill="#ffffff" stroke="#000000" points="156.5,-38.5 156.5,-57.5 269.5,-57.5 269.5,-38.5 156.5,-38.5"/>
<text text-anchor="middle" x="213" y="-45.5" font-family="Helvetica,sans-Serif" font-size="10.00" fill="#000000">solve_backward_x1</text>
</a>
</g>
</g>
<!-- Node0&#45;&gt;Node6 -->
<g id="edge8" class="edge">
<title>Node0&#45;&gt;Node6</title>
<path fill="none" stroke="#191970" d="M82.5035,-95.381C101.7521,-87.4447 130.0026,-76.0578 155,-67 160.7438,-64.9187 166.8423,-62.8112 172.8445,-60.7948"/>
<polygon fill="#191970" stroke="#191970" points="174.3813,-63.973 182.7751,-57.5081 172.1818,-57.3275 174.3813,-63.973"/>
</g>
<!-- Node7 -->
<g id="node8" class="node">
<title>Node7</title>
<g id="a_node8"><a xlink:href="solve__forward__y2_8f90.xhtml#a165c227d7694d4a931ad5789c5c5b970" target="_top" xlink:title="Subroutine solve_forward_y2. ">
<polygon fill="#ffffff" stroke="#000000" points="161.5,-.5 161.5,-19.5 264.5,-19.5 264.5,-.5 161.5,-.5"/>
<text text-anchor="middle" x="213" y="-7.5" font-family="Helvetica,sans-Serif" font-size="10.00" fill="#000000">solve_forward_y2</text>
</a>
</g>
</g>
<!-- Node0&#45;&gt;Node7 -->
<g id="edge9" class="edge">
<title>Node0&#45;&gt;Node7</title>
<path fill="none" stroke="#191970" d="M69.2344,-95.255C85.6135,-79.3466 120.307,-47.7003 155,-29 158.9903,-26.8491 163.2667,-24.8865 167.6222,-23.1093"/>
<polygon fill="#191970" stroke="#191970" points="169.0703,-26.3043 177.2029,-19.5138 166.6107,-19.7506 169.0703,-26.3043"/>
</g>
<!-- Node3 -->
<g id="node4" class="node">
<title>Node3</title>
<g id="a_node4"><a xlink:href="fill__external__halos_8f90.xhtml#a9f4e1e061e136821fb9a51281a5e69c2" target="_top" xlink:title="Routine for filling in External Halos. ">
<polygon fill="#ffffff" stroke="#000000" points="465,-130.5 465,-149.5 571,-149.5 571,-130.5 465,-130.5"/>
<text text-anchor="middle" x="518" y="-137.5" font-family="Helvetica,sans-Serif" font-size="10.00" fill="#000000">fill_external_halos</text>
</a>
</g>
</g>
<!-- Node2&#45;&gt;Node3 -->
<g id="edge3" class="edge">
<title>Node2&#45;&gt;Node3</title>
<path fill="none" stroke="#191970" d="M409.7834,-140C423.6587,-140 439.4349,-140 454.5673,-140"/>
<polygon fill="#191970" stroke="#191970" points="454.9095,-143.5001 464.9095,-140 454.9094,-136.5001 454.9095,-143.5001"/>
</g>
<!-- Node4&#45;&gt;Node1 -->
<g id="edge5" class="edge">
<title>Node4&#45;&gt;Node1</title>
<path fill="none" stroke="#191970" d="M262.4691,-171.5747C273.3645,-173.6835 285.1142,-175.9576 296.6791,-178.196"/>
<polygon fill="#191970" stroke="#191970" points="296.2857,-181.6847 306.7686,-180.1488 297.6159,-174.8122 296.2857,-181.6847"/>
</g>
<!-- Node4&#45;&gt;Node2 -->
<g id="edge6" class="edge">
<title>Node4&#45;&gt;Node2</title>
<path fill="none" stroke="#191970" d="M271.1573,-153.7454C285.9499,-151.6458 301.7469,-149.4037 316.1993,-147.3524"/>
<polygon fill="#191970" stroke="#191970" points="317.0428,-150.7678 326.4517,-145.8972 316.0591,-143.8373 317.0428,-150.7678"/>
</g>
</g>
</svg>
        <g id="navigator" transform="translate(0 0)" fill="#404254">
                <rect fill="#f2f5e9" fill-opacity="0.5" stroke="#606060" stroke-width=".5" x="0" y="0" width="60" height="60"/>
                <use id="zoomplus" xlink:href="#zoomPlus" x="17" y="9" onmousedown="handleZoom(evt,'in')"/>
                <use id="zoomminus" xlink:href="#zoomMin" x="42" y="9" onmousedown="handleZoom(evt,'out')"/>
                <use id="reset" xlink:href="#resetDef" x="30" y="36" onmousedown="handleReset()"/>
                <g id="arrowUp" xlink:href="#dirArrow" transform="translate(30 24)" onmousedown="handlePan(0,-1)">
                  <use xlink:href="#rim" fill="#404040">
                        <set attributeName="fill" to="#808080" begin="arrowUp.mouseover" end="arrowUp.mouseout"/>
                  </use>
                  <path fill="none" stroke="white" stroke-width="1.5" d="M0,-3.0v7 M-2.5,-0.5L0,-3.0L2.5,-0.5"/>
                </g>
                <g id="arrowRight" xlink:href="#dirArrow" transform="rotate(90) translate(36 -43)" onmousedown="handlePan(1,0)">
                  <use xlink:href="#rim" fill="#404040">
                        <set attributeName="fill" to="#808080" begin="arrowRight.mouseover" end="arrowRight.mouseout"/>
                  </use>
                  <path fill="none" stroke="white" stroke-width="1.5" d="M0,-3.0v7 M-2.5,-0.5L0,-3.0L2.5,-0.5"/>
                </g>
                <g id="arrowDown" xlink:href="#dirArrow" transform="rotate(180) translate(-30 -48)" onmousedown="handlePan(0,1)">
                  <use xlink:href="#rim" fill="#404040">
                        <set attributeName="fill" to="#808080" begin="arrowDown.mouseover" end="arrowDown.mouseout"/>
                  </use>
                  <path fill="none" stroke="white" stroke-width="1.5" d="M0,-3.0v7 M-2.5,-0.5L0,-3.0L2.5,-0.5"/>
                </g>
                <g id="arrowLeft" xlink:href="#dirArrow" transform="rotate(270) translate(-36 17)" onmousedown="handlePan(-1,0)">
                  <use xlink:href="#rim" fill="#404040">
                        <set attributeName="fill" to="#808080" begin="arrowLeft.mouseover" end="arrowLeft.mouseout"/>
                  </use>
                  <path fill="none" stroke="white" stroke-width="1.5" d="M0,-3.0v7 M-2.5,-0.5L0,-3.0L2.5,-0.5"/>
                </g>
        </g>
        <svg viewBox="0 0 15 15" width="100%" height="30px" preserveAspectRatio="xMaxYMin meet">
         <g id="arrow_out" transform="scale(0.3 0.3)">
          <a xlink:href="gcr__precon__adi__exec-gcrpae2a_8f90_a7a2461a86b23fe848ffae77bf81a5966_cgraph_org.svg" target="_base">
           <rect id="button" ry="5" rx="5" y="6" x="6" height="38" width="38"
                fill="#f2f5e9" fill-opacity="0.5" stroke="#606060" stroke-width="1.0"/>
           <path id="arrow"
             d="M 11.500037,31.436501 C 11.940474,20.09759 22.043105,11.32322 32.158766,21.979434 L 37.068811,17.246167 C 37.068811,17.246167 37.088388,32 37.088388,32 L 22.160133,31.978069 C 22.160133,31.978069 26.997745,27.140456 26.997745,27.140456 C 18.528582,18.264221 13.291696,25.230495 11.500037,31.436501 z"
             style="fill:#404040;"/>
          </a>
         </g>
        </svg>
</svg>
