<?xml version="1.0" encoding="UTF-8" standalone="no"?>
<!DOCTYPE svg PUBLIC "-//W3C//DTD SVG 1.1//EN"
 "http://www.w3.org/Graphics/SVG/1.1/DTD/svg11.dtd">
<!-- Generated by graphviz version 2.40.1 (20161225.0304)
 -->
<!-- Title: gcr_precon_adi_exec_trisol Pages: 1 -->
<!--zoomable 218 -->
<svg id="main" version="1.1" xmlns="http://www.w3.org/2000/svg" xmlns:xlink="http://www.w3.org/1999/xlink" xml:space="preserve" onload="init(evt)">
<style type="text/css"><![CDATA[
.edge:hover path { stroke: red; }
.edge:hover polygon { stroke: red; fill: red; }
]]></style>
<script type="text/javascript"><![CDATA[
var edges = document.getElementsByTagName('g');
if (edges && edges.length) {
  for (var i=0;i<edges.length;i++) {
    if (edges[i].id.substr(0,4)=='edge') {
      edges[i].setAttribute('class','edge');
    }
  }
}
]]></script>
        <defs>
                <circle id="rim" cx="0" cy="0" r="7"/>
                <circle id="rim2" cx="0" cy="0" r="3.5"/>
                <g id="zoomPlus">
                        <use xlink:href="#rim" fill="#404040">
                                <set attributeName="fill" to="#808080" begin="zoomplus.mouseover" end="zoomplus.mouseout"/>
                        </use>
                        <path d="M-4,0h8M0,-4v8" fill="none" stroke="white" stroke-width="1.5" pointer-events="none"/>
                </g>
                <g id="zoomMin">
                        <use xlink:href="#rim" fill="#404040">
                                <set attributeName="fill" to="#808080" begin="zoomminus.mouseover" end="zoomminus.mouseout"/>
                        </use>
                        <path d="M-4,0h8" fill="none" stroke="white" stroke-width="1.5" pointer-events="none"/>
                </g>
                <g id="dirArrow">
                        <path fill="none" stroke="white" stroke-width="1.5" d="M0,-3.0v7 M-2.5,-0.5L0,-3.0L2.5,-0.5"/>
                </g>
               <g id="resetDef">
                       <use xlink:href="#rim2" fill="#404040">
                               <set attributeName="fill" to="#808080" begin="reset.mouseover" end="reset.mouseout"/>
                       </use>
               </g>
        </defs>

<script type="text/javascript">
var viewWidth = 907;
var viewHeight = 218;
var sectionId = 'dynsection-1';
</script>
<script xlink:href="svgpan.js"/>
<svg id="graph" class="graph">
<g id="viewport">
<title>gcr_precon_adi_exec_trisol</title>
<polygon fill="#ffffff" stroke="transparent" points="-4,4 -4,-214 903,-214 903,4 -4,4"/>
<!-- Node7 -->
<g id="node1" class="node">
<title>Node7</title>
<polygon fill="#bfbfbf" stroke="#000000" points="0,-90 0,-120 119,-120 119,-90 0,-90"/>
<text text-anchor="start" x="8" y="-108" font-family="Helvetica,sans-Serif" font-size="10.00" fill="#000000">gcr_precon_adi_exec</text>
<text text-anchor="middle" x="59.5" y="-97" font-family="Helvetica,sans-Serif" font-size="10.00" fill="#000000">_trisol</text>
</g>
<!-- Node8 -->
<g id="node2" class="node">
<title>Node8</title>
<g id="a_node2"><a xlink:href="gcr__k-gcrk2a_8f90.xhtml#aeed4250f3cc10756cf5a8833e62d469a" target="_top" xlink:title="Subroutine GCR_k. ">
<polygon fill="#ffffff" stroke="#000000" points="155,-95.5 155,-114.5 198,-114.5 198,-95.5 155,-95.5"/>
<text text-anchor="middle" x="176.5" y="-102.5" font-family="Helvetica,sans-Serif" font-size="10.00" fill="#000000">gcr_k</text>
</a>
</g>
</g>
<!-- Node7&#45;&gt;Node8 -->
<g id="edge1" class="edge">
<title>Node7&#45;&gt;Node8</title>
<path fill="none" stroke="#191970" d="M129.2241,-105C138.5211,-105 147.4252,-105 154.9488,-105"/>
<polygon fill="#191970" stroke="#191970" points="129.0283,-101.5001 119.0283,-105 129.0282,-108.5001 129.0283,-101.5001"/>
</g>
<!-- Node9 -->
<g id="node3" class="node">
<title>Node9</title>
<g id="a_node3"><a xlink:href="pe__helmholtz__eul-global2a_8f90.xhtml#a186cd3eb538e4a37f4988dd38f091401" target="_top" xlink:title="Subroutine PE_Helmholtz_global. ">
<polygon fill="#ffffff" stroke="#000000" points="247,-190.5 247,-209.5 365,-209.5 365,-190.5 247,-190.5"/>
<text text-anchor="middle" x="306" y="-197.5" font-family="Helvetica,sans-Serif" font-size="10.00" fill="#000000">pe_helmholtz_global</text>
</a>
</g>
</g>
<!-- Node8&#45;&gt;Node9 -->
<g id="edge2" class="edge">
<title>Node8&#45;&gt;Node9</title>
<path fill="none" stroke="#191970" d="M185.9372,-123.7656C195.652,-141.1779 212.4019,-166.5216 234,-181 239.7987,-184.8872 246.3547,-187.9799 253.0905,-190.4403"/>
<polygon fill="#191970" stroke="#191970" points="188.8332,-121.757 181.0468,-114.5721 182.6532,-125.0444 188.8332,-121.757"/>
</g>
<!-- Node15 -->
<g id="node9" class="node">
<title>Node15</title>
<g id="a_node9"><a xlink:href="pe__helmholtz__eul-global2b_8f90.xhtml#a3f54757bf8f64bef80b9f7b1710e9e83" target="_top" xlink:title="Subroutine PE_Helmholtz_global_2B. ">
<polygon fill="#ffffff" stroke="#000000" points="238.5,-152.5 238.5,-171.5 373.5,-171.5 373.5,-152.5 238.5,-152.5"/>
<text text-anchor="middle" x="306" y="-159.5" font-family="Helvetica,sans-Serif" font-size="10.00" fill="#000000">pe_helmholtz_global_2b</text>
</a>
</g>
</g>
<!-- Node8&#45;&gt;Node15 -->
<g id="edge8" class="edge">
<title>Node8&#45;&gt;Node15</title>
<path fill="none" stroke="#191970" d="M196.7633,-120.7513C207.3716,-128.3703 220.8609,-137.1168 234,-143 242.3774,-146.7511 251.6461,-149.883 260.6674,-152.4506"/>
<polygon fill="#191970" stroke="#191970" points="198.7196,-117.8447 188.601,-114.7041 194.5526,-123.4693 198.7196,-117.8447"/>
</g>
<!-- Node16 -->
<g id="node10" class="node">
<title>Node16</title>
<g id="a_node10"><a xlink:href="pe__helmholtz__eul-pehelmeu2a_8f90.xhtml#a0ca49c8b00c23924e23a28b7f8034343" target="_top" xlink:title="Subroutine PE_Helmholtz_eul. ">
<polygon fill="#ffffff" stroke="#000000" points="254.5,-114.5 254.5,-133.5 357.5,-133.5 357.5,-114.5 254.5,-114.5"/>
<text text-anchor="middle" x="306" y="-121.5" font-family="Helvetica,sans-Serif" font-size="10.00" fill="#000000">pe_helmholtz_eul</text>
</a>
</g>
</g>
<!-- Node8&#45;&gt;Node16 -->
<g id="edge10" class="edge">
<title>Node8&#45;&gt;Node16</title>
<path fill="none" stroke="#191970" d="M208.1881,-109.6492C222.071,-111.6861 238.7251,-114.1296 254.3232,-116.4181"/>
<polygon fill="#191970" stroke="#191970" points="208.5776,-106.169 198.1754,-108.1802 207.5614,-113.0948 208.5776,-106.169"/>
</g>
<!-- Node17 -->
<g id="node11" class="node">
<title>Node17</title>
<g id="a_node11"><a xlink:href="pe__helmholtz__eul-pehelmeu2b_8f90.xhtml#aa0efe18d51360d9e3b92a3834d70e94e" target="_top" xlink:title="Subroutine PE_Helmholtz_eul_2B. ">
<polygon fill="#ffffff" stroke="#000000" points="246,-76.5 246,-95.5 366,-95.5 366,-76.5 246,-76.5"/>
<text text-anchor="middle" x="306" y="-83.5" font-family="Helvetica,sans-Serif" font-size="10.00" fill="#000000">pe_helmholtz_eul_2b</text>
</a>
</g>
</g>
<!-- Node8&#45;&gt;Node17 -->
<g id="edge12" class="edge">
<title>Node8&#45;&gt;Node17</title>
<path fill="none" stroke="#191970" d="M208.0961,-100.3643C219.5458,-98.6844 232.8896,-96.7266 245.9746,-94.8068"/>
<polygon fill="#191970" stroke="#191970" points="207.5614,-96.9052 198.1754,-101.8198 208.5776,-103.831 207.5614,-96.9052"/>
</g>
<!-- Node18 -->
<g id="node12" class="node">
<title>Node18</title>
<g id="a_node12"><a xlink:href="pe__helmholtz__eul__mix-pe__helm__eul__mix_8f90.xhtml#a1da8ffae54e8baf118931f74188679b6" target="_top" xlink:title="Subroutine PE_Helmholtz_eul_mix. ">
<polygon fill="#ffffff" stroke="#000000" points="242.5,-38.5 242.5,-57.5 369.5,-57.5 369.5,-38.5 242.5,-38.5"/>
<text text-anchor="middle" x="306" y="-45.5" font-family="Helvetica,sans-Serif" font-size="10.00" fill="#000000">pe_helmholtz_eul_mix</text>
</a>
</g>
</g>
<!-- Node8&#45;&gt;Node18 -->
<g id="edge14" class="edge">
<title>Node8&#45;&gt;Node18</title>
<path fill="none" stroke="#191970" d="M196.7633,-89.2487C207.3716,-81.6297 220.8609,-72.8832 234,-67 242.3774,-63.2489 251.6461,-60.117 260.6674,-57.5494"/>
<polygon fill="#191970" stroke="#191970" points="194.5526,-86.5307 188.601,-95.2959 198.7196,-92.1553 194.5526,-86.5307"/>
</g>
<!-- Node19 -->
<g id="node13" class="node">
<title>Node19</title>
<g id="a_node13"><a xlink:href="pe__helmholtz__eul__mix-pe__helm__eul__mix2b_8f90.xhtml#a3cb509677a9ae3cb922c1859c135890b" target="_top" xlink:title="Subroutine PE_Helmholtz_eul_mix_2B. ">
<polygon fill="#ffffff" stroke="#000000" points="234,-.5 234,-19.5 378,-19.5 378,-.5 234,-.5"/>
<text text-anchor="middle" x="306" y="-7.5" font-family="Helvetica,sans-Serif" font-size="10.00" fill="#000000">pe_helmholtz_eul_mix_2b</text>
</a>
</g>
</g>
<!-- Node8&#45;&gt;Node19 -->
<g id="edge16" class="edge">
<title>Node8&#45;&gt;Node19</title>
<path fill="none" stroke="#191970" d="M185.9372,-86.2344C195.652,-68.8221 212.4019,-43.4784 234,-29 239.7987,-25.1128 246.3547,-22.0201 253.0905,-19.5597"/>
<polygon fill="#191970" stroke="#191970" points="182.6532,-84.9556 181.0468,-95.4279 188.8332,-88.243 182.6532,-84.9556"/>
</g>
<!-- Node10 -->
<g id="node4" class="node">
<title>Node10</title>
<g id="a_node4"><a xlink:href="ni__pe__helmholtz_8f90.xhtml#a69d5566c0852d7caa4baa84a26341b21" target="_top" xlink:title="ni_pe_helmholtz">
<polygon fill="#ffffff" stroke="#000000" points="414,-95.5 414,-114.5 511,-114.5 511,-95.5 414,-95.5"/>
<text text-anchor="middle" x="462.5" y="-102.5" font-family="Helvetica,sans-Serif" font-size="10.00" fill="#000000">ni_pe_helmholtz</text>
</a>
</g>
</g>
<!-- Node9&#45;&gt;Node10 -->
<g id="edge3" class="edge">
<title>Node9&#45;&gt;Node10</title>
<path fill="none" stroke="#191970" d="M364.5308,-187.1255C369.1965,-185.3305 373.7452,-183.2982 378,-181 410.6372,-163.3711 440.9099,-130.6473 454.6895,-114.5067"/>
<polygon fill="#191970" stroke="#191970" points="363.146,-183.9011 354.8458,-190.4857 365.4406,-190.5144 363.146,-183.9011"/>
</g>
<!-- Node11 -->
<g id="node5" class="node">
<title>Node11</title>
<g id="a_node5"><a xlink:href="atm__step_8f90.xhtml#ac0ee2467a1a9959b7065fdb8fd27bce4" target="_top" xlink:title="Perform a 1&#45;timestep integration of the Atmosphere Model. ">
<polygon fill="#ffffff" stroke="#000000" points="547,-95.5 547,-114.5 609,-114.5 609,-95.5 547,-95.5"/>
<text text-anchor="middle" x="578" y="-102.5" font-family="Helvetica,sans-Serif" font-size="10.00" fill="#000000">atm_step</text>
</a>
</g>
</g>
<!-- Node10&#45;&gt;Node11 -->
<g id="edge4" class="edge">
<title>Node10&#45;&gt;Node11</title>
<path fill="none" stroke="#191970" d="M521.4239,-105C530.2051,-105 538.9501,-105 546.8463,-105"/>
<polygon fill="#191970" stroke="#191970" points="521.1477,-101.5001 511.1476,-105 521.1476,-108.5001 521.1477,-101.5001"/>
</g>
<!-- Node12 -->
<g id="node6" class="node">
<title>Node12</title>
<g id="a_node6"><a xlink:href="u__model_8f90.xhtml#ada0cd2ce4699433bf0f9adbd882c8eec" target="_top" xlink:title="Subroutine: U_MODEL &#45;!&gt; ">
<polygon fill="#ffffff" stroke="#000000" points="645,-95.5 645,-114.5 704,-114.5 704,-95.5 645,-95.5"/>
<text text-anchor="middle" x="674.5" y="-102.5" font-family="Helvetica,sans-Serif" font-size="10.00" fill="#000000">u_model</text>
</a>
</g>
</g>
<!-- Node11&#45;&gt;Node12 -->
<g id="edge5" class="edge">
<title>Node11&#45;&gt;Node12</title>
<path fill="none" stroke="#191970" d="M619.3007,-105C627.8757,-105 636.7497,-105 644.8088,-105"/>
<polygon fill="#191970" stroke="#191970" points="619.0644,-101.5001 609.0644,-105 619.0644,-108.5001 619.0644,-101.5001"/>
</g>
<!-- Node13 -->
<g id="node7" class="node">
<title>Node13</title>
<g id="a_node7"><a xlink:href="um__shell_8f90.xhtml#a8c9bd25362824a5c301376ecb5ed5c27" target="_top" xlink:title="Subroutine: UM_SHELL !&gt; ">
<polygon fill="#ffffff" stroke="#000000" points="740,-95.5 740,-114.5 801,-114.5 801,-95.5 740,-95.5"/>
<text text-anchor="middle" x="770.5" y="-102.5" font-family="Helvetica,sans-Serif" font-size="10.00" fill="#000000">um_shell</text>
</a>
</g>
</g>
<!-- Node12&#45;&gt;Node13 -->
<g id="edge6" class="edge">
<title>Node12&#45;&gt;Node13</title>
<path fill="none" stroke="#191970" d="M714.2581,-105C722.8053,-105 731.7119,-105 739.8497,-105"/>
<polygon fill="#191970" stroke="#191970" points="714.0865,-101.5001 704.0865,-105 714.0865,-108.5001 714.0865,-101.5001"/>
</g>
<!-- Node14 -->
<g id="node8" class="node">
<title>Node14</title>
<g id="a_node8"><a xlink:href="um__main_8f90.xhtml#a8f2d13215621443a5313261c282f098b" target="_top" xlink:title="Code Owner: See Unified Model Code Owner&#39;s HTML page. ">
<polygon fill="#ffffff" stroke="#000000" points="837,-95.5 837,-114.5 899,-114.5 899,-95.5 837,-95.5"/>
<text text-anchor="middle" x="868" y="-102.5" font-family="Helvetica,sans-Serif" font-size="10.00" fill="#000000">um_main</text>
</a>
</g>
</g>
<!-- Node13&#45;&gt;Node14 -->
<g id="edge7" class="edge">
<title>Node13&#45;&gt;Node14</title>
<path fill="none" stroke="#191970" d="M811.2756,-105C819.8294,-105 828.72,-105 836.8551,-105"/>
<polygon fill="#191970" stroke="#191970" points="811.0821,-101.5001 801.0821,-105 811.0821,-108.5001 811.0821,-101.5001"/>
</g>
<!-- Node15&#45;&gt;Node10 -->
<g id="edge9" class="edge">
<title>Node15&#45;&gt;Node10</title>
<path fill="none" stroke="#191970" d="M356.7963,-149.7197C363.9728,-147.6595 371.2136,-145.4029 378,-143 401.1991,-134.7856 426.8509,-122.8166 443.737,-114.5151"/>
<polygon fill="#191970" stroke="#191970" points="355.8034,-146.3628 347.0987,-152.4026 357.67,-153.1094 355.8034,-146.3628"/>
</g>
<!-- Node16&#45;&gt;Node10 -->
<g id="edge11" class="edge">
<title>Node16&#45;&gt;Node10</title>
<path fill="none" stroke="#191970" d="M368.0406,-116.4679C383.2496,-114.6215 399.3131,-112.6713 413.7943,-110.9132"/>
<polygon fill="#191970" stroke="#191970" points="367.1829,-113.0463 357.6777,-117.726 368.0266,-119.9952 367.1829,-113.0463"/>
</g>
<!-- Node17&#45;&gt;Node10 -->
<g id="edge13" class="edge">
<title>Node17&#45;&gt;Node10</title>
<path fill="none" stroke="#191970" d="M376.0994,-94.5105C388.7268,-96.0435 401.6404,-97.6113 413.5056,-99.0518"/>
<polygon fill="#191970" stroke="#191970" points="376.4084,-91.0224 366.0594,-93.2916 375.5647,-97.9713 376.4084,-91.0224"/>
</g>
<!-- Node18&#45;&gt;Node10 -->
<g id="edge15" class="edge">
<title>Node18&#45;&gt;Node10</title>
<path fill="none" stroke="#191970" d="M356.7963,-60.2803C363.9728,-62.3405 371.2136,-64.5971 378,-67 401.1991,-75.2144 426.8509,-87.1834 443.737,-95.4849"/>
<polygon fill="#191970" stroke="#191970" points="357.67,-56.8906 347.0987,-57.5974 355.8034,-63.6372 357.67,-56.8906"/>
</g>
<!-- Node19&#45;&gt;Node10 -->
<g id="edge17" class="edge">
<title>Node19&#45;&gt;Node10</title>
<path fill="none" stroke="#191970" d="M364.5308,-22.8745C369.1965,-24.6695 373.7452,-26.7018 378,-29 410.6372,-46.6289 440.9099,-79.3527 454.6895,-95.4933"/>
<polygon fill="#191970" stroke="#191970" points="365.4406,-19.4856 354.8458,-19.5143 363.146,-26.0989 365.4406,-19.4856"/>
</g>
</g>
</svg>
        <g id="navigator" transform="translate(0 0)" fill="#404254">
                <rect fill="#f2f5e9" fill-opacity="0.5" stroke="#606060" stroke-width=".5" x="0" y="0" width="60" height="60"/>
                <use id="zoomplus" xlink:href="#zoomPlus" x="17" y="9" onmousedown="handleZoom(evt,'in')"/>
                <use id="zoomminus" xlink:href="#zoomMin" x="42" y="9" onmousedown="handleZoom(evt,'out')"/>
                <use id="reset" xlink:href="#resetDef" x="30" y="36" onmousedown="handleReset()"/>
                <g id="arrowUp" xlink:href="#dirArrow" transform="translate(30 24)" onmousedown="handlePan(0,-1)">
                  <use xlink:href="#rim" fill="#404040">
                        <set attributeName="fill" to="#808080" begin="arrowUp.mouseover" end="arrowUp.mouseout"/>
                  </use>
                  <path fill="none" stroke="white" stroke-width="1.5" d="M0,-3.0v7 M-2.5,-0.5L0,-3.0L2.5,-0.5"/>
                </g>
                <g id="arrowRight" xlink:href="#dirArrow" transform="rotate(90) translate(36 -43)" onmousedown="handlePan(1,0)">
                  <use xlink:href="#rim" fill="#404040">
                        <set attributeName="fill" to="#808080" begin="arrowRight.mouseover" end="arrowRight.mouseout"/>
                  </use>
                  <path fill="none" stroke="white" stroke-width="1.5" d="M0,-3.0v7 M-2.5,-0.5L0,-3.0L2.5,-0.5"/>
                </g>
                <g id="arrowDown" xlink:href="#dirArrow" transform="rotate(180) translate(-30 -48)" onmousedown="handlePan(0,1)">
                  <use xlink:href="#rim" fill="#404040">
                        <set attributeName="fill" to="#808080" begin="arrowDown.mouseover" end="arrowDown.mouseout"/>
                  </use>
                  <path fill="none" stroke="white" stroke-width="1.5" d="M0,-3.0v7 M-2.5,-0.5L0,-3.0L2.5,-0.5"/>
                </g>
                <g id="arrowLeft" xlink:href="#dirArrow" transform="rotate(270) translate(-36 17)" onmousedown="handlePan(-1,0)">
                  <use xlink:href="#rim" fill="#404040">
                        <set attributeName="fill" to="#808080" begin="arrowLeft.mouseover" end="arrowLeft.mouseout"/>
                  </use>
                  <path fill="none" stroke="white" stroke-width="1.5" d="M0,-3.0v7 M-2.5,-0.5L0,-3.0L2.5,-0.5"/>
                </g>
        </g>
        <svg viewBox="0 0 15 15" width="100%" height="30px" preserveAspectRatio="xMaxYMin meet">
         <g id="arrow_out" transform="scale(0.3 0.3)">
          <a xlink:href="gcr__precon__adi__exec__trisolve-gcrpat2a_8f90_a1feb1a044e9e1d8f905399b4b6d5170d_icgraph_org.svg" target="_base">
           <rect id="button" ry="5" rx="5" y="6" x="6" height="38" width="38"
                fill="#f2f5e9" fill-opacity="0.5" stroke="#606060" stroke-width="1.0"/>
           <path id="arrow"
             d="M 11.500037,31.436501 C 11.940474,20.09759 22.043105,11.32322 32.158766,21.979434 L 37.068811,17.246167 C 37.068811,17.246167 37.088388,32 37.088388,32 L 22.160133,31.978069 C 22.160133,31.978069 26.997745,27.140456 26.997745,27.140456 C 18.528582,18.264221 13.291696,25.230495 11.500037,31.436501 z"
             style="fill:#404040;"/>
          </a>
         </g>
        </svg>
</svg>
