<?xml version="1.0" encoding="UTF-8" standalone="no"?>
<!DOCTYPE svg PUBLIC "-//W3C//DTD SVG 1.1//EN"
 "http://www.w3.org/Graphics/SVG/1.1/DTD/svg11.dtd">
<!-- Generated by graphviz version 2.40.1 (20161225.0304)
 -->
<!-- Title: gcr_precon_d_f_setup_2b Pages: 1 -->
<!--zoomable 104 -->
<svg id="main" version="1.1" xmlns="http://www.w3.org/2000/svg" xmlns:xlink="http://www.w3.org/1999/xlink" xml:space="preserve" onload="init(evt)">
<style type="text/css"><![CDATA[
.edge:hover path { stroke: red; }
.edge:hover polygon { stroke: red; fill: red; }
]]></style>
<script type="text/javascript"><![CDATA[
var edges = document.getElementsByTagName('g');
if (edges && edges.length) {
  for (var i=0;i<edges.length;i++) {
    if (edges[i].id.substr(0,4)=='edge') {
      edges[i].setAttribute('class','edge');
    }
  }
}
]]></script>
        <defs>
                <circle id="rim" cx="0" cy="0" r="7"/>
                <circle id="rim2" cx="0" cy="0" r="3.5"/>
                <g id="zoomPlus">
                        <use xlink:href="#rim" fill="#404040">
                                <set attributeName="fill" to="#808080" begin="zoomplus.mouseover" end="zoomplus.mouseout"/>
                        </use>
                        <path d="M-4,0h8M0,-4v8" fill="none" stroke="white" stroke-width="1.5" pointer-events="none"/>
                </g>
                <g id="zoomMin">
                        <use xlink:href="#rim" fill="#404040">
                                <set attributeName="fill" to="#808080" begin="zoomminus.mouseover" end="zoomminus.mouseout"/>
                        </use>
                        <path d="M-4,0h8" fill="none" stroke="white" stroke-width="1.5" pointer-events="none"/>
                </g>
                <g id="dirArrow">
                        <path fill="none" stroke="white" stroke-width="1.5" d="M0,-3.0v7 M-2.5,-0.5L0,-3.0L2.5,-0.5"/>
                </g>
               <g id="resetDef">
                       <use xlink:href="#rim2" fill="#404040">
                               <set attributeName="fill" to="#808080" begin="reset.mouseover" end="reset.mouseout"/>
                       </use>
               </g>
        </defs>

<script type="text/javascript">
var viewWidth = 945;
var viewHeight = 104;
var sectionId = 'dynsection-1';
</script>
<script xlink:href="svgpan.js"/>
<svg id="graph" class="graph">
<g id="viewport">
<title>gcr_precon_d_f_setup_2b</title>
<polygon fill="#ffffff" stroke="transparent" points="-4,4 -4,-100 941,-100 941,4 -4,4"/>
<!-- Node2 -->
<g id="node1" class="node">
<title>Node2</title>
<polygon fill="#bfbfbf" stroke="#000000" points="0,-38.5 0,-57.5 140,-57.5 140,-38.5 0,-38.5"/>
<text text-anchor="middle" x="70" y="-45.5" font-family="Helvetica,sans-Serif" font-size="10.00" fill="#000000">gcr_precon_d_f_setup_2b</text>
</g>
<!-- Node3 -->
<g id="node2" class="node">
<title>Node3</title>
<g id="a_node2"><a xlink:href="gcr__k-gcrk2b_8f90.xhtml#acfd0738f6919815059054b45d07c09fd" target="_top" xlink:title="Subroutine GCR_k_2B. ">
<polygon fill="#ffffff" stroke="#000000" points="176,-38.5 176,-57.5 236,-57.5 236,-38.5 176,-38.5"/>
<text text-anchor="middle" x="206" y="-45.5" font-family="Helvetica,sans-Serif" font-size="10.00" fill="#000000">gcr_k_2b</text>
</a>
</g>
</g>
<!-- Node2&#45;&gt;Node3 -->
<g id="edge1" class="edge">
<title>Node2&#45;&gt;Node3</title>
<path fill="none" stroke="#191970" d="M150.5403,-48C159.4487,-48 168.0597,-48 175.7327,-48"/>
<polygon fill="#191970" stroke="#191970" points="150.3902,-44.5001 140.3902,-48 150.3902,-51.5001 150.3902,-44.5001"/>
</g>
<!-- Node4 -->
<g id="node3" class="node">
<title>Node4</title>
<g id="a_node3"><a xlink:href="pe__helmholtz__eul-global2b_8f90.xhtml#a3f54757bf8f64bef80b9f7b1710e9e83" target="_top" xlink:title="Subroutine PE_Helmholtz_global_2B. ">
<polygon fill="#ffffff" stroke="#000000" points="276.5,-76.5 276.5,-95.5 411.5,-95.5 411.5,-76.5 276.5,-76.5"/>
<text text-anchor="middle" x="344" y="-83.5" font-family="Helvetica,sans-Serif" font-size="10.00" fill="#000000">pe_helmholtz_global_2b</text>
</a>
</g>
</g>
<!-- Node3&#45;&gt;Node4 -->
<g id="edge2" class="edge">
<title>Node3&#45;&gt;Node4</title>
<path fill="none" stroke="#191970" d="M245.9876,-59.6665C254.5601,-62.1241 263.5732,-64.6755 272,-67 283.4655,-70.1627 295.9889,-73.5061 307.3292,-76.4918"/>
<polygon fill="#191970" stroke="#191970" points="246.7663,-56.2485 236.1882,-56.8437 244.8286,-62.975 246.7663,-56.2485"/>
</g>
<!-- Node10 -->
<g id="node9" class="node">
<title>Node10</title>
<g id="a_node9"><a xlink:href="pe__helmholtz__eul-pehelmeu2b_8f90.xhtml#aa0efe18d51360d9e3b92a3834d70e94e" target="_top" xlink:title="Subroutine PE_Helmholtz_eul_2B. ">
<polygon fill="#ffffff" stroke="#000000" points="284,-38.5 284,-57.5 404,-57.5 404,-38.5 284,-38.5"/>
<text text-anchor="middle" x="344" y="-45.5" font-family="Helvetica,sans-Serif" font-size="10.00" fill="#000000">pe_helmholtz_eul_2b</text>
</a>
</g>
</g>
<!-- Node3&#45;&gt;Node10 -->
<g id="edge8" class="edge">
<title>Node3&#45;&gt;Node10</title>
<path fill="none" stroke="#191970" d="M246.5696,-48C258.2235,-48 271.1888,-48 283.7598,-48"/>
<polygon fill="#191970" stroke="#191970" points="246.2847,-44.5001 236.2847,-48 246.2847,-51.5001 246.2847,-44.5001"/>
</g>
<!-- Node11 -->
<g id="node10" class="node">
<title>Node11</title>
<g id="a_node10"><a xlink:href="pe__helmholtz__eul__mix-pe__helm__eul__mix2b_8f90.xhtml#a3cb509677a9ae3cb922c1859c135890b" target="_top" xlink:title="Subroutine PE_Helmholtz_eul_mix_2B. ">
<polygon fill="#ffffff" stroke="#000000" points="272,-.5 272,-19.5 416,-19.5 416,-.5 272,-.5"/>
<text text-anchor="middle" x="344" y="-7.5" font-family="Helvetica,sans-Serif" font-size="10.00" fill="#000000">pe_helmholtz_eul_mix_2b</text>
</a>
</g>
</g>
<!-- Node3&#45;&gt;Node11 -->
<g id="edge10" class="edge">
<title>Node3&#45;&gt;Node11</title>
<path fill="none" stroke="#191970" d="M245.9876,-36.3335C254.5601,-33.8759 263.5732,-31.3245 272,-29 283.4655,-25.8373 295.9889,-22.4939 307.3292,-19.5082"/>
<polygon fill="#191970" stroke="#191970" points="244.8286,-33.025 236.1882,-39.1563 246.7663,-39.7515 244.8286,-33.025"/>
</g>
<!-- Node5 -->
<g id="node4" class="node">
<title>Node5</title>
<g id="a_node4"><a xlink:href="ni__pe__helmholtz_8f90.xhtml#a69d5566c0852d7caa4baa84a26341b21" target="_top" xlink:title="ni_pe_helmholtz">
<polygon fill="#ffffff" stroke="#000000" points="452,-38.5 452,-57.5 549,-57.5 549,-38.5 452,-38.5"/>
<text text-anchor="middle" x="500.5" y="-45.5" font-family="Helvetica,sans-Serif" font-size="10.00" fill="#000000">ni_pe_helmholtz</text>
</a>
</g>
</g>
<!-- Node4&#45;&gt;Node5 -->
<g id="edge3" class="edge">
<title>Node4&#45;&gt;Node5</title>
<path fill="none" stroke="#191970" d="M393.2892,-74.032C415.2203,-68.7069 440.6849,-62.5238 461.2924,-57.5201"/>
<polygon fill="#191970" stroke="#191970" points="392.3833,-70.6502 383.4916,-76.411 394.0351,-77.4525 392.3833,-70.6502"/>
</g>
<!-- Node6 -->
<g id="node5" class="node">
<title>Node6</title>
<g id="a_node5"><a xlink:href="atm__step_8f90.xhtml#ac0ee2467a1a9959b7065fdb8fd27bce4" target="_top" xlink:title="Perform a 1&#45;timestep integration of the Atmosphere Model. ">
<polygon fill="#ffffff" stroke="#000000" points="585,-38.5 585,-57.5 647,-57.5 647,-38.5 585,-38.5"/>
<text text-anchor="middle" x="616" y="-45.5" font-family="Helvetica,sans-Serif" font-size="10.00" fill="#000000">atm_step</text>
</a>
</g>
</g>
<!-- Node5&#45;&gt;Node6 -->
<g id="edge4" class="edge">
<title>Node5&#45;&gt;Node6</title>
<path fill="none" stroke="#191970" d="M559.4239,-48C568.2051,-48 576.9501,-48 584.8463,-48"/>
<polygon fill="#191970" stroke="#191970" points="559.1477,-44.5001 549.1476,-48 559.1476,-51.5001 559.1477,-44.5001"/>
</g>
<!-- Node7 -->
<g id="node6" class="node">
<title>Node7</title>
<g id="a_node6"><a xlink:href="u__model_8f90.xhtml#ada0cd2ce4699433bf0f9adbd882c8eec" target="_top" xlink:title="Subroutine: U_MODEL &#45;!&gt; ">
<polygon fill="#ffffff" stroke="#000000" points="683,-38.5 683,-57.5 742,-57.5 742,-38.5 683,-38.5"/>
<text text-anchor="middle" x="712.5" y="-45.5" font-family="Helvetica,sans-Serif" font-size="10.00" fill="#000000">u_model</text>
</a>
</g>
</g>
<!-- Node6&#45;&gt;Node7 -->
<g id="edge5" class="edge">
<title>Node6&#45;&gt;Node7</title>
<path fill="none" stroke="#191970" d="M657.3007,-48C665.8757,-48 674.7497,-48 682.8088,-48"/>
<polygon fill="#191970" stroke="#191970" points="657.0644,-44.5001 647.0644,-48 657.0644,-51.5001 657.0644,-44.5001"/>
</g>
<!-- Node8 -->
<g id="node7" class="node">
<title>Node8</title>
<g id="a_node7"><a xlink:href="um__shell_8f90.xhtml#a8c9bd25362824a5c301376ecb5ed5c27" target="_top" xlink:title="Subroutine: UM_SHELL !&gt; ">
<polygon fill="#ffffff" stroke="#000000" points="778,-38.5 778,-57.5 839,-57.5 839,-38.5 778,-38.5"/>
<text text-anchor="middle" x="808.5" y="-45.5" font-family="Helvetica,sans-Serif" font-size="10.00" fill="#000000">um_shell</text>
</a>
</g>
</g>
<!-- Node7&#45;&gt;Node8 -->
<g id="edge6" class="edge">
<title>Node7&#45;&gt;Node8</title>
<path fill="none" stroke="#191970" d="M752.2581,-48C760.8053,-48 769.7119,-48 777.8497,-48"/>
<polygon fill="#191970" stroke="#191970" points="752.0865,-44.5001 742.0865,-48 752.0865,-51.5001 752.0865,-44.5001"/>
</g>
<!-- Node9 -->
<g id="node8" class="node">
<title>Node9</title>
<g id="a_node8"><a xlink:href="um__main_8f90.xhtml#a8f2d13215621443a5313261c282f098b" target="_top" xlink:title="Code Owner: See Unified Model Code Owner&#39;s HTML page. ">
<polygon fill="#ffffff" stroke="#000000" points="875,-38.5 875,-57.5 937,-57.5 937,-38.5 875,-38.5"/>
<text text-anchor="middle" x="906" y="-45.5" font-family="Helvetica,sans-Serif" font-size="10.00" fill="#000000">um_main</text>
</a>
</g>
</g>
<!-- Node8&#45;&gt;Node9 -->
<g id="edge7" class="edge">
<title>Node8&#45;&gt;Node9</title>
<path fill="none" stroke="#191970" d="M849.2756,-48C857.8294,-48 866.72,-48 874.8551,-48"/>
<polygon fill="#191970" stroke="#191970" points="849.0821,-44.5001 839.0821,-48 849.0821,-51.5001 849.0821,-44.5001"/>
</g>
<!-- Node10&#45;&gt;Node5 -->
<g id="edge9" class="edge">
<title>Node10&#45;&gt;Node5</title>
<path fill="none" stroke="#191970" d="M414.0994,-48C426.7268,-48 439.6404,-48 451.5056,-48"/>
<polygon fill="#191970" stroke="#191970" points="414.0594,-44.5001 404.0594,-48 414.0594,-51.5001 414.0594,-44.5001"/>
</g>
<!-- Node11&#45;&gt;Node5 -->
<g id="edge11" class="edge">
<title>Node11&#45;&gt;Node5</title>
<path fill="none" stroke="#191970" d="M393.2892,-21.968C415.2203,-27.2931 440.6849,-33.4762 461.2924,-38.4799"/>
<polygon fill="#191970" stroke="#191970" points="394.0351,-18.5475 383.4916,-19.589 392.3833,-25.3498 394.0351,-18.5475"/>
</g>
</g>
</svg>
        <g id="navigator" transform="translate(0 0)" fill="#404254">
                <rect fill="#f2f5e9" fill-opacity="0.5" stroke="#606060" stroke-width=".5" x="0" y="0" width="60" height="60"/>
                <use id="zoomplus" xlink:href="#zoomPlus" x="17" y="9" onmousedown="handleZoom(evt,'in')"/>
                <use id="zoomminus" xlink:href="#zoomMin" x="42" y="9" onmousedown="handleZoom(evt,'out')"/>
                <use id="reset" xlink:href="#resetDef" x="30" y="36" onmousedown="handleReset()"/>
                <g id="arrowUp" xlink:href="#dirArrow" transform="translate(30 24)" onmousedown="handlePan(0,-1)">
                  <use xlink:href="#rim" fill="#404040">
                        <set attributeName="fill" to="#808080" begin="arrowUp.mouseover" end="arrowUp.mouseout"/>
                  </use>
                  <path fill="none" stroke="white" stroke-width="1.5" d="M0,-3.0v7 M-2.5,-0.5L0,-3.0L2.5,-0.5"/>
                </g>
                <g id="arrowRight" xlink:href="#dirArrow" transform="rotate(90) translate(36 -43)" onmousedown="handlePan(1,0)">
                  <use xlink:href="#rim" fill="#404040">
                        <set attributeName="fill" to="#808080" begin="arrowRight.mouseover" end="arrowRight.mouseout"/>
                  </use>
                  <path fill="none" stroke="white" stroke-width="1.5" d="M0,-3.0v7 M-2.5,-0.5L0,-3.0L2.5,-0.5"/>
                </g>
                <g id="arrowDown" xlink:href="#dirArrow" transform="rotate(180) translate(-30 -48)" onmousedown="handlePan(0,1)">
                  <use xlink:href="#rim" fill="#404040">
                        <set attributeName="fill" to="#808080" begin="arrowDown.mouseover" end="arrowDown.mouseout"/>
                  </use>
                  <path fill="none" stroke="white" stroke-width="1.5" d="M0,-3.0v7 M-2.5,-0.5L0,-3.0L2.5,-0.5"/>
                </g>
                <g id="arrowLeft" xlink:href="#dirArrow" transform="rotate(270) translate(-36 17)" onmousedown="handlePan(-1,0)">
                  <use xlink:href="#rim" fill="#404040">
                        <set attributeName="fill" to="#808080" begin="arrowLeft.mouseover" end="arrowLeft.mouseout"/>
                  </use>
                  <path fill="none" stroke="white" stroke-width="1.5" d="M0,-3.0v7 M-2.5,-0.5L0,-3.0L2.5,-0.5"/>
                </g>
        </g>
        <svg viewBox="0 0 15 15" width="100%" height="30px" preserveAspectRatio="xMaxYMin meet">
         <g id="arrow_out" transform="scale(0.3 0.3)">
          <a xlink:href="gcr__precon__dufort-frankel__setup2b_8f90_ae65493fc40d24a7f6e6c03e76c7bd3b5_icgraph_org.svg" target="_base">
           <rect id="button" ry="5" rx="5" y="6" x="6" height="38" width="38"
                fill="#f2f5e9" fill-opacity="0.5" stroke="#606060" stroke-width="1.0"/>
           <path id="arrow"
             d="M 11.500037,31.436501 C 11.940474,20.09759 22.043105,11.32322 32.158766,21.979434 L 37.068811,17.246167 C 37.068811,17.246167 37.088388,32 37.088388,32 L 22.160133,31.978069 C 22.160133,31.978069 26.997745,27.140456 26.997745,27.140456 C 18.528582,18.264221 13.291696,25.230495 11.500037,31.436501 z"
             style="fill:#404040;"/>
          </a>
         </g>
        </svg>
</svg>
