<?xml version="1.0" encoding="UTF-8" standalone="no"?>
<!DOCTYPE svg PUBLIC "-//W3C//DTD SVG 1.1//EN"
 "http://www.w3.org/Graphics/SVG/1.1/DTD/svg11.dtd">
<!-- Generated by graphviz version 2.40.1 (20161225.0304)
 -->
<!-- Title: get_dim Pages: 1 -->
<!--zoomable 218 -->
<svg id="main" version="1.1" xmlns="http://www.w3.org/2000/svg" xmlns:xlink="http://www.w3.org/1999/xlink" xml:space="preserve" onload="init(evt)">
<style type="text/css"><![CDATA[
.edge:hover path { stroke: red; }
.edge:hover polygon { stroke: red; fill: red; }
]]></style>
<script type="text/javascript"><![CDATA[
var edges = document.getElementsByTagName('g');
if (edges && edges.length) {
  for (var i=0;i<edges.length;i++) {
    if (edges[i].id.substr(0,4)=='edge') {
      edges[i].setAttribute('class','edge');
    }
  }
}
]]></script>
        <defs>
                <circle id="rim" cx="0" cy="0" r="7"/>
                <circle id="rim2" cx="0" cy="0" r="3.5"/>
                <g id="zoomPlus">
                        <use xlink:href="#rim" fill="#404040">
                                <set attributeName="fill" to="#808080" begin="zoomplus.mouseover" end="zoomplus.mouseout"/>
                        </use>
                        <path d="M-4,0h8M0,-4v8" fill="none" stroke="white" stroke-width="1.5" pointer-events="none"/>
                </g>
                <g id="zoomMin">
                        <use xlink:href="#rim" fill="#404040">
                                <set attributeName="fill" to="#808080" begin="zoomminus.mouseover" end="zoomminus.mouseout"/>
                        </use>
                        <path d="M-4,0h8" fill="none" stroke="white" stroke-width="1.5" pointer-events="none"/>
                </g>
                <g id="dirArrow">
                        <path fill="none" stroke="white" stroke-width="1.5" d="M0,-3.0v7 M-2.5,-0.5L0,-3.0L2.5,-0.5"/>
                </g>
               <g id="resetDef">
                       <use xlink:href="#rim2" fill="#404040">
                               <set attributeName="fill" to="#808080" begin="reset.mouseover" end="reset.mouseout"/>
                       </use>
               </g>
        </defs>

<script type="text/javascript">
var viewWidth = 1227;
var viewHeight = 218;
var sectionId = 'dynsection-0';
</script>
<script xlink:href="svgpan.js"/>
<svg id="graph" class="graph">
<g id="viewport">
<title>get_dim</title>
<polygon fill="#ffffff" stroke="transparent" points="-4,4 -4,-214 1223,-214 1223,4 -4,4"/>
<!-- Node1 -->
<g id="node1" class="node">
<title>Node1</title>
<polygon fill="#bfbfbf" stroke="#000000" points="0,-133.5 0,-152.5 56,-152.5 56,-133.5 0,-133.5"/>
<text text-anchor="middle" x="28" y="-140.5" font-family="Helvetica,sans-Serif" font-size="10.00" fill="#000000">get_dim</text>
</g>
<!-- Node2 -->
<g id="node2" class="node">
<title>Node2</title>
<g id="a_node2"><a xlink:href="namespacenum__obs__mod.xhtml#a40ea4f66ddfadee18747ee6c105dab2a" target="_top" xlink:title="num_obs_mod::num_obs">
<polygon fill="#ffffff" stroke="#000000" points="92,-190.5 92,-209.5 230,-209.5 230,-190.5 92,-190.5"/>
<text text-anchor="middle" x="161" y="-197.5" font-family="Helvetica,sans-Serif" font-size="10.00" fill="#000000">num_obs_mod::num_obs</text>
</a>
</g>
</g>
<!-- Node1&#45;&gt;Node2 -->
<g id="edge1" class="edge">
<title>Node1&#45;&gt;Node2</title>
<path fill="none" stroke="#191970" d="M50.1136,-158.1269C62.099,-165.8033 77.408,-174.7917 92,-181 100.5749,-184.6483 110.0478,-187.7897 119.1565,-190.408"/>
<polygon fill="#191970" stroke="#191970" points="51.9437,-155.1415 41.6631,-152.5801 48.1025,-160.9935 51.9437,-155.1415"/>
</g>
<!-- Node5 -->
<g id="node5" class="node">
<title>Node5</title>
<g id="a_node5"><a xlink:href="namespacerdobs2__mod.xhtml#aac930f3774dc9371d698d993a995c8f7" target="_top" xlink:title="rdobs2_mod::rdobs2">
<polygon fill="#ffffff" stroke="#000000" points="103,-152.5 103,-171.5 219,-171.5 219,-152.5 103,-152.5"/>
<text text-anchor="middle" x="161" y="-159.5" font-family="Helvetica,sans-Serif" font-size="10.00" fill="#000000">rdobs2_mod::rdobs2</text>
</a>
</g>
</g>
<!-- Node1&#45;&gt;Node5 -->
<g id="edge4" class="edge">
<title>Node1&#45;&gt;Node5</title>
<path fill="none" stroke="#191970" d="M66.2901,-148.47C77.7457,-150.1065 90.5724,-151.9389 102.9968,-153.7138"/>
<polygon fill="#191970" stroke="#191970" points="66.6004,-144.9789 56.2059,-147.0294 65.6104,-151.9085 66.6004,-144.9789"/>
</g>
<!-- Node14 -->
<g id="node14" class="node">
<title>Node14</title>
<g id="a_node14"><a xlink:href="read__lsm__anc_8f90.xhtml#a0648e40353efa562dd323202cc34a5d4" target="_top" xlink:title="Programming standard: Unified Model Documentation Paper No 3. ">
<polygon fill="#ffffff" stroke="#000000" points="119,-114.5 119,-133.5 203,-133.5 203,-114.5 119,-114.5"/>
<text text-anchor="middle" x="161" y="-121.5" font-family="Helvetica,sans-Serif" font-size="10.00" fill="#000000">read_lsm_anc</text>
</a>
</g>
</g>
<!-- Node1&#45;&gt;Node14 -->
<g id="edge13" class="edge">
<title>Node1&#45;&gt;Node14</title>
<path fill="none" stroke="#191970" d="M66.5391,-137.4944C82.9554,-135.1492 102.1513,-132.407 118.9351,-130.0093"/>
<polygon fill="#191970" stroke="#191970" points="65.6104,-134.0915 56.2059,-138.9706 66.6004,-141.0211 65.6104,-134.0915"/>
</g>
<!-- Node20 -->
<g id="node20" class="node">
<title>Node20</title>
<g id="a_node20"><a xlink:href="read__one__header_8f90.xhtml#afc5b5f2aadc923d6a72f3afd54745698" target="_top" xlink:title="Programming standard: Unified Model Documentation Paper No 3. ">
<polygon fill="#ffffff" stroke="#000000" points="272.5,-38.5 272.5,-57.5 373.5,-57.5 373.5,-38.5 272.5,-38.5"/>
<text text-anchor="middle" x="323" y="-45.5" font-family="Helvetica,sans-Serif" font-size="10.00" fill="#000000">read_one_header</text>
</a>
</g>
</g>
<!-- Node1&#45;&gt;Node20 -->
<g id="edge19" class="edge">
<title>Node1&#45;&gt;Node20</title>
<path fill="none" stroke="#191970" d="M50.0471,-127.7138C62.0138,-119.9926 77.3261,-111.0123 92,-105 151.6279,-80.5687 224.3634,-64.7467 272.0894,-56.1138"/>
<polygon fill="#191970" stroke="#191970" points="48.0161,-124.8608 41.6142,-133.3027 51.8833,-130.6957 48.0161,-124.8608"/>
</g>
<!-- Node3 -->
<g id="node3" class="node">
<title>Node3</title>
<g id="a_node3"><a xlink:href="namespaceac__init__mod.xhtml#a478b8c4bbf27ee817c525521a35f2f87" target="_top" xlink:title="ac_init_mod::ac_init">
<polygon fill="#ffffff" stroke="#000000" points="266,-190.5 266,-209.5 380,-209.5 380,-190.5 266,-190.5"/>
<text text-anchor="middle" x="323" y="-197.5" font-family="Helvetica,sans-Serif" font-size="10.00" fill="#000000">ac_init_mod::ac_init</text>
</a>
</g>
</g>
<!-- Node2&#45;&gt;Node3 -->
<g id="edge2" class="edge">
<title>Node2&#45;&gt;Node3</title>
<path fill="none" stroke="#191970" d="M240.2447,-200C248.855,-200 257.4918,-200 265.7656,-200"/>
<polygon fill="#191970" stroke="#191970" points="240.1725,-196.5001 230.1725,-200 240.1724,-203.5001 240.1725,-196.5001"/>
</g>
<!-- Node4 -->
<g id="node4" class="node">
<title>Node4</title>
<g id="a_node4"><a xlink:href="in__acctl-inacctl1_8f90.xhtml#a1a337ec73e7a185b388eae65b465eb82" target="_top" xlink:title="SUBROUTINE IN_ACCTL &#45;!&gt; ">
<polygon fill="#ffffff" stroke="#000000" points="445,-190.5 445,-209.5 499,-209.5 499,-190.5 445,-190.5"/>
<text text-anchor="middle" x="472" y="-197.5" font-family="Helvetica,sans-Serif" font-size="10.00" fill="#000000">in_acctl</text>
</a>
</g>
</g>
<!-- Node3&#45;&gt;Node4 -->
<g id="edge3" class="edge">
<title>Node3&#45;&gt;Node4</title>
<path fill="none" stroke="#191970" d="M390.429,-200C409.6044,-200 429.4103,-200 444.7036,-200"/>
<polygon fill="#191970" stroke="#191970" points="390.1812,-196.5001 380.1812,-200 390.1811,-203.5001 390.1812,-196.5001"/>
</g>
<!-- Node6 -->
<g id="node6" class="node">
<title>Node6</title>
<g id="a_node6"><a xlink:href="namespacerdobs__mod.xhtml#aba0df766ce018fc3b088a828a6ee694d" target="_top" xlink:title="rdobs_mod::rdobs">
<polygon fill="#ffffff" stroke="#000000" points="271,-152.5 271,-171.5 375,-171.5 375,-152.5 271,-152.5"/>
<text text-anchor="middle" x="323" y="-159.5" font-family="Helvetica,sans-Serif" font-size="10.00" fill="#000000">rdobs_mod::rdobs</text>
</a>
</g>
</g>
<!-- Node5&#45;&gt;Node6 -->
<g id="edge5" class="edge">
<title>Node5&#45;&gt;Node6</title>
<path fill="none" stroke="#191970" d="M229.0645,-162C243.0088,-162 257.4781,-162 270.7614,-162"/>
<polygon fill="#191970" stroke="#191970" points="229.0282,-158.5001 219.0281,-162 229.0281,-165.5001 229.0282,-158.5001"/>
</g>
<!-- Node7 -->
<g id="node7" class="node">
<title>Node7</title>
<g id="a_node7"><a xlink:href="namespaceac__mod.xhtml#a1f3d4cd45ff537a30b428c4eb398234d" target="_top" xlink:title="ac_mod::ac">
<polygon fill="#ffffff" stroke="#000000" points="436,-152.5 436,-171.5 508,-171.5 508,-152.5 436,-152.5"/>
<text text-anchor="middle" x="472" y="-159.5" font-family="Helvetica,sans-Serif" font-size="10.00" fill="#000000">ac_mod::ac</text>
</a>
</g>
</g>
<!-- Node6&#45;&gt;Node7 -->
<g id="edge6" class="edge">
<title>Node6&#45;&gt;Node7</title>
<path fill="none" stroke="#191970" d="M385.5882,-162C402.6427,-162 420.5522,-162 435.616,-162"/>
<polygon fill="#191970" stroke="#191970" points="385.113,-158.5001 375.113,-162 385.1129,-165.5001 385.113,-158.5001"/>
</g>
<!-- Node8 -->
<g id="node8" class="node">
<title>Node8</title>
<g id="a_node8"><a xlink:href="namespaceac__ctl__mod.xhtml#ad9b0579e33ec2ee1b36e3d11b5386b72" target="_top" xlink:title="ac_ctl_mod::ac_ctl">
<polygon fill="#ffffff" stroke="#000000" points="569.5,-152.5 569.5,-171.5 676.5,-171.5 676.5,-152.5 569.5,-152.5"/>
<text text-anchor="middle" x="623" y="-159.5" font-family="Helvetica,sans-Serif" font-size="10.00" fill="#000000">ac_ctl_mod::ac_ctl</text>
</a>
</g>
</g>
<!-- Node7&#45;&gt;Node8 -->
<g id="edge7" class="edge">
<title>Node7&#45;&gt;Node8</title>
<path fill="none" stroke="#191970" d="M518.4223,-162C534.5417,-162 552.7484,-162 569.3994,-162"/>
<polygon fill="#191970" stroke="#191970" points="518.1683,-158.5001 508.1683,-162 518.1682,-165.5001 518.1683,-158.5001"/>
</g>
<!-- Node9 -->
<g id="node9" class="node">
<title>Node9</title>
<g id="a_node9"><a xlink:href="atm__step__ac__assim_8f90.xhtml#a1a53479d77027fb4fee329c374bc6062" target="_top" xlink:title="Contains atm_step code for AC assimilation. ">
<polygon fill="#ffffff" stroke="#000000" points="718,-152.5 718,-171.5 831,-171.5 831,-152.5 718,-152.5"/>
<text text-anchor="middle" x="774.5" y="-159.5" font-family="Helvetica,sans-Serif" font-size="10.00" fill="#000000">atm_step_ac_assim</text>
</a>
</g>
</g>
<!-- Node8&#45;&gt;Node9 -->
<g id="edge8" class="edge">
<title>Node8&#45;&gt;Node9</title>
<path fill="none" stroke="#191970" d="M686.946,-162C697.179,-162 707.7066,-162 717.757,-162"/>
<polygon fill="#191970" stroke="#191970" points="686.8398,-158.5001 676.8398,-162 686.8398,-165.5001 686.8398,-158.5001"/>
</g>
<!-- Node10 -->
<g id="node10" class="node">
<title>Node10</title>
<g id="a_node10"><a xlink:href="atm__step_8f90.xhtml#ac0ee2467a1a9959b7065fdb8fd27bce4" target="_top" xlink:title="Perform a 1&#45;timestep integration of the Atmosphere Model. ">
<polygon fill="#ffffff" stroke="#000000" points="867,-152.5 867,-171.5 929,-171.5 929,-152.5 867,-152.5"/>
<text text-anchor="middle" x="898" y="-159.5" font-family="Helvetica,sans-Serif" font-size="10.00" fill="#000000">atm_step</text>
</a>
</g>
</g>
<!-- Node9&#45;&gt;Node10 -->
<g id="edge9" class="edge">
<title>Node9&#45;&gt;Node10</title>
<path fill="none" stroke="#191970" d="M841.301,-162C850.239,-162 859.0349,-162 866.9329,-162"/>
<polygon fill="#191970" stroke="#191970" points="841.1897,-158.5001 831.1896,-162 841.1896,-165.5001 841.1897,-158.5001"/>
</g>
<!-- Node11 -->
<g id="node11" class="node">
<title>Node11</title>
<g id="a_node11"><a xlink:href="u__model_8f90.xhtml#ada0cd2ce4699433bf0f9adbd882c8eec" target="_top" xlink:title="Subroutine: U_MODEL &#45;!&gt; ">
<polygon fill="#ffffff" stroke="#000000" points="965,-152.5 965,-171.5 1024,-171.5 1024,-152.5 965,-152.5"/>
<text text-anchor="middle" x="994.5" y="-159.5" font-family="Helvetica,sans-Serif" font-size="10.00" fill="#000000">u_model</text>
</a>
</g>
</g>
<!-- Node10&#45;&gt;Node11 -->
<g id="edge10" class="edge">
<title>Node10&#45;&gt;Node11</title>
<path fill="none" stroke="#191970" d="M939.3007,-162C947.8757,-162 956.7497,-162 964.8088,-162"/>
<polygon fill="#191970" stroke="#191970" points="939.0644,-158.5001 929.0644,-162 939.0644,-165.5001 939.0644,-158.5001"/>
</g>
<!-- Node12 -->
<g id="node12" class="node">
<title>Node12</title>
<g id="a_node12"><a xlink:href="um__shell_8f90.xhtml#a8c9bd25362824a5c301376ecb5ed5c27" target="_top" xlink:title="Subroutine: UM_SHELL !&gt; ">
<polygon fill="#ffffff" stroke="#000000" points="1060,-152.5 1060,-171.5 1121,-171.5 1121,-152.5 1060,-152.5"/>
<text text-anchor="middle" x="1090.5" y="-159.5" font-family="Helvetica,sans-Serif" font-size="10.00" fill="#000000">um_shell</text>
</a>
</g>
</g>
<!-- Node11&#45;&gt;Node12 -->
<g id="edge11" class="edge">
<title>Node11&#45;&gt;Node12</title>
<path fill="none" stroke="#191970" d="M1034.2581,-162C1042.8053,-162 1051.7119,-162 1059.8497,-162"/>
<polygon fill="#191970" stroke="#191970" points="1034.0865,-158.5001 1024.0865,-162 1034.0865,-165.5001 1034.0865,-158.5001"/>
</g>
<!-- Node13 -->
<g id="node13" class="node">
<title>Node13</title>
<g id="a_node13"><a xlink:href="um__main_8f90.xhtml#a8f2d13215621443a5313261c282f098b" target="_top" xlink:title="Code Owner: See Unified Model Code Owner&#39;s HTML page. ">
<polygon fill="#ffffff" stroke="#000000" points="1157,-152.5 1157,-171.5 1219,-171.5 1219,-152.5 1157,-152.5"/>
<text text-anchor="middle" x="1188" y="-159.5" font-family="Helvetica,sans-Serif" font-size="10.00" fill="#000000">um_main</text>
</a>
</g>
</g>
<!-- Node12&#45;&gt;Node13 -->
<g id="edge12" class="edge">
<title>Node12&#45;&gt;Node13</title>
<path fill="none" stroke="#191970" d="M1131.2756,-162C1139.8294,-162 1148.72,-162 1156.8551,-162"/>
<polygon fill="#191970" stroke="#191970" points="1131.0821,-158.5001 1121.0821,-162 1131.0821,-165.5001 1131.0821,-158.5001"/>
</g>
<!-- Node15 -->
<g id="node15" class="node">
<title>Node15</title>
<g id="a_node15"><a xlink:href="read__lsms_8f90.xhtml#adb662539b53540078ee72b2bc3b33a4d" target="_top" xlink:title="Programming standard: Unified Model Documentation Paper No 3. ">
<polygon fill="#ffffff" stroke="#000000" points="289.5,-114.5 289.5,-133.5 356.5,-133.5 356.5,-114.5 289.5,-114.5"/>
<text text-anchor="middle" x="323" y="-121.5" font-family="Helvetica,sans-Serif" font-size="10.00" fill="#000000">read_lsms</text>
</a>
</g>
</g>
<!-- Node14&#45;&gt;Node15 -->
<g id="edge14" class="edge">
<title>Node14&#45;&gt;Node15</title>
<path fill="none" stroke="#191970" d="M213.2151,-124C238.2416,-124 267.4823,-124 289.4911,-124"/>
<polygon fill="#191970" stroke="#191970" points="213.1407,-120.5001 203.1407,-124 213.1407,-127.5001 213.1407,-120.5001"/>
</g>
<!-- Node16 -->
<g id="node16" class="node">
<title>Node16</title>
<g id="a_node16"><a xlink:href="flux__process_8f90.xhtml#aa4dfcc67002fe61814d5d93db54c4d94" target="_top" xlink:title="Programming standard: Unified Model Documentation Paper No 3. ">
<polygon fill="#ffffff" stroke="#000000" points="433.5,-76.5 433.5,-95.5 510.5,-95.5 510.5,-76.5 433.5,-76.5"/>
<text text-anchor="middle" x="472" y="-83.5" font-family="Helvetica,sans-Serif" font-size="10.00" fill="#000000">flux_process</text>
</a>
</g>
</g>
<!-- Node15&#45;&gt;Node16 -->
<g id="edge15" class="edge">
<title>Node15&#45;&gt;Node16</title>
<path fill="none" stroke="#191970" d="M366.7072,-112.8532C388.2773,-107.3521 414.0266,-100.7852 434.6624,-95.5223"/>
<polygon fill="#191970" stroke="#191970" points="365.6353,-109.5145 356.8104,-115.3772 367.3652,-116.2973 365.6353,-109.5145"/>
</g>
<!-- Node18 -->
<g id="node18" class="node">
<title>Node18</title>
<g id="a_node18"><a xlink:href="flux__transform__grid_8f90.xhtml#a47016ff48dce53ea7aae177201e3ee57" target="_top" xlink:title="contains routines: Flux_Transform_Grid ">
<polygon fill="#ffffff" stroke="#000000" points="416,-114.5 416,-133.5 528,-133.5 528,-114.5 416,-114.5"/>
<text text-anchor="middle" x="472" y="-121.5" font-family="Helvetica,sans-Serif" font-size="10.00" fill="#000000">flux_transform_grid</text>
</a>
</g>
</g>
<!-- Node15&#45;&gt;Node18 -->
<g id="edge17" class="edge">
<title>Node15&#45;&gt;Node18</title>
<path fill="none" stroke="#191970" d="M367.0264,-124C382.3188,-124 399.6811,-124 415.8204,-124"/>
<polygon fill="#191970" stroke="#191970" points="366.8104,-120.5001 356.8104,-124 366.8104,-127.5001 366.8104,-120.5001"/>
</g>
<!-- Node17 -->
<g id="node17" class="node">
<title>Node17</title>
<g id="a_node17"><a xlink:href="flux__process__main_8f90.xhtml#aa4f9adbe127f17a972e1284856a37f9c" target="_top" xlink:title="Programming standard: Unified Model Documentation Paper No 3. ">
<polygon fill="#ffffff" stroke="#000000" points="569.5,-38.5 569.5,-57.5 676.5,-57.5 676.5,-38.5 569.5,-38.5"/>
<text text-anchor="middle" x="623" y="-45.5" font-family="Helvetica,sans-Serif" font-size="10.00" fill="#000000">flux_process_main</text>
</a>
</g>
</g>
<!-- Node16&#45;&gt;Node17 -->
<g id="edge16" class="edge">
<title>Node16&#45;&gt;Node17</title>
<path fill="none" stroke="#191970" d="M519.8431,-73.96C540.9386,-68.6512 565.3766,-62.5012 585.1703,-57.5201"/>
<polygon fill="#191970" stroke="#191970" points="518.9471,-70.5763 510.1037,-76.411 520.6555,-77.3646 518.9471,-70.5763"/>
</g>
<!-- Node19 -->
<g id="node19" class="node">
<title>Node19</title>
<g id="a_node19"><a xlink:href="flux__transform__main_8f90.xhtml#a9514a018945b31f3f7749d95c2e47c5e" target="_top" xlink:title="contains progam: Flux_Transform_Main ">
<polygon fill="#ffffff" stroke="#000000" points="564,-95.5 564,-114.5 682,-114.5 682,-95.5 564,-95.5"/>
<text text-anchor="middle" x="623" y="-102.5" font-family="Helvetica,sans-Serif" font-size="10.00" fill="#000000">flux_transform_main</text>
</a>
</g>
</g>
<!-- Node18&#45;&gt;Node19 -->
<g id="edge18" class="edge">
<title>Node18&#45;&gt;Node19</title>
<path fill="none" stroke="#191970" d="M538.1897,-115.6715C546.7633,-114.5927 555.4995,-113.4934 563.947,-112.4305"/>
<polygon fill="#191970" stroke="#191970" points="537.7116,-112.204 528.2268,-116.9251 538.5856,-119.1492 537.7116,-112.204"/>
</g>
<!-- Node21 -->
<g id="node21" class="node">
<title>Node21</title>
<g id="a_node21"><a xlink:href="read__field__headers_8f90.xhtml#aba4c01cf54efd3c53f0b6e02bff52ddd" target="_top" xlink:title="Programming standard: Unified Model Documentation Paper No 3. ">
<polygon fill="#ffffff" stroke="#000000" points="417.5,-.5 417.5,-19.5 526.5,-19.5 526.5,-.5 417.5,-.5"/>
<text text-anchor="middle" x="472" y="-7.5" font-family="Helvetica,sans-Serif" font-size="10.00" fill="#000000">read_field_headers</text>
</a>
</g>
</g>
<!-- Node20&#45;&gt;Node21 -->
<g id="edge20" class="edge">
<title>Node20&#45;&gt;Node21</title>
<path fill="none" stroke="#191970" d="M370.4922,-35.8879C391.2436,-30.5956 415.2282,-24.4787 434.6714,-19.5201"/>
<polygon fill="#191970" stroke="#191970" points="369.4239,-32.5482 360.599,-38.411 371.1538,-39.3311 369.4239,-32.5482"/>
</g>
<!-- Node22 -->
<g id="node22" class="node">
<title>Node22</title>
<g id="a_node22"><a xlink:href="read__lsm__headers_8f90.xhtml#a7bfd16875a872b504838085864d2861c" target="_top" xlink:title="Programming standard: Unified Model Documentation Paper No 3. ">
<polygon fill="#ffffff" stroke="#000000" points="419,-38.5 419,-57.5 525,-57.5 525,-38.5 419,-38.5"/>
<text text-anchor="middle" x="472" y="-45.5" font-family="Helvetica,sans-Serif" font-size="10.00" fill="#000000">read_lsm_headers</text>
</a>
</g>
</g>
<!-- Node20&#45;&gt;Node22 -->
<g id="edge22" class="edge">
<title>Node20&#45;&gt;Node22</title>
<path fill="none" stroke="#191970" d="M383.8922,-48C395.474,-48 407.51,-48 418.8288,-48"/>
<polygon fill="#191970" stroke="#191970" points="383.8606,-44.5001 373.8606,-48 383.8606,-51.5001 383.8606,-44.5001"/>
</g>
<!-- Node21&#45;&gt;Node17 -->
<g id="edge21" class="edge">
<title>Node21&#45;&gt;Node17</title>
<path fill="none" stroke="#191970" d="M519.8431,-22.04C540.9386,-27.3488 565.3766,-33.4988 585.1703,-38.4799"/>
<polygon fill="#191970" stroke="#191970" points="520.6555,-18.6354 510.1037,-19.589 518.9471,-25.4237 520.6555,-18.6354"/>
</g>
<!-- Node22&#45;&gt;Node17 -->
<g id="edge23" class="edge">
<title>Node22&#45;&gt;Node17</title>
<path fill="none" stroke="#191970" d="M535.4907,-48C546.8016,-48 558.4816,-48 569.48,-48"/>
<polygon fill="#191970" stroke="#191970" points="535.237,-44.5001 525.237,-48 535.2369,-51.5001 535.237,-44.5001"/>
</g>
<!-- Node22&#45;&gt;Node19 -->
<g id="edge24" class="edge">
<title>Node22&#45;&gt;Node19</title>
<path fill="none" stroke="#191970" d="M510.7583,-60.8496C516.5552,-62.8583 522.4473,-64.9492 528,-67 552.8284,-76.1702 580.9372,-87.5386 600.097,-95.4399"/>
<polygon fill="#191970" stroke="#191970" points="511.7636,-57.4944 501.169,-57.568 509.4971,-64.1173 511.7636,-57.4944"/>
</g>
</g>
</svg>
        <g id="navigator" transform="translate(0 0)" fill="#404254">
                <rect fill="#f2f5e9" fill-opacity="0.5" stroke="#606060" stroke-width=".5" x="0" y="0" width="60" height="60"/>
                <use id="zoomplus" xlink:href="#zoomPlus" x="17" y="9" onmousedown="handleZoom(evt,'in')"/>
                <use id="zoomminus" xlink:href="#zoomMin" x="42" y="9" onmousedown="handleZoom(evt,'out')"/>
                <use id="reset" xlink:href="#resetDef" x="30" y="36" onmousedown="handleReset()"/>
                <g id="arrowUp" xlink:href="#dirArrow" transform="translate(30 24)" onmousedown="handlePan(0,-1)">
                  <use xlink:href="#rim" fill="#404040">
                        <set attributeName="fill" to="#808080" begin="arrowUp.mouseover" end="arrowUp.mouseout"/>
                  </use>
                  <path fill="none" stroke="white" stroke-width="1.5" d="M0,-3.0v7 M-2.5,-0.5L0,-3.0L2.5,-0.5"/>
                </g>
                <g id="arrowRight" xlink:href="#dirArrow" transform="rotate(90) translate(36 -43)" onmousedown="handlePan(1,0)">
                  <use xlink:href="#rim" fill="#404040">
                        <set attributeName="fill" to="#808080" begin="arrowRight.mouseover" end="arrowRight.mouseout"/>
                  </use>
                  <path fill="none" stroke="white" stroke-width="1.5" d="M0,-3.0v7 M-2.5,-0.5L0,-3.0L2.5,-0.5"/>
                </g>
                <g id="arrowDown" xlink:href="#dirArrow" transform="rotate(180) translate(-30 -48)" onmousedown="handlePan(0,1)">
                  <use xlink:href="#rim" fill="#404040">
                        <set attributeName="fill" to="#808080" begin="arrowDown.mouseover" end="arrowDown.mouseout"/>
                  </use>
                  <path fill="none" stroke="white" stroke-width="1.5" d="M0,-3.0v7 M-2.5,-0.5L0,-3.0L2.5,-0.5"/>
                </g>
                <g id="arrowLeft" xlink:href="#dirArrow" transform="rotate(270) translate(-36 17)" onmousedown="handlePan(-1,0)">
                  <use xlink:href="#rim" fill="#404040">
                        <set attributeName="fill" to="#808080" begin="arrowLeft.mouseover" end="arrowLeft.mouseout"/>
                  </use>
                  <path fill="none" stroke="white" stroke-width="1.5" d="M0,-3.0v7 M-2.5,-0.5L0,-3.0L2.5,-0.5"/>
                </g>
        </g>
        <svg viewBox="0 0 15 15" width="100%" height="30px" preserveAspectRatio="xMaxYMin meet">
         <g id="arrow_out" transform="scale(0.3 0.3)">
          <a xlink:href="get__dim_8f90_a8f90a58977c5830225564b6c907a8904_icgraph_org.svg" target="_base">
           <rect id="button" ry="5" rx="5" y="6" x="6" height="38" width="38"
                fill="#f2f5e9" fill-opacity="0.5" stroke="#606060" stroke-width="1.0"/>
           <path id="arrow"
             d="M 11.500037,31.436501 C 11.940474,20.09759 22.043105,11.32322 32.158766,21.979434 L 37.068811,17.246167 C 37.068811,17.246167 37.088388,32 37.088388,32 L 22.160133,31.978069 C 22.160133,31.978069 26.997745,27.140456 26.997745,27.140456 C 18.528582,18.264221 13.291696,25.230495 11.500037,31.436501 z"
             style="fill:#404040;"/>
          </a>
         </g>
        </svg>
</svg>
