<?xml version="1.0" encoding="UTF-8" standalone="no"?>
<!DOCTYPE svg PUBLIC "-//W3C//DTD SVG 1.1//EN"
 "http://www.w3.org/Graphics/SVG/1.1/DTD/svg11.dtd">
<!-- Generated by graphviz version 2.40.1 (20161225.0304)
 -->
<!-- Title: gw_vert Pages: 1 -->
<svg width="162pt" height="66pt"
 viewBox="0.00 0.00 162.00 66.00" xmlns="http://www.w3.org/2000/svg" xmlns:xlink="http://www.w3.org/1999/xlink">
<g id="graph0" class="graph" transform="scale(1 1) rotate(0) translate(4 62)">
<title>gw_vert</title>
<polygon fill="#ffffff" stroke="transparent" points="-4,4 -4,-62 158,-62 158,4 -4,4"/>
<!-- Node0 -->
<g id="node1" class="node">
<title>Node0</title>
<polygon fill="#bfbfbf" stroke="#000000" points="0,-19.5 0,-38.5 56,-38.5 56,-19.5 0,-19.5"/>
<text text-anchor="middle" x="28" y="-26.5" font-family="Helvetica,sans-Serif" font-size="10.00" fill="#000000">gw_vert</text>
</g>
<!-- Node1 -->
<g id="node2" class="node">
<title>Node1</title>
<g id="a_node2"><a xlink:href="gw__satn_8f90.xhtml#ab102164f730318c95fc44a749f378e65" target="_top" xlink:title="SUBROUTINE GW_SATN: Calculates stress profile for linear hydrostatic. ">
<polygon fill="#ffffff" stroke="#000000" points="94.5,-38.5 94.5,-57.5 151.5,-57.5 151.5,-38.5 94.5,-38.5"/>
<text text-anchor="middle" x="123" y="-45.5" font-family="Helvetica,sans-Serif" font-size="10.00" fill="#000000">gw_satn</text>
</a>
</g>
</g>
<!-- Node0&#45;&gt;Node1 -->
<g id="edge1" class="edge">
<title>Node0&#45;&gt;Node1</title>
<path fill="none" stroke="#191970" d="M56.2459,-34.6492C65.0824,-36.4165 74.9891,-38.3978 84.4107,-40.2821"/>
<polygon fill="#191970" stroke="#191970" points="83.8778,-43.7448 94.3701,-42.274 85.2507,-36.8807 83.8778,-43.7448"/>
</g>
<!-- Node2 -->
<g id="node3" class="node">
<title>Node2</title>
<g id="a_node3"><a xlink:href="gw__wake_8f90.xhtml#a8ba67562a0ef6d5d49404df73d8c6c11" target="_top" xlink:title="subroutine gw_wake to deposit blocked flow stress uniformly ">
<polygon fill="#ffffff" stroke="#000000" points="92,-.5 92,-19.5 154,-19.5 154,-.5 92,-.5"/>
<text text-anchor="middle" x="123" y="-7.5" font-family="Helvetica,sans-Serif" font-size="10.00" fill="#000000">gw_wake</text>
</a>
</g>
</g>
<!-- Node0&#45;&gt;Node2 -->
<g id="edge2" class="edge">
<title>Node0&#45;&gt;Node2</title>
<path fill="none" stroke="#191970" d="M56.2459,-23.3508C64.2655,-21.7469 73.1664,-19.9667 81.7862,-18.2428"/>
<polygon fill="#191970" stroke="#191970" points="82.5869,-21.652 91.7063,-16.2587 81.2141,-14.7879 82.5869,-21.652"/>
</g>
</g>
</svg>
