<?xml version="1.0" encoding="UTF-8" standalone="no"?>
<!DOCTYPE svg PUBLIC "-//W3C//DTD SVG 1.1//EN"
 "http://www.w3.org/Graphics/SVG/1.1/DTD/svg11.dtd">
<!-- Generated by graphviz version 2.40.1 (20161225.0304)
 -->
<!-- Title: hdppxrf Pages: 1 -->
<svg width="605pt" height="116pt"
 viewBox="0.00 0.00 605.00 115.50" xmlns="http://www.w3.org/2000/svg" xmlns:xlink="http://www.w3.org/1999/xlink">
<g id="graph0" class="graph" transform="scale(1 1) rotate(0) translate(4 111.5)">
<title>hdppxrf</title>
<polygon fill="#ffffff" stroke="transparent" points="-4,4 -4,-111.5 601,-111.5 601,4 -4,4"/>
<!-- Node0 -->
<g id="node1" class="node">
<title>Node0</title>
<polygon fill="#bfbfbf" stroke="#000000" points="0,-60.5 0,-79.5 54,-79.5 54,-60.5 0,-60.5"/>
<text text-anchor="middle" x="27" y="-67.5" font-family="Helvetica,sans-Serif" font-size="10.00" fill="#000000">hdppxrf</text>
</g>
<!-- Node1 -->
<g id="node2" class="node">
<title>Node1</title>
<g id="a_node2"><a xlink:href="namespaceapplication__description.xhtml#ac0af55c2fa620d8fa9d7c21db223666a" target="_top" xlink:title="application_description\l::issmallexec">
<polygon fill="#ffffff" stroke="#000000" points="90,-77 90,-107 220,-107 220,-77 90,-77"/>
<text text-anchor="start" x="98" y="-95" font-family="Helvetica,sans-Serif" font-size="10.00" fill="#000000">application_description</text>
<text text-anchor="middle" x="155" y="-84" font-family="Helvetica,sans-Serif" font-size="10.00" fill="#000000">::issmallexec</text>
</a>
</g>
</g>
<!-- Node0&#45;&gt;Node1 -->
<g id="edge1" class="edge">
<title>Node0&#45;&gt;Node1</title>
<path fill="none" stroke="#191970" d="M54.1455,-74.6656C61.906,-75.9995 70.7632,-77.5218 79.933,-79.0979"/>
<polygon fill="#191970" stroke="#191970" points="79.5204,-82.5782 89.9688,-80.8228 80.7062,-75.6793 79.5204,-82.5782"/>
</g>
<!-- Node2 -->
<g id="node3" class="node">
<title>Node2</title>
<g id="a_node3"><a xlink:href="namespaceumprintmgr.xhtml#aae44897e556705dbf5e945a26538be9a" target="_top" xlink:title="umprintmgr::umprint">
<polygon fill="#ffffff" stroke="#000000" points="95.5,-38.5 95.5,-57.5 214.5,-57.5 214.5,-38.5 95.5,-38.5"/>
<text text-anchor="middle" x="155" y="-45.5" font-family="Helvetica,sans-Serif" font-size="10.00" fill="#000000">umprintmgr::umprint</text>
</a>
</g>
</g>
<!-- Node0&#45;&gt;Node2 -->
<g id="edge2" class="edge">
<title>Node0&#45;&gt;Node2</title>
<path fill="none" stroke="#191970" d="M54.1455,-65.3344C64.6264,-63.533 77.1077,-61.3877 89.6578,-59.2307"/>
<polygon fill="#191970" stroke="#191970" points="90.438,-62.648 99.7006,-57.5046 89.2522,-55.7492 90.438,-62.648"/>
</g>
<!-- Node3 -->
<g id="node4" class="node">
<title>Node3</title>
<g id="a_node4"><a xlink:href="namespaceumprintmgr.xhtml#a088ce22a18d574e9df7ee1850bfb10c7" target="_top" xlink:title="umprintmgr::umprintopenstream">
<polygon fill="#ffffff" stroke="#000000" points="256,-38.5 256,-57.5 433,-57.5 433,-38.5 256,-38.5"/>
<text text-anchor="middle" x="344.5" y="-45.5" font-family="Helvetica,sans-Serif" font-size="10.00" fill="#000000">umprintmgr::umprintopenstream</text>
</a>
</g>
</g>
<!-- Node2&#45;&gt;Node3 -->
<g id="edge3" class="edge">
<title>Node2&#45;&gt;Node3</title>
<path fill="none" stroke="#191970" d="M214.6989,-41.6785C224.6468,-41.4243 235.1947,-41.2832 245.8088,-41.2552"/>
<polygon fill="#191970" stroke="#191970" points="245.9852,-44.7552 255.9879,-41.263 245.9906,-37.7552 245.9852,-44.7552"/>
</g>
<!-- Node4 -->
<g id="node5" class="node">
<title>Node4</title>
<g id="a_node5"><a xlink:href="namespaceumprintmgr.xhtml#ad3a290b30a6e25500eabc0bf90330b77" target="_top" xlink:title="umprintmgr::umprintflush">
<polygon fill="#ffffff" stroke="#000000" points="273.5,-.5 273.5,-19.5 415.5,-19.5 415.5,-.5 273.5,-.5"/>
<text text-anchor="middle" x="344.5" y="-7.5" font-family="Helvetica,sans-Serif" font-size="10.00" fill="#000000">umprintmgr::umprintflush</text>
</a>
</g>
</g>
<!-- Node2&#45;&gt;Node4 -->
<g id="edge5" class="edge">
<title>Node2&#45;&gt;Node4</title>
<path fill="none" stroke="#191970" d="M202.8189,-38.411C228.3886,-33.2835 260.059,-26.9328 286.9678,-21.5368"/>
<polygon fill="#191970" stroke="#191970" points="287.9084,-24.9179 297.025,-19.5201 286.532,-18.0546 287.9084,-24.9179"/>
</g>
<!-- Node3&#45;&gt;Node2 -->
<g id="edge4" class="edge">
<title>Node3&#45;&gt;Node2</title>
<path fill="none" stroke="#191970" d="M255.9879,-54.737C245.4955,-54.7808 234.9006,-54.7139 224.721,-54.5362"/>
<polygon fill="#191970" stroke="#191970" points="224.7716,-51.0365 214.6989,-54.3215 224.6216,-58.0349 224.7716,-51.0365"/>
</g>
<!-- Node5 -->
<g id="node6" class="node">
<title>Node5</title>
<g id="a_node6"><a xlink:href="namespaceumflush__mod.xhtml#a3a003ab59990bdcb712b443dd5e0d1cd" target="_top" xlink:title="umflush_mod::umflush">
<polygon fill="#ffffff" stroke="#000000" points="469,-.5 469,-19.5 597,-19.5 597,-.5 469,-.5"/>
<text text-anchor="middle" x="533" y="-7.5" font-family="Helvetica,sans-Serif" font-size="10.00" fill="#000000">umflush_mod::umflush</text>
</a>
</g>
</g>
<!-- Node4&#45;&gt;Node5 -->
<g id="edge6" class="edge">
<title>Node4&#45;&gt;Node5</title>
<path fill="none" stroke="#191970" d="M415.7638,-10C429.7742,-10 444.5063,-10 458.6162,-10"/>
<polygon fill="#191970" stroke="#191970" points="458.7612,-13.5001 468.7611,-10 458.7611,-6.5001 458.7612,-13.5001"/>
</g>
</g>
</svg>
