<?xml version="1.0" encoding="UTF-8" standalone="no"?>
<!DOCTYPE svg PUBLIC "-//W3C//DTD SVG 1.1//EN"
 "http://www.w3.org/Graphics/SVG/1.1/DTD/svg11.dtd">
<!-- Generated by graphviz version 2.40.1 (20161225.0304)
 -->
<!-- Title: iccloseoutput Pages: 1 -->
<svg width="397pt" height="66pt"
 viewBox="0.00 0.00 397.00 66.00" xmlns="http://www.w3.org/2000/svg" xmlns:xlink="http://www.w3.org/1999/xlink">
<g id="graph0" class="graph" transform="scale(1 1) rotate(0) translate(4 62)">
<title>iccloseoutput</title>
<polygon fill="#ffffff" stroke="transparent" points="-4,4 -4,-62 393,-62 393,4 -4,4"/>
<!-- Node5 -->
<g id="node1" class="node">
<title>Node5</title>
<polygon fill="#bfbfbf" stroke="#000000" points="0,-19.5 0,-38.5 82,-38.5 82,-19.5 0,-19.5"/>
<text text-anchor="middle" x="41" y="-26.5" font-family="Helvetica,sans-Serif" font-size="10.00" fill="#000000">iccloseoutput</text>
</g>
<!-- Node6 -->
<g id="node2" class="node">
<title>Node6</title>
<g id="a_node2"><a xlink:href="u__model_8f90.xhtml#ada0cd2ce4699433bf0f9adbd882c8eec" target="_top" xlink:title="Subroutine: U_MODEL &#45;!&gt; ">
<polygon fill="#ffffff" stroke="#000000" points="126.5,-38.5 126.5,-57.5 185.5,-57.5 185.5,-38.5 126.5,-38.5"/>
<text text-anchor="middle" x="156" y="-45.5" font-family="Helvetica,sans-Serif" font-size="10.00" fill="#000000">u_model</text>
</a>
</g>
</g>
<!-- Node5&#45;&gt;Node6 -->
<g id="edge1" class="edge">
<title>Node5&#45;&gt;Node6</title>
<path fill="none" stroke="#191970" d="M92.2786,-37.4721C103.9115,-39.3941 115.8881,-41.3728 126.2737,-43.0887"/>
<polygon fill="#191970" stroke="#191970" points="92.6296,-33.9827 82.1928,-35.8058 91.4885,-40.8891 92.6296,-33.9827"/>
</g>
<!-- Node9 -->
<g id="node5" class="node">
<title>Node9</title>
<g id="a_node5"><a xlink:href="u__model__4_a_8f90.xhtml#afa05064dab5eba198b461d0928767c7e" target="_top" xlink:title="LL Subroutine: U_MODEL_4A (ENDGAME VERSION) !&gt;LL. ">
<polygon fill="#ffffff" stroke="#000000" points="118,-.5 118,-19.5 194,-19.5 194,-.5 118,-.5"/>
<text text-anchor="middle" x="156" y="-7.5" font-family="Helvetica,sans-Serif" font-size="10.00" fill="#000000">u_model_4a</text>
</a>
</g>
</g>
<!-- Node5&#45;&gt;Node9 -->
<g id="edge4" class="edge">
<title>Node5&#45;&gt;Node9</title>
<path fill="none" stroke="#191970" d="M92.1632,-20.547C100.7715,-19.1247 109.5716,-17.6708 117.7791,-16.3148"/>
<polygon fill="#191970" stroke="#191970" points="91.4885,-17.1109 82.1928,-22.1942 92.6296,-24.0173 91.4885,-17.1109"/>
</g>
<!-- Node7 -->
<g id="node3" class="node">
<title>Node7</title>
<g id="a_node3"><a xlink:href="um__shell_8f90.xhtml#a8c9bd25362824a5c301376ecb5ed5c27" target="_top" xlink:title="Subroutine: UM_SHELL !&gt; ">
<polygon fill="#ffffff" stroke="#000000" points="230,-19.5 230,-38.5 291,-38.5 291,-19.5 230,-19.5"/>
<text text-anchor="middle" x="260.5" y="-26.5" font-family="Helvetica,sans-Serif" font-size="10.00" fill="#000000">um_shell</text>
</a>
</g>
</g>
<!-- Node6&#45;&gt;Node7 -->
<g id="edge2" class="edge">
<title>Node6&#45;&gt;Node7</title>
<path fill="none" stroke="#191970" d="M195.701,-40.7816C206.951,-38.7362 219.0261,-36.5407 229.6677,-34.6059"/>
<polygon fill="#191970" stroke="#191970" points="194.8786,-37.3737 185.666,-42.6062 196.1308,-44.2608 194.8786,-37.3737"/>
</g>
<!-- Node8 -->
<g id="node4" class="node">
<title>Node8</title>
<g id="a_node4"><a xlink:href="um__main_8f90.xhtml#a8f2d13215621443a5313261c282f098b" target="_top" xlink:title="Code Owner: See Unified Model Code Owner&#39;s HTML page. ">
<polygon fill="#ffffff" stroke="#000000" points="327,-19.5 327,-38.5 389,-38.5 389,-19.5 327,-19.5"/>
<text text-anchor="middle" x="358" y="-26.5" font-family="Helvetica,sans-Serif" font-size="10.00" fill="#000000">um_main</text>
</a>
</g>
</g>
<!-- Node7&#45;&gt;Node8 -->
<g id="edge3" class="edge">
<title>Node7&#45;&gt;Node8</title>
<path fill="none" stroke="#191970" d="M301.2756,-29C309.8294,-29 318.72,-29 326.8551,-29"/>
<polygon fill="#191970" stroke="#191970" points="301.0821,-25.5001 291.0821,-29 301.0821,-32.5001 301.0821,-25.5001"/>
</g>
<!-- Node9&#45;&gt;Node7 -->
<g id="edge5" class="edge">
<title>Node9&#45;&gt;Node7</title>
<path fill="none" stroke="#191970" d="M203.8728,-18.7041C212.7087,-20.3107 221.7128,-21.9478 229.8647,-23.43"/>
<polygon fill="#191970" stroke="#191970" points="204.4873,-15.2586 194.0225,-16.9132 203.2351,-22.1457 204.4873,-15.2586"/>
</g>
</g>
</svg>
