<?xml version="1.0" encoding="UTF-8" standalone="no"?>
<!DOCTYPE svg PUBLIC "-//W3C//DTD SVG 1.1//EN"
 "http://www.w3.org/Graphics/SVG/1.1/DTD/svg11.dtd">
<!-- Generated by graphviz version 2.40.1 (20161225.0304)
 -->
<!-- Title: idl_initial_data Pages: 1 -->
<svg width="796pt" height="788pt"
 viewBox="0.00 0.00 796.00 788.00" xmlns="http://www.w3.org/2000/svg" xmlns:xlink="http://www.w3.org/1999/xlink">
<g id="graph0" class="graph" transform="scale(1 1) rotate(0) translate(4 784)">
<title>idl_initial_data</title>
<polygon fill="#ffffff" stroke="transparent" points="-4,4 -4,-784 792,-784 792,4 -4,4"/>
<!-- Node0 -->
<g id="node1" class="node">
<title>Node0</title>
<polygon fill="#bfbfbf" stroke="#000000" points="0,-380.5 0,-399.5 89,-399.5 89,-380.5 0,-380.5"/>
<text text-anchor="middle" x="44.5" y="-387.5" font-family="Helvetica,sans-Serif" font-size="10.00" fill="#000000">idl_initial_data</text>
</g>
<!-- Node1 -->
<g id="node2" class="node">
<title>Node1</title>
<g id="a_node2"><a xlink:href="namespaceeqtoll__mod.xhtml#aa7e9a170440dd6cdf13b810ef4e407dd" target="_top" xlink:title="eqtoll_mod::eqtoll">
<polygon fill="#ffffff" stroke="#000000" points="138,-760.5 138,-779.5 243,-779.5 243,-760.5 138,-760.5"/>
<text text-anchor="middle" x="190.5" y="-767.5" font-family="Helvetica,sans-Serif" font-size="10.00" fill="#000000">eqtoll_mod::eqtoll</text>
</a>
</g>
</g>
<!-- Node0&#45;&gt;Node1 -->
<g id="edge1" class="edge">
<title>Node0&#45;&gt;Node1</title>
<path fill="none" stroke="#191970" d="M45.3487,-399.7508C50.0769,-451.9026 74.7819,-697.5181 125,-751 126.2537,-752.3352 127.5951,-753.5784 129.0089,-754.7359"/>
<polygon fill="#191970" stroke="#191970" points="127.5063,-757.9347 137.7931,-760.4709 131.3331,-752.0733 127.5063,-757.9347"/>
</g>
<!-- Node2 -->
<g id="node3" class="node">
<title>Node2</title>
<g id="a_node3"><a xlink:href="namespacew__coeff__mod.xhtml#a136b5a27ce2a0c71171743cf053a164d" target="_top" xlink:title="w_coeff_mod::w_coeff">
<polygon fill="#ffffff" stroke="#000000" points="128,-722.5 128,-741.5 253,-741.5 253,-722.5 128,-722.5"/>
<text text-anchor="middle" x="190.5" y="-729.5" font-family="Helvetica,sans-Serif" font-size="10.00" fill="#000000">w_coeff_mod::w_coeff</text>
</a>
</g>
</g>
<!-- Node0&#45;&gt;Node2 -->
<g id="edge2" class="edge">
<title>Node0&#45;&gt;Node2</title>
<path fill="none" stroke="#191970" d="M45.6138,-399.6765C51.3989,-448.3282 79.5097,-665.7437 125,-713 126.3857,-714.4395 127.8733,-715.7717 129.4434,-717.0047"/>
<polygon fill="#191970" stroke="#191970" points="127.5747,-719.9641 137.8909,-722.378 131.3317,-714.0577 127.5747,-719.9641"/>
</g>
<!-- Node3 -->
<g id="node4" class="node">
<title>Node3</title>
<g id="a_node4"><a xlink:href="w__lltoeq_8f90.xhtml#a4bbee9fd6dbf966e3bdeff44385fe822" target="_top" xlink:title="w_lltoeq">
<polygon fill="#ffffff" stroke="#000000" points="161.5,-684.5 161.5,-703.5 219.5,-703.5 219.5,-684.5 161.5,-684.5"/>
<text text-anchor="middle" x="190.5" y="-691.5" font-family="Helvetica,sans-Serif" font-size="10.00" fill="#000000">w_lltoeq</text>
</a>
</g>
</g>
<!-- Node0&#45;&gt;Node3 -->
<g id="edge3" class="edge">
<title>Node0&#45;&gt;Node3</title>
<path fill="none" stroke="#191970" d="M46.0991,-399.7874C53.5701,-444.4413 86.3089,-628.4482 125,-670 132.1183,-677.6446 141.8751,-682.8624 151.6844,-686.4207"/>
<polygon fill="#191970" stroke="#191970" points="150.827,-689.8195 161.4156,-689.4545 152.9104,-683.1367 150.827,-689.8195"/>
</g>
<!-- Node4 -->
<g id="node5" class="node">
<title>Node4</title>
<g id="a_node5"><a xlink:href="namespaceumprintmgr.xhtml#aae44897e556705dbf5e945a26538be9a" target="_top" xlink:title="umprintmgr::umprint">
<polygon fill="#ffffff" stroke="#000000" points="292,-437.5 292,-456.5 411,-456.5 411,-437.5 292,-437.5"/>
<text text-anchor="middle" x="351.5" y="-444.5" font-family="Helvetica,sans-Serif" font-size="10.00" fill="#000000">umprintmgr::umprint</text>
</a>
</g>
</g>
<!-- Node0&#45;&gt;Node4 -->
<g id="edge4" class="edge">
<title>Node0&#45;&gt;Node4</title>
<path fill="none" stroke="#191970" d="M46.0907,-399.5005C53.2855,-441.2165 84.2112,-607.3931 125,-637 172.1181,-671.2011 206.4411,-667.5571 256,-637 317.7578,-598.9213 340.9762,-507.3361 348.4313,-466.8355"/>
<polygon fill="#191970" stroke="#191970" points="351.9025,-467.3002 350.135,-456.8538 345.0023,-466.1224 351.9025,-467.3002"/>
</g>
<!-- Node8 -->
<g id="node9" class="node">
<title>Node8</title>
<g id="a_node9"><a xlink:href="idl__tprofile1_8f90.xhtml#acc0a365b383660e7f8c1ca4196cf529d" target="_top" xlink:title="Subroutine IDL_tprofile1. ">
<polygon fill="#ffffff" stroke="#000000" points="153.5,-608.5 153.5,-627.5 227.5,-627.5 227.5,-608.5 153.5,-608.5"/>
<text text-anchor="middle" x="190.5" y="-615.5" font-family="Helvetica,sans-Serif" font-size="10.00" fill="#000000">idl_tprofile1</text>
</a>
</g>
</g>
<!-- Node0&#45;&gt;Node8 -->
<g id="edge9" class="edge">
<title>Node0&#45;&gt;Node8</title>
<path fill="none" stroke="#191970" d="M45.2505,-399.5528C48.3574,-432.4596 63.1329,-542.1987 125,-599 130.3966,-603.9547 137.0109,-607.6243 143.9391,-610.3405"/>
<polygon fill="#191970" stroke="#191970" points="142.9031,-613.6842 153.4961,-613.4847 145.0908,-607.0348 142.9031,-613.6842"/>
</g>
<!-- Node9 -->
<g id="node10" class="node">
<title>Node9</title>
<g id="a_node10"><a xlink:href="idl__tprofile2_8f90.xhtml#a3acee5ca06de499e64e34ffbe3b17b10" target="_top" xlink:title="Subroutine IDL_tprofile2 Subroutine IDL_tprofile2. ">
<polygon fill="#ffffff" stroke="#000000" points="153.5,-570.5 153.5,-589.5 227.5,-589.5 227.5,-570.5 153.5,-570.5"/>
<text text-anchor="middle" x="190.5" y="-577.5" font-family="Helvetica,sans-Serif" font-size="10.00" fill="#000000">idl_tprofile2</text>
</a>
</g>
</g>
<!-- Node0&#45;&gt;Node9 -->
<g id="edge11" class="edge">
<title>Node0&#45;&gt;Node9</title>
<path fill="none" stroke="#191970" d="M46.2063,-399.827C51.8004,-429.031 72.3406,-516.0509 125,-561 130.3851,-565.5966 136.8282,-569.0825 143.5412,-571.7258"/>
<polygon fill="#191970" stroke="#191970" points="142.8843,-575.1956 153.4778,-575.0268 145.0912,-568.5526 142.8843,-575.1956"/>
</g>
<!-- Node10 -->
<g id="node11" class="node">
<title>Node10</title>
<g id="a_node11"><a xlink:href="idl__tprofile3_8f90.xhtml#a9a53317a824b0bf1dd047b6e0c3f3588" target="_top" xlink:title="Subroutine IDL_tprofile3. ">
<polygon fill="#ffffff" stroke="#000000" points="153.5,-532.5 153.5,-551.5 227.5,-551.5 227.5,-532.5 153.5,-532.5"/>
<text text-anchor="middle" x="190.5" y="-539.5" font-family="Helvetica,sans-Serif" font-size="10.00" fill="#000000">idl_tprofile3</text>
</a>
</g>
</g>
<!-- Node0&#45;&gt;Node10 -->
<g id="edge13" class="edge">
<title>Node0&#45;&gt;Node10</title>
<path fill="none" stroke="#191970" d="M47.5849,-399.7224C55.8883,-424.2945 81.1009,-489.3204 125,-523 130.4911,-527.2128 136.8896,-530.4924 143.4946,-533.0452"/>
<polygon fill="#191970" stroke="#191970" points="142.6445,-536.451 153.2381,-536.2895 144.856,-529.8095 142.6445,-536.451"/>
</g>
<!-- Node11 -->
<g id="node12" class="node">
<title>Node11</title>
<g id="a_node12"><a xlink:href="idl__tprofile4_8f90.xhtml#af33802e8385462c1889c6dff0033e6d5" target="_top" xlink:title="Subroutine IDL_tprofile4. ">
<polygon fill="#ffffff" stroke="#000000" points="153.5,-494.5 153.5,-513.5 227.5,-513.5 227.5,-494.5 153.5,-494.5"/>
<text text-anchor="middle" x="190.5" y="-501.5" font-family="Helvetica,sans-Serif" font-size="10.00" fill="#000000">idl_tprofile4</text>
</a>
</g>
</g>
<!-- Node0&#45;&gt;Node11 -->
<g id="edge15" class="edge">
<title>Node0&#45;&gt;Node11</title>
<path fill="none" stroke="#191970" d="M50.0082,-399.7057C61.4345,-418.9528 89.6255,-462.0717 125,-485 130.6743,-488.6778 137.0765,-491.6603 143.5996,-494.0746"/>
<polygon fill="#191970" stroke="#191970" points="142.5796,-497.4234 153.1724,-497.2201 144.7648,-490.7733 142.5796,-497.4234"/>
</g>
<!-- Node12 -->
<g id="node13" class="node">
<title>Node12</title>
<g id="a_node13"><a xlink:href="idl__tprofile5_8f90.xhtml#a49502b6c97c196727dc73853244ddbb1" target="_top" xlink:title="Subroutine IDL_tprofile5 Subroutine IDL_tprofile5. ">
<polygon fill="#ffffff" stroke="#000000" points="153.5,-456.5 153.5,-475.5 227.5,-475.5 227.5,-456.5 153.5,-456.5"/>
<text text-anchor="middle" x="190.5" y="-463.5" font-family="Helvetica,sans-Serif" font-size="10.00" fill="#000000">idl_tprofile5</text>
</a>
</g>
</g>
<!-- Node0&#45;&gt;Node12 -->
<g id="edge17" class="edge">
<title>Node0&#45;&gt;Node12</title>
<path fill="none" stroke="#191970" d="M55.4699,-399.5996C70.2998,-412.1284 98.0055,-433.9859 125,-447 130.8094,-449.8007 137.1119,-452.2698 143.4346,-454.4215"/>
<polygon fill="#191970" stroke="#191970" points="142.7293,-457.8691 153.3192,-457.5436 144.8377,-451.1941 142.7293,-457.8691"/>
</g>
<!-- Node13 -->
<g id="node14" class="node">
<title>Node13</title>
<g id="a_node14"><a xlink:href="idl__tprofile6_8f90.xhtml#a104e4db8eb6a9bb95562fd9868afc97d" target="_top" xlink:title="Subroutine IDL_tprofile6 Subroutine IDL_tprofile6. ">
<polygon fill="#ffffff" stroke="#000000" points="153.5,-418.5 153.5,-437.5 227.5,-437.5 227.5,-418.5 153.5,-418.5"/>
<text text-anchor="middle" x="190.5" y="-425.5" font-family="Helvetica,sans-Serif" font-size="10.00" fill="#000000">idl_tprofile6</text>
</a>
</g>
</g>
<!-- Node0&#45;&gt;Node13 -->
<g id="edge19" class="edge">
<title>Node0&#45;&gt;Node13</title>
<path fill="none" stroke="#191970" d="M81.342,-399.589C100.3479,-404.5358 123.7286,-410.6211 143.9692,-415.8892"/>
<polygon fill="#191970" stroke="#191970" points="143.3638,-419.3482 153.923,-418.4799 145.127,-412.5739 143.3638,-419.3482"/>
</g>
<!-- Node14 -->
<g id="node15" class="node">
<title>Node14</title>
<g id="a_node15"><a xlink:href="idl__tprofile7_8f90.xhtml#aacd6a75995542fad645da4000aa69bd7" target="_top" xlink:title="Subroutine IDL_tprofile7 Subroutine IDL_tprofile7. ">
<polygon fill="#ffffff" stroke="#000000" points="153.5,-380.5 153.5,-399.5 227.5,-399.5 227.5,-380.5 153.5,-380.5"/>
<text text-anchor="middle" x="190.5" y="-387.5" font-family="Helvetica,sans-Serif" font-size="10.00" fill="#000000">idl_tprofile7</text>
</a>
</g>
</g>
<!-- Node0&#45;&gt;Node14 -->
<g id="edge21" class="edge">
<title>Node0&#45;&gt;Node14</title>
<path fill="none" stroke="#191970" d="M89.0981,-390C106.0429,-390 125.4066,-390 142.6406,-390"/>
<polygon fill="#191970" stroke="#191970" points="143.0555,-393.5001 153.0554,-390 143.0554,-386.5001 143.0555,-393.5001"/>
</g>
<!-- Node15 -->
<g id="node16" class="node">
<title>Node15</title>
<g id="a_node16"><a xlink:href="idl__tprofile9_8f90.xhtml#a8ae45640262a7a082ffe0f204988d639" target="_top" xlink:title="Subroutine IDL_tprofile9 Subroutine IDL_tprofile9. ">
<polygon fill="#ffffff" stroke="#000000" points="153.5,-114.5 153.5,-133.5 227.5,-133.5 227.5,-114.5 153.5,-114.5"/>
<text text-anchor="middle" x="190.5" y="-121.5" font-family="Helvetica,sans-Serif" font-size="10.00" fill="#000000">idl_tprofile9</text>
</a>
</g>
</g>
<!-- Node0&#45;&gt;Node15 -->
<g id="edge23" class="edge">
<title>Node0&#45;&gt;Node15</title>
<path fill="none" stroke="#191970" d="M46.3667,-380.4885C54.5998,-339.4411 88.8635,-177.9728 125,-143 130.2645,-137.9051 136.8105,-134.1631 143.7111,-131.4176"/>
<polygon fill="#191970" stroke="#191970" points="144.8606,-134.724 153.2536,-128.2581 142.6603,-128.0787 144.8606,-134.724"/>
</g>
<!-- Node16 -->
<g id="node17" class="node">
<title>Node16</title>
<g id="a_node17"><a xlink:href="swap__bounds-swpbnd2a_8f90.xhtml#aa0269e41062e156c437596022ea9ccd0" target="_top" xlink:title="Portable GCOM based version SWAP_BOUNDS. ">
<polygon fill="#ffffff" stroke="#000000" points="310,-247.5 310,-266.5 393,-266.5 393,-247.5 310,-247.5"/>
<text text-anchor="middle" x="351.5" y="-254.5" font-family="Helvetica,sans-Serif" font-size="10.00" fill="#000000">swap_bounds</text>
</a>
</g>
</g>
<!-- Node0&#45;&gt;Node16 -->
<g id="edge24" class="edge">
<title>Node0&#45;&gt;Node16</title>
<path fill="none" stroke="#191970" d="M46.8693,-380.2626C53.7352,-354.4604 76.3288,-284.4332 125,-257 181.9267,-224.9136 260.3897,-234.4843 308.441,-245.1502"/>
<polygon fill="#191970" stroke="#191970" points="307.6808,-248.5668 318.2143,-247.4282 309.2699,-241.7495 307.6808,-248.5668"/>
</g>
<!-- Node18 -->
<g id="node19" class="node">
<title>Node18</title>
<g id="a_node19"><a xlink:href="idl__set__initial__humidity_8f90.xhtml#ad73ed7dd3349f41e77def64401a21369" target="_top" xlink:title="Subroutine IDL_set_initial_humidity. ">
<polygon fill="#ffffff" stroke="#000000" points="125,-152.5 125,-171.5 256,-171.5 256,-152.5 125,-152.5"/>
<text text-anchor="middle" x="190.5" y="-159.5" font-family="Helvetica,sans-Serif" font-size="10.00" fill="#000000">idl_set_initial_humidity</text>
</a>
</g>
</g>
<!-- Node0&#45;&gt;Node18 -->
<g id="edge26" class="edge">
<title>Node0&#45;&gt;Node18</title>
<path fill="none" stroke="#191970" d="M45.2505,-380.4472C48.3574,-347.5404 63.1329,-237.8013 125,-181 126.7008,-179.4385 128.5225,-178.0047 130.4368,-176.6881"/>
<polygon fill="#191970" stroke="#191970" points="132.3686,-179.6161 139.3359,-171.6343 128.9118,-173.5291 132.3686,-179.6161"/>
</g>
<!-- Node21 -->
<g id="node22" class="node">
<title>Node21</title>
<g id="a_node22"><a xlink:href="idl__calc__exner_8f90.xhtml#afaf5a5ea8183e7b4efb233b154922034" target="_top" xlink:title="Subroutine IDL_calc_exner. ">
<polygon fill="#ffffff" stroke="#000000" points="147.5,-76.5 147.5,-95.5 233.5,-95.5 233.5,-76.5 147.5,-76.5"/>
<text text-anchor="middle" x="190.5" y="-83.5" font-family="Helvetica,sans-Serif" font-size="10.00" fill="#000000">idl_calc_exner</text>
</a>
</g>
</g>
<!-- Node0&#45;&gt;Node21 -->
<g id="edge29" class="edge">
<title>Node0&#45;&gt;Node21</title>
<path fill="none" stroke="#191970" d="M45.9625,-380.2803C52.945,-335.0961 84.2439,-146.0442 125,-105 128.7112,-101.2625 133.1105,-98.2502 137.8465,-95.824"/>
<polygon fill="#191970" stroke="#191970" points="139.425,-98.9568 147.2771,-91.8438 136.7031,-92.5077 139.425,-98.9568"/>
</g>
<!-- Node22 -->
<g id="node23" class="node">
<title>Node22</title>
<g id="a_node23"><a xlink:href="idl__initialise__bubble_8f90.xhtml#aeffc9e43fc2ef0aca1dfdeb878425c7c" target="_top" xlink:title="Adds a temperature anomaly (bubble) to the temperature field. ">
<polygon fill="#ffffff" stroke="#000000" points="133.5,-190.5 133.5,-209.5 247.5,-209.5 247.5,-190.5 133.5,-190.5"/>
<text text-anchor="middle" x="190.5" y="-197.5" font-family="Helvetica,sans-Serif" font-size="10.00" fill="#000000">idl_initialise_bubble</text>
</a>
</g>
</g>
<!-- Node0&#45;&gt;Node22 -->
<g id="edge30" class="edge">
<title>Node0&#45;&gt;Node22</title>
<path fill="none" stroke="#191970" d="M46.5313,-380.2171C52.9029,-351.9174 75.1143,-269.117 125,-224 129.4308,-219.9928 134.5859,-216.6388 140.0219,-213.835"/>
<polygon fill="#191970" stroke="#191970" points="141.6846,-216.9245 149.3568,-209.6178 138.8026,-210.5453 141.6846,-216.9245"/>
</g>
<!-- Node23 -->
<g id="node24" class="node">
<title>Node23</title>
<g id="a_node24"><a xlink:href="idl__random__perturb_8f90.xhtml#acd8e15f32d3880a04ad0d388279a5347" target="_top" xlink:title="Adds a random number field to t,q for idealised atmosphere runs. ">
<polygon fill="#ffffff" stroke="#000000" points="134.5,-266.5 134.5,-285.5 246.5,-285.5 246.5,-266.5 134.5,-266.5"/>
<text text-anchor="middle" x="190.5" y="-273.5" font-family="Helvetica,sans-Serif" font-size="10.00" fill="#000000">idl_random_perturb</text>
</a>
</g>
</g>
<!-- Node0&#45;&gt;Node23 -->
<g id="edge33" class="edge">
<title>Node0&#45;&gt;Node23</title>
<path fill="none" stroke="#191970" d="M50.0082,-380.2943C61.4345,-361.0472 89.6255,-317.9283 125,-295 128.167,-292.9473 131.5608,-291.1111 135.0759,-289.4695"/>
<polygon fill="#191970" stroke="#191970" points="136.6695,-292.5988 144.591,-285.5632 134.011,-286.1233 136.6695,-292.5988"/>
</g>
<!-- Node24 -->
<g id="node25" class="node">
<title>Node24</title>
<g id="a_node25"><a xlink:href="idl__setup__def__front_8f90.xhtml#a02eb773d6a34a4e79a901a80cb5692f4" target="_top" xlink:title="Subroutine IDL_setup_def_front. ">
<polygon fill="#ffffff" stroke="#000000" points="135.5,-342.5 135.5,-361.5 245.5,-361.5 245.5,-342.5 135.5,-342.5"/>
<text text-anchor="middle" x="190.5" y="-349.5" font-family="Helvetica,sans-Serif" font-size="10.00" fill="#000000">idl_setup_def_front</text>
</a>
</g>
</g>
<!-- Node0&#45;&gt;Node24 -->
<g id="edge36" class="edge">
<title>Node0&#45;&gt;Node24</title>
<path fill="none" stroke="#191970" d="M81.342,-380.411C100.3479,-375.4642 123.7286,-369.3789 143.9692,-364.1108"/>
<polygon fill="#191970" stroke="#191970" points="145.127,-367.4261 153.923,-361.5201 143.3638,-360.6518 145.127,-367.4261"/>
</g>
<!-- Node25 -->
<g id="node26" class="node">
<title>Node25</title>
<g id="a_node26"><a xlink:href="idl__cyclone_8f90.xhtml#a1f3552da96f616039d322f8a8045f8da" target="_top" xlink:title="Subroutine IDL_CYCLONE. ">
<polygon fill="#ffffff" stroke="#000000" points="155,-38.5 155,-57.5 226,-57.5 226,-38.5 155,-38.5"/>
<text text-anchor="middle" x="190.5" y="-45.5" font-family="Helvetica,sans-Serif" font-size="10.00" fill="#000000">idl_cyclone</text>
</a>
</g>
</g>
<!-- Node0&#45;&gt;Node25 -->
<g id="edge38" class="edge">
<title>Node0&#45;&gt;Node25</title>
<path fill="none" stroke="#191970" d="M45.6138,-380.3235C51.3989,-331.6718 79.5097,-114.2563 125,-67 130.5427,-61.2421 137.7163,-57.1997 145.2753,-54.3683"/>
<polygon fill="#191970" stroke="#191970" points="146.4316,-57.6746 154.9625,-51.3918 144.3755,-50.9834 146.4316,-57.6746"/>
</g>
<!-- Node26 -->
<g id="node27" class="node">
<title>Node26</title>
<g id="a_node27"><a xlink:href="idl__baroclinic_8f90.xhtml#a72ed281639a575d8857a657bb210aaa2" target="_top" xlink:title="Subroutine IDL_BAROCLINIC. ">
<polygon fill="#ffffff" stroke="#000000" points="150,-.5 150,-19.5 231,-19.5 231,-.5 150,-.5"/>
<text text-anchor="middle" x="190.5" y="-7.5" font-family="Helvetica,sans-Serif" font-size="10.00" fill="#000000">idl_baroclinic</text>
</a>
</g>
</g>
<!-- Node0&#45;&gt;Node26 -->
<g id="edge39" class="edge">
<title>Node0&#45;&gt;Node26</title>
<path fill="none" stroke="#191970" d="M45.3487,-380.2492C50.0769,-328.0974 74.7819,-82.4819 125,-29 129.2056,-24.521 134.3975,-21.0772 140.003,-18.4328"/>
<polygon fill="#191970" stroke="#191970" points="141.6474,-21.5505 149.7259,-14.6958 139.136,-15.0165 141.6474,-21.5505"/>
</g>
<!-- Node27 -->
<g id="node28" class="node">
<title>Node27</title>
<g id="a_node28"><a xlink:href="idl__pr__balance_8f90.xhtml#ad50a3649016198e8edadfdb615c42150" target="_top" xlink:title="Subroutine IDL_pr_balance. ">
<polygon fill="#ffffff" stroke="#000000" points="147,-304.5 147,-323.5 234,-323.5 234,-304.5 147,-304.5"/>
<text text-anchor="middle" x="190.5" y="-311.5" font-family="Helvetica,sans-Serif" font-size="10.00" fill="#000000">idl_pr_balance</text>
</a>
</g>
</g>
<!-- Node0&#45;&gt;Node27 -->
<g id="edge40" class="edge">
<title>Node0&#45;&gt;Node27</title>
<path fill="none" stroke="#191970" d="M55.4699,-380.4004C70.2998,-367.8716 98.0055,-346.0141 125,-333 129.6795,-330.744 134.679,-328.7032 139.7512,-326.8701"/>
<polygon fill="#191970" stroke="#191970" points="141.1571,-330.0905 149.5303,-323.599 138.9365,-323.4521 141.1571,-330.0905"/>
</g>
<!-- Node5 -->
<g id="node6" class="node">
<title>Node5</title>
<g id="a_node6"><a xlink:href="namespaceumprintmgr.xhtml#a088ce22a18d574e9df7ee1850bfb10c7" target="_top" xlink:title="umprintmgr::umprintopenstream">
<polygon fill="#ffffff" stroke="#000000" points="447,-437.5 447,-456.5 624,-456.5 624,-437.5 447,-437.5"/>
<text text-anchor="middle" x="535.5" y="-444.5" font-family="Helvetica,sans-Serif" font-size="10.00" fill="#000000">umprintmgr::umprintopenstream</text>
</a>
</g>
</g>
<!-- Node4&#45;&gt;Node5 -->
<g id="edge5" class="edge">
<title>Node4&#45;&gt;Node5</title>
<path fill="none" stroke="#191970" d="M411.2395,-440.6333C419.4605,-440.4301 428.0751,-440.3077 436.7702,-440.2661"/>
<polygon fill="#191970" stroke="#191970" points="436.9998,-443.7659 446.9958,-440.2543 436.9917,-436.7659 436.9998,-443.7659"/>
</g>
<!-- Node6 -->
<g id="node7" class="node">
<title>Node6</title>
<g id="a_node7"><a xlink:href="namespaceumprintmgr.xhtml#ad3a290b30a6e25500eabc0bf90330b77" target="_top" xlink:title="umprintmgr::umprintflush">
<polygon fill="#ffffff" stroke="#000000" points="464.5,-475.5 464.5,-494.5 606.5,-494.5 606.5,-475.5 464.5,-475.5"/>
<text text-anchor="middle" x="535.5" y="-482.5" font-family="Helvetica,sans-Serif" font-size="10.00" fill="#000000">umprintmgr::umprintflush</text>
</a>
</g>
</g>
<!-- Node4&#45;&gt;Node6 -->
<g id="edge7" class="edge">
<title>Node4&#45;&gt;Node6</title>
<path fill="none" stroke="#191970" d="M397.931,-456.589C422.6493,-461.6939 453.239,-468.0113 479.292,-473.3918"/>
<polygon fill="#191970" stroke="#191970" points="478.9017,-476.885 489.4029,-475.4799 480.3175,-470.0297 478.9017,-476.885"/>
</g>
<!-- Node5&#45;&gt;Node4 -->
<g id="edge6" class="edge">
<title>Node5&#45;&gt;Node4</title>
<path fill="none" stroke="#191970" d="M446.9958,-453.7457C438.3802,-453.767 429.7236,-453.7094 421.3289,-453.5727"/>
<polygon fill="#191970" stroke="#191970" points="421.3089,-450.0716 411.2395,-453.3667 421.166,-457.0702 421.3089,-450.0716"/>
</g>
<!-- Node7 -->
<g id="node8" class="node">
<title>Node7</title>
<g id="a_node8"><a xlink:href="namespaceumflush__mod.xhtml#a3a003ab59990bdcb712b443dd5e0d1cd" target="_top" xlink:title="umflush_mod::umflush">
<polygon fill="#ffffff" stroke="#000000" points="660,-475.5 660,-494.5 788,-494.5 788,-475.5 660,-475.5"/>
<text text-anchor="middle" x="724" y="-482.5" font-family="Helvetica,sans-Serif" font-size="10.00" fill="#000000">umflush_mod::umflush</text>
</a>
</g>
</g>
<!-- Node6&#45;&gt;Node7 -->
<g id="edge8" class="edge">
<title>Node6&#45;&gt;Node7</title>
<path fill="none" stroke="#191970" d="M606.7638,-485C620.7742,-485 635.5063,-485 649.6162,-485"/>
<polygon fill="#191970" stroke="#191970" points="649.7612,-488.5001 659.7611,-485 649.7611,-481.5001 649.7612,-488.5001"/>
</g>
<!-- Node8&#45;&gt;Node4 -->
<g id="edge10" class="edge">
<title>Node8&#45;&gt;Node4</title>
<path fill="none" stroke="#191970" d="M227.6939,-612.2001C237.5758,-609.3828 247.7751,-605.2019 256,-599 302.7251,-563.7674 332.2851,-498.4432 344.7225,-466.1265"/>
<polygon fill="#191970" stroke="#191970" points="348.0882,-467.1166 348.284,-456.5235 341.525,-464.6824 348.0882,-467.1166"/>
</g>
<!-- Node9&#45;&gt;Node4 -->
<g id="edge12" class="edge">
<title>Node9&#45;&gt;Node4</title>
<path fill="none" stroke="#191970" d="M227.5072,-573.3508C237.2804,-570.5319 247.4709,-566.5624 256,-561 294.5441,-535.8626 325.7084,-490.47 341.086,-465.2104"/>
<polygon fill="#191970" stroke="#191970" points="344.1018,-466.9866 346.1891,-456.5994 338.0798,-463.4178 344.1018,-466.9866"/>
</g>
<!-- Node10&#45;&gt;Node4 -->
<g id="edge14" class="edge">
<title>Node10&#45;&gt;Node4</title>
<path fill="none" stroke="#191970" d="M227.5075,-533.9815C237.0765,-531.1846 247.1655,-527.5685 256,-523 286.5218,-507.2164 316.696,-480.9331 334.7156,-463.7857"/>
<polygon fill="#191970" stroke="#191970" points="337.3595,-466.0971 342.0972,-456.6205 332.4839,-461.0742 337.3595,-466.0971"/>
</g>
<!-- Node11&#45;&gt;Node4 -->
<g id="edge16" class="edge">
<title>Node11&#45;&gt;Node4</title>
<path fill="none" stroke="#191970" d="M225.7083,-494.4623C235.5707,-491.6082 246.2565,-488.343 256,-485 277.6037,-477.5878 301.4779,-468.0882 319.9516,-460.4414"/>
<polygon fill="#191970" stroke="#191970" points="321.464,-463.6028 329.3442,-456.5209 318.7676,-457.143 321.464,-463.6028"/>
</g>
<!-- Node12&#45;&gt;Node4 -->
<g id="edge18" class="edge">
<title>Node12&#45;&gt;Node4</title>
<path fill="none" stroke="#191970" d="M227.8413,-461.5933C243.9832,-459.6883 263.4122,-457.3955 282.0377,-455.1974"/>
<polygon fill="#191970" stroke="#191970" points="282.4575,-458.6722 291.9784,-454.0243 281.6371,-451.7205 282.4575,-458.6722"/>
</g>
<!-- Node13&#45;&gt;Node4 -->
<g id="edge20" class="edge">
<title>Node13&#45;&gt;Node4</title>
<path fill="none" stroke="#191970" d="M227.8413,-432.4067C243.9832,-434.3117 263.4122,-436.6045 282.0377,-438.8026"/>
<polygon fill="#191970" stroke="#191970" points="281.6371,-442.2795 291.9784,-439.9757 282.4575,-435.3278 281.6371,-442.2795"/>
</g>
<!-- Node14&#45;&gt;Node4 -->
<g id="edge22" class="edge">
<title>Node14&#45;&gt;Node4</title>
<path fill="none" stroke="#191970" d="M225.7083,-399.5377C235.5707,-402.3918 246.2565,-405.657 256,-409 277.6037,-416.4122 301.4779,-425.9118 319.9516,-433.5586"/>
<polygon fill="#191970" stroke="#191970" points="318.7676,-436.857 329.3442,-437.4791 321.464,-430.3972 318.7676,-436.857"/>
</g>
<!-- Node17 -->
<g id="node18" class="node">
<title>Node17</title>
<g id="a_node18"><a xlink:href="fill__external__halos_8f90.xhtml#a9f4e1e061e136821fb9a51281a5e69c2" target="_top" xlink:title="Routine for filling in External Halos. ">
<polygon fill="#ffffff" stroke="#000000" points="482.5,-247.5 482.5,-266.5 588.5,-266.5 588.5,-247.5 482.5,-247.5"/>
<text text-anchor="middle" x="535.5" y="-254.5" font-family="Helvetica,sans-Serif" font-size="10.00" fill="#000000">fill_external_halos</text>
</a>
</g>
</g>
<!-- Node16&#45;&gt;Node17 -->
<g id="edge25" class="edge">
<title>Node16&#45;&gt;Node17</title>
<path fill="none" stroke="#191970" d="M393.2524,-257C416.5601,-257 446.0746,-257 472.17,-257"/>
<polygon fill="#191970" stroke="#191970" points="472.3587,-260.5001 482.3587,-257 472.3586,-253.5001 472.3587,-260.5001"/>
</g>
<!-- Node19 -->
<g id="node20" class="node">
<title>Node19</title>
<g id="a_node20"><a xlink:href="qsat_8f90.xhtml#aea6c2f88cb65e881fc815b7be5559cc9" target="_top" xlink:title="Saturation Specific Humidity Scheme (Qsat): Vapour to Liquid/Ice. ">
<polygon fill="#ffffff" stroke="#000000" points="332.5,-190.5 332.5,-209.5 370.5,-209.5 370.5,-190.5 332.5,-190.5"/>
<text text-anchor="middle" x="351.5" y="-197.5" font-family="Helvetica,sans-Serif" font-size="10.00" fill="#000000">qsat</text>
</a>
</g>
</g>
<!-- Node18&#45;&gt;Node19 -->
<g id="edge27" class="edge">
<title>Node18&#45;&gt;Node19</title>
<path fill="none" stroke="#191970" d="M231.1271,-171.589C259.6192,-178.3138 297.0268,-187.143 322.5302,-193.1624"/>
<polygon fill="#191970" stroke="#191970" points="321.8026,-196.5868 332.3392,-195.4776 323.4107,-189.774 321.8026,-196.5868"/>
</g>
<!-- Node20 -->
<g id="node21" class="node">
<title>Node20</title>
<g id="a_node21"><a xlink:href="qsat__wat_8f90.xhtml#a0c0fb3b560128ff260172760c051f507" target="_top" xlink:title="Saturation Specific Humidity Scheme (Qsat_Wat): Vapour to Liquid. ">
<polygon fill="#ffffff" stroke="#000000" points="321,-152.5 321,-171.5 382,-171.5 382,-152.5 321,-152.5"/>
<text text-anchor="middle" x="351.5" y="-159.5" font-family="Helvetica,sans-Serif" font-size="10.00" fill="#000000">qsat_wat</text>
</a>
</g>
</g>
<!-- Node18&#45;&gt;Node20 -->
<g id="edge28" class="edge">
<title>Node18&#45;&gt;Node20</title>
<path fill="none" stroke="#191970" d="M256.4494,-162C274.6859,-162 293.953,-162 310.3373,-162"/>
<polygon fill="#191970" stroke="#191970" points="310.6481,-165.5001 320.6481,-162 310.648,-158.5001 310.6481,-165.5001"/>
</g>
<!-- Node22&#45;&gt;Node4 -->
<g id="edge31" class="edge">
<title>Node22&#45;&gt;Node4</title>
<path fill="none" stroke="#191970" d="M204.5419,-209.5394C218.9381,-219.8814 241.2497,-237.5374 256,-257 278.5753,-286.7875 275.3501,-299.5378 292,-333 308.8177,-366.7994 329.3791,-405.6879 341.4003,-428.1945"/>
<polygon fill="#191970" stroke="#191970" points="338.4727,-430.1417 346.2785,-437.3055 344.6438,-426.8375 338.4727,-430.1417"/>
</g>
<!-- Node22&#45;&gt;Node19 -->
<g id="edge32" class="edge">
<title>Node22&#45;&gt;Node19</title>
<path fill="none" stroke="#191970" d="M247.7159,-200C272.961,-200 301.5487,-200 322.3191,-200"/>
<polygon fill="#191970" stroke="#191970" points="322.4089,-203.5001 332.4089,-200 322.4089,-196.5001 322.4089,-203.5001"/>
</g>
<!-- Node23&#45;&gt;Node4 -->
<g id="edge34" class="edge">
<title>Node23&#45;&gt;Node4</title>
<path fill="none" stroke="#191970" d="M238.9507,-285.6302C245.0291,-288.0797 250.8949,-291.1506 256,-295 280.2238,-313.2657 322.8394,-391.6656 341.8606,-428.1672"/>
<polygon fill="#191970" stroke="#191970" points="338.8634,-429.991 346.5651,-437.2667 345.0815,-426.7762 338.8634,-429.991"/>
</g>
<!-- Node23&#45;&gt;Node16 -->
<g id="edge35" class="edge">
<title>Node23&#45;&gt;Node16</title>
<path fill="none" stroke="#191970" d="M246.81,-269.3547C264.0064,-267.3253 282.8265,-265.1043 299.7082,-263.1121"/>
<polygon fill="#191970" stroke="#191970" points="300.4163,-266.5529 309.9371,-261.9049 299.5958,-259.6011 300.4163,-266.5529"/>
</g>
<!-- Node24&#45;&gt;Node4 -->
<g id="edge37" class="edge">
<title>Node24&#45;&gt;Node4</title>
<path fill="none" stroke="#191970" d="M232.6734,-361.596C240.6397,-364.1372 248.7431,-367.2473 256,-371 286.5218,-386.7836 316.696,-413.0669 334.7156,-430.2143"/>
<polygon fill="#191970" stroke="#191970" points="332.4839,-432.9258 342.0972,-437.3795 337.3595,-427.9029 332.4839,-432.9258"/>
</g>
<!-- Node27&#45;&gt;Node4 -->
<g id="edge41" class="edge">
<title>Node27&#45;&gt;Node4</title>
<path fill="none" stroke="#191970" d="M234.0235,-322.6908C241.7021,-325.2998 249.3552,-328.6665 256,-333 294.5441,-358.1374 325.7084,-403.53 341.086,-428.7896"/>
<polygon fill="#191970" stroke="#191970" points="338.0798,-430.5822 346.1891,-437.4006 344.1018,-427.0134 338.0798,-430.5822"/>
</g>
<!-- Node28 -->
<g id="node29" class="node">
<title>Node28</title>
<g id="a_node29"><a xlink:href="csigma_8h.xhtml#a632bc67727118dd1c230108e7ac4371c" target="_top" xlink:title="constant">
<polygon fill="#ffffff" stroke="#000000" points="322,-304.5 322,-323.5 381,-323.5 381,-304.5 322,-304.5"/>
<text text-anchor="middle" x="351.5" y="-311.5" font-family="Helvetica,sans-Serif" font-size="10.00" fill="#000000">constant</text>
</a>
</g>
</g>
<!-- Node27&#45;&gt;Node28 -->
<g id="edge42" class="edge">
<title>Node27&#45;&gt;Node28</title>
<path fill="none" stroke="#191970" d="M234.0689,-314C258.2433,-314 288.0907,-314 311.6445,-314"/>
<polygon fill="#191970" stroke="#191970" points="311.6489,-317.5001 321.6489,-314 311.6488,-310.5001 311.6489,-317.5001"/>
</g>
</g>
</svg>
