<?xml version="1.0" encoding="UTF-8" standalone="no"?>
<!DOCTYPE svg PUBLIC "-//W3C//DTD SVG 1.1//EN"
 "http://www.w3.org/Graphics/SVG/1.1/DTD/svg11.dtd">
<!-- Generated by graphviz version 2.40.1 (20161225.0304)
 -->
<!-- Title: idl_random_perturb_4a Pages: 1 -->
<svg width="710pt" height="39pt"
 viewBox="0.00 0.00 710.00 39.00" xmlns="http://www.w3.org/2000/svg" xmlns:xlink="http://www.w3.org/1999/xlink">
<g id="graph0" class="graph" transform="scale(1 1) rotate(0) translate(4 35)">
<title>idl_random_perturb_4a</title>
<polygon fill="#ffffff" stroke="transparent" points="-4,4 -4,-35 706,-35 706,4 -4,4"/>
<!-- Node9 -->
<g id="node1" class="node">
<title>Node9</title>
<polygon fill="#bfbfbf" stroke="#000000" points="0,-6 0,-25 129,-25 129,-6 0,-6"/>
<text text-anchor="middle" x="64.5" y="-13" font-family="Helvetica,sans-Serif" font-size="10.00" fill="#000000">idl_random_perturb_4a</text>
</g>
<!-- Node10 -->
<g id="node2" class="node">
<title>Node10</title>
<g id="a_node2"><a xlink:href="namespaceeg__idl__set__init__mod.xhtml#ad6336294df6f5e4b4ebcd2561e648438" target="_top" xlink:title="eg_idl_set_init_mod\l::eg_idl_set_init">
<polygon fill="#ffffff" stroke="#000000" points="165,-.5 165,-30.5 279,-30.5 279,-.5 165,-.5"/>
<text text-anchor="start" x="173" y="-18.5" font-family="Helvetica,sans-Serif" font-size="10.00" fill="#000000">eg_idl_set_init_mod</text>
<text text-anchor="middle" x="222" y="-7.5" font-family="Helvetica,sans-Serif" font-size="10.00" fill="#000000">::eg_idl_set_init</text>
</a>
</g>
</g>
<!-- Node9&#45;&gt;Node10 -->
<g id="edge1" class="edge">
<title>Node9&#45;&gt;Node10</title>
<path fill="none" stroke="#191970" d="M139.1318,-15.5C147.7969,-15.5 156.5286,-15.5 164.9058,-15.5"/>
<polygon fill="#191970" stroke="#191970" points="139.0158,-12.0001 129.0157,-15.5 139.0157,-19.0001 139.0158,-12.0001"/>
</g>
<!-- Node11 -->
<g id="node3" class="node">
<title>Node11</title>
<g id="a_node3"><a xlink:href="atm__step__4_a_8f90.xhtml#a2319aa4963e90c64cd78bdcd5f481095" target="_top" xlink:title="Perform a 1&#45;timestep integration of the Atmosphere Model. ">
<polygon fill="#ffffff" stroke="#000000" points="315,-6 315,-25 395,-25 395,-6 315,-6"/>
<text text-anchor="middle" x="355" y="-13" font-family="Helvetica,sans-Serif" font-size="10.00" fill="#000000">atm_step_4a</text>
</a>
</g>
</g>
<!-- Node10&#45;&gt;Node11 -->
<g id="edge2" class="edge">
<title>Node10&#45;&gt;Node11</title>
<path fill="none" stroke="#191970" d="M289.3367,-15.5C298.0151,-15.5 306.6744,-15.5 314.7234,-15.5"/>
<polygon fill="#191970" stroke="#191970" points="289.1759,-12.0001 279.1758,-15.5 289.1758,-19.0001 289.1759,-12.0001"/>
</g>
<!-- Node12 -->
<g id="node4" class="node">
<title>Node12</title>
<g id="a_node4"><a xlink:href="u__model__4_a_8f90.xhtml#afa05064dab5eba198b461d0928767c7e" target="_top" xlink:title="LL Subroutine: U_MODEL_4A (ENDGAME VERSION) !&gt;LL. ">
<polygon fill="#ffffff" stroke="#000000" points="431,-6 431,-25 507,-25 507,-6 431,-6"/>
<text text-anchor="middle" x="469" y="-13" font-family="Helvetica,sans-Serif" font-size="10.00" fill="#000000">u_model_4a</text>
</a>
</g>
</g>
<!-- Node11&#45;&gt;Node12 -->
<g id="edge3" class="edge">
<title>Node11&#45;&gt;Node12</title>
<path fill="none" stroke="#191970" d="M405.3998,-15.5C413.891,-15.5 422.5803,-15.5 430.7002,-15.5"/>
<polygon fill="#191970" stroke="#191970" points="405.1922,-12.0001 395.1921,-15.5 405.1921,-19.0001 405.1922,-12.0001"/>
</g>
<!-- Node13 -->
<g id="node5" class="node">
<title>Node13</title>
<g id="a_node5"><a xlink:href="um__shell_8f90.xhtml#a8c9bd25362824a5c301376ecb5ed5c27" target="_top" xlink:title="Subroutine: UM_SHELL !&gt; ">
<polygon fill="#ffffff" stroke="#000000" points="543,-6 543,-25 604,-25 604,-6 543,-6"/>
<text text-anchor="middle" x="573.5" y="-13" font-family="Helvetica,sans-Serif" font-size="10.00" fill="#000000">um_shell</text>
</a>
</g>
</g>
<!-- Node12&#45;&gt;Node13 -->
<g id="edge4" class="edge">
<title>Node12&#45;&gt;Node13</title>
<path fill="none" stroke="#191970" d="M517.1579,-15.5C525.9023,-15.5 534.8005,-15.5 542.8647,-15.5"/>
<polygon fill="#191970" stroke="#191970" points="517.0225,-12.0001 507.0225,-15.5 517.0225,-19.0001 517.0225,-12.0001"/>
</g>
<!-- Node14 -->
<g id="node6" class="node">
<title>Node14</title>
<g id="a_node6"><a xlink:href="um__main_8f90.xhtml#a8f2d13215621443a5313261c282f098b" target="_top" xlink:title="Code Owner: See Unified Model Code Owner&#39;s HTML page. ">
<polygon fill="#ffffff" stroke="#000000" points="640,-6 640,-25 702,-25 702,-6 640,-6"/>
<text text-anchor="middle" x="671" y="-13" font-family="Helvetica,sans-Serif" font-size="10.00" fill="#000000">um_main</text>
</a>
</g>
</g>
<!-- Node13&#45;&gt;Node14 -->
<g id="edge5" class="edge">
<title>Node13&#45;&gt;Node14</title>
<path fill="none" stroke="#191970" d="M614.2756,-15.5C622.8294,-15.5 631.72,-15.5 639.8551,-15.5"/>
<polygon fill="#191970" stroke="#191970" points="614.0821,-12.0001 604.0821,-15.5 614.0821,-19.0001 614.0821,-12.0001"/>
</g>
</g>
</svg>
