<?xml version="1.0" encoding="UTF-8" standalone="no"?>
<!DOCTYPE svg PUBLIC "-//W3C//DTD SVG 1.1//EN"
 "http://www.w3.org/Graphics/SVG/1.1/DTD/svg11.dtd">
<!-- Generated by graphviz version 2.40.1 (20161225.0304)
 -->
<!-- Title: idl_pr_balance Pages: 1 -->
<!--zoomable 116 -->
<svg id="main" version="1.1" xmlns="http://www.w3.org/2000/svg" xmlns:xlink="http://www.w3.org/1999/xlink" xml:space="preserve" onload="init(evt)">
<style type="text/css"><![CDATA[
.edge:hover path { stroke: red; }
.edge:hover polygon { stroke: red; fill: red; }
]]></style>
<script type="text/javascript"><![CDATA[
var edges = document.getElementsByTagName('g');
if (edges && edges.length) {
  for (var i=0;i<edges.length;i++) {
    if (edges[i].id.substr(0,4)=='edge') {
      edges[i].setAttribute('class','edge');
    }
  }
}
]]></script>
        <defs>
                <circle id="rim" cx="0" cy="0" r="7"/>
                <circle id="rim2" cx="0" cy="0" r="3.5"/>
                <g id="zoomPlus">
                        <use xlink:href="#rim" fill="#404040">
                                <set attributeName="fill" to="#808080" begin="zoomplus.mouseover" end="zoomplus.mouseout"/>
                        </use>
                        <path d="M-4,0h8M0,-4v8" fill="none" stroke="white" stroke-width="1.5" pointer-events="none"/>
                </g>
                <g id="zoomMin">
                        <use xlink:href="#rim" fill="#404040">
                                <set attributeName="fill" to="#808080" begin="zoomminus.mouseover" end="zoomminus.mouseout"/>
                        </use>
                        <path d="M-4,0h8" fill="none" stroke="white" stroke-width="1.5" pointer-events="none"/>
                </g>
                <g id="dirArrow">
                        <path fill="none" stroke="white" stroke-width="1.5" d="M0,-3.0v7 M-2.5,-0.5L0,-3.0L2.5,-0.5"/>
                </g>
               <g id="resetDef">
                       <use xlink:href="#rim2" fill="#404040">
                               <set attributeName="fill" to="#808080" begin="reset.mouseover" end="reset.mouseout"/>
                       </use>
               </g>
        </defs>

<script type="text/javascript">
var viewWidth = 804;
var viewHeight = 116;
var sectionId = 'dynsection-1';
</script>
<script xlink:href="svgpan.js"/>
<svg id="graph" class="graph">
<g id="viewport">
<title>idl_pr_balance</title>
<polygon fill="#ffffff" stroke="transparent" points="-4,4 -4,-111.5 800,-111.5 800,4 -4,4"/>
<!-- Node6 -->
<g id="node1" class="node">
<title>Node6</title>
<polygon fill="#bfbfbf" stroke="#000000" points="0,-38.5 0,-57.5 87,-57.5 87,-38.5 0,-38.5"/>
<text text-anchor="middle" x="43.5" y="-45.5" font-family="Helvetica,sans-Serif" font-size="10.00" fill="#000000">idl_pr_balance</text>
</g>
<!-- Node7 -->
<g id="node2" class="node">
<title>Node7</title>
<g id="a_node2"><a xlink:href="eg__idl__initial__data_8f90.xhtml#a66275425af8bdd5e672223bb381dfea1" target="_top" xlink:title="Subroutine Interface: ">
<polygon fill="#ffffff" stroke="#000000" points="123,-79.5 123,-98.5 229,-98.5 229,-79.5 123,-79.5"/>
<text text-anchor="middle" x="176" y="-86.5" font-family="Helvetica,sans-Serif" font-size="10.00" fill="#000000">eg_idl_initial_data</text>
</a>
</g>
</g>
<!-- Node6&#45;&gt;Node7 -->
<g id="edge1" class="edge">
<title>Node6&#45;&gt;Node7</title>
<path fill="none" stroke="#191970" d="M83.8386,-60.4821C103.4855,-66.5615 126.7414,-73.7577 144.9765,-79.4003"/>
<polygon fill="#191970" stroke="#191970" points="84.819,-57.1218 74.2312,-57.5093 82.7497,-63.809 84.819,-57.1218"/>
</g>
<!-- Node13 -->
<g id="node8" class="node">
<title>Node13</title>
<g id="a_node8"><a xlink:href="idl__initial__data_8f90.xhtml#a5ce9d2faf000f3a3bca7600e81d19c47" target="_top" xlink:title="Subroutine IDL_Initial_data. ">
<polygon fill="#ffffff" stroke="#000000" points="131.5,-38.5 131.5,-57.5 220.5,-57.5 220.5,-38.5 131.5,-38.5"/>
<text text-anchor="middle" x="176" y="-45.5" font-family="Helvetica,sans-Serif" font-size="10.00" fill="#000000">idl_initial_data</text>
</a>
</g>
</g>
<!-- Node6&#45;&gt;Node13 -->
<g id="edge7" class="edge">
<title>Node6&#45;&gt;Node13</title>
<path fill="none" stroke="#191970" d="M97.4344,-48C108.7151,-48 120.4897,-48 131.3868,-48"/>
<polygon fill="#191970" stroke="#191970" points="97.2527,-44.5001 87.2527,-48 97.2526,-51.5001 97.2527,-44.5001"/>
</g>
<!-- Node17 -->
<g id="node12" class="node">
<title>Node17</title>
<g id="a_node12"><a xlink:href="idl__initial__data__3a_8f90.xhtml#a82944da61e11225189ae29ba12967c26" target="_top" xlink:title="Subroutine IDL_Initial_data_3a. ">
<polygon fill="#ffffff" stroke="#000000" points="123,-.5 123,-19.5 229,-19.5 229,-.5 123,-.5"/>
<text text-anchor="middle" x="176" y="-7.5" font-family="Helvetica,sans-Serif" font-size="10.00" fill="#000000">idl_initial_data_3a</text>
</a>
</g>
</g>
<!-- Node6&#45;&gt;Node17 -->
<g id="edge12" class="edge">
<title>Node6&#45;&gt;Node17</title>
<path fill="none" stroke="#191970" d="M86.7039,-35.6094C104.8492,-30.4055 125.6294,-24.4459 142.5754,-19.5859"/>
<polygon fill="#191970" stroke="#191970" points="85.5829,-32.2898 76.9353,-38.411 87.5127,-39.0185 85.5829,-32.2898"/>
</g>
<!-- Node8 -->
<g id="node3" class="node">
<title>Node8</title>
<g id="a_node3"><a xlink:href="namespaceeg__idl__ni__init__mod.xhtml#a332d353c0a7aa840de40aee9c844eb67" target="_top" xlink:title="eg_idl_ni_init_mod\l::eg_idl_ni_init">
<polygon fill="#ffffff" stroke="#000000" points="265,-77 265,-107 373,-107 373,-77 265,-77"/>
<text text-anchor="start" x="273" y="-95" font-family="Helvetica,sans-Serif" font-size="10.00" fill="#000000">eg_idl_ni_init_mod</text>
<text text-anchor="middle" x="319" y="-84" font-family="Helvetica,sans-Serif" font-size="10.00" fill="#000000">::eg_idl_ni_init</text>
</a>
</g>
</g>
<!-- Node7&#45;&gt;Node8 -->
<g id="edge2" class="edge">
<title>Node7&#45;&gt;Node8</title>
<path fill="none" stroke="#191970" d="M239.4415,-90.3309C247.8866,-90.5081 256.4835,-90.6885 264.7531,-90.862"/>
<polygon fill="#191970" stroke="#191970" points="239.3192,-86.8277 229.2479,-90.1171 239.1723,-93.8262 239.3192,-86.8277"/>
</g>
<!-- Node9 -->
<g id="node4" class="node">
<title>Node9</title>
<g id="a_node4"><a xlink:href="atm__step__4_a_8f90.xhtml#a2319aa4963e90c64cd78bdcd5f481095" target="_top" xlink:title="Perform a 1&#45;timestep integration of the Atmosphere Model. ">
<polygon fill="#ffffff" stroke="#000000" points="409,-81.5 409,-100.5 489,-100.5 489,-81.5 409,-81.5"/>
<text text-anchor="middle" x="449" y="-88.5" font-family="Helvetica,sans-Serif" font-size="10.00" fill="#000000">atm_step_4a</text>
</a>
</g>
</g>
<!-- Node8&#45;&gt;Node9 -->
<g id="edge3" class="edge">
<title>Node8&#45;&gt;Node9</title>
<path fill="none" stroke="#191970" d="M383.2107,-91.5061C391.9464,-91.4389 400.701,-91.3715 408.8435,-91.3089"/>
<polygon fill="#191970" stroke="#191970" points="382.9751,-88.0077 373.0023,-91.5846 383.029,-95.0075 382.9751,-88.0077"/>
</g>
<!-- Node10 -->
<g id="node5" class="node">
<title>Node10</title>
<g id="a_node5"><a xlink:href="u__model__4_a_8f90.xhtml#afa05064dab5eba198b461d0928767c7e" target="_top" xlink:title="LL Subroutine: U_MODEL_4A (ENDGAME VERSION) !&gt;LL. ">
<polygon fill="#ffffff" stroke="#000000" points="525,-81.5 525,-100.5 601,-100.5 601,-81.5 525,-81.5"/>
<text text-anchor="middle" x="563" y="-88.5" font-family="Helvetica,sans-Serif" font-size="10.00" fill="#000000">u_model_4a</text>
</a>
</g>
</g>
<!-- Node9&#45;&gt;Node10 -->
<g id="edge4" class="edge">
<title>Node9&#45;&gt;Node10</title>
<path fill="none" stroke="#191970" d="M499.3998,-91C507.891,-91 516.5803,-91 524.7002,-91"/>
<polygon fill="#191970" stroke="#191970" points="499.1922,-87.5001 489.1921,-91 499.1921,-94.5001 499.1922,-87.5001"/>
</g>
<!-- Node11 -->
<g id="node6" class="node">
<title>Node11</title>
<g id="a_node6"><a xlink:href="um__shell_8f90.xhtml#a8c9bd25362824a5c301376ecb5ed5c27" target="_top" xlink:title="Subroutine: UM_SHELL !&gt; ">
<polygon fill="#ffffff" stroke="#000000" points="637,-61.5 637,-80.5 698,-80.5 698,-61.5 637,-61.5"/>
<text text-anchor="middle" x="667.5" y="-68.5" font-family="Helvetica,sans-Serif" font-size="10.00" fill="#000000">um_shell</text>
</a>
</g>
</g>
<!-- Node10&#45;&gt;Node11 -->
<g id="edge5" class="edge">
<title>Node10&#45;&gt;Node11</title>
<path fill="none" stroke="#191970" d="M610.8728,-81.8377C619.7087,-80.1467 628.7128,-78.4234 636.8647,-76.8632"/>
<polygon fill="#191970" stroke="#191970" points="610.1863,-78.4055 601.0225,-83.723 611.5022,-85.2807 610.1863,-78.4055"/>
</g>
<!-- Node12 -->
<g id="node7" class="node">
<title>Node12</title>
<g id="a_node7"><a xlink:href="um__main_8f90.xhtml#a8f2d13215621443a5313261c282f098b" target="_top" xlink:title="Code Owner: See Unified Model Code Owner&#39;s HTML page. ">
<polygon fill="#ffffff" stroke="#000000" points="734,-61.5 734,-80.5 796,-80.5 796,-61.5 734,-61.5"/>
<text text-anchor="middle" x="765" y="-68.5" font-family="Helvetica,sans-Serif" font-size="10.00" fill="#000000">um_main</text>
</a>
</g>
</g>
<!-- Node11&#45;&gt;Node12 -->
<g id="edge6" class="edge">
<title>Node11&#45;&gt;Node12</title>
<path fill="none" stroke="#191970" d="M708.2756,-71C716.8294,-71 725.72,-71 733.8551,-71"/>
<polygon fill="#191970" stroke="#191970" points="708.0821,-67.5001 698.0821,-71 708.0821,-74.5001 708.0821,-67.5001"/>
</g>
<!-- Node14 -->
<g id="node9" class="node">
<title>Node14</title>
<g id="a_node9"><a xlink:href="idl__ni__init_8f90.xhtml#a6a9f79a633c3c9c5532716207a9bfea7" target="_top" xlink:title="Subroutine IDL_NI_init. ">
<polygon fill="#ffffff" stroke="#000000" points="287,-38.5 287,-57.5 351,-57.5 351,-38.5 287,-38.5"/>
<text text-anchor="middle" x="319" y="-45.5" font-family="Helvetica,sans-Serif" font-size="10.00" fill="#000000">idl_ni_init</text>
</a>
</g>
</g>
<!-- Node13&#45;&gt;Node14 -->
<g id="edge8" class="edge">
<title>Node13&#45;&gt;Node14</title>
<path fill="none" stroke="#191970" d="M231.0707,-48C249.8197,-48 270.1621,-48 286.5539,-48"/>
<polygon fill="#191970" stroke="#191970" points="230.8538,-44.5001 220.8537,-48 230.8537,-51.5001 230.8538,-44.5001"/>
</g>
<!-- Node15 -->
<g id="node10" class="node">
<title>Node15</title>
<g id="a_node10"><a xlink:href="atm__step_8f90.xhtml#ac0ee2467a1a9959b7065fdb8fd27bce4" target="_top" xlink:title="Perform a 1&#45;timestep integration of the Atmosphere Model. ">
<polygon fill="#ffffff" stroke="#000000" points="418,-41.5 418,-60.5 480,-60.5 480,-41.5 418,-41.5"/>
<text text-anchor="middle" x="449" y="-48.5" font-family="Helvetica,sans-Serif" font-size="10.00" fill="#000000">atm_step</text>
</a>
</g>
</g>
<!-- Node14&#45;&gt;Node15 -->
<g id="edge9" class="edge">
<title>Node14&#45;&gt;Node15</title>
<path fill="none" stroke="#191970" d="M361.2871,-48.9759C379.6447,-49.3995 400.767,-49.8869 417.6834,-50.2773"/>
<polygon fill="#191970" stroke="#191970" points="361.213,-45.4733 351.1348,-48.7416 361.0514,-52.4714 361.213,-45.4733"/>
</g>
<!-- Node16 -->
<g id="node11" class="node">
<title>Node16</title>
<g id="a_node11"><a xlink:href="u__model_8f90.xhtml#ada0cd2ce4699433bf0f9adbd882c8eec" target="_top" xlink:title="Subroutine: U_MODEL &#45;!&gt; ">
<polygon fill="#ffffff" stroke="#000000" points="533.5,-42.5 533.5,-61.5 592.5,-61.5 592.5,-42.5 533.5,-42.5"/>
<text text-anchor="middle" x="563" y="-49.5" font-family="Helvetica,sans-Serif" font-size="10.00" fill="#000000">u_model</text>
</a>
</g>
</g>
<!-- Node15&#45;&gt;Node16 -->
<g id="edge10" class="edge">
<title>Node15&#45;&gt;Node16</title>
<path fill="none" stroke="#191970" d="M490.2532,-51.3619C504.5539,-51.4873 520.2895,-51.6253 533.4568,-51.7408"/>
<polygon fill="#191970" stroke="#191970" points="490.1814,-47.8612 480.151,-51.2733 490.1199,-54.8609 490.1814,-47.8612"/>
</g>
<!-- Node16&#45;&gt;Node11 -->
<g id="edge11" class="edge">
<title>Node16&#45;&gt;Node11</title>
<path fill="none" stroke="#191970" d="M602.701,-59.2184C613.951,-61.2638 626.0261,-63.4593 636.6677,-65.3941"/>
<polygon fill="#191970" stroke="#191970" points="603.1308,-55.7392 592.666,-57.3938 601.8786,-62.6263 603.1308,-55.7392"/>
</g>
<!-- Node18 -->
<g id="node13" class="node">
<title>Node18</title>
<g id="a_node13"><a xlink:href="idl__ni__init__3a_8f90.xhtml#a0eec27cd941f6af1729196e205cc4093" target="_top" xlink:title="Subroutine IDL_NI_init. ">
<polygon fill="#ffffff" stroke="#000000" points="278.5,-.5 278.5,-19.5 359.5,-19.5 359.5,-.5 278.5,-.5"/>
<text text-anchor="middle" x="319" y="-7.5" font-family="Helvetica,sans-Serif" font-size="10.00" fill="#000000">idl_ni_init_3a</text>
</a>
</g>
</g>
<!-- Node17&#45;&gt;Node18 -->
<g id="edge13" class="edge">
<title>Node17&#45;&gt;Node18</title>
<path fill="none" stroke="#191970" d="M239.2546,-10C252.4774,-10 266.0815,-10 278.2253,-10"/>
<polygon fill="#191970" stroke="#191970" points="239.248,-6.5001 229.2479,-10 239.2479,-13.5001 239.248,-6.5001"/>
</g>
</g>
</svg>
        <g id="navigator" transform="translate(0 0)" fill="#404254">
                <rect fill="#f2f5e9" fill-opacity="0.5" stroke="#606060" stroke-width=".5" x="0" y="0" width="60" height="60"/>
                <use id="zoomplus" xlink:href="#zoomPlus" x="17" y="9" onmousedown="handleZoom(evt,'in')"/>
                <use id="zoomminus" xlink:href="#zoomMin" x="42" y="9" onmousedown="handleZoom(evt,'out')"/>
                <use id="reset" xlink:href="#resetDef" x="30" y="36" onmousedown="handleReset()"/>
                <g id="arrowUp" xlink:href="#dirArrow" transform="translate(30 24)" onmousedown="handlePan(0,-1)">
                  <use xlink:href="#rim" fill="#404040">
                        <set attributeName="fill" to="#808080" begin="arrowUp.mouseover" end="arrowUp.mouseout"/>
                  </use>
                  <path fill="none" stroke="white" stroke-width="1.5" d="M0,-3.0v7 M-2.5,-0.5L0,-3.0L2.5,-0.5"/>
                </g>
                <g id="arrowRight" xlink:href="#dirArrow" transform="rotate(90) translate(36 -43)" onmousedown="handlePan(1,0)">
                  <use xlink:href="#rim" fill="#404040">
                        <set attributeName="fill" to="#808080" begin="arrowRight.mouseover" end="arrowRight.mouseout"/>
                  </use>
                  <path fill="none" stroke="white" stroke-width="1.5" d="M0,-3.0v7 M-2.5,-0.5L0,-3.0L2.5,-0.5"/>
                </g>
                <g id="arrowDown" xlink:href="#dirArrow" transform="rotate(180) translate(-30 -48)" onmousedown="handlePan(0,1)">
                  <use xlink:href="#rim" fill="#404040">
                        <set attributeName="fill" to="#808080" begin="arrowDown.mouseover" end="arrowDown.mouseout"/>
                  </use>
                  <path fill="none" stroke="white" stroke-width="1.5" d="M0,-3.0v7 M-2.5,-0.5L0,-3.0L2.5,-0.5"/>
                </g>
                <g id="arrowLeft" xlink:href="#dirArrow" transform="rotate(270) translate(-36 17)" onmousedown="handlePan(-1,0)">
                  <use xlink:href="#rim" fill="#404040">
                        <set attributeName="fill" to="#808080" begin="arrowLeft.mouseover" end="arrowLeft.mouseout"/>
                  </use>
                  <path fill="none" stroke="white" stroke-width="1.5" d="M0,-3.0v7 M-2.5,-0.5L0,-3.0L2.5,-0.5"/>
                </g>
        </g>
        <svg viewBox="0 0 15 15" width="100%" height="30px" preserveAspectRatio="xMaxYMin meet">
         <g id="arrow_out" transform="scale(0.3 0.3)">
          <a xlink:href="idl__pr__balance_8f90_ad50a3649016198e8edadfdb615c42150_icgraph_org.svg" target="_base">
           <rect id="button" ry="5" rx="5" y="6" x="6" height="38" width="38"
                fill="#f2f5e9" fill-opacity="0.5" stroke="#606060" stroke-width="1.0"/>
           <path id="arrow"
             d="M 11.500037,31.436501 C 11.940474,20.09759 22.043105,11.32322 32.158766,21.979434 L 37.068811,17.246167 C 37.068811,17.246167 37.088388,32 37.088388,32 L 22.160133,31.978069 C 22.160133,31.978069 26.997745,27.140456 26.997745,27.140456 C 18.528582,18.264221 13.291696,25.230495 11.500037,31.436501 z"
             style="fill:#404040;"/>
          </a>
         </g>
        </svg>
</svg>
