<?xml version="1.0" encoding="UTF-8" standalone="no"?>
<!DOCTYPE svg PUBLIC "-//W3C//DTD SVG 1.1//EN"
 "http://www.w3.org/Graphics/SVG/1.1/DTD/svg11.dtd">
<!-- Generated by graphviz version 2.40.1 (20161225.0304)
 -->
<!-- Title: idl_force Pages: 1 -->
<!--zoomable 221 -->
<svg id="main" version="1.1" xmlns="http://www.w3.org/2000/svg" xmlns:xlink="http://www.w3.org/1999/xlink" xml:space="preserve" onload="init(evt)">
<style type="text/css"><![CDATA[
.edge:hover path { stroke: red; }
.edge:hover polygon { stroke: red; fill: red; }
]]></style>
<script type="text/javascript"><![CDATA[
var edges = document.getElementsByTagName('g');
if (edges && edges.length) {
  for (var i=0;i<edges.length;i++) {
    if (edges[i].id.substr(0,4)=='edge') {
      edges[i].setAttribute('class','edge');
    }
  }
}
]]></script>
        <defs>
                <circle id="rim" cx="0" cy="0" r="7"/>
                <circle id="rim2" cx="0" cy="0" r="3.5"/>
                <g id="zoomPlus">
                        <use xlink:href="#rim" fill="#404040">
                                <set attributeName="fill" to="#808080" begin="zoomplus.mouseover" end="zoomplus.mouseout"/>
                        </use>
                        <path d="M-4,0h8M0,-4v8" fill="none" stroke="white" stroke-width="1.5" pointer-events="none"/>
                </g>
                <g id="zoomMin">
                        <use xlink:href="#rim" fill="#404040">
                                <set attributeName="fill" to="#808080" begin="zoomminus.mouseover" end="zoomminus.mouseout"/>
                        </use>
                        <path d="M-4,0h8" fill="none" stroke="white" stroke-width="1.5" pointer-events="none"/>
                </g>
                <g id="dirArrow">
                        <path fill="none" stroke="white" stroke-width="1.5" d="M0,-3.0v7 M-2.5,-0.5L0,-3.0L2.5,-0.5"/>
                </g>
               <g id="resetDef">
                       <use xlink:href="#rim2" fill="#404040">
                               <set attributeName="fill" to="#808080" begin="reset.mouseover" end="reset.mouseout"/>
                       </use>
               </g>
        </defs>

<script type="text/javascript">
var viewWidth = 751;
var viewHeight = 221;
var sectionId = 'dynsection-0';
</script>
<script xlink:href="svgpan.js"/>
<svg id="graph" class="graph">
<g id="viewport">
<title>idl_force</title>
<polygon fill="#ffffff" stroke="transparent" points="-4,4 -4,-217 747,-217 747,4 -4,4"/>
<!-- Node0 -->
<g id="node1" class="node">
<title>Node0</title>
<polygon fill="#bfbfbf" stroke="#000000" points="0,-98.5 0,-117.5 59,-117.5 59,-98.5 0,-98.5"/>
<text text-anchor="middle" x="29.5" y="-105.5" font-family="Helvetica,sans-Serif" font-size="10.00" fill="#000000">idl_force</text>
</g>
<!-- Node1 -->
<g id="node2" class="node">
<title>Node1</title>
<g id="a_node2"><a xlink:href="force__monsoon_8f90.xhtml#a1a1cb3de797d955acf5af0bb61e99769" target="_top" xlink:title="Subroutine Force_Monsoon. ">
<polygon fill="#ffffff" stroke="#000000" points="105.5,-193.5 105.5,-212.5 197.5,-212.5 197.5,-193.5 105.5,-193.5"/>
<text text-anchor="middle" x="151.5" y="-200.5" font-family="Helvetica,sans-Serif" font-size="10.00" fill="#000000">force_monsoon</text>
</a>
</g>
</g>
<!-- Node0&#45;&gt;Node1 -->
<g id="edge1" class="edge">
<title>Node0&#45;&gt;Node1</title>
<path fill="none" stroke="#191970" d="M35.319,-117.6263C45.4789,-133.6504 67.9692,-165.8255 95,-184 97.9226,-185.9651 101.0667,-187.7434 104.3216,-189.35"/>
<polygon fill="#191970" stroke="#191970" points="103.131,-192.649 113.6966,-193.4353 105.9274,-186.2318 103.131,-192.649"/>
</g>
<!-- Node2 -->
<g id="node3" class="node">
<title>Node2</title>
<g id="a_node3"><a xlink:href="force__suarez__held_8f90.xhtml#a74ce8026b96a7f408e1aaf7c15c411a3" target="_top" xlink:title="Subroutine Force_Suarez_Held. ">
<polygon fill="#ffffff" stroke="#000000" points="99,-155.5 99,-174.5 204,-174.5 204,-155.5 99,-155.5"/>
<text text-anchor="middle" x="151.5" y="-162.5" font-family="Helvetica,sans-Serif" font-size="10.00" fill="#000000">force_suarez_held</text>
</a>
</g>
</g>
<!-- Node0&#45;&gt;Node2 -->
<g id="edge2" class="edge">
<title>Node0&#45;&gt;Node2</title>
<path fill="none" stroke="#191970" d="M44.1335,-117.639C57.1173,-125.9083 76.7952,-137.7597 95,-146 99.711,-148.1324 104.7356,-150.1563 109.7718,-152.0327"/>
<polygon fill="#191970" stroke="#191970" points="108.7968,-155.4006 119.3916,-155.4492 111.1396,-148.8042 108.7968,-155.4006"/>
</g>
<!-- Node3 -->
<g id="node4" class="node">
<title>Node3</title>
<g id="a_node4"><a xlink:href="idl__force__increment_8f90.xhtml#a962accd73eb5f969f63105cca39b279e" target="_top" xlink:title="Subroutine IDL_FORCE_INCREMENT. ">
<polygon fill="#ffffff" stroke="#000000" points="95,-117.5 95,-136.5 208,-136.5 208,-117.5 95,-117.5"/>
<text text-anchor="middle" x="151.5" y="-124.5" font-family="Helvetica,sans-Serif" font-size="10.00" fill="#000000">idl_force_increment</text>
</a>
</g>
</g>
<!-- Node0&#45;&gt;Node3 -->
<g id="edge3" class="edge">
<title>Node0&#45;&gt;Node3</title>
<path fill="none" stroke="#191970" d="M59.0328,-112.5994C66.8208,-113.8123 75.5513,-115.1719 84.4552,-116.5586"/>
<polygon fill="#191970" stroke="#191970" points="84.1212,-120.0487 94.5407,-118.1293 85.1984,-113.1321 84.1212,-120.0487"/>
</g>
<!-- Node4 -->
<g id="node5" class="node">
<title>Node4</title>
<g id="a_node5"><a xlink:href="idl__force__relax_8f90.xhtml#ae771eedecdb364403fb76fe018e0aa0f" target="_top" xlink:title="Subroutine IDL_Force_Relax. ">
<polygon fill="#ffffff" stroke="#000000" points="107,-79.5 107,-98.5 196,-98.5 196,-79.5 107,-79.5"/>
<text text-anchor="middle" x="151.5" y="-86.5" font-family="Helvetica,sans-Serif" font-size="10.00" fill="#000000">idl_force_relax</text>
</a>
</g>
</g>
<!-- Node0&#45;&gt;Node4 -->
<g id="edge4" class="edge">
<title>Node0&#45;&gt;Node4</title>
<path fill="none" stroke="#191970" d="M59.0328,-103.4006C70.4967,-101.6153 84.0025,-99.5119 97.0978,-97.4725"/>
<polygon fill="#191970" stroke="#191970" points="97.6491,-100.9289 106.9913,-95.9317 96.5718,-94.0123 97.6491,-100.9289"/>
</g>
<!-- Node6 -->
<g id="node7" class="node">
<title>Node6</title>
<g id="a_node7"><a xlink:href="idl__force__subs_8f90.xhtml#a6bdb2e10bf9dfa315e4f92b6cab8f2e6" target="_top" xlink:title="Subroutine IDL_FORCE_SUBS. ">
<polygon fill="#ffffff" stroke="#000000" points="108.5,-41.5 108.5,-60.5 194.5,-60.5 194.5,-41.5 108.5,-41.5"/>
<text text-anchor="middle" x="151.5" y="-48.5" font-family="Helvetica,sans-Serif" font-size="10.00" fill="#000000">idl_force_subs</text>
</a>
</g>
</g>
<!-- Node0&#45;&gt;Node6 -->
<g id="edge6" class="edge">
<title>Node0&#45;&gt;Node6</title>
<path fill="none" stroke="#191970" d="M44.1335,-98.361C57.1173,-90.0917 76.7952,-78.2403 95,-70 99.711,-67.8676 104.7356,-65.8437 109.7718,-63.9673"/>
<polygon fill="#191970" stroke="#191970" points="111.1396,-67.1958 119.3916,-60.5508 108.7968,-60.5994 111.1396,-67.1958"/>
</g>
<!-- Node11 -->
<g id="node12" class="node">
<title>Node11</title>
<g id="a_node12"><a xlink:href="idl__damp_8f90.xhtml#a728c0beb7e096611571603e5d9e94b0d" target="_top" xlink:title="Subroutine IDL_Damp. ">
<polygon fill="#ffffff" stroke="#000000" points="120.5,-3.5 120.5,-22.5 182.5,-22.5 182.5,-3.5 120.5,-3.5"/>
<text text-anchor="middle" x="151.5" y="-10.5" font-family="Helvetica,sans-Serif" font-size="10.00" fill="#000000">idl_damp</text>
</a>
</g>
</g>
<!-- Node0&#45;&gt;Node11 -->
<g id="edge12" class="edge">
<title>Node0&#45;&gt;Node11</title>
<path fill="none" stroke="#191970" d="M35.319,-98.3737C45.4789,-82.3496 67.9692,-50.1745 95,-32 99.8966,-28.7077 105.4146,-25.9395 111.0344,-23.6252"/>
<polygon fill="#191970" stroke="#191970" points="112.3183,-26.8823 120.4964,-20.1465 109.9029,-20.3122 112.3183,-26.8823"/>
</g>
<!-- Node5 -->
<g id="node6" class="node">
<title>Node5</title>
<g id="a_node6"><a xlink:href="namespaceglobal__2d__sums__mod.xhtml#ac3fe3c2679168085c4635a17e5f82215" target="_top" xlink:title="global_2d_sums_mod\l::global_2d_sums">
<polygon fill="#ffffff" stroke="#000000" points="244,-77 244,-107 366,-107 366,-77 244,-77"/>
<text text-anchor="start" x="252" y="-95" font-family="Helvetica,sans-Serif" font-size="10.00" fill="#000000">global_2d_sums_mod</text>
<text text-anchor="middle" x="305" y="-84" font-family="Helvetica,sans-Serif" font-size="10.00" fill="#000000">::global_2d_sums</text>
</a>
</g>
</g>
<!-- Node4&#45;&gt;Node5 -->
<g id="edge5" class="edge">
<title>Node4&#45;&gt;Node5</title>
<path fill="none" stroke="#191970" d="M196.3112,-89.8758C208.0418,-90.1051 220.9841,-90.358 233.7241,-90.607"/>
<polygon fill="#191970" stroke="#191970" points="233.8045,-94.1091 243.871,-90.8053 233.9413,-87.1105 233.8045,-94.1091"/>
</g>
<!-- Node7 -->
<g id="node8" class="node">
<title>Node7</title>
<g id="a_node8"><a xlink:href="namespaceumprintmgr.xhtml#aae44897e556705dbf5e945a26538be9a" target="_top" xlink:title="umprintmgr::umprint">
<polygon fill="#ffffff" stroke="#000000" points="245.5,-38.5 245.5,-57.5 364.5,-57.5 364.5,-38.5 245.5,-38.5"/>
<text text-anchor="middle" x="305" y="-45.5" font-family="Helvetica,sans-Serif" font-size="10.00" fill="#000000">umprintmgr::umprint</text>
</a>
</g>
</g>
<!-- Node6&#45;&gt;Node7 -->
<g id="edge7" class="edge">
<title>Node6&#45;&gt;Node7</title>
<path fill="none" stroke="#191970" d="M194.6668,-50.1563C207.1741,-49.9119 221.1636,-49.6385 234.8694,-49.3706"/>
<polygon fill="#191970" stroke="#191970" points="235.3361,-52.8623 245.2658,-49.1674 235.1992,-45.8636 235.3361,-52.8623"/>
</g>
<!-- Node8 -->
<g id="node9" class="node">
<title>Node8</title>
<g id="a_node9"><a xlink:href="namespaceumprintmgr.xhtml#a088ce22a18d574e9df7ee1850bfb10c7" target="_top" xlink:title="umprintmgr::umprintopenstream">
<polygon fill="#ffffff" stroke="#000000" points="402,-38.5 402,-57.5 579,-57.5 579,-38.5 402,-38.5"/>
<text text-anchor="middle" x="490.5" y="-45.5" font-family="Helvetica,sans-Serif" font-size="10.00" fill="#000000">umprintmgr::umprintopenstream</text>
</a>
</g>
</g>
<!-- Node7&#45;&gt;Node8 -->
<g id="edge8" class="edge">
<title>Node7&#45;&gt;Node8</title>
<path fill="none" stroke="#191970" d="M364.7144,-41.6459C373.4258,-41.4284 382.5844,-41.3006 391.8217,-41.2623"/>
<polygon fill="#191970" stroke="#191970" points="391.861,-44.7623 401.8587,-41.2559 391.8564,-37.7623 391.861,-44.7623"/>
</g>
<!-- Node9 -->
<g id="node10" class="node">
<title>Node9</title>
<g id="a_node10"><a xlink:href="namespaceumprintmgr.xhtml#ad3a290b30a6e25500eabc0bf90330b77" target="_top" xlink:title="umprintmgr::umprintflush">
<polygon fill="#ffffff" stroke="#000000" points="419.5,-.5 419.5,-19.5 561.5,-19.5 561.5,-.5 419.5,-.5"/>
<text text-anchor="middle" x="490.5" y="-7.5" font-family="Helvetica,sans-Serif" font-size="10.00" fill="#000000">umprintmgr::umprintflush</text>
</a>
</g>
</g>
<!-- Node7&#45;&gt;Node9 -->
<g id="edge10" class="edge">
<title>Node7&#45;&gt;Node9</title>
<path fill="none" stroke="#191970" d="M351.8095,-38.411C376.8395,-33.2835 407.8414,-26.9328 434.1822,-21.5368"/>
<polygon fill="#191970" stroke="#191970" points="434.933,-24.9558 444.0271,-19.5201 433.5281,-18.0982 434.933,-24.9558"/>
</g>
<!-- Node8&#45;&gt;Node7 -->
<g id="edge9" class="edge">
<title>Node8&#45;&gt;Node7</title>
<path fill="none" stroke="#191970" d="M401.8587,-54.7441C392.8093,-54.7701 383.7077,-54.7102 374.8993,-54.5645"/>
<polygon fill="#191970" stroke="#191970" points="374.7846,-51.0615 364.7144,-54.3541 374.64,-58.06 374.7846,-51.0615"/>
</g>
<!-- Node10 -->
<g id="node11" class="node">
<title>Node10</title>
<g id="a_node11"><a xlink:href="namespaceumflush__mod.xhtml#a3a003ab59990bdcb712b443dd5e0d1cd" target="_top" xlink:title="umflush_mod::umflush">
<polygon fill="#ffffff" stroke="#000000" points="615,-.5 615,-19.5 743,-19.5 743,-.5 615,-.5"/>
<text text-anchor="middle" x="679" y="-7.5" font-family="Helvetica,sans-Serif" font-size="10.00" fill="#000000">umflush_mod::umflush</text>
</a>
</g>
</g>
<!-- Node9&#45;&gt;Node10 -->
<g id="edge11" class="edge">
<title>Node9&#45;&gt;Node10</title>
<path fill="none" stroke="#191970" d="M561.7638,-10C575.7742,-10 590.5063,-10 604.6162,-10"/>
<polygon fill="#191970" stroke="#191970" points="604.7612,-13.5001 614.7611,-10 604.7611,-6.5001 604.7612,-13.5001"/>
</g>
</g>
</svg>
        <g id="navigator" transform="translate(0 0)" fill="#404254">
                <rect fill="#f2f5e9" fill-opacity="0.5" stroke="#606060" stroke-width=".5" x="0" y="0" width="60" height="60"/>
                <use id="zoomplus" xlink:href="#zoomPlus" x="17" y="9" onmousedown="handleZoom(evt,'in')"/>
                <use id="zoomminus" xlink:href="#zoomMin" x="42" y="9" onmousedown="handleZoom(evt,'out')"/>
                <use id="reset" xlink:href="#resetDef" x="30" y="36" onmousedown="handleReset()"/>
                <g id="arrowUp" xlink:href="#dirArrow" transform="translate(30 24)" onmousedown="handlePan(0,-1)">
                  <use xlink:href="#rim" fill="#404040">
                        <set attributeName="fill" to="#808080" begin="arrowUp.mouseover" end="arrowUp.mouseout"/>
                  </use>
                  <path fill="none" stroke="white" stroke-width="1.5" d="M0,-3.0v7 M-2.5,-0.5L0,-3.0L2.5,-0.5"/>
                </g>
                <g id="arrowRight" xlink:href="#dirArrow" transform="rotate(90) translate(36 -43)" onmousedown="handlePan(1,0)">
                  <use xlink:href="#rim" fill="#404040">
                        <set attributeName="fill" to="#808080" begin="arrowRight.mouseover" end="arrowRight.mouseout"/>
                  </use>
                  <path fill="none" stroke="white" stroke-width="1.5" d="M0,-3.0v7 M-2.5,-0.5L0,-3.0L2.5,-0.5"/>
                </g>
                <g id="arrowDown" xlink:href="#dirArrow" transform="rotate(180) translate(-30 -48)" onmousedown="handlePan(0,1)">
                  <use xlink:href="#rim" fill="#404040">
                        <set attributeName="fill" to="#808080" begin="arrowDown.mouseover" end="arrowDown.mouseout"/>
                  </use>
                  <path fill="none" stroke="white" stroke-width="1.5" d="M0,-3.0v7 M-2.5,-0.5L0,-3.0L2.5,-0.5"/>
                </g>
                <g id="arrowLeft" xlink:href="#dirArrow" transform="rotate(270) translate(-36 17)" onmousedown="handlePan(-1,0)">
                  <use xlink:href="#rim" fill="#404040">
                        <set attributeName="fill" to="#808080" begin="arrowLeft.mouseover" end="arrowLeft.mouseout"/>
                  </use>
                  <path fill="none" stroke="white" stroke-width="1.5" d="M0,-3.0v7 M-2.5,-0.5L0,-3.0L2.5,-0.5"/>
                </g>
        </g>
        <svg viewBox="0 0 15 15" width="100%" height="30px" preserveAspectRatio="xMaxYMin meet">
         <g id="arrow_out" transform="scale(0.3 0.3)">
          <a xlink:href="idl__force_8f90_a0614ad4c01f3517399f250647c3d9f49_cgraph_org.svg" target="_base">
           <rect id="button" ry="5" rx="5" y="6" x="6" height="38" width="38"
                fill="#f2f5e9" fill-opacity="0.5" stroke="#606060" stroke-width="1.0"/>
           <path id="arrow"
             d="M 11.500037,31.436501 C 11.940474,20.09759 22.043105,11.32322 32.158766,21.979434 L 37.068811,17.246167 C 37.068811,17.246167 37.088388,32 37.088388,32 L 22.160133,31.978069 C 22.160133,31.978069 26.997745,27.140456 26.997745,27.140456 C 18.528582,18.264221 13.291696,25.230495 11.500037,31.436501 z"
             style="fill:#404040;"/>
          </a>
         </g>
        </svg>
</svg>
