<?xml version="1.0" encoding="UTF-8" standalone="no"?>
<!DOCTYPE svg PUBLIC "-//W3C//DTD SVG 1.1//EN"
 "http://www.w3.org/Graphics/SVG/1.1/DTD/svg11.dtd">
<!-- Generated by graphviz version 2.40.1 (20161225.0304)
 -->
<!-- Title: idl_ideal_set_fields_3a Pages: 1 -->
<svg width="547pt" height="142pt"
 viewBox="0.00 0.00 547.00 142.00" xmlns="http://www.w3.org/2000/svg" xmlns:xlink="http://www.w3.org/1999/xlink">
<g id="graph0" class="graph" transform="scale(1 1) rotate(0) translate(4 138)">
<title>idl_ideal_set_fields_3a</title>
<polygon fill="#ffffff" stroke="transparent" points="-4,4 -4,-138 543,-138 543,4 -4,4"/>
<!-- Node0 -->
<g id="node1" class="node">
<title>Node0</title>
<polygon fill="#bfbfbf" stroke="#000000" points="0,-57.5 0,-76.5 127,-76.5 127,-57.5 0,-57.5"/>
<text text-anchor="middle" x="63.5" y="-64.5" font-family="Helvetica,sans-Serif" font-size="10.00" fill="#000000">idl_ideal_set_fields_3a</text>
</g>
<!-- Node1 -->
<g id="node2" class="node">
<title>Node1</title>
<g id="a_node2"><a xlink:href="copy__field_8f90.xhtml#a6e23a6286ac0646ff865939156219711" target="_top" xlink:title="Subroutine COPY_FIELD. ">
<polygon fill="#ffffff" stroke="#000000" points="187.5,-114.5 187.5,-133.5 253.5,-133.5 253.5,-114.5 187.5,-114.5"/>
<text text-anchor="middle" x="220.5" y="-121.5" font-family="Helvetica,sans-Serif" font-size="10.00" fill="#000000">copy_field</text>
</a>
</g>
</g>
<!-- Node0&#45;&gt;Node1 -->
<g id="edge1" class="edge">
<title>Node0&#45;&gt;Node1</title>
<path fill="none" stroke="#191970" d="M89.7783,-76.5405C115.703,-85.9527 155.5345,-100.4138 184.4172,-110.8999"/>
<polygon fill="#191970" stroke="#191970" points="183.5419,-114.3056 194.136,-114.4284 185.9308,-107.7258 183.5419,-114.3056"/>
</g>
<!-- Node2 -->
<g id="node3" class="node">
<title>Node2</title>
<g id="a_node3"><a xlink:href="swap__bounds-swpbnd2a_8f90.xhtml#aa0269e41062e156c437596022ea9ccd0" target="_top" xlink:title="Portable GCOM based version SWAP_BOUNDS. ">
<polygon fill="#ffffff" stroke="#000000" points="314,-95.5 314,-114.5 397,-114.5 397,-95.5 314,-95.5"/>
<text text-anchor="middle" x="355.5" y="-102.5" font-family="Helvetica,sans-Serif" font-size="10.00" fill="#000000">swap_bounds</text>
</a>
</g>
</g>
<!-- Node0&#45;&gt;Node2 -->
<g id="edge5" class="edge">
<title>Node0&#45;&gt;Node2</title>
<path fill="none" stroke="#191970" d="M127.2198,-75.2923C180.1725,-82.1834 254.5655,-91.8647 303.8568,-98.2793"/>
<polygon fill="#191970" stroke="#191970" points="303.6092,-101.7765 313.9773,-99.5964 304.5126,-94.835 303.6092,-101.7765"/>
</g>
<!-- Node4 -->
<g id="node5" class="node">
<title>Node4</title>
<g id="a_node5"><a xlink:href="calc__exner__at__theta_8f90.xhtml#a40aa93c9e00f9db47f7836ae18d9c56a" target="_top" xlink:title="*****************************COPYRIGHT****************************** *****************************COP...">
<polygon fill="#ffffff" stroke="#000000" points="163,-38.5 163,-57.5 278,-57.5 278,-38.5 163,-38.5"/>
<text text-anchor="middle" x="220.5" y="-45.5" font-family="Helvetica,sans-Serif" font-size="10.00" fill="#000000">calc_exner_at_theta</text>
</a>
</g>
</g>
<!-- Node0&#45;&gt;Node4 -->
<g id="edge4" class="edge">
<title>Node0&#45;&gt;Node4</title>
<path fill="none" stroke="#191970" d="M127.3579,-59.272C135.6869,-58.264 144.2439,-57.2284 152.6357,-56.2129"/>
<polygon fill="#191970" stroke="#191970" points="153.2565,-59.6634 162.7635,-54.9872 152.4154,-52.7141 153.2565,-59.6634"/>
</g>
<!-- Node5 -->
<g id="node6" class="node">
<title>Node5</title>
<g id="a_node6"><a xlink:href="calc__p__star_8f90.xhtml#ab386eeb1ddf732f522429c68244b2b8d" target="_top" xlink:title="Subroutine Calc_P_star. ">
<polygon fill="#ffffff" stroke="#000000" points="185,-.5 185,-19.5 256,-19.5 256,-.5 185,-.5"/>
<text text-anchor="middle" x="220.5" y="-7.5" font-family="Helvetica,sans-Serif" font-size="10.00" fill="#000000">calc_p_star</text>
</a>
</g>
</g>
<!-- Node0&#45;&gt;Node5 -->
<g id="edge6" class="edge">
<title>Node0&#45;&gt;Node5</title>
<path fill="none" stroke="#191970" d="M87.5131,-57.4762C107.5954,-49.5966 137.0435,-38.2395 163,-29 168.915,-26.8945 175.1993,-24.7374 181.3588,-22.6673"/>
<polygon fill="#191970" stroke="#191970" points="182.4799,-25.983 190.8643,-19.5059 180.2707,-19.3407 182.4799,-25.983"/>
</g>
<!-- Node1&#45;&gt;Node2 -->
<g id="edge2" class="edge">
<title>Node1&#45;&gt;Node2</title>
<path fill="none" stroke="#191970" d="M253.5247,-119.3521C268.5219,-117.2414 286.6229,-114.6938 303.3865,-112.3345"/>
<polygon fill="#191970" stroke="#191970" points="304.1971,-115.755 313.6117,-110.8954 303.2215,-108.8233 304.1971,-115.755"/>
</g>
<!-- Node3 -->
<g id="node4" class="node">
<title>Node3</title>
<g id="a_node4"><a xlink:href="fill__external__halos_8f90.xhtml#a9f4e1e061e136821fb9a51281a5e69c2" target="_top" xlink:title="Routine for filling in External Halos. ">
<polygon fill="#ffffff" stroke="#000000" points="433,-95.5 433,-114.5 539,-114.5 539,-95.5 433,-95.5"/>
<text text-anchor="middle" x="486" y="-102.5" font-family="Helvetica,sans-Serif" font-size="10.00" fill="#000000">fill_external_halos</text>
</a>
</g>
</g>
<!-- Node2&#45;&gt;Node3 -->
<g id="edge3" class="edge">
<title>Node2&#45;&gt;Node3</title>
<path fill="none" stroke="#191970" d="M397.1498,-105C405.2991,-105 414.0161,-105 422.6873,-105"/>
<polygon fill="#191970" stroke="#191970" points="422.8089,-108.5001 432.8089,-105 422.8089,-101.5001 422.8089,-108.5001"/>
</g>
</g>
</svg>
