<?xml version="1.0" encoding="UTF-8" standalone="no"?>
<!DOCTYPE svg PUBLIC "-//W3C//DTD SVG 1.1//EN"
 "http://www.w3.org/Graphics/SVG/1.1/DTD/svg11.dtd">
<!-- Generated by graphviz version 2.40.1 (20161225.0304)
 -->
<!-- Title: init_emcorr Pages: 1 -->
<svg width="787pt" height="236pt"
 viewBox="0.00 0.00 787.00 236.21" xmlns="http://www.w3.org/2000/svg" xmlns:xlink="http://www.w3.org/1999/xlink">
<g id="graph0" class="graph" transform="scale(1 1) rotate(0) translate(4 232.2127)">
<title>init_emcorr</title>
<polygon fill="#ffffff" stroke="transparent" points="-4,4 -4,-232.2127 783,-232.2127 783,4 -4,4"/>
<!-- Node0 -->
<g id="node1" class="node">
<title>Node0</title>
<polygon fill="#bfbfbf" stroke="#000000" points="0,-108.5 0,-127.5 72,-127.5 72,-108.5 0,-108.5"/>
<text text-anchor="middle" x="36" y="-115.5" font-family="Helvetica,sans-Serif" font-size="10.00" fill="#000000">init_emcorr</text>
</g>
<!-- Node1 -->
<g id="node2" class="node">
<title>Node1</title>
<g id="a_node2"><a xlink:href="namespaceeng__mass__diag__mod.xhtml#a5c0f2c363eb3ad1724717da4937554ba" target="_top" xlink:title="eng_mass_diag_mod::\leng_mass_diag">
<polygon fill="#ffffff" stroke="#000000" points="112.5,-128 112.5,-158 237.5,-158 237.5,-128 112.5,-128"/>
<text text-anchor="start" x="120.5" y="-146" font-family="Helvetica,sans-Serif" font-size="10.00" fill="#000000">eng_mass_diag_mod::</text>
<text text-anchor="middle" x="175" y="-135" font-family="Helvetica,sans-Serif" font-size="10.00" fill="#000000">eng_mass_diag</text>
</a>
</g>
</g>
<!-- Node0&#45;&gt;Node1 -->
<g id="edge1" class="edge">
<title>Node0&#45;&gt;Node1</title>
<path fill="none" stroke="#191970" d="M72.1578,-124.5032C81.4843,-126.1806 91.8608,-128.0469 102.3333,-129.9305"/>
<polygon fill="#191970" stroke="#191970" points="101.9106,-133.4105 112.3723,-131.736 103.1498,-126.5211 101.9106,-133.4105"/>
</g>
<!-- Node13 -->
<g id="node14" class="node">
<title>Node13</title>
<g id="a_node14"><a xlink:href="namespacewet__to__dry__n__calc__mod.xhtml#a49e06329964b3ecc866190f87cfa15dd" target="_top" xlink:title="wet_to_dry_n_calc_mod\l::wet_to_dry_n_calc">
<polygon fill="#ffffff" stroke="#000000" points="108,-79 108,-109 242,-109 242,-79 108,-79"/>
<text text-anchor="start" x="116" y="-97" font-family="Helvetica,sans-Serif" font-size="10.00" fill="#000000">wet_to_dry_n_calc_mod</text>
<text text-anchor="middle" x="175" y="-86" font-family="Helvetica,sans-Serif" font-size="10.00" fill="#000000">::wet_to_dry_n_calc</text>
</a>
</g>
</g>
<!-- Node0&#45;&gt;Node13 -->
<g id="edge15" class="edge">
<title>Node0&#45;&gt;Node13</title>
<path fill="none" stroke="#191970" d="M72.1578,-111.7569C80.1062,-110.3845 88.8171,-108.8805 97.7002,-107.3467"/>
<polygon fill="#191970" stroke="#191970" points="98.5125,-110.7583 107.7712,-105.6079 97.3215,-103.8604 98.5125,-110.7583"/>
</g>
<!-- Node2 -->
<g id="node3" class="node">
<title>Node2</title>
<g id="a_node3"><a xlink:href="namespaceglobal__2d__sums__mod.xhtml#ac3fe3c2679168085c4635a17e5f82215" target="_top" xlink:title="global_2d_sums_mod\l::global_2d_sums">
<polygon fill="#ffffff" stroke="#000000" points="654,-169 654,-199 776,-199 776,-169 654,-169"/>
<text text-anchor="start" x="662" y="-187" font-family="Helvetica,sans-Serif" font-size="10.00" fill="#000000">global_2d_sums_mod</text>
<text text-anchor="middle" x="715" y="-176" font-family="Helvetica,sans-Serif" font-size="10.00" fill="#000000">::global_2d_sums</text>
</a>
</g>
</g>
<!-- Node1&#45;&gt;Node2 -->
<g id="edge2" class="edge">
<title>Node1&#45;&gt;Node2</title>
<path fill="none" stroke="#191970" d="M214.3379,-158.1514C265.1029,-176.8177 356.5887,-207.473 438,-219 515.8898,-230.0284 537.4453,-232.1801 615,-219 633.9484,-215.7798 654.0888,-209.3572 671.2913,-202.883"/>
<polygon fill="#191970" stroke="#191970" points="672.9973,-205.975 681.0491,-199.089 670.4605,-199.4508 672.9973,-205.975"/>
</g>
<!-- Node3 -->
<g id="node4" class="node">
<title>Node3</title>
<g id="a_node4"><a xlink:href="namespacevert__eng__massq__mod.xhtml#a39301569611a709994d2aae7a457d3e1" target="_top" xlink:title="vert_eng_massq_mod\l::vert_eng_massq">
<polygon fill="#ffffff" stroke="#000000" points="278,-128 278,-158 402,-158 402,-128 278,-128"/>
<text text-anchor="start" x="286" y="-146" font-family="Helvetica,sans-Serif" font-size="10.00" fill="#000000">vert_eng_massq_mod</text>
<text text-anchor="middle" x="340" y="-135" font-family="Helvetica,sans-Serif" font-size="10.00" fill="#000000">::vert_eng_massq</text>
</a>
</g>
</g>
<!-- Node1&#45;&gt;Node3 -->
<g id="edge3" class="edge">
<title>Node1&#45;&gt;Node3</title>
<path fill="none" stroke="#191970" d="M237.8501,-143C247.5835,-143 257.7042,-143 267.6266,-143"/>
<polygon fill="#191970" stroke="#191970" points="267.8704,-146.5001 277.8704,-143 267.8703,-139.5001 267.8704,-146.5001"/>
</g>
<!-- Node9 -->
<g id="node10" class="node">
<title>Node9</title>
<g id="a_node10"><a xlink:href="namespaceumprintmgr.xhtml#aae44897e556705dbf5e945a26538be9a" target="_top" xlink:title="umprintmgr::umprint">
<polygon fill="#ffffff" stroke="#000000" points="280.5,-38.5 280.5,-57.5 399.5,-57.5 399.5,-38.5 280.5,-38.5"/>
<text text-anchor="middle" x="340" y="-45.5" font-family="Helvetica,sans-Serif" font-size="10.00" fill="#000000">umprintmgr::umprint</text>
</a>
</g>
</g>
<!-- Node1&#45;&gt;Node9 -->
<g id="edge10" class="edge">
<title>Node1&#45;&gt;Node9</title>
<path fill="none" stroke="#191970" d="M222.2225,-127.997C228.9943,-125.299 235.771,-122.2863 242,-119 271.4891,-103.442 302.0769,-79.889 321.0691,-64.2319"/>
<polygon fill="#191970" stroke="#191970" points="323.5107,-66.7526 328.9337,-57.6508 319.0184,-61.3842 323.5107,-66.7526"/>
</g>
<!-- Node4 -->
<g id="node5" class="node">
<title>Node4</title>
<g id="a_node5"><a xlink:href="namespaceu__to__p__mod.xhtml#abec25da0a0e72ae2bd1efd5a110125fb" target="_top" xlink:title="u_to_p_mod::u_to_p">
<polygon fill="#ffffff" stroke="#000000" points="469.5,-190.5 469.5,-209.5 583.5,-209.5 583.5,-190.5 469.5,-190.5"/>
<text text-anchor="middle" x="526.5" y="-197.5" font-family="Helvetica,sans-Serif" font-size="10.00" fill="#000000">u_to_p_mod::u_to_p</text>
</a>
</g>
</g>
<!-- Node3&#45;&gt;Node4 -->
<g id="edge4" class="edge">
<title>Node3&#45;&gt;Node4</title>
<path fill="none" stroke="#191970" d="M374.9114,-158.0901C393.4145,-165.6898 416.6713,-174.6191 438,-181 446.7345,-183.6131 456.0553,-186.0176 465.2481,-188.1739"/>
<polygon fill="#191970" stroke="#191970" points="464.613,-191.6186 475.1392,-190.4143 466.1595,-184.7916 464.613,-191.6186"/>
</g>
<!-- Node5 -->
<g id="node6" class="node">
<title>Node5</title>
<g id="a_node6"><a xlink:href="namespacev__to__p__mod.xhtml#a071d83a5fb4aa87adbf487a6218a3037" target="_top" xlink:title="v_to_p_mod::v_to_p">
<polygon fill="#ffffff" stroke="#000000" points="469.5,-152.5 469.5,-171.5 583.5,-171.5 583.5,-152.5 469.5,-152.5"/>
<text text-anchor="middle" x="526.5" y="-159.5" font-family="Helvetica,sans-Serif" font-size="10.00" fill="#000000">v_to_p_mod::v_to_p</text>
</a>
</g>
</g>
<!-- Node3&#45;&gt;Node5 -->
<g id="edge5" class="edge">
<title>Node3&#45;&gt;Node5</title>
<path fill="none" stroke="#191970" d="M402.1018,-149.3267C420.4301,-151.1939 440.5721,-153.2459 459.2106,-155.1448"/>
<polygon fill="#191970" stroke="#191970" points="459.0863,-158.6501 469.3896,-156.1818 459.7958,-151.6862 459.0863,-158.6501"/>
</g>
<!-- Node6 -->
<g id="node7" class="node">
<title>Node6</title>
<g id="a_node7"><a xlink:href="swap__bounds__mv-2c_8f90.xhtml#a7ec706a27cea514039111eeb3f669540" target="_top" xlink:title="Direct MPI version of swap_bounds to deal with multiple variables. ">
<polygon fill="#ffffff" stroke="#000000" points="474.5,-76.5 474.5,-95.5 578.5,-95.5 578.5,-76.5 474.5,-76.5"/>
<text text-anchor="middle" x="526.5" y="-83.5" font-family="Helvetica,sans-Serif" font-size="10.00" fill="#000000">swap_bounds_mv</text>
</a>
</g>
</g>
<!-- Node3&#45;&gt;Node6 -->
<g id="edge6" class="edge">
<title>Node3&#45;&gt;Node6</title>
<path fill="none" stroke="#191970" d="M374.9114,-127.9099C393.4145,-120.3102 416.6713,-111.3809 438,-105 446.7345,-102.3869 456.0553,-99.9824 465.2481,-97.8261"/>
<polygon fill="#191970" stroke="#191970" points="466.1595,-101.2084 475.1392,-95.5857 464.613,-94.3814 466.1595,-101.2084"/>
</g>
<!-- Node8 -->
<g id="node9" class="node">
<title>Node8</title>
<g id="a_node9"><a xlink:href="polar__vector__wind__n_8f90.xhtml#ab3d6e08d4d489ae42dd07f5c50859b9f" target="_top" xlink:title="Subroutine Polar_Vector_Wind. ">
<polygon fill="#ffffff" stroke="#000000" points="468,-114.5 468,-133.5 585,-133.5 585,-114.5 468,-114.5"/>
<text text-anchor="middle" x="526.5" y="-121.5" font-family="Helvetica,sans-Serif" font-size="10.00" fill="#000000">polar_vector_wind_n</text>
</a>
</g>
</g>
<!-- Node3&#45;&gt;Node8 -->
<g id="edge8" class="edge">
<title>Node3&#45;&gt;Node8</title>
<path fill="none" stroke="#191970" d="M402.1018,-136.6733C419.983,-134.8516 439.5906,-132.854 457.8442,-130.9944"/>
<polygon fill="#191970" stroke="#191970" points="458.2324,-134.4731 467.8262,-129.9775 457.5229,-127.5091 458.2324,-134.4731"/>
</g>
<!-- Node7 -->
<g id="node8" class="node">
<title>Node7</title>
<g id="a_node8"><a xlink:href="fill__external__halos_8f90.xhtml#a9f4e1e061e136821fb9a51281a5e69c2" target="_top" xlink:title="Routine for filling in External Halos. ">
<polygon fill="#ffffff" stroke="#000000" points="662,-76.5 662,-95.5 768,-95.5 768,-76.5 662,-76.5"/>
<text text-anchor="middle" x="715" y="-83.5" font-family="Helvetica,sans-Serif" font-size="10.00" fill="#000000">fill_external_halos</text>
</a>
</g>
</g>
<!-- Node6&#45;&gt;Node7 -->
<g id="edge7" class="edge">
<title>Node6&#45;&gt;Node7</title>
<path fill="none" stroke="#191970" d="M578.5074,-86C601.2014,-86 628.0151,-86 651.8429,-86"/>
<polygon fill="#191970" stroke="#191970" points="651.8513,-89.5001 661.8513,-86 651.8512,-82.5001 651.8513,-89.5001"/>
</g>
<!-- Node8&#45;&gt;Node2 -->
<g id="edge9" class="edge">
<title>Node8&#45;&gt;Node2</title>
<path fill="none" stroke="#191970" d="M578.3766,-133.5246C590.5014,-136.1942 603.2911,-139.3743 615,-143 634.3579,-148.9942 655.1805,-157.2279 672.7865,-164.7447"/>
<polygon fill="#191970" stroke="#191970" points="671.6399,-168.0623 682.207,-168.8282 674.4239,-161.6398 671.6399,-168.0623"/>
</g>
<!-- Node10 -->
<g id="node11" class="node">
<title>Node10</title>
<g id="a_node11"><a xlink:href="namespaceumprintmgr.xhtml#a088ce22a18d574e9df7ee1850bfb10c7" target="_top" xlink:title="umprintmgr::umprintopenstream">
<polygon fill="#ffffff" stroke="#000000" points="438,-38.5 438,-57.5 615,-57.5 615,-38.5 438,-38.5"/>
<text text-anchor="middle" x="526.5" y="-45.5" font-family="Helvetica,sans-Serif" font-size="10.00" fill="#000000">umprintmgr::umprintopenstream</text>
</a>
</g>
</g>
<!-- Node9&#45;&gt;Node10 -->
<g id="edge11" class="edge">
<title>Node9&#45;&gt;Node10</title>
<path fill="none" stroke="#191970" d="M399.5225,-41.6588C408.6212,-41.4288 418.215,-41.2958 427.886,-41.2599"/>
<polygon fill="#191970" stroke="#191970" points="427.9755,-44.76 437.9747,-41.2577 427.9739,-37.76 427.9755,-44.76"/>
</g>
<!-- Node11 -->
<g id="node12" class="node">
<title>Node11</title>
<g id="a_node12"><a xlink:href="namespaceumprintmgr.xhtml#ad3a290b30a6e25500eabc0bf90330b77" target="_top" xlink:title="umprintmgr::umprintflush">
<polygon fill="#ffffff" stroke="#000000" points="455.5,-.5 455.5,-19.5 597.5,-19.5 597.5,-.5 455.5,-.5"/>
<text text-anchor="middle" x="526.5" y="-7.5" font-family="Helvetica,sans-Serif" font-size="10.00" fill="#000000">umprintmgr::umprintflush</text>
</a>
</g>
</g>
<!-- Node9&#45;&gt;Node11 -->
<g id="edge13" class="edge">
<title>Node9&#45;&gt;Node11</title>
<path fill="none" stroke="#191970" d="M387.0618,-38.411C412.2268,-33.2835 443.3958,-26.9328 469.8786,-21.5368"/>
<polygon fill="#191970" stroke="#191970" points="470.6767,-24.9462 479.7766,-19.5201 469.2791,-18.0871 470.6767,-24.9462"/>
</g>
<!-- Node10&#45;&gt;Node9 -->
<g id="edge12" class="edge">
<title>Node10&#45;&gt;Node9</title>
<path fill="none" stroke="#191970" d="M437.9747,-54.7423C428.5041,-54.7732 418.9685,-54.7111 409.7597,-54.5559"/>
<polygon fill="#191970" stroke="#191970" points="409.5938,-51.0518 399.5225,-54.3412 409.4469,-58.0502 409.5938,-51.0518"/>
</g>
<!-- Node12 -->
<g id="node13" class="node">
<title>Node12</title>
<g id="a_node13"><a xlink:href="namespaceumflush__mod.xhtml#a3a003ab59990bdcb712b443dd5e0d1cd" target="_top" xlink:title="umflush_mod::umflush">
<polygon fill="#ffffff" stroke="#000000" points="651,-.5 651,-19.5 779,-19.5 779,-.5 651,-.5"/>
<text text-anchor="middle" x="715" y="-7.5" font-family="Helvetica,sans-Serif" font-size="10.00" fill="#000000">umflush_mod::umflush</text>
</a>
</g>
</g>
<!-- Node11&#45;&gt;Node12 -->
<g id="edge14" class="edge">
<title>Node11&#45;&gt;Node12</title>
<path fill="none" stroke="#191970" d="M597.7638,-10C611.7742,-10 626.5063,-10 640.6162,-10"/>
<polygon fill="#191970" stroke="#191970" points="640.7612,-13.5001 650.7611,-10 640.7611,-6.5001 640.7612,-13.5001"/>
</g>
</g>
</svg>
