<?xml version="1.0" encoding="UTF-8" standalone="no"?>
<!DOCTYPE svg PUBLIC "-//W3C//DTD SVG 1.1//EN"
 "http://www.w3.org/Graphics/SVG/1.1/DTD/svg11.dtd">
<!-- Generated by graphviz version 2.40.1 (20161225.0304)
 -->
<!-- Title: init_block4_pr Pages: 1 -->
<svg width="326pt" height="66pt"
 viewBox="0.00 0.00 326.00 66.00" xmlns="http://www.w3.org/2000/svg" xmlns:xlink="http://www.w3.org/1999/xlink">
<g id="graph0" class="graph" transform="scale(1 1) rotate(0) translate(4 62)">
<title>init_block4_pr</title>
<polygon fill="#ffffff" stroke="transparent" points="-4,4 -4,-62 322,-62 322,4 -4,4"/>
<!-- Node1 -->
<g id="node1" class="node">
<title>Node1</title>
<polygon fill="#bfbfbf" stroke="#000000" points="0,-19.5 0,-38.5 85,-38.5 85,-19.5 0,-19.5"/>
<text text-anchor="middle" x="42.5" y="-26.5" font-family="Helvetica,sans-Serif" font-size="10.00" fill="#000000">init_block4_pr</text>
</g>
<!-- Node2 -->
<g id="node2" class="node">
<title>Node2</title>
<g id="a_node2"><a xlink:href="setcona_8f90.xhtml#a353c87ffe0be2800c2f0bf5d6c40d099" target="_top" xlink:title="LL Subroutine SETCONA!&gt;LL. ">
<polygon fill="#ffffff" stroke="#000000" points="129.5,-38.5 129.5,-57.5 184.5,-57.5 184.5,-38.5 129.5,-38.5"/>
<text text-anchor="middle" x="157" y="-45.5" font-family="Helvetica,sans-Serif" font-size="10.00" fill="#000000">setcona</text>
</a>
</g>
</g>
<!-- Node1&#45;&gt;Node2 -->
<g id="edge1" class="edge">
<title>Node1&#45;&gt;Node2</title>
<path fill="none" stroke="#191970" d="M95.3254,-37.7658C107.0505,-39.7114 119.0245,-41.6984 129.2645,-43.3976"/>
<polygon fill="#191970" stroke="#191970" points="95.5737,-34.2592 85.1356,-36.0749 94.4277,-41.1648 95.5737,-34.2592"/>
</g>
<!-- Node4 -->
<g id="node4" class="node">
<title>Node4</title>
<g id="a_node4"><a xlink:href="setcona__4_a_8f90.xhtml#ab6beee322d7ff9bca411f17380e33743" target="_top" xlink:title="Subroutine SETCONA (ENDGAME VERSION)!&gt; Purpose : to calculate additional constants derived from...">
<polygon fill="#ffffff" stroke="#000000" points="121,-.5 121,-19.5 193,-19.5 193,-.5 121,-.5"/>
<text text-anchor="middle" x="157" y="-7.5" font-family="Helvetica,sans-Serif" font-size="10.00" fill="#000000">setcona_4a</text>
</a>
</g>
</g>
<!-- Node1&#45;&gt;Node4 -->
<g id="edge3" class="edge">
<title>Node1&#45;&gt;Node4</title>
<path fill="none" stroke="#191970" d="M95.1662,-20.2606C103.8061,-18.8269 112.5862,-17.37 120.7125,-16.0215"/>
<polygon fill="#191970" stroke="#191970" points="94.4277,-16.8352 85.1356,-21.9251 95.5737,-23.7408 94.4277,-16.8352"/>
</g>
<!-- Node3 -->
<g id="node3" class="node">
<title>Node3</title>
<g id="a_node3"><a xlink:href="setcona__ctl_8f90.xhtml#a0a2ef213293e6f9a8f60060fc26ed5df" target="_top" xlink:title="Subroutine SETCONA_CTL. ">
<polygon fill="#ffffff" stroke="#000000" points="237.5,-38.5 237.5,-57.5 309.5,-57.5 309.5,-38.5 237.5,-38.5"/>
<text text-anchor="middle" x="273.5" y="-45.5" font-family="Helvetica,sans-Serif" font-size="10.00" fill="#000000">setcona_ctl</text>
</a>
</g>
</g>
<!-- Node2&#45;&gt;Node3 -->
<g id="edge2" class="edge">
<title>Node2&#45;&gt;Node3</title>
<path fill="none" stroke="#191970" d="M194.6608,-48C208.3257,-48 223.7255,-48 237.2648,-48"/>
<polygon fill="#191970" stroke="#191970" points="194.6089,-44.5001 184.6089,-48 194.6088,-51.5001 194.6089,-44.5001"/>
</g>
<!-- Node5 -->
<g id="node5" class="node">
<title>Node5</title>
<g id="a_node5"><a xlink:href="setcona__ctl__4_a_8f90.xhtml#aae00cb9b838e6f0f912412753746f414" target="_top" xlink:title="Subroutine SETCONA_CTL (ENDGAME version) ">
<polygon fill="#ffffff" stroke="#000000" points="229,-.5 229,-19.5 318,-19.5 318,-.5 229,-.5"/>
<text text-anchor="middle" x="273.5" y="-7.5" font-family="Helvetica,sans-Serif" font-size="10.00" fill="#000000">setcona_ctl_4a</text>
</a>
</g>
</g>
<!-- Node4&#45;&gt;Node5 -->
<g id="edge4" class="edge">
<title>Node4&#45;&gt;Node5</title>
<path fill="none" stroke="#191970" d="M203.225,-10C211.6069,-10 220.336,-10 228.6768,-10"/>
<polygon fill="#191970" stroke="#191970" points="203.2228,-6.5001 193.2227,-10 203.2227,-13.5001 203.2228,-6.5001"/>
</g>
</g>
</svg>
