<?xml version="1.0" encoding="UTF-8" standalone="no"?>
<!DOCTYPE svg PUBLIC "-//W3C//DTD SVG 1.1//EN"
 "http://www.w3.org/Graphics/SVG/1.1/DTD/svg11.dtd">
<!-- Generated by graphviz version 2.40.1 (20161225.0304)
 -->
<!-- Title: init_pp Pages: 1 -->
<svg width="2000pt" height="726pt"
 viewBox="0.00 0.00 2000.00 726.17" xmlns="http://www.w3.org/2000/svg" xmlns:xlink="http://www.w3.org/1999/xlink">
<g id="graph0" class="graph" transform="scale(1 1) rotate(0) translate(4 722.1734)">
<title>init_pp</title>
<polygon fill="#ffffff" stroke="transparent" points="-4,4 -4,-722.1734 1996,-722.1734 1996,4 -4,4"/>
<!-- Node0 -->
<g id="node1" class="node">
<title>Node0</title>
<polygon fill="#bfbfbf" stroke="#000000" points="0,-641.6734 0,-660.6734 50,-660.6734 50,-641.6734 0,-641.6734"/>
<text text-anchor="middle" x="25" y="-648.6734" font-family="Helvetica,sans-Serif" font-size="10.00" fill="#000000">init_pp</text>
</g>
<!-- Node1 -->
<g id="node2" class="node">
<title>Node1</title>
<g id="a_node2"><a xlink:href="namespaceios.xhtml#ad444933037c0bd236fee1369fff1998a" target="_top" xlink:title="ios::ios_set_header">
<polygon fill="#ffffff" stroke="#000000" points="241,-318.6734 241,-337.6734 351,-337.6734 351,-318.6734 241,-318.6734"/>
<text text-anchor="middle" x="296" y="-325.6734" font-family="Helvetica,sans-Serif" font-size="10.00" fill="#000000">ios::ios_set_header</text>
</a>
</g>
</g>
<!-- Node0&#45;&gt;Node1 -->
<g id="edge1" class="edge">
<title>Node0&#45;&gt;Node1</title>
<path fill="none" stroke="#191970" d="M33.1105,-641.5066C71.1354,-596.1854 231.9798,-404.4779 281.4572,-345.5067"/>
<polygon fill="#191970" stroke="#191970" points="284.1749,-347.7128 287.9211,-337.8024 278.8124,-343.2136 284.1749,-347.7128"/>
</g>
<!-- Node21 -->
<g id="node22" class="node">
<title>Node21</title>
<g id="a_node22"><a xlink:href="namespaceio.xhtml#a697a0c6022f3650289b1150987fad504" target="_top" xlink:title="io::iodisksynchronise">
<polygon fill="#ffffff" stroke="#000000" points="86,-622.6734 86,-641.6734 205,-641.6734 205,-622.6734 86,-622.6734"/>
<text text-anchor="middle" x="145.5" y="-629.6734" font-family="Helvetica,sans-Serif" font-size="10.00" fill="#000000">io::iodisksynchronise</text>
</a>
</g>
</g>
<!-- Node0&#45;&gt;Node21 -->
<g id="edge41" class="edge">
<title>Node0&#45;&gt;Node21</title>
<path fill="none" stroke="#191970" d="M50.2607,-647.1903C57.8629,-645.9917 66.6024,-644.6136 75.638,-643.189"/>
<polygon fill="#191970" stroke="#191970" points="76.1861,-646.6459 85.5189,-641.631 75.0958,-639.7313 76.1861,-646.6459"/>
</g>
<!-- Node23 -->
<g id="node24" class="node">
<title>Node23</title>
<g id="a_node24"><a xlink:href="ioerror_8f90.xhtml#aa3812224bd42148a2e00c44c715f82de" target="_top" xlink:title="SUBROUTINE IOERROR!&gt; ">
<polygon fill="#ffffff" stroke="#000000" points="1160,-698.6734 1160,-717.6734 1209,-717.6734 1209,-698.6734 1160,-698.6734"/>
<text text-anchor="middle" x="1184.5" y="-705.6734" font-family="Helvetica,sans-Serif" font-size="10.00" fill="#000000">ioerror</text>
</a>
</g>
</g>
<!-- Node0&#45;&gt;Node23 -->
<g id="edge46" class="edge">
<title>Node0&#45;&gt;Node23</title>
<path fill="none" stroke="#191970" d="M36.7568,-660.8594C48.4543,-669.8979 67.3099,-682.9033 86,-689.1734 174.8482,-718.9798 202.2854,-708.1734 296,-708.1734 296,-708.1734 296,-708.1734 823.5,-708.1734 943.1772,-708.1734 1085.1716,-708.1734 1149.6035,-708.1734"/>
<polygon fill="#191970" stroke="#191970" points="1149.9879,-711.6735 1159.9879,-708.1734 1149.9878,-704.6735 1149.9879,-711.6735"/>
</g>
<!-- Node24 -->
<g id="node25" class="node">
<title>Node24</title>
<g id="a_node25"><a xlink:href="poserror_8f90.xhtml#a6e55b1390632fbecc7abf71e05669199" target="_top" xlink:title="SUBROUTINE POSERROR. ">
<polygon fill="#ffffff" stroke="#000000" points="117,-660.6734 117,-679.6734 174,-679.6734 174,-660.6734 117,-660.6734"/>
<text text-anchor="middle" x="145.5" y="-667.6734" font-family="Helvetica,sans-Serif" font-size="10.00" fill="#000000">poserror</text>
</a>
</g>
</g>
<!-- Node0&#45;&gt;Node24 -->
<g id="edge48" class="edge">
<title>Node0&#45;&gt;Node24</title>
<path fill="none" stroke="#191970" d="M50.2607,-655.1564C66.6814,-657.7455 88.4085,-661.1714 106.9636,-664.0971"/>
<polygon fill="#191970" stroke="#191970" points="106.4687,-667.5622 116.8919,-665.6625 107.5591,-660.6476 106.4687,-667.5622"/>
</g>
<!-- Node2 -->
<g id="node3" class="node">
<title>Node2</title>
<g id="a_node3"><a xlink:href="namespaceios__common.xhtml#a2c973e11abf690e8e0215ca4d7e669de" target="_top" xlink:title="ios_common::l_ios_active">
<polygon fill="#ffffff" stroke="#000000" points="752,-233.6734 752,-252.6734 895,-252.6734 895,-233.6734 752,-233.6734"/>
<text text-anchor="middle" x="823.5" y="-240.6734" font-family="Helvetica,sans-Serif" font-size="10.00" fill="#000000">ios_common::l_ios_active</text>
</a>
</g>
</g>
<!-- Node1&#45;&gt;Node2 -->
<g id="edge2" class="edge">
<title>Node1&#45;&gt;Node2</title>
<path fill="none" stroke="#191970" d="M329.6396,-318.6542C346.7753,-313.8759 367.9604,-308.0763 387,-303.1734 468.0085,-282.3129 487.2818,-271.6323 570,-259.1734 627.0118,-250.5863 691.9102,-246.597 741.7693,-244.749"/>
<polygon fill="#191970" stroke="#191970" points="741.9809,-248.2438 751.8526,-244.3967 741.7364,-241.2481 741.9809,-248.2438"/>
</g>
<!-- Node3 -->
<g id="node4" class="node">
<title>Node3</title>
<g id="a_node4"><a xlink:href="namespaceios__client__queue.xhtml#afe87459ebf2e7fc1b3915458ad63d06f" target="_top" xlink:title="ios_client_queue::ios\l_init_md">
<polygon fill="#ffffff" stroke="#000000" points="401,-313.1734 401,-343.1734 520,-343.1734 520,-313.1734 401,-313.1734"/>
<text text-anchor="start" x="409" y="-331.1734" font-family="Helvetica,sans-Serif" font-size="10.00" fill="#000000">ios_client_queue::ios</text>
<text text-anchor="middle" x="460.5" y="-320.1734" font-family="Helvetica,sans-Serif" font-size="10.00" fill="#000000">_init_md</text>
</a>
</g>
</g>
<!-- Node1&#45;&gt;Node3 -->
<g id="edge3" class="edge">
<title>Node1&#45;&gt;Node3</title>
<path fill="none" stroke="#191970" d="M351.2337,-328.1734C363.9525,-328.1734 377.6408,-328.1734 390.8817,-328.1734"/>
<polygon fill="#191970" stroke="#191970" points="390.8964,-331.6735 400.8964,-328.1734 390.8964,-324.6735 390.8964,-331.6735"/>
</g>
<!-- Node18 -->
<g id="node19" class="node">
<title>Node18</title>
<g id="a_node19"><a xlink:href="namespaceios__client__queue.xhtml#a6288f2c5e8ba14c7dba338d01f36d418" target="_top" xlink:title="ios_client_queue::ios\l_attach_sendbuffer">
<polygon fill="#ffffff" stroke="#000000" points="401,-181.1734 401,-211.1734 520,-211.1734 520,-181.1734 401,-181.1734"/>
<text text-anchor="start" x="409" y="-199.1734" font-family="Helvetica,sans-Serif" font-size="10.00" fill="#000000">ios_client_queue::ios</text>
<text text-anchor="middle" x="460.5" y="-188.1734" font-family="Helvetica,sans-Serif" font-size="10.00" fill="#000000">_attach_sendbuffer</text>
</a>
</g>
</g>
<!-- Node1&#45;&gt;Node18 -->
<g id="edge33" class="edge">
<title>Node1&#45;&gt;Node18</title>
<path fill="none" stroke="#191970" d="M302.3921,-318.4128C315.8482,-298.5422 349.007,-253.007 387,-226.1734 392.5972,-222.2202 398.7926,-218.671 405.1428,-215.5179"/>
<polygon fill="#191970" stroke="#191970" points="406.903,-218.5599 414.5056,-211.1808 403.9607,-212.2082 406.903,-218.5599"/>
</g>
<!-- Node19 -->
<g id="node20" class="node">
<title>Node19</title>
<g id="a_node20"><a xlink:href="namespaceios__client__queue.xhtml#ad45a47e6cd283c6c4b4e7a3a45dd37a6" target="_top" xlink:title="ios_client_queue::ios_send">
<polygon fill="#ffffff" stroke="#000000" points="387,-489.6734 387,-508.6734 534,-508.6734 534,-489.6734 387,-489.6734"/>
<text text-anchor="middle" x="460.5" y="-496.6734" font-family="Helvetica,sans-Serif" font-size="10.00" fill="#000000">ios_client_queue::ios_send</text>
</a>
</g>
</g>
<!-- Node1&#45;&gt;Node19 -->
<g id="edge35" class="edge">
<title>Node1&#45;&gt;Node19</title>
<path fill="none" stroke="#191970" d="M305.3156,-337.857C332.1204,-365.7211 409.7064,-446.3727 443.9381,-481.957"/>
<polygon fill="#191970" stroke="#191970" points="441.8315,-484.8157 451.2866,-489.5959 446.8762,-479.9627 441.8315,-484.8157"/>
</g>
<!-- Node4 -->
<g id="node5" class="node">
<title>Node4</title>
<g id="a_node5"><a xlink:href="namespaceios__common.xhtml#a31ef4cb4de4333384dba3e441df47903" target="_top" xlink:title="ios_common::assert\l_client">
<polygon fill="#ffffff" stroke="#000000" points="766,-310.1734 766,-340.1734 881,-340.1734 881,-310.1734 766,-310.1734"/>
<text text-anchor="start" x="774" y="-328.1734" font-family="Helvetica,sans-Serif" font-size="10.00" fill="#000000">ios_common::assert</text>
<text text-anchor="middle" x="823.5" y="-317.1734" font-family="Helvetica,sans-Serif" font-size="10.00" fill="#000000">_client</text>
</a>
</g>
</g>
<!-- Node3&#45;&gt;Node4 -->
<g id="edge4" class="edge">
<title>Node3&#45;&gt;Node4</title>
<path fill="none" stroke="#191970" d="M520.0356,-327.6813C584.7003,-327.1469 687.808,-326.2948 755.5839,-325.7347"/>
<polygon fill="#191970" stroke="#191970" points="755.7617,-329.2334 765.7324,-325.6508 755.7038,-322.2336 755.7617,-329.2334"/>
</g>
<!-- Node5 -->
<g id="node6" class="node">
<title>Node5</title>
<g id="a_node6"><a xlink:href="namespaceios__common.xhtml#a4b4c79405dd73494ae58cbf0e4f1658b" target="_top" xlink:title="ios_common::ios_ereport">
<polygon fill="#ffffff" stroke="#000000" points="931,-195.6734 931,-214.6734 1071,-214.6734 1071,-195.6734 931,-195.6734"/>
<text text-anchor="middle" x="1001" y="-202.6734" font-family="Helvetica,sans-Serif" font-size="10.00" fill="#000000">ios_common::ios_ereport</text>
</a>
</g>
</g>
<!-- Node3&#45;&gt;Node5 -->
<g id="edge17" class="edge">
<title>Node3&#45;&gt;Node5</title>
<path fill="none" stroke="#191970" d="M502.5432,-343.2098C583.5504,-369.4898 764.7549,-415.026 895,-349.1734 947.2455,-322.7578 980.0404,-257.1136 993.689,-224.3742"/>
<polygon fill="#191970" stroke="#191970" points="996.9777,-225.5766 997.448,-214.9922 990.4799,-222.9731 996.9777,-225.5766"/>
</g>
<!-- Node6 -->
<g id="node7" class="node">
<title>Node6</title>
<g id="a_node7"><a xlink:href="namespaceios__print__mgr.xhtml#abd09d7fc0d2381103fd0889b447f4995" target="_top" xlink:title="ios_print_mgr::ios\l_print">
<polygon fill="#ffffff" stroke="#000000" points="1327,-133.1734 1327,-163.1734 1431,-163.1734 1431,-133.1734 1327,-133.1734"/>
<text text-anchor="start" x="1335" y="-151.1734" font-family="Helvetica,sans-Serif" font-size="10.00" fill="#000000">ios_print_mgr::ios</text>
<text text-anchor="middle" x="1379" y="-140.1734" font-family="Helvetica,sans-Serif" font-size="10.00" fill="#000000">_print</text>
</a>
</g>
</g>
<!-- Node3&#45;&gt;Node6 -->
<g id="edge16" class="edge">
<title>Node3&#45;&gt;Node6</title>
<path fill="none" stroke="#191970" d="M473.434,-313.1626C489.9332,-293.2378 518.2159,-256.3429 534,-220.1734 562.633,-154.5602 519.5568,-113.9712 570,-63.1734 651.5811,18.9814 707.7205,-3.1734 823.5,-3.1734 823.5,-3.1734 823.5,-3.1734 1001,-3.1734 1119.4567,-3.1734 1154.4522,-7.5199 1262,-57.1734 1298.9916,-74.2519 1334.9809,-105.0144 1357.0576,-126.0013"/>
<polygon fill="#191970" stroke="#191970" points="1354.6457,-128.5378 1364.2651,-132.9785 1359.5145,-123.5084 1354.6457,-128.5378"/>
</g>
<!-- Node12 -->
<g id="node13" class="node">
<title>Node12</title>
<g id="a_node13"><a xlink:href="namespaceios__common.xhtml#a9cbfffb6c02387dc317575ab449918b6" target="_top" xlink:title="ios_common::ios_actionname">
<polygon fill="#ffffff" stroke="#000000" points="1298,-397.6734 1298,-416.6734 1460,-416.6734 1460,-397.6734 1298,-397.6734"/>
<text text-anchor="middle" x="1379" y="-404.6734" font-family="Helvetica,sans-Serif" font-size="10.00" fill="#000000">ios_common::ios_actionname</text>
</a>
</g>
</g>
<!-- Node3&#45;&gt;Node12 -->
<g id="edge15" class="edge">
<title>Node3&#45;&gt;Node12</title>
<path fill="none" stroke="#191970" d="M481.4558,-343.3719C502.611,-357.738 536.8143,-378.3642 570,-387.1734 826.689,-455.3112 1145.3977,-433.7273 1294.5773,-417.7719"/>
<polygon fill="#191970" stroke="#191970" points="1295.0265,-421.2438 1304.5891,-416.6822 1294.269,-414.2849 1295.0265,-421.2438"/>
</g>
<!-- Node13 -->
<g id="node14" class="node">
<title>Node13</title>
<g id="a_node14"><a xlink:href="namespaceios__client__queue.xhtml#a8113f81d94a6b3ff7dded6fcd66952a3" target="_top" xlink:title="ios_client_queue::ios\l_querybuffer">
<polygon fill="#ffffff" stroke="#000000" points="764,-70.1734 764,-100.1734 883,-100.1734 883,-70.1734 764,-70.1734"/>
<text text-anchor="start" x="772" y="-88.1734" font-family="Helvetica,sans-Serif" font-size="10.00" fill="#000000">ios_client_queue::ios</text>
<text text-anchor="middle" x="823.5" y="-77.1734" font-family="Helvetica,sans-Serif" font-size="10.00" fill="#000000">_querybuffer</text>
</a>
</g>
</g>
<!-- Node3&#45;&gt;Node13 -->
<g id="edge18" class="edge">
<title>Node3&#45;&gt;Node13</title>
<path fill="none" stroke="#191970" d="M473.0172,-312.9712C489.0657,-292.8395 516.8618,-255.7212 534,-220.1734 557.443,-171.5482 527.767,-137.794 570,-104.1734 621.1963,-63.4172 698.1263,-63.4982 753.8068,-70.7836"/>
<polygon fill="#191970" stroke="#191970" points="753.5533,-74.2825 763.9453,-72.2195 754.535,-67.3517 753.5533,-74.2825"/>
</g>
<!-- Node15 -->
<g id="node16" class="node">
<title>Node15</title>
<g id="a_node16"><a xlink:href="namespaceios__common.xhtml#a66b4e97a85f71f85bc4f53af5819c234" target="_top" xlink:title="ios_common::io_server\l_for_unit">
<polygon fill="#ffffff" stroke="#000000" points="578,-269.1734 578,-299.1734 708,-299.1734 708,-269.1734 578,-269.1734"/>
<text text-anchor="start" x="586" y="-287.1734" font-family="Helvetica,sans-Serif" font-size="10.00" fill="#000000">ios_common::io_server</text>
<text text-anchor="middle" x="643" y="-276.1734" font-family="Helvetica,sans-Serif" font-size="10.00" fill="#000000">_for_unit</text>
</a>
</g>
</g>
<!-- Node3&#45;&gt;Node15 -->
<g id="edge24" class="edge">
<title>Node3&#45;&gt;Node15</title>
<path fill="none" stroke="#191970" d="M520.0048,-313.827C536.2649,-309.9068 554.0613,-305.6161 570.9401,-301.5467"/>
<polygon fill="#191970" stroke="#191970" points="571.8525,-304.9271 580.7536,-299.1807 570.2118,-298.1221 571.8525,-304.9271"/>
</g>
<!-- Node16 -->
<g id="node17" class="node">
<title>Node16</title>
<g id="a_node17"><a xlink:href="namespaceios__common.xhtml#a7ff67c62d278ec0aad0a979c736996c9" target="_top" xlink:title="ios_common::ioserverno">
<polygon fill="#ffffff" stroke="#000000" points="574.5,-432.6734 574.5,-451.6734 711.5,-451.6734 711.5,-432.6734 574.5,-432.6734"/>
<text text-anchor="middle" x="643" y="-439.6734" font-family="Helvetica,sans-Serif" font-size="10.00" fill="#000000">ios_common::ioserverno</text>
</a>
</g>
</g>
<!-- Node3&#45;&gt;Node16 -->
<g id="edge27" class="edge">
<title>Node3&#45;&gt;Node16</title>
<path fill="none" stroke="#191970" d="M475.1171,-343.2697C494.9522,-362.9846 532.2663,-397.422 570,-418.1734 577.8989,-422.5173 586.7137,-426.2401 595.4107,-429.3671"/>
<polygon fill="#191970" stroke="#191970" points="594.5306,-432.7639 605.1248,-432.6457 596.7692,-426.1315 594.5306,-432.7639"/>
</g>
<!-- Node17 -->
<g id="node18" class="node">
<title>Node17</title>
<g id="a_node18"><a xlink:href="namespaceios__client__queue.xhtml#a9b6ce597cb41097a50bacde8955fa2e7" target="_top" xlink:title="ios_client_queue::ios\l_consume_client_mem">
<polygon fill="#ffffff" stroke="#000000" points="578.5,-114.1734 578.5,-144.1734 707.5,-144.1734 707.5,-114.1734 578.5,-114.1734"/>
<text text-anchor="start" x="586.5" y="-132.1734" font-family="Helvetica,sans-Serif" font-size="10.00" fill="#000000">ios_client_queue::ios</text>
<text text-anchor="middle" x="643" y="-121.1734" font-family="Helvetica,sans-Serif" font-size="10.00" fill="#000000">_consume_client_mem</text>
</a>
</g>
</g>
<!-- Node3&#45;&gt;Node17 -->
<g id="edge28" class="edge">
<title>Node3&#45;&gt;Node17</title>
<path fill="none" stroke="#191970" d="M474.5174,-312.8886C506.4432,-278.0764 584.6999,-192.7445 622.2443,-151.8056"/>
<polygon fill="#191970" stroke="#191970" points="625.0052,-153.9735 629.1846,-144.2378 619.8462,-149.2422 625.0052,-153.9735"/>
</g>
<!-- Node4&#45;&gt;Node5 -->
<g id="edge5" class="edge">
<title>Node4&#45;&gt;Node5</title>
<path fill="none" stroke="#191970" d="M865.4032,-310.121C875.3983,-305.8506 885.8224,-300.8079 895,-295.1734 929.7176,-273.8588 964.7238,-241.5379 984.5527,-221.9825"/>
<polygon fill="#191970" stroke="#191970" points="987.2494,-224.2355 991.8439,-214.6887 982.2987,-219.2866 987.2494,-224.2355"/>
</g>
<!-- Node5&#45;&gt;Node6 -->
<g id="edge6" class="edge">
<title>Node5&#45;&gt;Node6</title>
<path fill="none" stroke="#191970" d="M1051.8832,-195.6423C1069.3335,-192.4829 1088.9986,-189.043 1107,-186.1734 1178.8103,-174.7257 1261.5934,-163.4314 1316.7902,-156.1705"/>
<polygon fill="#191970" stroke="#191970" points="1317.3066,-159.6329 1326.7667,-154.8626 1316.3966,-152.6923 1317.3066,-159.6329"/>
</g>
<!-- Node11 -->
<g id="node12" class="node">
<title>Node11</title>
<g id="a_node12"><a xlink:href="namespaceios__common.xhtml#ade38472c488c019e816ec75cb70ab3cc" target="_top" xlink:title="ios_common::ios_report_md">
<polygon fill="#ffffff" stroke="#000000" points="1107,-195.6734 1107,-214.6734 1262,-214.6734 1262,-195.6734 1107,-195.6734"/>
<text text-anchor="middle" x="1184.5" y="-202.6734" font-family="Helvetica,sans-Serif" font-size="10.00" fill="#000000">ios_common::ios_report_md</text>
</a>
</g>
</g>
<!-- Node5&#45;&gt;Node11 -->
<g id="edge12" class="edge">
<title>Node5&#45;&gt;Node11</title>
<path fill="none" stroke="#191970" d="M1071.1589,-205.1734C1079.5219,-205.1734 1088.1385,-205.1734 1096.709,-205.1734"/>
<polygon fill="#191970" stroke="#191970" points="1096.731,-208.6735 1106.7309,-205.1734 1096.7309,-201.6735 1096.731,-208.6735"/>
</g>
<!-- Node7 -->
<g id="node8" class="node">
<title>Node7</title>
<g id="a_node8"><a xlink:href="namespaceumprintmgr.xhtml#aae44897e556705dbf5e945a26538be9a" target="_top" xlink:title="umprintmgr::umprint">
<polygon fill="#ffffff" stroke="#000000" points="1496,-641.6734 1496,-660.6734 1615,-660.6734 1615,-641.6734 1496,-641.6734"/>
<text text-anchor="middle" x="1555.5" y="-648.6734" font-family="Helvetica,sans-Serif" font-size="10.00" fill="#000000">umprintmgr::umprint</text>
</a>
</g>
</g>
<!-- Node6&#45;&gt;Node7 -->
<g id="edge7" class="edge">
<title>Node6&#45;&gt;Node7</title>
<path fill="none" stroke="#191970" d="M1384.2823,-163.2272C1409.8078,-235.9714 1520.311,-550.8897 1548.7865,-632.0407"/>
<polygon fill="#191970" stroke="#191970" points="1545.4971,-633.2374 1552.1108,-641.5145 1552.1023,-630.9197 1545.4971,-633.2374"/>
</g>
<!-- Node8 -->
<g id="node9" class="node">
<title>Node8</title>
<g id="a_node9"><a xlink:href="namespaceumprintmgr.xhtml#a088ce22a18d574e9df7ee1850bfb10c7" target="_top" xlink:title="umprintmgr::umprintopenstream">
<polygon fill="#ffffff" stroke="#000000" points="1651,-641.6734 1651,-660.6734 1828,-660.6734 1828,-641.6734 1651,-641.6734"/>
<text text-anchor="middle" x="1739.5" y="-648.6734" font-family="Helvetica,sans-Serif" font-size="10.00" fill="#000000">umprintmgr::umprintopenstream</text>
</a>
</g>
</g>
<!-- Node7&#45;&gt;Node8 -->
<g id="edge8" class="edge">
<title>Node7&#45;&gt;Node8</title>
<path fill="none" stroke="#191970" d="M1615.2395,-644.8066C1623.4605,-644.6034 1632.0751,-644.4811 1640.7702,-644.4394"/>
<polygon fill="#191970" stroke="#191970" points="1640.9998,-647.9393 1650.9958,-644.4277 1640.9917,-640.9393 1640.9998,-647.9393"/>
</g>
<!-- Node9 -->
<g id="node10" class="node">
<title>Node9</title>
<g id="a_node10"><a xlink:href="namespaceumprintmgr.xhtml#ad3a290b30a6e25500eabc0bf90330b77" target="_top" xlink:title="umprintmgr::umprintflush">
<polygon fill="#ffffff" stroke="#000000" points="1668.5,-603.6734 1668.5,-622.6734 1810.5,-622.6734 1810.5,-603.6734 1668.5,-603.6734"/>
<text text-anchor="middle" x="1739.5" y="-610.6734" font-family="Helvetica,sans-Serif" font-size="10.00" fill="#000000">umprintmgr::umprintflush</text>
</a>
</g>
</g>
<!-- Node7&#45;&gt;Node9 -->
<g id="edge10" class="edge">
<title>Node7&#45;&gt;Node9</title>
<path fill="none" stroke="#191970" d="M1601.931,-641.5844C1626.6493,-636.4795 1657.239,-630.162 1683.292,-624.7815"/>
<polygon fill="#191970" stroke="#191970" points="1684.3175,-628.1437 1693.4029,-622.6934 1682.9017,-621.2884 1684.3175,-628.1437"/>
</g>
<!-- Node8&#45;&gt;Node7 -->
<g id="edge9" class="edge">
<title>Node8&#45;&gt;Node7</title>
<path fill="none" stroke="#191970" d="M1650.9958,-657.919C1642.3802,-657.9404 1633.7236,-657.8827 1625.3289,-657.746"/>
<polygon fill="#191970" stroke="#191970" points="1625.3089,-654.245 1615.2395,-657.5401 1625.166,-661.2435 1625.3089,-654.245"/>
</g>
<!-- Node10 -->
<g id="node11" class="node">
<title>Node10</title>
<g id="a_node11"><a xlink:href="namespaceumflush__mod.xhtml#a3a003ab59990bdcb712b443dd5e0d1cd" target="_top" xlink:title="umflush_mod::umflush">
<polygon fill="#ffffff" stroke="#000000" points="1864,-603.6734 1864,-622.6734 1992,-622.6734 1992,-603.6734 1864,-603.6734"/>
<text text-anchor="middle" x="1928" y="-610.6734" font-family="Helvetica,sans-Serif" font-size="10.00" fill="#000000">umflush_mod::umflush</text>
</a>
</g>
</g>
<!-- Node9&#45;&gt;Node10 -->
<g id="edge11" class="edge">
<title>Node9&#45;&gt;Node10</title>
<path fill="none" stroke="#191970" d="M1810.7638,-613.1734C1824.7742,-613.1734 1839.5063,-613.1734 1853.6162,-613.1734"/>
<polygon fill="#191970" stroke="#191970" points="1853.7612,-616.6735 1863.7611,-613.1734 1853.7611,-609.6735 1853.7612,-616.6735"/>
</g>
<!-- Node11&#45;&gt;Node6 -->
<g id="edge13" class="edge">
<title>Node11&#45;&gt;Node6</title>
<path fill="none" stroke="#191970" d="M1217.0549,-195.6328C1244.5162,-187.5851 1284.5731,-175.846 1317.9768,-166.0568"/>
<polygon fill="#191970" stroke="#191970" points="1319.0439,-169.3913 1327.6559,-163.2202 1317.0752,-162.6739 1319.0439,-169.3913"/>
</g>
<!-- Node11&#45;&gt;Node12 -->
<g id="edge14" class="edge">
<title>Node11&#45;&gt;Node12</title>
<path fill="none" stroke="#191970" d="M1193.8811,-214.9162C1224.756,-246.9817 1323.4647,-349.4966 1362.6972,-390.2419"/>
<polygon fill="#191970" stroke="#191970" points="1360.2556,-392.7523 1369.713,-397.5282 1365.2981,-387.897 1360.2556,-392.7523"/>
</g>
<!-- Node13&#45;&gt;Node5 -->
<g id="edge23" class="edge">
<title>Node13&#45;&gt;Node5</title>
<path fill="none" stroke="#191970" d="M845.9805,-100.3714C880.0629,-123.4131 944.4392,-166.9351 978.5209,-189.9762"/>
<polygon fill="#191970" stroke="#191970" points="976.6439,-192.9321 986.8886,-195.6333 980.5645,-187.133 976.6439,-192.9321"/>
</g>
<!-- Node13&#45;&gt;Node6 -->
<g id="edge19" class="edge">
<title>Node13&#45;&gt;Node6</title>
<path fill="none" stroke="#191970" d="M883.1097,-88.6792C933.303,-91.8876 1006.9517,-97.1952 1071,-104.1734 1156.2285,-113.4592 1177.1344,-119.0096 1262,-131.1734 1279.749,-133.7173 1299.0084,-136.5046 1316.6806,-139.0729"/>
<polygon fill="#191970" stroke="#191970" points="1316.4793,-142.5804 1326.879,-140.5563 1317.4869,-135.6533 1316.4793,-142.5804"/>
</g>
<!-- Node14 -->
<g id="node15" class="node">
<title>Node14</title>
<g id="a_node15"><a xlink:href="namespaceios__client__queue.xhtml#a9df32aa21836ca6d0c9912866fc9a3e8" target="_top" xlink:title="ios_client_queue::ios\l_print_protocol_slot">
<polygon fill="#ffffff" stroke="#000000" points="941.5,-114.1734 941.5,-144.1734 1060.5,-144.1734 1060.5,-114.1734 941.5,-114.1734"/>
<text text-anchor="start" x="949.5" y="-132.1734" font-family="Helvetica,sans-Serif" font-size="10.00" fill="#000000">ios_client_queue::ios</text>
<text text-anchor="middle" x="1001" y="-121.1734" font-family="Helvetica,sans-Serif" font-size="10.00" fill="#000000">_print_protocol_slot</text>
</a>
</g>
</g>
<!-- Node13&#45;&gt;Node14 -->
<g id="edge20" class="edge">
<title>Node13&#45;&gt;Node14</title>
<path fill="none" stroke="#191970" d="M883.0987,-99.9471C898.6118,-103.7926 915.4617,-107.9695 931.4401,-111.9303"/>
<polygon fill="#191970" stroke="#191970" points="930.7081,-115.3548 941.2565,-114.3637 932.3924,-108.5604 930.7081,-115.3548"/>
</g>
<!-- Node14&#45;&gt;Node6 -->
<g id="edge21" class="edge">
<title>Node14&#45;&gt;Node6</title>
<path fill="none" stroke="#191970" d="M1060.8952,-132.184C1130.8372,-135.6996 1245.964,-141.4864 1316.8573,-145.0498"/>
<polygon fill="#191970" stroke="#191970" points="1316.8222,-148.5524 1326.9853,-145.5589 1317.1737,-141.5612 1316.8222,-148.5524"/>
</g>
<!-- Node14&#45;&gt;Node11 -->
<g id="edge22" class="edge">
<title>Node14&#45;&gt;Node11</title>
<path fill="none" stroke="#191970" d="M1037.2537,-144.1885C1070.6673,-158.0274 1119.8106,-178.381 1151.9826,-191.7057"/>
<polygon fill="#191970" stroke="#191970" points="1150.8077,-195.0073 1161.386,-195.6002 1153.4863,-188.5401 1150.8077,-195.0073"/>
</g>
<!-- Node15&#45;&gt;Node2 -->
<g id="edge26" class="edge">
<title>Node15&#45;&gt;Node2</title>
<path fill="none" stroke="#191970" d="M708.1646,-269.3714C729.07,-264.6228 751.926,-259.4312 771.7373,-254.9311"/>
<polygon fill="#191970" stroke="#191970" points="772.5176,-258.3431 781.4939,-252.7149 770.967,-251.517 772.5176,-258.3431"/>
</g>
<!-- Node15&#45;&gt;Node5 -->
<g id="edge25" class="edge">
<title>Node15&#45;&gt;Node5</title>
<path fill="none" stroke="#191970" d="M708.0377,-285.6471C759.7361,-285.1287 833.3532,-280.585 895,-262.1734 926.0433,-252.9019 958.3681,-233.951 979.0337,-220.4473"/>
<polygon fill="#191970" stroke="#191970" points="981.0284,-223.324 987.4002,-214.8593 977.1405,-217.5029 981.0284,-223.324"/>
</g>
<!-- Node17&#45;&gt;Node5 -->
<g id="edge29" class="edge">
<title>Node17&#45;&gt;Node5</title>
<path fill="none" stroke="#191970" d="M707.8311,-142.9364C776.0165,-157.4115 882.135,-179.9395 946.259,-193.5524"/>
<polygon fill="#191970" stroke="#191970" points="945.6688,-197.005 956.1777,-195.658 947.1225,-190.1576 945.6688,-197.005"/>
</g>
<!-- Node17&#45;&gt;Node6 -->
<g id="edge30" class="edge">
<title>Node17&#45;&gt;Node6</title>
<path fill="none" stroke="#191970" d="M659.9741,-114.0328C680.2127,-97.092 715.8619,-70.6502 752,-60.1734 964.22,1.3516 1229.7494,-88.0022 1334.0216,-129.2237"/>
<polygon fill="#191970" stroke="#191970" points="1333.0172,-132.5915 1343.6018,-133.056 1335.617,-126.0922 1333.0172,-132.5915"/>
</g>
<!-- Node17&#45;&gt;Node13 -->
<g id="edge31" class="edge">
<title>Node17&#45;&gt;Node13</title>
<path fill="none" stroke="#191970" d="M704.613,-114.1541C720.513,-110.2782 737.736,-106.0798 754.0073,-102.1134"/>
<polygon fill="#191970" stroke="#191970" points="755.1085,-105.4475 763.9951,-99.6787 753.4506,-98.6467 755.1085,-105.4475"/>
</g>
<!-- Node17&#45;&gt;Node14 -->
<g id="edge32" class="edge">
<title>Node17&#45;&gt;Node14</title>
<path fill="none" stroke="#191970" d="M707.8311,-129.1734C770.948,-129.1734 866.5682,-129.1734 931.2959,-129.1734"/>
<polygon fill="#191970" stroke="#191970" points="931.4094,-132.6735 941.4094,-129.1734 931.4094,-125.6735 931.4094,-132.6735"/>
</g>
<!-- Node18&#45;&gt;Node5 -->
<g id="edge34" class="edge">
<title>Node18&#45;&gt;Node5</title>
<path fill="none" stroke="#191970" d="M520.1484,-197.1666C617.6246,-198.7897 811.14,-202.012 920.6239,-203.835"/>
<polygon fill="#191970" stroke="#191970" points="920.8938,-207.3399 930.9507,-204.007 921.0104,-200.3409 920.8938,-207.3399"/>
</g>
<!-- Node19&#45;&gt;Node5 -->
<g id="edge40" class="edge">
<title>Node19&#45;&gt;Node5</title>
<path fill="none" stroke="#191970" d="M534.3427,-498.162C629.0488,-492.9986 793.1885,-470.4762 895,-380.1734 945.8144,-335.103 979.8581,-259.725 993.8338,-224.4621"/>
<polygon fill="#191970" stroke="#191970" points="997.1947,-225.474 997.5232,-214.8843 990.6625,-222.9578 997.1947,-225.474"/>
</g>
<!-- Node19&#45;&gt;Node6 -->
<g id="edge38" class="edge">
<title>Node19&#45;&gt;Node6</title>
<path fill="none" stroke="#191970" d="M481.3481,-508.7635C502.9799,-518.1463 538.0534,-531.7877 570,-537.1734 633.986,-547.9604 653.2964,-553.8715 716,-537.1734 992.4396,-463.5567 1270.7921,-240.4761 1354.0265,-169.8559"/>
<polygon fill="#191970" stroke="#191970" points="1356.351,-172.4734 1361.6852,-163.3193 1351.8067,-167.149 1356.351,-172.4734"/>
</g>
<!-- Node19&#45;&gt;Node12 -->
<g id="edge39" class="edge">
<title>Node19&#45;&gt;Node12</title>
<path fill="none" stroke="#191970" d="M471.3553,-508.8325C490.0015,-524.7839 529.9843,-556.2511 570,-570.1734 676.886,-607.3613 710.3295,-594.1734 823.5,-594.1734 823.5,-594.1734 823.5,-594.1734 1001,-594.1734 1154.2753,-594.1734 1309.6452,-469.1216 1361.1848,-423.5419"/>
<polygon fill="#191970" stroke="#191970" points="1363.7014,-425.9863 1368.8088,-416.7038 1359.0275,-420.7753 1363.7014,-425.9863"/>
</g>
<!-- Node19&#45;&gt;Node16 -->
<g id="edge36" class="edge">
<title>Node19&#45;&gt;Node16</title>
<path fill="none" stroke="#191970" d="M491.0464,-489.6328C521.7082,-480.0563 569.1053,-465.2528 602.8042,-454.7277"/>
<polygon fill="#191970" stroke="#191970" points="603.8521,-458.0672 612.3539,-451.745 601.7652,-451.3855 603.8521,-458.0672"/>
</g>
<!-- Node20 -->
<g id="node21" class="node">
<title>Node20</title>
<g id="a_node21"><a xlink:href="namespaceios__common.xhtml#a3976806ac3c1c9b09b572dff6c77d79f" target="_top" xlink:title="ios_common::ioserverrank">
<polygon fill="#ffffff" stroke="#000000" points="570,-508.6734 570,-527.6734 716,-527.6734 716,-508.6734 570,-508.6734"/>
<text text-anchor="middle" x="643" y="-515.6734" font-family="Helvetica,sans-Serif" font-size="10.00" fill="#000000">ios_common::ioserverrank</text>
</a>
</g>
</g>
<!-- Node19&#45;&gt;Node20 -->
<g id="edge37" class="edge">
<title>Node19&#45;&gt;Node20</title>
<path fill="none" stroke="#191970" d="M534.2037,-506.8466C542.665,-507.7275 551.3355,-508.6302 559.9092,-509.5228"/>
<polygon fill="#191970" stroke="#191970" points="559.6024,-513.0097 569.9111,-510.5641 560.3273,-506.0473 559.6024,-513.0097"/>
</g>
<!-- Node21&#45;&gt;Node7 -->
<g id="edge42" class="edge">
<title>Node21&#45;&gt;Node7</title>
<path fill="none" stroke="#191970" d="M205.0094,-632.1734C268.3463,-632.1734 371.4961,-632.1734 460.5,-632.1734 460.5,-632.1734 460.5,-632.1734 1184.5,-632.1734 1289.5228,-632.1734 1411.05,-639.8611 1485.5905,-645.4563"/>
<polygon fill="#191970" stroke="#191970" points="1485.5537,-648.9635 1495.7901,-646.2309 1486.0839,-641.9836 1485.5537,-648.9635"/>
</g>
<!-- Node22 -->
<g id="node23" class="node">
<title>Node22</title>
<g id="a_node23"><a xlink:href="namespaceios.xhtml#a4e0ef82423255cdd4fbefdffa85ae7a6" target="_top" xlink:title="ios::ios_disksync">
<polygon fill="#ffffff" stroke="#000000" points="246.5,-489.6734 246.5,-508.6734 345.5,-508.6734 345.5,-489.6734 246.5,-489.6734"/>
<text text-anchor="middle" x="296" y="-496.6734" font-family="Helvetica,sans-Serif" font-size="10.00" fill="#000000">ios::ios_disksync</text>
</a>
</g>
</g>
<!-- Node21&#45;&gt;Node22 -->
<g id="edge43" class="edge">
<title>Node21&#45;&gt;Node22</title>
<path fill="none" stroke="#191970" d="M156.3236,-622.6083C181.6904,-600.1912 245.2389,-544.032 277.1278,-515.8511"/>
<polygon fill="#191970" stroke="#191970" points="279.6928,-518.2552 284.8684,-509.0106 275.0574,-513.0099 279.6928,-518.2552"/>
</g>
<!-- Node22&#45;&gt;Node3 -->
<g id="edge44" class="edge">
<title>Node22&#45;&gt;Node3</title>
<path fill="none" stroke="#191970" d="M305.3156,-489.4897C330.8238,-462.9736 402.3188,-388.6535 438.6765,-350.8591"/>
<polygon fill="#191970" stroke="#191970" points="441.4619,-353.0122 445.8724,-343.379 436.4172,-348.1592 441.4619,-353.0122"/>
</g>
<!-- Node22&#45;&gt;Node19 -->
<g id="edge45" class="edge">
<title>Node22&#45;&gt;Node19</title>
<path fill="none" stroke="#191970" d="M345.8018,-499.1734C355.6195,-499.1734 366.1717,-499.1734 376.7568,-499.1734"/>
<polygon fill="#191970" stroke="#191970" points="376.8927,-502.6735 386.8927,-499.1734 376.8927,-495.6735 376.8927,-502.6735"/>
</g>
<!-- Node23&#45;&gt;Node7 -->
<g id="edge47" class="edge">
<title>Node23&#45;&gt;Node7</title>
<path fill="none" stroke="#191970" d="M1209.1208,-708.0454C1257.6598,-707.352 1368.901,-703.5714 1460,-684.1734 1481.5698,-679.5804 1504.9858,-671.54 1523.2327,-664.5458"/>
<polygon fill="#191970" stroke="#191970" points="1524.7617,-667.7058 1532.7936,-660.7964 1522.206,-661.189 1524.7617,-667.7058"/>
</g>
<!-- Node24&#45;&gt;Node7 -->
<g id="edge49" class="edge">
<title>Node24&#45;&gt;Node7</title>
<path fill="none" stroke="#191970" d="M174.1653,-670.1734C229.5131,-670.1734 354.9531,-670.1734 460.5,-670.1734 460.5,-670.1734 460.5,-670.1734 1184.5,-670.1734 1289.5228,-670.1734 1411.05,-662.4856 1485.5905,-656.8904"/>
<polygon fill="#191970" stroke="#191970" points="1486.0839,-660.3631 1495.7901,-656.1158 1485.5537,-653.3832 1486.0839,-660.3631"/>
</g>
</g>
</svg>
