<?xml version="1.0" encoding="UTF-8" standalone="no"?>
<!DOCTYPE svg PUBLIC "-//W3C//DTD SVG 1.1//EN"
 "http://www.w3.org/Graphics/SVG/1.1/DTD/svg11.dtd">
<!-- Generated by graphviz version 2.40.1 (20161225.0304)
 -->
<!-- Title: ukca_init_mod::ukca_init::ukca_init Pages: 1 -->
<svg width="824pt" height="154pt"
 viewBox="0.00 0.00 824.00 154.00" xmlns="http://www.w3.org/2000/svg" xmlns:xlink="http://www.w3.org/1999/xlink">
<g id="graph0" class="graph" transform="scale(1 1) rotate(0) translate(4 150)">
<title>ukca_init_mod::ukca_init::ukca_init</title>
<polygon fill="#ffffff" stroke="transparent" points="-4,4 -4,-150 820,-150 820,4 -4,4"/>
<!-- Node0 -->
<g id="node1" class="node">
<title>Node0</title>
<polygon fill="#bfbfbf" stroke="#000000" points="0,-55 0,-85 117,-85 117,-55 0,-55"/>
<text text-anchor="start" x="8" y="-73" font-family="Helvetica,sans-Serif" font-size="10.00" fill="#000000">ukca_init_mod::ukca</text>
<text text-anchor="middle" x="58.5" y="-62" font-family="Helvetica,sans-Serif" font-size="10.00" fill="#000000">_init::ukca_init</text>
</g>
<!-- Node1 -->
<g id="node2" class="node">
<title>Node1</title>
<g id="a_node2"><a xlink:href="ukca__option__mod_8f90.xhtml#ab3885731e3b885b8717c0e3d47ce09ae" target="_top" xlink:title="check_run_ukca">
<polygon fill="#ffffff" stroke="#000000" points="171,-126.5 171,-145.5 266,-145.5 266,-126.5 171,-126.5"/>
<text text-anchor="middle" x="218.5" y="-133.5" font-family="Helvetica,sans-Serif" font-size="10.00" fill="#000000">check_run_ukca</text>
</a>
</g>
</g>
<!-- Node0&#45;&gt;Node1 -->
<g id="edge1" class="edge">
<title>Node0&#45;&gt;Node1</title>
<path fill="none" stroke="#191970" d="M85.6146,-85.1118C104.1936,-95.0583 129.6133,-107.8772 153,-117 158.9359,-119.3155 165.2705,-121.4971 171.5739,-123.4987"/>
<polygon fill="#191970" stroke="#191970" points="170.8058,-126.9235 181.3917,-126.4895 172.8456,-120.2273 170.8058,-126.9235"/>
</g>
<!-- Node2 -->
<g id="node3" class="node">
<title>Node2</title>
<g id="a_node3"><a xlink:href="namespaceukca__setup__chem__mod.xhtml#a9ae9ce6f426d3790447554380cca3f56" target="_top" xlink:title="ukca_setup_chem_mod\l::ukca_setup_chem">
<polygon fill="#ffffff" stroke="#000000" points="153,-77 153,-107 284,-107 284,-77 153,-77"/>
<text text-anchor="start" x="161" y="-95" font-family="Helvetica,sans-Serif" font-size="10.00" fill="#000000">ukca_setup_chem_mod</text>
<text text-anchor="middle" x="218.5" y="-84" font-family="Helvetica,sans-Serif" font-size="10.00" fill="#000000">::ukca_setup_chem</text>
</a>
</g>
</g>
<!-- Node0&#45;&gt;Node2 -->
<g id="edge2" class="edge">
<title>Node0&#45;&gt;Node2</title>
<path fill="none" stroke="#191970" d="M117.1696,-78.0671C125.503,-79.2129 134.1696,-80.4046 142.7702,-81.5871"/>
<polygon fill="#191970" stroke="#191970" points="142.4287,-85.073 152.8123,-82.9679 143.3823,-78.1383 142.4287,-85.073"/>
</g>
<!-- Node3 -->
<g id="node4" class="node">
<title>Node3</title>
<g id="a_node4"><a xlink:href="namespaceumprintmgr.xhtml#aae44897e556705dbf5e945a26538be9a" target="_top" xlink:title="umprintmgr::umprint">
<polygon fill="#ffffff" stroke="#000000" points="320,-60.5 320,-79.5 439,-79.5 439,-60.5 320,-60.5"/>
<text text-anchor="middle" x="379.5" y="-67.5" font-family="Helvetica,sans-Serif" font-size="10.00" fill="#000000">umprintmgr::umprint</text>
</a>
</g>
</g>
<!-- Node0&#45;&gt;Node3 -->
<g id="edge8" class="edge">
<title>Node0&#45;&gt;Node3</title>
<path fill="none" stroke="#191970" d="M117.2246,-68.5643C129.0681,-68.3291 141.4317,-68.1224 153,-68 211.219,-67.384 225.781,-67.3904 284,-68 292.3431,-68.0874 301.0955,-68.2176 309.7742,-68.3706"/>
<polygon fill="#191970" stroke="#191970" points="309.8357,-71.8722 319.8992,-68.5593 309.9662,-64.8734 309.8357,-71.8722"/>
</g>
<!-- Node7 -->
<g id="node8" class="node">
<title>Node7</title>
<g id="a_node8"><a xlink:href="sum_8f90.xhtml#a025c1f845b6a4ea9c9f48b8612cd82e7" target="_top" xlink:title="Generic routines for manipulating pp&#45;fields within Fieldcalc. ">
<polygon fill="#ffffff" stroke="#000000" points="199.5,-.5 199.5,-19.5 237.5,-19.5 237.5,-.5 199.5,-.5"/>
<text text-anchor="middle" x="218.5" y="-7.5" font-family="Helvetica,sans-Serif" font-size="10.00" fill="#000000">sum</text>
</a>
</g>
</g>
<!-- Node0&#45;&gt;Node7 -->
<g id="edge9" class="edge">
<title>Node0&#45;&gt;Node7</title>
<path fill="none" stroke="#191970" d="M97.9991,-54.8241C114.918,-48.3571 134.9096,-40.7597 153,-34 165.021,-29.5082 178.3123,-24.6231 189.7629,-20.4398"/>
<polygon fill="#191970" stroke="#191970" points="191.0777,-23.6859 199.2735,-16.9717 188.6796,-17.1094 191.0777,-23.6859"/>
</g>
<!-- Node2&#45;&gt;Node3 -->
<g id="edge3" class="edge">
<title>Node2&#45;&gt;Node3</title>
<path fill="none" stroke="#191970" d="M284.4494,-82.9883C292.7841,-81.8494 301.334,-80.6811 309.7256,-79.5344"/>
<polygon fill="#191970" stroke="#191970" points="310.4238,-82.9716 319.8578,-78.1499 309.476,-76.036 310.4238,-82.9716"/>
</g>
<!-- Node4 -->
<g id="node5" class="node">
<title>Node4</title>
<g id="a_node5"><a xlink:href="namespaceumprintmgr.xhtml#a088ce22a18d574e9df7ee1850bfb10c7" target="_top" xlink:title="umprintmgr::umprintopenstream">
<polygon fill="#ffffff" stroke="#000000" points="475,-60.5 475,-79.5 652,-79.5 652,-60.5 475,-60.5"/>
<text text-anchor="middle" x="563.5" y="-67.5" font-family="Helvetica,sans-Serif" font-size="10.00" fill="#000000">umprintmgr::umprintopenstream</text>
</a>
</g>
</g>
<!-- Node3&#45;&gt;Node4 -->
<g id="edge4" class="edge">
<title>Node3&#45;&gt;Node4</title>
<path fill="none" stroke="#191970" d="M439.2395,-63.6333C447.4605,-63.4301 456.0751,-63.3077 464.7702,-63.2661"/>
<polygon fill="#191970" stroke="#191970" points="464.9998,-66.7659 474.9958,-63.2543 464.9917,-59.7659 464.9998,-66.7659"/>
</g>
<!-- Node5 -->
<g id="node6" class="node">
<title>Node5</title>
<g id="a_node6"><a xlink:href="namespaceumprintmgr.xhtml#ad3a290b30a6e25500eabc0bf90330b77" target="_top" xlink:title="umprintmgr::umprintflush">
<polygon fill="#ffffff" stroke="#000000" points="492.5,-22.5 492.5,-41.5 634.5,-41.5 634.5,-22.5 492.5,-22.5"/>
<text text-anchor="middle" x="563.5" y="-29.5" font-family="Helvetica,sans-Serif" font-size="10.00" fill="#000000">umprintmgr::umprintflush</text>
</a>
</g>
</g>
<!-- Node3&#45;&gt;Node5 -->
<g id="edge6" class="edge">
<title>Node3&#45;&gt;Node5</title>
<path fill="none" stroke="#191970" d="M425.931,-60.411C450.6493,-55.3061 481.239,-48.9887 507.292,-43.6082"/>
<polygon fill="#191970" stroke="#191970" points="508.3175,-46.9703 517.4029,-41.5201 506.9017,-40.115 508.3175,-46.9703"/>
</g>
<!-- Node4&#45;&gt;Node3 -->
<g id="edge5" class="edge">
<title>Node4&#45;&gt;Node3</title>
<path fill="none" stroke="#191970" d="M474.9958,-76.7457C466.3802,-76.767 457.7236,-76.7094 449.3289,-76.5727"/>
<polygon fill="#191970" stroke="#191970" points="449.3089,-73.0716 439.2395,-76.3667 449.166,-80.0702 449.3089,-73.0716"/>
</g>
<!-- Node6 -->
<g id="node7" class="node">
<title>Node6</title>
<g id="a_node7"><a xlink:href="namespaceumflush__mod.xhtml#a3a003ab59990bdcb712b443dd5e0d1cd" target="_top" xlink:title="umflush_mod::umflush">
<polygon fill="#ffffff" stroke="#000000" points="688,-22.5 688,-41.5 816,-41.5 816,-22.5 688,-22.5"/>
<text text-anchor="middle" x="752" y="-29.5" font-family="Helvetica,sans-Serif" font-size="10.00" fill="#000000">umflush_mod::umflush</text>
</a>
</g>
</g>
<!-- Node5&#45;&gt;Node6 -->
<g id="edge7" class="edge">
<title>Node5&#45;&gt;Node6</title>
<path fill="none" stroke="#191970" d="M634.7638,-32C648.7742,-32 663.5063,-32 677.6162,-32"/>
<polygon fill="#191970" stroke="#191970" points="677.7612,-35.5001 687.7611,-32 677.7611,-28.5001 677.7612,-35.5001"/>
</g>
</g>
</svg>
