<?xml version="1.0" encoding="UTF-8" standalone="no"?>
<!DOCTYPE svg PUBLIC "-//W3C//DTD SVG 1.1//EN"
 "http://www.w3.org/Graphics/SVG/1.1/DTD/svg11.dtd">
<!-- Generated by graphviz version 2.40.1 (20161225.0304)
 -->
<!-- Title: intf_ctl Pages: 1 -->
<!--zoomable 291 -->
<svg id="main" version="1.1" xmlns="http://www.w3.org/2000/svg" xmlns:xlink="http://www.w3.org/1999/xlink" xml:space="preserve" onload="init(evt)">
<style type="text/css"><![CDATA[
.edge:hover path { stroke: red; }
.edge:hover polygon { stroke: red; fill: red; }
]]></style>
<script type="text/javascript"><![CDATA[
var edges = document.getElementsByTagName('g');
if (edges && edges.length) {
  for (var i=0;i<edges.length;i++) {
    if (edges[i].id.substr(0,4)=='edge') {
      edges[i].setAttribute('class','edge');
    }
  }
}
]]></script>
        <defs>
                <circle id="rim" cx="0" cy="0" r="7"/>
                <circle id="rim2" cx="0" cy="0" r="3.5"/>
                <g id="zoomPlus">
                        <use xlink:href="#rim" fill="#404040">
                                <set attributeName="fill" to="#808080" begin="zoomplus.mouseover" end="zoomplus.mouseout"/>
                        </use>
                        <path d="M-4,0h8M0,-4v8" fill="none" stroke="white" stroke-width="1.5" pointer-events="none"/>
                </g>
                <g id="zoomMin">
                        <use xlink:href="#rim" fill="#404040">
                                <set attributeName="fill" to="#808080" begin="zoomminus.mouseover" end="zoomminus.mouseout"/>
                        </use>
                        <path d="M-4,0h8" fill="none" stroke="white" stroke-width="1.5" pointer-events="none"/>
                </g>
                <g id="dirArrow">
                        <path fill="none" stroke="white" stroke-width="1.5" d="M0,-3.0v7 M-2.5,-0.5L0,-3.0L2.5,-0.5"/>
                </g>
               <g id="resetDef">
                       <use xlink:href="#rim2" fill="#404040">
                               <set attributeName="fill" to="#808080" begin="reset.mouseover" end="reset.mouseout"/>
                       </use>
               </g>
        </defs>

<script type="text/javascript">
var viewWidth = 766;
var viewHeight = 291;
var sectionId = 'dynsection-0';
</script>
<script xlink:href="svgpan.js"/>
<svg id="graph" class="graph">
<g id="viewport">
<title>intf_ctl</title>
<polygon fill="#ffffff" stroke="transparent" points="-4,4 -4,-286.5 762,-286.5 762,4 -4,4"/>
<!-- Node0 -->
<g id="node1" class="node">
<title>Node0</title>
<polygon fill="#bfbfbf" stroke="#000000" points="0,-137.5 0,-156.5 50,-156.5 50,-137.5 0,-137.5"/>
<text text-anchor="middle" x="25" y="-144.5" font-family="Helvetica,sans-Serif" font-size="10.00" fill="#000000">intf_ctl</text>
</g>
<!-- Node1 -->
<g id="node2" class="node">
<title>Node1</title>
<g id="a_node2"><a xlink:href="namespacevrhoriz__grid__mod.xhtml#a1a0e93710b4cecca2506a09a8588f818" target="_top" xlink:title="vrhoriz_grid_mod::print\l_nlist_horizgrid">
<polygon fill="#ffffff" stroke="#000000" points="91,-252 91,-282 221,-282 221,-252 91,-252"/>
<text text-anchor="start" x="99" y="-270" font-family="Helvetica,sans-Serif" font-size="10.00" fill="#000000">vrhoriz_grid_mod::print</text>
<text text-anchor="middle" x="156" y="-259" font-family="Helvetica,sans-Serif" font-size="10.00" fill="#000000">_nlist_horizgrid</text>
</a>
</g>
</g>
<!-- Node0&#45;&gt;Node1 -->
<g id="edge1" class="edge">
<title>Node0&#45;&gt;Node1</title>
<path fill="none" stroke="#191970" d="M29.2905,-156.737C37.7121,-174.8402 58.0493,-213.9305 86,-237 90.5728,-240.7742 95.6915,-244.1467 101.0245,-247.1424"/>
<polygon fill="#191970" stroke="#191970" points="99.6498,-250.3711 110.1434,-251.8326 102.8516,-244.1463 99.6498,-250.3711"/>
</g>
<!-- Node2 -->
<g id="node3" class="node">
<title>Node2</title>
<g id="a_node3"><a xlink:href="namespaceumprintmgr.xhtml#aae44897e556705dbf5e945a26538be9a" target="_top" xlink:title="umprintmgr::umprint">
<polygon fill="#ffffff" stroke="#000000" points="262,-213.5 262,-232.5 381,-232.5 381,-213.5 262,-213.5"/>
<text text-anchor="middle" x="321.5" y="-220.5" font-family="Helvetica,sans-Serif" font-size="10.00" fill="#000000">umprintmgr::umprint</text>
</a>
</g>
</g>
<!-- Node0&#45;&gt;Node2 -->
<g id="edge7" class="edge">
<title>Node0&#45;&gt;Node2</title>
<path fill="none" stroke="#191970" d="M31.9654,-156.7465C42.1282,-170.0895 62.4008,-193.574 86,-204 138.1921,-227.0581 203.1982,-230.6676 251.6821,-229.1562"/>
<polygon fill="#191970" stroke="#191970" points="251.9114,-232.65 261.7667,-228.7611 251.6373,-225.6554 251.9114,-232.65"/>
</g>
<!-- Node6 -->
<g id="node7" class="node">
<title>Node6</title>
<g id="a_node7"><a xlink:href="cintfa_8h.xhtml#a3752f3035d3eb85d5cfe82a9aad9274e" target="_top" xlink:title="lambda_intf_p">
<polygon fill="#ffffff" stroke="#000000" points="113,-175.5 113,-194.5 199,-194.5 199,-175.5 113,-175.5"/>
<text text-anchor="middle" x="156" y="-182.5" font-family="Helvetica,sans-Serif" font-size="10.00" fill="#000000">lambda_intf_p</text>
</a>
</g>
</g>
<!-- Node0&#45;&gt;Node6 -->
<g id="edge8" class="edge">
<title>Node0&#45;&gt;Node6</title>
<path fill="none" stroke="#191970" d="M50.1636,-155.0669C61.1411,-158.5266 74.1792,-162.5561 86,-166 93.8216,-168.2788 102.1604,-170.6192 110.2556,-172.8446"/>
<polygon fill="#191970" stroke="#191970" points="109.3894,-176.2362 119.958,-175.4902 111.231,-169.4827 109.3894,-176.2362"/>
</g>
<!-- Node7 -->
<g id="node8" class="node">
<title>Node7</title>
<g id="a_node8"><a xlink:href="cintfa_8h.xhtml#a7e1d8462b91f370b6cd597cf5065f701" target="_top" xlink:title="phi_intf_v">
<polygon fill="#ffffff" stroke="#000000" points="123.5,-137.5 123.5,-156.5 188.5,-156.5 188.5,-137.5 123.5,-137.5"/>
<text text-anchor="middle" x="156" y="-144.5" font-family="Helvetica,sans-Serif" font-size="10.00" fill="#000000">phi_intf_v</text>
</a>
</g>
</g>
<!-- Node0&#45;&gt;Node7 -->
<g id="edge9" class="edge">
<title>Node0&#45;&gt;Node7</title>
<path fill="none" stroke="#191970" d="M50.2581,-147C68.0672,-147 92.3565,-147 113.1648,-147"/>
<polygon fill="#191970" stroke="#191970" points="113.3654,-150.5001 123.3654,-147 113.3654,-143.5001 113.3654,-150.5001"/>
</g>
<!-- Node8 -->
<g id="node9" class="node">
<title>Node8</title>
<g id="a_node9"><a xlink:href="namespacecheck__iostat__mod.xhtml#a566da52c3f5db6d5e0fe66bec78e47f8" target="_top" xlink:title="check_iostat_mod::check\l_iostat">
<polygon fill="#ffffff" stroke="#000000" points="86,-88 86,-118 226,-118 226,-88 86,-88"/>
<text text-anchor="start" x="94" y="-106" font-family="Helvetica,sans-Serif" font-size="10.00" fill="#000000">check_iostat_mod::check</text>
<text text-anchor="middle" x="156" y="-95" font-family="Helvetica,sans-Serif" font-size="10.00" fill="#000000">_iostat</text>
</a>
</g>
</g>
<!-- Node0&#45;&gt;Node8 -->
<g id="edge10" class="edge">
<title>Node0&#45;&gt;Node8</title>
<path fill="none" stroke="#191970" d="M50.2581,-138.5164C64.8121,-133.628 83.6939,-127.286 101.4668,-121.3165"/>
<polygon fill="#191970" stroke="#191970" points="102.8269,-124.5519 111.1921,-118.05 100.5981,-117.9162 102.8269,-124.5519"/>
</g>
<!-- Node9 -->
<g id="node10" class="node">
<title>Node9</title>
<g id="a_node10"><a xlink:href="namespacenl__cnaminfa__h__intfcnsta.xhtml#a183906cee0fa62aa7f0368ff6fbab355" target="_top" xlink:title="nl_cnaminfa_h_intfcnsta\l::print_nlist_intfcnsta">
<polygon fill="#ffffff" stroke="#000000" points="88,-39 88,-69 224,-69 224,-39 88,-39"/>
<text text-anchor="start" x="96" y="-57" font-family="Helvetica,sans-Serif" font-size="10.00" fill="#000000">nl_cnaminfa_h_intfcnsta</text>
<text text-anchor="middle" x="156" y="-46" font-family="Helvetica,sans-Serif" font-size="10.00" fill="#000000">::print_nlist_intfcnsta</text>
</a>
</g>
</g>
<!-- Node0&#45;&gt;Node9 -->
<g id="edge11" class="edge">
<title>Node0&#45;&gt;Node9</title>
<path fill="none" stroke="#191970" d="M31.3373,-137.2726C41.3148,-122.6717 62.0366,-95.0906 86,-79 88.9278,-77.0341 92.0282,-75.203 95.231,-73.5004"/>
<polygon fill="#191970" stroke="#191970" points="96.9883,-76.5385 104.4699,-69.0368 93.9431,-70.2356 96.9883,-76.5385"/>
</g>
<!-- Node10 -->
<g id="node11" class="node">
<title>Node10</title>
<g id="a_node11"><a xlink:href="intf__new__files_8f90.xhtml#a7946177bff2db95217630b7724548798" target="_top" xlink:title="Subroutine INTF_NEW_FILES &#45;!&gt; ">
<polygon fill="#ffffff" stroke="#000000" points="114,-.5 114,-19.5 198,-19.5 198,-.5 114,-.5"/>
<text text-anchor="middle" x="156" y="-7.5" font-family="Helvetica,sans-Serif" font-size="10.00" fill="#000000">intf_new_files</text>
</a>
</g>
</g>
<!-- Node0&#45;&gt;Node10 -->
<g id="edge13" class="edge">
<title>Node0&#45;&gt;Node10</title>
<path fill="none" stroke="#191970" d="M27.1598,-137.3708C32.7309,-114.8169 49.7586,-58.2688 86,-29 91.3315,-24.6942 97.5597,-21.3605 104.0624,-18.7801"/>
<polygon fill="#191970" stroke="#191970" points="105.3637,-22.0347 113.7135,-15.5131 103.1192,-15.4043 105.3637,-22.0347"/>
</g>
<!-- Node1&#45;&gt;Node2 -->
<g id="edge2" class="edge">
<title>Node1&#45;&gt;Node2</title>
<path fill="none" stroke="#191970" d="M212.4928,-251.9808C233.066,-246.5112 256.0548,-240.3993 275.5979,-235.2036"/>
<polygon fill="#191970" stroke="#191970" points="276.7076,-238.5302 285.4726,-232.5783 274.909,-231.7652 276.7076,-238.5302"/>
</g>
<!-- Node3 -->
<g id="node4" class="node">
<title>Node3</title>
<g id="a_node4"><a xlink:href="namespaceumprintmgr.xhtml#a088ce22a18d574e9df7ee1850bfb10c7" target="_top" xlink:title="umprintmgr::umprintopenstream">
<polygon fill="#ffffff" stroke="#000000" points="417,-213.5 417,-232.5 594,-232.5 594,-213.5 417,-213.5"/>
<text text-anchor="middle" x="505.5" y="-220.5" font-family="Helvetica,sans-Serif" font-size="10.00" fill="#000000">umprintmgr::umprintopenstream</text>
</a>
</g>
</g>
<!-- Node2&#45;&gt;Node3 -->
<g id="edge3" class="edge">
<title>Node2&#45;&gt;Node3</title>
<path fill="none" stroke="#191970" d="M381.2395,-216.6333C389.4605,-216.4301 398.0751,-216.3077 406.7702,-216.2661"/>
<polygon fill="#191970" stroke="#191970" points="406.9998,-219.7659 416.9958,-216.2543 406.9917,-212.7659 406.9998,-219.7659"/>
</g>
<!-- Node4 -->
<g id="node5" class="node">
<title>Node4</title>
<g id="a_node5"><a xlink:href="namespaceumprintmgr.xhtml#ad3a290b30a6e25500eabc0bf90330b77" target="_top" xlink:title="umprintmgr::umprintflush">
<polygon fill="#ffffff" stroke="#000000" points="434.5,-175.5 434.5,-194.5 576.5,-194.5 576.5,-175.5 434.5,-175.5"/>
<text text-anchor="middle" x="505.5" y="-182.5" font-family="Helvetica,sans-Serif" font-size="10.00" fill="#000000">umprintmgr::umprintflush</text>
</a>
</g>
</g>
<!-- Node2&#45;&gt;Node4 -->
<g id="edge5" class="edge">
<title>Node2&#45;&gt;Node4</title>
<path fill="none" stroke="#191970" d="M367.931,-213.411C392.6493,-208.3061 423.239,-201.9887 449.292,-196.6082"/>
<polygon fill="#191970" stroke="#191970" points="450.3175,-199.9703 459.4029,-194.5201 448.9017,-193.115 450.3175,-199.9703"/>
</g>
<!-- Node3&#45;&gt;Node2 -->
<g id="edge4" class="edge">
<title>Node3&#45;&gt;Node2</title>
<path fill="none" stroke="#191970" d="M416.9958,-229.7457C408.3802,-229.767 399.7236,-229.7094 391.3289,-229.5727"/>
<polygon fill="#191970" stroke="#191970" points="391.3089,-226.0716 381.2395,-229.3667 391.166,-233.0702 391.3089,-226.0716"/>
</g>
<!-- Node5 -->
<g id="node6" class="node">
<title>Node5</title>
<g id="a_node6"><a xlink:href="namespaceumflush__mod.xhtml#a3a003ab59990bdcb712b443dd5e0d1cd" target="_top" xlink:title="umflush_mod::umflush">
<polygon fill="#ffffff" stroke="#000000" points="630,-175.5 630,-194.5 758,-194.5 758,-175.5 630,-175.5"/>
<text text-anchor="middle" x="694" y="-182.5" font-family="Helvetica,sans-Serif" font-size="10.00" fill="#000000">umflush_mod::umflush</text>
</a>
</g>
</g>
<!-- Node4&#45;&gt;Node5 -->
<g id="edge6" class="edge">
<title>Node4&#45;&gt;Node5</title>
<path fill="none" stroke="#191970" d="M576.7638,-185C590.7742,-185 605.5063,-185 619.6162,-185"/>
<polygon fill="#191970" stroke="#191970" points="619.7612,-188.5001 629.7611,-185 619.7611,-181.5001 619.7612,-188.5001"/>
</g>
<!-- Node9&#45;&gt;Node2 -->
<g id="edge12" class="edge">
<title>Node9&#45;&gt;Node2</title>
<path fill="none" stroke="#191970" d="M209.8799,-69.1317C215.6128,-71.9171 221.1223,-75.1821 226,-79 269.7413,-113.237 300.1691,-173.284 313.6585,-203.8914"/>
<polygon fill="#191970" stroke="#191970" points="310.5722,-205.5765 317.7175,-213.3993 317.0101,-202.8281 310.5722,-205.5765"/>
</g>
<!-- Node11 -->
<g id="node12" class="node">
<title>Node11</title>
<g id="a_node12"><a xlink:href="intf__area_8f90.xhtml#abd2757313cc8e6680abeefc350453809" target="_top" xlink:title="This file belongs in section: MakeBC. ">
<polygon fill="#ffffff" stroke="#000000" points="291.5,-.5 291.5,-19.5 351.5,-19.5 351.5,-.5 291.5,-.5"/>
<text text-anchor="middle" x="321.5" y="-7.5" font-family="Helvetica,sans-Serif" font-size="10.00" fill="#000000">intf_area</text>
</a>
</g>
</g>
<!-- Node10&#45;&gt;Node11 -->
<g id="edge14" class="edge">
<title>Node10&#45;&gt;Node11</title>
<path fill="none" stroke="#191970" d="M198.1909,-10C223.6653,-10 255.9529,-10 281.0985,-10"/>
<polygon fill="#191970" stroke="#191970" points="281.3973,-13.5001 291.3972,-10 281.3972,-6.5001 281.3973,-13.5001"/>
</g>
</g>
</svg>
        <g id="navigator" transform="translate(0 0)" fill="#404254">
                <rect fill="#f2f5e9" fill-opacity="0.5" stroke="#606060" stroke-width=".5" x="0" y="0" width="60" height="60"/>
                <use id="zoomplus" xlink:href="#zoomPlus" x="17" y="9" onmousedown="handleZoom(evt,'in')"/>
                <use id="zoomminus" xlink:href="#zoomMin" x="42" y="9" onmousedown="handleZoom(evt,'out')"/>
                <use id="reset" xlink:href="#resetDef" x="30" y="36" onmousedown="handleReset()"/>
                <g id="arrowUp" xlink:href="#dirArrow" transform="translate(30 24)" onmousedown="handlePan(0,-1)">
                  <use xlink:href="#rim" fill="#404040">
                        <set attributeName="fill" to="#808080" begin="arrowUp.mouseover" end="arrowUp.mouseout"/>
                  </use>
                  <path fill="none" stroke="white" stroke-width="1.5" d="M0,-3.0v7 M-2.5,-0.5L0,-3.0L2.5,-0.5"/>
                </g>
                <g id="arrowRight" xlink:href="#dirArrow" transform="rotate(90) translate(36 -43)" onmousedown="handlePan(1,0)">
                  <use xlink:href="#rim" fill="#404040">
                        <set attributeName="fill" to="#808080" begin="arrowRight.mouseover" end="arrowRight.mouseout"/>
                  </use>
                  <path fill="none" stroke="white" stroke-width="1.5" d="M0,-3.0v7 M-2.5,-0.5L0,-3.0L2.5,-0.5"/>
                </g>
                <g id="arrowDown" xlink:href="#dirArrow" transform="rotate(180) translate(-30 -48)" onmousedown="handlePan(0,1)">
                  <use xlink:href="#rim" fill="#404040">
                        <set attributeName="fill" to="#808080" begin="arrowDown.mouseover" end="arrowDown.mouseout"/>
                  </use>
                  <path fill="none" stroke="white" stroke-width="1.5" d="M0,-3.0v7 M-2.5,-0.5L0,-3.0L2.5,-0.5"/>
                </g>
                <g id="arrowLeft" xlink:href="#dirArrow" transform="rotate(270) translate(-36 17)" onmousedown="handlePan(-1,0)">
                  <use xlink:href="#rim" fill="#404040">
                        <set attributeName="fill" to="#808080" begin="arrowLeft.mouseover" end="arrowLeft.mouseout"/>
                  </use>
                  <path fill="none" stroke="white" stroke-width="1.5" d="M0,-3.0v7 M-2.5,-0.5L0,-3.0L2.5,-0.5"/>
                </g>
        </g>
        <svg viewBox="0 0 15 15" width="100%" height="30px" preserveAspectRatio="xMaxYMin meet">
         <g id="arrow_out" transform="scale(0.3 0.3)">
          <a xlink:href="intf__ctl_8f90_a73f990fc65099bddc0d425a04cb20a43_cgraph_org.svg" target="_base">
           <rect id="button" ry="5" rx="5" y="6" x="6" height="38" width="38"
                fill="#f2f5e9" fill-opacity="0.5" stroke="#606060" stroke-width="1.0"/>
           <path id="arrow"
             d="M 11.500037,31.436501 C 11.940474,20.09759 22.043105,11.32322 32.158766,21.979434 L 37.068811,17.246167 C 37.068811,17.246167 37.088388,32 37.088388,32 L 22.160133,31.978069 C 22.160133,31.978069 26.997745,27.140456 26.997745,27.140456 C 18.528582,18.264221 13.291696,25.230495 11.500037,31.436501 z"
             style="fill:#404040;"/>
          </a>
         </g>
        </svg>
</svg>
