<?xml version="1.0" encoding="UTF-8" standalone="no"?>
<!DOCTYPE svg PUBLIC "-//W3C//DTD SVG 1.1//EN"
 "http://www.w3.org/Graphics/SVG/1.1/DTD/svg11.dtd">
<!-- Generated by graphviz version 2.40.1 (20161225.0304)
 -->
<!-- Title: kmkhz_9b Pages: 1 -->
<svg width="1257pt" height="405pt"
 viewBox="0.00 0.00 1257.00 404.79" xmlns="http://www.w3.org/2000/svg" xmlns:xlink="http://www.w3.org/1999/xlink">
<g id="graph0" class="graph" transform="scale(1 1) rotate(0) translate(4 400.7924)">
<title>kmkhz_9b</title>
<polygon fill="#ffffff" stroke="transparent" points="-4,4 -4,-400.7924 1253,-400.7924 1253,4 -4,4"/>
<!-- Node0 -->
<g id="node1" class="node">
<title>Node0</title>
<polygon fill="#bfbfbf" stroke="#000000" points="0,-339.2924 0,-358.2924 67,-358.2924 67,-339.2924 0,-339.2924"/>
<text text-anchor="middle" x="33.5" y="-346.2924" font-family="Helvetica,sans-Serif" font-size="10.00" fill="#000000">kmkhz_9b</text>
</g>
<!-- Node1 -->
<g id="node2" class="node">
<title>Node1</title>
<g id="a_node2"><a xlink:href="qsat__mix_8f90.xhtml#ab2c9bd03497c107afdc2ea71e3887626" target="_top" xlink:title="Saturation Specific Humidity/mixing Scheme(Qsat):Vapour to Liquid/Ice. ">
<polygon fill="#ffffff" stroke="#000000" points="106.5,-377.2924 106.5,-396.2924 168.5,-396.2924 168.5,-377.2924 106.5,-377.2924"/>
<text text-anchor="middle" x="137.5" y="-384.2924" font-family="Helvetica,sans-Serif" font-size="10.00" fill="#000000">qsat_mix</text>
</a>
</g>
</g>
<!-- Node0&#45;&gt;Node1 -->
<g id="edge1" class="edge">
<title>Node0&#45;&gt;Node1</title>
<path fill="none" stroke="#191970" d="M59.7436,-358.3814C72.43,-363.0168 87.8527,-368.652 101.6072,-373.6777"/>
<polygon fill="#191970" stroke="#191970" points="100.671,-377.0619 111.2648,-377.2064 103.0733,-370.487 100.671,-377.0619"/>
</g>
<!-- Node2 -->
<g id="node3" class="node">
<title>Node2</title>
<g id="a_node3"><a xlink:href="excf__nl__9b_8f90.xhtml#a98d2721aeba19afeadc48072fe3b530a" target="_top" xlink:title="SUBROUTINE EXCF_NL!&gt; Purpose: To calculate non&#45;local exchange coefficients for. ">
<polygon fill="#ffffff" stroke="#000000" points="103,-339.2924 103,-358.2924 172,-358.2924 172,-339.2924 103,-339.2924"/>
<text text-anchor="middle" x="137.5" y="-346.2924" font-family="Helvetica,sans-Serif" font-size="10.00" fill="#000000">excf_nl_9b</text>
</a>
</g>
</g>
<!-- Node0&#45;&gt;Node2 -->
<g id="edge2" class="edge">
<title>Node0&#45;&gt;Node2</title>
<path fill="none" stroke="#191970" d="M67.2658,-348.7924C75.3618,-348.7924 84.133,-348.7924 92.6439,-348.7924"/>
<polygon fill="#191970" stroke="#191970" points="92.8334,-352.2925 102.8334,-348.7924 92.8333,-345.2925 92.8334,-352.2925"/>
</g>
<!-- Node5 -->
<g id="node6" class="node">
<title>Node5</title>
<g id="a_node6"><a xlink:href="scmoutput_8f90.xhtml#a1ebaa1ca3d36d0fc74ab3a09f13c6d78" target="_top" xlink:title="Create a SCM output diagnostic. ">
<polygon fill="#ffffff" stroke="#000000" points="103.5,-263.2924 103.5,-282.2924 171.5,-282.2924 171.5,-263.2924 103.5,-263.2924"/>
<text text-anchor="middle" x="137.5" y="-270.2924" font-family="Helvetica,sans-Serif" font-size="10.00" fill="#000000">scmoutput</text>
</a>
</g>
</g>
<!-- Node0&#45;&gt;Node5 -->
<g id="edge5" class="edge">
<title>Node0&#45;&gt;Node5</title>
<path fill="none" stroke="#191970" d="M46.6717,-339.1669C64.1759,-326.3753 95.318,-303.6176 116.1891,-288.3657"/>
<polygon fill="#191970" stroke="#191970" points="118.4264,-291.0657 124.4353,-282.3397 114.2963,-285.414 118.4264,-291.0657"/>
</g>
<!-- Node3 -->
<g id="node4" class="node">
<title>Node3</title>
<g id="a_node4"><a xlink:href="excfnl__cci_8f90.xhtml#a37457c1787778def68bcad2c365f1f3d" target="_top" xlink:title="SUBROUTINE EXCFNL_CCI SUBROUTINE EXCFNL_CCI. ">
<polygon fill="#ffffff" stroke="#000000" points="245,-377.2924 245,-396.2924 310,-396.2924 310,-377.2924 245,-377.2924"/>
<text text-anchor="middle" x="277.5" y="-384.2924" font-family="Helvetica,sans-Serif" font-size="10.00" fill="#000000">excfnl_cci</text>
</a>
</g>
</g>
<!-- Node2&#45;&gt;Node3 -->
<g id="edge3" class="edge">
<title>Node2&#45;&gt;Node3</title>
<path fill="none" stroke="#191970" d="M172.1068,-358.1856C191.0866,-363.3373 214.7775,-369.7677 234.8879,-375.2262"/>
<polygon fill="#191970" stroke="#191970" points="234.1666,-378.657 244.7342,-377.8988 236.0003,-371.9014 234.1666,-378.657"/>
</g>
<!-- Node4 -->
<g id="node5" class="node">
<title>Node4</title>
<g id="a_node5"><a xlink:href="excfnl__compin_8f90.xhtml#a500e24e386880031eb94dbb797be46d8" target="_top" xlink:title="SUBROUTINE EXCFNL_COMPIN SUBROUTINE EXCFNL_COMPIN. ">
<polygon fill="#ffffff" stroke="#000000" points="233.5,-339.2924 233.5,-358.2924 321.5,-358.2924 321.5,-339.2924 233.5,-339.2924"/>
<text text-anchor="middle" x="277.5" y="-346.2924" font-family="Helvetica,sans-Serif" font-size="10.00" fill="#000000">excfnl_compin</text>
</a>
</g>
</g>
<!-- Node2&#45;&gt;Node4 -->
<g id="edge4" class="edge">
<title>Node2&#45;&gt;Node4</title>
<path fill="none" stroke="#191970" d="M172.1068,-348.7924C187.4625,-348.7924 205.9018,-348.7924 223.0339,-348.7924"/>
<polygon fill="#191970" stroke="#191970" points="223.4928,-352.2925 233.4928,-348.7924 223.4928,-345.2925 223.4928,-352.2925"/>
</g>
<!-- Node6 -->
<g id="node7" class="node">
<title>Node6</title>
<g id="a_node7"><a xlink:href="namespaces__scmop__mod.xhtml#aed5d8df9d253718e6f8ed9b708bdd0da" target="_top" xlink:title="s_scmop_mod::stepnmbr">
<polygon fill="#ffffff" stroke="#000000" points="208,-225.2924 208,-244.2924 347,-244.2924 347,-225.2924 208,-225.2924"/>
<text text-anchor="middle" x="277.5" y="-232.2924" font-family="Helvetica,sans-Serif" font-size="10.00" fill="#000000">s_scmop_mod::stepnmbr</text>
</a>
</g>
</g>
<!-- Node5&#45;&gt;Node6 -->
<g id="edge6" class="edge">
<title>Node5&#45;&gt;Node6</title>
<path fill="none" stroke="#191970" d="M171.7479,-263.4965C190.0301,-258.5342 212.7599,-252.3647 232.4565,-247.0185"/>
<polygon fill="#191970" stroke="#191970" points="233.4099,-250.3864 242.1438,-244.389 231.5762,-243.6308 233.4099,-250.3864"/>
</g>
<!-- Node7 -->
<g id="node8" class="node">
<title>Node7</title>
<g id="a_node8"><a xlink:href="namespaceumprintmgr.xhtml#aae44897e556705dbf5e945a26538be9a" target="_top" xlink:title="umprintmgr::umprint">
<polygon fill="#ffffff" stroke="#000000" points="749,-225.2924 749,-244.2924 868,-244.2924 868,-225.2924 749,-225.2924"/>
<text text-anchor="middle" x="808.5" y="-232.2924" font-family="Helvetica,sans-Serif" font-size="10.00" fill="#000000">umprintmgr::umprint</text>
</a>
</g>
</g>
<!-- Node5&#45;&gt;Node7 -->
<g id="edge7" class="edge">
<title>Node5&#45;&gt;Node7</title>
<path fill="none" stroke="#191970" d="M171.6975,-270.8557C276.6966,-264.9094 595.9362,-246.8303 738.4751,-238.758"/>
<polygon fill="#191970" stroke="#191970" points="739.052,-242.231 748.8381,-238.1711 738.6562,-235.2422 739.052,-242.231"/>
</g>
<!-- Node11 -->
<g id="node12" class="node">
<title>Node11</title>
<g id="a_node12"><a xlink:href="getdistinctdiags_8f90.xhtml#ae19d30f8fc794efdb49886f1952c090f" target="_top" xlink:title="Obtain indices of diagnostic entries in SCMop given SCMoutput inputs. ">
<polygon fill="#ffffff" stroke="#000000" points="230,-130.2924 230,-149.2924 325,-149.2924 325,-130.2924 230,-130.2924"/>
<text text-anchor="middle" x="277.5" y="-137.2924" font-family="Helvetica,sans-Serif" font-size="10.00" fill="#000000">getdistinctdiags</text>
</a>
</g>
</g>
<!-- Node5&#45;&gt;Node11 -->
<g id="edge12" class="edge">
<title>Node5&#45;&gt;Node11</title>
<path fill="none" stroke="#191970" d="M147.5685,-263.2273C171.065,-240.9056 229.7779,-185.1283 259.5642,-156.8314"/>
<polygon fill="#191970" stroke="#191970" points="262.3057,-159.0546 267.1451,-149.6296 257.4844,-153.9796 262.3057,-159.0546"/>
</g>
<!-- Node18 -->
<g id="node19" class="node">
<title>Node18</title>
<g id="a_node19"><a xlink:href="add2dump_8f90.xhtml#a9ef6bd2348ed8547ea4a98403bc63c63" target="_top" xlink:title="Update the dump array of a SCM diagnostic entry in SCMop. ">
<polygon fill="#ffffff" stroke="#000000" points="420.5,-301.2924 420.5,-320.2924 488.5,-320.2924 488.5,-301.2924 420.5,-301.2924"/>
<text text-anchor="middle" x="454.5" y="-308.2924" font-family="Helvetica,sans-Serif" font-size="10.00" fill="#000000">add2dump</text>
</a>
</g>
</g>
<!-- Node5&#45;&gt;Node18 -->
<g id="edge26" class="edge">
<title>Node5&#45;&gt;Node18</title>
<path fill="none" stroke="#191970" d="M171.8054,-280.3128C183.2721,-282.6371 196.149,-285.0431 208,-286.7924 278.4887,-297.1967 361.0084,-304.1877 410.4474,-307.8247"/>
<polygon fill="#191970" stroke="#191970" points="410.2524,-311.3197 420.4788,-308.55 410.7572,-304.3379 410.2524,-311.3197"/>
</g>
<!-- Node8 -->
<g id="node9" class="node">
<title>Node8</title>
<g id="a_node9"><a xlink:href="namespaceumprintmgr.xhtml#a088ce22a18d574e9df7ee1850bfb10c7" target="_top" xlink:title="umprintmgr::umprintopenstream">
<polygon fill="#ffffff" stroke="#000000" points="908,-225.2924 908,-244.2924 1085,-244.2924 1085,-225.2924 908,-225.2924"/>
<text text-anchor="middle" x="996.5" y="-232.2924" font-family="Helvetica,sans-Serif" font-size="10.00" fill="#000000">umprintmgr::umprintopenstream</text>
</a>
</g>
</g>
<!-- Node7&#45;&gt;Node8 -->
<g id="edge8" class="edge">
<title>Node7&#45;&gt;Node8</title>
<path fill="none" stroke="#191970" d="M868.2427,-228.4577C877.6774,-228.2189 887.6455,-228.0831 897.687,-228.0502"/>
<polygon fill="#191970" stroke="#191970" points="897.7354,-231.5501 907.7359,-228.0517 897.7365,-224.5501 897.7354,-231.5501"/>
</g>
<!-- Node9 -->
<g id="node10" class="node">
<title>Node9</title>
<g id="a_node10"><a xlink:href="namespaceumprintmgr.xhtml#ad3a290b30a6e25500eabc0bf90330b77" target="_top" xlink:title="umprintmgr::umprintflush">
<polygon fill="#ffffff" stroke="#000000" points="925.5,-187.2924 925.5,-206.2924 1067.5,-206.2924 1067.5,-187.2924 925.5,-187.2924"/>
<text text-anchor="middle" x="996.5" y="-194.2924" font-family="Helvetica,sans-Serif" font-size="10.00" fill="#000000">umprintmgr::umprintflush</text>
</a>
</g>
</g>
<!-- Node7&#45;&gt;Node9 -->
<g id="edge10" class="edge">
<title>Node7&#45;&gt;Node9</title>
<path fill="none" stroke="#191970" d="M855.9403,-225.2034C881.3077,-220.0759 912.7274,-213.7251 939.4232,-208.3292"/>
<polygon fill="#191970" stroke="#191970" points="940.2925,-211.7243 949.4008,-206.3124 938.9056,-204.8631 940.2925,-211.7243"/>
</g>
<!-- Node8&#45;&gt;Node7 -->
<g id="edge9" class="edge">
<title>Node8&#45;&gt;Node7</title>
<path fill="none" stroke="#191970" d="M907.7359,-241.5331C897.9057,-241.5681 887.9989,-241.5044 878.4473,-241.342"/>
<polygon fill="#191970" stroke="#191970" points="878.3142,-237.8385 868.2427,-241.1271 878.1667,-244.837 878.3142,-237.8385"/>
</g>
<!-- Node10 -->
<g id="node11" class="node">
<title>Node10</title>
<g id="a_node11"><a xlink:href="namespaceumflush__mod.xhtml#a3a003ab59990bdcb712b443dd5e0d1cd" target="_top" xlink:title="umflush_mod::umflush">
<polygon fill="#ffffff" stroke="#000000" points="1121,-187.2924 1121,-206.2924 1249,-206.2924 1249,-187.2924 1121,-187.2924"/>
<text text-anchor="middle" x="1185" y="-194.2924" font-family="Helvetica,sans-Serif" font-size="10.00" fill="#000000">umflush_mod::umflush</text>
</a>
</g>
</g>
<!-- Node9&#45;&gt;Node10 -->
<g id="edge11" class="edge">
<title>Node9&#45;&gt;Node10</title>
<path fill="none" stroke="#191970" d="M1067.7638,-196.7924C1081.7742,-196.7924 1096.5063,-196.7924 1110.6162,-196.7924"/>
<polygon fill="#191970" stroke="#191970" points="1110.7612,-200.2925 1120.7611,-196.7924 1110.7611,-193.2925 1110.7612,-200.2925"/>
</g>
<!-- Node11&#45;&gt;Node7 -->
<g id="edge19" class="edge">
<title>Node11&#45;&gt;Node7</title>
<path fill="none" stroke="#191970" d="M296.8667,-149.3806C317.6815,-159.3235 351.9666,-174.6661 383,-183.7924 504.7466,-219.5953 653.1487,-230.3291 738.6405,-233.5059"/>
<polygon fill="#191970" stroke="#191970" points="738.633,-237.0076 748.7485,-233.857 738.8761,-230.0119 738.633,-237.0076"/>
</g>
<!-- Node12 -->
<g id="node13" class="node">
<title>Node12</title>
<g id="a_node13"><a xlink:href="namespaces__scmop__mod.xhtml#a38fce513317cc68592785da1765674f9" target="_top" xlink:title="s_scmop_mod::stream">
<polygon fill="#ffffff" stroke="#000000" points="745,-35.2924 745,-54.2924 872,-54.2924 872,-35.2924 745,-35.2924"/>
<text text-anchor="middle" x="808.5" y="-42.2924" font-family="Helvetica,sans-Serif" font-size="10.00" fill="#000000">s_scmop_mod::stream</text>
</a>
</g>
</g>
<!-- Node11&#45;&gt;Node12 -->
<g id="edge13" class="edge">
<title>Node11&#45;&gt;Node12</title>
<path fill="none" stroke="#191970" d="M283.1033,-130.1506C296.774,-107.703 334.3134,-52.2327 383,-30.7924 513.9295,26.8655 690.1173,-10.6694 768.2754,-32.4096"/>
<polygon fill="#191970" stroke="#191970" points="767.6209,-35.8623 778.197,-35.2324 769.5364,-29.1295 767.6209,-35.8623"/>
</g>
<!-- Node13 -->
<g id="node14" class="node">
<title>Node13</title>
<g id="a_node14"><a xlink:href="namespaces__scmop__mod.xhtml#a5bda18f0a188e3401cfc9addee6bc4e9" target="_top" xlink:title="s_scmop_mod::streamison">
<polygon fill="#ffffff" stroke="#000000" points="562,-35.2924 562,-54.2924 709,-54.2924 709,-35.2924 562,-35.2924"/>
<text text-anchor="middle" x="635.5" y="-42.2924" font-family="Helvetica,sans-Serif" font-size="10.00" fill="#000000">s_scmop_mod::streamison</text>
</a>
</g>
</g>
<!-- Node11&#45;&gt;Node13 -->
<g id="edge14" class="edge">
<title>Node11&#45;&gt;Node13</title>
<path fill="none" stroke="#191970" d="M313.4655,-130.2484C379.0029,-112.8572 517.7439,-76.0405 589.8419,-56.9083"/>
<polygon fill="#191970" stroke="#191970" points="590.7906,-60.2778 599.5584,-54.33 588.9952,-53.512 590.7906,-60.2778"/>
</g>
<!-- Node14 -->
<g id="node15" class="node">
<title>Node14</title>
<g id="a_node15"><a xlink:href="namespaces__scmop__mod.xhtml#a0aff366ad97d283dfca70868566ddaf1" target="_top" xlink:title="s_scmop_mod::notwritten">
<polygon fill="#ffffff" stroke="#000000" points="383,-40.2924 383,-59.2924 526,-59.2924 526,-40.2924 383,-40.2924"/>
<text text-anchor="middle" x="454.5" y="-47.2924" font-family="Helvetica,sans-Serif" font-size="10.00" fill="#000000">s_scmop_mod::notwritten</text>
</a>
</g>
</g>
<!-- Node11&#45;&gt;Node14 -->
<g id="edge16" class="edge">
<title>Node11&#45;&gt;Node14</title>
<path fill="none" stroke="#191970" d="M294.503,-130.1773C315.2111,-118.5672 351.3489,-98.6271 383,-82.7924 396.1533,-76.2119 410.8781,-69.3345 423.5309,-63.5718"/>
<polygon fill="#191970" stroke="#191970" points="425.0732,-66.7156 432.7423,-59.4057 422.1885,-60.3376 425.0732,-66.7156"/>
</g>
<!-- Node15 -->
<g id="node16" class="node">
<title>Node15</title>
<g id="a_node16"><a xlink:href="namespaces__scmop__mod.xhtml#ab687d11e6f6da6a26dc6ae65b1ce467f" target="_top" xlink:title="s_scmop_mod::donotwrite">
<polygon fill="#ffffff" stroke="#000000" points="563,-187.2924 563,-206.2924 708,-206.2924 708,-187.2924 563,-187.2924"/>
<text text-anchor="middle" x="635.5" y="-194.2924" font-family="Helvetica,sans-Serif" font-size="10.00" fill="#000000">s_scmop_mod::donotwrite</text>
</a>
</g>
</g>
<!-- Node11&#45;&gt;Node15 -->
<g id="edge18" class="edge">
<title>Node11&#45;&gt;Node15</title>
<path fill="none" stroke="#191970" d="M325.2414,-148.691C343.3153,-151.9807 364.0876,-155.6669 383,-158.7924 441.8199,-168.5129 508.5232,-178.5074 558.5943,-185.8055"/>
<polygon fill="#191970" stroke="#191970" points="558.2986,-189.2992 568.6982,-187.2744 559.3058,-182.372 558.2986,-189.2992"/>
</g>
<!-- Node16 -->
<g id="node17" class="node">
<title>Node16</title>
<g id="a_node17"><a xlink:href="newdiag_8f90.xhtml#ac4a0c6e99f87ae6a0d34479ccaa09d6c" target="_top" xlink:title="Create a new SCM diagnostic entry in SCMop. ">
<polygon fill="#ffffff" stroke="#000000" points="425.5,-130.2924 425.5,-149.2924 483.5,-149.2924 483.5,-130.2924 425.5,-130.2924"/>
<text text-anchor="middle" x="454.5" y="-137.2924" font-family="Helvetica,sans-Serif" font-size="10.00" fill="#000000">newdiag</text>
</a>
</g>
</g>
<!-- Node11&#45;&gt;Node16 -->
<g id="edge20" class="edge">
<title>Node11&#45;&gt;Node16</title>
<path fill="none" stroke="#191970" d="M325.3987,-139.7924C353.5984,-139.7924 388.8199,-139.7924 415.347,-139.7924"/>
<polygon fill="#191970" stroke="#191970" points="415.4146,-143.2925 425.4146,-139.7924 415.4145,-136.2925 415.4146,-143.2925"/>
</g>
<!-- Node13&#45;&gt;Node12 -->
<g id="edge15" class="edge">
<title>Node13&#45;&gt;Node12</title>
<path fill="none" stroke="#191970" d="M709.1184,-44.7924C717.5527,-44.7924 726.154,-44.7924 734.592,-44.7924"/>
<polygon fill="#191970" stroke="#191970" points="734.7813,-48.2925 744.7813,-44.7924 734.7813,-41.2925 734.7813,-48.2925"/>
</g>
<!-- Node14&#45;&gt;Node13 -->
<g id="edge17" class="edge">
<title>Node14&#45;&gt;Node13</title>
<path fill="none" stroke="#191970" d="M526.036,-47.8162C534.4877,-47.5828 543.1703,-47.3429 551.771,-47.1053"/>
<polygon fill="#191970" stroke="#191970" points="551.9115,-50.6029 561.811,-46.828 551.7182,-43.6055 551.9115,-50.6029"/>
</g>
<!-- Node16&#45;&gt;Node7 -->
<g id="edge23" class="edge">
<title>Node16&#45;&gt;Node7</title>
<path fill="none" stroke="#191970" d="M483.6752,-133.0149C532.3961,-123.1494 632.5097,-109.1406 709,-139.7924 747.752,-155.3213 779.9728,-193.9345 796.5145,-216.8682"/>
<polygon fill="#191970" stroke="#191970" points="793.6559,-218.8878 802.2517,-225.0815 799.3945,-214.8792 793.6559,-218.8878"/>
</g>
<!-- Node16&#45;&gt;Node12 -->
<g id="edge21" class="edge">
<title>Node16&#45;&gt;Node12</title>
<path fill="none" stroke="#191970" d="M483.5814,-130.4214C505.143,-123.582 535.2978,-114.2436 562,-106.7924 629.4011,-87.9841 707.8829,-68.6875 757.8561,-56.7242"/>
<polygon fill="#191970" stroke="#191970" points="758.8517,-60.085 767.7657,-54.3586 757.2263,-53.2763 758.8517,-60.085"/>
</g>
<!-- Node16&#45;&gt;Node15 -->
<g id="edge22" class="edge">
<title>Node16&#45;&gt;Node15</title>
<path fill="none" stroke="#191970" d="M479.4911,-149.3207C501.1487,-157.4106 533.4128,-169.0628 562,-177.7924 569.7966,-180.1732 578.1162,-182.5126 586.2511,-184.6918"/>
<polygon fill="#191970" stroke="#191970" points="585.4734,-188.1062 596.0346,-187.2623 587.2523,-181.336 585.4734,-188.1062"/>
</g>
<!-- Node17 -->
<g id="node18" class="node">
<title>Node17</title>
<g id="a_node18"><a xlink:href="expand__scmop_8f90.xhtml#a44c4ca2bbc673edd7221e3044d985bee" target="_top" xlink:title="Increase the size of the SCM diagnostic arrays in SCMop. ">
<polygon fill="#ffffff" stroke="#000000" points="590.5,-149.2924 590.5,-168.2924 680.5,-168.2924 680.5,-149.2924 590.5,-149.2924"/>
<text text-anchor="middle" x="635.5" y="-156.2924" font-family="Helvetica,sans-Serif" font-size="10.00" fill="#000000">expand_scmop</text>
</a>
</g>
</g>
<!-- Node16&#45;&gt;Node17 -->
<g id="edge24" class="edge">
<title>Node16&#45;&gt;Node17</title>
<path fill="none" stroke="#191970" d="M483.5808,-142.845C509.5503,-145.5711 548.2955,-149.6383 580.1569,-152.9829"/>
<polygon fill="#191970" stroke="#191970" points="579.9239,-156.4776 590.2347,-154.0408 580.6547,-149.5158 579.9239,-156.4776"/>
</g>
<!-- Node17&#45;&gt;Node7 -->
<g id="edge25" class="edge">
<title>Node17&#45;&gt;Node7</title>
<path fill="none" stroke="#191970" d="M680.429,-168.3716C690.0143,-170.9761 699.9667,-174.1151 709,-177.7924 736.8562,-189.1321 766.4863,-206.9386 786.0955,-219.6302"/>
<polygon fill="#191970" stroke="#191970" points="784.3326,-222.6599 794.6112,-225.2293 788.1783,-216.8109 784.3326,-222.6599"/>
</g>
<!-- Node18&#45;&gt;Node7 -->
<g id="edge27" class="edge">
<title>Node18&#45;&gt;Node7</title>
<path fill="none" stroke="#191970" d="M488.6333,-311.7013C538.2247,-312.1057 632.6142,-309.4039 709,-286.7924 737.0736,-278.4821 766.4589,-262.0211 785.9512,-249.8356"/>
<polygon fill="#191970" stroke="#191970" points="787.8847,-252.7536 794.4234,-244.4171 784.1132,-246.8565 787.8847,-252.7536"/>
</g>
</g>
</svg>
