<?xml version="1.0" encoding="UTF-8" standalone="no"?>
<!DOCTYPE svg PUBLIC "-//W3C//DTD SVG 1.1//EN"
 "http://www.w3.org/Graphics/SVG/1.1/DTD/svg11.dtd">
<!-- Generated by graphviz version 2.40.1 (20161225.0304)
 -->
<!-- Title: lbc_interp_coeffs Pages: 1 -->
<svg width="806pt" height="161pt"
 viewBox="0.00 0.00 806.00 160.85" xmlns="http://www.w3.org/2000/svg" xmlns:xlink="http://www.w3.org/1999/xlink">
<g id="graph0" class="graph" transform="scale(1 1) rotate(0) translate(4 156.854)">
<title>lbc_interp_coeffs</title>
<polygon fill="#ffffff" stroke="transparent" points="-4,4 -4,-156.854 802,-156.854 802,4 -4,4"/>
<!-- Node0 -->
<g id="node1" class="node">
<title>Node0</title>
<polygon fill="#bfbfbf" stroke="#000000" points="0,-66.927 0,-85.927 99,-85.927 99,-66.927 0,-66.927"/>
<text text-anchor="middle" x="49.5" y="-73.927" font-family="Helvetica,sans-Serif" font-size="10.00" fill="#000000">lbc_interp_coeffs</text>
</g>
<!-- Node1 -->
<g id="node2" class="node">
<title>Node1</title>
<g id="a_node2"><a xlink:href="namespaceeqtoll__mod.xhtml#aa7e9a170440dd6cdf13b810ef4e407dd" target="_top" xlink:title="eqtoll_mod::eqtoll">
<polygon fill="#ffffff" stroke="#000000" points="309,-126.927 309,-145.927 414,-145.927 414,-126.927 309,-126.927"/>
<text text-anchor="middle" x="361.5" y="-133.927" font-family="Helvetica,sans-Serif" font-size="10.00" fill="#000000">eqtoll_mod::eqtoll</text>
</a>
</g>
</g>
<!-- Node0&#45;&gt;Node1 -->
<g id="edge1" class="edge">
<title>Node0&#45;&gt;Node1</title>
<path fill="none" stroke="#191970" d="M58.3368,-86.0605C72.701,-100.9231 102.7696,-128.8351 135,-139.427 189.9945,-157.5 256.6315,-153.7973 303.3397,-147.3855"/>
<polygon fill="#191970" stroke="#191970" points="303.8954,-150.8416 313.2871,-145.9379 302.8872,-143.9145 303.8954,-150.8416"/>
</g>
<!-- Node2 -->
<g id="node3" class="node">
<title>Node2</title>
<g id="a_node3"><a xlink:href="namespaceh__int__co__mod.xhtml#a202c0d37507b205533cda630b03f3e02" target="_top" xlink:title="h_int_co_mod::h_int_co">
<polygon fill="#ffffff" stroke="#000000" points="135,-110.927 135,-129.927 266,-129.927 266,-110.927 135,-110.927"/>
<text text-anchor="middle" x="200.5" y="-117.927" font-family="Helvetica,sans-Serif" font-size="10.00" fill="#000000">h_int_co_mod::h_int_co</text>
</a>
</g>
</g>
<!-- Node0&#45;&gt;Node2 -->
<g id="edge2" class="edge">
<title>Node0&#45;&gt;Node2</title>
<path fill="none" stroke="#191970" d="M81.9753,-85.9404C97.9445,-90.614 117.4789,-96.3242 135,-101.427 142.351,-103.5679 150.1675,-105.8395 157.7453,-108.0392"/>
<polygon fill="#191970" stroke="#191970" points="156.9312,-111.4473 167.5105,-110.8724 158.8818,-104.7245 156.9312,-111.4473"/>
</g>
<!-- Node3 -->
<g id="node4" class="node">
<title>Node3</title>
<g id="a_node4"><a xlink:href="namespacelltoeq__mod.xhtml#a3c9637ba83181ca868444be33867cdaa" target="_top" xlink:title="lltoeq_mod::lltoeq">
<polygon fill="#ffffff" stroke="#000000" points="309,-6.927 309,-25.927 414,-25.927 414,-6.927 309,-6.927"/>
<text text-anchor="middle" x="361.5" y="-13.927" font-family="Helvetica,sans-Serif" font-size="10.00" fill="#000000">lltoeq_mod::lltoeq</text>
</a>
</g>
</g>
<!-- Node0&#45;&gt;Node3 -->
<g id="edge3" class="edge">
<title>Node0&#45;&gt;Node3</title>
<path fill="none" stroke="#191970" d="M58.3368,-66.7935C72.701,-51.9309 102.7696,-24.0189 135,-13.427 189.9945,4.646 256.6315,.9433 303.3397,-5.4685"/>
<polygon fill="#191970" stroke="#191970" points="302.8872,-8.9395 313.2871,-6.9162 303.8954,-2.0124 302.8872,-8.9395"/>
</g>
<!-- Node4 -->
<g id="node5" class="node">
<title>Node4</title>
<g id="a_node5"><a xlink:href="namespacew__coeff__mod.xhtml#a136b5a27ce2a0c71171743cf053a164d" target="_top" xlink:title="w_coeff_mod::w_coeff">
<polygon fill="#ffffff" stroke="#000000" points="138,-22.927 138,-41.927 263,-41.927 263,-22.927 138,-22.927"/>
<text text-anchor="middle" x="200.5" y="-29.927" font-family="Helvetica,sans-Serif" font-size="10.00" fill="#000000">w_coeff_mod::w_coeff</text>
</a>
</g>
</g>
<!-- Node0&#45;&gt;Node4 -->
<g id="edge4" class="edge">
<title>Node0&#45;&gt;Node4</title>
<path fill="none" stroke="#191970" d="M81.9753,-66.9136C97.9445,-62.24 117.4789,-56.5298 135,-51.427 142.351,-49.2861 150.1675,-47.0145 157.7453,-44.8148"/>
<polygon fill="#191970" stroke="#191970" points="158.8818,-48.1295 167.5105,-41.9816 156.9312,-41.4068 158.8818,-48.1295"/>
</g>
<!-- Node5 -->
<g id="node6" class="node">
<title>Node5</title>
<g id="a_node6"><a xlink:href="namespacelam__inclusion__mod.xhtml#ab9c5389c6d9f1ead22257332e1149734" target="_top" xlink:title="This checks that the target grid is within the source grid. Used my makebc and the reconfiguration to...">
<polygon fill="#ffffff" stroke="#000000" points="142,-61.427 142,-91.427 259,-91.427 259,-61.427 142,-61.427"/>
<text text-anchor="start" x="150" y="-79.427" font-family="Helvetica,sans-Serif" font-size="10.00" fill="#000000">lam_inclusion_mod::</text>
<text text-anchor="middle" x="200.5" y="-68.427" font-family="Helvetica,sans-Serif" font-size="10.00" fill="#000000">lam_inclusion</text>
</a>
</g>
</g>
<!-- Node0&#45;&gt;Node5 -->
<g id="edge5" class="edge">
<title>Node0&#45;&gt;Node5</title>
<path fill="none" stroke="#191970" d="M99.3615,-76.427C109.6472,-76.427 120.6533,-76.427 131.4803,-76.427"/>
<polygon fill="#191970" stroke="#191970" points="131.7767,-79.9271 141.7766,-76.427 131.7766,-72.9271 131.7767,-79.9271"/>
</g>
<!-- Node5&#45;&gt;Node1 -->
<g id="edge7" class="edge">
<title>Node5&#45;&gt;Node1</title>
<path fill="none" stroke="#191970" d="M241.1271,-91.5675C267.4431,-101.3748 301.3649,-114.0164 326.4879,-123.379"/>
<polygon fill="#191970" stroke="#191970" points="325.3964,-126.7073 335.9891,-126.9198 327.8409,-120.148 325.3964,-126.7073"/>
</g>
<!-- Node5&#45;&gt;Node3 -->
<g id="edge6" class="edge">
<title>Node5&#45;&gt;Node3</title>
<path fill="none" stroke="#191970" d="M241.1271,-61.2865C267.4431,-51.4793 301.3649,-38.8376 326.4879,-29.475"/>
<polygon fill="#191970" stroke="#191970" points="327.8409,-32.706 335.9891,-25.9342 325.3964,-26.1467 327.8409,-32.706"/>
</g>
<!-- Node6 -->
<g id="node7" class="node">
<title>Node6</title>
<g id="a_node7"><a xlink:href="namespaceumprintmgr.xhtml#aae44897e556705dbf5e945a26538be9a" target="_top" xlink:title="umprintmgr::umprint">
<polygon fill="#ffffff" stroke="#000000" points="302,-66.927 302,-85.927 421,-85.927 421,-66.927 302,-66.927"/>
<text text-anchor="middle" x="361.5" y="-73.927" font-family="Helvetica,sans-Serif" font-size="10.00" fill="#000000">umprintmgr::umprint</text>
</a>
</g>
</g>
<!-- Node5&#45;&gt;Node6 -->
<g id="edge8" class="edge">
<title>Node5&#45;&gt;Node6</title>
<path fill="none" stroke="#191970" d="M259.0801,-76.427C269.641,-76.427 280.7468,-76.427 291.5916,-76.427"/>
<polygon fill="#191970" stroke="#191970" points="291.8829,-79.9271 301.8828,-76.427 291.8828,-72.9271 291.8829,-79.9271"/>
</g>
<!-- Node7 -->
<g id="node8" class="node">
<title>Node7</title>
<g id="a_node8"><a xlink:href="namespaceumprintmgr.xhtml#a088ce22a18d574e9df7ee1850bfb10c7" target="_top" xlink:title="umprintmgr::umprintopenstream">
<polygon fill="#ffffff" stroke="#000000" points="457,-66.927 457,-85.927 634,-85.927 634,-66.927 457,-66.927"/>
<text text-anchor="middle" x="545.5" y="-73.927" font-family="Helvetica,sans-Serif" font-size="10.00" fill="#000000">umprintmgr::umprintopenstream</text>
</a>
</g>
</g>
<!-- Node6&#45;&gt;Node7 -->
<g id="edge9" class="edge">
<title>Node6&#45;&gt;Node7</title>
<path fill="none" stroke="#191970" d="M421.2395,-70.0603C429.4605,-69.8571 438.0751,-69.7347 446.7702,-69.6931"/>
<polygon fill="#191970" stroke="#191970" points="446.9998,-73.1929 456.9958,-69.6813 446.9917,-66.1929 446.9998,-73.1929"/>
</g>
<!-- Node8 -->
<g id="node9" class="node">
<title>Node8</title>
<g id="a_node9"><a xlink:href="namespaceumprintmgr.xhtml#ad3a290b30a6e25500eabc0bf90330b77" target="_top" xlink:title="umprintmgr::umprintflush">
<polygon fill="#ffffff" stroke="#000000" points="474.5,-28.927 474.5,-47.927 616.5,-47.927 616.5,-28.927 474.5,-28.927"/>
<text text-anchor="middle" x="545.5" y="-35.927" font-family="Helvetica,sans-Serif" font-size="10.00" fill="#000000">umprintmgr::umprintflush</text>
</a>
</g>
</g>
<!-- Node6&#45;&gt;Node8 -->
<g id="edge11" class="edge">
<title>Node6&#45;&gt;Node8</title>
<path fill="none" stroke="#191970" d="M407.931,-66.838C432.6493,-61.7331 463.239,-55.4157 489.292,-50.0352"/>
<polygon fill="#191970" stroke="#191970" points="490.3175,-53.3973 499.4029,-47.9471 488.9017,-46.542 490.3175,-53.3973"/>
</g>
<!-- Node7&#45;&gt;Node6 -->
<g id="edge10" class="edge">
<title>Node7&#45;&gt;Node6</title>
<path fill="none" stroke="#191970" d="M456.9958,-83.1727C448.3802,-83.194 439.7236,-83.1364 431.3289,-82.9997"/>
<polygon fill="#191970" stroke="#191970" points="431.3089,-79.4986 421.2395,-82.7938 431.166,-86.4972 431.3089,-79.4986"/>
</g>
<!-- Node9 -->
<g id="node10" class="node">
<title>Node9</title>
<g id="a_node10"><a xlink:href="namespaceumflush__mod.xhtml#a3a003ab59990bdcb712b443dd5e0d1cd" target="_top" xlink:title="umflush_mod::umflush">
<polygon fill="#ffffff" stroke="#000000" points="670,-28.927 670,-47.927 798,-47.927 798,-28.927 670,-28.927"/>
<text text-anchor="middle" x="734" y="-35.927" font-family="Helvetica,sans-Serif" font-size="10.00" fill="#000000">umflush_mod::umflush</text>
</a>
</g>
</g>
<!-- Node8&#45;&gt;Node9 -->
<g id="edge12" class="edge">
<title>Node8&#45;&gt;Node9</title>
<path fill="none" stroke="#191970" d="M616.7638,-38.427C630.7742,-38.427 645.5063,-38.427 659.6162,-38.427"/>
<polygon fill="#191970" stroke="#191970" points="659.7612,-41.9271 669.7611,-38.427 659.7611,-34.9271 659.7612,-41.9271"/>
</g>
</g>
</svg>
