<?xml version="1.0" encoding="UTF-8" standalone="no"?>
<!DOCTYPE svg PUBLIC "-//W3C//DTD SVG 1.1//EN"
 "http://www.w3.org/Graphics/SVG/1.1/DTD/svg11.dtd">
<!-- Generated by graphviz version 2.40.1 (20161225.0304)
 -->
<!-- Title: les_shall_func_thlev Pages: 1 -->
<svg width="1101pt" height="104pt"
 viewBox="0.00 0.00 1101.00 104.00" xmlns="http://www.w3.org/2000/svg" xmlns:xlink="http://www.w3.org/1999/xlink">
<g id="graph0" class="graph" transform="scale(1 1) rotate(0) translate(4 100)">
<title>les_shall_func_thlev</title>
<polygon fill="#ffffff" stroke="transparent" points="-4,4 -4,-100 1097,-100 1097,4 -4,4"/>
<!-- Node1 -->
<g id="node1" class="node">
<title>Node1</title>
<polygon fill="#bfbfbf" stroke="#000000" points="0,-38.5 0,-57.5 116,-57.5 116,-38.5 0,-38.5"/>
<text text-anchor="middle" x="58" y="-45.5" font-family="Helvetica,sans-Serif" font-size="10.00" fill="#000000">les_shall_func_thlev</text>
</g>
<!-- Node2 -->
<g id="node2" class="node">
<title>Node2</title>
<g id="a_node2"><a xlink:href="shallow__turb__conv_8f90.xhtml#afceed689cb598a76afc9f0c2e9f190da" target="_top" xlink:title="Shallow convection scheme &#45; turbulence based version. ">
<polygon fill="#ffffff" stroke="#000000" points="152,-38.5 152,-57.5 259,-57.5 259,-38.5 152,-38.5"/>
<text text-anchor="middle" x="205.5" y="-45.5" font-family="Helvetica,sans-Serif" font-size="10.00" fill="#000000">shallow_turb_conv</text>
</a>
</g>
</g>
<!-- Node1&#45;&gt;Node2 -->
<g id="edge1" class="edge">
<title>Node1&#45;&gt;Node2</title>
<path fill="none" stroke="#191970" d="M126.3175,-48C134.9173,-48 143.6161,-48 151.9428,-48"/>
<polygon fill="#191970" stroke="#191970" points="126.2959,-44.5001 116.2959,-48 126.2959,-51.5001 126.2959,-44.5001"/>
</g>
<!-- Node3 -->
<g id="node3" class="node">
<title>Node3</title>
<g id="a_node3"><a xlink:href="namespaceglue__conv__6a__mod.xhtml#a6d5d1edc7767ff4cca5aa84b5368b646" target="_top" xlink:title="glue_conv_6a_mod::glue\l_conv_6a">
<polygon fill="#ffffff" stroke="#000000" points="295,-58 295,-88 432,-88 432,-58 295,-58"/>
<text text-anchor="start" x="303" y="-76" font-family="Helvetica,sans-Serif" font-size="10.00" fill="#000000">glue_conv_6a_mod::glue</text>
<text text-anchor="middle" x="363.5" y="-65" font-family="Helvetica,sans-Serif" font-size="10.00" fill="#000000">_conv_6a</text>
</a>
</g>
</g>
<!-- Node2&#45;&gt;Node3 -->
<g id="edge2" class="edge">
<title>Node2&#45;&gt;Node3</title>
<path fill="none" stroke="#191970" d="M269.4454,-58.1179C277.7695,-59.435 286.3252,-60.7888 294.724,-62.1177"/>
<polygon fill="#191970" stroke="#191970" points="269.8569,-54.6396 259.4327,-56.5337 268.7628,-61.5536 269.8569,-54.6396"/>
</g>
<!-- Node14 -->
<g id="node14" class="node">
<title>Node14</title>
<g id="a_node14"><a xlink:href="namespaceglue__conv__5a__mod.xhtml#a0a2a4645b74dadcd85116112a3eb1255" target="_top" xlink:title="Gather&#45;scatter routine for deep and shallow convection points. ">
<polygon fill="#ffffff" stroke="#000000" points="295,-9 295,-39 432,-39 432,-9 295,-9"/>
<text text-anchor="start" x="303" y="-27" font-family="Helvetica,sans-Serif" font-size="10.00" fill="#000000">glue_conv_5a_mod::glue</text>
<text text-anchor="middle" x="363.5" y="-16" font-family="Helvetica,sans-Serif" font-size="10.00" fill="#000000">_conv_5a</text>
</a>
</g>
</g>
<!-- Node2&#45;&gt;Node14 -->
<g id="edge14" class="edge">
<title>Node2&#45;&gt;Node14</title>
<path fill="none" stroke="#191970" d="M269.4454,-38.2868C277.7695,-37.0224 286.3252,-35.7228 294.724,-34.447"/>
<polygon fill="#191970" stroke="#191970" points="268.7937,-34.8455 259.4327,-39.8077 269.845,-41.7662 268.7937,-34.8455"/>
</g>
<!-- Node4 -->
<g id="node4" class="node">
<title>Node4</title>
<g id="a_node4"><a xlink:href="ni__conv__ctl_8f90.xhtml#a9923a06c286e88170babe094e612732d" target="_top" xlink:title="Subroutine NI_conv_ctl. ">
<polygon fill="#ffffff" stroke="#000000" points="468,-38.5 468,-57.5 539,-57.5 539,-38.5 468,-38.5"/>
<text text-anchor="middle" x="503.5" y="-45.5" font-family="Helvetica,sans-Serif" font-size="10.00" fill="#000000">ni_conv_ctl</text>
</a>
</g>
</g>
<!-- Node3&#45;&gt;Node4 -->
<g id="edge3" class="edge">
<title>Node3&#45;&gt;Node4</title>
<path fill="none" stroke="#191970" d="M442.347,-58.9202C451.2275,-57.3344 459.9151,-55.783 467.8254,-54.3705"/>
<polygon fill="#191970" stroke="#191970" points="441.4986,-55.5162 432.2696,-60.7197 442.7292,-62.4072 441.4986,-55.5162"/>
</g>
<!-- Node5 -->
<g id="node5" class="node">
<title>Node5</title>
<g id="a_node5"><a xlink:href="atmos__physics2_8f90.xhtml#a0f74e8c75312201121b305cd566b175a" target="_top" xlink:title="Interface to Atmos Physics parametrizations after S&#45;L advection. ">
<polygon fill="#ffffff" stroke="#000000" points="575,-38.5 575,-57.5 670,-57.5 670,-38.5 575,-38.5"/>
<text text-anchor="middle" x="622.5" y="-45.5" font-family="Helvetica,sans-Serif" font-size="10.00" fill="#000000">atmos_physics2</text>
</a>
</g>
</g>
<!-- Node4&#45;&gt;Node5 -->
<g id="edge4" class="edge">
<title>Node4&#45;&gt;Node5</title>
<path fill="none" stroke="#191970" d="M549.2309,-48C557.6494,-48 566.457,-48 574.9283,-48"/>
<polygon fill="#191970" stroke="#191970" points="549.204,-44.5001 539.2039,-48 549.2039,-51.5001 549.204,-44.5001"/>
</g>
<!-- Node6 -->
<g id="node6" class="node">
<title>Node6</title>
<g id="a_node6"><a xlink:href="atm__step_8f90.xhtml#ac0ee2467a1a9959b7065fdb8fd27bce4" target="_top" xlink:title="Perform a 1&#45;timestep integration of the Atmosphere Model. ">
<polygon fill="#ffffff" stroke="#000000" points="715,-76.5 715,-95.5 777,-95.5 777,-76.5 715,-76.5"/>
<text text-anchor="middle" x="746" y="-83.5" font-family="Helvetica,sans-Serif" font-size="10.00" fill="#000000">atm_step</text>
</a>
</g>
</g>
<!-- Node5&#45;&gt;Node6 -->
<g id="edge5" class="edge">
<title>Node5&#45;&gt;Node6</title>
<path fill="none" stroke="#191970" d="M663.2397,-60.5353C680.0405,-65.7048 699.197,-71.5991 714.8457,-76.4141"/>
<polygon fill="#191970" stroke="#191970" points="664.2514,-57.1847 653.6643,-57.589 662.1927,-63.8752 664.2514,-57.1847"/>
</g>
<!-- Node10 -->
<g id="node10" class="node">
<title>Node10</title>
<g id="a_node10"><a xlink:href="atm__step__4_a_8f90.xhtml#a2319aa4963e90c64cd78bdcd5f481095" target="_top" xlink:title="Perform a 1&#45;timestep integration of the Atmosphere Model. ">
<polygon fill="#ffffff" stroke="#000000" points="706,-38.5 706,-57.5 786,-57.5 786,-38.5 706,-38.5"/>
<text text-anchor="middle" x="746" y="-45.5" font-family="Helvetica,sans-Serif" font-size="10.00" fill="#000000">atm_step_4a</text>
</a>
</g>
</g>
<!-- Node5&#45;&gt;Node10 -->
<g id="edge9" class="edge">
<title>Node5&#45;&gt;Node10</title>
<path fill="none" stroke="#191970" d="M680.3434,-48C689.0185,-48 697.7967,-48 705.9897,-48"/>
<polygon fill="#191970" stroke="#191970" points="680.2484,-44.5001 670.2483,-48 680.2483,-51.5001 680.2484,-44.5001"/>
</g>
<!-- Node12 -->
<g id="node12" class="node">
<title>Node12</title>
<g id="a_node12"><a xlink:href="scm__main_8f90.xhtml#a2c730136605550612e094ce51d33a2a5" target="_top" xlink:title="*********************************COPYRIGHT********************************* ">
<polygon fill="#ffffff" stroke="#000000" points="712.5,-.5 712.5,-19.5 779.5,-19.5 779.5,-.5 712.5,-.5"/>
<text text-anchor="middle" x="746" y="-7.5" font-family="Helvetica,sans-Serif" font-size="10.00" fill="#000000">scm_main</text>
</a>
</g>
</g>
<!-- Node5&#45;&gt;Node12 -->
<g id="edge12" class="edge">
<title>Node5&#45;&gt;Node12</title>
<path fill="none" stroke="#191970" d="M663.2397,-35.4647C680.0405,-30.2952 699.197,-24.4009 714.8457,-19.5859"/>
<polygon fill="#191970" stroke="#191970" points="662.1927,-32.1248 653.6643,-38.411 664.2514,-38.8153 662.1927,-32.1248"/>
</g>
<!-- Node7 -->
<g id="node7" class="node">
<title>Node7</title>
<g id="a_node7"><a xlink:href="u__model_8f90.xhtml#ada0cd2ce4699433bf0f9adbd882c8eec" target="_top" xlink:title="Subroutine: U_MODEL &#45;!&gt; ">
<polygon fill="#ffffff" stroke="#000000" points="830.5,-76.5 830.5,-95.5 889.5,-95.5 889.5,-76.5 830.5,-76.5"/>
<text text-anchor="middle" x="860" y="-83.5" font-family="Helvetica,sans-Serif" font-size="10.00" fill="#000000">u_model</text>
</a>
</g>
</g>
<!-- Node6&#45;&gt;Node7 -->
<g id="edge6" class="edge">
<title>Node6&#45;&gt;Node7</title>
<path fill="none" stroke="#191970" d="M787.2532,-86C801.5539,-86 817.2895,-86 830.4568,-86"/>
<polygon fill="#191970" stroke="#191970" points="787.151,-82.5001 777.151,-86 787.151,-89.5001 787.151,-82.5001"/>
</g>
<!-- Node8 -->
<g id="node8" class="node">
<title>Node8</title>
<g id="a_node8"><a xlink:href="um__shell_8f90.xhtml#a8c9bd25362824a5c301376ecb5ed5c27" target="_top" xlink:title="Subroutine: UM_SHELL !&gt; ">
<polygon fill="#ffffff" stroke="#000000" points="934,-57.5 934,-76.5 995,-76.5 995,-57.5 934,-57.5"/>
<text text-anchor="middle" x="964.5" y="-64.5" font-family="Helvetica,sans-Serif" font-size="10.00" fill="#000000">um_shell</text>
</a>
</g>
</g>
<!-- Node7&#45;&gt;Node8 -->
<g id="edge7" class="edge">
<title>Node7&#45;&gt;Node8</title>
<path fill="none" stroke="#191970" d="M899.701,-78.7816C910.951,-76.7362 923.0261,-74.5407 933.6677,-72.6059"/>
<polygon fill="#191970" stroke="#191970" points="898.8786,-75.3737 889.666,-80.6062 900.1308,-82.2608 898.8786,-75.3737"/>
</g>
<!-- Node9 -->
<g id="node9" class="node">
<title>Node9</title>
<g id="a_node9"><a xlink:href="um__main_8f90.xhtml#a8f2d13215621443a5313261c282f098b" target="_top" xlink:title="Code Owner: See Unified Model Code Owner&#39;s HTML page. ">
<polygon fill="#ffffff" stroke="#000000" points="1031,-57.5 1031,-76.5 1093,-76.5 1093,-57.5 1031,-57.5"/>
<text text-anchor="middle" x="1062" y="-64.5" font-family="Helvetica,sans-Serif" font-size="10.00" fill="#000000">um_main</text>
</a>
</g>
</g>
<!-- Node8&#45;&gt;Node9 -->
<g id="edge8" class="edge">
<title>Node8&#45;&gt;Node9</title>
<path fill="none" stroke="#191970" d="M1005.2756,-67C1013.8294,-67 1022.72,-67 1030.8551,-67"/>
<polygon fill="#191970" stroke="#191970" points="1005.0821,-63.5001 995.0821,-67 1005.0821,-70.5001 1005.0821,-63.5001"/>
</g>
<!-- Node11 -->
<g id="node11" class="node">
<title>Node11</title>
<g id="a_node11"><a xlink:href="u__model__4_a_8f90.xhtml#afa05064dab5eba198b461d0928767c7e" target="_top" xlink:title="LL Subroutine: U_MODEL_4A (ENDGAME VERSION) !&gt;LL. ">
<polygon fill="#ffffff" stroke="#000000" points="822,-38.5 822,-57.5 898,-57.5 898,-38.5 822,-38.5"/>
<text text-anchor="middle" x="860" y="-45.5" font-family="Helvetica,sans-Serif" font-size="10.00" fill="#000000">u_model_4a</text>
</a>
</g>
</g>
<!-- Node10&#45;&gt;Node11 -->
<g id="edge10" class="edge">
<title>Node10&#45;&gt;Node11</title>
<path fill="none" stroke="#191970" d="M796.3998,-48C804.891,-48 813.5803,-48 821.7002,-48"/>
<polygon fill="#191970" stroke="#191970" points="796.1922,-44.5001 786.1921,-48 796.1921,-51.5001 796.1922,-44.5001"/>
</g>
<!-- Node11&#45;&gt;Node8 -->
<g id="edge11" class="edge">
<title>Node11&#45;&gt;Node8</title>
<path fill="none" stroke="#191970" d="M907.8728,-56.7041C916.7087,-58.3107 925.7128,-59.9478 933.8647,-61.43"/>
<polygon fill="#191970" stroke="#191970" points="908.4873,-53.2586 898.0225,-54.9132 907.2351,-60.1457 908.4873,-53.2586"/>
</g>
<!-- Node13 -->
<g id="node13" class="node">
<title>Node13</title>
<g id="a_node13"><a xlink:href="scm__shell_8f90.xhtml#ab15255829ee7b5be626b1c0861b40c8d" target="_top" xlink:title="scm_shell is the main calling program for the Single Column Model. ">
<polygon fill="#ffffff" stroke="#000000" points="827.5,-.5 827.5,-19.5 892.5,-19.5 892.5,-.5 827.5,-.5"/>
<text text-anchor="middle" x="860" y="-7.5" font-family="Helvetica,sans-Serif" font-size="10.00" fill="#000000">scm_shell</text>
</a>
</g>
</g>
<!-- Node12&#45;&gt;Node13 -->
<g id="edge13" class="edge">
<title>Node12&#45;&gt;Node13</title>
<path fill="none" stroke="#191970" d="M789.8248,-10C802.3307,-10 815.7319,-10 827.4371,-10"/>
<polygon fill="#191970" stroke="#191970" points="789.5872,-6.5001 779.5872,-10 789.5871,-13.5001 789.5872,-6.5001"/>
</g>
<!-- Node14&#45;&gt;Node4 -->
<g id="edge15" class="edge">
<title>Node14&#45;&gt;Node4</title>
<path fill="none" stroke="#191970" d="M442.347,-37.5166C451.2275,-39.039 459.9151,-40.5283 467.8254,-41.8844"/>
<polygon fill="#191970" stroke="#191970" points="442.7172,-34.0291 432.2696,-35.7891 441.5344,-40.9285 442.7172,-34.0291"/>
</g>
</g>
</svg>
