<?xml version="1.0" encoding="UTF-8" standalone="no"?>
<!DOCTYPE svg PUBLIC "-//W3C//DTD SVG 1.1//EN"
 "http://www.w3.org/Graphics/SVG/1.1/DTD/svg11.dtd">
<!-- Generated by graphviz version 2.40.1 (20161225.0304)
 -->
<!-- Title: levcod Pages: 1 -->
<svg width="589pt" height="66pt"
 viewBox="0.00 0.00 589.00 66.00" xmlns="http://www.w3.org/2000/svg" xmlns:xlink="http://www.w3.org/1999/xlink">
<g id="graph0" class="graph" transform="scale(1 1) rotate(0) translate(4 62)">
<title>levcod</title>
<polygon fill="#ffffff" stroke="transparent" points="-4,4 -4,-62 585,-62 585,4 -4,4"/>
<!-- Node0 -->
<g id="node1" class="node">
<title>Node0</title>
<polygon fill="#bfbfbf" stroke="#000000" points="0,-38.5 0,-57.5 49,-57.5 49,-38.5 0,-38.5"/>
<text text-anchor="middle" x="24.5" y="-45.5" font-family="Helvetica,sans-Serif" font-size="10.00" fill="#000000">levcod</text>
</g>
<!-- Node1 -->
<g id="node2" class="node">
<title>Node1</title>
<g id="a_node2"><a xlink:href="namespaceumprintmgr.xhtml#aae44897e556705dbf5e945a26538be9a" target="_top" xlink:title="umprintmgr::umprint">
<polygon fill="#ffffff" stroke="#000000" points="85,-38.5 85,-57.5 204,-57.5 204,-38.5 85,-38.5"/>
<text text-anchor="middle" x="144.5" y="-45.5" font-family="Helvetica,sans-Serif" font-size="10.00" fill="#000000">umprintmgr::umprint</text>
</a>
</g>
</g>
<!-- Node0&#45;&gt;Node1 -->
<g id="edge1" class="edge">
<title>Node0&#45;&gt;Node1</title>
<path fill="none" stroke="#191970" d="M49.0734,-48C56.7274,-48 65.5798,-48 74.7443,-48"/>
<polygon fill="#191970" stroke="#191970" points="74.7692,-51.5001 84.7692,-48 74.7691,-44.5001 74.7692,-51.5001"/>
</g>
<!-- Node2 -->
<g id="node3" class="node">
<title>Node2</title>
<g id="a_node3"><a xlink:href="namespaceumprintmgr.xhtml#a088ce22a18d574e9df7ee1850bfb10c7" target="_top" xlink:title="umprintmgr::umprintopenstream">
<polygon fill="#ffffff" stroke="#000000" points="240,-38.5 240,-57.5 417,-57.5 417,-38.5 240,-38.5"/>
<text text-anchor="middle" x="328.5" y="-45.5" font-family="Helvetica,sans-Serif" font-size="10.00" fill="#000000">umprintmgr::umprintopenstream</text>
</a>
</g>
</g>
<!-- Node1&#45;&gt;Node2 -->
<g id="edge2" class="edge">
<title>Node1&#45;&gt;Node2</title>
<path fill="none" stroke="#191970" d="M204.2395,-41.6333C212.4605,-41.4301 221.0751,-41.3077 229.7702,-41.2661"/>
<polygon fill="#191970" stroke="#191970" points="229.9998,-44.7659 239.9958,-41.2543 229.9917,-37.7659 229.9998,-44.7659"/>
</g>
<!-- Node3 -->
<g id="node4" class="node">
<title>Node3</title>
<g id="a_node4"><a xlink:href="namespaceumprintmgr.xhtml#ad3a290b30a6e25500eabc0bf90330b77" target="_top" xlink:title="umprintmgr::umprintflush">
<polygon fill="#ffffff" stroke="#000000" points="257.5,-.5 257.5,-19.5 399.5,-19.5 399.5,-.5 257.5,-.5"/>
<text text-anchor="middle" x="328.5" y="-7.5" font-family="Helvetica,sans-Serif" font-size="10.00" fill="#000000">umprintmgr::umprintflush</text>
</a>
</g>
</g>
<!-- Node1&#45;&gt;Node3 -->
<g id="edge4" class="edge">
<title>Node1&#45;&gt;Node3</title>
<path fill="none" stroke="#191970" d="M190.931,-38.411C215.6493,-33.3061 246.239,-26.9887 272.292,-21.6082"/>
<polygon fill="#191970" stroke="#191970" points="273.3175,-24.9703 282.4029,-19.5201 271.9017,-18.115 273.3175,-24.9703"/>
</g>
<!-- Node2&#45;&gt;Node1 -->
<g id="edge3" class="edge">
<title>Node2&#45;&gt;Node1</title>
<path fill="none" stroke="#191970" d="M239.9958,-54.7457C231.3802,-54.767 222.7236,-54.7094 214.3289,-54.5727"/>
<polygon fill="#191970" stroke="#191970" points="214.3089,-51.0716 204.2395,-54.3667 214.166,-58.0702 214.3089,-51.0716"/>
</g>
<!-- Node4 -->
<g id="node5" class="node">
<title>Node4</title>
<g id="a_node5"><a xlink:href="namespaceumflush__mod.xhtml#a3a003ab59990bdcb712b443dd5e0d1cd" target="_top" xlink:title="umflush_mod::umflush">
<polygon fill="#ffffff" stroke="#000000" points="453,-.5 453,-19.5 581,-19.5 581,-.5 453,-.5"/>
<text text-anchor="middle" x="517" y="-7.5" font-family="Helvetica,sans-Serif" font-size="10.00" fill="#000000">umflush_mod::umflush</text>
</a>
</g>
</g>
<!-- Node3&#45;&gt;Node4 -->
<g id="edge5" class="edge">
<title>Node3&#45;&gt;Node4</title>
<path fill="none" stroke="#191970" d="M399.7638,-10C413.7742,-10 428.5063,-10 442.6162,-10"/>
<polygon fill="#191970" stroke="#191970" points="442.7612,-13.5001 452.7611,-10 442.7611,-6.5001 442.7612,-13.5001"/>
</g>
</g>
</svg>
