<?xml version="1.0" encoding="UTF-8" standalone="no"?>
<!DOCTYPE svg PUBLIC "-//W3C//DTD SVG 1.1//EN"
 "http://www.w3.org/Graphics/SVG/1.1/DTD/svg11.dtd">
<!-- Generated by graphviz version 2.40.1 (20161225.0304)
 -->
<!-- Title: logical_to_real_fieldcos Pages: 1 -->
<!--zoomable 66 -->
<svg id="main" version="1.1" xmlns="http://www.w3.org/2000/svg" xmlns:xlink="http://www.w3.org/1999/xlink" xml:space="preserve" onload="init(evt)">
<style type="text/css"><![CDATA[
.edge:hover path { stroke: red; }
.edge:hover polygon { stroke: red; fill: red; }
]]></style>
<script type="text/javascript"><![CDATA[
var edges = document.getElementsByTagName('g');
if (edges && edges.length) {
  for (var i=0;i<edges.length;i++) {
    if (edges[i].id.substr(0,4)=='edge') {
      edges[i].setAttribute('class','edge');
    }
  }
}
]]></script>
        <defs>
                <circle id="rim" cx="0" cy="0" r="7"/>
                <circle id="rim2" cx="0" cy="0" r="3.5"/>
                <g id="zoomPlus">
                        <use xlink:href="#rim" fill="#404040">
                                <set attributeName="fill" to="#808080" begin="zoomplus.mouseover" end="zoomplus.mouseout"/>
                        </use>
                        <path d="M-4,0h8M0,-4v8" fill="none" stroke="white" stroke-width="1.5" pointer-events="none"/>
                </g>
                <g id="zoomMin">
                        <use xlink:href="#rim" fill="#404040">
                                <set attributeName="fill" to="#808080" begin="zoomminus.mouseover" end="zoomminus.mouseout"/>
                        </use>
                        <path d="M-4,0h8" fill="none" stroke="white" stroke-width="1.5" pointer-events="none"/>
                </g>
                <g id="dirArrow">
                        <path fill="none" stroke="white" stroke-width="1.5" d="M0,-3.0v7 M-2.5,-0.5L0,-3.0L2.5,-0.5"/>
                </g>
               <g id="resetDef">
                       <use xlink:href="#rim2" fill="#404040">
                               <set attributeName="fill" to="#808080" begin="reset.mouseover" end="reset.mouseout"/>
                       </use>
               </g>
        </defs>

<script type="text/javascript">
var viewWidth = 600;
var viewHeight = 66;
var sectionId = 'dynsection-0';
</script>
<script xlink:href="svgpan.js"/>
<svg id="graph" class="graph">
<g id="viewport">
<title>logical_to_real_fieldcos</title>
<polygon fill="#ffffff" stroke="transparent" points="-4,4 -4,-62 596,-62 596,4 -4,4"/>
<!-- Node1 -->
<g id="node1" class="node">
<title>Node1</title>
<polygon fill="#bfbfbf" stroke="#000000" points="0,-19.5 0,-38.5 131,-38.5 131,-19.5 0,-19.5"/>
<text text-anchor="middle" x="65.5" y="-26.5" font-family="Helvetica,sans-Serif" font-size="10.00" fill="#000000">logical_to_real_fieldcos</text>
</g>
<!-- Node2 -->
<g id="node2" class="node">
<title>Node2</title>
<g id="a_node2"><a xlink:href="readff-fieldcos_8f90.xhtml#ad3bad29fee11de511cba8a8aa3fbbb18" target="_top" xlink:title="LL Routine: READFF LL Routine: READFF LL LL Purpose: To read a direct access PP file. LL LL Programming standard: UM Doc Paper 3, version 1 (15/1/90) LL LL Logical components covered: LL LL Project task: LL LL External documentation: LL. ">
<polygon fill="#ffffff" stroke="#000000" points="167,-19.5 167,-38.5 255,-38.5 255,-19.5 167,-19.5"/>
<text text-anchor="middle" x="211" y="-26.5" font-family="Helvetica,sans-Serif" font-size="10.00" fill="#000000">readff_fieldcos</text>
</a>
</g>
</g>
<!-- Node1&#45;&gt;Node2 -->
<g id="edge1" class="edge">
<title>Node1&#45;&gt;Node2</title>
<path fill="none" stroke="#191970" d="M141.2306,-29C149.9369,-29 158.5861,-29 166.6784,-29"/>
<polygon fill="#191970" stroke="#191970" points="141.0141,-25.5001 131.0141,-29 141.014,-32.5001 141.0141,-25.5001"/>
</g>
<!-- Node3 -->
<g id="node3" class="node">
<title>Node3</title>
<g id="a_node3"><a xlink:href="cray__ibm_8f90.xhtml#a86cf758f55f833cfecf40a0f12430bb1" target="_top" xlink:title="LL Routine: CRAY_IBM. ">
<polygon fill="#ffffff" stroke="#000000" points="292,-38.5 292,-57.5 354,-57.5 354,-38.5 292,-38.5"/>
<text text-anchor="middle" x="323" y="-45.5" font-family="Helvetica,sans-Serif" font-size="10.00" fill="#000000">cray_ibm</text>
</a>
</g>
</g>
<!-- Node2&#45;&gt;Node3 -->
<g id="edge2" class="edge">
<title>Node2&#45;&gt;Node3</title>
<path fill="none" stroke="#191970" d="M265.1293,-38.1826C274.2865,-39.7361 283.5105,-41.3009 291.8204,-42.7106"/>
<polygon fill="#191970" stroke="#191970" points="265.7099,-34.7312 255.2654,-36.5093 264.5391,-41.6326 265.7099,-34.7312"/>
</g>
<!-- Node6 -->
<g id="node6" class="node">
<title>Node6</title>
<g id="a_node6"><a xlink:href="cray__ieee_8f90.xhtml#aa27664f4d181048ca56074a5a7027fb6" target="_top" xlink:title="LL Subroutine: CRAY_IEEE LL Subroutine: CRAY_IEEE LL LL Purpose: To read a direct access PP file and ...">
<polygon fill="#ffffff" stroke="#000000" points="291,-.5 291,-19.5 355,-19.5 355,-.5 291,-.5"/>
<text text-anchor="middle" x="323" y="-7.5" font-family="Helvetica,sans-Serif" font-size="10.00" fill="#000000">cray_ieee</text>
</a>
</g>
</g>
<!-- Node2&#45;&gt;Node6 -->
<g id="edge5" class="edge">
<title>Node2&#45;&gt;Node6</title>
<path fill="none" stroke="#191970" d="M265.3982,-19.7717C274.0928,-18.2968 282.839,-16.813 290.7974,-15.4629"/>
<polygon fill="#191970" stroke="#191970" points="264.5391,-16.3674 255.2654,-21.4907 265.7099,-23.2688 264.5391,-16.3674"/>
</g>
<!-- Node4 -->
<g id="node4" class="node">
<title>Node4</title>
<g id="a_node4"><a xlink:href="read__write-fieldcos_8f90.xhtml#a83a915a972fd004dc6753151cced432b" target="_top" xlink:title="LL LL LL Subroutine: READ_WRITE!&gt;LL LL Purpose: To read a direct access PP file and convert it to a L...">
<polygon fill="#ffffff" stroke="#000000" points="391,-19.5 391,-38.5 502,-38.5 502,-19.5 391,-19.5"/>
<text text-anchor="middle" x="446.5" y="-26.5" font-family="Helvetica,sans-Serif" font-size="10.00" fill="#000000">read_write_fieldcos</text>
</a>
</g>
</g>
<!-- Node3&#45;&gt;Node4 -->
<g id="edge3" class="edge">
<title>Node3&#45;&gt;Node4</title>
<path fill="none" stroke="#191970" d="M364.2258,-41.6576C372.7562,-40.3452 381.8761,-38.9421 390.8243,-37.5655"/>
<polygon fill="#191970" stroke="#191970" points="363.5158,-38.2255 354.1643,-43.2055 364.5802,-45.1441 363.5158,-38.2255"/>
</g>
<!-- Node5 -->
<g id="node5" class="node">
<title>Node5</title>
<g id="a_node5"><a xlink:href="fieldcos_8f90.xhtml#a964738f376f82ff1c74d785687a11a4b" target="_top" xlink:title="Program: FIELDCOS!&gt; ">
<polygon fill="#ffffff" stroke="#000000" points="538,-19.5 538,-38.5 592,-38.5 592,-19.5 538,-19.5"/>
<text text-anchor="middle" x="565" y="-26.5" font-family="Helvetica,sans-Serif" font-size="10.00" fill="#000000">fieldcos</text>
</a>
</g>
</g>
<!-- Node4&#45;&gt;Node5 -->
<g id="edge4" class="edge">
<title>Node4&#45;&gt;Node5</title>
<path fill="none" stroke="#191970" d="M512.4253,-29C521.3728,-29 530.1147,-29 537.8207,-29"/>
<polygon fill="#191970" stroke="#191970" points="512.2801,-25.5001 502.2801,-29 512.2801,-32.5001 512.2801,-25.5001"/>
</g>
<!-- Node6&#45;&gt;Node4 -->
<g id="edge6" class="edge">
<title>Node6&#45;&gt;Node4</title>
<path fill="none" stroke="#191970" d="M365.1749,-16.4884C373.3642,-17.7483 382.0658,-19.087 390.616,-20.4025"/>
<polygon fill="#191970" stroke="#191970" points="365.5417,-13.0038 355.1258,-14.9424 364.4773,-19.9224 365.5417,-13.0038"/>
</g>
</g>
</svg>
        <g id="navigator" transform="translate(0 0)" fill="#404254">
                <rect fill="#f2f5e9" fill-opacity="0.5" stroke="#606060" stroke-width=".5" x="0" y="0" width="60" height="60"/>
                <use id="zoomplus" xlink:href="#zoomPlus" x="17" y="9" onmousedown="handleZoom(evt,'in')"/>
                <use id="zoomminus" xlink:href="#zoomMin" x="42" y="9" onmousedown="handleZoom(evt,'out')"/>
                <use id="reset" xlink:href="#resetDef" x="30" y="36" onmousedown="handleReset()"/>
                <g id="arrowUp" xlink:href="#dirArrow" transform="translate(30 24)" onmousedown="handlePan(0,-1)">
                  <use xlink:href="#rim" fill="#404040">
                        <set attributeName="fill" to="#808080" begin="arrowUp.mouseover" end="arrowUp.mouseout"/>
                  </use>
                  <path fill="none" stroke="white" stroke-width="1.5" d="M0,-3.0v7 M-2.5,-0.5L0,-3.0L2.5,-0.5"/>
                </g>
                <g id="arrowRight" xlink:href="#dirArrow" transform="rotate(90) translate(36 -43)" onmousedown="handlePan(1,0)">
                  <use xlink:href="#rim" fill="#404040">
                        <set attributeName="fill" to="#808080" begin="arrowRight.mouseover" end="arrowRight.mouseout"/>
                  </use>
                  <path fill="none" stroke="white" stroke-width="1.5" d="M0,-3.0v7 M-2.5,-0.5L0,-3.0L2.5,-0.5"/>
                </g>
                <g id="arrowDown" xlink:href="#dirArrow" transform="rotate(180) translate(-30 -48)" onmousedown="handlePan(0,1)">
                  <use xlink:href="#rim" fill="#404040">
                        <set attributeName="fill" to="#808080" begin="arrowDown.mouseover" end="arrowDown.mouseout"/>
                  </use>
                  <path fill="none" stroke="white" stroke-width="1.5" d="M0,-3.0v7 M-2.5,-0.5L0,-3.0L2.5,-0.5"/>
                </g>
                <g id="arrowLeft" xlink:href="#dirArrow" transform="rotate(270) translate(-36 17)" onmousedown="handlePan(-1,0)">
                  <use xlink:href="#rim" fill="#404040">
                        <set attributeName="fill" to="#808080" begin="arrowLeft.mouseover" end="arrowLeft.mouseout"/>
                  </use>
                  <path fill="none" stroke="white" stroke-width="1.5" d="M0,-3.0v7 M-2.5,-0.5L0,-3.0L2.5,-0.5"/>
                </g>
        </g>
        <svg viewBox="0 0 15 15" width="100%" height="30px" preserveAspectRatio="xMaxYMin meet">
         <g id="arrow_out" transform="scale(0.3 0.3)">
          <a xlink:href="logical__to__real-fieldcos_8f90_a9a6acc82aafbf917fd989c5274124139_icgraph_org.svg" target="_base">
           <rect id="button" ry="5" rx="5" y="6" x="6" height="38" width="38"
                fill="#f2f5e9" fill-opacity="0.5" stroke="#606060" stroke-width="1.0"/>
           <path id="arrow"
             d="M 11.500037,31.436501 C 11.940474,20.09759 22.043105,11.32322 32.158766,21.979434 L 37.068811,17.246167 C 37.068811,17.246167 37.088388,32 37.088388,32 L 22.160133,31.978069 C 22.160133,31.978069 26.997745,27.140456 26.997745,27.140456 C 18.528582,18.264221 13.291696,25.230495 11.500037,31.436501 z"
             style="fill:#404040;"/>
          </a>
         </g>
        </svg>
</svg>
