<?xml version="1.0" encoding="UTF-8" standalone="no"?>
<!DOCTYPE svg PUBLIC "-//W3C//DTD SVG 1.1//EN"
 "http://www.w3.org/Graphics/SVG/1.1/DTD/svg11.dtd">
<!-- Generated by graphviz version 2.40.1 (20161225.0304)
 -->
<!-- Title: maxwindsplinev Pages: 1 -->
<svg width="296pt" height="66pt"
 viewBox="0.00 0.00 296.00 66.00" xmlns="http://www.w3.org/2000/svg" xmlns:xlink="http://www.w3.org/1999/xlink">
<g id="graph0" class="graph" transform="scale(1 1) rotate(0) translate(4 62)">
<title>maxwindsplinev</title>
<polygon fill="#ffffff" stroke="transparent" points="-4,4 -4,-62 292,-62 292,4 -4,4"/>
<!-- Node199 -->
<g id="node1" class="node">
<title>Node199</title>
<polygon fill="#bfbfbf" stroke="#000000" points="0,-19.5 0,-38.5 97,-38.5 97,-19.5 0,-19.5"/>
<text text-anchor="middle" x="48.5" y="-26.5" font-family="Helvetica,sans-Serif" font-size="10.00" fill="#000000">maxwindsplinev</text>
</g>
<!-- Node200 -->
<g id="node2" class="node">
<title>Node200</title>
<g id="a_node2"><a xlink:href="maxwind_8f90.xhtml#a4b2a6fd51df910e84e3373dc54ed4756" target="_top" xlink:title="Routine to calculate Max Wind value and height. ">
<polygon fill="#ffffff" stroke="#000000" points="133,-38.5 133,-57.5 195,-57.5 195,-38.5 133,-38.5"/>
<text text-anchor="middle" x="164" y="-45.5" font-family="Helvetica,sans-Serif" font-size="10.00" fill="#000000">maxwind</text>
</a>
</g>
</g>
<!-- Node199&#45;&gt;Node200 -->
<g id="edge1" class="edge">
<title>Node199&#45;&gt;Node200</title>
<path fill="none" stroke="#191970" d="M107.1376,-38.646C116.0149,-40.1063 124.8642,-41.5621 132.8463,-42.8751"/>
<polygon fill="#191970" stroke="#191970" points="107.5832,-35.1723 97.1476,-37.0026 106.4469,-42.0795 107.5832,-35.1723"/>
</g>
<!-- Node202 -->
<g id="node4" class="node">
<title>Node202</title>
<g id="a_node4"><a xlink:href="topbase_8f90.xhtml#a626b844f22e59bb9f52cd780de9c8cf6" target="_top" xlink:title="Routine to calculate Max Wind value and height. ">
<polygon fill="#ffffff" stroke="#000000" points="136,-.5 136,-19.5 192,-19.5 192,-.5 136,-.5"/>
<text text-anchor="middle" x="164" y="-7.5" font-family="Helvetica,sans-Serif" font-size="10.00" fill="#000000">topbase</text>
</a>
</g>
</g>
<!-- Node199&#45;&gt;Node202 -->
<g id="edge3" class="edge">
<title>Node199&#45;&gt;Node202</title>
<path fill="none" stroke="#191970" d="M107.12,-19.3569C117.1253,-17.711 127.0958,-16.0708 135.8298,-14.6341"/>
<polygon fill="#191970" stroke="#191970" points="106.4469,-15.9205 97.1476,-20.9974 107.5832,-22.8277 106.4469,-15.9205"/>
</g>
<!-- Node201 -->
<g id="node3" class="node">
<title>Node201</title>
<g id="a_node3"><a xlink:href="fieldcalc_8f90.xhtml#ac71d10790a6550f257c927ee60db58b2" target="_top" xlink:title="Program for post&#45;processing of UM output. ">
<polygon fill="#ffffff" stroke="#000000" points="231,-19.5 231,-38.5 288,-38.5 288,-19.5 231,-19.5"/>
<text text-anchor="middle" x="259.5" y="-26.5" font-family="Helvetica,sans-Serif" font-size="10.00" fill="#000000">fieldcalc</text>
</a>
</g>
</g>
<!-- Node200&#45;&gt;Node201 -->
<g id="edge2" class="edge">
<title>Node200&#45;&gt;Node201</title>
<path fill="none" stroke="#191970" d="M205.0316,-39.8366C213.7522,-38.1017 222.7778,-36.306 230.9136,-34.6874"/>
<polygon fill="#191970" stroke="#191970" points="204.1309,-36.4472 195.0061,-41.8312 205.4969,-43.3126 204.1309,-36.4472"/>
</g>
<!-- Node202&#45;&gt;Node201 -->
<g id="edge4" class="edge">
<title>Node202&#45;&gt;Node201</title>
<path fill="none" stroke="#191970" d="M202.2319,-17.6063C211.7983,-19.5096 221.8959,-21.5185 230.9035,-23.3106"/>
<polygon fill="#191970" stroke="#191970" points="202.6274,-14.1165 192.1366,-15.5979 201.2614,-20.9819 202.6274,-14.1165"/>
</g>
</g>
</svg>
