<?xml version="1.0" encoding="UTF-8" standalone="no"?>
<!DOCTYPE svg PUBLIC "-//W3C//DTD SVG 1.1//EN"
 "http://www.w3.org/Graphics/SVG/1.1/DTD/svg11.dtd">
<!-- Generated by graphviz version 2.40.1 (20161225.0304)
 -->
<!-- Title: meanps Pages: 1 -->
<svg width="463pt" height="66pt"
 viewBox="0.00 0.00 463.00 66.00" xmlns="http://www.w3.org/2000/svg" xmlns:xlink="http://www.w3.org/1999/xlink">
<g id="graph0" class="graph" transform="scale(1 1) rotate(0) translate(4 62)">
<title>meanps</title>
<polygon fill="#ffffff" stroke="transparent" points="-4,4 -4,-62 459,-62 459,4 -4,4"/>
<!-- Node1 -->
<g id="node1" class="node">
<title>Node1</title>
<polygon fill="#bfbfbf" stroke="#000000" points="0,-19.5 0,-38.5 56,-38.5 56,-19.5 0,-19.5"/>
<text text-anchor="middle" x="28" y="-26.5" font-family="Helvetica,sans-Serif" font-size="10.00" fill="#000000">meanps</text>
</g>
<!-- Node2 -->
<g id="node2" class="node">
<title>Node2</title>
<g id="a_node2"><a xlink:href="meanctl_8f90.xhtml#a5bbbf6327297fa87e7a0d9b511eb2b00" target="_top" xlink:title="Subroutine: MEANCTL&#45;!&gt; ">
<polygon fill="#ffffff" stroke="#000000" points="92,-19.5 92,-38.5 148,-38.5 148,-19.5 92,-19.5"/>
<text text-anchor="middle" x="120" y="-26.5" font-family="Helvetica,sans-Serif" font-size="10.00" fill="#000000">meanctl</text>
</a>
</g>
</g>
<!-- Node1&#45;&gt;Node2 -->
<g id="edge1" class="edge">
<title>Node1&#45;&gt;Node2</title>
<path fill="none" stroke="#191970" d="M66.2557,-29C74.7957,-29 83.7023,-29 91.7521,-29"/>
<polygon fill="#191970" stroke="#191970" points="66.103,-25.5001 56.1029,-29 66.1029,-32.5001 66.103,-25.5001"/>
</g>
<!-- Node3 -->
<g id="node3" class="node">
<title>Node3</title>
<g id="a_node3"><a xlink:href="u__model_8f90.xhtml#ada0cd2ce4699433bf0f9adbd882c8eec" target="_top" xlink:title="Subroutine: U_MODEL &#45;!&gt; ">
<polygon fill="#ffffff" stroke="#000000" points="192.5,-38.5 192.5,-57.5 251.5,-57.5 251.5,-38.5 192.5,-38.5"/>
<text text-anchor="middle" x="222" y="-45.5" font-family="Helvetica,sans-Serif" font-size="10.00" fill="#000000">u_model</text>
</a>
</g>
</g>
<!-- Node2&#45;&gt;Node3 -->
<g id="edge2" class="edge">
<title>Node2&#45;&gt;Node3</title>
<path fill="none" stroke="#191970" d="M158.1485,-36.1061C169.392,-38.2005 181.527,-40.4609 192.1674,-42.4429"/>
<polygon fill="#191970" stroke="#191970" points="158.6138,-32.6326 148.142,-34.2421 157.3319,-39.5143 158.6138,-32.6326"/>
</g>
<!-- Node6 -->
<g id="node6" class="node">
<title>Node6</title>
<g id="a_node6"><a xlink:href="u__model__4_a_8f90.xhtml#afa05064dab5eba198b461d0928767c7e" target="_top" xlink:title="LL Subroutine: U_MODEL_4A (ENDGAME VERSION) !&gt;LL. ">
<polygon fill="#ffffff" stroke="#000000" points="184,-.5 184,-19.5 260,-19.5 260,-.5 184,-.5"/>
<text text-anchor="middle" x="222" y="-7.5" font-family="Helvetica,sans-Serif" font-size="10.00" fill="#000000">u_model_4a</text>
</a>
</g>
</g>
<!-- Node2&#45;&gt;Node6 -->
<g id="edge5" class="edge">
<title>Node2&#45;&gt;Node6</title>
<path fill="none" stroke="#191970" d="M158.0329,-21.9154C166.3986,-20.3571 175.2629,-18.7059 183.6414,-17.1452"/>
<polygon fill="#191970" stroke="#191970" points="157.3319,-18.4857 148.142,-23.7579 158.6138,-25.3674 157.3319,-18.4857"/>
</g>
<!-- Node4 -->
<g id="node4" class="node">
<title>Node4</title>
<g id="a_node4"><a xlink:href="um__shell_8f90.xhtml#a8c9bd25362824a5c301376ecb5ed5c27" target="_top" xlink:title="Subroutine: UM_SHELL !&gt; ">
<polygon fill="#ffffff" stroke="#000000" points="296,-19.5 296,-38.5 357,-38.5 357,-19.5 296,-19.5"/>
<text text-anchor="middle" x="326.5" y="-26.5" font-family="Helvetica,sans-Serif" font-size="10.00" fill="#000000">um_shell</text>
</a>
</g>
</g>
<!-- Node3&#45;&gt;Node4 -->
<g id="edge3" class="edge">
<title>Node3&#45;&gt;Node4</title>
<path fill="none" stroke="#191970" d="M261.701,-40.7816C272.951,-38.7362 285.0261,-36.5407 295.6677,-34.6059"/>
<polygon fill="#191970" stroke="#191970" points="260.8786,-37.3737 251.666,-42.6062 262.1308,-44.2608 260.8786,-37.3737"/>
</g>
<!-- Node5 -->
<g id="node5" class="node">
<title>Node5</title>
<g id="a_node5"><a xlink:href="um__main_8f90.xhtml#a8f2d13215621443a5313261c282f098b" target="_top" xlink:title="Code Owner: See Unified Model Code Owner&#39;s HTML page. ">
<polygon fill="#ffffff" stroke="#000000" points="393,-19.5 393,-38.5 455,-38.5 455,-19.5 393,-19.5"/>
<text text-anchor="middle" x="424" y="-26.5" font-family="Helvetica,sans-Serif" font-size="10.00" fill="#000000">um_main</text>
</a>
</g>
</g>
<!-- Node4&#45;&gt;Node5 -->
<g id="edge4" class="edge">
<title>Node4&#45;&gt;Node5</title>
<path fill="none" stroke="#191970" d="M367.2756,-29C375.8294,-29 384.72,-29 392.8551,-29"/>
<polygon fill="#191970" stroke="#191970" points="367.0821,-25.5001 357.0821,-29 367.0821,-32.5001 367.0821,-25.5001"/>
</g>
<!-- Node6&#45;&gt;Node4 -->
<g id="edge6" class="edge">
<title>Node6&#45;&gt;Node4</title>
<path fill="none" stroke="#191970" d="M269.8728,-18.7041C278.7087,-20.3107 287.7128,-21.9478 295.8647,-23.43"/>
<polygon fill="#191970" stroke="#191970" points="270.4873,-15.2586 260.0225,-16.9132 269.2351,-22.1457 270.4873,-15.2586"/>
</g>
</g>
</svg>
