<?xml version="1.0" encoding="UTF-8" standalone="no"?>
<!DOCTYPE svg PUBLIC "-//W3C//DTD SVG 1.1//EN"
 "http://www.w3.org/Graphics/SVG/1.1/DTD/svg11.dtd">
<!-- Generated by graphviz version 2.40.1 (20161225.0304)
 -->
<!-- Title: mpp_tri_solve_exec Pages: 1 -->
<!--zoomable 218 -->
<svg id="main" version="1.1" xmlns="http://www.w3.org/2000/svg" xmlns:xlink="http://www.w3.org/1999/xlink" xml:space="preserve" onload="init(evt)">
<style type="text/css"><![CDATA[
.edge:hover path { stroke: red; }
.edge:hover polygon { stroke: red; fill: red; }
]]></style>
<script type="text/javascript"><![CDATA[
var edges = document.getElementsByTagName('g');
if (edges && edges.length) {
  for (var i=0;i<edges.length;i++) {
    if (edges[i].id.substr(0,4)=='edge') {
      edges[i].setAttribute('class','edge');
    }
  }
}
]]></script>
        <defs>
                <circle id="rim" cx="0" cy="0" r="7"/>
                <circle id="rim2" cx="0" cy="0" r="3.5"/>
                <g id="zoomPlus">
                        <use xlink:href="#rim" fill="#404040">
                                <set attributeName="fill" to="#808080" begin="zoomplus.mouseover" end="zoomplus.mouseout"/>
                        </use>
                        <path d="M-4,0h8M0,-4v8" fill="none" stroke="white" stroke-width="1.5" pointer-events="none"/>
                </g>
                <g id="zoomMin">
                        <use xlink:href="#rim" fill="#404040">
                                <set attributeName="fill" to="#808080" begin="zoomminus.mouseover" end="zoomminus.mouseout"/>
                        </use>
                        <path d="M-4,0h8" fill="none" stroke="white" stroke-width="1.5" pointer-events="none"/>
                </g>
                <g id="dirArrow">
                        <path fill="none" stroke="white" stroke-width="1.5" d="M0,-3.0v7 M-2.5,-0.5L0,-3.0L2.5,-0.5"/>
                </g>
               <g id="resetDef">
                       <use xlink:href="#rim2" fill="#404040">
                               <set attributeName="fill" to="#808080" begin="reset.mouseover" end="reset.mouseout"/>
                       </use>
               </g>
        </defs>

<script type="text/javascript">
var viewWidth = 1074;
var viewHeight = 218;
var sectionId = 'dynsection-0';
</script>
<script xlink:href="svgpan.js"/>
<svg id="graph" class="graph">
<g id="viewport">
<title>mpp_tri_solve_exec</title>
<polygon fill="#ffffff" stroke="transparent" points="-4,4 -4,-214 1070,-214 1070,4 -4,4"/>
<!-- Node1 -->
<g id="node1" class="node">
<title>Node1</title>
<polygon fill="#bfbfbf" stroke="#000000" points="0,-62.5 0,-81.5 114,-81.5 114,-62.5 0,-62.5"/>
<text text-anchor="middle" x="57" y="-69.5" font-family="Helvetica,sans-Serif" font-size="10.00" fill="#000000">mpp_tri_solve_exec</text>
</g>
<!-- Node2 -->
<g id="node2" class="node">
<title>Node2</title>
<g id="a_node2"><a xlink:href="gcr__precon__adi__exec__trisolve-gcrpat2a_8f90.xhtml#a1feb1a044e9e1d8f905399b4b6d5170d" target="_top" xlink:title="subroutine GCR_precon_ADI_exec_trisolve ">
<polygon fill="#ffffff" stroke="#000000" points="150,-82 150,-112 269,-112 269,-82 150,-82"/>
<text text-anchor="start" x="158" y="-100" font-family="Helvetica,sans-Serif" font-size="10.00" fill="#000000">gcr_precon_adi_exec</text>
<text text-anchor="middle" x="209.5" y="-89" font-family="Helvetica,sans-Serif" font-size="10.00" fill="#000000">_trisol</text>
</a>
</g>
</g>
<!-- Node1&#45;&gt;Node2 -->
<g id="edge1" class="edge">
<title>Node1&#45;&gt;Node2</title>
<path fill="none" stroke="#191970" d="M124.1843,-83.0138C132.7562,-84.4191 141.4832,-85.8497 149.9236,-87.2334"/>
<polygon fill="#191970" stroke="#191970" points="124.6538,-79.5441 114.2192,-81.3802 123.5213,-86.4519 124.6538,-79.5441"/>
</g>
<!-- Node15 -->
<g id="node15" class="node">
<title>Node15</title>
<g id="a_node15"><a xlink:href="gcr__precon__adi__exec__trisolve-gcrpat2b_8f90.xhtml#a8a36902d6e86097ee4e9870f8dd55508" target="_top" xlink:title="subroutine GCR_precon_ADI_exec_trisol_2B ">
<polygon fill="#ffffff" stroke="#000000" points="150,-33 150,-63 269,-63 269,-33 150,-33"/>
<text text-anchor="start" x="158" y="-51" font-family="Helvetica,sans-Serif" font-size="10.00" fill="#000000">gcr_precon_adi_exec</text>
<text text-anchor="middle" x="209.5" y="-40" font-family="Helvetica,sans-Serif" font-size="10.00" fill="#000000">_trisol_2b</text>
</a>
</g>
</g>
<!-- Node1&#45;&gt;Node15 -->
<g id="edge19" class="edge">
<title>Node1&#45;&gt;Node15</title>
<path fill="none" stroke="#191970" d="M124.1843,-61.4267C132.7562,-60.0777 141.4832,-58.7043 149.9236,-57.376"/>
<polygon fill="#191970" stroke="#191970" points="123.5535,-57.9828 114.2192,-62.995 124.6418,-64.8977 123.5535,-57.9828"/>
</g>
<!-- Node3 -->
<g id="node3" class="node">
<title>Node3</title>
<g id="a_node3"><a xlink:href="gcr__k-gcrk2a_8f90.xhtml#aeed4250f3cc10756cf5a8833e62d469a" target="_top" xlink:title="Subroutine GCR_k. ">
<polygon fill="#ffffff" stroke="#000000" points="313.5,-87.5 313.5,-106.5 356.5,-106.5 356.5,-87.5 313.5,-87.5"/>
<text text-anchor="middle" x="335" y="-94.5" font-family="Helvetica,sans-Serif" font-size="10.00" fill="#000000">gcr_k</text>
</a>
</g>
</g>
<!-- Node2&#45;&gt;Node3 -->
<g id="edge2" class="edge">
<title>Node2&#45;&gt;Node3</title>
<path fill="none" stroke="#191970" d="M279.661,-97C291.9268,-97 303.8095,-97 313.399,-97"/>
<polygon fill="#191970" stroke="#191970" points="279.3096,-93.5001 269.3096,-97 279.3095,-100.5001 279.3096,-93.5001"/>
</g>
<!-- Node4 -->
<g id="node4" class="node">
<title>Node4</title>
<g id="a_node4"><a xlink:href="pe__helmholtz__eul-global2a_8f90.xhtml#a186cd3eb538e4a37f4988dd38f091401" target="_top" xlink:title="Subroutine PE_Helmholtz_global. ">
<polygon fill="#ffffff" stroke="#000000" points="414,-190.5 414,-209.5 532,-209.5 532,-190.5 414,-190.5"/>
<text text-anchor="middle" x="473" y="-197.5" font-family="Helvetica,sans-Serif" font-size="10.00" fill="#000000">pe_helmholtz_global</text>
</a>
</g>
</g>
<!-- Node3&#45;&gt;Node4 -->
<g id="edge3" class="edge">
<title>Node3&#45;&gt;Node4</title>
<path fill="none" stroke="#191970" d="M344.7196,-115.4897C355.7915,-134.7395 375.6756,-164.3569 401,-181 406.942,-184.9051 413.6542,-188.0092 420.5313,-190.4762"/>
<polygon fill="#191970" stroke="#191970" points="347.7801,-113.7916 339.8787,-106.7334 341.654,-117.1784 347.7801,-113.7916"/>
</g>
<!-- Node10 -->
<g id="node10" class="node">
<title>Node10</title>
<g id="a_node10"><a xlink:href="pe__helmholtz__eul-global2b_8f90.xhtml#a3f54757bf8f64bef80b9f7b1710e9e83" target="_top" xlink:title="Subroutine PE_Helmholtz_global_2B. ">
<polygon fill="#ffffff" stroke="#000000" points="405.5,-76.5 405.5,-95.5 540.5,-95.5 540.5,-76.5 405.5,-76.5"/>
<text text-anchor="middle" x="473" y="-83.5" font-family="Helvetica,sans-Serif" font-size="10.00" fill="#000000">pe_helmholtz_global_2b</text>
</a>
</g>
</g>
<!-- Node3&#45;&gt;Node10 -->
<g id="edge9" class="edge">
<title>Node3&#45;&gt;Node10</title>
<path fill="none" stroke="#191970" d="M366.5775,-94.483C378.166,-93.5592 391.7737,-92.4746 405.3139,-91.3953"/>
<polygon fill="#191970" stroke="#191970" points="366.2527,-90.9976 356.5625,-95.2813 366.809,-97.9755 366.2527,-90.9976"/>
</g>
<!-- Node11 -->
<g id="node11" class="node">
<title>Node11</title>
<g id="a_node11"><a xlink:href="pe__helmholtz__eul-pehelmeu2a_8f90.xhtml#a0ca49c8b00c23924e23a28b7f8034343" target="_top" xlink:title="Subroutine PE_Helmholtz_eul. ">
<polygon fill="#ffffff" stroke="#000000" points="421.5,-152.5 421.5,-171.5 524.5,-171.5 524.5,-152.5 421.5,-152.5"/>
<text text-anchor="middle" x="473" y="-159.5" font-family="Helvetica,sans-Serif" font-size="10.00" fill="#000000">pe_helmholtz_eul</text>
</a>
</g>
</g>
<!-- Node3&#45;&gt;Node11 -->
<g id="edge11" class="edge">
<title>Node3&#45;&gt;Node11</title>
<path fill="none" stroke="#191970" d="M354.3209,-113.1955C366.921,-123.0429 384.1095,-135.1851 401,-143 409.0957,-146.7457 418.0579,-149.8526 426.8314,-152.3928"/>
<polygon fill="#191970" stroke="#191970" points="356.3791,-110.3595 346.3908,-106.8261 351.9955,-115.8171 356.3791,-110.3595"/>
</g>
<!-- Node12 -->
<g id="node12" class="node">
<title>Node12</title>
<g id="a_node12"><a xlink:href="pe__helmholtz__eul-pehelmeu2b_8f90.xhtml#aa0efe18d51360d9e3b92a3834d70e94e" target="_top" xlink:title="Subroutine PE_Helmholtz_eul_2B. ">
<polygon fill="#ffffff" stroke="#000000" points="413,-38.5 413,-57.5 533,-57.5 533,-38.5 413,-38.5"/>
<text text-anchor="middle" x="473" y="-45.5" font-family="Helvetica,sans-Serif" font-size="10.00" fill="#000000">pe_helmholtz_eul_2b</text>
</a>
</g>
</g>
<!-- Node3&#45;&gt;Node12 -->
<g id="edge13" class="edge">
<title>Node3&#45;&gt;Node12</title>
<path fill="none" stroke="#191970" d="M362.8928,-83.0596C374.4957,-77.5942 388.2175,-71.555 401,-67 410.864,-63.485 421.6941,-60.2922 431.8914,-57.5696"/>
<polygon fill="#191970" stroke="#191970" points="361.21,-79.9851 353.712,-87.4705 364.2414,-86.2947 361.21,-79.9851"/>
</g>
<!-- Node13 -->
<g id="node13" class="node">
<title>Node13</title>
<g id="a_node13"><a xlink:href="pe__helmholtz__eul__mix-pe__helm__eul__mix_8f90.xhtml#a1da8ffae54e8baf118931f74188679b6" target="_top" xlink:title="Subroutine PE_Helmholtz_eul_mix. ">
<polygon fill="#ffffff" stroke="#000000" points="409.5,-114.5 409.5,-133.5 536.5,-133.5 536.5,-114.5 409.5,-114.5"/>
<text text-anchor="middle" x="473" y="-121.5" font-family="Helvetica,sans-Serif" font-size="10.00" fill="#000000">pe_helmholtz_eul_mix</text>
</a>
</g>
</g>
<!-- Node3&#45;&gt;Node13 -->
<g id="edge15" class="edge">
<title>Node3&#45;&gt;Node13</title>
<path fill="none" stroke="#191970" d="M366.5937,-103.1814C383.7151,-106.5312 405.2404,-110.7427 424.4434,-114.4998"/>
<polygon fill="#191970" stroke="#191970" points="367.0485,-99.7041 356.5625,-101.2188 365.7044,-106.5738 367.0485,-99.7041"/>
</g>
<!-- Node14 -->
<g id="node14" class="node">
<title>Node14</title>
<g id="a_node14"><a xlink:href="pe__helmholtz__eul__mix-pe__helm__eul__mix2b_8f90.xhtml#a3cb509677a9ae3cb922c1859c135890b" target="_top" xlink:title="Subroutine PE_Helmholtz_eul_mix_2B. ">
<polygon fill="#ffffff" stroke="#000000" points="401,-.5 401,-19.5 545,-19.5 545,-.5 401,-.5"/>
<text text-anchor="middle" x="473" y="-7.5" font-family="Helvetica,sans-Serif" font-size="10.00" fill="#000000">pe_helmholtz_eul_mix_2b</text>
</a>
</g>
</g>
<!-- Node3&#45;&gt;Node14 -->
<g id="edge17" class="edge">
<title>Node3&#45;&gt;Node14</title>
<path fill="none" stroke="#191970" d="M352.0172,-80.1426C356.2793,-75.8768 360.8258,-71.2886 365,-67 381.2267,-50.3288 380.9889,-40.8654 401,-29 407.5608,-25.1098 414.9219,-22.0035 422.3658,-19.5265"/>
<polygon fill="#191970" stroke="#191970" points="349.4087,-77.8008 344.7947,-87.3382 354.3493,-82.7598 349.4087,-77.8008"/>
</g>
<!-- Node5 -->
<g id="node5" class="node">
<title>Node5</title>
<g id="a_node5"><a xlink:href="ni__pe__helmholtz_8f90.xhtml#a69d5566c0852d7caa4baa84a26341b21" target="_top" xlink:title="ni_pe_helmholtz">
<polygon fill="#ffffff" stroke="#000000" points="581,-95.5 581,-114.5 678,-114.5 678,-95.5 581,-95.5"/>
<text text-anchor="middle" x="629.5" y="-102.5" font-family="Helvetica,sans-Serif" font-size="10.00" fill="#000000">ni_pe_helmholtz</text>
</a>
</g>
</g>
<!-- Node4&#45;&gt;Node5 -->
<g id="edge4" class="edge">
<title>Node4&#45;&gt;Node5</title>
<path fill="none" stroke="#191970" d="M531.5308,-187.1255C536.1965,-185.3305 540.7452,-183.2982 545,-181 577.6372,-163.3711 607.9099,-130.6473 621.6895,-114.5067"/>
<polygon fill="#191970" stroke="#191970" points="530.146,-183.9011 521.8458,-190.4857 532.4406,-190.5144 530.146,-183.9011"/>
</g>
<!-- Node6 -->
<g id="node6" class="node">
<title>Node6</title>
<g id="a_node6"><a xlink:href="atm__step_8f90.xhtml#ac0ee2467a1a9959b7065fdb8fd27bce4" target="_top" xlink:title="Perform a 1&#45;timestep integration of the Atmosphere Model. ">
<polygon fill="#ffffff" stroke="#000000" points="714,-95.5 714,-114.5 776,-114.5 776,-95.5 714,-95.5"/>
<text text-anchor="middle" x="745" y="-102.5" font-family="Helvetica,sans-Serif" font-size="10.00" fill="#000000">atm_step</text>
</a>
</g>
</g>
<!-- Node5&#45;&gt;Node6 -->
<g id="edge5" class="edge">
<title>Node5&#45;&gt;Node6</title>
<path fill="none" stroke="#191970" d="M688.4239,-105C697.2051,-105 705.9501,-105 713.8463,-105"/>
<polygon fill="#191970" stroke="#191970" points="688.1477,-101.5001 678.1476,-105 688.1476,-108.5001 688.1477,-101.5001"/>
</g>
<!-- Node7 -->
<g id="node7" class="node">
<title>Node7</title>
<g id="a_node7"><a xlink:href="u__model_8f90.xhtml#ada0cd2ce4699433bf0f9adbd882c8eec" target="_top" xlink:title="Subroutine: U_MODEL &#45;!&gt; ">
<polygon fill="#ffffff" stroke="#000000" points="812,-95.5 812,-114.5 871,-114.5 871,-95.5 812,-95.5"/>
<text text-anchor="middle" x="841.5" y="-102.5" font-family="Helvetica,sans-Serif" font-size="10.00" fill="#000000">u_model</text>
</a>
</g>
</g>
<!-- Node6&#45;&gt;Node7 -->
<g id="edge6" class="edge">
<title>Node6&#45;&gt;Node7</title>
<path fill="none" stroke="#191970" d="M786.3007,-105C794.8757,-105 803.7497,-105 811.8088,-105"/>
<polygon fill="#191970" stroke="#191970" points="786.0644,-101.5001 776.0644,-105 786.0644,-108.5001 786.0644,-101.5001"/>
</g>
<!-- Node8 -->
<g id="node8" class="node">
<title>Node8</title>
<g id="a_node8"><a xlink:href="um__shell_8f90.xhtml#a8c9bd25362824a5c301376ecb5ed5c27" target="_top" xlink:title="Subroutine: UM_SHELL !&gt; ">
<polygon fill="#ffffff" stroke="#000000" points="907,-95.5 907,-114.5 968,-114.5 968,-95.5 907,-95.5"/>
<text text-anchor="middle" x="937.5" y="-102.5" font-family="Helvetica,sans-Serif" font-size="10.00" fill="#000000">um_shell</text>
</a>
</g>
</g>
<!-- Node7&#45;&gt;Node8 -->
<g id="edge7" class="edge">
<title>Node7&#45;&gt;Node8</title>
<path fill="none" stroke="#191970" d="M881.2581,-105C889.8053,-105 898.7119,-105 906.8497,-105"/>
<polygon fill="#191970" stroke="#191970" points="881.0865,-101.5001 871.0865,-105 881.0865,-108.5001 881.0865,-101.5001"/>
</g>
<!-- Node9 -->
<g id="node9" class="node">
<title>Node9</title>
<g id="a_node9"><a xlink:href="um__main_8f90.xhtml#a8f2d13215621443a5313261c282f098b" target="_top" xlink:title="Code Owner: See Unified Model Code Owner&#39;s HTML page. ">
<polygon fill="#ffffff" stroke="#000000" points="1004,-95.5 1004,-114.5 1066,-114.5 1066,-95.5 1004,-95.5"/>
<text text-anchor="middle" x="1035" y="-102.5" font-family="Helvetica,sans-Serif" font-size="10.00" fill="#000000">um_main</text>
</a>
</g>
</g>
<!-- Node8&#45;&gt;Node9 -->
<g id="edge8" class="edge">
<title>Node8&#45;&gt;Node9</title>
<path fill="none" stroke="#191970" d="M978.2756,-105C986.8294,-105 995.72,-105 1003.8551,-105"/>
<polygon fill="#191970" stroke="#191970" points="978.0821,-101.5001 968.0821,-105 978.0821,-108.5001 978.0821,-101.5001"/>
</g>
<!-- Node10&#45;&gt;Node5 -->
<g id="edge10" class="edge">
<title>Node10&#45;&gt;Node5</title>
<path fill="none" stroke="#191970" d="M550.9482,-95.4634C561.1918,-96.707 571.4422,-97.9515 580.9974,-99.1115"/>
<polygon fill="#191970" stroke="#191970" points="551.0819,-91.954 540.733,-94.2232 550.2382,-98.903 551.0819,-91.954"/>
</g>
<!-- Node11&#45;&gt;Node5 -->
<g id="edge12" class="edge">
<title>Node11&#45;&gt;Node5</title>
<path fill="none" stroke="#191970" d="M523.7963,-149.7197C530.9728,-147.6595 538.2136,-145.4029 545,-143 568.1991,-134.7856 593.8509,-122.8166 610.737,-114.5151"/>
<polygon fill="#191970" stroke="#191970" points="522.8034,-146.3628 514.0987,-152.4026 524.67,-153.1094 522.8034,-146.3628"/>
</g>
<!-- Node12&#45;&gt;Node5 -->
<g id="edge14" class="edge">
<title>Node12&#45;&gt;Node5</title>
<path fill="none" stroke="#191970" d="M523.7963,-60.2803C530.9728,-62.3405 538.2136,-64.5971 545,-67 568.1991,-75.2144 593.8509,-87.1834 610.737,-95.4849"/>
<polygon fill="#191970" stroke="#191970" points="524.67,-56.8906 514.0987,-57.5974 522.8034,-63.6372 524.67,-56.8906"/>
</g>
<!-- Node13&#45;&gt;Node5 -->
<g id="edge16" class="edge">
<title>Node13&#45;&gt;Node5</title>
<path fill="none" stroke="#191970" d="M546.7474,-115.0466C558.2998,-113.6441 569.9834,-112.2257 580.7868,-110.9141"/>
<polygon fill="#191970" stroke="#191970" points="546.1598,-111.5922 536.6545,-116.272 547.0035,-118.5412 546.1598,-111.5922"/>
</g>
<!-- Node14&#45;&gt;Node5 -->
<g id="edge18" class="edge">
<title>Node14&#45;&gt;Node5</title>
<path fill="none" stroke="#191970" d="M531.5308,-22.8745C536.1965,-24.6695 540.7452,-26.7018 545,-29 577.6372,-46.6289 607.9099,-79.3527 621.6895,-95.4933"/>
<polygon fill="#191970" stroke="#191970" points="532.4406,-19.4856 521.8458,-19.5143 530.146,-26.0989 532.4406,-19.4856"/>
</g>
<!-- Node16 -->
<g id="node16" class="node">
<title>Node16</title>
<g id="a_node16"><a xlink:href="gcr__k-gcrk2b_8f90.xhtml#acfd0738f6919815059054b45d07c09fd" target="_top" xlink:title="Subroutine GCR_k_2B. ">
<polygon fill="#ffffff" stroke="#000000" points="305,-38.5 305,-57.5 365,-57.5 365,-38.5 305,-38.5"/>
<text text-anchor="middle" x="335" y="-45.5" font-family="Helvetica,sans-Serif" font-size="10.00" fill="#000000">gcr_k_2b</text>
</a>
</g>
</g>
<!-- Node15&#45;&gt;Node16 -->
<g id="edge20" class="edge">
<title>Node15&#45;&gt;Node16</title>
<path fill="none" stroke="#191970" d="M279.4549,-48C288.4012,-48 297.1496,-48 304.9596,-48"/>
<polygon fill="#191970" stroke="#191970" points="279.3096,-44.5001 269.3096,-48 279.3095,-51.5001 279.3096,-44.5001"/>
</g>
<!-- Node16&#45;&gt;Node10 -->
<g id="edge21" class="edge">
<title>Node16&#45;&gt;Node10</title>
<path fill="none" stroke="#191970" d="M374.9876,-59.6665C383.5601,-62.1241 392.5732,-64.6755 401,-67 412.4655,-70.1627 424.9889,-73.5061 436.3292,-76.4918"/>
<polygon fill="#191970" stroke="#191970" points="375.7663,-56.2485 365.1882,-56.8437 373.8286,-62.975 375.7663,-56.2485"/>
</g>
<!-- Node16&#45;&gt;Node12 -->
<g id="edge22" class="edge">
<title>Node16&#45;&gt;Node12</title>
<path fill="none" stroke="#191970" d="M375.5696,-48C387.2235,-48 400.1888,-48 412.7598,-48"/>
<polygon fill="#191970" stroke="#191970" points="375.2847,-44.5001 365.2847,-48 375.2847,-51.5001 375.2847,-44.5001"/>
</g>
<!-- Node16&#45;&gt;Node14 -->
<g id="edge23" class="edge">
<title>Node16&#45;&gt;Node14</title>
<path fill="none" stroke="#191970" d="M374.9876,-36.3335C383.5601,-33.8759 392.5732,-31.3245 401,-29 412.4655,-25.8373 424.9889,-22.4939 436.3292,-19.5082"/>
<polygon fill="#191970" stroke="#191970" points="373.8286,-33.025 365.1882,-39.1563 375.7663,-39.7515 373.8286,-33.025"/>
</g>
</g>
</svg>
        <g id="navigator" transform="translate(0 0)" fill="#404254">
                <rect fill="#f2f5e9" fill-opacity="0.5" stroke="#606060" stroke-width=".5" x="0" y="0" width="60" height="60"/>
                <use id="zoomplus" xlink:href="#zoomPlus" x="17" y="9" onmousedown="handleZoom(evt,'in')"/>
                <use id="zoomminus" xlink:href="#zoomMin" x="42" y="9" onmousedown="handleZoom(evt,'out')"/>
                <use id="reset" xlink:href="#resetDef" x="30" y="36" onmousedown="handleReset()"/>
                <g id="arrowUp" xlink:href="#dirArrow" transform="translate(30 24)" onmousedown="handlePan(0,-1)">
                  <use xlink:href="#rim" fill="#404040">
                        <set attributeName="fill" to="#808080" begin="arrowUp.mouseover" end="arrowUp.mouseout"/>
                  </use>
                  <path fill="none" stroke="white" stroke-width="1.5" d="M0,-3.0v7 M-2.5,-0.5L0,-3.0L2.5,-0.5"/>
                </g>
                <g id="arrowRight" xlink:href="#dirArrow" transform="rotate(90) translate(36 -43)" onmousedown="handlePan(1,0)">
                  <use xlink:href="#rim" fill="#404040">
                        <set attributeName="fill" to="#808080" begin="arrowRight.mouseover" end="arrowRight.mouseout"/>
                  </use>
                  <path fill="none" stroke="white" stroke-width="1.5" d="M0,-3.0v7 M-2.5,-0.5L0,-3.0L2.5,-0.5"/>
                </g>
                <g id="arrowDown" xlink:href="#dirArrow" transform="rotate(180) translate(-30 -48)" onmousedown="handlePan(0,1)">
                  <use xlink:href="#rim" fill="#404040">
                        <set attributeName="fill" to="#808080" begin="arrowDown.mouseover" end="arrowDown.mouseout"/>
                  </use>
                  <path fill="none" stroke="white" stroke-width="1.5" d="M0,-3.0v7 M-2.5,-0.5L0,-3.0L2.5,-0.5"/>
                </g>
                <g id="arrowLeft" xlink:href="#dirArrow" transform="rotate(270) translate(-36 17)" onmousedown="handlePan(-1,0)">
                  <use xlink:href="#rim" fill="#404040">
                        <set attributeName="fill" to="#808080" begin="arrowLeft.mouseover" end="arrowLeft.mouseout"/>
                  </use>
                  <path fill="none" stroke="white" stroke-width="1.5" d="M0,-3.0v7 M-2.5,-0.5L0,-3.0L2.5,-0.5"/>
                </g>
        </g>
        <svg viewBox="0 0 15 15" width="100%" height="30px" preserveAspectRatio="xMaxYMin meet">
         <g id="arrow_out" transform="scale(0.3 0.3)">
          <a xlink:href="mpp__tri__solve__exec_8f90_aa86f8306d47932da5d2b84f847a9e663_icgraph_org.svg" target="_base">
           <rect id="button" ry="5" rx="5" y="6" x="6" height="38" width="38"
                fill="#f2f5e9" fill-opacity="0.5" stroke="#606060" stroke-width="1.0"/>
           <path id="arrow"
             d="M 11.500037,31.436501 C 11.940474,20.09759 22.043105,11.32322 32.158766,21.979434 L 37.068811,17.246167 C 37.068811,17.246167 37.088388,32 37.088388,32 L 22.160133,31.978069 C 22.160133,31.978069 26.997745,27.140456 26.997745,27.140456 C 18.528582,18.264221 13.291696,25.230495 11.500037,31.436501 z"
             style="fill:#404040;"/>
          </a>
         </g>
        </svg>
</svg>
