<?xml version="1.0" encoding="UTF-8" standalone="no"?>
<!DOCTYPE svg PUBLIC "-//W3C//DTD SVG 1.1//EN"
 "http://www.w3.org/Graphics/SVG/1.1/DTD/svg11.dtd">
<!-- Generated by graphviz version 2.40.1 (20161225.0304)
 -->
<!-- Title: mym_update_fields Pages: 1 -->
<svg width="266pt" height="66pt"
 viewBox="0.00 0.00 266.00 66.00" xmlns="http://www.w3.org/2000/svg" xmlns:xlink="http://www.w3.org/1999/xlink">
<g id="graph0" class="graph" transform="scale(1 1) rotate(0) translate(4 62)">
<title>mym_update_fields</title>
<polygon fill="#ffffff" stroke="transparent" points="-4,4 -4,-62 262,-62 262,4 -4,4"/>
<!-- Node0 -->
<g id="node1" class="node">
<title>Node0</title>
<polygon fill="#bfbfbf" stroke="#000000" points="0,-19.5 0,-38.5 113,-38.5 113,-19.5 0,-19.5"/>
<text text-anchor="middle" x="56.5" y="-26.5" font-family="Helvetica,sans-Serif" font-size="10.00" fill="#000000">mym_update_fields</text>
</g>
<!-- Node1 -->
<g id="node2" class="node">
<title>Node1</title>
<g id="a_node2"><a xlink:href="mym__diff__matcoef_8f90.xhtml#a279cd255302dd57de042a474a1957fda" target="_top" xlink:title="SUBROUTINE mym_diffmat_coef SUBROUTINE mym_diffmat_coef Purpose: To calculate tri&#45;diagonal matrix ele...">
<polygon fill="#ffffff" stroke="#000000" points="149,-38.5 149,-57.5 258,-57.5 258,-38.5 149,-38.5"/>
<text text-anchor="middle" x="203.5" y="-45.5" font-family="Helvetica,sans-Serif" font-size="10.00" fill="#000000">mym_diff_matcoef</text>
</a>
</g>
</g>
<!-- Node0&#45;&gt;Node1 -->
<g id="edge1" class="edge">
<title>Node0&#45;&gt;Node1</title>
<path fill="none" stroke="#191970" d="M113.334,-36.3459C121.6052,-37.415 130.1735,-38.5224 138.5896,-39.6102"/>
<polygon fill="#191970" stroke="#191970" points="138.3834,-43.1126 148.7496,-40.9234 139.2807,-36.1703 138.3834,-43.1126"/>
</g>
<!-- Node2 -->
<g id="node3" class="node">
<title>Node2</title>
<g id="a_node3"><a xlink:href="mym__implic_8f90.xhtml#acd7c5c2097976090126e222197c233e1" target="_top" xlink:title="SUBROUTINE mym_implic SUBROUTINE mym_implic Purpose: To solve the tri&#45;diagonal equations for the prog...">
<polygon fill="#ffffff" stroke="#000000" points="165,-.5 165,-19.5 242,-19.5 242,-.5 165,-.5"/>
<text text-anchor="middle" x="203.5" y="-7.5" font-family="Helvetica,sans-Serif" font-size="10.00" fill="#000000">mym_implic</text>
</a>
</g>
</g>
<!-- Node0&#45;&gt;Node2 -->
<g id="edge2" class="edge">
<title>Node0&#45;&gt;Node2</title>
<path fill="none" stroke="#191970" d="M113.334,-21.6541C127.1117,-19.8733 141.7141,-17.9859 155.0634,-16.2605"/>
<polygon fill="#191970" stroke="#191970" points="155.5242,-19.7302 164.993,-14.9771 154.6268,-12.7879 155.5242,-19.7302"/>
</g>
</g>
</svg>
