<?xml version="1.0" encoding="UTF-8" standalone="no"?>
<!DOCTYPE svg PUBLIC "-//W3C//DTD SVG 1.1//EN"
 "http://www.w3.org/Graphics/SVG/1.1/DTD/svg11.dtd">
<!-- Generated by graphviz version 2.40.1 (20161225.0304)
 -->
<!-- Title: mym_length Pages: 1 -->
<svg width="1285pt" height="104pt"
 viewBox="0.00 0.00 1285.00 104.00" xmlns="http://www.w3.org/2000/svg" xmlns:xlink="http://www.w3.org/1999/xlink">
<g id="graph0" class="graph" transform="scale(1 1) rotate(0) translate(4 100)">
<title>mym_length</title>
<polygon fill="#ffffff" stroke="transparent" points="-4,4 -4,-100 1281,-100 1281,4 -4,4"/>
<!-- Node1 -->
<g id="node1" class="node">
<title>Node1</title>
<polygon fill="#bfbfbf" stroke="#000000" points="0,-38.5 0,-57.5 78,-57.5 78,-38.5 0,-38.5"/>
<text text-anchor="middle" x="39" y="-45.5" font-family="Helvetica,sans-Serif" font-size="10.00" fill="#000000">mym_length</text>
</g>
<!-- Node2 -->
<g id="node2" class="node">
<title>Node2</title>
<g id="a_node2"><a xlink:href="ddf__mix__length_8f90.xhtml#acb0ddc995778ad0f71f3e130c51d2a25" target="_top" xlink:title="SUBROUTINE ddf_mix_length SUBROUTINE ddf_mix_length. ">
<polygon fill="#ffffff" stroke="#000000" points="117.5,-76.5 117.5,-95.5 209.5,-95.5 209.5,-76.5 117.5,-76.5"/>
<text text-anchor="middle" x="163.5" y="-83.5" font-family="Helvetica,sans-Serif" font-size="10.00" fill="#000000">ddf_mix_length</text>
</a>
</g>
</g>
<!-- Node1&#45;&gt;Node2 -->
<g id="edge1" class="edge">
<title>Node1&#45;&gt;Node2</title>
<path fill="none" stroke="#191970" d="M80.0696,-60.5353C97.0064,-65.7048 116.3181,-71.5991 132.0934,-76.4141"/>
<polygon fill="#191970" stroke="#191970" points="81.0028,-57.1608 70.4166,-57.589 78.9593,-63.8559 81.0028,-57.1608"/>
</g>
<!-- Node17 -->
<g id="node17" class="node">
<title>Node17</title>
<g id="a_node17"><a xlink:href="mym__initialize_8f90.xhtml#a62fa0be762f0ee634fa52ab4bcbd0d66" target="_top" xlink:title="SUBROUTINE mym_initialize SUBROUTINE mym_initialize. ">
<polygon fill="#ffffff" stroke="#000000" points="119,-38.5 119,-57.5 208,-57.5 208,-38.5 119,-38.5"/>
<text text-anchor="middle" x="163.5" y="-45.5" font-family="Helvetica,sans-Serif" font-size="10.00" fill="#000000">mym_initialize</text>
</a>
</g>
</g>
<!-- Node1&#45;&gt;Node17 -->
<g id="edge18" class="edge">
<title>Node1&#45;&gt;Node17</title>
<path fill="none" stroke="#191970" d="M88.3551,-48C98.4527,-48 109.0237,-48 118.9414,-48"/>
<polygon fill="#191970" stroke="#191970" points="88.051,-44.5001 78.051,-48 88.051,-51.5001 88.051,-44.5001"/>
</g>
<!-- Node19 -->
<g id="node19" class="node">
<title>Node19</title>
<g id="a_node19"><a xlink:href="mym__turbulence_8f90.xhtml#a340927d05acfc8dcbdb0c2b4a07392d1" target="_top" xlink:title="SUBROUTINE mym_turbulence&#45; SUBROUTINE mym_turbulence&#45; Purpose: To calculate the diffusion coefficient...">
<polygon fill="#ffffff" stroke="#000000" points="114,-.5 114,-19.5 213,-19.5 213,-.5 114,-.5"/>
<text text-anchor="middle" x="163.5" y="-7.5" font-family="Helvetica,sans-Serif" font-size="10.00" fill="#000000">mym_turbulence</text>
</a>
</g>
</g>
<!-- Node1&#45;&gt;Node19 -->
<g id="edge21" class="edge">
<title>Node1&#45;&gt;Node19</title>
<path fill="none" stroke="#191970" d="M80.0696,-35.4647C97.0064,-30.2952 116.3181,-24.4009 132.0934,-19.5859"/>
<polygon fill="#191970" stroke="#191970" points="78.9593,-32.1441 70.4166,-38.411 81.0028,-38.8392 78.9593,-32.1441"/>
</g>
<!-- Node3 -->
<g id="node3" class="node">
<title>Node3</title>
<g id="a_node3"><a xlink:href="ddf__ctl_8f90.xhtml#acbd99b399a503a405730ea92e9c560fc" target="_top" xlink:title="SUBROUTINE ddf_ctl SUBROUTINE ddf_ctl. ">
<polygon fill="#ffffff" stroke="#000000" points="365,-57.5 365,-76.5 415,-76.5 415,-57.5 365,-57.5"/>
<text text-anchor="middle" x="390" y="-64.5" font-family="Helvetica,sans-Serif" font-size="10.00" fill="#000000">ddf_ctl</text>
</a>
</g>
</g>
<!-- Node2&#45;&gt;Node3 -->
<g id="edge2" class="edge">
<title>Node2&#45;&gt;Node3</title>
<path fill="none" stroke="#191970" d="M219.9066,-90.1878C252.0543,-91.531 292.9873,-91.4787 329,-86 341.1722,-84.1482 354.257,-80.3302 365.1746,-76.5992"/>
<polygon fill="#191970" stroke="#191970" points="219.9498,-86.686 209.7951,-89.7078 219.6178,-93.6781 219.9498,-86.686"/>
</g>
<!-- Node16 -->
<g id="node16" class="node">
<title>Node16</title>
<g id="a_node16"><a xlink:href="ddf__initialize_8f90.xhtml#a221da5c87ebce905aa1a7dcd20b57ec3" target="_top" xlink:title="SUBROUTINE ddf_initialize SUBROUTINE ddf_initialize Purpose: To set the initial TKE in the first orde...">
<polygon fill="#ffffff" stroke="#000000" points="249,-57.5 249,-76.5 329,-76.5 329,-57.5 249,-57.5"/>
<text text-anchor="middle" x="289" y="-64.5" font-family="Helvetica,sans-Serif" font-size="10.00" fill="#000000">ddf_initialize</text>
</a>
</g>
</g>
<!-- Node2&#45;&gt;Node16 -->
<g id="edge16" class="edge">
<title>Node2&#45;&gt;Node16</title>
<path fill="none" stroke="#191970" d="M219.6357,-77.5014C229.4589,-76.0142 239.5008,-74.4939 248.784,-73.0885"/>
<polygon fill="#191970" stroke="#191970" points="218.8823,-74.0755 209.5189,-79.033 219.9302,-80.9966 218.8823,-74.0755"/>
</g>
<!-- Node4 -->
<g id="node4" class="node">
<title>Node4</title>
<g id="a_node4"><a xlink:href="bdy__expl2__1a_8f90.xhtml#ade33a48b2fdb32d569d9ce52ee13659e" target="_top" xlink:title="SUBROUTINE BDY_EXPL2 SUBROUTINE BDY_EXPL2 Purpose: Calculate the explicit turbulent fluxes of heat...">
<polygon fill="#ffffff" stroke="#000000" points="451,-38.5 451,-57.5 535,-57.5 535,-38.5 451,-38.5"/>
<text text-anchor="middle" x="493" y="-45.5" font-family="Helvetica,sans-Serif" font-size="10.00" fill="#000000">bdy_expl2_1a</text>
</a>
</g>
</g>
<!-- Node3&#45;&gt;Node4 -->
<g id="edge3" class="edge">
<title>Node3&#45;&gt;Node4</title>
<path fill="none" stroke="#191970" d="M425.221,-60.5029C433.4537,-58.9843 442.3051,-57.3515 450.8064,-55.7833"/>
<polygon fill="#191970" stroke="#191970" points="424.3958,-57.096 415.1966,-62.3521 425.6657,-63.9799 424.3958,-57.096"/>
</g>
<!-- Node5 -->
<g id="node5" class="node">
<title>Node5</title>
<g id="a_node5"><a xlink:href="bdy__layr_8f90.xhtml#af7679ff7941f4d90c6fcfd7f286c0a43" target="_top" xlink:title="SUBROUTINE BDY_LAYR&#45; SUBROUTINE BDY_LAYR&#45; Purpose: Calculate turbulent fluxes of heat, moisture and momentum between (a) surface and atmosphere, (b) atmospheric levels within the boundary layer, and/or the effects of these fluxes on the primary model variables. The flux of heat into and through the soil is also modelled. Numerous related diagnostics are also calculated. ">
<polygon fill="#ffffff" stroke="#000000" points="571,-38.5 571,-57.5 630,-57.5 630,-38.5 571,-38.5"/>
<text text-anchor="middle" x="600.5" y="-45.5" font-family="Helvetica,sans-Serif" font-size="10.00" fill="#000000">bdy_layr</text>
</a>
</g>
</g>
<!-- Node4&#45;&gt;Node5 -->
<g id="edge4" class="edge">
<title>Node4&#45;&gt;Node5</title>
<path fill="none" stroke="#191970" d="M545.3366,-48C554.0563,-48 562.8257,-48 570.7259,-48"/>
<polygon fill="#191970" stroke="#191970" points="545.1783,-44.5001 535.1783,-48 545.1783,-51.5001 545.1783,-44.5001"/>
</g>
<!-- Node6 -->
<g id="node6" class="node">
<title>Node6</title>
<g id="a_node6"><a xlink:href="ni__bl__ctl_8f90.xhtml#a84fd4731893010fbf9c31b6e7e2d6b49" target="_top" xlink:title="Subroutine NI_bl_ctl Subroutine NI_bl_ctl &#160;">
<polygon fill="#ffffff" stroke="#000000" points="666,-38.5 666,-57.5 723,-57.5 723,-38.5 666,-38.5"/>
<text text-anchor="middle" x="694.5" y="-45.5" font-family="Helvetica,sans-Serif" font-size="10.00" fill="#000000">ni_bl_ctl</text>
</a>
</g>
</g>
<!-- Node5&#45;&gt;Node6 -->
<g id="edge5" class="edge">
<title>Node5&#45;&gt;Node6</title>
<path fill="none" stroke="#191970" d="M640.4465,-48C649.0065,-48 657.886,-48 665.914,-48"/>
<polygon fill="#191970" stroke="#191970" points="640.2422,-44.5001 630.2422,-48 640.2422,-51.5001 640.2422,-44.5001"/>
</g>
<!-- Node7 -->
<g id="node7" class="node">
<title>Node7</title>
<g id="a_node7"><a xlink:href="atmos__physics2_8f90.xhtml#a0f74e8c75312201121b305cd566b175a" target="_top" xlink:title="Interface to Atmos Physics parametrizations after S&#45;L advection. ">
<polygon fill="#ffffff" stroke="#000000" points="759,-38.5 759,-57.5 854,-57.5 854,-38.5 759,-38.5"/>
<text text-anchor="middle" x="806.5" y="-45.5" font-family="Helvetica,sans-Serif" font-size="10.00" fill="#000000">atmos_physics2</text>
</a>
</g>
</g>
<!-- Node6&#45;&gt;Node7 -->
<g id="edge6" class="edge">
<title>Node6&#45;&gt;Node7</title>
<path fill="none" stroke="#191970" d="M733.1734,-48C741.4495,-48 750.2856,-48 758.8547,-48"/>
<polygon fill="#191970" stroke="#191970" points="733.0522,-44.5001 723.0521,-48 733.0521,-51.5001 733.0522,-44.5001"/>
</g>
<!-- Node8 -->
<g id="node8" class="node">
<title>Node8</title>
<g id="a_node8"><a xlink:href="atm__step_8f90.xhtml#ac0ee2467a1a9959b7065fdb8fd27bce4" target="_top" xlink:title="Perform a 1&#45;timestep integration of the Atmosphere Model. ">
<polygon fill="#ffffff" stroke="#000000" points="899,-76.5 899,-95.5 961,-95.5 961,-76.5 899,-76.5"/>
<text text-anchor="middle" x="930" y="-83.5" font-family="Helvetica,sans-Serif" font-size="10.00" fill="#000000">atm_step</text>
</a>
</g>
</g>
<!-- Node7&#45;&gt;Node8 -->
<g id="edge7" class="edge">
<title>Node7&#45;&gt;Node8</title>
<path fill="none" stroke="#191970" d="M847.2397,-60.5353C864.0405,-65.7048 883.197,-71.5991 898.8457,-76.4141"/>
<polygon fill="#191970" stroke="#191970" points="848.2514,-57.1847 837.6643,-57.589 846.1927,-63.8752 848.2514,-57.1847"/>
</g>
<!-- Node12 -->
<g id="node12" class="node">
<title>Node12</title>
<g id="a_node12"><a xlink:href="atm__step__4_a_8f90.xhtml#a2319aa4963e90c64cd78bdcd5f481095" target="_top" xlink:title="Perform a 1&#45;timestep integration of the Atmosphere Model. ">
<polygon fill="#ffffff" stroke="#000000" points="890,-38.5 890,-57.5 970,-57.5 970,-38.5 890,-38.5"/>
<text text-anchor="middle" x="930" y="-45.5" font-family="Helvetica,sans-Serif" font-size="10.00" fill="#000000">atm_step_4a</text>
</a>
</g>
</g>
<!-- Node7&#45;&gt;Node12 -->
<g id="edge11" class="edge">
<title>Node7&#45;&gt;Node12</title>
<path fill="none" stroke="#191970" d="M864.3434,-48C873.0185,-48 881.7967,-48 889.9897,-48"/>
<polygon fill="#191970" stroke="#191970" points="864.2484,-44.5001 854.2483,-48 864.2483,-51.5001 864.2484,-44.5001"/>
</g>
<!-- Node14 -->
<g id="node14" class="node">
<title>Node14</title>
<g id="a_node14"><a xlink:href="scm__main_8f90.xhtml#a2c730136605550612e094ce51d33a2a5" target="_top" xlink:title="*********************************COPYRIGHT********************************* ">
<polygon fill="#ffffff" stroke="#000000" points="896.5,-.5 896.5,-19.5 963.5,-19.5 963.5,-.5 896.5,-.5"/>
<text text-anchor="middle" x="930" y="-7.5" font-family="Helvetica,sans-Serif" font-size="10.00" fill="#000000">scm_main</text>
</a>
</g>
</g>
<!-- Node7&#45;&gt;Node14 -->
<g id="edge14" class="edge">
<title>Node7&#45;&gt;Node14</title>
<path fill="none" stroke="#191970" d="M847.2397,-35.4647C864.0405,-30.2952 883.197,-24.4009 898.8457,-19.5859"/>
<polygon fill="#191970" stroke="#191970" points="846.1927,-32.1248 837.6643,-38.411 848.2514,-38.8153 846.1927,-32.1248"/>
</g>
<!-- Node9 -->
<g id="node9" class="node">
<title>Node9</title>
<g id="a_node9"><a xlink:href="u__model_8f90.xhtml#ada0cd2ce4699433bf0f9adbd882c8eec" target="_top" xlink:title="Subroutine: U_MODEL &#45;!&gt; ">
<polygon fill="#ffffff" stroke="#000000" points="1014.5,-76.5 1014.5,-95.5 1073.5,-95.5 1073.5,-76.5 1014.5,-76.5"/>
<text text-anchor="middle" x="1044" y="-83.5" font-family="Helvetica,sans-Serif" font-size="10.00" fill="#000000">u_model</text>
</a>
</g>
</g>
<!-- Node8&#45;&gt;Node9 -->
<g id="edge8" class="edge">
<title>Node8&#45;&gt;Node9</title>
<path fill="none" stroke="#191970" d="M971.2532,-86C985.5539,-86 1001.2895,-86 1014.4568,-86"/>
<polygon fill="#191970" stroke="#191970" points="971.151,-82.5001 961.151,-86 971.151,-89.5001 971.151,-82.5001"/>
</g>
<!-- Node10 -->
<g id="node10" class="node">
<title>Node10</title>
<g id="a_node10"><a xlink:href="um__shell_8f90.xhtml#a8c9bd25362824a5c301376ecb5ed5c27" target="_top" xlink:title="Subroutine: UM_SHELL !&gt; ">
<polygon fill="#ffffff" stroke="#000000" points="1118,-57.5 1118,-76.5 1179,-76.5 1179,-57.5 1118,-57.5"/>
<text text-anchor="middle" x="1148.5" y="-64.5" font-family="Helvetica,sans-Serif" font-size="10.00" fill="#000000">um_shell</text>
</a>
</g>
</g>
<!-- Node9&#45;&gt;Node10 -->
<g id="edge9" class="edge">
<title>Node9&#45;&gt;Node10</title>
<path fill="none" stroke="#191970" d="M1083.701,-78.7816C1094.951,-76.7362 1107.0261,-74.5407 1117.6677,-72.6059"/>
<polygon fill="#191970" stroke="#191970" points="1082.8786,-75.3737 1073.666,-80.6062 1084.1308,-82.2608 1082.8786,-75.3737"/>
</g>
<!-- Node11 -->
<g id="node11" class="node">
<title>Node11</title>
<g id="a_node11"><a xlink:href="um__main_8f90.xhtml#a8f2d13215621443a5313261c282f098b" target="_top" xlink:title="Code Owner: See Unified Model Code Owner&#39;s HTML page. ">
<polygon fill="#ffffff" stroke="#000000" points="1215,-57.5 1215,-76.5 1277,-76.5 1277,-57.5 1215,-57.5"/>
<text text-anchor="middle" x="1246" y="-64.5" font-family="Helvetica,sans-Serif" font-size="10.00" fill="#000000">um_main</text>
</a>
</g>
</g>
<!-- Node10&#45;&gt;Node11 -->
<g id="edge10" class="edge">
<title>Node10&#45;&gt;Node11</title>
<path fill="none" stroke="#191970" d="M1189.2756,-67C1197.8294,-67 1206.72,-67 1214.8551,-67"/>
<polygon fill="#191970" stroke="#191970" points="1189.0821,-63.5001 1179.0821,-67 1189.0821,-70.5001 1189.0821,-63.5001"/>
</g>
<!-- Node13 -->
<g id="node13" class="node">
<title>Node13</title>
<g id="a_node13"><a xlink:href="u__model__4_a_8f90.xhtml#afa05064dab5eba198b461d0928767c7e" target="_top" xlink:title="LL Subroutine: U_MODEL_4A (ENDGAME VERSION) !&gt;LL. ">
<polygon fill="#ffffff" stroke="#000000" points="1006,-38.5 1006,-57.5 1082,-57.5 1082,-38.5 1006,-38.5"/>
<text text-anchor="middle" x="1044" y="-45.5" font-family="Helvetica,sans-Serif" font-size="10.00" fill="#000000">u_model_4a</text>
</a>
</g>
</g>
<!-- Node12&#45;&gt;Node13 -->
<g id="edge12" class="edge">
<title>Node12&#45;&gt;Node13</title>
<path fill="none" stroke="#191970" d="M980.3998,-48C988.891,-48 997.5803,-48 1005.7002,-48"/>
<polygon fill="#191970" stroke="#191970" points="980.1922,-44.5001 970.1921,-48 980.1921,-51.5001 980.1922,-44.5001"/>
</g>
<!-- Node13&#45;&gt;Node10 -->
<g id="edge13" class="edge">
<title>Node13&#45;&gt;Node10</title>
<path fill="none" stroke="#191970" d="M1091.8728,-56.7041C1100.7087,-58.3107 1109.7128,-59.9478 1117.8647,-61.43"/>
<polygon fill="#191970" stroke="#191970" points="1092.4873,-53.2586 1082.0225,-54.9132 1091.2351,-60.1457 1092.4873,-53.2586"/>
</g>
<!-- Node15 -->
<g id="node15" class="node">
<title>Node15</title>
<g id="a_node15"><a xlink:href="scm__shell_8f90.xhtml#ab15255829ee7b5be626b1c0861b40c8d" target="_top" xlink:title="scm_shell is the main calling program for the Single Column Model. ">
<polygon fill="#ffffff" stroke="#000000" points="1011.5,-.5 1011.5,-19.5 1076.5,-19.5 1076.5,-.5 1011.5,-.5"/>
<text text-anchor="middle" x="1044" y="-7.5" font-family="Helvetica,sans-Serif" font-size="10.00" fill="#000000">scm_shell</text>
</a>
</g>
</g>
<!-- Node14&#45;&gt;Node15 -->
<g id="edge15" class="edge">
<title>Node14&#45;&gt;Node15</title>
<path fill="none" stroke="#191970" d="M973.8248,-10C986.3307,-10 999.7319,-10 1011.4371,-10"/>
<polygon fill="#191970" stroke="#191970" points="973.5872,-6.5001 963.5872,-10 973.5871,-13.5001 973.5872,-6.5001"/>
</g>
<!-- Node16&#45;&gt;Node3 -->
<g id="edge17" class="edge">
<title>Node16&#45;&gt;Node3</title>
<path fill="none" stroke="#191970" d="M339.4549,-67C348.2386,-67 357.0242,-67 364.7486,-67"/>
<polygon fill="#191970" stroke="#191970" points="339.2081,-63.5001 329.2081,-67 339.208,-70.5001 339.2081,-63.5001"/>
</g>
<!-- Node18 -->
<g id="node18" class="node">
<title>Node18</title>
<g id="a_node18"><a xlink:href="mym__ctl_8f90.xhtml#a4d61cf02f805c8691e06e466c5101359" target="_top" xlink:title="SUBROUTINE mym_ctl SUBROUTINE mym_ctl. ">
<polygon fill="#ffffff" stroke="#000000" points="259.5,-19.5 259.5,-38.5 318.5,-38.5 318.5,-19.5 259.5,-19.5"/>
<text text-anchor="middle" x="289" y="-26.5" font-family="Helvetica,sans-Serif" font-size="10.00" fill="#000000">mym_ctl</text>
</a>
</g>
</g>
<!-- Node17&#45;&gt;Node18 -->
<g id="edge19" class="edge">
<title>Node17&#45;&gt;Node18</title>
<path fill="none" stroke="#191970" d="M218.2718,-39.7079C232.4327,-37.564 247.1446,-35.3367 259.4593,-33.4723"/>
<polygon fill="#191970" stroke="#191970" points="217.4634,-36.2903 208.1,-41.2478 218.5112,-43.2114 217.4634,-36.2903"/>
</g>
<!-- Node18&#45;&gt;Node4 -->
<g id="edge20" class="edge">
<title>Node18&#45;&gt;Node4</title>
<path fill="none" stroke="#191970" d="M329.0297,-32.7283C364.1786,-36.0019 415.1377,-40.7481 450.8925,-44.0782"/>
<polygon fill="#191970" stroke="#191970" points="328.9449,-29.2053 318.6634,-31.7628 328.2957,-36.1751 328.9449,-29.2053"/>
</g>
<!-- Node19&#45;&gt;Node18 -->
<g id="edge22" class="edge">
<title>Node19&#45;&gt;Node18</title>
<path fill="none" stroke="#191970" d="M223.0996,-19.0231C235.6604,-20.9247 248.3899,-22.8519 259.2682,-24.4988"/>
<polygon fill="#191970" stroke="#191970" points="223.5122,-15.5457 213.1009,-17.5093 222.4643,-22.4668 223.5122,-15.5457"/>
</g>
</g>
</svg>
