<?xml version="1.0" encoding="UTF-8" standalone="no"?>
<!DOCTYPE svg PUBLIC "-//W3C//DTD SVG 1.1//EN"
 "http://www.w3.org/Graphics/SVG/1.1/DTD/svg11.dtd">
<!-- Generated by graphviz version 2.40.1 (20161225.0304)
 -->
<!-- Title: umprintmgr::umprintopenstream Pages: 1 -->
<svg width="682pt" height="28pt"
 viewBox="0.00 0.00 682.00 28.00" xmlns="http://www.w3.org/2000/svg" xmlns:xlink="http://www.w3.org/1999/xlink">
<g id="graph0" class="graph" transform="scale(1 1) rotate(0) translate(4 24)">
<title>umprintmgr::umprintopenstream</title>
<polygon fill="#ffffff" stroke="transparent" points="-4,4 -4,-24 678,-24 678,4 -4,4"/>
<!-- Node2408 -->
<g id="node1" class="node">
<title>Node2408</title>
<polygon fill="#bfbfbf" stroke="#000000" points="0,-.5 0,-19.5 177,-19.5 177,-.5 0,-.5"/>
<text text-anchor="middle" x="88.5" y="-7.5" font-family="Helvetica,sans-Serif" font-size="10.00" fill="#000000">umprintmgr::umprintopenstream</text>
</g>
<!-- Node2409 -->
<g id="node2" class="node">
<title>Node2409</title>
<g id="a_node2"><a xlink:href="namespaceumprintmgr.xhtml#aae44897e556705dbf5e945a26538be9a" target="_top" xlink:title="umprintmgr::umprint">
<polygon fill="#ffffff" stroke="#000000" points="213,-.5 213,-19.5 332,-19.5 332,-.5 213,-.5"/>
<text text-anchor="middle" x="272.5" y="-7.5" font-family="Helvetica,sans-Serif" font-size="10.00" fill="#000000">umprintmgr::umprint</text>
</a>
</g>
</g>
<!-- Node2408&#45;&gt;Node2409 -->
<g id="edge1" class="edge">
<title>Node2408&#45;&gt;Node2409</title>
<path fill="none" stroke="#191970" d="M177.2662,-3.2537C185.825,-3.2341 194.4212,-3.2924 202.758,-3.4287"/>
<polygon fill="#191970" stroke="#191970" points="202.7088,-6.9284 212.7783,-3.6337 202.852,.0702 202.7088,-6.9284"/>
</g>
<!-- Node2409&#45;&gt;Node2408 -->
<g id="edge2" class="edge">
<title>Node2409&#45;&gt;Node2408</title>
<path fill="none" stroke="#191970" d="M212.7783,-16.3663C204.6129,-16.5682 196.0589,-16.6905 187.4231,-16.733"/>
<polygon fill="#191970" stroke="#191970" points="187.2616,-13.2331 177.2662,-16.7463 187.2708,-20.2331 187.2616,-13.2331"/>
</g>
<!-- Node2410 -->
<g id="node3" class="node">
<title>Node2410</title>
<g id="a_node3"><a xlink:href="namespaceumprintmgr.xhtml#ad3a290b30a6e25500eabc0bf90330b77" target="_top" xlink:title="umprintmgr::umprintflush">
<polygon fill="#ffffff" stroke="#000000" points="368,-.5 368,-19.5 510,-19.5 510,-.5 368,-.5"/>
<text text-anchor="middle" x="439" y="-7.5" font-family="Helvetica,sans-Serif" font-size="10.00" fill="#000000">umprintmgr::umprintflush</text>
</a>
</g>
</g>
<!-- Node2409&#45;&gt;Node2410 -->
<g id="edge3" class="edge">
<title>Node2409&#45;&gt;Node2410</title>
<path fill="none" stroke="#191970" d="M332.14,-10C340.4564,-10 349.1155,-10 357.7459,-10"/>
<polygon fill="#191970" stroke="#191970" points="357.8419,-13.5001 367.8419,-10 357.8419,-6.5001 357.8419,-13.5001"/>
</g>
<!-- Node2411 -->
<g id="node4" class="node">
<title>Node2411</title>
<g id="a_node4"><a xlink:href="namespaceumflush__mod.xhtml#a3a003ab59990bdcb712b443dd5e0d1cd" target="_top" xlink:title="umflush_mod::umflush">
<polygon fill="#ffffff" stroke="#000000" points="546,-.5 546,-19.5 674,-19.5 674,-.5 546,-.5"/>
<text text-anchor="middle" x="610" y="-7.5" font-family="Helvetica,sans-Serif" font-size="10.00" fill="#000000">umflush_mod::umflush</text>
</a>
</g>
</g>
<!-- Node2410&#45;&gt;Node2411 -->
<g id="edge4" class="edge">
<title>Node2410&#45;&gt;Node2411</title>
<path fill="none" stroke="#191970" d="M510.0338,-10C518.4494,-10 527.0575,-10 535.5192,-10"/>
<polygon fill="#191970" stroke="#191970" points="535.7453,-13.5001 545.7453,-10 535.7452,-6.5001 535.7453,-13.5001"/>
</g>
</g>
</svg>
