<?xml version="1.0" encoding="UTF-8" standalone="no"?>
<!DOCTYPE svg PUBLIC "-//W3C//DTD SVG 1.1//EN"
 "http://www.w3.org/Graphics/SVG/1.1/DTD/svg11.dtd">
<!-- Generated by graphviz version 2.40.1 (20161225.0304)
 -->
<!-- Title: diagnostics_stph_mod::diagnostics_stph Pages: 1 -->
<svg width="718pt" height="66pt"
 viewBox="0.00 0.00 718.00 66.00" xmlns="http://www.w3.org/2000/svg" xmlns:xlink="http://www.w3.org/1999/xlink">
<g id="graph0" class="graph" transform="scale(1 1) rotate(0) translate(4 62)">
<title>diagnostics_stph_mod::diagnostics_stph</title>
<polygon fill="#ffffff" stroke="transparent" points="-4,4 -4,-62 714,-62 714,4 -4,4"/>
<!-- Node8 -->
<g id="node1" class="node">
<title>Node8</title>
<polygon fill="#bfbfbf" stroke="#000000" points="0,-14 0,-44 125,-44 125,-14 0,-14"/>
<text text-anchor="start" x="8" y="-32" font-family="Helvetica,sans-Serif" font-size="10.00" fill="#000000">diagnostics_stph_mod</text>
<text text-anchor="middle" x="62.5" y="-21" font-family="Helvetica,sans-Serif" font-size="10.00" fill="#000000">::diagnostics_stph</text>
</g>
<!-- Node9 -->
<g id="node2" class="node">
<title>Node9</title>
<g id="a_node2"><a xlink:href="namespacestph__skeb2__mod.xhtml#a51dcab695adc5e23d75a09d6f08eade4" target="_top" xlink:title="stph_skeb2_mod::stph\l_skeb2">
<polygon fill="#ffffff" stroke="#000000" points="161,-14 161,-44 287,-44 287,-14 161,-14"/>
<text text-anchor="start" x="169" y="-32" font-family="Helvetica,sans-Serif" font-size="10.00" fill="#000000">stph_skeb2_mod::stph</text>
<text text-anchor="middle" x="224" y="-21" font-family="Helvetica,sans-Serif" font-size="10.00" fill="#000000">_skeb2</text>
</a>
</g>
</g>
<!-- Node8&#45;&gt;Node9 -->
<g id="edge1" class="edge">
<title>Node8&#45;&gt;Node9</title>
<path fill="none" stroke="#191970" d="M135.5689,-29C143.9693,-29 152.4815,-29 160.7376,-29"/>
<polygon fill="#191970" stroke="#191970" points="135.4026,-25.5001 125.4026,-29 135.4025,-32.5001 135.4026,-25.5001"/>
</g>
<!-- Node10 -->
<g id="node3" class="node">
<title>Node10</title>
<g id="a_node3"><a xlink:href="atm__step_8f90.xhtml#ac0ee2467a1a9959b7065fdb8fd27bce4" target="_top" xlink:title="Perform a 1&#45;timestep integration of the Atmosphere Model. ">
<polygon fill="#ffffff" stroke="#000000" points="332,-38.5 332,-57.5 394,-57.5 394,-38.5 332,-38.5"/>
<text text-anchor="middle" x="363" y="-45.5" font-family="Helvetica,sans-Serif" font-size="10.00" fill="#000000">atm_step</text>
</a>
</g>
</g>
<!-- Node9&#45;&gt;Node10 -->
<g id="edge2" class="edge">
<title>Node9&#45;&gt;Node10</title>
<path fill="none" stroke="#191970" d="M297.574,-39.0569C309.6798,-40.7116 321.6202,-42.3438 331.9193,-43.7516"/>
<polygon fill="#191970" stroke="#191970" points="297.7805,-35.5526 287.3986,-37.666 296.8324,-42.4881 297.7805,-35.5526"/>
</g>
<!-- Node14 -->
<g id="node7" class="node">
<title>Node14</title>
<g id="a_node7"><a xlink:href="atm__step__4_a_8f90.xhtml#a2319aa4963e90c64cd78bdcd5f481095" target="_top" xlink:title="Perform a 1&#45;timestep integration of the Atmosphere Model. ">
<polygon fill="#ffffff" stroke="#000000" points="323,-.5 323,-19.5 403,-19.5 403,-.5 323,-.5"/>
<text text-anchor="middle" x="363" y="-7.5" font-family="Helvetica,sans-Serif" font-size="10.00" fill="#000000">atm_step_4a</text>
</a>
</g>
</g>
<!-- Node9&#45;&gt;Node14 -->
<g id="edge6" class="edge">
<title>Node9&#45;&gt;Node14</title>
<path fill="none" stroke="#191970" d="M297.574,-18.9431C306.2363,-17.7591 314.814,-16.5866 322.7663,-15.4996"/>
<polygon fill="#191970" stroke="#191970" points="296.8324,-15.5119 287.3986,-20.334 297.7805,-22.4474 296.8324,-15.5119"/>
</g>
<!-- Node11 -->
<g id="node4" class="node">
<title>Node11</title>
<g id="a_node4"><a xlink:href="u__model_8f90.xhtml#ada0cd2ce4699433bf0f9adbd882c8eec" target="_top" xlink:title="Subroutine: U_MODEL &#45;!&gt; ">
<polygon fill="#ffffff" stroke="#000000" points="447.5,-38.5 447.5,-57.5 506.5,-57.5 506.5,-38.5 447.5,-38.5"/>
<text text-anchor="middle" x="477" y="-45.5" font-family="Helvetica,sans-Serif" font-size="10.00" fill="#000000">u_model</text>
</a>
</g>
</g>
<!-- Node10&#45;&gt;Node11 -->
<g id="edge3" class="edge">
<title>Node10&#45;&gt;Node11</title>
<path fill="none" stroke="#191970" d="M404.2532,-48C418.5539,-48 434.2895,-48 447.4568,-48"/>
<polygon fill="#191970" stroke="#191970" points="404.151,-44.5001 394.151,-48 404.151,-51.5001 404.151,-44.5001"/>
</g>
<!-- Node12 -->
<g id="node5" class="node">
<title>Node12</title>
<g id="a_node5"><a xlink:href="um__shell_8f90.xhtml#a8c9bd25362824a5c301376ecb5ed5c27" target="_top" xlink:title="Subroutine: UM_SHELL !&gt; ">
<polygon fill="#ffffff" stroke="#000000" points="551,-19.5 551,-38.5 612,-38.5 612,-19.5 551,-19.5"/>
<text text-anchor="middle" x="581.5" y="-26.5" font-family="Helvetica,sans-Serif" font-size="10.00" fill="#000000">um_shell</text>
</a>
</g>
</g>
<!-- Node11&#45;&gt;Node12 -->
<g id="edge4" class="edge">
<title>Node11&#45;&gt;Node12</title>
<path fill="none" stroke="#191970" d="M516.701,-40.7816C527.951,-38.7362 540.0261,-36.5407 550.6677,-34.6059"/>
<polygon fill="#191970" stroke="#191970" points="515.8786,-37.3737 506.666,-42.6062 517.1308,-44.2608 515.8786,-37.3737"/>
</g>
<!-- Node13 -->
<g id="node6" class="node">
<title>Node13</title>
<g id="a_node6"><a xlink:href="um__main_8f90.xhtml#a8f2d13215621443a5313261c282f098b" target="_top" xlink:title="Code Owner: See Unified Model Code Owner&#39;s HTML page. ">
<polygon fill="#ffffff" stroke="#000000" points="648,-19.5 648,-38.5 710,-38.5 710,-19.5 648,-19.5"/>
<text text-anchor="middle" x="679" y="-26.5" font-family="Helvetica,sans-Serif" font-size="10.00" fill="#000000">um_main</text>
</a>
</g>
</g>
<!-- Node12&#45;&gt;Node13 -->
<g id="edge5" class="edge">
<title>Node12&#45;&gt;Node13</title>
<path fill="none" stroke="#191970" d="M622.2756,-29C630.8294,-29 639.72,-29 647.8551,-29"/>
<polygon fill="#191970" stroke="#191970" points="622.0821,-25.5001 612.0821,-29 622.0821,-32.5001 622.0821,-25.5001"/>
</g>
<!-- Node15 -->
<g id="node8" class="node">
<title>Node15</title>
<g id="a_node8"><a xlink:href="u__model__4_a_8f90.xhtml#afa05064dab5eba198b461d0928767c7e" target="_top" xlink:title="LL Subroutine: U_MODEL_4A (ENDGAME VERSION) !&gt;LL. ">
<polygon fill="#ffffff" stroke="#000000" points="439,-.5 439,-19.5 515,-19.5 515,-.5 439,-.5"/>
<text text-anchor="middle" x="477" y="-7.5" font-family="Helvetica,sans-Serif" font-size="10.00" fill="#000000">u_model_4a</text>
</a>
</g>
</g>
<!-- Node14&#45;&gt;Node15 -->
<g id="edge7" class="edge">
<title>Node14&#45;&gt;Node15</title>
<path fill="none" stroke="#191970" d="M413.3998,-10C421.891,-10 430.5803,-10 438.7002,-10"/>
<polygon fill="#191970" stroke="#191970" points="413.1922,-6.5001 403.1921,-10 413.1921,-13.5001 413.1922,-6.5001"/>
</g>
<!-- Node15&#45;&gt;Node12 -->
<g id="edge8" class="edge">
<title>Node15&#45;&gt;Node12</title>
<path fill="none" stroke="#191970" d="M524.8728,-18.7041C533.7087,-20.3107 542.7128,-21.9478 550.8647,-23.43"/>
<polygon fill="#191970" stroke="#191970" points="525.4873,-15.2586 515.0225,-16.9132 524.2351,-22.1457 525.4873,-15.2586"/>
</g>
</g>
</svg>
