<?xml version="1.0" encoding="UTF-8" standalone="no"?>
<!DOCTYPE svg PUBLIC "-//W3C//DTD SVG 1.1//EN"
 "http://www.w3.org/Graphics/SVG/1.1/DTD/svg11.dtd">
<!-- Generated by graphviz version 2.40.1 (20161225.0304)
 -->
<!-- Title: getob3_mod::getob3 Pages: 1 -->
<!--zoomable 66 -->
<svg id="main" version="1.1" xmlns="http://www.w3.org/2000/svg" xmlns:xlink="http://www.w3.org/1999/xlink" xml:space="preserve" onload="init(evt)">
<style type="text/css"><![CDATA[
.edge:hover path { stroke: red; }
.edge:hover polygon { stroke: red; fill: red; }
]]></style>
<script type="text/javascript"><![CDATA[
var edges = document.getElementsByTagName('g');
if (edges && edges.length) {
  for (var i=0;i<edges.length;i++) {
    if (edges[i].id.substr(0,4)=='edge') {
      edges[i].setAttribute('class','edge');
    }
  }
}
]]></script>
        <defs>
                <circle id="rim" cx="0" cy="0" r="7"/>
                <circle id="rim2" cx="0" cy="0" r="3.5"/>
                <g id="zoomPlus">
                        <use xlink:href="#rim" fill="#404040">
                                <set attributeName="fill" to="#808080" begin="zoomplus.mouseover" end="zoomplus.mouseout"/>
                        </use>
                        <path d="M-4,0h8M0,-4v8" fill="none" stroke="white" stroke-width="1.5" pointer-events="none"/>
                </g>
                <g id="zoomMin">
                        <use xlink:href="#rim" fill="#404040">
                                <set attributeName="fill" to="#808080" begin="zoomminus.mouseover" end="zoomminus.mouseout"/>
                        </use>
                        <path d="M-4,0h8" fill="none" stroke="white" stroke-width="1.5" pointer-events="none"/>
                </g>
                <g id="dirArrow">
                        <path fill="none" stroke="white" stroke-width="1.5" d="M0,-3.0v7 M-2.5,-0.5L0,-3.0L2.5,-0.5"/>
                </g>
               <g id="resetDef">
                       <use xlink:href="#rim2" fill="#404040">
                               <set attributeName="fill" to="#808080" begin="reset.mouseover" end="reset.mouseout"/>
                       </use>
               </g>
        </defs>

<script type="text/javascript">
var viewWidth = 736;
var viewHeight = 66;
var sectionId = 'dynsection-0';
</script>
<script xlink:href="svgpan.js"/>
<svg id="graph" class="graph">
<g id="viewport">
<title>getob3_mod::getob3</title>
<polygon fill="#ffffff" stroke="transparent" points="-4,4 -4,-62 732,-62 732,4 -4,4"/>
<!-- Node0 -->
<g id="node1" class="node">
<title>Node0</title>
<polygon fill="#bfbfbf" stroke="#000000" points="0,-38.5 0,-57.5 117,-57.5 117,-38.5 0,-38.5"/>
<text text-anchor="middle" x="58.5" y="-45.5" font-family="Helvetica,sans-Serif" font-size="10.00" fill="#000000">getob3_mod::getob3</text>
</g>
<!-- Node1 -->
<g id="node2" class="node">
<title>Node1</title>
<g id="a_node2"><a xlink:href="timer-timer1a_8f90.xhtml#a9ec0272078965f809aa1a1cbc6a05ea4" target="_top" xlink:title="timer">
<polygon fill="#ffffff" stroke="#000000" points="153,-38.5 153,-57.5 196,-57.5 196,-38.5 153,-38.5"/>
<text text-anchor="middle" x="174.5" y="-45.5" font-family="Helvetica,sans-Serif" font-size="10.00" fill="#000000">timer</text>
</a>
</g>
</g>
<!-- Node0&#45;&gt;Node1 -->
<g id="edge1" class="edge">
<title>Node0&#45;&gt;Node1</title>
<path fill="none" stroke="#191970" d="M117.1797,-48C125.9882,-48 134.7758,-48 142.7297,-48"/>
<polygon fill="#191970" stroke="#191970" points="142.9828,-51.5001 152.9828,-48 142.9828,-44.5001 142.9828,-51.5001"/>
</g>
<!-- Node2 -->
<g id="node3" class="node">
<title>Node2</title>
<g id="a_node3"><a xlink:href="namespaceumprintmgr.xhtml#aae44897e556705dbf5e945a26538be9a" target="_top" xlink:title="umprintmgr::umprint">
<polygon fill="#ffffff" stroke="#000000" points="232,-38.5 232,-57.5 351,-57.5 351,-38.5 232,-38.5"/>
<text text-anchor="middle" x="291.5" y="-45.5" font-family="Helvetica,sans-Serif" font-size="10.00" fill="#000000">umprintmgr::umprint</text>
</a>
</g>
</g>
<!-- Node1&#45;&gt;Node2 -->
<g id="edge2" class="edge">
<title>Node1&#45;&gt;Node2</title>
<path fill="none" stroke="#191970" d="M196.2326,-48C203.7064,-48 212.5267,-48 221.7339,-48"/>
<polygon fill="#191970" stroke="#191970" points="221.8312,-51.5001 231.8312,-48 221.8311,-44.5001 221.8312,-51.5001"/>
</g>
<!-- Node3 -->
<g id="node4" class="node">
<title>Node3</title>
<g id="a_node4"><a xlink:href="namespaceumprintmgr.xhtml#a088ce22a18d574e9df7ee1850bfb10c7" target="_top" xlink:title="umprintmgr::umprintopenstream">
<polygon fill="#ffffff" stroke="#000000" points="387,-38.5 387,-57.5 564,-57.5 564,-38.5 387,-38.5"/>
<text text-anchor="middle" x="475.5" y="-45.5" font-family="Helvetica,sans-Serif" font-size="10.00" fill="#000000">umprintmgr::umprintopenstream</text>
</a>
</g>
</g>
<!-- Node2&#45;&gt;Node3 -->
<g id="edge3" class="edge">
<title>Node2&#45;&gt;Node3</title>
<path fill="none" stroke="#191970" d="M351.2395,-41.6333C359.4605,-41.4301 368.0751,-41.3077 376.7702,-41.2661"/>
<polygon fill="#191970" stroke="#191970" points="376.9998,-44.7659 386.9958,-41.2543 376.9917,-37.7659 376.9998,-44.7659"/>
</g>
<!-- Node4 -->
<g id="node5" class="node">
<title>Node4</title>
<g id="a_node5"><a xlink:href="namespaceumprintmgr.xhtml#ad3a290b30a6e25500eabc0bf90330b77" target="_top" xlink:title="umprintmgr::umprintflush">
<polygon fill="#ffffff" stroke="#000000" points="404.5,-.5 404.5,-19.5 546.5,-19.5 546.5,-.5 404.5,-.5"/>
<text text-anchor="middle" x="475.5" y="-7.5" font-family="Helvetica,sans-Serif" font-size="10.00" fill="#000000">umprintmgr::umprintflush</text>
</a>
</g>
</g>
<!-- Node2&#45;&gt;Node4 -->
<g id="edge5" class="edge">
<title>Node2&#45;&gt;Node4</title>
<path fill="none" stroke="#191970" d="M337.931,-38.411C362.6493,-33.3061 393.239,-26.9887 419.292,-21.6082"/>
<polygon fill="#191970" stroke="#191970" points="420.3175,-24.9703 429.4029,-19.5201 418.9017,-18.115 420.3175,-24.9703"/>
</g>
<!-- Node3&#45;&gt;Node2 -->
<g id="edge4" class="edge">
<title>Node3&#45;&gt;Node2</title>
<path fill="none" stroke="#191970" d="M386.9958,-54.7457C378.3802,-54.767 369.7236,-54.7094 361.3289,-54.5727"/>
<polygon fill="#191970" stroke="#191970" points="361.3089,-51.0716 351.2395,-54.3667 361.166,-58.0702 361.3089,-51.0716"/>
</g>
<!-- Node5 -->
<g id="node6" class="node">
<title>Node5</title>
<g id="a_node6"><a xlink:href="namespaceumflush__mod.xhtml#a3a003ab59990bdcb712b443dd5e0d1cd" target="_top" xlink:title="umflush_mod::umflush">
<polygon fill="#ffffff" stroke="#000000" points="600,-.5 600,-19.5 728,-19.5 728,-.5 600,-.5"/>
<text text-anchor="middle" x="664" y="-7.5" font-family="Helvetica,sans-Serif" font-size="10.00" fill="#000000">umflush_mod::umflush</text>
</a>
</g>
</g>
<!-- Node4&#45;&gt;Node5 -->
<g id="edge6" class="edge">
<title>Node4&#45;&gt;Node5</title>
<path fill="none" stroke="#191970" d="M546.7638,-10C560.7742,-10 575.5063,-10 589.6162,-10"/>
<polygon fill="#191970" stroke="#191970" points="589.7612,-13.5001 599.7611,-10 589.7611,-6.5001 589.7612,-13.5001"/>
</g>
</g>
</svg>
        <g id="navigator" transform="translate(0 0)" fill="#404254">
                <rect fill="#f2f5e9" fill-opacity="0.5" stroke="#606060" stroke-width=".5" x="0" y="0" width="60" height="60"/>
                <use id="zoomplus" xlink:href="#zoomPlus" x="17" y="9" onmousedown="handleZoom(evt,'in')"/>
                <use id="zoomminus" xlink:href="#zoomMin" x="42" y="9" onmousedown="handleZoom(evt,'out')"/>
                <use id="reset" xlink:href="#resetDef" x="30" y="36" onmousedown="handleReset()"/>
                <g id="arrowUp" xlink:href="#dirArrow" transform="translate(30 24)" onmousedown="handlePan(0,-1)">
                  <use xlink:href="#rim" fill="#404040">
                        <set attributeName="fill" to="#808080" begin="arrowUp.mouseover" end="arrowUp.mouseout"/>
                  </use>
                  <path fill="none" stroke="white" stroke-width="1.5" d="M0,-3.0v7 M-2.5,-0.5L0,-3.0L2.5,-0.5"/>
                </g>
                <g id="arrowRight" xlink:href="#dirArrow" transform="rotate(90) translate(36 -43)" onmousedown="handlePan(1,0)">
                  <use xlink:href="#rim" fill="#404040">
                        <set attributeName="fill" to="#808080" begin="arrowRight.mouseover" end="arrowRight.mouseout"/>
                  </use>
                  <path fill="none" stroke="white" stroke-width="1.5" d="M0,-3.0v7 M-2.5,-0.5L0,-3.0L2.5,-0.5"/>
                </g>
                <g id="arrowDown" xlink:href="#dirArrow" transform="rotate(180) translate(-30 -48)" onmousedown="handlePan(0,1)">
                  <use xlink:href="#rim" fill="#404040">
                        <set attributeName="fill" to="#808080" begin="arrowDown.mouseover" end="arrowDown.mouseout"/>
                  </use>
                  <path fill="none" stroke="white" stroke-width="1.5" d="M0,-3.0v7 M-2.5,-0.5L0,-3.0L2.5,-0.5"/>
                </g>
                <g id="arrowLeft" xlink:href="#dirArrow" transform="rotate(270) translate(-36 17)" onmousedown="handlePan(-1,0)">
                  <use xlink:href="#rim" fill="#404040">
                        <set attributeName="fill" to="#808080" begin="arrowLeft.mouseover" end="arrowLeft.mouseout"/>
                  </use>
                  <path fill="none" stroke="white" stroke-width="1.5" d="M0,-3.0v7 M-2.5,-0.5L0,-3.0L2.5,-0.5"/>
                </g>
        </g>
        <svg viewBox="0 0 15 15" width="100%" height="30px" preserveAspectRatio="xMaxYMin meet">
         <g id="arrow_out" transform="scale(0.3 0.3)">
          <a xlink:href="namespacegetob3__mod_a05bb2093eb97f2466bce02c9ff78dd26_cgraph_org.svg" target="_base">
           <rect id="button" ry="5" rx="5" y="6" x="6" height="38" width="38"
                fill="#f2f5e9" fill-opacity="0.5" stroke="#606060" stroke-width="1.0"/>
           <path id="arrow"
             d="M 11.500037,31.436501 C 11.940474,20.09759 22.043105,11.32322 32.158766,21.979434 L 37.068811,17.246167 C 37.068811,17.246167 37.088388,32 37.088388,32 L 22.160133,31.978069 C 22.160133,31.978069 26.997745,27.140456 26.997745,27.140456 C 18.528582,18.264221 13.291696,25.230495 11.500037,31.436501 z"
             style="fill:#404040;"/>
          </a>
         </g>
        </svg>
</svg>
