<?xml version="1.0" encoding="UTF-8" standalone="no"?>
<!DOCTYPE svg PUBLIC "-//W3C//DTD SVG 1.1//EN"
 "http://www.w3.org/Graphics/SVG/1.1/DTD/svg11.dtd">
<!-- Generated by graphviz version 2.40.1 (20161225.0304)
 -->
<!-- Title: tcs_wql::calc_wql_warm Pages: 1 -->
<svg width="1156pt" height="104pt"
 viewBox="0.00 0.00 1156.00 104.00" xmlns="http://www.w3.org/2000/svg" xmlns:xlink="http://www.w3.org/1999/xlink">
<g id="graph0" class="graph" transform="scale(1 1) rotate(0) translate(4 100)">
<title>tcs_wql::calc_wql_warm</title>
<polygon fill="#ffffff" stroke="transparent" points="-4,4 -4,-100 1152,-100 1152,4 -4,4"/>
<!-- Node1 -->
<g id="node1" class="node">
<title>Node1</title>
<polygon fill="#bfbfbf" stroke="#000000" points="0,-38.5 0,-57.5 134,-57.5 134,-38.5 0,-38.5"/>
<text text-anchor="middle" x="67" y="-45.5" font-family="Helvetica,sans-Serif" font-size="10.00" fill="#000000">tcs_wql::calc_wql_warm</text>
</g>
<!-- Node2 -->
<g id="node2" class="node">
<title>Node2</title>
<g id="a_node2"><a xlink:href="namespacetcs__warm__mod.xhtml#aced91fe089a4982ec97b3cef531e1a21" target="_top" xlink:title="tcs_warm_mod::tcs_warm">
<polygon fill="#ffffff" stroke="#000000" points="170,-38.5 170,-57.5 314,-57.5 314,-38.5 170,-38.5"/>
<text text-anchor="middle" x="242" y="-45.5" font-family="Helvetica,sans-Serif" font-size="10.00" fill="#000000">tcs_warm_mod::tcs_warm</text>
</a>
</g>
</g>
<!-- Node1&#45;&gt;Node2 -->
<g id="edge1" class="edge">
<title>Node1&#45;&gt;Node2</title>
<path fill="none" stroke="#191970" d="M144.3795,-48C152.8279,-48 161.4039,-48 169.7867,-48"/>
<polygon fill="#191970" stroke="#191970" points="144.1591,-44.5001 134.1591,-48 144.159,-51.5001 144.1591,-44.5001"/>
</g>
<!-- Node3 -->
<g id="node3" class="node">
<title>Node3</title>
<g id="a_node3"><a xlink:href="namespaceglue__conv__6a__mod.xhtml#a6d5d1edc7767ff4cca5aa84b5368b646" target="_top" xlink:title="glue_conv_6a_mod::glue\l_conv_6a">
<polygon fill="#ffffff" stroke="#000000" points="350,-33 350,-63 487,-63 487,-33 350,-33"/>
<text text-anchor="start" x="358" y="-51" font-family="Helvetica,sans-Serif" font-size="10.00" fill="#000000">glue_conv_6a_mod::glue</text>
<text text-anchor="middle" x="418.5" y="-40" font-family="Helvetica,sans-Serif" font-size="10.00" fill="#000000">_conv_6a</text>
</a>
</g>
</g>
<!-- Node2&#45;&gt;Node3 -->
<g id="edge2" class="edge">
<title>Node2&#45;&gt;Node3</title>
<path fill="none" stroke="#191970" d="M324.0924,-48C332.6997,-48 341.3856,-48 349.8203,-48"/>
<polygon fill="#191970" stroke="#191970" points="324.0439,-44.5001 314.0439,-48 324.0438,-51.5001 324.0439,-44.5001"/>
</g>
<!-- Node4 -->
<g id="node4" class="node">
<title>Node4</title>
<g id="a_node4"><a xlink:href="ni__conv__ctl_8f90.xhtml#a9923a06c286e88170babe094e612732d" target="_top" xlink:title="Subroutine NI_conv_ctl. ">
<polygon fill="#ffffff" stroke="#000000" points="523,-38.5 523,-57.5 594,-57.5 594,-38.5 523,-38.5"/>
<text text-anchor="middle" x="558.5" y="-45.5" font-family="Helvetica,sans-Serif" font-size="10.00" fill="#000000">ni_conv_ctl</text>
</a>
</g>
</g>
<!-- Node3&#45;&gt;Node4 -->
<g id="edge3" class="edge">
<title>Node3&#45;&gt;Node4</title>
<path fill="none" stroke="#191970" d="M497.347,-48C506.2275,-48 514.9151,-48 522.8254,-48"/>
<polygon fill="#191970" stroke="#191970" points="497.2696,-44.5001 487.2696,-48 497.2696,-51.5001 497.2696,-44.5001"/>
</g>
<!-- Node5 -->
<g id="node5" class="node">
<title>Node5</title>
<g id="a_node5"><a xlink:href="atmos__physics2_8f90.xhtml#a0f74e8c75312201121b305cd566b175a" target="_top" xlink:title="Interface to Atmos Physics parametrizations after S&#45;L advection. ">
<polygon fill="#ffffff" stroke="#000000" points="630,-38.5 630,-57.5 725,-57.5 725,-38.5 630,-38.5"/>
<text text-anchor="middle" x="677.5" y="-45.5" font-family="Helvetica,sans-Serif" font-size="10.00" fill="#000000">atmos_physics2</text>
</a>
</g>
</g>
<!-- Node4&#45;&gt;Node5 -->
<g id="edge4" class="edge">
<title>Node4&#45;&gt;Node5</title>
<path fill="none" stroke="#191970" d="M604.2309,-48C612.6494,-48 621.457,-48 629.9283,-48"/>
<polygon fill="#191970" stroke="#191970" points="604.204,-44.5001 594.2039,-48 604.2039,-51.5001 604.204,-44.5001"/>
</g>
<!-- Node6 -->
<g id="node6" class="node">
<title>Node6</title>
<g id="a_node6"><a xlink:href="atm__step_8f90.xhtml#ac0ee2467a1a9959b7065fdb8fd27bce4" target="_top" xlink:title="Perform a 1&#45;timestep integration of the Atmosphere Model. ">
<polygon fill="#ffffff" stroke="#000000" points="770,-76.5 770,-95.5 832,-95.5 832,-76.5 770,-76.5"/>
<text text-anchor="middle" x="801" y="-83.5" font-family="Helvetica,sans-Serif" font-size="10.00" fill="#000000">atm_step</text>
</a>
</g>
</g>
<!-- Node5&#45;&gt;Node6 -->
<g id="edge5" class="edge">
<title>Node5&#45;&gt;Node6</title>
<path fill="none" stroke="#191970" d="M718.2397,-60.5353C735.0405,-65.7048 754.197,-71.5991 769.8457,-76.4141"/>
<polygon fill="#191970" stroke="#191970" points="719.2514,-57.1847 708.6643,-57.589 717.1927,-63.8752 719.2514,-57.1847"/>
</g>
<!-- Node10 -->
<g id="node10" class="node">
<title>Node10</title>
<g id="a_node10"><a xlink:href="atm__step__4_a_8f90.xhtml#a2319aa4963e90c64cd78bdcd5f481095" target="_top" xlink:title="Perform a 1&#45;timestep integration of the Atmosphere Model. ">
<polygon fill="#ffffff" stroke="#000000" points="761,-38.5 761,-57.5 841,-57.5 841,-38.5 761,-38.5"/>
<text text-anchor="middle" x="801" y="-45.5" font-family="Helvetica,sans-Serif" font-size="10.00" fill="#000000">atm_step_4a</text>
</a>
</g>
</g>
<!-- Node5&#45;&gt;Node10 -->
<g id="edge9" class="edge">
<title>Node5&#45;&gt;Node10</title>
<path fill="none" stroke="#191970" d="M735.3434,-48C744.0185,-48 752.7967,-48 760.9897,-48"/>
<polygon fill="#191970" stroke="#191970" points="735.2484,-44.5001 725.2483,-48 735.2483,-51.5001 735.2484,-44.5001"/>
</g>
<!-- Node12 -->
<g id="node12" class="node">
<title>Node12</title>
<g id="a_node12"><a xlink:href="scm__main_8f90.xhtml#a2c730136605550612e094ce51d33a2a5" target="_top" xlink:title="*********************************COPYRIGHT********************************* ">
<polygon fill="#ffffff" stroke="#000000" points="767.5,-.5 767.5,-19.5 834.5,-19.5 834.5,-.5 767.5,-.5"/>
<text text-anchor="middle" x="801" y="-7.5" font-family="Helvetica,sans-Serif" font-size="10.00" fill="#000000">scm_main</text>
</a>
</g>
</g>
<!-- Node5&#45;&gt;Node12 -->
<g id="edge12" class="edge">
<title>Node5&#45;&gt;Node12</title>
<path fill="none" stroke="#191970" d="M718.2397,-35.4647C735.0405,-30.2952 754.197,-24.4009 769.8457,-19.5859"/>
<polygon fill="#191970" stroke="#191970" points="717.1927,-32.1248 708.6643,-38.411 719.2514,-38.8153 717.1927,-32.1248"/>
</g>
<!-- Node7 -->
<g id="node7" class="node">
<title>Node7</title>
<g id="a_node7"><a xlink:href="u__model_8f90.xhtml#ada0cd2ce4699433bf0f9adbd882c8eec" target="_top" xlink:title="Subroutine: U_MODEL &#45;!&gt; ">
<polygon fill="#ffffff" stroke="#000000" points="885.5,-76.5 885.5,-95.5 944.5,-95.5 944.5,-76.5 885.5,-76.5"/>
<text text-anchor="middle" x="915" y="-83.5" font-family="Helvetica,sans-Serif" font-size="10.00" fill="#000000">u_model</text>
</a>
</g>
</g>
<!-- Node6&#45;&gt;Node7 -->
<g id="edge6" class="edge">
<title>Node6&#45;&gt;Node7</title>
<path fill="none" stroke="#191970" d="M842.2532,-86C856.5539,-86 872.2895,-86 885.4568,-86"/>
<polygon fill="#191970" stroke="#191970" points="842.151,-82.5001 832.151,-86 842.151,-89.5001 842.151,-82.5001"/>
</g>
<!-- Node8 -->
<g id="node8" class="node">
<title>Node8</title>
<g id="a_node8"><a xlink:href="um__shell_8f90.xhtml#a8c9bd25362824a5c301376ecb5ed5c27" target="_top" xlink:title="Subroutine: UM_SHELL !&gt; ">
<polygon fill="#ffffff" stroke="#000000" points="989,-57.5 989,-76.5 1050,-76.5 1050,-57.5 989,-57.5"/>
<text text-anchor="middle" x="1019.5" y="-64.5" font-family="Helvetica,sans-Serif" font-size="10.00" fill="#000000">um_shell</text>
</a>
</g>
</g>
<!-- Node7&#45;&gt;Node8 -->
<g id="edge7" class="edge">
<title>Node7&#45;&gt;Node8</title>
<path fill="none" stroke="#191970" d="M954.701,-78.7816C965.951,-76.7362 978.0261,-74.5407 988.6677,-72.6059"/>
<polygon fill="#191970" stroke="#191970" points="953.8786,-75.3737 944.666,-80.6062 955.1308,-82.2608 953.8786,-75.3737"/>
</g>
<!-- Node9 -->
<g id="node9" class="node">
<title>Node9</title>
<g id="a_node9"><a xlink:href="um__main_8f90.xhtml#a8f2d13215621443a5313261c282f098b" target="_top" xlink:title="Code Owner: See Unified Model Code Owner&#39;s HTML page. ">
<polygon fill="#ffffff" stroke="#000000" points="1086,-57.5 1086,-76.5 1148,-76.5 1148,-57.5 1086,-57.5"/>
<text text-anchor="middle" x="1117" y="-64.5" font-family="Helvetica,sans-Serif" font-size="10.00" fill="#000000">um_main</text>
</a>
</g>
</g>
<!-- Node8&#45;&gt;Node9 -->
<g id="edge8" class="edge">
<title>Node8&#45;&gt;Node9</title>
<path fill="none" stroke="#191970" d="M1060.2756,-67C1068.8294,-67 1077.72,-67 1085.8551,-67"/>
<polygon fill="#191970" stroke="#191970" points="1060.0821,-63.5001 1050.0821,-67 1060.0821,-70.5001 1060.0821,-63.5001"/>
</g>
<!-- Node11 -->
<g id="node11" class="node">
<title>Node11</title>
<g id="a_node11"><a xlink:href="u__model__4_a_8f90.xhtml#afa05064dab5eba198b461d0928767c7e" target="_top" xlink:title="LL Subroutine: U_MODEL_4A (ENDGAME VERSION) !&gt;LL. ">
<polygon fill="#ffffff" stroke="#000000" points="877,-38.5 877,-57.5 953,-57.5 953,-38.5 877,-38.5"/>
<text text-anchor="middle" x="915" y="-45.5" font-family="Helvetica,sans-Serif" font-size="10.00" fill="#000000">u_model_4a</text>
</a>
</g>
</g>
<!-- Node10&#45;&gt;Node11 -->
<g id="edge10" class="edge">
<title>Node10&#45;&gt;Node11</title>
<path fill="none" stroke="#191970" d="M851.3998,-48C859.891,-48 868.5803,-48 876.7002,-48"/>
<polygon fill="#191970" stroke="#191970" points="851.1922,-44.5001 841.1921,-48 851.1921,-51.5001 851.1922,-44.5001"/>
</g>
<!-- Node11&#45;&gt;Node8 -->
<g id="edge11" class="edge">
<title>Node11&#45;&gt;Node8</title>
<path fill="none" stroke="#191970" d="M962.8728,-56.7041C971.7087,-58.3107 980.7128,-59.9478 988.8647,-61.43"/>
<polygon fill="#191970" stroke="#191970" points="963.4873,-53.2586 953.0225,-54.9132 962.2351,-60.1457 963.4873,-53.2586"/>
</g>
<!-- Node13 -->
<g id="node13" class="node">
<title>Node13</title>
<g id="a_node13"><a xlink:href="scm__shell_8f90.xhtml#ab15255829ee7b5be626b1c0861b40c8d" target="_top" xlink:title="scm_shell is the main calling program for the Single Column Model. ">
<polygon fill="#ffffff" stroke="#000000" points="882.5,-.5 882.5,-19.5 947.5,-19.5 947.5,-.5 882.5,-.5"/>
<text text-anchor="middle" x="915" y="-7.5" font-family="Helvetica,sans-Serif" font-size="10.00" fill="#000000">scm_shell</text>
</a>
</g>
</g>
<!-- Node12&#45;&gt;Node13 -->
<g id="edge13" class="edge">
<title>Node12&#45;&gt;Node13</title>
<path fill="none" stroke="#191970" d="M844.8248,-10C857.3307,-10 870.7319,-10 882.4371,-10"/>
<polygon fill="#191970" stroke="#191970" points="844.5872,-6.5001 834.5872,-10 844.5871,-13.5001 844.5872,-6.5001"/>
</g>
</g>
</svg>
