<?xml version="1.0" encoding="UTF-8" standalone="no"?>
<!DOCTYPE svg PUBLIC "-//W3C//DTD SVG 1.1//EN"
 "http://www.w3.org/Graphics/SVG/1.1/DTD/svg11.dtd">
<!-- Generated by graphviz version 2.40.1 (20161225.0304)
 -->
<!-- Title: asad_sparse_vars::splinslv2 Pages: 1 -->
<svg width="679pt" height="28pt"
 viewBox="0.00 0.00 679.00 28.00" xmlns="http://www.w3.org/2000/svg" xmlns:xlink="http://www.w3.org/1999/xlink">
<g id="graph0" class="graph" transform="scale(1 1) rotate(0) translate(4 24)">
<title>asad_sparse_vars::splinslv2</title>
<polygon fill="#ffffff" stroke="transparent" points="-4,4 -4,-24 675,-24 675,4 -4,4"/>
<!-- Node25 -->
<g id="node1" class="node">
<title>Node25</title>
<polygon fill="#bfbfbf" stroke="#000000" points="0,-.5 0,-19.5 153,-19.5 153,-.5 0,-.5"/>
<text text-anchor="middle" x="76.5" y="-7.5" font-family="Helvetica,sans-Serif" font-size="10.00" fill="#000000">asad_sparse_vars::splinslv2</text>
</g>
<!-- Node26 -->
<g id="node2" class="node">
<title>Node26</title>
<g id="a_node2"><a xlink:href="asad__spimpmjp_8f90.xhtml#acee514e2bb6da1d385ec424b90d6a7ac" target="_top" xlink:title="Copyright (c) 2008, Regents of the University of California. ">
<polygon fill="#ffffff" stroke="#000000" points="189,-.5 189,-19.5 283,-19.5 283,-.5 189,-.5"/>
<text text-anchor="middle" x="236" y="-7.5" font-family="Helvetica,sans-Serif" font-size="10.00" fill="#000000">asad_spimpmjp</text>
</a>
</g>
</g>
<!-- Node25&#45;&gt;Node26 -->
<g id="edge1" class="edge">
<title>Node25&#45;&gt;Node26</title>
<path fill="none" stroke="#191970" d="M163.6591,-10C172.3335,-10 180.89,-10 188.9133,-10"/>
<polygon fill="#191970" stroke="#191970" points="163.4468,-6.5001 153.4468,-10 163.4468,-13.5001 163.4468,-6.5001"/>
</g>
<!-- Node27 -->
<g id="node3" class="node">
<title>Node27</title>
<g id="a_node3"><a xlink:href="asad__spmjpdriv_8f90.xhtml#a5015e4c19778ec6ef6b6d611beffb7ef" target="_top" xlink:title="Copyright (c) 2008, Regents of the University of California. ">
<polygon fill="#ffffff" stroke="#000000" points="319,-.5 319,-19.5 413,-19.5 413,-.5 319,-.5"/>
<text text-anchor="middle" x="366" y="-7.5" font-family="Helvetica,sans-Serif" font-size="10.00" fill="#000000">asad_spmjpdriv</text>
</a>
</g>
</g>
<!-- Node26&#45;&gt;Node27 -->
<g id="edge2" class="edge">
<title>Node26&#45;&gt;Node27</title>
<path fill="none" stroke="#191970" d="M293.5386,-10C302.0345,-10 310.7026,-10 318.9522,-10"/>
<polygon fill="#191970" stroke="#191970" points="293.3008,-6.5001 283.3007,-10 293.3007,-13.5001 293.3008,-6.5001"/>
</g>
<!-- Node28 -->
<g id="node4" class="node">
<title>Node28</title>
<g id="a_node4"><a xlink:href="asad__cdrive_8f90.xhtml#a7173c03e0c72a19e5fb83121b0425381" target="_top" xlink:title="(c) [University of Cambridge] [2008]. All rights reserved. ">
<polygon fill="#ffffff" stroke="#000000" points="449,-.5 449,-19.5 524,-19.5 524,-.5 449,-.5"/>
<text text-anchor="middle" x="486.5" y="-7.5" font-family="Helvetica,sans-Serif" font-size="10.00" fill="#000000">asad_cdrive</text>
</a>
</g>
</g>
<!-- Node27&#45;&gt;Node28 -->
<g id="edge3" class="edge">
<title>Node27&#45;&gt;Node28</title>
<path fill="none" stroke="#191970" d="M423.3029,-10C431.9093,-10 440.5961,-10 448.6585,-10"/>
<polygon fill="#191970" stroke="#191970" points="423.279,-6.5001 413.2789,-10 423.2789,-13.5001 423.279,-6.5001"/>
</g>
<!-- Node29 -->
<g id="node5" class="node">
<title>Node29</title>
<g id="a_node5"><a xlink:href="ukca__chemistry__ctl_8f90.xhtml#a236899d464f41a41baacbb5737d98bd7" target="_top" xlink:title="!&gt; (c) [University of Cambridge] [2008]. All rights reserved.!&gt; This routine has been licensed to the...">
<polygon fill="#ffffff" stroke="#000000" points="560,-.5 560,-19.5 671,-19.5 671,-.5 560,-.5"/>
<text text-anchor="middle" x="615.5" y="-7.5" font-family="Helvetica,sans-Serif" font-size="10.00" fill="#000000">ukca_chemistry_ctl</text>
</a>
</g>
</g>
<!-- Node28&#45;&gt;Node29 -->
<g id="edge4" class="edge">
<title>Node28&#45;&gt;Node29</title>
<path fill="none" stroke="#191970" d="M534.3936,-10C542.6746,-10 551.3475,-10 559.8139,-10"/>
<polygon fill="#191970" stroke="#191970" points="534.159,-6.5001 524.1589,-10 534.1589,-13.5001 534.159,-6.5001"/>
</g>
</g>
</svg>
