<?xml version="1.0" encoding="UTF-8" standalone="no"?>
<!DOCTYPE svg PUBLIC "-//W3C//DTD SVG 1.1//EN"
 "http://www.w3.org/Graphics/SVG/1.1/DTD/svg11.dtd">
<!-- Generated by graphviz version 2.40.1 (20161225.0304)
 -->
<!-- Title: trsrce_mod::trsrce Pages: 1 -->
<!--zoomable 222 -->
<svg id="main" version="1.1" xmlns="http://www.w3.org/2000/svg" xmlns:xlink="http://www.w3.org/1999/xlink" xml:space="preserve" onload="init(evt)">
<style type="text/css"><![CDATA[
.edge:hover path { stroke: red; }
.edge:hover polygon { stroke: red; fill: red; }
]]></style>
<script type="text/javascript"><![CDATA[
var edges = document.getElementsByTagName('g');
if (edges && edges.length) {
  for (var i=0;i<edges.length;i++) {
    if (edges[i].id.substr(0,4)=='edge') {
      edges[i].setAttribute('class','edge');
    }
  }
}
]]></script>
        <defs>
                <circle id="rim" cx="0" cy="0" r="7"/>
                <circle id="rim2" cx="0" cy="0" r="3.5"/>
                <g id="zoomPlus">
                        <use xlink:href="#rim" fill="#404040">
                                <set attributeName="fill" to="#808080" begin="zoomplus.mouseover" end="zoomplus.mouseout"/>
                        </use>
                        <path d="M-4,0h8M0,-4v8" fill="none" stroke="white" stroke-width="1.5" pointer-events="none"/>
                </g>
                <g id="zoomMin">
                        <use xlink:href="#rim" fill="#404040">
                                <set attributeName="fill" to="#808080" begin="zoomminus.mouseover" end="zoomminus.mouseout"/>
                        </use>
                        <path d="M-4,0h8" fill="none" stroke="white" stroke-width="1.5" pointer-events="none"/>
                </g>
                <g id="dirArrow">
                        <path fill="none" stroke="white" stroke-width="1.5" d="M0,-3.0v7 M-2.5,-0.5L0,-3.0L2.5,-0.5"/>
                </g>
               <g id="resetDef">
                       <use xlink:href="#rim2" fill="#404040">
                               <set attributeName="fill" to="#808080" begin="reset.mouseover" end="reset.mouseout"/>
                       </use>
               </g>
        </defs>

<script type="text/javascript">
var viewWidth = 770;
var viewHeight = 222;
var sectionId = 'dynsection-1';
</script>
<script xlink:href="svgpan.js"/>
<svg id="graph" class="graph">
<g id="viewport">
<title>trsrce_mod::trsrce</title>
<polygon fill="#ffffff" stroke="transparent" points="-4,4 -4,-218 766,-218 766,4 -4,4"/>
<!-- Node2 -->
<g id="node1" class="node">
<title>Node2</title>
<polygon fill="#bfbfbf" stroke="#000000" points="0,-101.5 0,-120.5 105,-120.5 105,-101.5 0,-101.5"/>
<text text-anchor="middle" x="52.5" y="-108.5" font-family="Helvetica,sans-Serif" font-size="10.00" fill="#000000">trsrce_mod::trsrce</text>
</g>
<!-- Node3 -->
<g id="node2" class="node">
<title>Node3</title>
<g id="a_node2"><a xlink:href="namespaceaero__ctl__mod.xhtml#a0466f013f1adc0f4466c750092df7846" target="_top" xlink:title="aero_ctl_mod::aero_ctl">
<polygon fill="#ffffff" stroke="#000000" points="141,-194.5 141,-213.5 269,-213.5 269,-194.5 141,-194.5"/>
<text text-anchor="middle" x="205" y="-201.5" font-family="Helvetica,sans-Serif" font-size="10.00" fill="#000000">aero_ctl_mod::aero_ctl</text>
</a>
</g>
</g>
<!-- Node2&#45;&gt;Node3 -->
<g id="edge1" class="edge">
<title>Node2&#45;&gt;Node3</title>
<path fill="none" stroke="#191970" d="M68.6385,-128.0709C85.3061,-144.7791 112.7911,-169.8632 141,-185 148.0469,-188.7814 155.9446,-191.9046 163.7223,-194.4499"/>
<polygon fill="#191970" stroke="#191970" points="70.8586,-125.3345 61.3695,-120.6219 65.8486,-130.2234 70.8586,-125.3345"/>
</g>
<!-- Node4 -->
<g id="node3" class="node">
<title>Node4</title>
<g id="a_node3"><a xlink:href="namespaceaero__ctl__mod__4a.xhtml#a8be16d3b6d6949cfc2fd32c575e47e76" target="_top" xlink:title="aero_ctl_mod_4a::aero\l_ctl_4a">
<polygon fill="#ffffff" stroke="#000000" points="141,-96 141,-126 269,-126 269,-96 141,-96"/>
<text text-anchor="start" x="149" y="-114" font-family="Helvetica,sans-Serif" font-size="10.00" fill="#000000">aero_ctl_mod_4a::aero</text>
<text text-anchor="middle" x="205" y="-103" font-family="Helvetica,sans-Serif" font-size="10.00" fill="#000000">_ctl_4a</text>
</a>
</g>
</g>
<!-- Node2&#45;&gt;Node4 -->
<g id="edge2" class="edge">
<title>Node2&#45;&gt;Node4</title>
<path fill="none" stroke="#191970" d="M115.4972,-111C123.8806,-111 132.4844,-111 140.8865,-111"/>
<polygon fill="#191970" stroke="#191970" points="115.4091,-107.5001 105.4091,-111 115.4091,-114.5001 115.4091,-107.5001"/>
</g>
<!-- Node9 -->
<g id="node8" class="node">
<title>Node9</title>
<g id="a_node8"><a xlink:href="namespaceukca__add__emiss__mod.xhtml#ac794e986c27f0edc65a75f3d3126c71e" target="_top" xlink:title="ukca_add_emiss_mod\l::ukca_add_emiss">
<polygon fill="#ffffff" stroke="#000000" points="142.5,-145 142.5,-175 267.5,-175 267.5,-145 142.5,-145"/>
<text text-anchor="start" x="150.5" y="-163" font-family="Helvetica,sans-Serif" font-size="10.00" fill="#000000">ukca_add_emiss_mod</text>
<text text-anchor="middle" x="205" y="-152" font-family="Helvetica,sans-Serif" font-size="10.00" fill="#000000">::ukca_add_emiss</text>
</a>
</g>
</g>
<!-- Node2&#45;&gt;Node9 -->
<g id="edge7" class="edge">
<title>Node2&#45;&gt;Node9</title>
<path fill="none" stroke="#191970" d="M91.8118,-123.6313C112.0826,-130.1446 136.9458,-138.1334 158.2013,-144.963"/>
<polygon fill="#191970" stroke="#191970" points="92.8569,-120.291 82.2656,-120.564 90.7155,-126.9554 92.8569,-120.291"/>
</g>
<!-- Node11 -->
<g id="node10" class="node">
<title>Node11</title>
<g id="a_node10"><a xlink:href="ukca__emission__ctl_8f90.xhtml#a007dfe72c7fd41e2dcf96dc6ae4b2632" target="_top" xlink:title="(C) Crown copyright Met Office. All rights reserved.!&gt; For further details please refer to the file C...">
<polygon fill="#ffffff" stroke="#000000" points="151.5,-57.5 151.5,-76.5 258.5,-76.5 258.5,-57.5 151.5,-57.5"/>
<text text-anchor="middle" x="205" y="-64.5" font-family="Helvetica,sans-Serif" font-size="10.00" fill="#000000">ukca_emission_ctl</text>
</a>
</g>
</g>
<!-- Node2&#45;&gt;Node11 -->
<g id="edge9" class="edge">
<title>Node2&#45;&gt;Node11</title>
<path fill="none" stroke="#191970" d="M95.2734,-98.6588C119.5628,-91.6507 149.5068,-83.0112 171.9743,-76.5287"/>
<polygon fill="#191970" stroke="#191970" points="94.228,-95.3176 85.5902,-101.4527 96.1686,-102.0432 94.228,-95.3176"/>
</g>
<!-- Node12 -->
<g id="node11" class="node">
<title>Node12</title>
<g id="a_node11"><a xlink:href="atmos__physics1_8f90.xhtml#ae8d55d89da6ed68f5f8d7e9eec99bc76" target="_top" xlink:title="Interface to Atmos Physics parametrizations before S&#45;L advection. ">
<polygon fill="#ffffff" stroke="#000000" points="157.5,-19.5 157.5,-38.5 252.5,-38.5 252.5,-19.5 157.5,-19.5"/>
<text text-anchor="middle" x="205" y="-26.5" font-family="Helvetica,sans-Serif" font-size="10.00" fill="#000000">atmos_physics1</text>
</a>
</g>
</g>
<!-- Node2&#45;&gt;Node12 -->
<g id="edge10" class="edge">
<title>Node2&#45;&gt;Node12</title>
<path fill="none" stroke="#191970" d="M71.5469,-94.5945C88.7147,-80.5293 115.1591,-60.598 141,-48 148.6053,-44.2922 157.0773,-41.1541 165.3033,-38.5622"/>
<polygon fill="#191970" stroke="#191970" points="68.8972,-92.2475 63.4672,-101.3451 73.3854,-97.6194 68.8972,-92.2475"/>
</g>
<!-- Node5 -->
<g id="node4" class="node">
<title>Node5</title>
<g id="a_node4"><a xlink:href="atm__step__4_a_8f90.xhtml#a2319aa4963e90c64cd78bdcd5f481095" target="_top" xlink:title="Perform a 1&#45;timestep integration of the Atmosphere Model. ">
<polygon fill="#ffffff" stroke="#000000" points="340,-76.5 340,-95.5 420,-95.5 420,-76.5 340,-76.5"/>
<text text-anchor="middle" x="380" y="-83.5" font-family="Helvetica,sans-Serif" font-size="10.00" fill="#000000">atm_step_4a</text>
</a>
</g>
</g>
<!-- Node4&#45;&gt;Node5 -->
<g id="edge3" class="edge">
<title>Node4&#45;&gt;Node5</title>
<path fill="none" stroke="#191970" d="M279.2949,-100.3864C300.131,-97.4099 321.9895,-94.2872 339.9972,-91.7147"/>
<polygon fill="#191970" stroke="#191970" points="278.5743,-96.9538 269.1698,-101.8329 279.5643,-103.8834 278.5743,-96.9538"/>
</g>
<!-- Node6 -->
<g id="node5" class="node">
<title>Node6</title>
<g id="a_node5"><a xlink:href="u__model__4_a_8f90.xhtml#afa05064dab5eba198b461d0928767c7e" target="_top" xlink:title="LL Subroutine: U_MODEL_4A (ENDGAME VERSION) !&gt;LL. ">
<polygon fill="#ffffff" stroke="#000000" points="491,-76.5 491,-95.5 567,-95.5 567,-76.5 491,-76.5"/>
<text text-anchor="middle" x="529" y="-83.5" font-family="Helvetica,sans-Serif" font-size="10.00" fill="#000000">u_model_4a</text>
</a>
</g>
</g>
<!-- Node5&#45;&gt;Node6 -->
<g id="edge4" class="edge">
<title>Node5&#45;&gt;Node6</title>
<path fill="none" stroke="#191970" d="M430.4089,-86C450.2077,-86 472.5505,-86 490.9544,-86"/>
<polygon fill="#191970" stroke="#191970" points="430.3216,-82.5001 420.3215,-86 430.3215,-89.5001 430.3216,-82.5001"/>
</g>
<!-- Node7 -->
<g id="node6" class="node">
<title>Node7</title>
<g id="a_node6"><a xlink:href="um__shell_8f90.xhtml#a8c9bd25362824a5c301376ecb5ed5c27" target="_top" xlink:title="Subroutine: UM_SHELL !&gt; ">
<polygon fill="#ffffff" stroke="#000000" points="603,-57.5 603,-76.5 664,-76.5 664,-57.5 603,-57.5"/>
<text text-anchor="middle" x="633.5" y="-64.5" font-family="Helvetica,sans-Serif" font-size="10.00" fill="#000000">um_shell</text>
</a>
</g>
</g>
<!-- Node6&#45;&gt;Node7 -->
<g id="edge5" class="edge">
<title>Node6&#45;&gt;Node7</title>
<path fill="none" stroke="#191970" d="M576.8728,-77.2959C585.7087,-75.6893 594.7128,-74.0522 602.8647,-72.57"/>
<polygon fill="#191970" stroke="#191970" points="576.2351,-73.8543 567.0225,-79.0868 577.4873,-80.7414 576.2351,-73.8543"/>
</g>
<!-- Node8 -->
<g id="node7" class="node">
<title>Node8</title>
<g id="a_node7"><a xlink:href="um__main_8f90.xhtml#a8f2d13215621443a5313261c282f098b" target="_top" xlink:title="Code Owner: See Unified Model Code Owner&#39;s HTML page. ">
<polygon fill="#ffffff" stroke="#000000" points="700,-57.5 700,-76.5 762,-76.5 762,-57.5 700,-57.5"/>
<text text-anchor="middle" x="731" y="-64.5" font-family="Helvetica,sans-Serif" font-size="10.00" fill="#000000">um_main</text>
</a>
</g>
</g>
<!-- Node7&#45;&gt;Node8 -->
<g id="edge6" class="edge">
<title>Node7&#45;&gt;Node8</title>
<path fill="none" stroke="#191970" d="M674.2756,-67C682.8294,-67 691.72,-67 699.8551,-67"/>
<polygon fill="#191970" stroke="#191970" points="674.0821,-63.5001 664.0821,-67 674.0821,-70.5001 674.0821,-63.5001"/>
</g>
<!-- Node10 -->
<g id="node9" class="node">
<title>Node10</title>
<g id="a_node9"><a xlink:href="namespaceukca__new__emiss__ctl__mod.xhtml#a09e21dd1c2f6ef3fe34d3403e1779ced" target="_top" xlink:title="ukca_new_emiss_ctl\l_mod::ukca_new_emiss_ctl">
<polygon fill="#ffffff" stroke="#000000" points="305,-145 305,-175 455,-175 455,-145 305,-145"/>
<text text-anchor="start" x="313" y="-163" font-family="Helvetica,sans-Serif" font-size="10.00" fill="#000000">ukca_new_emiss_ctl</text>
<text text-anchor="middle" x="380" y="-152" font-family="Helvetica,sans-Serif" font-size="10.00" fill="#000000">_mod::ukca_new_emiss_ctl</text>
</a>
</g>
</g>
<!-- Node9&#45;&gt;Node10 -->
<g id="edge8" class="edge">
<title>Node9&#45;&gt;Node10</title>
<path fill="none" stroke="#191970" d="M277.7132,-160C286.6948,-160 295.8904,-160 304.9066,-160"/>
<polygon fill="#191970" stroke="#191970" points="277.6848,-156.5001 267.6847,-160 277.6847,-163.5001 277.6848,-156.5001"/>
</g>
<!-- Node12&#45;&gt;Node5 -->
<g id="edge14" class="edge">
<title>Node12&#45;&gt;Node5</title>
<path fill="none" stroke="#191970" d="M251.5563,-41.6446C257.4896,-43.5989 263.4307,-45.7295 269,-48 285.753,-54.8298 288.1122,-60.5106 305,-67 316.0337,-71.2399 328.3441,-74.8099 339.7496,-77.6697"/>
<polygon fill="#191970" stroke="#191970" points="252.2348,-38.1891 241.6454,-38.5287 250.1353,-44.8668 252.2348,-38.1891"/>
</g>
<!-- Node13 -->
<g id="node12" class="node">
<title>Node13</title>
<g id="a_node12"><a xlink:href="atm__step_8f90.xhtml#ac0ee2467a1a9959b7065fdb8fd27bce4" target="_top" xlink:title="Perform a 1&#45;timestep integration of the Atmosphere Model. ">
<polygon fill="#ffffff" stroke="#000000" points="349,-38.5 349,-57.5 411,-57.5 411,-38.5 349,-38.5"/>
<text text-anchor="middle" x="380" y="-45.5" font-family="Helvetica,sans-Serif" font-size="10.00" fill="#000000">atm_step</text>
</a>
</g>
</g>
<!-- Node12&#45;&gt;Node13 -->
<g id="edge11" class="edge">
<title>Node12&#45;&gt;Node13</title>
<path fill="none" stroke="#191970" d="M263.1153,-35.3097C291.715,-38.4148 325.0532,-42.0343 348.7892,-44.6114"/>
<polygon fill="#191970" stroke="#191970" points="263.1389,-31.7917 252.8195,-34.1918 262.3833,-38.7508 263.1389,-31.7917"/>
</g>
<!-- Node15 -->
<g id="node14" class="node">
<title>Node15</title>
<g id="a_node14"><a xlink:href="scm__main_8f90.xhtml#a2c730136605550612e094ce51d33a2a5" target="_top" xlink:title="*********************************COPYRIGHT********************************* ">
<polygon fill="#ffffff" stroke="#000000" points="346.5,-.5 346.5,-19.5 413.5,-19.5 413.5,-.5 346.5,-.5"/>
<text text-anchor="middle" x="380" y="-7.5" font-family="Helvetica,sans-Serif" font-size="10.00" fill="#000000">scm_main</text>
</a>
</g>
</g>
<!-- Node12&#45;&gt;Node15 -->
<g id="edge15" class="edge">
<title>Node12&#45;&gt;Node15</title>
<path fill="none" stroke="#191970" d="M262.8015,-22.7244C290.515,-19.7155 322.7383,-16.217 346.3748,-13.6507"/>
<polygon fill="#191970" stroke="#191970" points="262.3833,-19.2492 252.8195,-23.8082 263.1389,-26.2083 262.3833,-19.2492"/>
</g>
<!-- Node14 -->
<g id="node13" class="node">
<title>Node14</title>
<g id="a_node13"><a xlink:href="u__model_8f90.xhtml#ada0cd2ce4699433bf0f9adbd882c8eec" target="_top" xlink:title="Subroutine: U_MODEL &#45;!&gt; ">
<polygon fill="#ffffff" stroke="#000000" points="499.5,-38.5 499.5,-57.5 558.5,-57.5 558.5,-38.5 499.5,-38.5"/>
<text text-anchor="middle" x="529" y="-45.5" font-family="Helvetica,sans-Serif" font-size="10.00" fill="#000000">u_model</text>
</a>
</g>
</g>
<!-- Node13&#45;&gt;Node14 -->
<g id="edge12" class="edge">
<title>Node13&#45;&gt;Node14</title>
<path fill="none" stroke="#191970" d="M421.4228,-48C446.166,-48 477.0171,-48 499.3285,-48"/>
<polygon fill="#191970" stroke="#191970" points="421.2353,-44.5001 411.2353,-48 421.2352,-51.5001 421.2353,-44.5001"/>
</g>
<!-- Node14&#45;&gt;Node7 -->
<g id="edge13" class="edge">
<title>Node14&#45;&gt;Node7</title>
<path fill="none" stroke="#191970" d="M568.701,-55.2184C579.951,-57.2638 592.0261,-59.4593 602.6677,-61.3941"/>
<polygon fill="#191970" stroke="#191970" points="569.1308,-51.7392 558.666,-53.3938 567.8786,-58.6263 569.1308,-51.7392"/>
</g>
<!-- Node16 -->
<g id="node15" class="node">
<title>Node16</title>
<g id="a_node15"><a xlink:href="scm__shell_8f90.xhtml#ab15255829ee7b5be626b1c0861b40c8d" target="_top" xlink:title="scm_shell is the main calling program for the Single Column Model. ">
<polygon fill="#ffffff" stroke="#000000" points="496.5,-.5 496.5,-19.5 561.5,-19.5 561.5,-.5 496.5,-.5"/>
<text text-anchor="middle" x="529" y="-7.5" font-family="Helvetica,sans-Serif" font-size="10.00" fill="#000000">scm_shell</text>
</a>
</g>
</g>
<!-- Node15&#45;&gt;Node16 -->
<g id="edge16" class="edge">
<title>Node15&#45;&gt;Node16</title>
<path fill="none" stroke="#191970" d="M424.0785,-10C447.2417,-10 475.142,-10 496.3474,-10"/>
<polygon fill="#191970" stroke="#191970" points="423.8104,-6.5001 413.8104,-10 423.8104,-13.5001 423.8104,-6.5001"/>
</g>
</g>
</svg>
        <g id="navigator" transform="translate(0 0)" fill="#404254">
                <rect fill="#f2f5e9" fill-opacity="0.5" stroke="#606060" stroke-width=".5" x="0" y="0" width="60" height="60"/>
                <use id="zoomplus" xlink:href="#zoomPlus" x="17" y="9" onmousedown="handleZoom(evt,'in')"/>
                <use id="zoomminus" xlink:href="#zoomMin" x="42" y="9" onmousedown="handleZoom(evt,'out')"/>
                <use id="reset" xlink:href="#resetDef" x="30" y="36" onmousedown="handleReset()"/>
                <g id="arrowUp" xlink:href="#dirArrow" transform="translate(30 24)" onmousedown="handlePan(0,-1)">
                  <use xlink:href="#rim" fill="#404040">
                        <set attributeName="fill" to="#808080" begin="arrowUp.mouseover" end="arrowUp.mouseout"/>
                  </use>
                  <path fill="none" stroke="white" stroke-width="1.5" d="M0,-3.0v7 M-2.5,-0.5L0,-3.0L2.5,-0.5"/>
                </g>
                <g id="arrowRight" xlink:href="#dirArrow" transform="rotate(90) translate(36 -43)" onmousedown="handlePan(1,0)">
                  <use xlink:href="#rim" fill="#404040">
                        <set attributeName="fill" to="#808080" begin="arrowRight.mouseover" end="arrowRight.mouseout"/>
                  </use>
                  <path fill="none" stroke="white" stroke-width="1.5" d="M0,-3.0v7 M-2.5,-0.5L0,-3.0L2.5,-0.5"/>
                </g>
                <g id="arrowDown" xlink:href="#dirArrow" transform="rotate(180) translate(-30 -48)" onmousedown="handlePan(0,1)">
                  <use xlink:href="#rim" fill="#404040">
                        <set attributeName="fill" to="#808080" begin="arrowDown.mouseover" end="arrowDown.mouseout"/>
                  </use>
                  <path fill="none" stroke="white" stroke-width="1.5" d="M0,-3.0v7 M-2.5,-0.5L0,-3.0L2.5,-0.5"/>
                </g>
                <g id="arrowLeft" xlink:href="#dirArrow" transform="rotate(270) translate(-36 17)" onmousedown="handlePan(-1,0)">
                  <use xlink:href="#rim" fill="#404040">
                        <set attributeName="fill" to="#808080" begin="arrowLeft.mouseover" end="arrowLeft.mouseout"/>
                  </use>
                  <path fill="none" stroke="white" stroke-width="1.5" d="M0,-3.0v7 M-2.5,-0.5L0,-3.0L2.5,-0.5"/>
                </g>
        </g>
        <svg viewBox="0 0 15 15" width="100%" height="30px" preserveAspectRatio="xMaxYMin meet">
         <g id="arrow_out" transform="scale(0.3 0.3)">
          <a xlink:href="namespacetrsrce__mod_a7eefc5bc8717562e297c331a549d63f1_icgraph_org.svg" target="_base">
           <rect id="button" ry="5" rx="5" y="6" x="6" height="38" width="38"
                fill="#f2f5e9" fill-opacity="0.5" stroke="#606060" stroke-width="1.0"/>
           <path id="arrow"
             d="M 11.500037,31.436501 C 11.940474,20.09759 22.043105,11.32322 32.158766,21.979434 L 37.068811,17.246167 C 37.068811,17.246167 37.088388,32 37.088388,32 L 22.160133,31.978069 C 22.160133,31.978069 26.997745,27.140456 26.997745,27.140456 C 18.528582,18.264221 13.291696,25.230495 11.500037,31.436501 z"
             style="fill:#404040;"/>
          </a>
         </g>
        </svg>
</svg>
