<?xml version="1.0" encoding="UTF-8" standalone="no"?>
<!DOCTYPE svg PUBLIC "-//W3C//DTD SVG 1.1//EN"
 "http://www.w3.org/Graphics/SVG/1.1/DTD/svg11.dtd">
<!-- Generated by graphviz version 2.40.1 (20161225.0304)
 -->
<!-- Title: mppio_file_utils::file_copy Pages: 1 -->
<svg width="1909pt" height="526pt"
 viewBox="0.00 0.00 1909.00 526.34" xmlns="http://www.w3.org/2000/svg" xmlns:xlink="http://www.w3.org/1999/xlink">
<g id="graph0" class="graph" transform="scale(1 1) rotate(0) translate(4 522.3353)">
<title>mppio_file_utils::file_copy</title>
<polygon fill="#ffffff" stroke="transparent" points="-4,4 -4,-522.3353 1905,-522.3353 1905,4 -4,4"/>
<!-- Node95 -->
<g id="node1" class="node">
<title>Node95</title>
<polygon fill="#bfbfbf" stroke="#000000" points="0,-467.8353 0,-486.8353 143,-486.8353 143,-467.8353 0,-467.8353"/>
<text text-anchor="middle" x="71.5" y="-474.8353" font-family="Helvetica,sans-Serif" font-size="10.00" fill="#000000">mppio_file_utils::file_copy</text>
</g>
<!-- Node96 -->
<g id="node2" class="node">
<title>Node96</title>
<g id="a_node2"><a xlink:href="namespaceumprintmgr.xhtml#aae44897e556705dbf5e945a26538be9a" target="_top" xlink:title="umprintmgr::umprint">
<polygon fill="#ffffff" stroke="#000000" points="1405,-470.8353 1405,-489.8353 1524,-489.8353 1524,-470.8353 1405,-470.8353"/>
<text text-anchor="middle" x="1464.5" y="-477.8353" font-family="Helvetica,sans-Serif" font-size="10.00" fill="#000000">umprintmgr::umprint</text>
</a>
</g>
</g>
<!-- Node95&#45;&gt;Node96 -->
<g id="edge1" class="edge">
<title>Node95&#45;&gt;Node96</title>
<path fill="none" stroke="#191970" d="M116.5525,-486.8446C177.9635,-498.9564 291.5291,-518.3353 389.5,-518.3353 389.5,-518.3353 389.5,-518.3353 1093.5,-518.3353 1200.0162,-518.3353 1322.8434,-502.6426 1397.0301,-491.4262"/>
<polygon fill="#191970" stroke="#191970" points="1397.8128,-494.8472 1407.1686,-489.8753 1396.7543,-487.9277 1397.8128,-494.8472"/>
</g>
<!-- Node100 -->
<g id="node6" class="node">
<title>Node100</title>
<g id="a_node6"><a xlink:href="namespacemppio__file__utils.xhtml#a23a19fab4926671d4eb7443a1ea246df" target="_top" xlink:title="mppio_file_utils::file\l_action">
<polygon fill="#ffffff" stroke="#000000" points="179,-421.3353 179,-451.3353 294,-451.3353 294,-421.3353 179,-421.3353"/>
<text text-anchor="start" x="187" y="-439.3353" font-family="Helvetica,sans-Serif" font-size="10.00" fill="#000000">mppio_file_utils::file</text>
<text text-anchor="middle" x="236.5" y="-428.3353" font-family="Helvetica,sans-Serif" font-size="10.00" fill="#000000">_action</text>
</a>
</g>
</g>
<!-- Node95&#45;&gt;Node100 -->
<g id="edge6" class="edge">
<title>Node95&#45;&gt;Node100</title>
<path fill="none" stroke="#191970" d="M109.769,-467.8261C127.3588,-463.4553 148.7572,-458.1381 168.9247,-453.1268"/>
<polygon fill="#191970" stroke="#191970" points="169.8433,-456.5051 178.7041,-450.6968 168.1552,-449.7116 169.8433,-456.5051"/>
</g>
<!-- Node97 -->
<g id="node3" class="node">
<title>Node97</title>
<g id="a_node3"><a xlink:href="namespaceumprintmgr.xhtml#a088ce22a18d574e9df7ee1850bfb10c7" target="_top" xlink:title="umprintmgr::umprintopenstream">
<polygon fill="#ffffff" stroke="#000000" points="1560,-470.8353 1560,-489.8353 1737,-489.8353 1737,-470.8353 1560,-470.8353"/>
<text text-anchor="middle" x="1648.5" y="-477.8353" font-family="Helvetica,sans-Serif" font-size="10.00" fill="#000000">umprintmgr::umprintopenstream</text>
</a>
</g>
</g>
<!-- Node96&#45;&gt;Node97 -->
<g id="edge2" class="edge">
<title>Node96&#45;&gt;Node97</title>
<path fill="none" stroke="#191970" d="M1524.2395,-473.9686C1532.4605,-473.7654 1541.0751,-473.643 1549.7702,-473.6014"/>
<polygon fill="#191970" stroke="#191970" points="1549.9998,-477.1013 1559.9958,-473.5897 1549.9917,-470.1013 1549.9998,-477.1013"/>
</g>
<!-- Node98 -->
<g id="node4" class="node">
<title>Node98</title>
<g id="a_node4"><a xlink:href="namespaceumprintmgr.xhtml#ad3a290b30a6e25500eabc0bf90330b77" target="_top" xlink:title="umprintmgr::umprintflush">
<polygon fill="#ffffff" stroke="#000000" points="1577.5,-432.8353 1577.5,-451.8353 1719.5,-451.8353 1719.5,-432.8353 1577.5,-432.8353"/>
<text text-anchor="middle" x="1648.5" y="-439.8353" font-family="Helvetica,sans-Serif" font-size="10.00" fill="#000000">umprintmgr::umprintflush</text>
</a>
</g>
</g>
<!-- Node96&#45;&gt;Node98 -->
<g id="edge4" class="edge">
<title>Node96&#45;&gt;Node98</title>
<path fill="none" stroke="#191970" d="M1510.931,-470.7463C1535.6493,-465.6415 1566.239,-459.324 1592.292,-453.9435"/>
<polygon fill="#191970" stroke="#191970" points="1593.3175,-457.3057 1602.4029,-451.8554 1591.9017,-450.4503 1593.3175,-457.3057"/>
</g>
<!-- Node97&#45;&gt;Node96 -->
<g id="edge3" class="edge">
<title>Node97&#45;&gt;Node96</title>
<path fill="none" stroke="#191970" d="M1559.9958,-487.081C1551.3802,-487.1024 1542.7236,-487.0447 1534.3289,-486.908"/>
<polygon fill="#191970" stroke="#191970" points="1534.3089,-483.407 1524.2395,-486.7021 1534.166,-490.4055 1534.3089,-483.407"/>
</g>
<!-- Node99 -->
<g id="node5" class="node">
<title>Node99</title>
<g id="a_node5"><a xlink:href="namespaceumflush__mod.xhtml#a3a003ab59990bdcb712b443dd5e0d1cd" target="_top" xlink:title="umflush_mod::umflush">
<polygon fill="#ffffff" stroke="#000000" points="1773,-432.8353 1773,-451.8353 1901,-451.8353 1901,-432.8353 1773,-432.8353"/>
<text text-anchor="middle" x="1837" y="-439.8353" font-family="Helvetica,sans-Serif" font-size="10.00" fill="#000000">umflush_mod::umflush</text>
</a>
</g>
</g>
<!-- Node98&#45;&gt;Node99 -->
<g id="edge5" class="edge">
<title>Node98&#45;&gt;Node99</title>
<path fill="none" stroke="#191970" d="M1719.7638,-442.3353C1733.7742,-442.3353 1748.5063,-442.3353 1762.6162,-442.3353"/>
<polygon fill="#191970" stroke="#191970" points="1762.7612,-445.8354 1772.7611,-442.3353 1762.7611,-438.8354 1762.7612,-445.8354"/>
</g>
<!-- Node100&#45;&gt;Node96 -->
<g id="edge40" class="edge">
<title>Node100&#45;&gt;Node96</title>
<path fill="none" stroke="#191970" d="M286.6046,-451.4628C300.5449,-455.1969 315.767,-458.8378 330,-461.3353 426.6648,-478.2978 451.8583,-480.3353 550,-480.3353 550,-480.3353 550,-480.3353 1093.5,-480.3353 1198.3853,-480.3353 1319.9499,-480.3353 1394.5359,-480.3353"/>
<polygon fill="#191970" stroke="#191970" points="1394.742,-483.8354 1404.7419,-480.3353 1394.7419,-476.8354 1394.742,-483.8354"/>
</g>
<!-- Node101 -->
<g id="node7" class="node">
<title>Node101</title>
<g id="a_node7"><a xlink:href="namespaceios__client__queue.xhtml#afe87459ebf2e7fc1b3915458ad63d06f" target="_top" xlink:title="ios_client_queue::ios\l_init_md">
<polygon fill="#ffffff" stroke="#000000" points="330,-257.3353 330,-287.3353 449,-287.3353 449,-257.3353 330,-257.3353"/>
<text text-anchor="start" x="338" y="-275.3353" font-family="Helvetica,sans-Serif" font-size="10.00" fill="#000000">ios_client_queue::ios</text>
<text text-anchor="middle" x="389.5" y="-264.3353" font-family="Helvetica,sans-Serif" font-size="10.00" fill="#000000">_init_md</text>
</a>
</g>
</g>
<!-- Node100&#45;&gt;Node101 -->
<g id="edge7" class="edge">
<title>Node100&#45;&gt;Node101</title>
<path fill="none" stroke="#191970" d="M250.6196,-421.2006C277.6035,-392.2767 336.627,-329.0097 368.3435,-295.0129"/>
<polygon fill="#191970" stroke="#191970" points="371.1521,-297.1332 375.4145,-287.4335 366.0337,-292.358 371.1521,-297.1332"/>
</g>
<!-- Node113 -->
<g id="node19" class="node">
<title>Node113</title>
<g id="a_node19"><a xlink:href="namespaceios__client__queue.xhtml#af3464b68647df538f288fdc3f40aaa88" target="_top" xlink:title="ios_client_queue::ios\l_attach_metadata">
<polygon fill="#ffffff" stroke="#000000" points="330,-421.3353 330,-451.3353 449,-451.3353 449,-421.3353 330,-421.3353"/>
<text text-anchor="start" x="338" y="-439.3353" font-family="Helvetica,sans-Serif" font-size="10.00" fill="#000000">ios_client_queue::ios</text>
<text text-anchor="middle" x="389.5" y="-428.3353" font-family="Helvetica,sans-Serif" font-size="10.00" fill="#000000">_attach_metadata</text>
</a>
</g>
</g>
<!-- Node100&#45;&gt;Node113 -->
<g id="edge33" class="edge">
<title>Node100&#45;&gt;Node113</title>
<path fill="none" stroke="#191970" d="M294.3427,-436.3353C302.5849,-436.3353 311.1347,-436.3353 319.577,-436.3353"/>
<polygon fill="#191970" stroke="#191970" points="319.7934,-439.8354 329.7934,-436.3353 319.7933,-432.8354 319.7934,-439.8354"/>
</g>
<!-- Node114 -->
<g id="node20" class="node">
<title>Node114</title>
<g id="a_node20"><a xlink:href="namespaceios__client__queue.xhtml#ad45a47e6cd283c6c4b4e7a3a45dd37a6" target="_top" xlink:title="ios_client_queue::ios_send">
<polygon fill="#ffffff" stroke="#000000" points="651,-382.8353 651,-401.8353 798,-401.8353 798,-382.8353 651,-382.8353"/>
<text text-anchor="middle" x="724.5" y="-389.8353" font-family="Helvetica,sans-Serif" font-size="10.00" fill="#000000">ios_client_queue::ios_send</text>
</a>
</g>
</g>
<!-- Node100&#45;&gt;Node114 -->
<g id="edge34" class="edge">
<title>Node100&#45;&gt;Node114</title>
<path fill="none" stroke="#191970" d="M287.5585,-421.2585C301.2318,-417.7641 316.0826,-414.4524 330,-412.3353 436.4652,-396.1405 560.7567,-392.2884 640.9446,-391.7304"/>
<polygon fill="#191970" stroke="#191970" points="641.0057,-395.2302 650.9866,-391.6761 640.9678,-388.2303 641.0057,-395.2302"/>
</g>
<!-- Node102 -->
<g id="node8" class="node">
<title>Node102</title>
<g id="a_node8"><a xlink:href="namespaceios__common.xhtml#a31ef4cb4de4333384dba3e441df47903" target="_top" xlink:title="ios_common::assert\l_client">
<polygon fill="#ffffff" stroke="#000000" points="492.5,-257.3353 492.5,-287.3353 607.5,-287.3353 607.5,-257.3353 492.5,-257.3353"/>
<text text-anchor="start" x="500.5" y="-275.3353" font-family="Helvetica,sans-Serif" font-size="10.00" fill="#000000">ios_common::assert</text>
<text text-anchor="middle" x="550" y="-264.3353" font-family="Helvetica,sans-Serif" font-size="10.00" fill="#000000">_client</text>
</a>
</g>
</g>
<!-- Node101&#45;&gt;Node102 -->
<g id="edge8" class="edge">
<title>Node101&#45;&gt;Node102</title>
<path fill="none" stroke="#191970" d="M449.2643,-272.3353C459.9357,-272.3353 471.1251,-272.3353 482.0065,-272.3353"/>
<polygon fill="#191970" stroke="#191970" points="482.318,-275.8354 492.318,-272.3353 482.318,-268.8354 482.318,-275.8354"/>
</g>
<!-- Node103 -->
<g id="node9" class="node">
<title>Node103</title>
<g id="a_node9"><a xlink:href="namespaceios__common.xhtml#a4b4c79405dd73494ae58cbf0e4f1658b" target="_top" xlink:title="ios_common::ios_ereport">
<polygon fill="#ffffff" stroke="#000000" points="837,-192.8353 837,-211.8353 977,-211.8353 977,-192.8353 837,-192.8353"/>
<text text-anchor="middle" x="907" y="-199.8353" font-family="Helvetica,sans-Serif" font-size="10.00" fill="#000000">ios_common::ios_ereport</text>
</a>
</g>
</g>
<!-- Node101&#45;&gt;Node103 -->
<g id="edge17" class="edge">
<title>Node101&#45;&gt;Node103</title>
<path fill="none" stroke="#191970" d="M437.1201,-287.3596C452.2655,-291.4447 469.1916,-295.3005 485,-297.3353 623.1529,-315.1186 667.4987,-330.0373 798,-281.3353 834.7572,-267.6179 870.178,-237.9205 890.2093,-219.0993"/>
<polygon fill="#191970" stroke="#191970" points="892.7978,-221.4658 897.5758,-212.0095 887.9436,-216.4222 892.7978,-221.4658"/>
</g>
<!-- Node104 -->
<g id="node10" class="node">
<title>Node104</title>
<g id="a_node10"><a xlink:href="namespaceios__print__mgr.xhtml#abd09d7fc0d2381103fd0889b447f4995" target="_top" xlink:title="ios_print_mgr::ios\l_print">
<polygon fill="#ffffff" stroke="#000000" points="1236,-130.3353 1236,-160.3353 1340,-160.3353 1340,-130.3353 1236,-130.3353"/>
<text text-anchor="start" x="1244" y="-148.3353" font-family="Helvetica,sans-Serif" font-size="10.00" fill="#000000">ios_print_mgr::ios</text>
<text text-anchor="middle" x="1288" y="-137.3353" font-family="Helvetica,sans-Serif" font-size="10.00" fill="#000000">_print</text>
</a>
</g>
</g>
<!-- Node101&#45;&gt;Node104 -->
<g id="edge16" class="edge">
<title>Node101&#45;&gt;Node104</title>
<path fill="none" stroke="#191970" d="M392.0187,-257.2847C399.1921,-219.2445 423.338,-118.5682 485,-66.3353 569.2486,5.0302 614.0878,-.3353 724.5,-.3353 724.5,-.3353 724.5,-.3353 907,-.3353 1026.7627,-.3353 1062.2099,-4.2571 1171,-54.3353 1208.0108,-71.3722 1243.9956,-102.1446 1266.066,-123.1451"/>
<polygon fill="#191970" stroke="#191970" points="1263.6541,-125.6816 1273.2712,-130.1272 1268.5255,-120.6546 1263.6541,-125.6816"/>
</g>
<!-- Node106 -->
<g id="node12" class="node">
<title>Node106</title>
<g id="a_node12"><a xlink:href="namespaceios__common.xhtml#a9cbfffb6c02387dc317575ab449918b6" target="_top" xlink:title="ios_common::ios_actionname">
<polygon fill="#ffffff" stroke="#000000" points="1207,-388.8353 1207,-407.8353 1369,-407.8353 1369,-388.8353 1207,-388.8353"/>
<text text-anchor="middle" x="1288" y="-395.8353" font-family="Helvetica,sans-Serif" font-size="10.00" fill="#000000">ios_common::ios_actionname</text>
</a>
</g>
</g>
<!-- Node101&#45;&gt;Node106 -->
<g id="edge15" class="edge">
<title>Node101&#45;&gt;Node106</title>
<path fill="none" stroke="#191970" d="M402.9157,-287.6258C420.1846,-306.4522 451.9254,-338.2682 485,-357.3353 582.1052,-413.3156 612.4143,-436.3353 724.5,-436.3353 724.5,-436.3353 724.5,-436.3353 907,-436.3353 1016.5815,-436.3353 1143.0201,-420.5783 1219.167,-409.3574"/>
<polygon fill="#191970" stroke="#191970" points="1219.7384,-412.811 1229.1133,-407.8753 1218.7067,-405.8875 1219.7384,-412.811"/>
</g>
<!-- Node107 -->
<g id="node13" class="node">
<title>Node107</title>
<g id="a_node13"><a xlink:href="namespaceios__client__queue.xhtml#a8113f81d94a6b3ff7dded6fcd66952a3" target="_top" xlink:title="ios_client_queue::ios\l_querybuffer">
<polygon fill="#ffffff" stroke="#000000" points="665,-67.3353 665,-97.3353 784,-97.3353 784,-67.3353 665,-67.3353"/>
<text text-anchor="start" x="673" y="-85.3353" font-family="Helvetica,sans-Serif" font-size="10.00" fill="#000000">ios_client_queue::ios</text>
<text text-anchor="middle" x="724.5" y="-74.3353" font-family="Helvetica,sans-Serif" font-size="10.00" fill="#000000">_querybuffer</text>
</a>
</g>
</g>
<!-- Node101&#45;&gt;Node107 -->
<g id="edge18" class="edge">
<title>Node101&#45;&gt;Node107</title>
<path fill="none" stroke="#191970" d="M392.8638,-257.1576C401.4072,-222.6074 427.4702,-138.2358 485,-101.3353 535.0903,-69.2067 603.736,-66.9879 654.6973,-71.3199"/>
<polygon fill="#191970" stroke="#191970" points="654.6788,-74.834 664.9664,-72.3008 655.3445,-67.8657 654.6788,-74.834"/>
</g>
<!-- Node109 -->
<g id="node15" class="node">
<title>Node109</title>
<g id="a_node15"><a xlink:href="namespaceios__common.xhtml#a66b4e97a85f71f85bc4f53af5819c234" target="_top" xlink:title="ios_common::io_server\l_for_unit">
<polygon fill="#ffffff" stroke="#000000" points="485,-208.3353 485,-238.3353 615,-238.3353 615,-208.3353 485,-208.3353"/>
<text text-anchor="start" x="493" y="-226.3353" font-family="Helvetica,sans-Serif" font-size="10.00" fill="#000000">ios_common::io_server</text>
<text text-anchor="middle" x="550" y="-215.3353" font-family="Helvetica,sans-Serif" font-size="10.00" fill="#000000">_for_unit</text>
</a>
</g>
</g>
<!-- Node101&#45;&gt;Node109 -->
<g id="edge24" class="edge">
<title>Node101&#45;&gt;Node109</title>
<path fill="none" stroke="#191970" d="M438.9649,-257.2339C455.365,-252.227 473.7869,-246.6029 490.8409,-241.3964"/>
<polygon fill="#191970" stroke="#191970" points="492.1562,-244.6544 500.6984,-238.3869 490.1122,-237.9594 492.1562,-244.6544"/>
</g>
<!-- Node111 -->
<g id="node17" class="node">
<title>Node111</title>
<g id="a_node17"><a xlink:href="namespaceios__common.xhtml#a7ff67c62d278ec0aad0a979c736996c9" target="_top" xlink:title="ios_common::ioserverno">
<polygon fill="#ffffff" stroke="#000000" points="838.5,-274.8353 838.5,-293.8353 975.5,-293.8353 975.5,-274.8353 838.5,-274.8353"/>
<text text-anchor="middle" x="907" y="-281.8353" font-family="Helvetica,sans-Serif" font-size="10.00" fill="#000000">ios_common::ioserverno</text>
</a>
</g>
</g>
<!-- Node101&#45;&gt;Node111 -->
<g id="edge27" class="edge">
<title>Node101&#45;&gt;Node111</title>
<path fill="none" stroke="#191970" d="M407.4497,-287.4258C425.6519,-301.6618 455.2984,-322.0225 485,-330.3353 618.9632,-367.8287 664.0886,-368.0134 798,-330.3353 816.0502,-325.2566 816.9801,-316.2048 834,-308.3353 843.1727,-304.0942 853.3087,-300.2615 863.0346,-296.9671"/>
<polygon fill="#191970" stroke="#191970" points="864.1508,-300.2845 872.5731,-293.8568 861.9807,-293.6294 864.1508,-300.2845"/>
</g>
<!-- Node112 -->
<g id="node18" class="node">
<title>Node112</title>
<g id="a_node18"><a xlink:href="namespaceios__client__queue.xhtml#a9b6ce597cb41097a50bacde8955fa2e7" target="_top" xlink:title="ios_client_queue::ios\l_consume_client_mem">
<polygon fill="#ffffff" stroke="#000000" points="485.5,-111.3353 485.5,-141.3353 614.5,-141.3353 614.5,-111.3353 485.5,-111.3353"/>
<text text-anchor="start" x="493.5" y="-129.3353" font-family="Helvetica,sans-Serif" font-size="10.00" fill="#000000">ios_client_queue::ios</text>
<text text-anchor="middle" x="550" y="-118.3353" font-family="Helvetica,sans-Serif" font-size="10.00" fill="#000000">_consume_client_mem</text>
</a>
</g>
</g>
<!-- Node101&#45;&gt;Node112 -->
<g id="edge28" class="edge">
<title>Node101&#45;&gt;Node112</title>
<path fill="none" stroke="#191970" d="M406.0718,-257.2607C434.5448,-231.36 492.8663,-178.3075 525.8596,-148.2949"/>
<polygon fill="#191970" stroke="#191970" points="528.2357,-150.8649 533.2779,-141.5467 523.5254,-145.6867 528.2357,-150.8649"/>
</g>
<!-- Node102&#45;&gt;Node103 -->
<g id="edge9" class="edge">
<title>Node102&#45;&gt;Node103</title>
<path fill="none" stroke="#191970" d="M607.7349,-276.1885C658.7144,-277.9806 734.5816,-276.689 798,-259.3353 830.117,-250.5469 863.5474,-231.3182 884.7763,-217.6276"/>
<polygon fill="#191970" stroke="#191970" points="886.9373,-220.3949 893.3554,-211.9653 883.0813,-214.5527 886.9373,-220.3949"/>
</g>
<!-- Node103&#45;&gt;Node104 -->
<g id="edge10" class="edge">
<title>Node103&#45;&gt;Node104</title>
<path fill="none" stroke="#191970" d="M977.0875,-201.893C1030.6437,-200.4491 1106.0571,-196.0234 1171,-183.3353 1194.1616,-178.8102 1219.1269,-171.1116 1240.0235,-163.8223"/>
<polygon fill="#191970" stroke="#191970" points="1241.376,-167.056 1249.6223,-160.404 1239.0276,-160.4617 1241.376,-167.056"/>
</g>
<!-- Node105 -->
<g id="node11" class="node">
<title>Node105</title>
<g id="a_node11"><a xlink:href="namespaceios__common.xhtml#ade38472c488c019e816ec75cb70ab3cc" target="_top" xlink:title="ios_common::ios_report_md">
<polygon fill="#ffffff" stroke="#000000" points="1016,-154.8353 1016,-173.8353 1171,-173.8353 1171,-154.8353 1016,-154.8353"/>
<text text-anchor="middle" x="1093.5" y="-161.8353" font-family="Helvetica,sans-Serif" font-size="10.00" fill="#000000">ios_common::ios_report_md</text>
</a>
</g>
</g>
<!-- Node103&#45;&gt;Node105 -->
<g id="edge12" class="edge">
<title>Node103&#45;&gt;Node105</title>
<path fill="none" stroke="#191970" d="M954.0618,-192.7463C979.2268,-187.6189 1010.3958,-181.2681 1036.8786,-175.8722"/>
<polygon fill="#191970" stroke="#191970" points="1037.6767,-179.2815 1046.7766,-173.8554 1036.2791,-172.4225 1037.6767,-179.2815"/>
</g>
<!-- Node104&#45;&gt;Node96 -->
<g id="edge11" class="edge">
<title>Node104&#45;&gt;Node96</title>
<path fill="none" stroke="#191970" d="M1296.0425,-160.6001C1324.8577,-215.2919 1422.9,-401.3779 1454.5565,-461.4624"/>
<polygon fill="#191970" stroke="#191970" points="1451.6,-463.3596 1459.3578,-470.5754 1457.793,-460.0967 1451.6,-463.3596"/>
</g>
<!-- Node105&#45;&gt;Node104 -->
<g id="edge13" class="edge">
<title>Node105&#45;&gt;Node104</title>
<path fill="none" stroke="#191970" d="M1171.2101,-156.7441C1189.3428,-154.9728 1208.4209,-153.1091 1225.7801,-151.4134"/>
<polygon fill="#191970" stroke="#191970" points="1226.1699,-154.8921 1235.7822,-150.4363 1225.4892,-147.9252 1226.1699,-154.8921"/>
</g>
<!-- Node105&#45;&gt;Node106 -->
<g id="edge14" class="edge">
<title>Node105&#45;&gt;Node106</title>
<path fill="none" stroke="#191970" d="M1101.6098,-174.0921C1131.3961,-209.9276 1235.02,-334.5959 1273.4829,-380.87"/>
<polygon fill="#191970" stroke="#191970" points="1270.9866,-383.3423 1280.0704,-388.7954 1276.3698,-378.8678 1270.9866,-383.3423"/>
</g>
<!-- Node107&#45;&gt;Node103 -->
<g id="edge23" class="edge">
<title>Node107&#45;&gt;Node103</title>
<path fill="none" stroke="#191970" d="M747.6138,-97.5334C782.6562,-120.5751 848.846,-164.0971 883.8876,-187.1382"/>
<polygon fill="#191970" stroke="#191970" points="882.2126,-190.2256 892.4911,-192.7953 886.0585,-184.3767 882.2126,-190.2256"/>
</g>
<!-- Node107&#45;&gt;Node104 -->
<g id="edge19" class="edge">
<title>Node107&#45;&gt;Node104</title>
<path fill="none" stroke="#191970" d="M784.2286,-85.6556C836.0737,-88.8053 913.1109,-94.1285 980,-101.3353 1065.2395,-110.5193 1086.1344,-116.1716 1171,-128.3353 1188.749,-130.8793 1208.0084,-133.6666 1225.6806,-136.2349"/>
<polygon fill="#191970" stroke="#191970" points="1225.4793,-139.7424 1235.879,-137.7183 1226.4869,-132.8152 1225.4793,-139.7424"/>
</g>
<!-- Node108 -->
<g id="node14" class="node">
<title>Node108</title>
<g id="a_node14"><a xlink:href="namespaceios__client__queue.xhtml#a9df32aa21836ca6d0c9912866fc9a3e8" target="_top" xlink:title="ios_client_queue::ios\l_print_protocol_slot">
<polygon fill="#ffffff" stroke="#000000" points="847.5,-111.3353 847.5,-141.3353 966.5,-141.3353 966.5,-111.3353 847.5,-111.3353"/>
<text text-anchor="start" x="855.5" y="-129.3353" font-family="Helvetica,sans-Serif" font-size="10.00" fill="#000000">ios_client_queue::ios</text>
<text text-anchor="middle" x="907" y="-118.3353" font-family="Helvetica,sans-Serif" font-size="10.00" fill="#000000">_print_protocol_slot</text>
</a>
</g>
</g>
<!-- Node107&#45;&gt;Node108 -->
<g id="edge20" class="edge">
<title>Node107&#45;&gt;Node108</title>
<path fill="none" stroke="#191970" d="M784.0048,-96.6817C800.9605,-100.7697 819.5868,-105.2604 837.1012,-109.483"/>
<polygon fill="#191970" stroke="#191970" points="836.7221,-112.9919 847.2639,-111.9332 838.3628,-106.1868 836.7221,-112.9919"/>
</g>
<!-- Node108&#45;&gt;Node104 -->
<g id="edge21" class="edge">
<title>Node108&#45;&gt;Node104</title>
<path fill="none" stroke="#191970" d="M966.5313,-129.3041C1037.0471,-132.8206 1153.9671,-138.6513 1225.6803,-142.2275"/>
<polygon fill="#191970" stroke="#191970" points="1225.76,-145.7358 1235.922,-142.7383 1226.1087,-138.7445 1225.76,-145.7358"/>
</g>
<!-- Node108&#45;&gt;Node105 -->
<g id="edge22" class="edge">
<title>Node108&#45;&gt;Node105</title>
<path fill="none" stroke="#191970" d="M966.5225,-138.4633C988.9865,-143.0404 1014.4685,-148.2324 1036.679,-152.7579"/>
<polygon fill="#191970" stroke="#191970" points="1036.1335,-156.2186 1046.631,-154.7856 1037.5311,-149.3595 1036.1335,-156.2186"/>
</g>
<!-- Node109&#45;&gt;Node103 -->
<g id="edge25" class="edge">
<title>Node109&#45;&gt;Node103</title>
<path fill="none" stroke="#191970" d="M615.0642,-219.508C674.6257,-216.0044 762.9592,-210.8083 826.8513,-207.05"/>
<polygon fill="#191970" stroke="#191970" points="827.1104,-210.5409 836.8876,-206.4596 826.6993,-203.553 827.1104,-210.5409"/>
</g>
<!-- Node110 -->
<g id="node16" class="node">
<title>Node110</title>
<g id="a_node16"><a xlink:href="namespaceios__common.xhtml#a2c973e11abf690e8e0215ca4d7e669de" target="_top" xlink:title="ios_common::l_ios_active">
<polygon fill="#ffffff" stroke="#000000" points="653,-230.8353 653,-249.8353 796,-249.8353 796,-230.8353 653,-230.8353"/>
<text text-anchor="middle" x="724.5" y="-237.8353" font-family="Helvetica,sans-Serif" font-size="10.00" fill="#000000">ios_common::l_ios_active</text>
</a>
</g>
</g>
<!-- Node109&#45;&gt;Node110 -->
<g id="edge26" class="edge">
<title>Node109&#45;&gt;Node110</title>
<path fill="none" stroke="#191970" d="M615.4738,-229.7139C624.3272,-230.5764 633.5002,-231.47 642.5955,-232.3561"/>
<polygon fill="#191970" stroke="#191970" points="642.5178,-235.865 652.8101,-233.3512 643.1966,-228.898 642.5178,-235.865"/>
</g>
<!-- Node112&#45;&gt;Node103 -->
<g id="edge29" class="edge">
<title>Node112&#45;&gt;Node103</title>
<path fill="none" stroke="#191970" d="M614.65,-140.0984C682.645,-154.5735 788.4671,-177.1014 852.4119,-190.7143"/>
<polygon fill="#191970" stroke="#191970" points="851.7932,-194.161 862.3029,-192.82 853.2508,-187.3144 851.7932,-194.161"/>
</g>
<!-- Node112&#45;&gt;Node104 -->
<g id="edge30" class="edge">
<title>Node112&#45;&gt;Node104</title>
<path fill="none" stroke="#191970" d="M565.5153,-111.2143C584.0685,-94.2918 616.9135,-67.8672 651,-57.3353 866.6642,9.2994 1139.0139,-84.2142 1243.9822,-126.4722"/>
<polygon fill="#191970" stroke="#191970" points="1242.7353,-129.7435 1253.3168,-130.2736 1245.3754,-123.2605 1242.7353,-129.7435"/>
</g>
<!-- Node112&#45;&gt;Node107 -->
<g id="edge31" class="edge">
<title>Node112&#45;&gt;Node107</title>
<path fill="none" stroke="#191970" d="M609.5649,-111.3161C624.2245,-107.6197 640.0473,-103.63 655.1258,-99.828"/>
<polygon fill="#191970" stroke="#191970" points="656.0667,-103.2004 664.9074,-97.3616 654.3552,-96.4128 656.0667,-103.2004"/>
</g>
<!-- Node112&#45;&gt;Node108 -->
<g id="edge32" class="edge">
<title>Node112&#45;&gt;Node108</title>
<path fill="none" stroke="#191970" d="M614.65,-126.3353C677.4953,-126.3353 772.6549,-126.3353 837.197,-126.3353"/>
<polygon fill="#191970" stroke="#191970" points="837.2832,-129.8354 847.2831,-126.3353 837.2831,-122.8354 837.2832,-129.8354"/>
</g>
<!-- Node114&#45;&gt;Node103 -->
<g id="edge39" class="edge">
<title>Node114&#45;&gt;Node103</title>
<path fill="none" stroke="#191970" d="M738.8414,-382.6728C754.7236,-371.458 780.4046,-351.7446 798,-330.3353 818.968,-304.8224 813.1761,-290.966 834,-265.3353 848.8744,-247.0275 869.4904,-229.7872 885.0213,-217.9858"/>
<polygon fill="#191970" stroke="#191970" points="887.1167,-220.7893 893.0576,-212.0167 882.9428,-215.1698 887.1167,-220.7893"/>
</g>
<!-- Node114&#45;&gt;Node104 -->
<g id="edge37" class="edge">
<title>Node114&#45;&gt;Node104</title>
<path fill="none" stroke="#191970" d="M744.4082,-382.8242C773.4643,-368.9793 825.0212,-344.5646 834,-341.3353 897.0941,-318.6432 917.3011,-327.0978 980,-303.3353 1069.0292,-269.5938 1086.3426,-249.8993 1171,-206.3353 1197.4953,-192.7011 1227.2727,-177.1732 1250.156,-165.1963"/>
<polygon fill="#191970" stroke="#191970" points="1251.9604,-168.2023 1259.1953,-160.4623 1248.7128,-162.0012 1251.9604,-168.2023"/>
</g>
<!-- Node114&#45;&gt;Node106 -->
<g id="edge38" class="edge">
<title>Node114&#45;&gt;Node106</title>
<path fill="none" stroke="#191970" d="M798.1678,-393.1197C900.4338,-394.2086 1085.3358,-396.1774 1196.3771,-397.3598"/>
<polygon fill="#191970" stroke="#191970" points="1196.5193,-400.8614 1206.5561,-397.4682 1196.5939,-393.8618 1196.5193,-400.8614"/>
</g>
<!-- Node114&#45;&gt;Node111 -->
<g id="edge35" class="edge">
<title>Node114&#45;&gt;Node111</title>
<path fill="none" stroke="#191970" d="M770.9646,-382.7193C780.5593,-379.2692 790.1276,-374.6108 798,-368.3353 822.3176,-348.9507 809.702,-327.7445 834,-308.3353 839.3226,-304.0837 845.4262,-300.5733 851.7875,-297.6776"/>
<polygon fill="#191970" stroke="#191970" points="853.2716,-300.8529 861.231,-293.8601 850.6481,-294.3631 853.2716,-300.8529"/>
</g>
<!-- Node115 -->
<g id="node21" class="node">
<title>Node115</title>
<g id="a_node21"><a xlink:href="namespaceios__common.xhtml#a3976806ac3c1c9b09b572dff6c77d79f" target="_top" xlink:title="ios_common::ioserverrank">
<polygon fill="#ffffff" stroke="#000000" points="834,-350.8353 834,-369.8353 980,-369.8353 980,-350.8353 834,-350.8353"/>
<text text-anchor="middle" x="907" y="-357.8353" font-family="Helvetica,sans-Serif" font-size="10.00" fill="#000000">ios_common::ioserverrank</text>
</a>
</g>
</g>
<!-- Node114&#45;&gt;Node115 -->
<g id="edge36" class="edge">
<title>Node114&#45;&gt;Node115</title>
<path fill="none" stroke="#191970" d="M778.7619,-382.8209C798.8074,-379.3061 821.7194,-375.2887 842.5786,-371.6312"/>
<polygon fill="#191970" stroke="#191970" points="843.3868,-375.0429 852.632,-369.8684 842.1778,-368.1481 843.3868,-375.0429"/>
</g>
</g>
</svg>
