<?xml version="1.0" encoding="UTF-8" standalone="no"?>
<!DOCTYPE svg PUBLIC "-//W3C//DTD SVG 1.1//EN"
 "http://www.w3.org/Graphics/SVG/1.1/DTD/svg11.dtd">
<!-- Generated by graphviz version 2.40.1 (20161225.0304)
 -->
<!-- Title: ios_mpi_error_handlers::global_mpi_error_handler Pages: 1 -->
<svg width="490pt" height="39pt"
 viewBox="0.00 0.00 490.00 39.00" xmlns="http://www.w3.org/2000/svg" xmlns:xlink="http://www.w3.org/1999/xlink">
<g id="graph0" class="graph" transform="scale(1 1) rotate(0) translate(4 35)">
<title>ios_mpi_error_handlers::global_mpi_error_handler</title>
<polygon fill="#ffffff" stroke="transparent" points="-4,4 -4,-35 486,-35 486,4 -4,4"/>
<!-- Node15 -->
<g id="node1" class="node">
<title>Node15</title>
<polygon fill="#bfbfbf" stroke="#000000" points="0,-.5 0,-30.5 147,-30.5 147,-.5 0,-.5"/>
<text text-anchor="start" x="8" y="-18.5" font-family="Helvetica,sans-Serif" font-size="10.00" fill="#000000">ios_mpi_error_handlers</text>
<text text-anchor="middle" x="73.5" y="-7.5" font-family="Helvetica,sans-Serif" font-size="10.00" fill="#000000">::global_mpi_error_handler</text>
</g>
<!-- Node16 -->
<g id="node2" class="node">
<title>Node16</title>
<g id="a_node2"><a xlink:href="namespaceios__init.xhtml#ac442cb95ffe7e56fcfa8c5a9e7340d7e" target="_top" xlink:title="ios_init::ios_setup">
<polygon fill="#ffffff" stroke="#000000" points="183,-6 183,-25 287,-25 287,-6 183,-6"/>
<text text-anchor="middle" x="235" y="-13" font-family="Helvetica,sans-Serif" font-size="10.00" fill="#000000">ios_init::ios_setup</text>
</a>
</g>
</g>
<!-- Node15&#45;&gt;Node16 -->
<g id="edge1" class="edge">
<title>Node15&#45;&gt;Node16</title>
<path fill="none" stroke="#191970" d="M157.2948,-15.5C165.9293,-15.5 174.5173,-15.5 182.6632,-15.5"/>
<polygon fill="#191970" stroke="#191970" points="157.161,-12.0001 147.161,-15.5 157.1609,-19.0001 157.161,-12.0001"/>
</g>
<!-- Node17 -->
<g id="node3" class="node">
<title>Node17</title>
<g id="a_node3"><a xlink:href="um__shell_8f90.xhtml#a8c9bd25362824a5c301376ecb5ed5c27" target="_top" xlink:title="Subroutine: UM_SHELL !&gt; ">
<polygon fill="#ffffff" stroke="#000000" points="323,-6 323,-25 384,-25 384,-6 323,-6"/>
<text text-anchor="middle" x="353.5" y="-13" font-family="Helvetica,sans-Serif" font-size="10.00" fill="#000000">um_shell</text>
</a>
</g>
</g>
<!-- Node16&#45;&gt;Node17 -->
<g id="edge2" class="edge">
<title>Node16&#45;&gt;Node17</title>
<path fill="none" stroke="#191970" d="M297.3352,-15.5C306.2081,-15.5 314.9884,-15.5 322.8774,-15.5"/>
<polygon fill="#191970" stroke="#191970" points="297.3208,-12.0001 287.3208,-15.5 297.3207,-19.0001 297.3208,-12.0001"/>
</g>
<!-- Node18 -->
<g id="node4" class="node">
<title>Node18</title>
<g id="a_node4"><a xlink:href="um__main_8f90.xhtml#a8f2d13215621443a5313261c282f098b" target="_top" xlink:title="Code Owner: See Unified Model Code Owner&#39;s HTML page. ">
<polygon fill="#ffffff" stroke="#000000" points="420,-6 420,-25 482,-25 482,-6 420,-6"/>
<text text-anchor="middle" x="451" y="-13" font-family="Helvetica,sans-Serif" font-size="10.00" fill="#000000">um_main</text>
</a>
</g>
</g>
<!-- Node17&#45;&gt;Node18 -->
<g id="edge3" class="edge">
<title>Node17&#45;&gt;Node18</title>
<path fill="none" stroke="#191970" d="M394.2756,-15.5C402.8294,-15.5 411.72,-15.5 419.8551,-15.5"/>
<polygon fill="#191970" stroke="#191970" points="394.0821,-12.0001 384.0821,-15.5 394.0821,-19.0001 394.0821,-12.0001"/>
</g>
</g>
</svg>
