<?xml version="1.0" encoding="UTF-8" standalone="no"?>
<!DOCTYPE svg PUBLIC "-//W3C//DTD SVG 1.1//EN"
 "http://www.w3.org/Graphics/SVG/1.1/DTD/svg11.dtd">
<!-- Generated by graphviz version 2.40.1 (20161225.0304)
 -->
<!-- Title: boundary_layer_mod::diffusion_coefficient Pages: 1 -->
<svg width="927pt" height="180pt"
 viewBox="0.00 0.00 927.00 180.47" xmlns="http://www.w3.org/2000/svg" xmlns:xlink="http://www.w3.org/1999/xlink">
<g id="graph0" class="graph" transform="scale(1 1) rotate(0) translate(4 176.4691)">
<title>boundary_layer_mod::diffusion_coefficient</title>
<polygon fill="#ffffff" stroke="transparent" points="-4,4 -4,-176.4691 923,-176.4691 923,4 -4,4"/>
<!-- Node21 -->
<g id="node1" class="node">
<title>Node21</title>
<polygon fill="#bfbfbf" stroke="#000000" points="0,-93.0605 0,-123.0605 121,-123.0605 121,-93.0605 0,-93.0605"/>
<text text-anchor="start" x="8" y="-111.0605" font-family="Helvetica,sans-Serif" font-size="10.00" fill="#000000">boundary_layer_mod</text>
<text text-anchor="middle" x="60.5" y="-100.0605" font-family="Helvetica,sans-Serif" font-size="10.00" fill="#000000">::diffusion_coefficient</text>
</g>
<!-- Node22 -->
<g id="node2" class="node">
<title>Node22</title>
<g id="a_node2"><a xlink:href="namespaceboundary__layer__mod.xhtml#a9ea67a95dd610708b7dc84112216d471" target="_top" xlink:title="boundary_layer_mod\l::boundary_layer_height">
<polygon fill="#ffffff" stroke="#000000" points="157,-27.0605 157,-57.0605 291,-57.0605 291,-27.0605 157,-27.0605"/>
<text text-anchor="start" x="165" y="-45.0605" font-family="Helvetica,sans-Serif" font-size="10.00" fill="#000000">boundary_layer_mod</text>
<text text-anchor="middle" x="224" y="-34.0605" font-family="Helvetica,sans-Serif" font-size="10.00" fill="#000000">::boundary_layer_height</text>
</a>
</g>
</g>
<!-- Node21&#45;&gt;Node22 -->
<g id="edge1" class="edge">
<title>Node21&#45;&gt;Node22</title>
<path fill="none" stroke="#191970" d="M98.0102,-92.9187C121.5851,-83.4023 152.184,-71.0504 177.323,-60.9026"/>
<polygon fill="#191970" stroke="#191970" points="178.7015,-64.1206 186.6643,-57.1317 176.0812,-57.6295 178.7015,-64.1206"/>
</g>
<!-- Node23 -->
<g id="node3" class="node">
<title>Node23</title>
<g id="a_node3"><a xlink:href="namespaceboundary__layer__mod.xhtml#afc88b09b6f9668258aac78a84fda5761" target="_top" xlink:title="boundary_layer_mod\l::richardson_number">
<polygon fill="#ffffff" stroke="#000000" points="327,-65.0605 327,-95.0605 446,-95.0605 446,-65.0605 327,-65.0605"/>
<text text-anchor="start" x="335" y="-83.0605" font-family="Helvetica,sans-Serif" font-size="10.00" fill="#000000">boundary_layer_mod</text>
<text text-anchor="middle" x="386.5" y="-72.0605" font-family="Helvetica,sans-Serif" font-size="10.00" fill="#000000">::richardson_number</text>
</a>
</g>
</g>
<!-- Node21&#45;&gt;Node23 -->
<g id="edge18" class="edge">
<title>Node21&#45;&gt;Node23</title>
<path fill="none" stroke="#191970" d="M121.0541,-102.8595C176.4659,-98.1002 258.4409,-91.0594 316.6112,-86.0632"/>
<polygon fill="#191970" stroke="#191970" points="317.1569,-89.5293 326.8207,-85.1863 316.5578,-82.555 317.1569,-89.5293"/>
</g>
<!-- Node31 -->
<g id="node11" class="node">
<title>Node31</title>
<g id="a_node11"><a xlink:href="namespaceboundary__layer__mod.xhtml#affa05435eab4611b0ae3e1e262d7b556" target="_top" xlink:title="boundary_layer_mod\l::richardson_number\l_lowest">
<polygon fill="#ffffff" stroke="#000000" points="327,-114.5605 327,-155.5605 446,-155.5605 446,-114.5605 327,-114.5605"/>
<text text-anchor="start" x="335" y="-143.5605" font-family="Helvetica,sans-Serif" font-size="10.00" fill="#000000">boundary_layer_mod</text>
<text text-anchor="start" x="335" y="-132.5605" font-family="Helvetica,sans-Serif" font-size="10.00" fill="#000000">::richardson_number</text>
<text text-anchor="middle" x="386.5" y="-121.5605" font-family="Helvetica,sans-Serif" font-size="10.00" fill="#000000">_lowest</text>
</a>
</g>
</g>
<!-- Node21&#45;&gt;Node31 -->
<g id="edge11" class="edge">
<title>Node21&#45;&gt;Node31</title>
<path fill="none" stroke="#191970" d="M83.9549,-123.2502C102.8296,-134.5201 130.4886,-148.9476 157,-155.0605 209.8282,-167.2414 271.0573,-160.915 316.9787,-152.2655"/>
<polygon fill="#191970" stroke="#191970" points="317.6927,-155.6923 326.8306,-150.3304 316.3435,-148.8235 317.6927,-155.6923"/>
</g>
<!-- Node32 -->
<g id="node12" class="node">
<title>Node32</title>
<g id="a_node12"><a xlink:href="namespaceboundary__layer__mod.xhtml#ae89b3383e596e207f8be95c7af8e9802" target="_top" xlink:title="boundary_layer_mod\l::drag_coefficient">
<polygon fill="#ffffff" stroke="#000000" points="164.5,-115.0605 164.5,-145.0605 283.5,-145.0605 283.5,-115.0605 164.5,-115.0605"/>
<text text-anchor="start" x="172.5" y="-133.0605" font-family="Helvetica,sans-Serif" font-size="10.00" fill="#000000">boundary_layer_mod</text>
<text text-anchor="middle" x="224" y="-122.0605" font-family="Helvetica,sans-Serif" font-size="10.00" fill="#000000">::drag_coefficient</text>
</a>
</g>
</g>
<!-- Node21&#45;&gt;Node32 -->
<g id="edge16" class="edge">
<title>Node21&#45;&gt;Node32</title>
<path fill="none" stroke="#191970" d="M121.3814,-116.2524C132.1558,-117.7022 143.4485,-119.2217 154.4405,-120.7008"/>
<polygon fill="#191970" stroke="#191970" points="154.0496,-124.1796 164.4271,-122.0445 154.9831,-117.2422 154.0496,-124.1796"/>
</g>
<!-- Node22&#45;&gt;Node23 -->
<g id="edge2" class="edge">
<title>Node22&#45;&gt;Node23</title>
<path fill="none" stroke="#191970" d="M288.2243,-57.0791C297.7056,-59.2962 307.5108,-61.5891 317.0915,-63.8295"/>
<polygon fill="#191970" stroke="#191970" points="316.437,-67.2709 326.9713,-66.1399 318.031,-60.4547 316.437,-67.2709"/>
</g>
<!-- Node24 -->
<g id="node4" class="node">
<title>Node24</title>
<g id="a_node4"><a xlink:href="namespaceutils__mod.xhtml#a342a50c6f6fc85a69eaa3ec622a2ecba" target="_top" xlink:title="utils_mod::interp">
<polygon fill="#ffffff" stroke="#000000" points="492,-81.5605 492,-100.5605 591,-100.5605 591,-81.5605 492,-81.5605"/>
<text text-anchor="middle" x="541.5" y="-88.5605" font-family="Helvetica,sans-Serif" font-size="10.00" fill="#000000">utils_mod::interp</text>
</a>
</g>
</g>
<!-- Node23&#45;&gt;Node24 -->
<g id="edge3" class="edge">
<title>Node23&#45;&gt;Node24</title>
<path fill="none" stroke="#191970" d="M446.427,-84.3133C458.0235,-85.1363 470.174,-85.9986 481.7643,-86.8211"/>
<polygon fill="#191970" stroke="#191970" points="481.5547,-90.315 491.7774,-87.5318 482.0503,-83.3325 481.5547,-90.315"/>
</g>
<!-- Node29 -->
<g id="node9" class="node">
<title>Node29</title>
<g id="a_node9"><a xlink:href="namespaceboundary__layer__mod.xhtml#af72f82596edea620fa670c99d52727c8" target="_top" xlink:title="boundary_layer_mod\l::temphum2vtemp">
<polygon fill="#ffffff" stroke="#000000" points="482,-120.0605 482,-150.0605 601,-150.0605 601,-120.0605 482,-120.0605"/>
<text text-anchor="start" x="490" y="-138.0605" font-family="Helvetica,sans-Serif" font-size="10.00" fill="#000000">boundary_layer_mod</text>
<text text-anchor="middle" x="541.5" y="-127.0605" font-family="Helvetica,sans-Serif" font-size="10.00" fill="#000000">::temphum2vtemp</text>
</a>
</g>
</g>
<!-- Node23&#45;&gt;Node29 -->
<g id="edge9" class="edge">
<title>Node23&#45;&gt;Node29</title>
<path fill="none" stroke="#191970" d="M428.8544,-95.0894C447.6496,-101.7587 469.9436,-109.6695 489.7181,-116.6862"/>
<polygon fill="#191970" stroke="#191970" points="488.602,-120.004 499.1968,-120.0496 490.943,-113.407 488.602,-120.004"/>
</g>
<!-- Node30 -->
<g id="node10" class="node">
<title>Node30</title>
<g id="a_node10"><a xlink:href="namespaceboundary__layer__mod.xhtml#a3753f8d3e3c60854cfee0bb8f76919b8" target="_top" xlink:title="boundary_layer_mod\l::grav_pot">
<polygon fill="#ffffff" stroke="#000000" points="482,-32.0605 482,-62.0605 601,-62.0605 601,-32.0605 482,-32.0605"/>
<text text-anchor="start" x="490" y="-50.0605" font-family="Helvetica,sans-Serif" font-size="10.00" fill="#000000">boundary_layer_mod</text>
<text text-anchor="middle" x="541.5" y="-39.0605" font-family="Helvetica,sans-Serif" font-size="10.00" fill="#000000">::grav_pot</text>
</a>
</g>
</g>
<!-- Node23&#45;&gt;Node30 -->
<g id="edge10" class="edge">
<title>Node23&#45;&gt;Node30</title>
<path fill="none" stroke="#191970" d="M446.427,-67.3018C454.8155,-65.5159 463.494,-63.6682 472.0406,-61.8486"/>
<polygon fill="#191970" stroke="#191970" points="472.9358,-65.2365 481.9877,-59.7308 471.478,-58.39 472.9358,-65.2365"/>
</g>
<!-- Node25 -->
<g id="node5" class="node">
<title>Node25</title>
<g id="a_node5"><a xlink:href="namespaceutils__mod.xhtml#a27fd469d1bf78e37eae7902444010be4" target="_top" xlink:title="utils_mod::error">
<polygon fill="#ffffff" stroke="#000000" points="825,-131.5605 825,-150.5605 919,-150.5605 919,-131.5605 825,-131.5605"/>
<text text-anchor="middle" x="872" y="-138.5605" font-family="Helvetica,sans-Serif" font-size="10.00" fill="#000000">utils_mod::error</text>
</a>
</g>
</g>
<!-- Node24&#45;&gt;Node25 -->
<g id="edge4" class="edge">
<title>Node24&#45;&gt;Node25</title>
<path fill="none" stroke="#191970" d="M581.2298,-81.4464C588.1862,-78.7453 595.0821,-75.3372 601,-71.0605 622.6135,-55.4409 613.1486,-34.9862 637,-23.0605 697.4235,7.1513 729.0443,8.0693 789,-23.0605 829.2097,-43.9378 854.0357,-94.2273 865.1421,-121.9395"/>
<polygon fill="#191970" stroke="#191970" points="861.8963,-123.2508 868.7305,-131.3467 868.4366,-120.756 861.8963,-123.2508"/>
</g>
<!-- Node26 -->
<g id="node6" class="node">
<title>Node26</title>
<g id="a_node6"><a xlink:href="namespaceutils__mod.xhtml#af7241d3b5409e6269728c37c50812984" target="_top" xlink:title="utils_mod::search_gridpoint\l_by_height">
<polygon fill="#ffffff" stroke="#000000" points="637,-33.0605 637,-63.0605 789,-63.0605 789,-33.0605 637,-33.0605"/>
<text text-anchor="start" x="645" y="-51.0605" font-family="Helvetica,sans-Serif" font-size="10.00" fill="#000000">utils_mod::search_gridpoint</text>
<text text-anchor="middle" x="713" y="-40.0605" font-family="Helvetica,sans-Serif" font-size="10.00" fill="#000000">_by_height</text>
</a>
</g>
</g>
<!-- Node24&#45;&gt;Node26 -->
<g id="edge5" class="edge">
<title>Node24&#45;&gt;Node26</title>
<path fill="none" stroke="#191970" d="M579.5614,-81.5174C598.3025,-76.8184 621.4998,-71.0022 643.2689,-65.544"/>
<polygon fill="#191970" stroke="#191970" points="644.3008,-68.8938 653.1493,-63.0668 642.5983,-62.1039 644.3008,-68.8938"/>
</g>
<!-- Node27 -->
<g id="node7" class="node">
<title>Node27</title>
<g id="a_node7"><a xlink:href="namespaceutils__mod.xhtml#a68ca86ec0d44e08f2c97becf3a900788" target="_top" xlink:title="utils_mod::find_cubic\l_coeffs">
<polygon fill="#ffffff" stroke="#000000" points="653.5,-82.0605 653.5,-112.0605 772.5,-112.0605 772.5,-82.0605 653.5,-82.0605"/>
<text text-anchor="start" x="661.5" y="-100.0605" font-family="Helvetica,sans-Serif" font-size="10.00" fill="#000000">utils_mod::find_cubic</text>
<text text-anchor="middle" x="713" y="-89.0605" font-family="Helvetica,sans-Serif" font-size="10.00" fill="#000000">_coeffs</text>
</a>
</g>
</g>
<!-- Node24&#45;&gt;Node27 -->
<g id="edge6" class="edge">
<title>Node24&#45;&gt;Node27</title>
<path fill="none" stroke="#191970" d="M591.1049,-92.7959C607.3961,-93.3659 625.8179,-94.0104 643.3142,-94.6225"/>
<polygon fill="#191970" stroke="#191970" points="643.3695,-98.1265 653.4858,-94.9783 643.6143,-91.1307 643.3695,-98.1265"/>
</g>
<!-- Node28 -->
<g id="node8" class="node">
<title>Node28</title>
<g id="a_node8"><a xlink:href="namespaceutils__mod.xhtml#adcb79f21826654c69427237b492c0d1e" target="_top" xlink:title="utils_mod::deriv_gridpoint">
<polygon fill="#ffffff" stroke="#000000" points="641,-131.5605 641,-150.5605 785,-150.5605 785,-131.5605 641,-131.5605"/>
<text text-anchor="middle" x="713" y="-138.5605" font-family="Helvetica,sans-Serif" font-size="10.00" fill="#000000">utils_mod::deriv_gridpoint</text>
</a>
</g>
</g>
<!-- Node24&#45;&gt;Node28 -->
<g id="edge7" class="edge">
<title>Node24&#45;&gt;Node28</title>
<path fill="none" stroke="#191970" d="M571.5522,-100.6702C594.6555,-108.0261 624.6436,-117.496 637,-121.0605 646.243,-123.7268 656.1596,-126.4416 665.6777,-128.9758"/>
<polygon fill="#191970" stroke="#191970" points="664.8455,-132.3759 675.4074,-131.5418 666.6306,-125.6073 664.8455,-132.3759"/>
</g>
<!-- Node28&#45;&gt;Node25 -->
<g id="edge8" class="edge">
<title>Node28&#45;&gt;Node25</title>
<path fill="none" stroke="#191970" d="M785.0566,-141.0605C794.9525,-141.0605 805.0037,-141.0605 814.5895,-141.0605"/>
<polygon fill="#191970" stroke="#191970" points="814.779,-144.5606 824.779,-141.0605 814.779,-137.5606 814.779,-144.5606"/>
</g>
<!-- Node31&#45;&gt;Node24 -->
<g id="edge12" class="edge">
<title>Node31&#45;&gt;Node24</title>
<path fill="none" stroke="#191970" d="M446.427,-118.0489C463.6406,-113.1625 482.0752,-107.9294 498.0859,-103.3845"/>
<polygon fill="#191970" stroke="#191970" points="499.0449,-106.7506 507.709,-100.6527 497.1333,-100.0167 499.0449,-106.7506"/>
</g>
<!-- Node31&#45;&gt;Node25 -->
<g id="edge13" class="edge">
<title>Node31&#45;&gt;Node25</title>
<path fill="none" stroke="#191970" d="M446.1515,-153.1742C457.9271,-156.0386 470.2712,-158.5507 482,-160.0605 617.3279,-177.48 653.4184,-175.3807 789,-160.0605 801.9814,-158.5936 815.8914,-155.8752 828.5419,-152.9442"/>
<polygon fill="#191970" stroke="#191970" points="829.4774,-156.319 838.3755,-150.5679 827.8331,-149.5148 829.4774,-156.319"/>
</g>
<!-- Node31&#45;&gt;Node29 -->
<g id="edge14" class="edge">
<title>Node31&#45;&gt;Node29</title>
<path fill="none" stroke="#191970" d="M446.427,-135.0605C454.7244,-135.0605 463.3054,-135.0605 471.7618,-135.0605"/>
<polygon fill="#191970" stroke="#191970" points="471.9877,-138.5606 481.9877,-135.0605 471.9877,-131.5606 471.9877,-138.5606"/>
</g>
<!-- Node31&#45;&gt;Node30 -->
<g id="edge15" class="edge">
<title>Node31&#45;&gt;Node30</title>
<path fill="none" stroke="#191970" d="M429.1858,-114.4621C434.9706,-111.2004 440.7253,-107.6961 446,-104.0605 463.626,-91.9116 463.8877,-83.4717 482,-72.0605 484.9818,-70.1819 488.129,-68.3875 491.3561,-66.685"/>
<polygon fill="#191970" stroke="#191970" points="493.1662,-69.695 500.5907,-62.1368 490.0733,-63.4154 493.1662,-69.695"/>
</g>
<!-- Node32&#45;&gt;Node31 -->
<g id="edge17" class="edge">
<title>Node32&#45;&gt;Node31</title>
<path fill="none" stroke="#191970" d="M283.5863,-131.8939C294.405,-132.2268 305.7766,-132.5767 316.8544,-132.9175"/>
<polygon fill="#191970" stroke="#191970" points="316.818,-136.418 326.9209,-133.2273 317.0333,-129.4213 316.818,-136.418"/>
</g>
</g>
</svg>
