<?xml version="1.0" encoding="UTF-8" standalone="no"?>
<!DOCTYPE svg PUBLIC "-//W3C//DTD SVG 1.1//EN"
 "http://www.w3.org/Graphics/SVG/1.1/DTD/svg11.dtd">
<!-- Generated by graphviz version 2.40.1 (20161225.0304)
 -->
<!-- Title: icao_ht_mod::icao_ht Pages: 1 -->
<!--zoomable 104 -->
<svg id="main" version="1.1" xmlns="http://www.w3.org/2000/svg" xmlns:xlink="http://www.w3.org/1999/xlink" xml:space="preserve" onload="init(evt)">
<style type="text/css"><![CDATA[
.edge:hover path { stroke: red; }
.edge:hover polygon { stroke: red; fill: red; }
]]></style>
<script type="text/javascript"><![CDATA[
var edges = document.getElementsByTagName('g');
if (edges && edges.length) {
  for (var i=0;i<edges.length;i++) {
    if (edges[i].id.substr(0,4)=='edge') {
      edges[i].setAttribute('class','edge');
    }
  }
}
]]></script>
        <defs>
                <circle id="rim" cx="0" cy="0" r="7"/>
                <circle id="rim2" cx="0" cy="0" r="3.5"/>
                <g id="zoomPlus">
                        <use xlink:href="#rim" fill="#404040">
                                <set attributeName="fill" to="#808080" begin="zoomplus.mouseover" end="zoomplus.mouseout"/>
                        </use>
                        <path d="M-4,0h8M0,-4v8" fill="none" stroke="white" stroke-width="1.5" pointer-events="none"/>
                </g>
                <g id="zoomMin">
                        <use xlink:href="#rim" fill="#404040">
                                <set attributeName="fill" to="#808080" begin="zoomminus.mouseover" end="zoomminus.mouseout"/>
                        </use>
                        <path d="M-4,0h8" fill="none" stroke="white" stroke-width="1.5" pointer-events="none"/>
                </g>
                <g id="dirArrow">
                        <path fill="none" stroke="white" stroke-width="1.5" d="M0,-3.0v7 M-2.5,-0.5L0,-3.0L2.5,-0.5"/>
                </g>
               <g id="resetDef">
                       <use xlink:href="#rim2" fill="#404040">
                               <set attributeName="fill" to="#808080" begin="reset.mouseover" end="reset.mouseout"/>
                       </use>
               </g>
        </defs>

<script type="text/javascript">
var viewWidth = 819;
var viewHeight = 104;
var sectionId = 'dynsection-1';
</script>
<script xlink:href="svgpan.js"/>
<svg id="graph" class="graph">
<g id="viewport">
<title>icao_ht_mod::icao_ht</title>
<polygon fill="#ffffff" stroke="transparent" points="-4,4 -4,-100 815,-100 815,4 -4,4"/>
<!-- Node198 -->
<g id="node1" class="node">
<title>Node198</title>
<polygon fill="#bfbfbf" stroke="#000000" points="0,-38.5 0,-57.5 120,-57.5 120,-38.5 0,-38.5"/>
<text text-anchor="middle" x="60" y="-45.5" font-family="Helvetica,sans-Serif" font-size="10.00" fill="#000000">icao_ht_mod::icao_ht</text>
</g>
<!-- Node199 -->
<g id="node2" class="node">
<title>Node199</title>
<g id="a_node2"><a xlink:href="diagnostics__conv_8f90.xhtml#aedcb1a4351319de819fad26f1b75e758" target="_top" xlink:title="Subroutine diagnostics_conv. ">
<polygon fill="#ffffff" stroke="#000000" points="156,-38.5 156,-57.5 257,-57.5 257,-38.5 156,-38.5"/>
<text text-anchor="middle" x="206.5" y="-45.5" font-family="Helvetica,sans-Serif" font-size="10.00" fill="#000000">diagnostics_conv</text>
</a>
</g>
</g>
<!-- Node198&#45;&gt;Node199 -->
<g id="edge1" class="edge">
<title>Node198&#45;&gt;Node199</title>
<path fill="none" stroke="#191970" d="M130.0954,-48C138.7344,-48 147.4319,-48 155.7063,-48"/>
<polygon fill="#191970" stroke="#191970" points="130.0099,-44.5001 120.0099,-48 130.0098,-51.5001 130.0099,-44.5001"/>
</g>
<!-- Node200 -->
<g id="node3" class="node">
<title>Node200</title>
<g id="a_node3"><a xlink:href="atmos__physics2_8f90.xhtml#a0f74e8c75312201121b305cd566b175a" target="_top" xlink:title="Interface to Atmos Physics parametrizations after S&#45;L advection. ">
<polygon fill="#ffffff" stroke="#000000" points="293,-38.5 293,-57.5 388,-57.5 388,-38.5 293,-38.5"/>
<text text-anchor="middle" x="340.5" y="-45.5" font-family="Helvetica,sans-Serif" font-size="10.00" fill="#000000">atmos_physics2</text>
</a>
</g>
</g>
<!-- Node199&#45;&gt;Node200 -->
<g id="edge2" class="edge">
<title>Node199&#45;&gt;Node200</title>
<path fill="none" stroke="#191970" d="M267.1738,-48C275.7888,-48 284.5446,-48 292.8646,-48"/>
<polygon fill="#191970" stroke="#191970" points="267.1597,-44.5001 257.1597,-48 267.1596,-51.5001 267.1597,-44.5001"/>
</g>
<!-- Node201 -->
<g id="node4" class="node">
<title>Node201</title>
<g id="a_node4"><a xlink:href="atm__step_8f90.xhtml#ac0ee2467a1a9959b7065fdb8fd27bce4" target="_top" xlink:title="Perform a 1&#45;timestep integration of the Atmosphere Model. ">
<polygon fill="#ffffff" stroke="#000000" points="433,-76.5 433,-95.5 495,-95.5 495,-76.5 433,-76.5"/>
<text text-anchor="middle" x="464" y="-83.5" font-family="Helvetica,sans-Serif" font-size="10.00" fill="#000000">atm_step</text>
</a>
</g>
</g>
<!-- Node200&#45;&gt;Node201 -->
<g id="edge3" class="edge">
<title>Node200&#45;&gt;Node201</title>
<path fill="none" stroke="#191970" d="M381.2397,-60.5353C398.0405,-65.7048 417.197,-71.5991 432.8457,-76.4141"/>
<polygon fill="#191970" stroke="#191970" points="382.2514,-57.1847 371.6643,-57.589 380.1927,-63.8752 382.2514,-57.1847"/>
</g>
<!-- Node205 -->
<g id="node8" class="node">
<title>Node205</title>
<g id="a_node8"><a xlink:href="atm__step__4_a_8f90.xhtml#a2319aa4963e90c64cd78bdcd5f481095" target="_top" xlink:title="Perform a 1&#45;timestep integration of the Atmosphere Model. ">
<polygon fill="#ffffff" stroke="#000000" points="424,-38.5 424,-57.5 504,-57.5 504,-38.5 424,-38.5"/>
<text text-anchor="middle" x="464" y="-45.5" font-family="Helvetica,sans-Serif" font-size="10.00" fill="#000000">atm_step_4a</text>
</a>
</g>
</g>
<!-- Node200&#45;&gt;Node205 -->
<g id="edge7" class="edge">
<title>Node200&#45;&gt;Node205</title>
<path fill="none" stroke="#191970" d="M398.3434,-48C407.0185,-48 415.7967,-48 423.9897,-48"/>
<polygon fill="#191970" stroke="#191970" points="398.2484,-44.5001 388.2483,-48 398.2483,-51.5001 398.2484,-44.5001"/>
</g>
<!-- Node207 -->
<g id="node10" class="node">
<title>Node207</title>
<g id="a_node10"><a xlink:href="scm__main_8f90.xhtml#a2c730136605550612e094ce51d33a2a5" target="_top" xlink:title="*********************************COPYRIGHT********************************* ">
<polygon fill="#ffffff" stroke="#000000" points="430.5,-.5 430.5,-19.5 497.5,-19.5 497.5,-.5 430.5,-.5"/>
<text text-anchor="middle" x="464" y="-7.5" font-family="Helvetica,sans-Serif" font-size="10.00" fill="#000000">scm_main</text>
</a>
</g>
</g>
<!-- Node200&#45;&gt;Node207 -->
<g id="edge10" class="edge">
<title>Node200&#45;&gt;Node207</title>
<path fill="none" stroke="#191970" d="M381.2397,-35.4647C398.0405,-30.2952 417.197,-24.4009 432.8457,-19.5859"/>
<polygon fill="#191970" stroke="#191970" points="380.1927,-32.1248 371.6643,-38.411 382.2514,-38.8153 380.1927,-32.1248"/>
</g>
<!-- Node202 -->
<g id="node5" class="node">
<title>Node202</title>
<g id="a_node5"><a xlink:href="u__model_8f90.xhtml#ada0cd2ce4699433bf0f9adbd882c8eec" target="_top" xlink:title="Subroutine: U_MODEL &#45;!&gt; ">
<polygon fill="#ffffff" stroke="#000000" points="548.5,-76.5 548.5,-95.5 607.5,-95.5 607.5,-76.5 548.5,-76.5"/>
<text text-anchor="middle" x="578" y="-83.5" font-family="Helvetica,sans-Serif" font-size="10.00" fill="#000000">u_model</text>
</a>
</g>
</g>
<!-- Node201&#45;&gt;Node202 -->
<g id="edge4" class="edge">
<title>Node201&#45;&gt;Node202</title>
<path fill="none" stroke="#191970" d="M505.2532,-86C519.5539,-86 535.2895,-86 548.4568,-86"/>
<polygon fill="#191970" stroke="#191970" points="505.151,-82.5001 495.151,-86 505.151,-89.5001 505.151,-82.5001"/>
</g>
<!-- Node203 -->
<g id="node6" class="node">
<title>Node203</title>
<g id="a_node6"><a xlink:href="um__shell_8f90.xhtml#a8c9bd25362824a5c301376ecb5ed5c27" target="_top" xlink:title="Subroutine: UM_SHELL !&gt; ">
<polygon fill="#ffffff" stroke="#000000" points="652,-57.5 652,-76.5 713,-76.5 713,-57.5 652,-57.5"/>
<text text-anchor="middle" x="682.5" y="-64.5" font-family="Helvetica,sans-Serif" font-size="10.00" fill="#000000">um_shell</text>
</a>
</g>
</g>
<!-- Node202&#45;&gt;Node203 -->
<g id="edge5" class="edge">
<title>Node202&#45;&gt;Node203</title>
<path fill="none" stroke="#191970" d="M617.701,-78.7816C628.951,-76.7362 641.0261,-74.5407 651.6677,-72.6059"/>
<polygon fill="#191970" stroke="#191970" points="616.8786,-75.3737 607.666,-80.6062 618.1308,-82.2608 616.8786,-75.3737"/>
</g>
<!-- Node204 -->
<g id="node7" class="node">
<title>Node204</title>
<g id="a_node7"><a xlink:href="um__main_8f90.xhtml#a8f2d13215621443a5313261c282f098b" target="_top" xlink:title="Code Owner: See Unified Model Code Owner&#39;s HTML page. ">
<polygon fill="#ffffff" stroke="#000000" points="749,-57.5 749,-76.5 811,-76.5 811,-57.5 749,-57.5"/>
<text text-anchor="middle" x="780" y="-64.5" font-family="Helvetica,sans-Serif" font-size="10.00" fill="#000000">um_main</text>
</a>
</g>
</g>
<!-- Node203&#45;&gt;Node204 -->
<g id="edge6" class="edge">
<title>Node203&#45;&gt;Node204</title>
<path fill="none" stroke="#191970" d="M723.2756,-67C731.8294,-67 740.72,-67 748.8551,-67"/>
<polygon fill="#191970" stroke="#191970" points="723.0821,-63.5001 713.0821,-67 723.0821,-70.5001 723.0821,-63.5001"/>
</g>
<!-- Node206 -->
<g id="node9" class="node">
<title>Node206</title>
<g id="a_node9"><a xlink:href="u__model__4_a_8f90.xhtml#afa05064dab5eba198b461d0928767c7e" target="_top" xlink:title="LL Subroutine: U_MODEL_4A (ENDGAME VERSION) !&gt;LL. ">
<polygon fill="#ffffff" stroke="#000000" points="540,-38.5 540,-57.5 616,-57.5 616,-38.5 540,-38.5"/>
<text text-anchor="middle" x="578" y="-45.5" font-family="Helvetica,sans-Serif" font-size="10.00" fill="#000000">u_model_4a</text>
</a>
</g>
</g>
<!-- Node205&#45;&gt;Node206 -->
<g id="edge8" class="edge">
<title>Node205&#45;&gt;Node206</title>
<path fill="none" stroke="#191970" d="M514.3998,-48C522.891,-48 531.5803,-48 539.7002,-48"/>
<polygon fill="#191970" stroke="#191970" points="514.1922,-44.5001 504.1921,-48 514.1921,-51.5001 514.1922,-44.5001"/>
</g>
<!-- Node206&#45;&gt;Node203 -->
<g id="edge9" class="edge">
<title>Node206&#45;&gt;Node203</title>
<path fill="none" stroke="#191970" d="M625.8728,-56.7041C634.7087,-58.3107 643.7128,-59.9478 651.8647,-61.43"/>
<polygon fill="#191970" stroke="#191970" points="626.4873,-53.2586 616.0225,-54.9132 625.2351,-60.1457 626.4873,-53.2586"/>
</g>
<!-- Node208 -->
<g id="node11" class="node">
<title>Node208</title>
<g id="a_node11"><a xlink:href="scm__shell_8f90.xhtml#ab15255829ee7b5be626b1c0861b40c8d" target="_top" xlink:title="scm_shell is the main calling program for the Single Column Model. ">
<polygon fill="#ffffff" stroke="#000000" points="545.5,-.5 545.5,-19.5 610.5,-19.5 610.5,-.5 545.5,-.5"/>
<text text-anchor="middle" x="578" y="-7.5" font-family="Helvetica,sans-Serif" font-size="10.00" fill="#000000">scm_shell</text>
</a>
</g>
</g>
<!-- Node207&#45;&gt;Node208 -->
<g id="edge11" class="edge">
<title>Node207&#45;&gt;Node208</title>
<path fill="none" stroke="#191970" d="M507.8248,-10C520.3307,-10 533.7319,-10 545.4371,-10"/>
<polygon fill="#191970" stroke="#191970" points="507.5872,-6.5001 497.5872,-10 507.5871,-13.5001 507.5872,-6.5001"/>
</g>
</g>
</svg>
        <g id="navigator" transform="translate(0 0)" fill="#404254">
                <rect fill="#f2f5e9" fill-opacity="0.5" stroke="#606060" stroke-width=".5" x="0" y="0" width="60" height="60"/>
                <use id="zoomplus" xlink:href="#zoomPlus" x="17" y="9" onmousedown="handleZoom(evt,'in')"/>
                <use id="zoomminus" xlink:href="#zoomMin" x="42" y="9" onmousedown="handleZoom(evt,'out')"/>
                <use id="reset" xlink:href="#resetDef" x="30" y="36" onmousedown="handleReset()"/>
                <g id="arrowUp" xlink:href="#dirArrow" transform="translate(30 24)" onmousedown="handlePan(0,-1)">
                  <use xlink:href="#rim" fill="#404040">
                        <set attributeName="fill" to="#808080" begin="arrowUp.mouseover" end="arrowUp.mouseout"/>
                  </use>
                  <path fill="none" stroke="white" stroke-width="1.5" d="M0,-3.0v7 M-2.5,-0.5L0,-3.0L2.5,-0.5"/>
                </g>
                <g id="arrowRight" xlink:href="#dirArrow" transform="rotate(90) translate(36 -43)" onmousedown="handlePan(1,0)">
                  <use xlink:href="#rim" fill="#404040">
                        <set attributeName="fill" to="#808080" begin="arrowRight.mouseover" end="arrowRight.mouseout"/>
                  </use>
                  <path fill="none" stroke="white" stroke-width="1.5" d="M0,-3.0v7 M-2.5,-0.5L0,-3.0L2.5,-0.5"/>
                </g>
                <g id="arrowDown" xlink:href="#dirArrow" transform="rotate(180) translate(-30 -48)" onmousedown="handlePan(0,1)">
                  <use xlink:href="#rim" fill="#404040">
                        <set attributeName="fill" to="#808080" begin="arrowDown.mouseover" end="arrowDown.mouseout"/>
                  </use>
                  <path fill="none" stroke="white" stroke-width="1.5" d="M0,-3.0v7 M-2.5,-0.5L0,-3.0L2.5,-0.5"/>
                </g>
                <g id="arrowLeft" xlink:href="#dirArrow" transform="rotate(270) translate(-36 17)" onmousedown="handlePan(-1,0)">
                  <use xlink:href="#rim" fill="#404040">
                        <set attributeName="fill" to="#808080" begin="arrowLeft.mouseover" end="arrowLeft.mouseout"/>
                  </use>
                  <path fill="none" stroke="white" stroke-width="1.5" d="M0,-3.0v7 M-2.5,-0.5L0,-3.0L2.5,-0.5"/>
                </g>
        </g>
        <svg viewBox="0 0 15 15" width="100%" height="30px" preserveAspectRatio="xMaxYMin meet">
         <g id="arrow_out" transform="scale(0.3 0.3)">
          <a xlink:href="namespaceicao__ht__mod_aaef2bd6f022a3da03887a386536aba56_icgraph_org.svg" target="_base">
           <rect id="button" ry="5" rx="5" y="6" x="6" height="38" width="38"
                fill="#f2f5e9" fill-opacity="0.5" stroke="#606060" stroke-width="1.0"/>
           <path id="arrow"
             d="M 11.500037,31.436501 C 11.940474,20.09759 22.043105,11.32322 32.158766,21.979434 L 37.068811,17.246167 C 37.068811,17.246167 37.088388,32 37.088388,32 L 22.160133,31.978069 C 22.160133,31.978069 26.997745,27.140456 26.997745,27.140456 C 18.528582,18.264221 13.291696,25.230495 11.500037,31.436501 z"
             style="fill:#404040;"/>
          </a>
         </g>
        </svg>
</svg>
