<?xml version="1.0" encoding="UTF-8" standalone="no"?>
<!DOCTYPE svg PUBLIC "-//W3C//DTD SVG 1.1//EN"
 "http://www.w3.org/Graphics/SVG/1.1/DTD/svg11.dtd">
<!-- Generated by graphviz version 2.40.1 (20161225.0304)
 -->
<!-- Title: ukca_emiss_factors::base_emiss_factors Pages: 1 -->
<svg width="313pt" height="39pt"
 viewBox="0.00 0.00 313.00 39.00" xmlns="http://www.w3.org/2000/svg" xmlns:xlink="http://www.w3.org/1999/xlink">
<g id="graph0" class="graph" transform="scale(1 1) rotate(0) translate(4 35)">
<title>ukca_emiss_factors::base_emiss_factors</title>
<polygon fill="#ffffff" stroke="transparent" points="-4,4 -4,-35 309,-35 309,4 -4,4"/>
<!-- Node2 -->
<g id="node1" class="node">
<title>Node2</title>
<polygon fill="#bfbfbf" stroke="#000000" points="0,-.5 0,-30.5 119,-30.5 119,-.5 0,-.5"/>
<text text-anchor="start" x="8" y="-18.5" font-family="Helvetica,sans-Serif" font-size="10.00" fill="#000000">ukca_emiss_factors</text>
<text text-anchor="middle" x="59.5" y="-7.5" font-family="Helvetica,sans-Serif" font-size="10.00" fill="#000000">::base_emiss_factors</text>
</g>
<!-- Node3 -->
<g id="node2" class="node">
<title>Node3</title>
<g id="a_node2"><a xlink:href="namespaceukca__new__emiss__ctl__mod.xhtml#a09e21dd1c2f6ef3fe34d3403e1779ced" target="_top" xlink:title="ukca_new_emiss_ctl\l_mod::ukca_new_emiss_ctl">
<polygon fill="#ffffff" stroke="#000000" points="155,-.5 155,-30.5 305,-30.5 305,-.5 155,-.5"/>
<text text-anchor="start" x="163" y="-18.5" font-family="Helvetica,sans-Serif" font-size="10.00" fill="#000000">ukca_new_emiss_ctl</text>
<text text-anchor="middle" x="230" y="-7.5" font-family="Helvetica,sans-Serif" font-size="10.00" fill="#000000">_mod::ukca_new_emiss_ctl</text>
</a>
</g>
</g>
<!-- Node2&#45;&gt;Node3 -->
<g id="edge1" class="edge">
<title>Node2&#45;&gt;Node3</title>
<path fill="none" stroke="#191970" d="M129.2752,-15.5C137.694,-15.5 146.321,-15.5 154.813,-15.5"/>
<polygon fill="#191970" stroke="#191970" points="129.1327,-12.0001 119.1326,-15.5 129.1326,-19.0001 129.1327,-12.0001"/>
</g>
</g>
</svg>
