<?xml version="1.0" encoding="UTF-8" standalone="no"?>
<!DOCTYPE svg PUBLIC "-//W3C//DTD SVG 1.1//EN"
 "http://www.w3.org/Graphics/SVG/1.1/DTD/svg11.dtd">
<!-- Generated by graphviz version 2.40.1 (20161225.0304)
 -->
<!-- Title: utils_mod::deriv_gridpoint Pages: 1 -->
<svg width="2068pt" height="541pt"
 viewBox="0.00 0.00 2068.00 541.00" xmlns="http://www.w3.org/2000/svg" xmlns:xlink="http://www.w3.org/1999/xlink">
<g id="graph0" class="graph" transform="scale(1 1) rotate(0) translate(4 537)">
<title>utils_mod::deriv_gridpoint</title>
<polygon fill="#ffffff" stroke="transparent" points="-4,4 -4,-537 2064,-537 2064,4 -4,4"/>
<!-- Node19 -->
<g id="node1" class="node">
<title>Node19</title>
<polygon fill="#bfbfbf" stroke="#000000" points="0,-250 0,-269 144,-269 144,-250 0,-250"/>
<text text-anchor="middle" x="72" y="-257" font-family="Helvetica,sans-Serif" font-size="10.00" fill="#000000">utils_mod::deriv_gridpoint</text>
</g>
<!-- Node20 -->
<g id="node2" class="node">
<title>Node20</title>
<g id="a_node2"><a xlink:href="namespaceutils__mod.xhtml#a634624f9865fd619988c365e4ee38dcf" target="_top" xlink:title="utils_mod::deriv">
<polygon fill="#ffffff" stroke="#000000" points="182,-388 182,-407 277,-407 277,-388 182,-388"/>
<text text-anchor="middle" x="229.5" y="-395" font-family="Helvetica,sans-Serif" font-size="10.00" fill="#000000">utils_mod::deriv</text>
</a>
</g>
</g>
<!-- Node19&#45;&gt;Node20 -->
<g id="edge1" class="edge">
<title>Node19&#45;&gt;Node20</title>
<path fill="none" stroke="#191970" d="M90.7171,-275.8998C123.927,-304.9979 192.1535,-364.7773 218.6462,-387.99"/>
<polygon fill="#191970" stroke="#191970" points="92.903,-273.1616 83.0751,-269.2039 88.2899,-278.4265 92.903,-273.1616"/>
</g>
<!-- Node32 -->
<g id="node14" class="node">
<title>Node32</title>
<g id="a_node14"><a xlink:href="namespaceutils__mod.xhtml#a342a50c6f6fc85a69eaa3ec622a2ecba" target="_top" xlink:title="utils_mod::interp">
<polygon fill="#ffffff" stroke="#000000" points="180,-231 180,-250 279,-250 279,-231 180,-231"/>
<text text-anchor="middle" x="229.5" y="-238" font-family="Helvetica,sans-Serif" font-size="10.00" fill="#000000">utils_mod::interp</text>
</a>
</g>
</g>
<!-- Node19&#45;&gt;Node32 -->
<g id="edge14" class="edge">
<title>Node19&#45;&gt;Node32</title>
<path fill="none" stroke="#191970" d="M154.4175,-249.5576C163.0372,-248.5177 171.5983,-247.485 179.6863,-246.5093"/>
<polygon fill="#191970" stroke="#191970" points="153.8053,-246.106 144.2965,-250.7785 154.6437,-253.0556 153.8053,-246.106"/>
</g>
<!-- Node21 -->
<g id="node3" class="node">
<title>Node21</title>
<g id="a_node3"><a xlink:href="namespaceradiation__mod.xhtml#af6f1ea0d5506cf085fa43e822d3b36fa" target="_top" xlink:title="radiation_mod::eval\l_flux_deriv">
<polygon fill="#ffffff" stroke="#000000" points="317.5,-502.5 317.5,-532.5 431.5,-532.5 431.5,-502.5 317.5,-502.5"/>
<text text-anchor="start" x="325.5" y="-520.5" font-family="Helvetica,sans-Serif" font-size="10.00" fill="#000000">radiation_mod::eval</text>
<text text-anchor="middle" x="374.5" y="-509.5" font-family="Helvetica,sans-Serif" font-size="10.00" fill="#000000">_flux_deriv</text>
</a>
</g>
</g>
<!-- Node20&#45;&gt;Node21 -->
<g id="edge2" class="edge">
<title>Node20&#45;&gt;Node21</title>
<path fill="none" stroke="#191970" d="M243.2289,-415.2678C258.9797,-434.7943 286.3469,-466.2102 315,-487.5 322.5216,-493.0887 331.2401,-498.1442 339.6452,-502.4444"/>
<polygon fill="#191970" stroke="#191970" points="245.7999,-412.8767 236.8467,-407.2119 240.3131,-417.2236 245.7999,-412.8767"/>
</g>
<!-- Node22 -->
<g id="node4" class="node">
<title>Node22</title>
<g id="a_node4"><a xlink:href="namespaceradiation__mod.xhtml#a39472bb3b43c31fad4fc0ebf93e559bc" target="_top" xlink:title="radiation_mod::find\l_flux_deriv">
<polygon fill="#ffffff" stroke="#000000" points="481.5,-502.5 481.5,-532.5 592.5,-532.5 592.5,-502.5 481.5,-502.5"/>
<text text-anchor="start" x="489.5" y="-520.5" font-family="Helvetica,sans-Serif" font-size="10.00" fill="#000000">radiation_mod::find</text>
<text text-anchor="middle" x="537" y="-509.5" font-family="Helvetica,sans-Serif" font-size="10.00" fill="#000000">_flux_deriv</text>
</a>
</g>
</g>
<!-- Node21&#45;&gt;Node22 -->
<g id="edge3" class="edge">
<title>Node21&#45;&gt;Node22</title>
<path fill="none" stroke="#191970" d="M442.1253,-517.5C455.1732,-517.5 468.7035,-517.5 481.3183,-517.5"/>
<polygon fill="#191970" stroke="#191970" points="441.7915,-514.0001 431.7914,-517.5 441.7914,-521.0001 441.7915,-514.0001"/>
</g>
<!-- Node23 -->
<g id="node5" class="node">
<title>Node23</title>
<g id="a_node5"><a xlink:href="namespaceradiation__mod.xhtml#aad595ee1ed22a557c74f50271f6e9a77" target="_top" xlink:title="radiation_mod::find\l_temperature_rate">
<polygon fill="#ffffff" stroke="#000000" points="645,-458.5 645,-488.5 756,-488.5 756,-458.5 645,-458.5"/>
<text text-anchor="start" x="653" y="-476.5" font-family="Helvetica,sans-Serif" font-size="10.00" fill="#000000">radiation_mod::find</text>
<text text-anchor="middle" x="700.5" y="-465.5" font-family="Helvetica,sans-Serif" font-size="10.00" fill="#000000">_temperature_rate</text>
</a>
</g>
</g>
<!-- Node22&#45;&gt;Node23 -->
<g id="edge4" class="edge">
<title>Node22&#45;&gt;Node23</title>
<path fill="none" stroke="#191970" d="M602.8383,-499.7821C616.8002,-496.0247 631.4063,-492.094 644.9414,-488.4516"/>
<polygon fill="#191970" stroke="#191970" points="601.557,-496.5023 592.8101,-502.4808 603.3761,-503.2618 601.557,-496.5023"/>
</g>
<!-- Node24 -->
<g id="node6" class="node">
<title>Node24</title>
<g id="a_node6"><a xlink:href="namespacecolumn__mod.xhtml#a62f818413fe7f1c57af1e77eef537f1f" target="_top" xlink:title="column_mod::evolve\l_column">
<polygon fill="#ffffff" stroke="#000000" points="1195.5,-282.5 1195.5,-312.5 1314.5,-312.5 1314.5,-282.5 1195.5,-282.5"/>
<text text-anchor="start" x="1203.5" y="-300.5" font-family="Helvetica,sans-Serif" font-size="10.00" fill="#000000">column_mod::evolve</text>
<text text-anchor="middle" x="1255" y="-289.5" font-family="Helvetica,sans-Serif" font-size="10.00" fill="#000000">_column</text>
</a>
</g>
</g>
<!-- Node23&#45;&gt;Node24 -->
<g id="edge5" class="edge">
<title>Node23&#45;&gt;Node24</title>
<path fill="none" stroke="#191970" d="M766.299,-479.9455C858.5838,-485.9178 1029.0372,-485.5265 1153,-418.5 1198.9199,-393.6712 1232.8633,-339.0457 1247.3133,-312.5298"/>
<polygon fill="#191970" stroke="#191970" points="766.4745,-476.4494 756.2566,-479.2502 765.9909,-483.4327 766.4745,-476.4494"/>
</g>
<!-- Node25 -->
<g id="node7" class="node">
<title>Node25</title>
<g id="a_node7"><a xlink:href="namespaceeg__moist__gcm__ctl__mod.xhtml#aaa5af5fd7888d583f447738840aca1a6" target="_top" xlink:title="eg_moist_gcm_ctl_mod\l::eg_moist_gcm_ctl">
<polygon fill="#ffffff" stroke="#000000" points="1357,-86.5 1357,-116.5 1489,-116.5 1489,-86.5 1357,-86.5"/>
<text text-anchor="start" x="1365" y="-104.5" font-family="Helvetica,sans-Serif" font-size="10.00" fill="#000000">eg_moist_gcm_ctl_mod</text>
<text text-anchor="middle" x="1423" y="-93.5" font-family="Helvetica,sans-Serif" font-size="10.00" fill="#000000">::eg_moist_gcm_ctl</text>
</a>
</g>
</g>
<!-- Node24&#45;&gt;Node25 -->
<g id="edge6" class="edge">
<title>Node24&#45;&gt;Node25</title>
<path fill="none" stroke="#191970" d="M1274.5263,-274.7193C1309.2308,-234.2308 1380.7539,-150.7871 1410.0523,-116.6056"/>
<polygon fill="#191970" stroke="#191970" points="1271.7543,-272.5753 1267.9037,-282.4457 1277.0691,-277.1308 1271.7543,-272.5753"/>
</g>
<!-- Node26 -->
<g id="node8" class="node">
<title>Node26</title>
<g id="a_node8"><a xlink:href="namespaceeg__idl__forcing__mod.xhtml#af6b661542faffe897edc18d4ac526e89" target="_top" xlink:title="This file belongs in section: Dynamics. ">
<polygon fill="#ffffff" stroke="#000000" points="1525,-111.5 1525,-141.5 1637,-141.5 1637,-111.5 1525,-111.5"/>
<text text-anchor="start" x="1533" y="-129.5" font-family="Helvetica,sans-Serif" font-size="10.00" fill="#000000">eg_idl_forcing_mod</text>
<text text-anchor="middle" x="1581" y="-118.5" font-family="Helvetica,sans-Serif" font-size="10.00" fill="#000000">::eg_idl_forcing</text>
</a>
</g>
</g>
<!-- Node25&#45;&gt;Node26 -->
<g id="edge7" class="edge">
<title>Node25&#45;&gt;Node26</title>
<path fill="none" stroke="#191970" d="M1499.1495,-113.549C1507.7567,-114.9109 1516.409,-116.2799 1524.6971,-117.5913"/>
<polygon fill="#191970" stroke="#191970" points="1499.5149,-110.0633 1489.0907,-111.9574 1498.4208,-116.9773 1499.5149,-110.0633"/>
</g>
<!-- Node31 -->
<g id="node13" class="node">
<title>Node31</title>
<g id="a_node13"><a xlink:href="namespaceeg__idl__forcing__mod.xhtml#a2a8abd90e51b9822688a00906f4c0486" target="_top" xlink:title="eg_idl_forcing_mod\l::eg_idl_forcing2">
<polygon fill="#ffffff" stroke="#000000" points="1525,-62.5 1525,-92.5 1637,-92.5 1637,-62.5 1525,-62.5"/>
<text text-anchor="start" x="1533" y="-80.5" font-family="Helvetica,sans-Serif" font-size="10.00" fill="#000000">eg_idl_forcing_mod</text>
<text text-anchor="middle" x="1581" y="-69.5" font-family="Helvetica,sans-Serif" font-size="10.00" fill="#000000">::eg_idl_forcing2</text>
</a>
</g>
</g>
<!-- Node25&#45;&gt;Node31 -->
<g id="edge12" class="edge">
<title>Node25&#45;&gt;Node31</title>
<path fill="none" stroke="#191970" d="M1499.1495,-89.933C1507.7567,-88.6256 1516.409,-87.3113 1524.6971,-86.0523"/>
<polygon fill="#191970" stroke="#191970" points="1498.4517,-86.4987 1489.0907,-91.4609 1499.503,-93.4194 1498.4517,-86.4987"/>
</g>
<!-- Node27 -->
<g id="node9" class="node">
<title>Node27</title>
<g id="a_node9"><a xlink:href="atm__step__4_a_8f90.xhtml#a2319aa4963e90c64cd78bdcd5f481095" target="_top" xlink:title="Perform a 1&#45;timestep integration of the Atmosphere Model. ">
<polygon fill="#ffffff" stroke="#000000" points="1673,-92 1673,-111 1753,-111 1753,-92 1673,-92"/>
<text text-anchor="middle" x="1713" y="-99" font-family="Helvetica,sans-Serif" font-size="10.00" fill="#000000">atm_step_4a</text>
</a>
</g>
</g>
<!-- Node26&#45;&gt;Node27 -->
<g id="edge8" class="edge">
<title>Node26&#45;&gt;Node27</title>
<path fill="none" stroke="#191970" d="M1647.198,-113.9625C1655.9363,-112.3075 1664.6701,-110.6534 1672.7865,-109.1162"/>
<polygon fill="#191970" stroke="#191970" points="1646.5368,-110.5254 1637.3628,-115.8252 1647.8394,-117.4032 1646.5368,-110.5254"/>
</g>
<!-- Node28 -->
<g id="node10" class="node">
<title>Node28</title>
<g id="a_node10"><a xlink:href="u__model__4_a_8f90.xhtml#afa05064dab5eba198b461d0928767c7e" target="_top" xlink:title="LL Subroutine: U_MODEL_4A (ENDGAME VERSION) !&gt;LL. ">
<polygon fill="#ffffff" stroke="#000000" points="1789,-92 1789,-111 1865,-111 1865,-92 1789,-92"/>
<text text-anchor="middle" x="1827" y="-99" font-family="Helvetica,sans-Serif" font-size="10.00" fill="#000000">u_model_4a</text>
</a>
</g>
</g>
<!-- Node27&#45;&gt;Node28 -->
<g id="edge9" class="edge">
<title>Node27&#45;&gt;Node28</title>
<path fill="none" stroke="#191970" d="M1763.3998,-101.5C1771.891,-101.5 1780.5803,-101.5 1788.7002,-101.5"/>
<polygon fill="#191970" stroke="#191970" points="1763.1922,-98.0001 1753.1921,-101.5 1763.1921,-105.0001 1763.1922,-98.0001"/>
</g>
<!-- Node29 -->
<g id="node11" class="node">
<title>Node29</title>
<g id="a_node11"><a xlink:href="um__shell_8f90.xhtml#a8c9bd25362824a5c301376ecb5ed5c27" target="_top" xlink:title="Subroutine: UM_SHELL !&gt; ">
<polygon fill="#ffffff" stroke="#000000" points="1901,-92 1901,-111 1962,-111 1962,-92 1901,-92"/>
<text text-anchor="middle" x="1931.5" y="-99" font-family="Helvetica,sans-Serif" font-size="10.00" fill="#000000">um_shell</text>
</a>
</g>
</g>
<!-- Node28&#45;&gt;Node29 -->
<g id="edge10" class="edge">
<title>Node28&#45;&gt;Node29</title>
<path fill="none" stroke="#191970" d="M1875.1579,-101.5C1883.9023,-101.5 1892.8005,-101.5 1900.8647,-101.5"/>
<polygon fill="#191970" stroke="#191970" points="1875.0225,-98.0001 1865.0225,-101.5 1875.0225,-105.0001 1875.0225,-98.0001"/>
</g>
<!-- Node30 -->
<g id="node12" class="node">
<title>Node30</title>
<g id="a_node12"><a xlink:href="um__main_8f90.xhtml#a8f2d13215621443a5313261c282f098b" target="_top" xlink:title="Code Owner: See Unified Model Code Owner&#39;s HTML page. ">
<polygon fill="#ffffff" stroke="#000000" points="1998,-92 1998,-111 2060,-111 2060,-92 1998,-92"/>
<text text-anchor="middle" x="2029" y="-99" font-family="Helvetica,sans-Serif" font-size="10.00" fill="#000000">um_main</text>
</a>
</g>
</g>
<!-- Node29&#45;&gt;Node30 -->
<g id="edge11" class="edge">
<title>Node29&#45;&gt;Node30</title>
<path fill="none" stroke="#191970" d="M1972.2756,-101.5C1980.8294,-101.5 1989.72,-101.5 1997.8551,-101.5"/>
<polygon fill="#191970" stroke="#191970" points="1972.0821,-98.0001 1962.0821,-101.5 1972.0821,-105.0001 1972.0821,-98.0001"/>
</g>
<!-- Node31&#45;&gt;Node27 -->
<g id="edge13" class="edge">
<title>Node31&#45;&gt;Node27</title>
<path fill="none" stroke="#191970" d="M1647.4799,-89.5872C1656.1241,-91.1589 1664.7574,-92.7286 1672.7865,-94.1885"/>
<polygon fill="#191970" stroke="#191970" points="1647.8276,-86.0932 1637.3628,-87.7478 1646.5753,-92.9803 1647.8276,-86.0932"/>
</g>
<!-- Node32&#45;&gt;Node21 -->
<g id="edge48" class="edge">
<title>Node32&#45;&gt;Node21</title>
<path fill="none" stroke="#191970" d="M236.5971,-259.7985C246.3514,-286.4311 264.3571,-335.9857 279,-378.5 295.6141,-426.7373 281.6906,-448.8561 315,-487.5 320.1361,-493.4586 326.7417,-498.3684 333.6739,-502.3662"/>
<polygon fill="#191970" stroke="#191970" points="239.7962,-258.3564 233.0657,-250.1741 233.2247,-260.7678 239.7962,-258.3564"/>
</g>
<!-- Node32&#45;&gt;Node23 -->
<g id="edge47" class="edge">
<title>Node32&#45;&gt;Node23</title>
<path fill="none" stroke="#191970" d="M233.9152,-260.3767C242.8575,-295.9291 266.5169,-370.4283 315,-410.5 409.6121,-488.6977 563.1456,-487.8122 644.986,-480.5816"/>
<polygon fill="#191970" stroke="#191970" points="237.2362,-259.2133 231.5162,-250.2953 230.4263,-260.8339 237.2362,-259.2133"/>
</g>
<!-- Node33 -->
<g id="node15" class="node">
<title>Node33</title>
<g id="a_node15"><a xlink:href="namespaceboundary__layer__mod.xhtml#afc88b09b6f9668258aac78a84fda5761" target="_top" xlink:title="boundary_layer_mod\l::richardson_number">
<polygon fill="#ffffff" stroke="#000000" points="315,-370.5 315,-400.5 434,-400.5 434,-370.5 315,-370.5"/>
<text text-anchor="start" x="323" y="-388.5" font-family="Helvetica,sans-Serif" font-size="10.00" fill="#000000">boundary_layer_mod</text>
<text text-anchor="middle" x="374.5" y="-377.5" font-family="Helvetica,sans-Serif" font-size="10.00" fill="#000000">::richardson_number</text>
</a>
</g>
</g>
<!-- Node32&#45;&gt;Node33 -->
<g id="edge15" class="edge">
<title>Node32&#45;&gt;Node33</title>
<path fill="none" stroke="#191970" d="M243.3429,-258.2783C259.5453,-278.6138 287.6535,-312.457 315,-338.5 327.0112,-349.9386 341.6126,-361.503 353.3449,-370.2984"/>
<polygon fill="#191970" stroke="#191970" points="245.9157,-255.8886 236.9731,-250.2068 240.4207,-260.2251 245.9157,-255.8886"/>
</g>
<!-- Node38 -->
<g id="node20" class="node">
<title>Node38</title>
<g id="a_node20"><a xlink:href="namespaceboundary__layer__mod.xhtml#affa05435eab4611b0ae3e1e262d7b556" target="_top" xlink:title="boundary_layer_mod\l::richardson_number\l_lowest">
<polygon fill="#ffffff" stroke="#000000" points="315,-288 315,-329 434,-329 434,-288 315,-288"/>
<text text-anchor="start" x="323" y="-317" font-family="Helvetica,sans-Serif" font-size="10.00" fill="#000000">boundary_layer_mod</text>
<text text-anchor="start" x="323" y="-306" font-family="Helvetica,sans-Serif" font-size="10.00" fill="#000000">::richardson_number</text>
<text text-anchor="middle" x="374.5" y="-295" font-family="Helvetica,sans-Serif" font-size="10.00" fill="#000000">_lowest</text>
</a>
</g>
</g>
<!-- Node32&#45;&gt;Node38 -->
<g id="edge24" class="edge">
<title>Node32&#45;&gt;Node38</title>
<path fill="none" stroke="#191970" d="M259.1497,-254.4047C279.7105,-264.047 307.4428,-277.0525 330.5625,-287.8948"/>
<polygon fill="#191970" stroke="#191970" points="260.5074,-251.1757 249.9674,-250.0985 257.5352,-257.5134 260.5074,-251.1757"/>
</g>
<!-- Node40 -->
<g id="node22" class="node">
<title>Node40</title>
<g id="a_node22"><a xlink:href="namespaceboundary__layer__mod.xhtml#a80dcecd1317ba9a2473c2029bdd96c78" target="_top" xlink:title="boundary_layer_mod\l::sensible_heat_flux">
<polygon fill="#ffffff" stroke="#000000" points="641,-276.5 641,-306.5 760,-306.5 760,-276.5 641,-276.5"/>
<text text-anchor="start" x="649" y="-294.5" font-family="Helvetica,sans-Serif" font-size="10.00" fill="#000000">boundary_layer_mod</text>
<text text-anchor="middle" x="700.5" y="-283.5" font-family="Helvetica,sans-Serif" font-size="10.00" fill="#000000">::sensible_heat_flux</text>
</a>
</g>
</g>
<!-- Node32&#45;&gt;Node40 -->
<g id="edge33" class="edge">
<title>Node32&#45;&gt;Node40</title>
<path fill="none" stroke="#191970" d="M289.2654,-246.3528C363.2171,-253.6804 492.968,-266.8164 604,-279.5 615.9091,-280.8604 628.6352,-282.3893 640.8089,-283.8885"/>
<polygon fill="#191970" stroke="#191970" points="289.5045,-242.8595 279.2085,-245.3581 288.8154,-249.8255 289.5045,-242.8595"/>
</g>
<!-- Node41 -->
<g id="node23" class="node">
<title>Node41</title>
<g id="a_node23"><a xlink:href="namespaceboundary__layer__mod.xhtml#af3c4007ffbaaa6495d729f28e9b8d19f" target="_top" xlink:title="boundary_layer_mod\l::evaporation">
<polygon fill="#ffffff" stroke="#000000" points="641,-227.5 641,-257.5 760,-257.5 760,-227.5 641,-227.5"/>
<text text-anchor="start" x="649" y="-245.5" font-family="Helvetica,sans-Serif" font-size="10.00" fill="#000000">boundary_layer_mod</text>
<text text-anchor="middle" x="700.5" y="-234.5" font-family="Helvetica,sans-Serif" font-size="10.00" fill="#000000">::evaporation</text>
</a>
</g>
</g>
<!-- Node32&#45;&gt;Node41 -->
<g id="edge34" class="edge">
<title>Node32&#45;&gt;Node41</title>
<path fill="none" stroke="#191970" d="M289.0939,-240.7531C379.4419,-241.1367 550.1112,-241.8614 640.6253,-242.2458"/>
<polygon fill="#191970" stroke="#191970" points="289.0298,-237.2528 279.015,-240.7103 289.0001,-244.2528 289.0298,-237.2528"/>
</g>
<!-- Node42 -->
<g id="node24" class="node">
<title>Node42</title>
<g id="a_node24"><a xlink:href="namespacecolumn__mod.xhtml#ae8a0227e5d6a99556f3a91b66af27771" target="_top" xlink:title="column_mod::level_mass">
<polygon fill="#ffffff" stroke="#000000" points="797,-174 797,-193 938,-193 938,-174 797,-174"/>
<text text-anchor="middle" x="867.5" y="-181" font-family="Helvetica,sans-Serif" font-size="10.00" fill="#000000">column_mod::level_mass</text>
</a>
</g>
</g>
<!-- Node32&#45;&gt;Node42 -->
<g id="edge35" class="edge">
<title>Node32&#45;&gt;Node42</title>
<path fill="none" stroke="#191970" d="M289.3304,-235.1546C407.5247,-224.595 670.4324,-201.1063 796.8861,-189.8088"/>
<polygon fill="#191970" stroke="#191970" points="288.6807,-231.6987 279.0319,-236.0747 289.3037,-238.6709 288.6807,-231.6987"/>
</g>
<!-- Node44 -->
<g id="node26" class="node">
<title>Node44</title>
<g id="a_node26"><a xlink:href="namespaceeg__moist__gcm__ctl__mod.xhtml#a9f821dabcf7b0592a10c12eaa45223db" target="_top" xlink:title="eg_moist_gcm_ctl_mod\l::construct_column">
<polygon fill="#ffffff" stroke="#000000" points="1189,-130.5 1189,-160.5 1321,-160.5 1321,-130.5 1189,-130.5"/>
<text text-anchor="start" x="1197" y="-148.5" font-family="Helvetica,sans-Serif" font-size="10.00" fill="#000000">eg_moist_gcm_ctl_mod</text>
<text text-anchor="middle" x="1255" y="-137.5" font-family="Helvetica,sans-Serif" font-size="10.00" fill="#000000">::construct_column</text>
</a>
</g>
</g>
<!-- Node32&#45;&gt;Node44 -->
<g id="edge39" class="edge">
<title>Node32&#45;&gt;Node44</title>
<path fill="none" stroke="#191970" d="M256.2361,-226.2607C308.577,-199.7527 428.9047,-145.5 537,-145.5 537,-145.5 537,-145.5 867.5,-145.5 980.3526,-145.5 1111.6926,-145.5 1188.8344,-145.5"/>
<polygon fill="#191970" stroke="#191970" points="254.5662,-223.1837 247.2724,-230.8681 257.7663,-229.4094 254.5662,-223.1837"/>
</g>
<!-- Node45 -->
<g id="node27" class="node">
<title>Node45</title>
<g id="a_node27"><a xlink:href="namespaceeg__moist__gcm__ctl__mod.xhtml#a4a3d4cdc778d1b4efb432ca825e8ed09" target="_top" xlink:title="eg_moist_gcm_ctl_mod\l::construct_column_u">
<polygon fill="#ffffff" stroke="#000000" points="801.5,-86.5 801.5,-116.5 933.5,-116.5 933.5,-86.5 801.5,-86.5"/>
<text text-anchor="start" x="809.5" y="-104.5" font-family="Helvetica,sans-Serif" font-size="10.00" fill="#000000">eg_moist_gcm_ctl_mod</text>
<text text-anchor="middle" x="867.5" y="-93.5" font-family="Helvetica,sans-Serif" font-size="10.00" fill="#000000">::construct_column_u</text>
</a>
</g>
</g>
<!-- Node32&#45;&gt;Node45 -->
<g id="edge41" class="edge">
<title>Node32&#45;&gt;Node45</title>
<path fill="none" stroke="#191970" d="M237.9978,-221.6154C250.6613,-196.0097 277.1246,-151.2155 315,-131.5 473.275,-49.1121 692.7432,-70.4889 801.2749,-88.4252"/>
<polygon fill="#191970" stroke="#191970" points="234.6746,-220.455 233.5556,-230.9906 241.0004,-223.4524 234.6746,-220.455"/>
</g>
<!-- Node46 -->
<g id="node28" class="node">
<title>Node46</title>
<g id="a_node28"><a xlink:href="namespaceeg__moist__gcm__ctl__mod.xhtml#aa088b0cb339fff4b1476f1c713b078f8" target="_top" xlink:title="eg_moist_gcm_ctl_mod\l::construct_column_v">
<polygon fill="#ffffff" stroke="#000000" points="997.5,-42.5 997.5,-72.5 1129.5,-72.5 1129.5,-42.5 997.5,-42.5"/>
<text text-anchor="start" x="1005.5" y="-60.5" font-family="Helvetica,sans-Serif" font-size="10.00" fill="#000000">eg_moist_gcm_ctl_mod</text>
<text text-anchor="middle" x="1063.5" y="-49.5" font-family="Helvetica,sans-Serif" font-size="10.00" fill="#000000">::construct_column_v</text>
</a>
</g>
</g>
<!-- Node32&#45;&gt;Node46 -->
<g id="edge43" class="edge">
<title>Node32&#45;&gt;Node46</title>
<path fill="none" stroke="#191970" d="M234.1743,-220.7305C243.3199,-186.8136 267.0168,-118.0523 315,-85.5 397.2972,-29.6686 437.5516,-57.5 537,-57.5 537,-57.5 537,-57.5 700.5,-57.5 804.1693,-57.5 924.4924,-57.5 997.2609,-57.5"/>
<polygon fill="#191970" stroke="#191970" points="230.6877,-220.2403 231.6165,-230.7943 237.472,-221.9646 230.6877,-220.2403"/>
</g>
<!-- Node47 -->
<g id="node29" class="node">
<title>Node47</title>
<g id="a_node29"><a xlink:href="namespaceeg__moist__gcm__ctl__mod.xhtml#a20700f32dd018a63f27167489e7b5d80" target="_top" xlink:title="eg_moist_gcm_ctl_mod\l::deconstruct_columns">
<polygon fill="#ffffff" stroke="#000000" points="1189,-.5 1189,-30.5 1321,-30.5 1321,-.5 1189,-.5"/>
<text text-anchor="start" x="1197" y="-18.5" font-family="Helvetica,sans-Serif" font-size="10.00" fill="#000000">eg_moist_gcm_ctl_mod</text>
<text text-anchor="middle" x="1255" y="-7.5" font-family="Helvetica,sans-Serif" font-size="10.00" fill="#000000">::deconstruct_columns</text>
</a>
</g>
</g>
<!-- Node32&#45;&gt;Node47 -->
<g id="edge45" class="edge">
<title>Node32&#45;&gt;Node47</title>
<path fill="none" stroke="#191970" d="M231.976,-220.9179C238.115,-181.1817 257.9127,-91.1574 315,-47.5 394.2889,13.136 437.1829,-13.5 537,-13.5 537,-13.5 537,-13.5 867.5,-13.5 980.3542,-13.5 1111.6937,-14.3588 1188.8349,-14.9508"/>
<polygon fill="#191970" stroke="#191970" points="228.4967,-220.5256 230.5606,-230.9175 235.4276,-221.5067 228.4967,-220.5256"/>
</g>
<!-- Node34 -->
<g id="node16" class="node">
<title>Node34</title>
<g id="a_node16"><a xlink:href="namespaceboundary__layer__mod.xhtml#a9ea67a95dd610708b7dc84112216d471" target="_top" xlink:title="boundary_layer_mod\l::boundary_layer_height">
<polygon fill="#ffffff" stroke="#000000" points="470,-414.5 470,-444.5 604,-444.5 604,-414.5 470,-414.5"/>
<text text-anchor="start" x="478" y="-432.5" font-family="Helvetica,sans-Serif" font-size="10.00" fill="#000000">boundary_layer_mod</text>
<text text-anchor="middle" x="537" y="-421.5" font-family="Helvetica,sans-Serif" font-size="10.00" fill="#000000">::boundary_layer_height</text>
</a>
</g>
</g>
<!-- Node33&#45;&gt;Node34 -->
<g id="edge16" class="edge">
<title>Node33&#45;&gt;Node34</title>
<path fill="none" stroke="#191970" d="M439.8801,-403.2029C453.6787,-406.9392 468.1128,-410.8475 481.5055,-414.4738"/>
<polygon fill="#191970" stroke="#191970" points="440.536,-399.7545 429.9688,-400.5192 438.7064,-406.5112 440.536,-399.7545"/>
</g>
<!-- Node35 -->
<g id="node17" class="node">
<title>Node35</title>
<g id="a_node17"><a xlink:href="namespaceboundary__layer__mod.xhtml#ab01ff586f0a2cc1a44ebcfcb526949af" target="_top" xlink:title="boundary_layer_mod\l::diffusion_coefficient">
<polygon fill="#ffffff" stroke="#000000" points="640,-370.5 640,-400.5 761,-400.5 761,-370.5 640,-370.5"/>
<text text-anchor="start" x="648" y="-388.5" font-family="Helvetica,sans-Serif" font-size="10.00" fill="#000000">boundary_layer_mod</text>
<text text-anchor="middle" x="700.5" y="-377.5" font-family="Helvetica,sans-Serif" font-size="10.00" fill="#000000">::diffusion_coefficient</text>
</a>
</g>
</g>
<!-- Node33&#45;&gt;Node35 -->
<g id="edge23" class="edge">
<title>Node33&#45;&gt;Node35</title>
<path fill="none" stroke="#191970" d="M444.5045,-385.5C502.6803,-385.5 584.606,-385.5 639.9816,-385.5"/>
<polygon fill="#191970" stroke="#191970" points="444.2935,-382.0001 434.2934,-385.5 444.2934,-389.0001 444.2935,-382.0001"/>
</g>
<!-- Node34&#45;&gt;Node35 -->
<g id="edge17" class="edge">
<title>Node34&#45;&gt;Node35</title>
<path fill="none" stroke="#191970" d="M602.7824,-411.7971C616.666,-408.0608 631.1888,-404.1525 644.664,-400.5262"/>
<polygon fill="#191970" stroke="#191970" points="601.557,-408.5023 592.8101,-414.4808 603.3761,-415.2618 601.557,-408.5023"/>
</g>
<!-- Node36 -->
<g id="node18" class="node">
<title>Node36</title>
<g id="a_node18"><a xlink:href="namespaceboundary__layer__mod.xhtml#adcc62244205dc6d832adf449809426c8" target="_top" xlink:title="boundary_layer_mod\l::find_new_field">
<polygon fill="#ffffff" stroke="#000000" points="808,-388.5 808,-418.5 927,-418.5 927,-388.5 808,-388.5"/>
<text text-anchor="start" x="816" y="-406.5" font-family="Helvetica,sans-Serif" font-size="10.00" fill="#000000">boundary_layer_mod</text>
<text text-anchor="middle" x="867.5" y="-395.5" font-family="Helvetica,sans-Serif" font-size="10.00" fill="#000000">::find_new_field</text>
</a>
</g>
</g>
<!-- Node34&#45;&gt;Node36 -->
<g id="edge22" class="edge">
<title>Node34&#45;&gt;Node36</title>
<path fill="none" stroke="#191970" d="M614.311,-423.418C673.3853,-418.7707 753.6164,-412.4591 807.8041,-408.1962"/>
<polygon fill="#191970" stroke="#191970" points="613.9746,-419.9336 604.28,-424.2072 614.5237,-426.912 613.9746,-419.9336"/>
</g>
<!-- Node35&#45;&gt;Node36 -->
<g id="edge18" class="edge">
<title>Node35&#45;&gt;Node36</title>
<path fill="none" stroke="#191970" d="M771.3721,-393.1389C783.5367,-394.4501 796.0674,-395.8007 807.899,-397.0759"/>
<polygon fill="#191970" stroke="#191970" points="771.5808,-389.6412 761.2632,-392.0493 770.8306,-396.6009 771.5808,-389.6412"/>
</g>
<!-- Node36&#45;&gt;Node24 -->
<g id="edge19" class="edge">
<title>Node36&#45;&gt;Node24</title>
<path fill="none" stroke="#191970" d="M937.2705,-413.9829C996.925,-419.9244 1083.838,-421.2691 1153,-392.5 1193.4415,-375.6777 1227.6853,-335.1533 1244.2789,-312.8524"/>
<polygon fill="#191970" stroke="#191970" points="937.514,-410.4891 927.1996,-412.9105 936.7728,-417.4498 937.514,-410.4891"/>
</g>
<!-- Node37 -->
<g id="node19" class="node">
<title>Node37</title>
<g id="a_node19"><a xlink:href="namespacecolumn__mod.xhtml#a81629de64cb9598807289ed8dccf030b" target="_top" xlink:title="column_mod::apply_diffusion">
<polygon fill="#ffffff" stroke="#000000" points="983.5,-364 983.5,-383 1143.5,-383 1143.5,-364 983.5,-364"/>
<text text-anchor="middle" x="1063.5" y="-371" font-family="Helvetica,sans-Serif" font-size="10.00" fill="#000000">column_mod::apply_diffusion</text>
</a>
</g>
</g>
<!-- Node36&#45;&gt;Node37 -->
<g id="edge20" class="edge">
<title>Node36&#45;&gt;Node37</title>
<path fill="none" stroke="#191970" d="M937.1753,-392.8354C958.0338,-389.6428 980.765,-386.1635 1001.1224,-383.0476"/>
<polygon fill="#191970" stroke="#191970" points="936.4601,-389.404 927.1048,-394.3768 937.5192,-396.3235 936.4601,-389.404"/>
</g>
<!-- Node37&#45;&gt;Node24 -->
<g id="edge21" class="edge">
<title>Node37&#45;&gt;Node24</title>
<path fill="none" stroke="#191970" d="M1116.0926,-361.3671C1128.3633,-357.9967 1141.2688,-354.006 1153,-349.5 1179.9049,-339.1658 1209.0548,-323.8559 1229.2751,-312.5222"/>
<polygon fill="#191970" stroke="#191970" points="1115.1891,-357.9857 1106.4224,-363.9351 1116.9858,-364.7512 1115.1891,-357.9857"/>
</g>
<!-- Node38&#45;&gt;Node35 -->
<g id="edge32" class="edge">
<title>Node38&#45;&gt;Node35</title>
<path fill="none" stroke="#191970" d="M444.1435,-324.9495C502.3409,-338.6956 584.4914,-358.0992 639.9816,-371.2058"/>
<polygon fill="#191970" stroke="#191970" points="444.8302,-321.5155 434.2934,-322.623 443.2211,-328.328 444.8302,-321.5155"/>
</g>
<!-- Node39 -->
<g id="node21" class="node">
<title>Node39</title>
<g id="a_node21"><a xlink:href="namespaceboundary__layer__mod.xhtml#ae89b3383e596e207f8be95c7af8e9802" target="_top" xlink:title="boundary_layer_mod\l::drag_coefficient">
<polygon fill="#ffffff" stroke="#000000" points="477.5,-288.5 477.5,-318.5 596.5,-318.5 596.5,-288.5 477.5,-288.5"/>
<text text-anchor="start" x="485.5" y="-306.5" font-family="Helvetica,sans-Serif" font-size="10.00" fill="#000000">boundary_layer_mod</text>
<text text-anchor="middle" x="537" y="-295.5" font-family="Helvetica,sans-Serif" font-size="10.00" fill="#000000">::drag_coefficient</text>
</a>
</g>
</g>
<!-- Node38&#45;&gt;Node39 -->
<g id="edge25" class="edge">
<title>Node38&#45;&gt;Node39</title>
<path fill="none" stroke="#191970" d="M444.153,-306.3568C455.2309,-306.016 466.6024,-305.6661 477.4209,-305.3332"/>
<polygon fill="#191970" stroke="#191970" points="443.9739,-302.8606 434.0863,-306.6666 444.1892,-309.8573 443.9739,-302.8606"/>
</g>
<!-- Node39&#45;&gt;Node24 -->
<g id="edge31" class="edge">
<title>Node39&#45;&gt;Node24</title>
<path fill="none" stroke="#191970" d="M606.6419,-313.493C617.7767,-314.7434 629.1887,-315.8204 640,-316.5 748.1797,-323.2999 992.5397,-318.7701 1153,-308.5 1166.7753,-307.6183 1181.5583,-306.2623 1195.4762,-304.8"/>
<polygon fill="#191970" stroke="#191970" points="606.8596,-309.9946 596.5192,-312.3024 606.0418,-316.9467 606.8596,-309.9946"/>
</g>
<!-- Node39&#45;&gt;Node35 -->
<g id="edge30" class="edge">
<title>Node39&#45;&gt;Node35</title>
<path fill="none" stroke="#191970" d="M581.1888,-322.7338C588.8403,-326.2212 596.6844,-329.8972 604,-333.5 627.902,-345.2715 654.5216,-359.7196 673.7381,-370.3964"/>
<polygon fill="#191970" stroke="#191970" points="582.5546,-319.5103 571.9997,-318.5909 579.6775,-325.8917 582.5546,-319.5103"/>
</g>
<!-- Node39&#45;&gt;Node40 -->
<g id="edge26" class="edge">
<title>Node39&#45;&gt;Node40</title>
<path fill="none" stroke="#191970" d="M607.1473,-298.3516C618.3659,-297.5282 629.8821,-296.683 640.8276,-295.8796"/>
<polygon fill="#191970" stroke="#191970" points="606.6699,-294.8771 596.953,-299.0998 607.1824,-301.8583 606.6699,-294.8771"/>
</g>
<!-- Node39&#45;&gt;Node41 -->
<g id="edge28" class="edge">
<title>Node39&#45;&gt;Node41</title>
<path fill="none" stroke="#191970" d="M586.8768,-284.8915C610.4031,-276.1141 638.1051,-265.7788 660.2662,-257.5108"/>
<polygon fill="#191970" stroke="#191970" points="585.5615,-281.6465 577.4157,-288.4213 588.0084,-288.205 585.5615,-281.6465"/>
</g>
<!-- Node40&#45;&gt;Node24 -->
<g id="edge27" class="edge">
<title>Node40&#45;&gt;Node24</title>
<path fill="none" stroke="#191970" d="M770.4266,-292.2566C880.4387,-293.447 1092.0173,-295.7364 1195.3148,-296.8542"/>
<polygon fill="#191970" stroke="#191970" points="770.1417,-288.7535 760.1044,-292.145 770.0659,-295.753 770.1417,-288.7535"/>
</g>
<!-- Node41&#45;&gt;Node24 -->
<g id="edge29" class="edge">
<title>Node41&#45;&gt;Node24</title>
<path fill="none" stroke="#191970" d="M770.0942,-249.4029C880.012,-260.3055 1091.9131,-281.3237 1195.3148,-291.5799"/>
<polygon fill="#191970" stroke="#191970" points="770.4011,-245.9163 760.1044,-248.4121 769.7101,-252.8821 770.4011,-245.9163"/>
</g>
<!-- Node42&#45;&gt;Node24 -->
<g id="edge36" class="edge">
<title>Node42&#45;&gt;Node24</title>
<path fill="none" stroke="#191970" d="M929.1954,-194.9678C1000.2728,-208.5183 1112.4753,-231.0439 1153,-245.5 1180.3331,-255.2503 1209.6655,-270.7925 1229.8265,-282.3489"/>
<polygon fill="#191970" stroke="#191970" points="929.4978,-191.4628 919.0204,-193.0357 928.1919,-198.3399 929.4978,-191.4628"/>
</g>
<!-- Node43 -->
<g id="node25" class="node">
<title>Node43</title>
<g id="a_node25"><a xlink:href="namespacecolumn__mod.xhtml#aca882d79ce8cc79a2f920ba82d219fe3" target="_top" xlink:title="column_mod::apply_precipitation">
<polygon fill="#ffffff" stroke="#000000" points="974,-174 974,-193 1153,-193 1153,-174 974,-174"/>
<text text-anchor="middle" x="1063.5" y="-181" font-family="Helvetica,sans-Serif" font-size="10.00" fill="#000000">column_mod::apply_precipitation</text>
</a>
</g>
</g>
<!-- Node42&#45;&gt;Node43 -->
<g id="edge37" class="edge">
<title>Node42&#45;&gt;Node43</title>
<path fill="none" stroke="#191970" d="M948.3643,-183.5C956.7316,-183.5 965.2709,-183.5 973.7278,-183.5"/>
<polygon fill="#191970" stroke="#191970" points="948.2605,-180.0001 938.2605,-183.5 948.2605,-187.0001 948.2605,-180.0001"/>
</g>
<!-- Node43&#45;&gt;Node24 -->
<g id="edge38" class="edge">
<title>Node43&#45;&gt;Node24</title>
<path fill="none" stroke="#191970" d="M1124.889,-195.9094C1134.5877,-199.0067 1144.2822,-202.8221 1153,-207.5 1189.625,-227.1525 1224.1016,-262.3219 1242.0728,-282.3835"/>
<polygon fill="#191970" stroke="#191970" points="1125.8071,-192.5311 1115.2248,-193.046 1123.8185,-199.2427 1125.8071,-192.5311"/>
</g>
<!-- Node44&#45;&gt;Node25 -->
<g id="edge40" class="edge">
<title>Node44&#45;&gt;Node25</title>
<path fill="none" stroke="#191970" d="M1322.1776,-127.9059C1336.5687,-124.1368 1351.6468,-120.1878 1365.6272,-116.5262"/>
<polygon fill="#191970" stroke="#191970" points="1321.1331,-124.5613 1312.3462,-130.4808 1322.9067,-131.3329 1321.1331,-124.5613"/>
</g>
<!-- Node45&#45;&gt;Node25 -->
<g id="edge42" class="edge">
<title>Node45&#45;&gt;Node25</title>
<path fill="none" stroke="#191970" d="M943.9931,-101.5C1053.5432,-101.5 1253.2912,-101.5 1356.8253,-101.5"/>
<polygon fill="#191970" stroke="#191970" points="943.6793,-98.0001 933.6793,-101.5 943.6793,-105.0001 943.6793,-98.0001"/>
</g>
<!-- Node46&#45;&gt;Node25 -->
<g id="edge44" class="edge">
<title>Node46&#45;&gt;Node25</title>
<path fill="none" stroke="#191970" d="M1139.7093,-65.9656C1190.9872,-71.7633 1260.0955,-79.7733 1321,-87.5 1332.6146,-88.9735 1344.9631,-90.6095 1356.9097,-92.2283"/>
<polygon fill="#191970" stroke="#191970" points="1140.0286,-62.4795 1129.6992,-64.8363 1139.2438,-69.4354 1140.0286,-62.4795"/>
</g>
<!-- Node47&#45;&gt;Node25 -->
<g id="edge46" class="edge">
<title>Node47&#45;&gt;Node25</title>
<path fill="none" stroke="#191970" d="M1294.2416,-34.9953C1303.058,-39.4102 1312.3597,-44.0955 1321,-48.5 1345.7134,-61.098 1373.6607,-75.6406 1394.0442,-86.3019"/>
<polygon fill="#191970" stroke="#191970" points="1295.7876,-31.8552 1285.2778,-30.5155 1292.6583,-38.1168 1295.7876,-31.8552"/>
</g>
</g>
</svg>
