<?xml version="1.0" encoding="UTF-8" standalone="no"?>
<!DOCTYPE svg PUBLIC "-//W3C//DTD SVG 1.1//EN"
 "http://www.w3.org/Graphics/SVG/1.1/DTD/svg11.dtd">
<!-- Generated by graphviz version 2.40.1 (20161225.0304)
 -->
<!-- Title: ios_queue_mod::ios_remove_data_from_queue Pages: 1 -->
<!--zoomable 325 -->
<svg id="main" version="1.1" xmlns="http://www.w3.org/2000/svg" xmlns:xlink="http://www.w3.org/1999/xlink" xml:space="preserve" onload="init(evt)">
<style type="text/css"><![CDATA[
.edge:hover path { stroke: red; }
.edge:hover polygon { stroke: red; fill: red; }
]]></style>
<script type="text/javascript"><![CDATA[
var edges = document.getElementsByTagName('g');
if (edges && edges.length) {
  for (var i=0;i<edges.length;i++) {
    if (edges[i].id.substr(0,4)=='edge') {
      edges[i].setAttribute('class','edge');
    }
  }
}
]]></script>
        <defs>
                <circle id="rim" cx="0" cy="0" r="7"/>
                <circle id="rim2" cx="0" cy="0" r="3.5"/>
                <g id="zoomPlus">
                        <use xlink:href="#rim" fill="#404040">
                                <set attributeName="fill" to="#808080" begin="zoomplus.mouseover" end="zoomplus.mouseout"/>
                        </use>
                        <path d="M-4,0h8M0,-4v8" fill="none" stroke="white" stroke-width="1.5" pointer-events="none"/>
                </g>
                <g id="zoomMin">
                        <use xlink:href="#rim" fill="#404040">
                                <set attributeName="fill" to="#808080" begin="zoomminus.mouseover" end="zoomminus.mouseout"/>
                        </use>
                        <path d="M-4,0h8" fill="none" stroke="white" stroke-width="1.5" pointer-events="none"/>
                </g>
                <g id="dirArrow">
                        <path fill="none" stroke="white" stroke-width="1.5" d="M0,-3.0v7 M-2.5,-0.5L0,-3.0L2.5,-0.5"/>
                </g>
               <g id="resetDef">
                       <use xlink:href="#rim2" fill="#404040">
                               <set attributeName="fill" to="#808080" begin="reset.mouseover" end="reset.mouseout"/>
                       </use>
               </g>
        </defs>

<script type="text/javascript">
var viewWidth = 1664;
var viewHeight = 325;
var sectionId = 'dynsection-19';
</script>
<script xlink:href="svgpan.js"/>
<svg id="graph" class="graph">
<g id="viewport">
<title>ios_queue_mod::ios_remove_data_from_queue</title>
<polygon fill="#ffffff" stroke="transparent" points="-4,4 -4,-320.6734 1660,-320.6734 1660,4 -4,4"/>
<!-- Node158 -->
<g id="node1" class="node">
<title>Node158</title>
<polygon fill="#bfbfbf" stroke="#000000" points="0,-147 0,-177 150,-177 150,-147 0,-147"/>
<text text-anchor="start" x="8" y="-165" font-family="Helvetica,sans-Serif" font-size="10.00" fill="#000000">ios_queue_mod::ios</text>
<text text-anchor="middle" x="75" y="-154" font-family="Helvetica,sans-Serif" font-size="10.00" fill="#000000">_remove_data_from_queue</text>
</g>
<!-- Node159 -->
<g id="node2" class="node">
<title>Node159</title>
<g id="a_node2"><a xlink:href="namespaceios__queue__mod.xhtml#a1cc76d7fb8498cbbc11371ccb2fb8d0f" target="_top" xlink:title="ios_queue_mod::acquire_lock">
<polygon fill="#ffffff" stroke="#000000" points="574,-258.5 574,-277.5 735,-277.5 735,-258.5 574,-258.5"/>
<text text-anchor="middle" x="654.5" y="-265.5" font-family="Helvetica,sans-Serif" font-size="10.00" fill="#000000">ios_queue_mod::acquire_lock</text>
</a>
</g>
</g>
<!-- Node158&#45;&gt;Node159 -->
<g id="edge1" class="edge">
<title>Node158&#45;&gt;Node159</title>
<path fill="none" stroke="#191970" d="M89.8326,-177.3246C109.6673,-196.6653 146.8922,-229.0844 186,-243 311.2565,-287.5696 467.2443,-285.4678 563.8556,-278.0907"/>
<polygon fill="#191970" stroke="#191970" points="564.196,-281.5748 573.8855,-277.2895 563.6385,-274.597 564.196,-281.5748"/>
</g>
<!-- Node160 -->
<g id="node3" class="node">
<title>Node160</title>
<g id="a_node3"><a xlink:href="namespaceios__common.xhtml#a9cbfffb6c02387dc317575ab449918b6" target="_top" xlink:title="ios_common::ios_actionname">
<polygon fill="#ffffff" stroke="#000000" points="962,-115.5 962,-134.5 1124,-134.5 1124,-115.5 962,-115.5"/>
<text text-anchor="middle" x="1043" y="-122.5" font-family="Helvetica,sans-Serif" font-size="10.00" fill="#000000">ios_common::ios_actionname</text>
</a>
</g>
</g>
<!-- Node158&#45;&gt;Node160 -->
<g id="edge2" class="edge">
<title>Node158&#45;&gt;Node160</title>
<path fill="none" stroke="#191970" d="M150.0839,-147.4911C162.0679,-145.4586 174.3528,-143.5412 186,-142 428.3281,-109.9347 490.6419,-102.6573 735,-109 808.0132,-110.8952 890.664,-115.3133 951.9523,-119.0278"/>
<polygon fill="#191970" stroke="#191970" points="951.7892,-122.5242 961.9842,-119.641 952.2164,-115.5373 951.7892,-122.5242"/>
</g>
<!-- Node161 -->
<g id="node4" class="node">
<title>Node161</title>
<g id="a_node4"><a xlink:href="namespaceios__print__mgr.xhtml#abd09d7fc0d2381103fd0889b447f4995" target="_top" xlink:title="ios_print_mgr::ios\l_print">
<polygon fill="#ffffff" stroke="#000000" points="991,-190 991,-220 1095,-220 1095,-190 991,-190"/>
<text text-anchor="start" x="999" y="-208" font-family="Helvetica,sans-Serif" font-size="10.00" fill="#000000">ios_print_mgr::ios</text>
<text text-anchor="middle" x="1043" y="-197" font-family="Helvetica,sans-Serif" font-size="10.00" fill="#000000">_print</text>
</a>
</g>
</g>
<!-- Node158&#45;&gt;Node161 -->
<g id="edge3" class="edge">
<title>Node158&#45;&gt;Node161</title>
<path fill="none" stroke="#191970" d="M84.8759,-177.0126C102.1153,-201.8448 140.2599,-251.0087 186,-274 298.5138,-330.555 340.5721,-314 466.5,-314 466.5,-314 466.5,-314 654.5,-314 785.6346,-314 932.7205,-255.7177 1002.3119,-224.3889"/>
<polygon fill="#191970" stroke="#191970" points="1003.9571,-227.4855 1011.6075,-220.156 1001.0561,-221.1149 1003.9571,-227.4855"/>
</g>
<!-- Node166 -->
<g id="node9" class="node">
<title>Node166</title>
<g id="a_node9"><a xlink:href="namespaceios__print__mgr.xhtml#af901bb4272acb2ce160c5ebd69d33441" target="_top" xlink:title="ios_print_mgr::ios\l_print_flush">
<polygon fill="#ffffff" stroke="#000000" points="602.5,-30 602.5,-60 706.5,-60 706.5,-30 602.5,-30"/>
<text text-anchor="start" x="610.5" y="-48" font-family="Helvetica,sans-Serif" font-size="10.00" fill="#000000">ios_print_mgr::ios</text>
<text text-anchor="middle" x="654.5" y="-37" font-family="Helvetica,sans-Serif" font-size="10.00" fill="#000000">_print_flush</text>
</a>
</g>
</g>
<!-- Node158&#45;&gt;Node166 -->
<g id="edge9" class="edge">
<title>Node158&#45;&gt;Node166</title>
<path fill="none" stroke="#191970" d="M87.8456,-146.8235C106.819,-125.6479 144.5874,-88.0354 186,-72 323.306,-18.8337 500.2367,-27.2775 592.4154,-36.84"/>
<polygon fill="#191970" stroke="#191970" points="592.1009,-40.3263 602.4182,-37.917 592.8503,-33.3665 592.1009,-40.3263"/>
</g>
<!-- Node167 -->
<g id="node10" class="node">
<title>Node167</title>
<g id="a_node10"><a xlink:href="namespaceios__queue__mod.xhtml#a6b8b6731f4aa3198d8964e443ac0390c" target="_top" xlink:title="ios_queue_mod::destroy_node">
<polygon fill="#ffffff" stroke="#000000" points="190,-190.5 190,-209.5 355,-209.5 355,-190.5 190,-190.5"/>
<text text-anchor="middle" x="272.5" y="-197.5" font-family="Helvetica,sans-Serif" font-size="10.00" fill="#000000">ios_queue_mod::destroy_node</text>
</a>
</g>
</g>
<!-- Node158&#45;&gt;Node167 -->
<g id="edge11" class="edge">
<title>Node158&#45;&gt;Node167</title>
<path fill="none" stroke="#191970" d="M150.2297,-176.4746C170.9306,-180.4575 193.0957,-184.7222 212.7912,-188.5117"/>
<polygon fill="#191970" stroke="#191970" points="212.3635,-191.9936 222.8447,-190.4461 213.6861,-185.1196 212.3635,-191.9936"/>
</g>
<!-- Node168 -->
<g id="node11" class="node">
<title>Node168</title>
<g id="a_node11"><a xlink:href="namespaceios__queue__mod.xhtml#a4ee7678995b5d34a0adda39290be24ce" target="_top" xlink:title="ios_queue_mod::ios\l_increment_queue_length">
<polygon fill="#ffffff" stroke="#000000" points="395,-153 395,-183 538,-183 538,-153 395,-153"/>
<text text-anchor="start" x="403" y="-171" font-family="Helvetica,sans-Serif" font-size="10.00" fill="#000000">ios_queue_mod::ios</text>
<text text-anchor="middle" x="466.5" y="-160" font-family="Helvetica,sans-Serif" font-size="10.00" fill="#000000">_increment_queue_length</text>
</a>
</g>
</g>
<!-- Node158&#45;&gt;Node168 -->
<g id="edge23" class="edge">
<title>Node158&#45;&gt;Node168</title>
<path fill="none" stroke="#191970" d="M150.0219,-163.1498C217.0739,-164.1774 315.1318,-165.6802 384.2907,-166.7401"/>
<polygon fill="#191970" stroke="#191970" points="384.6524,-170.2459 394.7049,-166.8997 384.7597,-163.2468 384.6524,-170.2459"/>
</g>
<!-- Node169 -->
<g id="node12" class="node">
<title>Node169</title>
<g id="a_node12"><a xlink:href="namespaceios__common.xhtml#a4b4c79405dd73494ae58cbf0e4f1658b" target="_top" xlink:title="ios_common::ios_ereport">
<polygon fill="#ffffff" stroke="#000000" points="584.5,-204.5 584.5,-223.5 724.5,-223.5 724.5,-204.5 584.5,-204.5"/>
<text text-anchor="middle" x="654.5" y="-211.5" font-family="Helvetica,sans-Serif" font-size="10.00" fill="#000000">ios_common::ios_ereport</text>
</a>
</g>
</g>
<!-- Node158&#45;&gt;Node169 -->
<g id="edge22" class="edge">
<title>Node158&#45;&gt;Node169</title>
<path fill="none" stroke="#191970" d="M96.7191,-177.128C118.2459,-191.1297 152.7306,-210.9571 186,-219 325.4589,-252.7143 495.1555,-237.5956 587.2146,-224.9317"/>
<polygon fill="#191970" stroke="#191970" points="587.8206,-228.3809 597.2347,-223.5205 586.8443,-221.4493 587.8206,-228.3809"/>
</g>
<!-- Node171 -->
<g id="node14" class="node">
<title>Node171</title>
<g id="a_node14"><a xlink:href="namespaceios__queue__mod.xhtml#ace57a6c3d5da7965655bc35a3548b873" target="_top" xlink:title="ios_queue_mod::release_lock">
<polygon fill="#ffffff" stroke="#000000" points="574,-118.5 574,-137.5 735,-137.5 735,-118.5 574,-118.5"/>
<text text-anchor="middle" x="654.5" y="-125.5" font-family="Helvetica,sans-Serif" font-size="10.00" fill="#000000">ios_queue_mod::release_lock</text>
</a>
</g>
</g>
<!-- Node158&#45;&gt;Node171 -->
<g id="edge25" class="edge">
<title>Node158&#45;&gt;Node171</title>
<path fill="none" stroke="#191970" d="M150.3221,-157.4944C215.1674,-153.6234 311.2461,-147.9071 395,-143 451.0547,-139.7158 513.9235,-136.0805 563.7401,-133.2113"/>
<polygon fill="#191970" stroke="#191970" points="564.0617,-136.6987 573.8439,-132.6296 563.6592,-129.7103 564.0617,-136.6987"/>
</g>
<!-- Node172 -->
<g id="node15" class="node">
<title>Node172</title>
<g id="a_node15"><a xlink:href="namespaceum__types.xhtml#a78c6f3e81ea4f109c824834c59a3a879" target="_top" xlink:title="Discover the size of a fortran default integer. ">
<polygon fill="#ffffff" stroke="#000000" points="186,-.5 186,-19.5 359,-19.5 359,-.5 186,-.5"/>
<text text-anchor="middle" x="272.5" y="-7.5" font-family="Helvetica,sans-Serif" font-size="10.00" fill="#000000">um_types::umfortranintegersize</text>
</a>
</g>
</g>
<!-- Node158&#45;&gt;Node172 -->
<g id="edge24" class="edge">
<title>Node158&#45;&gt;Node172</title>
<path fill="none" stroke="#191970" d="M83.9086,-146.8162C100.4956,-119.9009 138.7546,-63.8532 186,-34 193.1968,-29.4525 201.2607,-25.753 209.494,-22.7466"/>
<polygon fill="#191970" stroke="#191970" points="210.807,-25.9986 219.1951,-19.5264 208.6017,-19.355 210.807,-25.9986"/>
</g>
<!-- Node162 -->
<g id="node5" class="node">
<title>Node162</title>
<g id="a_node5"><a xlink:href="namespaceumprintmgr.xhtml#aae44897e556705dbf5e945a26538be9a" target="_top" xlink:title="umprintmgr::umprint">
<polygon fill="#ffffff" stroke="#000000" points="1160,-163.5 1160,-182.5 1279,-182.5 1279,-163.5 1160,-163.5"/>
<text text-anchor="middle" x="1219.5" y="-170.5" font-family="Helvetica,sans-Serif" font-size="10.00" fill="#000000">umprintmgr::umprint</text>
</a>
</g>
</g>
<!-- Node161&#45;&gt;Node162 -->
<g id="edge4" class="edge">
<title>Node161&#45;&gt;Node162</title>
<path fill="none" stroke="#191970" d="M1095.0012,-195.572C1114.3997,-192.055 1136.6266,-188.0252 1156.881,-184.353"/>
<polygon fill="#191970" stroke="#191970" points="1157.7397,-187.7545 1166.9549,-182.5266 1156.4909,-180.8668 1157.7397,-187.7545"/>
</g>
<!-- Node163 -->
<g id="node6" class="node">
<title>Node163</title>
<g id="a_node6"><a xlink:href="namespaceumprintmgr.xhtml#a088ce22a18d574e9df7ee1850bfb10c7" target="_top" xlink:title="umprintmgr::umprintopenstream">
<polygon fill="#ffffff" stroke="#000000" points="1315,-163.5 1315,-182.5 1492,-182.5 1492,-163.5 1315,-163.5"/>
<text text-anchor="middle" x="1403.5" y="-170.5" font-family="Helvetica,sans-Serif" font-size="10.00" fill="#000000">umprintmgr::umprintopenstream</text>
</a>
</g>
</g>
<!-- Node162&#45;&gt;Node163 -->
<g id="edge5" class="edge">
<title>Node162&#45;&gt;Node163</title>
<path fill="none" stroke="#191970" d="M1279.2395,-166.6333C1287.4605,-166.4301 1296.0751,-166.3077 1304.7702,-166.2661"/>
<polygon fill="#191970" stroke="#191970" points="1304.9998,-169.7659 1314.9958,-166.2543 1304.9917,-162.7659 1304.9998,-169.7659"/>
</g>
<!-- Node164 -->
<g id="node7" class="node">
<title>Node164</title>
<g id="a_node7"><a xlink:href="namespaceumprintmgr.xhtml#ad3a290b30a6e25500eabc0bf90330b77" target="_top" xlink:title="umprintmgr::umprintflush">
<polygon fill="#ffffff" stroke="#000000" points="1332.5,-96.5 1332.5,-115.5 1474.5,-115.5 1474.5,-96.5 1332.5,-96.5"/>
<text text-anchor="middle" x="1403.5" y="-103.5" font-family="Helvetica,sans-Serif" font-size="10.00" fill="#000000">umprintmgr::umprintflush</text>
</a>
</g>
</g>
<!-- Node162&#45;&gt;Node164 -->
<g id="edge7" class="edge">
<title>Node162&#45;&gt;Node164</title>
<path fill="none" stroke="#191970" d="M1245.8627,-163.4005C1277.8351,-151.7584 1331.8759,-132.0805 1367.6225,-119.0641"/>
<polygon fill="#191970" stroke="#191970" points="1368.9873,-122.292 1377.1862,-115.5817 1366.5922,-115.7145 1368.9873,-122.292"/>
</g>
<!-- Node163&#45;&gt;Node162 -->
<g id="edge6" class="edge">
<title>Node163&#45;&gt;Node162</title>
<path fill="none" stroke="#191970" d="M1314.9958,-179.7457C1306.3802,-179.767 1297.7236,-179.7094 1289.3289,-179.5727"/>
<polygon fill="#191970" stroke="#191970" points="1289.3089,-176.0716 1279.2395,-179.3667 1289.166,-183.0702 1289.3089,-176.0716"/>
</g>
<!-- Node165 -->
<g id="node8" class="node">
<title>Node165</title>
<g id="a_node8"><a xlink:href="namespaceumflush__mod.xhtml#a3a003ab59990bdcb712b443dd5e0d1cd" target="_top" xlink:title="umflush_mod::umflush">
<polygon fill="#ffffff" stroke="#000000" points="1528,-96.5 1528,-115.5 1656,-115.5 1656,-96.5 1528,-96.5"/>
<text text-anchor="middle" x="1592" y="-103.5" font-family="Helvetica,sans-Serif" font-size="10.00" fill="#000000">umflush_mod::umflush</text>
</a>
</g>
</g>
<!-- Node164&#45;&gt;Node165 -->
<g id="edge8" class="edge">
<title>Node164&#45;&gt;Node165</title>
<path fill="none" stroke="#191970" d="M1474.7638,-106C1488.7742,-106 1503.5063,-106 1517.6162,-106"/>
<polygon fill="#191970" stroke="#191970" points="1517.7612,-109.5001 1527.7611,-106 1517.7611,-102.5001 1517.7612,-109.5001"/>
</g>
<!-- Node166&#45;&gt;Node164 -->
<g id="edge10" class="edge">
<title>Node166&#45;&gt;Node164</title>
<path fill="none" stroke="#191970" d="M706.5736,-49.241C834.9151,-59.6934 1167.1946,-86.7548 1321.9539,-99.3587"/>
<polygon fill="#191970" stroke="#191970" points="1322.0847,-102.8809 1332.3359,-100.2043 1322.653,-95.904 1322.0847,-102.8809"/>
</g>
<!-- Node167&#45;&gt;Node168 -->
<g id="edge12" class="edge">
<title>Node167&#45;&gt;Node168</title>
<path fill="none" stroke="#191970" d="M330.1811,-190.4856C347.3327,-187.6565 366.4586,-184.5017 384.8315,-181.4711"/>
<polygon fill="#191970" stroke="#191970" points="385.6469,-184.884 394.944,-179.8031 384.5076,-177.9773 385.6469,-184.884"/>
</g>
<!-- Node168&#45;&gt;Node159 -->
<g id="edge13" class="edge">
<title>Node168&#45;&gt;Node159</title>
<path fill="none" stroke="#191970" d="M489.4716,-183.1221C510.8943,-196.9254 543.9682,-217.4802 574,-233 588.9601,-240.7311 606.0037,-248.309 620.5448,-254.4256"/>
<polygon fill="#191970" stroke="#191970" points="619.5776,-257.8135 630.1556,-258.4107 622.2588,-251.3473 619.5776,-257.8135"/>
</g>
<!-- Node168&#45;&gt;Node161 -->
<g id="edge19" class="edge">
<title>Node168&#45;&gt;Node161</title>
<path fill="none" stroke="#191970" d="M538.32,-168.1111C628.9109,-168.8718 789.3699,-172.2816 926,-186 943.801,-187.7873 963.005,-190.5519 980.606,-193.4239"/>
<polygon fill="#191970" stroke="#191970" points="980.3212,-196.9248 990.7613,-195.1207 981.4749,-190.0205 980.3212,-196.9248"/>
</g>
<!-- Node168&#45;&gt;Node166 -->
<g id="edge20" class="edge">
<title>Node168&#45;&gt;Node166</title>
<path fill="none" stroke="#191970" d="M489.5525,-152.9178C523.0475,-131.0035 585.2762,-90.29 622.9845,-65.6192"/>
<polygon fill="#191970" stroke="#191970" points="625.1014,-68.4168 631.5533,-60.013 621.2689,-62.5591 625.1014,-68.4168"/>
</g>
<!-- Node168&#45;&gt;Node169 -->
<g id="edge14" class="edge">
<title>Node168&#45;&gt;Node169</title>
<path fill="none" stroke="#191970" d="M528.0582,-183.0621C553.2639,-189.2295 582.0168,-196.2647 605.7285,-202.0665"/>
<polygon fill="#191970" stroke="#191970" points="605.0116,-205.4943 615.557,-204.4714 606.6754,-198.6949 605.0116,-205.4943"/>
</g>
<!-- Node168&#45;&gt;Node171 -->
<g id="edge21" class="edge">
<title>Node168&#45;&gt;Node171</title>
<path fill="none" stroke="#191970" d="M537.0391,-152.9917C557.8008,-148.5743 580.1937,-143.8098 599.8034,-139.6376"/>
<polygon fill="#191970" stroke="#191970" points="600.7282,-143.0192 609.7809,-137.5147 599.2714,-136.1725 600.7282,-143.0192"/>
</g>
<!-- Node169&#45;&gt;Node161 -->
<g id="edge15" class="edge">
<title>Node169&#45;&gt;Node161</title>
<path fill="none" stroke="#191970" d="M724.6322,-221.0884C779.512,-225.5471 857.7112,-229.5087 926,-224 943.8326,-222.5615 963.0467,-219.9088 980.6473,-217.0324"/>
<polygon fill="#191970" stroke="#191970" points="981.5223,-220.4344 990.8012,-215.3206 980.3585,-213.5318 981.5223,-220.4344"/>
</g>
<!-- Node170 -->
<g id="node13" class="node">
<title>Node170</title>
<g id="a_node13"><a xlink:href="namespaceios__common.xhtml#ade38472c488c019e816ec75cb70ab3cc" target="_top" xlink:title="ios_common::ios_report_md">
<polygon fill="#ffffff" stroke="#000000" points="771,-195.5 771,-214.5 926,-214.5 926,-195.5 771,-195.5"/>
<text text-anchor="middle" x="848.5" y="-202.5" font-family="Helvetica,sans-Serif" font-size="10.00" fill="#000000">ios_common::ios_report_md</text>
</a>
</g>
</g>
<!-- Node169&#45;&gt;Node170 -->
<g id="edge16" class="edge">
<title>Node169&#45;&gt;Node170</title>
<path fill="none" stroke="#191970" d="M724.5385,-210.7508C736.2397,-210.208 748.5095,-209.6387 760.5896,-209.0783"/>
<polygon fill="#191970" stroke="#191970" points="760.8487,-212.5702 770.6757,-208.6104 760.5242,-205.5777 760.8487,-212.5702"/>
</g>
<!-- Node170&#45;&gt;Node160 -->
<g id="edge18" class="edge">
<title>Node170&#45;&gt;Node160</title>
<path fill="none" stroke="#191970" d="M871.9612,-195.3501C906.5176,-181.1367 971.2281,-154.5206 1010.3871,-138.4141"/>
<polygon fill="#191970" stroke="#191970" points="1011.8414,-141.6004 1019.7583,-134.5596 1009.1787,-135.1266 1011.8414,-141.6004"/>
</g>
<!-- Node170&#45;&gt;Node161 -->
<g id="edge17" class="edge">
<title>Node170&#45;&gt;Node161</title>
<path fill="none" stroke="#191970" d="M926.2101,-205C944.3428,-205 963.4209,-205 980.7801,-205"/>
<polygon fill="#191970" stroke="#191970" points="980.7822,-208.5001 990.7822,-205 980.7821,-201.5001 980.7822,-208.5001"/>
</g>
</g>
</svg>
        <g id="navigator" transform="translate(0 0)" fill="#404254">
                <rect fill="#f2f5e9" fill-opacity="0.5" stroke="#606060" stroke-width=".5" x="0" y="0" width="60" height="60"/>
                <use id="zoomplus" xlink:href="#zoomPlus" x="17" y="9" onmousedown="handleZoom(evt,'in')"/>
                <use id="zoomminus" xlink:href="#zoomMin" x="42" y="9" onmousedown="handleZoom(evt,'out')"/>
                <use id="reset" xlink:href="#resetDef" x="30" y="36" onmousedown="handleReset()"/>
                <g id="arrowUp" xlink:href="#dirArrow" transform="translate(30 24)" onmousedown="handlePan(0,-1)">
                  <use xlink:href="#rim" fill="#404040">
                        <set attributeName="fill" to="#808080" begin="arrowUp.mouseover" end="arrowUp.mouseout"/>
                  </use>
                  <path fill="none" stroke="white" stroke-width="1.5" d="M0,-3.0v7 M-2.5,-0.5L0,-3.0L2.5,-0.5"/>
                </g>
                <g id="arrowRight" xlink:href="#dirArrow" transform="rotate(90) translate(36 -43)" onmousedown="handlePan(1,0)">
                  <use xlink:href="#rim" fill="#404040">
                        <set attributeName="fill" to="#808080" begin="arrowRight.mouseover" end="arrowRight.mouseout"/>
                  </use>
                  <path fill="none" stroke="white" stroke-width="1.5" d="M0,-3.0v7 M-2.5,-0.5L0,-3.0L2.5,-0.5"/>
                </g>
                <g id="arrowDown" xlink:href="#dirArrow" transform="rotate(180) translate(-30 -48)" onmousedown="handlePan(0,1)">
                  <use xlink:href="#rim" fill="#404040">
                        <set attributeName="fill" to="#808080" begin="arrowDown.mouseover" end="arrowDown.mouseout"/>
                  </use>
                  <path fill="none" stroke="white" stroke-width="1.5" d="M0,-3.0v7 M-2.5,-0.5L0,-3.0L2.5,-0.5"/>
                </g>
                <g id="arrowLeft" xlink:href="#dirArrow" transform="rotate(270) translate(-36 17)" onmousedown="handlePan(-1,0)">
                  <use xlink:href="#rim" fill="#404040">
                        <set attributeName="fill" to="#808080" begin="arrowLeft.mouseover" end="arrowLeft.mouseout"/>
                  </use>
                  <path fill="none" stroke="white" stroke-width="1.5" d="M0,-3.0v7 M-2.5,-0.5L0,-3.0L2.5,-0.5"/>
                </g>
        </g>
        <svg viewBox="0 0 15 15" width="100%" height="30px" preserveAspectRatio="xMaxYMin meet">
         <g id="arrow_out" transform="scale(0.3 0.3)">
          <a xlink:href="namespaceios__queue__mod_a926922af794de9864289553aa4031092_cgraph_org.svg" target="_base">
           <rect id="button" ry="5" rx="5" y="6" x="6" height="38" width="38"
                fill="#f2f5e9" fill-opacity="0.5" stroke="#606060" stroke-width="1.0"/>
           <path id="arrow"
             d="M 11.500037,31.436501 C 11.940474,20.09759 22.043105,11.32322 32.158766,21.979434 L 37.068811,17.246167 C 37.068811,17.246167 37.088388,32 37.088388,32 L 22.160133,31.978069 C 22.160133,31.978069 26.997745,27.140456 26.997745,27.140456 C 18.528582,18.264221 13.291696,25.230495 11.500037,31.436501 z"
             style="fill:#404040;"/>
          </a>
         </g>
        </svg>
</svg>
