<?xml version="1.0" encoding="UTF-8" standalone="no"?>
<!DOCTYPE svg PUBLIC "-//W3C//DTD SVG 1.1//EN"
 "http://www.w3.org/Graphics/SVG/1.1/DTD/svg11.dtd">
<!-- Generated by graphviz version 2.40.1 (20161225.0304)
 -->
<!-- Title: ukca_emiss_factors::get_base_scaling Pages: 1 -->
<svg width="462pt" height="39pt"
 viewBox="0.00 0.00 462.00 39.00" xmlns="http://www.w3.org/2000/svg" xmlns:xlink="http://www.w3.org/1999/xlink">
<g id="graph0" class="graph" transform="scale(1 1) rotate(0) translate(4 35)">
<title>ukca_emiss_factors::get_base_scaling</title>
<polygon fill="#ffffff" stroke="transparent" points="-4,4 -4,-35 458,-35 458,4 -4,4"/>
<!-- Node9 -->
<g id="node1" class="node">
<title>Node9</title>
<polygon fill="#bfbfbf" stroke="#000000" points="0,-.5 0,-30.5 113,-30.5 113,-.5 0,-.5"/>
<text text-anchor="start" x="8" y="-18.5" font-family="Helvetica,sans-Serif" font-size="10.00" fill="#000000">ukca_emiss_factors</text>
<text text-anchor="middle" x="56.5" y="-7.5" font-family="Helvetica,sans-Serif" font-size="10.00" fill="#000000">::get_base_scaling</text>
</g>
<!-- Node10 -->
<g id="node2" class="node">
<title>Node10</title>
<g id="a_node2"><a xlink:href="namespaceukca__emiss__factors.xhtml#a6b9020d21eb93427252e4c718067a478" target="_top" xlink:title="ukca_emiss_factors\l::base_emiss_factors">
<polygon fill="#ffffff" stroke="#000000" points="149,-.5 149,-30.5 268,-30.5 268,-.5 149,-.5"/>
<text text-anchor="start" x="157" y="-18.5" font-family="Helvetica,sans-Serif" font-size="10.00" fill="#000000">ukca_emiss_factors</text>
<text text-anchor="middle" x="208.5" y="-7.5" font-family="Helvetica,sans-Serif" font-size="10.00" fill="#000000">::base_emiss_factors</text>
</a>
</g>
</g>
<!-- Node9&#45;&gt;Node10 -->
<g id="edge1" class="edge">
<title>Node9&#45;&gt;Node10</title>
<path fill="none" stroke="#191970" d="M123.3346,-15.5C131.8123,-15.5 140.4443,-15.5 148.8005,-15.5"/>
<polygon fill="#191970" stroke="#191970" points="123.0992,-12.0001 113.0992,-15.5 123.0992,-19.0001 123.0992,-12.0001"/>
</g>
<!-- Node11 -->
<g id="node3" class="node">
<title>Node11</title>
<g id="a_node3"><a xlink:href="namespaceukca__new__emiss__ctl__mod.xhtml#a09e21dd1c2f6ef3fe34d3403e1779ced" target="_top" xlink:title="ukca_new_emiss_ctl\l_mod::ukca_new_emiss_ctl">
<polygon fill="#ffffff" stroke="#000000" points="304,-.5 304,-30.5 454,-30.5 454,-.5 304,-.5"/>
<text text-anchor="start" x="312" y="-18.5" font-family="Helvetica,sans-Serif" font-size="10.00" fill="#000000">ukca_new_emiss_ctl</text>
<text text-anchor="middle" x="379" y="-7.5" font-family="Helvetica,sans-Serif" font-size="10.00" fill="#000000">_mod::ukca_new_emiss_ctl</text>
</a>
</g>
</g>
<!-- Node10&#45;&gt;Node11 -->
<g id="edge2" class="edge">
<title>Node10&#45;&gt;Node11</title>
<path fill="none" stroke="#191970" d="M278.2752,-15.5C286.694,-15.5 295.321,-15.5 303.813,-15.5"/>
<polygon fill="#191970" stroke="#191970" points="278.1327,-12.0001 268.1326,-15.5 278.1326,-19.0001 278.1327,-12.0001"/>
</g>
</g>
</svg>
