<?xml version="1.0" encoding="UTF-8" standalone="no"?>
<!DOCTYPE svg PUBLIC "-//W3C//DTD SVG 1.1//EN"
 "http://www.w3.org/Graphics/SVG/1.1/DTD/svg11.dtd">
<!-- Generated by graphviz version 2.40.1 (20161225.0304)
 -->
<!-- Title: mod_cosp::cosp_iter Pages: 1 -->
<svg width="446pt" height="28pt"
 viewBox="0.00 0.00 446.00 28.00" xmlns="http://www.w3.org/2000/svg" xmlns:xlink="http://www.w3.org/1999/xlink">
<g id="graph0" class="graph" transform="scale(1 1) rotate(0) translate(4 24)">
<title>mod_cosp::cosp_iter</title>
<polygon fill="#ffffff" stroke="transparent" points="-4,4 -4,-24 442,-24 442,4 -4,4"/>
<!-- Node16 -->
<g id="node1" class="node">
<title>Node16</title>
<polygon fill="#bfbfbf" stroke="#000000" points="0,-.5 0,-19.5 116,-19.5 116,-.5 0,-.5"/>
<text text-anchor="middle" x="58" y="-7.5" font-family="Helvetica,sans-Serif" font-size="10.00" fill="#000000">mod_cosp::cosp_iter</text>
</g>
<!-- Node17 -->
<g id="node2" class="node">
<title>Node17</title>
<g id="a_node2"><a xlink:href="namespacemod__cosp.xhtml#afa9a714cd1a25c250d2a6060049fed9f" target="_top" xlink:title="%%%%%%%%%%%%%%%%%%%%%%%%%%%%%%%%%%%%%%%%%%%%%%%%%%%%%%%%%%%%%%%%% ">
<polygon fill="#ffffff" stroke="#000000" points="152,-.5 152,-19.5 247,-19.5 247,-.5 152,-.5"/>
<text text-anchor="middle" x="199.5" y="-7.5" font-family="Helvetica,sans-Serif" font-size="10.00" fill="#000000">mod_cosp::cosp</text>
</a>
</g>
</g>
<!-- Node16&#45;&gt;Node17 -->
<g id="edge1" class="edge">
<title>Node16&#45;&gt;Node17</title>
<path fill="none" stroke="#191970" d="M126.622,-10C135.0696,-10 143.5576,-10 151.6038,-10"/>
<polygon fill="#191970" stroke="#191970" points="126.3704,-6.5001 116.3704,-10 126.3704,-13.5001 126.3704,-6.5001"/>
</g>
<!-- Node18 -->
<g id="node3" class="node">
<title>Node18</title>
<g id="a_node3"><a xlink:href="namespacecosp__main__mod.xhtml#a1b53063ed2ac89adb22ebd3cec76b138" target="_top" xlink:title="Routine that calls the main COSP routine and passes the outputs!&gt; to the diagnostics routine/...">
<polygon fill="#ffffff" stroke="#000000" points="283,-.5 283,-19.5 438,-19.5 438,-.5 283,-.5"/>
<text text-anchor="middle" x="360.5" y="-7.5" font-family="Helvetica,sans-Serif" font-size="10.00" fill="#000000">cosp_main_mod::cosp_main</text>
</a>
</g>
</g>
<!-- Node17&#45;&gt;Node18 -->
<g id="edge2" class="edge">
<title>Node17&#45;&gt;Node18</title>
<path fill="none" stroke="#191970" d="M257.5984,-10C265.8406,-10 274.4231,-10 282.9612,-10"/>
<polygon fill="#191970" stroke="#191970" points="257.3694,-6.5001 247.3694,-10 257.3694,-13.5001 257.3694,-6.5001"/>
</g>
</g>
</svg>
