<?xml version="1.0" encoding="UTF-8" standalone="no"?>
<!DOCTYPE svg PUBLIC "-//W3C//DTD SVG 1.1//EN"
 "http://www.w3.org/Graphics/SVG/1.1/DTD/svg11.dtd">
<!-- Generated by graphviz version 2.40.1 (20161225.0304)
 -->
<!-- Title: io_server_listener::ios_aux_thread1_assist Pages: 1 -->
<!--zoomable 121 -->
<svg id="main" version="1.1" xmlns="http://www.w3.org/2000/svg" xmlns:xlink="http://www.w3.org/1999/xlink" xml:space="preserve" onload="init(evt)">
<style type="text/css"><![CDATA[
.edge:hover path { stroke: red; }
.edge:hover polygon { stroke: red; fill: red; }
]]></style>
<script type="text/javascript"><![CDATA[
var edges = document.getElementsByTagName('g');
if (edges && edges.length) {
  for (var i=0;i<edges.length;i++) {
    if (edges[i].id.substr(0,4)=='edge') {
      edges[i].setAttribute('class','edge');
    }
  }
}
]]></script>
        <defs>
                <circle id="rim" cx="0" cy="0" r="7"/>
                <circle id="rim2" cx="0" cy="0" r="3.5"/>
                <g id="zoomPlus">
                        <use xlink:href="#rim" fill="#404040">
                                <set attributeName="fill" to="#808080" begin="zoomplus.mouseover" end="zoomplus.mouseout"/>
                        </use>
                        <path d="M-4,0h8M0,-4v8" fill="none" stroke="white" stroke-width="1.5" pointer-events="none"/>
                </g>
                <g id="zoomMin">
                        <use xlink:href="#rim" fill="#404040">
                                <set attributeName="fill" to="#808080" begin="zoomminus.mouseover" end="zoomminus.mouseout"/>
                        </use>
                        <path d="M-4,0h8" fill="none" stroke="white" stroke-width="1.5" pointer-events="none"/>
                </g>
                <g id="dirArrow">
                        <path fill="none" stroke="white" stroke-width="1.5" d="M0,-3.0v7 M-2.5,-0.5L0,-3.0L2.5,-0.5"/>
                </g>
               <g id="resetDef">
                       <use xlink:href="#rim2" fill="#404040">
                               <set attributeName="fill" to="#808080" begin="reset.mouseover" end="reset.mouseout"/>
                       </use>
               </g>
        </defs>

<script type="text/javascript">
var viewWidth = 608;
var viewHeight = 121;
var sectionId = 'dynsection-8';
</script>
<script xlink:href="svgpan.js"/>
<svg id="graph" class="graph">
<g id="viewport">
<title>io_server_listener::ios_aux_thread1_assist</title>
<polygon fill="#ffffff" stroke="transparent" points="-4,4 -4,-116.891 604,-116.891 604,4 -4,4"/>
<!-- Node62 -->
<g id="node1" class="node">
<title>Node62</title>
<polygon fill="#bfbfbf" stroke="#000000" points="0,-46.1522 0,-76.1522 137,-76.1522 137,-46.1522 0,-46.1522"/>
<text text-anchor="start" x="8" y="-64.1522" font-family="Helvetica,sans-Serif" font-size="10.00" fill="#000000">io_server_listener</text>
<text text-anchor="middle" x="68.5" y="-53.1522" font-family="Helvetica,sans-Serif" font-size="10.00" fill="#000000">::ios_aux_thread1_assist</text>
</g>
<!-- Node63 -->
<g id="node2" class="node">
<title>Node63</title>
<g id="a_node2"><a xlink:href="namespaceio__server__listener.xhtml#a9a50c3ffaabce194980387dc9dcf691f" target="_top" xlink:title="io_server_listener\l::ios_slavelistener">
<polygon fill="#ffffff" stroke="#000000" points="495,-71.1522 495,-101.1522 600,-101.1522 600,-71.1522 495,-71.1522"/>
<text text-anchor="start" x="503" y="-89.1522" font-family="Helvetica,sans-Serif" font-size="10.00" fill="#000000">io_server_listener</text>
<text text-anchor="middle" x="547.5" y="-78.1522" font-family="Helvetica,sans-Serif" font-size="10.00" fill="#000000">::ios_slavelistener</text>
</a>
</g>
</g>
<!-- Node62&#45;&gt;Node63 -->
<g id="edge1" class="edge">
<title>Node62&#45;&gt;Node63</title>
<path fill="none" stroke="#191970" d="M100.9593,-81.3413C120.9212,-92.5478 147.4871,-105.363 173,-111.1522 188.3256,-114.6299 453.8117,-109.8495 459,-109.1522 471.9015,-107.4185 485.6181,-104.4356 498.3039,-101.1817"/>
<polygon fill="#191970" stroke="#191970" points="102.6912,-78.2999 92.2798,-76.3367 99.1945,-84.364 102.6912,-78.2999"/>
</g>
<!-- Node64 -->
<g id="node3" class="node">
<title>Node64</title>
<g id="a_node3"><a xlink:href="namespaceio__server__listener.xhtml#a9225cffcf2da72ce400c9af1bbd3d788" target="_top" xlink:title="io_server_listener\l::ios_listener">
<polygon fill="#ffffff" stroke="#000000" points="495.5,-22.1522 495.5,-52.1522 599.5,-52.1522 599.5,-22.1522 495.5,-22.1522"/>
<text text-anchor="start" x="503.5" y="-40.1522" font-family="Helvetica,sans-Serif" font-size="10.00" fill="#000000">io_server_listener</text>
<text text-anchor="middle" x="547.5" y="-29.1522" font-family="Helvetica,sans-Serif" font-size="10.00" fill="#000000">::ios_listener</text>
</a>
</g>
</g>
<!-- Node62&#45;&gt;Node64 -->
<g id="edge2" class="edge">
<title>Node62&#45;&gt;Node64</title>
<path fill="none" stroke="#191970" d="M101.6818,-40.9956C121.5838,-30.1007 147.8425,-17.7576 173,-12.1522 285.8943,13.0018 422.2758,-8.7444 495.3007,-24.4462"/>
<polygon fill="#191970" stroke="#191970" points="99.7327,-38.0762 92.734,-46.0304 103.1654,-44.1768 99.7327,-38.0762"/>
</g>
<!-- Node65 -->
<g id="node4" class="node">
<title>Node65</title>
<g id="a_node4"><a xlink:href="namespaceio__server__listener.xhtml#a3a43d3b581cc8fe973b1ed0fdfc90ea8" target="_top" xlink:title="io_server_listener\l::ios_waitforqueuedrain">
<polygon fill="#ffffff" stroke="#000000" points="173,-22.1522 173,-52.1522 304,-52.1522 304,-22.1522 173,-22.1522"/>
<text text-anchor="start" x="181" y="-40.1522" font-family="Helvetica,sans-Serif" font-size="10.00" fill="#000000">io_server_listener</text>
<text text-anchor="middle" x="238.5" y="-29.1522" font-family="Helvetica,sans-Serif" font-size="10.00" fill="#000000">::ios_waitforqueuedrain</text>
</a>
</g>
</g>
<!-- Node62&#45;&gt;Node65 -->
<g id="edge3" class="edge">
<title>Node62&#45;&gt;Node65</title>
<path fill="none" stroke="#191970" d="M147.1901,-50.0431C155.7901,-48.8289 164.4767,-47.6026 172.8952,-46.4141"/>
<polygon fill="#191970" stroke="#191970" points="146.568,-46.5961 137.1555,-51.4597 147.5466,-53.5273 146.568,-46.5961"/>
</g>
<!-- Node67 -->
<g id="node6" class="node">
<title>Node67</title>
<g id="a_node6"><a xlink:href="namespaceio__server__listener.xhtml#a7d2b184d10ab3562e4fce46101ec5fa2" target="_top" xlink:title="io_server_listener\l::ios_waitforfreespace">
<polygon fill="#ffffff" stroke="#000000" points="176,-71.1522 176,-101.1522 301,-101.1522 301,-71.1522 176,-71.1522"/>
<text text-anchor="start" x="184" y="-89.1522" font-family="Helvetica,sans-Serif" font-size="10.00" fill="#000000">io_server_listener</text>
<text text-anchor="middle" x="238.5" y="-78.1522" font-family="Helvetica,sans-Serif" font-size="10.00" fill="#000000">::ios_waitforfreespace</text>
</a>
</g>
</g>
<!-- Node62&#45;&gt;Node67 -->
<g id="edge8" class="edge">
<title>Node62&#45;&gt;Node67</title>
<path fill="none" stroke="#191970" d="M147.1441,-72.7175C156.7873,-74.1357 166.5403,-75.5699 175.9027,-76.9468"/>
<polygon fill="#191970" stroke="#191970" points="147.5583,-69.2409 137.1555,-71.2486 146.5398,-76.1664 147.5583,-69.2409"/>
</g>
<!-- Node65&#45;&gt;Node64 -->
<g id="edge4" class="edge">
<title>Node65&#45;&gt;Node64</title>
<path fill="none" stroke="#191970" d="M314.3004,-37.1522C370.5376,-37.1522 445.7541,-37.1522 495.3663,-37.1522"/>
<polygon fill="#191970" stroke="#191970" points="314.031,-33.6523 304.031,-37.1522 314.0309,-40.6523 314.031,-33.6523"/>
</g>
<!-- Node66 -->
<g id="node5" class="node">
<title>Node66</title>
<g id="a_node5"><a xlink:href="namespaceio__server__listener.xhtml#a1018f7e8b758ddbedf8c1127ddb0ceea" target="_top" xlink:title="io_server_listener\l::ios_process_normal">
<polygon fill="#ffffff" stroke="#000000" points="340,-69.1522 340,-99.1522 459,-99.1522 459,-69.1522 340,-69.1522"/>
<text text-anchor="start" x="348" y="-87.1522" font-family="Helvetica,sans-Serif" font-size="10.00" fill="#000000">io_server_listener</text>
<text text-anchor="middle" x="399.5" y="-76.1522" font-family="Helvetica,sans-Serif" font-size="10.00" fill="#000000">::ios_process_normal</text>
</a>
</g>
</g>
<!-- Node65&#45;&gt;Node66 -->
<g id="edge5" class="edge">
<title>Node65&#45;&gt;Node66</title>
<path fill="none" stroke="#191970" d="M299.6571,-55.0056C315.616,-59.6644 332.653,-64.6379 348.0519,-69.1332"/>
<polygon fill="#191970" stroke="#191970" points="300.4642,-51.5951 289.8841,-52.1526 298.5026,-58.3147 300.4642,-51.5951"/>
</g>
<!-- Node66&#45;&gt;Node63 -->
<g id="edge6" class="edge">
<title>Node66&#45;&gt;Node63</title>
<path fill="none" stroke="#191970" d="M469.522,-85.0985C477.979,-85.2128 486.5055,-85.328 494.6579,-85.4382"/>
<polygon fill="#191970" stroke="#191970" points="469.3171,-81.5955 459.2707,-84.96 469.2224,-88.5949 469.3171,-81.5955"/>
</g>
<!-- Node66&#45;&gt;Node64 -->
<g id="edge7" class="edge">
<title>Node66&#45;&gt;Node64</title>
<path fill="none" stroke="#191970" d="M456.5504,-66.0349C470.9797,-61.4526 486.3176,-56.5818 500.2061,-52.1713"/>
<polygon fill="#191970" stroke="#191970" points="455.2066,-62.7893 446.735,-69.1519 457.3254,-69.461 455.2066,-62.7893"/>
</g>
<!-- Node67&#45;&gt;Node66 -->
<g id="edge9" class="edge">
<title>Node67&#45;&gt;Node66</title>
<path fill="none" stroke="#191970" d="M311.446,-85.2461C320.9559,-85.1279 330.6076,-85.008 339.8641,-84.8931"/>
<polygon fill="#191970" stroke="#191970" points="311.1635,-81.7492 301.2078,-85.3733 311.2506,-88.7487 311.1635,-81.7492"/>
</g>
</g>
</svg>
        <g id="navigator" transform="translate(0 0)" fill="#404254">
                <rect fill="#f2f5e9" fill-opacity="0.5" stroke="#606060" stroke-width=".5" x="0" y="0" width="60" height="60"/>
                <use id="zoomplus" xlink:href="#zoomPlus" x="17" y="9" onmousedown="handleZoom(evt,'in')"/>
                <use id="zoomminus" xlink:href="#zoomMin" x="42" y="9" onmousedown="handleZoom(evt,'out')"/>
                <use id="reset" xlink:href="#resetDef" x="30" y="36" onmousedown="handleReset()"/>
                <g id="arrowUp" xlink:href="#dirArrow" transform="translate(30 24)" onmousedown="handlePan(0,-1)">
                  <use xlink:href="#rim" fill="#404040">
                        <set attributeName="fill" to="#808080" begin="arrowUp.mouseover" end="arrowUp.mouseout"/>
                  </use>
                  <path fill="none" stroke="white" stroke-width="1.5" d="M0,-3.0v7 M-2.5,-0.5L0,-3.0L2.5,-0.5"/>
                </g>
                <g id="arrowRight" xlink:href="#dirArrow" transform="rotate(90) translate(36 -43)" onmousedown="handlePan(1,0)">
                  <use xlink:href="#rim" fill="#404040">
                        <set attributeName="fill" to="#808080" begin="arrowRight.mouseover" end="arrowRight.mouseout"/>
                  </use>
                  <path fill="none" stroke="white" stroke-width="1.5" d="M0,-3.0v7 M-2.5,-0.5L0,-3.0L2.5,-0.5"/>
                </g>
                <g id="arrowDown" xlink:href="#dirArrow" transform="rotate(180) translate(-30 -48)" onmousedown="handlePan(0,1)">
                  <use xlink:href="#rim" fill="#404040">
                        <set attributeName="fill" to="#808080" begin="arrowDown.mouseover" end="arrowDown.mouseout"/>
                  </use>
                  <path fill="none" stroke="white" stroke-width="1.5" d="M0,-3.0v7 M-2.5,-0.5L0,-3.0L2.5,-0.5"/>
                </g>
                <g id="arrowLeft" xlink:href="#dirArrow" transform="rotate(270) translate(-36 17)" onmousedown="handlePan(-1,0)">
                  <use xlink:href="#rim" fill="#404040">
                        <set attributeName="fill" to="#808080" begin="arrowLeft.mouseover" end="arrowLeft.mouseout"/>
                  </use>
                  <path fill="none" stroke="white" stroke-width="1.5" d="M0,-3.0v7 M-2.5,-0.5L0,-3.0L2.5,-0.5"/>
                </g>
        </g>
        <svg viewBox="0 0 15 15" width="100%" height="30px" preserveAspectRatio="xMaxYMin meet">
         <g id="arrow_out" transform="scale(0.3 0.3)">
          <a xlink:href="namespaceio__server__listener_a9282a1bb669d0ab223742b8c62cd16e5_icgraph_org.svg" target="_base">
           <rect id="button" ry="5" rx="5" y="6" x="6" height="38" width="38"
                fill="#f2f5e9" fill-opacity="0.5" stroke="#606060" stroke-width="1.0"/>
           <path id="arrow"
             d="M 11.500037,31.436501 C 11.940474,20.09759 22.043105,11.32322 32.158766,21.979434 L 37.068811,17.246167 C 37.068811,17.246167 37.088388,32 37.088388,32 L 22.160133,31.978069 C 22.160133,31.978069 26.997745,27.140456 26.997745,27.140456 C 18.528582,18.264221 13.291696,25.230495 11.500037,31.436501 z"
             style="fill:#404040;"/>
          </a>
         </g>
        </svg>
</svg>
