<?xml version="1.0" encoding="UTF-8" standalone="no"?>
<!DOCTYPE svg PUBLIC "-//W3C//DTD SVG 1.1//EN"
 "http://www.w3.org/Graphics/SVG/1.1/DTD/svg11.dtd">
<!-- Generated by graphviz version 2.40.1 (20161225.0304)
 -->
<!-- Title: sulphr_mod::sulphr Pages: 1 -->
<svg width="705pt" height="78pt"
 viewBox="0.00 0.00 705.00 77.50" xmlns="http://www.w3.org/2000/svg" xmlns:xlink="http://www.w3.org/1999/xlink">
<g id="graph0" class="graph" transform="scale(1 1) rotate(0) translate(4 73.5)">
<title>sulphr_mod::sulphr</title>
<polygon fill="#ffffff" stroke="transparent" points="-4,4 -4,-73.5 701,-73.5 701,4 -4,4"/>
<!-- Node7 -->
<g id="node1" class="node">
<title>Node7</title>
<polygon fill="#bfbfbf" stroke="#000000" points="0,-28 0,-47 110,-47 110,-28 0,-28"/>
<text text-anchor="middle" x="55" y="-35" font-family="Helvetica,sans-Serif" font-size="10.00" fill="#000000">sulphr_mod::sulphr</text>
</g>
<!-- Node8 -->
<g id="node2" class="node">
<title>Node8</title>
<g id="a_node2"><a xlink:href="namespaceaero__ctl__mod.xhtml#a0466f013f1adc0f4466c750092df7846" target="_top" xlink:title="aero_ctl_mod::aero_ctl">
<polygon fill="#ffffff" stroke="#000000" points="146,-50 146,-69 274,-69 274,-50 146,-50"/>
<text text-anchor="middle" x="210" y="-57" font-family="Helvetica,sans-Serif" font-size="10.00" fill="#000000">aero_ctl_mod::aero_ctl</text>
</a>
</g>
</g>
<!-- Node7&#45;&gt;Node8 -->
<g id="edge1" class="edge">
<title>Node7&#45;&gt;Node8</title>
<path fill="none" stroke="#191970" d="M119.9956,-46.7252C128.5427,-47.9383 137.2983,-49.181 145.8315,-50.3922"/>
<polygon fill="#191970" stroke="#191970" points="120.4763,-43.2584 110.0836,-45.3183 119.4925,-50.1889 120.4763,-43.2584"/>
</g>
<!-- Node9 -->
<g id="node3" class="node">
<title>Node9</title>
<g id="a_node3"><a xlink:href="namespaceaero__ctl__mod__4a.xhtml#a8be16d3b6d6949cfc2fd32c575e47e76" target="_top" xlink:title="aero_ctl_mod_4a::aero\l_ctl_4a">
<polygon fill="#ffffff" stroke="#000000" points="146,-.5 146,-30.5 274,-30.5 274,-.5 146,-.5"/>
<text text-anchor="start" x="154" y="-18.5" font-family="Helvetica,sans-Serif" font-size="10.00" fill="#000000">aero_ctl_mod_4a::aero</text>
<text text-anchor="middle" x="210" y="-7.5" font-family="Helvetica,sans-Serif" font-size="10.00" fill="#000000">_ctl_4a</text>
</a>
</g>
</g>
<!-- Node7&#45;&gt;Node9 -->
<g id="edge2" class="edge">
<title>Node7&#45;&gt;Node9</title>
<path fill="none" stroke="#191970" d="M119.9956,-28.2748C128.5427,-27.0617 137.2983,-25.819 145.8315,-24.6078"/>
<polygon fill="#191970" stroke="#191970" points="119.4925,-24.8111 110.0836,-29.6817 120.4763,-31.7416 119.4925,-24.8111"/>
</g>
<!-- Node10 -->
<g id="node4" class="node">
<title>Node10</title>
<g id="a_node4"><a xlink:href="atm__step__4_a_8f90.xhtml#a2319aa4963e90c64cd78bdcd5f481095" target="_top" xlink:title="Perform a 1&#45;timestep integration of the Atmosphere Model. ">
<polygon fill="#ffffff" stroke="#000000" points="310,-6 310,-25 390,-25 390,-6 310,-6"/>
<text text-anchor="middle" x="350" y="-13" font-family="Helvetica,sans-Serif" font-size="10.00" fill="#000000">atm_step_4a</text>
</a>
</g>
</g>
<!-- Node9&#45;&gt;Node10 -->
<g id="edge3" class="edge">
<title>Node9&#45;&gt;Node10</title>
<path fill="none" stroke="#191970" d="M284.475,-15.5C293.1649,-15.5 301.7626,-15.5 309.7292,-15.5"/>
<polygon fill="#191970" stroke="#191970" points="284.2636,-12.0001 274.2635,-15.5 284.2635,-19.0001 284.2636,-12.0001"/>
</g>
<!-- Node11 -->
<g id="node5" class="node">
<title>Node11</title>
<g id="a_node5"><a xlink:href="u__model__4_a_8f90.xhtml#afa05064dab5eba198b461d0928767c7e" target="_top" xlink:title="LL Subroutine: U_MODEL_4A (ENDGAME VERSION) !&gt;LL. ">
<polygon fill="#ffffff" stroke="#000000" points="426,-6 426,-25 502,-25 502,-6 426,-6"/>
<text text-anchor="middle" x="464" y="-13" font-family="Helvetica,sans-Serif" font-size="10.00" fill="#000000">u_model_4a</text>
</a>
</g>
</g>
<!-- Node10&#45;&gt;Node11 -->
<g id="edge4" class="edge">
<title>Node10&#45;&gt;Node11</title>
<path fill="none" stroke="#191970" d="M400.3998,-15.5C408.891,-15.5 417.5803,-15.5 425.7002,-15.5"/>
<polygon fill="#191970" stroke="#191970" points="400.1922,-12.0001 390.1921,-15.5 400.1921,-19.0001 400.1922,-12.0001"/>
</g>
<!-- Node12 -->
<g id="node6" class="node">
<title>Node12</title>
<g id="a_node6"><a xlink:href="um__shell_8f90.xhtml#a8c9bd25362824a5c301376ecb5ed5c27" target="_top" xlink:title="Subroutine: UM_SHELL !&gt; ">
<polygon fill="#ffffff" stroke="#000000" points="538,-6 538,-25 599,-25 599,-6 538,-6"/>
<text text-anchor="middle" x="568.5" y="-13" font-family="Helvetica,sans-Serif" font-size="10.00" fill="#000000">um_shell</text>
</a>
</g>
</g>
<!-- Node11&#45;&gt;Node12 -->
<g id="edge5" class="edge">
<title>Node11&#45;&gt;Node12</title>
<path fill="none" stroke="#191970" d="M512.1579,-15.5C520.9023,-15.5 529.8005,-15.5 537.8647,-15.5"/>
<polygon fill="#191970" stroke="#191970" points="512.0225,-12.0001 502.0225,-15.5 512.0225,-19.0001 512.0225,-12.0001"/>
</g>
<!-- Node13 -->
<g id="node7" class="node">
<title>Node13</title>
<g id="a_node7"><a xlink:href="um__main_8f90.xhtml#a8f2d13215621443a5313261c282f098b" target="_top" xlink:title="Code Owner: See Unified Model Code Owner&#39;s HTML page. ">
<polygon fill="#ffffff" stroke="#000000" points="635,-6 635,-25 697,-25 697,-6 635,-6"/>
<text text-anchor="middle" x="666" y="-13" font-family="Helvetica,sans-Serif" font-size="10.00" fill="#000000">um_main</text>
</a>
</g>
</g>
<!-- Node12&#45;&gt;Node13 -->
<g id="edge6" class="edge">
<title>Node12&#45;&gt;Node13</title>
<path fill="none" stroke="#191970" d="M609.2756,-15.5C617.8294,-15.5 626.72,-15.5 634.8551,-15.5"/>
<polygon fill="#191970" stroke="#191970" points="609.0821,-12.0001 599.0821,-15.5 609.0821,-19.0001 609.0821,-12.0001"/>
</g>
</g>
</svg>
