<?xml version="1.0" encoding="UTF-8" standalone="no"?>
<!DOCTYPE svg PUBLIC "-//W3C//DTD SVG 1.1//EN"
 "http://www.w3.org/Graphics/SVG/1.1/DTD/svg11.dtd">
<!-- Generated by graphviz version 2.40.1 (20161225.0304)
 -->
<!-- Title: rcf_grib_spcl_hdr_mod::rcf_grib_spcl_hdr Pages: 1 -->
<svg width="536pt" height="39pt"
 viewBox="0.00 0.00 536.00 39.00" xmlns="http://www.w3.org/2000/svg" xmlns:xlink="http://www.w3.org/1999/xlink">
<g id="graph0" class="graph" transform="scale(1 1) rotate(0) translate(4 35)">
<title>rcf_grib_spcl_hdr_mod::rcf_grib_spcl_hdr</title>
<polygon fill="#ffffff" stroke="transparent" points="-4,4 -4,-35 532,-35 532,4 -4,4"/>
<!-- Node5 -->
<g id="node1" class="node">
<title>Node5</title>
<polygon fill="#bfbfbf" stroke="#000000" points="0,-.5 0,-30.5 126,-30.5 126,-.5 0,-.5"/>
<text text-anchor="start" x="8" y="-18.5" font-family="Helvetica,sans-Serif" font-size="10.00" fill="#000000">rcf_grib_spcl_hdr_mod</text>
<text text-anchor="middle" x="63" y="-7.5" font-family="Helvetica,sans-Serif" font-size="10.00" fill="#000000">::rcf_grib_spcl_hdr</text>
</g>
<!-- Node6 -->
<g id="node2" class="node">
<title>Node6</title>
<g id="a_node2"><a xlink:href="namespacercf__grib__control__mod.xhtml#ac6174bbd64f507e15341873465221613" target="_top" xlink:title="SUBROUTINE Rcf_Grib_Control. ">
<polygon fill="#ffffff" stroke="#000000" points="162,-.5 162,-30.5 281,-30.5 281,-.5 162,-.5"/>
<text text-anchor="start" x="170" y="-18.5" font-family="Helvetica,sans-Serif" font-size="10.00" fill="#000000">rcf_grib_control_mod</text>
<text text-anchor="middle" x="221.5" y="-7.5" font-family="Helvetica,sans-Serif" font-size="10.00" fill="#000000">::rcf_grib_control</text>
</a>
</g>
</g>
<!-- Node5&#45;&gt;Node6 -->
<g id="edge1" class="edge">
<title>Node5&#45;&gt;Node6</title>
<path fill="none" stroke="#191970" d="M136.1721,-15.5C144.812,-15.5 153.5489,-15.5 161.9687,-15.5"/>
<polygon fill="#191970" stroke="#191970" points="136.0989,-12.0001 126.0988,-15.5 136.0988,-19.0001 136.0989,-12.0001"/>
</g>
<!-- Node7 -->
<g id="node3" class="node">
<title>Node7</title>
<g id="a_node3"><a xlink:href="namespacercf__initialise__mod.xhtml#ab7086bd455bd5857b757207d0255c3f4" target="_top" xlink:title="Subroutine Rcf_Initialise &#45; initialisation tasks. ">
<polygon fill="#ffffff" stroke="#000000" points="317,-.5 317,-30.5 421,-30.5 421,-.5 317,-.5"/>
<text text-anchor="start" x="325" y="-18.5" font-family="Helvetica,sans-Serif" font-size="10.00" fill="#000000">rcf_initialise_mod</text>
<text text-anchor="middle" x="369" y="-7.5" font-family="Helvetica,sans-Serif" font-size="10.00" fill="#000000">::rcf_initialise</text>
</a>
</g>
</g>
<!-- Node6&#45;&gt;Node7 -->
<g id="edge2" class="edge">
<title>Node6&#45;&gt;Node7</title>
<path fill="none" stroke="#191970" d="M291.1447,-15.5C299.7816,-15.5 308.4939,-15.5 316.8057,-15.5"/>
<polygon fill="#191970" stroke="#191970" points="291.0688,-12.0001 281.0687,-15.5 291.0687,-19.0001 291.0688,-12.0001"/>
</g>
<!-- Node8 -->
<g id="node4" class="node">
<title>Node8</title>
<g id="a_node4"><a xlink:href="reconfigure_8f90.xhtml#a55389899cfceedbb4b0f908c73988c0c" target="_top" xlink:title="Top level program for reconfiguration. ">
<polygon fill="#ffffff" stroke="#000000" points="457,-6 457,-25 528,-25 528,-6 457,-6"/>
<text text-anchor="middle" x="492.5" y="-13" font-family="Helvetica,sans-Serif" font-size="10.00" fill="#000000">reconfigure</text>
</a>
</g>
</g>
<!-- Node7&#45;&gt;Node8 -->
<g id="edge3" class="edge">
<title>Node7&#45;&gt;Node8</title>
<path fill="none" stroke="#191970" d="M431.2179,-15.5C439.938,-15.5 448.6456,-15.5 456.6452,-15.5"/>
<polygon fill="#191970" stroke="#191970" points="431.0172,-12.0001 421.0172,-15.5 431.0171,-19.0001 431.0172,-12.0001"/>
</g>
</g>
</svg>
