<?xml version="1.0" encoding="UTF-8" standalone="no"?>
<!DOCTYPE svg PUBLIC "-//W3C//DTD SVG 1.1//EN"
 "http://www.w3.org/Graphics/SVG/1.1/DTD/svg11.dtd">
<!-- Generated by graphviz version 2.40.1 (20161225.0304)
 -->
<!-- Title: rcf_readnl_stshcomp_mod::rcf_readnl_stshcomp Pages: 1 -->
<svg width="864pt" height="176pt"
 viewBox="0.00 0.00 864.00 176.00" xmlns="http://www.w3.org/2000/svg" xmlns:xlink="http://www.w3.org/1999/xlink">
<g id="graph0" class="graph" transform="scale(1 1) rotate(0) translate(4 172)">
<title>rcf_readnl_stshcomp_mod::rcf_readnl_stshcomp</title>
<polygon fill="#ffffff" stroke="transparent" points="-4,4 -4,-172 860,-172 860,4 -4,4"/>
<!-- Node0 -->
<g id="node1" class="node">
<title>Node0</title>
<polygon fill="#bfbfbf" stroke="#000000" points="0,-71.5 0,-101.5 151,-101.5 151,-71.5 0,-71.5"/>
<text text-anchor="start" x="8" y="-89.5" font-family="Helvetica,sans-Serif" font-size="10.00" fill="#000000">rcf_readnl_stshcomp</text>
<text text-anchor="middle" x="75.5" y="-78.5" font-family="Helvetica,sans-Serif" font-size="10.00" fill="#000000">_mod::rcf_readnl_stshcomp</text>
</g>
<!-- Node1 -->
<g id="node2" class="node">
<title>Node1</title>
<g id="a_node2"><a xlink:href="namespacercf__model__mod.xhtml#ab59cde3c38917838168def6349ea1492" target="_top" xlink:title="rcf_model_mod::print\l_nlist_stshcomp">
<polygon fill="#ffffff" stroke="#000000" points="195,-137.5 195,-167.5 316,-167.5 316,-137.5 195,-137.5"/>
<text text-anchor="start" x="203" y="-155.5" font-family="Helvetica,sans-Serif" font-size="10.00" fill="#000000">rcf_model_mod::print</text>
<text text-anchor="middle" x="255.5" y="-144.5" font-family="Helvetica,sans-Serif" font-size="10.00" fill="#000000">_nlist_stshcomp</text>
</a>
</g>
</g>
<!-- Node0&#45;&gt;Node1 -->
<g id="edge1" class="edge">
<title>Node0&#45;&gt;Node1</title>
<path fill="none" stroke="#191970" d="M116.7956,-101.6417C142.9783,-111.242 177.0308,-123.7279 204.8425,-133.9256"/>
<polygon fill="#191970" stroke="#191970" points="203.8028,-137.2722 214.3965,-137.4287 206.2127,-130.7 203.8028,-137.2722"/>
</g>
<!-- Node2 -->
<g id="node3" class="node">
<title>Node2</title>
<g id="a_node3"><a xlink:href="namespaceumprintmgr.xhtml#aae44897e556705dbf5e945a26538be9a" target="_top" xlink:title="umprintmgr::umprint">
<polygon fill="#ffffff" stroke="#000000" points="360,-99 360,-118 479,-118 479,-99 360,-99"/>
<text text-anchor="middle" x="419.5" y="-106" font-family="Helvetica,sans-Serif" font-size="10.00" fill="#000000">umprintmgr::umprint</text>
</a>
</g>
</g>
<!-- Node0&#45;&gt;Node2 -->
<g id="edge7" class="edge">
<title>Node0&#45;&gt;Node2</title>
<path fill="none" stroke="#191970" d="M151.4181,-91.3552C210.5872,-95.1393 292.0917,-100.3518 349.6558,-104.0332"/>
<polygon fill="#191970" stroke="#191970" points="349.5525,-107.5337 359.7555,-104.6791 349.9993,-100.5479 349.5525,-107.5337"/>
</g>
<!-- Node6 -->
<g id="node7" class="node">
<title>Node6</title>
<g id="a_node7"><a xlink:href="namespaceumsections__mod.xhtml#a8562a756a0ec509a61c687d8aeb0cadd" target="_top" xlink:title="umsections_mod::print\l_nlist_umsections">
<polygon fill="#ffffff" stroke="#000000" points="191.5,-49.5 191.5,-79.5 319.5,-79.5 319.5,-49.5 191.5,-49.5"/>
<text text-anchor="start" x="199.5" y="-67.5" font-family="Helvetica,sans-Serif" font-size="10.00" fill="#000000">umsections_mod::print</text>
<text text-anchor="middle" x="255.5" y="-56.5" font-family="Helvetica,sans-Serif" font-size="10.00" fill="#000000">_nlist_umsections</text>
</a>
</g>
</g>
<!-- Node0&#45;&gt;Node6 -->
<g id="edge8" class="edge">
<title>Node0&#45;&gt;Node6</title>
<path fill="none" stroke="#191970" d="M151.0538,-77.2656C160.9791,-76.0526 171.1451,-74.81 181.0518,-73.5992"/>
<polygon fill="#191970" stroke="#191970" points="181.7594,-77.0389 191.2608,-72.3515 180.9101,-70.0906 181.7594,-77.0389"/>
</g>
<!-- Node7 -->
<g id="node8" class="node">
<title>Node7</title>
<g id="a_node8"><a xlink:href="namespaceumsections__mod.xhtml#a19a2866a367528c49a14d21b06bcb97d" target="_top" xlink:title="umsections_mod::assign\l_umsections">
<polygon fill="#ffffff" stroke="#000000" points="187,-.5 187,-30.5 324,-30.5 324,-.5 187,-.5"/>
<text text-anchor="start" x="195" y="-18.5" font-family="Helvetica,sans-Serif" font-size="10.00" fill="#000000">umsections_mod::assign</text>
<text text-anchor="middle" x="255.5" y="-7.5" font-family="Helvetica,sans-Serif" font-size="10.00" fill="#000000">_umsections</text>
</a>
</g>
</g>
<!-- Node0&#45;&gt;Node7 -->
<g id="edge10" class="edge">
<title>Node0&#45;&gt;Node7</title>
<path fill="none" stroke="#191970" d="M111.0018,-71.4148C132.833,-62.248 161.4307,-50.4354 187,-40.5 192.4428,-38.3851 198.148,-36.2207 203.8444,-34.0934"/>
<polygon fill="#191970" stroke="#191970" points="205.213,-37.3189 213.3748,-30.5634 202.7816,-30.7547 205.213,-37.3189"/>
</g>
<!-- Node1&#45;&gt;Node2 -->
<g id="edge2" class="edge">
<title>Node1&#45;&gt;Node2</title>
<path fill="none" stroke="#191970" d="M311.4808,-137.4808C331.8675,-132.0112 354.648,-125.8993 374.014,-120.7036"/>
<polygon fill="#191970" stroke="#191970" points="375.0477,-124.0501 383.7991,-118.0783 373.2337,-117.2892 375.0477,-124.0501"/>
</g>
<!-- Node3 -->
<g id="node4" class="node">
<title>Node3</title>
<g id="a_node4"><a xlink:href="namespaceumprintmgr.xhtml#a088ce22a18d574e9df7ee1850bfb10c7" target="_top" xlink:title="umprintmgr::umprintopenstream">
<polygon fill="#ffffff" stroke="#000000" points="515,-99 515,-118 692,-118 692,-99 515,-99"/>
<text text-anchor="middle" x="603.5" y="-106" font-family="Helvetica,sans-Serif" font-size="10.00" fill="#000000">umprintmgr::umprintopenstream</text>
</a>
</g>
</g>
<!-- Node2&#45;&gt;Node3 -->
<g id="edge3" class="edge">
<title>Node2&#45;&gt;Node3</title>
<path fill="none" stroke="#191970" d="M479.2395,-102.1333C487.4605,-101.9301 496.0751,-101.8077 504.7702,-101.7661"/>
<polygon fill="#191970" stroke="#191970" points="504.9998,-105.2659 514.9958,-101.7543 504.9917,-98.2659 504.9998,-105.2659"/>
</g>
<!-- Node4 -->
<g id="node5" class="node">
<title>Node4</title>
<g id="a_node5"><a xlink:href="namespaceumprintmgr.xhtml#ad3a290b30a6e25500eabc0bf90330b77" target="_top" xlink:title="umprintmgr::umprintflush">
<polygon fill="#ffffff" stroke="#000000" points="532.5,-61 532.5,-80 674.5,-80 674.5,-61 532.5,-61"/>
<text text-anchor="middle" x="603.5" y="-68" font-family="Helvetica,sans-Serif" font-size="10.00" fill="#000000">umprintmgr::umprintflush</text>
</a>
</g>
</g>
<!-- Node2&#45;&gt;Node4 -->
<g id="edge5" class="edge">
<title>Node2&#45;&gt;Node4</title>
<path fill="none" stroke="#191970" d="M465.931,-98.911C490.6493,-93.8061 521.239,-87.4887 547.292,-82.1082"/>
<polygon fill="#191970" stroke="#191970" points="548.3175,-85.4703 557.4029,-80.0201 546.9017,-78.615 548.3175,-85.4703"/>
</g>
<!-- Node3&#45;&gt;Node2 -->
<g id="edge4" class="edge">
<title>Node3&#45;&gt;Node2</title>
<path fill="none" stroke="#191970" d="M514.9958,-115.2457C506.3802,-115.267 497.7236,-115.2094 489.3289,-115.0727"/>
<polygon fill="#191970" stroke="#191970" points="489.3089,-111.5716 479.2395,-114.8667 489.166,-118.5702 489.3089,-111.5716"/>
</g>
<!-- Node5 -->
<g id="node6" class="node">
<title>Node5</title>
<g id="a_node6"><a xlink:href="namespaceumflush__mod.xhtml#a3a003ab59990bdcb712b443dd5e0d1cd" target="_top" xlink:title="umflush_mod::umflush">
<polygon fill="#ffffff" stroke="#000000" points="728,-61 728,-80 856,-80 856,-61 728,-61"/>
<text text-anchor="middle" x="792" y="-68" font-family="Helvetica,sans-Serif" font-size="10.00" fill="#000000">umflush_mod::umflush</text>
</a>
</g>
</g>
<!-- Node4&#45;&gt;Node5 -->
<g id="edge6" class="edge">
<title>Node4&#45;&gt;Node5</title>
<path fill="none" stroke="#191970" d="M674.7638,-70.5C688.7742,-70.5 703.5063,-70.5 717.6162,-70.5"/>
<polygon fill="#191970" stroke="#191970" points="717.7612,-74.0001 727.7611,-70.5 717.7611,-67.0001 717.7612,-74.0001"/>
</g>
<!-- Node6&#45;&gt;Node2 -->
<g id="edge9" class="edge">
<title>Node6&#45;&gt;Node2</title>
<path fill="none" stroke="#191970" d="M311.4808,-79.5192C331.8675,-84.9888 354.648,-91.1007 374.014,-96.2964"/>
<polygon fill="#191970" stroke="#191970" points="373.2337,-99.7108 383.7991,-98.9217 375.0477,-92.9499 373.2337,-99.7108"/>
</g>
</g>
</svg>
