<?xml version="1.0" encoding="UTF-8" standalone="no"?>
<!DOCTYPE svg PUBLIC "-//W3C//DTD SVG 1.1//EN"
 "http://www.w3.org/Graphics/SVG/1.1/DTD/svg11.dtd">
<!-- Generated by graphviz version 2.40.1 (20161225.0304)
 -->
<!-- Title: tcs_turb_fluxes::calc_turb_fluxes Pages: 1 -->
<!--zoomable 104 -->
<svg id="main" version="1.1" xmlns="http://www.w3.org/2000/svg" xmlns:xlink="http://www.w3.org/1999/xlink" xml:space="preserve" onload="init(evt)">
<style type="text/css"><![CDATA[
.edge:hover path { stroke: red; }
.edge:hover polygon { stroke: red; fill: red; }
]]></style>
<script type="text/javascript"><![CDATA[
var edges = document.getElementsByTagName('g');
if (edges && edges.length) {
  for (var i=0;i<edges.length;i++) {
    if (edges[i].id.substr(0,4)=='edge') {
      edges[i].setAttribute('class','edge');
    }
  }
}
]]></script>
        <defs>
                <circle id="rim" cx="0" cy="0" r="7"/>
                <circle id="rim2" cx="0" cy="0" r="3.5"/>
                <g id="zoomPlus">
                        <use xlink:href="#rim" fill="#404040">
                                <set attributeName="fill" to="#808080" begin="zoomplus.mouseover" end="zoomplus.mouseout"/>
                        </use>
                        <path d="M-4,0h8M0,-4v8" fill="none" stroke="white" stroke-width="1.5" pointer-events="none"/>
                </g>
                <g id="zoomMin">
                        <use xlink:href="#rim" fill="#404040">
                                <set attributeName="fill" to="#808080" begin="zoomminus.mouseover" end="zoomminus.mouseout"/>
                        </use>
                        <path d="M-4,0h8" fill="none" stroke="white" stroke-width="1.5" pointer-events="none"/>
                </g>
                <g id="dirArrow">
                        <path fill="none" stroke="white" stroke-width="1.5" d="M0,-3.0v7 M-2.5,-0.5L0,-3.0L2.5,-0.5"/>
                </g>
               <g id="resetDef">
                       <use xlink:href="#rim2" fill="#404040">
                               <set attributeName="fill" to="#808080" begin="reset.mouseover" end="reset.mouseout"/>
                       </use>
               </g>
        </defs>

<script type="text/javascript">
var viewWidth = 1138;
var viewHeight = 104;
var sectionId = 'dynsection-1';
</script>
<script xlink:href="svgpan.js"/>
<svg id="graph" class="graph">
<g id="viewport">
<title>tcs_turb_fluxes::calc_turb_fluxes</title>
<polygon fill="#ffffff" stroke="transparent" points="-4,4 -4,-100 1134,-100 1134,4 -4,4"/>
<!-- Node2 -->
<g id="node1" class="node">
<title>Node2</title>
<polygon fill="#bfbfbf" stroke="#000000" points="0,-33 0,-63 116,-63 116,-33 0,-33"/>
<text text-anchor="start" x="8" y="-51" font-family="Helvetica,sans-Serif" font-size="10.00" fill="#000000">tcs_turb_fluxes::calc</text>
<text text-anchor="middle" x="58" y="-40" font-family="Helvetica,sans-Serif" font-size="10.00" fill="#000000">_turb_fluxes</text>
</g>
<!-- Node3 -->
<g id="node2" class="node">
<title>Node3</title>
<g id="a_node2"><a xlink:href="namespacetcs__warm__mod.xhtml#aced91fe089a4982ec97b3cef531e1a21" target="_top" xlink:title="tcs_warm_mod::tcs_warm">
<polygon fill="#ffffff" stroke="#000000" points="152,-38.5 152,-57.5 296,-57.5 296,-38.5 152,-38.5"/>
<text text-anchor="middle" x="224" y="-45.5" font-family="Helvetica,sans-Serif" font-size="10.00" fill="#000000">tcs_warm_mod::tcs_warm</text>
</a>
</g>
</g>
<!-- Node2&#45;&gt;Node3 -->
<g id="edge1" class="edge">
<title>Node2&#45;&gt;Node3</title>
<path fill="none" stroke="#191970" d="M126.267,-48C134.7424,-48 143.4295,-48 151.9594,-48"/>
<polygon fill="#191970" stroke="#191970" points="126.0588,-44.5001 116.0587,-48 126.0587,-51.5001 126.0588,-44.5001"/>
</g>
<!-- Node4 -->
<g id="node3" class="node">
<title>Node4</title>
<g id="a_node3"><a xlink:href="namespaceglue__conv__6a__mod.xhtml#a6d5d1edc7767ff4cca5aa84b5368b646" target="_top" xlink:title="glue_conv_6a_mod::glue\l_conv_6a">
<polygon fill="#ffffff" stroke="#000000" points="332,-33 332,-63 469,-63 469,-33 332,-33"/>
<text text-anchor="start" x="340" y="-51" font-family="Helvetica,sans-Serif" font-size="10.00" fill="#000000">glue_conv_6a_mod::glue</text>
<text text-anchor="middle" x="400.5" y="-40" font-family="Helvetica,sans-Serif" font-size="10.00" fill="#000000">_conv_6a</text>
</a>
</g>
</g>
<!-- Node3&#45;&gt;Node4 -->
<g id="edge2" class="edge">
<title>Node3&#45;&gt;Node4</title>
<path fill="none" stroke="#191970" d="M306.0924,-48C314.6997,-48 323.3856,-48 331.8203,-48"/>
<polygon fill="#191970" stroke="#191970" points="306.0439,-44.5001 296.0439,-48 306.0438,-51.5001 306.0439,-44.5001"/>
</g>
<!-- Node5 -->
<g id="node4" class="node">
<title>Node5</title>
<g id="a_node4"><a xlink:href="ni__conv__ctl_8f90.xhtml#a9923a06c286e88170babe094e612732d" target="_top" xlink:title="Subroutine NI_conv_ctl. ">
<polygon fill="#ffffff" stroke="#000000" points="505,-38.5 505,-57.5 576,-57.5 576,-38.5 505,-38.5"/>
<text text-anchor="middle" x="540.5" y="-45.5" font-family="Helvetica,sans-Serif" font-size="10.00" fill="#000000">ni_conv_ctl</text>
</a>
</g>
</g>
<!-- Node4&#45;&gt;Node5 -->
<g id="edge3" class="edge">
<title>Node4&#45;&gt;Node5</title>
<path fill="none" stroke="#191970" d="M479.347,-48C488.2275,-48 496.9151,-48 504.8254,-48"/>
<polygon fill="#191970" stroke="#191970" points="479.2696,-44.5001 469.2696,-48 479.2696,-51.5001 479.2696,-44.5001"/>
</g>
<!-- Node6 -->
<g id="node5" class="node">
<title>Node6</title>
<g id="a_node5"><a xlink:href="atmos__physics2_8f90.xhtml#a0f74e8c75312201121b305cd566b175a" target="_top" xlink:title="Interface to Atmos Physics parametrizations after S&#45;L advection. ">
<polygon fill="#ffffff" stroke="#000000" points="612,-38.5 612,-57.5 707,-57.5 707,-38.5 612,-38.5"/>
<text text-anchor="middle" x="659.5" y="-45.5" font-family="Helvetica,sans-Serif" font-size="10.00" fill="#000000">atmos_physics2</text>
</a>
</g>
</g>
<!-- Node5&#45;&gt;Node6 -->
<g id="edge4" class="edge">
<title>Node5&#45;&gt;Node6</title>
<path fill="none" stroke="#191970" d="M586.2309,-48C594.6494,-48 603.457,-48 611.9283,-48"/>
<polygon fill="#191970" stroke="#191970" points="586.204,-44.5001 576.2039,-48 586.2039,-51.5001 586.204,-44.5001"/>
</g>
<!-- Node7 -->
<g id="node6" class="node">
<title>Node7</title>
<g id="a_node6"><a xlink:href="atm__step_8f90.xhtml#ac0ee2467a1a9959b7065fdb8fd27bce4" target="_top" xlink:title="Perform a 1&#45;timestep integration of the Atmosphere Model. ">
<polygon fill="#ffffff" stroke="#000000" points="752,-76.5 752,-95.5 814,-95.5 814,-76.5 752,-76.5"/>
<text text-anchor="middle" x="783" y="-83.5" font-family="Helvetica,sans-Serif" font-size="10.00" fill="#000000">atm_step</text>
</a>
</g>
</g>
<!-- Node6&#45;&gt;Node7 -->
<g id="edge5" class="edge">
<title>Node6&#45;&gt;Node7</title>
<path fill="none" stroke="#191970" d="M700.2397,-60.5353C717.0405,-65.7048 736.197,-71.5991 751.8457,-76.4141"/>
<polygon fill="#191970" stroke="#191970" points="701.2514,-57.1847 690.6643,-57.589 699.1927,-63.8752 701.2514,-57.1847"/>
</g>
<!-- Node11 -->
<g id="node10" class="node">
<title>Node11</title>
<g id="a_node10"><a xlink:href="atm__step__4_a_8f90.xhtml#a2319aa4963e90c64cd78bdcd5f481095" target="_top" xlink:title="Perform a 1&#45;timestep integration of the Atmosphere Model. ">
<polygon fill="#ffffff" stroke="#000000" points="743,-38.5 743,-57.5 823,-57.5 823,-38.5 743,-38.5"/>
<text text-anchor="middle" x="783" y="-45.5" font-family="Helvetica,sans-Serif" font-size="10.00" fill="#000000">atm_step_4a</text>
</a>
</g>
</g>
<!-- Node6&#45;&gt;Node11 -->
<g id="edge9" class="edge">
<title>Node6&#45;&gt;Node11</title>
<path fill="none" stroke="#191970" d="M717.3434,-48C726.0185,-48 734.7967,-48 742.9897,-48"/>
<polygon fill="#191970" stroke="#191970" points="717.2484,-44.5001 707.2483,-48 717.2483,-51.5001 717.2484,-44.5001"/>
</g>
<!-- Node13 -->
<g id="node12" class="node">
<title>Node13</title>
<g id="a_node12"><a xlink:href="scm__main_8f90.xhtml#a2c730136605550612e094ce51d33a2a5" target="_top" xlink:title="*********************************COPYRIGHT********************************* ">
<polygon fill="#ffffff" stroke="#000000" points="749.5,-.5 749.5,-19.5 816.5,-19.5 816.5,-.5 749.5,-.5"/>
<text text-anchor="middle" x="783" y="-7.5" font-family="Helvetica,sans-Serif" font-size="10.00" fill="#000000">scm_main</text>
</a>
</g>
</g>
<!-- Node6&#45;&gt;Node13 -->
<g id="edge12" class="edge">
<title>Node6&#45;&gt;Node13</title>
<path fill="none" stroke="#191970" d="M700.2397,-35.4647C717.0405,-30.2952 736.197,-24.4009 751.8457,-19.5859"/>
<polygon fill="#191970" stroke="#191970" points="699.1927,-32.1248 690.6643,-38.411 701.2514,-38.8153 699.1927,-32.1248"/>
</g>
<!-- Node8 -->
<g id="node7" class="node">
<title>Node8</title>
<g id="a_node7"><a xlink:href="u__model_8f90.xhtml#ada0cd2ce4699433bf0f9adbd882c8eec" target="_top" xlink:title="Subroutine: U_MODEL &#45;!&gt; ">
<polygon fill="#ffffff" stroke="#000000" points="867.5,-76.5 867.5,-95.5 926.5,-95.5 926.5,-76.5 867.5,-76.5"/>
<text text-anchor="middle" x="897" y="-83.5" font-family="Helvetica,sans-Serif" font-size="10.00" fill="#000000">u_model</text>
</a>
</g>
</g>
<!-- Node7&#45;&gt;Node8 -->
<g id="edge6" class="edge">
<title>Node7&#45;&gt;Node8</title>
<path fill="none" stroke="#191970" d="M824.2532,-86C838.5539,-86 854.2895,-86 867.4568,-86"/>
<polygon fill="#191970" stroke="#191970" points="824.151,-82.5001 814.151,-86 824.151,-89.5001 824.151,-82.5001"/>
</g>
<!-- Node9 -->
<g id="node8" class="node">
<title>Node9</title>
<g id="a_node8"><a xlink:href="um__shell_8f90.xhtml#a8c9bd25362824a5c301376ecb5ed5c27" target="_top" xlink:title="Subroutine: UM_SHELL !&gt; ">
<polygon fill="#ffffff" stroke="#000000" points="971,-57.5 971,-76.5 1032,-76.5 1032,-57.5 971,-57.5"/>
<text text-anchor="middle" x="1001.5" y="-64.5" font-family="Helvetica,sans-Serif" font-size="10.00" fill="#000000">um_shell</text>
</a>
</g>
</g>
<!-- Node8&#45;&gt;Node9 -->
<g id="edge7" class="edge">
<title>Node8&#45;&gt;Node9</title>
<path fill="none" stroke="#191970" d="M936.701,-78.7816C947.951,-76.7362 960.0261,-74.5407 970.6677,-72.6059"/>
<polygon fill="#191970" stroke="#191970" points="935.8786,-75.3737 926.666,-80.6062 937.1308,-82.2608 935.8786,-75.3737"/>
</g>
<!-- Node10 -->
<g id="node9" class="node">
<title>Node10</title>
<g id="a_node9"><a xlink:href="um__main_8f90.xhtml#a8f2d13215621443a5313261c282f098b" target="_top" xlink:title="Code Owner: See Unified Model Code Owner&#39;s HTML page. ">
<polygon fill="#ffffff" stroke="#000000" points="1068,-57.5 1068,-76.5 1130,-76.5 1130,-57.5 1068,-57.5"/>
<text text-anchor="middle" x="1099" y="-64.5" font-family="Helvetica,sans-Serif" font-size="10.00" fill="#000000">um_main</text>
</a>
</g>
</g>
<!-- Node9&#45;&gt;Node10 -->
<g id="edge8" class="edge">
<title>Node9&#45;&gt;Node10</title>
<path fill="none" stroke="#191970" d="M1042.2756,-67C1050.8294,-67 1059.72,-67 1067.8551,-67"/>
<polygon fill="#191970" stroke="#191970" points="1042.0821,-63.5001 1032.0821,-67 1042.0821,-70.5001 1042.0821,-63.5001"/>
</g>
<!-- Node12 -->
<g id="node11" class="node">
<title>Node12</title>
<g id="a_node11"><a xlink:href="u__model__4_a_8f90.xhtml#afa05064dab5eba198b461d0928767c7e" target="_top" xlink:title="LL Subroutine: U_MODEL_4A (ENDGAME VERSION) !&gt;LL. ">
<polygon fill="#ffffff" stroke="#000000" points="859,-38.5 859,-57.5 935,-57.5 935,-38.5 859,-38.5"/>
<text text-anchor="middle" x="897" y="-45.5" font-family="Helvetica,sans-Serif" font-size="10.00" fill="#000000">u_model_4a</text>
</a>
</g>
</g>
<!-- Node11&#45;&gt;Node12 -->
<g id="edge10" class="edge">
<title>Node11&#45;&gt;Node12</title>
<path fill="none" stroke="#191970" d="M833.3998,-48C841.891,-48 850.5803,-48 858.7002,-48"/>
<polygon fill="#191970" stroke="#191970" points="833.1922,-44.5001 823.1921,-48 833.1921,-51.5001 833.1922,-44.5001"/>
</g>
<!-- Node12&#45;&gt;Node9 -->
<g id="edge11" class="edge">
<title>Node12&#45;&gt;Node9</title>
<path fill="none" stroke="#191970" d="M944.8728,-56.7041C953.7087,-58.3107 962.7128,-59.9478 970.8647,-61.43"/>
<polygon fill="#191970" stroke="#191970" points="945.4873,-53.2586 935.0225,-54.9132 944.2351,-60.1457 945.4873,-53.2586"/>
</g>
<!-- Node14 -->
<g id="node13" class="node">
<title>Node14</title>
<g id="a_node13"><a xlink:href="scm__shell_8f90.xhtml#ab15255829ee7b5be626b1c0861b40c8d" target="_top" xlink:title="scm_shell is the main calling program for the Single Column Model. ">
<polygon fill="#ffffff" stroke="#000000" points="864.5,-.5 864.5,-19.5 929.5,-19.5 929.5,-.5 864.5,-.5"/>
<text text-anchor="middle" x="897" y="-7.5" font-family="Helvetica,sans-Serif" font-size="10.00" fill="#000000">scm_shell</text>
</a>
</g>
</g>
<!-- Node13&#45;&gt;Node14 -->
<g id="edge13" class="edge">
<title>Node13&#45;&gt;Node14</title>
<path fill="none" stroke="#191970" d="M826.8248,-10C839.3307,-10 852.7319,-10 864.4371,-10"/>
<polygon fill="#191970" stroke="#191970" points="826.5872,-6.5001 816.5872,-10 826.5871,-13.5001 826.5872,-6.5001"/>
</g>
</g>
</svg>
        <g id="navigator" transform="translate(0 0)" fill="#404254">
                <rect fill="#f2f5e9" fill-opacity="0.5" stroke="#606060" stroke-width=".5" x="0" y="0" width="60" height="60"/>
                <use id="zoomplus" xlink:href="#zoomPlus" x="17" y="9" onmousedown="handleZoom(evt,'in')"/>
                <use id="zoomminus" xlink:href="#zoomMin" x="42" y="9" onmousedown="handleZoom(evt,'out')"/>
                <use id="reset" xlink:href="#resetDef" x="30" y="36" onmousedown="handleReset()"/>
                <g id="arrowUp" xlink:href="#dirArrow" transform="translate(30 24)" onmousedown="handlePan(0,-1)">
                  <use xlink:href="#rim" fill="#404040">
                        <set attributeName="fill" to="#808080" begin="arrowUp.mouseover" end="arrowUp.mouseout"/>
                  </use>
                  <path fill="none" stroke="white" stroke-width="1.5" d="M0,-3.0v7 M-2.5,-0.5L0,-3.0L2.5,-0.5"/>
                </g>
                <g id="arrowRight" xlink:href="#dirArrow" transform="rotate(90) translate(36 -43)" onmousedown="handlePan(1,0)">
                  <use xlink:href="#rim" fill="#404040">
                        <set attributeName="fill" to="#808080" begin="arrowRight.mouseover" end="arrowRight.mouseout"/>
                  </use>
                  <path fill="none" stroke="white" stroke-width="1.5" d="M0,-3.0v7 M-2.5,-0.5L0,-3.0L2.5,-0.5"/>
                </g>
                <g id="arrowDown" xlink:href="#dirArrow" transform="rotate(180) translate(-30 -48)" onmousedown="handlePan(0,1)">
                  <use xlink:href="#rim" fill="#404040">
                        <set attributeName="fill" to="#808080" begin="arrowDown.mouseover" end="arrowDown.mouseout"/>
                  </use>
                  <path fill="none" stroke="white" stroke-width="1.5" d="M0,-3.0v7 M-2.5,-0.5L0,-3.0L2.5,-0.5"/>
                </g>
                <g id="arrowLeft" xlink:href="#dirArrow" transform="rotate(270) translate(-36 17)" onmousedown="handlePan(-1,0)">
                  <use xlink:href="#rim" fill="#404040">
                        <set attributeName="fill" to="#808080" begin="arrowLeft.mouseover" end="arrowLeft.mouseout"/>
                  </use>
                  <path fill="none" stroke="white" stroke-width="1.5" d="M0,-3.0v7 M-2.5,-0.5L0,-3.0L2.5,-0.5"/>
                </g>
        </g>
        <svg viewBox="0 0 15 15" width="100%" height="30px" preserveAspectRatio="xMaxYMin meet">
         <g id="arrow_out" transform="scale(0.3 0.3)">
          <a xlink:href="namespacetcs__turb__fluxes_a593f922329d3f652dc696f18e0d7c77b_icgraph_org.svg" target="_base">
           <rect id="button" ry="5" rx="5" y="6" x="6" height="38" width="38"
                fill="#f2f5e9" fill-opacity="0.5" stroke="#606060" stroke-width="1.0"/>
           <path id="arrow"
             d="M 11.500037,31.436501 C 11.940474,20.09759 22.043105,11.32322 32.158766,21.979434 L 37.068811,17.246167 C 37.068811,17.246167 37.088388,32 37.088388,32 L 22.160133,31.978069 C 22.160133,31.978069 26.997745,27.140456 26.997745,27.140456 C 18.528582,18.264221 13.291696,25.230495 11.500037,31.436501 z"
             style="fill:#404040;"/>
          </a>
         </g>
        </svg>
</svg>
