<?xml version="1.0" encoding="UTF-8" standalone="no"?>
<!DOCTYPE svg PUBLIC "-//W3C//DTD SVG 1.1//EN"
 "http://www.w3.org/Graphics/SVG/1.1/DTD/svg11.dtd">
<!-- Generated by graphviz version 2.40.1 (20161225.0304)
 -->
<!-- Title: biharm_diss_mod::biharm_diss Pages: 1 -->
<svg width="761pt" height="66pt"
 viewBox="0.00 0.00 761.00 66.00" xmlns="http://www.w3.org/2000/svg" xmlns:xlink="http://www.w3.org/1999/xlink">
<g id="graph0" class="graph" transform="scale(1 1) rotate(0) translate(4 62)">
<title>biharm_diss_mod::biharm_diss</title>
<polygon fill="#ffffff" stroke="transparent" points="-4,4 -4,-62 757,-62 757,4 -4,4"/>
<!-- Node1 -->
<g id="node1" class="node">
<title>Node1</title>
<polygon fill="#bfbfbf" stroke="#000000" points="0,-19.5 0,-38.5 168,-38.5 168,-19.5 0,-19.5"/>
<text text-anchor="middle" x="84" y="-26.5" font-family="Helvetica,sans-Serif" font-size="10.00" fill="#000000">biharm_diss_mod::biharm_diss</text>
</g>
<!-- Node2 -->
<g id="node2" class="node">
<title>Node2</title>
<g id="a_node2"><a xlink:href="namespacestph__skeb2__mod.xhtml#a51dcab695adc5e23d75a09d6f08eade4" target="_top" xlink:title="stph_skeb2_mod::stph\l_skeb2">
<polygon fill="#ffffff" stroke="#000000" points="204,-14 204,-44 330,-44 330,-14 204,-14"/>
<text text-anchor="start" x="212" y="-32" font-family="Helvetica,sans-Serif" font-size="10.00" fill="#000000">stph_skeb2_mod::stph</text>
<text text-anchor="middle" x="267" y="-21" font-family="Helvetica,sans-Serif" font-size="10.00" fill="#000000">_skeb2</text>
</a>
</g>
</g>
<!-- Node1&#45;&gt;Node2 -->
<g id="edge1" class="edge">
<title>Node1&#45;&gt;Node2</title>
<path fill="none" stroke="#191970" d="M178.1719,-29C186.8389,-29 195.4739,-29 203.7655,-29"/>
<polygon fill="#191970" stroke="#191970" points="178.0017,-25.5001 168.0016,-29 178.0016,-32.5001 178.0017,-25.5001"/>
</g>
<!-- Node3 -->
<g id="node3" class="node">
<title>Node3</title>
<g id="a_node3"><a xlink:href="atm__step_8f90.xhtml#ac0ee2467a1a9959b7065fdb8fd27bce4" target="_top" xlink:title="Perform a 1&#45;timestep integration of the Atmosphere Model. ">
<polygon fill="#ffffff" stroke="#000000" points="375,-38.5 375,-57.5 437,-57.5 437,-38.5 375,-38.5"/>
<text text-anchor="middle" x="406" y="-45.5" font-family="Helvetica,sans-Serif" font-size="10.00" fill="#000000">atm_step</text>
</a>
</g>
</g>
<!-- Node2&#45;&gt;Node3 -->
<g id="edge2" class="edge">
<title>Node2&#45;&gt;Node3</title>
<path fill="none" stroke="#191970" d="M340.574,-39.0569C352.6798,-40.7116 364.6202,-42.3438 374.9193,-43.7516"/>
<polygon fill="#191970" stroke="#191970" points="340.7805,-35.5526 330.3986,-37.666 339.8324,-42.4881 340.7805,-35.5526"/>
</g>
<!-- Node7 -->
<g id="node7" class="node">
<title>Node7</title>
<g id="a_node7"><a xlink:href="atm__step__4_a_8f90.xhtml#a2319aa4963e90c64cd78bdcd5f481095" target="_top" xlink:title="Perform a 1&#45;timestep integration of the Atmosphere Model. ">
<polygon fill="#ffffff" stroke="#000000" points="366,-.5 366,-19.5 446,-19.5 446,-.5 366,-.5"/>
<text text-anchor="middle" x="406" y="-7.5" font-family="Helvetica,sans-Serif" font-size="10.00" fill="#000000">atm_step_4a</text>
</a>
</g>
</g>
<!-- Node2&#45;&gt;Node7 -->
<g id="edge6" class="edge">
<title>Node2&#45;&gt;Node7</title>
<path fill="none" stroke="#191970" d="M340.574,-18.9431C349.2363,-17.7591 357.814,-16.5866 365.7663,-15.4996"/>
<polygon fill="#191970" stroke="#191970" points="339.8324,-15.5119 330.3986,-20.334 340.7805,-22.4474 339.8324,-15.5119"/>
</g>
<!-- Node4 -->
<g id="node4" class="node">
<title>Node4</title>
<g id="a_node4"><a xlink:href="u__model_8f90.xhtml#ada0cd2ce4699433bf0f9adbd882c8eec" target="_top" xlink:title="Subroutine: U_MODEL &#45;!&gt; ">
<polygon fill="#ffffff" stroke="#000000" points="490.5,-38.5 490.5,-57.5 549.5,-57.5 549.5,-38.5 490.5,-38.5"/>
<text text-anchor="middle" x="520" y="-45.5" font-family="Helvetica,sans-Serif" font-size="10.00" fill="#000000">u_model</text>
</a>
</g>
</g>
<!-- Node3&#45;&gt;Node4 -->
<g id="edge3" class="edge">
<title>Node3&#45;&gt;Node4</title>
<path fill="none" stroke="#191970" d="M447.2532,-48C461.5539,-48 477.2895,-48 490.4568,-48"/>
<polygon fill="#191970" stroke="#191970" points="447.151,-44.5001 437.151,-48 447.151,-51.5001 447.151,-44.5001"/>
</g>
<!-- Node5 -->
<g id="node5" class="node">
<title>Node5</title>
<g id="a_node5"><a xlink:href="um__shell_8f90.xhtml#a8c9bd25362824a5c301376ecb5ed5c27" target="_top" xlink:title="Subroutine: UM_SHELL !&gt; ">
<polygon fill="#ffffff" stroke="#000000" points="594,-19.5 594,-38.5 655,-38.5 655,-19.5 594,-19.5"/>
<text text-anchor="middle" x="624.5" y="-26.5" font-family="Helvetica,sans-Serif" font-size="10.00" fill="#000000">um_shell</text>
</a>
</g>
</g>
<!-- Node4&#45;&gt;Node5 -->
<g id="edge4" class="edge">
<title>Node4&#45;&gt;Node5</title>
<path fill="none" stroke="#191970" d="M559.701,-40.7816C570.951,-38.7362 583.0261,-36.5407 593.6677,-34.6059"/>
<polygon fill="#191970" stroke="#191970" points="558.8786,-37.3737 549.666,-42.6062 560.1308,-44.2608 558.8786,-37.3737"/>
</g>
<!-- Node6 -->
<g id="node6" class="node">
<title>Node6</title>
<g id="a_node6"><a xlink:href="um__main_8f90.xhtml#a8f2d13215621443a5313261c282f098b" target="_top" xlink:title="Code Owner: See Unified Model Code Owner&#39;s HTML page. ">
<polygon fill="#ffffff" stroke="#000000" points="691,-19.5 691,-38.5 753,-38.5 753,-19.5 691,-19.5"/>
<text text-anchor="middle" x="722" y="-26.5" font-family="Helvetica,sans-Serif" font-size="10.00" fill="#000000">um_main</text>
</a>
</g>
</g>
<!-- Node5&#45;&gt;Node6 -->
<g id="edge5" class="edge">
<title>Node5&#45;&gt;Node6</title>
<path fill="none" stroke="#191970" d="M665.2756,-29C673.8294,-29 682.72,-29 690.8551,-29"/>
<polygon fill="#191970" stroke="#191970" points="665.0821,-25.5001 655.0821,-29 665.0821,-32.5001 665.0821,-25.5001"/>
</g>
<!-- Node8 -->
<g id="node8" class="node">
<title>Node8</title>
<g id="a_node8"><a xlink:href="u__model__4_a_8f90.xhtml#afa05064dab5eba198b461d0928767c7e" target="_top" xlink:title="LL Subroutine: U_MODEL_4A (ENDGAME VERSION) !&gt;LL. ">
<polygon fill="#ffffff" stroke="#000000" points="482,-.5 482,-19.5 558,-19.5 558,-.5 482,-.5"/>
<text text-anchor="middle" x="520" y="-7.5" font-family="Helvetica,sans-Serif" font-size="10.00" fill="#000000">u_model_4a</text>
</a>
</g>
</g>
<!-- Node7&#45;&gt;Node8 -->
<g id="edge7" class="edge">
<title>Node7&#45;&gt;Node8</title>
<path fill="none" stroke="#191970" d="M456.3998,-10C464.891,-10 473.5803,-10 481.7002,-10"/>
<polygon fill="#191970" stroke="#191970" points="456.1922,-6.5001 446.1921,-10 456.1921,-13.5001 456.1922,-6.5001"/>
</g>
<!-- Node8&#45;&gt;Node5 -->
<g id="edge8" class="edge">
<title>Node8&#45;&gt;Node5</title>
<path fill="none" stroke="#191970" d="M567.8728,-18.7041C576.7087,-20.3107 585.7128,-21.9478 593.8647,-23.43"/>
<polygon fill="#191970" stroke="#191970" points="568.4873,-15.2586 558.0225,-16.9132 567.2351,-22.1457 568.4873,-15.2586"/>
</g>
</g>
</svg>
