<?xml version="1.0" encoding="UTF-8" standalone="no"?>
<!DOCTYPE svg PUBLIC "-//W3C//DTD SVG 1.1//EN"
 "http://www.w3.org/Graphics/SVG/1.1/DTD/svg11.dtd">
<!-- Generated by graphviz version 2.40.1 (20161225.0304)
 -->
<!-- Title: ios::ios_mergelookup Pages: 1 -->
<svg width="339pt" height="28pt"
 viewBox="0.00 0.00 339.00 28.00" xmlns="http://www.w3.org/2000/svg" xmlns:xlink="http://www.w3.org/1999/xlink">
<g id="graph0" class="graph" transform="scale(1 1) rotate(0) translate(4 24)">
<title>ios::ios_mergelookup</title>
<polygon fill="#ffffff" stroke="transparent" points="-4,4 -4,-24 335,-24 335,4 -4,4"/>
<!-- Node705 -->
<g id="node1" class="node">
<title>Node705</title>
<polygon fill="#bfbfbf" stroke="#000000" points="0,-.5 0,-19.5 121,-19.5 121,-.5 0,-.5"/>
<text text-anchor="middle" x="60.5" y="-7.5" font-family="Helvetica,sans-Serif" font-size="10.00" fill="#000000">ios::ios_mergelookup</text>
</g>
<!-- Node706 -->
<g id="node2" class="node">
<title>Node706</title>
<g id="a_node2"><a xlink:href="init__pp__crun_8f90.xhtml#a75fc23811c7072515cc0dbe0bf88159e" target="_top" xlink:title="Initialises buffer space for lookups and headers for PP files. ">
<polygon fill="#ffffff" stroke="#000000" points="157,-.5 157,-19.5 233,-19.5 233,-.5 157,-.5"/>
<text text-anchor="middle" x="195" y="-7.5" font-family="Helvetica,sans-Serif" font-size="10.00" fill="#000000">init_pp_crun</text>
</a>
</g>
</g>
<!-- Node705&#45;&gt;Node706 -->
<g id="edge1" class="edge">
<title>Node705&#45;&gt;Node706</title>
<path fill="none" stroke="#191970" d="M131.3318,-10C140.0795,-10 148.7461,-10 156.7374,-10"/>
<polygon fill="#191970" stroke="#191970" points="131.0612,-6.5001 121.0611,-10 131.0611,-13.5001 131.0612,-6.5001"/>
</g>
<!-- Node707 -->
<g id="node3" class="node">
<title>Node707</title>
<g id="a_node3"><a xlink:href="ppctl__init_8f90.xhtml#acca79a126c751c10e82c63e13469d2e1" target="_top" xlink:title="This file belongs in section: Top Level. ">
<polygon fill="#ffffff" stroke="#000000" points="269,-.5 269,-19.5 331,-19.5 331,-.5 269,-.5"/>
<text text-anchor="middle" x="300" y="-7.5" font-family="Helvetica,sans-Serif" font-size="10.00" fill="#000000">ppctl_init</text>
</a>
</g>
</g>
<!-- Node706&#45;&gt;Node707 -->
<g id="edge2" class="edge">
<title>Node706&#45;&gt;Node707</title>
<path fill="none" stroke="#191970" d="M243.2862,-10C251.9842,-10 260.8375,-10 268.8828,-10"/>
<polygon fill="#191970" stroke="#191970" points="243.2045,-6.5001 233.2044,-10 243.2044,-13.5001 243.2045,-6.5001"/>
</g>
</g>
</svg>
