<?xml version="1.0" encoding="UTF-8" standalone="no"?>
<!DOCTYPE svg PUBLIC "-//W3C//DTD SVG 1.1//EN"
 "http://www.w3.org/Graphics/SVG/1.1/DTD/svg11.dtd">
<!-- Generated by graphviz version 2.40.1 (20161225.0304)
 -->
<!-- Title: nitrate_mod::nitrate Pages: 1 -->
<svg width="709pt" height="78pt"
 viewBox="0.00 0.00 709.00 77.50" xmlns="http://www.w3.org/2000/svg" xmlns:xlink="http://www.w3.org/1999/xlink">
<g id="graph0" class="graph" transform="scale(1 1) rotate(0) translate(4 73.5)">
<title>nitrate_mod::nitrate</title>
<polygon fill="#ffffff" stroke="transparent" points="-4,4 -4,-73.5 705,-73.5 705,4 -4,4"/>
<!-- Node2 -->
<g id="node1" class="node">
<title>Node2</title>
<polygon fill="#bfbfbf" stroke="#000000" points="0,-28 0,-47 114,-47 114,-28 0,-28"/>
<text text-anchor="middle" x="57" y="-35" font-family="Helvetica,sans-Serif" font-size="10.00" fill="#000000">nitrate_mod::nitrate</text>
</g>
<!-- Node3 -->
<g id="node2" class="node">
<title>Node3</title>
<g id="a_node2"><a xlink:href="namespaceaero__ctl__mod.xhtml#a0466f013f1adc0f4466c750092df7846" target="_top" xlink:title="aero_ctl_mod::aero_ctl">
<polygon fill="#ffffff" stroke="#000000" points="150,-50 150,-69 278,-69 278,-50 150,-50"/>
<text text-anchor="middle" x="214" y="-57" font-family="Helvetica,sans-Serif" font-size="10.00" fill="#000000">aero_ctl_mod::aero_ctl</text>
</a>
</g>
</g>
<!-- Node2&#45;&gt;Node3 -->
<g id="edge1" class="edge">
<title>Node2&#45;&gt;Node3</title>
<path fill="none" stroke="#191970" d="M124.3022,-46.9309C132.7396,-48.1132 141.3531,-49.3202 149.7422,-50.4957"/>
<polygon fill="#191970" stroke="#191970" points="124.5137,-43.4264 114.1247,-45.5047 123.5422,-50.3587 124.5137,-43.4264"/>
</g>
<!-- Node4 -->
<g id="node3" class="node">
<title>Node4</title>
<g id="a_node3"><a xlink:href="namespaceaero__ctl__mod__4a.xhtml#a8be16d3b6d6949cfc2fd32c575e47e76" target="_top" xlink:title="aero_ctl_mod_4a::aero\l_ctl_4a">
<polygon fill="#ffffff" stroke="#000000" points="150,-.5 150,-30.5 278,-30.5 278,-.5 150,-.5"/>
<text text-anchor="start" x="158" y="-18.5" font-family="Helvetica,sans-Serif" font-size="10.00" fill="#000000">aero_ctl_mod_4a::aero</text>
<text text-anchor="middle" x="214" y="-7.5" font-family="Helvetica,sans-Serif" font-size="10.00" fill="#000000">_ctl_4a</text>
</a>
</g>
</g>
<!-- Node2&#45;&gt;Node4 -->
<g id="edge2" class="edge">
<title>Node2&#45;&gt;Node4</title>
<path fill="none" stroke="#191970" d="M124.3022,-28.0691C132.7396,-26.8868 141.3531,-25.6798 149.7422,-24.5043"/>
<polygon fill="#191970" stroke="#191970" points="123.5422,-24.6413 114.1247,-29.4953 124.5137,-31.5736 123.5422,-24.6413"/>
</g>
<!-- Node5 -->
<g id="node4" class="node">
<title>Node5</title>
<g id="a_node4"><a xlink:href="atm__step__4_a_8f90.xhtml#a2319aa4963e90c64cd78bdcd5f481095" target="_top" xlink:title="Perform a 1&#45;timestep integration of the Atmosphere Model. ">
<polygon fill="#ffffff" stroke="#000000" points="314,-6 314,-25 394,-25 394,-6 314,-6"/>
<text text-anchor="middle" x="354" y="-13" font-family="Helvetica,sans-Serif" font-size="10.00" fill="#000000">atm_step_4a</text>
</a>
</g>
</g>
<!-- Node4&#45;&gt;Node5 -->
<g id="edge3" class="edge">
<title>Node4&#45;&gt;Node5</title>
<path fill="none" stroke="#191970" d="M288.475,-15.5C297.1649,-15.5 305.7626,-15.5 313.7292,-15.5"/>
<polygon fill="#191970" stroke="#191970" points="288.2636,-12.0001 278.2635,-15.5 288.2635,-19.0001 288.2636,-12.0001"/>
</g>
<!-- Node6 -->
<g id="node5" class="node">
<title>Node6</title>
<g id="a_node5"><a xlink:href="u__model__4_a_8f90.xhtml#afa05064dab5eba198b461d0928767c7e" target="_top" xlink:title="LL Subroutine: U_MODEL_4A (ENDGAME VERSION) !&gt;LL. ">
<polygon fill="#ffffff" stroke="#000000" points="430,-6 430,-25 506,-25 506,-6 430,-6"/>
<text text-anchor="middle" x="468" y="-13" font-family="Helvetica,sans-Serif" font-size="10.00" fill="#000000">u_model_4a</text>
</a>
</g>
</g>
<!-- Node5&#45;&gt;Node6 -->
<g id="edge4" class="edge">
<title>Node5&#45;&gt;Node6</title>
<path fill="none" stroke="#191970" d="M404.3998,-15.5C412.891,-15.5 421.5803,-15.5 429.7002,-15.5"/>
<polygon fill="#191970" stroke="#191970" points="404.1922,-12.0001 394.1921,-15.5 404.1921,-19.0001 404.1922,-12.0001"/>
</g>
<!-- Node7 -->
<g id="node6" class="node">
<title>Node7</title>
<g id="a_node6"><a xlink:href="um__shell_8f90.xhtml#a8c9bd25362824a5c301376ecb5ed5c27" target="_top" xlink:title="Subroutine: UM_SHELL !&gt; ">
<polygon fill="#ffffff" stroke="#000000" points="542,-6 542,-25 603,-25 603,-6 542,-6"/>
<text text-anchor="middle" x="572.5" y="-13" font-family="Helvetica,sans-Serif" font-size="10.00" fill="#000000">um_shell</text>
</a>
</g>
</g>
<!-- Node6&#45;&gt;Node7 -->
<g id="edge5" class="edge">
<title>Node6&#45;&gt;Node7</title>
<path fill="none" stroke="#191970" d="M516.1579,-15.5C524.9023,-15.5 533.8005,-15.5 541.8647,-15.5"/>
<polygon fill="#191970" stroke="#191970" points="516.0225,-12.0001 506.0225,-15.5 516.0225,-19.0001 516.0225,-12.0001"/>
</g>
<!-- Node8 -->
<g id="node7" class="node">
<title>Node8</title>
<g id="a_node7"><a xlink:href="um__main_8f90.xhtml#a8f2d13215621443a5313261c282f098b" target="_top" xlink:title="Code Owner: See Unified Model Code Owner&#39;s HTML page. ">
<polygon fill="#ffffff" stroke="#000000" points="639,-6 639,-25 701,-25 701,-6 639,-6"/>
<text text-anchor="middle" x="670" y="-13" font-family="Helvetica,sans-Serif" font-size="10.00" fill="#000000">um_main</text>
</a>
</g>
</g>
<!-- Node7&#45;&gt;Node8 -->
<g id="edge6" class="edge">
<title>Node7&#45;&gt;Node8</title>
<path fill="none" stroke="#191970" d="M613.2756,-15.5C621.8294,-15.5 630.72,-15.5 638.8551,-15.5"/>
<polygon fill="#191970" stroke="#191970" points="613.0821,-12.0001 603.0821,-15.5 613.0821,-19.0001 613.0821,-12.0001"/>
</g>
</g>
</svg>
