<?xml version="1.0" encoding="UTF-8" standalone="no"?>
<!DOCTYPE svg PUBLIC "-//W3C//DTD SVG 1.1//EN"
 "http://www.w3.org/Graphics/SVG/1.1/DTD/svg11.dtd">
<!-- Generated by graphviz version 2.40.1 (20161225.0304)
 -->
<!-- Title: rcf_calc_gamtot_mod::rcf_calc_gamtot Pages: 1 -->
<svg width="697pt" height="39pt"
 viewBox="0.00 0.00 697.00 39.00" xmlns="http://www.w3.org/2000/svg" xmlns:xlink="http://www.w3.org/1999/xlink">
<g id="graph0" class="graph" transform="scale(1 1) rotate(0) translate(4 35)">
<title>rcf_calc_gamtot_mod::rcf_calc_gamtot</title>
<polygon fill="#ffffff" stroke="transparent" points="-4,4 -4,-35 693,-35 693,4 -4,4"/>
<!-- Node191 -->
<g id="node1" class="node">
<title>Node191</title>
<polygon fill="#bfbfbf" stroke="#000000" points="0,-.5 0,-30.5 122,-30.5 122,-.5 0,-.5"/>
<text text-anchor="start" x="8" y="-18.5" font-family="Helvetica,sans-Serif" font-size="10.00" fill="#000000">rcf_calc_gamtot_mod</text>
<text text-anchor="middle" x="61" y="-7.5" font-family="Helvetica,sans-Serif" font-size="10.00" fill="#000000">::rcf_calc_gamtot</text>
</g>
<!-- Node192 -->
<g id="node2" class="node">
<title>Node192</title>
<g id="a_node2"><a xlink:href="namespacercf__field__calcs__mod.xhtml#aaf83a6a3cfce239d92cf41c835842415" target="_top" xlink:title="Subroutine Rcf_Field_Calcs &#45; field initialisation calculations. ">
<polygon fill="#ffffff" stroke="#000000" points="158,-.5 158,-30.5 271,-30.5 271,-.5 158,-.5"/>
<text text-anchor="start" x="166" y="-18.5" font-family="Helvetica,sans-Serif" font-size="10.00" fill="#000000">rcf_field_calcs_mod</text>
<text text-anchor="middle" x="214.5" y="-7.5" font-family="Helvetica,sans-Serif" font-size="10.00" fill="#000000">::rcf_field_calcs</text>
</a>
</g>
</g>
<!-- Node191&#45;&gt;Node192 -->
<g id="edge1" class="edge">
<title>Node191&#45;&gt;Node192</title>
<path fill="none" stroke="#191970" d="M132.3578,-15.5C140.8191,-15.5 149.3682,-15.5 157.5911,-15.5"/>
<polygon fill="#191970" stroke="#191970" points="132.1084,-12.0001 122.1083,-15.5 132.1083,-19.0001 132.1084,-12.0001"/>
</g>
<!-- Node193 -->
<g id="node3" class="node">
<title>Node193</title>
<g id="a_node3"><a xlink:href="namespacercf__create__dump__mod.xhtml#a2f1f869ea648718c07cc083ce73c40c9" target="_top" xlink:title="Subroutine Rcf_Create_Dump &#45; main dump creation loop. ">
<polygon fill="#ffffff" stroke="#000000" points="307,-.5 307,-30.5 432,-30.5 432,-.5 307,-.5"/>
<text text-anchor="start" x="315" y="-18.5" font-family="Helvetica,sans-Serif" font-size="10.00" fill="#000000">rcf_create_dump_mod</text>
<text text-anchor="middle" x="369.5" y="-7.5" font-family="Helvetica,sans-Serif" font-size="10.00" fill="#000000">::rcf_create_dump</text>
</a>
</g>
</g>
<!-- Node192&#45;&gt;Node193 -->
<g id="edge2" class="edge">
<title>Node192&#45;&gt;Node193</title>
<path fill="none" stroke="#191970" d="M281.515,-15.5C289.951,-15.5 298.5559,-15.5 306.9198,-15.5"/>
<polygon fill="#191970" stroke="#191970" points="281.3362,-12.0001 271.3361,-15.5 281.3361,-19.0001 281.3362,-12.0001"/>
</g>
<!-- Node194 -->
<g id="node4" class="node">
<title>Node194</title>
<g id="a_node4"><a xlink:href="namespacercf__control__mod.xhtml#a3ac6d1c6311ded848ddd750726da301a" target="_top" xlink:title="Subroutine Rcf_Control &#45; main control routine. ">
<polygon fill="#ffffff" stroke="#000000" points="468,-.5 468,-30.5 582,-30.5 582,-.5 468,-.5"/>
<text text-anchor="start" x="476" y="-18.5" font-family="Helvetica,sans-Serif" font-size="10.00" fill="#000000">rcf_control_mod::rcf</text>
<text text-anchor="middle" x="525" y="-7.5" font-family="Helvetica,sans-Serif" font-size="10.00" fill="#000000">_control</text>
</a>
</g>
</g>
<!-- Node193&#45;&gt;Node194 -->
<g id="edge3" class="edge">
<title>Node193&#45;&gt;Node194</title>
<path fill="none" stroke="#191970" d="M442.3443,-15.5C450.9541,-15.5 459.6445,-15.5 467.9908,-15.5"/>
<polygon fill="#191970" stroke="#191970" points="442.2996,-12.0001 432.2996,-15.5 442.2995,-19.0001 442.2996,-12.0001"/>
</g>
<!-- Node195 -->
<g id="node5" class="node">
<title>Node195</title>
<g id="a_node5"><a xlink:href="reconfigure_8f90.xhtml#a55389899cfceedbb4b0f908c73988c0c" target="_top" xlink:title="Top level program for reconfiguration. ">
<polygon fill="#ffffff" stroke="#000000" points="618,-6 618,-25 689,-25 689,-6 618,-6"/>
<text text-anchor="middle" x="653.5" y="-13" font-family="Helvetica,sans-Serif" font-size="10.00" fill="#000000">reconfigure</text>
</a>
</g>
</g>
<!-- Node194&#45;&gt;Node195 -->
<g id="edge4" class="edge">
<title>Node194&#45;&gt;Node195</title>
<path fill="none" stroke="#191970" d="M592.159,-15.5C601.0636,-15.5 609.8936,-15.5 617.9628,-15.5"/>
<polygon fill="#191970" stroke="#191970" points="592.1103,-12.0001 582.1103,-15.5 592.1103,-19.0001 592.1103,-12.0001"/>
</g>
</g>
</svg>
