<?xml version="1.0" encoding="UTF-8" standalone="no"?>
<!DOCTYPE svg PUBLIC "-//W3C//DTD SVG 1.1//EN"
 "http://www.w3.org/Graphics/SVG/1.1/DTD/svg11.dtd">
<!-- Generated by graphviz version 2.40.1 (20161225.0304)
 -->
<!-- Title: boundary_layer_mod::find_new_field Pages: 1 -->
<svg width="1086pt" height="209pt"
 viewBox="0.00 0.00 1086.00 209.00" xmlns="http://www.w3.org/2000/svg" xmlns:xlink="http://www.w3.org/1999/xlink">
<g id="graph0" class="graph" transform="scale(1 1) rotate(0) translate(4 205)">
<title>boundary_layer_mod::find_new_field</title>
<polygon fill="#ffffff" stroke="transparent" points="-4,4 -4,-205 1082,-205 1082,4 -4,4"/>
<!-- Node87 -->
<g id="node1" class="node">
<title>Node87</title>
<polygon fill="#bfbfbf" stroke="#000000" points="0,-44.5 0,-74.5 119,-74.5 119,-44.5 0,-44.5"/>
<text text-anchor="start" x="8" y="-62.5" font-family="Helvetica,sans-Serif" font-size="10.00" fill="#000000">boundary_layer_mod</text>
<text text-anchor="middle" x="59.5" y="-51.5" font-family="Helvetica,sans-Serif" font-size="10.00" fill="#000000">::find_new_field</text>
</g>
<!-- Node88 -->
<g id="node2" class="node">
<title>Node88</title>
<g id="a_node2"><a xlink:href="namespaceboundary__layer__mod.xhtml#a9ea67a95dd610708b7dc84112216d471" target="_top" xlink:title="boundary_layer_mod\l::boundary_layer_height">
<polygon fill="#ffffff" stroke="#000000" points="316,-44.5 316,-74.5 450,-74.5 450,-44.5 316,-44.5"/>
<text text-anchor="start" x="324" y="-62.5" font-family="Helvetica,sans-Serif" font-size="10.00" fill="#000000">boundary_layer_mod</text>
<text text-anchor="middle" x="383" y="-51.5" font-family="Helvetica,sans-Serif" font-size="10.00" fill="#000000">::boundary_layer_height</text>
</a>
</g>
</g>
<!-- Node87&#45;&gt;Node88 -->
<g id="edge1" class="edge">
<title>Node87&#45;&gt;Node88</title>
<path fill="none" stroke="#191970" d="M119.2119,-59.5C171.7404,-59.5 248.5355,-59.5 305.7348,-59.5"/>
<polygon fill="#191970" stroke="#191970" points="305.8164,-63.0001 315.8164,-59.5 305.8164,-56.0001 305.8164,-63.0001"/>
</g>
<!-- Node97 -->
<g id="node11" class="node">
<title>Node97</title>
<g id="a_node11"><a xlink:href="namespaceboundary__layer__mod.xhtml#ab01ff586f0a2cc1a44ebcfcb526949af" target="_top" xlink:title="boundary_layer_mod\l::diffusion_coefficient">
<polygon fill="#ffffff" stroke="#000000" points="157,-88.5 157,-118.5 278,-118.5 278,-88.5 157,-88.5"/>
<text text-anchor="start" x="165" y="-106.5" font-family="Helvetica,sans-Serif" font-size="10.00" fill="#000000">boundary_layer_mod</text>
<text text-anchor="middle" x="217.5" y="-95.5" font-family="Helvetica,sans-Serif" font-size="10.00" fill="#000000">::diffusion_coefficient</text>
</a>
</g>
</g>
<!-- Node87&#45;&gt;Node97 -->
<g id="edge11" class="edge">
<title>Node87&#45;&gt;Node97</title>
<path fill="none" stroke="#191970" d="M113.4327,-74.5192C126.4533,-78.1452 140.4874,-82.0534 153.9047,-85.7899"/>
<polygon fill="#191970" stroke="#191970" points="152.9699,-89.1627 163.5423,-88.4738 154.8478,-82.4193 152.9699,-89.1627"/>
</g>
<!-- Node100 -->
<g id="node14" class="node">
<title>Node100</title>
<g id="a_node14"><a xlink:href="namespaceboundary__layer__mod.xhtml#afb3572442db06b6a5f6285fe8c799888" target="_top" xlink:title="boundary_layer_mod\l::find_new_field_diffco">
<polygon fill="#ffffff" stroke="#000000" points="155,-.5 155,-30.5 280,-30.5 280,-.5 155,-.5"/>
<text text-anchor="start" x="163" y="-18.5" font-family="Helvetica,sans-Serif" font-size="10.00" fill="#000000">boundary_layer_mod</text>
<text text-anchor="middle" x="217.5" y="-7.5" font-family="Helvetica,sans-Serif" font-size="10.00" fill="#000000">::find_new_field_diffco</text>
</a>
</g>
</g>
<!-- Node87&#45;&gt;Node100 -->
<g id="edge21" class="edge">
<title>Node87&#45;&gt;Node100</title>
<path fill="none" stroke="#191970" d="M113.4327,-44.4808C126.4533,-40.8548 140.4874,-36.9466 153.9047,-33.2101"/>
<polygon fill="#191970" stroke="#191970" points="154.8478,-36.5807 163.5423,-30.5262 152.9699,-29.8373 154.8478,-36.5807"/>
</g>
<!-- Node89 -->
<g id="node3" class="node">
<title>Node89</title>
<g id="a_node3"><a xlink:href="namespaceboundary__layer__mod.xhtml#afc88b09b6f9668258aac78a84fda5761" target="_top" xlink:title="boundary_layer_mod\l::richardson_number">
<polygon fill="#ffffff" stroke="#000000" points="486,-79.5 486,-109.5 605,-109.5 605,-79.5 486,-79.5"/>
<text text-anchor="start" x="494" y="-97.5" font-family="Helvetica,sans-Serif" font-size="10.00" fill="#000000">boundary_layer_mod</text>
<text text-anchor="middle" x="545.5" y="-86.5" font-family="Helvetica,sans-Serif" font-size="10.00" fill="#000000">::richardson_number</text>
</a>
</g>
</g>
<!-- Node88&#45;&gt;Node89 -->
<g id="edge2" class="edge">
<title>Node88&#45;&gt;Node89</title>
<path fill="none" stroke="#191970" d="M450.0332,-73.9379C458.5791,-75.7786 467.3417,-77.6659 475.9266,-79.515"/>
<polygon fill="#191970" stroke="#191970" points="475.3865,-82.9788 485.8993,-81.6629 476.8605,-76.1358 475.3865,-82.9788"/>
</g>
<!-- Node90 -->
<g id="node4" class="node">
<title>Node90</title>
<g id="a_node4"><a xlink:href="namespaceutils__mod.xhtml#a342a50c6f6fc85a69eaa3ec622a2ecba" target="_top" xlink:title="utils_mod::interp">
<polygon fill="#ffffff" stroke="#000000" points="651,-96 651,-115 750,-115 750,-96 651,-96"/>
<text text-anchor="middle" x="700.5" y="-103" font-family="Helvetica,sans-Serif" font-size="10.00" fill="#000000">utils_mod::interp</text>
</a>
</g>
</g>
<!-- Node89&#45;&gt;Node90 -->
<g id="edge3" class="edge">
<title>Node89&#45;&gt;Node90</title>
<path fill="none" stroke="#191970" d="M605.427,-98.7529C617.0235,-99.5759 629.174,-100.4382 640.7643,-101.2607"/>
<polygon fill="#191970" stroke="#191970" points="640.5547,-104.7545 650.7774,-101.9713 641.0503,-97.7721 640.5547,-104.7545"/>
</g>
<!-- Node95 -->
<g id="node9" class="node">
<title>Node95</title>
<g id="a_node9"><a xlink:href="namespaceboundary__layer__mod.xhtml#af72f82596edea620fa670c99d52727c8" target="_top" xlink:title="boundary_layer_mod\l::temphum2vtemp">
<polygon fill="#ffffff" stroke="#000000" points="641,-134.5 641,-164.5 760,-164.5 760,-134.5 641,-134.5"/>
<text text-anchor="start" x="649" y="-152.5" font-family="Helvetica,sans-Serif" font-size="10.00" fill="#000000">boundary_layer_mod</text>
<text text-anchor="middle" x="700.5" y="-141.5" font-family="Helvetica,sans-Serif" font-size="10.00" fill="#000000">::temphum2vtemp</text>
</a>
</g>
</g>
<!-- Node89&#45;&gt;Node95 -->
<g id="edge9" class="edge">
<title>Node89&#45;&gt;Node95</title>
<path fill="none" stroke="#191970" d="M587.8544,-109.529C606.6496,-116.1982 628.9436,-124.109 648.7181,-131.1258"/>
<polygon fill="#191970" stroke="#191970" points="647.602,-134.4435 658.1968,-134.4892 649.943,-127.8465 647.602,-134.4435"/>
</g>
<!-- Node96 -->
<g id="node10" class="node">
<title>Node96</title>
<g id="a_node10"><a xlink:href="namespaceboundary__layer__mod.xhtml#a3753f8d3e3c60854cfee0bb8f76919b8" target="_top" xlink:title="boundary_layer_mod\l::grav_pot">
<polygon fill="#ffffff" stroke="#000000" points="641,-46.5 641,-76.5 760,-76.5 760,-46.5 641,-46.5"/>
<text text-anchor="start" x="649" y="-64.5" font-family="Helvetica,sans-Serif" font-size="10.00" fill="#000000">boundary_layer_mod</text>
<text text-anchor="middle" x="700.5" y="-53.5" font-family="Helvetica,sans-Serif" font-size="10.00" fill="#000000">::grav_pot</text>
</a>
</g>
</g>
<!-- Node89&#45;&gt;Node96 -->
<g id="edge10" class="edge">
<title>Node89&#45;&gt;Node96</title>
<path fill="none" stroke="#191970" d="M605.427,-81.7413C613.8155,-79.9554 622.494,-78.1077 631.0406,-76.2881"/>
<polygon fill="#191970" stroke="#191970" points="631.9358,-79.6761 640.9877,-74.1704 630.478,-72.8295 631.9358,-79.6761"/>
</g>
<!-- Node91 -->
<g id="node5" class="node">
<title>Node91</title>
<g id="a_node5"><a xlink:href="namespaceutils__mod.xhtml#a27fd469d1bf78e37eae7902444010be4" target="_top" xlink:title="utils_mod::error">
<polygon fill="#ffffff" stroke="#000000" points="984,-146 984,-165 1078,-165 1078,-146 984,-146"/>
<text text-anchor="middle" x="1031" y="-153" font-family="Helvetica,sans-Serif" font-size="10.00" fill="#000000">utils_mod::error</text>
</a>
</g>
</g>
<!-- Node90&#45;&gt;Node91 -->
<g id="edge4" class="edge">
<title>Node90&#45;&gt;Node91</title>
<path fill="none" stroke="#191970" d="M740.2298,-95.886C747.1862,-93.1848 754.0821,-89.7767 760,-85.5 781.6135,-69.8805 772.1486,-49.4257 796,-37.5 856.4235,-7.2882 888.0443,-6.3702 948,-37.5 988.2097,-58.3774 1013.0357,-108.6668 1024.1421,-136.3791"/>
<polygon fill="#191970" stroke="#191970" points="1020.8963,-137.6904 1027.7305,-145.7863 1027.4366,-135.1955 1020.8963,-137.6904"/>
</g>
<!-- Node92 -->
<g id="node6" class="node">
<title>Node92</title>
<g id="a_node6"><a xlink:href="namespaceutils__mod.xhtml#af7241d3b5409e6269728c37c50812984" target="_top" xlink:title="utils_mod::search_gridpoint\l_by_height">
<polygon fill="#ffffff" stroke="#000000" points="796,-47.5 796,-77.5 948,-77.5 948,-47.5 796,-47.5"/>
<text text-anchor="start" x="804" y="-65.5" font-family="Helvetica,sans-Serif" font-size="10.00" fill="#000000">utils_mod::search_gridpoint</text>
<text text-anchor="middle" x="872" y="-54.5" font-family="Helvetica,sans-Serif" font-size="10.00" fill="#000000">_by_height</text>
</a>
</g>
</g>
<!-- Node90&#45;&gt;Node92 -->
<g id="edge5" class="edge">
<title>Node90&#45;&gt;Node92</title>
<path fill="none" stroke="#191970" d="M738.5614,-95.9569C757.3025,-91.258 780.4998,-85.4417 802.2689,-79.9836"/>
<polygon fill="#191970" stroke="#191970" points="803.3008,-83.3333 812.1493,-77.5063 801.5983,-76.5435 803.3008,-83.3333"/>
</g>
<!-- Node93 -->
<g id="node7" class="node">
<title>Node93</title>
<g id="a_node7"><a xlink:href="namespaceutils__mod.xhtml#a68ca86ec0d44e08f2c97becf3a900788" target="_top" xlink:title="utils_mod::find_cubic\l_coeffs">
<polygon fill="#ffffff" stroke="#000000" points="812.5,-96.5 812.5,-126.5 931.5,-126.5 931.5,-96.5 812.5,-96.5"/>
<text text-anchor="start" x="820.5" y="-114.5" font-family="Helvetica,sans-Serif" font-size="10.00" fill="#000000">utils_mod::find_cubic</text>
<text text-anchor="middle" x="872" y="-103.5" font-family="Helvetica,sans-Serif" font-size="10.00" fill="#000000">_coeffs</text>
</a>
</g>
</g>
<!-- Node90&#45;&gt;Node93 -->
<g id="edge6" class="edge">
<title>Node90&#45;&gt;Node93</title>
<path fill="none" stroke="#191970" d="M750.1049,-107.2354C766.3961,-107.8054 784.8179,-108.4499 802.3142,-109.062"/>
<polygon fill="#191970" stroke="#191970" points="802.3695,-112.566 812.4858,-109.4179 802.6143,-105.5703 802.3695,-112.566"/>
</g>
<!-- Node94 -->
<g id="node8" class="node">
<title>Node94</title>
<g id="a_node8"><a xlink:href="namespaceutils__mod.xhtml#adcb79f21826654c69427237b492c0d1e" target="_top" xlink:title="utils_mod::deriv_gridpoint">
<polygon fill="#ffffff" stroke="#000000" points="800,-146 800,-165 944,-165 944,-146 800,-146"/>
<text text-anchor="middle" x="872" y="-153" font-family="Helvetica,sans-Serif" font-size="10.00" fill="#000000">utils_mod::deriv_gridpoint</text>
</a>
</g>
</g>
<!-- Node90&#45;&gt;Node94 -->
<g id="edge7" class="edge">
<title>Node90&#45;&gt;Node94</title>
<path fill="none" stroke="#191970" d="M729.134,-115.0353C752.3968,-122.737 783.3497,-132.8702 796,-136.5 804.2687,-138.8726 813.0908,-141.2326 821.6881,-143.4414"/>
<polygon fill="#191970" stroke="#191970" points="821.0777,-146.8972 831.6307,-145.9567 822.7945,-140.111 821.0777,-146.8972"/>
</g>
<!-- Node94&#45;&gt;Node91 -->
<g id="edge8" class="edge">
<title>Node94&#45;&gt;Node91</title>
<path fill="none" stroke="#191970" d="M944.0566,-155.5C953.9525,-155.5 964.0037,-155.5 973.5895,-155.5"/>
<polygon fill="#191970" stroke="#191970" points="973.779,-159.0001 983.779,-155.5 973.779,-152.0001 973.779,-159.0001"/>
</g>
<!-- Node97&#45;&gt;Node88 -->
<g id="edge12" class="edge">
<title>Node97&#45;&gt;Node88</title>
<path fill="none" stroke="#191970" d="M273.9928,-88.4808C287.7639,-84.8196 302.6173,-80.8706 316.7951,-77.1013"/>
<polygon fill="#191970" stroke="#191970" points="317.716,-80.4781 326.481,-74.5262 315.9174,-73.7131 317.716,-80.4781"/>
</g>
<!-- Node97&#45;&gt;Node89 -->
<g id="edge20" class="edge">
<title>Node97&#45;&gt;Node89</title>
<path fill="none" stroke="#191970" d="M278.0425,-101.8388C333.921,-100.3055 416.8833,-98.0291 475.5672,-96.4189"/>
<polygon fill="#191970" stroke="#191970" points="475.9637,-99.9094 485.8639,-96.1364 475.7717,-92.9121 475.9637,-99.9094"/>
</g>
<!-- Node98 -->
<g id="node12" class="node">
<title>Node98</title>
<g id="a_node12"><a xlink:href="namespaceboundary__layer__mod.xhtml#affa05435eab4611b0ae3e1e262d7b556" target="_top" xlink:title="boundary_layer_mod\l::richardson_number\l_lowest">
<polygon fill="#ffffff" stroke="#000000" points="486,-129 486,-170 605,-170 605,-129 486,-129"/>
<text text-anchor="start" x="494" y="-158" font-family="Helvetica,sans-Serif" font-size="10.00" fill="#000000">boundary_layer_mod</text>
<text text-anchor="start" x="494" y="-147" font-family="Helvetica,sans-Serif" font-size="10.00" fill="#000000">::richardson_number</text>
<text text-anchor="middle" x="545.5" y="-136" font-family="Helvetica,sans-Serif" font-size="10.00" fill="#000000">_lowest</text>
</a>
</g>
</g>
<!-- Node97&#45;&gt;Node98 -->
<g id="edge13" class="edge">
<title>Node97&#45;&gt;Node98</title>
<path fill="none" stroke="#191970" d="M278.0425,-111.9907C334.0367,-119.8436 417.2269,-131.5105 475.9314,-139.7434"/>
<polygon fill="#191970" stroke="#191970" points="475.4747,-143.2136 485.8639,-141.1364 476.447,-136.2814 475.4747,-143.2136"/>
</g>
<!-- Node99 -->
<g id="node13" class="node">
<title>Node99</title>
<g id="a_node13"><a xlink:href="namespaceboundary__layer__mod.xhtml#ae89b3383e596e207f8be95c7af8e9802" target="_top" xlink:title="boundary_layer_mod\l::drag_coefficient">
<polygon fill="#ffffff" stroke="#000000" points="323.5,-170.5 323.5,-200.5 442.5,-200.5 442.5,-170.5 323.5,-170.5"/>
<text text-anchor="start" x="331.5" y="-188.5" font-family="Helvetica,sans-Serif" font-size="10.00" fill="#000000">boundary_layer_mod</text>
<text text-anchor="middle" x="383" y="-177.5" font-family="Helvetica,sans-Serif" font-size="10.00" fill="#000000">::drag_coefficient</text>
</a>
</g>
</g>
<!-- Node97&#45;&gt;Node99 -->
<g id="edge18" class="edge">
<title>Node97&#45;&gt;Node99</title>
<path fill="none" stroke="#191970" d="M244.8534,-118.5507C264.4855,-129.2025 291.6625,-143.6426 316,-155.5 323.3309,-159.0717 331.1827,-162.732 338.837,-166.2136"/>
<polygon fill="#191970" stroke="#191970" points="337.4723,-169.4375 348.0274,-170.3537 340.3474,-163.0552 337.4723,-169.4375"/>
</g>
<!-- Node98&#45;&gt;Node90 -->
<g id="edge14" class="edge">
<title>Node98&#45;&gt;Node90</title>
<path fill="none" stroke="#191970" d="M605.427,-132.4885C622.6406,-127.602 641.0752,-122.369 657.0859,-117.824"/>
<polygon fill="#191970" stroke="#191970" points="658.0449,-121.1901 666.709,-115.0923 656.1333,-114.4562 658.0449,-121.1901"/>
</g>
<!-- Node98&#45;&gt;Node91 -->
<g id="edge15" class="edge">
<title>Node98&#45;&gt;Node91</title>
<path fill="none" stroke="#191970" d="M605.1515,-167.6138C616.9271,-170.4782 629.2712,-172.9902 641,-174.5 776.3279,-191.9196 812.4184,-189.8202 948,-174.5 960.9814,-173.0332 974.8914,-170.3148 987.5419,-167.3838"/>
<polygon fill="#191970" stroke="#191970" points="988.4774,-170.7585 997.3755,-165.0074 986.8331,-163.9544 988.4774,-170.7585"/>
</g>
<!-- Node98&#45;&gt;Node95 -->
<g id="edge16" class="edge">
<title>Node98&#45;&gt;Node95</title>
<path fill="none" stroke="#191970" d="M605.427,-149.5C613.7244,-149.5 622.3054,-149.5 630.7618,-149.5"/>
<polygon fill="#191970" stroke="#191970" points="630.9877,-153.0001 640.9877,-149.5 630.9877,-146.0001 630.9877,-153.0001"/>
</g>
<!-- Node98&#45;&gt;Node96 -->
<g id="edge17" class="edge">
<title>Node98&#45;&gt;Node96</title>
<path fill="none" stroke="#191970" d="M588.1858,-128.9016C593.9706,-125.64 599.7253,-122.1356 605,-118.5 622.626,-106.3512 622.8877,-97.9112 641,-86.5 643.9818,-84.6214 647.129,-82.827 650.3561,-81.1246"/>
<polygon fill="#191970" stroke="#191970" points="652.1662,-84.1346 659.5907,-76.5763 649.0733,-77.8549 652.1662,-84.1346"/>
</g>
<!-- Node99&#45;&gt;Node98 -->
<g id="edge19" class="edge">
<title>Node99&#45;&gt;Node98</title>
<path fill="none" stroke="#191970" d="M442.5863,-172.2993C453.405,-169.9026 464.7766,-167.3833 475.8544,-164.9292"/>
<polygon fill="#191970" stroke="#191970" points="476.9147,-168.2792 485.9209,-162.6991 475.4006,-161.4449 476.9147,-168.2792"/>
</g>
<!-- Node101 -->
<g id="node15" class="node">
<title>Node101</title>
<g id="a_node15"><a xlink:href="namespacetrisolve__mod.xhtml#abf0036fd25821fc01e1fd89d0e5cf533" target="_top" xlink:title="trisolve_mod::trisolve">
<polygon fill="#ffffff" stroke="#000000" points="321.5,-6 321.5,-25 444.5,-25 444.5,-6 321.5,-6"/>
<text text-anchor="middle" x="383" y="-13" font-family="Helvetica,sans-Serif" font-size="10.00" fill="#000000">trisolve_mod::trisolve</text>
</a>
</g>
</g>
<!-- Node100&#45;&gt;Node101 -->
<g id="edge22" class="edge">
<title>Node100&#45;&gt;Node101</title>
<path fill="none" stroke="#191970" d="M280.0685,-15.5C290.229,-15.5 300.8219,-15.5 311.1821,-15.5"/>
<polygon fill="#191970" stroke="#191970" points="311.4401,-19.0001 321.4401,-15.5 311.44,-12.0001 311.4401,-19.0001"/>
</g>
</g>
</svg>
