<?xml version="1.0" encoding="UTF-8" standalone="no"?>
<!DOCTYPE svg PUBLIC "-//W3C//DTD SVG 1.1//EN"
 "http://www.w3.org/Graphics/SVG/1.1/DTD/svg11.dtd">
<!-- Generated by graphviz version 2.40.1 (20161225.0304)
 -->
<!-- Title: locate_anc_mod::locate_anc_file Pages: 1 -->
<svg width="854pt" height="66pt"
 viewBox="0.00 0.00 854.00 66.00" xmlns="http://www.w3.org/2000/svg" xmlns:xlink="http://www.w3.org/1999/xlink">
<g id="graph0" class="graph" transform="scale(1 1) rotate(0) translate(4 62)">
<title>locate_anc_mod::locate_anc_file</title>
<polygon fill="#ffffff" stroke="transparent" points="-4,4 -4,-62 850,-62 850,4 -4,4"/>
<!-- Node9 -->
<g id="node1" class="node">
<title>Node9</title>
<polygon fill="#bfbfbf" stroke="#000000" points="0,-14 0,-44 132,-44 132,-14 0,-14"/>
<text text-anchor="start" x="8" y="-32" font-family="Helvetica,sans-Serif" font-size="10.00" fill="#000000">locate_anc_mod::locate</text>
<text text-anchor="middle" x="66" y="-21" font-family="Helvetica,sans-Serif" font-size="10.00" fill="#000000">_anc_file</text>
</g>
<!-- Node10 -->
<g id="node2" class="node">
<title>Node10</title>
<g id="a_node2"><a xlink:href="inancila-rcf__inancila_8f90.xhtml#afe8717503a416403b565dd13b4a8e6e0" target="_top" xlink:title="Read in Headers from Ancillary Files Read in Headers from Ancillary Files. ">
<polygon fill="#ffffff" stroke="#000000" points="172,-38.5 172,-57.5 288,-57.5 288,-38.5 172,-38.5"/>
<text text-anchor="middle" x="230" y="-45.5" font-family="Helvetica,sans-Serif" font-size="10.00" fill="#000000">inancila_rcf_inancila</text>
</a>
</g>
</g>
<!-- Node9&#45;&gt;Node10 -->
<g id="edge1" class="edge">
<title>Node9&#45;&gt;Node10</title>
<path fill="none" stroke="#191970" d="M142.1834,-37.8261C152.1954,-38.986 162.3236,-40.1594 171.967,-41.2767"/>
<polygon fill="#191970" stroke="#191970" points="142.5687,-34.3474 132.2324,-36.6733 141.7631,-41.3009 142.5687,-34.3474"/>
</g>
<!-- Node15 -->
<g id="node7" class="node">
<title>Node15</title>
<g id="a_node7"><a xlink:href="replanca-rcf__replanca_8f90.xhtml#a451b68b6d4adaf430d09f65c299d8ec1" target="_top" xlink:title="Read in Ancillary Fields Read in Ancillary Fields. ">
<polygon fill="#ffffff" stroke="#000000" points="168,-.5 168,-19.5 292,-19.5 292,-.5 168,-.5"/>
<text text-anchor="middle" x="230" y="-7.5" font-family="Helvetica,sans-Serif" font-size="10.00" fill="#000000">replanca_rcf_replanca</text>
</a>
</g>
</g>
<!-- Node9&#45;&gt;Node15 -->
<g id="edge6" class="edge">
<title>Node9&#45;&gt;Node15</title>
<path fill="none" stroke="#191970" d="M142.2172,-20.17C150.775,-19.1785 159.4172,-18.1773 167.7684,-17.2098"/>
<polygon fill="#191970" stroke="#191970" points="141.7631,-16.6991 132.2324,-21.3267 142.5687,-23.6526 141.7631,-16.6991"/>
</g>
<!-- Node11 -->
<g id="node3" class="node">
<title>Node11</title>
<g id="a_node3"><a xlink:href="namespacercf__ancil__atmos__mod.xhtml#a4af82ab1081f4074c046dcc4cb69aa4c" target="_top" xlink:title="Subroutine Rcf_Ancil_Atmos &#45; Ancillary processing for Atmosphere. ">
<polygon fill="#ffffff" stroke="#000000" points="328,-14 328,-44 449,-44 449,-14 328,-14"/>
<text text-anchor="start" x="336" y="-32" font-family="Helvetica,sans-Serif" font-size="10.00" fill="#000000">rcf_ancil_atmos_mod</text>
<text text-anchor="middle" x="388.5" y="-21" font-family="Helvetica,sans-Serif" font-size="10.00" fill="#000000">::rcf_ancil_atmos</text>
</a>
</g>
</g>
<!-- Node10&#45;&gt;Node11 -->
<g id="edge2" class="edge">
<title>Node10&#45;&gt;Node11</title>
<path fill="none" stroke="#191970" d="M298.3011,-39.8125C308.177,-38.6286 318.2842,-37.417 327.9932,-36.2532"/>
<polygon fill="#191970" stroke="#191970" points="297.6319,-36.3676 288.1195,-41.033 298.4651,-43.3178 297.6319,-36.3676"/>
</g>
<!-- Node12 -->
<g id="node4" class="node">
<title>Node12</title>
<g id="a_node4"><a xlink:href="namespacercf__ancil__mod.xhtml#af0d79a90918b3178fb9102d0237d48b6" target="_top" xlink:title="Subroutine Rcf_Ancil &#45; Reconfiguration Ancillary Processing. ">
<polygon fill="#ffffff" stroke="#000000" points="485,-14 485,-44 589,-44 589,-14 485,-14"/>
<text text-anchor="start" x="493" y="-32" font-family="Helvetica,sans-Serif" font-size="10.00" fill="#000000">rcf_ancil_mod::rcf</text>
<text text-anchor="middle" x="537" y="-21" font-family="Helvetica,sans-Serif" font-size="10.00" fill="#000000">_ancil</text>
</a>
</g>
</g>
<!-- Node11&#45;&gt;Node12 -->
<g id="edge3" class="edge">
<title>Node11&#45;&gt;Node12</title>
<path fill="none" stroke="#191970" d="M459.5562,-29C467.9869,-29 476.4726,-29 484.5775,-29"/>
<polygon fill="#191970" stroke="#191970" points="459.3291,-25.5001 449.3291,-29 459.3291,-32.5001 459.3291,-25.5001"/>
</g>
<!-- Node13 -->
<g id="node5" class="node">
<title>Node13</title>
<g id="a_node5"><a xlink:href="namespacercf__control__mod.xhtml#a3ac6d1c6311ded848ddd750726da301a" target="_top" xlink:title="Subroutine Rcf_Control &#45; main control routine. ">
<polygon fill="#ffffff" stroke="#000000" points="625,-14 625,-44 739,-44 739,-14 625,-14"/>
<text text-anchor="start" x="633" y="-32" font-family="Helvetica,sans-Serif" font-size="10.00" fill="#000000">rcf_control_mod::rcf</text>
<text text-anchor="middle" x="682" y="-21" font-family="Helvetica,sans-Serif" font-size="10.00" fill="#000000">_control</text>
</a>
</g>
</g>
<!-- Node12&#45;&gt;Node13 -->
<g id="edge4" class="edge">
<title>Node12&#45;&gt;Node13</title>
<path fill="none" stroke="#191970" d="M599.491,-29C607.9065,-29 616.5053,-29 624.8223,-29"/>
<polygon fill="#191970" stroke="#191970" points="599.3484,-25.5001 589.3483,-29 599.3483,-32.5001 599.3484,-25.5001"/>
</g>
<!-- Node14 -->
<g id="node6" class="node">
<title>Node14</title>
<g id="a_node6"><a xlink:href="reconfigure_8f90.xhtml#a55389899cfceedbb4b0f908c73988c0c" target="_top" xlink:title="Top level program for reconfiguration. ">
<polygon fill="#ffffff" stroke="#000000" points="775,-19.5 775,-38.5 846,-38.5 846,-19.5 775,-19.5"/>
<text text-anchor="middle" x="810.5" y="-26.5" font-family="Helvetica,sans-Serif" font-size="10.00" fill="#000000">reconfigure</text>
</a>
</g>
</g>
<!-- Node13&#45;&gt;Node14 -->
<g id="edge5" class="edge">
<title>Node13&#45;&gt;Node14</title>
<path fill="none" stroke="#191970" d="M749.159,-29C758.0636,-29 766.8936,-29 774.9628,-29"/>
<polygon fill="#191970" stroke="#191970" points="749.1103,-25.5001 739.1103,-29 749.1103,-32.5001 749.1103,-25.5001"/>
</g>
<!-- Node15&#45;&gt;Node11 -->
<g id="edge7" class="edge">
<title>Node15&#45;&gt;Node11</title>
<path fill="none" stroke="#191970" d="M302.1669,-18.6509C310.7311,-19.6776 319.4066,-20.7175 327.789,-21.7223"/>
<polygon fill="#191970" stroke="#191970" points="302.534,-15.17 292.1885,-17.4548 301.7008,-22.1202 302.534,-15.17"/>
</g>
</g>
</svg>
