<?xml version="1.0" encoding="UTF-8" standalone="no"?>
<!DOCTYPE svg PUBLIC "-//W3C//DTD SVG 1.1//EN"
 "http://www.w3.org/Graphics/SVG/1.1/DTD/svg11.dtd">
<!-- Generated by graphviz version 2.40.1 (20161225.0304)
 -->
<!-- Title: eg_coriolis_star_mod::eg_coriolis_star Pages: 1 -->
<!--zoomable 127 -->
<svg id="main" version="1.1" xmlns="http://www.w3.org/2000/svg" xmlns:xlink="http://www.w3.org/1999/xlink" xml:space="preserve" onload="init(evt)">
<style type="text/css"><![CDATA[
.edge:hover path { stroke: red; }
.edge:hover polygon { stroke: red; fill: red; }
]]></style>
<script type="text/javascript"><![CDATA[
var edges = document.getElementsByTagName('g');
if (edges && edges.length) {
  for (var i=0;i<edges.length;i++) {
    if (edges[i].id.substr(0,4)=='edge') {
      edges[i].setAttribute('class','edge');
    }
  }
}
]]></script>
        <defs>
                <circle id="rim" cx="0" cy="0" r="7"/>
                <circle id="rim2" cx="0" cy="0" r="3.5"/>
                <g id="zoomPlus">
                        <use xlink:href="#rim" fill="#404040">
                                <set attributeName="fill" to="#808080" begin="zoomplus.mouseover" end="zoomplus.mouseout"/>
                        </use>
                        <path d="M-4,0h8M0,-4v8" fill="none" stroke="white" stroke-width="1.5" pointer-events="none"/>
                </g>
                <g id="zoomMin">
                        <use xlink:href="#rim" fill="#404040">
                                <set attributeName="fill" to="#808080" begin="zoomminus.mouseover" end="zoomminus.mouseout"/>
                        </use>
                        <path d="M-4,0h8" fill="none" stroke="white" stroke-width="1.5" pointer-events="none"/>
                </g>
                <g id="dirArrow">
                        <path fill="none" stroke="white" stroke-width="1.5" d="M0,-3.0v7 M-2.5,-0.5L0,-3.0L2.5,-0.5"/>
                </g>
               <g id="resetDef">
                       <use xlink:href="#rim2" fill="#404040">
                               <set attributeName="fill" to="#808080" begin="reset.mouseover" end="reset.mouseout"/>
                       </use>
               </g>
        </defs>

<script type="text/javascript">
var viewWidth = 924;
var viewHeight = 127;
var sectionId = 'dynsection-0';
</script>
<script xlink:href="svgpan.js"/>
<svg id="graph" class="graph">
<g id="viewport">
<title>eg_coriolis_star_mod::eg_coriolis_star</title>
<polygon fill="#ffffff" stroke="transparent" points="-4,4 -4,-123 920,-123 920,4 -4,4"/>
<!-- Node1 -->
<g id="node1" class="node">
<title>Node1</title>
<polygon fill="#bfbfbf" stroke="#000000" points="0,-44.5 0,-74.5 120,-74.5 120,-44.5 0,-44.5"/>
<text text-anchor="start" x="8" y="-62.5" font-family="Helvetica,sans-Serif" font-size="10.00" fill="#000000">eg_coriolis_star_mod</text>
<text text-anchor="middle" x="60" y="-51.5" font-family="Helvetica,sans-Serif" font-size="10.00" fill="#000000">::eg_coriolis_star</text>
</g>
<!-- Node2 -->
<g id="node2" class="node">
<title>Node2</title>
<g id="a_node2"><a xlink:href="namespaceeg__add__pressure__mod.xhtml#a466b8a66f51bceca78c325b40881a411" target="_top" xlink:title="eg_add_pressure_mod\l::eg_add_pressure">
<polygon fill="#ffffff" stroke="#000000" points="169,-88.5 169,-118.5 295,-118.5 295,-88.5 169,-88.5"/>
<text text-anchor="start" x="177" y="-106.5" font-family="Helvetica,sans-Serif" font-size="10.00" fill="#000000">eg_add_pressure_mod</text>
<text text-anchor="middle" x="232" y="-95.5" font-family="Helvetica,sans-Serif" font-size="10.00" fill="#000000">::eg_add_pressure</text>
</a>
</g>
</g>
<!-- Node1&#45;&gt;Node2 -->
<g id="edge1" class="edge">
<title>Node1&#45;&gt;Node2</title>
<path fill="none" stroke="#191970" d="M128.7771,-77.0941C143.5108,-80.8632 158.9479,-84.8122 173.2612,-88.4738"/>
<polygon fill="#191970" stroke="#191970" points="129.267,-73.6068 118.7116,-74.5192 127.5322,-80.3885 129.267,-73.6068"/>
</g>
<!-- Node4 -->
<g id="node4" class="node">
<title>Node4</title>
<g id="a_node4"><a xlink:href="atm__step__4_a_8f90.xhtml#a2319aa4963e90c64cd78bdcd5f481095" target="_top" xlink:title="Perform a 1&#45;timestep integration of the Atmosphere Model. ">
<polygon fill="#ffffff" stroke="#000000" points="529,-50 529,-69 609,-69 609,-50 529,-50"/>
<text text-anchor="middle" x="569" y="-57" font-family="Helvetica,sans-Serif" font-size="10.00" fill="#000000">atm_step_4a</text>
</a>
</g>
</g>
<!-- Node1&#45;&gt;Node4 -->
<g id="edge10" class="edge">
<title>Node1&#45;&gt;Node4</title>
<path fill="none" stroke="#191970" d="M130.3021,-59.5C238.5071,-59.5 442.3861,-59.5 528.7322,-59.5"/>
<polygon fill="#191970" stroke="#191970" points="130.1365,-56.0001 120.1365,-59.5 130.1364,-63.0001 130.1365,-56.0001"/>
</g>
<!-- Node8 -->
<g id="node8" class="node">
<title>Node8</title>
<g id="a_node8"><a xlink:href="namespaceeg__add__pressure__inc__mod.xhtml#a7ac6e036b735c756449827aba6d95350" target="_top" xlink:title="eg_add_pressure_inc\l_mod::eg_add_pressure_inc">
<polygon fill="#ffffff" stroke="#000000" points="156,-.5 156,-30.5 308,-30.5 308,-.5 156,-.5"/>
<text text-anchor="start" x="164" y="-18.5" font-family="Helvetica,sans-Serif" font-size="10.00" fill="#000000">eg_add_pressure_inc</text>
<text text-anchor="middle" x="232" y="-7.5" font-family="Helvetica,sans-Serif" font-size="10.00" fill="#000000">_mod::eg_add_pressure_inc</text>
</a>
</g>
</g>
<!-- Node1&#45;&gt;Node8 -->
<g id="edge7" class="edge">
<title>Node1&#45;&gt;Node8</title>
<path fill="none" stroke="#191970" d="M128.7771,-41.9059C143.5108,-38.1368 158.9479,-34.1878 173.2612,-30.5262"/>
<polygon fill="#191970" stroke="#191970" points="127.5322,-38.6115 118.7116,-44.4808 129.267,-45.3932 127.5322,-38.6115"/>
</g>
<!-- Node3 -->
<g id="node3" class="node">
<title>Node3</title>
<g id="a_node3"><a xlink:href="namespaceeg__sl__helmholtz__mod.xhtml#a3eec72d62601e7c7fb6a714e948c3ad9" target="_top" xlink:title="eg_sl_helmholtz_mod\l::eg_sl_helmholtz">
<polygon fill="#ffffff" stroke="#000000" points="357,-88.5 357,-118.5 480,-118.5 480,-88.5 357,-88.5"/>
<text text-anchor="start" x="365" y="-106.5" font-family="Helvetica,sans-Serif" font-size="10.00" fill="#000000">eg_sl_helmholtz_mod</text>
<text text-anchor="middle" x="418.5" y="-95.5" font-family="Helvetica,sans-Serif" font-size="10.00" fill="#000000">::eg_sl_helmholtz</text>
</a>
</g>
</g>
<!-- Node2&#45;&gt;Node3 -->
<g id="edge2" class="edge">
<title>Node2&#45;&gt;Node3</title>
<path fill="none" stroke="#191970" d="M305.544,-103.5C322.4753,-103.5 340.3149,-103.5 356.6896,-103.5"/>
<polygon fill="#191970" stroke="#191970" points="305.1404,-100.0001 295.1404,-103.5 305.1404,-107.0001 305.1404,-100.0001"/>
</g>
<!-- Node3&#45;&gt;Node4 -->
<g id="edge3" class="edge">
<title>Node3&#45;&gt;Node4</title>
<path fill="none" stroke="#191970" d="M479.5623,-85.6479C498.9515,-79.9793 519.6446,-73.9295 536.2379,-69.0783"/>
<polygon fill="#191970" stroke="#191970" points="478.4887,-82.3152 469.8726,-88.4808 480.453,-89.0339 478.4887,-82.3152"/>
</g>
<!-- Node5 -->
<g id="node5" class="node">
<title>Node5</title>
<g id="a_node5"><a xlink:href="u__model__4_a_8f90.xhtml#afa05064dab5eba198b461d0928767c7e" target="_top" xlink:title="LL Subroutine: U_MODEL_4A (ENDGAME VERSION) !&gt;LL. ">
<polygon fill="#ffffff" stroke="#000000" points="645,-50 645,-69 721,-69 721,-50 645,-50"/>
<text text-anchor="middle" x="683" y="-57" font-family="Helvetica,sans-Serif" font-size="10.00" fill="#000000">u_model_4a</text>
</a>
</g>
</g>
<!-- Node4&#45;&gt;Node5 -->
<g id="edge4" class="edge">
<title>Node4&#45;&gt;Node5</title>
<path fill="none" stroke="#191970" d="M619.3998,-59.5C627.891,-59.5 636.5803,-59.5 644.7002,-59.5"/>
<polygon fill="#191970" stroke="#191970" points="619.1922,-56.0001 609.1921,-59.5 619.1921,-63.0001 619.1922,-56.0001"/>
</g>
<!-- Node6 -->
<g id="node6" class="node">
<title>Node6</title>
<g id="a_node6"><a xlink:href="um__shell_8f90.xhtml#a8c9bd25362824a5c301376ecb5ed5c27" target="_top" xlink:title="Subroutine: UM_SHELL !&gt; ">
<polygon fill="#ffffff" stroke="#000000" points="757,-50 757,-69 818,-69 818,-50 757,-50"/>
<text text-anchor="middle" x="787.5" y="-57" font-family="Helvetica,sans-Serif" font-size="10.00" fill="#000000">um_shell</text>
</a>
</g>
</g>
<!-- Node5&#45;&gt;Node6 -->
<g id="edge5" class="edge">
<title>Node5&#45;&gt;Node6</title>
<path fill="none" stroke="#191970" d="M731.1579,-59.5C739.9023,-59.5 748.8005,-59.5 756.8647,-59.5"/>
<polygon fill="#191970" stroke="#191970" points="731.0225,-56.0001 721.0225,-59.5 731.0225,-63.0001 731.0225,-56.0001"/>
</g>
<!-- Node7 -->
<g id="node7" class="node">
<title>Node7</title>
<g id="a_node7"><a xlink:href="um__main_8f90.xhtml#a8f2d13215621443a5313261c282f098b" target="_top" xlink:title="Code Owner: See Unified Model Code Owner&#39;s HTML page. ">
<polygon fill="#ffffff" stroke="#000000" points="854,-50 854,-69 916,-69 916,-50 854,-50"/>
<text text-anchor="middle" x="885" y="-57" font-family="Helvetica,sans-Serif" font-size="10.00" fill="#000000">um_main</text>
</a>
</g>
</g>
<!-- Node6&#45;&gt;Node7 -->
<g id="edge6" class="edge">
<title>Node6&#45;&gt;Node7</title>
<path fill="none" stroke="#191970" d="M828.2756,-59.5C836.8294,-59.5 845.72,-59.5 853.8551,-59.5"/>
<polygon fill="#191970" stroke="#191970" points="828.0821,-56.0001 818.0821,-59.5 828.0821,-63.0001 828.0821,-56.0001"/>
</g>
<!-- Node9 -->
<g id="node9" class="node">
<title>Node9</title>
<g id="a_node9"><a xlink:href="namespaceeg__sl__helmholtz__inc__mod.xhtml#af788ecc21ebb373880826ed69a8df44b" target="_top" xlink:title="eg_sl_helmholtz_inc\l_mod::eg_sl_helmholtz_inc">
<polygon fill="#ffffff" stroke="#000000" points="344,-.5 344,-30.5 493,-30.5 493,-.5 344,-.5"/>
<text text-anchor="start" x="352" y="-18.5" font-family="Helvetica,sans-Serif" font-size="10.00" fill="#000000">eg_sl_helmholtz_inc</text>
<text text-anchor="middle" x="418.5" y="-7.5" font-family="Helvetica,sans-Serif" font-size="10.00" fill="#000000">_mod::eg_sl_helmholtz_inc</text>
</a>
</g>
</g>
<!-- Node8&#45;&gt;Node9 -->
<g id="edge8" class="edge">
<title>Node8&#45;&gt;Node9</title>
<path fill="none" stroke="#191970" d="M318.1409,-15.5C326.7189,-15.5 335.3776,-15.5 343.8243,-15.5"/>
<polygon fill="#191970" stroke="#191970" points="318.1257,-12.0001 308.1257,-15.5 318.1256,-19.0001 318.1257,-12.0001"/>
</g>
<!-- Node9&#45;&gt;Node4 -->
<g id="edge9" class="edge">
<title>Node9&#45;&gt;Node4</title>
<path fill="none" stroke="#191970" d="M479.5623,-33.3521C498.9515,-39.0207 519.6446,-45.0705 536.2379,-49.9217"/>
<polygon fill="#191970" stroke="#191970" points="480.453,-29.9661 469.8726,-30.5192 478.4887,-36.6848 480.453,-29.9661"/>
</g>
</g>
</svg>
        <g id="navigator" transform="translate(0 0)" fill="#404254">
                <rect fill="#f2f5e9" fill-opacity="0.5" stroke="#606060" stroke-width=".5" x="0" y="0" width="60" height="60"/>
                <use id="zoomplus" xlink:href="#zoomPlus" x="17" y="9" onmousedown="handleZoom(evt,'in')"/>
                <use id="zoomminus" xlink:href="#zoomMin" x="42" y="9" onmousedown="handleZoom(evt,'out')"/>
                <use id="reset" xlink:href="#resetDef" x="30" y="36" onmousedown="handleReset()"/>
                <g id="arrowUp" xlink:href="#dirArrow" transform="translate(30 24)" onmousedown="handlePan(0,-1)">
                  <use xlink:href="#rim" fill="#404040">
                        <set attributeName="fill" to="#808080" begin="arrowUp.mouseover" end="arrowUp.mouseout"/>
                  </use>
                  <path fill="none" stroke="white" stroke-width="1.5" d="M0,-3.0v7 M-2.5,-0.5L0,-3.0L2.5,-0.5"/>
                </g>
                <g id="arrowRight" xlink:href="#dirArrow" transform="rotate(90) translate(36 -43)" onmousedown="handlePan(1,0)">
                  <use xlink:href="#rim" fill="#404040">
                        <set attributeName="fill" to="#808080" begin="arrowRight.mouseover" end="arrowRight.mouseout"/>
                  </use>
                  <path fill="none" stroke="white" stroke-width="1.5" d="M0,-3.0v7 M-2.5,-0.5L0,-3.0L2.5,-0.5"/>
                </g>
                <g id="arrowDown" xlink:href="#dirArrow" transform="rotate(180) translate(-30 -48)" onmousedown="handlePan(0,1)">
                  <use xlink:href="#rim" fill="#404040">
                        <set attributeName="fill" to="#808080" begin="arrowDown.mouseover" end="arrowDown.mouseout"/>
                  </use>
                  <path fill="none" stroke="white" stroke-width="1.5" d="M0,-3.0v7 M-2.5,-0.5L0,-3.0L2.5,-0.5"/>
                </g>
                <g id="arrowLeft" xlink:href="#dirArrow" transform="rotate(270) translate(-36 17)" onmousedown="handlePan(-1,0)">
                  <use xlink:href="#rim" fill="#404040">
                        <set attributeName="fill" to="#808080" begin="arrowLeft.mouseover" end="arrowLeft.mouseout"/>
                  </use>
                  <path fill="none" stroke="white" stroke-width="1.5" d="M0,-3.0v7 M-2.5,-0.5L0,-3.0L2.5,-0.5"/>
                </g>
        </g>
        <svg viewBox="0 0 15 15" width="100%" height="30px" preserveAspectRatio="xMaxYMin meet">
         <g id="arrow_out" transform="scale(0.3 0.3)">
          <a xlink:href="namespaceeg__coriolis__star__mod_a56b5da57eab64dbf3fa86c32ac5dd2ed_icgraph_org.svg" target="_base">
           <rect id="button" ry="5" rx="5" y="6" x="6" height="38" width="38"
                fill="#f2f5e9" fill-opacity="0.5" stroke="#606060" stroke-width="1.0"/>
           <path id="arrow"
             d="M 11.500037,31.436501 C 11.940474,20.09759 22.043105,11.32322 32.158766,21.979434 L 37.068811,17.246167 C 37.068811,17.246167 37.088388,32 37.088388,32 L 22.160133,31.978069 C 22.160133,31.978069 26.997745,27.140456 26.997745,27.140456 C 18.528582,18.264221 13.291696,25.230495 11.500037,31.436501 z"
             style="fill:#404040;"/>
          </a>
         </g>
        </svg>
</svg>
