<?xml version="1.0" encoding="UTF-8" standalone="no"?>
<!DOCTYPE svg PUBLIC "-//W3C//DTD SVG 1.1//EN"
 "http://www.w3.org/Graphics/SVG/1.1/DTD/svg11.dtd">
<!-- Generated by graphviz version 2.40.1 (20161225.0304)
 -->
<!-- Title: rcf_gather_field_mod::rcf_gather_field_real Pages: 1 -->
<svg width="1528pt" height="1045pt"
 viewBox="0.00 0.00 1528.00 1045.26" xmlns="http://www.w3.org/2000/svg" xmlns:xlink="http://www.w3.org/1999/xlink">
<g id="graph0" class="graph" transform="scale(1 1) rotate(0) translate(4 1041.2553)">
<title>rcf_gather_field_mod::rcf_gather_field_real</title>
<polygon fill="#ffffff" stroke="transparent" points="-4,4 -4,-1041.2553 1524,-1041.2553 1524,4 -4,4"/>
<!-- Node3 -->
<g id="node1" class="node">
<title>Node3</title>
<polygon fill="#bfbfbf" stroke="#000000" points="0,-894.7553 0,-924.7553 122,-924.7553 122,-894.7553 0,-894.7553"/>
<text text-anchor="start" x="8" y="-912.7553" font-family="Helvetica,sans-Serif" font-size="10.00" fill="#000000">rcf_gather_field_mod</text>
<text text-anchor="middle" x="61" y="-901.7553" font-family="Helvetica,sans-Serif" font-size="10.00" fill="#000000">::rcf_gather_field_real</text>
</g>
<!-- Node4 -->
<g id="node2" class="node">
<title>Node4</title>
<g id="a_node2"><a xlink:href="namespacercf__derv__etadot__mod.xhtml#a00ddc13a66ee85b1559964f42a9edf35" target="_top" xlink:title="Subroutine Rcf_Derv_Etadot_Mod. ">
<polygon fill="#ffffff" stroke="#000000" points="564.5,-662.7553 564.5,-692.7553 684.5,-692.7553 684.5,-662.7553 564.5,-662.7553"/>
<text text-anchor="start" x="572.5" y="-680.7553" font-family="Helvetica,sans-Serif" font-size="10.00" fill="#000000">rcf_derv_etadot_mod</text>
<text text-anchor="middle" x="624.5" y="-669.7553" font-family="Helvetica,sans-Serif" font-size="10.00" fill="#000000">::rcf_derv_etadot</text>
</a>
</g>
</g>
<!-- Node3&#45;&gt;Node4 -->
<g id="edge1" class="edge">
<title>Node3&#45;&gt;Node4</title>
<path fill="none" stroke="#191970" d="M132.2452,-917.707C242.714,-928.603 448.9734,-942.7939 510,-904.7553 588.2883,-855.9575 615.0629,-735.5375 622.2554,-692.9656"/>
<polygon fill="#191970" stroke="#191970" points="132.4861,-914.2137 122.1866,-916.6979 131.7872,-921.1788 132.4861,-914.2137"/>
</g>
<!-- Node9 -->
<g id="node7" class="node">
<title>Node9</title>
<g id="a_node7"><a xlink:href="namespacercf__eg__poles__mod.xhtml#a00c0bbac7357b8e7f482c0553fa9d090" target="_top" xlink:title="Subroutine Rcf_eg_poles. ">
<polygon fill="#ffffff" stroke="#000000" points="562.5,-613.7553 562.5,-643.7553 686.5,-643.7553 686.5,-613.7553 562.5,-613.7553"/>
<text text-anchor="start" x="570.5" y="-631.7553" font-family="Helvetica,sans-Serif" font-size="10.00" fill="#000000">rcf_eg_poles_mod::rcf</text>
<text text-anchor="middle" x="624.5" y="-620.7553" font-family="Helvetica,sans-Serif" font-size="10.00" fill="#000000">_eg_poles</text>
</a>
</g>
</g>
<!-- Node3&#45;&gt;Node9 -->
<g id="edge6" class="edge">
<title>Node3&#45;&gt;Node9</title>
<path fill="none" stroke="#191970" d="M132.5313,-908.2759C252.2786,-905.1108 482.9416,-895.8061 510,-870.7553 582.0606,-804.0415 481.3308,-726.6563 546,-652.7553 550.5048,-647.6075 556.08,-643.5463 562.166,-640.3453"/>
<polygon fill="#191970" stroke="#191970" points="132.2583,-904.7817 122.3514,-908.5373 132.438,-911.7794 132.2583,-904.7817"/>
</g>
<!-- Node10 -->
<g id="node8" class="node">
<title>Node10</title>
<g id="a_node8"><a xlink:href="namespacercf__filter__exner__mod.xhtml#a27ad7aeb6f4307295cf8b1939e4a67ea" target="_top" xlink:title="Subroutine Rcf_Filter_Exner. ">
<polygon fill="#ffffff" stroke="#000000" points="175.5,-957.7553 175.5,-987.7553 292.5,-987.7553 292.5,-957.7553 175.5,-957.7553"/>
<text text-anchor="start" x="183.5" y="-975.7553" font-family="Helvetica,sans-Serif" font-size="10.00" fill="#000000">rcf_filter_exner_mod</text>
<text text-anchor="middle" x="234" y="-964.7553" font-family="Helvetica,sans-Serif" font-size="10.00" fill="#000000">::rcf_filter_exner</text>
</a>
</g>
</g>
<!-- Node3&#45;&gt;Node10 -->
<g id="edge8" class="edge">
<title>Node3&#45;&gt;Node10</title>
<path fill="none" stroke="#191970" d="M112.0075,-928.3303C137.6845,-937.6809 168.4096,-948.8698 192.6009,-957.6794"/>
<polygon fill="#191970" stroke="#191970" points="113.0318,-924.9785 102.4378,-924.8454 110.6365,-931.556 113.0318,-924.9785"/>
</g>
<!-- Node11 -->
<g id="node9" class="node">
<title>Node11</title>
<g id="a_node9"><a xlink:href="namespacercf__generate__heights__mod.xhtml#a98a045e86a2ef9eec42be8bda125865e" target="_top" xlink:title="rcf_generate_heights\l_mod::rcf_generate_heights">
<polygon fill="#ffffff" stroke="#000000" points="158,-700.7553 158,-730.7553 310,-730.7553 310,-700.7553 158,-700.7553"/>
<text text-anchor="start" x="166" y="-718.7553" font-family="Helvetica,sans-Serif" font-size="10.00" fill="#000000">rcf_generate_heights</text>
<text text-anchor="middle" x="234" y="-707.7553" font-family="Helvetica,sans-Serif" font-size="10.00" fill="#000000">_mod::rcf_generate_heights</text>
</a>
</g>
</g>
<!-- Node3&#45;&gt;Node11 -->
<g id="edge10" class="edge">
<title>Node3&#45;&gt;Node11</title>
<path fill="none" stroke="#191970" d="M81.4121,-886.8655C117.1909,-846.7436 190.2923,-764.7686 220.488,-730.9075"/>
<polygon fill="#191970" stroke="#191970" points="78.6184,-884.7395 74.575,-894.5325 83.8428,-889.3985 78.6184,-884.7395"/>
</g>
<!-- Node27 -->
<g id="node25" class="node">
<title>Node27</title>
<g id="a_node25"><a xlink:href="namespacercf__set__orography__mod.xhtml#ace5213d13ad442d40e62715689e6cd99" target="_top" xlink:title="Subroutine Rcf_Set_Orography &#45; sets the orographies. ">
<polygon fill="#ffffff" stroke="#000000" points="559,-18.7553 559,-48.7553 690,-48.7553 690,-18.7553 559,-18.7553"/>
<text text-anchor="start" x="567" y="-36.7553" font-family="Helvetica,sans-Serif" font-size="10.00" fill="#000000">rcf_set_orography_mod</text>
<text text-anchor="middle" x="624.5" y="-25.7553" font-family="Helvetica,sans-Serif" font-size="10.00" fill="#000000">::rcf_set_orography</text>
</a>
</g>
</g>
<!-- Node3&#45;&gt;Node27 -->
<g id="edge53" class="edge">
<title>Node3&#45;&gt;Node27</title>
<path fill="none" stroke="#191970" d="M71.1628,-885.3421C88.258,-844.6229 124.2197,-760.4349 158,-690.7553 301.6173,-394.5118 280.1592,-253.9584 546,-59.7553 551.9123,-55.4363 558.5844,-51.8062 565.479,-48.762"/>
<polygon fill="#191970" stroke="#191970" points="67.869,-884.1467 67.2359,-894.7226 74.326,-886.8498 67.869,-884.1467"/>
</g>
<!-- Node30 -->
<g id="node28" class="node">
<title>Node30</title>
<g id="a_node28"><a xlink:href="namespacercf__rotate__mod.xhtml#ae2f64c6dfdd518835294ea66469228b2" target="_top" xlink:title="rcf_rotate_mod::rcf\l_rotate">
<polygon fill="#ffffff" stroke="#000000" points="179,-1006.7553 179,-1036.7553 289,-1036.7553 289,-1006.7553 179,-1006.7553"/>
<text text-anchor="start" x="187" y="-1024.7553" font-family="Helvetica,sans-Serif" font-size="10.00" fill="#000000">rcf_rotate_mod::rcf</text>
<text text-anchor="middle" x="234" y="-1013.7553" font-family="Helvetica,sans-Serif" font-size="10.00" fill="#000000">_rotate</text>
</a>
</g>
</g>
<!-- Node3&#45;&gt;Node30 -->
<g id="edge51" class="edge">
<title>Node3&#45;&gt;Node30</title>
<path fill="none" stroke="#191970" d="M81.2645,-932.6201C99.6019,-952.0767 128.2268,-979.5319 158,-996.7553 164.4925,-1000.5112 171.6276,-1003.7949 178.8452,-1006.6385"/>
<polygon fill="#191970" stroke="#191970" points="83.6533,-930.0481 74.2948,-925.0812 78.5133,-934.8 83.6533,-930.0481"/>
</g>
<!-- Node5 -->
<g id="node3" class="node">
<title>Node5</title>
<g id="a_node3"><a xlink:href="namespacercf__field__calcs__mod.xhtml#aaf83a6a3cfce239d92cf41c835842415" target="_top" xlink:title="Subroutine Rcf_Field_Calcs &#45; field initialisation calculations. ">
<polygon fill="#ffffff" stroke="#000000" points="761,-515.7553 761,-545.7553 874,-545.7553 874,-515.7553 761,-515.7553"/>
<text text-anchor="start" x="769" y="-533.7553" font-family="Helvetica,sans-Serif" font-size="10.00" fill="#000000">rcf_field_calcs_mod</text>
<text text-anchor="middle" x="817.5" y="-522.7553" font-family="Helvetica,sans-Serif" font-size="10.00" fill="#000000">::rcf_field_calcs</text>
</a>
</g>
</g>
<!-- Node4&#45;&gt;Node5 -->
<g id="edge2" class="edge">
<title>Node4&#45;&gt;Node5</title>
<path fill="none" stroke="#191970" d="M692.5875,-658.5436C696.1952,-656.7677 699.6921,-654.8418 703,-652.7553 749.1896,-623.6222 789.2889,-571.483 807.3326,-545.8395"/>
<polygon fill="#191970" stroke="#191970" points="691.1234,-655.3643 683.4359,-662.655 693.992,-661.7495 691.1234,-655.3643"/>
</g>
<!-- Node6 -->
<g id="node4" class="node">
<title>Node6</title>
<g id="a_node4"><a xlink:href="namespacercf__create__dump__mod.xhtml#a2f1f869ea648718c07cc083ce73c40c9" target="_top" xlink:title="Subroutine Rcf_Create_Dump &#45; main dump creation loop. ">
<polygon fill="#ffffff" stroke="#000000" points="1138,-278.7553 1138,-308.7553 1263,-308.7553 1263,-278.7553 1138,-278.7553"/>
<text text-anchor="start" x="1146" y="-296.7553" font-family="Helvetica,sans-Serif" font-size="10.00" fill="#000000">rcf_create_dump_mod</text>
<text text-anchor="middle" x="1200.5" y="-285.7553" font-family="Helvetica,sans-Serif" font-size="10.00" fill="#000000">::rcf_create_dump</text>
</a>
</g>
</g>
<!-- Node5&#45;&gt;Node6 -->
<g id="edge3" class="edge">
<title>Node5&#45;&gt;Node6</title>
<path fill="none" stroke="#191970" d="M850.3914,-510.4022C925.7964,-463.7417 1109.7366,-349.9197 1176.1104,-308.8476"/>
<polygon fill="#191970" stroke="#191970" points="848.4108,-507.5118 841.7489,-515.7501 852.0943,-513.4643 848.4108,-507.5118"/>
</g>
<!-- Node7 -->
<g id="node5" class="node">
<title>Node7</title>
<g id="a_node5"><a xlink:href="namespacercf__control__mod.xhtml#a3ac6d1c6311ded848ddd750726da301a" target="_top" xlink:title="Subroutine Rcf_Control &#45; main control routine. ">
<polygon fill="#ffffff" stroke="#000000" points="1299,-255.7553 1299,-285.7553 1413,-285.7553 1413,-255.7553 1299,-255.7553"/>
<text text-anchor="start" x="1307" y="-273.7553" font-family="Helvetica,sans-Serif" font-size="10.00" fill="#000000">rcf_control_mod::rcf</text>
<text text-anchor="middle" x="1356" y="-262.7553" font-family="Helvetica,sans-Serif" font-size="10.00" fill="#000000">_control</text>
</a>
</g>
</g>
<!-- Node6&#45;&gt;Node7 -->
<g id="edge4" class="edge">
<title>Node6&#45;&gt;Node7</title>
<path fill="none" stroke="#191970" d="M1273.3443,-282.9809C1281.9541,-281.7075 1290.6445,-280.4221 1298.9908,-279.1876"/>
<polygon fill="#191970" stroke="#191970" points="1272.6798,-279.5411 1263.2996,-284.4667 1273.7041,-286.4657 1272.6798,-279.5411"/>
</g>
<!-- Node8 -->
<g id="node6" class="node">
<title>Node8</title>
<g id="a_node6"><a xlink:href="reconfigure_8f90.xhtml#a55389899cfceedbb4b0f908c73988c0c" target="_top" xlink:title="Top level program for reconfiguration. ">
<polygon fill="#ffffff" stroke="#000000" points="1449,-261.2553 1449,-280.2553 1520,-280.2553 1520,-261.2553 1449,-261.2553"/>
<text text-anchor="middle" x="1484.5" y="-268.2553" font-family="Helvetica,sans-Serif" font-size="10.00" fill="#000000">reconfigure</text>
</a>
</g>
</g>
<!-- Node7&#45;&gt;Node8 -->
<g id="edge5" class="edge">
<title>Node7&#45;&gt;Node8</title>
<path fill="none" stroke="#191970" d="M1423.159,-270.7553C1432.0636,-270.7553 1440.8936,-270.7553 1448.9628,-270.7553"/>
<polygon fill="#191970" stroke="#191970" points="1423.1103,-267.2554 1413.1103,-270.7553 1423.1103,-274.2554 1423.1103,-267.2554"/>
</g>
<!-- Node9&#45;&gt;Node5 -->
<g id="edge7" class="edge">
<title>Node9&#45;&gt;Node5</title>
<path fill="none" stroke="#191970" d="M687.8245,-610.1786C693.0238,-608.1746 698.1426,-606.0299 703,-603.7553 738.014,-587.3592 775.1571,-562.0114 797.3317,-545.9102"/>
<polygon fill="#191970" stroke="#191970" points="686.5993,-606.8999 678.4178,-613.6314 689.0114,-613.4712 686.5993,-606.8999"/>
</g>
<!-- Node10&#45;&gt;Node5 -->
<g id="edge9" class="edge">
<title>Node10&#45;&gt;Node5</title>
<path fill="none" stroke="#191970" d="M302.6984,-970.8327C359.8556,-967.3057 442.4857,-957.6732 510,-931.7553 606.0908,-894.8673 637.3905,-883.0621 703,-803.7553 771.7985,-720.5937 804.773,-590.164 814.4018,-545.9759"/>
<polygon fill="#191970" stroke="#191970" points="302.4715,-967.3399 292.6873,-971.4042 302.8705,-974.3285 302.4715,-967.3399"/>
</g>
<!-- Node11&#45;&gt;Node4 -->
<g id="edge13" class="edge">
<title>Node11&#45;&gt;Node4</title>
<path fill="none" stroke="#191970" d="M320.3213,-704.6278C328.991,-703.6114 337.666,-702.635 346,-701.7553 421.1678,-693.8215 507.958,-686.658 564.4053,-682.2641"/>
<polygon fill="#191970" stroke="#191970" points="319.6836,-701.1789 310.1671,-705.8358 320.5106,-708.1299 319.6836,-701.1789"/>
</g>
<!-- Node11&#45;&gt;Node9 -->
<g id="edge16" class="edge">
<title>Node11&#45;&gt;Node9</title>
<path fill="none" stroke="#191970" d="M293.1757,-697.852C310.1555,-692.9862 328.7447,-687.9166 346,-683.7553 419.783,-665.9621 505.5787,-649.6731 562.2339,-639.5175"/>
<polygon fill="#191970" stroke="#191970" points="292.0192,-694.543 283.3864,-700.685 293.9652,-701.267 292.0192,-694.543"/>
</g>
<!-- Node12 -->
<g id="node10" class="node">
<title>Node12</title>
<g id="a_node10"><a xlink:href="namespacercf__derv__eg__adv__winds__mod.xhtml#ae50ca5c303f9945beede38dc5212e2cd" target="_top" xlink:title="Subroutine Rcf_Derv_Adv_Winds. ">
<polygon fill="#ffffff" stroke="#000000" points="346,-782.7553 346,-812.7553 510,-812.7553 510,-782.7553 346,-782.7553"/>
<text text-anchor="start" x="354" y="-800.7553" font-family="Helvetica,sans-Serif" font-size="10.00" fill="#000000">rcf_derv_eg_adv_winds</text>
<text text-anchor="middle" x="428" y="-789.7553" font-family="Helvetica,sans-Serif" font-size="10.00" fill="#000000">_mod::rcf_derv_eg_adv_winds</text>
</a>
</g>
</g>
<!-- Node11&#45;&gt;Node12 -->
<g id="edge11" class="edge">
<title>Node11&#45;&gt;Node12</title>
<path fill="none" stroke="#191970" d="M273.6444,-735.1506C294.9082,-745.3015 321.6733,-757.6789 346,-767.7553 358.4645,-772.9183 372.1732,-778.1173 384.7544,-782.7033"/>
<polygon fill="#191970" stroke="#191970" points="275.1213,-731.9773 264.5915,-730.8051 272.0921,-738.2879 275.1213,-731.9773"/>
</g>
<!-- Node13 -->
<g id="node11" class="node">
<title>Node13</title>
<g id="a_node11"><a xlink:href="namespacercf__derv__exner__surf__mod.xhtml#ac4474416e1bbc7c09bd36afe1fb33711" target="_top" xlink:title="Subroutine Rcf_Derv_Exner_Surf_Mod. ">
<polygon fill="#ffffff" stroke="#000000" points="551.5,-564.7553 551.5,-594.7553 697.5,-594.7553 697.5,-564.7553 551.5,-564.7553"/>
<text text-anchor="start" x="559.5" y="-582.7553" font-family="Helvetica,sans-Serif" font-size="10.00" fill="#000000">rcf_derv_exner_surf</text>
<text text-anchor="middle" x="624.5" y="-571.7553" font-family="Helvetica,sans-Serif" font-size="10.00" fill="#000000">_mod::rcf_derv_exner_surf</text>
</a>
</g>
</g>
<!-- Node11&#45;&gt;Node13 -->
<g id="edge14" class="edge">
<title>Node11&#45;&gt;Node13</title>
<path fill="none" stroke="#191970" d="M262.1644,-694.9096C284.037,-679.6088 315.6556,-659.375 346,-646.7553 412.9249,-618.9226 493.9182,-601.0646 551.2674,-590.8452"/>
<polygon fill="#191970" stroke="#191970" points="260.1206,-692.0681 253.995,-700.7127 264.1744,-697.7749 260.1206,-692.0681"/>
</g>
<!-- Node14 -->
<g id="node12" class="node">
<title>Node14</title>
<g id="a_node12"><a xlink:href="namespacercf__interpolate__mod.xhtml#a69c11fea979d74b2dc45c3929395fdb8" target="_top" xlink:title="Subroutine Rcf_Interpolate &#45; top level interpolation wrapper. ">
<polygon fill="#ffffff" stroke="#000000" points="370.5,-344.7553 370.5,-374.7553 485.5,-374.7553 485.5,-344.7553 370.5,-344.7553"/>
<text text-anchor="start" x="378.5" y="-362.7553" font-family="Helvetica,sans-Serif" font-size="10.00" fill="#000000">rcf_interpolate_mod</text>
<text text-anchor="middle" x="428" y="-351.7553" font-family="Helvetica,sans-Serif" font-size="10.00" fill="#000000">::rcf_interpolate</text>
</a>
</g>
</g>
<!-- Node11&#45;&gt;Node14 -->
<g id="edge17" class="edge">
<title>Node11&#45;&gt;Node14</title>
<path fill="none" stroke="#191970" d="M247.3362,-691.2827C284.6571,-622.797 389.3999,-430.5886 419.6951,-374.9952"/>
<polygon fill="#191970" stroke="#191970" points="244.0478,-690.0028 242.3359,-700.4585 250.1944,-693.3524 244.0478,-690.0028"/>
</g>
<!-- Node17 -->
<g id="node15" class="node">
<title>Node17</title>
<g id="a_node15"><a xlink:href="namespacercf__post__process__mod.xhtml#abd81a99947cd0c226d25842ec46e1e95" target="_top" xlink:title="Subroutine Rcf_Post_Process &#45; process fields after `main loop&#39;. ">
<polygon fill="#ffffff" stroke="#000000" points="947,-280.7553 947,-310.7553 1087,-310.7553 1087,-280.7553 947,-280.7553"/>
<text text-anchor="start" x="955" y="-298.7553" font-family="Helvetica,sans-Serif" font-size="10.00" fill="#000000">rcf_post_process_mod</text>
<text text-anchor="middle" x="1017" y="-287.7553" font-family="Helvetica,sans-Serif" font-size="10.00" fill="#000000">::rcf_post_process_atmos</text>
</a>
</g>
</g>
<!-- Node11&#45;&gt;Node17 -->
<g id="edge46" class="edge">
<title>Node11&#45;&gt;Node17</title>
<path fill="none" stroke="#191970" d="M317.4917,-732.331C327.073,-733.7371 336.7274,-734.9339 346,-735.7553 504.7629,-749.8194 556.9938,-765.6745 703,-701.7553 801.7745,-658.5135 828.3292,-638.7014 896,-554.7553 960.9432,-474.1928 1000.3634,-353.0556 1012.7562,-310.8759"/>
<polygon fill="#191970" stroke="#191970" points="317.9694,-728.8633 307.5525,-730.7968 316.9015,-735.7814 317.9694,-728.8633"/>
</g>
<!-- Node28 -->
<g id="node26" class="node">
<title>Node28</title>
<g id="a_node26"><a xlink:href="namespacercf__pre__interp__transform__mod.xhtml#a20d33c2705b41c9046ce97c6a6b97e61" target="_top" xlink:title="Subroutine Rcf_Pre_Interp_Transform. ">
<polygon fill="#ffffff" stroke="#000000" points="932,-584.7553 932,-614.7553 1102,-614.7553 1102,-584.7553 932,-584.7553"/>
<text text-anchor="start" x="940" y="-602.7553" font-family="Helvetica,sans-Serif" font-size="10.00" fill="#000000">rcf_pre_interp_transform</text>
<text text-anchor="middle" x="1017" y="-591.7553" font-family="Helvetica,sans-Serif" font-size="10.00" fill="#000000">_mod::rcf_pre_interp_transform</text>
</a>
</g>
</g>
<!-- Node11&#45;&gt;Node28 -->
<g id="edge47" class="edge">
<title>Node11&#45;&gt;Node28</title>
<path fill="none" stroke="#191970" d="M320.3061,-720.456C414.9584,-723.9275 570.9703,-724.6863 703,-701.7553 807.1919,-683.6593 924.2966,-638.6669 981.5829,-614.946"/>
<polygon fill="#191970" stroke="#191970" points="320.3355,-716.9546 310.208,-720.0667 320.0658,-723.9494 320.3355,-716.9546"/>
</g>
<!-- Node29 -->
<g id="node27" class="node">
<title>Node29</title>
<g id="a_node27"><a xlink:href="namespacercf__recompute__wet__rho__mod.xhtml#af60fb9aed06003e3e82b11dddf1062c2" target="_top" xlink:title="Subroutine Rcf_Recompute_Wet_Rho_Mod. ">
<polygon fill="#ffffff" stroke="#000000" points="346,-831.7553 346,-861.7553 510,-861.7553 510,-831.7553 346,-831.7553"/>
<text text-anchor="start" x="354" y="-849.7553" font-family="Helvetica,sans-Serif" font-size="10.00" fill="#000000">rcf_recompute_wet_rho</text>
<text text-anchor="middle" x="428" y="-838.7553" font-family="Helvetica,sans-Serif" font-size="10.00" fill="#000000">_mod::rcf_recompute_wet_rho</text>
</a>
</g>
</g>
<!-- Node11&#45;&gt;Node29 -->
<g id="edge49" class="edge">
<title>Node11&#45;&gt;Node29</title>
<path fill="none" stroke="#191970" d="M252.7435,-738.9569C273.2723,-762.9266 308.3254,-799.8375 346,-821.7553 352.5609,-825.5722 359.762,-828.8605 367.088,-831.6794"/>
<polygon fill="#191970" stroke="#191970" points="255.2218,-736.4659 246.1074,-731.0641 249.8639,-740.9707 255.2218,-736.4659"/>
</g>
<!-- Node12&#45;&gt;Node5 -->
<g id="edge12" class="edge">
<title>Node12&#45;&gt;Node5</title>
<path fill="none" stroke="#191970" d="M519.9276,-781.2262C577.0808,-767.3979 649.5887,-743.0644 703,-701.7553 759.2409,-658.2578 797.2329,-579.0563 811.3631,-545.9433"/>
<polygon fill="#191970" stroke="#191970" points="519.102,-777.8248 510.1693,-783.5219 520.7051,-784.6387 519.102,-777.8248"/>
</g>
<!-- Node13&#45;&gt;Node5 -->
<g id="edge15" class="edge">
<title>Node13&#45;&gt;Node5</title>
<path fill="none" stroke="#191970" d="M693.657,-562.1974C715.6451,-556.6149 739.6976,-550.5083 760.7082,-545.174"/>
<polygon fill="#191970" stroke="#191970" points="692.5492,-558.8675 683.718,-564.7207 694.2718,-565.6522 692.5492,-558.8675"/>
</g>
<!-- Node14&#45;&gt;Node4 -->
<g id="edge33" class="edge">
<title>Node14&#45;&gt;Node4</title>
<path fill="none" stroke="#191970" d="M430.966,-385.2369C438.8922,-441.7083 465.7366,-578.2625 546,-652.7553 551.3466,-657.7175 557.6784,-661.6948 564.3907,-664.8827"/>
<polygon fill="#191970" stroke="#191970" points="434.4004,-384.509 429.6227,-375.0525 427.4605,-385.4243 434.4004,-384.509"/>
</g>
<!-- Node14&#45;&gt;Node6 -->
<g id="edge28" class="edge">
<title>Node14&#45;&gt;Node6</title>
<path fill="none" stroke="#191970" d="M439.0377,-335.3832C464.5646,-279.5476 526.9509,-146.275 546,-134.7553 653.0131,-70.041 988.4493,-169.3531 1102,-221.7553 1133.7343,-236.4003 1165.48,-262.0773 1184.0394,-278.4815"/>
<polygon fill="#191970" stroke="#191970" points="435.8178,-334.0089 434.8557,-344.56 442.1875,-336.9117 435.8178,-334.0089"/>
</g>
<!-- Node14&#45;&gt;Node9 -->
<g id="edge35" class="edge">
<title>Node14&#45;&gt;Node9</title>
<path fill="none" stroke="#191970" d="M433.1486,-384.6928C444.5917,-433.8603 476.7771,-543.7329 546,-603.7553 550.8628,-607.9719 556.4416,-611.4785 562.3345,-614.3945"/>
<polygon fill="#191970" stroke="#191970" points="436.5555,-383.8895 430.9583,-374.8939 429.7241,-385.4166 436.5555,-383.8895"/>
</g>
<!-- Node14&#45;&gt;Node13 -->
<g id="edge34" class="edge">
<title>Node14&#45;&gt;Node13</title>
<path fill="none" stroke="#191970" d="M436.3958,-384.5417C451.6545,-425.8908 487.8404,-508.9176 546,-554.7553 550.9427,-558.6509 556.5053,-561.9458 562.3287,-564.7316"/>
<polygon fill="#191970" stroke="#191970" points="439.6357,-383.2077 432.9666,-374.9752 433.0462,-385.5698 439.6357,-383.2077"/>
</g>
<!-- Node15 -->
<g id="node13" class="node">
<title>Node15</title>
<g id="a_node13"><a xlink:href="namespacercf__adjust__pstar__mod.xhtml#a2e7249e62b48f51a745b23b9f1423b02" target="_top" xlink:title="Subroutine Rcf_Adjust_Pstar Adjusts P* when an ancillary orography has been used with an interpolated...">
<polygon fill="#ffffff" stroke="#000000" points="563.5,-144.7553 563.5,-174.7553 685.5,-174.7553 685.5,-144.7553 563.5,-144.7553"/>
<text text-anchor="start" x="571.5" y="-162.7553" font-family="Helvetica,sans-Serif" font-size="10.00" fill="#000000">rcf_adjust_pstar_mod</text>
<text text-anchor="middle" x="624.5" y="-151.7553" font-family="Helvetica,sans-Serif" font-size="10.00" fill="#000000">::rcf_adjust_pstar</text>
</a>
</g>
</g>
<!-- Node14&#45;&gt;Node15 -->
<g id="edge18" class="edge">
<title>Node14&#45;&gt;Node15</title>
<path fill="none" stroke="#191970" d="M439.2732,-334.8477C457.0248,-298.2228 494.8142,-229.8541 546,-189.7553 553.695,-183.7271 562.7392,-178.7993 571.8992,-174.809"/>
<polygon fill="#191970" stroke="#191970" points="435.9202,-333.7504 434.8032,-344.2862 442.2466,-336.7466 435.9202,-333.7504"/>
</g>
<!-- Node16 -->
<g id="node14" class="node">
<title>Node16</title>
<g id="a_node14"><a xlink:href="namespacercf__calc__output__exner__mod.xhtml#ac4151773b597c2381d693b523d1d6ecc" target="_top" xlink:title="Subroutine Rcf_Calc_Output_Exner. ">
<polygon fill="#ffffff" stroke="#000000" points="739,-182.7553 739,-212.7553 896,-212.7553 896,-182.7553 739,-182.7553"/>
<text text-anchor="start" x="747" y="-200.7553" font-family="Helvetica,sans-Serif" font-size="10.00" fill="#000000">rcf_calc_output_exner</text>
<text text-anchor="middle" x="817.5" y="-189.7553" font-family="Helvetica,sans-Serif" font-size="10.00" fill="#000000">_mod::rcf_calc_output_exner</text>
</a>
</g>
</g>
<!-- Node14&#45;&gt;Node16 -->
<g id="edge25" class="edge">
<title>Node14&#45;&gt;Node16</title>
<path fill="none" stroke="#191970" d="M442.5361,-335.922C462.0486,-306.2533 499.6754,-256.5882 546,-232.7553 605.693,-202.0447 682.1684,-194.5685 738.7338,-194.0365"/>
<polygon fill="#191970" stroke="#191970" points="439.5273,-334.1303 437.0725,-344.4368 445.4187,-337.9106 439.5273,-334.1303"/>
</g>
<!-- Node18 -->
<g id="node16" class="node">
<title>Node18</title>
<g id="a_node16"><a xlink:href="namespacercf__ancil__atmos__mod.xhtml#a4af82ab1081f4074c046dcc4cb69aa4c" target="_top" xlink:title="Subroutine Rcf_Ancil_Atmos &#45; Ancillary processing for Atmosphere. ">
<polygon fill="#ffffff" stroke="#000000" points="757,-231.7553 757,-261.7553 878,-261.7553 878,-231.7553 757,-231.7553"/>
<text text-anchor="start" x="765" y="-249.7553" font-family="Helvetica,sans-Serif" font-size="10.00" fill="#000000">rcf_ancil_atmos_mod</text>
<text text-anchor="middle" x="817.5" y="-238.7553" font-family="Helvetica,sans-Serif" font-size="10.00" fill="#000000">::rcf_ancil_atmos</text>
</a>
</g>
</g>
<!-- Node14&#45;&gt;Node18 -->
<g id="edge22" class="edge">
<title>Node14&#45;&gt;Node18</title>
<path fill="none" stroke="#191970" d="M446.7924,-336.9886C468.0531,-313.1067 505.0857,-276.8505 546,-260.7553 614.5179,-233.8014 700.3479,-234.4988 756.9475,-239.1566"/>
<polygon fill="#191970" stroke="#191970" points="444.124,-334.7233 440.204,-344.5663 449.4066,-339.3162 444.124,-334.7233"/>
</g>
<!-- Node20 -->
<g id="node18" class="node">
<title>Node20</title>
<g id="a_node18"><a xlink:href="namespacercf__change__dust__bins__mod.xhtml#a7b3aedcab558637faa5f7b38994298db" target="_top" xlink:title="Calculates the contents of the bins for a 2 bin dust scheme!&gt; from the bin contents in a 6 bin dust s...">
<polygon fill="#ffffff" stroke="#000000" points="547,-368.7553 547,-398.7553 702,-398.7553 702,-368.7553 547,-368.7553"/>
<text text-anchor="start" x="555" y="-386.7553" font-family="Helvetica,sans-Serif" font-size="10.00" fill="#000000">rcf_change_dust_bins</text>
<text text-anchor="middle" x="624.5" y="-375.7553" font-family="Helvetica,sans-Serif" font-size="10.00" fill="#000000">_mod::rcf_change_dust_bins</text>
</a>
</g>
</g>
<!-- Node14&#45;&gt;Node20 -->
<g id="edge26" class="edge">
<title>Node14&#45;&gt;Node20</title>
<path fill="none" stroke="#191970" d="M495.6993,-368.024C512.1674,-370.0353 529.9073,-372.202 546.7989,-374.2651"/>
<polygon fill="#191970" stroke="#191970" points="495.9794,-364.5322 485.6288,-366.794 495.1306,-371.4806 495.9794,-364.5322"/>
</g>
<!-- Node21 -->
<g id="node19" class="node">
<title>Node21</title>
<g id="a_node19"><a xlink:href="namespacercf__derv__2d__cca__mod.xhtml#a82bfdfa1d1706bde9be0fef4ac04469d" target="_top" xlink:title="Subroutine Rcf_Derv_2D_CCA. ">
<polygon fill="#ffffff" stroke="#000000" points="563.5,-319.7553 563.5,-349.7553 685.5,-349.7553 685.5,-319.7553 563.5,-319.7553"/>
<text text-anchor="start" x="571.5" y="-337.7553" font-family="Helvetica,sans-Serif" font-size="10.00" fill="#000000">rcf_derv_2d_cca_mod</text>
<text text-anchor="middle" x="624.5" y="-326.7553" font-family="Helvetica,sans-Serif" font-size="10.00" fill="#000000">::rcf_derv_2d_cca</text>
</a>
</g>
</g>
<!-- Node14&#45;&gt;Node21 -->
<g id="edge29" class="edge">
<title>Node14&#45;&gt;Node21</title>
<path fill="none" stroke="#191970" d="M495.5724,-351.1583C517.6046,-348.3553 541.9245,-345.2611 563.4495,-342.5226"/>
<polygon fill="#191970" stroke="#191970" points="495.107,-347.6893 485.6288,-352.4234 495.9906,-354.6333 495.107,-347.6893"/>
</g>
<!-- Node22 -->
<g id="node20" class="node">
<title>Node22</title>
<g id="a_node20"><a xlink:href="namespacercf__derv__dry__rho__mod.xhtml#a4d738cd4a9a6916cf27295643be81d1e" target="_top" xlink:title="Subroutine Rcf_Derv_Dry_Rho_Mod. ">
<polygon fill="#ffffff" stroke="#000000" points="562,-270.7553 562,-300.7553 687,-300.7553 687,-270.7553 562,-270.7553"/>
<text text-anchor="start" x="570" y="-288.7553" font-family="Helvetica,sans-Serif" font-size="10.00" fill="#000000">rcf_derv_dry_rho_mod</text>
<text text-anchor="middle" x="624.5" y="-277.7553" font-family="Helvetica,sans-Serif" font-size="10.00" fill="#000000">::rcf_derv_dry_rho</text>
</a>
</g>
</g>
<!-- Node14&#45;&gt;Node22 -->
<g id="edge31" class="edge">
<title>Node14&#45;&gt;Node22</title>
<path fill="none" stroke="#191970" d="M470.1428,-340.6382C492.4662,-330.8336 520.4768,-319.0359 546,-309.7553 554.4378,-306.6873 563.4767,-303.6758 572.3099,-300.8788"/>
<polygon fill="#191970" stroke="#191970" points="468.6774,-337.4592 460.9476,-344.705 471.5088,-343.8611 468.6774,-337.4592"/>
</g>
<!-- Node23 -->
<g id="node21" class="node">
<title>Node23</title>
<g id="a_node21"><a xlink:href="namespacercf__grib__interp__tnpstar__mod.xhtml#addcfe6a3157fa516fe9136e6a043323b" target="_top" xlink:title="Subroutine Rcf_GRIB_Interp_TnPstar. ">
<polygon fill="#ffffff" stroke="#000000" points="754,-57.2553 754,-98.2553 881,-98.2553 881,-57.2553 754,-57.2553"/>
<text text-anchor="start" x="762" y="-86.2553" font-family="Helvetica,sans-Serif" font-size="10.00" fill="#000000">rcf_grib_interp_tnpstar</text>
<text text-anchor="start" x="762" y="-75.2553" font-family="Helvetica,sans-Serif" font-size="10.00" fill="#000000">_mod::rcf_grib_interp</text>
<text text-anchor="middle" x="817.5" y="-64.2553" font-family="Helvetica,sans-Serif" font-size="10.00" fill="#000000">_tnpstar</text>
</a>
</g>
</g>
<!-- Node14&#45;&gt;Node23 -->
<g id="edge36" class="edge">
<title>Node14&#45;&gt;Node23</title>
<path fill="none" stroke="#191970" d="M439.0577,-335.1539C467.9039,-271.0318 543.3985,-103.593 546,-101.7553 606.4857,-59.0288 694.4838,-59.5728 753.7511,-66.4502"/>
<polygon fill="#191970" stroke="#191970" points="435.7565,-333.9612 434.8469,-344.5169 442.1406,-336.8323 435.7565,-333.9612"/>
</g>
<!-- Node24 -->
<g id="node22" class="node">
<title>Node24</title>
<g id="a_node22"><a xlink:href="namespacercf__init__canopy__water__mod.xhtml#a6835b726afa27fbda5eb82be93c4e1f7" target="_top" xlink:title="Subroutine Rcf_Init_Canopy_Water. ">
<polygon fill="#ffffff" stroke="#000000" points="546,-515.7553 546,-545.7553 703,-545.7553 703,-515.7553 546,-515.7553"/>
<text text-anchor="start" x="554" y="-533.7553" font-family="Helvetica,sans-Serif" font-size="10.00" fill="#000000">rcf_init_canopy_water</text>
<text text-anchor="middle" x="624.5" y="-522.7553" font-family="Helvetica,sans-Serif" font-size="10.00" fill="#000000">_mod::rcf_init_canopy_water</text>
</a>
</g>
</g>
<!-- Node14&#45;&gt;Node24 -->
<g id="edge38" class="edge">
<title>Node14&#45;&gt;Node24</title>
<path fill="none" stroke="#191970" d="M441.3103,-383.8193C460.3858,-416.1455 498.4954,-473.2773 546,-505.7553 551.6675,-509.6301 557.9694,-512.9307 564.4686,-515.7363"/>
<polygon fill="#191970" stroke="#191970" points="444.2596,-381.9276 436.227,-375.019 438.1981,-385.4289 444.2596,-381.9276"/>
</g>
<!-- Node25 -->
<g id="node23" class="node">
<title>Node25</title>
<g id="a_node23"><a xlink:href="namespacercf__init__field__on__tiles__mod.xhtml#adec7c2f880b26099da266f18f37bb640" target="_top" xlink:title="Subroutine Rcf_Init_Field_On_Tiles. ">
<polygon fill="#ffffff" stroke="#000000" points="548,-466.7553 548,-496.7553 701,-496.7553 701,-466.7553 548,-466.7553"/>
<text text-anchor="start" x="556" y="-484.7553" font-family="Helvetica,sans-Serif" font-size="10.00" fill="#000000">rcf_init_field_on_tiles</text>
<text text-anchor="middle" x="624.5" y="-473.7553" font-family="Helvetica,sans-Serif" font-size="10.00" fill="#000000">_mod::rcf_init_field_on_tiles</text>
</a>
</g>
</g>
<!-- Node14&#45;&gt;Node25 -->
<g id="edge40" class="edge">
<title>Node14&#45;&gt;Node25</title>
<path fill="none" stroke="#191970" d="M449.9361,-382.2099C472.3065,-403.9759 508.9064,-436.5789 546,-456.7553 552.9105,-460.5142 560.475,-463.8118 568.0935,-466.673"/>
<polygon fill="#191970" stroke="#191970" points="452.213,-379.5393 442.6393,-375.0011 447.2933,-384.519 452.213,-379.5393"/>
</g>
<!-- Node26 -->
<g id="node24" class="node">
<title>Node26</title>
<g id="a_node24"><a xlink:href="namespacercf__mixing__ratios__mod.xhtml#a6cd1c959fc9c436a45a0a388c8559dc4" target="_top" xlink:title="Subroutine Rcf_Mixing_Ratios_Mod. ">
<polygon fill="#ffffff" stroke="#000000" points="560.5,-417.7553 560.5,-447.7553 688.5,-447.7553 688.5,-417.7553 560.5,-417.7553"/>
<text text-anchor="start" x="568.5" y="-435.7553" font-family="Helvetica,sans-Serif" font-size="10.00" fill="#000000">rcf_mixing_ratios_mod</text>
<text text-anchor="middle" x="624.5" y="-424.7553" font-family="Helvetica,sans-Serif" font-size="10.00" fill="#000000">::rcf_mixing_ratios</text>
</a>
</g>
</g>
<!-- Node14&#45;&gt;Node26 -->
<g id="edge42" class="edge">
<title>Node14&#45;&gt;Node26</title>
<path fill="none" stroke="#191970" d="M472.2465,-378.7091C494.2591,-387.8935 521.3638,-398.837 546,-407.7553 555.4142,-411.1633 565.5493,-414.5767 575.3072,-417.7378"/>
<polygon fill="#191970" stroke="#191970" points="473.4085,-375.4011 462.8331,-374.7595 470.7002,-381.856 473.4085,-375.4011"/>
</g>
<!-- Node14&#45;&gt;Node27 -->
<g id="edge44" class="edge">
<title>Node14&#45;&gt;Node27</title>
<path fill="none" stroke="#191970" d="M440.1883,-334.9594C457.0634,-300.1214 487.9537,-234.4775 510,-176.7553 528.8067,-127.5153 509.7988,-102.0665 546,-63.7553 551.8118,-57.6048 559.0196,-52.7013 566.6925,-48.7955"/>
<polygon fill="#191970" stroke="#191970" points="436.8527,-333.8153 435.6227,-344.3385 443.1466,-336.8791 436.8527,-333.8153"/>
</g>
<!-- Node15&#45;&gt;Node16 -->
<g id="edge19" class="edge">
<title>Node15&#45;&gt;Node16</title>
<path fill="none" stroke="#191970" d="M695.6808,-173.7702C710.516,-176.6911 726.2104,-179.7812 741.2213,-182.7367"/>
<polygon fill="#191970" stroke="#191970" points="696.0542,-170.2766 685.5664,-171.7788 694.7019,-177.1448 696.0542,-170.2766"/>
</g>
<!-- Node16&#45;&gt;Node17 -->
<g id="edge20" class="edge">
<title>Node16&#45;&gt;Node17</title>
<path fill="none" stroke="#191970" d="M889.3239,-217.4862C891.6303,-218.8192 893.8641,-220.2404 896,-221.7553 918.0419,-237.3895 909.8751,-255.2389 932,-270.7553 937.5412,-274.6415 943.6886,-277.9303 950.0701,-280.7123"/>
<polygon fill="#191970" stroke="#191970" points="890.6155,-214.2154 880.1198,-212.7699 887.4233,-220.4451 890.6155,-214.2154"/>
</g>
<!-- Node17&#45;&gt;Node6 -->
<g id="edge21" class="edge">
<title>Node17&#45;&gt;Node6</title>
<path fill="none" stroke="#191970" d="M1097.4372,-294.8786C1110.9893,-294.7309 1124.8757,-294.5796 1137.8895,-294.4378"/>
<polygon fill="#191970" stroke="#191970" points="1097.1202,-291.3818 1087.1589,-294.9907 1097.1965,-298.3814 1097.1202,-291.3818"/>
</g>
<!-- Node19 -->
<g id="node17" class="node">
<title>Node19</title>
<g id="a_node17"><a xlink:href="namespacercf__ancil__mod.xhtml#af0d79a90918b3178fb9102d0237d48b6" target="_top" xlink:title="Subroutine Rcf_Ancil &#45; Reconfiguration Ancillary Processing. ">
<polygon fill="#ffffff" stroke="#000000" points="965,-231.7553 965,-261.7553 1069,-261.7553 1069,-231.7553 965,-231.7553"/>
<text text-anchor="start" x="973" y="-249.7553" font-family="Helvetica,sans-Serif" font-size="10.00" fill="#000000">rcf_ancil_mod::rcf</text>
<text text-anchor="middle" x="1017" y="-238.7553" font-family="Helvetica,sans-Serif" font-size="10.00" fill="#000000">_ancil</text>
</a>
</g>
</g>
<!-- Node18&#45;&gt;Node19 -->
<g id="edge23" class="edge">
<title>Node18&#45;&gt;Node19</title>
<path fill="none" stroke="#191970" d="M888.3959,-246.7553C913.5525,-246.7553 941.3882,-246.7553 964.7105,-246.7553"/>
<polygon fill="#191970" stroke="#191970" points="888.1692,-243.2554 878.1691,-246.7553 888.1691,-250.2554 888.1692,-243.2554"/>
</g>
<!-- Node19&#45;&gt;Node7 -->
<g id="edge24" class="edge">
<title>Node19&#45;&gt;Node7</title>
<path fill="none" stroke="#191970" d="M1079.3865,-251.1721C1142.1431,-255.615 1238.0896,-262.4077 1298.8983,-266.7127"/>
<polygon fill="#191970" stroke="#191970" points="1079.4481,-247.6678 1069.2258,-250.4528 1078.9537,-254.6503 1079.4481,-247.6678"/>
</g>
<!-- Node20&#45;&gt;Node5 -->
<g id="edge27" class="edge">
<title>Node20&#45;&gt;Node5</title>
<path fill="none" stroke="#191970" d="M694.777,-403.127C697.6122,-404.5674 700.3664,-406.1081 703,-407.7553 749.5012,-436.8407 789.4544,-489.5416 807.3985,-515.4869"/>
<polygon fill="#191970" stroke="#191970" points="696.0431,-399.8569 685.4952,-398.8606 693.1195,-406.2172 696.0431,-399.8569"/>
</g>
<!-- Node21&#45;&gt;Node5 -->
<g id="edge30" class="edge">
<title>Node21&#45;&gt;Node5</title>
<path fill="none" stroke="#191970" d="M694.6797,-353.3438C697.5809,-354.998 700.3711,-356.7976 703,-358.7553 760.3989,-401.499 797.8725,-482.0789 811.6177,-515.5653"/>
<polygon fill="#191970" stroke="#191970" points="696.197,-350.1891 685.6929,-348.805 693.0412,-356.4374 696.197,-350.1891"/>
</g>
<!-- Node22&#45;&gt;Node5 -->
<g id="edge32" class="edge">
<title>Node22&#45;&gt;Node5</title>
<path fill="none" stroke="#191970" d="M696.4865,-304.9655C698.7596,-306.4453 700.9404,-308.039 703,-309.7553 771.5501,-366.8807 804.0112,-475.6447 814.0016,-515.5699"/>
<polygon fill="#191970" stroke="#191970" points="697.7534,-301.6621 687.3227,-299.8039 694.318,-307.7611 697.7534,-301.6621"/>
</g>
<!-- Node23&#45;&gt;Node6 -->
<g id="edge37" class="edge">
<title>Node23&#45;&gt;Node6</title>
<path fill="none" stroke="#191970" d="M891.2281,-69.2157C952.7752,-65.9426 1040.1266,-70.66 1102,-112.7553 1161.8972,-153.5061 1188.6672,-243.0406 1197.2402,-278.6835"/>
<polygon fill="#191970" stroke="#191970" points="890.9645,-65.7252 881.1978,-69.8315 891.3936,-72.712 890.9645,-65.7252"/>
</g>
<!-- Node24&#45;&gt;Node5 -->
<g id="edge39" class="edge">
<title>Node24&#45;&gt;Node5</title>
<path fill="none" stroke="#191970" d="M713.082,-530.7553C729.3631,-530.7553 745.9469,-530.7553 760.9627,-530.7553"/>
<polygon fill="#191970" stroke="#191970" points="713.0005,-527.2554 703.0005,-530.7553 713.0005,-534.2554 713.0005,-527.2554"/>
</g>
<!-- Node25&#45;&gt;Node5 -->
<g id="edge41" class="edge">
<title>Node25&#45;&gt;Node5</title>
<path fill="none" stroke="#191970" d="M693.657,-499.3133C715.6451,-504.8958 739.6976,-511.0024 760.7082,-516.3367"/>
<polygon fill="#191970" stroke="#191970" points="694.2718,-495.8585 683.718,-496.79 692.5492,-502.6432 694.2718,-495.8585"/>
</g>
<!-- Node26&#45;&gt;Node5 -->
<g id="edge43" class="edge">
<title>Node26&#45;&gt;Node5</title>
<path fill="none" stroke="#191970" d="M690.2128,-451.3403C694.5917,-453.0386 698.891,-454.8448 703,-456.7553 738.4124,-473.2211 775.7416,-499.2026 797.8058,-515.5932"/>
<polygon fill="#191970" stroke="#191970" points="691.1359,-447.951 680.5422,-447.7962 688.7272,-454.5235 691.1359,-447.951"/>
</g>
<!-- Node27&#45;&gt;Node6 -->
<g id="edge45" class="edge">
<title>Node27&#45;&gt;Node6</title>
<path fill="none" stroke="#191970" d="M696.4028,-16.7133C797.2186,2.7629 981.6966,21.7608 1102,-64.7553 1175.2593,-117.4397 1194.5244,-236.2096 1199.1515,-278.4706"/>
<polygon fill="#191970" stroke="#191970" points="695.4438,-13.3353 686.3177,-18.7173 696.8081,-20.2011 695.4438,-13.3353"/>
</g>
<!-- Node28&#45;&gt;Node6 -->
<g id="edge48" class="edge">
<title>Node28&#45;&gt;Node6</title>
<path fill="none" stroke="#191970" d="M1031.3931,-575.7537C1067.5853,-515.4006 1161.6113,-358.6052 1191.3453,-309.0215"/>
<polygon fill="#191970" stroke="#191970" points="1028.2411,-574.2046 1026.0998,-584.5808 1034.2444,-577.8046 1028.2411,-574.2046"/>
</g>
<!-- Node29&#45;&gt;Node5 -->
<g id="edge50" class="edge">
<title>Node29&#45;&gt;Node5</title>
<path fill="none" stroke="#191970" d="M519.9539,-833.6582C578.1352,-821.2843 651.767,-797.5981 703,-752.7553 770.3848,-693.7753 803.5606,-585.4981 813.8709,-545.8304"/>
<polygon fill="#191970" stroke="#191970" points="519.1125,-830.2577 510.0187,-835.694 520.5178,-837.1153 519.1125,-830.2577"/>
</g>
<!-- Node30&#45;&gt;Node6 -->
<g id="edge52" class="edge">
<title>Node30&#45;&gt;Node6</title>
<path fill="none" stroke="#191970" d="M299.3838,-1019.3282C376.9331,-1016.6626 510.115,-1012.7553 624.5,-1012.7553 624.5,-1012.7553 624.5,-1012.7553 817.5,-1012.7553 1148.4504,-1012.7553 1194.3825,-412.0235 1199.833,-308.7727"/>
<polygon fill="#191970" stroke="#191970" points="299.154,-1015.834 289.2816,-1019.6793 299.3972,-1022.8298 299.154,-1015.834"/>
</g>
</g>
</svg>
