<?xml version="1.0" encoding="UTF-8" standalone="no"?>
<!DOCTYPE svg PUBLIC "-//W3C//DTD SVG 1.1//EN"
 "http://www.w3.org/Graphics/SVG/1.1/DTD/svg11.dtd">
<!-- Generated by graphviz version 2.40.1 (20161225.0304)
 -->
<!-- Title: readiaufield_mod::readiaufield Pages: 1 -->
<svg width="664pt" height="66pt"
 viewBox="0.00 0.00 664.00 66.00" xmlns="http://www.w3.org/2000/svg" xmlns:xlink="http://www.w3.org/1999/xlink">
<g id="graph0" class="graph" transform="scale(1 1) rotate(0) translate(4 62)">
<title>readiaufield_mod::readiaufield</title>
<polygon fill="#ffffff" stroke="transparent" points="-4,4 -4,-62 660,-62 660,4 -4,4"/>
<!-- Node177 -->
<g id="node1" class="node">
<title>Node177</title>
<polygon fill="#bfbfbf" stroke="#000000" points="0,-19.5 0,-38.5 165,-38.5 165,-19.5 0,-19.5"/>
<text text-anchor="middle" x="82.5" y="-26.5" font-family="Helvetica,sans-Serif" font-size="10.00" fill="#000000">readiaufield_mod::readiaufield</text>
</g>
<!-- Node178 -->
<g id="node2" class="node">
<title>Node178</title>
<g id="a_node2"><a xlink:href="iau_8f90.xhtml#a0f8a69ad9f632c479e55cb582efcb452" target="_top" xlink:title="Main routine for IAU scheme. ">
<polygon fill="#ffffff" stroke="#000000" points="201,-19.5 201,-38.5 233,-38.5 233,-19.5 201,-19.5"/>
<text text-anchor="middle" x="217" y="-26.5" font-family="Helvetica,sans-Serif" font-size="10.00" fill="#000000">iau</text>
</a>
</g>
</g>
<!-- Node177&#45;&gt;Node178 -->
<g id="edge1" class="edge">
<title>Node177&#45;&gt;Node178</title>
<path fill="none" stroke="#191970" d="M175.5384,-29C185.0397,-29 193.7316,-29 200.6757,-29"/>
<polygon fill="#191970" stroke="#191970" points="175.3835,-25.5001 165.3834,-29 175.3834,-32.5001 175.3835,-25.5001"/>
</g>
<!-- Node179 -->
<g id="node3" class="node">
<title>Node179</title>
<g id="a_node3"><a xlink:href="atm__step_8f90.xhtml#ac0ee2467a1a9959b7065fdb8fd27bce4" target="_top" xlink:title="Perform a 1&#45;timestep integration of the Atmosphere Model. ">
<polygon fill="#ffffff" stroke="#000000" points="278,-38.5 278,-57.5 340,-57.5 340,-38.5 278,-38.5"/>
<text text-anchor="middle" x="309" y="-45.5" font-family="Helvetica,sans-Serif" font-size="10.00" fill="#000000">atm_step</text>
</a>
</g>
</g>
<!-- Node178&#45;&gt;Node179 -->
<g id="edge2" class="edge">
<title>Node178&#45;&gt;Node179</title>
<path fill="none" stroke="#191970" d="M243.1328,-34.397C253.964,-36.6339 266.6143,-39.2464 277.9171,-41.5807"/>
<polygon fill="#191970" stroke="#191970" points="243.5264,-30.9045 233.0252,-32.3095 242.1106,-37.7598 243.5264,-30.9045"/>
</g>
<!-- Node183 -->
<g id="node7" class="node">
<title>Node183</title>
<g id="a_node7"><a xlink:href="atm__step__4_a_8f90.xhtml#a2319aa4963e90c64cd78bdcd5f481095" target="_top" xlink:title="Perform a 1&#45;timestep integration of the Atmosphere Model. ">
<polygon fill="#ffffff" stroke="#000000" points="269,-.5 269,-19.5 349,-19.5 349,-.5 269,-.5"/>
<text text-anchor="middle" x="309" y="-7.5" font-family="Helvetica,sans-Serif" font-size="10.00" fill="#000000">atm_step_4a</text>
</a>
</g>
</g>
<!-- Node178&#45;&gt;Node183 -->
<g id="edge6" class="edge">
<title>Node178&#45;&gt;Node183</title>
<path fill="none" stroke="#191970" d="M242.8624,-23.6589C250.8729,-22.0045 259.8985,-20.1405 268.6475,-18.3337"/>
<polygon fill="#191970" stroke="#191970" points="242.1106,-20.2402 233.0252,-25.6905 243.5264,-27.0955 242.1106,-20.2402"/>
</g>
<!-- Node180 -->
<g id="node4" class="node">
<title>Node180</title>
<g id="a_node4"><a xlink:href="u__model_8f90.xhtml#ada0cd2ce4699433bf0f9adbd882c8eec" target="_top" xlink:title="Subroutine: U_MODEL &#45;!&gt; ">
<polygon fill="#ffffff" stroke="#000000" points="393.5,-38.5 393.5,-57.5 452.5,-57.5 452.5,-38.5 393.5,-38.5"/>
<text text-anchor="middle" x="423" y="-45.5" font-family="Helvetica,sans-Serif" font-size="10.00" fill="#000000">u_model</text>
</a>
</g>
</g>
<!-- Node179&#45;&gt;Node180 -->
<g id="edge3" class="edge">
<title>Node179&#45;&gt;Node180</title>
<path fill="none" stroke="#191970" d="M350.2532,-48C364.5539,-48 380.2895,-48 393.4568,-48"/>
<polygon fill="#191970" stroke="#191970" points="350.151,-44.5001 340.151,-48 350.151,-51.5001 350.151,-44.5001"/>
</g>
<!-- Node181 -->
<g id="node5" class="node">
<title>Node181</title>
<g id="a_node5"><a xlink:href="um__shell_8f90.xhtml#a8c9bd25362824a5c301376ecb5ed5c27" target="_top" xlink:title="Subroutine: UM_SHELL !&gt; ">
<polygon fill="#ffffff" stroke="#000000" points="497,-19.5 497,-38.5 558,-38.5 558,-19.5 497,-19.5"/>
<text text-anchor="middle" x="527.5" y="-26.5" font-family="Helvetica,sans-Serif" font-size="10.00" fill="#000000">um_shell</text>
</a>
</g>
</g>
<!-- Node180&#45;&gt;Node181 -->
<g id="edge4" class="edge">
<title>Node180&#45;&gt;Node181</title>
<path fill="none" stroke="#191970" d="M462.701,-40.7816C473.951,-38.7362 486.0261,-36.5407 496.6677,-34.6059"/>
<polygon fill="#191970" stroke="#191970" points="461.8786,-37.3737 452.666,-42.6062 463.1308,-44.2608 461.8786,-37.3737"/>
</g>
<!-- Node182 -->
<g id="node6" class="node">
<title>Node182</title>
<g id="a_node6"><a xlink:href="um__main_8f90.xhtml#a8f2d13215621443a5313261c282f098b" target="_top" xlink:title="Code Owner: See Unified Model Code Owner&#39;s HTML page. ">
<polygon fill="#ffffff" stroke="#000000" points="594,-19.5 594,-38.5 656,-38.5 656,-19.5 594,-19.5"/>
<text text-anchor="middle" x="625" y="-26.5" font-family="Helvetica,sans-Serif" font-size="10.00" fill="#000000">um_main</text>
</a>
</g>
</g>
<!-- Node181&#45;&gt;Node182 -->
<g id="edge5" class="edge">
<title>Node181&#45;&gt;Node182</title>
<path fill="none" stroke="#191970" d="M568.2756,-29C576.8294,-29 585.72,-29 593.8551,-29"/>
<polygon fill="#191970" stroke="#191970" points="568.0821,-25.5001 558.0821,-29 568.0821,-32.5001 568.0821,-25.5001"/>
</g>
<!-- Node184 -->
<g id="node8" class="node">
<title>Node184</title>
<g id="a_node8"><a xlink:href="u__model__4_a_8f90.xhtml#afa05064dab5eba198b461d0928767c7e" target="_top" xlink:title="LL Subroutine: U_MODEL_4A (ENDGAME VERSION) !&gt;LL. ">
<polygon fill="#ffffff" stroke="#000000" points="385,-.5 385,-19.5 461,-19.5 461,-.5 385,-.5"/>
<text text-anchor="middle" x="423" y="-7.5" font-family="Helvetica,sans-Serif" font-size="10.00" fill="#000000">u_model_4a</text>
</a>
</g>
</g>
<!-- Node183&#45;&gt;Node184 -->
<g id="edge7" class="edge">
<title>Node183&#45;&gt;Node184</title>
<path fill="none" stroke="#191970" d="M359.3998,-10C367.891,-10 376.5803,-10 384.7002,-10"/>
<polygon fill="#191970" stroke="#191970" points="359.1922,-6.5001 349.1921,-10 359.1921,-13.5001 359.1922,-6.5001"/>
</g>
<!-- Node184&#45;&gt;Node181 -->
<g id="edge8" class="edge">
<title>Node184&#45;&gt;Node181</title>
<path fill="none" stroke="#191970" d="M470.8728,-18.7041C479.7087,-20.3107 488.7128,-21.9478 496.8647,-23.43"/>
<polygon fill="#191970" stroke="#191970" points="471.4873,-15.2586 461.0225,-16.9132 470.2351,-22.1457 471.4873,-15.2586"/>
</g>
</g>
</svg>
