<?xml version="1.0" encoding="UTF-8" standalone="no"?>
<!DOCTYPE svg PUBLIC "-//W3C//DTD SVG 1.1//EN"
 "http://www.w3.org/Graphics/SVG/1.1/DTD/svg11.dtd">
<!-- Generated by graphviz version 2.40.1 (20161225.0304)
 -->
<!-- Title: setnext_mod::setnext Pages: 1 -->
<svg width="1304pt" height="104pt"
 viewBox="0.00 0.00 1304.00 104.00" xmlns="http://www.w3.org/2000/svg" xmlns:xlink="http://www.w3.org/1999/xlink">
<g id="graph0" class="graph" transform="scale(1 1) rotate(0) translate(4 100)">
<title>setnext_mod::setnext</title>
<polygon fill="#ffffff" stroke="transparent" points="-4,4 -4,-100 1300,-100 1300,4 -4,4"/>
<!-- Node1 -->
<g id="node1" class="node">
<title>Node1</title>
<polygon fill="#bfbfbf" stroke="#000000" points="0,-38.5 0,-57.5 123,-57.5 123,-38.5 0,-38.5"/>
<text text-anchor="middle" x="61.5" y="-45.5" font-family="Helvetica,sans-Serif" font-size="10.00" fill="#000000">setnext_mod::setnext</text>
</g>
<!-- Node2 -->
<g id="node2" class="node">
<title>Node2</title>
<g id="a_node2"><a xlink:href="namespaceinitial0__mod.xhtml#aab9dbd507792aae329f9b4054cdc2f14" target="_top" xlink:title="This file belongs in section: River Routing. ">
<polygon fill="#ffffff" stroke="#000000" points="159,-38.5 159,-57.5 276,-57.5 276,-38.5 159,-38.5"/>
<text text-anchor="middle" x="217.5" y="-45.5" font-family="Helvetica,sans-Serif" font-size="10.00" fill="#000000">initial0_mod::initial0</text>
</a>
</g>
</g>
<!-- Node1&#45;&gt;Node2 -->
<g id="edge1" class="edge">
<title>Node1&#45;&gt;Node2</title>
<path fill="none" stroke="#191970" d="M133.1696,-48C141.7621,-48 150.4577,-48 158.8356,-48"/>
<polygon fill="#191970" stroke="#191970" points="133.1554,-44.5001 123.1553,-48 133.1553,-51.5001 133.1554,-44.5001"/>
</g>
<!-- Node3 -->
<g id="node3" class="node">
<title>Node3</title>
<g id="a_node3"><a xlink:href="namespaceroutedbl__mod.xhtml#a4efd64d491ef73ceb97a7cf42e600ef4" target="_top" xlink:title="routedbl_mod::routedbl">
<polygon fill="#ffffff" stroke="#000000" points="312,-38.5 312,-57.5 443,-57.5 443,-38.5 312,-38.5"/>
<text text-anchor="middle" x="377.5" y="-45.5" font-family="Helvetica,sans-Serif" font-size="10.00" fill="#000000">routedbl_mod::routedbl</text>
</a>
</g>
</g>
<!-- Node2&#45;&gt;Node3 -->
<g id="edge2" class="edge">
<title>Node2&#45;&gt;Node3</title>
<path fill="none" stroke="#191970" d="M286.3597,-48C294.8038,-48 303.4167,-48 311.8123,-48"/>
<polygon fill="#191970" stroke="#191970" points="286.1696,-44.5001 276.1696,-48 286.1695,-51.5001 286.1696,-44.5001"/>
</g>
<!-- Node4 -->
<g id="node4" class="node">
<title>Node4</title>
<g id="a_node4"><a xlink:href="namespaceriv__rout__mod__1a.xhtml#a0f6db4245add94c39041b14d0cd226bc" target="_top" xlink:title="riv_rout_mod_1a::riv\l_rout_1a">
<polygon fill="#ffffff" stroke="#000000" points="479,-33 479,-63 596,-63 596,-33 479,-33"/>
<text text-anchor="start" x="487" y="-51" font-family="Helvetica,sans-Serif" font-size="10.00" fill="#000000">riv_rout_mod_1a::riv</text>
<text text-anchor="middle" x="537.5" y="-40" font-family="Helvetica,sans-Serif" font-size="10.00" fill="#000000">_rout_1a</text>
</a>
</g>
</g>
<!-- Node3&#45;&gt;Node4 -->
<g id="edge3" class="edge">
<title>Node3&#45;&gt;Node4</title>
<path fill="none" stroke="#191970" d="M453.1689,-48C461.8449,-48 470.5891,-48 478.9916,-48"/>
<polygon fill="#191970" stroke="#191970" points="453.0398,-44.5001 443.0398,-48 453.0397,-51.5001 453.0398,-44.5001"/>
</g>
<!-- Node5 -->
<g id="node5" class="node">
<title>Node5</title>
<g id="a_node5"><a xlink:href="namespaceriv__intctl__mod__1a.xhtml#a5bb3b151df4b63eba938c91f81308235" target="_top" xlink:title="riv_intctl_mod_1a::\lriv_intctl_1a">
<polygon fill="#ffffff" stroke="#000000" points="632,-33 632,-63 742,-63 742,-33 632,-33"/>
<text text-anchor="start" x="640" y="-51" font-family="Helvetica,sans-Serif" font-size="10.00" fill="#000000">riv_intctl_mod_1a::</text>
<text text-anchor="middle" x="687" y="-40" font-family="Helvetica,sans-Serif" font-size="10.00" fill="#000000">riv_intctl_1a</text>
</a>
</g>
</g>
<!-- Node4&#45;&gt;Node5 -->
<g id="edge4" class="edge">
<title>Node4&#45;&gt;Node5</title>
<path fill="none" stroke="#191970" d="M606.2015,-48C614.8235,-48 623.5536,-48 631.9289,-48"/>
<polygon fill="#191970" stroke="#191970" points="606.1573,-44.5001 596.1573,-48 606.1572,-51.5001 606.1573,-44.5001"/>
</g>
<!-- Node6 -->
<g id="node6" class="node">
<title>Node6</title>
<g id="a_node6"><a xlink:href="atmos__physics2_8f90.xhtml#a0f74e8c75312201121b305cd566b175a" target="_top" xlink:title="Interface to Atmos Physics parametrizations after S&#45;L advection. ">
<polygon fill="#ffffff" stroke="#000000" points="778,-38.5 778,-57.5 873,-57.5 873,-38.5 778,-38.5"/>
<text text-anchor="middle" x="825.5" y="-45.5" font-family="Helvetica,sans-Serif" font-size="10.00" fill="#000000">atmos_physics2</text>
</a>
</g>
</g>
<!-- Node5&#45;&gt;Node6 -->
<g id="edge5" class="edge">
<title>Node5&#45;&gt;Node6</title>
<path fill="none" stroke="#191970" d="M752.1688,-48C760.7749,-48 769.4653,-48 777.7059,-48"/>
<polygon fill="#191970" stroke="#191970" points="752.1369,-44.5001 742.1368,-48 752.1368,-51.5001 752.1369,-44.5001"/>
</g>
<!-- Node7 -->
<g id="node7" class="node">
<title>Node7</title>
<g id="a_node7"><a xlink:href="atm__step_8f90.xhtml#ac0ee2467a1a9959b7065fdb8fd27bce4" target="_top" xlink:title="Perform a 1&#45;timestep integration of the Atmosphere Model. ">
<polygon fill="#ffffff" stroke="#000000" points="918,-76.5 918,-95.5 980,-95.5 980,-76.5 918,-76.5"/>
<text text-anchor="middle" x="949" y="-83.5" font-family="Helvetica,sans-Serif" font-size="10.00" fill="#000000">atm_step</text>
</a>
</g>
</g>
<!-- Node6&#45;&gt;Node7 -->
<g id="edge6" class="edge">
<title>Node6&#45;&gt;Node7</title>
<path fill="none" stroke="#191970" d="M866.2397,-60.5353C883.0405,-65.7048 902.197,-71.5991 917.8457,-76.4141"/>
<polygon fill="#191970" stroke="#191970" points="867.2514,-57.1847 856.6643,-57.589 865.1927,-63.8752 867.2514,-57.1847"/>
</g>
<!-- Node11 -->
<g id="node11" class="node">
<title>Node11</title>
<g id="a_node11"><a xlink:href="atm__step__4_a_8f90.xhtml#a2319aa4963e90c64cd78bdcd5f481095" target="_top" xlink:title="Perform a 1&#45;timestep integration of the Atmosphere Model. ">
<polygon fill="#ffffff" stroke="#000000" points="909,-38.5 909,-57.5 989,-57.5 989,-38.5 909,-38.5"/>
<text text-anchor="middle" x="949" y="-45.5" font-family="Helvetica,sans-Serif" font-size="10.00" fill="#000000">atm_step_4a</text>
</a>
</g>
</g>
<!-- Node6&#45;&gt;Node11 -->
<g id="edge10" class="edge">
<title>Node6&#45;&gt;Node11</title>
<path fill="none" stroke="#191970" d="M883.3434,-48C892.0185,-48 900.7967,-48 908.9897,-48"/>
<polygon fill="#191970" stroke="#191970" points="883.2484,-44.5001 873.2483,-48 883.2483,-51.5001 883.2484,-44.5001"/>
</g>
<!-- Node13 -->
<g id="node13" class="node">
<title>Node13</title>
<g id="a_node13"><a xlink:href="scm__main_8f90.xhtml#a2c730136605550612e094ce51d33a2a5" target="_top" xlink:title="*********************************COPYRIGHT********************************* ">
<polygon fill="#ffffff" stroke="#000000" points="915.5,-.5 915.5,-19.5 982.5,-19.5 982.5,-.5 915.5,-.5"/>
<text text-anchor="middle" x="949" y="-7.5" font-family="Helvetica,sans-Serif" font-size="10.00" fill="#000000">scm_main</text>
</a>
</g>
</g>
<!-- Node6&#45;&gt;Node13 -->
<g id="edge13" class="edge">
<title>Node6&#45;&gt;Node13</title>
<path fill="none" stroke="#191970" d="M866.2397,-35.4647C883.0405,-30.2952 902.197,-24.4009 917.8457,-19.5859"/>
<polygon fill="#191970" stroke="#191970" points="865.1927,-32.1248 856.6643,-38.411 867.2514,-38.8153 865.1927,-32.1248"/>
</g>
<!-- Node8 -->
<g id="node8" class="node">
<title>Node8</title>
<g id="a_node8"><a xlink:href="u__model_8f90.xhtml#ada0cd2ce4699433bf0f9adbd882c8eec" target="_top" xlink:title="Subroutine: U_MODEL &#45;!&gt; ">
<polygon fill="#ffffff" stroke="#000000" points="1033.5,-76.5 1033.5,-95.5 1092.5,-95.5 1092.5,-76.5 1033.5,-76.5"/>
<text text-anchor="middle" x="1063" y="-83.5" font-family="Helvetica,sans-Serif" font-size="10.00" fill="#000000">u_model</text>
</a>
</g>
</g>
<!-- Node7&#45;&gt;Node8 -->
<g id="edge7" class="edge">
<title>Node7&#45;&gt;Node8</title>
<path fill="none" stroke="#191970" d="M990.2532,-86C1004.5539,-86 1020.2895,-86 1033.4568,-86"/>
<polygon fill="#191970" stroke="#191970" points="990.151,-82.5001 980.151,-86 990.151,-89.5001 990.151,-82.5001"/>
</g>
<!-- Node9 -->
<g id="node9" class="node">
<title>Node9</title>
<g id="a_node9"><a xlink:href="um__shell_8f90.xhtml#a8c9bd25362824a5c301376ecb5ed5c27" target="_top" xlink:title="Subroutine: UM_SHELL !&gt; ">
<polygon fill="#ffffff" stroke="#000000" points="1137,-57.5 1137,-76.5 1198,-76.5 1198,-57.5 1137,-57.5"/>
<text text-anchor="middle" x="1167.5" y="-64.5" font-family="Helvetica,sans-Serif" font-size="10.00" fill="#000000">um_shell</text>
</a>
</g>
</g>
<!-- Node8&#45;&gt;Node9 -->
<g id="edge8" class="edge">
<title>Node8&#45;&gt;Node9</title>
<path fill="none" stroke="#191970" d="M1102.701,-78.7816C1113.951,-76.7362 1126.0261,-74.5407 1136.6677,-72.6059"/>
<polygon fill="#191970" stroke="#191970" points="1101.8786,-75.3737 1092.666,-80.6062 1103.1308,-82.2608 1101.8786,-75.3737"/>
</g>
<!-- Node10 -->
<g id="node10" class="node">
<title>Node10</title>
<g id="a_node10"><a xlink:href="um__main_8f90.xhtml#a8f2d13215621443a5313261c282f098b" target="_top" xlink:title="Code Owner: See Unified Model Code Owner&#39;s HTML page. ">
<polygon fill="#ffffff" stroke="#000000" points="1234,-57.5 1234,-76.5 1296,-76.5 1296,-57.5 1234,-57.5"/>
<text text-anchor="middle" x="1265" y="-64.5" font-family="Helvetica,sans-Serif" font-size="10.00" fill="#000000">um_main</text>
</a>
</g>
</g>
<!-- Node9&#45;&gt;Node10 -->
<g id="edge9" class="edge">
<title>Node9&#45;&gt;Node10</title>
<path fill="none" stroke="#191970" d="M1208.2756,-67C1216.8294,-67 1225.72,-67 1233.8551,-67"/>
<polygon fill="#191970" stroke="#191970" points="1208.0821,-63.5001 1198.0821,-67 1208.0821,-70.5001 1208.0821,-63.5001"/>
</g>
<!-- Node12 -->
<g id="node12" class="node">
<title>Node12</title>
<g id="a_node12"><a xlink:href="u__model__4_a_8f90.xhtml#afa05064dab5eba198b461d0928767c7e" target="_top" xlink:title="LL Subroutine: U_MODEL_4A (ENDGAME VERSION) !&gt;LL. ">
<polygon fill="#ffffff" stroke="#000000" points="1025,-38.5 1025,-57.5 1101,-57.5 1101,-38.5 1025,-38.5"/>
<text text-anchor="middle" x="1063" y="-45.5" font-family="Helvetica,sans-Serif" font-size="10.00" fill="#000000">u_model_4a</text>
</a>
</g>
</g>
<!-- Node11&#45;&gt;Node12 -->
<g id="edge11" class="edge">
<title>Node11&#45;&gt;Node12</title>
<path fill="none" stroke="#191970" d="M999.3998,-48C1007.891,-48 1016.5803,-48 1024.7002,-48"/>
<polygon fill="#191970" stroke="#191970" points="999.1922,-44.5001 989.1921,-48 999.1921,-51.5001 999.1922,-44.5001"/>
</g>
<!-- Node12&#45;&gt;Node9 -->
<g id="edge12" class="edge">
<title>Node12&#45;&gt;Node9</title>
<path fill="none" stroke="#191970" d="M1110.8728,-56.7041C1119.7087,-58.3107 1128.7128,-59.9478 1136.8647,-61.43"/>
<polygon fill="#191970" stroke="#191970" points="1111.4873,-53.2586 1101.0225,-54.9132 1110.2351,-60.1457 1111.4873,-53.2586"/>
</g>
<!-- Node14 -->
<g id="node14" class="node">
<title>Node14</title>
<g id="a_node14"><a xlink:href="scm__shell_8f90.xhtml#ab15255829ee7b5be626b1c0861b40c8d" target="_top" xlink:title="scm_shell is the main calling program for the Single Column Model. ">
<polygon fill="#ffffff" stroke="#000000" points="1030.5,-.5 1030.5,-19.5 1095.5,-19.5 1095.5,-.5 1030.5,-.5"/>
<text text-anchor="middle" x="1063" y="-7.5" font-family="Helvetica,sans-Serif" font-size="10.00" fill="#000000">scm_shell</text>
</a>
</g>
</g>
<!-- Node13&#45;&gt;Node14 -->
<g id="edge14" class="edge">
<title>Node13&#45;&gt;Node14</title>
<path fill="none" stroke="#191970" d="M992.8248,-10C1005.3307,-10 1018.7319,-10 1030.4371,-10"/>
<polygon fill="#191970" stroke="#191970" points="992.5872,-6.5001 982.5872,-10 992.5871,-13.5001 992.5872,-6.5001"/>
</g>
</g>
</svg>
