<?xml version="1.0" encoding="UTF-8" standalone="no"?>
<!DOCTYPE svg PUBLIC "-//W3C//DTD SVG 1.1//EN"
 "http://www.w3.org/Graphics/SVG/1.1/DTD/svg11.dtd">
<!-- Generated by graphviz version 2.40.1 (20161225.0304)
 -->
<!-- Title: ios_queue_mod::ios_put_metadata_in_queue Pages: 1 -->
<svg width="1641pt" height="381pt"
 viewBox="0.00 0.00 1641.00 380.76" xmlns="http://www.w3.org/2000/svg" xmlns:xlink="http://www.w3.org/1999/xlink">
<g id="graph0" class="graph" transform="scale(1 1) rotate(0) translate(4 376.765)">
<title>ios_queue_mod::ios_put_metadata_in_queue</title>
<polygon fill="#ffffff" stroke="transparent" points="-4,4 -4,-376.765 1637,-376.765 1637,4 -4,4"/>
<!-- Node91 -->
<g id="node1" class="node">
<title>Node91</title>
<polygon fill="#bfbfbf" stroke="#000000" points="0,-171 0,-201 140,-201 140,-171 0,-171"/>
<text text-anchor="start" x="8" y="-189" font-family="Helvetica,sans-Serif" font-size="10.00" fill="#000000">ios_queue_mod::ios</text>
<text text-anchor="middle" x="70" y="-178" font-family="Helvetica,sans-Serif" font-size="10.00" fill="#000000">_put_metadata_in_queue</text>
</g>
<!-- Node92 -->
<g id="node2" class="node">
<title>Node92</title>
<g id="a_node2"><a xlink:href="namespaceios__queue__mod.xhtml#adcbf6bcca19c1e7e15974818f91580f6" target="_top" xlink:title="ios_queue_mod::make\l_new_node">
<polygon fill="#ffffff" stroke="#000000" points="176,-196 176,-226 303,-226 303,-196 176,-196"/>
<text text-anchor="start" x="184" y="-214" font-family="Helvetica,sans-Serif" font-size="10.00" fill="#000000">ios_queue_mod::make</text>
<text text-anchor="middle" x="239.5" y="-203" font-family="Helvetica,sans-Serif" font-size="10.00" fill="#000000">_new_node</text>
</a>
</g>
</g>
<!-- Node91&#45;&gt;Node92 -->
<g id="edge1" class="edge">
<title>Node91&#45;&gt;Node92</title>
<path fill="none" stroke="#191970" d="M140.4107,-196.3851C148.7525,-197.6154 157.2851,-198.8739 165.6726,-200.111"/>
<polygon fill="#191970" stroke="#191970" points="165.4052,-203.6093 175.8089,-201.606 166.4266,-196.6843 165.4052,-203.6093"/>
</g>
<!-- Node93 -->
<g id="node3" class="node">
<title>Node93</title>
<g id="a_node3"><a xlink:href="namespaceios__queue__mod.xhtml#a6b52a480f92fb8631f7dc50217a63f21" target="_top" xlink:title="SUBROUTINE to put node into Queue (node allocated outside) ">
<polygon fill="#ffffff" stroke="#000000" points="181.5,-147 181.5,-177 297.5,-177 297.5,-147 181.5,-147"/>
<text text-anchor="start" x="189.5" y="-165" font-family="Helvetica,sans-Serif" font-size="10.00" fill="#000000">ios_queue_mod::ios</text>
<text text-anchor="middle" x="239.5" y="-154" font-family="Helvetica,sans-Serif" font-size="10.00" fill="#000000">_put_node_in_queue</text>
</a>
</g>
</g>
<!-- Node91&#45;&gt;Node93 -->
<g id="edge2" class="edge">
<title>Node91&#45;&gt;Node93</title>
<path fill="none" stroke="#191970" d="M140.4107,-176.0303C150.6434,-174.5815 161.1633,-173.0919 171.3501,-171.6495"/>
<polygon fill="#191970" stroke="#191970" points="171.9925,-175.0936 181.403,-170.2261 171.0111,-168.1627 171.9925,-175.0936"/>
</g>
<!-- Node94 -->
<g id="node4" class="node">
<title>Node94</title>
<g id="a_node4"><a xlink:href="namespaceios__common.xhtml#a4b4c79405dd73494ae58cbf0e4f1658b" target="_top" xlink:title="ios_common::ios_ereport">
<polygon fill="#ffffff" stroke="#000000" points="558.5,-266.5 558.5,-285.5 698.5,-285.5 698.5,-266.5 558.5,-266.5"/>
<text text-anchor="middle" x="628.5" y="-273.5" font-family="Helvetica,sans-Serif" font-size="10.00" fill="#000000">ios_common::ios_ereport</text>
</a>
</g>
</g>
<!-- Node93&#45;&gt;Node94 -->
<g id="edge3" class="edge">
<title>Node93&#45;&gt;Node94</title>
<path fill="none" stroke="#191970" d="M288.8097,-177.1126C293.9325,-179.9014 298.7938,-183.1725 303,-187 329.1677,-210.8119 309.4411,-238.5572 339,-258 410.3376,-304.9232 514.1791,-297.5843 576.1709,-287.2785"/>
<polygon fill="#191970" stroke="#191970" points="576.8745,-290.7087 586.1223,-285.5386 575.6689,-283.8133 576.8745,-290.7087"/>
</g>
<!-- Node95 -->
<g id="node5" class="node">
<title>Node95</title>
<g id="a_node5"><a xlink:href="namespaceios__print__mgr.xhtml#abd09d7fc0d2381103fd0889b447f4995" target="_top" xlink:title="ios_print_mgr::ios\l_print">
<polygon fill="#ffffff" stroke="#000000" points="968,-147 968,-177 1072,-177 1072,-147 968,-147"/>
<text text-anchor="start" x="976" y="-165" font-family="Helvetica,sans-Serif" font-size="10.00" fill="#000000">ios_print_mgr::ios</text>
<text text-anchor="middle" x="1020" y="-154" font-family="Helvetica,sans-Serif" font-size="10.00" fill="#000000">_print</text>
</a>
</g>
</g>
<!-- Node93&#45;&gt;Node95 -->
<g id="edge13" class="edge">
<title>Node93&#45;&gt;Node95</title>
<path fill="none" stroke="#191970" d="M297.7322,-157.3426C359.7211,-152.6356 460.7088,-145.6855 548,-143 619.5217,-140.7996 637.4777,-140.8173 709,-143 795.3011,-145.6338 894.8852,-152.3694 957.6396,-157.0681"/>
<polygon fill="#191970" stroke="#191970" points="957.534,-160.57 967.7692,-157.8328 958.061,-153.5898 957.534,-160.57"/>
</g>
<!-- Node101 -->
<g id="node11" class="node">
<title>Node101</title>
<g id="a_node11"><a xlink:href="namespaceios__common.xhtml#a9cbfffb6c02387dc317575ab449918b6" target="_top" xlink:title="ios_common::ios_actionname">
<polygon fill="#ffffff" stroke="#000000" points="939,-291.5 939,-310.5 1101,-310.5 1101,-291.5 939,-291.5"/>
<text text-anchor="middle" x="1020" y="-298.5" font-family="Helvetica,sans-Serif" font-size="10.00" fill="#000000">ios_common::ios_actionname</text>
</a>
</g>
</g>
<!-- Node93&#45;&gt;Node101 -->
<g id="edge26" class="edge">
<title>Node93&#45;&gt;Node101</title>
<path fill="none" stroke="#191970" d="M290.2708,-177.1232C294.9451,-179.8935 299.3039,-183.1575 303,-187 336.618,-221.9491 299.7942,-261.4603 339,-290 540.6311,-436.7766 872.2768,-349.1647 982.8363,-313.7536"/>
<polygon fill="#191970" stroke="#191970" points="984.1073,-317.0207 992.5337,-310.5985 981.9415,-310.3642 984.1073,-317.0207"/>
</g>
<!-- Node102 -->
<g id="node12" class="node">
<title>Node102</title>
<g id="a_node12"><a xlink:href="namespaceios__queue__mod.xhtml#a39b762f1ca6f705f624ca69c8c09ed6c" target="_top" xlink:title="ios_queue_mod::waitfordrain">
<polygon fill="#ffffff" stroke="#000000" points="745,-76.5 745,-95.5 903,-95.5 903,-76.5 745,-76.5"/>
<text text-anchor="middle" x="824" y="-83.5" font-family="Helvetica,sans-Serif" font-size="10.00" fill="#000000">ios_queue_mod::waitfordrain</text>
</a>
</g>
</g>
<!-- Node93&#45;&gt;Node102 -->
<g id="edge14" class="edge">
<title>Node93&#45;&gt;Node102</title>
<path fill="none" stroke="#191970" d="M261.652,-146.83C281.0853,-134.4268 310.5998,-117.7229 339,-110 473.1579,-73.5185 635.7368,-74.0797 734.4456,-79.0975"/>
<polygon fill="#191970" stroke="#191970" points="734.5084,-82.6058 744.6812,-79.6456 734.8827,-75.6158 734.5084,-82.6058"/>
</g>
<!-- Node103 -->
<g id="node13" class="node">
<title>Node103</title>
<g id="a_node13"><a xlink:href="namespaceios__queue__mod.xhtml#a1cc76d7fb8498cbbc11371ccb2fb8d0f" target="_top" xlink:title="ios_queue_mod::acquire_lock">
<polygon fill="#ffffff" stroke="#000000" points="548,-228.5 548,-247.5 709,-247.5 709,-228.5 548,-228.5"/>
<text text-anchor="middle" x="628.5" y="-235.5" font-family="Helvetica,sans-Serif" font-size="10.00" fill="#000000">ios_queue_mod::acquire_lock</text>
</a>
</g>
</g>
<!-- Node93&#45;&gt;Node103 -->
<g id="edge16" class="edge">
<title>Node93&#45;&gt;Node103</title>
<path fill="none" stroke="#191970" d="M286.06,-177.0911C292.0166,-179.9387 297.8306,-183.2304 303,-187 323.4154,-201.8872 316.2995,-219.9047 339,-231 414.5761,-267.9391 515.0304,-259.5821 575.5572,-249.3597"/>
<polygon fill="#191970" stroke="#191970" points="576.4107,-252.7632 585.6484,-247.5753 575.1917,-245.8701 576.4107,-252.7632"/>
</g>
<!-- Node104 -->
<g id="node14" class="node">
<title>Node104</title>
<g id="a_node14"><a xlink:href="namespaceios__queue__mod.xhtml#a4ee7678995b5d34a0adda39290be24ce" target="_top" xlink:title="ios_queue_mod::ios\l_increment_queue_length">
<polygon fill="#ffffff" stroke="#000000" points="354,-191 354,-221 497,-221 497,-191 354,-191"/>
<text text-anchor="start" x="362" y="-209" font-family="Helvetica,sans-Serif" font-size="10.00" fill="#000000">ios_queue_mod::ios</text>
<text text-anchor="middle" x="425.5" y="-198" font-family="Helvetica,sans-Serif" font-size="10.00" fill="#000000">_increment_queue_length</text>
</a>
</g>
</g>
<!-- Node93&#45;&gt;Node104 -->
<g id="edge17" class="edge">
<title>Node93&#45;&gt;Node104</title>
<path fill="none" stroke="#191970" d="M297.5865,-175.7409C314.8542,-179.8257 334.0005,-184.355 352.1078,-188.6384"/>
<polygon fill="#191970" stroke="#191970" points="351.5049,-192.0923 362.0421,-190.9884 353.1164,-185.2803 351.5049,-192.0923"/>
</g>
<!-- Node105 -->
<g id="node15" class="node">
<title>Node105</title>
<g id="a_node15"><a xlink:href="namespaceios__print__mgr.xhtml#af901bb4272acb2ce160c5ebd69d33441" target="_top" xlink:title="ios_print_mgr::ios\l_print_flush">
<polygon fill="#ffffff" stroke="#000000" points="576.5,-27 576.5,-57 680.5,-57 680.5,-27 576.5,-27"/>
<text text-anchor="start" x="584.5" y="-45" font-family="Helvetica,sans-Serif" font-size="10.00" fill="#000000">ios_print_mgr::ios</text>
<text text-anchor="middle" x="628.5" y="-34" font-family="Helvetica,sans-Serif" font-size="10.00" fill="#000000">_print_flush</text>
</a>
</g>
</g>
<!-- Node93&#45;&gt;Node105 -->
<g id="edge27" class="edge">
<title>Node93&#45;&gt;Node105</title>
<path fill="none" stroke="#191970" d="M251.0355,-146.7269C267.8191,-125.7969 301.1306,-88.8789 339,-72 412.0782,-39.4281 505.5078,-35.6718 566.1567,-37.5461"/>
<polygon fill="#191970" stroke="#191970" points="566.2204,-41.0507 576.3431,-37.9234 566.4796,-34.0555 566.2204,-41.0507"/>
</g>
<!-- Node106 -->
<g id="node16" class="node">
<title>Node106</title>
<g id="a_node16"><a xlink:href="namespaceios__queue__mod.xhtml#ace57a6c3d5da7965655bc35a3548b873" target="_top" xlink:title="ios_queue_mod::release_lock">
<polygon fill="#ffffff" stroke="#000000" points="548,-152.5 548,-171.5 709,-171.5 709,-152.5 548,-152.5"/>
<text text-anchor="middle" x="628.5" y="-159.5" font-family="Helvetica,sans-Serif" font-size="10.00" fill="#000000">ios_queue_mod::release_lock</text>
</a>
</g>
</g>
<!-- Node93&#45;&gt;Node106 -->
<g id="edge25" class="edge">
<title>Node93&#45;&gt;Node106</title>
<path fill="none" stroke="#191970" d="M297.7372,-162C361.1984,-162 463.553,-162 537.6083,-162"/>
<polygon fill="#191970" stroke="#191970" points="537.863,-165.5001 547.863,-162 537.8629,-158.5001 537.863,-165.5001"/>
</g>
<!-- Node107 -->
<g id="node17" class="node">
<title>Node107</title>
<g id="a_node17"><a xlink:href="namespaceum__types.xhtml#a78c6f3e81ea4f109c824834c59a3a879" target="_top" xlink:title="Discover the size of a fortran default integer. ">
<polygon fill="#ffffff" stroke="#000000" points="339,-.5 339,-19.5 512,-19.5 512,-.5 339,-.5"/>
<text text-anchor="middle" x="425.5" y="-7.5" font-family="Helvetica,sans-Serif" font-size="10.00" fill="#000000">um_types::umfortranintegersize</text>
</a>
</g>
</g>
<!-- Node93&#45;&gt;Node107 -->
<g id="edge24" class="edge">
<title>Node93&#45;&gt;Node107</title>
<path fill="none" stroke="#191970" d="M247.0715,-146.7993C261.2833,-119.8571 294.5726,-63.7683 339,-34 345.7193,-29.4978 353.2693,-25.8346 361.0369,-22.8554"/>
<polygon fill="#191970" stroke="#191970" points="362.2751,-26.1306 370.5786,-19.5502 359.9838,-19.5162 362.2751,-26.1306"/>
</g>
<!-- Node94&#45;&gt;Node95 -->
<g id="edge4" class="edge">
<title>Node94&#45;&gt;Node95</title>
<path fill="none" stroke="#191970" d="M685.6369,-266.4764C741.7864,-256.3319 829.4976,-238.3727 903,-214 929.7689,-205.1237 958.7423,-192.2732 981.1599,-181.568"/>
<polygon fill="#191970" stroke="#191970" points="982.8611,-184.6332 990.3406,-177.1292 979.8141,-178.3311 982.8611,-184.6332"/>
</g>
<!-- Node100 -->
<g id="node10" class="node">
<title>Node100</title>
<g id="a_node10"><a xlink:href="namespaceios__common.xhtml#ade38472c488c019e816ec75cb70ab3cc" target="_top" xlink:title="ios_common::ios_report_md">
<polygon fill="#ffffff" stroke="#000000" points="746.5,-266.5 746.5,-285.5 901.5,-285.5 901.5,-266.5 746.5,-266.5"/>
<text text-anchor="middle" x="824" y="-273.5" font-family="Helvetica,sans-Serif" font-size="10.00" fill="#000000">ios_common::ios_report_md</text>
</a>
</g>
</g>
<!-- Node94&#45;&gt;Node100 -->
<g id="edge10" class="edge">
<title>Node94&#45;&gt;Node100</title>
<path fill="none" stroke="#191970" d="M698.5278,-276C710.7176,-276 723.5345,-276 736.1302,-276"/>
<polygon fill="#191970" stroke="#191970" points="736.1682,-279.5001 746.1682,-276 736.1682,-272.5001 736.1682,-279.5001"/>
</g>
<!-- Node96 -->
<g id="node6" class="node">
<title>Node96</title>
<g id="a_node6"><a xlink:href="namespaceumprintmgr.xhtml#aae44897e556705dbf5e945a26538be9a" target="_top" xlink:title="umprintmgr::umprint">
<polygon fill="#ffffff" stroke="#000000" points="1137,-101.5 1137,-120.5 1256,-120.5 1256,-101.5 1137,-101.5"/>
<text text-anchor="middle" x="1196.5" y="-108.5" font-family="Helvetica,sans-Serif" font-size="10.00" fill="#000000">umprintmgr::umprint</text>
</a>
</g>
</g>
<!-- Node95&#45;&gt;Node96 -->
<g id="edge5" class="edge">
<title>Node95&#45;&gt;Node96</title>
<path fill="none" stroke="#191970" d="M1072.0012,-146.9742C1098.0085,-139.4593 1129.0995,-130.4755 1153.7055,-123.3655"/>
<polygon fill="#191970" stroke="#191970" points="1154.8411,-126.6807 1163.4764,-120.5422 1152.8978,-119.9558 1154.8411,-126.6807"/>
</g>
<!-- Node97 -->
<g id="node7" class="node">
<title>Node97</title>
<g id="a_node7"><a xlink:href="namespaceumprintmgr.xhtml#a088ce22a18d574e9df7ee1850bfb10c7" target="_top" xlink:title="umprintmgr::umprintopenstream">
<polygon fill="#ffffff" stroke="#000000" points="1292,-101.5 1292,-120.5 1469,-120.5 1469,-101.5 1292,-101.5"/>
<text text-anchor="middle" x="1380.5" y="-108.5" font-family="Helvetica,sans-Serif" font-size="10.00" fill="#000000">umprintmgr::umprintopenstream</text>
</a>
</g>
</g>
<!-- Node96&#45;&gt;Node97 -->
<g id="edge6" class="edge">
<title>Node96&#45;&gt;Node97</title>
<path fill="none" stroke="#191970" d="M1256.2395,-104.6333C1264.4605,-104.4301 1273.0751,-104.3077 1281.7702,-104.2661"/>
<polygon fill="#191970" stroke="#191970" points="1281.9998,-107.7659 1291.9958,-104.2543 1281.9917,-100.7659 1281.9998,-107.7659"/>
</g>
<!-- Node98 -->
<g id="node8" class="node">
<title>Node98</title>
<g id="a_node8"><a xlink:href="namespaceumprintmgr.xhtml#ad3a290b30a6e25500eabc0bf90330b77" target="_top" xlink:title="umprintmgr::umprintflush">
<polygon fill="#ffffff" stroke="#000000" points="1309.5,-54.5 1309.5,-73.5 1451.5,-73.5 1451.5,-54.5 1309.5,-54.5"/>
<text text-anchor="middle" x="1380.5" y="-61.5" font-family="Helvetica,sans-Serif" font-size="10.00" fill="#000000">umprintmgr::umprintflush</text>
</a>
</g>
</g>
<!-- Node96&#45;&gt;Node98 -->
<g id="edge8" class="edge">
<title>Node96&#45;&gt;Node98</title>
<path fill="none" stroke="#191970" d="M1233.7351,-101.4888C1262.4461,-94.1551 1302.345,-83.9635 1333.2959,-76.0576"/>
<polygon fill="#191970" stroke="#191970" points="1334.1822,-79.4436 1343.0049,-73.5776 1332.4498,-72.6614 1334.1822,-79.4436"/>
</g>
<!-- Node97&#45;&gt;Node96 -->
<g id="edge7" class="edge">
<title>Node97&#45;&gt;Node96</title>
<path fill="none" stroke="#191970" d="M1291.9958,-117.7457C1283.3802,-117.767 1274.7236,-117.7094 1266.3289,-117.5727"/>
<polygon fill="#191970" stroke="#191970" points="1266.3089,-114.0716 1256.2395,-117.3667 1266.166,-121.0702 1266.3089,-114.0716"/>
</g>
<!-- Node99 -->
<g id="node9" class="node">
<title>Node99</title>
<g id="a_node9"><a xlink:href="namespaceumflush__mod.xhtml#a3a003ab59990bdcb712b443dd5e0d1cd" target="_top" xlink:title="umflush_mod::umflush">
<polygon fill="#ffffff" stroke="#000000" points="1505,-54.5 1505,-73.5 1633,-73.5 1633,-54.5 1505,-54.5"/>
<text text-anchor="middle" x="1569" y="-61.5" font-family="Helvetica,sans-Serif" font-size="10.00" fill="#000000">umflush_mod::umflush</text>
</a>
</g>
</g>
<!-- Node98&#45;&gt;Node99 -->
<g id="edge9" class="edge">
<title>Node98&#45;&gt;Node99</title>
<path fill="none" stroke="#191970" d="M1451.7638,-64C1465.7742,-64 1480.5063,-64 1494.6162,-64"/>
<polygon fill="#191970" stroke="#191970" points="1494.7612,-67.5001 1504.7611,-64 1494.7611,-60.5001 1494.7612,-67.5001"/>
</g>
<!-- Node100&#45;&gt;Node95 -->
<g id="edge11" class="edge">
<title>Node100&#45;&gt;Node95</title>
<path fill="none" stroke="#191970" d="M865.6956,-266.3811C878.0669,-262.7273 891.4018,-257.9693 903,-252 938.5143,-233.7218 974.1528,-204.3399 996.6002,-184.1499"/>
<polygon fill="#191970" stroke="#191970" points="999.2249,-186.4929 1004.2488,-177.1649 994.5044,-181.3239 999.2249,-186.4929"/>
</g>
<!-- Node100&#45;&gt;Node101 -->
<g id="edge12" class="edge">
<title>Node100&#45;&gt;Node101</title>
<path fill="none" stroke="#191970" d="M898.6583,-285.5227C910.5753,-287.0428 922.9812,-288.6252 935.1141,-290.1727"/>
<polygon fill="#191970" stroke="#191970" points="934.8622,-293.6689 945.2247,-291.4623 935.748,-286.7251 934.8622,-293.6689"/>
</g>
<!-- Node102&#45;&gt;Node95 -->
<g id="edge15" class="edge">
<title>Node102&#45;&gt;Node95</title>
<path fill="none" stroke="#191970" d="M858.9181,-95.6004C872.7699,-99.6697 888.7615,-104.6961 903,-110 928.8814,-119.6409 957.2008,-132.1728 979.495,-142.5183"/>
<polygon fill="#191970" stroke="#191970" points="978.115,-145.7368 988.656,-146.8034 981.0809,-139.3961 978.115,-145.7368"/>
</g>
<!-- Node104&#45;&gt;Node94 -->
<g id="edge19" class="edge">
<title>Node104&#45;&gt;Node94</title>
<path fill="none" stroke="#191970" d="M457.7135,-221.1064C482.1087,-232.1279 516.6593,-246.852 548,-257 555.7699,-259.5159 564.0607,-261.8517 572.2575,-263.9632"/>
<polygon fill="#191970" stroke="#191970" points="571.619,-267.4109 582.1678,-266.4246 573.3064,-260.6173 571.619,-267.4109"/>
</g>
<!-- Node104&#45;&gt;Node95 -->
<g id="edge20" class="edge">
<title>Node104&#45;&gt;Node95</title>
<path fill="none" stroke="#191970" d="M497.2106,-200.6926C614.7552,-191.9929 846.4474,-174.8449 957.6147,-166.6172"/>
<polygon fill="#191970" stroke="#191970" points="957.9523,-170.1019 967.6666,-165.8733 957.4355,-163.121 957.9523,-170.1019"/>
</g>
<!-- Node104&#45;&gt;Node103 -->
<g id="edge18" class="edge">
<title>Node104&#45;&gt;Node103</title>
<path fill="none" stroke="#191970" d="M497.0702,-217.282C516.803,-220.3926 538.1933,-223.7645 557.8725,-226.8666"/>
<polygon fill="#191970" stroke="#191970" points="557.5665,-230.3615 567.9895,-228.4614 558.6565,-223.4469 557.5665,-230.3615"/>
</g>
<!-- Node104&#45;&gt;Node105 -->
<g id="edge21" class="edge">
<title>Node104&#45;&gt;Node105</title>
<path fill="none" stroke="#191970" d="M444.2339,-190.8652C480.4892,-161.5752 560.3376,-97.0672 602.0101,-63.4007"/>
<polygon fill="#191970" stroke="#191970" points="604.2322,-66.105 609.8114,-57.0982 599.8332,-60.6599 604.2322,-66.105"/>
</g>
<!-- Node104&#45;&gt;Node106 -->
<g id="edge23" class="edge">
<title>Node104&#45;&gt;Node106</title>
<path fill="none" stroke="#191970" d="M494.7933,-190.9808C520.9393,-185.3136 550.2662,-178.9571 574.7771,-173.6444"/>
<polygon fill="#191970" stroke="#191970" points="575.5815,-177.0514 584.6132,-171.5124 574.0987,-170.2102 575.5815,-177.0514"/>
</g>
<!-- Node105&#45;&gt;Node98 -->
<g id="edge22" class="edge">
<title>Node105&#45;&gt;Node98</title>
<path fill="none" stroke="#191970" d="M680.7821,-43.5295C809.7191,-47.3016 1143.6696,-57.0715 1298.9216,-61.6134"/>
<polygon fill="#191970" stroke="#191970" points="1299.2374,-65.124 1309.3356,-61.9181 1299.4422,-58.127 1299.2374,-65.124"/>
</g>
</g>
</svg>
