<?xml version="1.0" encoding="UTF-8" standalone="no"?>
<!DOCTYPE svg PUBLIC "-//W3C//DTD SVG 1.1//EN"
 "http://www.w3.org/Graphics/SVG/1.1/DTD/svg11.dtd">
<!-- Generated by graphviz version 2.40.1 (20161225.0304)
 -->
<!-- Title: rcf_calc_rho_mod::rcf_calc_rho Pages: 1 -->
<svg width="723pt" height="39pt"
 viewBox="0.00 0.00 723.00 39.00" xmlns="http://www.w3.org/2000/svg" xmlns:xlink="http://www.w3.org/1999/xlink">
<g id="graph0" class="graph" transform="scale(1 1) rotate(0) translate(4 35)">
<title>rcf_calc_rho_mod::rcf_calc_rho</title>
<polygon fill="#ffffff" stroke="transparent" points="-4,4 -4,-35 719,-35 719,4 -4,4"/>
<!-- Node8 -->
<g id="node1" class="node">
<title>Node8</title>
<polygon fill="#bfbfbf" stroke="#000000" points="0,-.5 0,-30.5 121,-30.5 121,-.5 0,-.5"/>
<text text-anchor="start" x="8" y="-18.5" font-family="Helvetica,sans-Serif" font-size="10.00" fill="#000000">rcf_calc_rho_mod::rcf</text>
<text text-anchor="middle" x="60.5" y="-7.5" font-family="Helvetica,sans-Serif" font-size="10.00" fill="#000000">_calc_rho</text>
</g>
<!-- Node9 -->
<g id="node2" class="node">
<title>Node9</title>
<g id="a_node2"><a xlink:href="namespacercf__post__process__mod.xhtml#abd81a99947cd0c226d25842ec46e1e95" target="_top" xlink:title="Subroutine Rcf_Post_Process &#45; process fields after `main loop&#39;. ">
<polygon fill="#ffffff" stroke="#000000" points="157,-.5 157,-30.5 297,-30.5 297,-.5 157,-.5"/>
<text text-anchor="start" x="165" y="-18.5" font-family="Helvetica,sans-Serif" font-size="10.00" fill="#000000">rcf_post_process_mod</text>
<text text-anchor="middle" x="227" y="-7.5" font-family="Helvetica,sans-Serif" font-size="10.00" fill="#000000">::rcf_post_process_atmos</text>
</a>
</g>
</g>
<!-- Node8&#45;&gt;Node9 -->
<g id="edge1" class="edge">
<title>Node8&#45;&gt;Node9</title>
<path fill="none" stroke="#191970" d="M131.2961,-15.5C139.7617,-15.5 148.403,-15.5 156.8593,-15.5"/>
<polygon fill="#191970" stroke="#191970" points="131.0814,-12.0001 121.0813,-15.5 131.0813,-19.0001 131.0814,-12.0001"/>
</g>
<!-- Node10 -->
<g id="node3" class="node">
<title>Node10</title>
<g id="a_node3"><a xlink:href="namespacercf__create__dump__mod.xhtml#a2f1f869ea648718c07cc083ce73c40c9" target="_top" xlink:title="Subroutine Rcf_Create_Dump &#45; main dump creation loop. ">
<polygon fill="#ffffff" stroke="#000000" points="333,-.5 333,-30.5 458,-30.5 458,-.5 333,-.5"/>
<text text-anchor="start" x="341" y="-18.5" font-family="Helvetica,sans-Serif" font-size="10.00" fill="#000000">rcf_create_dump_mod</text>
<text text-anchor="middle" x="395.5" y="-7.5" font-family="Helvetica,sans-Serif" font-size="10.00" fill="#000000">::rcf_create_dump</text>
</a>
</g>
</g>
<!-- Node9&#45;&gt;Node10 -->
<g id="edge2" class="edge">
<title>Node9&#45;&gt;Node10</title>
<path fill="none" stroke="#191970" d="M307.7184,-15.5C316.1475,-15.5 324.6239,-15.5 332.8092,-15.5"/>
<polygon fill="#191970" stroke="#191970" points="307.4829,-12.0001 297.4829,-15.5 307.4828,-19.0001 307.4829,-12.0001"/>
</g>
<!-- Node11 -->
<g id="node4" class="node">
<title>Node11</title>
<g id="a_node4"><a xlink:href="namespacercf__control__mod.xhtml#a3ac6d1c6311ded848ddd750726da301a" target="_top" xlink:title="Subroutine Rcf_Control &#45; main control routine. ">
<polygon fill="#ffffff" stroke="#000000" points="494,-.5 494,-30.5 608,-30.5 608,-.5 494,-.5"/>
<text text-anchor="start" x="502" y="-18.5" font-family="Helvetica,sans-Serif" font-size="10.00" fill="#000000">rcf_control_mod::rcf</text>
<text text-anchor="middle" x="551" y="-7.5" font-family="Helvetica,sans-Serif" font-size="10.00" fill="#000000">_control</text>
</a>
</g>
</g>
<!-- Node10&#45;&gt;Node11 -->
<g id="edge3" class="edge">
<title>Node10&#45;&gt;Node11</title>
<path fill="none" stroke="#191970" d="M468.3443,-15.5C476.9541,-15.5 485.6445,-15.5 493.9908,-15.5"/>
<polygon fill="#191970" stroke="#191970" points="468.2996,-12.0001 458.2996,-15.5 468.2995,-19.0001 468.2996,-12.0001"/>
</g>
<!-- Node12 -->
<g id="node5" class="node">
<title>Node12</title>
<g id="a_node5"><a xlink:href="reconfigure_8f90.xhtml#a55389899cfceedbb4b0f908c73988c0c" target="_top" xlink:title="Top level program for reconfiguration. ">
<polygon fill="#ffffff" stroke="#000000" points="644,-6 644,-25 715,-25 715,-6 644,-6"/>
<text text-anchor="middle" x="679.5" y="-13" font-family="Helvetica,sans-Serif" font-size="10.00" fill="#000000">reconfigure</text>
</a>
</g>
</g>
<!-- Node11&#45;&gt;Node12 -->
<g id="edge4" class="edge">
<title>Node11&#45;&gt;Node12</title>
<path fill="none" stroke="#191970" d="M618.159,-15.5C627.0636,-15.5 635.8936,-15.5 643.9628,-15.5"/>
<polygon fill="#191970" stroke="#191970" points="618.1103,-12.0001 608.1103,-15.5 618.1103,-19.0001 618.1103,-12.0001"/>
</g>
</g>
</svg>
