<?xml version="1.0" encoding="UTF-8" standalone="no"?>
<!DOCTYPE svg PUBLIC "-//W3C//DTD SVG 1.1//EN"
 "http://www.w3.org/Graphics/SVG/1.1/DTD/svg11.dtd">
<!-- Generated by graphviz version 2.40.1 (20161225.0304)
 -->
<!-- Title: ac2_mod::ac2 Pages: 1 -->
<svg width="880pt" height="28pt"
 viewBox="0.00 0.00 880.00 28.00" xmlns="http://www.w3.org/2000/svg" xmlns:xlink="http://www.w3.org/1999/xlink">
<g id="graph0" class="graph" transform="scale(1 1) rotate(0) translate(4 24)">
<title>ac2_mod::ac2</title>
<polygon fill="#ffffff" stroke="transparent" points="-4,4 -4,-24 876,-24 876,4 -4,4"/>
<!-- Node229 -->
<g id="node1" class="node">
<title>Node229</title>
<polygon fill="#bfbfbf" stroke="#000000" points="0,-.5 0,-19.5 84,-19.5 84,-.5 0,-.5"/>
<text text-anchor="middle" x="42" y="-7.5" font-family="Helvetica,sans-Serif" font-size="10.00" fill="#000000">ac2_mod::ac2</text>
</g>
<!-- Node230 -->
<g id="node2" class="node">
<title>Node230</title>
<g id="a_node2"><a xlink:href="namespaceac__mod.xhtml#a1f3d4cd45ff537a30b428c4eb398234d" target="_top" xlink:title="ac_mod::ac">
<polygon fill="#ffffff" stroke="#000000" points="120,-.5 120,-19.5 192,-19.5 192,-.5 120,-.5"/>
<text text-anchor="middle" x="156" y="-7.5" font-family="Helvetica,sans-Serif" font-size="10.00" fill="#000000">ac_mod::ac</text>
</a>
</g>
</g>
<!-- Node229&#45;&gt;Node230 -->
<g id="edge1" class="edge">
<title>Node229&#45;&gt;Node230</title>
<path fill="none" stroke="#191970" d="M94.1369,-10C102.7644,-10 111.5416,-10 119.6702,-10"/>
<polygon fill="#191970" stroke="#191970" points="94.1255,-6.5001 84.1255,-10 94.1255,-13.5001 94.1255,-6.5001"/>
</g>
<!-- Node231 -->
<g id="node3" class="node">
<title>Node231</title>
<g id="a_node3"><a xlink:href="namespaceac__ctl__mod.xhtml#ad9b0579e33ec2ee1b36e3d11b5386b72" target="_top" xlink:title="ac_ctl_mod::ac_ctl">
<polygon fill="#ffffff" stroke="#000000" points="228,-.5 228,-19.5 335,-19.5 335,-.5 228,-.5"/>
<text text-anchor="middle" x="281.5" y="-7.5" font-family="Helvetica,sans-Serif" font-size="10.00" fill="#000000">ac_ctl_mod::ac_ctl</text>
</a>
</g>
</g>
<!-- Node230&#45;&gt;Node231 -->
<g id="edge2" class="edge">
<title>Node230&#45;&gt;Node231</title>
<path fill="none" stroke="#191970" d="M202.4051,-10C210.5876,-10 219.1686,-10 227.537,-10"/>
<polygon fill="#191970" stroke="#191970" points="202.2998,-6.5001 192.2998,-10 202.2998,-13.5001 202.2998,-6.5001"/>
</g>
<!-- Node232 -->
<g id="node4" class="node">
<title>Node232</title>
<g id="a_node4"><a xlink:href="atm__step__ac__assim_8f90.xhtml#a1a53479d77027fb4fee329c374bc6062" target="_top" xlink:title="Contains atm_step code for AC assimilation. ">
<polygon fill="#ffffff" stroke="#000000" points="371,-.5 371,-19.5 484,-19.5 484,-.5 371,-.5"/>
<text text-anchor="middle" x="427.5" y="-7.5" font-family="Helvetica,sans-Serif" font-size="10.00" fill="#000000">atm_step_ac_assim</text>
</a>
</g>
</g>
<!-- Node231&#45;&gt;Node232 -->
<g id="edge3" class="edge">
<title>Node231&#45;&gt;Node232</title>
<path fill="none" stroke="#191970" d="M345.2027,-10C353.6312,-10 362.2279,-10 370.5332,-10"/>
<polygon fill="#191970" stroke="#191970" points="345.036,-6.5001 335.036,-10 345.0359,-13.5001 345.036,-6.5001"/>
</g>
<!-- Node233 -->
<g id="node5" class="node">
<title>Node233</title>
<g id="a_node5"><a xlink:href="atm__step_8f90.xhtml#ac0ee2467a1a9959b7065fdb8fd27bce4" target="_top" xlink:title="Perform a 1&#45;timestep integration of the Atmosphere Model. ">
<polygon fill="#ffffff" stroke="#000000" points="520,-.5 520,-19.5 582,-19.5 582,-.5 520,-.5"/>
<text text-anchor="middle" x="551" y="-7.5" font-family="Helvetica,sans-Serif" font-size="10.00" fill="#000000">atm_step</text>
</a>
</g>
</g>
<!-- Node232&#45;&gt;Node233 -->
<g id="edge4" class="edge">
<title>Node232&#45;&gt;Node233</title>
<path fill="none" stroke="#191970" d="M494.301,-10C503.239,-10 512.0349,-10 519.9329,-10"/>
<polygon fill="#191970" stroke="#191970" points="494.1897,-6.5001 484.1896,-10 494.1896,-13.5001 494.1897,-6.5001"/>
</g>
<!-- Node234 -->
<g id="node6" class="node">
<title>Node234</title>
<g id="a_node6"><a xlink:href="u__model_8f90.xhtml#ada0cd2ce4699433bf0f9adbd882c8eec" target="_top" xlink:title="Subroutine: U_MODEL &#45;!&gt; ">
<polygon fill="#ffffff" stroke="#000000" points="618,-.5 618,-19.5 677,-19.5 677,-.5 618,-.5"/>
<text text-anchor="middle" x="647.5" y="-7.5" font-family="Helvetica,sans-Serif" font-size="10.00" fill="#000000">u_model</text>
</a>
</g>
</g>
<!-- Node233&#45;&gt;Node234 -->
<g id="edge5" class="edge">
<title>Node233&#45;&gt;Node234</title>
<path fill="none" stroke="#191970" d="M592.3007,-10C600.8757,-10 609.7497,-10 617.8088,-10"/>
<polygon fill="#191970" stroke="#191970" points="592.0644,-6.5001 582.0644,-10 592.0644,-13.5001 592.0644,-6.5001"/>
</g>
<!-- Node235 -->
<g id="node7" class="node">
<title>Node235</title>
<g id="a_node7"><a xlink:href="um__shell_8f90.xhtml#a8c9bd25362824a5c301376ecb5ed5c27" target="_top" xlink:title="Subroutine: UM_SHELL !&gt; ">
<polygon fill="#ffffff" stroke="#000000" points="713,-.5 713,-19.5 774,-19.5 774,-.5 713,-.5"/>
<text text-anchor="middle" x="743.5" y="-7.5" font-family="Helvetica,sans-Serif" font-size="10.00" fill="#000000">um_shell</text>
</a>
</g>
</g>
<!-- Node234&#45;&gt;Node235 -->
<g id="edge6" class="edge">
<title>Node234&#45;&gt;Node235</title>
<path fill="none" stroke="#191970" d="M687.2581,-10C695.8053,-10 704.7119,-10 712.8497,-10"/>
<polygon fill="#191970" stroke="#191970" points="687.0865,-6.5001 677.0865,-10 687.0865,-13.5001 687.0865,-6.5001"/>
</g>
<!-- Node236 -->
<g id="node8" class="node">
<title>Node236</title>
<g id="a_node8"><a xlink:href="um__main_8f90.xhtml#a8f2d13215621443a5313261c282f098b" target="_top" xlink:title="Code Owner: See Unified Model Code Owner&#39;s HTML page. ">
<polygon fill="#ffffff" stroke="#000000" points="810,-.5 810,-19.5 872,-19.5 872,-.5 810,-.5"/>
<text text-anchor="middle" x="841" y="-7.5" font-family="Helvetica,sans-Serif" font-size="10.00" fill="#000000">um_main</text>
</a>
</g>
</g>
<!-- Node235&#45;&gt;Node236 -->
<g id="edge7" class="edge">
<title>Node235&#45;&gt;Node236</title>
<path fill="none" stroke="#191970" d="M784.2756,-10C792.8294,-10 801.72,-10 809.8551,-10"/>
<polygon fill="#191970" stroke="#191970" points="784.0821,-6.5001 774.0821,-10 784.0821,-13.5001 784.0821,-6.5001"/>
</g>
</g>
</svg>
