<?xml version="1.0" encoding="UTF-8" standalone="no"?>
<!DOCTYPE svg PUBLIC "-//W3C//DTD SVG 1.1//EN"
 "http://www.w3.org/Graphics/SVG/1.1/DTD/svg11.dtd">
<!-- Generated by graphviz version 2.40.1 (20161225.0304)
 -->
<!-- Title: lsp_riming_mod::lsp_riming Pages: 1 -->
<svg width="459pt" height="104pt"
 viewBox="0.00 0.00 459.00 104.00" xmlns="http://www.w3.org/2000/svg" xmlns:xlink="http://www.w3.org/1999/xlink">
<g id="graph0" class="graph" transform="scale(1 1) rotate(0) translate(4 100)">
<title>lsp_riming_mod::lsp_riming</title>
<polygon fill="#ffffff" stroke="transparent" points="-4,4 -4,-100 455,-100 455,4 -4,4"/>
<!-- Node0 -->
<g id="node1" class="node">
<title>Node0</title>
<polygon fill="#bfbfbf" stroke="#000000" points="0,-33 0,-63 115,-63 115,-33 0,-33"/>
<text text-anchor="start" x="8" y="-51" font-family="Helvetica,sans-Serif" font-size="10.00" fill="#000000">lsp_riming_mod::lsp</text>
<text text-anchor="middle" x="57.5" y="-40" font-family="Helvetica,sans-Serif" font-size="10.00" fill="#000000">_riming</text>
</g>
<!-- Node1 -->
<g id="node2" class="node">
<title>Node1</title>
<g id="a_node2"><a xlink:href="namespacelsp__moments__mod.xhtml#aeea10ef071bd5df607f21c64085651b1" target="_top" xlink:title="lsp_moments_mod::lsp\l_moments">
<polygon fill="#ffffff" stroke="#000000" points="151,-33 151,-63 281,-63 281,-33 151,-33"/>
<text text-anchor="start" x="159" y="-51" font-family="Helvetica,sans-Serif" font-size="10.00" fill="#000000">lsp_moments_mod::lsp</text>
<text text-anchor="middle" x="216" y="-40" font-family="Helvetica,sans-Serif" font-size="10.00" fill="#000000">_moments</text>
</a>
</g>
</g>
<!-- Node0&#45;&gt;Node1 -->
<g id="edge1" class="edge">
<title>Node0&#45;&gt;Node1</title>
<path fill="none" stroke="#191970" d="M115.1705,-48C123.5046,-48 132.1834,-48 140.7983,-48"/>
<polygon fill="#191970" stroke="#191970" points="140.8575,-51.5001 150.8575,-48 140.8574,-44.5001 140.8575,-51.5001"/>
</g>
<!-- Node2 -->
<g id="node3" class="node">
<title>Node2</title>
<g id="a_node3"><a xlink:href="namespacevectlib__mod.xhtml#ae619493e9e4d10fb153e38fc3413a371" target="_top" xlink:title="vectlib_mod::powr_v">
<polygon fill="#ffffff" stroke="#000000" points="325,-76.5 325,-95.5 443,-95.5 443,-76.5 325,-76.5"/>
<text text-anchor="middle" x="384" y="-83.5" font-family="Helvetica,sans-Serif" font-size="10.00" fill="#000000">vectlib_mod::powr_v</text>
</a>
</g>
</g>
<!-- Node1&#45;&gt;Node2 -->
<g id="edge2" class="edge">
<title>Node1&#45;&gt;Node2</title>
<path fill="none" stroke="#191970" d="M281.4342,-62.8006C298.0612,-66.5615 315.7097,-70.5534 331.5939,-74.1462"/>
<polygon fill="#191970" stroke="#191970" points="331.2231,-77.6507 341.7489,-76.4432 332.7674,-70.8232 331.2231,-77.6507"/>
</g>
<!-- Node3 -->
<g id="node4" class="node">
<title>Node3</title>
<g id="a_node4"><a xlink:href="namespacevectlib__mod.xhtml#a158dc38b092e77b3f84dc889d5ed2bd3" target="_top" xlink:title="vectlib_mod::oneover_v">
<polygon fill="#ffffff" stroke="#000000" points="317,-38.5 317,-57.5 451,-57.5 451,-38.5 317,-38.5"/>
<text text-anchor="middle" x="384" y="-45.5" font-family="Helvetica,sans-Serif" font-size="10.00" fill="#000000">vectlib_mod::oneover_v</text>
</a>
</g>
</g>
<!-- Node1&#45;&gt;Node3 -->
<g id="edge3" class="edge">
<title>Node1&#45;&gt;Node3</title>
<path fill="none" stroke="#191970" d="M281.4342,-48C289.6873,-48 298.192,-48 306.6077,-48"/>
<polygon fill="#191970" stroke="#191970" points="306.806,-51.5001 316.8059,-48 306.8059,-44.5001 306.806,-51.5001"/>
</g>
<!-- Node4 -->
<g id="node5" class="node">
<title>Node4</title>
<g id="a_node5"><a xlink:href="namespacevectlib__mod.xhtml#a53a6632af5f46174122764b28fe255e8" target="_top" xlink:title="vectlib_mod::exp_v">
<polygon fill="#ffffff" stroke="#000000" points="328,-.5 328,-19.5 440,-19.5 440,-.5 328,-.5"/>
<text text-anchor="middle" x="384" y="-7.5" font-family="Helvetica,sans-Serif" font-size="10.00" fill="#000000">vectlib_mod::exp_v</text>
</a>
</g>
</g>
<!-- Node1&#45;&gt;Node4 -->
<g id="edge4" class="edge">
<title>Node1&#45;&gt;Node4</title>
<path fill="none" stroke="#191970" d="M281.4342,-33.1994C298.0612,-29.4385 315.7097,-25.4466 331.5939,-21.8538"/>
<polygon fill="#191970" stroke="#191970" points="332.7674,-25.1768 341.7489,-19.5568 331.2231,-18.3493 332.7674,-25.1768"/>
</g>
</g>
</svg>
