<?xml version="1.0" encoding="UTF-8" standalone="no"?>
<!DOCTYPE svg PUBLIC "-//W3C//DTD SVG 1.1//EN"
 "http://www.w3.org/Graphics/SVG/1.1/DTD/svg11.dtd">
<!-- Generated by graphviz version 2.40.1 (20161225.0304)
 -->
<!-- Title: file_units_mod::set_model_ft_unit_filename Pages: 1 -->
<svg width="648pt" height="104pt"
 viewBox="0.00 0.00 648.00 104.00" xmlns="http://www.w3.org/2000/svg" xmlns:xlink="http://www.w3.org/1999/xlink">
<g id="graph0" class="graph" transform="scale(1 1) rotate(0) translate(4 100)">
<title>file_units_mod::set_model_ft_unit_filename</title>
<polygon fill="#ffffff" stroke="transparent" points="-4,4 -4,-100 644,-100 644,4 -4,4"/>
<!-- Node461 -->
<g id="node1" class="node">
<title>Node461</title>
<polygon fill="#bfbfbf" stroke="#000000" points="0,-52 0,-82 137,-82 137,-52 0,-52"/>
<text text-anchor="start" x="8" y="-70" font-family="Helvetica,sans-Serif" font-size="10.00" fill="#000000">file_units_mod::set</text>
<text text-anchor="middle" x="68.5" y="-59" font-family="Helvetica,sans-Serif" font-size="10.00" fill="#000000">_model_ft_unit_filename</text>
</g>
<!-- Node462 -->
<g id="node2" class="node">
<title>Node462</title>
<g id="a_node2"><a xlink:href="initchst_8f90.xhtml#a349e92a4e653649fc383adf9498e4e72" target="_top" xlink:title="initchst">
<polygon fill="#ffffff" stroke="#000000" points="173,-76.5 173,-95.5 226,-95.5 226,-76.5 173,-76.5"/>
<text text-anchor="middle" x="199.5" y="-83.5" font-family="Helvetica,sans-Serif" font-size="10.00" fill="#000000">initchst</text>
</a>
</g>
</g>
<!-- Node461&#45;&gt;Node462 -->
<g id="edge1" class="edge">
<title>Node461&#45;&gt;Node462</title>
<path fill="none" stroke="#191970" d="M147.1622,-78.409C156.3662,-79.744 165.2085,-81.0264 172.9212,-82.1451"/>
<polygon fill="#191970" stroke="#191970" points="147.4682,-74.9169 137.0693,-76.9452 146.4634,-81.8444 147.4682,-74.9169"/>
</g>
<!-- Node467 -->
<g id="node7" class="node">
<title>Node467</title>
<g id="a_node7"><a xlink:href="ppctl__reinit_8f90.xhtml#a486fd20e1edc145bac3d1edba5cc20e8" target="_top" xlink:title="This file belongs in section: Top Level. ">
<polygon fill="#ffffff" stroke="#000000" points="262,-38.5 262,-57.5 333,-57.5 333,-38.5 262,-38.5"/>
<text text-anchor="middle" x="297.5" y="-45.5" font-family="Helvetica,sans-Serif" font-size="10.00" fill="#000000">ppctl_reinit</text>
</a>
</g>
</g>
<!-- Node461&#45;&gt;Node467 -->
<g id="edge6" class="edge">
<title>Node461&#45;&gt;Node467</title>
<path fill="none" stroke="#191970" d="M147.4651,-60.4483C186.3237,-57.2242 231.2434,-53.4973 261.7286,-50.9679"/>
<polygon fill="#191970" stroke="#191970" points="146.8839,-56.9844 137.2076,-61.2994 147.4627,-63.9604 146.8839,-56.9844"/>
</g>
<!-- Node463 -->
<g id="node3" class="node">
<title>Node463</title>
<g id="a_node3"><a xlink:href="readhist_8f90.xhtml#a5c40451b2ebed1bf17ddf581c5dfeadf" target="_top" xlink:title="LL Routine: READHIST. ">
<polygon fill="#ffffff" stroke="#000000" points="269.5,-76.5 269.5,-95.5 325.5,-95.5 325.5,-76.5 269.5,-76.5"/>
<text text-anchor="middle" x="297.5" y="-83.5" font-family="Helvetica,sans-Serif" font-size="10.00" fill="#000000">readhist</text>
</a>
</g>
</g>
<!-- Node462&#45;&gt;Node463 -->
<g id="edge2" class="edge">
<title>Node462&#45;&gt;Node463</title>
<path fill="none" stroke="#191970" d="M236.1645,-86C247.1068,-86 258.9269,-86 269.2427,-86"/>
<polygon fill="#191970" stroke="#191970" points="236.0202,-82.5001 226.0202,-86 236.0202,-89.5001 236.0202,-82.5001"/>
</g>
<!-- Node464 -->
<g id="node4" class="node">
<title>Node464</title>
<g id="a_node4"><a xlink:href="um__setup_8f90.xhtml#a6ae08822bbbdc3295a110b0a82e0a341" target="_top" xlink:title="Reads History &amp; control files; also HK for Op. ">
<polygon fill="#ffffff" stroke="#000000" points="374.5,-76.5 374.5,-95.5 439.5,-95.5 439.5,-76.5 374.5,-76.5"/>
<text text-anchor="middle" x="407" y="-83.5" font-family="Helvetica,sans-Serif" font-size="10.00" fill="#000000">um_setup</text>
</a>
</g>
</g>
<!-- Node463&#45;&gt;Node464 -->
<g id="edge3" class="edge">
<title>Node463&#45;&gt;Node464</title>
<path fill="none" stroke="#191970" d="M335.8567,-86C348.3799,-86 362.1636,-86 374.2368,-86"/>
<polygon fill="#191970" stroke="#191970" points="335.699,-82.5001 325.699,-86 335.6989,-89.5001 335.699,-82.5001"/>
</g>
<!-- Node465 -->
<g id="node5" class="node">
<title>Node465</title>
<g id="a_node5"><a xlink:href="um__shell_8f90.xhtml#a8c9bd25362824a5c301376ecb5ed5c27" target="_top" xlink:title="Subroutine: UM_SHELL !&gt; ">
<polygon fill="#ffffff" stroke="#000000" points="481,-38.5 481,-57.5 542,-57.5 542,-38.5 481,-38.5"/>
<text text-anchor="middle" x="511.5" y="-45.5" font-family="Helvetica,sans-Serif" font-size="10.00" fill="#000000">um_shell</text>
</a>
</g>
</g>
<!-- Node464&#45;&gt;Node465 -->
<g id="edge4" class="edge">
<title>Node464&#45;&gt;Node465</title>
<path fill="none" stroke="#191970" d="M443.0745,-72.882C456.8959,-67.8561 472.3925,-62.2209 485.1387,-57.5859"/>
<polygon fill="#191970" stroke="#191970" points="441.5716,-69.7042 433.3698,-76.411 443.9638,-76.2828 441.5716,-69.7042"/>
</g>
<!-- Node466 -->
<g id="node6" class="node">
<title>Node466</title>
<g id="a_node6"><a xlink:href="um__main_8f90.xhtml#a8f2d13215621443a5313261c282f098b" target="_top" xlink:title="Code Owner: See Unified Model Code Owner&#39;s HTML page. ">
<polygon fill="#ffffff" stroke="#000000" points="578,-38.5 578,-57.5 640,-57.5 640,-38.5 578,-38.5"/>
<text text-anchor="middle" x="609" y="-45.5" font-family="Helvetica,sans-Serif" font-size="10.00" fill="#000000">um_main</text>
</a>
</g>
</g>
<!-- Node465&#45;&gt;Node466 -->
<g id="edge5" class="edge">
<title>Node465&#45;&gt;Node466</title>
<path fill="none" stroke="#191970" d="M552.2756,-48C560.8294,-48 569.72,-48 577.8551,-48"/>
<polygon fill="#191970" stroke="#191970" points="552.0821,-44.5001 542.0821,-48 552.0821,-51.5001 552.0821,-44.5001"/>
</g>
<!-- Node468 -->
<g id="node8" class="node">
<title>Node468</title>
<g id="a_node8"><a xlink:href="u__model_8f90.xhtml#ada0cd2ce4699433bf0f9adbd882c8eec" target="_top" xlink:title="Subroutine: U_MODEL &#45;!&gt; ">
<polygon fill="#ffffff" stroke="#000000" points="377.5,-38.5 377.5,-57.5 436.5,-57.5 436.5,-38.5 377.5,-38.5"/>
<text text-anchor="middle" x="407" y="-45.5" font-family="Helvetica,sans-Serif" font-size="10.00" fill="#000000">u_model</text>
</a>
</g>
</g>
<!-- Node467&#45;&gt;Node468 -->
<g id="edge7" class="edge">
<title>Node467&#45;&gt;Node468</title>
<path fill="none" stroke="#191970" d="M343.0699,-48C354.6991,-48 366.897,-48 377.4838,-48"/>
<polygon fill="#191970" stroke="#191970" points="343.0515,-44.5001 333.0515,-48 343.0515,-51.5001 343.0515,-44.5001"/>
</g>
<!-- Node469 -->
<g id="node9" class="node">
<title>Node469</title>
<g id="a_node9"><a xlink:href="u__model__4_a_8f90.xhtml#afa05064dab5eba198b461d0928767c7e" target="_top" xlink:title="LL Subroutine: U_MODEL_4A (ENDGAME VERSION) !&gt;LL. ">
<polygon fill="#ffffff" stroke="#000000" points="369,-.5 369,-19.5 445,-19.5 445,-.5 369,-.5"/>
<text text-anchor="middle" x="407" y="-7.5" font-family="Helvetica,sans-Serif" font-size="10.00" fill="#000000">u_model_4a</text>
</a>
</g>
</g>
<!-- Node467&#45;&gt;Node469 -->
<g id="edge9" class="edge">
<title>Node467&#45;&gt;Node469</title>
<path fill="none" stroke="#191970" d="M334.8792,-35.0282C349.4676,-29.9656 365.8917,-24.2659 379.3774,-19.5859"/>
<polygon fill="#191970" stroke="#191970" points="333.4313,-31.8259 325.1315,-38.411 335.7263,-38.439 333.4313,-31.8259"/>
</g>
<!-- Node468&#45;&gt;Node465 -->
<g id="edge8" class="edge">
<title>Node468&#45;&gt;Node465</title>
<path fill="none" stroke="#191970" d="M446.701,-48C457.951,-48 470.0261,-48 480.6677,-48"/>
<polygon fill="#191970" stroke="#191970" points="446.666,-44.5001 436.666,-48 446.6659,-51.5001 446.666,-44.5001"/>
</g>
<!-- Node469&#45;&gt;Node465 -->
<g id="edge10" class="edge">
<title>Node469&#45;&gt;Node465</title>
<path fill="none" stroke="#191970" d="M443.0745,-23.118C456.8959,-28.1439 472.3925,-33.7791 485.1387,-38.4141"/>
<polygon fill="#191970" stroke="#191970" points="443.9638,-19.7172 433.3698,-19.589 441.5716,-26.2958 443.9638,-19.7172"/>
</g>
</g>
</svg>
