<?xml version="1.0" encoding="UTF-8" standalone="no"?>
<!DOCTYPE svg PUBLIC "-//W3C//DTD SVG 1.1//EN"
 "http://www.w3.org/Graphics/SVG/1.1/DTD/svg11.dtd">
<!-- Generated by graphviz version 2.40.1 (20161225.0304)
 -->
<!-- Title: ios_queue_mod::waitfordrain Pages: 1 -->
<svg width="790pt" height="127pt"
 viewBox="0.00 0.00 790.00 127.00" xmlns="http://www.w3.org/2000/svg" xmlns:xlink="http://www.w3.org/1999/xlink">
<g id="graph0" class="graph" transform="scale(1 1) rotate(0) translate(4 123)">
<title>ios_queue_mod::waitfordrain</title>
<polygon fill="#ffffff" stroke="transparent" points="-4,4 -4,-123 786,-123 786,4 -4,4"/>
<!-- Node200 -->
<g id="node1" class="node">
<title>Node200</title>
<polygon fill="#bfbfbf" stroke="#000000" points="0,-72 0,-91 158,-91 158,-72 0,-72"/>
<text text-anchor="middle" x="79" y="-79" font-family="Helvetica,sans-Serif" font-size="10.00" fill="#000000">ios_queue_mod::waitfordrain</text>
</g>
<!-- Node201 -->
<g id="node2" class="node">
<title>Node201</title>
<g id="a_node2"><a xlink:href="namespaceio__server__listener.xhtml#a3a43d3b581cc8fe973b1ed0fdfc90ea8" target="_top" xlink:title="io_server_listener\l::ios_waitforqueuedrain">
<polygon fill="#ffffff" stroke="#000000" points="350.5,-88.5 350.5,-118.5 481.5,-118.5 481.5,-88.5 350.5,-88.5"/>
<text text-anchor="start" x="358.5" y="-106.5" font-family="Helvetica,sans-Serif" font-size="10.00" fill="#000000">io_server_listener</text>
<text text-anchor="middle" x="416" y="-95.5" font-family="Helvetica,sans-Serif" font-size="10.00" fill="#000000">::ios_waitforqueuedrain</text>
</a>
</g>
</g>
<!-- Node200&#45;&gt;Node201 -->
<g id="edge1" class="edge">
<title>Node200&#45;&gt;Node201</title>
<path fill="none" stroke="#191970" d="M168.1322,-87.3187C225.3124,-91.0516 298.297,-95.8161 350.2285,-99.2063"/>
<polygon fill="#191970" stroke="#191970" points="168.2183,-83.817 158.0115,-86.658 167.7623,-90.8021 168.2183,-83.817"/>
</g>
<!-- Node205 -->
<g id="node6" class="node">
<title>Node205</title>
<g id="a_node6"><a xlink:href="namespaceios__queue__mod.xhtml#a6b52a480f92fb8631f7dc50217a63f21" target="_top" xlink:title="SUBROUTINE to put node into Queue (node allocated outside) ">
<polygon fill="#ffffff" stroke="#000000" points="194,-44.5 194,-74.5 310,-74.5 310,-44.5 194,-44.5"/>
<text text-anchor="start" x="202" y="-62.5" font-family="Helvetica,sans-Serif" font-size="10.00" fill="#000000">ios_queue_mod::ios</text>
<text text-anchor="middle" x="252" y="-51.5" font-family="Helvetica,sans-Serif" font-size="10.00" fill="#000000">_put_node_in_queue</text>
</a>
</g>
</g>
<!-- Node200&#45;&gt;Node205 -->
<g id="edge6" class="edge">
<title>Node200&#45;&gt;Node205</title>
<path fill="none" stroke="#191970" d="M163.9927,-70.6917C174.1411,-69.4011 184.3173,-68.1071 193.9621,-66.8805"/>
<polygon fill="#191970" stroke="#191970" points="163.3527,-67.2448 153.8741,-71.9784 164.2358,-74.1889 163.3527,-67.2448"/>
</g>
<!-- Node202 -->
<g id="node3" class="node">
<title>Node202</title>
<g id="a_node3"><a xlink:href="namespaceio__server__listener.xhtml#a9225cffcf2da72ce400c9af1bbd3d788" target="_top" xlink:title="io_server_listener\l::ios_listener">
<polygon fill="#ffffff" stroke="#000000" points="677.5,-88.5 677.5,-118.5 781.5,-118.5 781.5,-88.5 677.5,-88.5"/>
<text text-anchor="start" x="685.5" y="-106.5" font-family="Helvetica,sans-Serif" font-size="10.00" fill="#000000">io_server_listener</text>
<text text-anchor="middle" x="729.5" y="-95.5" font-family="Helvetica,sans-Serif" font-size="10.00" fill="#000000">::ios_listener</text>
</a>
</g>
</g>
<!-- Node201&#45;&gt;Node202 -->
<g id="edge2" class="edge">
<title>Node201&#45;&gt;Node202</title>
<path fill="none" stroke="#191970" d="M491.841,-103.5C549.2864,-103.5 626.7052,-103.5 677.3414,-103.5"/>
<polygon fill="#191970" stroke="#191970" points="491.7199,-100.0001 481.7199,-103.5 491.7198,-107.0001 491.7199,-100.0001"/>
</g>
<!-- Node203 -->
<g id="node4" class="node">
<title>Node203</title>
<g id="a_node4"><a xlink:href="namespaceio__server__listener.xhtml#a1018f7e8b758ddbedf8c1127ddb0ceea" target="_top" xlink:title="io_server_listener\l::ios_process_normal">
<polygon fill="#ffffff" stroke="#000000" points="522,-44.5 522,-74.5 641,-74.5 641,-44.5 522,-44.5"/>
<text text-anchor="start" x="530" y="-62.5" font-family="Helvetica,sans-Serif" font-size="10.00" fill="#000000">io_server_listener</text>
<text text-anchor="middle" x="581.5" y="-51.5" font-family="Helvetica,sans-Serif" font-size="10.00" fill="#000000">::ios_process_normal</text>
</a>
</g>
</g>
<!-- Node201&#45;&gt;Node203 -->
<g id="edge3" class="edge">
<title>Node201&#45;&gt;Node203</title>
<path fill="none" stroke="#191970" d="M482.1779,-85.9059C496.3549,-82.1368 511.2086,-78.1878 524.981,-74.5262"/>
<polygon fill="#191970" stroke="#191970" points="481.2578,-82.5288 472.4928,-88.4808 483.0564,-89.2938 481.2578,-82.5288"/>
</g>
<!-- Node203&#45;&gt;Node202 -->
<g id="edge5" class="edge">
<title>Node203&#45;&gt;Node202</title>
<path fill="none" stroke="#191970" d="M641.7789,-77.4207C654.1237,-81.0908 666.9965,-84.9179 678.9573,-88.4738"/>
<polygon fill="#191970" stroke="#191970" points="642.6021,-74.0141 632.0193,-74.5192 640.6072,-80.7239 642.6021,-74.0141"/>
</g>
<!-- Node204 -->
<g id="node5" class="node">
<title>Node204</title>
<g id="a_node5"><a xlink:href="namespaceio__server__listener.xhtml#a9a50c3ffaabce194980387dc9dcf691f" target="_top" xlink:title="io_server_listener\l::ios_slavelistener">
<polygon fill="#ffffff" stroke="#000000" points="677,-39.5 677,-69.5 782,-69.5 782,-39.5 677,-39.5"/>
<text text-anchor="start" x="685" y="-57.5" font-family="Helvetica,sans-Serif" font-size="10.00" fill="#000000">io_server_listener</text>
<text text-anchor="middle" x="729.5" y="-46.5" font-family="Helvetica,sans-Serif" font-size="10.00" fill="#000000">::ios_slavelistener</text>
</a>
</g>
</g>
<!-- Node203&#45;&gt;Node204 -->
<g id="edge4" class="edge">
<title>Node203&#45;&gt;Node204</title>
<path fill="none" stroke="#191970" d="M651.522,-57.1344C659.979,-56.8487 668.5055,-56.5606 676.6579,-56.2852"/>
<polygon fill="#191970" stroke="#191970" points="651.1468,-53.645 641.2707,-57.4807 651.3832,-60.641 651.1468,-53.645"/>
</g>
<!-- Node205&#45;&gt;Node203 -->
<g id="edge7" class="edge">
<title>Node205&#45;&gt;Node203</title>
<path fill="none" stroke="#191970" d="M320.2067,-59.5C379.7183,-59.5 465.1987,-59.5 521.9873,-59.5"/>
<polygon fill="#191970" stroke="#191970" points="320.1495,-56.0001 310.1495,-59.5 320.1495,-63.0001 320.1495,-56.0001"/>
</g>
<!-- Node206 -->
<g id="node7" class="node">
<title>Node206</title>
<g id="a_node7"><a xlink:href="namespaceios__queue__mod.xhtml#ad1070977bec241cf7bc78f70dbc41f45" target="_top" xlink:title="ios_queue_mod::ios\l_put_metadata_in_queue">
<polygon fill="#ffffff" stroke="#000000" points="346,-.5 346,-30.5 486,-30.5 486,-.5 346,-.5"/>
<text text-anchor="start" x="354" y="-18.5" font-family="Helvetica,sans-Serif" font-size="10.00" fill="#000000">ios_queue_mod::ios</text>
<text text-anchor="middle" x="416" y="-7.5" font-family="Helvetica,sans-Serif" font-size="10.00" fill="#000000">_put_metadata_in_queue</text>
</a>
</g>
</g>
<!-- Node205&#45;&gt;Node206 -->
<g id="edge8" class="edge">
<title>Node205&#45;&gt;Node206</title>
<path fill="none" stroke="#191970" d="M317.9836,-41.7971C331.9096,-38.0608 346.4769,-34.1525 359.9932,-30.5262"/>
<polygon fill="#191970" stroke="#191970" points="316.7323,-38.509 307.9808,-44.4808 318.5462,-45.2699 316.7323,-38.509"/>
</g>
<!-- Node206&#45;&gt;Node203 -->
<g id="edge9" class="edge">
<title>Node206&#45;&gt;Node203</title>
<path fill="none" stroke="#191970" d="M482.1779,-33.0941C496.3549,-36.8632 511.2086,-40.8122 524.981,-44.4738"/>
<polygon fill="#191970" stroke="#191970" points="483.0564,-29.7062 472.4928,-30.5192 481.2578,-36.4712 483.0564,-29.7062"/>
</g>
</g>
</svg>
