<?xml version="1.0" encoding="UTF-8" standalone="no"?>
<!DOCTYPE svg PUBLIC "-//W3C//DTD SVG 1.1//EN"
 "http://www.w3.org/Graphics/SVG/1.1/DTD/svg11.dtd">
<!-- Generated by graphviz version 2.40.1 (20161225.0304)
 -->
<!-- Title: eng_mass_diag_mod::eng_mass_diag Pages: 1 -->
<!--zoomable 236 -->
<svg id="main" version="1.1" xmlns="http://www.w3.org/2000/svg" xmlns:xlink="http://www.w3.org/1999/xlink" xml:space="preserve" onload="init(evt)">
<style type="text/css"><![CDATA[
.edge:hover path { stroke: red; }
.edge:hover polygon { stroke: red; fill: red; }
]]></style>
<script type="text/javascript"><![CDATA[
var edges = document.getElementsByTagName('g');
if (edges && edges.length) {
  for (var i=0;i<edges.length;i++) {
    if (edges[i].id.substr(0,4)=='edge') {
      edges[i].setAttribute('class','edge');
    }
  }
}
]]></script>
        <defs>
                <circle id="rim" cx="0" cy="0" r="7"/>
                <circle id="rim2" cx="0" cy="0" r="3.5"/>
                <g id="zoomPlus">
                        <use xlink:href="#rim" fill="#404040">
                                <set attributeName="fill" to="#808080" begin="zoomplus.mouseover" end="zoomplus.mouseout"/>
                        </use>
                        <path d="M-4,0h8M0,-4v8" fill="none" stroke="white" stroke-width="1.5" pointer-events="none"/>
                </g>
                <g id="zoomMin">
                        <use xlink:href="#rim" fill="#404040">
                                <set attributeName="fill" to="#808080" begin="zoomminus.mouseover" end="zoomminus.mouseout"/>
                        </use>
                        <path d="M-4,0h8" fill="none" stroke="white" stroke-width="1.5" pointer-events="none"/>
                </g>
                <g id="dirArrow">
                        <path fill="none" stroke="white" stroke-width="1.5" d="M0,-3.0v7 M-2.5,-0.5L0,-3.0L2.5,-0.5"/>
                </g>
               <g id="resetDef">
                       <use xlink:href="#rim2" fill="#404040">
                               <set attributeName="fill" to="#808080" begin="reset.mouseover" end="reset.mouseout"/>
                       </use>
               </g>
        </defs>

<script type="text/javascript">
var viewWidth = 670;
var viewHeight = 236;
var sectionId = 'dynsection-0';
</script>
<script xlink:href="svgpan.js"/>
<svg id="graph" class="graph">
<g id="viewport">
<title>eng_mass_diag_mod::eng_mass_diag</title>
<polygon fill="#ffffff" stroke="transparent" points="-4,4 -4,-232.2691 666,-232.2691 666,4 -4,4"/>
<!-- Node0 -->
<g id="node1" class="node">
<title>Node0</title>
<polygon fill="#bfbfbf" stroke="#000000" points="0,-128 0,-158 125,-158 125,-128 0,-128"/>
<text text-anchor="start" x="8" y="-146" font-family="Helvetica,sans-Serif" font-size="10.00" fill="#000000">eng_mass_diag_mod::</text>
<text text-anchor="middle" x="62.5" y="-135" font-family="Helvetica,sans-Serif" font-size="10.00" fill="#000000">eng_mass_diag</text>
</g>
<!-- Node1 -->
<g id="node2" class="node">
<title>Node1</title>
<g id="a_node2"><a xlink:href="namespaceglobal__2d__sums__mod.xhtml#ac3fe3c2679168085c4635a17e5f82215" target="_top" xlink:title="global_2d_sums_mod\l::global_2d_sums">
<polygon fill="#ffffff" stroke="#000000" points="537,-169 537,-199 659,-199 659,-169 537,-169"/>
<text text-anchor="start" x="545" y="-187" font-family="Helvetica,sans-Serif" font-size="10.00" fill="#000000">global_2d_sums_mod</text>
<text text-anchor="middle" x="598" y="-176" font-family="Helvetica,sans-Serif" font-size="10.00" fill="#000000">::global_2d_sums</text>
</a>
</g>
</g>
<!-- Node0&#45;&gt;Node1 -->
<g id="edge1" class="edge">
<title>Node0&#45;&gt;Node1</title>
<path fill="none" stroke="#191970" d="M101.1391,-158.1502C151.0083,-176.8153 240.9,-207.4692 321,-219 398.864,-230.209 420.4453,-232.1801 498,-219 516.9484,-215.7798 537.0888,-209.3572 554.2913,-202.883"/>
<polygon fill="#191970" stroke="#191970" points="555.9973,-205.975 564.0491,-199.089 553.4605,-199.4508 555.9973,-205.975"/>
</g>
<!-- Node2 -->
<g id="node3" class="node">
<title>Node2</title>
<g id="a_node3"><a xlink:href="namespacevert__eng__massq__mod.xhtml#a39301569611a709994d2aae7a457d3e1" target="_top" xlink:title="vert_eng_massq_mod\l::vert_eng_massq">
<polygon fill="#ffffff" stroke="#000000" points="161,-128 161,-158 285,-158 285,-128 161,-128"/>
<text text-anchor="start" x="169" y="-146" font-family="Helvetica,sans-Serif" font-size="10.00" fill="#000000">vert_eng_massq_mod</text>
<text text-anchor="middle" x="223" y="-135" font-family="Helvetica,sans-Serif" font-size="10.00" fill="#000000">::vert_eng_massq</text>
</a>
</g>
</g>
<!-- Node0&#45;&gt;Node2 -->
<g id="edge2" class="edge">
<title>Node0&#45;&gt;Node2</title>
<path fill="none" stroke="#191970" d="M125.0131,-143C133.4904,-143 142.2457,-143 150.8744,-143"/>
<polygon fill="#191970" stroke="#191970" points="150.9214,-146.5001 160.9214,-143 150.9214,-139.5001 150.9214,-146.5001"/>
</g>
<!-- Node8 -->
<g id="node9" class="node">
<title>Node8</title>
<g id="a_node9"><a xlink:href="namespaceumprintmgr.xhtml#aae44897e556705dbf5e945a26538be9a" target="_top" xlink:title="umprintmgr::umprint">
<polygon fill="#ffffff" stroke="#000000" points="163.5,-38.5 163.5,-57.5 282.5,-57.5 282.5,-38.5 163.5,-38.5"/>
<text text-anchor="middle" x="223" y="-45.5" font-family="Helvetica,sans-Serif" font-size="10.00" fill="#000000">umprintmgr::umprint</text>
</a>
</g>
</g>
<!-- Node0&#45;&gt;Node8 -->
<g id="edge9" class="edge">
<title>Node0&#45;&gt;Node8</title>
<path fill="none" stroke="#191970" d="M87.9317,-127.947C118.0512,-110.1192 167.9054,-80.6105 197.8855,-62.8653"/>
<polygon fill="#191970" stroke="#191970" points="199.6851,-65.8673 206.5078,-57.7617 196.1195,-59.8434 199.6851,-65.8673"/>
</g>
<!-- Node3 -->
<g id="node4" class="node">
<title>Node3</title>
<g id="a_node4"><a xlink:href="namespaceu__to__p__mod.xhtml#abec25da0a0e72ae2bd1efd5a110125fb" target="_top" xlink:title="u_to_p_mod::u_to_p">
<polygon fill="#ffffff" stroke="#000000" points="352.5,-190.5 352.5,-209.5 466.5,-209.5 466.5,-190.5 352.5,-190.5"/>
<text text-anchor="middle" x="409.5" y="-197.5" font-family="Helvetica,sans-Serif" font-size="10.00" fill="#000000">u_to_p_mod::u_to_p</text>
</a>
</g>
</g>
<!-- Node2&#45;&gt;Node3 -->
<g id="edge3" class="edge">
<title>Node2&#45;&gt;Node3</title>
<path fill="none" stroke="#191970" d="M257.9114,-158.0901C276.4145,-165.6898 299.6713,-174.6191 321,-181 329.7345,-183.6131 339.0553,-186.0176 348.2481,-188.1739"/>
<polygon fill="#191970" stroke="#191970" points="347.613,-191.6186 358.1392,-190.4143 349.1595,-184.7916 347.613,-191.6186"/>
</g>
<!-- Node4 -->
<g id="node5" class="node">
<title>Node4</title>
<g id="a_node5"><a xlink:href="namespacev__to__p__mod.xhtml#a071d83a5fb4aa87adbf487a6218a3037" target="_top" xlink:title="v_to_p_mod::v_to_p">
<polygon fill="#ffffff" stroke="#000000" points="352.5,-152.5 352.5,-171.5 466.5,-171.5 466.5,-152.5 352.5,-152.5"/>
<text text-anchor="middle" x="409.5" y="-159.5" font-family="Helvetica,sans-Serif" font-size="10.00" fill="#000000">v_to_p_mod::v_to_p</text>
</a>
</g>
</g>
<!-- Node2&#45;&gt;Node4 -->
<g id="edge4" class="edge">
<title>Node2&#45;&gt;Node4</title>
<path fill="none" stroke="#191970" d="M285.1018,-149.3267C303.4301,-151.1939 323.5721,-153.2459 342.2106,-155.1448"/>
<polygon fill="#191970" stroke="#191970" points="342.0863,-158.6501 352.3896,-156.1818 342.7958,-151.6862 342.0863,-158.6501"/>
</g>
<!-- Node5 -->
<g id="node6" class="node">
<title>Node5</title>
<g id="a_node6"><a xlink:href="swap__bounds__mv-2c_8f90.xhtml#a7ec706a27cea514039111eeb3f669540" target="_top" xlink:title="Direct MPI version of swap_bounds to deal with multiple variables. ">
<polygon fill="#ffffff" stroke="#000000" points="357.5,-76.5 357.5,-95.5 461.5,-95.5 461.5,-76.5 357.5,-76.5"/>
<text text-anchor="middle" x="409.5" y="-83.5" font-family="Helvetica,sans-Serif" font-size="10.00" fill="#000000">swap_bounds_mv</text>
</a>
</g>
</g>
<!-- Node2&#45;&gt;Node5 -->
<g id="edge5" class="edge">
<title>Node2&#45;&gt;Node5</title>
<path fill="none" stroke="#191970" d="M257.9114,-127.9099C276.4145,-120.3102 299.6713,-111.3809 321,-105 329.7345,-102.3869 339.0553,-99.9824 348.2481,-97.8261"/>
<polygon fill="#191970" stroke="#191970" points="349.1595,-101.2084 358.1392,-95.5857 347.613,-94.3814 349.1595,-101.2084"/>
</g>
<!-- Node7 -->
<g id="node8" class="node">
<title>Node7</title>
<g id="a_node8"><a xlink:href="polar__vector__wind__n_8f90.xhtml#ab3d6e08d4d489ae42dd07f5c50859b9f" target="_top" xlink:title="Subroutine Polar_Vector_Wind. ">
<polygon fill="#ffffff" stroke="#000000" points="351,-114.5 351,-133.5 468,-133.5 468,-114.5 351,-114.5"/>
<text text-anchor="middle" x="409.5" y="-121.5" font-family="Helvetica,sans-Serif" font-size="10.00" fill="#000000">polar_vector_wind_n</text>
</a>
</g>
</g>
<!-- Node2&#45;&gt;Node7 -->
<g id="edge7" class="edge">
<title>Node2&#45;&gt;Node7</title>
<path fill="none" stroke="#191970" d="M285.1018,-136.6733C302.983,-134.8516 322.5906,-132.854 340.8442,-130.9944"/>
<polygon fill="#191970" stroke="#191970" points="341.2324,-134.4731 350.8262,-129.9775 340.5229,-127.5091 341.2324,-134.4731"/>
</g>
<!-- Node6 -->
<g id="node7" class="node">
<title>Node6</title>
<g id="a_node7"><a xlink:href="fill__external__halos_8f90.xhtml#a9f4e1e061e136821fb9a51281a5e69c2" target="_top" xlink:title="Routine for filling in External Halos. ">
<polygon fill="#ffffff" stroke="#000000" points="545,-76.5 545,-95.5 651,-95.5 651,-76.5 545,-76.5"/>
<text text-anchor="middle" x="598" y="-83.5" font-family="Helvetica,sans-Serif" font-size="10.00" fill="#000000">fill_external_halos</text>
</a>
</g>
</g>
<!-- Node5&#45;&gt;Node6 -->
<g id="edge6" class="edge">
<title>Node5&#45;&gt;Node6</title>
<path fill="none" stroke="#191970" d="M461.5074,-86C484.2014,-86 511.0151,-86 534.8429,-86"/>
<polygon fill="#191970" stroke="#191970" points="534.8513,-89.5001 544.8513,-86 534.8512,-82.5001 534.8513,-89.5001"/>
</g>
<!-- Node7&#45;&gt;Node1 -->
<g id="edge8" class="edge">
<title>Node7&#45;&gt;Node1</title>
<path fill="none" stroke="#191970" d="M461.3766,-133.5246C473.5014,-136.1942 486.2911,-139.3743 498,-143 517.3579,-148.9942 538.1805,-157.2279 555.7865,-164.7447"/>
<polygon fill="#191970" stroke="#191970" points="554.6399,-168.0623 565.207,-168.8282 557.4239,-161.6398 554.6399,-168.0623"/>
</g>
<!-- Node9 -->
<g id="node10" class="node">
<title>Node9</title>
<g id="a_node10"><a xlink:href="namespaceumprintmgr.xhtml#a088ce22a18d574e9df7ee1850bfb10c7" target="_top" xlink:title="umprintmgr::umprintopenstream">
<polygon fill="#ffffff" stroke="#000000" points="321,-38.5 321,-57.5 498,-57.5 498,-38.5 321,-38.5"/>
<text text-anchor="middle" x="409.5" y="-45.5" font-family="Helvetica,sans-Serif" font-size="10.00" fill="#000000">umprintmgr::umprintopenstream</text>
</a>
</g>
</g>
<!-- Node8&#45;&gt;Node9 -->
<g id="edge10" class="edge">
<title>Node8&#45;&gt;Node9</title>
<path fill="none" stroke="#191970" d="M282.5225,-41.6588C291.6212,-41.4288 301.215,-41.2958 310.886,-41.2599"/>
<polygon fill="#191970" stroke="#191970" points="310.9755,-44.76 320.9747,-41.2577 310.9739,-37.76 310.9755,-44.76"/>
</g>
<!-- Node10 -->
<g id="node11" class="node">
<title>Node10</title>
<g id="a_node11"><a xlink:href="namespaceumprintmgr.xhtml#ad3a290b30a6e25500eabc0bf90330b77" target="_top" xlink:title="umprintmgr::umprintflush">
<polygon fill="#ffffff" stroke="#000000" points="338.5,-.5 338.5,-19.5 480.5,-19.5 480.5,-.5 338.5,-.5"/>
<text text-anchor="middle" x="409.5" y="-7.5" font-family="Helvetica,sans-Serif" font-size="10.00" fill="#000000">umprintmgr::umprintflush</text>
</a>
</g>
</g>
<!-- Node8&#45;&gt;Node10 -->
<g id="edge12" class="edge">
<title>Node8&#45;&gt;Node10</title>
<path fill="none" stroke="#191970" d="M270.0618,-38.411C295.2268,-33.2835 326.3958,-26.9328 352.8786,-21.5368"/>
<polygon fill="#191970" stroke="#191970" points="353.6767,-24.9462 362.7766,-19.5201 352.2791,-18.0871 353.6767,-24.9462"/>
</g>
<!-- Node9&#45;&gt;Node8 -->
<g id="edge11" class="edge">
<title>Node9&#45;&gt;Node8</title>
<path fill="none" stroke="#191970" d="M320.9747,-54.7423C311.5041,-54.7732 301.9685,-54.7111 292.7597,-54.5559"/>
<polygon fill="#191970" stroke="#191970" points="292.5938,-51.0518 282.5225,-54.3412 292.4469,-58.0502 292.5938,-51.0518"/>
</g>
<!-- Node11 -->
<g id="node12" class="node">
<title>Node11</title>
<g id="a_node12"><a xlink:href="namespaceumflush__mod.xhtml#a3a003ab59990bdcb712b443dd5e0d1cd" target="_top" xlink:title="umflush_mod::umflush">
<polygon fill="#ffffff" stroke="#000000" points="534,-.5 534,-19.5 662,-19.5 662,-.5 534,-.5"/>
<text text-anchor="middle" x="598" y="-7.5" font-family="Helvetica,sans-Serif" font-size="10.00" fill="#000000">umflush_mod::umflush</text>
</a>
</g>
</g>
<!-- Node10&#45;&gt;Node11 -->
<g id="edge13" class="edge">
<title>Node10&#45;&gt;Node11</title>
<path fill="none" stroke="#191970" d="M480.7638,-10C494.7742,-10 509.5063,-10 523.6162,-10"/>
<polygon fill="#191970" stroke="#191970" points="523.7612,-13.5001 533.7611,-10 523.7611,-6.5001 523.7612,-13.5001"/>
</g>
</g>
</svg>
        <g id="navigator" transform="translate(0 0)" fill="#404254">
                <rect fill="#f2f5e9" fill-opacity="0.5" stroke="#606060" stroke-width=".5" x="0" y="0" width="60" height="60"/>
                <use id="zoomplus" xlink:href="#zoomPlus" x="17" y="9" onmousedown="handleZoom(evt,'in')"/>
                <use id="zoomminus" xlink:href="#zoomMin" x="42" y="9" onmousedown="handleZoom(evt,'out')"/>
                <use id="reset" xlink:href="#resetDef" x="30" y="36" onmousedown="handleReset()"/>
                <g id="arrowUp" xlink:href="#dirArrow" transform="translate(30 24)" onmousedown="handlePan(0,-1)">
                  <use xlink:href="#rim" fill="#404040">
                        <set attributeName="fill" to="#808080" begin="arrowUp.mouseover" end="arrowUp.mouseout"/>
                  </use>
                  <path fill="none" stroke="white" stroke-width="1.5" d="M0,-3.0v7 M-2.5,-0.5L0,-3.0L2.5,-0.5"/>
                </g>
                <g id="arrowRight" xlink:href="#dirArrow" transform="rotate(90) translate(36 -43)" onmousedown="handlePan(1,0)">
                  <use xlink:href="#rim" fill="#404040">
                        <set attributeName="fill" to="#808080" begin="arrowRight.mouseover" end="arrowRight.mouseout"/>
                  </use>
                  <path fill="none" stroke="white" stroke-width="1.5" d="M0,-3.0v7 M-2.5,-0.5L0,-3.0L2.5,-0.5"/>
                </g>
                <g id="arrowDown" xlink:href="#dirArrow" transform="rotate(180) translate(-30 -48)" onmousedown="handlePan(0,1)">
                  <use xlink:href="#rim" fill="#404040">
                        <set attributeName="fill" to="#808080" begin="arrowDown.mouseover" end="arrowDown.mouseout"/>
                  </use>
                  <path fill="none" stroke="white" stroke-width="1.5" d="M0,-3.0v7 M-2.5,-0.5L0,-3.0L2.5,-0.5"/>
                </g>
                <g id="arrowLeft" xlink:href="#dirArrow" transform="rotate(270) translate(-36 17)" onmousedown="handlePan(-1,0)">
                  <use xlink:href="#rim" fill="#404040">
                        <set attributeName="fill" to="#808080" begin="arrowLeft.mouseover" end="arrowLeft.mouseout"/>
                  </use>
                  <path fill="none" stroke="white" stroke-width="1.5" d="M0,-3.0v7 M-2.5,-0.5L0,-3.0L2.5,-0.5"/>
                </g>
        </g>
        <svg viewBox="0 0 15 15" width="100%" height="30px" preserveAspectRatio="xMaxYMin meet">
         <g id="arrow_out" transform="scale(0.3 0.3)">
          <a xlink:href="namespaceeng__mass__diag__mod_a5c0f2c363eb3ad1724717da4937554ba_cgraph_org.svg" target="_base">
           <rect id="button" ry="5" rx="5" y="6" x="6" height="38" width="38"
                fill="#f2f5e9" fill-opacity="0.5" stroke="#606060" stroke-width="1.0"/>
           <path id="arrow"
             d="M 11.500037,31.436501 C 11.940474,20.09759 22.043105,11.32322 32.158766,21.979434 L 37.068811,17.246167 C 37.068811,17.246167 37.088388,32 37.088388,32 L 22.160133,31.978069 C 22.160133,31.978069 26.997745,27.140456 26.997745,27.140456 C 18.528582,18.264221 13.291696,25.230495 11.500037,31.436501 z"
             style="fill:#404040;"/>
          </a>
         </g>
        </svg>
</svg>
