<?xml version="1.0" encoding="UTF-8" standalone="no"?>
<!DOCTYPE svg PUBLIC "-//W3C//DTD SVG 1.1//EN"
 "http://www.w3.org/Graphics/SVG/1.1/DTD/svg11.dtd">
<!-- Generated by graphviz version 2.40.1 (20161225.0304)
 -->
<!-- Title: addinc_mod::addinc Pages: 1 -->
<svg width="733pt" height="66pt"
 viewBox="0.00 0.00 733.00 66.00" xmlns="http://www.w3.org/2000/svg" xmlns:xlink="http://www.w3.org/1999/xlink">
<g id="graph0" class="graph" transform="scale(1 1) rotate(0) translate(4 62)">
<title>addinc_mod::addinc</title>
<polygon fill="#ffffff" stroke="transparent" points="-4,4 -4,-62 729,-62 729,4 -4,4"/>
<!-- Node0 -->
<g id="node1" class="node">
<title>Node0</title>
<polygon fill="#bfbfbf" stroke="#000000" points="0,-38.5 0,-57.5 114,-57.5 114,-38.5 0,-38.5"/>
<text text-anchor="middle" x="57" y="-45.5" font-family="Helvetica,sans-Serif" font-size="10.00" fill="#000000">addinc_mod::addinc</text>
</g>
<!-- Node1 -->
<g id="node2" class="node">
<title>Node1</title>
<g id="a_node2"><a xlink:href="timer-timer1a_8f90.xhtml#a9ec0272078965f809aa1a1cbc6a05ea4" target="_top" xlink:title="timer">
<polygon fill="#ffffff" stroke="#000000" points="150,-38.5 150,-57.5 193,-57.5 193,-38.5 150,-38.5"/>
<text text-anchor="middle" x="171.5" y="-45.5" font-family="Helvetica,sans-Serif" font-size="10.00" fill="#000000">timer</text>
</a>
</g>
</g>
<!-- Node0&#45;&gt;Node1 -->
<g id="edge1" class="edge">
<title>Node0&#45;&gt;Node1</title>
<path fill="none" stroke="#191970" d="M114.25,-48C123.0136,-48 131.7772,-48 139.7194,-48"/>
<polygon fill="#191970" stroke="#191970" points="139.9635,-51.5001 149.9634,-48 139.9634,-44.5001 139.9635,-51.5001"/>
</g>
<!-- Node2 -->
<g id="node3" class="node">
<title>Node2</title>
<g id="a_node3"><a xlink:href="namespaceumprintmgr.xhtml#aae44897e556705dbf5e945a26538be9a" target="_top" xlink:title="umprintmgr::umprint">
<polygon fill="#ffffff" stroke="#000000" points="229,-38.5 229,-57.5 348,-57.5 348,-38.5 229,-38.5"/>
<text text-anchor="middle" x="288.5" y="-45.5" font-family="Helvetica,sans-Serif" font-size="10.00" fill="#000000">umprintmgr::umprint</text>
</a>
</g>
</g>
<!-- Node1&#45;&gt;Node2 -->
<g id="edge2" class="edge">
<title>Node1&#45;&gt;Node2</title>
<path fill="none" stroke="#191970" d="M193.2326,-48C200.7064,-48 209.5267,-48 218.7339,-48"/>
<polygon fill="#191970" stroke="#191970" points="218.8312,-51.5001 228.8312,-48 218.8311,-44.5001 218.8312,-51.5001"/>
</g>
<!-- Node3 -->
<g id="node4" class="node">
<title>Node3</title>
<g id="a_node4"><a xlink:href="namespaceumprintmgr.xhtml#a088ce22a18d574e9df7ee1850bfb10c7" target="_top" xlink:title="umprintmgr::umprintopenstream">
<polygon fill="#ffffff" stroke="#000000" points="384,-38.5 384,-57.5 561,-57.5 561,-38.5 384,-38.5"/>
<text text-anchor="middle" x="472.5" y="-45.5" font-family="Helvetica,sans-Serif" font-size="10.00" fill="#000000">umprintmgr::umprintopenstream</text>
</a>
</g>
</g>
<!-- Node2&#45;&gt;Node3 -->
<g id="edge3" class="edge">
<title>Node2&#45;&gt;Node3</title>
<path fill="none" stroke="#191970" d="M348.2395,-41.6333C356.4605,-41.4301 365.0751,-41.3077 373.7702,-41.2661"/>
<polygon fill="#191970" stroke="#191970" points="373.9998,-44.7659 383.9958,-41.2543 373.9917,-37.7659 373.9998,-44.7659"/>
</g>
<!-- Node4 -->
<g id="node5" class="node">
<title>Node4</title>
<g id="a_node5"><a xlink:href="namespaceumprintmgr.xhtml#ad3a290b30a6e25500eabc0bf90330b77" target="_top" xlink:title="umprintmgr::umprintflush">
<polygon fill="#ffffff" stroke="#000000" points="401.5,-.5 401.5,-19.5 543.5,-19.5 543.5,-.5 401.5,-.5"/>
<text text-anchor="middle" x="472.5" y="-7.5" font-family="Helvetica,sans-Serif" font-size="10.00" fill="#000000">umprintmgr::umprintflush</text>
</a>
</g>
</g>
<!-- Node2&#45;&gt;Node4 -->
<g id="edge5" class="edge">
<title>Node2&#45;&gt;Node4</title>
<path fill="none" stroke="#191970" d="M334.931,-38.411C359.6493,-33.3061 390.239,-26.9887 416.292,-21.6082"/>
<polygon fill="#191970" stroke="#191970" points="417.3175,-24.9703 426.4029,-19.5201 415.9017,-18.115 417.3175,-24.9703"/>
</g>
<!-- Node3&#45;&gt;Node2 -->
<g id="edge4" class="edge">
<title>Node3&#45;&gt;Node2</title>
<path fill="none" stroke="#191970" d="M383.9958,-54.7457C375.3802,-54.767 366.7236,-54.7094 358.3289,-54.5727"/>
<polygon fill="#191970" stroke="#191970" points="358.3089,-51.0716 348.2395,-54.3667 358.166,-58.0702 358.3089,-51.0716"/>
</g>
<!-- Node5 -->
<g id="node6" class="node">
<title>Node5</title>
<g id="a_node6"><a xlink:href="namespaceumflush__mod.xhtml#a3a003ab59990bdcb712b443dd5e0d1cd" target="_top" xlink:title="umflush_mod::umflush">
<polygon fill="#ffffff" stroke="#000000" points="597,-.5 597,-19.5 725,-19.5 725,-.5 597,-.5"/>
<text text-anchor="middle" x="661" y="-7.5" font-family="Helvetica,sans-Serif" font-size="10.00" fill="#000000">umflush_mod::umflush</text>
</a>
</g>
</g>
<!-- Node4&#45;&gt;Node5 -->
<g id="edge6" class="edge">
<title>Node4&#45;&gt;Node5</title>
<path fill="none" stroke="#191970" d="M543.7638,-10C557.7742,-10 572.5063,-10 586.6162,-10"/>
<polygon fill="#191970" stroke="#191970" points="586.7612,-13.5001 596.7611,-10 586.7611,-6.5001 586.7612,-13.5001"/>
</g>
</g>
</svg>
