<?xml version="1.0" encoding="UTF-8" standalone="no"?>
<!DOCTYPE svg PUBLIC "-//W3C//DTD SVG 1.1//EN"
 "http://www.w3.org/Graphics/SVG/1.1/DTD/svg11.dtd">
<!-- Generated by graphviz version 2.40.1 (20161225.0304)
 -->
<!-- Title: rcf_locate_alt_field_mod::rcf_locate_alt_field Pages: 1 -->
<!--zoomable 61 -->
<svg id="main" version="1.1" xmlns="http://www.w3.org/2000/svg" xmlns:xlink="http://www.w3.org/1999/xlink" xml:space="preserve" onload="init(evt)">
<style type="text/css"><![CDATA[
.edge:hover path { stroke: red; }
.edge:hover polygon { stroke: red; fill: red; }
]]></style>
<script type="text/javascript"><![CDATA[
var edges = document.getElementsByTagName('g');
if (edges && edges.length) {
  for (var i=0;i<edges.length;i++) {
    if (edges[i].id.substr(0,4)=='edge') {
      edges[i].setAttribute('class','edge');
    }
  }
}
]]></script>
        <defs>
                <circle id="rim" cx="0" cy="0" r="7"/>
                <circle id="rim2" cx="0" cy="0" r="3.5"/>
                <g id="zoomPlus">
                        <use xlink:href="#rim" fill="#404040">
                                <set attributeName="fill" to="#808080" begin="zoomplus.mouseover" end="zoomplus.mouseout"/>
                        </use>
                        <path d="M-4,0h8M0,-4v8" fill="none" stroke="white" stroke-width="1.5" pointer-events="none"/>
                </g>
                <g id="zoomMin">
                        <use xlink:href="#rim" fill="#404040">
                                <set attributeName="fill" to="#808080" begin="zoomminus.mouseover" end="zoomminus.mouseout"/>
                        </use>
                        <path d="M-4,0h8" fill="none" stroke="white" stroke-width="1.5" pointer-events="none"/>
                </g>
                <g id="dirArrow">
                        <path fill="none" stroke="white" stroke-width="1.5" d="M0,-3.0v7 M-2.5,-0.5L0,-3.0L2.5,-0.5"/>
                </g>
               <g id="resetDef">
                       <use xlink:href="#rim2" fill="#404040">
                               <set attributeName="fill" to="#808080" begin="reset.mouseover" end="reset.mouseout"/>
                       </use>
               </g>
        </defs>

<script type="text/javascript">
var viewWidth = 749;
var viewHeight = 61;
var sectionId = 'dynsection-1';
</script>
<script xlink:href="svgpan.js"/>
<svg id="graph" class="graph">
<g id="viewport">
<title>rcf_locate_alt_field_mod::rcf_locate_alt_field</title>
<polygon fill="#ffffff" stroke="transparent" points="-4,4 -4,-57 745,-57 745,4 -4,4"/>
<!-- Node176 -->
<g id="node1" class="node">
<title>Node176</title>
<polygon fill="#bfbfbf" stroke="#000000" points="0,-22.5 0,-52.5 142,-52.5 142,-22.5 0,-22.5"/>
<text text-anchor="start" x="8" y="-40.5" font-family="Helvetica,sans-Serif" font-size="10.00" fill="#000000">rcf_locate_alt_field</text>
<text text-anchor="middle" x="71" y="-29.5" font-family="Helvetica,sans-Serif" font-size="10.00" fill="#000000">_mod::rcf_locate_alt_field</text>
</g>
<!-- Node177 -->
<g id="node2" class="node">
<title>Node177</title>
<g id="a_node2"><a xlink:href="namespacercf__create__dump__mod.xhtml#a2f1f869ea648718c07cc083ce73c40c9" target="_top" xlink:title="Subroutine Rcf_Create_Dump &#45; main dump creation loop. ">
<polygon fill="#ffffff" stroke="#000000" points="359,-22.5 359,-52.5 484,-52.5 484,-22.5 359,-22.5"/>
<text text-anchor="start" x="367" y="-40.5" font-family="Helvetica,sans-Serif" font-size="10.00" fill="#000000">rcf_create_dump_mod</text>
<text text-anchor="middle" x="421.5" y="-29.5" font-family="Helvetica,sans-Serif" font-size="10.00" fill="#000000">::rcf_create_dump</text>
</a>
</g>
</g>
<!-- Node176&#45;&gt;Node177 -->
<g id="edge1" class="edge">
<title>Node176&#45;&gt;Node177</title>
<path fill="none" stroke="#191970" d="M152.2476,-40.0167C160.9401,-40.2147 169.6527,-40.383 178,-40.5 242.4381,-41.4032 258.563,-41.481 323,-40.5 334.6325,-40.3229 347.0351,-40.0282 358.9779,-39.6909"/>
<polygon fill="#191970" stroke="#191970" points="152.1569,-36.5136 142.0755,-39.7719 151.9884,-43.5116 152.1569,-36.5136"/>
</g>
<!-- Node180 -->
<g id="node5" class="node">
<title>Node180</title>
<g id="a_node5"><a xlink:href="namespacercf__set__interp__flags__mod.xhtml#aaa6f3901228330eb9e9a6c1a2f94883f" target="_top" xlink:title="Subroutine to set interp flags for intput fields based on h_int_active, v_int_active and internal rul...">
<polygon fill="#ffffff" stroke="#000000" points="178,-.5 178,-30.5 323,-30.5 323,-.5 178,-.5"/>
<text text-anchor="start" x="186" y="-18.5" font-family="Helvetica,sans-Serif" font-size="10.00" fill="#000000">rcf_set_interp_flags</text>
<text text-anchor="middle" x="250.5" y="-7.5" font-family="Helvetica,sans-Serif" font-size="10.00" fill="#000000">_mod::rcf_set_interp_flags</text>
</a>
</g>
</g>
<!-- Node176&#45;&gt;Node180 -->
<g id="edge4" class="edge">
<title>Node176&#45;&gt;Node180</title>
<path fill="none" stroke="#191970" d="M152.1977,-27.5482C160.7706,-26.4975 169.4486,-25.4339 177.9149,-24.3962"/>
<polygon fill="#191970" stroke="#191970" points="151.7009,-24.0828 142.201,-28.7734 152.5525,-31.0308 151.7009,-24.0828"/>
</g>
<!-- Node178 -->
<g id="node3" class="node">
<title>Node178</title>
<g id="a_node3"><a xlink:href="namespacercf__control__mod.xhtml#a3ac6d1c6311ded848ddd750726da301a" target="_top" xlink:title="Subroutine Rcf_Control &#45; main control routine. ">
<polygon fill="#ffffff" stroke="#000000" points="520,-22.5 520,-52.5 634,-52.5 634,-22.5 520,-22.5"/>
<text text-anchor="start" x="528" y="-40.5" font-family="Helvetica,sans-Serif" font-size="10.00" fill="#000000">rcf_control_mod::rcf</text>
<text text-anchor="middle" x="577" y="-29.5" font-family="Helvetica,sans-Serif" font-size="10.00" fill="#000000">_control</text>
</a>
</g>
</g>
<!-- Node177&#45;&gt;Node178 -->
<g id="edge2" class="edge">
<title>Node177&#45;&gt;Node178</title>
<path fill="none" stroke="#191970" d="M494.3443,-37.5C502.9541,-37.5 511.6445,-37.5 519.9908,-37.5"/>
<polygon fill="#191970" stroke="#191970" points="494.2996,-34.0001 484.2996,-37.5 494.2995,-41.0001 494.2996,-34.0001"/>
</g>
<!-- Node179 -->
<g id="node4" class="node">
<title>Node179</title>
<g id="a_node4"><a xlink:href="reconfigure_8f90.xhtml#a55389899cfceedbb4b0f908c73988c0c" target="_top" xlink:title="Top level program for reconfiguration. ">
<polygon fill="#ffffff" stroke="#000000" points="670,-28 670,-47 741,-47 741,-28 670,-28"/>
<text text-anchor="middle" x="705.5" y="-35" font-family="Helvetica,sans-Serif" font-size="10.00" fill="#000000">reconfigure</text>
</a>
</g>
</g>
<!-- Node178&#45;&gt;Node179 -->
<g id="edge3" class="edge">
<title>Node178&#45;&gt;Node179</title>
<path fill="none" stroke="#191970" d="M644.159,-37.5C653.0636,-37.5 661.8936,-37.5 669.9628,-37.5"/>
<polygon fill="#191970" stroke="#191970" points="644.1103,-34.0001 634.1103,-37.5 644.1103,-41.0001 644.1103,-34.0001"/>
</g>
<!-- Node180&#45;&gt;Node177 -->
<g id="edge5" class="edge">
<title>Node180&#45;&gt;Node177</title>
<path fill="none" stroke="#191970" d="M333.1413,-26.1322C341.7972,-27.2458 350.4921,-28.3645 358.8707,-29.4424"/>
<polygon fill="#191970" stroke="#191970" points="333.3843,-22.6347 323.0194,-24.83 332.491,-29.5775 333.3843,-22.6347"/>
</g>
</g>
</svg>
        <g id="navigator" transform="translate(0 0)" fill="#404254">
                <rect fill="#f2f5e9" fill-opacity="0.5" stroke="#606060" stroke-width=".5" x="0" y="0" width="60" height="60"/>
                <use id="zoomplus" xlink:href="#zoomPlus" x="17" y="9" onmousedown="handleZoom(evt,'in')"/>
                <use id="zoomminus" xlink:href="#zoomMin" x="42" y="9" onmousedown="handleZoom(evt,'out')"/>
                <use id="reset" xlink:href="#resetDef" x="30" y="36" onmousedown="handleReset()"/>
                <g id="arrowUp" xlink:href="#dirArrow" transform="translate(30 24)" onmousedown="handlePan(0,-1)">
                  <use xlink:href="#rim" fill="#404040">
                        <set attributeName="fill" to="#808080" begin="arrowUp.mouseover" end="arrowUp.mouseout"/>
                  </use>
                  <path fill="none" stroke="white" stroke-width="1.5" d="M0,-3.0v7 M-2.5,-0.5L0,-3.0L2.5,-0.5"/>
                </g>
                <g id="arrowRight" xlink:href="#dirArrow" transform="rotate(90) translate(36 -43)" onmousedown="handlePan(1,0)">
                  <use xlink:href="#rim" fill="#404040">
                        <set attributeName="fill" to="#808080" begin="arrowRight.mouseover" end="arrowRight.mouseout"/>
                  </use>
                  <path fill="none" stroke="white" stroke-width="1.5" d="M0,-3.0v7 M-2.5,-0.5L0,-3.0L2.5,-0.5"/>
                </g>
                <g id="arrowDown" xlink:href="#dirArrow" transform="rotate(180) translate(-30 -48)" onmousedown="handlePan(0,1)">
                  <use xlink:href="#rim" fill="#404040">
                        <set attributeName="fill" to="#808080" begin="arrowDown.mouseover" end="arrowDown.mouseout"/>
                  </use>
                  <path fill="none" stroke="white" stroke-width="1.5" d="M0,-3.0v7 M-2.5,-0.5L0,-3.0L2.5,-0.5"/>
                </g>
                <g id="arrowLeft" xlink:href="#dirArrow" transform="rotate(270) translate(-36 17)" onmousedown="handlePan(-1,0)">
                  <use xlink:href="#rim" fill="#404040">
                        <set attributeName="fill" to="#808080" begin="arrowLeft.mouseover" end="arrowLeft.mouseout"/>
                  </use>
                  <path fill="none" stroke="white" stroke-width="1.5" d="M0,-3.0v7 M-2.5,-0.5L0,-3.0L2.5,-0.5"/>
                </g>
        </g>
        <svg viewBox="0 0 15 15" width="100%" height="30px" preserveAspectRatio="xMaxYMin meet">
         <g id="arrow_out" transform="scale(0.3 0.3)">
          <a xlink:href="namespacercf__locate__alt__field__mod_aac85930abee835d42d48628a47c31dc4_icgraph_org.svg" target="_base">
           <rect id="button" ry="5" rx="5" y="6" x="6" height="38" width="38"
                fill="#f2f5e9" fill-opacity="0.5" stroke="#606060" stroke-width="1.0"/>
           <path id="arrow"
             d="M 11.500037,31.436501 C 11.940474,20.09759 22.043105,11.32322 32.158766,21.979434 L 37.068811,17.246167 C 37.068811,17.246167 37.088388,32 37.088388,32 L 22.160133,31.978069 C 22.160133,31.978069 26.997745,27.140456 26.997745,27.140456 C 18.528582,18.264221 13.291696,25.230495 11.500037,31.436501 z"
             style="fill:#404040;"/>
          </a>
         </g>
        </svg>
</svg>
