<?xml version="1.0" encoding="UTF-8" standalone="no"?>
<!DOCTYPE svg PUBLIC "-//W3C//DTD SVG 1.1//EN"
 "http://www.w3.org/Graphics/SVG/1.1/DTD/svg11.dtd">
<!-- Generated by graphviz version 2.40.1 (20161225.0304)
 -->
<!-- Title: ukca_new_emiss_ctl_mod::ukca_new_emiss_ctl Pages: 1 -->
<!--zoomable 700 -->
<svg id="main" version="1.1" xmlns="http://www.w3.org/2000/svg" xmlns:xlink="http://www.w3.org/1999/xlink" xml:space="preserve" onload="init(evt)">
<style type="text/css"><![CDATA[
.edge:hover path { stroke: red; }
.edge:hover polygon { stroke: red; fill: red; }
]]></style>
<script type="text/javascript"><![CDATA[
var edges = document.getElementsByTagName('g');
if (edges && edges.length) {
  for (var i=0;i<edges.length;i++) {
    if (edges[i].id.substr(0,4)=='edge') {
      edges[i].setAttribute('class','edge');
    }
  }
}
]]></script>
        <defs>
                <circle id="rim" cx="0" cy="0" r="7"/>
                <circle id="rim2" cx="0" cy="0" r="3.5"/>
                <g id="zoomPlus">
                        <use xlink:href="#rim" fill="#404040">
                                <set attributeName="fill" to="#808080" begin="zoomplus.mouseover" end="zoomplus.mouseout"/>
                        </use>
                        <path d="M-4,0h8M0,-4v8" fill="none" stroke="white" stroke-width="1.5" pointer-events="none"/>
                </g>
                <g id="zoomMin">
                        <use xlink:href="#rim" fill="#404040">
                                <set attributeName="fill" to="#808080" begin="zoomminus.mouseover" end="zoomminus.mouseout"/>
                        </use>
                        <path d="M-4,0h8" fill="none" stroke="white" stroke-width="1.5" pointer-events="none"/>
                </g>
                <g id="dirArrow">
                        <path fill="none" stroke="white" stroke-width="1.5" d="M0,-3.0v7 M-2.5,-0.5L0,-3.0L2.5,-0.5"/>
                </g>
               <g id="resetDef">
                       <use xlink:href="#rim2" fill="#404040">
                               <set attributeName="fill" to="#808080" begin="reset.mouseover" end="reset.mouseout"/>
                       </use>
               </g>
        </defs>

<script type="text/javascript">
var viewWidth = 1277;
var viewHeight = 700;
var sectionId = 'dynsection-0';
</script>
<script xlink:href="svgpan.js"/>
<svg id="graph" class="graph">
<g id="viewport">
<title>ukca_new_emiss_ctl_mod::ukca_new_emiss_ctl</title>
<polygon fill="#ffffff" stroke="transparent" points="-4,4 -4,-696.1247 1273,-696.1247 1273,4 -4,4"/>
<!-- Node0 -->
<g id="node1" class="node">
<title>Node0</title>
<polygon fill="#bfbfbf" stroke="#000000" points="0,-423.5 0,-453.5 150,-453.5 150,-423.5 0,-423.5"/>
<text text-anchor="start" x="8" y="-441.5" font-family="Helvetica,sans-Serif" font-size="10.00" fill="#000000">ukca_new_emiss_ctl</text>
<text text-anchor="middle" x="75" y="-430.5" font-family="Helvetica,sans-Serif" font-size="10.00" fill="#000000">_mod::ukca_new_emiss_ctl</text>
</g>
<!-- Node1 -->
<g id="node2" class="node">
<title>Node1</title>
<g id="a_node2"><a xlink:href="namespaceukca__emiss__factors.xhtml#ae481d1e7ed1570d9e9b6ffafd3e1ac23" target="_top" xlink:title="Determine the factors needed to inject emissions in each model level. This may be used to add emissio...">
<polygon fill="#ffffff" stroke="#000000" points="363,-497.5 363,-527.5 496,-527.5 496,-497.5 363,-497.5"/>
<text text-anchor="start" x="371" y="-515.5" font-family="Helvetica,sans-Serif" font-size="10.00" fill="#000000">ukca_emiss_factors</text>
<text text-anchor="middle" x="429.5" y="-504.5" font-family="Helvetica,sans-Serif" font-size="10.00" fill="#000000">::vertical_emiss_factors</text>
</a>
</g>
</g>
<!-- Node0&#45;&gt;Node1 -->
<g id="edge1" class="edge">
<title>Node0&#45;&gt;Node1</title>
<path fill="none" stroke="#191970" d="M147.1657,-453.5642C206.9969,-466.0537 291.8297,-483.762 352.8641,-496.5027"/>
<polygon fill="#191970" stroke="#191970" points="352.3235,-499.9652 362.8278,-498.5825 353.754,-493.1129 352.3235,-499.9652"/>
</g>
<!-- Node2 -->
<g id="node3" class="node">
<title>Node2</title>
<g id="a_node3"><a xlink:href="namespaceumprintmgr.xhtml#aae44897e556705dbf5e945a26538be9a" target="_top" xlink:title="umprintmgr::umprint">
<polygon fill="#ffffff" stroke="#000000" points="765,-547 765,-566 884,-566 884,-547 765,-547"/>
<text text-anchor="middle" x="824.5" y="-554" font-family="Helvetica,sans-Serif" font-size="10.00" fill="#000000">umprintmgr::umprint</text>
</a>
</g>
</g>
<!-- Node0&#45;&gt;Node2 -->
<g id="edge39" class="edge">
<title>Node0&#45;&gt;Node2</title>
<path fill="none" stroke="#191970" d="M80.7113,-453.6097C93.9349,-486.5005 129.8779,-564.8823 186,-605.5 248.3664,-650.6369 276.9747,-639.3727 353,-651.5 514.5619,-677.2717 569.9247,-723.2908 721,-660.5 762.9239,-643.0753 796.6396,-599.5031 813.2554,-574.6379"/>
<polygon fill="#191970" stroke="#191970" points="816.2744,-576.4147 818.7678,-566.1175 810.3972,-572.6124 816.2744,-576.4147"/>
</g>
<!-- Node8 -->
<g id="node9" class="node">
<title>Node8</title>
<g id="a_node9"><a xlink:href="namespaceukca__emiss__factors.xhtml#a6b9020d21eb93427252e4c718067a478" target="_top" xlink:title="ukca_emiss_factors\l::base_emiss_factors">
<polygon fill="#ffffff" stroke="#000000" points="192,-167.5 192,-197.5 311,-197.5 311,-167.5 192,-167.5"/>
<text text-anchor="start" x="200" y="-185.5" font-family="Helvetica,sans-Serif" font-size="10.00" fill="#000000">ukca_emiss_factors</text>
<text text-anchor="middle" x="251.5" y="-174.5" font-family="Helvetica,sans-Serif" font-size="10.00" fill="#000000">::base_emiss_factors</text>
</a>
</g>
</g>
<!-- Node0&#45;&gt;Node8 -->
<g id="edge10" class="edge">
<title>Node0&#45;&gt;Node8</title>
<path fill="none" stroke="#191970" d="M82.1691,-423.4021C98.2998,-390.1547 139.6798,-308.7827 186,-248.5 198.0551,-232.811 213.5805,-217.0166 226.4902,-204.8138"/>
<polygon fill="#191970" stroke="#191970" points="229.1903,-207.0828 234.1359,-197.7131 224.4267,-201.9537 229.1903,-207.0828"/>
</g>
<!-- Node10 -->
<g id="node11" class="node">
<title>Node10</title>
<g id="a_node11"><a xlink:href="namespaceukca__add__emiss__mod.xhtml#ac794e986c27f0edc65a75f3d3126c71e" target="_top" xlink:title="ukca_add_emiss_mod\l::ukca_add_emiss">
<polygon fill="#ffffff" stroke="#000000" points="367,-301.5 367,-331.5 492,-331.5 492,-301.5 367,-301.5"/>
<text text-anchor="start" x="375" y="-319.5" font-family="Helvetica,sans-Serif" font-size="10.00" fill="#000000">ukca_add_emiss_mod</text>
<text text-anchor="middle" x="429.5" y="-308.5" font-family="Helvetica,sans-Serif" font-size="10.00" fill="#000000">::ukca_add_emiss</text>
</a>
</g>
</g>
<!-- Node0&#45;&gt;Node10 -->
<g id="edge12" class="edge">
<title>Node0&#45;&gt;Node10</title>
<path fill="none" stroke="#191970" d="M118.8242,-423.418C183.9329,-401.0111 306.0522,-358.9841 376.2296,-334.8328"/>
<polygon fill="#191970" stroke="#191970" points="377.4592,-338.1112 385.7759,-331.5475 375.1812,-331.4922 377.4592,-338.1112"/>
</g>
<!-- Node22 -->
<g id="node23" class="node">
<title>Node22</title>
<g id="a_node23"><a xlink:href="ukca__emiss__diags__mod_8f90.xhtml#adde92d6eff6e1e72a69a81710c0f50f9" target="_top" xlink:title="(based on NetCDF input emissions). ">
<polygon fill="#ffffff" stroke="#000000" points="198.5,-258 198.5,-277 304.5,-277 304.5,-258 198.5,-258"/>
<text text-anchor="middle" x="251.5" y="-265" font-family="Helvetica,sans-Serif" font-size="10.00" fill="#000000">ukca_emiss_diags</text>
</a>
</g>
</g>
<!-- Node0&#45;&gt;Node22 -->
<g id="edge31" class="edge">
<title>Node0&#45;&gt;Node22</title>
<path fill="none" stroke="#191970" d="M89.4594,-423.3753C110.396,-401.5992 150.5334,-360.3147 186,-326.5 201.4107,-311.807 219.4165,-295.6587 232.6451,-283.9763"/>
<polygon fill="#191970" stroke="#191970" points="235.0015,-286.565 240.1986,-277.3325 230.3783,-281.3089 235.0015,-286.565"/>
</g>
<!-- Node28 -->
<g id="node29" class="node">
<title>Node28</title>
<g id="a_node29"><a xlink:href="ukca__diurnal__isop__ems_8f90.xhtml#aa6893337ca80ea4243fb7d4f83cfccee" target="_top" xlink:title="(c) [University of Cambridge] [2008]. All rights reserved. (c) [University of Cambridge] [2008]...">
<polygon fill="#ffffff" stroke="#000000" points="186,-577 186,-596 317,-596 317,-577 186,-577"/>
<text text-anchor="middle" x="251.5" y="-584" font-family="Helvetica,sans-Serif" font-size="10.00" fill="#000000">ukca_diurnal_isop_ems</text>
</a>
</g>
</g>
<!-- Node0&#45;&gt;Node28 -->
<g id="edge40" class="edge">
<title>Node0&#45;&gt;Node28</title>
<path fill="none" stroke="#191970" d="M92.8951,-453.5055C126.1816,-481.4172 197.3629,-541.1046 231.8992,-570.0642"/>
<polygon fill="#191970" stroke="#191970" points="229.9332,-572.9833 239.8447,-576.7267 234.4309,-567.6194 229.9332,-572.9833"/>
</g>
<!-- Node1&#45;&gt;Node2 -->
<g id="edge2" class="edge">
<title>Node1&#45;&gt;Node2</title>
<path fill="none" stroke="#191970" d="M440.4886,-527.8744C458.5134,-551.6061 496.8996,-596.2252 542,-613.5 616.2922,-641.9562 643.9512,-633.3133 721,-613.5 752.0113,-605.5253 783.6846,-586.0839 803.683,-572.1241"/>
<polygon fill="#191970" stroke="#191970" points="805.9182,-574.8282 812.0056,-566.1568 801.8393,-569.1394 805.9182,-574.8282"/>
</g>
<!-- Node6 -->
<g id="node7" class="node">
<title>Node6</title>
<g id="a_node7"><a xlink:href="namespaceukca__emiss__factors.xhtml#aa0bbf950ac124a3c87f95034eaac97c5" target="_top" xlink:title="ukca_emiss_factors\l::regrid_vertic_profs">
<polygon fill="#ffffff" stroke="#000000" points="574.5,-497.5 574.5,-527.5 688.5,-527.5 688.5,-497.5 574.5,-497.5"/>
<text text-anchor="start" x="582.5" y="-515.5" font-family="Helvetica,sans-Serif" font-size="10.00" fill="#000000">ukca_emiss_factors</text>
<text text-anchor="middle" x="631.5" y="-504.5" font-family="Helvetica,sans-Serif" font-size="10.00" fill="#000000">::regrid_vertic_profs</text>
</a>
</g>
</g>
<!-- Node1&#45;&gt;Node6 -->
<g id="edge7" class="edge">
<title>Node1&#45;&gt;Node6</title>
<path fill="none" stroke="#191970" d="M496.2022,-512.5C518.0277,-512.5 542.2778,-512.5 564.1507,-512.5"/>
<polygon fill="#191970" stroke="#191970" points="564.3449,-516.0001 574.3449,-512.5 564.3448,-509.0001 564.3449,-516.0001"/>
</g>
<!-- Node3 -->
<g id="node4" class="node">
<title>Node3</title>
<g id="a_node4"><a xlink:href="namespaceumprintmgr.xhtml#a088ce22a18d574e9df7ee1850bfb10c7" target="_top" xlink:title="umprintmgr::umprintopenstream">
<polygon fill="#ffffff" stroke="#000000" points="928,-547 928,-566 1105,-566 1105,-547 928,-547"/>
<text text-anchor="middle" x="1016.5" y="-554" font-family="Helvetica,sans-Serif" font-size="10.00" fill="#000000">umprintmgr::umprintopenstream</text>
</a>
</g>
</g>
<!-- Node2&#45;&gt;Node3 -->
<g id="edge3" class="edge">
<title>Node2&#45;&gt;Node3</title>
<path fill="none" stroke="#191970" d="M884.1975,-550.1987C894.9254,-549.9209 906.3625,-549.7721 917.8503,-549.7523"/>
<polygon fill="#191970" stroke="#191970" points="917.9366,-553.2523 927.9421,-549.7681 917.9476,-546.2523 917.9366,-553.2523"/>
</g>
<!-- Node4 -->
<g id="node5" class="node">
<title>Node4</title>
<g id="a_node5"><a xlink:href="namespaceumprintmgr.xhtml#ad3a290b30a6e25500eabc0bf90330b77" target="_top" xlink:title="umprintmgr::umprintflush">
<polygon fill="#ffffff" stroke="#000000" points="945.5,-356 945.5,-375 1087.5,-375 1087.5,-356 945.5,-356"/>
<text text-anchor="middle" x="1016.5" y="-363" font-family="Helvetica,sans-Serif" font-size="10.00" fill="#000000">umprintmgr::umprintflush</text>
</a>
</g>
</g>
<!-- Node2&#45;&gt;Node4 -->
<g id="edge5" class="edge">
<title>Node2&#45;&gt;Node4</title>
<path fill="none" stroke="#191970" d="M834.2853,-546.7657C864.9628,-516.2479 959.5537,-422.1497 998.9728,-382.9359"/>
<polygon fill="#191970" stroke="#191970" points="1001.8831,-384.9777 1006.5042,-375.4437 996.9462,-380.015 1001.8831,-384.9777"/>
</g>
<!-- Node3&#45;&gt;Node2 -->
<g id="edge4" class="edge">
<title>Node3&#45;&gt;Node2</title>
<path fill="none" stroke="#191970" d="M927.9421,-563.2319C916.7127,-563.2865 905.3467,-563.2173 894.4636,-563.0243"/>
<polygon fill="#191970" stroke="#191970" points="894.2712,-559.5194 884.1975,-562.8013 894.1191,-566.5178 894.2712,-559.5194"/>
</g>
<!-- Node5 -->
<g id="node6" class="node">
<title>Node5</title>
<g id="a_node6"><a xlink:href="namespaceumflush__mod.xhtml#a3a003ab59990bdcb712b443dd5e0d1cd" target="_top" xlink:title="umflush_mod::umflush">
<polygon fill="#ffffff" stroke="#000000" points="1141,-356 1141,-375 1269,-375 1269,-356 1141,-356"/>
<text text-anchor="middle" x="1205" y="-363" font-family="Helvetica,sans-Serif" font-size="10.00" fill="#000000">umflush_mod::umflush</text>
</a>
</g>
</g>
<!-- Node4&#45;&gt;Node5 -->
<g id="edge6" class="edge">
<title>Node4&#45;&gt;Node5</title>
<path fill="none" stroke="#191970" d="M1087.7638,-365.5C1101.7742,-365.5 1116.5063,-365.5 1130.6162,-365.5"/>
<polygon fill="#191970" stroke="#191970" points="1130.7612,-369.0001 1140.7611,-365.5 1130.7611,-362.0001 1130.7612,-369.0001"/>
</g>
<!-- Node6&#45;&gt;Node2 -->
<g id="edge9" class="edge">
<title>Node6&#45;&gt;Node2</title>
<path fill="none" stroke="#191970" d="M688.623,-525.5229C715.2158,-531.5855 746.6241,-538.7459 772.5414,-544.6545"/>
<polygon fill="#191970" stroke="#191970" points="772.0202,-548.1254 782.548,-546.9358 773.5761,-541.3005 772.0202,-548.1254"/>
</g>
<!-- Node7 -->
<g id="node8" class="node">
<title>Node7</title>
<g id="a_node8"><a xlink:href="sum_8f90.xhtml#a025c1f845b6a4ea9c9f48b8612cd82e7" target="_top" xlink:title="Generic routines for manipulating pp&#45;fields within Fieldcalc. ">
<polygon fill="#ffffff" stroke="#000000" points="805.5,-225 805.5,-244 843.5,-244 843.5,-225 805.5,-225"/>
<text text-anchor="middle" x="824.5" y="-232" font-family="Helvetica,sans-Serif" font-size="10.00" fill="#000000">sum</text>
</a>
</g>
</g>
<!-- Node6&#45;&gt;Node7 -->
<g id="edge8" class="edge">
<title>Node6&#45;&gt;Node7</title>
<path fill="none" stroke="#191970" d="M688.5311,-507.5227C700.752,-503.8764 712.521,-497.9669 721,-488.5 791.4954,-409.7914 686.9935,-332.6438 757,-253.5 766.4831,-242.7791 781.4929,-237.8981 794.9527,-235.7542"/>
<polygon fill="#191970" stroke="#191970" points="795.7471,-239.1858 805.2798,-234.5623 794.9445,-232.232 795.7471,-239.1858"/>
</g>
<!-- Node9 -->
<g id="node10" class="node">
<title>Node9</title>
<g id="a_node10"><a xlink:href="namespaceukca__emiss__factors.xhtml#a475b9ba7b943dce92b4a2c76ec42aa92" target="_top" xlink:title="ukca_emiss_factors\l::get_base_scaling">
<polygon fill="#ffffff" stroke="#000000" points="373,-126.5 373,-156.5 486,-156.5 486,-126.5 373,-126.5"/>
<text text-anchor="start" x="381" y="-144.5" font-family="Helvetica,sans-Serif" font-size="10.00" fill="#000000">ukca_emiss_factors</text>
<text text-anchor="middle" x="429.5" y="-133.5" font-family="Helvetica,sans-Serif" font-size="10.00" fill="#000000">::get_base_scaling</text>
</a>
</g>
</g>
<!-- Node8&#45;&gt;Node9 -->
<g id="edge11" class="edge">
<title>Node8&#45;&gt;Node9</title>
<path fill="none" stroke="#191970" d="M311.2666,-168.7335C327.8989,-164.9025 346.0635,-160.7185 363.054,-156.805"/>
<polygon fill="#191970" stroke="#191970" points="363.9425,-160.1921 372.9017,-154.5367 362.3712,-153.3707 363.9425,-160.1921"/>
</g>
<!-- Node10&#45;&gt;Node2 -->
<g id="edge19" class="edge">
<title>Node10&#45;&gt;Node2</title>
<path fill="none" stroke="#191970" d="M449.0954,-331.6191C466.5809,-346.1468 491.5845,-369.6561 506,-395.5 537.7162,-452.3603 491.9867,-495.8144 542,-537.5 573.1949,-563.5007 681.8035,-563.8533 754.9016,-560.8345"/>
<polygon fill="#191970" stroke="#191970" points="755.1334,-564.3277 764.9686,-560.3884 754.8235,-557.3346 755.1334,-564.3277"/>
</g>
<!-- Node10&#45;&gt;Node7 -->
<g id="edge22" class="edge">
<title>Node10&#45;&gt;Node7</title>
<path fill="none" stroke="#191970" d="M492.3042,-302.4743C497.406,-299.4911 502.0913,-295.8773 506,-291.5 558.8893,-232.2708 480.4537,-166.6741 542,-116.5 603.6618,-66.2317 648.5344,-83.6698 721,-116.5 766.0974,-136.9312 799.3148,-187.798 814.7996,-215.608"/>
<polygon fill="#191970" stroke="#191970" points="811.8748,-217.5594 819.6913,-224.7115 818.0409,-214.2459 811.8748,-217.5594"/>
</g>
<!-- Node11 -->
<g id="node12" class="node">
<title>Node11</title>
<g id="a_node12"><a xlink:href="tr__mix_8f90.xhtml#a46b8187d395ca81bf4ff84e34cf7173c" target="_top" xlink:title="tr_mix">
<polygon fill="#ffffff" stroke="#000000" points="607.5,-50 607.5,-69 655.5,-69 655.5,-50 607.5,-50"/>
<text text-anchor="middle" x="631.5" y="-57" font-family="Helvetica,sans-Serif" font-size="10.00" fill="#000000">tr_mix</text>
</a>
</g>
</g>
<!-- Node10&#45;&gt;Node11 -->
<g id="edge13" class="edge">
<title>Node10&#45;&gt;Node11</title>
<path fill="none" stroke="#191970" d="M492.0867,-302.8161C497.3007,-299.7668 502.0693,-296.044 506,-291.5 567.3788,-220.5449 478.7328,-152.7765 542,-83.5 555.9132,-68.2654 578.3485,-62.2716 597.2752,-60.0834"/>
<polygon fill="#191970" stroke="#191970" points="597.686,-63.5612 607.3528,-59.2248 597.0917,-56.5865 597.686,-63.5612"/>
</g>
<!-- Node13 -->
<g id="node14" class="node">
<title>Node13</title>
<g id="a_node14"><a xlink:href="namespacetrsrce__mod.xhtml#a7eefc5bc8717562e297c331a549d63f1" target="_top" xlink:title="trsrce_mod::trsrce">
<polygon fill="#ffffff" stroke="#000000" points="579,-263 579,-282 684,-282 684,-263 579,-263"/>
<text text-anchor="middle" x="631.5" y="-270" font-family="Helvetica,sans-Serif" font-size="10.00" fill="#000000">trsrce_mod::trsrce</text>
</a>
</g>
</g>
<!-- Node10&#45;&gt;Node13 -->
<g id="edge15" class="edge">
<title>Node10&#45;&gt;Node13</title>
<path fill="none" stroke="#191970" d="M492.0307,-302.8795C519.5661,-296.8816 551.5863,-289.9069 577.9964,-284.1543"/>
<polygon fill="#191970" stroke="#191970" points="578.7966,-287.5621 587.8226,-282.0139 577.3067,-280.7225 578.7966,-287.5621"/>
</g>
<!-- Node15 -->
<g id="node16" class="node">
<title>Node15</title>
<g id="a_node16"><a xlink:href="namespaceget__molmass__mod.xhtml#af842dae1457eeea22149e35c81d4bbdd" target="_top" xlink:title="get_molmass_mod::get\l_molmass">
<polygon fill="#ffffff" stroke="#000000" points="566,-175.5 566,-205.5 697,-205.5 697,-175.5 566,-175.5"/>
<text text-anchor="start" x="574" y="-193.5" font-family="Helvetica,sans-Serif" font-size="10.00" fill="#000000">get_molmass_mod::get</text>
<text text-anchor="middle" x="631.5" y="-182.5" font-family="Helvetica,sans-Serif" font-size="10.00" fill="#000000">_molmass</text>
</a>
</g>
</g>
<!-- Node10&#45;&gt;Node15 -->
<g id="edge17" class="edge">
<title>Node10&#45;&gt;Node15</title>
<path fill="none" stroke="#191970" d="M491.2666,-301.4297C496.5786,-298.6581 501.5964,-295.379 506,-291.5 534.0464,-266.795 513.4233,-239.5896 542,-215.5 546.3172,-211.8606 551.1269,-208.7491 556.2137,-206.0891"/>
<polygon fill="#191970" stroke="#191970" points="557.9931,-209.1236 565.6226,-201.7723 555.074,-202.7613 557.9931,-209.1236"/>
</g>
<!-- Node16 -->
<g id="node17" class="node">
<title>Node16</title>
<g id="a_node17"><a xlink:href="namespaceday__of__week__mod.xhtml#a6ae2db3f6f71cd322785609bc4464431" target="_top" xlink:title="day_of_week_mod::day\l_of_week">
<polygon fill="#ffffff" stroke="#000000" points="565.5,-126.5 565.5,-156.5 697.5,-156.5 697.5,-126.5 565.5,-126.5"/>
<text text-anchor="start" x="573.5" y="-144.5" font-family="Helvetica,sans-Serif" font-size="10.00" fill="#000000">day_of_week_mod::day</text>
<text text-anchor="middle" x="631.5" y="-133.5" font-family="Helvetica,sans-Serif" font-size="10.00" fill="#000000">_of_week</text>
</a>
</g>
</g>
<!-- Node10&#45;&gt;Node16 -->
<g id="edge18" class="edge">
<title>Node10&#45;&gt;Node16</title>
<path fill="none" stroke="#191970" d="M492.3327,-301.9494C497.3626,-299.0719 502.026,-295.6262 506,-291.5 546.402,-249.5514 500.4831,-206.3454 542,-165.5 546.0854,-161.4807 550.7669,-158.1153 555.7996,-155.2996"/>
<polygon fill="#191970" stroke="#191970" points="557.679,-158.2802 565.1847,-150.8026 554.6541,-151.9675 557.679,-158.2802"/>
</g>
<!-- Node17 -->
<g id="node18" class="node">
<title>Node17</title>
<g id="a_node18"><a xlink:href="namespaceukca__emiss__factors.xhtml#a6cdc9444e139d1f35bc7129af37985c7" target="_top" xlink:title="ukca_emiss_factors\l::hourly_emiss_factors">
<polygon fill="#ffffff" stroke="#000000" points="568,-448.5 568,-478.5 695,-478.5 695,-448.5 568,-448.5"/>
<text text-anchor="start" x="576" y="-466.5" font-family="Helvetica,sans-Serif" font-size="10.00" fill="#000000">ukca_emiss_factors</text>
<text text-anchor="middle" x="631.5" y="-455.5" font-family="Helvetica,sans-Serif" font-size="10.00" fill="#000000">::hourly_emiss_factors</text>
</a>
</g>
</g>
<!-- Node10&#45;&gt;Node17 -->
<g id="edge20" class="edge">
<title>Node10&#45;&gt;Node17</title>
<path fill="none" stroke="#191970" d="M444.8407,-331.5793C460.5711,-347.2162 485.5585,-372.5442 506,-395.5 522.8031,-414.3699 520.776,-425.7901 542,-439.5 547.0209,-442.7433 552.4698,-445.5508 558.1166,-447.9805"/>
<polygon fill="#191970" stroke="#191970" points="557.1771,-451.3701 567.766,-451.7233 559.7085,-444.8438 557.1771,-451.3701"/>
</g>
<!-- Node18 -->
<g id="node19" class="node">
<title>Node18</title>
<g id="a_node19"><a xlink:href="namespaceukca__emiss__factors.xhtml#a224adc4a8b38d95cbda039ab63750661" target="_top" xlink:title="ukca_emiss_factors\l::daily_emiss_factors">
<polygon fill="#ffffff" stroke="#000000" points="571.5,-399.5 571.5,-429.5 691.5,-429.5 691.5,-399.5 571.5,-399.5"/>
<text text-anchor="start" x="579.5" y="-417.5" font-family="Helvetica,sans-Serif" font-size="10.00" fill="#000000">ukca_emiss_factors</text>
<text text-anchor="middle" x="631.5" y="-406.5" font-family="Helvetica,sans-Serif" font-size="10.00" fill="#000000">::daily_emiss_factors</text>
</a>
</g>
</g>
<!-- Node10&#45;&gt;Node18 -->
<g id="edge21" class="edge">
<title>Node10&#45;&gt;Node18</title>
<path fill="none" stroke="#191970" d="M448.3096,-331.6151C469.8035,-348.2114 506.5959,-374.6084 542,-390.5 548.2123,-393.2885 554.817,-395.8109 561.5147,-398.0792"/>
<polygon fill="#191970" stroke="#191970" points="560.7682,-401.5148 571.359,-401.2218 562.897,-394.8464 560.7682,-401.5148"/>
</g>
<!-- Node19 -->
<g id="node20" class="node">
<title>Node19</title>
<g id="a_node20"><a xlink:href="namespaceasad__chem__flux__diags.xhtml#a7c911e764310970bbf4f3a1b4a1d894a" target="_top" xlink:title="asad_chem_flux_diags\l::asad_emissions_diagnostics">
<polygon fill="#ffffff" stroke="#000000" points="551,-301.5 551,-331.5 712,-331.5 712,-301.5 551,-301.5"/>
<text text-anchor="start" x="559" y="-319.5" font-family="Helvetica,sans-Serif" font-size="10.00" fill="#000000">asad_chem_flux_diags</text>
<text text-anchor="middle" x="631.5" y="-308.5" font-family="Helvetica,sans-Serif" font-size="10.00" fill="#000000">::asad_emissions_diagnostics</text>
</a>
</g>
</g>
<!-- Node10&#45;&gt;Node19 -->
<g id="edge23" class="edge">
<title>Node10&#45;&gt;Node19</title>
<path fill="none" stroke="#191970" d="M492.0307,-316.5C507.3834,-316.5 524.1305,-316.5 540.5219,-316.5"/>
<polygon fill="#191970" stroke="#191970" points="540.6663,-320.0001 550.6663,-316.5 540.6662,-313.0001 540.6663,-320.0001"/>
</g>
<!-- Node20 -->
<g id="node21" class="node">
<title>Node20</title>
<g id="a_node21"><a xlink:href="namespaceasad__chem__flux__diags.xhtml#a7df5ea12dbda9e556b6fa6db338cd8e1" target="_top" xlink:title="asad_chem_flux_diags\l::asad_3d_emissions_diagnostics">
<polygon fill="#ffffff" stroke="#000000" points="542,-350.5 542,-380.5 721,-380.5 721,-350.5 542,-350.5"/>
<text text-anchor="start" x="550" y="-368.5" font-family="Helvetica,sans-Serif" font-size="10.00" fill="#000000">asad_chem_flux_diags</text>
<text text-anchor="middle" x="631.5" y="-357.5" font-family="Helvetica,sans-Serif" font-size="10.00" fill="#000000">::asad_3d_emissions_diagnostics</text>
</a>
</g>
</g>
<!-- Node10&#45;&gt;Node20 -->
<g id="edge26" class="edge">
<title>Node10&#45;&gt;Node20</title>
<path fill="none" stroke="#191970" d="M491.4794,-331.5346C513.0987,-336.7789 537.5365,-342.7069 559.8747,-348.1255"/>
<polygon fill="#191970" stroke="#191970" points="559.0945,-351.5377 569.6378,-350.4938 560.7447,-344.735 559.0945,-351.5377"/>
</g>
<!-- Node21 -->
<g id="node22" class="node">
<title>Node21</title>
<g id="a_node22"><a xlink:href="ukca__volcanic__so2_8f90.xhtml#a96aed4f187b282062c43a2ed188fb069" target="_top" xlink:title="(c) [University of Cambridge] [2008]. All rights reserved. ">
<polygon fill="#ffffff" stroke="#000000" points="577.5,-225 577.5,-244 685.5,-244 685.5,-225 577.5,-225"/>
<text text-anchor="middle" x="631.5" y="-232" font-family="Helvetica,sans-Serif" font-size="10.00" fill="#000000">ukca_volcanic_so2</text>
</a>
</g>
</g>
<!-- Node10&#45;&gt;Node21 -->
<g id="edge29" class="edge">
<title>Node10&#45;&gt;Node21</title>
<path fill="none" stroke="#191970" d="M486.5169,-301.4111C493.3196,-298.5944 499.9782,-295.3102 506,-291.5 525.6596,-279.0608 521.7052,-264.8734 542,-253.5 549.7523,-249.1555 558.3906,-245.8025 567.1574,-243.2151"/>
<polygon fill="#191970" stroke="#191970" points="568.2895,-246.5364 577.0698,-240.6071 566.5083,-239.7668 568.2895,-246.5364"/>
</g>
<!-- Node12 -->
<g id="node13" class="node">
<title>Node12</title>
<g id="a_node13"><a xlink:href="namespaceimp__mix__mod.xhtml#a5f38f571f6675802c62e6fd28e9949a4" target="_top" xlink:title="imp_mix_mod::imp_mix">
<polygon fill="#ffffff" stroke="#000000" points="757,-50 757,-69 892,-69 892,-50 757,-50"/>
<text text-anchor="middle" x="824.5" y="-57" font-family="Helvetica,sans-Serif" font-size="10.00" fill="#000000">imp_mix_mod::imp_mix</text>
</a>
</g>
</g>
<!-- Node11&#45;&gt;Node12 -->
<g id="edge14" class="edge">
<title>Node11&#45;&gt;Node12</title>
<path fill="none" stroke="#191970" d="M655.5534,-59.5C678.4472,-59.5 714.1614,-59.5 746.8668,-59.5"/>
<polygon fill="#191970" stroke="#191970" points="746.9027,-63.0001 756.9027,-59.5 746.9026,-56.0001 746.9027,-63.0001"/>
</g>
<!-- Node14 -->
<g id="node15" class="node">
<title>Node14</title>
<g id="a_node15"><a xlink:href="ctracera_8h.xhtml#af11ae928fae7e6ee508166ead553bcff" target="_top" xlink:title="tracer">
<polygon fill="#ffffff" stroke="#000000" points="802,-263 802,-282 847,-282 847,-263 802,-263"/>
<text text-anchor="middle" x="824.5" y="-270" font-family="Helvetica,sans-Serif" font-size="10.00" fill="#000000">tracer</text>
</a>
</g>
</g>
<!-- Node13&#45;&gt;Node14 -->
<g id="edge16" class="edge">
<title>Node13&#45;&gt;Node14</title>
<path fill="none" stroke="#191970" d="M684.2381,-272.5C718.4323,-272.5 761.9271,-272.5 791.3478,-272.5"/>
<polygon fill="#191970" stroke="#191970" points="791.507,-276.0001 801.507,-272.5 791.507,-269.0001 791.507,-276.0001"/>
</g>
<!-- Node19&#45;&gt;Node2 -->
<g id="edge24" class="edge">
<title>Node19&#45;&gt;Node2</title>
<path fill="none" stroke="#191970" d="M705.8851,-331.6691C711.3012,-334.4198 716.424,-337.667 721,-341.5 783.969,-394.2443 811.4848,-494.2637 820.6914,-536.684"/>
<polygon fill="#191970" stroke="#191970" points="817.2886,-537.5128 822.7332,-546.6016 824.1448,-536.1012 817.2886,-537.5128"/>
</g>
<!-- Node19&#45;&gt;Node4 -->
<g id="edge25" class="edge">
<title>Node19&#45;&gt;Node4</title>
<path fill="none" stroke="#191970" d="M712.2086,-326.772C777.6148,-335.0964 869.3707,-346.7745 934.9907,-355.1261"/>
<polygon fill="#191970" stroke="#191970" points="934.9279,-358.6463 945.2898,-356.4369 935.8118,-351.7023 934.9279,-358.6463"/>
</g>
<!-- Node20&#45;&gt;Node2 -->
<g id="edge27" class="edge">
<title>Node20&#45;&gt;Node2</title>
<path fill="none" stroke="#191970" d="M704.0962,-380.5976C710.0988,-383.3616 715.8349,-386.6315 721,-390.5 772.9798,-429.4307 805.0531,-502.8196 817.957,-537.4691"/>
<polygon fill="#191970" stroke="#191970" points="814.6699,-538.6716 821.347,-546.8976 821.257,-536.3031 814.6699,-538.6716"/>
</g>
<!-- Node20&#45;&gt;Node4 -->
<g id="edge28" class="edge">
<title>Node20&#45;&gt;Node4</title>
<path fill="none" stroke="#191970" d="M721.2795,-365.5C785.8965,-365.5 872.3516,-365.5 934.991,-365.5"/>
<polygon fill="#191970" stroke="#191970" points="935.2231,-369.0001 945.2231,-365.5 935.2231,-362.0001 935.2231,-369.0001"/>
</g>
<!-- Node21&#45;&gt;Node7 -->
<g id="edge30" class="edge">
<title>Node21&#45;&gt;Node7</title>
<path fill="none" stroke="#191970" d="M685.5179,-234.5C720.9181,-234.5 765.8479,-234.5 794.882,-234.5"/>
<polygon fill="#191970" stroke="#191970" points="795.1783,-238.0001 805.1783,-234.5 795.1783,-231.0001 795.1783,-238.0001"/>
</g>
<!-- Node23 -->
<g id="node24" class="node">
<title>Node23</title>
<g id="a_node24"><a xlink:href="namespaceukca__update__emdiagstruct__mod.xhtml#a33125e98721eb46ef2a6e94b7d56a5b7" target="_top" xlink:title="ukca_update_emdiagstruct\l_mod::update_emdiagstruct">
<polygon fill="#ffffff" stroke="#000000" points="353,-252.5 353,-282.5 506,-282.5 506,-252.5 353,-252.5"/>
<text text-anchor="start" x="361" y="-270.5" font-family="Helvetica,sans-Serif" font-size="10.00" fill="#000000">ukca_update_emdiagstruct</text>
<text text-anchor="middle" x="429.5" y="-259.5" font-family="Helvetica,sans-Serif" font-size="10.00" fill="#000000">_mod::update_emdiagstruct</text>
</a>
</g>
</g>
<!-- Node22&#45;&gt;Node23 -->
<g id="edge32" class="edge">
<title>Node22&#45;&gt;Node23</title>
<path fill="none" stroke="#191970" d="M304.9059,-267.5C316.784,-267.5 329.6748,-267.5 342.5099,-267.5"/>
<polygon fill="#191970" stroke="#191970" points="342.771,-271.0001 352.771,-267.5 342.7709,-264.0001 342.771,-271.0001"/>
</g>
<!-- Node24 -->
<g id="node25" class="node">
<title>Node24</title>
<g id="a_node25"><a xlink:href="namespaceget__emdiag__stash__mod.xhtml#a0dc1b2b8cfc41e36322acb31827f8551" target="_top" xlink:title="get_emdiag_stash_mod\l::get_emdiag_stash">
<polygon fill="#ffffff" stroke="#000000" points="565,-.5 565,-30.5 698,-30.5 698,-.5 565,-.5"/>
<text text-anchor="start" x="573" y="-18.5" font-family="Helvetica,sans-Serif" font-size="10.00" fill="#000000">get_emdiag_stash_mod</text>
<text text-anchor="middle" x="631.5" y="-7.5" font-family="Helvetica,sans-Serif" font-size="10.00" fill="#000000">::get_emdiag_stash</text>
</a>
</g>
</g>
<!-- Node22&#45;&gt;Node24 -->
<g id="edge34" class="edge">
<title>Node22&#45;&gt;Node24</title>
<path fill="none" stroke="#191970" d="M264.2535,-257.7772C282.8283,-244.0501 318.8428,-219.0438 353,-204.5 417.5653,-177.0087 455.6204,-214.3501 506,-165.5 547.5056,-125.2545 500.9559,-81.2161 542,-40.5 546.0087,-36.5233 550.5942,-33.1667 555.5239,-30.335"/>
<polygon fill="#191970" stroke="#191970" points="557.3089,-33.3568 564.7187,-25.7841 554.2038,-27.0832 557.3089,-33.3568"/>
</g>
<!-- Node25 -->
<g id="node26" class="node">
<title>Node25</title>
<g id="a_node26"><a xlink:href="copydiag_8f90.xhtml#aba8cd762ec91a21d0a7b6ad6647290da" target="_top" xlink:title="Purpose : To copy a single diagnostic field from secondary space to. ">
<polygon fill="#ffffff" stroke="#000000" points="399,-214 399,-233 460,-233 460,-214 399,-214"/>
<text text-anchor="middle" x="429.5" y="-221" font-family="Helvetica,sans-Serif" font-size="10.00" fill="#000000">copydiag</text>
</a>
</g>
</g>
<!-- Node22&#45;&gt;Node25 -->
<g id="edge35" class="edge">
<title>Node22&#45;&gt;Node25</title>
<path fill="none" stroke="#191970" d="M290.1233,-257.9527C319.3005,-250.7403 359.2483,-240.8656 388.8979,-233.5365"/>
<polygon fill="#191970" stroke="#191970" points="390.0534,-236.8563 398.9213,-231.0588 388.3735,-230.0608 390.0534,-236.8563"/>
</g>
<!-- Node26 -->
<g id="node27" class="node">
<title>Node26</title>
<g id="a_node27"><a xlink:href="copydiag__3d_8f90.xhtml#aba2363a925768155f54d8f70068e1611" target="_top" xlink:title="Subroutine COPYDIAG_3D !&gt; Purpose : To copy a diagnostic field from secondary space to the...">
<polygon fill="#ffffff" stroke="#000000" points="390.5,-405 390.5,-424 468.5,-424 468.5,-405 390.5,-405"/>
<text text-anchor="middle" x="429.5" y="-412" font-family="Helvetica,sans-Serif" font-size="10.00" fill="#000000">copydiag_3d</text>
</a>
</g>
</g>
<!-- Node22&#45;&gt;Node26 -->
<g id="edge36" class="edge">
<title>Node22&#45;&gt;Node26</title>
<path fill="none" stroke="#191970" d="M263.1791,-277.1451C292.9663,-301.7446 372.0463,-367.0523 409.4096,-397.9085"/>
<polygon fill="#191970" stroke="#191970" points="407.6053,-400.9576 417.5445,-404.6267 412.0627,-395.5602 407.6053,-400.9576"/>
</g>
<!-- Node23&#45;&gt;Node24 -->
<g id="edge33" class="edge">
<title>Node23&#45;&gt;Node24</title>
<path fill="none" stroke="#191970" d="M494.2208,-252.4813C498.5985,-249.6974 502.608,-246.4015 506,-242.5 565.8323,-173.6803 480.6862,-108.0031 542,-40.5 546.0304,-36.0628 550.7762,-32.3869 555.9449,-29.345"/>
<polygon fill="#191970" stroke="#191970" points="557.6258,-32.4175 564.9911,-24.8014 554.484,-26.1621 557.6258,-32.4175"/>
</g>
<!-- Node27 -->
<g id="node28" class="node">
<title>Node27</title>
<g id="a_node28"><a xlink:href="set__levels__list_8f90.xhtml#a7047599e3e5b5dada45a1616ed44a537" target="_top" xlink:title="Subroutine SET_LEVELS_LIST. ">
<polygon fill="#ffffff" stroke="#000000" points="588.5,-585 588.5,-604 674.5,-604 674.5,-585 588.5,-585"/>
<text text-anchor="middle" x="631.5" y="-592" font-family="Helvetica,sans-Serif" font-size="10.00" fill="#000000">set_levels_list</text>
</a>
</g>
</g>
<!-- Node26&#45;&gt;Node27 -->
<g id="edge37" class="edge">
<title>Node26&#45;&gt;Node27</title>
<path fill="none" stroke="#191970" d="M442.0829,-424.0646C458.565,-437.122 487.5324,-461.9554 506,-488.5 528.731,-521.1726 511.804,-544.5693 542,-570.5 552.2118,-579.2694 565.3093,-584.8702 578.3152,-588.4368"/>
<polygon fill="#191970" stroke="#191970" points="577.6552,-591.8774 588.1937,-590.7865 579.2751,-585.0674 577.6552,-591.8774"/>
</g>
<!-- Node27&#45;&gt;Node2 -->
<g id="edge38" class="edge">
<title>Node27&#45;&gt;Node2</title>
<path fill="none" stroke="#191970" d="M674.813,-585.9721C701.7549,-580.6674 736.7406,-573.7791 766.1133,-567.9958"/>
<polygon fill="#191970" stroke="#191970" points="767.1108,-571.3667 776.2463,-566.0007 765.7585,-564.4986 767.1108,-571.3667"/>
</g>
<!-- Node28&#45;&gt;Node2 -->
<g id="edge41" class="edge">
<title>Node28&#45;&gt;Node2</title>
<path fill="none" stroke="#191970" d="M275.7497,-596.1505C346.523,-622.8428 558.0935,-692.1199 721,-636.5 757.2956,-624.1079 790.7443,-593.2522 809.3077,-573.6851"/>
<polygon fill="#191970" stroke="#191970" points="812.1153,-575.8032 816.317,-566.0772 806.9672,-571.0602 812.1153,-575.8032"/>
</g>
</g>
</svg>
        <g id="navigator" transform="translate(0 0)" fill="#404254">
                <rect fill="#f2f5e9" fill-opacity="0.5" stroke="#606060" stroke-width=".5" x="0" y="0" width="60" height="60"/>
                <use id="zoomplus" xlink:href="#zoomPlus" x="17" y="9" onmousedown="handleZoom(evt,'in')"/>
                <use id="zoomminus" xlink:href="#zoomMin" x="42" y="9" onmousedown="handleZoom(evt,'out')"/>
                <use id="reset" xlink:href="#resetDef" x="30" y="36" onmousedown="handleReset()"/>
                <g id="arrowUp" xlink:href="#dirArrow" transform="translate(30 24)" onmousedown="handlePan(0,-1)">
                  <use xlink:href="#rim" fill="#404040">
                        <set attributeName="fill" to="#808080" begin="arrowUp.mouseover" end="arrowUp.mouseout"/>
                  </use>
                  <path fill="none" stroke="white" stroke-width="1.5" d="M0,-3.0v7 M-2.5,-0.5L0,-3.0L2.5,-0.5"/>
                </g>
                <g id="arrowRight" xlink:href="#dirArrow" transform="rotate(90) translate(36 -43)" onmousedown="handlePan(1,0)">
                  <use xlink:href="#rim" fill="#404040">
                        <set attributeName="fill" to="#808080" begin="arrowRight.mouseover" end="arrowRight.mouseout"/>
                  </use>
                  <path fill="none" stroke="white" stroke-width="1.5" d="M0,-3.0v7 M-2.5,-0.5L0,-3.0L2.5,-0.5"/>
                </g>
                <g id="arrowDown" xlink:href="#dirArrow" transform="rotate(180) translate(-30 -48)" onmousedown="handlePan(0,1)">
                  <use xlink:href="#rim" fill="#404040">
                        <set attributeName="fill" to="#808080" begin="arrowDown.mouseover" end="arrowDown.mouseout"/>
                  </use>
                  <path fill="none" stroke="white" stroke-width="1.5" d="M0,-3.0v7 M-2.5,-0.5L0,-3.0L2.5,-0.5"/>
                </g>
                <g id="arrowLeft" xlink:href="#dirArrow" transform="rotate(270) translate(-36 17)" onmousedown="handlePan(-1,0)">
                  <use xlink:href="#rim" fill="#404040">
                        <set attributeName="fill" to="#808080" begin="arrowLeft.mouseover" end="arrowLeft.mouseout"/>
                  </use>
                  <path fill="none" stroke="white" stroke-width="1.5" d="M0,-3.0v7 M-2.5,-0.5L0,-3.0L2.5,-0.5"/>
                </g>
        </g>
        <svg viewBox="0 0 15 15" width="100%" height="30px" preserveAspectRatio="xMaxYMin meet">
         <g id="arrow_out" transform="scale(0.3 0.3)">
          <a xlink:href="namespaceukca__new__emiss__ctl__mod_a09e21dd1c2f6ef3fe34d3403e1779ced_cgraph_org.svg" target="_base">
           <rect id="button" ry="5" rx="5" y="6" x="6" height="38" width="38"
                fill="#f2f5e9" fill-opacity="0.5" stroke="#606060" stroke-width="1.0"/>
           <path id="arrow"
             d="M 11.500037,31.436501 C 11.940474,20.09759 22.043105,11.32322 32.158766,21.979434 L 37.068811,17.246167 C 37.068811,17.246167 37.088388,32 37.088388,32 L 22.160133,31.978069 C 22.160133,31.978069 26.997745,27.140456 26.997745,27.140456 C 18.528582,18.264221 13.291696,25.230495 11.500037,31.436501 z"
             style="fill:#404040;"/>
          </a>
         </g>
        </svg>
</svg>
