<?xml version="1.0" encoding="UTF-8" standalone="no"?>
<!DOCTYPE svg PUBLIC "-//W3C//DTD SVG 1.1//EN"
 "http://www.w3.org/Graphics/SVG/1.1/DTD/svg11.dtd">
<!-- Generated by graphviz version 2.40.1 (20161225.0304)
 -->
<!-- Title: ios_queue_mod::release_lock Pages: 1 -->
<svg width="1031pt" height="351pt"
 viewBox="0.00 0.00 1031.00 351.00" xmlns="http://www.w3.org/2000/svg" xmlns:xlink="http://www.w3.org/1999/xlink">
<g id="graph0" class="graph" transform="scale(1 1) rotate(0) translate(4 347)">
<title>ios_queue_mod::release_lock</title>
<polygon fill="#ffffff" stroke="transparent" points="-4,4 -4,-347 1027,-347 1027,4 -4,4"/>
<!-- Node182 -->
<g id="node1" class="node">
<title>Node182</title>
<polygon fill="#bfbfbf" stroke="#000000" points="0,-164 0,-183 161,-183 161,-164 0,-164"/>
<text text-anchor="middle" x="80.5" y="-171" font-family="Helvetica,sans-Serif" font-size="10.00" fill="#000000">ios_queue_mod::release_lock</text>
</g>
<!-- Node183 -->
<g id="node2" class="node">
<title>Node183</title>
<g id="a_node2"><a xlink:href="namespaceios__queue__mod.xhtml#a6b52a480f92fb8631f7dc50217a63f21" target="_top" xlink:title="SUBROUTINE to put node into Queue (node allocated outside) ">
<polygon fill="#ffffff" stroke="#000000" points="400.5,-240.5 400.5,-270.5 516.5,-270.5 516.5,-240.5 400.5,-240.5"/>
<text text-anchor="start" x="408.5" y="-258.5" font-family="Helvetica,sans-Serif" font-size="10.00" fill="#000000">ios_queue_mod::ios</text>
<text text-anchor="middle" x="458.5" y="-247.5" font-family="Helvetica,sans-Serif" font-size="10.00" fill="#000000">_put_node_in_queue</text>
</a>
</g>
</g>
<!-- Node182&#45;&gt;Node183 -->
<g id="edge1" class="edge">
<title>Node182&#45;&gt;Node183</title>
<path fill="none" stroke="#191970" d="M134.6183,-185.24C205.1699,-200.5448 328.077,-227.2072 400.4933,-242.9165"/>
<polygon fill="#191970" stroke="#191970" points="135.1159,-181.7666 124.6012,-183.0669 133.6319,-188.6074 135.1159,-181.7666"/>
</g>
<!-- Node188 -->
<g id="node7" class="node">
<title>Node188</title>
<g id="a_node7"><a xlink:href="namespaceios__queue__mod.xhtml#a926922af794de9864289553aa4031092" target="_top" xlink:title="ios_queue_mod::ios\l_remove_data_from_queue">
<polygon fill="#ffffff" stroke="#000000" points="577,-98.5 577,-128.5 727,-128.5 727,-98.5 577,-98.5"/>
<text text-anchor="start" x="585" y="-116.5" font-family="Helvetica,sans-Serif" font-size="10.00" fill="#000000">ios_queue_mod::ios</text>
<text text-anchor="middle" x="652" y="-105.5" font-family="Helvetica,sans-Serif" font-size="10.00" fill="#000000">_remove_data_from_queue</text>
</a>
</g>
</g>
<!-- Node182&#45;&gt;Node188 -->
<g id="edge7" class="edge">
<title>Node182&#45;&gt;Node188</title>
<path fill="none" stroke="#191970" d="M118.3496,-160.6591C174.0071,-142.5223 281.5637,-110.2973 376,-98.5 448.7677,-89.4096 467.832,-93.5786 541,-98.5 552.6413,-99.283 564.9231,-100.523 576.9058,-101.9627"/>
<polygon fill="#191970" stroke="#191970" points="116.9818,-157.4245 108.5759,-163.8736 119.1689,-164.0741 116.9818,-157.4245"/>
</g>
<!-- Node190 -->
<g id="node9" class="node">
<title>Node190</title>
<g id="a_node9"><a xlink:href="namespaceios__queue__mod.xhtml#a3aefb9dc58f934723fbdf37b3aef121b" target="_top" xlink:title="ios_queue_mod::ios\l_getqueuepayload">
<polygon fill="#ffffff" stroke="#000000" points="402,-306.5 402,-336.5 515,-336.5 515,-306.5 402,-306.5"/>
<text text-anchor="start" x="410" y="-324.5" font-family="Helvetica,sans-Serif" font-size="10.00" fill="#000000">ios_queue_mod::ios</text>
<text text-anchor="middle" x="458.5" y="-313.5" font-family="Helvetica,sans-Serif" font-size="10.00" fill="#000000">_getqueuepayload</text>
</a>
</g>
</g>
<!-- Node182&#45;&gt;Node190 -->
<g id="edge9" class="edge">
<title>Node182&#45;&gt;Node190</title>
<path fill="none" stroke="#191970" d="M108.2038,-187.5337C131.5914,-199.149 166.1086,-215.7518 197,-228.5 270.9384,-259.0126 358.9412,-289.058 411.6796,-306.4124"/>
<polygon fill="#191970" stroke="#191970" points="109.7193,-184.3784 99.2094,-183.0399 106.5907,-190.6404 109.7193,-184.3784"/>
</g>
<!-- Node191 -->
<g id="node10" class="node">
<title>Node191</title>
<g id="a_node10"><a xlink:href="namespaceios__queue__mod.xhtml#a4ee7678995b5d34a0adda39290be24ce" target="_top" xlink:title="ios_queue_mod::ios\l_increment_queue_length">
<polygon fill="#ffffff" stroke="#000000" points="197,-158.5 197,-188.5 340,-188.5 340,-158.5 197,-158.5"/>
<text text-anchor="start" x="205" y="-176.5" font-family="Helvetica,sans-Serif" font-size="10.00" fill="#000000">ios_queue_mod::ios</text>
<text text-anchor="middle" x="268.5" y="-165.5" font-family="Helvetica,sans-Serif" font-size="10.00" fill="#000000">_increment_queue_length</text>
</a>
</g>
</g>
<!-- Node182&#45;&gt;Node191 -->
<g id="edge11" class="edge">
<title>Node182&#45;&gt;Node191</title>
<path fill="none" stroke="#191970" d="M171.1056,-173.5C179.7035,-173.5 188.3394,-173.5 196.7249,-173.5"/>
<polygon fill="#191970" stroke="#191970" points="171.0471,-170.0001 161.0471,-173.5 171.047,-177.0001 171.0471,-170.0001"/>
</g>
<!-- Node193 -->
<g id="node12" class="node">
<title>Node193</title>
<g id="a_node12"><a xlink:href="namespaceios__queue__mod.xhtml#adb779c0fb6a81d65ae55d66ceb9d4ad1" target="_top" xlink:title="ios_queue_mod::ios\l_queue_report">
<polygon fill="#ffffff" stroke="#000000" points="212,-.5 212,-30.5 325,-30.5 325,-.5 212,-.5"/>
<text text-anchor="start" x="220" y="-18.5" font-family="Helvetica,sans-Serif" font-size="10.00" fill="#000000">ios_queue_mod::ios</text>
<text text-anchor="middle" x="268.5" y="-7.5" font-family="Helvetica,sans-Serif" font-size="10.00" fill="#000000">_queue_report</text>
</a>
</g>
</g>
<!-- Node182&#45;&gt;Node193 -->
<g id="edge18" class="edge">
<title>Node182&#45;&gt;Node193</title>
<path fill="none" stroke="#191970" d="M93.0088,-155.3214C112.4711,-128.201 152.4277,-76.9743 197,-45.5 205.2473,-39.6763 214.799,-34.69 224.1831,-30.5503"/>
<polygon fill="#191970" stroke="#191970" points="89.9069,-153.6472 87.0055,-163.837 95.6281,-157.6805 89.9069,-153.6472"/>
</g>
<!-- Node184 -->
<g id="node3" class="node">
<title>Node184</title>
<g id="a_node3"><a xlink:href="namespaceio__server__listener.xhtml#a1018f7e8b758ddbedf8c1127ddb0ceea" target="_top" xlink:title="io_server_listener\l::ios_process_normal">
<polygon fill="#ffffff" stroke="#000000" points="763,-253.5 763,-283.5 882,-283.5 882,-253.5 763,-253.5"/>
<text text-anchor="start" x="771" y="-271.5" font-family="Helvetica,sans-Serif" font-size="10.00" fill="#000000">io_server_listener</text>
<text text-anchor="middle" x="822.5" y="-260.5" font-family="Helvetica,sans-Serif" font-size="10.00" fill="#000000">::ios_process_normal</text>
</a>
</g>
</g>
<!-- Node183&#45;&gt;Node184 -->
<g id="edge2" class="edge">
<title>Node183&#45;&gt;Node184</title>
<path fill="none" stroke="#191970" d="M526.7577,-257.9378C594.7268,-260.3652 698.0202,-264.0543 762.8131,-266.3683"/>
<polygon fill="#191970" stroke="#191970" points="526.698,-254.4335 516.5794,-257.5743 526.4481,-261.429 526.698,-254.4335"/>
</g>
<!-- Node187 -->
<g id="node6" class="node">
<title>Node187</title>
<g id="a_node6"><a xlink:href="namespaceios__queue__mod.xhtml#ad1070977bec241cf7bc78f70dbc41f45" target="_top" xlink:title="ios_queue_mod::ios\l_put_metadata_in_queue">
<polygon fill="#ffffff" stroke="#000000" points="582,-278.5 582,-308.5 722,-308.5 722,-278.5 582,-278.5"/>
<text text-anchor="start" x="590" y="-296.5" font-family="Helvetica,sans-Serif" font-size="10.00" fill="#000000">ios_queue_mod::ios</text>
<text text-anchor="middle" x="652" y="-285.5" font-family="Helvetica,sans-Serif" font-size="10.00" fill="#000000">_put_metadata_in_queue</text>
</a>
</g>
</g>
<!-- Node183&#45;&gt;Node187 -->
<g id="edge5" class="edge">
<title>Node183&#45;&gt;Node187</title>
<path fill="none" stroke="#191970" d="M526.8412,-268.921C544.6194,-272.4123 563.8019,-276.1794 581.6803,-279.6904"/>
<polygon fill="#191970" stroke="#191970" points="527.0434,-265.3939 516.5564,-266.9013 525.6945,-272.2627 527.0434,-265.3939"/>
</g>
<!-- Node185 -->
<g id="node4" class="node">
<title>Node185</title>
<g id="a_node4"><a xlink:href="namespaceio__server__listener.xhtml#a9a50c3ffaabce194980387dc9dcf691f" target="_top" xlink:title="io_server_listener\l::ios_slavelistener">
<polygon fill="#ffffff" stroke="#000000" points="918,-253.5 918,-283.5 1023,-283.5 1023,-253.5 918,-253.5"/>
<text text-anchor="start" x="926" y="-271.5" font-family="Helvetica,sans-Serif" font-size="10.00" fill="#000000">io_server_listener</text>
<text text-anchor="middle" x="970.5" y="-260.5" font-family="Helvetica,sans-Serif" font-size="10.00" fill="#000000">::ios_slavelistener</text>
</a>
</g>
</g>
<!-- Node184&#45;&gt;Node185 -->
<g id="edge3" class="edge">
<title>Node184&#45;&gt;Node185</title>
<path fill="none" stroke="#191970" d="M892.522,-268.5C900.979,-268.5 909.5055,-268.5 917.6579,-268.5"/>
<polygon fill="#191970" stroke="#191970" points="892.2707,-265.0001 882.2707,-268.5 892.2706,-272.0001 892.2707,-265.0001"/>
</g>
<!-- Node186 -->
<g id="node5" class="node">
<title>Node186</title>
<g id="a_node5"><a xlink:href="namespaceio__server__listener.xhtml#a9225cffcf2da72ce400c9af1bbd3d788" target="_top" xlink:title="io_server_listener\l::ios_listener">
<polygon fill="#ffffff" stroke="#000000" points="918.5,-312.5 918.5,-342.5 1022.5,-342.5 1022.5,-312.5 918.5,-312.5"/>
<text text-anchor="start" x="926.5" y="-330.5" font-family="Helvetica,sans-Serif" font-size="10.00" fill="#000000">io_server_listener</text>
<text text-anchor="middle" x="970.5" y="-319.5" font-family="Helvetica,sans-Serif" font-size="10.00" fill="#000000">::ios_listener</text>
</a>
</g>
</g>
<!-- Node184&#45;&gt;Node186 -->
<g id="edge4" class="edge">
<title>Node184&#45;&gt;Node186</title>
<path fill="none" stroke="#191970" d="M869.6591,-287.2999C890.0678,-295.4358 913.6271,-304.8277 932.8393,-312.4866"/>
<polygon fill="#191970" stroke="#191970" points="870.8148,-283.9928 860.2296,-283.5408 868.2226,-290.4952 870.8148,-283.9928"/>
</g>
<!-- Node187&#45;&gt;Node184 -->
<g id="edge6" class="edge">
<title>Node187&#45;&gt;Node184</title>
<path fill="none" stroke="#191970" d="M732.5209,-281.6934C742.761,-280.1919 753.0924,-278.6771 762.9216,-277.2358"/>
<polygon fill="#191970" stroke="#191970" points="731.7197,-278.2734 722.3332,-283.1872 732.7352,-285.1993 731.7197,-278.2734"/>
</g>
<!-- Node189 -->
<g id="node8" class="node">
<title>Node189</title>
<g id="a_node8"><a xlink:href="namespaceio__server__writer.xhtml#acf5c5530ae80f9fcd7bb3206d80395d9" target="_top" xlink:title="io_server_writer::ios\l_writer">
<polygon fill="#ffffff" stroke="#000000" points="764.5,-128.5 764.5,-158.5 880.5,-158.5 880.5,-128.5 764.5,-128.5"/>
<text text-anchor="start" x="772.5" y="-146.5" font-family="Helvetica,sans-Serif" font-size="10.00" fill="#000000">io_server_writer::ios</text>
<text text-anchor="middle" x="822.5" y="-135.5" font-family="Helvetica,sans-Serif" font-size="10.00" fill="#000000">_writer</text>
</a>
</g>
</g>
<!-- Node188&#45;&gt;Node189 -->
<g id="edge8" class="edge">
<title>Node188&#45;&gt;Node189</title>
<path fill="none" stroke="#191970" d="M737.2016,-128.4915C746.3638,-130.1036 755.5266,-131.7158 764.2669,-133.2537"/>
<polygon fill="#191970" stroke="#191970" points="737.7353,-125.0317 727.2801,-126.7458 736.5223,-131.9258 737.7353,-125.0317"/>
</g>
<!-- Node190&#45;&gt;Node186 -->
<g id="edge10" class="edge">
<title>Node190&#45;&gt;Node186</title>
<path fill="none" stroke="#191970" d="M525.252,-322.2822C628.5537,-323.4928 824.9685,-325.7946 918.4907,-326.8905"/>
<polygon fill="#191970" stroke="#191970" points="525.2896,-318.7825 515.2492,-322.165 525.2075,-325.7821 525.2896,-318.7825"/>
</g>
<!-- Node191&#45;&gt;Node183 -->
<g id="edge14" class="edge">
<title>Node191&#45;&gt;Node183</title>
<path fill="none" stroke="#191970" d="M306.7385,-193.1692C327.0791,-203.3323 352.648,-215.6364 376,-225.5 388.3547,-230.7185 401.9641,-235.8942 414.5057,-240.4399"/>
<polygon fill="#191970" stroke="#191970" points="308.2937,-190.0337 297.7874,-188.6668 305.1481,-196.2872 308.2937,-190.0337"/>
</g>
<!-- Node191&#45;&gt;Node184 -->
<g id="edge12" class="edge">
<title>Node191&#45;&gt;Node184</title>
<path fill="none" stroke="#191970" d="M350.0303,-187.4808C462.6993,-206.8013 663.3508,-241.2091 762.9763,-258.2929"/>
<polygon fill="#191970" stroke="#191970" points="350.5223,-184.0142 340.0745,-185.7736 349.3391,-190.9135 350.5223,-184.0142"/>
</g>
<!-- Node191&#45;&gt;Node188 -->
<g id="edge15" class="edge">
<title>Node191&#45;&gt;Node188</title>
<path fill="none" stroke="#191970" d="M298.1228,-152.8101C318.8722,-139.6065 347.824,-123.6707 376,-116.5 442.4081,-99.5995 520.7453,-100.6439 576.9635,-104.8589"/>
<polygon fill="#191970" stroke="#191970" points="295.9381,-150.0566 289.4792,-158.4551 299.7657,-155.9175 295.9381,-150.0566"/>
</g>
<!-- Node191&#45;&gt;Node189 -->
<g id="edge13" class="edge">
<title>Node191&#45;&gt;Node189</title>
<path fill="none" stroke="#191970" d="M350.0709,-169.0828C463.2087,-162.9562 665.0068,-152.0285 764.1947,-146.6573"/>
<polygon fill="#191970" stroke="#191970" points="349.8706,-165.5884 340.0745,-169.6241 350.2492,-172.5782 349.8706,-165.5884"/>
</g>
<!-- Node192 -->
<g id="node11" class="node">
<title>Node192</title>
<g id="a_node11"><a xlink:href="namespaceios__queue__mod.xhtml#a6b8b6731f4aa3198d8964e443ac0390c" target="_top" xlink:title="ios_queue_mod::destroy_node">
<polygon fill="#ffffff" stroke="#000000" points="376,-126 376,-145 541,-145 541,-126 376,-126"/>
<text text-anchor="middle" x="458.5" y="-133" font-family="Helvetica,sans-Serif" font-size="10.00" fill="#000000">ios_queue_mod::destroy_node</text>
</a>
</g>
</g>
<!-- Node191&#45;&gt;Node192 -->
<g id="edge16" class="edge">
<title>Node191&#45;&gt;Node192</title>
<path fill="none" stroke="#191970" d="M349.8677,-157.2265C370.686,-153.0628 392.3962,-148.7208 410.8868,-145.0226"/>
<polygon fill="#191970" stroke="#191970" points="349.1795,-153.7947 340.0601,-159.188 350.5524,-160.6588 349.1795,-153.7947"/>
</g>
<!-- Node192&#45;&gt;Node188 -->
<g id="edge17" class="edge">
<title>Node192&#45;&gt;Node188</title>
<path fill="none" stroke="#191970" d="M551.1418,-124.9671C559.7071,-123.9932 568.3155,-123.0145 576.6977,-122.0615"/>
<polygon fill="#191970" stroke="#191970" points="550.6633,-121.4988 541.1227,-126.1062 551.4541,-128.454 550.6633,-121.4988"/>
</g>
</g>
</svg>
