<?xml version="1.0" encoding="UTF-8" standalone="no"?>
<!DOCTYPE svg PUBLIC "-//W3C//DTD SVG 1.1//EN"
 "http://www.w3.org/Graphics/SVG/1.1/DTD/svg11.dtd">
<!-- Generated by graphviz version 2.40.1 (20161225.0304)
 -->
<!-- Title: rcf_select_weights_mod::rcf_select_weights Pages: 1 -->
<svg width="1425pt" height="689pt"
 viewBox="0.00 0.00 1425.00 689.47" xmlns="http://www.w3.org/2000/svg" xmlns:xlink="http://www.w3.org/1999/xlink">
<g id="graph0" class="graph" transform="scale(1 1) rotate(0) translate(4 685.4735)">
<title>rcf_select_weights_mod::rcf_select_weights</title>
<polygon fill="#ffffff" stroke="transparent" points="-4,4 -4,-685.4735 1421,-685.4735 1421,4 -4,4"/>
<!-- Node1 -->
<g id="node1" class="node">
<title>Node1</title>
<polygon fill="#bfbfbf" stroke="#000000" points="0,-343.763 0,-373.763 140,-373.763 140,-343.763 0,-343.763"/>
<text text-anchor="start" x="8" y="-361.763" font-family="Helvetica,sans-Serif" font-size="10.00" fill="#000000">rcf_select_weights</text>
<text text-anchor="middle" x="70" y="-350.763" font-family="Helvetica,sans-Serif" font-size="10.00" fill="#000000">_mod::rcf_select_weights</text>
</g>
<!-- Node2 -->
<g id="node2" class="node">
<title>Node2</title>
<g id="a_node2"><a xlink:href="namespacercf__horizontal__mod.xhtml#a5311717b7abac5568a5d4ba755de7725" target="_top" xlink:title="Subroutine Rcf_horizontal &#45; horizontal interpolation. ">
<polygon fill="#ffffff" stroke="#000000" points="176,-343.763 176,-373.763 286,-373.763 286,-343.763 176,-343.763"/>
<text text-anchor="start" x="184" y="-361.763" font-family="Helvetica,sans-Serif" font-size="10.00" fill="#000000">rcf_horizontal_mod</text>
<text text-anchor="middle" x="231" y="-350.763" font-family="Helvetica,sans-Serif" font-size="10.00" fill="#000000">::rcf_horizontal</text>
</a>
</g>
</g>
<!-- Node1&#45;&gt;Node2 -->
<g id="edge1" class="edge">
<title>Node1&#45;&gt;Node2</title>
<path fill="none" stroke="#191970" d="M150.2073,-358.763C158.7975,-358.763 167.3922,-358.763 175.6,-358.763"/>
<polygon fill="#191970" stroke="#191970" points="150.1486,-355.2631 140.1486,-358.763 150.1486,-362.2631 150.1486,-355.2631"/>
</g>
<!-- Node3 -->
<g id="node3" class="node">
<title>Node3</title>
<g id="a_node3"><a xlink:href="namespacercf__interpolate__mod.xhtml#a69c11fea979d74b2dc45c3929395fdb8" target="_top" xlink:title="Subroutine Rcf_Interpolate &#45; top level interpolation wrapper. ">
<polygon fill="#ffffff" stroke="#000000" points="322,-343.763 322,-373.763 437,-373.763 437,-343.763 322,-343.763"/>
<text text-anchor="start" x="330" y="-361.763" font-family="Helvetica,sans-Serif" font-size="10.00" fill="#000000">rcf_interpolate_mod</text>
<text text-anchor="middle" x="379.5" y="-350.763" font-family="Helvetica,sans-Serif" font-size="10.00" fill="#000000">::rcf_interpolate</text>
</a>
</g>
</g>
<!-- Node2&#45;&gt;Node3 -->
<g id="edge2" class="edge">
<title>Node2&#45;&gt;Node3</title>
<path fill="none" stroke="#191970" d="M296.4421,-358.763C304.8464,-358.763 313.4033,-358.763 321.6741,-358.763"/>
<polygon fill="#191970" stroke="#191970" points="296.296,-355.2631 286.2959,-358.763 296.2959,-362.2631 296.296,-355.2631"/>
</g>
<!-- Node4 -->
<g id="node4" class="node">
<title>Node4</title>
<g id="a_node4"><a xlink:href="namespacercf__adjust__pstar__mod.xhtml#a2e7249e62b48f51a745b23b9f1423b02" target="_top" xlink:title="Subroutine Rcf_Adjust_Pstar Adjusts P* when an ancillary orography has been used with an interpolated...">
<polygon fill="#ffffff" stroke="#000000" points="490.5,-605.763 490.5,-635.763 612.5,-635.763 612.5,-605.763 490.5,-605.763"/>
<text text-anchor="start" x="498.5" y="-623.763" font-family="Helvetica,sans-Serif" font-size="10.00" fill="#000000">rcf_adjust_pstar_mod</text>
<text text-anchor="middle" x="551.5" y="-612.763" font-family="Helvetica,sans-Serif" font-size="10.00" fill="#000000">::rcf_adjust_pstar</text>
</a>
</g>
</g>
<!-- Node3&#45;&gt;Node4 -->
<g id="edge3" class="edge">
<title>Node3&#45;&gt;Node4</title>
<path fill="none" stroke="#191970" d="M382.8951,-383.6893C390.5429,-430.5191 413.3566,-532.1876 473,-590.763 479.2456,-596.8968 486.8757,-601.8033 494.8982,-605.7209"/>
<polygon fill="#191970" stroke="#191970" points="386.3523,-383.1427 381.3737,-373.7905 379.4335,-384.2061 386.3523,-383.1427"/>
</g>
<!-- Node5 -->
<g id="node5" class="node">
<title>Node5</title>
<g id="a_node5"><a xlink:href="namespacercf__calc__output__exner__mod.xhtml#ac4151773b597c2381d693b523d1d6ecc" target="_top" xlink:title="Subroutine Rcf_Calc_Output_Exner. ">
<polygon fill="#ffffff" stroke="#000000" points="666,-567.763 666,-597.763 823,-597.763 823,-567.763 666,-567.763"/>
<text text-anchor="start" x="674" y="-585.763" font-family="Helvetica,sans-Serif" font-size="10.00" fill="#000000">rcf_calc_output_exner</text>
<text text-anchor="middle" x="744.5" y="-574.763" font-family="Helvetica,sans-Serif" font-size="10.00" fill="#000000">_mod::rcf_calc_output_exner</text>
</a>
</g>
</g>
<!-- Node3&#45;&gt;Node5 -->
<g id="edge12" class="edge">
<title>Node3&#45;&gt;Node5</title>
<path fill="none" stroke="#191970" d="M383.6251,-383.8763C392.063,-426.4536 415.5865,-512.1321 473,-552.763 528.6449,-592.1424 607.4043,-596.7561 665.7741,-593.231"/>
<polygon fill="#191970" stroke="#191970" points="387.0199,-382.9877 381.752,-373.7953 380.1377,-384.2664 387.0199,-382.9877"/>
</g>
<!-- Node7 -->
<g id="node7" class="node">
<title>Node7</title>
<g id="a_node7"><a xlink:href="namespacercf__create__dump__mod.xhtml#a2f1f869ea648718c07cc083ce73c40c9" target="_top" xlink:title="Subroutine Rcf_Create_Dump &#45; main dump creation loop. ">
<polygon fill="#ffffff" stroke="#000000" points="1035,-504.763 1035,-534.763 1160,-534.763 1160,-504.763 1035,-504.763"/>
<text text-anchor="start" x="1043" y="-522.763" font-family="Helvetica,sans-Serif" font-size="10.00" fill="#000000">rcf_create_dump_mod</text>
<text text-anchor="middle" x="1097.5" y="-511.763" font-family="Helvetica,sans-Serif" font-size="10.00" fill="#000000">::rcf_create_dump</text>
</a>
</g>
</g>
<!-- Node3&#45;&gt;Node7 -->
<g id="edge16" class="edge">
<title>Node3&#45;&gt;Node7</title>
<path fill="none" stroke="#191970" d="M387.0581,-383.9824C399.0049,-418.9009 425.8747,-480.8235 473,-508.763 566.3924,-564.1331 895.7948,-539.61 1034.8359,-526.303"/>
<polygon fill="#191970" stroke="#191970" points="390.2557,-382.4991 383.8237,-374.08 383.6016,-384.6726 390.2557,-382.4991"/>
</g>
<!-- Node10 -->
<g id="node10" class="node">
<title>Node10</title>
<g id="a_node10"><a xlink:href="namespacercf__ancil__atmos__mod.xhtml#a4af82ab1081f4074c046dcc4cb69aa4c" target="_top" xlink:title="Subroutine Rcf_Ancil_Atmos &#45; Ancillary processing for Atmosphere. ">
<polygon fill="#ffffff" stroke="#000000" points="684,-640.763 684,-670.763 805,-670.763 805,-640.763 684,-640.763"/>
<text text-anchor="start" x="692" y="-658.763" font-family="Helvetica,sans-Serif" font-size="10.00" fill="#000000">rcf_ancil_atmos_mod</text>
<text text-anchor="middle" x="744.5" y="-647.763" font-family="Helvetica,sans-Serif" font-size="10.00" fill="#000000">::rcf_ancil_atmos</text>
</a>
</g>
</g>
<!-- Node3&#45;&gt;Node10 -->
<g id="edge9" class="edge">
<title>Node3&#45;&gt;Node10</title>
<path fill="none" stroke="#191970" d="M383.9436,-383.9773C395.7565,-447.8613 429.9937,-613.3174 473,-645.763 534.8459,-692.422 629.0946,-683.3245 688.7077,-670.8102"/>
<polygon fill="#191970" stroke="#191970" points="387.3539,-383.1678 382.1212,-373.9553 380.4668,-384.4201 387.3539,-383.1678"/>
</g>
<!-- Node12 -->
<g id="node12" class="node">
<title>Node12</title>
<g id="a_node12"><a xlink:href="namespacercf__change__dust__bins__mod.xhtml#a7b3aedcab558637faa5f7b38994298db" target="_top" xlink:title="Calculates the contents of the bins for a 2 bin dust scheme!&gt; from the bin contents in a 6 bin dust s...">
<polygon fill="#ffffff" stroke="#000000" points="474,-196.763 474,-226.763 629,-226.763 629,-196.763 474,-196.763"/>
<text text-anchor="start" x="482" y="-214.763" font-family="Helvetica,sans-Serif" font-size="10.00" fill="#000000">rcf_change_dust_bins</text>
<text text-anchor="middle" x="551.5" y="-203.763" font-family="Helvetica,sans-Serif" font-size="10.00" fill="#000000">_mod::rcf_change_dust_bins</text>
</a>
</g>
</g>
<!-- Node3&#45;&gt;Node12 -->
<g id="edge13" class="edge">
<title>Node3&#45;&gt;Node12</title>
<path fill="none" stroke="#191970" d="M391.8973,-334.3733C407.2587,-306.5433 435.9942,-261.5591 473,-235.763 477.9102,-232.3402 483.3222,-229.3945 488.9392,-226.8615"/>
<polygon fill="#191970" stroke="#191970" points="388.6751,-332.9758 387.0299,-343.4421 394.8429,-336.2862 388.6751,-332.9758"/>
</g>
<!-- Node14 -->
<g id="node14" class="node">
<title>Node14</title>
<g id="a_node14"><a xlink:href="namespacercf__derv__2d__cca__mod.xhtml#a82bfdfa1d1706bde9be0fef4ac04469d" target="_top" xlink:title="Subroutine Rcf_Derv_2D_CCA. ">
<polygon fill="#ffffff" stroke="#000000" points="490.5,-147.763 490.5,-177.763 612.5,-177.763 612.5,-147.763 490.5,-147.763"/>
<text text-anchor="start" x="498.5" y="-165.763" font-family="Helvetica,sans-Serif" font-size="10.00" fill="#000000">rcf_derv_2d_cca_mod</text>
<text text-anchor="middle" x="551.5" y="-154.763" font-family="Helvetica,sans-Serif" font-size="10.00" fill="#000000">::rcf_derv_2d_cca</text>
</a>
</g>
</g>
<!-- Node3&#45;&gt;Node14 -->
<g id="edge17" class="edge">
<title>Node3&#45;&gt;Node14</title>
<path fill="none" stroke="#191970" d="M386.3429,-333.9831C397.9372,-296.5923 424.9941,-225.9655 473,-186.763 478.188,-182.5264 484.117,-179.0365 490.34,-176.1619"/>
<polygon fill="#191970" stroke="#191970" points="382.9805,-333.011 383.4782,-343.5941 389.6889,-335.0105 382.9805,-333.011"/>
</g>
<!-- Node15 -->
<g id="node15" class="node">
<title>Node15</title>
<g id="a_node15"><a xlink:href="namespacercf__derv__dry__rho__mod.xhtml#a4d738cd4a9a6916cf27295643be81d1e" target="_top" xlink:title="Subroutine Rcf_Derv_Dry_Rho_Mod. ">
<polygon fill="#ffffff" stroke="#000000" points="489,-98.763 489,-128.763 614,-128.763 614,-98.763 489,-98.763"/>
<text text-anchor="start" x="497" y="-116.763" font-family="Helvetica,sans-Serif" font-size="10.00" fill="#000000">rcf_derv_dry_rho_mod</text>
<text text-anchor="middle" x="551.5" y="-105.763" font-family="Helvetica,sans-Serif" font-size="10.00" fill="#000000">::rcf_derv_dry_rho</text>
</a>
</g>
</g>
<!-- Node3&#45;&gt;Node15 -->
<g id="edge19" class="edge">
<title>Node3&#45;&gt;Node15</title>
<path fill="none" stroke="#191970" d="M383.0704,-333.6847C390.8983,-288.0159 413.8445,-191.0905 473,-137.763 477.6574,-133.5645 483.0328,-130.1002 488.7418,-127.2418"/>
<polygon fill="#191970" stroke="#191970" points="379.6032,-333.2018 381.4684,-343.6312 386.5141,-334.315 379.6032,-333.2018"/>
</g>
<!-- Node16 -->
<g id="node16" class="node">
<title>Node16</title>
<g id="a_node16"><a xlink:href="namespacercf__derv__etadot__mod.xhtml#a00ddc13a66ee85b1559964f42a9edf35" target="_top" xlink:title="Subroutine Rcf_Derv_Etadot_Mod. ">
<polygon fill="#ffffff" stroke="#000000" points="491.5,-49.763 491.5,-79.763 611.5,-79.763 611.5,-49.763 491.5,-49.763"/>
<text text-anchor="start" x="499.5" y="-67.763" font-family="Helvetica,sans-Serif" font-size="10.00" fill="#000000">rcf_derv_etadot_mod</text>
<text text-anchor="middle" x="551.5" y="-56.763" font-family="Helvetica,sans-Serif" font-size="10.00" fill="#000000">::rcf_derv_etadot</text>
</a>
</g>
</g>
<!-- Node3&#45;&gt;Node16 -->
<g id="edge21" class="edge">
<title>Node3&#45;&gt;Node16</title>
<path fill="none" stroke="#191970" d="M380.8691,-333.5249C385.1211,-280.4834 402.4811,-156.7427 473,-88.763 478.2327,-83.7188 484.496,-79.7318 491.1716,-76.5811"/>
<polygon fill="#191970" stroke="#191970" points="377.362,-333.5024 380.1463,-343.7248 384.3445,-333.9972 377.362,-333.5024"/>
</g>
<!-- Node17 -->
<g id="node17" class="node">
<title>Node17</title>
<g id="a_node17"><a xlink:href="namespacercf__derv__exner__surf__mod.xhtml#ac4474416e1bbc7c09bd36afe1fb33711" target="_top" xlink:title="Subroutine Rcf_Derv_Exner_Surf_Mod. ">
<polygon fill="#ffffff" stroke="#000000" points="478.5,-441.763 478.5,-471.763 624.5,-471.763 624.5,-441.763 478.5,-441.763"/>
<text text-anchor="start" x="486.5" y="-459.763" font-family="Helvetica,sans-Serif" font-size="10.00" fill="#000000">rcf_derv_exner_surf</text>
<text text-anchor="middle" x="551.5" y="-448.763" font-family="Helvetica,sans-Serif" font-size="10.00" fill="#000000">_mod::rcf_derv_exner_surf</text>
</a>
</g>
</g>
<!-- Node3&#45;&gt;Node17 -->
<g id="edge23" class="edge">
<title>Node3&#45;&gt;Node17</title>
<path fill="none" stroke="#191970" d="M402.8136,-380.8131C420.8012,-396.825 446.9393,-418.0094 473,-431.763 480.0837,-435.5015 487.8246,-438.8006 495.5962,-441.6738"/>
<polygon fill="#191970" stroke="#191970" points="404.9111,-377.9903 395.1521,-373.8655 400.2088,-383.1758 404.9111,-377.9903"/>
</g>
<!-- Node18 -->
<g id="node18" class="node">
<title>Node18</title>
<g id="a_node18"><a xlink:href="namespacercf__eg__poles__mod.xhtml#a00c0bbac7357b8e7f482c0553fa9d090" target="_top" xlink:title="Subroutine Rcf_eg_poles. ">
<polygon fill="#ffffff" stroke="#000000" points="489.5,-392.763 489.5,-422.763 613.5,-422.763 613.5,-392.763 489.5,-392.763"/>
<text text-anchor="start" x="497.5" y="-410.763" font-family="Helvetica,sans-Serif" font-size="10.00" fill="#000000">rcf_eg_poles_mod::rcf</text>
<text text-anchor="middle" x="551.5" y="-399.763" font-family="Helvetica,sans-Serif" font-size="10.00" fill="#000000">_eg_poles</text>
</a>
</g>
</g>
<!-- Node3&#45;&gt;Node18 -->
<g id="edge25" class="edge">
<title>Node3&#45;&gt;Node18</title>
<path fill="none" stroke="#191970" d="M442.3119,-376.6571C460.8119,-381.9275 480.859,-387.6386 498.6659,-392.7115"/>
<polygon fill="#191970" stroke="#191970" points="443.0855,-373.2383 432.5091,-373.8645 441.1675,-379.9704 443.0855,-373.2383"/>
</g>
<!-- Node19 -->
<g id="node19" class="node">
<title>Node19</title>
<g id="a_node19"><a xlink:href="namespacercf__grib__interp__tnpstar__mod.xhtml#addcfe6a3157fa516fe9136e6a043323b" target="_top" xlink:title="Subroutine Rcf_GRIB_Interp_TnPstar. ">
<polygon fill="#ffffff" stroke="#000000" points="865.5,-100.263 865.5,-141.263 992.5,-141.263 992.5,-100.263 865.5,-100.263"/>
<text text-anchor="start" x="873.5" y="-129.263" font-family="Helvetica,sans-Serif" font-size="10.00" fill="#000000">rcf_grib_interp_tnpstar</text>
<text text-anchor="start" x="873.5" y="-118.263" font-family="Helvetica,sans-Serif" font-size="10.00" fill="#000000">_mod::rcf_grib_interp</text>
<text text-anchor="middle" x="929" y="-107.263" font-family="Helvetica,sans-Serif" font-size="10.00" fill="#000000">_tnpstar</text>
</a>
</g>
</g>
<!-- Node3&#45;&gt;Node19 -->
<g id="edge27" class="edge">
<title>Node3&#45;&gt;Node19</title>
<path fill="none" stroke="#191970" d="M383.0101,-333.4711C393.1527,-264.4854 424.8783,-75.8046 473,-39.763 604.4485,58.6875 816.4188,-51.5217 896.7462,-100.1021"/>
<polygon fill="#191970" stroke="#191970" points="379.5309,-333.0764 381.5684,-343.4734 386.4593,-334.0751 379.5309,-333.0764"/>
</g>
<!-- Node20 -->
<g id="node20" class="node">
<title>Node20</title>
<g id="a_node20"><a xlink:href="namespacercf__init__canopy__water__mod.xhtml#a6835b726afa27fbda5eb82be93c4e1f7" target="_top" xlink:title="Subroutine Rcf_Init_Canopy_Water. ">
<polygon fill="#ffffff" stroke="#000000" points="473,-343.763 473,-373.763 630,-373.763 630,-343.763 473,-343.763"/>
<text text-anchor="start" x="481" y="-361.763" font-family="Helvetica,sans-Serif" font-size="10.00" fill="#000000">rcf_init_canopy_water</text>
<text text-anchor="middle" x="551.5" y="-350.763" font-family="Helvetica,sans-Serif" font-size="10.00" fill="#000000">_mod::rcf_init_canopy_water</text>
</a>
</g>
</g>
<!-- Node3&#45;&gt;Node20 -->
<g id="edge29" class="edge">
<title>Node3&#45;&gt;Node20</title>
<path fill="none" stroke="#191970" d="M447.3186,-358.763C455.6879,-358.763 464.2979,-358.763 472.8116,-358.763"/>
<polygon fill="#191970" stroke="#191970" points="447.252,-355.2631 437.252,-358.763 447.252,-362.2631 447.252,-355.2631"/>
</g>
<!-- Node21 -->
<g id="node21" class="node">
<title>Node21</title>
<g id="a_node21"><a xlink:href="namespacercf__init__field__on__tiles__mod.xhtml#adec7c2f880b26099da266f18f37bb640" target="_top" xlink:title="Subroutine Rcf_Init_Field_On_Tiles. ">
<polygon fill="#ffffff" stroke="#000000" points="475,-294.763 475,-324.763 628,-324.763 628,-294.763 475,-294.763"/>
<text text-anchor="start" x="483" y="-312.763" font-family="Helvetica,sans-Serif" font-size="10.00" fill="#000000">rcf_init_field_on_tiles</text>
<text text-anchor="middle" x="551.5" y="-301.763" font-family="Helvetica,sans-Serif" font-size="10.00" fill="#000000">_mod::rcf_init_field_on_tiles</text>
</a>
</g>
</g>
<!-- Node3&#45;&gt;Node21 -->
<g id="edge31" class="edge">
<title>Node3&#45;&gt;Node21</title>
<path fill="none" stroke="#191970" d="M442.3119,-340.8689C460.8119,-335.5986 480.859,-329.8875 498.6659,-324.8146"/>
<polygon fill="#191970" stroke="#191970" points="441.1675,-337.5556 432.5091,-343.6616 443.0855,-344.2878 441.1675,-337.5556"/>
</g>
<!-- Node22 -->
<g id="node22" class="node">
<title>Node22</title>
<g id="a_node22"><a xlink:href="namespacercf__mixing__ratios__mod.xhtml#a6cd1c959fc9c436a45a0a388c8559dc4" target="_top" xlink:title="Subroutine Rcf_Mixing_Ratios_Mod. ">
<polygon fill="#ffffff" stroke="#000000" points="487.5,-245.763 487.5,-275.763 615.5,-275.763 615.5,-245.763 487.5,-245.763"/>
<text text-anchor="start" x="495.5" y="-263.763" font-family="Helvetica,sans-Serif" font-size="10.00" fill="#000000">rcf_mixing_ratios_mod</text>
<text text-anchor="middle" x="551.5" y="-252.763" font-family="Helvetica,sans-Serif" font-size="10.00" fill="#000000">::rcf_mixing_ratios</text>
</a>
</g>
</g>
<!-- Node3&#45;&gt;Node22 -->
<g id="edge33" class="edge">
<title>Node3&#45;&gt;Node22</title>
<path fill="none" stroke="#191970" d="M402.389,-336.6001C420.3344,-320.2797 446.6101,-298.6062 473,-284.763 479.4363,-281.3868 486.4237,-278.4032 493.4871,-275.7899"/>
<polygon fill="#191970" stroke="#191970" points="399.7125,-334.3087 394.7595,-343.6746 404.4721,-339.4417 399.7125,-334.3087"/>
</g>
<!-- Node23 -->
<g id="node23" class="node">
<title>Node23</title>
<g id="a_node23"><a xlink:href="namespacercf__set__orography__mod.xhtml#ace5213d13ad442d40e62715689e6cd99" target="_top" xlink:title="Subroutine Rcf_Set_Orography &#45; sets the orographies. ">
<polygon fill="#ffffff" stroke="#000000" points="679,-479.763 679,-509.763 810,-509.763 810,-479.763 679,-479.763"/>
<text text-anchor="start" x="687" y="-497.763" font-family="Helvetica,sans-Serif" font-size="10.00" fill="#000000">rcf_set_orography_mod</text>
<text text-anchor="middle" x="744.5" y="-486.763" font-family="Helvetica,sans-Serif" font-size="10.00" fill="#000000">::rcf_set_orography</text>
</a>
</g>
</g>
<!-- Node3&#45;&gt;Node23 -->
<g id="edge35" class="edge">
<title>Node3&#45;&gt;Node23</title>
<path fill="none" stroke="#191970" d="M390.0716,-382.8495C404.2648,-411.8897 432.4713,-459.4464 473,-480.763 536.8074,-514.3235 621.1309,-512.8186 678.7703,-506.1456"/>
<polygon fill="#191970" stroke="#191970" points="393.2252,-381.3311 385.7979,-373.7756 386.8925,-384.3138 393.2252,-381.3311"/>
</g>
<!-- Node4&#45;&gt;Node5 -->
<g id="edge4" class="edge">
<title>Node4&#45;&gt;Node5</title>
<path fill="none" stroke="#191970" d="M622.6808,-606.7482C637.516,-603.8272 653.2104,-600.7371 668.2213,-597.7816"/>
<polygon fill="#191970" stroke="#191970" points="621.7019,-603.3736 612.5664,-608.7396 623.0542,-610.2418 621.7019,-603.3736"/>
</g>
<!-- Node6 -->
<g id="node6" class="node">
<title>Node6</title>
<g id="a_node6"><a xlink:href="namespacercf__post__process__mod.xhtml#abd81a99947cd0c226d25842ec46e1e95" target="_top" xlink:title="Subroutine Rcf_Post_Process &#45; process fields after `main loop&#39;. ">
<polygon fill="#ffffff" stroke="#000000" points="859,-567.763 859,-597.763 999,-597.763 999,-567.763 859,-567.763"/>
<text text-anchor="start" x="867" y="-585.763" font-family="Helvetica,sans-Serif" font-size="10.00" fill="#000000">rcf_post_process_mod</text>
<text text-anchor="middle" x="929" y="-574.763" font-family="Helvetica,sans-Serif" font-size="10.00" fill="#000000">::rcf_post_process_atmos</text>
</a>
</g>
</g>
<!-- Node5&#45;&gt;Node6 -->
<g id="edge5" class="edge">
<title>Node5&#45;&gt;Node6</title>
<path fill="none" stroke="#191970" d="M833.081,-582.763C841.6902,-582.763 850.342,-582.763 858.736,-582.763"/>
<polygon fill="#191970" stroke="#191970" points="833.0122,-579.2631 823.0121,-582.763 833.0121,-586.2631 833.0122,-579.2631"/>
</g>
<!-- Node6&#45;&gt;Node7 -->
<g id="edge6" class="edge">
<title>Node6&#45;&gt;Node7</title>
<path fill="none" stroke="#191970" d="M979.0115,-564.0644C1003.9534,-554.7389 1033.7195,-543.6097 1057.1777,-534.839"/>
<polygon fill="#191970" stroke="#191970" points="977.5009,-560.8924 969.3599,-567.673 979.9524,-567.4492 977.5009,-560.8924"/>
</g>
<!-- Node8 -->
<g id="node8" class="node">
<title>Node8</title>
<g id="a_node8"><a xlink:href="namespacercf__control__mod.xhtml#a3ac6d1c6311ded848ddd750726da301a" target="_top" xlink:title="Subroutine Rcf_Control &#45; main control routine. ">
<polygon fill="#ffffff" stroke="#000000" points="1196,-526.763 1196,-556.763 1310,-556.763 1310,-526.763 1196,-526.763"/>
<text text-anchor="start" x="1204" y="-544.763" font-family="Helvetica,sans-Serif" font-size="10.00" fill="#000000">rcf_control_mod::rcf</text>
<text text-anchor="middle" x="1253" y="-533.763" font-family="Helvetica,sans-Serif" font-size="10.00" fill="#000000">_control</text>
</a>
</g>
</g>
<!-- Node7&#45;&gt;Node8 -->
<g id="edge7" class="edge">
<title>Node7&#45;&gt;Node8</title>
<path fill="none" stroke="#191970" d="M1170.3443,-530.069C1178.9541,-531.2871 1187.6445,-532.5166 1195.9908,-533.6974"/>
<polygon fill="#191970" stroke="#191970" points="1170.6913,-526.5833 1160.2996,-528.6479 1169.7107,-533.5143 1170.6913,-526.5833"/>
</g>
<!-- Node9 -->
<g id="node9" class="node">
<title>Node9</title>
<g id="a_node9"><a xlink:href="reconfigure_8f90.xhtml#a55389899cfceedbb4b0f908c73988c0c" target="_top" xlink:title="Top level program for reconfiguration. ">
<polygon fill="#ffffff" stroke="#000000" points="1346,-532.263 1346,-551.263 1417,-551.263 1417,-532.263 1346,-532.263"/>
<text text-anchor="middle" x="1381.5" y="-539.263" font-family="Helvetica,sans-Serif" font-size="10.00" fill="#000000">reconfigure</text>
</a>
</g>
</g>
<!-- Node8&#45;&gt;Node9 -->
<g id="edge8" class="edge">
<title>Node8&#45;&gt;Node9</title>
<path fill="none" stroke="#191970" d="M1320.159,-541.763C1329.0636,-541.763 1337.8936,-541.763 1345.9628,-541.763"/>
<polygon fill="#191970" stroke="#191970" points="1320.1103,-538.2631 1310.1103,-541.763 1320.1103,-545.2631 1320.1103,-538.2631"/>
</g>
<!-- Node11 -->
<g id="node11" class="node">
<title>Node11</title>
<g id="a_node11"><a xlink:href="namespacercf__ancil__mod.xhtml#af0d79a90918b3178fb9102d0237d48b6" target="_top" xlink:title="Subroutine Rcf_Ancil &#45; Reconfiguration Ancillary Processing. ">
<polygon fill="#ffffff" stroke="#000000" points="877,-624.763 877,-654.763 981,-654.763 981,-624.763 877,-624.763"/>
<text text-anchor="start" x="885" y="-642.763" font-family="Helvetica,sans-Serif" font-size="10.00" fill="#000000">rcf_ancil_mod::rcf</text>
<text text-anchor="middle" x="929" y="-631.763" font-family="Helvetica,sans-Serif" font-size="10.00" fill="#000000">_ancil</text>
</a>
</g>
</g>
<!-- Node10&#45;&gt;Node11 -->
<g id="edge10" class="edge">
<title>Node10&#45;&gt;Node11</title>
<path fill="none" stroke="#191970" d="M815.4012,-649.6144C835.8839,-647.8381 857.8523,-645.933 876.9594,-644.276"/>
<polygon fill="#191970" stroke="#191970" points="814.8279,-646.1509 805.1677,-650.5019 815.4328,-653.1247 814.8279,-646.1509"/>
</g>
<!-- Node11&#45;&gt;Node8 -->
<g id="edge11" class="edge">
<title>Node11&#45;&gt;Node8</title>
<path fill="none" stroke="#191970" d="M988.5146,-621.7617C1050.1947,-603.1054 1145.5069,-574.2764 1203.2944,-556.7974"/>
<polygon fill="#191970" stroke="#191970" points="987.4734,-618.42 978.9149,-624.6653 989.5,-625.1202 987.4734,-618.42"/>
</g>
<!-- Node13 -->
<g id="node13" class="node">
<title>Node13</title>
<g id="a_node13"><a xlink:href="namespacercf__field__calcs__mod.xhtml#aaf83a6a3cfce239d92cf41c835842415" target="_top" xlink:title="Subroutine Rcf_Field_Calcs &#45; field initialisation calculations. ">
<polygon fill="#ffffff" stroke="#000000" points="688,-269.763 688,-299.763 801,-299.763 801,-269.763 688,-269.763"/>
<text text-anchor="start" x="696" y="-287.763" font-family="Helvetica,sans-Serif" font-size="10.00" fill="#000000">rcf_field_calcs_mod</text>
<text text-anchor="middle" x="744.5" y="-276.763" font-family="Helvetica,sans-Serif" font-size="10.00" fill="#000000">::rcf_field_calcs</text>
</a>
</g>
</g>
<!-- Node12&#45;&gt;Node13 -->
<g id="edge14" class="edge">
<title>Node12&#45;&gt;Node13</title>
<path fill="none" stroke="#191970" d="M613.2632,-229.9572C618.9483,-231.839 624.5981,-233.7879 630,-235.763 658.0242,-246.0097 689.1072,-259.448 711.8077,-269.6594"/>
<polygon fill="#191970" stroke="#191970" points="614.2914,-226.6113 603.6995,-226.8608 612.1351,-233.271 614.2914,-226.6113"/>
</g>
<!-- Node13&#45;&gt;Node7 -->
<g id="edge15" class="edge">
<title>Node13&#45;&gt;Node7</title>
<path fill="none" stroke="#191970" d="M775.5165,-305.4114C845.2923,-351.8627 1013.3021,-463.7106 1074.6128,-504.5265"/>
<polygon fill="#191970" stroke="#191970" points="777.3824,-302.449 767.1187,-299.8208 773.5033,-308.2759 777.3824,-302.449"/>
</g>
<!-- Node14&#45;&gt;Node13 -->
<g id="edge18" class="edge">
<title>Node14&#45;&gt;Node13</title>
<path fill="none" stroke="#191970" d="M619.8584,-181.7451C623.3466,-183.306 626.7485,-184.977 630,-186.763 671.0505,-209.3122 710.6743,-248.2406 730.7967,-269.6185"/>
<polygon fill="#191970" stroke="#191970" points="621.0468,-178.4492 610.4679,-177.8673 618.3749,-184.9193 621.0468,-178.4492"/>
</g>
<!-- Node15&#45;&gt;Node13 -->
<g id="edge20" class="edge">
<title>Node15&#45;&gt;Node13</title>
<path fill="none" stroke="#191970" d="M623.2694,-133.5719C625.5912,-134.8829 627.843,-136.2782 630,-137.763 681.6937,-173.3474 720.7942,-239.4183 736.7014,-269.3342"/>
<polygon fill="#191970" stroke="#191970" points="624.5254,-130.286 614.0187,-128.9222 621.3817,-136.5404 624.5254,-130.286"/>
</g>
<!-- Node16&#45;&gt;Node13 -->
<g id="edge22" class="edge">
<title>Node16&#45;&gt;Node13</title>
<path fill="none" stroke="#191970" d="M620.6872,-82.4962C623.9616,-84.3791 627.0908,-86.4611 630,-88.763 692.8899,-138.5261 728.1473,-233.0262 739.9634,-269.6932"/>
<polygon fill="#191970" stroke="#191970" points="622.2346,-79.3567 611.7319,-77.9626 619.0729,-85.602 622.2346,-79.3567"/>
</g>
<!-- Node17&#45;&gt;Node13 -->
<g id="edge24" class="edge">
<title>Node17&#45;&gt;Node13</title>
<path fill="none" stroke="#191970" d="M621.0304,-437.2661C624.1475,-435.5757 627.1563,-433.745 630,-431.763 681.4863,-395.8793 720.6937,-329.9627 736.6649,-300.1391"/>
<polygon fill="#191970" stroke="#191970" points="619.4597,-434.138 612.006,-441.6674 622.5283,-440.4296 619.4597,-434.138"/>
</g>
<!-- Node18&#45;&gt;Node13 -->
<g id="edge26" class="edge">
<title>Node18&#45;&gt;Node13</title>
<path fill="none" stroke="#191970" d="M617.7596,-388.8124C621.9819,-386.9498 626.0989,-384.9355 630,-382.763 670.919,-359.976 710.5952,-321.1423 730.7609,-299.843"/>
<polygon fill="#191970" stroke="#191970" points="616.3182,-385.6205 608.3911,-392.6498 618.9716,-392.0982 616.3182,-385.6205"/>
</g>
<!-- Node19&#45;&gt;Node7 -->
<g id="edge28" class="edge">
<title>Node19&#45;&gt;Node7</title>
<path fill="none" stroke="#191970" d="M941.7015,-150.8396C975.3648,-230.5527 1066.0077,-445.1907 1091.0264,-504.4337"/>
<polygon fill="#191970" stroke="#191970" points="944.8192,-149.2254 937.7045,-141.3748 938.3706,-151.9487 944.8192,-149.2254"/>
</g>
<!-- Node20&#45;&gt;Node13 -->
<g id="edge30" class="edge">
<title>Node20&#45;&gt;Node13</title>
<path fill="none" stroke="#191970" d="M610.7074,-340.5792C617.2479,-338.3713 623.7858,-336.0761 630,-333.763 657.9642,-323.3539 689.0519,-309.9283 711.7695,-299.7631"/>
<polygon fill="#191970" stroke="#191970" points="609.5514,-337.2751 601.1603,-343.7436 611.7537,-343.9196 609.5514,-337.2751"/>
</g>
<!-- Node21&#45;&gt;Node13 -->
<g id="edge32" class="edge">
<title>Node21&#45;&gt;Node13</title>
<path fill="none" stroke="#191970" d="M637.9782,-298.5612C654.9395,-296.3641 672.3183,-294.113 687.9881,-292.0832"/>
<polygon fill="#191970" stroke="#191970" points="637.5234,-295.0908 628.0559,-299.8465 638.4227,-302.0328 637.5234,-295.0908"/>
</g>
<!-- Node22&#45;&gt;Node13 -->
<g id="edge34" class="edge">
<title>Node22&#45;&gt;Node13</title>
<path fill="none" stroke="#191970" d="M625.7708,-269.9988C646.422,-272.5668 668.5095,-275.3134 687.9647,-277.7327"/>
<polygon fill="#191970" stroke="#191970" points="626.1217,-266.5155 615.7662,-268.7547 625.2578,-273.462 626.1217,-266.5155"/>
</g>
<!-- Node23&#45;&gt;Node7 -->
<g id="edge36" class="edge">
<title>Node23&#45;&gt;Node7</title>
<path fill="none" stroke="#191970" d="M820.112,-500.118C884.1686,-504.6546 974.9179,-511.0816 1034.9489,-515.3331"/>
<polygon fill="#191970" stroke="#191970" points="820.2916,-496.622 810.0693,-499.4067 819.797,-503.6045 820.2916,-496.622"/>
</g>
</g>
</svg>
