<?xml version="1.0" encoding="UTF-8" standalone="no"?>
<!DOCTYPE svg PUBLIC "-//W3C//DTD SVG 1.1//EN"
 "http://www.w3.org/Graphics/SVG/1.1/DTD/svg11.dtd">
<!-- Generated by graphviz version 2.40.1 (20161225.0304)
 -->
<!-- Title: update_moisture_fields_mod::update_q_star Pages: 1 -->
<svg width="299pt" height="39pt"
 viewBox="0.00 0.00 299.00 39.00" xmlns="http://www.w3.org/2000/svg" xmlns:xlink="http://www.w3.org/1999/xlink">
<g id="graph0" class="graph" transform="scale(1 1) rotate(0) translate(4 35)">
<title>update_moisture_fields_mod::update_q_star</title>
<polygon fill="#ffffff" stroke="transparent" points="-4,4 -4,-35 295,-35 295,4 -4,4"/>
<!-- Node27 -->
<g id="node1" class="node">
<title>Node27</title>
<polygon fill="#bfbfbf" stroke="#000000" points="0,-.5 0,-30.5 131,-30.5 131,-.5 0,-.5"/>
<text text-anchor="start" x="8" y="-18.5" font-family="Helvetica,sans-Serif" font-size="10.00" fill="#000000">update_moisture_fields</text>
<text text-anchor="middle" x="65.5" y="-7.5" font-family="Helvetica,sans-Serif" font-size="10.00" fill="#000000">_mod::update_q_star</text>
</g>
<!-- Node28 -->
<g id="node2" class="node">
<title>Node28</title>
<g id="a_node2"><a xlink:href="namespaceeg__mix__to__q__mod.xhtml#a7293fc7e285d54649dc436e19e7c7e4f" target="_top" xlink:title="eg_mix_to_q_mod::eg\l_mix_to_q">
<polygon fill="#ffffff" stroke="#000000" points="167,-.5 167,-30.5 291,-30.5 291,-.5 167,-.5"/>
<text text-anchor="start" x="175" y="-18.5" font-family="Helvetica,sans-Serif" font-size="10.00" fill="#000000">eg_mix_to_q_mod::eg</text>
<text text-anchor="middle" x="229" y="-7.5" font-family="Helvetica,sans-Serif" font-size="10.00" fill="#000000">_mix_to_q</text>
</a>
</g>
</g>
<!-- Node27&#45;&gt;Node28 -->
<g id="edge1" class="edge">
<title>Node27&#45;&gt;Node28</title>
<path fill="none" stroke="#191970" d="M131.0596,-15.5C139.46,-15.5 148.098,-15.5 156.5994,-15.5"/>
<polygon fill="#191970" stroke="#191970" points="156.8762,-19.0001 166.8762,-15.5 156.8761,-12.0001 156.8762,-19.0001"/>
</g>
</g>
</svg>
