<?xml version="1.0" encoding="UTF-8" standalone="no"?>
<!DOCTYPE svg PUBLIC "-//W3C//DTD SVG 1.1//EN"
 "http://www.w3.org/Graphics/SVG/1.1/DTD/svg11.dtd">
<!-- Generated by graphviz version 2.40.1 (20161225.0304)
 -->
<!-- Title: ukca_scavenging_mod::ukca_plume_scav Pages: 1 -->
<svg width="832pt" height="72pt"
 viewBox="0.00 0.00 832.00 71.50" xmlns="http://www.w3.org/2000/svg" xmlns:xlink="http://www.w3.org/1999/xlink">
<g id="graph0" class="graph" transform="scale(1 1) rotate(0) translate(4 67.5)">
<title>ukca_scavenging_mod::ukca_plume_scav</title>
<polygon fill="#ffffff" stroke="transparent" points="-4,4 -4,-67.5 828,-67.5 828,4 -4,4"/>
<!-- Node27 -->
<g id="node1" class="node">
<title>Node27</title>
<polygon fill="#bfbfbf" stroke="#000000" points="0,-33 0,-63 128,-63 128,-33 0,-33"/>
<text text-anchor="start" x="8" y="-51" font-family="Helvetica,sans-Serif" font-size="10.00" fill="#000000">ukca_scavenging_mod</text>
<text text-anchor="middle" x="64" y="-40" font-family="Helvetica,sans-Serif" font-size="10.00" fill="#000000">::ukca_plume_scav</text>
</g>
<!-- Node28 -->
<g id="node2" class="node">
<title>Node28</title>
<g id="a_node2"><a xlink:href="namespaceukca__scavenging__mod.xhtml#a7d1008570f60d06f6ba300cb826fe0a7" target="_top" xlink:title="ukca_scavenging_mod\l::ukca_calc_aqueous">
<polygon fill="#ffffff" stroke="#000000" points="164,-33 164,-63 292,-63 292,-33 164,-33"/>
<text text-anchor="start" x="172" y="-51" font-family="Helvetica,sans-Serif" font-size="10.00" fill="#000000">ukca_scavenging_mod</text>
<text text-anchor="middle" x="228" y="-40" font-family="Helvetica,sans-Serif" font-size="10.00" fill="#000000">::ukca_calc_aqueous</text>
</a>
</g>
</g>
<!-- Node27&#45;&gt;Node28 -->
<g id="edge1" class="edge">
<title>Node27&#45;&gt;Node28</title>
<path fill="none" stroke="#191970" d="M128.3464,-48C136.6401,-48 145.1868,-48 153.6248,-48"/>
<polygon fill="#191970" stroke="#191970" points="153.8392,-51.5001 163.8391,-48 153.8391,-44.5001 153.8392,-51.5001"/>
</g>
<!-- Node29 -->
<g id="node3" class="node">
<title>Node29</title>
<g id="a_node3"><a xlink:href="namespaceumprintmgr.xhtml#aae44897e556705dbf5e945a26538be9a" target="_top" xlink:title="umprintmgr::umprint">
<polygon fill="#ffffff" stroke="#000000" points="328,-38.5 328,-57.5 447,-57.5 447,-38.5 328,-38.5"/>
<text text-anchor="middle" x="387.5" y="-45.5" font-family="Helvetica,sans-Serif" font-size="10.00" fill="#000000">umprintmgr::umprint</text>
</a>
</g>
</g>
<!-- Node28&#45;&gt;Node29 -->
<g id="edge2" class="edge">
<title>Node28&#45;&gt;Node29</title>
<path fill="none" stroke="#191970" d="M292.415,-48C300.7131,-48 309.2413,-48 317.6219,-48"/>
<polygon fill="#191970" stroke="#191970" points="317.7457,-51.5001 327.7456,-48 317.7456,-44.5001 317.7457,-51.5001"/>
</g>
<!-- Node30 -->
<g id="node4" class="node">
<title>Node30</title>
<g id="a_node4"><a xlink:href="namespaceumprintmgr.xhtml#a088ce22a18d574e9df7ee1850bfb10c7" target="_top" xlink:title="umprintmgr::umprintopenstream">
<polygon fill="#ffffff" stroke="#000000" points="483,-38.5 483,-57.5 660,-57.5 660,-38.5 483,-38.5"/>
<text text-anchor="middle" x="571.5" y="-45.5" font-family="Helvetica,sans-Serif" font-size="10.00" fill="#000000">umprintmgr::umprintopenstream</text>
</a>
</g>
</g>
<!-- Node29&#45;&gt;Node30 -->
<g id="edge3" class="edge">
<title>Node29&#45;&gt;Node30</title>
<path fill="none" stroke="#191970" d="M447.2395,-41.6333C455.4605,-41.4301 464.0751,-41.3077 472.7702,-41.2661"/>
<polygon fill="#191970" stroke="#191970" points="472.9998,-44.7659 482.9958,-41.2543 472.9917,-37.7659 472.9998,-44.7659"/>
</g>
<!-- Node31 -->
<g id="node5" class="node">
<title>Node31</title>
<g id="a_node5"><a xlink:href="namespaceumprintmgr.xhtml#ad3a290b30a6e25500eabc0bf90330b77" target="_top" xlink:title="umprintmgr::umprintflush">
<polygon fill="#ffffff" stroke="#000000" points="500.5,-.5 500.5,-19.5 642.5,-19.5 642.5,-.5 500.5,-.5"/>
<text text-anchor="middle" x="571.5" y="-7.5" font-family="Helvetica,sans-Serif" font-size="10.00" fill="#000000">umprintmgr::umprintflush</text>
</a>
</g>
</g>
<!-- Node29&#45;&gt;Node31 -->
<g id="edge5" class="edge">
<title>Node29&#45;&gt;Node31</title>
<path fill="none" stroke="#191970" d="M433.931,-38.411C458.6493,-33.3061 489.239,-26.9887 515.292,-21.6082"/>
<polygon fill="#191970" stroke="#191970" points="516.3175,-24.9703 525.4029,-19.5201 514.9017,-18.115 516.3175,-24.9703"/>
</g>
<!-- Node30&#45;&gt;Node29 -->
<g id="edge4" class="edge">
<title>Node30&#45;&gt;Node29</title>
<path fill="none" stroke="#191970" d="M482.9958,-54.7457C474.3802,-54.767 465.7236,-54.7094 457.3289,-54.5727"/>
<polygon fill="#191970" stroke="#191970" points="457.3089,-51.0716 447.2395,-54.3667 457.166,-58.0702 457.3089,-51.0716"/>
</g>
<!-- Node32 -->
<g id="node6" class="node">
<title>Node32</title>
<g id="a_node6"><a xlink:href="namespaceumflush__mod.xhtml#a3a003ab59990bdcb712b443dd5e0d1cd" target="_top" xlink:title="umflush_mod::umflush">
<polygon fill="#ffffff" stroke="#000000" points="696,-.5 696,-19.5 824,-19.5 824,-.5 696,-.5"/>
<text text-anchor="middle" x="760" y="-7.5" font-family="Helvetica,sans-Serif" font-size="10.00" fill="#000000">umflush_mod::umflush</text>
</a>
</g>
</g>
<!-- Node31&#45;&gt;Node32 -->
<g id="edge6" class="edge">
<title>Node31&#45;&gt;Node32</title>
<path fill="none" stroke="#191970" d="M642.7638,-10C656.7742,-10 671.5063,-10 685.6162,-10"/>
<polygon fill="#191970" stroke="#191970" points="685.7612,-13.5001 695.7611,-10 685.7611,-6.5001 685.7612,-13.5001"/>
</g>
</g>
</svg>
