<?xml version="1.0" encoding="UTF-8" standalone="no"?>
<!DOCTYPE svg PUBLIC "-//W3C//DTD SVG 1.1//EN"
 "http://www.w3.org/Graphics/SVG/1.1/DTD/svg11.dtd">
<!-- Generated by graphviz version 2.40.1 (20161225.0304)
 -->
<!-- Title: num_obs2_mod::num_obs2 Pages: 1 -->
<svg width="1127pt" height="306pt"
 viewBox="0.00 0.00 1127.00 305.50" xmlns="http://www.w3.org/2000/svg" xmlns:xlink="http://www.w3.org/1999/xlink">
<g id="graph0" class="graph" transform="scale(1 1) rotate(0) translate(4 301.5)">
<title>num_obs2_mod::num_obs2</title>
<polygon fill="#ffffff" stroke="transparent" points="-4,4 -4,-301.5 1123,-301.5 1123,4 -4,4"/>
<!-- Node0 -->
<g id="node1" class="node">
<title>Node0</title>
<polygon fill="#bfbfbf" stroke="#000000" points="0,-202 0,-221 150,-221 150,-202 0,-202"/>
<text text-anchor="middle" x="75" y="-209" font-family="Helvetica,sans-Serif" font-size="10.00" fill="#000000">num_obs2_mod::num_obs2</text>
</g>
<!-- Node1 -->
<g id="node2" class="node">
<title>Node1</title>
<g id="a_node2"><a xlink:href="namespaceio.xhtml#a6eff09a3646b168907ebda58a5355b2a" target="_top" xlink:title="io::setpos">
<polygon fill="#ffffff" stroke="#000000" points="284,-278 284,-297 348,-297 348,-278 284,-278"/>
<text text-anchor="middle" x="316" y="-285" font-family="Helvetica,sans-Serif" font-size="10.00" fill="#000000">io::setpos</text>
</a>
</g>
</g>
<!-- Node0&#45;&gt;Node1 -->
<g id="edge1" class="edge">
<title>Node0&#45;&gt;Node1</title>
<path fill="none" stroke="#191970" d="M105.5228,-221.1255C148.8018,-234.7736 228.0582,-259.7673 275.9953,-274.8844"/>
<polygon fill="#191970" stroke="#191970" points="275.1353,-278.2831 285.725,-277.9527 277.2406,-271.6071 275.1353,-278.2831"/>
</g>
<!-- Node2 -->
<g id="node3" class="node">
<title>Node2</title>
<g id="a_node3"><a xlink:href="readhead_8f90.xhtml#af37bf84978a2c56e2bc7765318ca005f" target="_top" xlink:title="SUBROUTINE READHEAD. ">
<polygon fill="#ffffff" stroke="#000000" points="186,-183 186,-202 248,-202 248,-183 186,-183"/>
<text text-anchor="middle" x="217" y="-190" font-family="Helvetica,sans-Serif" font-size="10.00" fill="#000000">readhead</text>
</a>
</g>
</g>
<!-- Node0&#45;&gt;Node2 -->
<g id="edge2" class="edge">
<title>Node0&#45;&gt;Node2</title>
<path fill="none" stroke="#191970" d="M146.416,-201.9443C156.4519,-200.6015 166.4767,-199.2602 175.6883,-198.0276"/>
<polygon fill="#191970" stroke="#191970" points="176.2527,-201.4834 185.7002,-196.688 175.3243,-194.5452 176.2527,-201.4834"/>
</g>
<!-- Node2&#45;&gt;Node1 -->
<g id="edge14" class="edge">
<title>Node2&#45;&gt;Node1</title>
<path fill="none" stroke="#191970" d="M225.1926,-202.1846C237.3658,-216.3337 261.2455,-243.1801 284,-263.5 287.1159,-266.2826 290.5345,-269.0826 293.9413,-271.7383"/>
<polygon fill="#191970" stroke="#191970" points="292.11,-274.7403 302.2069,-277.9502 296.3155,-269.1444 292.11,-274.7403"/>
</g>
<!-- Node3 -->
<g id="node4" class="node">
<title>Node3</title>
<g id="a_node4"><a xlink:href="ioerror_8f90.xhtml#aa3812224bd42148a2e00c44c715f82de" target="_top" xlink:title="SUBROUTINE IOERROR!&gt; ">
<polygon fill="#ffffff" stroke="#000000" points="388,-240 388,-259 437,-259 437,-240 388,-240"/>
<text text-anchor="middle" x="412.5" y="-247" font-family="Helvetica,sans-Serif" font-size="10.00" fill="#000000">ioerror</text>
</a>
</g>
</g>
<!-- Node2&#45;&gt;Node3 -->
<g id="edge3" class="edge">
<title>Node2&#45;&gt;Node3</title>
<path fill="none" stroke="#191970" d="M233.2594,-202.0809C246.5069,-209.4955 265.914,-219.4834 284,-225.5 314.8507,-235.763 351.4146,-242.0554 377.6359,-245.6072"/>
<polygon fill="#191970" stroke="#191970" points="377.4777,-249.1156 387.843,-246.9224 378.3723,-242.173 377.4777,-249.1156"/>
</g>
<!-- Node4 -->
<g id="node5" class="node">
<title>Node4</title>
<g id="a_node5"><a xlink:href="namespaceumprintmgr.xhtml#aae44897e556705dbf5e945a26538be9a" target="_top" xlink:title="umprintmgr::umprint">
<polygon fill="#ffffff" stroke="#000000" points="623,-126 623,-145 742,-145 742,-126 623,-126"/>
<text text-anchor="middle" x="682.5" y="-133" font-family="Helvetica,sans-Serif" font-size="10.00" fill="#000000">umprintmgr::umprint</text>
</a>
</g>
</g>
<!-- Node2&#45;&gt;Node4 -->
<g id="edge13" class="edge">
<title>Node2&#45;&gt;Node4</title>
<path fill="none" stroke="#191970" d="M248.0092,-198.1435C312.6075,-208.6875 465.6748,-227.3235 587,-192.5 615.7087,-184.2599 644.5916,-165.1663 662.9562,-151.3442"/>
<polygon fill="#191970" stroke="#191970" points="665.3165,-153.9432 671.0797,-145.053 661.0304,-148.4088 665.3165,-153.9432"/>
</g>
<!-- Node8 -->
<g id="node9" class="node">
<title>Node8</title>
<g id="a_node9"><a xlink:href="pr__fixhd_8f90.xhtml#a14a4fef8eef7bd915201178931b8a0ca" target="_top" xlink:title="SUBROUTINE PR_FIXHD. ">
<polygon fill="#ffffff" stroke="#000000" points="504,-164 504,-183 560,-183 560,-164 504,-164"/>
<text text-anchor="middle" x="532" y="-171" font-family="Helvetica,sans-Serif" font-size="10.00" fill="#000000">pr_fixhd</text>
</a>
</g>
</g>
<!-- Node2&#45;&gt;Node8 -->
<g id="edge9" class="edge">
<title>Node2&#45;&gt;Node8</title>
<path fill="none" stroke="#191970" d="M248.0655,-190.6262C306.0223,-187.1304 430.4601,-179.6246 493.5851,-175.8171"/>
<polygon fill="#191970" stroke="#191970" points="494.1292,-179.2907 503.9003,-175.1949 493.7077,-172.3034 494.1292,-179.2907"/>
</g>
<!-- Node9 -->
<g id="node10" class="node">
<title>Node9</title>
<g id="a_node10"><a xlink:href="poserror_8f90.xhtml#a6e55b1390632fbecc7abf71e05669199" target="_top" xlink:title="SUBROUTINE POSERROR. ">
<polygon fill="#ffffff" stroke="#000000" points="384,-126 384,-145 441,-145 441,-126 384,-126"/>
<text text-anchor="middle" x="412.5" y="-133" font-family="Helvetica,sans-Serif" font-size="10.00" fill="#000000">poserror</text>
</a>
</g>
</g>
<!-- Node2&#45;&gt;Node9 -->
<g id="edge11" class="edge">
<title>Node2&#45;&gt;Node9</title>
<path fill="none" stroke="#191970" d="M233.2594,-182.9191C246.5069,-175.5045 265.914,-165.5166 284,-159.5 313.3365,-149.7407 347.8393,-143.5718 373.7022,-139.9357"/>
<polygon fill="#191970" stroke="#191970" points="374.4175,-143.3713 383.8641,-138.5743 373.4879,-136.4333 374.4175,-143.3713"/>
</g>
<!-- Node10 -->
<g id="node11" class="node">
<title>Node10</title>
<g id="a_node11"><a xlink:href="newpack_8f90.xhtml#a10a5d744e6b7a65c808da910850c396a" target="_top" xlink:title="SUBROUTINE NEWPACK:&#45;!&gt; ">
<polygon fill="#ffffff" stroke="#000000" points="286,-88 286,-107 346,-107 346,-88 286,-88"/>
<text text-anchor="middle" x="316" y="-95" font-family="Helvetica,sans-Serif" font-size="10.00" fill="#000000">newpack</text>
</a>
</g>
</g>
<!-- Node2&#45;&gt;Node10 -->
<g id="edge15" class="edge">
<title>Node2&#45;&gt;Node10</title>
<path fill="none" stroke="#191970" d="M225.1926,-182.8154C237.3658,-168.6663 261.2455,-141.8199 284,-121.5 287.1159,-118.7174 290.5345,-115.9174 293.9413,-113.2617"/>
<polygon fill="#191970" stroke="#191970" points="296.3155,-115.8556 302.2069,-107.0498 292.11,-110.2597 296.3155,-115.8556"/>
</g>
<!-- Node11 -->
<g id="node12" class="node">
<title>Node11</title>
<g id="a_node12"><a xlink:href="chk__look_8f90.xhtml#a56e19a6b0ea0f9bc2afc0f86df34159e" target="_top" xlink:title="SUBROUTINE CHK_LOOK. ">
<polygon fill="#ffffff" stroke="#000000" points="286,-50 286,-69 346,-69 346,-50 286,-50"/>
<text text-anchor="middle" x="316" y="-57" font-family="Helvetica,sans-Serif" font-size="10.00" fill="#000000">chk_look</text>
</a>
</g>
</g>
<!-- Node2&#45;&gt;Node11 -->
<g id="edge16" class="edge">
<title>Node2&#45;&gt;Node11</title>
<path fill="none" stroke="#191970" d="M220.6919,-182.877C229.1614,-161.8032 251.7689,-110.8755 284,-78.5 285.2222,-77.2723 286.5395,-76.0933 287.9184,-74.9664"/>
<polygon fill="#191970" stroke="#191970" points="290.0908,-77.7176 296.2588,-69.1033 286.065,-71.991 290.0908,-77.7176"/>
</g>
<!-- Node3&#45;&gt;Node4 -->
<g id="edge4" class="edge">
<title>Node3&#45;&gt;Node4</title>
<path fill="none" stroke="#191970" d="M437.2562,-250.7099C472.3477,-251.4313 537.7588,-249.0569 587,-225.5 622.0661,-208.7244 652.8126,-174.3303 669.4201,-153.2555"/>
<polygon fill="#191970" stroke="#191970" points="672.3421,-155.1965 675.6434,-145.1291 666.7846,-150.9405 672.3421,-155.1965"/>
</g>
<!-- Node5 -->
<g id="node6" class="node">
<title>Node5</title>
<g id="a_node6"><a xlink:href="namespaceumprintmgr.xhtml#a088ce22a18d574e9df7ee1850bfb10c7" target="_top" xlink:title="umprintmgr::umprintopenstream">
<polygon fill="#ffffff" stroke="#000000" points="778,-126 778,-145 955,-145 955,-126 778,-126"/>
<text text-anchor="middle" x="866.5" y="-133" font-family="Helvetica,sans-Serif" font-size="10.00" fill="#000000">umprintmgr::umprintopenstream</text>
</a>
</g>
</g>
<!-- Node4&#45;&gt;Node5 -->
<g id="edge5" class="edge">
<title>Node4&#45;&gt;Node5</title>
<path fill="none" stroke="#191970" d="M742.2395,-129.1333C750.4605,-128.9301 759.0751,-128.8077 767.7702,-128.7661"/>
<polygon fill="#191970" stroke="#191970" points="767.9998,-132.2659 777.9958,-128.7543 767.9917,-125.2659 767.9998,-132.2659"/>
</g>
<!-- Node6 -->
<g id="node7" class="node">
<title>Node6</title>
<g id="a_node7"><a xlink:href="namespaceumprintmgr.xhtml#ad3a290b30a6e25500eabc0bf90330b77" target="_top" xlink:title="umprintmgr::umprintflush">
<polygon fill="#ffffff" stroke="#000000" points="795.5,-88 795.5,-107 937.5,-107 937.5,-88 795.5,-88"/>
<text text-anchor="middle" x="866.5" y="-95" font-family="Helvetica,sans-Serif" font-size="10.00" fill="#000000">umprintmgr::umprintflush</text>
</a>
</g>
</g>
<!-- Node4&#45;&gt;Node6 -->
<g id="edge7" class="edge">
<title>Node4&#45;&gt;Node6</title>
<path fill="none" stroke="#191970" d="M728.931,-125.911C753.6493,-120.8061 784.239,-114.4887 810.292,-109.1082"/>
<polygon fill="#191970" stroke="#191970" points="811.3175,-112.4703 820.4029,-107.0201 809.9017,-105.615 811.3175,-112.4703"/>
</g>
<!-- Node5&#45;&gt;Node4 -->
<g id="edge6" class="edge">
<title>Node5&#45;&gt;Node4</title>
<path fill="none" stroke="#191970" d="M777.9958,-142.2457C769.3802,-142.267 760.7236,-142.2094 752.3289,-142.0727"/>
<polygon fill="#191970" stroke="#191970" points="752.3089,-138.5716 742.2395,-141.8667 752.166,-145.5702 752.3089,-138.5716"/>
</g>
<!-- Node7 -->
<g id="node8" class="node">
<title>Node7</title>
<g id="a_node8"><a xlink:href="namespaceumflush__mod.xhtml#a3a003ab59990bdcb712b443dd5e0d1cd" target="_top" xlink:title="umflush_mod::umflush">
<polygon fill="#ffffff" stroke="#000000" points="991,-88 991,-107 1119,-107 1119,-88 991,-88"/>
<text text-anchor="middle" x="1055" y="-95" font-family="Helvetica,sans-Serif" font-size="10.00" fill="#000000">umflush_mod::umflush</text>
</a>
</g>
</g>
<!-- Node6&#45;&gt;Node7 -->
<g id="edge8" class="edge">
<title>Node6&#45;&gt;Node7</title>
<path fill="none" stroke="#191970" d="M937.7638,-97.5C951.7742,-97.5 966.5063,-97.5 980.6162,-97.5"/>
<polygon fill="#191970" stroke="#191970" points="980.7612,-101.0001 990.7611,-97.5 980.7611,-94.0001 980.7612,-101.0001"/>
</g>
<!-- Node8&#45;&gt;Node4 -->
<g id="edge10" class="edge">
<title>Node8&#45;&gt;Node4</title>
<path fill="none" stroke="#191970" d="M560.3079,-166.3525C581.2625,-161.0616 610.3029,-153.7292 634.8152,-147.54"/>
<polygon fill="#191970" stroke="#191970" points="635.8172,-150.8969 644.6561,-145.0553 634.1035,-144.1099 635.8172,-150.8969"/>
</g>
<!-- Node9&#45;&gt;Node4 -->
<g id="edge12" class="edge">
<title>Node9&#45;&gt;Node4</title>
<path fill="none" stroke="#191970" d="M441.1391,-135.5C481.641,-135.5 556.9261,-135.5 612.6871,-135.5"/>
<polygon fill="#191970" stroke="#191970" points="612.8589,-139.0001 622.8589,-135.5 612.8588,-132.0001 612.8589,-139.0001"/>
</g>
<!-- Node11&#45;&gt;Node4 -->
<g id="edge17" class="edge">
<title>Node11&#45;&gt;Node4</title>
<path fill="none" stroke="#191970" d="M346.3247,-68.5593C358.0397,-71.9046 371.5893,-75.5866 384,-78.5 462.6577,-96.9647 554.0266,-113.7355 614.7513,-124.2314"/>
<polygon fill="#191970" stroke="#191970" points="614.5257,-127.7439 624.9742,-125.9891 615.7119,-120.8451 614.5257,-127.7439"/>
</g>
<!-- Node12 -->
<g id="node13" class="node">
<title>Node12</title>
<g id="a_node13"><a xlink:href="pr__look_8f90.xhtml#a2fb0fb7746c91f2a3c62b5034f7d7fec" target="_top" xlink:title="SUBROUTINE PR_LOOK!&gt; ">
<polygon fill="#ffffff" stroke="#000000" points="386,-50 386,-69 439,-69 439,-50 386,-50"/>
<text text-anchor="middle" x="412.5" y="-57" font-family="Helvetica,sans-Serif" font-size="10.00" fill="#000000">pr_look</text>
</a>
</g>
</g>
<!-- Node11&#45;&gt;Node12 -->
<g id="edge18" class="edge">
<title>Node11&#45;&gt;Node12</title>
<path fill="none" stroke="#191970" d="M346.0042,-59.5C355.3494,-59.5 365.7655,-59.5 375.5289,-59.5"/>
<polygon fill="#191970" stroke="#191970" points="375.7856,-63.0001 385.7855,-59.5 375.7855,-56.0001 375.7856,-63.0001"/>
</g>
<!-- Node12&#45;&gt;Node4 -->
<g id="edge21" class="edge">
<title>Node12&#45;&gt;Node4</title>
<path fill="none" stroke="#191970" d="M439.1829,-60.1944C474.0031,-61.766 536.4521,-66.881 587,-83.5 613.6627,-92.2661 641.566,-108.3884 660.2764,-120.3662"/>
<polygon fill="#191970" stroke="#191970" points="658.393,-123.3165 668.6773,-125.8629 662.2256,-117.4589 658.393,-123.3165"/>
</g>
<!-- Node13 -->
<g id="node14" class="node">
<title>Node13</title>
<g id="a_node14"><a xlink:href="namespacercf__exppx__mod.xhtml#a88789ab4ab32d603dfdd4b9b0c492604" target="_top" xlink:title="Subroutine Rcf_Exppx &#45; extract a STASHmaster record. ">
<polygon fill="#ffffff" stroke="#000000" points="477,-.5 477,-30.5 587,-30.5 587,-.5 477,-.5"/>
<text text-anchor="start" x="485" y="-18.5" font-family="Helvetica,sans-Serif" font-size="10.00" fill="#000000">rcf_exppx_mod::rcf</text>
<text text-anchor="middle" x="532" y="-7.5" font-family="Helvetica,sans-Serif" font-size="10.00" fill="#000000">_exppx</text>
</a>
</g>
</g>
<!-- Node12&#45;&gt;Node13 -->
<g id="edge19" class="edge">
<title>Node12&#45;&gt;Node13</title>
<path fill="none" stroke="#191970" d="M438.4297,-49.9527C451.0431,-45.3084 466.6548,-39.5602 481.488,-34.0986"/>
<polygon fill="#191970" stroke="#191970" points="482.9091,-37.3051 491.0838,-30.5654 480.4904,-30.7362 482.9091,-37.3051"/>
</g>
<!-- Node13&#45;&gt;Node4 -->
<g id="edge20" class="edge">
<title>Node13&#45;&gt;Node4</title>
<path fill="none" stroke="#191970" d="M562.8189,-30.508C570.9388,-34.9406 579.5163,-40.0715 587,-45.5 617.8204,-67.8562 649.1008,-99.3798 667.1053,-118.5733"/>
<polygon fill="#191970" stroke="#191970" points="664.6049,-121.0244 673.9686,-125.9814 669.7399,-116.2671 664.6049,-121.0244"/>
</g>
</g>
</svg>
