<?xml version="1.0" encoding="UTF-8" standalone="no"?>
<!DOCTYPE svg PUBLIC "-//W3C//DTD SVG 1.1//EN"
 "http://www.w3.org/Graphics/SVG/1.1/DTD/svg11.dtd">
<!-- Generated by graphviz version 2.40.1 (20161225.0304)
 -->
<!-- Title: umprintmgr::umprintsetlevel Pages: 1 -->
<svg width="722pt" height="104pt"
 viewBox="0.00 0.00 722.00 104.00" xmlns="http://www.w3.org/2000/svg" xmlns:xlink="http://www.w3.org/1999/xlink">
<g id="graph0" class="graph" transform="scale(1 1) rotate(0) translate(4 100)">
<title>umprintmgr::umprintsetlevel</title>
<polygon fill="#ffffff" stroke="transparent" points="-4,4 -4,-100 718,-100 718,4 -4,4"/>
<!-- Node3572 -->
<g id="node1" class="node">
<title>Node3572</title>
<polygon fill="#bfbfbf" stroke="#000000" points="0,-57.5 0,-76.5 158,-76.5 158,-57.5 0,-57.5"/>
<text text-anchor="middle" x="79" y="-64.5" font-family="Helvetica,sans-Serif" font-size="10.00" fill="#000000">umprintmgr::umprintsetlevel</text>
</g>
<!-- Node3573 -->
<g id="node2" class="node">
<title>Node3573</title>
<g id="a_node2"><a xlink:href="namespaceumprintmgr.xhtml#a069bbf872bf5c46230f0fead5d377214" target="_top" xlink:title="umprintmgr::umprintwarn">
<polygon fill="#ffffff" stroke="#000000" points="194,-76.5 194,-95.5 337,-95.5 337,-76.5 194,-76.5"/>
<text text-anchor="middle" x="265.5" y="-83.5" font-family="Helvetica,sans-Serif" font-size="10.00" fill="#000000">umprintmgr::umprintwarn</text>
</a>
</g>
</g>
<!-- Node3572&#45;&gt;Node3573 -->
<g id="edge1" class="edge">
<title>Node3572&#45;&gt;Node3573</title>
<path fill="none" stroke="#191970" d="M158.0928,-75.0577C166.6556,-75.9301 175.3814,-76.819 183.9723,-77.6942"/>
<polygon fill="#191970" stroke="#191970" points="183.6743,-81.1819 193.9776,-78.7135 184.3838,-74.2179 183.6743,-81.1819"/>
</g>
<!-- Node3574 -->
<g id="node3" class="node">
<title>Node3574</title>
<g id="a_node3"><a xlink:href="namespaceumprintmgr.xhtml#aae44897e556705dbf5e945a26538be9a" target="_top" xlink:title="umprintmgr::umprint">
<polygon fill="#ffffff" stroke="#000000" points="206,-38.5 206,-57.5 325,-57.5 325,-38.5 206,-38.5"/>
<text text-anchor="middle" x="265.5" y="-45.5" font-family="Helvetica,sans-Serif" font-size="10.00" fill="#000000">umprintmgr::umprint</text>
</a>
</g>
</g>
<!-- Node3572&#45;&gt;Node3574 -->
<g id="edge2" class="edge">
<title>Node3572&#45;&gt;Node3574</title>
<path fill="none" stroke="#191970" d="M158.0928,-58.9423C170.5802,-57.6701 183.4143,-56.3626 195.6712,-55.1139"/>
<polygon fill="#191970" stroke="#191970" points="196.2172,-58.5765 205.811,-54.0809 195.5077,-51.6125 196.2172,-58.5765"/>
</g>
<!-- Node3575 -->
<g id="node4" class="node">
<title>Node3575</title>
<g id="a_node4"><a xlink:href="namespaceumprintmgr.xhtml#a088ce22a18d574e9df7ee1850bfb10c7" target="_top" xlink:title="umprintmgr::umprintopenstream">
<polygon fill="#ffffff" stroke="#000000" points="373,-38.5 373,-57.5 550,-57.5 550,-38.5 373,-38.5"/>
<text text-anchor="middle" x="461.5" y="-45.5" font-family="Helvetica,sans-Serif" font-size="10.00" fill="#000000">umprintmgr::umprintopenstream</text>
</a>
</g>
</g>
<!-- Node3574&#45;&gt;Node3575 -->
<g id="edge3" class="edge">
<title>Node3574&#45;&gt;Node3575</title>
<path fill="none" stroke="#191970" d="M325.1048,-41.7333C337.0132,-41.4181 349.82,-41.2571 362.6463,-41.2502"/>
<polygon fill="#191970" stroke="#191970" points="362.9108,-44.7509 372.9202,-41.2778 362.9296,-37.7509 362.9108,-44.7509"/>
</g>
<!-- Node3576 -->
<g id="node5" class="node">
<title>Node3576</title>
<g id="a_node5"><a xlink:href="namespaceumprintmgr.xhtml#ad3a290b30a6e25500eabc0bf90330b77" target="_top" xlink:title="umprintmgr::umprintflush">
<polygon fill="#ffffff" stroke="#000000" points="390.5,-.5 390.5,-19.5 532.5,-19.5 532.5,-.5 390.5,-.5"/>
<text text-anchor="middle" x="461.5" y="-7.5" font-family="Helvetica,sans-Serif" font-size="10.00" fill="#000000">umprintmgr::umprintflush</text>
</a>
</g>
</g>
<!-- Node3574&#45;&gt;Node3576 -->
<g id="edge5" class="edge">
<title>Node3574&#45;&gt;Node3576</title>
<path fill="none" stroke="#191970" d="M314.7061,-38.46C341.2674,-33.3104 374.2491,-26.916 402.2175,-21.4935"/>
<polygon fill="#191970" stroke="#191970" points="403.1227,-24.8833 412.2737,-19.5439 401.7903,-18.0113 403.1227,-24.8833"/>
</g>
<!-- Node3575&#45;&gt;Node3574 -->
<g id="edge4" class="edge">
<title>Node3575&#45;&gt;Node3574</title>
<path fill="none" stroke="#191970" d="M372.9202,-54.7222C360.2727,-54.797 347.414,-54.7207 335.1972,-54.4933"/>
<polygon fill="#191970" stroke="#191970" points="335.1808,-50.9922 325.1048,-54.2667 335.0236,-57.9904 335.1808,-50.9922"/>
</g>
<!-- Node3577 -->
<g id="node6" class="node">
<title>Node3577</title>
<g id="a_node6"><a xlink:href="namespaceumflush__mod.xhtml#a3a003ab59990bdcb712b443dd5e0d1cd" target="_top" xlink:title="umflush_mod::umflush">
<polygon fill="#ffffff" stroke="#000000" points="586,-.5 586,-19.5 714,-19.5 714,-.5 586,-.5"/>
<text text-anchor="middle" x="650" y="-7.5" font-family="Helvetica,sans-Serif" font-size="10.00" fill="#000000">umflush_mod::umflush</text>
</a>
</g>
</g>
<!-- Node3576&#45;&gt;Node3577 -->
<g id="edge6" class="edge">
<title>Node3576&#45;&gt;Node3577</title>
<path fill="none" stroke="#191970" d="M532.7638,-10C546.7742,-10 561.5063,-10 575.6162,-10"/>
<polygon fill="#191970" stroke="#191970" points="575.7612,-13.5001 585.7611,-10 575.7611,-6.5001 575.7612,-13.5001"/>
</g>
</g>
</svg>
