<?xml version="1.0" encoding="UTF-8" standalone="no"?>
<!DOCTYPE svg PUBLIC "-//W3C//DTD SVG 1.1//EN"
 "http://www.w3.org/Graphics/SVG/1.1/DTD/svg11.dtd">
<!-- Generated by graphviz version 2.40.1 (20161225.0304)
 -->
<!-- Title: diagnostics_pc2checks_mod::diagnostics_pc2checks Pages: 1 -->
<svg width="937pt" height="72pt"
 viewBox="0.00 0.00 937.00 71.50" xmlns="http://www.w3.org/2000/svg" xmlns:xlink="http://www.w3.org/1999/xlink">
<g id="graph0" class="graph" transform="scale(1 1) rotate(0) translate(4 67.5)">
<title>diagnostics_pc2checks_mod::diagnostics_pc2checks</title>
<polygon fill="#ffffff" stroke="transparent" points="-4,4 -4,-67.5 933,-67.5 933,4 -4,4"/>
<!-- Node0 -->
<g id="node1" class="node">
<title>Node0</title>
<polygon fill="#bfbfbf" stroke="#000000" points="0,-33 0,-63 161,-63 161,-33 0,-33"/>
<text text-anchor="start" x="8" y="-51" font-family="Helvetica,sans-Serif" font-size="10.00" fill="#000000">diagnostics_pc2checks</text>
<text text-anchor="middle" x="80.5" y="-40" font-family="Helvetica,sans-Serif" font-size="10.00" fill="#000000">_mod::diagnostics_pc2checks</text>
</g>
<!-- Node1 -->
<g id="node2" class="node">
<title>Node1</title>
<g id="a_node2"><a xlink:href="copydiag__3d_8f90.xhtml#aba2363a925768155f54d8f70068e1611" target="_top" xlink:title="Subroutine COPYDIAG_3D !&gt; Purpose : To copy a diagnostic field from secondary space to the...">
<polygon fill="#ffffff" stroke="#000000" points="197,-38.5 197,-57.5 275,-57.5 275,-38.5 197,-38.5"/>
<text text-anchor="middle" x="236" y="-45.5" font-family="Helvetica,sans-Serif" font-size="10.00" fill="#000000">copydiag_3d</text>
</a>
</g>
</g>
<!-- Node0&#45;&gt;Node1 -->
<g id="edge1" class="edge">
<title>Node0&#45;&gt;Node1</title>
<path fill="none" stroke="#191970" d="M161.4382,-48C169.9559,-48 178.4225,-48 186.4282,-48"/>
<polygon fill="#191970" stroke="#191970" points="186.6525,-51.5001 196.6525,-48 186.6524,-44.5001 186.6525,-51.5001"/>
</g>
<!-- Node2 -->
<g id="node3" class="node">
<title>Node2</title>
<g id="a_node3"><a xlink:href="set__levels__list_8f90.xhtml#a7047599e3e5b5dada45a1616ed44a537" target="_top" xlink:title="Subroutine SET_LEVELS_LIST. ">
<polygon fill="#ffffff" stroke="#000000" points="311,-38.5 311,-57.5 397,-57.5 397,-38.5 311,-38.5"/>
<text text-anchor="middle" x="354" y="-45.5" font-family="Helvetica,sans-Serif" font-size="10.00" fill="#000000">set_levels_list</text>
</a>
</g>
</g>
<!-- Node1&#45;&gt;Node2 -->
<g id="edge2" class="edge">
<title>Node1&#45;&gt;Node2</title>
<path fill="none" stroke="#191970" d="M275.2923,-48C283.3951,-48 292.0582,-48 300.5656,-48"/>
<polygon fill="#191970" stroke="#191970" points="300.8175,-51.5001 310.8174,-48 300.8174,-44.5001 300.8175,-51.5001"/>
</g>
<!-- Node3 -->
<g id="node4" class="node">
<title>Node3</title>
<g id="a_node4"><a xlink:href="namespaceumprintmgr.xhtml#aae44897e556705dbf5e945a26538be9a" target="_top" xlink:title="umprintmgr::umprint">
<polygon fill="#ffffff" stroke="#000000" points="433,-38.5 433,-57.5 552,-57.5 552,-38.5 433,-38.5"/>
<text text-anchor="middle" x="492.5" y="-45.5" font-family="Helvetica,sans-Serif" font-size="10.00" fill="#000000">umprintmgr::umprint</text>
</a>
</g>
</g>
<!-- Node2&#45;&gt;Node3 -->
<g id="edge3" class="edge">
<title>Node2&#45;&gt;Node3</title>
<path fill="none" stroke="#191970" d="M397.0631,-48C405.2247,-48 413.9555,-48 422.6981,-48"/>
<polygon fill="#191970" stroke="#191970" points="422.9331,-51.5001 432.933,-48 422.933,-44.5001 422.9331,-51.5001"/>
</g>
<!-- Node4 -->
<g id="node5" class="node">
<title>Node4</title>
<g id="a_node5"><a xlink:href="namespaceumprintmgr.xhtml#a088ce22a18d574e9df7ee1850bfb10c7" target="_top" xlink:title="umprintmgr::umprintopenstream">
<polygon fill="#ffffff" stroke="#000000" points="588,-38.5 588,-57.5 765,-57.5 765,-38.5 588,-38.5"/>
<text text-anchor="middle" x="676.5" y="-45.5" font-family="Helvetica,sans-Serif" font-size="10.00" fill="#000000">umprintmgr::umprintopenstream</text>
</a>
</g>
</g>
<!-- Node3&#45;&gt;Node4 -->
<g id="edge4" class="edge">
<title>Node3&#45;&gt;Node4</title>
<path fill="none" stroke="#191970" d="M552.2395,-41.6333C560.4605,-41.4301 569.0751,-41.3077 577.7702,-41.2661"/>
<polygon fill="#191970" stroke="#191970" points="577.9998,-44.7659 587.9958,-41.2543 577.9917,-37.7659 577.9998,-44.7659"/>
</g>
<!-- Node5 -->
<g id="node6" class="node">
<title>Node5</title>
<g id="a_node6"><a xlink:href="namespaceumprintmgr.xhtml#ad3a290b30a6e25500eabc0bf90330b77" target="_top" xlink:title="umprintmgr::umprintflush">
<polygon fill="#ffffff" stroke="#000000" points="605.5,-.5 605.5,-19.5 747.5,-19.5 747.5,-.5 605.5,-.5"/>
<text text-anchor="middle" x="676.5" y="-7.5" font-family="Helvetica,sans-Serif" font-size="10.00" fill="#000000">umprintmgr::umprintflush</text>
</a>
</g>
</g>
<!-- Node3&#45;&gt;Node5 -->
<g id="edge6" class="edge">
<title>Node3&#45;&gt;Node5</title>
<path fill="none" stroke="#191970" d="M538.931,-38.411C563.6493,-33.3061 594.239,-26.9887 620.292,-21.6082"/>
<polygon fill="#191970" stroke="#191970" points="621.3175,-24.9703 630.4029,-19.5201 619.9017,-18.115 621.3175,-24.9703"/>
</g>
<!-- Node4&#45;&gt;Node3 -->
<g id="edge5" class="edge">
<title>Node4&#45;&gt;Node3</title>
<path fill="none" stroke="#191970" d="M587.9958,-54.7457C579.3802,-54.767 570.7236,-54.7094 562.3289,-54.5727"/>
<polygon fill="#191970" stroke="#191970" points="562.3089,-51.0716 552.2395,-54.3667 562.166,-58.0702 562.3089,-51.0716"/>
</g>
<!-- Node6 -->
<g id="node7" class="node">
<title>Node6</title>
<g id="a_node7"><a xlink:href="namespaceumflush__mod.xhtml#a3a003ab59990bdcb712b443dd5e0d1cd" target="_top" xlink:title="umflush_mod::umflush">
<polygon fill="#ffffff" stroke="#000000" points="801,-.5 801,-19.5 929,-19.5 929,-.5 801,-.5"/>
<text text-anchor="middle" x="865" y="-7.5" font-family="Helvetica,sans-Serif" font-size="10.00" fill="#000000">umflush_mod::umflush</text>
</a>
</g>
</g>
<!-- Node5&#45;&gt;Node6 -->
<g id="edge7" class="edge">
<title>Node5&#45;&gt;Node6</title>
<path fill="none" stroke="#191970" d="M747.7638,-10C761.7742,-10 776.5063,-10 790.6162,-10"/>
<polygon fill="#191970" stroke="#191970" points="790.7612,-13.5001 800.7611,-10 790.7611,-6.5001 790.7612,-13.5001"/>
</g>
</g>
</svg>
