<?xml version="1.0" encoding="UTF-8" standalone="no"?>
<!DOCTYPE svg PUBLIC "-//W3C//DTD SVG 1.1//EN"
 "http://www.w3.org/Graphics/SVG/1.1/DTD/svg11.dtd">
<!-- Generated by graphviz version 2.40.1 (20161225.0304)
 -->
<!-- Title: departure_point_eta_mod::departure_point_eta Pages: 1 -->
<!--zoomable 457 -->
<svg id="main" version="1.1" xmlns="http://www.w3.org/2000/svg" xmlns:xlink="http://www.w3.org/1999/xlink" xml:space="preserve" onload="init(evt)">
<style type="text/css"><![CDATA[
.edge:hover path { stroke: red; }
.edge:hover polygon { stroke: red; fill: red; }
]]></style>
<script type="text/javascript"><![CDATA[
var edges = document.getElementsByTagName('g');
if (edges && edges.length) {
  for (var i=0;i<edges.length;i++) {
    if (edges[i].id.substr(0,4)=='edge') {
      edges[i].setAttribute('class','edge');
    }
  }
}
]]></script>
        <defs>
                <circle id="rim" cx="0" cy="0" r="7"/>
                <circle id="rim2" cx="0" cy="0" r="3.5"/>
                <g id="zoomPlus">
                        <use xlink:href="#rim" fill="#404040">
                                <set attributeName="fill" to="#808080" begin="zoomplus.mouseover" end="zoomplus.mouseout"/>
                        </use>
                        <path d="M-4,0h8M0,-4v8" fill="none" stroke="white" stroke-width="1.5" pointer-events="none"/>
                </g>
                <g id="zoomMin">
                        <use xlink:href="#rim" fill="#404040">
                                <set attributeName="fill" to="#808080" begin="zoomminus.mouseover" end="zoomminus.mouseout"/>
                        </use>
                        <path d="M-4,0h8" fill="none" stroke="white" stroke-width="1.5" pointer-events="none"/>
                </g>
                <g id="dirArrow">
                        <path fill="none" stroke="white" stroke-width="1.5" d="M0,-3.0v7 M-2.5,-0.5L0,-3.0L2.5,-0.5"/>
                </g>
               <g id="resetDef">
                       <use xlink:href="#rim2" fill="#404040">
                               <set attributeName="fill" to="#808080" begin="reset.mouseover" end="reset.mouseout"/>
                       </use>
               </g>
        </defs>

<script type="text/javascript">
var viewWidth = 935;
var viewHeight = 457;
var sectionId = 'dynsection-0';
</script>
<script xlink:href="svgpan.js"/>
<svg id="graph" class="graph">
<g id="viewport">
<title>departure_point_eta_mod::departure_point_eta</title>
<polygon fill="#ffffff" stroke="transparent" points="-4,4 -4,-453 931,-453 931,4 -4,4"/>
<!-- Node0 -->
<g id="node1" class="node">
<title>Node0</title>
<polygon fill="#bfbfbf" stroke="#000000" points="0,-355 0,-385 148,-385 148,-355 0,-355"/>
<text text-anchor="start" x="8" y="-373" font-family="Helvetica,sans-Serif" font-size="10.00" fill="#000000">departure_point_eta</text>
<text text-anchor="middle" x="74" y="-362" font-family="Helvetica,sans-Serif" font-size="10.00" fill="#000000">_mod::departure_point_eta</text>
</g>
<!-- Node1 -->
<g id="node2" class="node">
<title>Node1</title>
<g id="a_node2"><a xlink:href="typ__atm__fields_8h.xhtml#a1d13dba4219cf2e3ed6ab69d2d9ce035" target="_top" xlink:title="etadot">
<polygon fill="#ffffff" stroke="#000000" points="238.5,-429.5 238.5,-448.5 286.5,-448.5 286.5,-429.5 238.5,-429.5"/>
<text text-anchor="middle" x="262.5" y="-436.5" font-family="Helvetica,sans-Serif" font-size="10.00" fill="#000000">etadot</text>
</a>
</g>
</g>
<!-- Node0&#45;&gt;Node1 -->
<g id="edge1" class="edge">
<title>Node0&#45;&gt;Node1</title>
<path fill="none" stroke="#191970" d="M103.2593,-385.138C125.0746,-395.9678 155.8391,-410.2897 184,-420 198.2606,-424.9173 214.3982,-429.0571 228.317,-432.2044"/>
<polygon fill="#191970" stroke="#191970" points="227.9445,-435.7053 238.4604,-434.4142 229.4346,-428.8657 227.9445,-435.7053"/>
</g>
<!-- Node2 -->
<g id="node3" class="node">
<title>Node2</title>
<g id="a_node3"><a xlink:href="namespaceeg__check__sl__domain__mod.xhtml#ae11f1a41d5134030b637f66bd61e3e3b" target="_top" xlink:title="eg_check_sl_domain\l_mod::eg_check_sl_domain">
<polygon fill="#ffffff" stroke="#000000" points="187,-380 187,-410 338,-410 338,-380 187,-380"/>
<text text-anchor="start" x="195" y="-398" font-family="Helvetica,sans-Serif" font-size="10.00" fill="#000000">eg_check_sl_domain</text>
<text text-anchor="middle" x="262.5" y="-387" font-family="Helvetica,sans-Serif" font-size="10.00" fill="#000000">_mod::eg_check_sl_domain</text>
</a>
</g>
</g>
<!-- Node0&#45;&gt;Node2 -->
<g id="edge2" class="edge">
<title>Node0&#45;&gt;Node2</title>
<path fill="none" stroke="#191970" d="M148.2296,-379.8448C157.5358,-381.079 167.1149,-382.3495 176.5812,-383.6049"/>
<polygon fill="#191970" stroke="#191970" points="176.417,-387.1137 186.7904,-384.9589 177.3374,-380.1745 176.417,-387.1137"/>
</g>
<!-- Node7 -->
<g id="node8" class="node">
<title>Node7</title>
<g id="a_node8"><a xlink:href="namespaceeg__adjust__vert__bound__mod.xhtml#a6433fe526f6d77e807ab060f77fc029f" target="_top" xlink:title="eg_adjust_vert_bound\l_mod::eg_adjust_vert_bound">
<polygon fill="#ffffff" stroke="#000000" points="184,-331 184,-361 341,-361 341,-331 184,-331"/>
<text text-anchor="start" x="192" y="-349" font-family="Helvetica,sans-Serif" font-size="10.00" fill="#000000">eg_adjust_vert_bound</text>
<text text-anchor="middle" x="262.5" y="-338" font-family="Helvetica,sans-Serif" font-size="10.00" fill="#000000">_mod::eg_adjust_vert_bound</text>
</a>
</g>
</g>
<!-- Node0&#45;&gt;Node7 -->
<g id="edge8" class="edge">
<title>Node0&#45;&gt;Node7</title>
<path fill="none" stroke="#191970" d="M148.2296,-360.549C156.6713,-359.4742 165.3377,-358.3708 173.9406,-357.2755"/>
<polygon fill="#191970" stroke="#191970" points="174.5154,-360.7306 183.9932,-355.9956 173.6312,-353.7867 174.5154,-360.7306"/>
</g>
<!-- Node13 -->
<g id="node14" class="node">
<title>Node13</title>
<g id="a_node14"><a xlink:href="namespaceeg__interpolation__eta__mod.xhtml#a15fdb740e645ed52674e46e9d9e4df1a" target="_top" xlink:title="eg_interpolation_eta\l_mod::eg_interpolation_eta">
<polygon fill="#ffffff" stroke="#000000" points="187.5,-147 187.5,-177 337.5,-177 337.5,-147 187.5,-147"/>
<text text-anchor="start" x="195.5" y="-165" font-family="Helvetica,sans-Serif" font-size="10.00" fill="#000000">eg_interpolation_eta</text>
<text text-anchor="middle" x="262.5" y="-154" font-family="Helvetica,sans-Serif" font-size="10.00" fill="#000000">_mod::eg_interpolation_eta</text>
</a>
</g>
</g>
<!-- Node0&#45;&gt;Node13 -->
<g id="edge15" class="edge">
<title>Node0&#45;&gt;Node13</title>
<path fill="none" stroke="#191970" d="M87.8609,-354.7053C120.6895,-318.4805 203.3237,-227.298 241.9734,-184.65"/>
<polygon fill="#191970" stroke="#191970" points="244.7513,-186.7969 248.8731,-177.0366 239.5644,-182.0962 244.7513,-186.7969"/>
</g>
<!-- Node3 -->
<g id="node4" class="node">
<title>Node3</title>
<g id="a_node4"><a xlink:href="namespaceumprintmgr.xhtml#aae44897e556705dbf5e945a26538be9a" target="_top" xlink:title="umprintmgr::umprint">
<polygon fill="#ffffff" stroke="#000000" points="404,-385.5 404,-404.5 523,-404.5 523,-385.5 404,-385.5"/>
<text text-anchor="middle" x="463.5" y="-392.5" font-family="Helvetica,sans-Serif" font-size="10.00" fill="#000000">umprintmgr::umprint</text>
</a>
</g>
</g>
<!-- Node2&#45;&gt;Node3 -->
<g id="edge3" class="edge">
<title>Node2&#45;&gt;Node3</title>
<path fill="none" stroke="#191970" d="M338.2031,-395C356.428,-395 375.8134,-395 393.7522,-395"/>
<polygon fill="#191970" stroke="#191970" points="393.839,-398.5001 403.8389,-395 393.8389,-391.5001 393.839,-398.5001"/>
</g>
<!-- Node4 -->
<g id="node5" class="node">
<title>Node4</title>
<g id="a_node5"><a xlink:href="namespaceumprintmgr.xhtml#a088ce22a18d574e9df7ee1850bfb10c7" target="_top" xlink:title="umprintmgr::umprintopenstream">
<polygon fill="#ffffff" stroke="#000000" points="586,-418.5 586,-437.5 763,-437.5 763,-418.5 586,-418.5"/>
<text text-anchor="middle" x="674.5" y="-425.5" font-family="Helvetica,sans-Serif" font-size="10.00" fill="#000000">umprintmgr::umprintopenstream</text>
</a>
</g>
</g>
<!-- Node3&#45;&gt;Node4 -->
<g id="edge4" class="edge">
<title>Node3&#45;&gt;Node4</title>
<path fill="none" stroke="#191970" d="M523.1181,-398.1769C558.8113,-402.7601 603.2065,-409.9464 634.6674,-416.3519"/>
<polygon fill="#191970" stroke="#191970" points="634.3027,-419.8519 644.8096,-418.4894 635.7463,-413.0024 634.3027,-419.8519"/>
</g>
<!-- Node5 -->
<g id="node6" class="node">
<title>Node5</title>
<g id="a_node6"><a xlink:href="namespaceumprintmgr.xhtml#ad3a290b30a6e25500eabc0bf90330b77" target="_top" xlink:title="umprintmgr::umprintflush">
<polygon fill="#ffffff" stroke="#000000" points="603.5,-380.5 603.5,-399.5 745.5,-399.5 745.5,-380.5 603.5,-380.5"/>
<text text-anchor="middle" x="674.5" y="-387.5" font-family="Helvetica,sans-Serif" font-size="10.00" fill="#000000">umprintmgr::umprintflush</text>
</a>
</g>
</g>
<!-- Node3&#45;&gt;Node5 -->
<g id="edge6" class="edge">
<title>Node3&#45;&gt;Node5</title>
<path fill="none" stroke="#191970" d="M523.1181,-393.5872C544.8801,-393.0716 569.8769,-392.4792 593.2048,-391.9264"/>
<polygon fill="#191970" stroke="#191970" points="593.5213,-395.42 603.4356,-391.684 593.3554,-388.422 593.5213,-395.42"/>
</g>
<!-- Node4&#45;&gt;Node3 -->
<g id="edge5" class="edge">
<title>Node4&#45;&gt;Node3</title>
<path fill="none" stroke="#191970" d="M585.5665,-420.7664C556.8277,-416.5322 526.4068,-411.3521 503.1229,-406.6053"/>
<polygon fill="#191970" stroke="#191970" points="503.7906,-403.1692 493.2836,-404.531 502.3465,-410.0187 503.7906,-403.1692"/>
</g>
<!-- Node6 -->
<g id="node7" class="node">
<title>Node6</title>
<g id="a_node7"><a xlink:href="namespaceumflush__mod.xhtml#a3a003ab59990bdcb712b443dd5e0d1cd" target="_top" xlink:title="umflush_mod::umflush">
<polygon fill="#ffffff" stroke="#000000" points="799,-380.5 799,-399.5 927,-399.5 927,-380.5 799,-380.5"/>
<text text-anchor="middle" x="863" y="-387.5" font-family="Helvetica,sans-Serif" font-size="10.00" fill="#000000">umflush_mod::umflush</text>
</a>
</g>
</g>
<!-- Node5&#45;&gt;Node6 -->
<g id="edge7" class="edge">
<title>Node5&#45;&gt;Node6</title>
<path fill="none" stroke="#191970" d="M745.7638,-390C759.7742,-390 774.5063,-390 788.6162,-390"/>
<polygon fill="#191970" stroke="#191970" points="788.7612,-393.5001 798.7611,-390 788.7611,-386.5001 788.7612,-393.5001"/>
</g>
<!-- Node7&#45;&gt;Node3 -->
<g id="edge9" class="edge">
<title>Node7&#45;&gt;Node3</title>
<path fill="none" stroke="#191970" d="M324.1726,-361.0346C353.1313,-368.0942 387.1724,-376.3928 414.3575,-383.02"/>
<polygon fill="#191970" stroke="#191970" points="413.8715,-386.5039 424.4159,-385.472 415.5295,-379.7031 413.8715,-386.5039"/>
</g>
<!-- Node8 -->
<g id="node9" class="node">
<title>Node8</title>
<g id="a_node9"><a xlink:href="swap__bounds-swpbnd2a_8f90.xhtml#aa0269e41062e156c437596022ea9ccd0" target="_top" xlink:title="Portable GCOM based version SWAP_BOUNDS. ">
<polygon fill="#ffffff" stroke="#000000" points="422,-342.5 422,-361.5 505,-361.5 505,-342.5 422,-342.5"/>
<text text-anchor="middle" x="463.5" y="-349.5" font-family="Helvetica,sans-Serif" font-size="10.00" fill="#000000">swap_bounds</text>
</a>
</g>
</g>
<!-- Node7&#45;&gt;Node8 -->
<g id="edge10" class="edge">
<title>Node7&#45;&gt;Node8</title>
<path fill="none" stroke="#191970" d="M341.0754,-348.3455C364.7312,-349.0517 390.0905,-349.8087 411.5585,-350.4495"/>
<polygon fill="#191970" stroke="#191970" points="411.6602,-353.954 421.7602,-350.754 411.8691,-346.9571 411.6602,-353.954"/>
</g>
<!-- Node10 -->
<g id="node11" class="node">
<title>Node10</title>
<g id="a_node11"><a xlink:href="eg__bi__linear__h_8f90.xhtml#acfe9665a80b7970dfbe44aa69fd38dd2" target="_top" xlink:title="Subroutine Interface: ">
<polygon fill="#ffffff" stroke="#000000" points="420,-304.5 420,-323.5 507,-323.5 507,-304.5 420,-304.5"/>
<text text-anchor="middle" x="463.5" y="-311.5" font-family="Helvetica,sans-Serif" font-size="10.00" fill="#000000">eg_bi_linear_h</text>
</a>
</g>
</g>
<!-- Node7&#45;&gt;Node10 -->
<g id="edge12" class="edge">
<title>Node7&#45;&gt;Node10</title>
<path fill="none" stroke="#191970" d="M341.0754,-333.4905C364.0688,-329.8298 388.6717,-325.913 409.7462,-322.5578"/>
<polygon fill="#191970" stroke="#191970" points="410.4605,-325.9883 419.7858,-320.9595 409.3599,-319.0753 410.4605,-325.9883"/>
</g>
<!-- Node9 -->
<g id="node10" class="node">
<title>Node9</title>
<g id="a_node10"><a xlink:href="fill__external__halos_8f90.xhtml#a9f4e1e061e136821fb9a51281a5e69c2" target="_top" xlink:title="Routine for filling in External Halos. ">
<polygon fill="#ffffff" stroke="#000000" points="621.5,-342.5 621.5,-361.5 727.5,-361.5 727.5,-342.5 621.5,-342.5"/>
<text text-anchor="middle" x="674.5" y="-349.5" font-family="Helvetica,sans-Serif" font-size="10.00" fill="#000000">fill_external_halos</text>
</a>
</g>
</g>
<!-- Node8&#45;&gt;Node9 -->
<g id="edge11" class="edge">
<title>Node8&#45;&gt;Node9</title>
<path fill="none" stroke="#191970" d="M505.1868,-352C535.336,-352 576.6223,-352 610.8772,-352"/>
<polygon fill="#191970" stroke="#191970" points="611.2622,-355.5001 621.2622,-352 611.2621,-348.5001 611.2622,-355.5001"/>
</g>
<!-- Node11 -->
<g id="node12" class="node">
<title>Node11</title>
<g id="a_node12"><a xlink:href="namespacelocate__hdps__mod.xhtml#a468a943405816b5adac7ccd99e88aa04" target="_top" xlink:title="locate_hdps_mod::locate_hdps">
<polygon fill="#ffffff" stroke="#000000" points="591,-266.5 591,-285.5 758,-285.5 758,-266.5 591,-266.5"/>
<text text-anchor="middle" x="674.5" y="-273.5" font-family="Helvetica,sans-Serif" font-size="10.00" fill="#000000">locate_hdps_mod::locate_hdps</text>
</a>
</g>
</g>
<!-- Node10&#45;&gt;Node11 -->
<g id="edge13" class="edge">
<title>Node10&#45;&gt;Node11</title>
<path fill="none" stroke="#191970" d="M507.2193,-306.1264C537.3024,-300.7086 577.7332,-293.4272 611.3105,-287.3801"/>
<polygon fill="#191970" stroke="#191970" points="612.2707,-290.7636 621.492,-285.5465 611.0299,-283.8744 612.2707,-290.7636"/>
</g>
<!-- Node12 -->
<g id="node13" class="node">
<title>Node12</title>
<g id="a_node13"><a xlink:href="bi__linear_8f90.xhtml#a2d2bec3776651c0e7f3ea8621eda06a6" target="_top" xlink:title="Subroutine Bi_Linear. ">
<polygon fill="#ffffff" stroke="#000000" points="645,-304.5 645,-323.5 704,-323.5 704,-304.5 645,-304.5"/>
<text text-anchor="middle" x="674.5" y="-311.5" font-family="Helvetica,sans-Serif" font-size="10.00" fill="#000000">bi_linear</text>
</a>
</g>
</g>
<!-- Node10&#45;&gt;Node12 -->
<g id="edge14" class="edge">
<title>Node10&#45;&gt;Node12</title>
<path fill="none" stroke="#191970" d="M507.2193,-314C544.6831,-314 598.1951,-314 634.5329,-314"/>
<polygon fill="#191970" stroke="#191970" points="634.76,-317.5001 644.7599,-314 634.7599,-310.5001 634.76,-317.5001"/>
</g>
<!-- Node13&#45;&gt;Node11 -->
<g id="edge17" class="edge">
<title>Node13&#45;&gt;Node11</title>
<path fill="none" stroke="#191970" d="M275.0369,-177.2392C294.3043,-199.3955 333.5518,-239.7377 377,-257 441.5633,-282.6514 520.2151,-286.626 580.4293,-284.6037"/>
<polygon fill="#191970" stroke="#191970" points="580.8354,-288.0904 590.6883,-284.1955 580.557,-281.0959 580.8354,-288.0904"/>
</g>
<!-- Node14 -->
<g id="node15" class="node">
<title>Node14</title>
<g id="a_node15"><a xlink:href="namespaceum__types.xhtml#a78c6f3e81ea4f109c824834c59a3a879" target="_top" xlink:title="Discover the size of a fortran default integer. ">
<polygon fill="#ffffff" stroke="#000000" points="377,-228.5 377,-247.5 550,-247.5 550,-228.5 377,-228.5"/>
<text text-anchor="middle" x="463.5" y="-235.5" font-family="Helvetica,sans-Serif" font-size="10.00" fill="#000000">um_types::umfortranintegersize</text>
</a>
</g>
</g>
<!-- Node13&#45;&gt;Node14 -->
<g id="edge16" class="edge">
<title>Node13&#45;&gt;Node14</title>
<path fill="none" stroke="#191970" d="M288.0772,-177.0201C310.7719,-189.7841 345.1693,-207.774 377,-219 384.5253,-221.654 392.5544,-224.0128 400.5739,-226.087"/>
<polygon fill="#191970" stroke="#191970" points="399.7706,-229.4937 410.3165,-228.4767 401.4382,-222.6952 399.7706,-229.4937"/>
</g>
<!-- Node15 -->
<g id="node16" class="node">
<title>Node15</title>
<g id="a_node16"><a xlink:href="sum_8f90.xhtml#a025c1f845b6a4ea9c9f48b8612cd82e7" target="_top" xlink:title="Generic routines for manipulating pp&#45;fields within Fieldcalc. ">
<polygon fill="#ffffff" stroke="#000000" points="444.5,-190.5 444.5,-209.5 482.5,-209.5 482.5,-190.5 444.5,-190.5"/>
<text text-anchor="middle" x="463.5" y="-197.5" font-family="Helvetica,sans-Serif" font-size="10.00" fill="#000000">sum</text>
</a>
</g>
</g>
<!-- Node13&#45;&gt;Node15 -->
<g id="edge18" class="edge">
<title>Node13&#45;&gt;Node15</title>
<path fill="none" stroke="#191970" d="M337.6308,-176.2038C371.1942,-182.5491 408.7967,-189.6581 434.0892,-194.4397"/>
<polygon fill="#191970" stroke="#191970" points="433.6513,-197.9189 444.1275,-196.3375 434.9517,-191.0407 433.6513,-197.9189"/>
</g>
<!-- Node16 -->
<g id="node17" class="node">
<title>Node16</title>
<g id="a_node17"><a xlink:href="eg__vert__weights__eta_8f90.xhtml#ad5b60d4a964b2b15eee4f9fa41fd65c8" target="_top" xlink:title="Subroutine Interface: ">
<polygon fill="#ffffff" stroke="#000000" points="404.5,-152.5 404.5,-171.5 522.5,-171.5 522.5,-152.5 404.5,-152.5"/>
<text text-anchor="middle" x="463.5" y="-159.5" font-family="Helvetica,sans-Serif" font-size="10.00" fill="#000000">eg_vert_weights_eta</text>
</a>
</g>
</g>
<!-- Node13&#45;&gt;Node16 -->
<g id="edge19" class="edge">
<title>Node13&#45;&gt;Node16</title>
<path fill="none" stroke="#191970" d="M337.6308,-162C356.2593,-162 376.1321,-162 394.4538,-162"/>
<polygon fill="#191970" stroke="#191970" points="394.4552,-165.5001 404.4552,-162 394.4552,-158.5001 394.4552,-165.5001"/>
</g>
<!-- Node20 -->
<g id="node21" class="node">
<title>Node20</title>
<g id="a_node21"><a xlink:href="eg__cubic__lagrange_8f90.xhtml#af87d6ab765bdfa56b78ee2599843cdc4" target="_top" xlink:title="Subroutine eg_Cubic_Lagrange. ">
<polygon fill="#ffffff" stroke="#000000" points="410,-114.5 410,-133.5 517,-133.5 517,-114.5 410,-114.5"/>
<text text-anchor="middle" x="463.5" y="-121.5" font-family="Helvetica,sans-Serif" font-size="10.00" fill="#000000">eg_cubic_lagrange</text>
</a>
</g>
</g>
<!-- Node13&#45;&gt;Node20 -->
<g id="edge23" class="edge">
<title>Node13&#45;&gt;Node20</title>
<path fill="none" stroke="#191970" d="M337.6308,-147.7962C359.2874,-143.7019 382.6257,-139.2897 403.2535,-135.3899"/>
<polygon fill="#191970" stroke="#191970" points="403.9672,-138.817 413.1429,-133.5202 402.6668,-131.9389 403.9672,-138.817"/>
</g>
<!-- Node21 -->
<g id="node22" class="node">
<title>Node21</title>
<g id="a_node22"><a xlink:href="eg__quintic__lagrange_8f90.xhtml#a33d92c3fa33a6763d2055e5b4ae7c385" target="_top" xlink:title="Subroutine Quintic_Lagrange. ">
<polygon fill="#ffffff" stroke="#000000" points="406,-76.5 406,-95.5 521,-95.5 521,-76.5 406,-76.5"/>
<text text-anchor="middle" x="463.5" y="-83.5" font-family="Helvetica,sans-Serif" font-size="10.00" fill="#000000">eg_quintic_lagrange</text>
</a>
</g>
</g>
<!-- Node13&#45;&gt;Node21 -->
<g id="edge24" class="edge">
<title>Node13&#45;&gt;Node21</title>
<path fill="none" stroke="#191970" d="M288.0772,-146.9799C310.7719,-134.2159 345.1693,-116.226 377,-105 384.5253,-102.346 392.5544,-99.9872 400.5739,-97.913"/>
<polygon fill="#191970" stroke="#191970" points="401.4382,-101.3048 410.3165,-95.5233 399.7706,-94.5063 401.4382,-101.3048"/>
</g>
<!-- Node22 -->
<g id="node23" class="node">
<title>Node22</title>
<g id="a_node23"><a xlink:href="mono__enforce_8f90.xhtml#a04af862b6c4be95d408bda425a954990" target="_top" xlink:title="Subroutine Mono_Enforce. ">
<polygon fill="#ffffff" stroke="#000000" points="420.5,-38.5 420.5,-57.5 506.5,-57.5 506.5,-38.5 420.5,-38.5"/>
<text text-anchor="middle" x="463.5" y="-45.5" font-family="Helvetica,sans-Serif" font-size="10.00" fill="#000000">mono_enforce</text>
</a>
</g>
</g>
<!-- Node13&#45;&gt;Node22 -->
<g id="edge25" class="edge">
<title>Node13&#45;&gt;Node22</title>
<path fill="none" stroke="#191970" d="M276.0696,-146.8943C296.0292,-125.6542 335.4566,-87.2938 377,-67 387.3646,-61.9369 399.0833,-58.2096 410.4722,-55.47"/>
<polygon fill="#191970" stroke="#191970" points="411.3327,-58.8646 420.3535,-53.308 409.8365,-52.0264 411.3327,-58.8646"/>
</g>
<!-- Node23 -->
<g id="node24" class="node">
<title>Node23</title>
<g id="a_node24"><a xlink:href="eg__tri__linear_8f90.xhtml#aa30735a034101263dd8d3737c39b15ef" target="_top" xlink:title="Subroutine Tri_Linear. ">
<polygon fill="#ffffff" stroke="#000000" points="425,-.5 425,-19.5 502,-19.5 502,-.5 425,-.5"/>
<text text-anchor="middle" x="463.5" y="-7.5" font-family="Helvetica,sans-Serif" font-size="10.00" fill="#000000">eg_tri_linear</text>
</a>
</g>
</g>
<!-- Node13&#45;&gt;Node23 -->
<g id="edge26" class="edge">
<title>Node13&#45;&gt;Node23</title>
<path fill="none" stroke="#191970" d="M270.9722,-146.8403C287.4778,-118.8034 326.7682,-58.9817 377,-29 388.3552,-22.2225 401.844,-17.8544 414.7512,-15.0418"/>
<polygon fill="#191970" stroke="#191970" points="415.7576,-18.4131 424.9259,-13.1033 414.4475,-11.5368 415.7576,-18.4131"/>
</g>
<!-- Node17 -->
<g id="node18" class="node">
<title>Node17</title>
<g id="a_node18"><a xlink:href="eg__vert__weights__eta_8f90.xhtml#a600e994fc522128a8b7fb5c2901856a4" target="_top" xlink:title="vquintic_consts">
<polygon fill="#ffffff" stroke="#000000" points="628.5,-190.5 628.5,-209.5 720.5,-209.5 720.5,-190.5 628.5,-190.5"/>
<text text-anchor="middle" x="674.5" y="-197.5" font-family="Helvetica,sans-Serif" font-size="10.00" fill="#000000">vquintic_consts</text>
</a>
</g>
</g>
<!-- Node16&#45;&gt;Node17 -->
<g id="edge20" class="edge">
<title>Node16&#45;&gt;Node17</title>
<path fill="none" stroke="#191970" d="M516.4719,-171.54C547.5351,-177.1343 586.7553,-184.1976 618.3518,-189.888"/>
<polygon fill="#191970" stroke="#191970" points="617.8605,-193.3557 628.3225,-191.6837 619.1012,-186.4666 617.8605,-193.3557"/>
</g>
<!-- Node18 -->
<g id="node19" class="node">
<title>Node18</title>
<g id="a_node19"><a xlink:href="eg__vert__weights__eta_8f90.xhtml#a2f1eac9e264142146616bf792bd89ba4" target="_top" xlink:title="vcubic_consts">
<polygon fill="#ffffff" stroke="#000000" points="632,-152.5 632,-171.5 717,-171.5 717,-152.5 632,-152.5"/>
<text text-anchor="middle" x="674.5" y="-159.5" font-family="Helvetica,sans-Serif" font-size="10.00" fill="#000000">vcubic_consts</text>
</a>
</g>
</g>
<!-- Node16&#45;&gt;Node18 -->
<g id="edge21" class="edge">
<title>Node16&#45;&gt;Node18</title>
<path fill="none" stroke="#191970" d="M522.5558,-162C553.6374,-162 591.4385,-162 621.5611,-162"/>
<polygon fill="#191970" stroke="#191970" points="621.872,-165.5001 631.8719,-162 621.8719,-158.5001 621.872,-165.5001"/>
</g>
<!-- Node19 -->
<g id="node20" class="node">
<title>Node19</title>
<g id="a_node20"><a xlink:href="eg__vert__weights__eta_8f90.xhtml#a4354a615a2621c5a9678ea589dad0be8" target="_top" xlink:title="basis_derivs_for_hermite">
<polygon fill="#ffffff" stroke="#000000" points="604.5,-114.5 604.5,-133.5 744.5,-133.5 744.5,-114.5 604.5,-114.5"/>
<text text-anchor="middle" x="674.5" y="-121.5" font-family="Helvetica,sans-Serif" font-size="10.00" fill="#000000">basis_derivs_for_hermite</text>
</a>
</g>
</g>
<!-- Node16&#45;&gt;Node19 -->
<g id="edge22" class="edge">
<title>Node16&#45;&gt;Node19</title>
<path fill="none" stroke="#191970" d="M516.4719,-152.46C545.3168,-147.2652 581.1952,-140.8037 611.4717,-135.3511"/>
<polygon fill="#191970" stroke="#191970" points="612.2851,-138.761 621.5063,-133.5439 611.0443,-131.8718 612.2851,-138.761"/>
</g>
</g>
</svg>
        <g id="navigator" transform="translate(0 0)" fill="#404254">
                <rect fill="#f2f5e9" fill-opacity="0.5" stroke="#606060" stroke-width=".5" x="0" y="0" width="60" height="60"/>
                <use id="zoomplus" xlink:href="#zoomPlus" x="17" y="9" onmousedown="handleZoom(evt,'in')"/>
                <use id="zoomminus" xlink:href="#zoomMin" x="42" y="9" onmousedown="handleZoom(evt,'out')"/>
                <use id="reset" xlink:href="#resetDef" x="30" y="36" onmousedown="handleReset()"/>
                <g id="arrowUp" xlink:href="#dirArrow" transform="translate(30 24)" onmousedown="handlePan(0,-1)">
                  <use xlink:href="#rim" fill="#404040">
                        <set attributeName="fill" to="#808080" begin="arrowUp.mouseover" end="arrowUp.mouseout"/>
                  </use>
                  <path fill="none" stroke="white" stroke-width="1.5" d="M0,-3.0v7 M-2.5,-0.5L0,-3.0L2.5,-0.5"/>
                </g>
                <g id="arrowRight" xlink:href="#dirArrow" transform="rotate(90) translate(36 -43)" onmousedown="handlePan(1,0)">
                  <use xlink:href="#rim" fill="#404040">
                        <set attributeName="fill" to="#808080" begin="arrowRight.mouseover" end="arrowRight.mouseout"/>
                  </use>
                  <path fill="none" stroke="white" stroke-width="1.5" d="M0,-3.0v7 M-2.5,-0.5L0,-3.0L2.5,-0.5"/>
                </g>
                <g id="arrowDown" xlink:href="#dirArrow" transform="rotate(180) translate(-30 -48)" onmousedown="handlePan(0,1)">
                  <use xlink:href="#rim" fill="#404040">
                        <set attributeName="fill" to="#808080" begin="arrowDown.mouseover" end="arrowDown.mouseout"/>
                  </use>
                  <path fill="none" stroke="white" stroke-width="1.5" d="M0,-3.0v7 M-2.5,-0.5L0,-3.0L2.5,-0.5"/>
                </g>
                <g id="arrowLeft" xlink:href="#dirArrow" transform="rotate(270) translate(-36 17)" onmousedown="handlePan(-1,0)">
                  <use xlink:href="#rim" fill="#404040">
                        <set attributeName="fill" to="#808080" begin="arrowLeft.mouseover" end="arrowLeft.mouseout"/>
                  </use>
                  <path fill="none" stroke="white" stroke-width="1.5" d="M0,-3.0v7 M-2.5,-0.5L0,-3.0L2.5,-0.5"/>
                </g>
        </g>
        <svg viewBox="0 0 15 15" width="100%" height="30px" preserveAspectRatio="xMaxYMin meet">
         <g id="arrow_out" transform="scale(0.3 0.3)">
          <a xlink:href="namespacedeparture__point__eta__mod_a84e8464c7a77a0d1b75b438d154dc1ba_cgraph_org.svg" target="_base">
           <rect id="button" ry="5" rx="5" y="6" x="6" height="38" width="38"
                fill="#f2f5e9" fill-opacity="0.5" stroke="#606060" stroke-width="1.0"/>
           <path id="arrow"
             d="M 11.500037,31.436501 C 11.940474,20.09759 22.043105,11.32322 32.158766,21.979434 L 37.068811,17.246167 C 37.068811,17.246167 37.088388,32 37.088388,32 L 22.160133,31.978069 C 22.160133,31.978069 26.997745,27.140456 26.997745,27.140456 C 18.528582,18.264221 13.291696,25.230495 11.500037,31.436501 z"
             style="fill:#404040;"/>
          </a>
         </g>
        </svg>
</svg>
