<?xml version="1.0" encoding="UTF-8" standalone="no"?>
<!DOCTYPE svg PUBLIC "-//W3C//DTD SVG 1.1//EN"
 "http://www.w3.org/Graphics/SVG/1.1/DTD/svg11.dtd">
<!-- Generated by graphviz version 2.40.1 (20161225.0304)
 -->
<!-- Title: set_metric_terms_4a_mod::set_metric_terms_4a Pages: 1 -->
<svg width="734pt" height="39pt"
 viewBox="0.00 0.00 734.00 39.00" xmlns="http://www.w3.org/2000/svg" xmlns:xlink="http://www.w3.org/1999/xlink">
<g id="graph0" class="graph" transform="scale(1 1) rotate(0) translate(4 35)">
<title>set_metric_terms_4a_mod::set_metric_terms_4a</title>
<polygon fill="#ffffff" stroke="transparent" points="-4,4 -4,-35 730,-35 730,4 -4,4"/>
<!-- Node17 -->
<g id="node1" class="node">
<title>Node17</title>
<polygon fill="#bfbfbf" stroke="#000000" points="0,-.5 0,-30.5 152,-30.5 152,-.5 0,-.5"/>
<text text-anchor="start" x="8" y="-18.5" font-family="Helvetica,sans-Serif" font-size="10.00" fill="#000000">set_metric_terms_4a</text>
<text text-anchor="middle" x="76" y="-7.5" font-family="Helvetica,sans-Serif" font-size="10.00" fill="#000000">_mod::set_metric_terms_4a</text>
</g>
<!-- Node18 -->
<g id="node2" class="node">
<title>Node18</title>
<g id="a_node2"><a xlink:href="namespaceeg__sisl__setcon__mod.xhtml#ae721510b51ec2e87da0eb44737608247" target="_top" xlink:title="eg_sisl_setcon_mod\l::eg_sisl_setcon">
<polygon fill="#ffffff" stroke="#000000" points="188,-.5 188,-30.5 303,-30.5 303,-.5 188,-.5"/>
<text text-anchor="start" x="196" y="-18.5" font-family="Helvetica,sans-Serif" font-size="10.00" fill="#000000">eg_sisl_setcon_mod</text>
<text text-anchor="middle" x="245.5" y="-7.5" font-family="Helvetica,sans-Serif" font-size="10.00" fill="#000000">::eg_sisl_setcon</text>
</a>
</g>
</g>
<!-- Node17&#45;&gt;Node18 -->
<g id="edge1" class="edge">
<title>Node17&#45;&gt;Node18</title>
<path fill="none" stroke="#191970" d="M162.4358,-15.5C171.0617,-15.5 179.6642,-15.5 187.8859,-15.5"/>
<polygon fill="#191970" stroke="#191970" points="162.3205,-12.0001 152.3205,-15.5 162.3205,-19.0001 162.3205,-12.0001"/>
</g>
<!-- Node19 -->
<g id="node3" class="node">
<title>Node19</title>
<g id="a_node3"><a xlink:href="atm__step__4_a_8f90.xhtml#a2319aa4963e90c64cd78bdcd5f481095" target="_top" xlink:title="Perform a 1&#45;timestep integration of the Atmosphere Model. ">
<polygon fill="#ffffff" stroke="#000000" points="339,-6 339,-25 419,-25 419,-6 339,-6"/>
<text text-anchor="middle" x="379" y="-13" font-family="Helvetica,sans-Serif" font-size="10.00" fill="#000000">atm_step_4a</text>
</a>
</g>
</g>
<!-- Node18&#45;&gt;Node19 -->
<g id="edge2" class="edge">
<title>Node18&#45;&gt;Node19</title>
<path fill="none" stroke="#191970" d="M313.4444,-15.5C322.1236,-15.5 330.7759,-15.5 338.8141,-15.5"/>
<polygon fill="#191970" stroke="#191970" points="313.2786,-12.0001 303.2786,-15.5 313.2786,-19.0001 313.2786,-12.0001"/>
</g>
<!-- Node20 -->
<g id="node4" class="node">
<title>Node20</title>
<g id="a_node4"><a xlink:href="u__model__4_a_8f90.xhtml#afa05064dab5eba198b461d0928767c7e" target="_top" xlink:title="LL Subroutine: U_MODEL_4A (ENDGAME VERSION) !&gt;LL. ">
<polygon fill="#ffffff" stroke="#000000" points="455,-6 455,-25 531,-25 531,-6 455,-6"/>
<text text-anchor="middle" x="493" y="-13" font-family="Helvetica,sans-Serif" font-size="10.00" fill="#000000">u_model_4a</text>
</a>
</g>
</g>
<!-- Node19&#45;&gt;Node20 -->
<g id="edge3" class="edge">
<title>Node19&#45;&gt;Node20</title>
<path fill="none" stroke="#191970" d="M429.3998,-15.5C437.891,-15.5 446.5803,-15.5 454.7002,-15.5"/>
<polygon fill="#191970" stroke="#191970" points="429.1922,-12.0001 419.1921,-15.5 429.1921,-19.0001 429.1922,-12.0001"/>
</g>
<!-- Node21 -->
<g id="node5" class="node">
<title>Node21</title>
<g id="a_node5"><a xlink:href="um__shell_8f90.xhtml#a8c9bd25362824a5c301376ecb5ed5c27" target="_top" xlink:title="Subroutine: UM_SHELL !&gt; ">
<polygon fill="#ffffff" stroke="#000000" points="567,-6 567,-25 628,-25 628,-6 567,-6"/>
<text text-anchor="middle" x="597.5" y="-13" font-family="Helvetica,sans-Serif" font-size="10.00" fill="#000000">um_shell</text>
</a>
</g>
</g>
<!-- Node20&#45;&gt;Node21 -->
<g id="edge4" class="edge">
<title>Node20&#45;&gt;Node21</title>
<path fill="none" stroke="#191970" d="M541.1579,-15.5C549.9023,-15.5 558.8005,-15.5 566.8647,-15.5"/>
<polygon fill="#191970" stroke="#191970" points="541.0225,-12.0001 531.0225,-15.5 541.0225,-19.0001 541.0225,-12.0001"/>
</g>
<!-- Node22 -->
<g id="node6" class="node">
<title>Node22</title>
<g id="a_node6"><a xlink:href="um__main_8f90.xhtml#a8f2d13215621443a5313261c282f098b" target="_top" xlink:title="Code Owner: See Unified Model Code Owner&#39;s HTML page. ">
<polygon fill="#ffffff" stroke="#000000" points="664,-6 664,-25 726,-25 726,-6 664,-6"/>
<text text-anchor="middle" x="695" y="-13" font-family="Helvetica,sans-Serif" font-size="10.00" fill="#000000">um_main</text>
</a>
</g>
</g>
<!-- Node21&#45;&gt;Node22 -->
<g id="edge5" class="edge">
<title>Node21&#45;&gt;Node22</title>
<path fill="none" stroke="#191970" d="M638.2756,-15.5C646.8294,-15.5 655.72,-15.5 663.8551,-15.5"/>
<polygon fill="#191970" stroke="#191970" points="638.0821,-12.0001 628.0821,-15.5 638.0821,-19.0001 638.0821,-12.0001"/>
</g>
</g>
</svg>
