<?xml version="1.0" encoding="UTF-8" standalone="no"?>
<!DOCTYPE svg PUBLIC "-//W3C//DTD SVG 1.1//EN"
 "http://www.w3.org/Graphics/SVG/1.1/DTD/svg11.dtd">
<!-- Generated by graphviz version 2.40.1 (20161225.0304)
 -->
<!-- Title: stph_skeb2_mod::stph_skeb2 Pages: 1 -->
<!--zoomable 799 -->
<svg id="main" version="1.1" xmlns="http://www.w3.org/2000/svg" xmlns:xlink="http://www.w3.org/1999/xlink" xml:space="preserve" onload="init(evt)">
<style type="text/css"><![CDATA[
.edge:hover path { stroke: red; }
.edge:hover polygon { stroke: red; fill: red; }
]]></style>
<script type="text/javascript"><![CDATA[
var edges = document.getElementsByTagName('g');
if (edges && edges.length) {
  for (var i=0;i<edges.length;i++) {
    if (edges[i].id.substr(0,4)=='edge') {
      edges[i].setAttribute('class','edge');
    }
  }
}
]]></script>
        <defs>
                <circle id="rim" cx="0" cy="0" r="7"/>
                <circle id="rim2" cx="0" cy="0" r="3.5"/>
                <g id="zoomPlus">
                        <use xlink:href="#rim" fill="#404040">
                                <set attributeName="fill" to="#808080" begin="zoomplus.mouseover" end="zoomplus.mouseout"/>
                        </use>
                        <path d="M-4,0h8M0,-4v8" fill="none" stroke="white" stroke-width="1.5" pointer-events="none"/>
                </g>
                <g id="zoomMin">
                        <use xlink:href="#rim" fill="#404040">
                                <set attributeName="fill" to="#808080" begin="zoomminus.mouseover" end="zoomminus.mouseout"/>
                        </use>
                        <path d="M-4,0h8" fill="none" stroke="white" stroke-width="1.5" pointer-events="none"/>
                </g>
                <g id="dirArrow">
                        <path fill="none" stroke="white" stroke-width="1.5" d="M0,-3.0v7 M-2.5,-0.5L0,-3.0L2.5,-0.5"/>
                </g>
               <g id="resetDef">
                       <use xlink:href="#rim2" fill="#404040">
                               <set attributeName="fill" to="#808080" begin="reset.mouseover" end="reset.mouseout"/>
                       </use>
               </g>
        </defs>

<script type="text/javascript">
var viewWidth = 1227;
var viewHeight = 799;
var sectionId = 'dynsection-0';
</script>
<script xlink:href="svgpan.js"/>
<svg id="graph" class="graph">
<g id="viewport">
<title>stph_skeb2_mod::stph_skeb2</title>
<polygon fill="#ffffff" stroke="transparent" points="-4,4 -4,-794.6136 1223,-794.6136 1223,4 -4,4"/>
<!-- Node0 -->
<g id="node1" class="node">
<title>Node0</title>
<polygon fill="#bfbfbf" stroke="#000000" points="0,-334.5 0,-364.5 126,-364.5 126,-334.5 0,-334.5"/>
<text text-anchor="start" x="8" y="-352.5" font-family="Helvetica,sans-Serif" font-size="10.00" fill="#000000">stph_skeb2_mod::stph</text>
<text text-anchor="middle" x="63" y="-341.5" font-family="Helvetica,sans-Serif" font-size="10.00" fill="#000000">_skeb2</text>
</g>
<!-- Node1 -->
<g id="node2" class="node">
<title>Node1</title>
<g id="a_node2"><a xlink:href="namespaceglobal__2d__sums__mod.xhtml#ac3fe3c2679168085c4635a17e5f82215" target="_top" xlink:title="global_2d_sums_mod\l::global_2d_sums">
<polygon fill="#ffffff" stroke="#000000" points="368.5,-62.5 368.5,-92.5 490.5,-92.5 490.5,-62.5 368.5,-62.5"/>
<text text-anchor="start" x="376.5" y="-80.5" font-family="Helvetica,sans-Serif" font-size="10.00" fill="#000000">global_2d_sums_mod</text>
<text text-anchor="middle" x="429.5" y="-69.5" font-family="Helvetica,sans-Serif" font-size="10.00" fill="#000000">::global_2d_sums</text>
</a>
</g>
</g>
<!-- Node0&#45;&gt;Node1 -->
<g id="edge1" class="edge">
<title>Node0&#45;&gt;Node1</title>
<path fill="none" stroke="#191970" d="M64.4299,-334.4951C69.3047,-292.3961 89.2581,-172.5944 162,-116.5 191.8268,-93.4993 289.411,-84.0094 358.0601,-80.1301"/>
<polygon fill="#191970" stroke="#191970" points="358.5924,-83.6067 368.3905,-79.5759 358.2174,-76.6167 358.5924,-83.6067"/>
</g>
<!-- Node2 -->
<g id="node3" class="node">
<title>Node2</title>
<g id="a_node3"><a xlink:href="namespacebackscatter__spectrum__mod.xhtml#a39b42c889871b280ebbd175aca7a5ad5" target="_top" xlink:title="backscatter_spectrum\l_mod::backscatter_spectrum">
<polygon fill="#ffffff" stroke="#000000" points="529,-492.5 529,-522.5 687,-522.5 687,-492.5 529,-492.5"/>
<text text-anchor="start" x="537" y="-510.5" font-family="Helvetica,sans-Serif" font-size="10.00" fill="#000000">backscatter_spectrum</text>
<text text-anchor="middle" x="608" y="-499.5" font-family="Helvetica,sans-Serif" font-size="10.00" fill="#000000">_mod::backscatter_spectrum</text>
</a>
</g>
</g>
<!-- Node0&#45;&gt;Node2 -->
<g id="edge2" class="edge">
<title>Node0&#45;&gt;Node2</title>
<path fill="none" stroke="#191970" d="M79.9132,-364.6292C98.6372,-380.5361 130.3713,-405.0792 162,-418.5 300.0103,-477.0611 346.0624,-453.7411 493,-483.5 503.8998,-485.7075 515.3736,-488.0635 526.6825,-490.4045"/>
<polygon fill="#191970" stroke="#191970" points="526.057,-493.8492 536.5595,-492.4538 527.4791,-486.9951 526.057,-493.8492"/>
</g>
<!-- Node3 -->
<g id="node4" class="node">
<title>Node3</title>
<g id="a_node4"><a xlink:href="namespaceumprintmgr.xhtml#aae44897e556705dbf5e945a26538be9a" target="_top" xlink:title="umprintmgr::umprint">
<polygon fill="#ffffff" stroke="#000000" points="723,-498 723,-517 842,-517 842,-498 723,-498"/>
<text text-anchor="middle" x="782.5" y="-505" font-family="Helvetica,sans-Serif" font-size="10.00" fill="#000000">umprintmgr::umprint</text>
</a>
</g>
</g>
<!-- Node0&#45;&gt;Node3 -->
<g id="edge38" class="edge">
<title>Node0&#45;&gt;Node3</title>
<path fill="none" stroke="#191970" d="M66.6063,-364.722C75.7888,-399.8568 103.5741,-486.7165 162,-527.5 257.9855,-594.5015 574.8835,-604.1497 687,-570.5 717.082,-561.4715 746.4376,-539.5604 764.4872,-524.1258"/>
<polygon fill="#191970" stroke="#191970" points="767.2079,-526.3931 772.3934,-517.1539 762.5781,-521.1429 767.2079,-526.3931"/>
</g>
<!-- Node7 -->
<g id="node8" class="node">
<title>Node7</title>
<g id="a_node8"><a xlink:href="namespacediagnostics__stph__mod.xhtml#a09534481d8b41872158c576f174bb1d6" target="_top" xlink:title="diagnostics_stph_mod\l::diagnostics_stph">
<polygon fill="#ffffff" stroke="#000000" points="183.5,-487.5 183.5,-517.5 308.5,-517.5 308.5,-487.5 183.5,-487.5"/>
<text text-anchor="start" x="191.5" y="-505.5" font-family="Helvetica,sans-Serif" font-size="10.00" fill="#000000">diagnostics_stph_mod</text>
<text text-anchor="middle" x="246" y="-494.5" font-family="Helvetica,sans-Serif" font-size="10.00" fill="#000000">::diagnostics_stph</text>
</a>
</g>
</g>
<!-- Node0&#45;&gt;Node7 -->
<g id="edge8" class="edge">
<title>Node0&#45;&gt;Node7</title>
<path fill="none" stroke="#191970" d="M72.5526,-364.5723C88.5004,-388.7045 122.7011,-436.2644 162,-465.5 171.1965,-472.3416 181.8566,-478.2596 192.4318,-483.2329"/>
<polygon fill="#191970" stroke="#191970" points="191.1066,-486.4742 201.6644,-487.3596 193.9631,-480.0835 191.1066,-486.4742"/>
</g>
<!-- Node11 -->
<g id="node12" class="node">
<title>Node11</title>
<g id="a_node12"><a xlink:href="namespaceskeb__forcing__mod.xhtml#a00d0e881c3d489c70ed07b0bc322f043" target="_top" xlink:title="skeb_forcing_mod::skeb\l_forcing">
<polygon fill="#ffffff" stroke="#000000" points="178.5,-378.5 178.5,-408.5 313.5,-408.5 313.5,-378.5 178.5,-378.5"/>
<text text-anchor="start" x="186.5" y="-396.5" font-family="Helvetica,sans-Serif" font-size="10.00" fill="#000000">skeb_forcing_mod::skeb</text>
<text text-anchor="middle" x="246" y="-385.5" font-family="Helvetica,sans-Serif" font-size="10.00" fill="#000000">_forcing</text>
</a>
</g>
</g>
<!-- Node0&#45;&gt;Node11 -->
<g id="edge13" class="edge">
<title>Node0&#45;&gt;Node11</title>
<path fill="none" stroke="#191970" d="M125.4664,-364.5192C140.9864,-368.2508 157.7497,-372.2814 173.6982,-376.116"/>
<polygon fill="#191970" stroke="#191970" points="172.9635,-379.539 183.5046,-378.4738 174.6,-372.733 172.9635,-379.539"/>
</g>
<!-- Node16 -->
<g id="node17" class="node">
<title>Node16</title>
<g id="a_node17"><a xlink:href="namespacebiharm__diss__mod.xhtml#a5e9c1ff47a9f568c0e09d0b174dc728a" target="_top" xlink:title="biharm_diss_mod::biharm_diss">
<polygon fill="#ffffff" stroke="#000000" points="162,-50 162,-69 330,-69 330,-50 162,-50"/>
<text text-anchor="middle" x="246" y="-57" font-family="Helvetica,sans-Serif" font-size="10.00" fill="#000000">biharm_diss_mod::biharm_diss</text>
</a>
</g>
</g>
<!-- Node0&#45;&gt;Node16 -->
<g id="edge20" class="edge">
<title>Node0&#45;&gt;Node16</title>
<path fill="none" stroke="#191970" d="M64.0261,-334.2762C67.9113,-289.0225 85.671,-154.0962 162,-83.5 166.3512,-79.4756 171.3313,-76.1206 176.647,-73.3244"/>
<polygon fill="#191970" stroke="#191970" points="178.2097,-76.4586 185.8578,-69.1267 175.3067,-70.0889 178.2097,-76.4586"/>
</g>
<!-- Node17 -->
<g id="node18" class="node">
<title>Node17</title>
<g id="a_node18"><a xlink:href="namespaceskeb__smagorinsky__mod.xhtml#a60114860bc2607fc2a32cf0a3b6d39f9" target="_top" xlink:title="skeb_smagorinsky_mod\l::skeb_smagorinsky">
<polygon fill="#ffffff" stroke="#000000" points="178.5,-252.5 178.5,-282.5 313.5,-282.5 313.5,-252.5 178.5,-252.5"/>
<text text-anchor="start" x="186.5" y="-270.5" font-family="Helvetica,sans-Serif" font-size="10.00" fill="#000000">skeb_smagorinsky_mod</text>
<text text-anchor="middle" x="246" y="-259.5" font-family="Helvetica,sans-Serif" font-size="10.00" fill="#000000">::skeb_smagorinsky</text>
</a>
</g>
</g>
<!-- Node0&#45;&gt;Node17 -->
<g id="edge21" class="edge">
<title>Node0&#45;&gt;Node17</title>
<path fill="none" stroke="#191970" d="M85.8056,-334.3161C105.3762,-321.7954 134.6673,-304.2446 162,-292.5 167.463,-290.1526 173.2154,-287.9393 179.0417,-285.8739"/>
<polygon fill="#191970" stroke="#191970" points="180.5312,-289.0647 188.8786,-282.54 178.2843,-282.4351 180.5312,-289.0647"/>
</g>
<!-- Node18 -->
<g id="node19" class="node">
<title>Node18</title>
<g id="a_node19"><a xlink:href="swap__bounds-swpbnd2a_8f90.xhtml#aa0269e41062e156c437596022ea9ccd0" target="_top" xlink:title="Portable GCOM based version SWAP_BOUNDS. ">
<polygon fill="#ffffff" stroke="#000000" points="388,-150 388,-169 471,-169 471,-150 388,-150"/>
<text text-anchor="middle" x="429.5" y="-157" font-family="Helvetica,sans-Serif" font-size="10.00" fill="#000000">swap_bounds</text>
</a>
</g>
</g>
<!-- Node0&#45;&gt;Node18 -->
<g id="edge46" class="edge">
<title>Node0&#45;&gt;Node18</title>
<path fill="none" stroke="#191970" d="M71.1549,-334.4748C89.828,-300.6299 136.0709,-220.0824 162,-203.5 196.9326,-181.1596 310.5067,-168.7277 377.915,-163.1482"/>
<polygon fill="#191970" stroke="#191970" points="378.2277,-166.6344 387.9143,-162.3427 377.6655,-159.657 378.2277,-166.6344"/>
</g>
<!-- Node20 -->
<g id="node21" class="node">
<title>Node20</title>
<g id="a_node21"><a xlink:href="namespacestph__closeinput__mod.xhtml#a447e7250627a1e0a1cfb5bd96a732916" target="_top" xlink:title="stph_closeinput_mod\l::stph_closeinput">
<polygon fill="#ffffff" stroke="#000000" points="548,-744.5 548,-774.5 668,-774.5 668,-744.5 548,-744.5"/>
<text text-anchor="start" x="556" y="-762.5" font-family="Helvetica,sans-Serif" font-size="10.00" fill="#000000">stph_closeinput_mod</text>
<text text-anchor="middle" x="608" y="-751.5" font-family="Helvetica,sans-Serif" font-size="10.00" fill="#000000">::stph_closeinput</text>
</a>
</g>
</g>
<!-- Node0&#45;&gt;Node20 -->
<g id="edge25" class="edge">
<title>Node0&#45;&gt;Node20</title>
<path fill="none" stroke="#191970" d="M64.7771,-364.9081C72.5022,-429.0297 105.3472,-673.6091 162,-721.5 267.4668,-810.6553 441.4302,-794.3422 537.9683,-776.0264"/>
<polygon fill="#191970" stroke="#191970" points="538.7785,-779.4343 547.9202,-774.0789 537.4341,-772.5646 538.7785,-779.4343"/>
</g>
<!-- Node21 -->
<g id="node22" class="node">
<title>Node21</title>
<g id="a_node22"><a xlink:href="namespacestph__closeoutput__mod.xhtml#a214f24745a6631c3e92deb2f6e5c7d6e" target="_top" xlink:title="stph_closeoutput_mod\l::stph_closeoutput">
<polygon fill="#ffffff" stroke="#000000" points="366,-700.5 366,-730.5 493,-730.5 493,-700.5 366,-700.5"/>
<text text-anchor="start" x="374" y="-718.5" font-family="Helvetica,sans-Serif" font-size="10.00" fill="#000000">stph_closeoutput_mod</text>
<text text-anchor="middle" x="429.5" y="-707.5" font-family="Helvetica,sans-Serif" font-size="10.00" fill="#000000">::stph_closeoutput</text>
</a>
</g>
</g>
<!-- Node0&#45;&gt;Node21 -->
<g id="edge27" class="edge">
<title>Node0&#45;&gt;Node21</title>
<path fill="none" stroke="#191970" d="M65.2199,-364.606C74.3069,-424.276 110.6329,-642.4118 162,-685.5 215.2223,-730.1443 296.8295,-733.057 355.9123,-727.6494"/>
<polygon fill="#191970" stroke="#191970" points="356.3343,-731.1247 365.9303,-726.6338 355.6283,-724.1604 356.3343,-731.1247"/>
</g>
<!-- Node22 -->
<g id="node23" class="node">
<title>Node22</title>
<g id="a_node23"><a xlink:href="namespacestph__openinput__mod.xhtml#a858b84880c03822059708b2b3aae01f1" target="_top" xlink:title="stph_openinput_mod\l::stph_openinput">
<polygon fill="#ffffff" stroke="#000000" points="548.5,-656.5 548.5,-686.5 667.5,-686.5 667.5,-656.5 548.5,-656.5"/>
<text text-anchor="start" x="556.5" y="-674.5" font-family="Helvetica,sans-Serif" font-size="10.00" fill="#000000">stph_openinput_mod</text>
<text text-anchor="middle" x="608" y="-663.5" font-family="Helvetica,sans-Serif" font-size="10.00" fill="#000000">::stph_openinput</text>
</a>
</g>
</g>
<!-- Node0&#45;&gt;Node22 -->
<g id="edge29" class="edge">
<title>Node0&#45;&gt;Node22</title>
<path fill="none" stroke="#191970" d="M65.6494,-364.7486C75.7657,-421.0654 113.8245,-615.9689 162,-652.5 219.2645,-695.9232 427.6338,-686.402 538.1166,-677.858"/>
<polygon fill="#191970" stroke="#191970" points="538.4775,-681.3405 548.1701,-677.0623 537.9251,-674.3623 538.4775,-681.3405"/>
</g>
<!-- Node23 -->
<g id="node24" class="node">
<title>Node23</title>
<g id="a_node24"><a xlink:href="namespacestph__openoutput__mod.xhtml#a1c5297036bbda3cc4f51f5ebc6dd24a7" target="_top" xlink:title="stph_openoutput_mod\l::stph_openoutput">
<polygon fill="#ffffff" stroke="#000000" points="183.5,-612.5 183.5,-642.5 308.5,-642.5 308.5,-612.5 183.5,-612.5"/>
<text text-anchor="start" x="191.5" y="-630.5" font-family="Helvetica,sans-Serif" font-size="10.00" fill="#000000">stph_openoutput_mod</text>
<text text-anchor="middle" x="246" y="-619.5" font-family="Helvetica,sans-Serif" font-size="10.00" fill="#000000">::stph_openoutput</text>
</a>
</g>
</g>
<!-- Node0&#45;&gt;Node23 -->
<g id="edge31" class="edge">
<title>Node0&#45;&gt;Node23</title>
<path fill="none" stroke="#191970" d="M64.7314,-364.709C70.3993,-407.5133 92.2391,-530.2594 162,-597.5 165.972,-601.3285 170.4652,-604.6724 175.2576,-607.5925"/>
<polygon fill="#191970" stroke="#191970" points="173.6978,-610.7279 184.1593,-612.4039 177.0264,-604.5699 173.6978,-610.7279"/>
</g>
<!-- Node24 -->
<g id="node25" class="node">
<title>Node24</title>
<g id="a_node25"><a xlink:href="namespacestph__skeb1__mod.xhtml#ac7501777525f0f79fe76a20f1b08178b" target="_top" xlink:title="stph_skeb1_mod::stph\l_skeb1">
<polygon fill="#ffffff" stroke="#000000" points="183,-126.5 183,-156.5 309,-156.5 309,-126.5 183,-126.5"/>
<text text-anchor="start" x="191" y="-144.5" font-family="Helvetica,sans-Serif" font-size="10.00" fill="#000000">stph_skeb1_mod::stph</text>
<text text-anchor="middle" x="246" y="-133.5" font-family="Helvetica,sans-Serif" font-size="10.00" fill="#000000">_skeb1</text>
</a>
</g>
</g>
<!-- Node0&#45;&gt;Node24 -->
<g id="edge33" class="edge">
<title>Node0&#45;&gt;Node24</title>
<path fill="none" stroke="#191970" d="M67.3158,-334.4931C77.8225,-300.5638 107.9167,-217.3432 162,-171.5 166.6162,-167.5871 171.7804,-164.1698 177.2178,-161.1879"/>
<polygon fill="#191970" stroke="#191970" points="179.1584,-164.1333 186.5779,-156.57 176.0613,-157.8557 179.1584,-164.1333"/>
</g>
<!-- Node25 -->
<g id="node26" class="node">
<title>Node25</title>
<g id="a_node26"><a xlink:href="namespaceupdate__dpsidt__mod.xhtml#a7770314872e9203c478cb9ef291c2aaa" target="_top" xlink:title="update_dpsidt_mod::\lupdate_dpsidt">
<polygon fill="#ffffff" stroke="#000000" points="186.5,-.5 186.5,-30.5 305.5,-30.5 305.5,-.5 186.5,-.5"/>
<text text-anchor="start" x="194.5" y="-18.5" font-family="Helvetica,sans-Serif" font-size="10.00" fill="#000000">update_dpsidt_mod::</text>
<text text-anchor="middle" x="246" y="-7.5" font-family="Helvetica,sans-Serif" font-size="10.00" fill="#000000">update_dpsidt</text>
</a>
</g>
</g>
<!-- Node0&#45;&gt;Node25 -->
<g id="edge37" class="edge">
<title>Node0&#45;&gt;Node25</title>
<path fill="none" stroke="#191970" d="M65.9203,-334.3233C76.9986,-278.2191 118.0329,-83.5626 162,-40.5 166.4942,-36.0983 171.7276,-32.4663 177.3443,-29.4702"/>
<polygon fill="#191970" stroke="#191970" points="178.8276,-32.6404 186.4349,-25.2662 175.8893,-26.2869 178.8276,-32.6404"/>
</g>
<!-- Node26 -->
<g id="node27" class="node">
<title>Node26</title>
<g id="a_node27"><a xlink:href="sum_8f90.xhtml#a025c1f845b6a4ea9c9f48b8612cd82e7" target="_top" xlink:title="Generic routines for manipulating pp&#45;fields within Fieldcalc. ">
<polygon fill="#ffffff" stroke="#000000" points="589,-302 589,-321 627,-321 627,-302 589,-302"/>
<text text-anchor="middle" x="608" y="-309" font-family="Helvetica,sans-Serif" font-size="10.00" fill="#000000">sum</text>
</a>
</g>
</g>
<!-- Node0&#45;&gt;Node26 -->
<g id="edge39" class="edge">
<title>Node0&#45;&gt;Node26</title>
<path fill="none" stroke="#191970" d="M126.2008,-349.0677C210.1923,-347.954 363.1218,-344.0494 493,-330.5 522.4966,-327.4228 555.9101,-321.6419 579.0888,-317.2615"/>
<polygon fill="#191970" stroke="#191970" points="579.8081,-320.6874 588.9674,-315.3622 578.4864,-313.8133 579.8081,-320.6874"/>
</g>
<!-- Node27 -->
<g id="node28" class="node">
<title>Node27</title>
<g id="a_node28"><a xlink:href="scatter__field_8f90.xhtml#a07ff950f6735da93231f893dcccad8dc" target="_top" xlink:title="Scatters a field from one processor to many processors Scatters a field from one processor to many pr...">
<polygon fill="#ffffff" stroke="#000000" points="207.5,-302 207.5,-321 284.5,-321 284.5,-302 207.5,-302"/>
<text text-anchor="middle" x="246" y="-309" font-family="Helvetica,sans-Serif" font-size="10.00" fill="#000000">scatter_field</text>
</a>
</g>
</g>
<!-- Node0&#45;&gt;Node27 -->
<g id="edge40" class="edge">
<title>Node0&#45;&gt;Node27</title>
<path fill="none" stroke="#191970" d="M126.2345,-336.3693C149.5122,-331.5357 175.4963,-326.1401 197.2968,-321.6132"/>
<polygon fill="#191970" stroke="#191970" points="198.2328,-324.9936 207.3123,-319.5335 196.8095,-318.1398 198.2328,-324.9936"/>
</g>
<!-- Node30 -->
<g id="node31" class="node">
<title>Node30</title>
<g id="a_node31"><a xlink:href="swap__bounds__mv-2c_8f90.xhtml#a7ec706a27cea514039111eeb3f669540" target="_top" xlink:title="Direct MPI version of swap_bounds to deal with multiple variables. ">
<polygon fill="#ffffff" stroke="#000000" points="377.5,-188 377.5,-207 481.5,-207 481.5,-188 377.5,-188"/>
<text text-anchor="middle" x="429.5" y="-195" font-family="Helvetica,sans-Serif" font-size="10.00" fill="#000000">swap_bounds_mv</text>
</a>
</g>
</g>
<!-- Node0&#45;&gt;Node30 -->
<g id="edge47" class="edge">
<title>Node0&#45;&gt;Node30</title>
<path fill="none" stroke="#191970" d="M72.3664,-334.1229C87.8122,-310.2293 121.0325,-264.6386 162,-242.5 196.5313,-223.8395 299.5098,-210.4009 367.1567,-203.2956"/>
<polygon fill="#191970" stroke="#191970" points="367.693,-206.7589 377.2812,-202.2515 366.9749,-199.7958 367.693,-206.7589"/>
</g>
<!-- Node2&#45;&gt;Node3 -->
<g id="edge3" class="edge">
<title>Node2&#45;&gt;Node3</title>
<path fill="none" stroke="#191970" d="M687.081,-507.5C695.6076,-507.5 704.2392,-507.5 712.6462,-507.5"/>
<polygon fill="#191970" stroke="#191970" points="712.7674,-511.0001 722.7674,-507.5 712.7673,-504.0001 712.7674,-511.0001"/>
</g>
<!-- Node4 -->
<g id="node5" class="node">
<title>Node4</title>
<g id="a_node5"><a xlink:href="namespaceumprintmgr.xhtml#a088ce22a18d574e9df7ee1850bfb10c7" target="_top" xlink:title="umprintmgr::umprintopenstream">
<polygon fill="#ffffff" stroke="#000000" points="878,-498 878,-517 1055,-517 1055,-498 878,-498"/>
<text text-anchor="middle" x="966.5" y="-505" font-family="Helvetica,sans-Serif" font-size="10.00" fill="#000000">umprintmgr::umprintopenstream</text>
</a>
</g>
</g>
<!-- Node3&#45;&gt;Node4 -->
<g id="edge4" class="edge">
<title>Node3&#45;&gt;Node4</title>
<path fill="none" stroke="#191970" d="M842.2395,-501.1333C850.4605,-500.9301 859.0751,-500.8077 867.7702,-500.7661"/>
<polygon fill="#191970" stroke="#191970" points="867.9998,-504.2659 877.9958,-500.7543 867.9917,-497.2659 867.9998,-504.2659"/>
</g>
<!-- Node5 -->
<g id="node6" class="node">
<title>Node5</title>
<g id="a_node6"><a xlink:href="namespaceumprintmgr.xhtml#ad3a290b30a6e25500eabc0bf90330b77" target="_top" xlink:title="umprintmgr::umprintflush">
<polygon fill="#ffffff" stroke="#000000" points="895.5,-460 895.5,-479 1037.5,-479 1037.5,-460 895.5,-460"/>
<text text-anchor="middle" x="966.5" y="-467" font-family="Helvetica,sans-Serif" font-size="10.00" fill="#000000">umprintmgr::umprintflush</text>
</a>
</g>
</g>
<!-- Node3&#45;&gt;Node5 -->
<g id="edge6" class="edge">
<title>Node3&#45;&gt;Node5</title>
<path fill="none" stroke="#191970" d="M828.931,-497.911C853.6493,-492.8061 884.239,-486.4887 910.292,-481.1082"/>
<polygon fill="#191970" stroke="#191970" points="911.3175,-484.4703 920.4029,-479.0201 909.9017,-477.615 911.3175,-484.4703"/>
</g>
<!-- Node4&#45;&gt;Node3 -->
<g id="edge5" class="edge">
<title>Node4&#45;&gt;Node3</title>
<path fill="none" stroke="#191970" d="M877.9958,-514.2457C869.3802,-514.267 860.7236,-514.2094 852.3289,-514.0727"/>
<polygon fill="#191970" stroke="#191970" points="852.3089,-510.5716 842.2395,-513.8667 852.166,-517.5702 852.3089,-510.5716"/>
</g>
<!-- Node6 -->
<g id="node7" class="node">
<title>Node6</title>
<g id="a_node7"><a xlink:href="namespaceumflush__mod.xhtml#a3a003ab59990bdcb712b443dd5e0d1cd" target="_top" xlink:title="umflush_mod::umflush">
<polygon fill="#ffffff" stroke="#000000" points="1091,-460 1091,-479 1219,-479 1219,-460 1091,-460"/>
<text text-anchor="middle" x="1155" y="-467" font-family="Helvetica,sans-Serif" font-size="10.00" fill="#000000">umflush_mod::umflush</text>
</a>
</g>
</g>
<!-- Node5&#45;&gt;Node6 -->
<g id="edge7" class="edge">
<title>Node5&#45;&gt;Node6</title>
<path fill="none" stroke="#191970" d="M1037.7638,-469.5C1051.7742,-469.5 1066.5063,-469.5 1080.6162,-469.5"/>
<polygon fill="#191970" stroke="#191970" points="1080.7612,-473.0001 1090.7611,-469.5 1080.7611,-466.0001 1080.7612,-473.0001"/>
</g>
<!-- Node8 -->
<g id="node9" class="node">
<title>Node8</title>
<g id="a_node9"><a xlink:href="copydiag__3d_8f90.xhtml#aba2363a925768155f54d8f70068e1611" target="_top" xlink:title="Subroutine COPYDIAG_3D !&gt; Purpose : To copy a diagnostic field from secondary space to the...">
<polygon fill="#ffffff" stroke="#000000" points="390.5,-493 390.5,-512 468.5,-512 468.5,-493 390.5,-493"/>
<text text-anchor="middle" x="429.5" y="-500" font-family="Helvetica,sans-Serif" font-size="10.00" fill="#000000">copydiag_3d</text>
</a>
</g>
</g>
<!-- Node7&#45;&gt;Node8 -->
<g id="edge9" class="edge">
<title>Node7&#45;&gt;Node8</title>
<path fill="none" stroke="#191970" d="M308.6371,-502.5C332.0306,-502.5 358.2411,-502.5 380.2588,-502.5"/>
<polygon fill="#191970" stroke="#191970" points="380.3764,-506.0001 390.3764,-502.5 380.3764,-499.0001 380.3764,-506.0001"/>
</g>
<!-- Node10 -->
<g id="node11" class="node">
<title>Node10</title>
<g id="a_node11"><a xlink:href="copydiag_8f90.xhtml#aba8cd762ec91a21d0a7b6ad6647290da" target="_top" xlink:title="Purpose : To copy a single diagnostic field from secondary space to. ">
<polygon fill="#ffffff" stroke="#000000" points="399,-531 399,-550 460,-550 460,-531 399,-531"/>
<text text-anchor="middle" x="429.5" y="-538" font-family="Helvetica,sans-Serif" font-size="10.00" fill="#000000">copydiag</text>
</a>
</g>
</g>
<!-- Node7&#45;&gt;Node10 -->
<g id="edge12" class="edge">
<title>Node7&#45;&gt;Node10</title>
<path fill="none" stroke="#191970" d="M308.6371,-515.4712C335.1364,-520.9588 365.2504,-527.1949 388.7902,-532.0696"/>
<polygon fill="#191970" stroke="#191970" points="388.2737,-535.5369 398.7757,-534.1375 389.6932,-528.6823 388.2737,-535.5369"/>
</g>
<!-- Node9 -->
<g id="node10" class="node">
<title>Node9</title>
<g id="a_node10"><a xlink:href="set__levels__list_8f90.xhtml#a7047599e3e5b5dada45a1616ed44a537" target="_top" xlink:title="Subroutine SET_LEVELS_LIST. ">
<polygon fill="#ffffff" stroke="#000000" points="565,-542 565,-561 651,-561 651,-542 565,-542"/>
<text text-anchor="middle" x="608" y="-549" font-family="Helvetica,sans-Serif" font-size="10.00" fill="#000000">set_levels_list</text>
</a>
</g>
</g>
<!-- Node8&#45;&gt;Node9 -->
<g id="edge10" class="edge">
<title>Node8&#45;&gt;Node9</title>
<path fill="none" stroke="#191970" d="M461.4893,-512.0321C471.5751,-515.0481 482.7564,-518.4025 493,-521.5 509.0141,-526.3424 512.8594,-528.0975 529,-532.5 537.7949,-534.8989 547.1839,-537.2975 556.3064,-539.543"/>
<polygon fill="#191970" stroke="#191970" points="555.5165,-542.9528 566.0601,-541.9123 557.1689,-536.1506 555.5165,-542.9528"/>
</g>
<!-- Node9&#45;&gt;Node3 -->
<g id="edge11" class="edge">
<title>Node9&#45;&gt;Node3</title>
<path fill="none" stroke="#191970" d="M648.2275,-541.9895C660.6699,-539.0037 674.4129,-535.6608 687,-532.5 703.2264,-528.4253 720.9639,-523.823 736.7008,-519.688"/>
<polygon fill="#191970" stroke="#191970" points="737.9393,-522.9812 746.7173,-517.0484 736.1555,-516.2123 737.9393,-522.9812"/>
</g>
<!-- Node12 -->
<g id="node13" class="node">
<title>Node12</title>
<g id="a_node13"><a xlink:href="namespacefourier__mod.xhtml#ab5c691f29b128808235408ae18e08953" target="_top" xlink:title="fourier_mod::fourier">
<polygon fill="#ffffff" stroke="#000000" points="372.5,-384 372.5,-403 486.5,-403 486.5,-384 372.5,-384"/>
<text text-anchor="middle" x="429.5" y="-391" font-family="Helvetica,sans-Serif" font-size="10.00" fill="#000000">fourier_mod::fourier</text>
</a>
</g>
</g>
<!-- Node11&#45;&gt;Node12 -->
<g id="edge14" class="edge">
<title>Node11&#45;&gt;Node12</title>
<path fill="none" stroke="#191970" d="M313.5469,-393.5C329.3905,-393.5 346.2711,-393.5 362.1079,-393.5"/>
<polygon fill="#191970" stroke="#191970" points="362.3429,-397.0001 372.3429,-393.5 362.3428,-390.0001 362.3429,-397.0001"/>
</g>
<!-- Node12&#45;&gt;Node3 -->
<g id="edge19" class="edge">
<title>Node12&#45;&gt;Node3</title>
<path fill="none" stroke="#191970" d="M486.7337,-402.1935C551.1604,-412.4424 651.4781,-429.9259 687,-444.5 715.7133,-456.2806 744.9536,-477.1507 763.3805,-491.6257"/>
<polygon fill="#191970" stroke="#191970" points="761.2863,-494.4327 771.2767,-497.9602 765.6666,-488.9725 761.2863,-494.4327"/>
</g>
<!-- Node13 -->
<g id="node14" class="node">
<title>Node13</title>
<g id="a_node14"><a xlink:href="namespaceset99__mod.xhtml#a7154257df11f58e39117e0e65143db60" target="_top" xlink:title="set99_mod::set99">
<polygon fill="#ffffff" stroke="#000000" points="556,-454 556,-473 660,-473 660,-454 556,-454"/>
<text text-anchor="middle" x="608" y="-461" font-family="Helvetica,sans-Serif" font-size="10.00" fill="#000000">set99_mod::set99</text>
</a>
</g>
</g>
<!-- Node12&#45;&gt;Node13 -->
<g id="edge15" class="edge">
<title>Node12&#45;&gt;Node13</title>
<path fill="none" stroke="#191970" d="M448.2407,-403.112C467.9975,-413.0189 500.1896,-428.5242 529,-439.5 539.8783,-443.6443 551.8049,-447.5744 563.02,-451.0092"/>
<polygon fill="#191970" stroke="#191970" points="562.0644,-454.3766 572.6482,-453.8931 564.073,-447.6709 562.0644,-454.3766"/>
</g>
<!-- Node14 -->
<g id="node15" class="node">
<title>Node14</title>
<g id="a_node15"><a xlink:href="namespacerpassm__mod.xhtml#a77045a61f83f78b43d515a16845108d6" target="_top" xlink:title="rpassm_mod::rpassm">
<polygon fill="#ffffff" stroke="#000000" points="547,-378 547,-397 669,-397 669,-378 547,-378"/>
<text text-anchor="middle" x="608" y="-385" font-family="Helvetica,sans-Serif" font-size="10.00" fill="#000000">rpassm_mod::rpassm</text>
</a>
</g>
</g>
<!-- Node12&#45;&gt;Node14 -->
<g id="edge17" class="edge">
<title>Node12&#45;&gt;Node14</title>
<path fill="none" stroke="#191970" d="M486.9611,-391.5685C502.8282,-391.0352 520.2373,-390.45 536.7834,-389.8938"/>
<polygon fill="#191970" stroke="#191970" points="537.076,-393.3861 546.9527,-389.552 536.8408,-386.39 537.076,-393.3861"/>
</g>
<!-- Node15 -->
<g id="node16" class="node">
<title>Node15</title>
<g id="a_node16"><a xlink:href="namespaceqpassm__mod.xhtml#a47edcb5a951220c0c34dd0659800f03c" target="_top" xlink:title="qpassm_mod::qpassm">
<polygon fill="#ffffff" stroke="#000000" points="545,-340 545,-359 671,-359 671,-340 545,-340"/>
<text text-anchor="middle" x="608" y="-347" font-family="Helvetica,sans-Serif" font-size="10.00" fill="#000000">qpassm_mod::qpassm</text>
</a>
</g>
</g>
<!-- Node12&#45;&gt;Node15 -->
<g id="edge18" class="edge">
<title>Node12&#45;&gt;Node15</title>
<path fill="none" stroke="#191970" d="M467.276,-383.9128C485.856,-379.2218 508.5906,-373.5181 529,-368.5 538.3534,-366.2002 548.3375,-363.7756 557.9503,-361.4563"/>
<polygon fill="#191970" stroke="#191970" points="558.8885,-364.8305 567.7915,-359.0871 557.2501,-358.0249 558.8885,-364.8305"/>
</g>
<!-- Node13&#45;&gt;Node3 -->
<g id="edge16" class="edge">
<title>Node13&#45;&gt;Node3</title>
<path fill="none" stroke="#191970" d="M645.8639,-473.0473C671.932,-479.6204 706.7701,-488.4048 734.7435,-495.4583"/>
<polygon fill="#191970" stroke="#191970" points="734.1577,-498.92 744.71,-497.9713 735.8693,-492.1325 734.1577,-498.92"/>
</g>
<!-- Node17&#45;&gt;Node3 -->
<g id="edge24" class="edge">
<title>Node17&#45;&gt;Node3</title>
<path fill="none" stroke="#191970" d="M313.785,-254.2959C422.2571,-234.7588 628.5917,-204.6225 687,-245.5 728.6539,-274.6517 766.2412,-432.3235 778.3971,-488.0094"/>
<polygon fill="#191970" stroke="#191970" points="775.0189,-488.9488 780.5404,-497.9911 781.863,-487.4791 775.0189,-488.9488"/>
</g>
<!-- Node17&#45;&gt;Node18 -->
<g id="edge22" class="edge">
<title>Node17&#45;&gt;Node18</title>
<path fill="none" stroke="#191970" d="M262.6285,-252.1779C284.713,-232.5664 325.6488,-198.7156 366,-178.5 370.514,-176.2385 375.3459,-174.1941 380.2542,-172.3588"/>
<polygon fill="#191970" stroke="#191970" points="381.4162,-175.6605 389.7237,-169.0851 379.129,-169.0447 381.4162,-175.6605"/>
</g>
<!-- Node19 -->
<g id="node20" class="node">
<title>Node19</title>
<g id="a_node20"><a xlink:href="fill__external__halos_8f90.xhtml#a9f4e1e061e136821fb9a51281a5e69c2" target="_top" xlink:title="Routine for filling in External Halos. ">
<polygon fill="#ffffff" stroke="#000000" points="555,-150 555,-169 661,-169 661,-150 555,-150"/>
<text text-anchor="middle" x="608" y="-157" font-family="Helvetica,sans-Serif" font-size="10.00" fill="#000000">fill_external_halos</text>
</a>
</g>
</g>
<!-- Node18&#45;&gt;Node19 -->
<g id="edge23" class="edge">
<title>Node18&#45;&gt;Node19</title>
<path fill="none" stroke="#191970" d="M471.3503,-159.5C493.1702,-159.5 520.3148,-159.5 544.6477,-159.5"/>
<polygon fill="#191970" stroke="#191970" points="544.8803,-163.0001 554.8803,-159.5 544.8802,-156.0001 544.8803,-163.0001"/>
</g>
<!-- Node20&#45;&gt;Node3 -->
<g id="edge26" class="edge">
<title>Node20&#45;&gt;Node3</title>
<path fill="none" stroke="#191970" d="M664.8351,-744.3775C672.9252,-740.4703 680.6423,-735.5881 687,-729.5 747.3642,-671.696 771.6097,-569.434 779.3971,-526.9002"/>
<polygon fill="#191970" stroke="#191970" points="782.8535,-527.4523 781.1045,-517.0028 775.9554,-526.2622 782.8535,-527.4523"/>
</g>
<!-- Node21&#45;&gt;Node3 -->
<g id="edge28" class="edge">
<title>Node21&#45;&gt;Node3</title>
<path fill="none" stroke="#191970" d="M493.0284,-727.1986C548.8473,-733.9109 629.852,-734.6223 687,-696.5 746.9747,-656.492 771.1042,-566.8732 779.1121,-527.127"/>
<polygon fill="#191970" stroke="#191970" points="782.5863,-527.5902 780.9957,-517.1155 775.707,-526.2959 782.5863,-527.5902"/>
</g>
<!-- Node22&#45;&gt;Node3 -->
<g id="edge30" class="edge">
<title>Node22&#45;&gt;Node3</title>
<path fill="none" stroke="#191970" d="M660.8743,-656.409C670.0986,-652.4222 679.2183,-647.5054 687,-641.5 728.2916,-609.6338 759.2611,-555.0624 773.629,-526.381"/>
<polygon fill="#191970" stroke="#191970" points="776.9289,-527.5987 778.1596,-517.0756 770.6352,-524.5344 776.9289,-527.5987"/>
</g>
<!-- Node23&#45;&gt;Node3 -->
<g id="edge32" class="edge">
<title>Node23&#45;&gt;Node3</title>
<path fill="none" stroke="#191970" d="M308.8099,-637.6662C397.4315,-649.0776 562.2703,-659.3788 687,-603.5 724.3356,-586.7737 755.0418,-548.4262 770.8789,-525.582"/>
<polygon fill="#191970" stroke="#191970" points="773.8914,-527.3739 776.5565,-517.1197 768.0785,-523.4738 773.8914,-527.3739"/>
</g>
<!-- Node24&#45;&gt;Node1 -->
<g id="edge34" class="edge">
<title>Node24&#45;&gt;Node1</title>
<path fill="none" stroke="#191970" d="M289.0226,-126.4948C315.2709,-117.3401 349.0148,-105.5711 376.8515,-95.8624"/>
<polygon fill="#191970" stroke="#191970" points="378.1399,-99.1199 386.4294,-92.5219 375.8346,-92.5104 378.1399,-99.1199"/>
</g>
<!-- Node24&#45;&gt;Node3 -->
<g id="edge36" class="edge">
<title>Node24&#45;&gt;Node3</title>
<path fill="none" stroke="#191970" d="M309.0472,-132.237C416.6668,-117.8819 629.759,-96.2479 687,-140.5 743.4945,-184.175 772.8174,-417.3454 780.4529,-487.5106"/>
<polygon fill="#191970" stroke="#191970" points="776.9932,-488.077 781.5274,-497.6526 783.9542,-487.3395 776.9932,-488.077"/>
</g>
<!-- Node24&#45;&gt;Node18 -->
<g id="edge35" class="edge">
<title>Node24&#45;&gt;Node18</title>
<path fill="none" stroke="#191970" d="M309.1503,-147.6946C331.5126,-149.8882 356.3935,-152.3288 377.7017,-154.419"/>
<polygon fill="#191970" stroke="#191970" points="377.5545,-157.9212 387.8485,-155.4143 378.2379,-150.9547 377.5545,-157.9212"/>
</g>
<!-- Node28 -->
<g id="node29" class="node">
<title>Node28</title>
<g id="a_node29"><a xlink:href="scatter__field__gcom_8f90.xhtml#a4ae1158ea68ae6f47970dda42e12e47f" target="_top" xlink:title="Scatters a field from one processor to many processors Scatters a field from one processor to many pr...">
<polygon fill="#ffffff" stroke="#000000" points="375,-302 375,-321 484,-321 484,-302 375,-302"/>
<text text-anchor="middle" x="429.5" y="-309" font-family="Helvetica,sans-Serif" font-size="10.00" fill="#000000">scatter_field_gcom</text>
</a>
</g>
</g>
<!-- Node27&#45;&gt;Node28 -->
<g id="edge41" class="edge">
<title>Node27&#45;&gt;Node28</title>
<path fill="none" stroke="#191970" d="M284.9156,-311.5C308.1441,-311.5 338.2262,-311.5 364.9313,-311.5"/>
<polygon fill="#191970" stroke="#191970" points="364.9796,-315.0001 374.9795,-311.5 364.9795,-308.0001 364.9796,-315.0001"/>
</g>
<!-- Node29 -->
<g id="node30" class="node">
<title>Node29</title>
<g id="a_node30"><a xlink:href="scatter__field__mpl_8f90.xhtml#abc084cd4ccb818c4a384b1b0349ab14c" target="_top" xlink:title="(c) CROWN COPYRIGHT Met Office. ALL RIGHTS RESERVED. (c) CROWN COPYRIGHT Met Office. ALL RIGHTS RESERVED. For further details please refer to the file copyright.txt scatters a field from one processor to many processors ">
<polygon fill="#ffffff" stroke="#000000" points="379,-264 379,-283 480,-283 480,-264 379,-264"/>
<text text-anchor="middle" x="429.5" y="-271" font-family="Helvetica,sans-Serif" font-size="10.00" fill="#000000">scatter_field_mpl</text>
</a>
</g>
</g>
<!-- Node27&#45;&gt;Node29 -->
<g id="edge43" class="edge">
<title>Node27&#45;&gt;Node29</title>
<path fill="none" stroke="#191970" d="M284.9156,-303.4412C310.7014,-298.1013 344.9332,-291.0125 373.6152,-285.0729"/>
<polygon fill="#191970" stroke="#191970" points="374.4235,-288.4798 383.506,-283.0246 373.004,-281.6253 374.4235,-288.4798"/>
</g>
<!-- Node28&#45;&gt;Node3 -->
<g id="edge42" class="edge">
<title>Node28&#45;&gt;Node3</title>
<path fill="none" stroke="#191970" d="M473.5647,-301.9763C537.7138,-289.1465 652.8926,-270.3293 687,-292.5 755.6742,-337.1401 775.3592,-443.7797 780.6651,-487.8874"/>
<polygon fill="#191970" stroke="#191970" points="777.1931,-488.3359 781.7466,-497.9023 784.1526,-487.5842 777.1931,-488.3359"/>
</g>
<!-- Node29&#45;&gt;Node3 -->
<g id="edge44" class="edge">
<title>Node29&#45;&gt;Node3</title>
<path fill="none" stroke="#191970" d="M461.3074,-263.9215C513.4671,-250.2714 618.2449,-231.7085 687,-278.5 758.8956,-327.4288 776.7882,-441.6092 781.14,-487.6907"/>
<polygon fill="#191970" stroke="#191970" points="777.6684,-488.1798 781.9792,-497.858 784.6446,-487.6039 777.6684,-488.1798"/>
</g>
<!-- Node29&#45;&gt;Node26 -->
<g id="edge45" class="edge">
<title>Node29&#45;&gt;Node26</title>
<path fill="none" stroke="#191970" d="M474.5431,-283.089C507.1456,-290.0296 550.2771,-299.2116 578.5612,-305.2329"/>
<polygon fill="#191970" stroke="#191970" points="578.1119,-308.7156 588.6215,-307.3746 579.5694,-301.869 578.1119,-308.7156"/>
</g>
<!-- Node30&#45;&gt;Node19 -->
<g id="edge48" class="edge">
<title>Node30&#45;&gt;Node19</title>
<path fill="none" stroke="#191970" d="M474.5431,-187.911C498.5225,-182.8061 528.1979,-176.4887 553.4721,-171.1082"/>
<polygon fill="#191970" stroke="#191970" points="554.2288,-174.5256 563.2808,-169.0201 552.7712,-167.679 554.2288,-174.5256"/>
</g>
</g>
</svg>
        <g id="navigator" transform="translate(0 0)" fill="#404254">
                <rect fill="#f2f5e9" fill-opacity="0.5" stroke="#606060" stroke-width=".5" x="0" y="0" width="60" height="60"/>
                <use id="zoomplus" xlink:href="#zoomPlus" x="17" y="9" onmousedown="handleZoom(evt,'in')"/>
                <use id="zoomminus" xlink:href="#zoomMin" x="42" y="9" onmousedown="handleZoom(evt,'out')"/>
                <use id="reset" xlink:href="#resetDef" x="30" y="36" onmousedown="handleReset()"/>
                <g id="arrowUp" xlink:href="#dirArrow" transform="translate(30 24)" onmousedown="handlePan(0,-1)">
                  <use xlink:href="#rim" fill="#404040">
                        <set attributeName="fill" to="#808080" begin="arrowUp.mouseover" end="arrowUp.mouseout"/>
                  </use>
                  <path fill="none" stroke="white" stroke-width="1.5" d="M0,-3.0v7 M-2.5,-0.5L0,-3.0L2.5,-0.5"/>
                </g>
                <g id="arrowRight" xlink:href="#dirArrow" transform="rotate(90) translate(36 -43)" onmousedown="handlePan(1,0)">
                  <use xlink:href="#rim" fill="#404040">
                        <set attributeName="fill" to="#808080" begin="arrowRight.mouseover" end="arrowRight.mouseout"/>
                  </use>
                  <path fill="none" stroke="white" stroke-width="1.5" d="M0,-3.0v7 M-2.5,-0.5L0,-3.0L2.5,-0.5"/>
                </g>
                <g id="arrowDown" xlink:href="#dirArrow" transform="rotate(180) translate(-30 -48)" onmousedown="handlePan(0,1)">
                  <use xlink:href="#rim" fill="#404040">
                        <set attributeName="fill" to="#808080" begin="arrowDown.mouseover" end="arrowDown.mouseout"/>
                  </use>
                  <path fill="none" stroke="white" stroke-width="1.5" d="M0,-3.0v7 M-2.5,-0.5L0,-3.0L2.5,-0.5"/>
                </g>
                <g id="arrowLeft" xlink:href="#dirArrow" transform="rotate(270) translate(-36 17)" onmousedown="handlePan(-1,0)">
                  <use xlink:href="#rim" fill="#404040">
                        <set attributeName="fill" to="#808080" begin="arrowLeft.mouseover" end="arrowLeft.mouseout"/>
                  </use>
                  <path fill="none" stroke="white" stroke-width="1.5" d="M0,-3.0v7 M-2.5,-0.5L0,-3.0L2.5,-0.5"/>
                </g>
        </g>
        <svg viewBox="0 0 15 15" width="100%" height="30px" preserveAspectRatio="xMaxYMin meet">
         <g id="arrow_out" transform="scale(0.3 0.3)">
          <a xlink:href="namespacestph__skeb2__mod_a51dcab695adc5e23d75a09d6f08eade4_cgraph_org.svg" target="_base">
           <rect id="button" ry="5" rx="5" y="6" x="6" height="38" width="38"
                fill="#f2f5e9" fill-opacity="0.5" stroke="#606060" stroke-width="1.0"/>
           <path id="arrow"
             d="M 11.500037,31.436501 C 11.940474,20.09759 22.043105,11.32322 32.158766,21.979434 L 37.068811,17.246167 C 37.068811,17.246167 37.088388,32 37.088388,32 L 22.160133,31.978069 C 22.160133,31.978069 26.997745,27.140456 26.997745,27.140456 C 18.528582,18.264221 13.291696,25.230495 11.500037,31.436501 z"
             style="fill:#404040;"/>
          </a>
         </g>
        </svg>
</svg>
