<?xml version="1.0" encoding="UTF-8" standalone="no"?>
<!DOCTYPE svg PUBLIC "-//W3C//DTD SVG 1.1//EN"
 "http://www.w3.org/Graphics/SVG/1.1/DTD/svg11.dtd">
<!-- Generated by graphviz version 2.40.1 (20161225.0304)
 -->
<!-- Title: ios_common::io_server_for_unit Pages: 1 -->
<svg width="1238pt" height="91pt"
 viewBox="0.00 0.00 1238.00 90.50" xmlns="http://www.w3.org/2000/svg" xmlns:xlink="http://www.w3.org/1999/xlink">
<g id="graph0" class="graph" transform="scale(1 1) rotate(0) translate(4 86.5)">
<title>ios_common::io_server_for_unit</title>
<polygon fill="#ffffff" stroke="transparent" points="-4,4 -4,-86.5 1234,-86.5 1234,4 -4,4"/>
<!-- Node342 -->
<g id="node1" class="node">
<title>Node342</title>
<polygon fill="#bfbfbf" stroke="#000000" points="0,-14 0,-44 130,-44 130,-14 0,-14"/>
<text text-anchor="start" x="8" y="-32" font-family="Helvetica,sans-Serif" font-size="10.00" fill="#000000">ios_common::io_server</text>
<text text-anchor="middle" x="65" y="-21" font-family="Helvetica,sans-Serif" font-size="10.00" fill="#000000">_for_unit</text>
</g>
<!-- Node343 -->
<g id="node2" class="node">
<title>Node343</title>
<g id="a_node2"><a xlink:href="namespaceios__common.xhtml#a4b4c79405dd73494ae58cbf0e4f1658b" target="_top" xlink:title="ios_common::ios_ereport">
<polygon fill="#ffffff" stroke="#000000" points="167.5,-38.5 167.5,-57.5 307.5,-57.5 307.5,-38.5 167.5,-38.5"/>
<text text-anchor="middle" x="237.5" y="-45.5" font-family="Helvetica,sans-Serif" font-size="10.00" fill="#000000">ios_common::ios_ereport</text>
</a>
</g>
</g>
<!-- Node342&#45;&gt;Node343 -->
<g id="edge1" class="edge">
<title>Node342&#45;&gt;Node343</title>
<path fill="none" stroke="#191970" d="M130.2149,-36.1831C139.0185,-37.1528 148.1335,-38.1567 157.1618,-39.1512"/>
<polygon fill="#191970" stroke="#191970" points="156.9737,-42.6515 167.2968,-40.2675 157.7402,-35.6936 156.9737,-42.6515"/>
</g>
<!-- Node351 -->
<g id="node10" class="node">
<title>Node351</title>
<g id="a_node10"><a xlink:href="namespaceios__common.xhtml#a2c973e11abf690e8e0215ca4d7e669de" target="_top" xlink:title="ios_common::l_ios_active">
<polygon fill="#ffffff" stroke="#000000" points="166,-.5 166,-19.5 309,-19.5 309,-.5 166,-.5"/>
<text text-anchor="middle" x="237.5" y="-7.5" font-family="Helvetica,sans-Serif" font-size="10.00" fill="#000000">ios_common::l_ios_active</text>
</a>
</g>
</g>
<!-- Node342&#45;&gt;Node351 -->
<g id="edge11" class="edge">
<title>Node342&#45;&gt;Node351</title>
<path fill="none" stroke="#191970" d="M130.2149,-21.8169C138.581,-20.8954 147.2283,-19.943 155.8151,-18.9972"/>
<polygon fill="#191970" stroke="#191970" points="156.2903,-22.4661 165.847,-17.8922 155.5239,-15.5082 156.2903,-22.4661"/>
</g>
<!-- Node344 -->
<g id="node3" class="node">
<title>Node344</title>
<g id="a_node3"><a xlink:href="namespaceios__print__mgr.xhtml#abd09d7fc0d2381103fd0889b447f4995" target="_top" xlink:title="ios_print_mgr::ios\l_print">
<polygon fill="#ffffff" stroke="#000000" points="565,-52 565,-82 669,-82 669,-52 565,-52"/>
<text text-anchor="start" x="573" y="-70" font-family="Helvetica,sans-Serif" font-size="10.00" fill="#000000">ios_print_mgr::ios</text>
<text text-anchor="middle" x="617" y="-59" font-family="Helvetica,sans-Serif" font-size="10.00" fill="#000000">_print</text>
</a>
</g>
</g>
<!-- Node343&#45;&gt;Node344 -->
<g id="edge2" class="edge">
<title>Node343&#45;&gt;Node344</title>
<path fill="none" stroke="#191970" d="M307.5484,-51.507C378.338,-55.0512 486.6958,-60.4762 554.6135,-63.8766"/>
<polygon fill="#191970" stroke="#191970" points="554.5803,-67.3792 564.7428,-64.3837 554.9304,-60.388 554.5803,-67.3792"/>
</g>
<!-- Node349 -->
<g id="node8" class="node">
<title>Node349</title>
<g id="a_node8"><a xlink:href="namespaceios__common.xhtml#ade38472c488c019e816ec75cb70ab3cc" target="_top" xlink:title="ios_common::ios_report_md">
<polygon fill="#ffffff" stroke="#000000" points="345,-19.5 345,-38.5 500,-38.5 500,-19.5 345,-19.5"/>
<text text-anchor="middle" x="422.5" y="-26.5" font-family="Helvetica,sans-Serif" font-size="10.00" fill="#000000">ios_common::ios_report_md</text>
</a>
</g>
</g>
<!-- Node343&#45;&gt;Node349 -->
<g id="edge8" class="edge">
<title>Node343&#45;&gt;Node349</title>
<path fill="none" stroke="#191970" d="M307.7044,-40.7898C316.5421,-39.8822 325.6687,-38.9448 334.7344,-38.0138"/>
<polygon fill="#191970" stroke="#191970" points="335.3353,-41.4705 344.9254,-36.9671 334.6201,-34.5072 335.3353,-41.4705"/>
</g>
<!-- Node345 -->
<g id="node4" class="node">
<title>Node345</title>
<g id="a_node4"><a xlink:href="namespaceumprintmgr.xhtml#aae44897e556705dbf5e945a26538be9a" target="_top" xlink:title="umprintmgr::umprint">
<polygon fill="#ffffff" stroke="#000000" points="734,-57.5 734,-76.5 853,-76.5 853,-57.5 734,-57.5"/>
<text text-anchor="middle" x="793.5" y="-64.5" font-family="Helvetica,sans-Serif" font-size="10.00" fill="#000000">umprintmgr::umprint</text>
</a>
</g>
</g>
<!-- Node344&#45;&gt;Node345 -->
<g id="edge3" class="edge">
<title>Node344&#45;&gt;Node345</title>
<path fill="none" stroke="#191970" d="M669.0012,-67C686.1607,-67 705.5332,-67 723.796,-67"/>
<polygon fill="#191970" stroke="#191970" points="723.8067,-70.5001 733.8067,-67 723.8067,-63.5001 723.8067,-70.5001"/>
</g>
<!-- Node346 -->
<g id="node5" class="node">
<title>Node346</title>
<g id="a_node5"><a xlink:href="namespaceumprintmgr.xhtml#a088ce22a18d574e9df7ee1850bfb10c7" target="_top" xlink:title="umprintmgr::umprintopenstream">
<polygon fill="#ffffff" stroke="#000000" points="889,-57.5 889,-76.5 1066,-76.5 1066,-57.5 889,-57.5"/>
<text text-anchor="middle" x="977.5" y="-64.5" font-family="Helvetica,sans-Serif" font-size="10.00" fill="#000000">umprintmgr::umprintopenstream</text>
</a>
</g>
</g>
<!-- Node345&#45;&gt;Node346 -->
<g id="edge4" class="edge">
<title>Node345&#45;&gt;Node346</title>
<path fill="none" stroke="#191970" d="M853.2395,-60.6333C861.4605,-60.4301 870.0751,-60.3077 878.7702,-60.2661"/>
<polygon fill="#191970" stroke="#191970" points="878.9998,-63.7659 888.9958,-60.2543 878.9917,-56.7659 878.9998,-63.7659"/>
</g>
<!-- Node347 -->
<g id="node6" class="node">
<title>Node347</title>
<g id="a_node6"><a xlink:href="namespaceumprintmgr.xhtml#ad3a290b30a6e25500eabc0bf90330b77" target="_top" xlink:title="umprintmgr::umprintflush">
<polygon fill="#ffffff" stroke="#000000" points="906.5,-19.5 906.5,-38.5 1048.5,-38.5 1048.5,-19.5 906.5,-19.5"/>
<text text-anchor="middle" x="977.5" y="-26.5" font-family="Helvetica,sans-Serif" font-size="10.00" fill="#000000">umprintmgr::umprintflush</text>
</a>
</g>
</g>
<!-- Node345&#45;&gt;Node347 -->
<g id="edge6" class="edge">
<title>Node345&#45;&gt;Node347</title>
<path fill="none" stroke="#191970" d="M839.931,-57.411C864.6493,-52.3061 895.239,-45.9887 921.292,-40.6082"/>
<polygon fill="#191970" stroke="#191970" points="922.3175,-43.9703 931.4029,-38.5201 920.9017,-37.115 922.3175,-43.9703"/>
</g>
<!-- Node346&#45;&gt;Node345 -->
<g id="edge5" class="edge">
<title>Node346&#45;&gt;Node345</title>
<path fill="none" stroke="#191970" d="M888.9958,-73.7457C880.3802,-73.767 871.7236,-73.7094 863.3289,-73.5727"/>
<polygon fill="#191970" stroke="#191970" points="863.3089,-70.0716 853.2395,-73.3667 863.166,-77.0702 863.3089,-70.0716"/>
</g>
<!-- Node348 -->
<g id="node7" class="node">
<title>Node348</title>
<g id="a_node7"><a xlink:href="namespaceumflush__mod.xhtml#a3a003ab59990bdcb712b443dd5e0d1cd" target="_top" xlink:title="umflush_mod::umflush">
<polygon fill="#ffffff" stroke="#000000" points="1102,-19.5 1102,-38.5 1230,-38.5 1230,-19.5 1102,-19.5"/>
<text text-anchor="middle" x="1166" y="-26.5" font-family="Helvetica,sans-Serif" font-size="10.00" fill="#000000">umflush_mod::umflush</text>
</a>
</g>
</g>
<!-- Node347&#45;&gt;Node348 -->
<g id="edge7" class="edge">
<title>Node347&#45;&gt;Node348</title>
<path fill="none" stroke="#191970" d="M1048.7638,-29C1062.7742,-29 1077.5063,-29 1091.6162,-29"/>
<polygon fill="#191970" stroke="#191970" points="1091.7612,-32.5001 1101.7611,-29 1091.7611,-25.5001 1091.7612,-32.5001"/>
</g>
<!-- Node349&#45;&gt;Node344 -->
<g id="edge9" class="edge">
<title>Node349&#45;&gt;Node344</title>
<path fill="none" stroke="#191970" d="M471.3295,-38.54C496.5742,-43.4721 527.6631,-49.546 554.6282,-54.8143"/>
<polygon fill="#191970" stroke="#191970" points="554.2546,-58.3074 564.7402,-56.7899 555.5969,-51.4372 554.2546,-58.3074"/>
</g>
<!-- Node350 -->
<g id="node9" class="node">
<title>Node350</title>
<g id="a_node9"><a xlink:href="namespaceios__common.xhtml#a9cbfffb6c02387dc317575ab449918b6" target="_top" xlink:title="ios_common::ios_actionname">
<polygon fill="#ffffff" stroke="#000000" points="536,-13.5 536,-32.5 698,-32.5 698,-13.5 536,-13.5"/>
<text text-anchor="middle" x="617" y="-20.5" font-family="Helvetica,sans-Serif" font-size="10.00" fill="#000000">ios_common::ios_actionname</text>
</a>
</g>
</g>
<!-- Node349&#45;&gt;Node350 -->
<g id="edge10" class="edge">
<title>Node349&#45;&gt;Node350</title>
<path fill="none" stroke="#191970" d="M500.2101,-26.6028C508.6519,-26.3424 517.2986,-26.0756 525.8814,-25.8109"/>
<polygon fill="#191970" stroke="#191970" points="526.0241,-29.3082 535.9114,-25.5014 525.8082,-22.3115 526.0241,-29.3082"/>
</g>
</g>
</svg>
