<?xml version="1.0" encoding="UTF-8" standalone="no"?>
<!DOCTYPE svg PUBLIC "-//W3C//DTD SVG 1.1//EN"
 "http://www.w3.org/Graphics/SVG/1.1/DTD/svg11.dtd">
<!-- Generated by graphviz version 2.40.1 (20161225.0304)
 -->
<!-- Title: eg_q_to_mix_mod::eg_q_to_mix Pages: 1 -->
<svg width="292pt" height="88pt"
 viewBox="0.00 0.00 292.00 88.00" xmlns="http://www.w3.org/2000/svg" xmlns:xlink="http://www.w3.org/1999/xlink">
<g id="graph0" class="graph" transform="scale(1 1) rotate(0) translate(4 84)">
<title>eg_q_to_mix_mod::eg_q_to_mix</title>
<polygon fill="#ffffff" stroke="transparent" points="-4,4 -4,-84 288,-84 288,4 -4,4"/>
<!-- Node0 -->
<g id="node1" class="node">
<title>Node0</title>
<polygon fill="#bfbfbf" stroke="#000000" points="0,-24.5 0,-54.5 124,-54.5 124,-24.5 0,-24.5"/>
<text text-anchor="start" x="8" y="-42.5" font-family="Helvetica,sans-Serif" font-size="10.00" fill="#000000">eg_q_to_mix_mod::eg</text>
<text text-anchor="middle" x="62" y="-31.5" font-family="Helvetica,sans-Serif" font-size="10.00" fill="#000000">_q_to_mix</text>
</g>
<!-- Node1 -->
<g id="node2" class="node">
<title>Node1</title>
<g id="a_node2"><a xlink:href="namespaceeg__q__to__mix__mod.xhtml#a78ef85710fe04a59c6cb02182fa4911b" target="_top" xlink:title="eg_q_to_mix_mod::eq\l_conv1">
<polygon fill="#ffffff" stroke="#000000" points="160,-49.5 160,-79.5 284,-79.5 284,-49.5 160,-49.5"/>
<text text-anchor="start" x="168" y="-67.5" font-family="Helvetica,sans-Serif" font-size="10.00" fill="#000000">eg_q_to_mix_mod::eq</text>
<text text-anchor="middle" x="222" y="-56.5" font-family="Helvetica,sans-Serif" font-size="10.00" fill="#000000">_conv1</text>
</a>
</g>
</g>
<!-- Node0&#45;&gt;Node1 -->
<g id="edge1" class="edge">
<title>Node0&#45;&gt;Node1</title>
<path fill="none" stroke="#191970" d="M124.3183,-49.2372C132.7062,-50.5478 141.367,-51.9011 149.9065,-53.2354"/>
<polygon fill="#191970" stroke="#191970" points="149.4313,-56.7035 159.8518,-54.7893 150.512,-49.7874 149.4313,-56.7035"/>
</g>
<!-- Node2 -->
<g id="node3" class="node">
<title>Node2</title>
<g id="a_node3"><a xlink:href="namespaceeg__q__to__mix__mod.xhtml#a47a26294f70c1f9d4d4c7d0a400d26c2" target="_top" xlink:title="eg_q_to_mix_mod::eq\l_conv2">
<polygon fill="#ffffff" stroke="#000000" points="160,-.5 160,-30.5 284,-30.5 284,-.5 160,-.5"/>
<text text-anchor="start" x="168" y="-18.5" font-family="Helvetica,sans-Serif" font-size="10.00" fill="#000000">eg_q_to_mix_mod::eq</text>
<text text-anchor="middle" x="222" y="-7.5" font-family="Helvetica,sans-Serif" font-size="10.00" fill="#000000">_conv2</text>
</a>
</g>
</g>
<!-- Node0&#45;&gt;Node2 -->
<g id="edge2" class="edge">
<title>Node0&#45;&gt;Node2</title>
<path fill="none" stroke="#191970" d="M124.3183,-30.1523C132.7062,-28.8941 141.367,-27.5949 149.9065,-26.314"/>
<polygon fill="#191970" stroke="#191970" points="150.4816,-29.767 159.8518,-24.8222 149.4432,-22.8444 150.4816,-29.767"/>
</g>
</g>
</svg>
