<?xml version="1.0" encoding="UTF-8" standalone="no"?>
<!DOCTYPE svg PUBLIC "-//W3C//DTD SVG 1.1//EN"
 "http://www.w3.org/Graphics/SVG/1.1/DTD/svg11.dtd">
<!-- Generated by graphviz version 2.40.1 (20161225.0304)
 -->
<!-- Title: fourier_mod::fourier Pages: 1 -->
<svg width="816pt" height="142pt"
 viewBox="0.00 0.00 816.00 142.00" xmlns="http://www.w3.org/2000/svg" xmlns:xlink="http://www.w3.org/1999/xlink">
<g id="graph0" class="graph" transform="scale(1 1) rotate(0) translate(4 138)">
<title>fourier_mod::fourier</title>
<polygon fill="#ffffff" stroke="transparent" points="-4,4 -4,-138 812,-138 812,4 -4,4"/>
<!-- Node0 -->
<g id="node1" class="node">
<title>Node0</title>
<polygon fill="#bfbfbf" stroke="#000000" points="0,-57.5 0,-76.5 114,-76.5 114,-57.5 0,-57.5"/>
<text text-anchor="middle" x="57" y="-64.5" font-family="Helvetica,sans-Serif" font-size="10.00" fill="#000000">fourier_mod::fourier</text>
</g>
<!-- Node1 -->
<g id="node2" class="node">
<title>Node1</title>
<g id="a_node2"><a xlink:href="namespaceset99__mod.xhtml#a7154257df11f58e39117e0e65143db60" target="_top" xlink:title="set99_mod::set99">
<polygon fill="#ffffff" stroke="#000000" points="161,-114.5 161,-133.5 265,-133.5 265,-114.5 161,-114.5"/>
<text text-anchor="middle" x="213" y="-121.5" font-family="Helvetica,sans-Serif" font-size="10.00" fill="#000000">set99_mod::set99</text>
</a>
</g>
</g>
<!-- Node0&#45;&gt;Node1 -->
<g id="edge1" class="edge">
<title>Node0&#45;&gt;Node1</title>
<path fill="none" stroke="#191970" d="M83.1109,-76.5405C108.8705,-85.9527 148.4483,-100.4138 177.147,-110.8999"/>
<polygon fill="#191970" stroke="#191970" points="176.2101,-114.2838 186.8039,-114.4284 178.6125,-107.7089 176.2101,-114.2838"/>
</g>
<!-- Node2 -->
<g id="node3" class="node">
<title>Node2</title>
<g id="a_node3"><a xlink:href="namespaceumprintmgr.xhtml#aae44897e556705dbf5e945a26538be9a" target="_top" xlink:title="umprintmgr::umprint">
<polygon fill="#ffffff" stroke="#000000" points="312,-95.5 312,-114.5 431,-114.5 431,-95.5 312,-95.5"/>
<text text-anchor="middle" x="371.5" y="-102.5" font-family="Helvetica,sans-Serif" font-size="10.00" fill="#000000">umprintmgr::umprint</text>
</a>
</g>
</g>
<!-- Node0&#45;&gt;Node2 -->
<g id="edge9" class="edge">
<title>Node0&#45;&gt;Node2</title>
<path fill="none" stroke="#191970" d="M114.3185,-73.9256C167.0247,-80.2939 245.3054,-89.7523 301.6488,-96.5601"/>
<polygon fill="#191970" stroke="#191970" points="301.5552,-100.0742 311.9029,-97.7991 302.395,-93.1247 301.5552,-100.0742"/>
</g>
<!-- Node6 -->
<g id="node7" class="node">
<title>Node6</title>
<g id="a_node7"><a xlink:href="namespacerpassm__mod.xhtml#a77045a61f83f78b43d515a16845108d6" target="_top" xlink:title="rpassm_mod::rpassm">
<polygon fill="#ffffff" stroke="#000000" points="152,-38.5 152,-57.5 274,-57.5 274,-38.5 152,-38.5"/>
<text text-anchor="middle" x="213" y="-45.5" font-family="Helvetica,sans-Serif" font-size="10.00" fill="#000000">rpassm_mod::rpassm</text>
</a>
</g>
</g>
<!-- Node0&#45;&gt;Node6 -->
<g id="edge7" class="edge">
<title>Node0&#45;&gt;Node6</title>
<path fill="none" stroke="#191970" d="M114.2028,-60.033C123.207,-58.9363 132.6101,-57.7911 141.8825,-56.6618"/>
<polygon fill="#191970" stroke="#191970" points="142.3641,-60.129 151.8676,-55.4456 141.5177,-53.1804 142.3641,-60.129"/>
</g>
<!-- Node7 -->
<g id="node8" class="node">
<title>Node7</title>
<g id="a_node8"><a xlink:href="namespaceqpassm__mod.xhtml#a47edcb5a951220c0c34dd0659800f03c" target="_top" xlink:title="qpassm_mod::qpassm">
<polygon fill="#ffffff" stroke="#000000" points="150,-.5 150,-19.5 276,-19.5 276,-.5 150,-.5"/>
<text text-anchor="middle" x="213" y="-7.5" font-family="Helvetica,sans-Serif" font-size="10.00" fill="#000000">qpassm_mod::qpassm</text>
</a>
</g>
</g>
<!-- Node0&#45;&gt;Node7 -->
<g id="edge8" class="edge">
<title>Node0&#45;&gt;Node7</title>
<path fill="none" stroke="#191970" d="M78.9454,-57.3429C97.6484,-49.2798 125.3387,-37.7349 150,-29 156.1482,-26.8224 162.6875,-24.671 169.1378,-22.6425"/>
<polygon fill="#191970" stroke="#191970" points="170.6017,-25.8542 179.1316,-19.5699 168.5446,-19.1633 170.6017,-25.8542"/>
</g>
<!-- Node1&#45;&gt;Node2 -->
<g id="edge2" class="edge">
<title>Node1&#45;&gt;Node2</title>
<path fill="none" stroke="#191970" d="M265.3381,-117.726C276.9617,-116.3327 289.4618,-114.8342 301.6601,-113.372"/>
<polygon fill="#191970" stroke="#191970" points="302.2977,-116.8207 311.81,-112.1553 301.4644,-109.8705 302.2977,-116.8207"/>
</g>
<!-- Node3 -->
<g id="node4" class="node">
<title>Node3</title>
<g id="a_node4"><a xlink:href="namespaceumprintmgr.xhtml#a088ce22a18d574e9df7ee1850bfb10c7" target="_top" xlink:title="umprintmgr::umprintopenstream">
<polygon fill="#ffffff" stroke="#000000" points="467,-95.5 467,-114.5 644,-114.5 644,-95.5 467,-95.5"/>
<text text-anchor="middle" x="555.5" y="-102.5" font-family="Helvetica,sans-Serif" font-size="10.00" fill="#000000">umprintmgr::umprintopenstream</text>
</a>
</g>
</g>
<!-- Node2&#45;&gt;Node3 -->
<g id="edge3" class="edge">
<title>Node2&#45;&gt;Node3</title>
<path fill="none" stroke="#191970" d="M431.2395,-98.6333C439.4605,-98.4301 448.0751,-98.3077 456.7702,-98.2661"/>
<polygon fill="#191970" stroke="#191970" points="456.9998,-101.7659 466.9958,-98.2543 456.9917,-94.7659 456.9998,-101.7659"/>
</g>
<!-- Node4 -->
<g id="node5" class="node">
<title>Node4</title>
<g id="a_node5"><a xlink:href="namespaceumprintmgr.xhtml#ad3a290b30a6e25500eabc0bf90330b77" target="_top" xlink:title="umprintmgr::umprintflush">
<polygon fill="#ffffff" stroke="#000000" points="484.5,-57.5 484.5,-76.5 626.5,-76.5 626.5,-57.5 484.5,-57.5"/>
<text text-anchor="middle" x="555.5" y="-64.5" font-family="Helvetica,sans-Serif" font-size="10.00" fill="#000000">umprintmgr::umprintflush</text>
</a>
</g>
</g>
<!-- Node2&#45;&gt;Node4 -->
<g id="edge5" class="edge">
<title>Node2&#45;&gt;Node4</title>
<path fill="none" stroke="#191970" d="M417.931,-95.411C442.6493,-90.3061 473.239,-83.9887 499.292,-78.6082"/>
<polygon fill="#191970" stroke="#191970" points="500.3175,-81.9703 509.4029,-76.5201 498.9017,-75.115 500.3175,-81.9703"/>
</g>
<!-- Node3&#45;&gt;Node2 -->
<g id="edge4" class="edge">
<title>Node3&#45;&gt;Node2</title>
<path fill="none" stroke="#191970" d="M466.9958,-111.7457C458.3802,-111.767 449.7236,-111.7094 441.3289,-111.5727"/>
<polygon fill="#191970" stroke="#191970" points="441.3089,-108.0716 431.2395,-111.3667 441.166,-115.0702 441.3089,-108.0716"/>
</g>
<!-- Node5 -->
<g id="node6" class="node">
<title>Node5</title>
<g id="a_node6"><a xlink:href="namespaceumflush__mod.xhtml#a3a003ab59990bdcb712b443dd5e0d1cd" target="_top" xlink:title="umflush_mod::umflush">
<polygon fill="#ffffff" stroke="#000000" points="680,-57.5 680,-76.5 808,-76.5 808,-57.5 680,-57.5"/>
<text text-anchor="middle" x="744" y="-64.5" font-family="Helvetica,sans-Serif" font-size="10.00" fill="#000000">umflush_mod::umflush</text>
</a>
</g>
</g>
<!-- Node4&#45;&gt;Node5 -->
<g id="edge6" class="edge">
<title>Node4&#45;&gt;Node5</title>
<path fill="none" stroke="#191970" d="M626.7638,-67C640.7742,-67 655.5063,-67 669.6162,-67"/>
<polygon fill="#191970" stroke="#191970" points="669.7612,-70.5001 679.7611,-67 669.7611,-63.5001 669.7612,-70.5001"/>
</g>
</g>
</svg>
