<?xml version="1.0" encoding="UTF-8" standalone="no"?>
<!DOCTYPE svg PUBLIC "-//W3C//DTD SVG 1.1//EN"
 "http://www.w3.org/Graphics/SVG/1.1/DTD/svg11.dtd">
<!-- Generated by graphviz version 2.40.1 (20161225.0304)
 -->
<!-- Title: rcf_readnl_runradiation_mod::rcf_readnl_runradiation Pages: 1 -->
<svg width="597pt" height="61pt"
 viewBox="0.00 0.00 597.00 61.00" xmlns="http://www.w3.org/2000/svg" xmlns:xlink="http://www.w3.org/1999/xlink">
<g id="graph0" class="graph" transform="scale(1 1) rotate(0) translate(4 57)">
<title>rcf_readnl_runradiation_mod::rcf_readnl_runradiation</title>
<polygon fill="#ffffff" stroke="transparent" points="-4,4 -4,-57 593,-57 593,4 -4,4"/>
<!-- Node7 -->
<g id="node1" class="node">
<title>Node7</title>
<polygon fill="#bfbfbf" stroke="#000000" points="0,-.5 0,-30.5 163,-30.5 163,-.5 0,-.5"/>
<text text-anchor="start" x="8" y="-18.5" font-family="Helvetica,sans-Serif" font-size="10.00" fill="#000000">rcf_readnl_runradiation</text>
<text text-anchor="middle" x="81.5" y="-7.5" font-family="Helvetica,sans-Serif" font-size="10.00" fill="#000000">_mod::rcf_readnl_runradiation</text>
</g>
<!-- Node8 -->
<g id="node2" class="node">
<title>Node8</title>
<g id="a_node2"><a xlink:href="namespacercf__read__namelists__mod.xhtml#a03f55943f24c46a584c68e062c7c51b8" target="_top" xlink:title="Subroutine Rcf_Read_Namelists &#45; read the rcf namelists. ">
<polygon fill="#ffffff" stroke="#000000" points="199,-.5 199,-30.5 342,-30.5 342,-.5 199,-.5"/>
<text text-anchor="start" x="207" y="-18.5" font-family="Helvetica,sans-Serif" font-size="10.00" fill="#000000">rcf_read_namelists</text>
<text text-anchor="middle" x="270.5" y="-7.5" font-family="Helvetica,sans-Serif" font-size="10.00" fill="#000000">_mod::rcf_read_namelists</text>
</a>
</g>
</g>
<!-- Node7&#45;&gt;Node8 -->
<g id="edge1" class="edge">
<title>Node7&#45;&gt;Node8</title>
<path fill="none" stroke="#191970" d="M173.1048,-15.5C181.719,-15.5 190.3654,-15.5 198.7572,-15.5"/>
<polygon fill="#191970" stroke="#191970" points="173.0244,-12.0001 163.0243,-15.5 173.0243,-19.0001 173.0244,-12.0001"/>
</g>
<!-- Node9 -->
<g id="node3" class="node">
<title>Node9</title>
<g id="a_node3"><a xlink:href="namespacercf__initialise__mod.xhtml#ab7086bd455bd5857b757207d0255c3f4" target="_top" xlink:title="Subroutine Rcf_Initialise &#45; initialisation tasks. ">
<polygon fill="#ffffff" stroke="#000000" points="378,-22.5 378,-52.5 482,-52.5 482,-22.5 378,-22.5"/>
<text text-anchor="start" x="386" y="-40.5" font-family="Helvetica,sans-Serif" font-size="10.00" fill="#000000">rcf_initialise_mod</text>
<text text-anchor="middle" x="430" y="-29.5" font-family="Helvetica,sans-Serif" font-size="10.00" fill="#000000">::rcf_initialise</text>
</a>
</g>
</g>
<!-- Node8&#45;&gt;Node9 -->
<g id="edge2" class="edge">
<title>Node8&#45;&gt;Node9</title>
<path fill="none" stroke="#191970" d="M352.3968,-26.7961C360.99,-27.9814 369.5499,-29.1621 377.6771,-30.283"/>
<polygon fill="#191970" stroke="#191970" points="352.7023,-23.3052 342.3178,-25.4059 351.7458,-30.2395 352.7023,-23.3052"/>
</g>
<!-- Node10 -->
<g id="node4" class="node">
<title>Node10</title>
<g id="a_node4"><a xlink:href="reconfigure_8f90.xhtml#a55389899cfceedbb4b0f908c73988c0c" target="_top" xlink:title="Top level program for reconfiguration. ">
<polygon fill="#ffffff" stroke="#000000" points="518,-6 518,-25 589,-25 589,-6 518,-6"/>
<text text-anchor="middle" x="553.5" y="-13" font-family="Helvetica,sans-Serif" font-size="10.00" fill="#000000">reconfigure</text>
</a>
</g>
</g>
<!-- Node8&#45;&gt;Node10 -->
<g id="edge4" class="edge">
<title>Node8&#45;&gt;Node10</title>
<path fill="none" stroke="#191970" d="M352.3397,-13.819C361.0027,-13.6884 369.6821,-13.5774 378,-13.5 424.2202,-13.0701 435.7823,-12.8537 482,-13.5 493.6718,-13.6632 506.4123,-13.9762 517.8629,-14.307"/>
<polygon fill="#191970" stroke="#191970" points="352.1431,-10.3216 342.2001,-13.9806 352.2546,-17.3207 352.1431,-10.3216"/>
</g>
<!-- Node9&#45;&gt;Node10 -->
<g id="edge3" class="edge">
<title>Node9&#45;&gt;Node10</title>
<path fill="none" stroke="#191970" d="M491.9335,-26.4673C500.7486,-24.897 509.5587,-23.3276 517.6452,-21.8871"/>
<polygon fill="#191970" stroke="#191970" points="491.2483,-23.0342 482.0172,-28.2338 492.476,-29.9257 491.2483,-23.0342"/>
</g>
</g>
</svg>
