<?xml version="1.0" encoding="UTF-8" standalone="no"?>
<!DOCTYPE svg PUBLIC "-//W3C//DTD SVG 1.1//EN"
 "http://www.w3.org/Graphics/SVG/1.1/DTD/svg11.dtd">
<!-- Generated by graphviz version 2.40.1 (20161225.0304)
 -->
<!-- Title: dust_parameters_mod::print_nlist_run_dust Pages: 1 -->
<svg width="666pt" height="72pt"
 viewBox="0.00 0.00 666.00 71.50" xmlns="http://www.w3.org/2000/svg" xmlns:xlink="http://www.w3.org/1999/xlink">
<g id="graph0" class="graph" transform="scale(1 1) rotate(0) translate(4 67.5)">
<title>dust_parameters_mod::print_nlist_run_dust</title>
<polygon fill="#ffffff" stroke="transparent" points="-4,4 -4,-67.5 662,-67.5 662,4 -4,4"/>
<!-- Node18 -->
<g id="node1" class="node">
<title>Node18</title>
<polygon fill="#bfbfbf" stroke="#000000" points="0,-33 0,-63 126,-63 126,-33 0,-33"/>
<text text-anchor="start" x="8" y="-51" font-family="Helvetica,sans-Serif" font-size="10.00" fill="#000000">dust_parameters_mod</text>
<text text-anchor="middle" x="63" y="-40" font-family="Helvetica,sans-Serif" font-size="10.00" fill="#000000">::print_nlist_run_dust</text>
</g>
<!-- Node19 -->
<g id="node2" class="node">
<title>Node19</title>
<g id="a_node2"><a xlink:href="namespaceumprintmgr.xhtml#aae44897e556705dbf5e945a26538be9a" target="_top" xlink:title="umprintmgr::umprint">
<polygon fill="#ffffff" stroke="#000000" points="162,-38.5 162,-57.5 281,-57.5 281,-38.5 162,-38.5"/>
<text text-anchor="middle" x="221.5" y="-45.5" font-family="Helvetica,sans-Serif" font-size="10.00" fill="#000000">umprintmgr::umprint</text>
</a>
</g>
</g>
<!-- Node18&#45;&gt;Node19 -->
<g id="edge1" class="edge">
<title>Node18&#45;&gt;Node19</title>
<path fill="none" stroke="#191970" d="M126.0988,-48C134.5995,-48 143.3592,-48 151.9637,-48"/>
<polygon fill="#191970" stroke="#191970" points="151.9687,-51.5001 161.9687,-48 151.9686,-44.5001 151.9687,-51.5001"/>
</g>
<!-- Node20 -->
<g id="node3" class="node">
<title>Node20</title>
<g id="a_node3"><a xlink:href="namespaceumprintmgr.xhtml#a088ce22a18d574e9df7ee1850bfb10c7" target="_top" xlink:title="umprintmgr::umprintopenstream">
<polygon fill="#ffffff" stroke="#000000" points="317,-38.5 317,-57.5 494,-57.5 494,-38.5 317,-38.5"/>
<text text-anchor="middle" x="405.5" y="-45.5" font-family="Helvetica,sans-Serif" font-size="10.00" fill="#000000">umprintmgr::umprintopenstream</text>
</a>
</g>
</g>
<!-- Node19&#45;&gt;Node20 -->
<g id="edge2" class="edge">
<title>Node19&#45;&gt;Node20</title>
<path fill="none" stroke="#191970" d="M281.2395,-41.6333C289.4605,-41.4301 298.0751,-41.3077 306.7702,-41.2661"/>
<polygon fill="#191970" stroke="#191970" points="306.9998,-44.7659 316.9958,-41.2543 306.9917,-37.7659 306.9998,-44.7659"/>
</g>
<!-- Node21 -->
<g id="node4" class="node">
<title>Node21</title>
<g id="a_node4"><a xlink:href="namespaceumprintmgr.xhtml#ad3a290b30a6e25500eabc0bf90330b77" target="_top" xlink:title="umprintmgr::umprintflush">
<polygon fill="#ffffff" stroke="#000000" points="334.5,-.5 334.5,-19.5 476.5,-19.5 476.5,-.5 334.5,-.5"/>
<text text-anchor="middle" x="405.5" y="-7.5" font-family="Helvetica,sans-Serif" font-size="10.00" fill="#000000">umprintmgr::umprintflush</text>
</a>
</g>
</g>
<!-- Node19&#45;&gt;Node21 -->
<g id="edge4" class="edge">
<title>Node19&#45;&gt;Node21</title>
<path fill="none" stroke="#191970" d="M267.931,-38.411C292.6493,-33.3061 323.239,-26.9887 349.292,-21.6082"/>
<polygon fill="#191970" stroke="#191970" points="350.3175,-24.9703 359.4029,-19.5201 348.9017,-18.115 350.3175,-24.9703"/>
</g>
<!-- Node20&#45;&gt;Node19 -->
<g id="edge3" class="edge">
<title>Node20&#45;&gt;Node19</title>
<path fill="none" stroke="#191970" d="M316.9958,-54.7457C308.3802,-54.767 299.7236,-54.7094 291.3289,-54.5727"/>
<polygon fill="#191970" stroke="#191970" points="291.3089,-51.0716 281.2395,-54.3667 291.166,-58.0702 291.3089,-51.0716"/>
</g>
<!-- Node22 -->
<g id="node5" class="node">
<title>Node22</title>
<g id="a_node5"><a xlink:href="namespaceumflush__mod.xhtml#a3a003ab59990bdcb712b443dd5e0d1cd" target="_top" xlink:title="umflush_mod::umflush">
<polygon fill="#ffffff" stroke="#000000" points="530,-.5 530,-19.5 658,-19.5 658,-.5 530,-.5"/>
<text text-anchor="middle" x="594" y="-7.5" font-family="Helvetica,sans-Serif" font-size="10.00" fill="#000000">umflush_mod::umflush</text>
</a>
</g>
</g>
<!-- Node21&#45;&gt;Node22 -->
<g id="edge5" class="edge">
<title>Node21&#45;&gt;Node22</title>
<path fill="none" stroke="#191970" d="M476.7638,-10C490.7742,-10 505.5063,-10 519.6162,-10"/>
<polygon fill="#191970" stroke="#191970" points="519.7612,-13.5001 529.7611,-10 519.7611,-6.5001 519.7612,-13.5001"/>
</g>
</g>
</svg>
