<?xml version="1.0" encoding="UTF-8" standalone="no"?>
<!DOCTYPE svg PUBLIC "-//W3C//DTD SVG 1.1//EN"
 "http://www.w3.org/Graphics/SVG/1.1/DTD/svg11.dtd">
<!-- Generated by graphviz version 2.40.1 (20161225.0304)
 -->
<!-- Title: boundary_layer_mod::potential_temperature Pages: 1 -->
<!--zoomable 88 -->
<svg id="main" version="1.1" xmlns="http://www.w3.org/2000/svg" xmlns:xlink="http://www.w3.org/1999/xlink" xml:space="preserve" onload="init(evt)">
<style type="text/css"><![CDATA[
.edge:hover path { stroke: red; }
.edge:hover polygon { stroke: red; fill: red; }
]]></style>
<script type="text/javascript"><![CDATA[
var edges = document.getElementsByTagName('g');
if (edges && edges.length) {
  for (var i=0;i<edges.length;i++) {
    if (edges[i].id.substr(0,4)=='edge') {
      edges[i].setAttribute('class','edge');
    }
  }
}
]]></script>
        <defs>
                <circle id="rim" cx="0" cy="0" r="7"/>
                <circle id="rim2" cx="0" cy="0" r="3.5"/>
                <g id="zoomPlus">
                        <use xlink:href="#rim" fill="#404040">
                                <set attributeName="fill" to="#808080" begin="zoomplus.mouseover" end="zoomplus.mouseout"/>
                        </use>
                        <path d="M-4,0h8M0,-4v8" fill="none" stroke="white" stroke-width="1.5" pointer-events="none"/>
                </g>
                <g id="zoomMin">
                        <use xlink:href="#rim" fill="#404040">
                                <set attributeName="fill" to="#808080" begin="zoomminus.mouseover" end="zoomminus.mouseout"/>
                        </use>
                        <path d="M-4,0h8" fill="none" stroke="white" stroke-width="1.5" pointer-events="none"/>
                </g>
                <g id="dirArrow">
                        <path fill="none" stroke="white" stroke-width="1.5" d="M0,-3.0v7 M-2.5,-0.5L0,-3.0L2.5,-0.5"/>
                </g>
               <g id="resetDef">
                       <use xlink:href="#rim2" fill="#404040">
                               <set attributeName="fill" to="#808080" begin="reset.mouseover" end="reset.mouseout"/>
                       </use>
               </g>
        </defs>

<script type="text/javascript">
var viewWidth = 1189;
var viewHeight = 88;
var sectionId = 'dynsection-13';
</script>
<script xlink:href="svgpan.js"/>
<svg id="graph" class="graph">
<g id="viewport">
<title>boundary_layer_mod::potential_temperature</title>
<polygon fill="#ffffff" stroke="transparent" points="-4,4 -4,-84 1185,-84 1185,4 -4,4"/>
<!-- Node147 -->
<g id="node1" class="node">
<title>Node147</title>
<polygon fill="#bfbfbf" stroke="#000000" points="0,-24.5 0,-54.5 132,-54.5 132,-24.5 0,-24.5"/>
<text text-anchor="start" x="8" y="-42.5" font-family="Helvetica,sans-Serif" font-size="10.00" fill="#000000">boundary_layer_mod</text>
<text text-anchor="middle" x="66" y="-31.5" font-family="Helvetica,sans-Serif" font-size="10.00" fill="#000000">::potential_temperature</text>
</g>
<!-- Node148 -->
<g id="node2" class="node">
<title>Node148</title>
<g id="a_node2"><a xlink:href="namespaceboundary__layer__mod.xhtml#a80dcecd1317ba9a2473c2029bdd96c78" target="_top" xlink:title="boundary_layer_mod\l::sensible_heat_flux">
<polygon fill="#ffffff" stroke="#000000" points="168,-24.5 168,-54.5 287,-54.5 287,-24.5 168,-24.5"/>
<text text-anchor="start" x="176" y="-42.5" font-family="Helvetica,sans-Serif" font-size="10.00" fill="#000000">boundary_layer_mod</text>
<text text-anchor="middle" x="227.5" y="-31.5" font-family="Helvetica,sans-Serif" font-size="10.00" fill="#000000">::sensible_heat_flux</text>
</a>
</g>
</g>
<!-- Node147&#45;&gt;Node148 -->
<g id="edge1" class="edge">
<title>Node147&#45;&gt;Node148</title>
<path fill="none" stroke="#191970" d="M142.2293,-39.5C150.859,-39.5 159.5577,-39.5 167.9297,-39.5"/>
<polygon fill="#191970" stroke="#191970" points="142.1542,-36.0001 132.1542,-39.5 142.1542,-43.0001 142.1542,-36.0001"/>
</g>
<!-- Node149 -->
<g id="node3" class="node">
<title>Node149</title>
<g id="a_node3"><a xlink:href="namespacecolumn__mod.xhtml#a62f818413fe7f1c57af1e77eef537f1f" target="_top" xlink:title="column_mod::evolve\l_column">
<polygon fill="#ffffff" stroke="#000000" points="323,-24.5 323,-54.5 442,-54.5 442,-24.5 323,-24.5"/>
<text text-anchor="start" x="331" y="-42.5" font-family="Helvetica,sans-Serif" font-size="10.00" fill="#000000">column_mod::evolve</text>
<text text-anchor="middle" x="382.5" y="-31.5" font-family="Helvetica,sans-Serif" font-size="10.00" fill="#000000">_column</text>
</a>
</g>
</g>
<!-- Node148&#45;&gt;Node149 -->
<g id="edge2" class="edge">
<title>Node148&#45;&gt;Node149</title>
<path fill="none" stroke="#191970" d="M297.6612,-39.5C306.1217,-39.5 314.6999,-39.5 322.9877,-39.5"/>
<polygon fill="#191970" stroke="#191970" points="297.4271,-36.0001 287.427,-39.5 297.427,-43.0001 297.4271,-36.0001"/>
</g>
<!-- Node150 -->
<g id="node4" class="node">
<title>Node150</title>
<g id="a_node4"><a xlink:href="namespaceeg__moist__gcm__ctl__mod.xhtml#aaa5af5fd7888d583f447738840aca1a6" target="_top" xlink:title="eg_moist_gcm_ctl_mod\l::eg_moist_gcm_ctl">
<polygon fill="#ffffff" stroke="#000000" points="478,-24.5 478,-54.5 610,-54.5 610,-24.5 478,-24.5"/>
<text text-anchor="start" x="486" y="-42.5" font-family="Helvetica,sans-Serif" font-size="10.00" fill="#000000">eg_moist_gcm_ctl_mod</text>
<text text-anchor="middle" x="544" y="-31.5" font-family="Helvetica,sans-Serif" font-size="10.00" fill="#000000">::eg_moist_gcm_ctl</text>
</a>
</g>
</g>
<!-- Node149&#45;&gt;Node150 -->
<g id="edge3" class="edge">
<title>Node149&#45;&gt;Node150</title>
<path fill="none" stroke="#191970" d="M452.3603,-39.5C460.7945,-39.5 469.3902,-39.5 477.7702,-39.5"/>
<polygon fill="#191970" stroke="#191970" points="452.1778,-36.0001 442.1778,-39.5 452.1778,-43.0001 452.1778,-36.0001"/>
</g>
<!-- Node151 -->
<g id="node5" class="node">
<title>Node151</title>
<g id="a_node5"><a xlink:href="namespaceeg__idl__forcing__mod.xhtml#af6b661542faffe897edc18d4ac526e89" target="_top" xlink:title="This file belongs in section: Dynamics. ">
<polygon fill="#ffffff" stroke="#000000" points="646,-49.5 646,-79.5 758,-79.5 758,-49.5 646,-49.5"/>
<text text-anchor="start" x="654" y="-67.5" font-family="Helvetica,sans-Serif" font-size="10.00" fill="#000000">eg_idl_forcing_mod</text>
<text text-anchor="middle" x="702" y="-56.5" font-family="Helvetica,sans-Serif" font-size="10.00" fill="#000000">::eg_idl_forcing</text>
</a>
</g>
</g>
<!-- Node150&#45;&gt;Node151 -->
<g id="edge4" class="edge">
<title>Node150&#45;&gt;Node151</title>
<path fill="none" stroke="#191970" d="M620.1495,-51.549C628.7567,-52.9109 637.409,-54.2799 645.6971,-55.5913"/>
<polygon fill="#191970" stroke="#191970" points="620.5149,-48.0633 610.0907,-49.9574 619.4208,-54.9773 620.5149,-48.0633"/>
</g>
<!-- Node156 -->
<g id="node10" class="node">
<title>Node156</title>
<g id="a_node10"><a xlink:href="namespaceeg__idl__forcing__mod.xhtml#a2a8abd90e51b9822688a00906f4c0486" target="_top" xlink:title="eg_idl_forcing_mod\l::eg_idl_forcing2">
<polygon fill="#ffffff" stroke="#000000" points="646,-.5 646,-30.5 758,-30.5 758,-.5 646,-.5"/>
<text text-anchor="start" x="654" y="-18.5" font-family="Helvetica,sans-Serif" font-size="10.00" fill="#000000">eg_idl_forcing_mod</text>
<text text-anchor="middle" x="702" y="-7.5" font-family="Helvetica,sans-Serif" font-size="10.00" fill="#000000">::eg_idl_forcing2</text>
</a>
</g>
</g>
<!-- Node150&#45;&gt;Node156 -->
<g id="edge9" class="edge">
<title>Node150&#45;&gt;Node156</title>
<path fill="none" stroke="#191970" d="M620.1495,-27.933C628.7567,-26.6256 637.409,-25.3113 645.6971,-24.0523"/>
<polygon fill="#191970" stroke="#191970" points="619.4517,-24.4987 610.0907,-29.4609 620.503,-31.4194 619.4517,-24.4987"/>
</g>
<!-- Node152 -->
<g id="node6" class="node">
<title>Node152</title>
<g id="a_node6"><a xlink:href="atm__step__4_a_8f90.xhtml#a2319aa4963e90c64cd78bdcd5f481095" target="_top" xlink:title="Perform a 1&#45;timestep integration of the Atmosphere Model. ">
<polygon fill="#ffffff" stroke="#000000" points="794,-30 794,-49 874,-49 874,-30 794,-30"/>
<text text-anchor="middle" x="834" y="-37" font-family="Helvetica,sans-Serif" font-size="10.00" fill="#000000">atm_step_4a</text>
</a>
</g>
</g>
<!-- Node151&#45;&gt;Node152 -->
<g id="edge5" class="edge">
<title>Node151&#45;&gt;Node152</title>
<path fill="none" stroke="#191970" d="M768.198,-51.9625C776.9363,-50.3075 785.6701,-48.6534 793.7865,-47.1162"/>
<polygon fill="#191970" stroke="#191970" points="767.5368,-48.5254 758.3628,-53.8252 768.8394,-55.4032 767.5368,-48.5254"/>
</g>
<!-- Node153 -->
<g id="node7" class="node">
<title>Node153</title>
<g id="a_node7"><a xlink:href="u__model__4_a_8f90.xhtml#afa05064dab5eba198b461d0928767c7e" target="_top" xlink:title="LL Subroutine: U_MODEL_4A (ENDGAME VERSION) !&gt;LL. ">
<polygon fill="#ffffff" stroke="#000000" points="910,-30 910,-49 986,-49 986,-30 910,-30"/>
<text text-anchor="middle" x="948" y="-37" font-family="Helvetica,sans-Serif" font-size="10.00" fill="#000000">u_model_4a</text>
</a>
</g>
</g>
<!-- Node152&#45;&gt;Node153 -->
<g id="edge6" class="edge">
<title>Node152&#45;&gt;Node153</title>
<path fill="none" stroke="#191970" d="M884.3998,-39.5C892.891,-39.5 901.5803,-39.5 909.7002,-39.5"/>
<polygon fill="#191970" stroke="#191970" points="884.1922,-36.0001 874.1921,-39.5 884.1921,-43.0001 884.1922,-36.0001"/>
</g>
<!-- Node154 -->
<g id="node8" class="node">
<title>Node154</title>
<g id="a_node8"><a xlink:href="um__shell_8f90.xhtml#a8c9bd25362824a5c301376ecb5ed5c27" target="_top" xlink:title="Subroutine: UM_SHELL !&gt; ">
<polygon fill="#ffffff" stroke="#000000" points="1022,-30 1022,-49 1083,-49 1083,-30 1022,-30"/>
<text text-anchor="middle" x="1052.5" y="-37" font-family="Helvetica,sans-Serif" font-size="10.00" fill="#000000">um_shell</text>
</a>
</g>
</g>
<!-- Node153&#45;&gt;Node154 -->
<g id="edge7" class="edge">
<title>Node153&#45;&gt;Node154</title>
<path fill="none" stroke="#191970" d="M996.1579,-39.5C1004.9023,-39.5 1013.8005,-39.5 1021.8647,-39.5"/>
<polygon fill="#191970" stroke="#191970" points="996.0225,-36.0001 986.0225,-39.5 996.0225,-43.0001 996.0225,-36.0001"/>
</g>
<!-- Node155 -->
<g id="node9" class="node">
<title>Node155</title>
<g id="a_node9"><a xlink:href="um__main_8f90.xhtml#a8f2d13215621443a5313261c282f098b" target="_top" xlink:title="Code Owner: See Unified Model Code Owner&#39;s HTML page. ">
<polygon fill="#ffffff" stroke="#000000" points="1119,-30 1119,-49 1181,-49 1181,-30 1119,-30"/>
<text text-anchor="middle" x="1150" y="-37" font-family="Helvetica,sans-Serif" font-size="10.00" fill="#000000">um_main</text>
</a>
</g>
</g>
<!-- Node154&#45;&gt;Node155 -->
<g id="edge8" class="edge">
<title>Node154&#45;&gt;Node155</title>
<path fill="none" stroke="#191970" d="M1093.2756,-39.5C1101.8294,-39.5 1110.72,-39.5 1118.8551,-39.5"/>
<polygon fill="#191970" stroke="#191970" points="1093.0821,-36.0001 1083.0821,-39.5 1093.0821,-43.0001 1093.0821,-36.0001"/>
</g>
<!-- Node156&#45;&gt;Node152 -->
<g id="edge10" class="edge">
<title>Node156&#45;&gt;Node152</title>
<path fill="none" stroke="#191970" d="M768.4799,-27.5872C777.1241,-29.1589 785.7574,-30.7286 793.7865,-32.1885"/>
<polygon fill="#191970" stroke="#191970" points="768.8276,-24.0932 758.3628,-25.7478 767.5753,-30.9803 768.8276,-24.0932"/>
</g>
</g>
</svg>
        <g id="navigator" transform="translate(0 0)" fill="#404254">
                <rect fill="#f2f5e9" fill-opacity="0.5" stroke="#606060" stroke-width=".5" x="0" y="0" width="60" height="60"/>
                <use id="zoomplus" xlink:href="#zoomPlus" x="17" y="9" onmousedown="handleZoom(evt,'in')"/>
                <use id="zoomminus" xlink:href="#zoomMin" x="42" y="9" onmousedown="handleZoom(evt,'out')"/>
                <use id="reset" xlink:href="#resetDef" x="30" y="36" onmousedown="handleReset()"/>
                <g id="arrowUp" xlink:href="#dirArrow" transform="translate(30 24)" onmousedown="handlePan(0,-1)">
                  <use xlink:href="#rim" fill="#404040">
                        <set attributeName="fill" to="#808080" begin="arrowUp.mouseover" end="arrowUp.mouseout"/>
                  </use>
                  <path fill="none" stroke="white" stroke-width="1.5" d="M0,-3.0v7 M-2.5,-0.5L0,-3.0L2.5,-0.5"/>
                </g>
                <g id="arrowRight" xlink:href="#dirArrow" transform="rotate(90) translate(36 -43)" onmousedown="handlePan(1,0)">
                  <use xlink:href="#rim" fill="#404040">
                        <set attributeName="fill" to="#808080" begin="arrowRight.mouseover" end="arrowRight.mouseout"/>
                  </use>
                  <path fill="none" stroke="white" stroke-width="1.5" d="M0,-3.0v7 M-2.5,-0.5L0,-3.0L2.5,-0.5"/>
                </g>
                <g id="arrowDown" xlink:href="#dirArrow" transform="rotate(180) translate(-30 -48)" onmousedown="handlePan(0,1)">
                  <use xlink:href="#rim" fill="#404040">
                        <set attributeName="fill" to="#808080" begin="arrowDown.mouseover" end="arrowDown.mouseout"/>
                  </use>
                  <path fill="none" stroke="white" stroke-width="1.5" d="M0,-3.0v7 M-2.5,-0.5L0,-3.0L2.5,-0.5"/>
                </g>
                <g id="arrowLeft" xlink:href="#dirArrow" transform="rotate(270) translate(-36 17)" onmousedown="handlePan(-1,0)">
                  <use xlink:href="#rim" fill="#404040">
                        <set attributeName="fill" to="#808080" begin="arrowLeft.mouseover" end="arrowLeft.mouseout"/>
                  </use>
                  <path fill="none" stroke="white" stroke-width="1.5" d="M0,-3.0v7 M-2.5,-0.5L0,-3.0L2.5,-0.5"/>
                </g>
        </g>
        <svg viewBox="0 0 15 15" width="100%" height="30px" preserveAspectRatio="xMaxYMin meet">
         <g id="arrow_out" transform="scale(0.3 0.3)">
          <a xlink:href="namespaceboundary__layer__mod_ac317e05d58bab8ced9c2ff5a92bbe49a_icgraph_org.svg" target="_base">
           <rect id="button" ry="5" rx="5" y="6" x="6" height="38" width="38"
                fill="#f2f5e9" fill-opacity="0.5" stroke="#606060" stroke-width="1.0"/>
           <path id="arrow"
             d="M 11.500037,31.436501 C 11.940474,20.09759 22.043105,11.32322 32.158766,21.979434 L 37.068811,17.246167 C 37.068811,17.246167 37.088388,32 37.088388,32 L 22.160133,31.978069 C 22.160133,31.978069 26.997745,27.140456 26.997745,27.140456 C 18.528582,18.264221 13.291696,25.230495 11.500037,31.436501 z"
             style="fill:#404040;"/>
          </a>
         </g>
        </svg>
</svg>
