<?xml version="1.0" encoding="UTF-8" standalone="no"?>
<!DOCTYPE svg PUBLIC "-//W3C//DTD SVG 1.1//EN"
 "http://www.w3.org/Graphics/SVG/1.1/DTD/svg11.dtd">
<!-- Generated by graphviz version 2.40.1 (20161225.0304)
 -->
<!-- Title: column_mod::evolve_column Pages: 1 -->
<svg width="866pt" height="88pt"
 viewBox="0.00 0.00 866.00 88.00" xmlns="http://www.w3.org/2000/svg" xmlns:xlink="http://www.w3.org/1999/xlink">
<g id="graph0" class="graph" transform="scale(1 1) rotate(0) translate(4 84)">
<title>column_mod::evolve_column</title>
<polygon fill="#ffffff" stroke="transparent" points="-4,4 -4,-84 862,-84 862,4 -4,4"/>
<!-- Node91 -->
<g id="node1" class="node">
<title>Node91</title>
<polygon fill="#bfbfbf" stroke="#000000" points="0,-24.5 0,-54.5 119,-54.5 119,-24.5 0,-24.5"/>
<text text-anchor="start" x="8" y="-42.5" font-family="Helvetica,sans-Serif" font-size="10.00" fill="#000000">column_mod::evolve</text>
<text text-anchor="middle" x="59.5" y="-31.5" font-family="Helvetica,sans-Serif" font-size="10.00" fill="#000000">_column</text>
</g>
<!-- Node92 -->
<g id="node2" class="node">
<title>Node92</title>
<g id="a_node2"><a xlink:href="namespaceeg__moist__gcm__ctl__mod.xhtml#aaa5af5fd7888d583f447738840aca1a6" target="_top" xlink:title="eg_moist_gcm_ctl_mod\l::eg_moist_gcm_ctl">
<polygon fill="#ffffff" stroke="#000000" points="155,-24.5 155,-54.5 287,-54.5 287,-24.5 155,-24.5"/>
<text text-anchor="start" x="163" y="-42.5" font-family="Helvetica,sans-Serif" font-size="10.00" fill="#000000">eg_moist_gcm_ctl_mod</text>
<text text-anchor="middle" x="221" y="-31.5" font-family="Helvetica,sans-Serif" font-size="10.00" fill="#000000">::eg_moist_gcm_ctl</text>
</a>
</g>
</g>
<!-- Node91&#45;&gt;Node92 -->
<g id="edge1" class="edge">
<title>Node91&#45;&gt;Node92</title>
<path fill="none" stroke="#191970" d="M129.3603,-39.5C137.7945,-39.5 146.3902,-39.5 154.7702,-39.5"/>
<polygon fill="#191970" stroke="#191970" points="129.1778,-36.0001 119.1778,-39.5 129.1778,-43.0001 129.1778,-36.0001"/>
</g>
<!-- Node93 -->
<g id="node3" class="node">
<title>Node93</title>
<g id="a_node3"><a xlink:href="namespaceeg__idl__forcing__mod.xhtml#af6b661542faffe897edc18d4ac526e89" target="_top" xlink:title="This file belongs in section: Dynamics. ">
<polygon fill="#ffffff" stroke="#000000" points="323,-49.5 323,-79.5 435,-79.5 435,-49.5 323,-49.5"/>
<text text-anchor="start" x="331" y="-67.5" font-family="Helvetica,sans-Serif" font-size="10.00" fill="#000000">eg_idl_forcing_mod</text>
<text text-anchor="middle" x="379" y="-56.5" font-family="Helvetica,sans-Serif" font-size="10.00" fill="#000000">::eg_idl_forcing</text>
</a>
</g>
</g>
<!-- Node92&#45;&gt;Node93 -->
<g id="edge2" class="edge">
<title>Node92&#45;&gt;Node93</title>
<path fill="none" stroke="#191970" d="M297.1495,-51.549C305.7567,-52.9109 314.409,-54.2799 322.6971,-55.5913"/>
<polygon fill="#191970" stroke="#191970" points="297.5149,-48.0633 287.0907,-49.9574 296.4208,-54.9773 297.5149,-48.0633"/>
</g>
<!-- Node98 -->
<g id="node8" class="node">
<title>Node98</title>
<g id="a_node8"><a xlink:href="namespaceeg__idl__forcing__mod.xhtml#a2a8abd90e51b9822688a00906f4c0486" target="_top" xlink:title="eg_idl_forcing_mod\l::eg_idl_forcing2">
<polygon fill="#ffffff" stroke="#000000" points="323,-.5 323,-30.5 435,-30.5 435,-.5 323,-.5"/>
<text text-anchor="start" x="331" y="-18.5" font-family="Helvetica,sans-Serif" font-size="10.00" fill="#000000">eg_idl_forcing_mod</text>
<text text-anchor="middle" x="379" y="-7.5" font-family="Helvetica,sans-Serif" font-size="10.00" fill="#000000">::eg_idl_forcing2</text>
</a>
</g>
</g>
<!-- Node92&#45;&gt;Node98 -->
<g id="edge7" class="edge">
<title>Node92&#45;&gt;Node98</title>
<path fill="none" stroke="#191970" d="M297.1495,-27.933C305.7567,-26.6256 314.409,-25.3113 322.6971,-24.0523"/>
<polygon fill="#191970" stroke="#191970" points="296.4517,-24.4987 287.0907,-29.4609 297.503,-31.4194 296.4517,-24.4987"/>
</g>
<!-- Node94 -->
<g id="node4" class="node">
<title>Node94</title>
<g id="a_node4"><a xlink:href="atm__step__4_a_8f90.xhtml#a2319aa4963e90c64cd78bdcd5f481095" target="_top" xlink:title="Perform a 1&#45;timestep integration of the Atmosphere Model. ">
<polygon fill="#ffffff" stroke="#000000" points="471,-30 471,-49 551,-49 551,-30 471,-30"/>
<text text-anchor="middle" x="511" y="-37" font-family="Helvetica,sans-Serif" font-size="10.00" fill="#000000">atm_step_4a</text>
</a>
</g>
</g>
<!-- Node93&#45;&gt;Node94 -->
<g id="edge3" class="edge">
<title>Node93&#45;&gt;Node94</title>
<path fill="none" stroke="#191970" d="M445.198,-51.9625C453.9363,-50.3075 462.6701,-48.6534 470.7865,-47.1162"/>
<polygon fill="#191970" stroke="#191970" points="444.5368,-48.5254 435.3628,-53.8252 445.8394,-55.4032 444.5368,-48.5254"/>
</g>
<!-- Node95 -->
<g id="node5" class="node">
<title>Node95</title>
<g id="a_node5"><a xlink:href="u__model__4_a_8f90.xhtml#afa05064dab5eba198b461d0928767c7e" target="_top" xlink:title="LL Subroutine: U_MODEL_4A (ENDGAME VERSION) !&gt;LL. ">
<polygon fill="#ffffff" stroke="#000000" points="587,-30 587,-49 663,-49 663,-30 587,-30"/>
<text text-anchor="middle" x="625" y="-37" font-family="Helvetica,sans-Serif" font-size="10.00" fill="#000000">u_model_4a</text>
</a>
</g>
</g>
<!-- Node94&#45;&gt;Node95 -->
<g id="edge4" class="edge">
<title>Node94&#45;&gt;Node95</title>
<path fill="none" stroke="#191970" d="M561.3998,-39.5C569.891,-39.5 578.5803,-39.5 586.7002,-39.5"/>
<polygon fill="#191970" stroke="#191970" points="561.1922,-36.0001 551.1921,-39.5 561.1921,-43.0001 561.1922,-36.0001"/>
</g>
<!-- Node96 -->
<g id="node6" class="node">
<title>Node96</title>
<g id="a_node6"><a xlink:href="um__shell_8f90.xhtml#a8c9bd25362824a5c301376ecb5ed5c27" target="_top" xlink:title="Subroutine: UM_SHELL !&gt; ">
<polygon fill="#ffffff" stroke="#000000" points="699,-30 699,-49 760,-49 760,-30 699,-30"/>
<text text-anchor="middle" x="729.5" y="-37" font-family="Helvetica,sans-Serif" font-size="10.00" fill="#000000">um_shell</text>
</a>
</g>
</g>
<!-- Node95&#45;&gt;Node96 -->
<g id="edge5" class="edge">
<title>Node95&#45;&gt;Node96</title>
<path fill="none" stroke="#191970" d="M673.1579,-39.5C681.9023,-39.5 690.8005,-39.5 698.8647,-39.5"/>
<polygon fill="#191970" stroke="#191970" points="673.0225,-36.0001 663.0225,-39.5 673.0225,-43.0001 673.0225,-36.0001"/>
</g>
<!-- Node97 -->
<g id="node7" class="node">
<title>Node97</title>
<g id="a_node7"><a xlink:href="um__main_8f90.xhtml#a8f2d13215621443a5313261c282f098b" target="_top" xlink:title="Code Owner: See Unified Model Code Owner&#39;s HTML page. ">
<polygon fill="#ffffff" stroke="#000000" points="796,-30 796,-49 858,-49 858,-30 796,-30"/>
<text text-anchor="middle" x="827" y="-37" font-family="Helvetica,sans-Serif" font-size="10.00" fill="#000000">um_main</text>
</a>
</g>
</g>
<!-- Node96&#45;&gt;Node97 -->
<g id="edge6" class="edge">
<title>Node96&#45;&gt;Node97</title>
<path fill="none" stroke="#191970" d="M770.2756,-39.5C778.8294,-39.5 787.72,-39.5 795.8551,-39.5"/>
<polygon fill="#191970" stroke="#191970" points="770.0821,-36.0001 760.0821,-39.5 770.0821,-43.0001 770.0821,-36.0001"/>
</g>
<!-- Node98&#45;&gt;Node94 -->
<g id="edge8" class="edge">
<title>Node98&#45;&gt;Node94</title>
<path fill="none" stroke="#191970" d="M445.4799,-27.5872C454.1241,-29.1589 462.7574,-30.7286 470.7865,-32.1885"/>
<polygon fill="#191970" stroke="#191970" points="445.8276,-24.0932 435.3628,-25.7478 444.5753,-30.9803 445.8276,-24.0932"/>
</g>
</g>
</svg>
