<?xml version="1.0" encoding="UTF-8" standalone="no"?>
<!DOCTYPE svg PUBLIC "-//W3C//DTD SVG 1.1//EN"
 "http://www.w3.org/Graphics/SVG/1.1/DTD/svg11.dtd">
<!-- Generated by graphviz version 2.40.1 (20161225.0304)
 -->
<!-- Title: ios_queue_mod::destroy_node Pages: 1 -->
<svg width="1470pt" height="180pt"
 viewBox="0.00 0.00 1470.00 180.00" xmlns="http://www.w3.org/2000/svg" xmlns:xlink="http://www.w3.org/1999/xlink">
<g id="graph0" class="graph" transform="scale(1 1) rotate(0) translate(4 176)">
<title>ios_queue_mod::destroy_node</title>
<polygon fill="#ffffff" stroke="transparent" points="-4,4 -4,-176 1466,-176 1466,4 -4,4"/>
<!-- Node13 -->
<g id="node1" class="node">
<title>Node13</title>
<polygon fill="#bfbfbf" stroke="#000000" points="0,-76.5 0,-95.5 165,-95.5 165,-76.5 0,-76.5"/>
<text text-anchor="middle" x="82.5" y="-83.5" font-family="Helvetica,sans-Serif" font-size="10.00" fill="#000000">ios_queue_mod::destroy_node</text>
</g>
<!-- Node14 -->
<g id="node2" class="node">
<title>Node14</title>
<g id="a_node2"><a xlink:href="namespaceios__queue__mod.xhtml#a4ee7678995b5d34a0adda39290be24ce" target="_top" xlink:title="ios_queue_mod::ios\l_increment_queue_length">
<polygon fill="#ffffff" stroke="#000000" points="201,-71 201,-101 344,-101 344,-71 201,-71"/>
<text text-anchor="start" x="209" y="-89" font-family="Helvetica,sans-Serif" font-size="10.00" fill="#000000">ios_queue_mod::ios</text>
<text text-anchor="middle" x="272.5" y="-78" font-family="Helvetica,sans-Serif" font-size="10.00" fill="#000000">_increment_queue_length</text>
</a>
</g>
</g>
<!-- Node13&#45;&gt;Node14 -->
<g id="edge1" class="edge">
<title>Node13&#45;&gt;Node14</title>
<path fill="none" stroke="#191970" d="M165.0078,-86C173.4805,-86 182.088,-86 190.5546,-86"/>
<polygon fill="#191970" stroke="#191970" points="190.7935,-89.5001 200.7934,-86 190.7934,-82.5001 190.7935,-89.5001"/>
</g>
<!-- Node15 -->
<g id="node3" class="node">
<title>Node15</title>
<g id="a_node3"><a xlink:href="namespaceios__queue__mod.xhtml#a1cc76d7fb8498cbbc11371ccb2fb8d0f" target="_top" xlink:title="ios_queue_mod::acquire_lock">
<polygon fill="#ffffff" stroke="#000000" points="380,-152.5 380,-171.5 541,-171.5 541,-152.5 380,-152.5"/>
<text text-anchor="middle" x="460.5" y="-159.5" font-family="Helvetica,sans-Serif" font-size="10.00" fill="#000000">ios_queue_mod::acquire_lock</text>
</a>
</g>
</g>
<!-- Node14&#45;&gt;Node15 -->
<g id="edge2" class="edge">
<title>Node14&#45;&gt;Node15</title>
<path fill="none" stroke="#191970" d="M296.8503,-101.2351C318.107,-113.9594 350.143,-131.7733 380,-143 386.7457,-145.5365 393.9403,-147.8087 401.1487,-149.8227"/>
<polygon fill="#191970" stroke="#191970" points="400.3836,-153.2406 410.9458,-152.4097 402.1708,-146.4726 400.3836,-153.2406"/>
</g>
<!-- Node16 -->
<g id="node4" class="node">
<title>Node16</title>
<g id="a_node4"><a xlink:href="namespaceios__common.xhtml#a4b4c79405dd73494ae58cbf0e4f1658b" target="_top" xlink:title="ios_common::ios_ereport">
<polygon fill="#ffffff" stroke="#000000" points="390.5,-114.5 390.5,-133.5 530.5,-133.5 530.5,-114.5 390.5,-114.5"/>
<text text-anchor="middle" x="460.5" y="-121.5" font-family="Helvetica,sans-Serif" font-size="10.00" fill="#000000">ios_common::ios_ereport</text>
</a>
</g>
</g>
<!-- Node14&#45;&gt;Node16 -->
<g id="edge3" class="edge">
<title>Node14&#45;&gt;Node16</title>
<path fill="none" stroke="#191970" d="M344.111,-100.4746C363.7259,-104.4393 384.7216,-108.6831 403.4051,-112.4595"/>
<polygon fill="#191970" stroke="#191970" points="402.7379,-115.8954 413.2332,-114.4461 404.1248,-109.0342 402.7379,-115.8954"/>
</g>
<!-- Node17 -->
<g id="node5" class="node">
<title>Node17</title>
<g id="a_node5"><a xlink:href="namespaceios__print__mgr.xhtml#abd09d7fc0d2381103fd0889b447f4995" target="_top" xlink:title="ios_print_mgr::ios\l_print">
<polygon fill="#ffffff" stroke="#000000" points="797,-95 797,-125 901,-125 901,-95 797,-95"/>
<text text-anchor="start" x="805" y="-113" font-family="Helvetica,sans-Serif" font-size="10.00" fill="#000000">ios_print_mgr::ios</text>
<text text-anchor="middle" x="849" y="-102" font-family="Helvetica,sans-Serif" font-size="10.00" fill="#000000">_print</text>
</a>
</g>
</g>
<!-- Node14&#45;&gt;Node17 -->
<g id="edge13" class="edge">
<title>Node14&#45;&gt;Node17</title>
<path fill="none" stroke="#191970" d="M344.0582,-88.979C457.9867,-93.7219 678.7263,-102.9114 786.6058,-107.4025"/>
<polygon fill="#191970" stroke="#191970" points="786.5491,-110.9031 796.686,-107.8221 786.8403,-103.9091 786.5491,-110.9031"/>
</g>
<!-- Node24 -->
<g id="node12" class="node">
<title>Node24</title>
<g id="a_node12"><a xlink:href="namespaceios__print__mgr.xhtml#af901bb4272acb2ce160c5ebd69d33441" target="_top" xlink:title="ios_print_mgr::ios\l_print_flush">
<polygon fill="#ffffff" stroke="#000000" points="602.5,-27 602.5,-57 706.5,-57 706.5,-27 602.5,-27"/>
<text text-anchor="start" x="610.5" y="-45" font-family="Helvetica,sans-Serif" font-size="10.00" fill="#000000">ios_print_mgr::ios</text>
<text text-anchor="middle" x="654.5" y="-34" font-family="Helvetica,sans-Serif" font-size="10.00" fill="#000000">_print_flush</text>
</a>
</g>
</g>
<!-- Node14&#45;&gt;Node24 -->
<g id="edge14" class="edge">
<title>Node14&#45;&gt;Node24</title>
<path fill="none" stroke="#191970" d="M344.177,-76.456C356.1344,-74.924 368.4139,-73.3874 380,-72 452.8177,-63.2802 536.6296,-54.2691 592.2935,-48.4285"/>
<polygon fill="#191970" stroke="#191970" points="592.7694,-51.8979 602.3506,-47.3757 592.0405,-44.936 592.7694,-51.8979"/>
</g>
<!-- Node25 -->
<g id="node13" class="node">
<title>Node25</title>
<g id="a_node13"><a xlink:href="namespaceios__queue__mod.xhtml#ace57a6c3d5da7965655bc35a3548b873" target="_top" xlink:title="ios_queue_mod::release_lock">
<polygon fill="#ffffff" stroke="#000000" points="380,-.5 380,-19.5 541,-19.5 541,-.5 380,-.5"/>
<text text-anchor="middle" x="460.5" y="-7.5" font-family="Helvetica,sans-Serif" font-size="10.00" fill="#000000">ios_queue_mod::release_lock</text>
</a>
</g>
</g>
<!-- Node14&#45;&gt;Node25 -->
<g id="edge16" class="edge">
<title>Node14&#45;&gt;Node25</title>
<path fill="none" stroke="#191970" d="M300.6895,-70.8182C322.0571,-59.6933 352.3611,-44.7247 380,-34 390.9362,-29.7564 402.9475,-25.8102 414.2785,-22.3933"/>
<polygon fill="#191970" stroke="#191970" points="415.4086,-25.7093 424.0168,-19.5327 413.4357,-18.993 415.4086,-25.7093"/>
</g>
<!-- Node16&#45;&gt;Node17 -->
<g id="edge4" class="edge">
<title>Node16&#45;&gt;Node17</title>
<path fill="none" stroke="#191970" d="M530.8544,-121.4647C603.7533,-118.8377 716.6069,-114.7709 786.4744,-112.2532"/>
<polygon fill="#191970" stroke="#191970" points="787.0158,-115.736 796.8832,-111.8781 786.7636,-108.7406 787.0158,-115.736"/>
</g>
<!-- Node22 -->
<g id="node10" class="node">
<title>Node22</title>
<g id="a_node10"><a xlink:href="namespaceios__common.xhtml#ade38472c488c019e816ec75cb70ab3cc" target="_top" xlink:title="ios_common::ios_report_md">
<polygon fill="#ffffff" stroke="#000000" points="577,-152.5 577,-171.5 732,-171.5 732,-152.5 577,-152.5"/>
<text text-anchor="middle" x="654.5" y="-159.5" font-family="Helvetica,sans-Serif" font-size="10.00" fill="#000000">ios_common::ios_report_md</text>
</a>
</g>
</g>
<!-- Node16&#45;&gt;Node22 -->
<g id="edge10" class="edge">
<title>Node16&#45;&gt;Node22</title>
<path fill="none" stroke="#191970" d="M509.4544,-133.589C535.7467,-138.739 568.3396,-145.1232 595.9653,-150.5344"/>
<polygon fill="#191970" stroke="#191970" points="595.4113,-153.9924 605.8976,-152.4799 596.7569,-147.1229 595.4113,-153.9924"/>
</g>
<!-- Node18 -->
<g id="node6" class="node">
<title>Node18</title>
<g id="a_node6"><a xlink:href="namespaceumprintmgr.xhtml#aae44897e556705dbf5e945a26538be9a" target="_top" xlink:title="umprintmgr::umprint">
<polygon fill="#ffffff" stroke="#000000" points="966,-82.5 966,-101.5 1085,-101.5 1085,-82.5 966,-82.5"/>
<text text-anchor="middle" x="1025.5" y="-89.5" font-family="Helvetica,sans-Serif" font-size="10.00" fill="#000000">umprintmgr::umprint</text>
</a>
</g>
</g>
<!-- Node17&#45;&gt;Node18 -->
<g id="edge5" class="edge">
<title>Node17&#45;&gt;Node18</title>
<path fill="none" stroke="#191970" d="M901.0012,-104.6968C918.1607,-102.9468 937.5332,-100.9711 955.796,-99.1086"/>
<polygon fill="#191970" stroke="#191970" points="956.2134,-102.5843 965.8067,-98.0877 955.5032,-95.6204 956.2134,-102.5843"/>
</g>
<!-- Node19 -->
<g id="node7" class="node">
<title>Node19</title>
<g id="a_node7"><a xlink:href="namespaceumprintmgr.xhtml#a088ce22a18d574e9df7ee1850bfb10c7" target="_top" xlink:title="umprintmgr::umprintopenstream">
<polygon fill="#ffffff" stroke="#000000" points="1121,-82.5 1121,-101.5 1298,-101.5 1298,-82.5 1121,-82.5"/>
<text text-anchor="middle" x="1209.5" y="-89.5" font-family="Helvetica,sans-Serif" font-size="10.00" fill="#000000">umprintmgr::umprintopenstream</text>
</a>
</g>
</g>
<!-- Node18&#45;&gt;Node19 -->
<g id="edge6" class="edge">
<title>Node18&#45;&gt;Node19</title>
<path fill="none" stroke="#191970" d="M1085.2395,-85.6333C1093.4605,-85.4301 1102.0751,-85.3077 1110.7702,-85.2661"/>
<polygon fill="#191970" stroke="#191970" points="1110.9998,-88.7659 1120.9958,-85.2543 1110.9917,-81.7659 1110.9998,-88.7659"/>
</g>
<!-- Node20 -->
<g id="node8" class="node">
<title>Node20</title>
<g id="a_node8"><a xlink:href="namespaceumprintmgr.xhtml#ad3a290b30a6e25500eabc0bf90330b77" target="_top" xlink:title="umprintmgr::umprintflush">
<polygon fill="#ffffff" stroke="#000000" points="1138.5,-43.5 1138.5,-62.5 1280.5,-62.5 1280.5,-43.5 1138.5,-43.5"/>
<text text-anchor="middle" x="1209.5" y="-50.5" font-family="Helvetica,sans-Serif" font-size="10.00" fill="#000000">umprintmgr::umprintflush</text>
</a>
</g>
</g>
<!-- Node18&#45;&gt;Node20 -->
<g id="edge8" class="edge">
<title>Node18&#45;&gt;Node20</title>
<path fill="none" stroke="#191970" d="M1070.5115,-82.4595C1095.889,-77.0806 1127.7869,-70.3196 1154.622,-64.6318"/>
<polygon fill="#191970" stroke="#191970" points="1155.5778,-68.007 1164.6347,-62.5095 1154.1263,-61.1591 1155.5778,-68.007"/>
</g>
<!-- Node19&#45;&gt;Node18 -->
<g id="edge7" class="edge">
<title>Node19&#45;&gt;Node18</title>
<path fill="none" stroke="#191970" d="M1120.9958,-98.7457C1112.3802,-98.767 1103.7236,-98.7094 1095.3289,-98.5727"/>
<polygon fill="#191970" stroke="#191970" points="1095.3089,-95.0716 1085.2395,-98.3667 1095.166,-102.0702 1095.3089,-95.0716"/>
</g>
<!-- Node21 -->
<g id="node9" class="node">
<title>Node21</title>
<g id="a_node9"><a xlink:href="namespaceumflush__mod.xhtml#a3a003ab59990bdcb712b443dd5e0d1cd" target="_top" xlink:title="umflush_mod::umflush">
<polygon fill="#ffffff" stroke="#000000" points="1334,-43.5 1334,-62.5 1462,-62.5 1462,-43.5 1334,-43.5"/>
<text text-anchor="middle" x="1398" y="-50.5" font-family="Helvetica,sans-Serif" font-size="10.00" fill="#000000">umflush_mod::umflush</text>
</a>
</g>
</g>
<!-- Node20&#45;&gt;Node21 -->
<g id="edge9" class="edge">
<title>Node20&#45;&gt;Node21</title>
<path fill="none" stroke="#191970" d="M1280.7638,-53C1294.7742,-53 1309.5063,-53 1323.6162,-53"/>
<polygon fill="#191970" stroke="#191970" points="1323.7612,-56.5001 1333.7611,-53 1323.7611,-49.5001 1323.7612,-56.5001"/>
</g>
<!-- Node22&#45;&gt;Node17 -->
<g id="edge11" class="edge">
<title>Node22&#45;&gt;Node17</title>
<path fill="none" stroke="#191970" d="M690.1743,-152.4624C717.2077,-145.235 755.025,-135.1244 786.9765,-126.5821"/>
<polygon fill="#191970" stroke="#191970" points="787.929,-129.9505 796.6857,-123.9863 786.121,-123.188 787.929,-129.9505"/>
</g>
<!-- Node23 -->
<g id="node11" class="node">
<title>Node23</title>
<g id="a_node11"><a xlink:href="namespaceios__common.xhtml#a9cbfffb6c02387dc317575ab449918b6" target="_top" xlink:title="ios_common::ios_actionname">
<polygon fill="#ffffff" stroke="#000000" points="768,-152.5 768,-171.5 930,-171.5 930,-152.5 768,-152.5"/>
<text text-anchor="middle" x="849" y="-159.5" font-family="Helvetica,sans-Serif" font-size="10.00" fill="#000000">ios_common::ios_actionname</text>
</a>
</g>
</g>
<!-- Node22&#45;&gt;Node23 -->
<g id="edge12" class="edge">
<title>Node22&#45;&gt;Node23</title>
<path fill="none" stroke="#191970" d="M732.2101,-162C740.6519,-162 749.2986,-162 757.8814,-162"/>
<polygon fill="#191970" stroke="#191970" points="757.9114,-165.5001 767.9114,-162 757.9113,-158.5001 757.9114,-165.5001"/>
</g>
<!-- Node24&#45;&gt;Node20 -->
<g id="edge15" class="edge">
<title>Node24&#45;&gt;Node20</title>
<path fill="none" stroke="#191970" d="M706.7131,-43.0349C803.7609,-44.9583 1012.5505,-49.0965 1128.2152,-51.389"/>
<polygon fill="#191970" stroke="#191970" points="1128.3603,-54.8924 1138.4278,-51.5914 1128.4991,-47.8938 1128.3603,-54.8924"/>
</g>
</g>
</svg>
