<?xml version="1.0" encoding="UTF-8" standalone="no"?>
<!DOCTYPE svg PUBLIC "-//W3C//DTD SVG 1.1//EN"
 "http://www.w3.org/Graphics/SVG/1.1/DTD/svg11.dtd">
<!-- Generated by graphviz version 2.40.1 (20161225.0304)
 -->
<!-- Title: aero_ctl_mod_4a::aero_ctl_4a Pages: 1 -->
<svg width="559pt" height="39pt"
 viewBox="0.00 0.00 559.00 39.00" xmlns="http://www.w3.org/2000/svg" xmlns:xlink="http://www.w3.org/1999/xlink">
<g id="graph0" class="graph" transform="scale(1 1) rotate(0) translate(4 35)">
<title>aero_ctl_mod_4a::aero_ctl_4a</title>
<polygon fill="#ffffff" stroke="transparent" points="-4,4 -4,-35 555,-35 555,4 -4,4"/>
<!-- Node237 -->
<g id="node1" class="node">
<title>Node237</title>
<polygon fill="#bfbfbf" stroke="#000000" points="0,-.5 0,-30.5 128,-30.5 128,-.5 0,-.5"/>
<text text-anchor="start" x="8" y="-18.5" font-family="Helvetica,sans-Serif" font-size="10.00" fill="#000000">aero_ctl_mod_4a::aero</text>
<text text-anchor="middle" x="64" y="-7.5" font-family="Helvetica,sans-Serif" font-size="10.00" fill="#000000">_ctl_4a</text>
</g>
<!-- Node238 -->
<g id="node2" class="node">
<title>Node238</title>
<g id="a_node2"><a xlink:href="atm__step__4_a_8f90.xhtml#a2319aa4963e90c64cd78bdcd5f481095" target="_top" xlink:title="Perform a 1&#45;timestep integration of the Atmosphere Model. ">
<polygon fill="#ffffff" stroke="#000000" points="164,-6 164,-25 244,-25 244,-6 164,-6"/>
<text text-anchor="middle" x="204" y="-13" font-family="Helvetica,sans-Serif" font-size="10.00" fill="#000000">atm_step_4a</text>
</a>
</g>
</g>
<!-- Node237&#45;&gt;Node238 -->
<g id="edge1" class="edge">
<title>Node237&#45;&gt;Node238</title>
<path fill="none" stroke="#191970" d="M138.475,-15.5C147.1649,-15.5 155.7626,-15.5 163.7292,-15.5"/>
<polygon fill="#191970" stroke="#191970" points="138.2636,-12.0001 128.2635,-15.5 138.2635,-19.0001 138.2636,-12.0001"/>
</g>
<!-- Node239 -->
<g id="node3" class="node">
<title>Node239</title>
<g id="a_node3"><a xlink:href="u__model__4_a_8f90.xhtml#afa05064dab5eba198b461d0928767c7e" target="_top" xlink:title="LL Subroutine: U_MODEL_4A (ENDGAME VERSION) !&gt;LL. ">
<polygon fill="#ffffff" stroke="#000000" points="280,-6 280,-25 356,-25 356,-6 280,-6"/>
<text text-anchor="middle" x="318" y="-13" font-family="Helvetica,sans-Serif" font-size="10.00" fill="#000000">u_model_4a</text>
</a>
</g>
</g>
<!-- Node238&#45;&gt;Node239 -->
<g id="edge2" class="edge">
<title>Node238&#45;&gt;Node239</title>
<path fill="none" stroke="#191970" d="M254.3998,-15.5C262.891,-15.5 271.5803,-15.5 279.7002,-15.5"/>
<polygon fill="#191970" stroke="#191970" points="254.1922,-12.0001 244.1921,-15.5 254.1921,-19.0001 254.1922,-12.0001"/>
</g>
<!-- Node240 -->
<g id="node4" class="node">
<title>Node240</title>
<g id="a_node4"><a xlink:href="um__shell_8f90.xhtml#a8c9bd25362824a5c301376ecb5ed5c27" target="_top" xlink:title="Subroutine: UM_SHELL !&gt; ">
<polygon fill="#ffffff" stroke="#000000" points="392,-6 392,-25 453,-25 453,-6 392,-6"/>
<text text-anchor="middle" x="422.5" y="-13" font-family="Helvetica,sans-Serif" font-size="10.00" fill="#000000">um_shell</text>
</a>
</g>
</g>
<!-- Node239&#45;&gt;Node240 -->
<g id="edge3" class="edge">
<title>Node239&#45;&gt;Node240</title>
<path fill="none" stroke="#191970" d="M366.1579,-15.5C374.9023,-15.5 383.8005,-15.5 391.8647,-15.5"/>
<polygon fill="#191970" stroke="#191970" points="366.0225,-12.0001 356.0225,-15.5 366.0225,-19.0001 366.0225,-12.0001"/>
</g>
<!-- Node241 -->
<g id="node5" class="node">
<title>Node241</title>
<g id="a_node5"><a xlink:href="um__main_8f90.xhtml#a8f2d13215621443a5313261c282f098b" target="_top" xlink:title="Code Owner: See Unified Model Code Owner&#39;s HTML page. ">
<polygon fill="#ffffff" stroke="#000000" points="489,-6 489,-25 551,-25 551,-6 489,-6"/>
<text text-anchor="middle" x="520" y="-13" font-family="Helvetica,sans-Serif" font-size="10.00" fill="#000000">um_main</text>
</a>
</g>
</g>
<!-- Node240&#45;&gt;Node241 -->
<g id="edge4" class="edge">
<title>Node240&#45;&gt;Node241</title>
<path fill="none" stroke="#191970" d="M463.2756,-15.5C471.8294,-15.5 480.72,-15.5 488.8551,-15.5"/>
<polygon fill="#191970" stroke="#191970" points="463.0821,-12.0001 453.0821,-15.5 463.0821,-19.0001 463.0821,-12.0001"/>
</g>
</g>
</svg>
