<?xml version="1.0" encoding="UTF-8" standalone="no"?>
<!DOCTYPE svg PUBLIC "-//W3C//DTD SVG 1.1//EN"
 "http://www.w3.org/Graphics/SVG/1.1/DTD/svg11.dtd">
<!-- Generated by graphviz version 2.40.1 (20161225.0304)
 -->
<!-- Title: stph_setup_mod::stph_setup Pages: 1 -->
<!--zoomable 362 -->
<svg id="main" version="1.1" xmlns="http://www.w3.org/2000/svg" xmlns:xlink="http://www.w3.org/1999/xlink" xml:space="preserve" onload="init(evt)">
<style type="text/css"><![CDATA[
.edge:hover path { stroke: red; }
.edge:hover polygon { stroke: red; fill: red; }
]]></style>
<script type="text/javascript"><![CDATA[
var edges = document.getElementsByTagName('g');
if (edges && edges.length) {
  for (var i=0;i<edges.length;i++) {
    if (edges[i].id.substr(0,4)=='edge') {
      edges[i].setAttribute('class','edge');
    }
  }
}
]]></script>
        <defs>
                <circle id="rim" cx="0" cy="0" r="7"/>
                <circle id="rim2" cx="0" cy="0" r="3.5"/>
                <g id="zoomPlus">
                        <use xlink:href="#rim" fill="#404040">
                                <set attributeName="fill" to="#808080" begin="zoomplus.mouseover" end="zoomplus.mouseout"/>
                        </use>
                        <path d="M-4,0h8M0,-4v8" fill="none" stroke="white" stroke-width="1.5" pointer-events="none"/>
                </g>
                <g id="zoomMin">
                        <use xlink:href="#rim" fill="#404040">
                                <set attributeName="fill" to="#808080" begin="zoomminus.mouseover" end="zoomminus.mouseout"/>
                        </use>
                        <path d="M-4,0h8" fill="none" stroke="white" stroke-width="1.5" pointer-events="none"/>
                </g>
                <g id="dirArrow">
                        <path fill="none" stroke="white" stroke-width="1.5" d="M0,-3.0v7 M-2.5,-0.5L0,-3.0L2.5,-0.5"/>
                </g>
               <g id="resetDef">
                       <use xlink:href="#rim2" fill="#404040">
                               <set attributeName="fill" to="#808080" begin="reset.mouseover" end="reset.mouseout"/>
                       </use>
               </g>
        </defs>

<script type="text/javascript">
var viewWidth = 827;
var viewHeight = 362;
var sectionId = 'dynsection-0';
</script>
<script xlink:href="svgpan.js"/>
<svg id="graph" class="graph">
<g id="viewport">
<title>stph_setup_mod::stph_setup</title>
<polygon fill="#ffffff" stroke="transparent" points="-4,4 -4,-357.5 823,-357.5 823,4 -4,4"/>
<!-- Node0 -->
<g id="node1" class="node">
<title>Node0</title>
<polygon fill="#bfbfbf" stroke="#000000" points="0,-161 0,-191 124,-191 124,-161 0,-161"/>
<text text-anchor="start" x="8" y="-179" font-family="Helvetica,sans-Serif" font-size="10.00" fill="#000000">stph_setup_mod::stph</text>
<text text-anchor="middle" x="62" y="-168" font-family="Helvetica,sans-Serif" font-size="10.00" fill="#000000">_setup</text>
</g>
<!-- Node1 -->
<g id="node2" class="node">
<title>Node1</title>
<g id="a_node2"><a xlink:href="namespacestph__closeinput__mod.xhtml#a447e7250627a1e0a1cfb5bd96a732916" target="_top" xlink:title="stph_closeinput_mod\l::stph_closeinput">
<polygon fill="#ffffff" stroke="#000000" points="163.5,-323 163.5,-353 283.5,-353 283.5,-323 163.5,-323"/>
<text text-anchor="start" x="171.5" y="-341" font-family="Helvetica,sans-Serif" font-size="10.00" fill="#000000">stph_closeinput_mod</text>
<text text-anchor="middle" x="223.5" y="-330" font-family="Helvetica,sans-Serif" font-size="10.00" fill="#000000">::stph_closeinput</text>
</a>
</g>
</g>
<!-- Node0&#45;&gt;Node1 -->
<g id="edge1" class="edge">
<title>Node0&#45;&gt;Node1</title>
<path fill="none" stroke="#191970" d="M70.0523,-191.3637C84.7488,-218.1492 118.2846,-273.7974 160,-308 164.5302,-311.7143 169.5967,-315.0911 174.8386,-318.1263"/>
<polygon fill="#191970" stroke="#191970" points="173.2952,-321.2702 183.7622,-322.9111 176.6031,-315.101 173.2952,-321.2702"/>
</g>
<!-- Node2 -->
<g id="node3" class="node">
<title>Node2</title>
<g id="a_node3"><a xlink:href="namespaceumprintmgr.xhtml#aae44897e556705dbf5e945a26538be9a" target="_top" xlink:title="umprintmgr::umprint">
<polygon fill="#ffffff" stroke="#000000" points="323,-215.5 323,-234.5 442,-234.5 442,-215.5 323,-215.5"/>
<text text-anchor="middle" x="382.5" y="-222.5" font-family="Helvetica,sans-Serif" font-size="10.00" fill="#000000">umprintmgr::umprint</text>
</a>
</g>
</g>
<!-- Node0&#45;&gt;Node2 -->
<g id="edge16" class="edge">
<title>Node0&#45;&gt;Node2</title>
<path fill="none" stroke="#191970" d="M71.1496,-191.0224C86.272,-214.2189 118.9315,-257.8666 160,-275 212.0929,-296.7326 232.189,-288.4805 287,-275 314.3308,-268.2781 342.5083,-252.1983 361.1053,-240.0752"/>
<polygon fill="#191970" stroke="#191970" points="363.0633,-242.9764 369.4196,-234.5001 359.1647,-237.1625 363.0633,-242.9764"/>
</g>
<!-- Node6 -->
<g id="node7" class="node">
<title>Node6</title>
<g id="a_node7"><a xlink:href="namespacestph__closeoutput__mod.xhtml#a214f24745a6631c3e92deb2f6e5c7d6e" target="_top" xlink:title="stph_closeoutput_mod\l::stph_closeoutput">
<polygon fill="#ffffff" stroke="#000000" points="160,-235 160,-265 287,-265 287,-235 160,-235"/>
<text text-anchor="start" x="168" y="-253" font-family="Helvetica,sans-Serif" font-size="10.00" fill="#000000">stph_closeoutput_mod</text>
<text text-anchor="middle" x="223.5" y="-242" font-family="Helvetica,sans-Serif" font-size="10.00" fill="#000000">::stph_closeoutput</text>
</a>
</g>
</g>
<!-- Node0&#45;&gt;Node6 -->
<g id="edge7" class="edge">
<title>Node0&#45;&gt;Node6</title>
<path fill="none" stroke="#191970" d="M89.4851,-191.0536C108.9155,-201.4399 135.7209,-215.2574 160,-226 163.8799,-227.7167 167.9244,-229.4252 172.0103,-231.0939"/>
<polygon fill="#191970" stroke="#191970" points="170.9764,-234.4495 181.5617,-234.9002 173.5678,-227.9468 170.9764,-234.4495"/>
</g>
<!-- Node7 -->
<g id="node8" class="node">
<title>Node7</title>
<g id="a_node8"><a xlink:href="namespacestph__openinput__mod.xhtml#a858b84880c03822059708b2b3aae01f1" target="_top" xlink:title="stph_openinput_mod\l::stph_openinput">
<polygon fill="#ffffff" stroke="#000000" points="164,-186 164,-216 283,-216 283,-186 164,-186"/>
<text text-anchor="start" x="172" y="-204" font-family="Helvetica,sans-Serif" font-size="10.00" fill="#000000">stph_openinput_mod</text>
<text text-anchor="middle" x="223.5" y="-193" font-family="Helvetica,sans-Serif" font-size="10.00" fill="#000000">::stph_openinput</text>
</a>
</g>
</g>
<!-- Node0&#45;&gt;Node7 -->
<g id="edge9" class="edge">
<title>Node0&#45;&gt;Node7</title>
<path fill="none" stroke="#191970" d="M124.4401,-185.6657C134.0583,-187.1545 144.0423,-188.7 153.8065,-190.2115"/>
<polygon fill="#191970" stroke="#191970" points="153.46,-193.6995 163.8777,-191.7705 154.5309,-186.7819 153.46,-193.6995"/>
</g>
<!-- Node8 -->
<g id="node9" class="node">
<title>Node8</title>
<g id="a_node9"><a xlink:href="namespacestph__openoutput__mod.xhtml#a1c5297036bbda3cc4f51f5ebc6dd24a7" target="_top" xlink:title="stph_openoutput_mod\l::stph_openoutput">
<polygon fill="#ffffff" stroke="#000000" points="161,-137 161,-167 286,-167 286,-137 161,-137"/>
<text text-anchor="start" x="169" y="-155" font-family="Helvetica,sans-Serif" font-size="10.00" fill="#000000">stph_openoutput_mod</text>
<text text-anchor="middle" x="223.5" y="-144" font-family="Helvetica,sans-Serif" font-size="10.00" fill="#000000">::stph_openoutput</text>
</a>
</g>
</g>
<!-- Node0&#45;&gt;Node8 -->
<g id="edge11" class="edge">
<title>Node0&#45;&gt;Node8</title>
<path fill="none" stroke="#191970" d="M124.4401,-166.721C133.1464,-165.4272 142.1525,-164.0888 151.0239,-162.7704"/>
<polygon fill="#191970" stroke="#191970" points="151.5828,-166.2259 160.9597,-161.2939 150.5538,-159.3019 151.5828,-166.2259"/>
</g>
<!-- Node9 -->
<g id="node10" class="node">
<title>Node9</title>
<g id="a_node10"><a xlink:href="namespacestph__readentry__mod.xhtml#a66f8c7b61568193cfd283ca0d3cfb72d" target="_top" xlink:title="stph_readentry_mod\l::stph_readentry">
<polygon fill="#ffffff" stroke="#000000" points="165,-88 165,-118 282,-118 282,-88 165,-88"/>
<text text-anchor="start" x="173" y="-106" font-family="Helvetica,sans-Serif" font-size="10.00" fill="#000000">stph_readentry_mod</text>
<text text-anchor="middle" x="223.5" y="-95" font-family="Helvetica,sans-Serif" font-size="10.00" fill="#000000">::stph_readentry</text>
</a>
</g>
</g>
<!-- Node0&#45;&gt;Node9 -->
<g id="edge13" class="edge">
<title>Node0&#45;&gt;Node9</title>
<path fill="none" stroke="#191970" d="M91.3,-160.882C110.6246,-151.1021 136.5977,-138.318 160,-128 164.6244,-125.9611 169.4707,-123.9076 174.3366,-121.9009"/>
<polygon fill="#191970" stroke="#191970" points="175.7146,-125.119 183.6649,-118.1159 173.0827,-118.6326 175.7146,-125.119"/>
</g>
<!-- Node10 -->
<g id="node11" class="node">
<title>Node10</title>
<g id="a_node11"><a xlink:href="namespacestph__writeentry__mod.xhtml#a33e0eb065751954900b9d2fb77dced6f" target="_top" xlink:title="stph_writeentry_mod\l::stph_writeentry">
<polygon fill="#ffffff" stroke="#000000" points="163.5,-39 163.5,-69 283.5,-69 283.5,-39 163.5,-39"/>
<text text-anchor="start" x="171.5" y="-57" font-family="Helvetica,sans-Serif" font-size="10.00" fill="#000000">stph_writeentry_mod</text>
<text text-anchor="middle" x="223.5" y="-46" font-family="Helvetica,sans-Serif" font-size="10.00" fill="#000000">::stph_writeentry</text>
</a>
</g>
</g>
<!-- Node0&#45;&gt;Node10 -->
<g id="edge15" class="edge">
<title>Node0&#45;&gt;Node10</title>
<path fill="none" stroke="#191970" d="M73.8076,-160.953C90.8681,-140.0749 124.303,-102.2687 160,-79 162.9172,-77.0985 166.0015,-75.3041 169.1761,-73.6172"/>
<polygon fill="#191970" stroke="#191970" points="170.8576,-76.691 178.2982,-69.1485 167.7781,-70.4047 170.8576,-76.691"/>
</g>
<!-- Node11 -->
<g id="node12" class="node">
<title>Node11</title>
<g id="a_node12"><a xlink:href="sum_8f90.xhtml#a025c1f845b6a4ea9c9f48b8612cd82e7" target="_top" xlink:title="Generic routines for manipulating pp&#45;fields within Fieldcalc. ">
<polygon fill="#ffffff" stroke="#000000" points="204.5,-.5 204.5,-19.5 242.5,-19.5 242.5,-.5 204.5,-.5"/>
<text text-anchor="middle" x="223.5" y="-7.5" font-family="Helvetica,sans-Serif" font-size="10.00" fill="#000000">sum</text>
</a>
</g>
</g>
<!-- Node0&#45;&gt;Node11 -->
<g id="edge17" class="edge">
<title>Node0&#45;&gt;Node11</title>
<path fill="none" stroke="#191970" d="M68.1162,-160.7007C80.752,-131.0312 112.5809,-65.4815 160,-30 169.9903,-22.5247 182.8468,-17.7975 194.3756,-14.8299"/>
<polygon fill="#191970" stroke="#191970" points="195.4755,-18.1704 204.4698,-12.571 193.9468,-11.3394 195.4755,-18.1704"/>
</g>
<!-- Node1&#45;&gt;Node2 -->
<g id="edge2" class="edge">
<title>Node1&#45;&gt;Node2</title>
<path fill="none" stroke="#191970" d="M259.6941,-322.9956C268.8723,-318.6312 278.5263,-313.5326 287,-308 316.9867,-288.4212 347.5115,-260.1176 365.7274,-242.1423"/>
<polygon fill="#191970" stroke="#191970" points="368.5925,-244.2266 373.1846,-234.6786 363.6406,-239.2789 368.5925,-244.2266"/>
</g>
<!-- Node3 -->
<g id="node4" class="node">
<title>Node3</title>
<g id="a_node4"><a xlink:href="namespaceumprintmgr.xhtml#a088ce22a18d574e9df7ee1850bfb10c7" target="_top" xlink:title="umprintmgr::umprintopenstream">
<polygon fill="#ffffff" stroke="#000000" points="478,-215.5 478,-234.5 655,-234.5 655,-215.5 478,-215.5"/>
<text text-anchor="middle" x="566.5" y="-222.5" font-family="Helvetica,sans-Serif" font-size="10.00" fill="#000000">umprintmgr::umprintopenstream</text>
</a>
</g>
</g>
<!-- Node2&#45;&gt;Node3 -->
<g id="edge3" class="edge">
<title>Node2&#45;&gt;Node3</title>
<path fill="none" stroke="#191970" d="M442.2395,-218.6333C450.4605,-218.4301 459.0751,-218.3077 467.7702,-218.2661"/>
<polygon fill="#191970" stroke="#191970" points="467.9998,-221.7659 477.9958,-218.2543 467.9917,-214.7659 467.9998,-221.7659"/>
</g>
<!-- Node4 -->
<g id="node5" class="node">
<title>Node4</title>
<g id="a_node5"><a xlink:href="namespaceumprintmgr.xhtml#ad3a290b30a6e25500eabc0bf90330b77" target="_top" xlink:title="umprintmgr::umprintflush">
<polygon fill="#ffffff" stroke="#000000" points="495.5,-177.5 495.5,-196.5 637.5,-196.5 637.5,-177.5 495.5,-177.5"/>
<text text-anchor="middle" x="566.5" y="-184.5" font-family="Helvetica,sans-Serif" font-size="10.00" fill="#000000">umprintmgr::umprintflush</text>
</a>
</g>
</g>
<!-- Node2&#45;&gt;Node4 -->
<g id="edge5" class="edge">
<title>Node2&#45;&gt;Node4</title>
<path fill="none" stroke="#191970" d="M428.931,-215.411C453.6493,-210.3061 484.239,-203.9887 510.292,-198.6082"/>
<polygon fill="#191970" stroke="#191970" points="511.3175,-201.9703 520.4029,-196.5201 509.9017,-195.115 511.3175,-201.9703"/>
</g>
<!-- Node3&#45;&gt;Node2 -->
<g id="edge4" class="edge">
<title>Node3&#45;&gt;Node2</title>
<path fill="none" stroke="#191970" d="M477.9958,-231.7457C469.3802,-231.767 460.7236,-231.7094 452.3289,-231.5727"/>
<polygon fill="#191970" stroke="#191970" points="452.3089,-228.0716 442.2395,-231.3667 452.166,-235.0702 452.3089,-228.0716"/>
</g>
<!-- Node5 -->
<g id="node6" class="node">
<title>Node5</title>
<g id="a_node6"><a xlink:href="namespaceumflush__mod.xhtml#a3a003ab59990bdcb712b443dd5e0d1cd" target="_top" xlink:title="umflush_mod::umflush">
<polygon fill="#ffffff" stroke="#000000" points="691,-177.5 691,-196.5 819,-196.5 819,-177.5 691,-177.5"/>
<text text-anchor="middle" x="755" y="-184.5" font-family="Helvetica,sans-Serif" font-size="10.00" fill="#000000">umflush_mod::umflush</text>
</a>
</g>
</g>
<!-- Node4&#45;&gt;Node5 -->
<g id="edge6" class="edge">
<title>Node4&#45;&gt;Node5</title>
<path fill="none" stroke="#191970" d="M637.7638,-187C651.7742,-187 666.5063,-187 680.6162,-187"/>
<polygon fill="#191970" stroke="#191970" points="680.7612,-190.5001 690.7611,-187 680.7611,-183.5001 680.7612,-190.5001"/>
</g>
<!-- Node6&#45;&gt;Node2 -->
<g id="edge8" class="edge">
<title>Node6&#45;&gt;Node2</title>
<path fill="none" stroke="#191970" d="M287.2552,-239.9756C295.7005,-238.6477 304.3927,-237.281 312.9297,-235.9387"/>
<polygon fill="#191970" stroke="#191970" points="313.5211,-239.3888 322.856,-234.378 312.4337,-232.4738 313.5211,-239.3888"/>
</g>
<!-- Node7&#45;&gt;Node2 -->
<g id="edge10" class="edge">
<title>Node7&#45;&gt;Node2</title>
<path fill="none" stroke="#191970" d="M283.1581,-210.005C292.772,-211.4562 302.7995,-212.9697 312.6278,-214.4532"/>
<polygon fill="#191970" stroke="#191970" points="312.3616,-217.9526 322.772,-215.9845 313.4065,-211.0311 312.3616,-217.9526"/>
</g>
<!-- Node8&#45;&gt;Node2 -->
<g id="edge12" class="edge">
<title>Node8&#45;&gt;Node2</title>
<path fill="none" stroke="#191970" d="M263.3625,-167.0541C271.2501,-170.2122 279.4286,-173.6152 287,-177 310.6221,-187.5604 336.8445,-200.8576 355.8261,-210.777"/>
<polygon fill="#191970" stroke="#191970" points="354.2996,-213.9286 364.7794,-215.4859 357.5581,-207.7332 354.2996,-213.9286"/>
</g>
<!-- Node9&#45;&gt;Node2 -->
<g id="edge14" class="edge">
<title>Node9&#45;&gt;Node2</title>
<path fill="none" stroke="#191970" d="M268.7452,-118.0824C275.0935,-120.9705 281.3664,-124.2757 287,-128 320.7871,-150.3361 352.138,-186.2407 369.1712,-207.5351"/>
<polygon fill="#191970" stroke="#191970" points="366.4393,-209.7232 375.3652,-215.431 371.9469,-205.4028 366.4393,-209.7232"/>
</g>
</g>
</svg>
        <g id="navigator" transform="translate(0 0)" fill="#404254">
                <rect fill="#f2f5e9" fill-opacity="0.5" stroke="#606060" stroke-width=".5" x="0" y="0" width="60" height="60"/>
                <use id="zoomplus" xlink:href="#zoomPlus" x="17" y="9" onmousedown="handleZoom(evt,'in')"/>
                <use id="zoomminus" xlink:href="#zoomMin" x="42" y="9" onmousedown="handleZoom(evt,'out')"/>
                <use id="reset" xlink:href="#resetDef" x="30" y="36" onmousedown="handleReset()"/>
                <g id="arrowUp" xlink:href="#dirArrow" transform="translate(30 24)" onmousedown="handlePan(0,-1)">
                  <use xlink:href="#rim" fill="#404040">
                        <set attributeName="fill" to="#808080" begin="arrowUp.mouseover" end="arrowUp.mouseout"/>
                  </use>
                  <path fill="none" stroke="white" stroke-width="1.5" d="M0,-3.0v7 M-2.5,-0.5L0,-3.0L2.5,-0.5"/>
                </g>
                <g id="arrowRight" xlink:href="#dirArrow" transform="rotate(90) translate(36 -43)" onmousedown="handlePan(1,0)">
                  <use xlink:href="#rim" fill="#404040">
                        <set attributeName="fill" to="#808080" begin="arrowRight.mouseover" end="arrowRight.mouseout"/>
                  </use>
                  <path fill="none" stroke="white" stroke-width="1.5" d="M0,-3.0v7 M-2.5,-0.5L0,-3.0L2.5,-0.5"/>
                </g>
                <g id="arrowDown" xlink:href="#dirArrow" transform="rotate(180) translate(-30 -48)" onmousedown="handlePan(0,1)">
                  <use xlink:href="#rim" fill="#404040">
                        <set attributeName="fill" to="#808080" begin="arrowDown.mouseover" end="arrowDown.mouseout"/>
                  </use>
                  <path fill="none" stroke="white" stroke-width="1.5" d="M0,-3.0v7 M-2.5,-0.5L0,-3.0L2.5,-0.5"/>
                </g>
                <g id="arrowLeft" xlink:href="#dirArrow" transform="rotate(270) translate(-36 17)" onmousedown="handlePan(-1,0)">
                  <use xlink:href="#rim" fill="#404040">
                        <set attributeName="fill" to="#808080" begin="arrowLeft.mouseover" end="arrowLeft.mouseout"/>
                  </use>
                  <path fill="none" stroke="white" stroke-width="1.5" d="M0,-3.0v7 M-2.5,-0.5L0,-3.0L2.5,-0.5"/>
                </g>
        </g>
        <svg viewBox="0 0 15 15" width="100%" height="30px" preserveAspectRatio="xMaxYMin meet">
         <g id="arrow_out" transform="scale(0.3 0.3)">
          <a xlink:href="namespacestph__setup__mod_a71ed76c776cfb1a1975a38da542ae126_cgraph_org.svg" target="_base">
           <rect id="button" ry="5" rx="5" y="6" x="6" height="38" width="38"
                fill="#f2f5e9" fill-opacity="0.5" stroke="#606060" stroke-width="1.0"/>
           <path id="arrow"
             d="M 11.500037,31.436501 C 11.940474,20.09759 22.043105,11.32322 32.158766,21.979434 L 37.068811,17.246167 C 37.068811,17.246167 37.088388,32 37.088388,32 L 22.160133,31.978069 C 22.160133,31.978069 26.997745,27.140456 26.997745,27.140456 C 18.528582,18.264221 13.291696,25.230495 11.500037,31.436501 z"
             style="fill:#404040;"/>
          </a>
         </g>
        </svg>
</svg>
