<?xml version="1.0" encoding="UTF-8" standalone="no"?>
<!DOCTYPE svg PUBLIC "-//W3C//DTD SVG 1.1//EN"
 "http://www.w3.org/Graphics/SVG/1.1/DTD/svg11.dtd">
<!-- Generated by graphviz version 2.40.1 (20161225.0304)
 -->
<!-- Title: rcf_horizontal_mod::rcf_horizontal Pages: 1 -->
<!--zoomable 400 -->
<svg id="main" version="1.1" xmlns="http://www.w3.org/2000/svg" xmlns:xlink="http://www.w3.org/1999/xlink" xml:space="preserve" onload="init(evt)">
<style type="text/css"><![CDATA[
.edge:hover path { stroke: red; }
.edge:hover polygon { stroke: red; fill: red; }
]]></style>
<script type="text/javascript"><![CDATA[
var edges = document.getElementsByTagName('g');
if (edges && edges.length) {
  for (var i=0;i<edges.length;i++) {
    if (edges[i].id.substr(0,4)=='edge') {
      edges[i].setAttribute('class','edge');
    }
  }
}
]]></script>
        <defs>
                <circle id="rim" cx="0" cy="0" r="7"/>
                <circle id="rim2" cx="0" cy="0" r="3.5"/>
                <g id="zoomPlus">
                        <use xlink:href="#rim" fill="#404040">
                                <set attributeName="fill" to="#808080" begin="zoomplus.mouseover" end="zoomplus.mouseout"/>
                        </use>
                        <path d="M-4,0h8M0,-4v8" fill="none" stroke="white" stroke-width="1.5" pointer-events="none"/>
                </g>
                <g id="zoomMin">
                        <use xlink:href="#rim" fill="#404040">
                                <set attributeName="fill" to="#808080" begin="zoomminus.mouseover" end="zoomminus.mouseout"/>
                        </use>
                        <path d="M-4,0h8" fill="none" stroke="white" stroke-width="1.5" pointer-events="none"/>
                </g>
                <g id="dirArrow">
                        <path fill="none" stroke="white" stroke-width="1.5" d="M0,-3.0v7 M-2.5,-0.5L0,-3.0L2.5,-0.5"/>
                </g>
               <g id="resetDef">
                       <use xlink:href="#rim2" fill="#404040">
                               <set attributeName="fill" to="#808080" begin="reset.mouseover" end="reset.mouseout"/>
                       </use>
               </g>
        </defs>

<script type="text/javascript">
var viewWidth = 859;
var viewHeight = 400;
var sectionId = 'dynsection-0';
</script>
<script xlink:href="svgpan.js"/>
<svg id="graph" class="graph">
<g id="viewport">
<title>rcf_horizontal_mod::rcf_horizontal</title>
<polygon fill="#ffffff" stroke="transparent" points="-4,4 -4,-395.5 855,-395.5 855,4 -4,4"/>
<!-- Node0 -->
<g id="node1" class="node">
<title>Node0</title>
<polygon fill="#bfbfbf" stroke="#000000" points="0,-170 0,-200 110,-200 110,-170 0,-170"/>
<text text-anchor="start" x="8" y="-188" font-family="Helvetica,sans-Serif" font-size="10.00" fill="#000000">rcf_horizontal_mod</text>
<text text-anchor="middle" x="55" y="-177" font-family="Helvetica,sans-Serif" font-size="10.00" fill="#000000">::rcf_horizontal</text>
</g>
<!-- Node1 -->
<g id="node2" class="node">
<title>Node1</title>
<g id="a_node2"><a xlink:href="namespacemask__compression.xhtml#acb339fbf0c2985509169d255246c5fd2" target="_top" xlink:title="Subroutine Compress_To_Mask &#45;!&gt; Purpose: Selects land points values from input horizontal field!&gt; and...">
<polygon fill="#ffffff" stroke="#000000" points="146,-361 146,-391 310,-391 310,-361 146,-361"/>
<text text-anchor="start" x="154" y="-379" font-family="Helvetica,sans-Serif" font-size="10.00" fill="#000000">mask_compression::compress</text>
<text text-anchor="middle" x="228" y="-368" font-family="Helvetica,sans-Serif" font-size="10.00" fill="#000000">_to_mask</text>
</a>
</g>
</g>
<!-- Node0&#45;&gt;Node1 -->
<g id="edge1" class="edge">
<title>Node0&#45;&gt;Node1</title>
<path fill="none" stroke="#191970" d="M58.9161,-200.0189C68.2293,-232.7284 94.8387,-310.7715 146,-352 147.6025,-353.2914 149.2722,-354.5133 150.9971,-355.6695"/>
<polygon fill="#191970" stroke="#191970" points="149.6218,-358.9185 160.0259,-360.9198 153.1407,-352.8672 149.6218,-358.9185"/>
</g>
<!-- Node2 -->
<g id="node3" class="node">
<title>Node2</title>
<g id="a_node3"><a xlink:href="namespacemask__compression.xhtml#a52de765c26bfe8598cb6f6598e168940" target="_top" xlink:title="mask_compression::expand\l_from_mask">
<polygon fill="#ffffff" stroke="#000000" points="151.5,-312 151.5,-342 304.5,-342 304.5,-312 151.5,-312"/>
<text text-anchor="start" x="159.5" y="-330" font-family="Helvetica,sans-Serif" font-size="10.00" fill="#000000">mask_compression::expand</text>
<text text-anchor="middle" x="228" y="-319" font-family="Helvetica,sans-Serif" font-size="10.00" fill="#000000">_from_mask</text>
</a>
</g>
</g>
<!-- Node0&#45;&gt;Node2 -->
<g id="edge2" class="edge">
<title>Node0&#45;&gt;Node2</title>
<path fill="none" stroke="#191970" d="M62.5629,-200.1488C75.91,-225.327 106.0532,-275.7118 146,-303 148.2755,-304.5544 150.6526,-306.0096 153.1046,-307.3719"/>
<polygon fill="#191970" stroke="#191970" points="151.748,-310.6057 162.2624,-311.9085 154.8553,-304.3332 151.748,-310.6057"/>
</g>
<!-- Node3 -->
<g id="node4" class="node">
<title>Node3</title>
<g id="a_node4"><a xlink:href="namespacercf__select__weights__mod.xhtml#a1027b87c80803f133a8d320d8bd8cf0a" target="_top" xlink:title="Subroutine Rcf_Select_Weights &#45; choose weights for horiz. interp. ">
<polygon fill="#ffffff" stroke="#000000" points="158,-263 158,-293 298,-293 298,-263 158,-263"/>
<text text-anchor="start" x="166" y="-281" font-family="Helvetica,sans-Serif" font-size="10.00" fill="#000000">rcf_select_weights</text>
<text text-anchor="middle" x="228" y="-270" font-family="Helvetica,sans-Serif" font-size="10.00" fill="#000000">_mod::rcf_select_weights</text>
</a>
</g>
</g>
<!-- Node0&#45;&gt;Node3 -->
<g id="edge3" class="edge">
<title>Node0&#45;&gt;Node3</title>
<path fill="none" stroke="#191970" d="M71.1955,-200.2313C88.4943,-215.7549 117.3163,-239.547 146,-254 149.7256,-255.8773 153.6224,-257.6317 157.6077,-259.2677"/>
<polygon fill="#191970" stroke="#191970" points="156.4381,-262.5676 167.0286,-262.872 158.9395,-256.0297 156.4381,-262.5676"/>
</g>
<!-- Node4 -->
<g id="node5" class="node">
<title>Node4</title>
<g id="a_node5"><a xlink:href="namespacercf__h__int__ctl__mod.xhtml#a709b565aef275fcaa18c332aafd88b0b" target="_top" xlink:title="Subroutine rcf_h_int_ctl &#45; controls horizontal interpolation. ">
<polygon fill="#ffffff" stroke="#000000" points="173.5,-214 173.5,-244 282.5,-244 282.5,-214 173.5,-214"/>
<text text-anchor="start" x="181.5" y="-232" font-family="Helvetica,sans-Serif" font-size="10.00" fill="#000000">rcf_h_int_ctl_mod::</text>
<text text-anchor="middle" x="228" y="-221" font-family="Helvetica,sans-Serif" font-size="10.00" fill="#000000">rcf_h_int_ctl</text>
</a>
</g>
</g>
<!-- Node0&#45;&gt;Node4 -->
<g id="edge4" class="edge">
<title>Node0&#45;&gt;Node4</title>
<path fill="none" stroke="#191970" d="M110.2139,-199.0428C127.0771,-203.3317 145.7736,-208.0869 163.2116,-212.522"/>
<polygon fill="#191970" stroke="#191970" points="162.7558,-216.0175 173.31,-215.0904 164.4812,-209.2334 162.7558,-216.0175"/>
</g>
<!-- Node9 -->
<g id="node10" class="node">
<title>Node9</title>
<g id="a_node10"><a xlink:href="namespaceumprintmgr.xhtml#aae44897e556705dbf5e945a26538be9a" target="_top" xlink:title="umprintmgr::umprint">
<polygon fill="#ffffff" stroke="#000000" points="350.5,-91.5 350.5,-110.5 469.5,-110.5 469.5,-91.5 350.5,-91.5"/>
<text text-anchor="middle" x="410" y="-98.5" font-family="Helvetica,sans-Serif" font-size="10.00" fill="#000000">umprintmgr::umprint</text>
</a>
</g>
</g>
<!-- Node0&#45;&gt;Node9 -->
<g id="edge9" class="edge">
<title>Node0&#45;&gt;Node9</title>
<path fill="none" stroke="#191970" d="M110.0301,-188.661C162.7546,-190.3849 243.8539,-188.3153 310,-166 341.306,-155.4385 372.4357,-132.7908 391.4467,-117.2264"/>
<polygon fill="#191970" stroke="#191970" points="393.8793,-119.754 399.2858,-110.6425 389.3773,-114.3938 393.8793,-119.754"/>
</g>
<!-- Node13 -->
<g id="node14" class="node">
<title>Node13</title>
<g id="a_node14"><a xlink:href="namespacercf__scatter__zonal__field__mod.xhtml#aa88e1d8e831b3e772734ef53f13321cb" target="_top" xlink:title="Subroutine Rcf_Scatter_Zonal &#45; scatters a zonal field. ">
<polygon fill="#ffffff" stroke="#000000" points="148.5,-126 148.5,-156 307.5,-156 307.5,-126 148.5,-126"/>
<text text-anchor="start" x="156.5" y="-144" font-family="Helvetica,sans-Serif" font-size="10.00" fill="#000000">rcf_scatter_zonal_field</text>
<text text-anchor="middle" x="228" y="-133" font-family="Helvetica,sans-Serif" font-size="10.00" fill="#000000">_mod::rcf_scatter_zonal_field</text>
</a>
</g>
</g>
<!-- Node0&#45;&gt;Node13 -->
<g id="edge14" class="edge">
<title>Node0&#45;&gt;Node13</title>
<path fill="none" stroke="#191970" d="M110.2139,-170.9572C125.6911,-167.0208 142.7128,-162.6916 158.8882,-158.5776"/>
<polygon fill="#191970" stroke="#191970" points="160.0003,-161.9062 168.829,-156.0493 158.2748,-155.1222 160.0003,-161.9062"/>
</g>
<!-- Node14 -->
<g id="node15" class="node">
<title>Node14</title>
<g id="a_node15"><a xlink:href="namespacercf__gather__zonal__field__mod.xhtml#afaf94837c9c73bbf14c892eee2296c86" target="_top" xlink:title="Subroutine Rcf_GAther_Zonal_Field &#45; Gathers a field onto 1 pe. ">
<polygon fill="#ffffff" stroke="#000000" points="149.5,-77 149.5,-107 306.5,-107 306.5,-77 149.5,-77"/>
<text text-anchor="start" x="157.5" y="-95" font-family="Helvetica,sans-Serif" font-size="10.00" fill="#000000">rcf_gather_zonal_field</text>
<text text-anchor="middle" x="228" y="-84" font-family="Helvetica,sans-Serif" font-size="10.00" fill="#000000">_mod::rcf_gather_zonal_field</text>
</a>
</g>
</g>
<!-- Node0&#45;&gt;Node14 -->
<g id="edge15" class="edge">
<title>Node0&#45;&gt;Node14</title>
<path fill="none" stroke="#191970" d="M71.5915,-169.7845C88.9838,-154.544 117.6734,-131.3474 146,-117 150.5308,-114.7051 155.3108,-112.5779 160.1929,-110.6143"/>
<polygon fill="#191970" stroke="#191970" points="161.5484,-113.8438 169.669,-107.0389 159.0773,-107.2945 161.5484,-113.8438"/>
</g>
<!-- Node15 -->
<g id="node16" class="node">
<title>Node15</title>
<g id="a_node16"><a xlink:href="intf__coast__aj_8f90.xhtml#ab979a05157bbf92e3f59463a09c13e22" target="_top" xlink:title="LL Routine: INTF_COAST_AJ. ">
<polygon fill="#ffffff" stroke="#000000" points="188.5,-.5 188.5,-19.5 267.5,-19.5 267.5,-.5 188.5,-.5"/>
<text text-anchor="middle" x="228" y="-7.5" font-family="Helvetica,sans-Serif" font-size="10.00" fill="#000000">intf_coast_aj</text>
</a>
</g>
</g>
<!-- Node0&#45;&gt;Node15 -->
<g id="edge16" class="edge">
<title>Node0&#45;&gt;Node15</title>
<path fill="none" stroke="#191970" d="M59.3498,-169.8012C69.1938,-138.2731 96.2796,-65.6498 146,-29 155.3708,-22.0926 166.8502,-17.6443 178.2183,-14.7934"/>
<polygon fill="#191970" stroke="#191970" points="179.0757,-18.1893 188.1241,-12.6778 177.6136,-11.3437 179.0757,-18.1893"/>
</g>
<!-- Node17 -->
<g id="node18" class="node">
<title>Node17</title>
<g id="a_node18"><a xlink:href="timer-timer1a_8f90.xhtml#a9ec0272078965f809aa1a1cbc6a05ea4" target="_top" xlink:title="timer">
<polygon fill="#ffffff" stroke="#000000" points="206.5,-38.5 206.5,-57.5 249.5,-57.5 249.5,-38.5 206.5,-38.5"/>
<text text-anchor="middle" x="228" y="-45.5" font-family="Helvetica,sans-Serif" font-size="10.00" fill="#000000">timer</text>
</a>
</g>
</g>
<!-- Node0&#45;&gt;Node17 -->
<g id="edge18" class="edge">
<title>Node0&#45;&gt;Node17</title>
<path fill="none" stroke="#191970" d="M62.465,-169.7818C75.6678,-144.5255 105.604,-94.1493 146,-68 160.9343,-58.3327 180.146,-53.3365 196.2191,-50.7553"/>
<polygon fill="#191970" stroke="#191970" points="196.8184,-54.206 206.2518,-49.3829 195.8697,-47.2706 196.8184,-54.206"/>
</g>
<!-- Node5 -->
<g id="node6" class="node">
<title>Node5</title>
<g id="a_node6"><a xlink:href="namespacercf__h__int__nearest__mod.xhtml#abe182c7ff5ab6e6e4ffbae8ec0976aa4" target="_top" xlink:title="Subroutine Rcf_H_Int_Nearest_Mod &#45; controls horizontal interpolation. ">
<polygon fill="#ffffff" stroke="#000000" points="346,-258 346,-288 474,-288 474,-258 346,-258"/>
<text text-anchor="start" x="354" y="-276" font-family="Helvetica,sans-Serif" font-size="10.00" fill="#000000">rcf_h_int_nearest_mod</text>
<text text-anchor="middle" x="410" y="-265" font-family="Helvetica,sans-Serif" font-size="10.00" fill="#000000">::rcf_h_int_nearest</text>
</a>
</g>
</g>
<!-- Node4&#45;&gt;Node5 -->
<g id="edge5" class="edge">
<title>Node4&#45;&gt;Node5</title>
<path fill="none" stroke="#191970" d="M282.606,-242.2015C300.0018,-246.407 319.5221,-251.1262 337.9563,-255.5828"/>
<polygon fill="#191970" stroke="#191970" points="337.2292,-259.0078 347.7716,-257.9558 338.8741,-252.2038 337.2292,-259.0078"/>
</g>
<!-- Node6 -->
<g id="node7" class="node">
<title>Node6</title>
<g id="a_node7"><a xlink:href="namespaceh__int__bl__mod.xhtml#adf8cb719e8bd50352db1491891b642d7" target="_top" xlink:title="h_int_bl_mod::h_int_bl">
<polygon fill="#ffffff" stroke="#000000" points="347,-219.5 347,-238.5 473,-238.5 473,-219.5 347,-219.5"/>
<text text-anchor="middle" x="410" y="-226.5" font-family="Helvetica,sans-Serif" font-size="10.00" fill="#000000">h_int_bl_mod::h_int_bl</text>
</a>
</g>
</g>
<!-- Node4&#45;&gt;Node6 -->
<g id="edge6" class="edge">
<title>Node4&#45;&gt;Node6</title>
<path fill="none" stroke="#191970" d="M282.606,-229C299.5777,-229 318.5715,-229 336.6061,-229"/>
<polygon fill="#191970" stroke="#191970" points="336.7982,-232.5001 346.7982,-229 336.7982,-225.5001 336.7982,-232.5001"/>
</g>
<!-- Node7 -->
<g id="node8" class="node">
<title>Node7</title>
<g id="a_node8"><a xlink:href="h__int__aw_8f90.xhtml#acadad964d5e6e8781ba12d8ca815a336" target="_top" xlink:title="Performs Area weighted horizitontal interpolation. ">
<polygon fill="#ffffff" stroke="#000000" points="380,-181.5 380,-200.5 440,-200.5 440,-181.5 380,-181.5"/>
<text text-anchor="middle" x="410" y="-188.5" font-family="Helvetica,sans-Serif" font-size="10.00" fill="#000000">h_int_aw</text>
</a>
</g>
</g>
<!-- Node4&#45;&gt;Node7 -->
<g id="edge7" class="edge">
<title>Node4&#45;&gt;Node7</title>
<path fill="none" stroke="#191970" d="M282.606,-217.5987C310.582,-211.7576 344.0524,-204.7693 369.664,-199.4218"/>
<polygon fill="#191970" stroke="#191970" points="370.6941,-202.7823 379.7677,-197.3122 369.2634,-195.93 370.6941,-202.7823"/>
</g>
<!-- Node8 -->
<g id="node9" class="node">
<title>Node8</title>
<g id="a_node9"><a xlink:href="box__sum_8f90.xhtml#a308ad95107e923982ad73a9db2e094c5" target="_top" xlink:title="SUBROUTINE BOX_SUM. ">
<polygon fill="#ffffff" stroke="#000000" points="568,-181.5 568,-200.5 629,-200.5 629,-181.5 568,-181.5"/>
<text text-anchor="middle" x="598.5" y="-188.5" font-family="Helvetica,sans-Serif" font-size="10.00" fill="#000000">box_sum</text>
</a>
</g>
</g>
<!-- Node7&#45;&gt;Node8 -->
<g id="edge8" class="edge">
<title>Node7&#45;&gt;Node8</title>
<path fill="none" stroke="#191970" d="M440.2858,-191C472.0699,-191 522.2297,-191 557.534,-191"/>
<polygon fill="#191970" stroke="#191970" points="557.9769,-194.5001 567.9769,-191 557.9768,-187.5001 557.9769,-194.5001"/>
</g>
<!-- Node10 -->
<g id="node11" class="node">
<title>Node10</title>
<g id="a_node11"><a xlink:href="namespaceumprintmgr.xhtml#a088ce22a18d574e9df7ee1850bfb10c7" target="_top" xlink:title="umprintmgr::umprintopenstream">
<polygon fill="#ffffff" stroke="#000000" points="510,-91.5 510,-110.5 687,-110.5 687,-91.5 510,-91.5"/>
<text text-anchor="middle" x="598.5" y="-98.5" font-family="Helvetica,sans-Serif" font-size="10.00" fill="#000000">umprintmgr::umprintopenstream</text>
</a>
</g>
</g>
<!-- Node9&#45;&gt;Node10 -->
<g id="edge10" class="edge">
<title>Node9&#45;&gt;Node10</title>
<path fill="none" stroke="#191970" d="M469.6426,-94.6719C479.2691,-94.4267 489.455,-94.2884 499.7128,-94.257"/>
<polygon fill="#191970" stroke="#191970" points="499.975,-97.757 509.9764,-94.2611 499.9779,-90.757 499.975,-97.757"/>
</g>
<!-- Node11 -->
<g id="node12" class="node">
<title>Node11</title>
<g id="a_node12"><a xlink:href="namespaceumprintmgr.xhtml#ad3a290b30a6e25500eabc0bf90330b77" target="_top" xlink:title="umprintmgr::umprintflush">
<polygon fill="#ffffff" stroke="#000000" points="527.5,-53.5 527.5,-72.5 669.5,-72.5 669.5,-53.5 527.5,-53.5"/>
<text text-anchor="middle" x="598.5" y="-60.5" font-family="Helvetica,sans-Serif" font-size="10.00" fill="#000000">umprintmgr::umprintflush</text>
</a>
</g>
</g>
<!-- Node9&#45;&gt;Node11 -->
<g id="edge12" class="edge">
<title>Node9&#45;&gt;Node11</title>
<path fill="none" stroke="#191970" d="M457.5665,-91.411C483.0014,-86.2835 514.5046,-79.9328 541.2714,-74.5368"/>
<polygon fill="#191970" stroke="#191970" points="542.1644,-77.9273 551.2755,-72.5201 540.7811,-71.0653 542.1644,-77.9273"/>
</g>
<!-- Node10&#45;&gt;Node9 -->
<g id="edge11" class="edge">
<title>Node10&#45;&gt;Node9</title>
<path fill="none" stroke="#191970" d="M509.9764,-107.7389C499.8317,-107.7782 489.5983,-107.7129 479.7484,-107.543"/>
<polygon fill="#191970" stroke="#191970" points="479.7148,-104.0416 469.6426,-107.3281 479.5659,-111.0401 479.7148,-104.0416"/>
</g>
<!-- Node12 -->
<g id="node13" class="node">
<title>Node12</title>
<g id="a_node13"><a xlink:href="namespaceumflush__mod.xhtml#a3a003ab59990bdcb712b443dd5e0d1cd" target="_top" xlink:title="umflush_mod::umflush">
<polygon fill="#ffffff" stroke="#000000" points="723,-53.5 723,-72.5 851,-72.5 851,-53.5 723,-53.5"/>
<text text-anchor="middle" x="787" y="-60.5" font-family="Helvetica,sans-Serif" font-size="10.00" fill="#000000">umflush_mod::umflush</text>
</a>
</g>
</g>
<!-- Node11&#45;&gt;Node12 -->
<g id="edge13" class="edge">
<title>Node11&#45;&gt;Node12</title>
<path fill="none" stroke="#191970" d="M669.7638,-63C683.7742,-63 698.5063,-63 712.6162,-63"/>
<polygon fill="#191970" stroke="#191970" points="712.7612,-66.5001 722.7611,-63 712.7611,-59.5001 712.7612,-66.5001"/>
</g>
<!-- Node16 -->
<g id="node17" class="node">
<title>Node16</title>
<g id="a_node17"><a xlink:href="spiral__s_8f90.xhtml#a6131b6e19c15953370d12ec2edef989b" target="_top" xlink:title="LL SUBROUTINE SPIRAL_S&#45;!&gt;LL. ">
<polygon fill="#ffffff" stroke="#000000" points="383,-.5 383,-19.5 437,-19.5 437,-.5 383,-.5"/>
<text text-anchor="middle" x="410" y="-7.5" font-family="Helvetica,sans-Serif" font-size="10.00" fill="#000000">spiral_s</text>
</a>
</g>
</g>
<!-- Node15&#45;&gt;Node16 -->
<g id="edge17" class="edge">
<title>Node15&#45;&gt;Node16</title>
<path fill="none" stroke="#191970" d="M267.9407,-10C299.1101,-10 342.0961,-10 372.5986,-10"/>
<polygon fill="#191970" stroke="#191970" points="372.8273,-13.5001 382.8273,-10 372.8273,-6.5001 372.8273,-13.5001"/>
</g>
<!-- Node17&#45;&gt;Node9 -->
<g id="edge19" class="edge">
<title>Node17&#45;&gt;Node9</title>
<path fill="none" stroke="#191970" d="M249.7045,-52.7981C266.3053,-56.5874 289.7149,-62.1891 310,-68 331.1547,-74.06 354.5235,-81.7168 373.3476,-88.1291"/>
<polygon fill="#191970" stroke="#191970" points="372.4227,-91.512 383.0174,-91.4493 374.696,-84.8914 372.4227,-91.512"/>
</g>
</g>
</svg>
        <g id="navigator" transform="translate(0 0)" fill="#404254">
                <rect fill="#f2f5e9" fill-opacity="0.5" stroke="#606060" stroke-width=".5" x="0" y="0" width="60" height="60"/>
                <use id="zoomplus" xlink:href="#zoomPlus" x="17" y="9" onmousedown="handleZoom(evt,'in')"/>
                <use id="zoomminus" xlink:href="#zoomMin" x="42" y="9" onmousedown="handleZoom(evt,'out')"/>
                <use id="reset" xlink:href="#resetDef" x="30" y="36" onmousedown="handleReset()"/>
                <g id="arrowUp" xlink:href="#dirArrow" transform="translate(30 24)" onmousedown="handlePan(0,-1)">
                  <use xlink:href="#rim" fill="#404040">
                        <set attributeName="fill" to="#808080" begin="arrowUp.mouseover" end="arrowUp.mouseout"/>
                  </use>
                  <path fill="none" stroke="white" stroke-width="1.5" d="M0,-3.0v7 M-2.5,-0.5L0,-3.0L2.5,-0.5"/>
                </g>
                <g id="arrowRight" xlink:href="#dirArrow" transform="rotate(90) translate(36 -43)" onmousedown="handlePan(1,0)">
                  <use xlink:href="#rim" fill="#404040">
                        <set attributeName="fill" to="#808080" begin="arrowRight.mouseover" end="arrowRight.mouseout"/>
                  </use>
                  <path fill="none" stroke="white" stroke-width="1.5" d="M0,-3.0v7 M-2.5,-0.5L0,-3.0L2.5,-0.5"/>
                </g>
                <g id="arrowDown" xlink:href="#dirArrow" transform="rotate(180) translate(-30 -48)" onmousedown="handlePan(0,1)">
                  <use xlink:href="#rim" fill="#404040">
                        <set attributeName="fill" to="#808080" begin="arrowDown.mouseover" end="arrowDown.mouseout"/>
                  </use>
                  <path fill="none" stroke="white" stroke-width="1.5" d="M0,-3.0v7 M-2.5,-0.5L0,-3.0L2.5,-0.5"/>
                </g>
                <g id="arrowLeft" xlink:href="#dirArrow" transform="rotate(270) translate(-36 17)" onmousedown="handlePan(-1,0)">
                  <use xlink:href="#rim" fill="#404040">
                        <set attributeName="fill" to="#808080" begin="arrowLeft.mouseover" end="arrowLeft.mouseout"/>
                  </use>
                  <path fill="none" stroke="white" stroke-width="1.5" d="M0,-3.0v7 M-2.5,-0.5L0,-3.0L2.5,-0.5"/>
                </g>
        </g>
        <svg viewBox="0 0 15 15" width="100%" height="30px" preserveAspectRatio="xMaxYMin meet">
         <g id="arrow_out" transform="scale(0.3 0.3)">
          <a xlink:href="namespacercf__horizontal__mod_a5311717b7abac5568a5d4ba755de7725_cgraph_org.svg" target="_base">
           <rect id="button" ry="5" rx="5" y="6" x="6" height="38" width="38"
                fill="#f2f5e9" fill-opacity="0.5" stroke="#606060" stroke-width="1.0"/>
           <path id="arrow"
             d="M 11.500037,31.436501 C 11.940474,20.09759 22.043105,11.32322 32.158766,21.979434 L 37.068811,17.246167 C 37.068811,17.246167 37.088388,32 37.088388,32 L 22.160133,31.978069 C 22.160133,31.978069 26.997745,27.140456 26.997745,27.140456 C 18.528582,18.264221 13.291696,25.230495 11.500037,31.436501 z"
             style="fill:#404040;"/>
          </a>
         </g>
        </svg>
</svg>
