<?xml version="1.0" encoding="UTF-8" standalone="no"?>
<!DOCTYPE svg PUBLIC "-//W3C//DTD SVG 1.1//EN"
 "http://www.w3.org/Graphics/SVG/1.1/DTD/svg11.dtd">
<!-- Generated by graphviz version 2.40.1 (20161225.0304)
 -->
<!-- Title: rcf_grib_spcl_lsm_mod::rcf_grib_spcl_lsm Pages: 1 -->
<svg width="696pt" height="39pt"
 viewBox="0.00 0.00 696.00 39.00" xmlns="http://www.w3.org/2000/svg" xmlns:xlink="http://www.w3.org/1999/xlink">
<g id="graph0" class="graph" transform="scale(1 1) rotate(0) translate(4 35)">
<title>rcf_grib_spcl_lsm_mod::rcf_grib_spcl_lsm</title>
<polygon fill="#ffffff" stroke="transparent" points="-4,4 -4,-35 692,-35 692,4 -4,4"/>
<!-- Node5 -->
<g id="node1" class="node">
<title>Node5</title>
<polygon fill="#bfbfbf" stroke="#000000" points="0,-.5 0,-30.5 128,-30.5 128,-.5 0,-.5"/>
<text text-anchor="start" x="8" y="-18.5" font-family="Helvetica,sans-Serif" font-size="10.00" fill="#000000">rcf_grib_spcl_lsm_mod</text>
<text text-anchor="middle" x="64" y="-7.5" font-family="Helvetica,sans-Serif" font-size="10.00" fill="#000000">::rcf_grib_spcl_lsm</text>
</g>
<!-- Node6 -->
<g id="node2" class="node">
<title>Node6</title>
<g id="a_node2"><a xlink:href="namespacercf__grib__spcl__ctl__mod.xhtml#a89175e414666bc7a9a703d4b1ecd602e" target="_top" xlink:title="SUBROUTINE Rcf_Grib_Spcl_Ctl. ">
<polygon fill="#ffffff" stroke="#000000" points="164,-.5 164,-30.5 286,-30.5 286,-.5 164,-.5"/>
<text text-anchor="start" x="172" y="-18.5" font-family="Helvetica,sans-Serif" font-size="10.00" fill="#000000">rcf_grib_spcl_ctl_mod</text>
<text text-anchor="middle" x="225" y="-7.5" font-family="Helvetica,sans-Serif" font-size="10.00" fill="#000000">::rcf_grib_spcl_ctl</text>
</a>
</g>
</g>
<!-- Node5&#45;&gt;Node6 -->
<g id="edge1" class="edge">
<title>Node5&#45;&gt;Node6</title>
<path fill="none" stroke="#191970" d="M138.1006,-15.5C146.683,-15.5 155.363,-15.5 163.7471,-15.5"/>
<polygon fill="#191970" stroke="#191970" points="138.0941,-12.0001 128.0941,-15.5 138.094,-19.0001 138.0941,-12.0001"/>
</g>
<!-- Node7 -->
<g id="node3" class="node">
<title>Node7</title>
<g id="a_node3"><a xlink:href="namespacercf__grib__control__mod.xhtml#ac6174bbd64f507e15341873465221613" target="_top" xlink:title="SUBROUTINE Rcf_Grib_Control. ">
<polygon fill="#ffffff" stroke="#000000" points="322,-.5 322,-30.5 441,-30.5 441,-.5 322,-.5"/>
<text text-anchor="start" x="330" y="-18.5" font-family="Helvetica,sans-Serif" font-size="10.00" fill="#000000">rcf_grib_control_mod</text>
<text text-anchor="middle" x="381.5" y="-7.5" font-family="Helvetica,sans-Serif" font-size="10.00" fill="#000000">::rcf_grib_control</text>
</a>
</g>
</g>
<!-- Node6&#45;&gt;Node7 -->
<g id="edge2" class="edge">
<title>Node6&#45;&gt;Node7</title>
<path fill="none" stroke="#191970" d="M296.6076,-15.5C305.0368,-15.5 313.5696,-15.5 321.8108,-15.5"/>
<polygon fill="#191970" stroke="#191970" points="296.4038,-12.0001 286.4038,-15.5 296.4037,-19.0001 296.4038,-12.0001"/>
</g>
<!-- Node8 -->
<g id="node4" class="node">
<title>Node8</title>
<g id="a_node4"><a xlink:href="namespacercf__initialise__mod.xhtml#ab7086bd455bd5857b757207d0255c3f4" target="_top" xlink:title="Subroutine Rcf_Initialise &#45; initialisation tasks. ">
<polygon fill="#ffffff" stroke="#000000" points="477,-.5 477,-30.5 581,-30.5 581,-.5 477,-.5"/>
<text text-anchor="start" x="485" y="-18.5" font-family="Helvetica,sans-Serif" font-size="10.00" fill="#000000">rcf_initialise_mod</text>
<text text-anchor="middle" x="529" y="-7.5" font-family="Helvetica,sans-Serif" font-size="10.00" fill="#000000">::rcf_initialise</text>
</a>
</g>
</g>
<!-- Node7&#45;&gt;Node8 -->
<g id="edge3" class="edge">
<title>Node7&#45;&gt;Node8</title>
<path fill="none" stroke="#191970" d="M451.1447,-15.5C459.7816,-15.5 468.4939,-15.5 476.8057,-15.5"/>
<polygon fill="#191970" stroke="#191970" points="451.0688,-12.0001 441.0687,-15.5 451.0687,-19.0001 451.0688,-12.0001"/>
</g>
<!-- Node9 -->
<g id="node5" class="node">
<title>Node9</title>
<g id="a_node5"><a xlink:href="reconfigure_8f90.xhtml#a55389899cfceedbb4b0f908c73988c0c" target="_top" xlink:title="Top level program for reconfiguration. ">
<polygon fill="#ffffff" stroke="#000000" points="617,-6 617,-25 688,-25 688,-6 617,-6"/>
<text text-anchor="middle" x="652.5" y="-13" font-family="Helvetica,sans-Serif" font-size="10.00" fill="#000000">reconfigure</text>
</a>
</g>
</g>
<!-- Node8&#45;&gt;Node9 -->
<g id="edge4" class="edge">
<title>Node8&#45;&gt;Node9</title>
<path fill="none" stroke="#191970" d="M591.2179,-15.5C599.938,-15.5 608.6456,-15.5 616.6452,-15.5"/>
<polygon fill="#191970" stroke="#191970" points="591.0172,-12.0001 581.0172,-15.5 591.0171,-19.0001 591.0172,-12.0001"/>
</g>
</g>
</svg>
