<?xml version="1.0" encoding="UTF-8" standalone="no"?>
<!DOCTYPE svg PUBLIC "-//W3C//DTD SVG 1.1//EN"
 "http://www.w3.org/Graphics/SVG/1.1/DTD/svg11.dtd">
<!-- Generated by graphviz version 2.40.1 (20161225.0304)
 -->
<!-- Title: rcf_global_to_local_mod::rcf_global_to_local_subdomain Pages: 1 -->
<svg width="694pt" height="50pt"
 viewBox="0.00 0.00 694.00 50.00" xmlns="http://www.w3.org/2000/svg" xmlns:xlink="http://www.w3.org/1999/xlink">
<g id="graph0" class="graph" transform="scale(1 1) rotate(0) translate(4 46)">
<title>rcf_global_to_local_mod::rcf_global_to_local_subdomain</title>
<polygon fill="#ffffff" stroke="transparent" points="-4,4 -4,-46 690,-46 690,4 -4,4"/>
<!-- Node120 -->
<g id="node1" class="node">
<title>Node120</title>
<polygon fill="#bfbfbf" stroke="#000000" points="0,-.5 0,-41.5 113,-41.5 113,-.5 0,-.5"/>
<text text-anchor="start" x="8" y="-29.5" font-family="Helvetica,sans-Serif" font-size="10.00" fill="#000000">rcf_global_to_local</text>
<text text-anchor="start" x="8" y="-18.5" font-family="Helvetica,sans-Serif" font-size="10.00" fill="#000000">_mod::rcf_global_to</text>
<text text-anchor="middle" x="56.5" y="-7.5" font-family="Helvetica,sans-Serif" font-size="10.00" fill="#000000">_local_subdomain</text>
</g>
<!-- Node121 -->
<g id="node2" class="node">
<title>Node121</title>
<g id="a_node2"><a xlink:href="namespacercf__aux__file__mod.xhtml#ab7550f624f6519921a65463ab44e11bd" target="_top" xlink:title="rcf_aux_file_mod::rcf\l_aux_file">
<polygon fill="#ffffff" stroke="#000000" points="149,-6 149,-36 268,-36 268,-6 149,-6"/>
<text text-anchor="start" x="157" y="-24" font-family="Helvetica,sans-Serif" font-size="10.00" fill="#000000">rcf_aux_file_mod::rcf</text>
<text text-anchor="middle" x="208.5" y="-13" font-family="Helvetica,sans-Serif" font-size="10.00" fill="#000000">_aux_file</text>
</a>
</g>
</g>
<!-- Node120&#45;&gt;Node121 -->
<g id="edge1" class="edge">
<title>Node120&#45;&gt;Node121</title>
<path fill="none" stroke="#191970" d="M123.3346,-21C131.8123,-21 140.4443,-21 148.8005,-21"/>
<polygon fill="#191970" stroke="#191970" points="123.0992,-17.5001 113.0992,-21 123.0992,-24.5001 123.0992,-17.5001"/>
</g>
<!-- Node122 -->
<g id="node3" class="node">
<title>Node122</title>
<g id="a_node3"><a xlink:href="namespacercf__create__dump__mod.xhtml#a2f1f869ea648718c07cc083ce73c40c9" target="_top" xlink:title="Subroutine Rcf_Create_Dump &#45; main dump creation loop. ">
<polygon fill="#ffffff" stroke="#000000" points="304,-6 304,-36 429,-36 429,-6 304,-6"/>
<text text-anchor="start" x="312" y="-24" font-family="Helvetica,sans-Serif" font-size="10.00" fill="#000000">rcf_create_dump_mod</text>
<text text-anchor="middle" x="366.5" y="-13" font-family="Helvetica,sans-Serif" font-size="10.00" fill="#000000">::rcf_create_dump</text>
</a>
</g>
</g>
<!-- Node121&#45;&gt;Node122 -->
<g id="edge2" class="edge">
<title>Node121&#45;&gt;Node122</title>
<path fill="none" stroke="#191970" d="M278.4342,-21C286.8758,-21 295.4574,-21 303.7865,-21"/>
<polygon fill="#191970" stroke="#191970" points="278.2331,-17.5001 268.233,-21 278.233,-24.5001 278.2331,-17.5001"/>
</g>
<!-- Node123 -->
<g id="node4" class="node">
<title>Node123</title>
<g id="a_node4"><a xlink:href="namespacercf__control__mod.xhtml#a3ac6d1c6311ded848ddd750726da301a" target="_top" xlink:title="Subroutine Rcf_Control &#45; main control routine. ">
<polygon fill="#ffffff" stroke="#000000" points="465,-6 465,-36 579,-36 579,-6 465,-6"/>
<text text-anchor="start" x="473" y="-24" font-family="Helvetica,sans-Serif" font-size="10.00" fill="#000000">rcf_control_mod::rcf</text>
<text text-anchor="middle" x="522" y="-13" font-family="Helvetica,sans-Serif" font-size="10.00" fill="#000000">_control</text>
</a>
</g>
</g>
<!-- Node122&#45;&gt;Node123 -->
<g id="edge3" class="edge">
<title>Node122&#45;&gt;Node123</title>
<path fill="none" stroke="#191970" d="M439.3443,-21C447.9541,-21 456.6445,-21 464.9908,-21"/>
<polygon fill="#191970" stroke="#191970" points="439.2996,-17.5001 429.2996,-21 439.2995,-24.5001 439.2996,-17.5001"/>
</g>
<!-- Node124 -->
<g id="node5" class="node">
<title>Node124</title>
<g id="a_node5"><a xlink:href="reconfigure_8f90.xhtml#a55389899cfceedbb4b0f908c73988c0c" target="_top" xlink:title="Top level program for reconfiguration. ">
<polygon fill="#ffffff" stroke="#000000" points="615,-11.5 615,-30.5 686,-30.5 686,-11.5 615,-11.5"/>
<text text-anchor="middle" x="650.5" y="-18.5" font-family="Helvetica,sans-Serif" font-size="10.00" fill="#000000">reconfigure</text>
</a>
</g>
</g>
<!-- Node123&#45;&gt;Node124 -->
<g id="edge4" class="edge">
<title>Node123&#45;&gt;Node124</title>
<path fill="none" stroke="#191970" d="M589.159,-21C598.0636,-21 606.8936,-21 614.9628,-21"/>
<polygon fill="#191970" stroke="#191970" points="589.1103,-17.5001 579.1103,-21 589.1103,-24.5001 589.1103,-17.5001"/>
</g>
</g>
</svg>
