<?xml version="1.0" encoding="UTF-8" standalone="no"?>
<!DOCTYPE svg PUBLIC "-//W3C//DTD SVG 1.1//EN"
 "http://www.w3.org/Graphics/SVG/1.1/DTD/svg11.dtd">
<!-- Generated by graphviz version 2.40.1 (20161225.0304)
 -->
<!-- Title: g_wave_4a_mod::g_wave_4a Pages: 1 -->
<svg width="486pt" height="337pt"
 viewBox="0.00 0.00 486.00 336.50" xmlns="http://www.w3.org/2000/svg" xmlns:xlink="http://www.w3.org/1999/xlink">
<g id="graph0" class="graph" transform="scale(1 1) rotate(0) translate(4 332.5)">
<title>g_wave_4a_mod::g_wave_4a</title>
<polygon fill="#ffffff" stroke="transparent" points="-4,4 -4,-332.5 482,-332.5 482,4 -4,4"/>
<!-- Node0 -->
<g id="node1" class="node">
<title>Node0</title>
<polygon fill="#bfbfbf" stroke="#000000" points="0,-155.5 0,-174.5 159,-174.5 159,-155.5 0,-155.5"/>
<text text-anchor="middle" x="79.5" y="-162.5" font-family="Helvetica,sans-Serif" font-size="10.00" fill="#000000">g_wave_4a_mod::g_wave_4a</text>
</g>
<!-- Node1 -->
<g id="node2" class="node">
<title>Node1</title>
<g id="a_node2"><a xlink:href="namespaceeg__v__at__poles__mod.xhtml#a2b4413ba994c589340c64169af4db7da" target="_top" xlink:title="eg_v_at_poles_mod::\leg_v_at_poles">
<polygon fill="#ffffff" stroke="#000000" points="198,-298 198,-328 317,-328 317,-298 198,-298"/>
<text text-anchor="start" x="206" y="-316" font-family="Helvetica,sans-Serif" font-size="10.00" fill="#000000">eg_v_at_poles_mod::</text>
<text text-anchor="middle" x="257.5" y="-305" font-family="Helvetica,sans-Serif" font-size="10.00" fill="#000000">eg_v_at_poles</text>
</a>
</g>
</g>
<!-- Node0&#45;&gt;Node1 -->
<g id="edge1" class="edge">
<title>Node0&#45;&gt;Node1</title>
<path fill="none" stroke="#191970" d="M86.2245,-174.6585C102.4657,-197.3499 146.1188,-254.6539 195,-288 197.8374,-289.9356 200.8471,-291.7563 203.9521,-293.463"/>
<polygon fill="#191970" stroke="#191970" points="202.3863,-296.5932 212.8912,-297.9714 205.5386,-290.3431 202.3863,-296.5932"/>
</g>
<!-- Node3 -->
<g id="node4" class="node">
<title>Node3</title>
<g id="a_node4"><a xlink:href="namespacep__to__u__mod.xhtml#aac0abba1ea8363a99e455694423eb597" target="_top" xlink:title="p_to_u_mod::p_to_u">
<polygon fill="#ffffff" stroke="#000000" points="200.5,-259.5 200.5,-278.5 314.5,-278.5 314.5,-259.5 200.5,-259.5"/>
<text text-anchor="middle" x="257.5" y="-266.5" font-family="Helvetica,sans-Serif" font-size="10.00" fill="#000000">p_to_u_mod::p_to_u</text>
</a>
</g>
</g>
<!-- Node0&#45;&gt;Node3 -->
<g id="edge3" class="edge">
<title>Node0&#45;&gt;Node3</title>
<path fill="none" stroke="#191970" d="M89.8357,-174.5344C109.1198,-191.8605 152.4914,-228.6855 195,-250 199.5098,-252.2613 204.3395,-254.3104 209.2417,-256.1528"/>
<polygon fill="#191970" stroke="#191970" points="208.0985,-259.4608 218.6933,-259.4425 210.3995,-252.8498 208.0985,-259.4608"/>
</g>
<!-- Node4 -->
<g id="node5" class="node">
<title>Node4</title>
<g id="a_node5"><a xlink:href="namespacep__to__v__mod.xhtml#a537c97fef8af9b8795a46407995b67d2" target="_top" xlink:title="p_to_v_mod::p_to_v">
<polygon fill="#ffffff" stroke="#000000" points="200.5,-221.5 200.5,-240.5 314.5,-240.5 314.5,-221.5 200.5,-221.5"/>
<text text-anchor="middle" x="257.5" y="-228.5" font-family="Helvetica,sans-Serif" font-size="10.00" fill="#000000">p_to_v_mod::p_to_v</text>
</a>
</g>
</g>
<!-- Node0&#45;&gt;Node4 -->
<g id="edge4" class="edge">
<title>Node0&#45;&gt;Node4</title>
<path fill="none" stroke="#191970" d="M101.4117,-174.6157C124.4738,-184.5705 161.946,-200.2781 195,-212 201.1026,-214.1642 207.5919,-216.3081 213.9918,-218.3331"/>
<polygon fill="#191970" stroke="#191970" points="213.319,-221.7887 223.9069,-221.4032 215.3896,-215.1019 213.319,-221.7887"/>
</g>
<!-- Node5 -->
<g id="node6" class="node">
<title>Node5</title>
<g id="a_node6"><a xlink:href="namespacepolar__row__mean__mod.xhtml#a493a5ab0e61d7ebbc129bc82f3e6d0ec" target="_top" xlink:title="polar_row_mean_mod\l::polar_row_mean">
<polygon fill="#ffffff" stroke="#000000" points="195,-172 195,-202 320,-202 320,-172 195,-172"/>
<text text-anchor="start" x="203" y="-190" font-family="Helvetica,sans-Serif" font-size="10.00" fill="#000000">polar_row_mean_mod</text>
<text text-anchor="middle" x="257.5" y="-179" font-family="Helvetica,sans-Serif" font-size="10.00" fill="#000000">::polar_row_mean</text>
</a>
</g>
</g>
<!-- Node0&#45;&gt;Node5 -->
<g id="edge5" class="edge">
<title>Node0&#45;&gt;Node5</title>
<path fill="none" stroke="#191970" d="M156.5381,-174.5216C165.9222,-175.6814 175.487,-176.8636 184.8049,-178.0152"/>
<polygon fill="#191970" stroke="#191970" points="184.4448,-181.4973 194.7986,-179.2504 185.3035,-174.5501 184.4448,-181.4973"/>
</g>
<!-- Node6 -->
<g id="node7" class="node">
<title>Node6</title>
<g id="a_node7"><a xlink:href="namespaceu__to__p__mod.xhtml#abec25da0a0e72ae2bd1efd5a110125fb" target="_top" xlink:title="u_to_p_mod::u_to_p">
<polygon fill="#ffffff" stroke="#000000" points="200.5,-133.5 200.5,-152.5 314.5,-152.5 314.5,-133.5 200.5,-133.5"/>
<text text-anchor="middle" x="257.5" y="-140.5" font-family="Helvetica,sans-Serif" font-size="10.00" fill="#000000">u_to_p_mod::u_to_p</text>
</a>
</g>
</g>
<!-- Node0&#45;&gt;Node6 -->
<g id="edge7" class="edge">
<title>Node0&#45;&gt;Node6</title>
<path fill="none" stroke="#191970" d="M156.5381,-155.4784C167.8322,-154.0825 179.388,-152.6543 190.4601,-151.2858"/>
<polygon fill="#191970" stroke="#191970" points="190.9759,-154.7488 200.4711,-150.0485 190.1172,-147.8017 190.9759,-154.7488"/>
</g>
<!-- Node7 -->
<g id="node8" class="node">
<title>Node7</title>
<g id="a_node8"><a xlink:href="namespacev__to__p__mod.xhtml#a071d83a5fb4aa87adbf487a6218a3037" target="_top" xlink:title="v_to_p_mod::v_to_p">
<polygon fill="#ffffff" stroke="#000000" points="200.5,-95.5 200.5,-114.5 314.5,-114.5 314.5,-95.5 200.5,-95.5"/>
<text text-anchor="middle" x="257.5" y="-102.5" font-family="Helvetica,sans-Serif" font-size="10.00" fill="#000000">v_to_p_mod::v_to_p</text>
</a>
</g>
</g>
<!-- Node0&#45;&gt;Node7 -->
<g id="edge8" class="edge">
<title>Node0&#45;&gt;Node7</title>
<path fill="none" stroke="#191970" d="M105.5292,-155.3745C128.8617,-146.8386 164.0781,-134.1825 195,-124 201.5137,-121.8551 208.4373,-119.6634 215.2138,-117.5666"/>
<polygon fill="#191970" stroke="#191970" points="216.4346,-120.8533 224.972,-114.5792 214.3854,-114.1599 216.4346,-120.8533"/>
</g>
<!-- Node8 -->
<g id="node9" class="node">
<title>Node8</title>
<g id="a_node9"><a xlink:href="gw__surf_8f90.xhtml#a823b1f4d282eb747c63da3ee45f926cc" target="_top" xlink:title="subroutine gw_surf to calculate surface stress vector for gwd. ">
<polygon fill="#ffffff" stroke="#000000" points="230,-57.5 230,-76.5 285,-76.5 285,-57.5 230,-57.5"/>
<text text-anchor="middle" x="257.5" y="-64.5" font-family="Helvetica,sans-Serif" font-size="10.00" fill="#000000">gw_surf</text>
</a>
</g>
</g>
<!-- Node0&#45;&gt;Node8 -->
<g id="edge9" class="edge">
<title>Node0&#45;&gt;Node8</title>
<path fill="none" stroke="#191970" d="M90.903,-155.4226C110.8358,-139.1046 153.8249,-105.7635 195,-86 202.8631,-82.2258 211.6424,-79.0046 220.0777,-76.3446"/>
<polygon fill="#191970" stroke="#191970" points="221.1526,-79.6766 229.7466,-73.4804 219.1643,-72.9649 221.1526,-79.6766"/>
</g>
<!-- Node9 -->
<g id="node10" class="node">
<title>Node9</title>
<g id="a_node10"><a xlink:href="gw__vert_8f90.xhtml#a483a19cb5f4699bd40350ee81fd36290" target="_top" xlink:title="subroutine gw_vert to calculate the vertical profile of gravity wave ">
<polygon fill="#ffffff" stroke="#000000" points="229.5,-19.5 229.5,-38.5 285.5,-38.5 285.5,-19.5 229.5,-19.5"/>
<text text-anchor="middle" x="257.5" y="-26.5" font-family="Helvetica,sans-Serif" font-size="10.00" fill="#000000">gw_vert</text>
</a>
</g>
</g>
<!-- Node0&#45;&gt;Node9 -->
<g id="edge10" class="edge">
<title>Node0&#45;&gt;Node9</title>
<path fill="none" stroke="#191970" d="M86.4033,-155.2273C102.6982,-132.8749 145.8957,-77.6677 195,-48 202.535,-43.4475 211.2469,-39.909 219.7292,-37.188"/>
<polygon fill="#191970" stroke="#191970" points="220.8662,-40.5025 229.497,-34.3576 218.918,-33.7791 220.8662,-40.5025"/>
</g>
<!-- Node2 -->
<g id="node3" class="node">
<title>Node2</title>
<g id="a_node3"><a xlink:href="namespaceglobal__2d__sums__mod.xhtml#ac3fe3c2679168085c4635a17e5f82215" target="_top" xlink:title="global_2d_sums_mod\l::global_2d_sums">
<polygon fill="#ffffff" stroke="#000000" points="356,-235 356,-265 478,-265 478,-235 356,-235"/>
<text text-anchor="start" x="364" y="-253" font-family="Helvetica,sans-Serif" font-size="10.00" fill="#000000">global_2d_sums_mod</text>
<text text-anchor="middle" x="417" y="-242" font-family="Helvetica,sans-Serif" font-size="10.00" fill="#000000">::global_2d_sums</text>
</a>
</g>
</g>
<!-- Node1&#45;&gt;Node2 -->
<g id="edge2" class="edge">
<title>Node1&#45;&gt;Node2</title>
<path fill="none" stroke="#191970" d="M295.7042,-297.9099C317.8176,-289.1755 345.8436,-278.1057 369.384,-268.8076"/>
<polygon fill="#191970" stroke="#191970" points="370.8164,-272.005 378.8314,-265.076 368.2448,-265.4944 370.8164,-272.005"/>
</g>
<!-- Node5&#45;&gt;Node2 -->
<g id="edge6" class="edge">
<title>Node5&#45;&gt;Node2</title>
<path fill="none" stroke="#191970" d="M295.7042,-202.0901C317.8176,-210.8245 345.8436,-221.8943 369.384,-231.1924"/>
<polygon fill="#191970" stroke="#191970" points="368.2448,-234.5056 378.8314,-234.924 370.8164,-227.995 368.2448,-234.5056"/>
</g>
<!-- Node10 -->
<g id="node11" class="node">
<title>Node10</title>
<g id="a_node11"><a xlink:href="gw__satn_8f90.xhtml#ab102164f730318c95fc44a749f378e65" target="_top" xlink:title="SUBROUTINE GW_SATN: Calculates stress profile for linear hydrostatic. ">
<polygon fill="#ffffff" stroke="#000000" points="388.5,-38.5 388.5,-57.5 445.5,-57.5 445.5,-38.5 388.5,-38.5"/>
<text text-anchor="middle" x="417" y="-45.5" font-family="Helvetica,sans-Serif" font-size="10.00" fill="#000000">gw_satn</text>
</a>
</g>
</g>
<!-- Node9&#45;&gt;Node10 -->
<g id="edge11" class="edge">
<title>Node9&#45;&gt;Node10</title>
<path fill="none" stroke="#191970" d="M285.6482,-32.3531C311.3754,-35.4178 349.6583,-39.9781 378.2662,-43.3859"/>
<polygon fill="#191970" stroke="#191970" points="377.9832,-46.8769 388.327,-44.5844 378.8113,-39.926 377.9832,-46.8769"/>
</g>
<!-- Node11 -->
<g id="node12" class="node">
<title>Node11</title>
<g id="a_node12"><a xlink:href="gw__wake_8f90.xhtml#a8ba67562a0ef6d5d49404df73d8c6c11" target="_top" xlink:title="subroutine gw_wake to deposit blocked flow stress uniformly ">
<polygon fill="#ffffff" stroke="#000000" points="386,-.5 386,-19.5 448,-19.5 448,-.5 386,-.5"/>
<text text-anchor="middle" x="417" y="-7.5" font-family="Helvetica,sans-Serif" font-size="10.00" fill="#000000">gw_wake</text>
</a>
</g>
</g>
<!-- Node9&#45;&gt;Node11 -->
<g id="edge12" class="edge">
<title>Node9&#45;&gt;Node11</title>
<path fill="none" stroke="#191970" d="M285.6482,-25.6469C310.6585,-22.6676 347.5347,-18.2749 375.8528,-14.9015"/>
<polygon fill="#191970" stroke="#191970" points="376.345,-18.3678 385.8607,-13.7094 375.5169,-11.4169 376.345,-18.3678"/>
</g>
</g>
</svg>
