<?xml version="1.0" encoding="UTF-8" standalone="no"?>
<!DOCTYPE svg PUBLIC "-//W3C//DTD SVG 1.1//EN"
 "http://www.w3.org/Graphics/SVG/1.1/DTD/svg11.dtd">
<!-- Generated by graphviz version 2.40.1 (20161225.0304)
 -->
<!-- Title: s_inobsfor::dealloc_inobsfor Pages: 1 -->
<svg width="620pt" height="39pt"
 viewBox="0.00 0.00 620.00 39.00" xmlns="http://www.w3.org/2000/svg" xmlns:xlink="http://www.w3.org/1999/xlink">
<g id="graph0" class="graph" transform="scale(1 1) rotate(0) translate(4 35)">
<title>s_inobsfor::dealloc_inobsfor</title>
<polygon fill="#ffffff" stroke="transparent" points="-4,4 -4,-35 616,-35 616,4 -4,4"/>
<!-- Node7 -->
<g id="node1" class="node">
<title>Node7</title>
<polygon fill="#bfbfbf" stroke="#000000" points="0,-.5 0,-30.5 108,-30.5 108,-.5 0,-.5"/>
<text text-anchor="start" x="8" y="-18.5" font-family="Helvetica,sans-Serif" font-size="10.00" fill="#000000">s_inobsfor::dealloc</text>
<text text-anchor="middle" x="54" y="-7.5" font-family="Helvetica,sans-Serif" font-size="10.00" fill="#000000">_inobsfor</text>
</g>
<!-- Node8 -->
<g id="node2" class="node">
<title>Node8</title>
<g id="a_node2"><a xlink:href="namespaces__inobsfor.xhtml#a4c524c7d2200eb214cdcc18ceaea184c" target="_top" xlink:title="s_inobsfor::read_inobsfor">
<polygon fill="#ffffff" stroke="#000000" points="144,-6 144,-25 284,-25 284,-6 144,-6"/>
<text text-anchor="middle" x="214" y="-13" font-family="Helvetica,sans-Serif" font-size="10.00" fill="#000000">s_inobsfor::read_inobsfor</text>
</a>
</g>
</g>
<!-- Node7&#45;&gt;Node8 -->
<g id="edge1" class="edge">
<title>Node7&#45;&gt;Node8</title>
<path fill="none" stroke="#191970" d="M118.2458,-15.5C126.6263,-15.5 135.2469,-15.5 143.7198,-15.5"/>
<polygon fill="#191970" stroke="#191970" points="118.1687,-12.0001 108.1687,-15.5 118.1687,-19.0001 118.1687,-12.0001"/>
</g>
<!-- Node9 -->
<g id="node3" class="node">
<title>Node9</title>
<g id="a_node3"><a xlink:href="read__scm__nml_8f90.xhtml#af3d01a68b9750a66d402c5c7312acdf2" target="_top" xlink:title="Reads in forcing file &#39;namelist.scm&#39; and passes data back to scm_main. ">
<polygon fill="#ffffff" stroke="#000000" points="320,-6 320,-25 408,-25 408,-6 320,-6"/>
<text text-anchor="middle" x="364" y="-13" font-family="Helvetica,sans-Serif" font-size="10.00" fill="#000000">read_scm_nml</text>
</a>
</g>
</g>
<!-- Node8&#45;&gt;Node9 -->
<g id="edge2" class="edge">
<title>Node8&#45;&gt;Node9</title>
<path fill="none" stroke="#191970" d="M294.1884,-15.5C303.0498,-15.5 311.8141,-15.5 319.9833,-15.5"/>
<polygon fill="#191970" stroke="#191970" points="294.169,-12.0001 284.169,-15.5 294.169,-19.0001 294.169,-12.0001"/>
</g>
<!-- Node10 -->
<g id="node4" class="node">
<title>Node10</title>
<g id="a_node4"><a xlink:href="scm__main_8f90.xhtml#a2c730136605550612e094ce51d33a2a5" target="_top" xlink:title="*********************************COPYRIGHT********************************* ">
<polygon fill="#ffffff" stroke="#000000" points="444,-6 444,-25 511,-25 511,-6 444,-6"/>
<text text-anchor="middle" x="477.5" y="-13" font-family="Helvetica,sans-Serif" font-size="10.00" fill="#000000">scm_main</text>
</a>
</g>
</g>
<!-- Node9&#45;&gt;Node10 -->
<g id="edge3" class="edge">
<title>Node9&#45;&gt;Node10</title>
<path fill="none" stroke="#191970" d="M418.3182,-15.5C427.0028,-15.5 435.7635,-15.5 443.7847,-15.5"/>
<polygon fill="#191970" stroke="#191970" points="418.2071,-12.0001 408.2071,-15.5 418.207,-19.0001 418.2071,-12.0001"/>
</g>
<!-- Node11 -->
<g id="node5" class="node">
<title>Node11</title>
<g id="a_node5"><a xlink:href="scm__shell_8f90.xhtml#ab15255829ee7b5be626b1c0861b40c8d" target="_top" xlink:title="scm_shell is the main calling program for the Single Column Model. ">
<polygon fill="#ffffff" stroke="#000000" points="547,-6 547,-25 612,-25 612,-6 547,-6"/>
<text text-anchor="middle" x="579.5" y="-13" font-family="Helvetica,sans-Serif" font-size="10.00" fill="#000000">scm_shell</text>
</a>
</g>
</g>
<!-- Node10&#45;&gt;Node11 -->
<g id="edge4" class="edge">
<title>Node10&#45;&gt;Node11</title>
<path fill="none" stroke="#191970" d="M521.4121,-15.5C529.9642,-15.5 538.7874,-15.5 546.8946,-15.5"/>
<polygon fill="#191970" stroke="#191970" points="521.1813,-12.0001 511.1813,-15.5 521.1813,-19.0001 521.1813,-12.0001"/>
</g>
</g>
</svg>
