<?xml version="1.0" encoding="UTF-8" standalone="no"?>
<!DOCTYPE svg PUBLIC "-//W3C//DTD SVG 1.1//EN"
 "http://www.w3.org/Graphics/SVG/1.1/DTD/svg11.dtd">
<!-- Generated by graphviz version 2.40.1 (20161225.0304)
 -->
<!-- Title: ios::ios_write64_r2d Pages: 1 -->
<svg width="1729pt" height="484pt"
 viewBox="0.00 0.00 1729.00 483.68" xmlns="http://www.w3.org/2000/svg" xmlns:xlink="http://www.w3.org/1999/xlink">
<g id="graph0" class="graph" transform="scale(1 1) rotate(0) translate(4 479.68)">
<title>ios::ios_write64_r2d</title>
<polygon fill="#ffffff" stroke="transparent" points="-4,4 -4,-479.68 1725,-479.68 1725,4 -4,4"/>
<!-- Node1490 -->
<g id="node1" class="node">
<title>Node1490</title>
<polygon fill="#bfbfbf" stroke="#000000" points="0,-266.18 0,-285.18 114,-285.18 114,-266.18 0,-266.18"/>
<text text-anchor="middle" x="57" y="-273.18" font-family="Helvetica,sans-Serif" font-size="10.00" fill="#000000">ios::ios_write64_r2d</text>
</g>
<!-- Node1491 -->
<g id="node2" class="node">
<title>Node1491</title>
<g id="a_node2"><a xlink:href="namespaceios__client__queue.xhtml#afe87459ebf2e7fc1b3915458ad63d06f" target="_top" xlink:title="ios_client_queue::ios\l_init_md">
<polygon fill="#ffffff" stroke="#000000" points="150,-260.68 150,-290.68 269,-290.68 269,-260.68 150,-260.68"/>
<text text-anchor="start" x="158" y="-278.68" font-family="Helvetica,sans-Serif" font-size="10.00" fill="#000000">ios_client_queue::ios</text>
<text text-anchor="middle" x="209.5" y="-267.68" font-family="Helvetica,sans-Serif" font-size="10.00" fill="#000000">_init_md</text>
</a>
</g>
</g>
<!-- Node1490&#45;&gt;Node1491 -->
<g id="edge1" class="edge">
<title>Node1490&#45;&gt;Node1491</title>
<path fill="none" stroke="#191970" d="M114.2192,-275.68C122.6022,-275.68 131.3131,-275.68 139.9101,-275.68"/>
<polygon fill="#191970" stroke="#191970" points="139.9236,-279.1801 149.9236,-275.68 139.9236,-272.1801 139.9236,-279.1801"/>
</g>
<!-- Node1507 -->
<g id="node18" class="node">
<title>Node1507</title>
<g id="a_node18"><a xlink:href="namespaceios__client__queue.xhtml#a6288f2c5e8ba14c7dba338d01f36d418" target="_top" xlink:title="ios_client_queue::ios\l_attach_sendbuffer">
<polygon fill="#ffffff" stroke="#000000" points="150,-203.68 150,-233.68 269,-233.68 269,-203.68 150,-203.68"/>
<text text-anchor="start" x="158" y="-221.68" font-family="Helvetica,sans-Serif" font-size="10.00" fill="#000000">ios_client_queue::ios</text>
<text text-anchor="middle" x="209.5" y="-210.68" font-family="Helvetica,sans-Serif" font-size="10.00" fill="#000000">_attach_sendbuffer</text>
</a>
</g>
</g>
<!-- Node1490&#45;&gt;Node1507 -->
<g id="edge31" class="edge">
<title>Node1490&#45;&gt;Node1507</title>
<path fill="none" stroke="#191970" d="M82.5251,-266.1395C103.5019,-258.299 133.8525,-246.9548 159.6207,-237.3235"/>
<polygon fill="#191970" stroke="#191970" points="161.1014,-240.5066 169.2431,-233.7269 158.6506,-233.9496 161.1014,-240.5066"/>
</g>
<!-- Node1508 -->
<g id="node19" class="node">
<title>Node1508</title>
<g id="a_node19"><a xlink:href="namespaceios__client__queue.xhtml#ad45a47e6cd283c6c4b4e7a3a45dd37a6" target="_top" xlink:title="ios_client_queue::ios_send">
<polygon fill="#ffffff" stroke="#000000" points="471,-428.18 471,-447.18 618,-447.18 618,-428.18 471,-428.18"/>
<text text-anchor="middle" x="544.5" y="-435.18" font-family="Helvetica,sans-Serif" font-size="10.00" fill="#000000">ios_client_queue::ios_send</text>
</a>
</g>
</g>
<!-- Node1490&#45;&gt;Node1508 -->
<g id="edge33" class="edge">
<title>Node1490&#45;&gt;Node1508</title>
<path fill="none" stroke="#191970" d="M74.1743,-285.2891C113.6977,-307.0145 214.6451,-360.3044 305,-389.68 357.1312,-406.6286 417.6804,-418.6995 464.8547,-426.4972"/>
<polygon fill="#191970" stroke="#191970" points="464.5829,-429.9988 475.0143,-428.1449 465.7036,-423.0891 464.5829,-429.9988"/>
</g>
<!-- Node1492 -->
<g id="node3" class="node">
<title>Node1492</title>
<g id="a_node3"><a xlink:href="namespaceios__common.xhtml#a31ef4cb4de4333384dba3e441df47903" target="_top" xlink:title="ios_common::assert\l_client">
<polygon fill="#ffffff" stroke="#000000" points="312.5,-333.68 312.5,-363.68 427.5,-363.68 427.5,-333.68 312.5,-333.68"/>
<text text-anchor="start" x="320.5" y="-351.68" font-family="Helvetica,sans-Serif" font-size="10.00" fill="#000000">ios_common::assert</text>
<text text-anchor="middle" x="370" y="-340.68" font-family="Helvetica,sans-Serif" font-size="10.00" fill="#000000">_client</text>
</a>
</g>
</g>
<!-- Node1491&#45;&gt;Node1492 -->
<g id="edge2" class="edge">
<title>Node1491&#45;&gt;Node1492</title>
<path fill="none" stroke="#191970" d="M242.7557,-290.8057C267.2887,-301.964 300.8687,-317.2371 327.3724,-329.2918"/>
<polygon fill="#191970" stroke="#191970" points="326.2351,-332.6195 336.7869,-333.5738 329.1333,-326.2476 326.2351,-332.6195"/>
</g>
<!-- Node1493 -->
<g id="node4" class="node">
<title>Node1493</title>
<g id="a_node4"><a xlink:href="namespaceios__common.xhtml#a4b4c79405dd73494ae58cbf0e4f1658b" target="_top" xlink:title="ios_common::ios_ereport">
<polygon fill="#ffffff" stroke="#000000" points="657,-200.18 657,-219.18 797,-219.18 797,-200.18 657,-200.18"/>
<text text-anchor="middle" x="727" y="-207.18" font-family="Helvetica,sans-Serif" font-size="10.00" fill="#000000">ios_common::ios_ereport</text>
</a>
</g>
</g>
<!-- Node1491&#45;&gt;Node1493 -->
<g id="edge15" class="edge">
<title>Node1491&#45;&gt;Node1493</title>
<path fill="none" stroke="#191970" d="M269.1461,-269.5536C348.8061,-261.1699 494.264,-245.1567 618,-227.68 632.4275,-225.6423 647.891,-223.2288 662.5051,-220.8421"/>
<polygon fill="#191970" stroke="#191970" points="663.1669,-224.2803 672.4637,-219.1989 662.0273,-217.3737 663.1669,-224.2803"/>
</g>
<!-- Node1494 -->
<g id="node5" class="node">
<title>Node1494</title>
<g id="a_node5"><a xlink:href="namespaceios__print__mgr.xhtml#abd09d7fc0d2381103fd0889b447f4995" target="_top" xlink:title="ios_print_mgr::ios\l_print">
<polygon fill="#ffffff" stroke="#000000" points="1056,-118.68 1056,-148.68 1160,-148.68 1160,-118.68 1056,-118.68"/>
<text text-anchor="start" x="1064" y="-136.68" font-family="Helvetica,sans-Serif" font-size="10.00" fill="#000000">ios_print_mgr::ios</text>
<text text-anchor="middle" x="1108" y="-125.68" font-family="Helvetica,sans-Serif" font-size="10.00" fill="#000000">_print</text>
</a>
</g>
</g>
<!-- Node1491&#45;&gt;Node1494 -->
<g id="edge14" class="edge">
<title>Node1491&#45;&gt;Node1494</title>
<path fill="none" stroke="#191970" d="M248.2852,-260.6601C256.1762,-255.9814 263.6792,-250.0567 269,-242.68 319.7899,-172.2658 243.3728,-111.8345 305,-50.68 381.7649,25.4961 436.3536,-7.68 544.5,-7.68 544.5,-7.68 544.5,-7.68 727,-7.68 847.1316,-7.68 879.0576,-22.0852 991,-65.68 1022.3096,-77.8733 1055.1518,-97.6653 1078.0427,-112.7606"/>
<polygon fill="#191970" stroke="#191970" points="1076.3491,-115.8387 1086.6056,-118.4949 1080.2441,-110.0224 1076.3491,-115.8387"/>
</g>
<!-- Node1500 -->
<g id="node11" class="node">
<title>Node1500</title>
<g id="a_node11"><a xlink:href="namespaceios__common.xhtml#a9cbfffb6c02387dc317575ab449918b6" target="_top" xlink:title="ios_common::ios_actionname">
<polygon fill="#ffffff" stroke="#000000" points="1027,-428.18 1027,-447.18 1189,-447.18 1189,-428.18 1027,-428.18"/>
<text text-anchor="middle" x="1108" y="-435.18" font-family="Helvetica,sans-Serif" font-size="10.00" fill="#000000">ios_common::ios_actionname</text>
</a>
</g>
</g>
<!-- Node1491&#45;&gt;Node1500 -->
<g id="edge13" class="edge">
<title>Node1491&#45;&gt;Node1500</title>
<path fill="none" stroke="#191970" d="M218.7944,-291.0319C234.0494,-315.0756 266.573,-361.7478 305,-389.68 396.4837,-456.1788 431.4011,-475.68 544.5,-475.68 544.5,-475.68 544.5,-475.68 727,-475.68 836.5815,-475.68 963.0201,-459.923 1039.167,-448.7021"/>
<polygon fill="#191970" stroke="#191970" points="1039.7384,-452.1557 1049.1133,-447.22 1038.7067,-445.2321 1039.7384,-452.1557"/>
</g>
<!-- Node1501 -->
<g id="node12" class="node">
<title>Node1501</title>
<g id="a_node12"><a xlink:href="namespaceios__client__queue.xhtml#a8113f81d94a6b3ff7dded6fcd66952a3" target="_top" xlink:title="ios_client_queue::ios\l_querybuffer">
<polygon fill="#ffffff" stroke="#000000" points="485,-36.68 485,-66.68 604,-66.68 604,-36.68 485,-36.68"/>
<text text-anchor="start" x="493" y="-54.68" font-family="Helvetica,sans-Serif" font-size="10.00" fill="#000000">ios_client_queue::ios</text>
<text text-anchor="middle" x="544.5" y="-43.68" font-family="Helvetica,sans-Serif" font-size="10.00" fill="#000000">_querybuffer</text>
</a>
</g>
</g>
<!-- Node1491&#45;&gt;Node1501 -->
<g id="edge16" class="edge">
<title>Node1491&#45;&gt;Node1501</title>
<path fill="none" stroke="#191970" d="M247.5656,-260.5324C255.586,-255.8384 263.326,-249.9392 269,-242.68 306.9764,-194.0935 260.771,-151.6528 305,-108.68 349.7821,-65.1699 421.4445,-52.7562 474.7263,-50.1173"/>
<polygon fill="#191970" stroke="#191970" points="474.9318,-53.6121 484.7871,-49.7232 474.6577,-46.6174 474.9318,-53.6121"/>
</g>
<!-- Node1503 -->
<g id="node14" class="node">
<title>Node1503</title>
<g id="a_node14"><a xlink:href="namespaceios__common.xhtml#a66b4e97a85f71f85bc4f53af5819c234" target="_top" xlink:title="ios_common::io_server\l_for_unit">
<polygon fill="#ffffff" stroke="#000000" points="305,-276.68 305,-306.68 435,-306.68 435,-276.68 305,-276.68"/>
<text text-anchor="start" x="313" y="-294.68" font-family="Helvetica,sans-Serif" font-size="10.00" fill="#000000">ios_common::io_server</text>
<text text-anchor="middle" x="370" y="-283.68" font-family="Helvetica,sans-Serif" font-size="10.00" fill="#000000">_for_unit</text>
</a>
</g>
</g>
<!-- Node1491&#45;&gt;Node1503 -->
<g id="edge22" class="edge">
<title>Node1491&#45;&gt;Node1503</title>
<path fill="none" stroke="#191970" d="M269.2643,-281.6378C277.592,-282.468 286.2351,-283.3296 294.8012,-284.1836"/>
<polygon fill="#191970" stroke="#191970" points="294.5002,-287.6708 304.7981,-285.1802 295.1946,-280.7054 294.5002,-287.6708"/>
</g>
<!-- Node1505 -->
<g id="node16" class="node">
<title>Node1505</title>
<g id="a_node16"><a xlink:href="namespaceios__common.xhtml#a7ff67c62d278ec0aad0a979c736996c9" target="_top" xlink:title="ios_common::ioserverno">
<polygon fill="#ffffff" stroke="#000000" points="658.5,-314.18 658.5,-333.18 795.5,-333.18 795.5,-314.18 658.5,-314.18"/>
<text text-anchor="middle" x="727" y="-321.18" font-family="Helvetica,sans-Serif" font-size="10.00" fill="#000000">ios_common::ioserverno</text>
</a>
</g>
</g>
<!-- Node1491&#45;&gt;Node1505 -->
<g id="edge25" class="edge">
<title>Node1491&#45;&gt;Node1505</title>
<path fill="none" stroke="#191970" d="M218.6368,-290.7689C233.4494,-313.5855 265.1096,-355.9745 305,-372.68 327.9323,-382.2837 593.448,-375.6064 618,-368.68 635.8274,-363.6507 637.1082,-355.2813 654,-347.68 663.3069,-343.4919 673.5703,-339.6637 683.3874,-336.3543"/>
<polygon fill="#191970" stroke="#191970" points="684.5784,-339.6474 693.0037,-333.2236 682.4114,-332.9912 684.5784,-339.6474"/>
</g>
<!-- Node1506 -->
<g id="node17" class="node">
<title>Node1506</title>
<g id="a_node17"><a xlink:href="namespaceios__client__queue.xhtml#a9b6ce597cb41097a50bacde8955fa2e7" target="_top" xlink:title="ios_client_queue::ios\l_consume_client_mem">
<polygon fill="#ffffff" stroke="#000000" points="305.5,-118.68 305.5,-148.68 434.5,-148.68 434.5,-118.68 305.5,-118.68"/>
<text text-anchor="start" x="313.5" y="-136.68" font-family="Helvetica,sans-Serif" font-size="10.00" fill="#000000">ios_client_queue::ios</text>
<text text-anchor="middle" x="370" y="-125.68" font-family="Helvetica,sans-Serif" font-size="10.00" fill="#000000">_consume_client_mem</text>
</a>
</g>
</g>
<!-- Node1491&#45;&gt;Node1506 -->
<g id="edge26" class="edge">
<title>Node1491&#45;&gt;Node1506</title>
<path fill="none" stroke="#191970" d="M240.9405,-260.658C250.3582,-255.533 260.4479,-249.3852 269,-242.68 301.7283,-217.0199 333.2873,-180.4553 352.1721,-156.8941"/>
<polygon fill="#191970" stroke="#191970" points="355.0784,-158.8614 358.5349,-148.8462 349.5873,-154.52 355.0784,-158.8614"/>
</g>
<!-- Node1492&#45;&gt;Node1493 -->
<g id="edge3" class="edge">
<title>Node1492&#45;&gt;Node1493</title>
<path fill="none" stroke="#191970" d="M427.5896,-360.3297C480.0041,-368.0038 558.1099,-371.9225 618,-342.68 631.0519,-336.3072 687.2503,-262.7637 713.4532,-227.8577"/>
<polygon fill="#191970" stroke="#191970" points="716.5176,-229.6044 719.707,-219.5011 710.9132,-225.4103 716.5176,-229.6044"/>
</g>
<!-- Node1493&#45;&gt;Node1494 -->
<g id="edge4" class="edge">
<title>Node1493&#45;&gt;Node1494</title>
<path fill="none" stroke="#191970" d="M774.8681,-200.1315C843.5352,-186.4342 970.0541,-161.1968 1045.862,-146.075"/>
<polygon fill="#191970" stroke="#191970" points="1046.6342,-149.49 1055.7563,-144.1013 1045.2648,-142.6253 1046.6342,-149.49"/>
</g>
<!-- Node1499 -->
<g id="node10" class="node">
<title>Node1499</title>
<g id="a_node10"><a xlink:href="namespaceios__common.xhtml#ade38472c488c019e816ec75cb70ab3cc" target="_top" xlink:title="ios_common::ios_report_md">
<polygon fill="#ffffff" stroke="#000000" points="836,-200.18 836,-219.18 991,-219.18 991,-200.18 836,-200.18"/>
<text text-anchor="middle" x="913.5" y="-207.18" font-family="Helvetica,sans-Serif" font-size="10.00" fill="#000000">ios_common::ios_report_md</text>
</a>
</g>
</g>
<!-- Node1493&#45;&gt;Node1499 -->
<g id="edge10" class="edge">
<title>Node1493&#45;&gt;Node1499</title>
<path fill="none" stroke="#191970" d="M797.2419,-209.68C806.493,-209.68 816.0663,-209.68 825.5659,-209.68"/>
<polygon fill="#191970" stroke="#191970" points="825.8262,-213.1801 835.8262,-209.68 825.8262,-206.1801 825.8262,-213.1801"/>
</g>
<!-- Node1495 -->
<g id="node6" class="node">
<title>Node1495</title>
<g id="a_node6"><a xlink:href="namespaceumprintmgr.xhtml#aae44897e556705dbf5e945a26538be9a" target="_top" xlink:title="umprintmgr::umprint">
<polygon fill="#ffffff" stroke="#000000" points="1225,-124.18 1225,-143.18 1344,-143.18 1344,-124.18 1225,-124.18"/>
<text text-anchor="middle" x="1284.5" y="-131.18" font-family="Helvetica,sans-Serif" font-size="10.00" fill="#000000">umprintmgr::umprint</text>
</a>
</g>
</g>
<!-- Node1494&#45;&gt;Node1495 -->
<g id="edge5" class="edge">
<title>Node1494&#45;&gt;Node1495</title>
<path fill="none" stroke="#191970" d="M1160.0012,-133.68C1177.1607,-133.68 1196.5332,-133.68 1214.796,-133.68"/>
<polygon fill="#191970" stroke="#191970" points="1214.8067,-137.1801 1224.8067,-133.68 1214.8067,-130.1801 1214.8067,-137.1801"/>
</g>
<!-- Node1496 -->
<g id="node7" class="node">
<title>Node1496</title>
<g id="a_node7"><a xlink:href="namespaceumprintmgr.xhtml#a088ce22a18d574e9df7ee1850bfb10c7" target="_top" xlink:title="umprintmgr::umprintopenstream">
<polygon fill="#ffffff" stroke="#000000" points="1380,-124.18 1380,-143.18 1557,-143.18 1557,-124.18 1380,-124.18"/>
<text text-anchor="middle" x="1468.5" y="-131.18" font-family="Helvetica,sans-Serif" font-size="10.00" fill="#000000">umprintmgr::umprintopenstream</text>
</a>
</g>
</g>
<!-- Node1495&#45;&gt;Node1496 -->
<g id="edge6" class="edge">
<title>Node1495&#45;&gt;Node1496</title>
<path fill="none" stroke="#191970" d="M1344.2395,-127.3133C1352.4605,-127.1101 1361.0751,-126.9877 1369.7702,-126.9461"/>
<polygon fill="#191970" stroke="#191970" points="1369.9998,-130.4459 1379.9958,-126.9344 1369.9917,-123.446 1369.9998,-130.4459"/>
</g>
<!-- Node1497 -->
<g id="node8" class="node">
<title>Node1497</title>
<g id="a_node8"><a xlink:href="namespaceumprintmgr.xhtml#ad3a290b30a6e25500eabc0bf90330b77" target="_top" xlink:title="umprintmgr::umprintflush">
<polygon fill="#ffffff" stroke="#000000" points="1397.5,-86.18 1397.5,-105.18 1539.5,-105.18 1539.5,-86.18 1397.5,-86.18"/>
<text text-anchor="middle" x="1468.5" y="-93.18" font-family="Helvetica,sans-Serif" font-size="10.00" fill="#000000">umprintmgr::umprintflush</text>
</a>
</g>
</g>
<!-- Node1495&#45;&gt;Node1497 -->
<g id="edge8" class="edge">
<title>Node1495&#45;&gt;Node1497</title>
<path fill="none" stroke="#191970" d="M1330.931,-124.091C1355.6493,-118.9862 1386.239,-112.6687 1412.292,-107.2882"/>
<polygon fill="#191970" stroke="#191970" points="1413.3175,-110.6504 1422.4029,-105.2001 1411.9017,-103.795 1413.3175,-110.6504"/>
</g>
<!-- Node1496&#45;&gt;Node1495 -->
<g id="edge7" class="edge">
<title>Node1496&#45;&gt;Node1495</title>
<path fill="none" stroke="#191970" d="M1379.9958,-140.4257C1371.3802,-140.4471 1362.7236,-140.3894 1354.3289,-140.2527"/>
<polygon fill="#191970" stroke="#191970" points="1354.3089,-136.7517 1344.2395,-140.0468 1354.166,-143.7502 1354.3089,-136.7517"/>
</g>
<!-- Node1498 -->
<g id="node9" class="node">
<title>Node1498</title>
<g id="a_node9"><a xlink:href="namespaceumflush__mod.xhtml#a3a003ab59990bdcb712b443dd5e0d1cd" target="_top" xlink:title="umflush_mod::umflush">
<polygon fill="#ffffff" stroke="#000000" points="1593,-86.18 1593,-105.18 1721,-105.18 1721,-86.18 1593,-86.18"/>
<text text-anchor="middle" x="1657" y="-93.18" font-family="Helvetica,sans-Serif" font-size="10.00" fill="#000000">umflush_mod::umflush</text>
</a>
</g>
</g>
<!-- Node1497&#45;&gt;Node1498 -->
<g id="edge9" class="edge">
<title>Node1497&#45;&gt;Node1498</title>
<path fill="none" stroke="#191970" d="M1539.7638,-95.68C1553.7742,-95.68 1568.5063,-95.68 1582.6162,-95.68"/>
<polygon fill="#191970" stroke="#191970" points="1582.7612,-99.1801 1592.7611,-95.68 1582.7611,-92.1801 1582.7612,-99.1801"/>
</g>
<!-- Node1499&#45;&gt;Node1494 -->
<g id="edge11" class="edge">
<title>Node1499&#45;&gt;Node1494</title>
<path fill="none" stroke="#191970" d="M947.3619,-200.1386C961.0372,-196.041 976.891,-190.9789 991,-185.68 1016.8554,-175.9696 1045.1741,-163.4357 1067.4743,-153.1065"/>
<polygon fill="#191970" stroke="#191970" points="1069.057,-156.2303 1076.6384,-148.8293 1066.0965,-149.8872 1069.057,-156.2303"/>
</g>
<!-- Node1499&#45;&gt;Node1500 -->
<g id="edge12" class="edge">
<title>Node1499&#45;&gt;Node1500</title>
<path fill="none" stroke="#191970" d="M921.6098,-219.1866C951.3286,-254.0241 1054.5504,-375.0244 1093.2202,-420.3546"/>
<polygon fill="#191970" stroke="#191970" points="1090.7028,-422.7965 1099.8556,-428.1329 1096.0283,-418.2535 1090.7028,-422.7965"/>
</g>
<!-- Node1501&#45;&gt;Node1493 -->
<g id="edge21" class="edge">
<title>Node1501&#45;&gt;Node1493</title>
<path fill="none" stroke="#191970" d="M561.9989,-66.8297C596.3579,-96.5762 672.3852,-162.3971 707.9548,-193.1916"/>
<polygon fill="#191970" stroke="#191970" points="705.836,-195.9866 715.6872,-199.8859 710.4177,-190.6944 705.836,-195.9866"/>
</g>
<!-- Node1501&#45;&gt;Node1494 -->
<g id="edge17" class="edge">
<title>Node1501&#45;&gt;Node1494</title>
<path fill="none" stroke="#191970" d="M604.0436,-52.6005C655.9364,-53.9053 733.1442,-57.0591 800,-64.68 885.6686,-74.4455 907.1149,-78.7361 991,-98.68 1011.2925,-103.5046 1033.2672,-109.7899 1052.6343,-115.7008"/>
<polygon fill="#191970" stroke="#191970" points="1051.619,-119.0503 1062.2065,-118.6558 1053.6838,-112.3617 1051.619,-119.0503"/>
</g>
<!-- Node1502 -->
<g id="node13" class="node">
<title>Node1502</title>
<g id="a_node13"><a xlink:href="namespaceios__client__queue.xhtml#a9df32aa21836ca6d0c9912866fc9a3e8" target="_top" xlink:title="ios_client_queue::ios\l_print_protocol_slot">
<polygon fill="#ffffff" stroke="#000000" points="667.5,-74.68 667.5,-104.68 786.5,-104.68 786.5,-74.68 667.5,-74.68"/>
<text text-anchor="start" x="675.5" y="-92.68" font-family="Helvetica,sans-Serif" font-size="10.00" fill="#000000">ios_client_queue::ios</text>
<text text-anchor="middle" x="727" y="-81.68" font-family="Helvetica,sans-Serif" font-size="10.00" fill="#000000">_print_protocol_slot</text>
</a>
</g>
</g>
<!-- Node1501&#45;&gt;Node1502 -->
<g id="edge18" class="edge">
<title>Node1501&#45;&gt;Node1502</title>
<path fill="none" stroke="#191970" d="M604.0048,-64.0701C620.9605,-67.6006 639.5868,-71.4789 657.1012,-75.1258"/>
<polygon fill="#191970" stroke="#191970" points="656.7604,-78.6298 667.2639,-77.2418 658.1874,-71.7768 656.7604,-78.6298"/>
</g>
<!-- Node1502&#45;&gt;Node1494 -->
<g id="edge19" class="edge">
<title>Node1502&#45;&gt;Node1494</title>
<path fill="none" stroke="#191970" d="M786.5138,-96.3408C840.0282,-102.3545 920.7844,-111.4897 991,-119.68 1008.7503,-121.7505 1028.0101,-124.0382 1045.6823,-126.1536"/>
<polygon fill="#191970" stroke="#191970" points="1045.535,-129.6609 1055.8806,-127.3763 1046.3684,-122.7107 1045.535,-129.6609"/>
</g>
<!-- Node1502&#45;&gt;Node1499 -->
<g id="edge20" class="edge">
<title>Node1502&#45;&gt;Node1499</title>
<path fill="none" stroke="#191970" d="M750.6204,-104.8781C786.4309,-127.9198 854.0714,-171.4418 889.8811,-194.4829"/>
<polygon fill="#191970" stroke="#191970" points="888.3697,-197.6723 898.6731,-200.14 892.1574,-191.7856 888.3697,-197.6723"/>
</g>
<!-- Node1503&#45;&gt;Node1493 -->
<g id="edge23" class="edge">
<title>Node1503&#45;&gt;Node1493</title>
<path fill="none" stroke="#191970" d="M435.1204,-289.5621C485.8228,-286.5448 557.5074,-279.2557 618,-261.68 648.342,-252.8644 680.7331,-236.4082 702.2464,-224.3617"/>
<polygon fill="#191970" stroke="#191970" points="704.0905,-227.3392 711.0406,-219.3425 700.6206,-221.2597 704.0905,-227.3392"/>
</g>
<!-- Node1504 -->
<g id="node15" class="node">
<title>Node1504</title>
<g id="a_node15"><a xlink:href="namespaceios__common.xhtml#a2c973e11abf690e8e0215ca4d7e669de" target="_top" xlink:title="ios_common::l_ios_active">
<polygon fill="#ffffff" stroke="#000000" points="473,-314.18 473,-333.18 616,-333.18 616,-314.18 473,-314.18"/>
<text text-anchor="middle" x="544.5" y="-321.18" font-family="Helvetica,sans-Serif" font-size="10.00" fill="#000000">ios_common::l_ios_active</text>
</a>
</g>
</g>
<!-- Node1503&#45;&gt;Node1504 -->
<g id="edge24" class="edge">
<title>Node1503&#45;&gt;Node1504</title>
<path fill="none" stroke="#191970" d="M435.4738,-303.6867C450.9435,-306.5235 467.3889,-309.5393 482.6903,-312.3453"/>
<polygon fill="#191970" stroke="#191970" points="482.0913,-315.7937 492.5586,-314.155 483.354,-308.9086 482.0913,-315.7937"/>
</g>
<!-- Node1506&#45;&gt;Node1493 -->
<g id="edge27" class="edge">
<title>Node1506&#45;&gt;Node1493</title>
<path fill="none" stroke="#191970" d="M434.65,-147.4431C502.645,-161.9182 608.4671,-184.4461 672.4119,-198.059"/>
<polygon fill="#191970" stroke="#191970" points="671.7932,-201.5057 682.3029,-200.1647 673.2508,-194.6591 671.7932,-201.5057"/>
</g>
<!-- Node1506&#45;&gt;Node1494 -->
<g id="edge28" class="edge">
<title>Node1506&#45;&gt;Node1494</title>
<path fill="none" stroke="#191970" d="M434.5234,-133.68C575.0033,-133.68 907.0262,-133.68 1045.5754,-133.68"/>
<polygon fill="#191970" stroke="#191970" points="1045.6076,-137.1801 1055.6075,-133.68 1045.6075,-130.1801 1045.6076,-137.1801"/>
</g>
<!-- Node1506&#45;&gt;Node1501 -->
<g id="edge29" class="edge">
<title>Node1506&#45;&gt;Node1501</title>
<path fill="none" stroke="#191970" d="M397.5412,-118.6682C417.6665,-107.9037 445.7405,-93.3102 471,-81.68 479.0954,-77.9527 487.7907,-74.1943 496.2663,-70.6582"/>
<polygon fill="#191970" stroke="#191970" points="497.7846,-73.8182 505.6984,-66.774 495.119,-67.3456 497.7846,-73.8182"/>
</g>
<!-- Node1506&#45;&gt;Node1502 -->
<g id="edge30" class="edge">
<title>Node1506&#45;&gt;Node1502</title>
<path fill="none" stroke="#191970" d="M434.6292,-124.5152C446.7104,-122.8606 459.2352,-121.1846 471,-119.68 534.0435,-111.6176 605.933,-103.267 657.4472,-97.4297"/>
<polygon fill="#191970" stroke="#191970" points="657.9263,-100.8979 667.4697,-96.2966 657.1398,-93.9423 657.9263,-100.8979"/>
</g>
<!-- Node1507&#45;&gt;Node1493 -->
<g id="edge32" class="edge">
<title>Node1507&#45;&gt;Node1493</title>
<path fill="none" stroke="#191970" d="M269.1164,-217.6432C362.2263,-216.0239 542.2938,-212.8923 646.7247,-211.0761"/>
<polygon fill="#191970" stroke="#191970" points="646.962,-214.5726 656.8996,-210.8992 646.8403,-207.5737 646.962,-214.5726"/>
</g>
<!-- Node1508&#45;&gt;Node1493 -->
<g id="edge38" class="edge">
<title>Node1508&#45;&gt;Node1493</title>
<path fill="none" stroke="#191970" d="M558.9874,-428.1353C575.0005,-417.0261 600.7985,-397.4071 618,-375.68 639.9613,-347.941 635.1399,-334.6141 654,-304.68 671.9953,-276.1186 696.5138,-245.589 712.0517,-227.0662"/>
<polygon fill="#191970" stroke="#191970" points="714.9018,-229.1166 718.6967,-219.2247 709.5614,-224.5911 714.9018,-229.1166"/>
</g>
<!-- Node1508&#45;&gt;Node1494 -->
<g id="edge36" class="edge">
<title>Node1508&#45;&gt;Node1494</title>
<path fill="none" stroke="#191970" d="M560.2941,-428.0036C581.1173,-415.5911 619.1958,-394.0708 654,-380.68 716.5788,-356.6031 738.1477,-368.5662 800,-342.68 891.1951,-304.5135 909.9727,-285.3176 991,-228.68 1024.1878,-205.482 1060.0062,-175.6149 1083.1471,-155.6191"/>
<polygon fill="#191970" stroke="#191970" points="1085.5277,-158.1872 1090.7785,-148.9851 1080.9352,-152.9043 1085.5277,-158.1872"/>
</g>
<!-- Node1508&#45;&gt;Node1500 -->
<g id="edge37" class="edge">
<title>Node1508&#45;&gt;Node1500</title>
<path fill="none" stroke="#191970" d="M618.1678,-437.68C720.4338,-437.68 905.3358,-437.68 1016.3771,-437.68"/>
<polygon fill="#191970" stroke="#191970" points="1016.5561,-441.1801 1026.5561,-437.68 1016.556,-434.1801 1016.5561,-441.1801"/>
</g>
<!-- Node1508&#45;&gt;Node1505 -->
<g id="edge34" class="edge">
<title>Node1508&#45;&gt;Node1505</title>
<path fill="none" stroke="#191970" d="M591.5437,-428.1652C600.9973,-424.7143 610.3613,-420.03 618,-413.68 643.6945,-392.3204 628.3271,-369.0656 654,-347.68 658.9779,-343.5334 664.6941,-340.0964 670.6894,-337.2489"/>
<polygon fill="#191970" stroke="#191970" points="672.3978,-340.3284 680.2743,-333.2424 669.6981,-333.8699 672.3978,-340.3284"/>
</g>
<!-- Node1509 -->
<g id="node20" class="node">
<title>Node1509</title>
<g id="a_node20"><a xlink:href="namespaceios__common.xhtml#a3976806ac3c1c9b09b572dff6c77d79f" target="_top" xlink:title="ios_common::ioserverrank">
<polygon fill="#ffffff" stroke="#000000" points="654,-390.18 654,-409.18 800,-409.18 800,-390.18 654,-390.18"/>
<text text-anchor="middle" x="727" y="-397.18" font-family="Helvetica,sans-Serif" font-size="10.00" fill="#000000">ios_common::ioserverrank</text>
</a>
</g>
</g>
<!-- Node1508&#45;&gt;Node1509 -->
<g id="edge35" class="edge">
<title>Node1508&#45;&gt;Node1509</title>
<path fill="none" stroke="#191970" d="M590.5525,-428.091C615.0692,-422.9862 645.4096,-416.6687 671.2502,-411.2882"/>
<polygon fill="#191970" stroke="#191970" points="672.2022,-414.6651 681.2787,-409.2001 670.7752,-407.8121 672.2022,-414.6651"/>
</g>
</g>
</svg>
