<?xml version="1.0" encoding="UTF-8" standalone="no"?>
<!DOCTYPE svg PUBLIC "-//W3C//DTD SVG 1.1//EN"
 "http://www.w3.org/Graphics/SVG/1.1/DTD/svg11.dtd">
<!-- Generated by graphviz version 2.40.1 (20161225.0304)
 -->
<!-- Title: print_diag_mod::print_diag_4a Pages: 1 -->
<svg width="661pt" height="180pt"
 viewBox="0.00 0.00 661.00 180.00" xmlns="http://www.w3.org/2000/svg" xmlns:xlink="http://www.w3.org/1999/xlink">
<g id="graph0" class="graph" transform="scale(1 1) rotate(0) translate(4 176)">
<title>print_diag_mod::print_diag_4a</title>
<polygon fill="#ffffff" stroke="transparent" points="-4,4 -4,-176 657,-176 657,4 -4,4"/>
<!-- Node0 -->
<g id="node1" class="node">
<title>Node0</title>
<polygon fill="#bfbfbf" stroke="#000000" points="0,-71 0,-101 121,-101 121,-71 0,-71"/>
<text text-anchor="start" x="8" y="-89" font-family="Helvetica,sans-Serif" font-size="10.00" fill="#000000">print_diag_mod::print</text>
<text text-anchor="middle" x="60.5" y="-78" font-family="Helvetica,sans-Serif" font-size="10.00" fill="#000000">_diag_4a</text>
</g>
<!-- Node1 -->
<g id="node2" class="node">
<title>Node1</title>
<g id="a_node2"><a xlink:href="namespaceu__to__p__mod.xhtml#abec25da0a0e72ae2bd1efd5a110125fb" target="_top" xlink:title="u_to_p_mod::u_to_p">
<polygon fill="#ffffff" stroke="#000000" points="159.5,-152.5 159.5,-171.5 273.5,-171.5 273.5,-152.5 159.5,-152.5"/>
<text text-anchor="middle" x="216.5" y="-159.5" font-family="Helvetica,sans-Serif" font-size="10.00" fill="#000000">u_to_p_mod::u_to_p</text>
</a>
</g>
</g>
<!-- Node0&#45;&gt;Node1 -->
<g id="edge1" class="edge">
<title>Node0&#45;&gt;Node1</title>
<path fill="none" stroke="#191970" d="M82.7338,-101.0854C101.8127,-113.546 130.3656,-131.0638 157,-143 161.9477,-145.2173 167.2325,-147.2933 172.5339,-149.1986"/>
<polygon fill="#191970" stroke="#191970" points="171.4307,-152.5202 182.0252,-152.4373 173.6914,-145.8953 171.4307,-152.5202"/>
</g>
<!-- Node2 -->
<g id="node3" class="node">
<title>Node2</title>
<g id="a_node3"><a xlink:href="namespacev__to__p__mod.xhtml#a071d83a5fb4aa87adbf487a6218a3037" target="_top" xlink:title="v_to_p_mod::v_to_p">
<polygon fill="#ffffff" stroke="#000000" points="159.5,-114.5 159.5,-133.5 273.5,-133.5 273.5,-114.5 159.5,-114.5"/>
<text text-anchor="middle" x="216.5" y="-121.5" font-family="Helvetica,sans-Serif" font-size="10.00" fill="#000000">v_to_p_mod::v_to_p</text>
</a>
</g>
</g>
<!-- Node0&#45;&gt;Node2 -->
<g id="edge2" class="edge">
<title>Node0&#45;&gt;Node2</title>
<path fill="none" stroke="#191970" d="M121.2604,-100.8006C136.5526,-104.5256 152.7755,-108.4774 167.4153,-112.0435"/>
<polygon fill="#191970" stroke="#191970" points="166.7225,-115.477 177.2668,-114.4432 168.3793,-108.6759 166.7225,-115.477"/>
</g>
<!-- Node3 -->
<g id="node4" class="node">
<title>Node3</title>
<g id="a_node4"><a xlink:href="namespaceumprintmgr.xhtml#aae44897e556705dbf5e945a26538be9a" target="_top" xlink:title="umprintmgr::umprint">
<polygon fill="#ffffff" stroke="#000000" points="157,-76.5 157,-95.5 276,-95.5 276,-76.5 157,-76.5"/>
<text text-anchor="middle" x="216.5" y="-83.5" font-family="Helvetica,sans-Serif" font-size="10.00" fill="#000000">umprintmgr::umprint</text>
</a>
</g>
</g>
<!-- Node0&#45;&gt;Node3 -->
<g id="edge3" class="edge">
<title>Node0&#45;&gt;Node3</title>
<path fill="none" stroke="#191970" d="M121.2604,-86C129.5929,-86 138.2018,-86 146.6803,-86"/>
<polygon fill="#191970" stroke="#191970" points="146.9302,-89.5001 156.9302,-86 146.9301,-82.5001 146.9302,-89.5001"/>
</g>
<!-- Node7 -->
<g id="node8" class="node">
<title>Node7</title>
<g id="a_node8"><a xlink:href="swap__bounds-swpbnd2a_8f90.xhtml#aa0269e41062e156c437596022ea9ccd0" target="_top" xlink:title="Portable GCOM based version SWAP_BOUNDS. ">
<polygon fill="#ffffff" stroke="#000000" points="175,-38.5 175,-57.5 258,-57.5 258,-38.5 175,-38.5"/>
<text text-anchor="middle" x="216.5" y="-45.5" font-family="Helvetica,sans-Serif" font-size="10.00" fill="#000000">swap_bounds</text>
</a>
</g>
</g>
<!-- Node0&#45;&gt;Node7 -->
<g id="edge8" class="edge">
<title>Node0&#45;&gt;Node7</title>
<path fill="none" stroke="#191970" d="M121.2604,-71.1994C136.5526,-67.4744 152.7755,-63.5226 167.4153,-59.9565"/>
<polygon fill="#191970" stroke="#191970" points="168.3793,-63.3241 177.2668,-57.5568 166.7225,-56.523 168.3793,-63.3241"/>
</g>
<!-- Node9 -->
<g id="node10" class="node">
<title>Node9</title>
<g id="a_node10"><a xlink:href="calc__stats_8f90.xhtml#a0651818589a2afefb5b5b575275c177a" target="_top" xlink:title="*****************************COPYRIGHT****************************** *****************************COP...">
<polygon fill="#ffffff" stroke="#000000" points="184,-.5 184,-19.5 249,-19.5 249,-.5 184,-.5"/>
<text text-anchor="middle" x="216.5" y="-7.5" font-family="Helvetica,sans-Serif" font-size="10.00" fill="#000000">calc_stats</text>
</a>
</g>
</g>
<!-- Node0&#45;&gt;Node9 -->
<g id="edge10" class="edge">
<title>Node0&#45;&gt;Node9</title>
<path fill="none" stroke="#191970" d="M82.7338,-70.9146C101.8127,-58.454 130.3656,-40.9362 157,-29 162.4518,-26.5568 168.3128,-24.2852 174.1544,-22.2245"/>
<polygon fill="#191970" stroke="#191970" points="175.521,-25.4579 183.8913,-18.9626 173.2974,-18.8205 175.521,-25.4579"/>
</g>
<!-- Node4 -->
<g id="node5" class="node">
<title>Node4</title>
<g id="a_node5"><a xlink:href="namespaceumprintmgr.xhtml#a088ce22a18d574e9df7ee1850bfb10c7" target="_top" xlink:title="umprintmgr::umprintopenstream">
<polygon fill="#ffffff" stroke="#000000" points="312,-114.5 312,-133.5 489,-133.5 489,-114.5 312,-114.5"/>
<text text-anchor="middle" x="400.5" y="-121.5" font-family="Helvetica,sans-Serif" font-size="10.00" fill="#000000">umprintmgr::umprintopenstream</text>
</a>
</g>
</g>
<!-- Node3&#45;&gt;Node4 -->
<g id="edge4" class="edge">
<title>Node3&#45;&gt;Node4</title>
<path fill="none" stroke="#191970" d="M276.2395,-91.9708C306.3059,-97.4371 341.6357,-105.0709 366.922,-111.7109"/>
<polygon fill="#191970" stroke="#191970" points="366.1934,-115.1399 376.7617,-114.3906 368.0328,-108.3858 366.1934,-115.1399"/>
</g>
<!-- Node5 -->
<g id="node6" class="node">
<title>Node5</title>
<g id="a_node6"><a xlink:href="namespaceumprintmgr.xhtml#ad3a290b30a6e25500eabc0bf90330b77" target="_top" xlink:title="umprintmgr::umprintflush">
<polygon fill="#ffffff" stroke="#000000" points="329.5,-76.5 329.5,-95.5 471.5,-95.5 471.5,-76.5 329.5,-76.5"/>
<text text-anchor="middle" x="400.5" y="-83.5" font-family="Helvetica,sans-Serif" font-size="10.00" fill="#000000">umprintmgr::umprintflush</text>
</a>
</g>
</g>
<!-- Node3&#45;&gt;Node5 -->
<g id="edge6" class="edge">
<title>Node3&#45;&gt;Node5</title>
<path fill="none" stroke="#191970" d="M276.2395,-86C289.8344,-86 304.5053,-86 318.8373,-86"/>
<polygon fill="#191970" stroke="#191970" points="319.1932,-89.5001 329.1931,-86 319.1931,-82.5001 319.1932,-89.5001"/>
</g>
<!-- Node4&#45;&gt;Node3 -->
<g id="edge5" class="edge">
<title>Node4&#45;&gt;Node3</title>
<path fill="none" stroke="#191970" d="M321.8983,-114.453C296.7488,-109.501 270.2343,-103.5816 250.0904,-98.2924"/>
<polygon fill="#191970" stroke="#191970" points="250.7464,-94.8436 240.1781,-95.5924 248.9067,-101.5976 250.7464,-94.8436"/>
</g>
<!-- Node6 -->
<g id="node7" class="node">
<title>Node6</title>
<g id="a_node7"><a xlink:href="namespaceumflush__mod.xhtml#a3a003ab59990bdcb712b443dd5e0d1cd" target="_top" xlink:title="umflush_mod::umflush">
<polygon fill="#ffffff" stroke="#000000" points="525,-76.5 525,-95.5 653,-95.5 653,-76.5 525,-76.5"/>
<text text-anchor="middle" x="589" y="-83.5" font-family="Helvetica,sans-Serif" font-size="10.00" fill="#000000">umflush_mod::umflush</text>
</a>
</g>
</g>
<!-- Node5&#45;&gt;Node6 -->
<g id="edge7" class="edge">
<title>Node5&#45;&gt;Node6</title>
<path fill="none" stroke="#191970" d="M471.7638,-86C485.7742,-86 500.5063,-86 514.6162,-86"/>
<polygon fill="#191970" stroke="#191970" points="514.7612,-89.5001 524.7611,-86 514.7611,-82.5001 514.7612,-89.5001"/>
</g>
<!-- Node8 -->
<g id="node9" class="node">
<title>Node8</title>
<g id="a_node9"><a xlink:href="fill__external__halos_8f90.xhtml#a9f4e1e061e136821fb9a51281a5e69c2" target="_top" xlink:title="Routine for filling in External Halos. ">
<polygon fill="#ffffff" stroke="#000000" points="347.5,-38.5 347.5,-57.5 453.5,-57.5 453.5,-38.5 347.5,-38.5"/>
<text text-anchor="middle" x="400.5" y="-45.5" font-family="Helvetica,sans-Serif" font-size="10.00" fill="#000000">fill_external_halos</text>
</a>
</g>
</g>
<!-- Node7&#45;&gt;Node8 -->
<g id="edge9" class="edge">
<title>Node7&#45;&gt;Node8</title>
<path fill="none" stroke="#191970" d="M258.2524,-48C281.5601,-48 311.0746,-48 337.17,-48"/>
<polygon fill="#191970" stroke="#191970" points="337.3587,-51.5001 347.3587,-48 337.3586,-44.5001 337.3587,-51.5001"/>
</g>
<!-- Node10 -->
<g id="node11" class="node">
<title>Node10</title>
<g id="a_node11"><a xlink:href="sum_8f90.xhtml#a025c1f845b6a4ea9c9f48b8612cd82e7" target="_top" xlink:title="Generic routines for manipulating pp&#45;fields within Fieldcalc. ">
<polygon fill="#ffffff" stroke="#000000" points="381.5,-.5 381.5,-19.5 419.5,-19.5 419.5,-.5 381.5,-.5"/>
<text text-anchor="middle" x="400.5" y="-7.5" font-family="Helvetica,sans-Serif" font-size="10.00" fill="#000000">sum</text>
</a>
</g>
</g>
<!-- Node9&#45;&gt;Node10 -->
<g id="edge11" class="edge">
<title>Node9&#45;&gt;Node10</title>
<path fill="none" stroke="#191970" d="M249.3955,-10C283.9434,-10 337.7747,-10 370.9929,-10"/>
<polygon fill="#191970" stroke="#191970" points="371.4104,-13.5001 381.4103,-10 371.4103,-6.5001 371.4104,-13.5001"/>
</g>
</g>
</svg>
