<?xml version="1.0" encoding="UTF-8" standalone="no"?>
<!DOCTYPE svg PUBLIC "-//W3C//DTD SVG 1.1//EN"
 "http://www.w3.org/Graphics/SVG/1.1/DTD/svg11.dtd">
<!-- Generated by graphviz version 2.40.1 (20161225.0304)
 -->
<!-- Title: rcf_hdppxrf_mod::rcf_hdppxrf Pages: 1 -->
<svg width="518pt" height="39pt"
 viewBox="0.00 0.00 518.00 39.00" xmlns="http://www.w3.org/2000/svg" xmlns:xlink="http://www.w3.org/1999/xlink">
<g id="graph0" class="graph" transform="scale(1 1) rotate(0) translate(4 35)">
<title>rcf_hdppxrf_mod::rcf_hdppxrf</title>
<polygon fill="#ffffff" stroke="transparent" points="-4,4 -4,-35 514,-35 514,4 -4,4"/>
<!-- Node6 -->
<g id="node1" class="node">
<title>Node6</title>
<polygon fill="#bfbfbf" stroke="#000000" points="0,-.5 0,-30.5 118,-30.5 118,-.5 0,-.5"/>
<text text-anchor="start" x="8" y="-18.5" font-family="Helvetica,sans-Serif" font-size="10.00" fill="#000000">rcf_hdppxrf_mod::rcf</text>
<text text-anchor="middle" x="59" y="-7.5" font-family="Helvetica,sans-Serif" font-size="10.00" fill="#000000">_hdppxrf</text>
</g>
<!-- Node7 -->
<g id="node2" class="node">
<title>Node7</title>
<g id="a_node2"><a xlink:href="namespacercf__stash__init__mod.xhtml#aa6e136bda16263b0a6915a25bbf4c4fa" target="_top" xlink:title="Subroutine Rcf_Stash_Init &#45; initialisation of STASH variables. ">
<polygon fill="#ffffff" stroke="#000000" points="154,-.5 154,-30.5 263,-30.5 263,-.5 154,-.5"/>
<text text-anchor="start" x="162" y="-18.5" font-family="Helvetica,sans-Serif" font-size="10.00" fill="#000000">rcf_stash_init_mod</text>
<text text-anchor="middle" x="208.5" y="-7.5" font-family="Helvetica,sans-Serif" font-size="10.00" fill="#000000">::rcf_stash_init</text>
</a>
</g>
</g>
<!-- Node6&#45;&gt;Node7 -->
<g id="edge1" class="edge">
<title>Node6&#45;&gt;Node7</title>
<path fill="none" stroke="#191970" d="M128.1037,-15.5C136.6996,-15.5 145.3956,-15.5 153.7336,-15.5"/>
<polygon fill="#191970" stroke="#191970" points="128.0864,-12.0001 118.0864,-15.5 128.0863,-19.0001 128.0864,-12.0001"/>
</g>
<!-- Node8 -->
<g id="node3" class="node">
<title>Node8</title>
<g id="a_node3"><a xlink:href="namespacercf__initialise__mod.xhtml#ab7086bd455bd5857b757207d0255c3f4" target="_top" xlink:title="Subroutine Rcf_Initialise &#45; initialisation tasks. ">
<polygon fill="#ffffff" stroke="#000000" points="299,-.5 299,-30.5 403,-30.5 403,-.5 299,-.5"/>
<text text-anchor="start" x="307" y="-18.5" font-family="Helvetica,sans-Serif" font-size="10.00" fill="#000000">rcf_initialise_mod</text>
<text text-anchor="middle" x="351" y="-7.5" font-family="Helvetica,sans-Serif" font-size="10.00" fill="#000000">::rcf_initialise</text>
</a>
</g>
</g>
<!-- Node7&#45;&gt;Node8 -->
<g id="edge2" class="edge">
<title>Node7&#45;&gt;Node8</title>
<path fill="none" stroke="#191970" d="M273.3838,-15.5C281.8188,-15.5 290.3737,-15.5 298.5706,-15.5"/>
<polygon fill="#191970" stroke="#191970" points="273.1867,-12.0001 263.1867,-15.5 273.1866,-19.0001 273.1867,-12.0001"/>
</g>
<!-- Node9 -->
<g id="node4" class="node">
<title>Node9</title>
<g id="a_node4"><a xlink:href="reconfigure_8f90.xhtml#a55389899cfceedbb4b0f908c73988c0c" target="_top" xlink:title="Top level program for reconfiguration. ">
<polygon fill="#ffffff" stroke="#000000" points="439,-6 439,-25 510,-25 510,-6 439,-6"/>
<text text-anchor="middle" x="474.5" y="-13" font-family="Helvetica,sans-Serif" font-size="10.00" fill="#000000">reconfigure</text>
</a>
</g>
</g>
<!-- Node8&#45;&gt;Node9 -->
<g id="edge3" class="edge">
<title>Node8&#45;&gt;Node9</title>
<path fill="none" stroke="#191970" d="M413.2179,-15.5C421.938,-15.5 430.6456,-15.5 438.6452,-15.5"/>
<polygon fill="#191970" stroke="#191970" points="413.0172,-12.0001 403.0172,-15.5 413.0171,-19.0001 413.0172,-12.0001"/>
</g>
</g>
</svg>
