<?xml version="1.0" encoding="UTF-8" standalone="no"?>
<!DOCTYPE svg PUBLIC "-//W3C//DTD SVG 1.1//EN"
 "http://www.w3.org/Graphics/SVG/1.1/DTD/svg11.dtd">
<!-- Generated by graphviz version 2.40.1 (20161225.0304)
 -->
<!-- Title: rcf_scatter_atmos_lbcs_mod::rcf_scatter_atmos_lbcs Pages: 1 -->
<svg width="803pt" height="116pt"
 viewBox="0.00 0.00 803.00 115.50" xmlns="http://www.w3.org/2000/svg" xmlns:xlink="http://www.w3.org/1999/xlink">
<g id="graph0" class="graph" transform="scale(1 1) rotate(0) translate(4 111.5)">
<title>rcf_scatter_atmos_lbcs_mod::rcf_scatter_atmos_lbcs</title>
<polygon fill="#ffffff" stroke="transparent" points="-4,4 -4,-111.5 799,-111.5 799,4 -4,4"/>
<!-- Node0 -->
<g id="node1" class="node">
<title>Node0</title>
<polygon fill="#bfbfbf" stroke="#000000" points="0,-55 0,-85 162,-85 162,-55 0,-55"/>
<text text-anchor="start" x="8" y="-73" font-family="Helvetica,sans-Serif" font-size="10.00" fill="#000000">rcf_scatter_atmos_lbcs</text>
<text text-anchor="middle" x="81" y="-62" font-family="Helvetica,sans-Serif" font-size="10.00" fill="#000000">_mod::rcf_scatter_atmos_lbcs</text>
</g>
<!-- Node1 -->
<g id="node2" class="node">
<title>Node1</title>
<g id="a_node2"><a xlink:href="namespacercf__level__code__mod.xhtml#ab662837c0414874b83675887f890c6ab" target="_top" xlink:title="Sets ILOUT to an appropriate level size according to the value of ILIN. ">
<polygon fill="#ffffff" stroke="#000000" points="376,-77 376,-107 490,-107 490,-77 376,-77"/>
<text text-anchor="start" x="384" y="-95" font-family="Helvetica,sans-Serif" font-size="10.00" fill="#000000">rcf_level_code_mod</text>
<text text-anchor="middle" x="433" y="-84" font-family="Helvetica,sans-Serif" font-size="10.00" fill="#000000">::rcf_level_code</text>
</a>
</g>
</g>
<!-- Node0&#45;&gt;Node1 -->
<g id="edge1" class="edge">
<title>Node0&#45;&gt;Node1</title>
<path fill="none" stroke="#191970" d="M162.1979,-75.0749C223.8723,-78.9295 307.6844,-84.1678 365.6578,-87.7911"/>
<polygon fill="#191970" stroke="#191970" points="365.6115,-91.295 375.8104,-88.4257 366.0483,-84.3086 365.6115,-91.295"/>
</g>
<!-- Node2 -->
<g id="node3" class="node">
<title>Node2</title>
<g id="a_node3"><a xlink:href="namespacercf__address__length__mod.xhtml#ac762ac17a67256a8b206cedfe7ace7e3" target="_top" xlink:title="Subroutine Rcf_Address_Length &#45; determines field size. ">
<polygon fill="#ffffff" stroke="#000000" points="198,-33 198,-63 340,-63 340,-33 198,-33"/>
<text text-anchor="start" x="206" y="-51" font-family="Helvetica,sans-Serif" font-size="10.00" fill="#000000">rcf_address_length</text>
<text text-anchor="middle" x="269" y="-40" font-family="Helvetica,sans-Serif" font-size="10.00" fill="#000000">_mod::rcf_address_length</text>
</a>
</g>
</g>
<!-- Node0&#45;&gt;Node2 -->
<g id="edge2" class="edge">
<title>Node0&#45;&gt;Node2</title>
<path fill="none" stroke="#191970" d="M162.093,-60.5104C170.6644,-59.5074 179.3818,-58.4872 187.9527,-57.4843"/>
<polygon fill="#191970" stroke="#191970" points="188.4041,-60.9554 197.9294,-56.3168 187.5904,-54.0029 188.4041,-60.9554"/>
</g>
<!-- Node2&#45;&gt;Node1 -->
<g id="edge3" class="edge">
<title>Node2&#45;&gt;Node1</title>
<path fill="none" stroke="#191970" d="M324.9808,-63.0192C338.4958,-66.6452 353.0629,-70.5534 366.9897,-74.2899"/>
<polygon fill="#191970" stroke="#191970" points="366.4278,-77.7629 376.9932,-76.9738 368.2418,-71.002 366.4278,-77.7629"/>
</g>
<!-- Node3 -->
<g id="node4" class="node">
<title>Node3</title>
<g id="a_node4"><a xlink:href="lltorc_8f90.xhtml#a1b56b2e3d06737db1e41ebaca802bce6" target="_top" xlink:title="Convert lat/long specification to row/column specification. ">
<polygon fill="#ffffff" stroke="#000000" points="412.5,-38.5 412.5,-57.5 453.5,-57.5 453.5,-38.5 412.5,-38.5"/>
<text text-anchor="middle" x="433" y="-45.5" font-family="Helvetica,sans-Serif" font-size="10.00" fill="#000000">lltorc</text>
</a>
</g>
</g>
<!-- Node2&#45;&gt;Node3 -->
<g id="edge4" class="edge">
<title>Node2&#45;&gt;Node3</title>
<path fill="none" stroke="#191970" d="M340.4557,-48C362.0432,-48 384.6221,-48 402.0731,-48"/>
<polygon fill="#191970" stroke="#191970" points="402.2215,-51.5001 412.2215,-48 402.2215,-44.5001 402.2215,-51.5001"/>
</g>
<!-- Node4 -->
<g id="node5" class="node">
<title>Node4</title>
<g id="a_node5"><a xlink:href="namespacercf__global__to__local__mod.xhtml#a77b8a85bffb7822e380fae0f558091d1" target="_top" xlink:title="rcf_global_to_local\l_mod::rcf_get_fld_type">
<polygon fill="#ffffff" stroke="#000000" points="526,-77 526,-107 654,-107 654,-77 526,-77"/>
<text text-anchor="start" x="534" y="-95" font-family="Helvetica,sans-Serif" font-size="10.00" fill="#000000">rcf_global_to_local</text>
<text text-anchor="middle" x="590" y="-84" font-family="Helvetica,sans-Serif" font-size="10.00" fill="#000000">_mod::rcf_get_fld_type</text>
</a>
</g>
</g>
<!-- Node3&#45;&gt;Node4 -->
<g id="edge5" class="edge">
<title>Node3&#45;&gt;Node4</title>
<path fill="none" stroke="#191970" d="M453.525,-53.7522C472.0981,-58.9574 500.4542,-66.9044 526.5164,-74.2084"/>
<polygon fill="#191970" stroke="#191970" points="525.794,-77.6407 536.3675,-76.9692 527.683,-70.9004 525.794,-77.6407"/>
</g>
<!-- Node5 -->
<g id="node6" class="node">
<title>Node5</title>
<g id="a_node6"><a xlink:href="gt__decode_8f90.xhtml#a6e18f6bdab351d4581f650061e35c8f8" target="_top" xlink:title="Returns information about a given grid type. ">
<polygon fill="#ffffff" stroke="#000000" points="556.5,-38.5 556.5,-57.5 623.5,-57.5 623.5,-38.5 556.5,-38.5"/>
<text text-anchor="middle" x="590" y="-45.5" font-family="Helvetica,sans-Serif" font-size="10.00" fill="#000000">gt_decode</text>
</a>
</g>
</g>
<!-- Node3&#45;&gt;Node5 -->
<g id="edge6" class="edge">
<title>Node3&#45;&gt;Node5</title>
<path fill="none" stroke="#191970" d="M453.525,-48C476.8716,-48 515.676,-48 545.9515,-48"/>
<polygon fill="#191970" stroke="#191970" points="546.2654,-51.5001 556.2653,-48 546.2653,-44.5001 546.2654,-51.5001"/>
</g>
<!-- Node6 -->
<g id="node7" class="node">
<title>Node6</title>
<g id="a_node7"><a xlink:href="lltoll_8f90.xhtml#ab73fd16c9f8ff040d2480fe112b6a1cd" target="_top" xlink:title="Use subroutine LLTOEQ to convert to equatorial lat/lon for LAM. ">
<polygon fill="#ffffff" stroke="#000000" points="571,-.5 571,-19.5 609,-19.5 609,-.5 571,-.5"/>
<text text-anchor="middle" x="590" y="-7.5" font-family="Helvetica,sans-Serif" font-size="10.00" fill="#000000">lltoll</text>
</a>
</g>
</g>
<!-- Node3&#45;&gt;Node6 -->
<g id="edge7" class="edge">
<title>Node3&#45;&gt;Node6</title>
<path fill="none" stroke="#191970" d="M453.525,-43.0322C481.0061,-36.3807 529.9047,-24.5454 561.1006,-16.9948"/>
<polygon fill="#191970" stroke="#191970" points="562.0489,-20.3664 570.9448,-14.6121 560.4021,-13.5628 562.0489,-20.3664"/>
</g>
<!-- Node7 -->
<g id="node8" class="node">
<title>Node7</title>
<g id="a_node8"><a xlink:href="namespacelltoeq__mod.xhtml#a3c9637ba83181ca868444be33867cdaa" target="_top" xlink:title="lltoeq_mod::lltoeq">
<polygon fill="#ffffff" stroke="#000000" points="690,-.5 690,-19.5 795,-19.5 795,-.5 690,-.5"/>
<text text-anchor="middle" x="742.5" y="-7.5" font-family="Helvetica,sans-Serif" font-size="10.00" fill="#000000">lltoeq_mod::lltoeq</text>
</a>
</g>
</g>
<!-- Node6&#45;&gt;Node7 -->
<g id="edge8" class="edge">
<title>Node6&#45;&gt;Node7</title>
<path fill="none" stroke="#191970" d="M609.0059,-10C626.6902,-10 654.0554,-10 679.4166,-10"/>
<polygon fill="#191970" stroke="#191970" points="679.7546,-13.5001 689.7545,-10 679.7545,-6.5001 679.7546,-13.5001"/>
</g>
</g>
</svg>
