<?xml version="1.0" encoding="UTF-8" standalone="no"?>
<!DOCTYPE svg PUBLIC "-//W3C//DTD SVG 1.1//EN"
 "http://www.w3.org/Graphics/SVG/1.1/DTD/svg11.dtd">
<!-- Generated by graphviz version 2.40.1 (20161225.0304)
 -->
<!-- Title: departure_point_eta_mod::departure_point_eta Pages: 1 -->
<!--zoomable 163 -->
<svg id="main" version="1.1" xmlns="http://www.w3.org/2000/svg" xmlns:xlink="http://www.w3.org/1999/xlink" xml:space="preserve" onload="init(evt)">
<style type="text/css"><![CDATA[
.edge:hover path { stroke: red; }
.edge:hover polygon { stroke: red; fill: red; }
]]></style>
<script type="text/javascript"><![CDATA[
var edges = document.getElementsByTagName('g');
if (edges && edges.length) {
  for (var i=0;i<edges.length;i++) {
    if (edges[i].id.substr(0,4)=='edge') {
      edges[i].setAttribute('class','edge');
    }
  }
}
]]></script>
        <defs>
                <circle id="rim" cx="0" cy="0" r="7"/>
                <circle id="rim2" cx="0" cy="0" r="3.5"/>
                <g id="zoomPlus">
                        <use xlink:href="#rim" fill="#404040">
                                <set attributeName="fill" to="#808080" begin="zoomplus.mouseover" end="zoomplus.mouseout"/>
                        </use>
                        <path d="M-4,0h8M0,-4v8" fill="none" stroke="white" stroke-width="1.5" pointer-events="none"/>
                </g>
                <g id="zoomMin">
                        <use xlink:href="#rim" fill="#404040">
                                <set attributeName="fill" to="#808080" begin="zoomminus.mouseover" end="zoomminus.mouseout"/>
                        </use>
                        <path d="M-4,0h8" fill="none" stroke="white" stroke-width="1.5" pointer-events="none"/>
                </g>
                <g id="dirArrow">
                        <path fill="none" stroke="white" stroke-width="1.5" d="M0,-3.0v7 M-2.5,-0.5L0,-3.0L2.5,-0.5"/>
                </g>
               <g id="resetDef">
                       <use xlink:href="#rim2" fill="#404040">
                               <set attributeName="fill" to="#808080" begin="reset.mouseover" end="reset.mouseout"/>
                       </use>
               </g>
        </defs>

<script type="text/javascript">
var viewWidth = 923;
var viewHeight = 163;
var sectionId = 'dynsection-1';
</script>
<script xlink:href="svgpan.js"/>
<svg id="graph" class="graph">
<g id="viewport">
<title>departure_point_eta_mod::departure_point_eta</title>
<polygon fill="#ffffff" stroke="transparent" points="-4,4 -4,-158.5 919,-158.5 919,4 -4,4"/>
<!-- Node24 -->
<g id="node1" class="node">
<title>Node24</title>
<polygon fill="#bfbfbf" stroke="#000000" points="0,-73.5 0,-103.5 148,-103.5 148,-73.5 0,-73.5"/>
<text text-anchor="start" x="8" y="-91.5" font-family="Helvetica,sans-Serif" font-size="10.00" fill="#000000">departure_point_eta</text>
<text text-anchor="middle" x="74" y="-80.5" font-family="Helvetica,sans-Serif" font-size="10.00" fill="#000000">_mod::departure_point_eta</text>
</g>
<!-- Node25 -->
<g id="node2" class="node">
<title>Node25</title>
<g id="a_node2"><a xlink:href="namespaceeg__sl__rho__mod.xhtml#a89794fd44e2f91d931e731f97d1ec21a" target="_top" xlink:title="eg_sl_rho_mod::eg_sl_rho">
<polygon fill="#ffffff" stroke="#000000" points="349,-135 349,-154 492,-154 492,-135 349,-135"/>
<text text-anchor="middle" x="420.5" y="-142" font-family="Helvetica,sans-Serif" font-size="10.00" fill="#000000">eg_sl_rho_mod::eg_sl_rho</text>
</a>
</g>
</g>
<!-- Node24&#45;&gt;Node25 -->
<g id="edge1" class="edge">
<title>Node24&#45;&gt;Node25</title>
<path fill="none" stroke="#191970" d="M108.4968,-108.5263C129.5609,-119.6318 157.465,-132.399 184,-138.5 238.3378,-150.9935 301.5492,-151.9242 348.9441,-150.042"/>
<polygon fill="#191970" stroke="#191970" points="110.0834,-105.4053 99.6215,-103.7322 106.7566,-111.5643 110.0834,-105.4053"/>
</g>
<!-- Node30 -->
<g id="node7" class="node">
<title>Node30</title>
<g id="a_node7"><a xlink:href="namespaceeg__sl__wind__u__mod.xhtml#ace7ba5810940b39501885fe546334902" target="_top" xlink:title="eg_sl_wind_u_mod::eg\l_sl_wind_u">
<polygon fill="#ffffff" stroke="#000000" points="185,-98.5 185,-128.5 312,-128.5 312,-98.5 185,-98.5"/>
<text text-anchor="start" x="193" y="-116.5" font-family="Helvetica,sans-Serif" font-size="10.00" fill="#000000">eg_sl_wind_u_mod::eg</text>
<text text-anchor="middle" x="248.5" y="-105.5" font-family="Helvetica,sans-Serif" font-size="10.00" fill="#000000">_sl_wind_u</text>
</a>
</g>
</g>
<!-- Node24&#45;&gt;Node30 -->
<g id="edge6" class="edge">
<title>Node24&#45;&gt;Node30</title>
<path fill="none" stroke="#191970" d="M158.1217,-100.5518C167.1182,-101.8407 176.1591,-103.136 184.8612,-104.3827"/>
<polygon fill="#191970" stroke="#191970" points="158.399,-97.0559 148.0037,-99.1023 157.4062,-103.9851 158.399,-97.0559"/>
</g>
<!-- Node32 -->
<g id="node9" class="node">
<title>Node32</title>
<g id="a_node9"><a xlink:href="namespaceeg__sl__wind__v__mod.xhtml#ad11ec470eb1a3e23bab3c91386117836" target="_top" xlink:title="eg_sl_wind_v_mod::eg\l_sl_wind_v">
<polygon fill="#ffffff" stroke="#000000" points="185,-49.5 185,-79.5 312,-79.5 312,-49.5 185,-49.5"/>
<text text-anchor="start" x="193" y="-67.5" font-family="Helvetica,sans-Serif" font-size="10.00" fill="#000000">eg_sl_wind_v_mod::eg</text>
<text text-anchor="middle" x="248.5" y="-56.5" font-family="Helvetica,sans-Serif" font-size="10.00" fill="#000000">_sl_wind_v</text>
</a>
</g>
</g>
<!-- Node24&#45;&gt;Node32 -->
<g id="edge9" class="edge">
<title>Node24&#45;&gt;Node32</title>
<path fill="none" stroke="#191970" d="M158.1217,-76.9302C167.1182,-75.6929 176.1591,-74.4495 184.8612,-73.2526"/>
<polygon fill="#191970" stroke="#191970" points="157.4335,-73.4919 148.0037,-78.3218 158.3874,-80.4266 157.4335,-73.4919"/>
</g>
<!-- Node33 -->
<g id="node10" class="node">
<title>Node33</title>
<g id="a_node10"><a xlink:href="namespaceeg__sl__wind__w__mod.xhtml#ad0bc776e2180e669a7b22fc37c8ab5f2" target="_top" xlink:title="eg_sl_wind_w_mod::eg\l_sl_wind_w">
<polygon fill="#ffffff" stroke="#000000" points="184,-.5 184,-30.5 313,-30.5 313,-.5 184,-.5"/>
<text text-anchor="start" x="192" y="-18.5" font-family="Helvetica,sans-Serif" font-size="10.00" fill="#000000">eg_sl_wind_w_mod::eg</text>
<text text-anchor="middle" x="248.5" y="-7.5" font-family="Helvetica,sans-Serif" font-size="10.00" fill="#000000">_sl_wind_w</text>
</a>
</g>
</g>
<!-- Node24&#45;&gt;Node33 -->
<g id="edge11" class="edge">
<title>Node24&#45;&gt;Node33</title>
<path fill="none" stroke="#191970" d="M115.8315,-69.1236C136.2588,-59.8524 161.2759,-48.7783 184,-39.5 191.3006,-36.5192 199.1239,-33.4801 206.7153,-30.611"/>
<polygon fill="#191970" stroke="#191970" points="114.1459,-66.0455 106.4989,-73.3786 117.0499,-72.4147 114.1459,-66.0455"/>
</g>
<!-- Node26 -->
<g id="node3" class="node">
<title>Node26</title>
<g id="a_node3"><a xlink:href="atm__step__4_a_8f90.xhtml#a2319aa4963e90c64cd78bdcd5f481095" target="_top" xlink:title="Perform a 1&#45;timestep integration of the Atmosphere Model. ">
<polygon fill="#ffffff" stroke="#000000" points="528,-101 528,-120 608,-120 608,-101 528,-101"/>
<text text-anchor="middle" x="568" y="-108" font-family="Helvetica,sans-Serif" font-size="10.00" fill="#000000">atm_step_4a</text>
</a>
</g>
</g>
<!-- Node25&#45;&gt;Node26 -->
<g id="edge2" class="edge">
<title>Node25&#45;&gt;Node26</title>
<path fill="none" stroke="#191970" d="M471.9197,-132.6473C490.2472,-128.4227 510.6061,-123.7298 527.8487,-119.7552"/>
<polygon fill="#191970" stroke="#191970" points="470.9378,-129.2818 461.9795,-134.9386 472.5102,-136.1029 470.9378,-129.2818"/>
</g>
<!-- Node27 -->
<g id="node4" class="node">
<title>Node27</title>
<g id="a_node4"><a xlink:href="u__model__4_a_8f90.xhtml#afa05064dab5eba198b461d0928767c7e" target="_top" xlink:title="LL Subroutine: U_MODEL_4A (ENDGAME VERSION) !&gt;LL. ">
<polygon fill="#ffffff" stroke="#000000" points="644,-101 644,-120 720,-120 720,-101 644,-101"/>
<text text-anchor="middle" x="682" y="-108" font-family="Helvetica,sans-Serif" font-size="10.00" fill="#000000">u_model_4a</text>
</a>
</g>
</g>
<!-- Node26&#45;&gt;Node27 -->
<g id="edge3" class="edge">
<title>Node26&#45;&gt;Node27</title>
<path fill="none" stroke="#191970" d="M618.3998,-110.5C626.891,-110.5 635.5803,-110.5 643.7002,-110.5"/>
<polygon fill="#191970" stroke="#191970" points="618.1922,-107.0001 608.1921,-110.5 618.1921,-114.0001 618.1922,-107.0001"/>
</g>
<!-- Node28 -->
<g id="node5" class="node">
<title>Node28</title>
<g id="a_node5"><a xlink:href="um__shell_8f90.xhtml#a8c9bd25362824a5c301376ecb5ed5c27" target="_top" xlink:title="Subroutine: UM_SHELL !&gt; ">
<polygon fill="#ffffff" stroke="#000000" points="756,-101 756,-120 817,-120 817,-101 756,-101"/>
<text text-anchor="middle" x="786.5" y="-108" font-family="Helvetica,sans-Serif" font-size="10.00" fill="#000000">um_shell</text>
</a>
</g>
</g>
<!-- Node27&#45;&gt;Node28 -->
<g id="edge4" class="edge">
<title>Node27&#45;&gt;Node28</title>
<path fill="none" stroke="#191970" d="M730.1579,-110.5C738.9023,-110.5 747.8005,-110.5 755.8647,-110.5"/>
<polygon fill="#191970" stroke="#191970" points="730.0225,-107.0001 720.0225,-110.5 730.0225,-114.0001 730.0225,-107.0001"/>
</g>
<!-- Node29 -->
<g id="node6" class="node">
<title>Node29</title>
<g id="a_node6"><a xlink:href="um__main_8f90.xhtml#a8f2d13215621443a5313261c282f098b" target="_top" xlink:title="Code Owner: See Unified Model Code Owner&#39;s HTML page. ">
<polygon fill="#ffffff" stroke="#000000" points="853,-101 853,-120 915,-120 915,-101 853,-101"/>
<text text-anchor="middle" x="884" y="-108" font-family="Helvetica,sans-Serif" font-size="10.00" fill="#000000">um_main</text>
</a>
</g>
</g>
<!-- Node28&#45;&gt;Node29 -->
<g id="edge5" class="edge">
<title>Node28&#45;&gt;Node29</title>
<path fill="none" stroke="#191970" d="M827.2756,-110.5C835.8294,-110.5 844.72,-110.5 852.8551,-110.5"/>
<polygon fill="#191970" stroke="#191970" points="827.0821,-107.0001 817.0821,-110.5 827.0821,-114.0001 827.0821,-107.0001"/>
</g>
<!-- Node31 -->
<g id="node8" class="node">
<title>Node31</title>
<g id="a_node8"><a xlink:href="namespaceeg__sl__full__wind__mod.xhtml#a4ff349303540ec9ebd268eb6871c2485" target="_top" xlink:title="eg_sl_full_wind_mod\l::eg_sl_full_wind">
<polygon fill="#ffffff" stroke="#000000" points="361,-73.5 361,-103.5 480,-103.5 480,-73.5 361,-73.5"/>
<text text-anchor="start" x="369" y="-91.5" font-family="Helvetica,sans-Serif" font-size="10.00" fill="#000000">eg_sl_full_wind_mod</text>
<text text-anchor="middle" x="420.5" y="-80.5" font-family="Helvetica,sans-Serif" font-size="10.00" fill="#000000">::eg_sl_full_wind</text>
</a>
</g>
</g>
<!-- Node30&#45;&gt;Node31 -->
<g id="edge7" class="edge">
<title>Node30&#45;&gt;Node31</title>
<path fill="none" stroke="#191970" d="M322.2965,-102.7738C335.1916,-100.8995 348.4604,-98.9709 360.9112,-97.1612"/>
<polygon fill="#191970" stroke="#191970" points="321.4503,-99.3599 312.0578,-104.262 322.4572,-106.2871 321.4503,-99.3599"/>
</g>
<!-- Node31&#45;&gt;Node26 -->
<g id="edge8" class="edge">
<title>Node31&#45;&gt;Node26</title>
<path fill="none" stroke="#191970" d="M490.2817,-98.9081C503.0962,-100.8194 516.0709,-102.7546 527.6523,-104.482"/>
<polygon fill="#191970" stroke="#191970" points="490.4757,-95.3984 480.0687,-97.3848 489.443,-102.3218 490.4757,-95.3984"/>
</g>
<!-- Node32&#45;&gt;Node31 -->
<g id="edge10" class="edge">
<title>Node32&#45;&gt;Node31</title>
<path fill="none" stroke="#191970" d="M322.2965,-74.7972C335.1916,-76.5965 348.4604,-78.448 360.9112,-80.1853"/>
<polygon fill="#191970" stroke="#191970" points="322.4455,-71.2842 312.0578,-73.3685 321.4781,-78.217 322.4455,-71.2842"/>
</g>
<!-- Node33&#45;&gt;Node31 -->
<g id="edge12" class="edge">
<title>Node33&#45;&gt;Node31</title>
<path fill="none" stroke="#191970" d="M299.9759,-34.2764C304.3967,-36.003 308.7868,-37.7585 313,-39.5 338.779,-50.1554 367.5072,-63.3185 388.7755,-73.3177"/>
<polygon fill="#191970" stroke="#191970" points="300.896,-30.8804 290.3061,-30.5591 298.3842,-37.4143 300.896,-30.8804"/>
</g>
</g>
</svg>
        <g id="navigator" transform="translate(0 0)" fill="#404254">
                <rect fill="#f2f5e9" fill-opacity="0.5" stroke="#606060" stroke-width=".5" x="0" y="0" width="60" height="60"/>
                <use id="zoomplus" xlink:href="#zoomPlus" x="17" y="9" onmousedown="handleZoom(evt,'in')"/>
                <use id="zoomminus" xlink:href="#zoomMin" x="42" y="9" onmousedown="handleZoom(evt,'out')"/>
                <use id="reset" xlink:href="#resetDef" x="30" y="36" onmousedown="handleReset()"/>
                <g id="arrowUp" xlink:href="#dirArrow" transform="translate(30 24)" onmousedown="handlePan(0,-1)">
                  <use xlink:href="#rim" fill="#404040">
                        <set attributeName="fill" to="#808080" begin="arrowUp.mouseover" end="arrowUp.mouseout"/>
                  </use>
                  <path fill="none" stroke="white" stroke-width="1.5" d="M0,-3.0v7 M-2.5,-0.5L0,-3.0L2.5,-0.5"/>
                </g>
                <g id="arrowRight" xlink:href="#dirArrow" transform="rotate(90) translate(36 -43)" onmousedown="handlePan(1,0)">
                  <use xlink:href="#rim" fill="#404040">
                        <set attributeName="fill" to="#808080" begin="arrowRight.mouseover" end="arrowRight.mouseout"/>
                  </use>
                  <path fill="none" stroke="white" stroke-width="1.5" d="M0,-3.0v7 M-2.5,-0.5L0,-3.0L2.5,-0.5"/>
                </g>
                <g id="arrowDown" xlink:href="#dirArrow" transform="rotate(180) translate(-30 -48)" onmousedown="handlePan(0,1)">
                  <use xlink:href="#rim" fill="#404040">
                        <set attributeName="fill" to="#808080" begin="arrowDown.mouseover" end="arrowDown.mouseout"/>
                  </use>
                  <path fill="none" stroke="white" stroke-width="1.5" d="M0,-3.0v7 M-2.5,-0.5L0,-3.0L2.5,-0.5"/>
                </g>
                <g id="arrowLeft" xlink:href="#dirArrow" transform="rotate(270) translate(-36 17)" onmousedown="handlePan(-1,0)">
                  <use xlink:href="#rim" fill="#404040">
                        <set attributeName="fill" to="#808080" begin="arrowLeft.mouseover" end="arrowLeft.mouseout"/>
                  </use>
                  <path fill="none" stroke="white" stroke-width="1.5" d="M0,-3.0v7 M-2.5,-0.5L0,-3.0L2.5,-0.5"/>
                </g>
        </g>
        <svg viewBox="0 0 15 15" width="100%" height="30px" preserveAspectRatio="xMaxYMin meet">
         <g id="arrow_out" transform="scale(0.3 0.3)">
          <a xlink:href="namespacedeparture__point__eta__mod_a84e8464c7a77a0d1b75b438d154dc1ba_icgraph_org.svg" target="_base">
           <rect id="button" ry="5" rx="5" y="6" x="6" height="38" width="38"
                fill="#f2f5e9" fill-opacity="0.5" stroke="#606060" stroke-width="1.0"/>
           <path id="arrow"
             d="M 11.500037,31.436501 C 11.940474,20.09759 22.043105,11.32322 32.158766,21.979434 L 37.068811,17.246167 C 37.068811,17.246167 37.088388,32 37.088388,32 L 22.160133,31.978069 C 22.160133,31.978069 26.997745,27.140456 26.997745,27.140456 C 18.528582,18.264221 13.291696,25.230495 11.500037,31.436501 z"
             style="fill:#404040;"/>
          </a>
         </g>
        </svg>
</svg>
