<?xml version="1.0" encoding="UTF-8" standalone="no"?>
<!DOCTYPE svg PUBLIC "-//W3C//DTD SVG 1.1//EN"
 "http://www.w3.org/Graphics/SVG/1.1/DTD/svg11.dtd">
<!-- Generated by graphviz version 2.40.1 (20161225.0304)
 -->
<!-- Title: rcf_setup_intc_mod::rcf_setup_intc Pages: 1 -->
<svg width="541pt" height="39pt"
 viewBox="0.00 0.00 541.00 39.00" xmlns="http://www.w3.org/2000/svg" xmlns:xlink="http://www.w3.org/1999/xlink">
<g id="graph0" class="graph" transform="scale(1 1) rotate(0) translate(4 35)">
<title>rcf_setup_intc_mod::rcf_setup_intc</title>
<polygon fill="#ffffff" stroke="transparent" points="-4,4 -4,-35 537,-35 537,4 -4,4"/>
<!-- Node5 -->
<g id="node1" class="node">
<title>Node5</title>
<polygon fill="#bfbfbf" stroke="#000000" points="0,-.5 0,-30.5 112,-30.5 112,-.5 0,-.5"/>
<text text-anchor="start" x="8" y="-18.5" font-family="Helvetica,sans-Serif" font-size="10.00" fill="#000000">rcf_setup_intc_mod</text>
<text text-anchor="middle" x="56" y="-7.5" font-family="Helvetica,sans-Serif" font-size="10.00" fill="#000000">::rcf_setup_intc</text>
</g>
<!-- Node6 -->
<g id="node2" class="node">
<title>Node6</title>
<g id="a_node2"><a xlink:href="namespacercf__setup__header__mod.xhtml#af5f48a19184bba024496d1fa6b62fd80" target="_top" xlink:title="Subroutine Rcf_Setup_Header &#45; sets up the output dump header. ">
<polygon fill="#ffffff" stroke="#000000" points="148,-.5 148,-30.5 276,-30.5 276,-.5 148,-.5"/>
<text text-anchor="start" x="156" y="-18.5" font-family="Helvetica,sans-Serif" font-size="10.00" fill="#000000">rcf_setup_header_mod</text>
<text text-anchor="middle" x="212" y="-7.5" font-family="Helvetica,sans-Serif" font-size="10.00" fill="#000000">::rcf_setup_header</text>
</a>
</g>
</g>
<!-- Node5&#45;&gt;Node6 -->
<g id="edge1" class="edge">
<title>Node5&#45;&gt;Node6</title>
<path fill="none" stroke="#191970" d="M122.4545,-15.5C130.8599,-15.5 139.4481,-15.5 147.8172,-15.5"/>
<polygon fill="#191970" stroke="#191970" points="122.3196,-12.0001 112.3196,-15.5 122.3195,-19.0001 122.3196,-12.0001"/>
</g>
<!-- Node7 -->
<g id="node3" class="node">
<title>Node7</title>
<g id="a_node3"><a xlink:href="namespacercf__control__mod.xhtml#a3ac6d1c6311ded848ddd750726da301a" target="_top" xlink:title="Subroutine Rcf_Control &#45; main control routine. ">
<polygon fill="#ffffff" stroke="#000000" points="312,-.5 312,-30.5 426,-30.5 426,-.5 312,-.5"/>
<text text-anchor="start" x="320" y="-18.5" font-family="Helvetica,sans-Serif" font-size="10.00" fill="#000000">rcf_control_mod::rcf</text>
<text text-anchor="middle" x="369" y="-7.5" font-family="Helvetica,sans-Serif" font-size="10.00" fill="#000000">_control</text>
</a>
</g>
</g>
<!-- Node6&#45;&gt;Node7 -->
<g id="edge2" class="edge">
<title>Node6&#45;&gt;Node7</title>
<path fill="none" stroke="#191970" d="M286.5277,-15.5C294.9499,-15.5 303.4333,-15.5 311.5887,-15.5"/>
<polygon fill="#191970" stroke="#191970" points="286.3109,-12.0001 276.3109,-15.5 286.3109,-19.0001 286.3109,-12.0001"/>
</g>
<!-- Node8 -->
<g id="node4" class="node">
<title>Node8</title>
<g id="a_node4"><a xlink:href="reconfigure_8f90.xhtml#a55389899cfceedbb4b0f908c73988c0c" target="_top" xlink:title="Top level program for reconfiguration. ">
<polygon fill="#ffffff" stroke="#000000" points="462,-6 462,-25 533,-25 533,-6 462,-6"/>
<text text-anchor="middle" x="497.5" y="-13" font-family="Helvetica,sans-Serif" font-size="10.00" fill="#000000">reconfigure</text>
</a>
</g>
</g>
<!-- Node7&#45;&gt;Node8 -->
<g id="edge3" class="edge">
<title>Node7&#45;&gt;Node8</title>
<path fill="none" stroke="#191970" d="M436.159,-15.5C445.0636,-15.5 453.8936,-15.5 461.9628,-15.5"/>
<polygon fill="#191970" stroke="#191970" points="436.1103,-12.0001 426.1103,-15.5 436.1103,-19.0001 436.1103,-12.0001"/>
</g>
</g>
</svg>
