<?xml version="1.0" encoding="UTF-8" standalone="no"?>
<!DOCTYPE svg PUBLIC "-//W3C//DTD SVG 1.1//EN"
 "http://www.w3.org/Graphics/SVG/1.1/DTD/svg11.dtd">
<!-- Generated by graphviz version 2.40.1 (20161225.0304)
 -->
<!-- Title: lsp_evap_mod::lsp_evap Pages: 1 -->
<svg width="1281pt" height="104pt"
 viewBox="0.00 0.00 1281.00 104.00" xmlns="http://www.w3.org/2000/svg" xmlns:xlink="http://www.w3.org/1999/xlink">
<g id="graph0" class="graph" transform="scale(1 1) rotate(0) translate(4 100)">
<title>lsp_evap_mod::lsp_evap</title>
<polygon fill="#ffffff" stroke="transparent" points="-4,4 -4,-100 1277,-100 1277,4 -4,4"/>
<!-- Node1 -->
<g id="node1" class="node">
<title>Node1</title>
<polygon fill="#bfbfbf" stroke="#000000" points="0,-38.5 0,-57.5 137,-57.5 137,-38.5 0,-38.5"/>
<text text-anchor="middle" x="68.5" y="-45.5" font-family="Helvetica,sans-Serif" font-size="10.00" fill="#000000">lsp_evap_mod::lsp_evap</text>
</g>
<!-- Node2 -->
<g id="node2" class="node">
<title>Node2</title>
<g id="a_node2"><a xlink:href="namespacelsp__ice__mod.xhtml#aac8bef12b741ea212c600941cea402cd" target="_top" xlink:title="lsp_ice_mod::lsp_ice">
<polygon fill="#ffffff" stroke="#000000" points="173,-38.5 173,-57.5 290,-57.5 290,-38.5 173,-38.5"/>
<text text-anchor="middle" x="231.5" y="-45.5" font-family="Helvetica,sans-Serif" font-size="10.00" fill="#000000">lsp_ice_mod::lsp_ice</text>
</a>
</g>
</g>
<!-- Node1&#45;&gt;Node2 -->
<g id="edge1" class="edge">
<title>Node1&#45;&gt;Node2</title>
<path fill="none" stroke="#191970" d="M147.2773,-48C155.9367,-48 164.6371,-48 172.9869,-48"/>
<polygon fill="#191970" stroke="#191970" points="147.1543,-44.5001 137.1543,-48 147.1542,-51.5001 147.1543,-44.5001"/>
</g>
<!-- Node3 -->
<g id="node3" class="node">
<title>Node3</title>
<g id="a_node3"><a xlink:href="namespacels__ppnc__mod.xhtml#a739c63dbab5632af7acbf3de0dc7fe9b" target="_top" xlink:title="ls_ppnc_mod::ls_ppnc">
<polygon fill="#ffffff" stroke="#000000" points="326,-38.5 326,-57.5 449,-57.5 449,-38.5 326,-38.5"/>
<text text-anchor="middle" x="387.5" y="-45.5" font-family="Helvetica,sans-Serif" font-size="10.00" fill="#000000">ls_ppnc_mod::ls_ppnc</text>
</a>
</g>
</g>
<!-- Node2&#45;&gt;Node3 -->
<g id="edge2" class="edge">
<title>Node2&#45;&gt;Node3</title>
<path fill="none" stroke="#191970" d="M300.2822,-48C308.7676,-48 317.4007,-48 325.772,-48"/>
<polygon fill="#191970" stroke="#191970" points="300.0325,-44.5001 290.0325,-48 300.0324,-51.5001 300.0325,-44.5001"/>
</g>
<!-- Node4 -->
<g id="node4" class="node">
<title>Node4</title>
<g id="a_node4"><a xlink:href="namespacels__ppn__mod.xhtml#a04a50a9f284f7ebb1acbb206ac81cdb9" target="_top" xlink:title="ls_ppn_mod::ls_ppn">
<polygon fill="#ffffff" stroke="#000000" points="485,-38.5 485,-57.5 598,-57.5 598,-38.5 485,-38.5"/>
<text text-anchor="middle" x="541.5" y="-45.5" font-family="Helvetica,sans-Serif" font-size="10.00" fill="#000000">ls_ppn_mod::ls_ppn</text>
</a>
</g>
</g>
<!-- Node3&#45;&gt;Node4 -->
<g id="edge3" class="edge">
<title>Node3&#45;&gt;Node4</title>
<path fill="none" stroke="#191970" d="M459.5049,-48C467.9673,-48 476.5105,-48 484.7234,-48"/>
<polygon fill="#191970" stroke="#191970" points="459.2504,-44.5001 449.2504,-48 459.2503,-51.5001 459.2504,-44.5001"/>
</g>
<!-- Node5 -->
<g id="node5" class="node">
<title>Node5</title>
<g id="a_node5"><a xlink:href="microphys__ctl_8f90.xhtml#a84b5cd5d89cbd475c33ce5b23e71d1d5" target="_top" xlink:title="Subroutine microphys_ctl. ">
<polygon fill="#ffffff" stroke="#000000" points="634,-38.5 634,-57.5 719,-57.5 719,-38.5 634,-38.5"/>
<text text-anchor="middle" x="676.5" y="-45.5" font-family="Helvetica,sans-Serif" font-size="10.00" fill="#000000">microphys_ctl</text>
</a>
</g>
</g>
<!-- Node4&#45;&gt;Node5 -->
<g id="edge4" class="edge">
<title>Node4&#45;&gt;Node5</title>
<path fill="none" stroke="#191970" d="M608.4047,-48C616.994,-48 625.5961,-48 633.6548,-48"/>
<polygon fill="#191970" stroke="#191970" points="608.3609,-44.5001 598.3609,-48 608.3608,-51.5001 608.3609,-44.5001"/>
</g>
<!-- Node6 -->
<g id="node6" class="node">
<title>Node6</title>
<g id="a_node6"><a xlink:href="atmos__physics1_8f90.xhtml#ae8d55d89da6ed68f5f8d7e9eec99bc76" target="_top" xlink:title="Interface to Atmos Physics parametrizations before S&#45;L advection. ">
<polygon fill="#ffffff" stroke="#000000" points="755,-38.5 755,-57.5 850,-57.5 850,-38.5 755,-38.5"/>
<text text-anchor="middle" x="802.5" y="-45.5" font-family="Helvetica,sans-Serif" font-size="10.00" fill="#000000">atmos_physics1</text>
</a>
</g>
</g>
<!-- Node5&#45;&gt;Node6 -->
<g id="edge5" class="edge">
<title>Node5&#45;&gt;Node6</title>
<path fill="none" stroke="#191970" d="M729.2722,-48C737.7007,-48 746.3801,-48 754.6851,-48"/>
<polygon fill="#191970" stroke="#191970" points="729.1579,-44.5001 719.1579,-48 729.1578,-51.5001 729.1579,-44.5001"/>
</g>
<!-- Node7 -->
<g id="node7" class="node">
<title>Node7</title>
<g id="a_node7"><a xlink:href="atm__step_8f90.xhtml#ac0ee2467a1a9959b7065fdb8fd27bce4" target="_top" xlink:title="Perform a 1&#45;timestep integration of the Atmosphere Model. ">
<polygon fill="#ffffff" stroke="#000000" points="895,-76.5 895,-95.5 957,-95.5 957,-76.5 895,-76.5"/>
<text text-anchor="middle" x="926" y="-83.5" font-family="Helvetica,sans-Serif" font-size="10.00" fill="#000000">atm_step</text>
</a>
</g>
</g>
<!-- Node6&#45;&gt;Node7 -->
<g id="edge6" class="edge">
<title>Node6&#45;&gt;Node7</title>
<path fill="none" stroke="#191970" d="M843.2397,-60.5353C860.0405,-65.7048 879.197,-71.5991 894.8457,-76.4141"/>
<polygon fill="#191970" stroke="#191970" points="844.2514,-57.1847 833.6643,-57.589 842.1927,-63.8752 844.2514,-57.1847"/>
</g>
<!-- Node11 -->
<g id="node11" class="node">
<title>Node11</title>
<g id="a_node11"><a xlink:href="atm__step__4_a_8f90.xhtml#a2319aa4963e90c64cd78bdcd5f481095" target="_top" xlink:title="Perform a 1&#45;timestep integration of the Atmosphere Model. ">
<polygon fill="#ffffff" stroke="#000000" points="886,-38.5 886,-57.5 966,-57.5 966,-38.5 886,-38.5"/>
<text text-anchor="middle" x="926" y="-45.5" font-family="Helvetica,sans-Serif" font-size="10.00" fill="#000000">atm_step_4a</text>
</a>
</g>
</g>
<!-- Node6&#45;&gt;Node11 -->
<g id="edge10" class="edge">
<title>Node6&#45;&gt;Node11</title>
<path fill="none" stroke="#191970" d="M860.3434,-48C869.0185,-48 877.7967,-48 885.9897,-48"/>
<polygon fill="#191970" stroke="#191970" points="860.2484,-44.5001 850.2483,-48 860.2483,-51.5001 860.2484,-44.5001"/>
</g>
<!-- Node13 -->
<g id="node13" class="node">
<title>Node13</title>
<g id="a_node13"><a xlink:href="scm__main_8f90.xhtml#a2c730136605550612e094ce51d33a2a5" target="_top" xlink:title="*********************************COPYRIGHT********************************* ">
<polygon fill="#ffffff" stroke="#000000" points="892.5,-.5 892.5,-19.5 959.5,-19.5 959.5,-.5 892.5,-.5"/>
<text text-anchor="middle" x="926" y="-7.5" font-family="Helvetica,sans-Serif" font-size="10.00" fill="#000000">scm_main</text>
</a>
</g>
</g>
<!-- Node6&#45;&gt;Node13 -->
<g id="edge13" class="edge">
<title>Node6&#45;&gt;Node13</title>
<path fill="none" stroke="#191970" d="M843.2397,-35.4647C860.0405,-30.2952 879.197,-24.4009 894.8457,-19.5859"/>
<polygon fill="#191970" stroke="#191970" points="842.1927,-32.1248 833.6643,-38.411 844.2514,-38.8153 842.1927,-32.1248"/>
</g>
<!-- Node8 -->
<g id="node8" class="node">
<title>Node8</title>
<g id="a_node8"><a xlink:href="u__model_8f90.xhtml#ada0cd2ce4699433bf0f9adbd882c8eec" target="_top" xlink:title="Subroutine: U_MODEL &#45;!&gt; ">
<polygon fill="#ffffff" stroke="#000000" points="1010.5,-76.5 1010.5,-95.5 1069.5,-95.5 1069.5,-76.5 1010.5,-76.5"/>
<text text-anchor="middle" x="1040" y="-83.5" font-family="Helvetica,sans-Serif" font-size="10.00" fill="#000000">u_model</text>
</a>
</g>
</g>
<!-- Node7&#45;&gt;Node8 -->
<g id="edge7" class="edge">
<title>Node7&#45;&gt;Node8</title>
<path fill="none" stroke="#191970" d="M967.2532,-86C981.5539,-86 997.2895,-86 1010.4568,-86"/>
<polygon fill="#191970" stroke="#191970" points="967.151,-82.5001 957.151,-86 967.151,-89.5001 967.151,-82.5001"/>
</g>
<!-- Node9 -->
<g id="node9" class="node">
<title>Node9</title>
<g id="a_node9"><a xlink:href="um__shell_8f90.xhtml#a8c9bd25362824a5c301376ecb5ed5c27" target="_top" xlink:title="Subroutine: UM_SHELL !&gt; ">
<polygon fill="#ffffff" stroke="#000000" points="1114,-57.5 1114,-76.5 1175,-76.5 1175,-57.5 1114,-57.5"/>
<text text-anchor="middle" x="1144.5" y="-64.5" font-family="Helvetica,sans-Serif" font-size="10.00" fill="#000000">um_shell</text>
</a>
</g>
</g>
<!-- Node8&#45;&gt;Node9 -->
<g id="edge8" class="edge">
<title>Node8&#45;&gt;Node9</title>
<path fill="none" stroke="#191970" d="M1079.701,-78.7816C1090.951,-76.7362 1103.0261,-74.5407 1113.6677,-72.6059"/>
<polygon fill="#191970" stroke="#191970" points="1078.8786,-75.3737 1069.666,-80.6062 1080.1308,-82.2608 1078.8786,-75.3737"/>
</g>
<!-- Node10 -->
<g id="node10" class="node">
<title>Node10</title>
<g id="a_node10"><a xlink:href="um__main_8f90.xhtml#a8f2d13215621443a5313261c282f098b" target="_top" xlink:title="Code Owner: See Unified Model Code Owner&#39;s HTML page. ">
<polygon fill="#ffffff" stroke="#000000" points="1211,-57.5 1211,-76.5 1273,-76.5 1273,-57.5 1211,-57.5"/>
<text text-anchor="middle" x="1242" y="-64.5" font-family="Helvetica,sans-Serif" font-size="10.00" fill="#000000">um_main</text>
</a>
</g>
</g>
<!-- Node9&#45;&gt;Node10 -->
<g id="edge9" class="edge">
<title>Node9&#45;&gt;Node10</title>
<path fill="none" stroke="#191970" d="M1185.2756,-67C1193.8294,-67 1202.72,-67 1210.8551,-67"/>
<polygon fill="#191970" stroke="#191970" points="1185.0821,-63.5001 1175.0821,-67 1185.0821,-70.5001 1185.0821,-63.5001"/>
</g>
<!-- Node12 -->
<g id="node12" class="node">
<title>Node12</title>
<g id="a_node12"><a xlink:href="u__model__4_a_8f90.xhtml#afa05064dab5eba198b461d0928767c7e" target="_top" xlink:title="LL Subroutine: U_MODEL_4A (ENDGAME VERSION) !&gt;LL. ">
<polygon fill="#ffffff" stroke="#000000" points="1002,-38.5 1002,-57.5 1078,-57.5 1078,-38.5 1002,-38.5"/>
<text text-anchor="middle" x="1040" y="-45.5" font-family="Helvetica,sans-Serif" font-size="10.00" fill="#000000">u_model_4a</text>
</a>
</g>
</g>
<!-- Node11&#45;&gt;Node12 -->
<g id="edge11" class="edge">
<title>Node11&#45;&gt;Node12</title>
<path fill="none" stroke="#191970" d="M976.3998,-48C984.891,-48 993.5803,-48 1001.7002,-48"/>
<polygon fill="#191970" stroke="#191970" points="976.1922,-44.5001 966.1921,-48 976.1921,-51.5001 976.1922,-44.5001"/>
</g>
<!-- Node12&#45;&gt;Node9 -->
<g id="edge12" class="edge">
<title>Node12&#45;&gt;Node9</title>
<path fill="none" stroke="#191970" d="M1087.8728,-56.7041C1096.7087,-58.3107 1105.7128,-59.9478 1113.8647,-61.43"/>
<polygon fill="#191970" stroke="#191970" points="1088.4873,-53.2586 1078.0225,-54.9132 1087.2351,-60.1457 1088.4873,-53.2586"/>
</g>
<!-- Node14 -->
<g id="node14" class="node">
<title>Node14</title>
<g id="a_node14"><a xlink:href="scm__shell_8f90.xhtml#ab15255829ee7b5be626b1c0861b40c8d" target="_top" xlink:title="scm_shell is the main calling program for the Single Column Model. ">
<polygon fill="#ffffff" stroke="#000000" points="1007.5,-.5 1007.5,-19.5 1072.5,-19.5 1072.5,-.5 1007.5,-.5"/>
<text text-anchor="middle" x="1040" y="-7.5" font-family="Helvetica,sans-Serif" font-size="10.00" fill="#000000">scm_shell</text>
</a>
</g>
</g>
<!-- Node13&#45;&gt;Node14 -->
<g id="edge14" class="edge">
<title>Node13&#45;&gt;Node14</title>
<path fill="none" stroke="#191970" d="M969.8248,-10C982.3307,-10 995.7319,-10 1007.4371,-10"/>
<polygon fill="#191970" stroke="#191970" points="969.5872,-6.5001 959.5872,-10 969.5871,-13.5001 969.5872,-6.5001"/>
</g>
</g>
</svg>
