<?xml version="1.0" encoding="UTF-8" standalone="no"?>
<!DOCTYPE svg PUBLIC "-//W3C//DTD SVG 1.1//EN"
 "http://www.w3.org/Graphics/SVG/1.1/DTD/svg11.dtd">
<!-- Generated by graphviz version 2.40.1 (20161225.0304)
 -->
<!-- Title: rcf_gather_ocean_lbcs_mod::rcf_gather_ocean_lbcs Pages: 1 -->
<svg width="799pt" height="116pt"
 viewBox="0.00 0.00 799.00 115.50" xmlns="http://www.w3.org/2000/svg" xmlns:xlink="http://www.w3.org/1999/xlink">
<g id="graph0" class="graph" transform="scale(1 1) rotate(0) translate(4 111.5)">
<title>rcf_gather_ocean_lbcs_mod::rcf_gather_ocean_lbcs</title>
<polygon fill="#ffffff" stroke="transparent" points="-4,4 -4,-111.5 795,-111.5 795,4 -4,4"/>
<!-- Node0 -->
<g id="node1" class="node">
<title>Node0</title>
<polygon fill="#bfbfbf" stroke="#000000" points="0,-55 0,-85 158,-85 158,-55 0,-55"/>
<text text-anchor="start" x="8" y="-73" font-family="Helvetica,sans-Serif" font-size="10.00" fill="#000000">rcf_gather_ocean_lbcs</text>
<text text-anchor="middle" x="79" y="-62" font-family="Helvetica,sans-Serif" font-size="10.00" fill="#000000">_mod::rcf_gather_ocean_lbcs</text>
</g>
<!-- Node1 -->
<g id="node2" class="node">
<title>Node1</title>
<g id="a_node2"><a xlink:href="namespacercf__address__length__mod.xhtml#ac762ac17a67256a8b206cedfe7ace7e3" target="_top" xlink:title="Subroutine Rcf_Address_Length &#45; determines field size. ">
<polygon fill="#ffffff" stroke="#000000" points="194,-55 194,-85 336,-85 336,-55 194,-55"/>
<text text-anchor="start" x="202" y="-73" font-family="Helvetica,sans-Serif" font-size="10.00" fill="#000000">rcf_address_length</text>
<text text-anchor="middle" x="265" y="-62" font-family="Helvetica,sans-Serif" font-size="10.00" fill="#000000">_mod::rcf_address_length</text>
</a>
</g>
</g>
<!-- Node0&#45;&gt;Node1 -->
<g id="edge1" class="edge">
<title>Node0&#45;&gt;Node1</title>
<path fill="none" stroke="#191970" d="M158.1504,-70C166.5858,-70 175.1767,-70 183.637,-70"/>
<polygon fill="#191970" stroke="#191970" points="183.8728,-73.5001 193.8728,-70 183.8727,-66.5001 183.8728,-73.5001"/>
</g>
<!-- Node2 -->
<g id="node3" class="node">
<title>Node2</title>
<g id="a_node3"><a xlink:href="namespacercf__level__code__mod.xhtml#ab662837c0414874b83675887f890c6ab" target="_top" xlink:title="Sets ILOUT to an appropriate level size according to the value of ILIN. ">
<polygon fill="#ffffff" stroke="#000000" points="372,-77 372,-107 486,-107 486,-77 372,-77"/>
<text text-anchor="start" x="380" y="-95" font-family="Helvetica,sans-Serif" font-size="10.00" fill="#000000">rcf_level_code_mod</text>
<text text-anchor="middle" x="429" y="-84" font-family="Helvetica,sans-Serif" font-size="10.00" fill="#000000">::rcf_level_code</text>
</a>
</g>
</g>
<!-- Node1&#45;&gt;Node2 -->
<g id="edge2" class="edge">
<title>Node1&#45;&gt;Node2</title>
<path fill="none" stroke="#191970" d="M336.4557,-79.5855C344.8015,-80.7051 353.2956,-81.8445 361.5842,-82.9564"/>
<polygon fill="#191970" stroke="#191970" points="361.1922,-86.4351 371.5688,-84.2958 362.1229,-79.4972 361.1922,-86.4351"/>
</g>
<!-- Node3 -->
<g id="node4" class="node">
<title>Node3</title>
<g id="a_node4"><a xlink:href="lltorc_8f90.xhtml#a1b56b2e3d06737db1e41ebaca802bce6" target="_top" xlink:title="Convert lat/long specification to row/column specification. ">
<polygon fill="#ffffff" stroke="#000000" points="408.5,-38.5 408.5,-57.5 449.5,-57.5 449.5,-38.5 408.5,-38.5"/>
<text text-anchor="middle" x="429" y="-45.5" font-family="Helvetica,sans-Serif" font-size="10.00" fill="#000000">lltorc</text>
</a>
</g>
</g>
<!-- Node1&#45;&gt;Node3 -->
<g id="edge3" class="edge">
<title>Node1&#45;&gt;Node3</title>
<path fill="none" stroke="#191970" d="M336.4557,-60.4145C358.0432,-57.5186 380.6221,-54.4897 398.0731,-52.1487"/>
<polygon fill="#191970" stroke="#191970" points="398.7756,-55.5859 408.2215,-50.7874 397.8449,-48.6481 398.7756,-55.5859"/>
</g>
<!-- Node4 -->
<g id="node5" class="node">
<title>Node4</title>
<g id="a_node5"><a xlink:href="namespacercf__global__to__local__mod.xhtml#a77b8a85bffb7822e380fae0f558091d1" target="_top" xlink:title="rcf_global_to_local\l_mod::rcf_get_fld_type">
<polygon fill="#ffffff" stroke="#000000" points="522,-77 522,-107 650,-107 650,-77 522,-77"/>
<text text-anchor="start" x="530" y="-95" font-family="Helvetica,sans-Serif" font-size="10.00" fill="#000000">rcf_global_to_local</text>
<text text-anchor="middle" x="586" y="-84" font-family="Helvetica,sans-Serif" font-size="10.00" fill="#000000">_mod::rcf_get_fld_type</text>
</a>
</g>
</g>
<!-- Node3&#45;&gt;Node4 -->
<g id="edge4" class="edge">
<title>Node3&#45;&gt;Node4</title>
<path fill="none" stroke="#191970" d="M449.525,-53.7522C468.0981,-58.9574 496.4542,-66.9044 522.5164,-74.2084"/>
<polygon fill="#191970" stroke="#191970" points="521.794,-77.6407 532.3675,-76.9692 523.683,-70.9004 521.794,-77.6407"/>
</g>
<!-- Node5 -->
<g id="node6" class="node">
<title>Node5</title>
<g id="a_node6"><a xlink:href="gt__decode_8f90.xhtml#a6e18f6bdab351d4581f650061e35c8f8" target="_top" xlink:title="Returns information about a given grid type. ">
<polygon fill="#ffffff" stroke="#000000" points="552.5,-38.5 552.5,-57.5 619.5,-57.5 619.5,-38.5 552.5,-38.5"/>
<text text-anchor="middle" x="586" y="-45.5" font-family="Helvetica,sans-Serif" font-size="10.00" fill="#000000">gt_decode</text>
</a>
</g>
</g>
<!-- Node3&#45;&gt;Node5 -->
<g id="edge5" class="edge">
<title>Node3&#45;&gt;Node5</title>
<path fill="none" stroke="#191970" d="M449.525,-48C472.8716,-48 511.676,-48 541.9515,-48"/>
<polygon fill="#191970" stroke="#191970" points="542.2654,-51.5001 552.2653,-48 542.2653,-44.5001 542.2654,-51.5001"/>
</g>
<!-- Node6 -->
<g id="node7" class="node">
<title>Node6</title>
<g id="a_node7"><a xlink:href="lltoll_8f90.xhtml#ab73fd16c9f8ff040d2480fe112b6a1cd" target="_top" xlink:title="Use subroutine LLTOEQ to convert to equatorial lat/lon for LAM. ">
<polygon fill="#ffffff" stroke="#000000" points="567,-.5 567,-19.5 605,-19.5 605,-.5 567,-.5"/>
<text text-anchor="middle" x="586" y="-7.5" font-family="Helvetica,sans-Serif" font-size="10.00" fill="#000000">lltoll</text>
</a>
</g>
</g>
<!-- Node3&#45;&gt;Node6 -->
<g id="edge6" class="edge">
<title>Node3&#45;&gt;Node6</title>
<path fill="none" stroke="#191970" d="M449.525,-43.0322C477.0061,-36.3807 525.9047,-24.5454 557.1006,-16.9948"/>
<polygon fill="#191970" stroke="#191970" points="558.0489,-20.3664 566.9448,-14.6121 556.4021,-13.5628 558.0489,-20.3664"/>
</g>
<!-- Node7 -->
<g id="node8" class="node">
<title>Node7</title>
<g id="a_node8"><a xlink:href="namespacelltoeq__mod.xhtml#a3c9637ba83181ca868444be33867cdaa" target="_top" xlink:title="lltoeq_mod::lltoeq">
<polygon fill="#ffffff" stroke="#000000" points="686,-.5 686,-19.5 791,-19.5 791,-.5 686,-.5"/>
<text text-anchor="middle" x="738.5" y="-7.5" font-family="Helvetica,sans-Serif" font-size="10.00" fill="#000000">lltoeq_mod::lltoeq</text>
</a>
</g>
</g>
<!-- Node6&#45;&gt;Node7 -->
<g id="edge7" class="edge">
<title>Node6&#45;&gt;Node7</title>
<path fill="none" stroke="#191970" d="M605.0059,-10C622.6902,-10 650.0554,-10 675.4166,-10"/>
<polygon fill="#191970" stroke="#191970" points="675.7546,-13.5001 685.7545,-10 675.7545,-6.5001 675.7546,-13.5001"/>
</g>
</g>
</svg>
