<?xml version="1.0" encoding="UTF-8" standalone="no"?>
<!DOCTYPE svg PUBLIC "-//W3C//DTD SVG 1.1//EN"
 "http://www.w3.org/Graphics/SVG/1.1/DTD/svg11.dtd">
<!-- Generated by graphviz version 2.40.1 (20161225.0304)
 -->
<!-- Title: rcf_exner_p_convs_mod::rcf_conv_exner_p Pages: 1 -->
<svg width="1108pt" height="214pt"
 viewBox="0.00 0.00 1108.00 214.00" xmlns="http://www.w3.org/2000/svg" xmlns:xlink="http://www.w3.org/1999/xlink">
<g id="graph0" class="graph" transform="scale(1 1) rotate(0) translate(4 210)">
<title>rcf_exner_p_convs_mod::rcf_conv_exner_p</title>
<polygon fill="#ffffff" stroke="transparent" points="-4,4 -4,-210 1104,-210 1104,4 -4,4"/>
<!-- Node6 -->
<g id="node1" class="node">
<title>Node6</title>
<polygon fill="#bfbfbf" stroke="#000000" points="0,-82.5 0,-112.5 134,-112.5 134,-82.5 0,-82.5"/>
<text text-anchor="start" x="8" y="-100.5" font-family="Helvetica,sans-Serif" font-size="10.00" fill="#000000">rcf_exner_p_convs_mod</text>
<text text-anchor="middle" x="67" y="-89.5" font-family="Helvetica,sans-Serif" font-size="10.00" fill="#000000">::rcf_conv_exner_p</text>
</g>
<!-- Node7 -->
<g id="node2" class="node">
<title>Node7</title>
<g id="a_node2"><a xlink:href="namespacercf__calc__p__star__mod.xhtml#a77c75bfda363522f24ae5eef319e4d1d" target="_top" xlink:title="Subroutine Rcf_Calc_P_Star &#45; calculates P* from rho and exner. ">
<polygon fill="#ffffff" stroke="#000000" points="177,-126.5 177,-156.5 293,-156.5 293,-126.5 177,-126.5"/>
<text text-anchor="start" x="185" y="-144.5" font-family="Helvetica,sans-Serif" font-size="10.00" fill="#000000">rcf_calc_p_star_mod</text>
<text text-anchor="middle" x="235" y="-133.5" font-family="Helvetica,sans-Serif" font-size="10.00" fill="#000000">::rcf_calc_p_star</text>
</a>
</g>
</g>
<!-- Node6&#45;&gt;Node7 -->
<g id="edge1" class="edge">
<title>Node6&#45;&gt;Node7</title>
<path fill="none" stroke="#191970" d="M134.1776,-115.0941C148.5687,-118.8632 163.6468,-122.8122 177.6272,-126.4738"/>
<polygon fill="#191970" stroke="#191970" points="134.9067,-111.6671 124.3462,-112.5192 133.1331,-118.4387 134.9067,-111.6671"/>
</g>
<!-- Node9 -->
<g id="node4" class="node">
<title>Node9</title>
<g id="a_node4"><a xlink:href="namespacercf__post__process__mod.xhtml#abd81a99947cd0c226d25842ec46e1e95" target="_top" xlink:title="Subroutine Rcf_Post_Process &#45; process fields after `main loop&#39;. ">
<polygon fill="#ffffff" stroke="#000000" points="542,-82.5 542,-112.5 682,-112.5 682,-82.5 542,-82.5"/>
<text text-anchor="start" x="550" y="-100.5" font-family="Helvetica,sans-Serif" font-size="10.00" fill="#000000">rcf_post_process_mod</text>
<text text-anchor="middle" x="612" y="-89.5" font-family="Helvetica,sans-Serif" font-size="10.00" fill="#000000">::rcf_post_process_atmos</text>
</a>
</g>
</g>
<!-- Node6&#45;&gt;Node9 -->
<g id="edge7" class="edge">
<title>Node6&#45;&gt;Node9</title>
<path fill="none" stroke="#191970" d="M144.4155,-97.5C250.4896,-97.5 439.4673,-97.5 541.6858,-97.5"/>
<polygon fill="#191970" stroke="#191970" points="144.1008,-94.0001 134.1008,-97.5 144.1008,-101.0001 144.1008,-94.0001"/>
</g>
<!-- Node13 -->
<g id="node8" class="node">
<title>Node13</title>
<g id="a_node8"><a xlink:href="namespacercf__pre__interp__transform__mod.xhtml#a20d33c2705b41c9046ce97c6a6b97e61" target="_top" xlink:title="Subroutine Rcf_Pre_Interp_Transform. ">
<polygon fill="#ffffff" stroke="#000000" points="336,-.5 336,-30.5 506,-30.5 506,-.5 336,-.5"/>
<text text-anchor="start" x="344" y="-18.5" font-family="Helvetica,sans-Serif" font-size="10.00" fill="#000000">rcf_pre_interp_transform</text>
<text text-anchor="middle" x="421" y="-7.5" font-family="Helvetica,sans-Serif" font-size="10.00" fill="#000000">_mod::rcf_pre_interp_transform</text>
</a>
</g>
</g>
<!-- Node6&#45;&gt;Node13 -->
<g id="edge8" class="edge">
<title>Node6&#45;&gt;Node13</title>
<path fill="none" stroke="#191970" d="M91.141,-75.7628C110.8224,-59.4992 140.1551,-38.4232 170,-28.5 223.2068,-10.8092 286.2401,-7.6028 335.8293,-8.7973"/>
<polygon fill="#191970" stroke="#191970" points="88.6871,-73.2547 83.3237,-82.3918 93.2144,-78.5936 88.6871,-73.2547"/>
</g>
<!-- Node14 -->
<g id="node9" class="node">
<title>Node14</title>
<g id="a_node9"><a xlink:href="namespacercf__theta__t__convs__mod.xhtml#a768f2fd010849f1f74cdd7ebe9f1b168" target="_top" xlink:title="Subroutine Rcf_Conv_Theta_T &#45; converts theta to t Subroutine Rcf_Conv_T_Theta &#45; converts t to theta...">
<polygon fill="#ffffff" stroke="#000000" points="170,-38.5 170,-68.5 300,-68.5 300,-38.5 170,-38.5"/>
<text text-anchor="start" x="178" y="-56.5" font-family="Helvetica,sans-Serif" font-size="10.00" fill="#000000">rcf_theta_t_convs_mod</text>
<text text-anchor="middle" x="235" y="-45.5" font-family="Helvetica,sans-Serif" font-size="10.00" fill="#000000">::rcf_conv_theta_t</text>
</a>
</g>
</g>
<!-- Node6&#45;&gt;Node14 -->
<g id="edge10" class="edge">
<title>Node6&#45;&gt;Node14</title>
<path fill="none" stroke="#191970" d="M134.1776,-79.9059C148.5687,-76.1368 163.6468,-72.1878 177.6272,-68.5262"/>
<polygon fill="#191970" stroke="#191970" points="133.1331,-76.5613 124.3462,-82.4808 134.9067,-83.3329 133.1331,-76.5613"/>
</g>
<!-- Node15 -->
<g id="node10" class="node">
<title>Node15</title>
<g id="a_node10"><a xlink:href="namespacercf__theta__t__convs__mod.xhtml#a2017146af611cd53e96d3ec09d1778e3" target="_top" xlink:title="rcf_theta_t_convs_mod\l::rcf_conv_t_theta">
<polygon fill="#ffffff" stroke="#000000" points="356,-175.5 356,-205.5 486,-205.5 486,-175.5 356,-175.5"/>
<text text-anchor="start" x="364" y="-193.5" font-family="Helvetica,sans-Serif" font-size="10.00" fill="#000000">rcf_theta_t_convs_mod</text>
<text text-anchor="middle" x="421" y="-182.5" font-family="Helvetica,sans-Serif" font-size="10.00" fill="#000000">::rcf_conv_t_theta</text>
</a>
</g>
</g>
<!-- Node6&#45;&gt;Node15 -->
<g id="edge13" class="edge">
<title>Node6&#45;&gt;Node15</title>
<path fill="none" stroke="#191970" d="M91.6203,-119.1682C111.3658,-135.1956 140.5558,-155.9922 170,-166.5 230.5027,-188.0917 304.1203,-192.8154 355.9351,-192.9149"/>
<polygon fill="#191970" stroke="#191970" points="93.69,-116.3373 83.7629,-112.6353 89.2146,-121.7199 93.69,-116.3373"/>
</g>
<!-- Node8 -->
<g id="node3" class="node">
<title>Node8</title>
<g id="a_node3"><a xlink:href="namespacercf__calc__output__exner__mod.xhtml#ac4151773b597c2381d693b523d1d6ecc" target="_top" xlink:title="Subroutine Rcf_Calc_Output_Exner. ">
<polygon fill="#ffffff" stroke="#000000" points="342.5,-126.5 342.5,-156.5 499.5,-156.5 499.5,-126.5 342.5,-126.5"/>
<text text-anchor="start" x="350.5" y="-144.5" font-family="Helvetica,sans-Serif" font-size="10.00" fill="#000000">rcf_calc_output_exner</text>
<text text-anchor="middle" x="421" y="-133.5" font-family="Helvetica,sans-Serif" font-size="10.00" fill="#000000">_mod::rcf_calc_output_exner</text>
</a>
</g>
</g>
<!-- Node7&#45;&gt;Node8 -->
<g id="edge2" class="edge">
<title>Node7&#45;&gt;Node8</title>
<path fill="none" stroke="#191970" d="M303.1181,-141.5C315.8306,-141.5 329.2127,-141.5 342.2151,-141.5"/>
<polygon fill="#191970" stroke="#191970" points="303.0865,-138.0001 293.0865,-141.5 303.0864,-145.0001 303.0865,-138.0001"/>
</g>
<!-- Node8&#45;&gt;Node9 -->
<g id="edge3" class="edge">
<title>Node8&#45;&gt;Node9</title>
<path fill="none" stroke="#191970" d="M495.9607,-124.2316C512.7459,-120.3648 530.4197,-116.2934 546.7726,-112.5262"/>
<polygon fill="#191970" stroke="#191970" points="495.1562,-120.8251 486.1972,-126.4808 496.7277,-127.6465 495.1562,-120.8251"/>
</g>
<!-- Node10 -->
<g id="node5" class="node">
<title>Node10</title>
<g id="a_node5"><a xlink:href="namespacercf__create__dump__mod.xhtml#a2f1f869ea648718c07cc083ce73c40c9" target="_top" xlink:title="Subroutine Rcf_Create_Dump &#45; main dump creation loop. ">
<polygon fill="#ffffff" stroke="#000000" points="718,-41.5 718,-71.5 843,-71.5 843,-41.5 718,-41.5"/>
<text text-anchor="start" x="726" y="-59.5" font-family="Helvetica,sans-Serif" font-size="10.00" fill="#000000">rcf_create_dump_mod</text>
<text text-anchor="middle" x="780.5" y="-48.5" font-family="Helvetica,sans-Serif" font-size="10.00" fill="#000000">::rcf_create_dump</text>
</a>
</g>
</g>
<!-- Node9&#45;&gt;Node10 -->
<g id="edge4" class="edge">
<title>Node9&#45;&gt;Node10</title>
<path fill="none" stroke="#191970" d="M683.5219,-80.097C695.2302,-77.2481 707.2742,-74.3176 718.7211,-71.5323"/>
<polygon fill="#191970" stroke="#191970" points="682.6754,-76.7008 673.7864,-82.4659 684.3304,-83.5024 682.6754,-76.7008"/>
</g>
<!-- Node11 -->
<g id="node6" class="node">
<title>Node11</title>
<g id="a_node6"><a xlink:href="namespacercf__control__mod.xhtml#a3ac6d1c6311ded848ddd750726da301a" target="_top" xlink:title="Subroutine Rcf_Control &#45; main control routine. ">
<polygon fill="#ffffff" stroke="#000000" points="879,-41.5 879,-71.5 993,-71.5 993,-41.5 879,-41.5"/>
<text text-anchor="start" x="887" y="-59.5" font-family="Helvetica,sans-Serif" font-size="10.00" fill="#000000">rcf_control_mod::rcf</text>
<text text-anchor="middle" x="936" y="-48.5" font-family="Helvetica,sans-Serif" font-size="10.00" fill="#000000">_control</text>
</a>
</g>
</g>
<!-- Node10&#45;&gt;Node11 -->
<g id="edge5" class="edge">
<title>Node10&#45;&gt;Node11</title>
<path fill="none" stroke="#191970" d="M853.3443,-56.5C861.9541,-56.5 870.6445,-56.5 878.9908,-56.5"/>
<polygon fill="#191970" stroke="#191970" points="853.2996,-53.0001 843.2996,-56.5 853.2995,-60.0001 853.2996,-53.0001"/>
</g>
<!-- Node12 -->
<g id="node7" class="node">
<title>Node12</title>
<g id="a_node7"><a xlink:href="reconfigure_8f90.xhtml#a55389899cfceedbb4b0f908c73988c0c" target="_top" xlink:title="Top level program for reconfiguration. ">
<polygon fill="#ffffff" stroke="#000000" points="1029,-47 1029,-66 1100,-66 1100,-47 1029,-47"/>
<text text-anchor="middle" x="1064.5" y="-54" font-family="Helvetica,sans-Serif" font-size="10.00" fill="#000000">reconfigure</text>
</a>
</g>
</g>
<!-- Node11&#45;&gt;Node12 -->
<g id="edge6" class="edge">
<title>Node11&#45;&gt;Node12</title>
<path fill="none" stroke="#191970" d="M1003.159,-56.5C1012.0636,-56.5 1020.8936,-56.5 1028.9628,-56.5"/>
<polygon fill="#191970" stroke="#191970" points="1003.1103,-53.0001 993.1103,-56.5 1003.1103,-60.0001 1003.1103,-53.0001"/>
</g>
<!-- Node13&#45;&gt;Node10 -->
<g id="edge9" class="edge">
<title>Node13&#45;&gt;Node10</title>
<path fill="none" stroke="#191970" d="M516.2687,-26.3651C580.0522,-33.6395 662.206,-43.0089 717.851,-49.355"/>
<polygon fill="#191970" stroke="#191970" points="516.5287,-22.8722 506.1965,-25.2164 515.7355,-29.8271 516.5287,-22.8722"/>
</g>
<!-- Node14&#45;&gt;Node9 -->
<g id="edge11" class="edge">
<title>Node14&#45;&gt;Node9</title>
<path fill="none" stroke="#191970" d="M310.4567,-61.4226C364.8518,-67.2388 440.0018,-75.4895 506,-83.5 517.6092,-84.9091 529.9241,-86.4725 541.8943,-88.0289"/>
<polygon fill="#191970" stroke="#191970" points="310.5211,-57.9097 300.2062,-60.3291 309.7785,-64.8702 310.5211,-57.9097"/>
</g>
<!-- Node14&#45;&gt;Node13 -->
<g id="edge12" class="edge">
<title>Node14&#45;&gt;Node13</title>
<path fill="none" stroke="#191970" d="M309.8634,-38.2053C322.2362,-35.6776 335.0546,-33.0587 347.3961,-30.5374"/>
<polygon fill="#191970" stroke="#191970" points="309.1508,-34.7785 300.0538,-40.2094 310.552,-41.6369 309.1508,-34.7785"/>
</g>
<!-- Node15&#45;&gt;Node9 -->
<g id="edge14" class="edge">
<title>Node15&#45;&gt;Node9</title>
<path fill="none" stroke="#191970" d="M492.3224,-172.1017C497.0081,-170.3613 501.6061,-168.4945 506,-166.5 538.3914,-151.7967 572.2353,-128.0711 592.7222,-112.63"/>
<polygon fill="#191970" stroke="#191970" points="490.9019,-168.8906 482.6189,-175.4968 493.2138,-175.4978 490.9019,-168.8906"/>
</g>
</g>
</svg>
