<?xml version="1.0" encoding="UTF-8" standalone="no"?>
<!DOCTYPE svg PUBLIC "-//W3C//DTD SVG 1.1//EN"
 "http://www.w3.org/Graphics/SVG/1.1/DTD/svg11.dtd">
<!-- Generated by graphviz version 2.40.1 (20161225.0304)
 -->
<!-- Title: rcf_read_namelists_mod::rcf_read_namelists Pages: 1 -->
<svg width="398pt" height="61pt"
 viewBox="0.00 0.00 398.00 61.00" xmlns="http://www.w3.org/2000/svg" xmlns:xlink="http://www.w3.org/1999/xlink">
<g id="graph0" class="graph" transform="scale(1 1) rotate(0) translate(4 57)">
<title>rcf_read_namelists_mod::rcf_read_namelists</title>
<polygon fill="#ffffff" stroke="transparent" points="-4,4 -4,-57 394,-57 394,4 -4,4"/>
<!-- Node65 -->
<g id="node1" class="node">
<title>Node65</title>
<polygon fill="#bfbfbf" stroke="#000000" points="0,-.5 0,-30.5 143,-30.5 143,-.5 0,-.5"/>
<text text-anchor="start" x="8" y="-18.5" font-family="Helvetica,sans-Serif" font-size="10.00" fill="#000000">rcf_read_namelists</text>
<text text-anchor="middle" x="71.5" y="-7.5" font-family="Helvetica,sans-Serif" font-size="10.00" fill="#000000">_mod::rcf_read_namelists</text>
</g>
<!-- Node66 -->
<g id="node2" class="node">
<title>Node66</title>
<g id="a_node2"><a xlink:href="namespacercf__initialise__mod.xhtml#ab7086bd455bd5857b757207d0255c3f4" target="_top" xlink:title="Subroutine Rcf_Initialise &#45; initialisation tasks. ">
<polygon fill="#ffffff" stroke="#000000" points="179,-22.5 179,-52.5 283,-52.5 283,-22.5 179,-22.5"/>
<text text-anchor="start" x="187" y="-40.5" font-family="Helvetica,sans-Serif" font-size="10.00" fill="#000000">rcf_initialise_mod</text>
<text text-anchor="middle" x="231" y="-29.5" font-family="Helvetica,sans-Serif" font-size="10.00" fill="#000000">::rcf_initialise</text>
</a>
</g>
</g>
<!-- Node65&#45;&gt;Node66 -->
<g id="edge1" class="edge">
<title>Node65&#45;&gt;Node66</title>
<path fill="none" stroke="#191970" d="M153.3968,-26.7961C161.99,-27.9814 170.5499,-29.1621 178.6771,-30.283"/>
<polygon fill="#191970" stroke="#191970" points="153.7023,-23.3052 143.3178,-25.4059 152.7458,-30.2395 153.7023,-23.3052"/>
</g>
<!-- Node67 -->
<g id="node3" class="node">
<title>Node67</title>
<g id="a_node3"><a xlink:href="reconfigure_8f90.xhtml#a55389899cfceedbb4b0f908c73988c0c" target="_top" xlink:title="Top level program for reconfiguration. ">
<polygon fill="#ffffff" stroke="#000000" points="319,-6 319,-25 390,-25 390,-6 319,-6"/>
<text text-anchor="middle" x="354.5" y="-13" font-family="Helvetica,sans-Serif" font-size="10.00" fill="#000000">reconfigure</text>
</a>
</g>
</g>
<!-- Node65&#45;&gt;Node67 -->
<g id="edge3" class="edge">
<title>Node65&#45;&gt;Node67</title>
<path fill="none" stroke="#191970" d="M153.3397,-13.819C162.0027,-13.6884 170.6821,-13.5774 179,-13.5 225.2202,-13.0701 236.7823,-12.8537 283,-13.5 294.6718,-13.6632 307.4123,-13.9762 318.8629,-14.307"/>
<polygon fill="#191970" stroke="#191970" points="153.1431,-10.3216 143.2001,-13.9806 153.2546,-17.3207 153.1431,-10.3216"/>
</g>
<!-- Node66&#45;&gt;Node67 -->
<g id="edge2" class="edge">
<title>Node66&#45;&gt;Node67</title>
<path fill="none" stroke="#191970" d="M292.9335,-26.4673C301.7486,-24.897 310.5587,-23.3276 318.6452,-21.8871"/>
<polygon fill="#191970" stroke="#191970" points="292.2483,-23.0342 283.0172,-28.2338 293.476,-29.9257 292.2483,-23.0342"/>
</g>
</g>
</svg>
