<?xml version="1.0" encoding="UTF-8" standalone="no"?>
<!DOCTYPE svg PUBLIC "-//W3C//DTD SVG 1.1//EN"
 "http://www.w3.org/Graphics/SVG/1.1/DTD/svg11.dtd">
<!-- Generated by graphviz version 2.40.1 (20161225.0304)
 -->
<!-- Title: ukca_trace_gas_mixratio::ukca_set_trace_gas_mixratio Pages: 1 -->
<svg width="705pt" height="72pt"
 viewBox="0.00 0.00 705.00 71.50" xmlns="http://www.w3.org/2000/svg" xmlns:xlink="http://www.w3.org/1999/xlink">
<g id="graph0" class="graph" transform="scale(1 1) rotate(0) translate(4 67.5)">
<title>ukca_trace_gas_mixratio::ukca_set_trace_gas_mixratio</title>
<polygon fill="#ffffff" stroke="transparent" points="-4,4 -4,-67.5 701,-67.5 701,4 -4,4"/>
<!-- Node0 -->
<g id="node1" class="node">
<title>Node0</title>
<polygon fill="#bfbfbf" stroke="#000000" points="0,-33 0,-63 165,-63 165,-33 0,-33"/>
<text text-anchor="start" x="8" y="-51" font-family="Helvetica,sans-Serif" font-size="10.00" fill="#000000">ukca_trace_gas_mixratio</text>
<text text-anchor="middle" x="82.5" y="-40" font-family="Helvetica,sans-Serif" font-size="10.00" fill="#000000">::ukca_set_trace_gas_mixratio</text>
</g>
<!-- Node1 -->
<g id="node2" class="node">
<title>Node1</title>
<g id="a_node2"><a xlink:href="namespaceumprintmgr.xhtml#aae44897e556705dbf5e945a26538be9a" target="_top" xlink:title="umprintmgr::umprint">
<polygon fill="#ffffff" stroke="#000000" points="201,-38.5 201,-57.5 320,-57.5 320,-38.5 201,-38.5"/>
<text text-anchor="middle" x="260.5" y="-45.5" font-family="Helvetica,sans-Serif" font-size="10.00" fill="#000000">umprintmgr::umprint</text>
</a>
</g>
</g>
<!-- Node0&#45;&gt;Node1 -->
<g id="edge1" class="edge">
<title>Node0&#45;&gt;Node1</title>
<path fill="none" stroke="#191970" d="M165.2468,-48C173.7667,-48 182.3634,-48 190.7225,-48"/>
<polygon fill="#191970" stroke="#191970" points="190.7799,-51.5001 200.7799,-48 190.7798,-44.5001 190.7799,-51.5001"/>
</g>
<!-- Node2 -->
<g id="node3" class="node">
<title>Node2</title>
<g id="a_node3"><a xlink:href="namespaceumprintmgr.xhtml#a088ce22a18d574e9df7ee1850bfb10c7" target="_top" xlink:title="umprintmgr::umprintopenstream">
<polygon fill="#ffffff" stroke="#000000" points="356,-38.5 356,-57.5 533,-57.5 533,-38.5 356,-38.5"/>
<text text-anchor="middle" x="444.5" y="-45.5" font-family="Helvetica,sans-Serif" font-size="10.00" fill="#000000">umprintmgr::umprintopenstream</text>
</a>
</g>
</g>
<!-- Node1&#45;&gt;Node2 -->
<g id="edge2" class="edge">
<title>Node1&#45;&gt;Node2</title>
<path fill="none" stroke="#191970" d="M320.2395,-41.6333C328.4605,-41.4301 337.0751,-41.3077 345.7702,-41.2661"/>
<polygon fill="#191970" stroke="#191970" points="345.9998,-44.7659 355.9958,-41.2543 345.9917,-37.7659 345.9998,-44.7659"/>
</g>
<!-- Node3 -->
<g id="node4" class="node">
<title>Node3</title>
<g id="a_node4"><a xlink:href="namespaceumprintmgr.xhtml#ad3a290b30a6e25500eabc0bf90330b77" target="_top" xlink:title="umprintmgr::umprintflush">
<polygon fill="#ffffff" stroke="#000000" points="373.5,-.5 373.5,-19.5 515.5,-19.5 515.5,-.5 373.5,-.5"/>
<text text-anchor="middle" x="444.5" y="-7.5" font-family="Helvetica,sans-Serif" font-size="10.00" fill="#000000">umprintmgr::umprintflush</text>
</a>
</g>
</g>
<!-- Node1&#45;&gt;Node3 -->
<g id="edge4" class="edge">
<title>Node1&#45;&gt;Node3</title>
<path fill="none" stroke="#191970" d="M306.931,-38.411C331.6493,-33.3061 362.239,-26.9887 388.292,-21.6082"/>
<polygon fill="#191970" stroke="#191970" points="389.3175,-24.9703 398.4029,-19.5201 387.9017,-18.115 389.3175,-24.9703"/>
</g>
<!-- Node2&#45;&gt;Node1 -->
<g id="edge3" class="edge">
<title>Node2&#45;&gt;Node1</title>
<path fill="none" stroke="#191970" d="M355.9958,-54.7457C347.3802,-54.767 338.7236,-54.7094 330.3289,-54.5727"/>
<polygon fill="#191970" stroke="#191970" points="330.3089,-51.0716 320.2395,-54.3667 330.166,-58.0702 330.3089,-51.0716"/>
</g>
<!-- Node4 -->
<g id="node5" class="node">
<title>Node4</title>
<g id="a_node5"><a xlink:href="namespaceumflush__mod.xhtml#a3a003ab59990bdcb712b443dd5e0d1cd" target="_top" xlink:title="umflush_mod::umflush">
<polygon fill="#ffffff" stroke="#000000" points="569,-.5 569,-19.5 697,-19.5 697,-.5 569,-.5"/>
<text text-anchor="middle" x="633" y="-7.5" font-family="Helvetica,sans-Serif" font-size="10.00" fill="#000000">umflush_mod::umflush</text>
</a>
</g>
</g>
<!-- Node3&#45;&gt;Node4 -->
<g id="edge5" class="edge">
<title>Node3&#45;&gt;Node4</title>
<path fill="none" stroke="#191970" d="M515.7638,-10C529.7742,-10 544.5063,-10 558.6162,-10"/>
<polygon fill="#191970" stroke="#191970" points="558.7612,-13.5001 568.7611,-10 558.7611,-6.5001 558.7612,-13.5001"/>
</g>
</g>
</svg>
