<?xml version="1.0" encoding="UTF-8" standalone="no"?>
<!DOCTYPE svg PUBLIC "-//W3C//DTD SVG 1.1//EN"
 "http://www.w3.org/Graphics/SVG/1.1/DTD/svg11.dtd">
<!-- Generated by graphviz version 2.40.1 (20161225.0304)
 -->
<!-- Title: setrval_mod::setrval Pages: 1 -->
<svg width="1145pt" height="104pt"
 viewBox="0.00 0.00 1145.00 104.00" xmlns="http://www.w3.org/2000/svg" xmlns:xlink="http://www.w3.org/1999/xlink">
<g id="graph0" class="graph" transform="scale(1 1) rotate(0) translate(4 100)">
<title>setrval_mod::setrval</title>
<polygon fill="#ffffff" stroke="transparent" points="-4,4 -4,-100 1141,-100 1141,4 -4,4"/>
<!-- Node1 -->
<g id="node1" class="node">
<title>Node1</title>
<polygon fill="#bfbfbf" stroke="#000000" points="0,-38.5 0,-57.5 117,-57.5 117,-38.5 0,-38.5"/>
<text text-anchor="middle" x="58.5" y="-45.5" font-family="Helvetica,sans-Serif" font-size="10.00" fill="#000000">setrval_mod::setrval</text>
</g>
<!-- Node2 -->
<g id="node2" class="node">
<title>Node2</title>
<g id="a_node2"><a xlink:href="namespaceroutedbl__mod.xhtml#a4efd64d491ef73ceb97a7cf42e600ef4" target="_top" xlink:title="routedbl_mod::routedbl">
<polygon fill="#ffffff" stroke="#000000" points="153,-38.5 153,-57.5 284,-57.5 284,-38.5 153,-38.5"/>
<text text-anchor="middle" x="218.5" y="-45.5" font-family="Helvetica,sans-Serif" font-size="10.00" fill="#000000">routedbl_mod::routedbl</text>
</a>
</g>
</g>
<!-- Node1&#45;&gt;Node2 -->
<g id="edge1" class="edge">
<title>Node1&#45;&gt;Node2</title>
<path fill="none" stroke="#191970" d="M127.3597,-48C135.8038,-48 144.4167,-48 152.8123,-48"/>
<polygon fill="#191970" stroke="#191970" points="127.1696,-44.5001 117.1696,-48 127.1695,-51.5001 127.1696,-44.5001"/>
</g>
<!-- Node3 -->
<g id="node3" class="node">
<title>Node3</title>
<g id="a_node3"><a xlink:href="namespaceriv__rout__mod__1a.xhtml#a0f6db4245add94c39041b14d0cd226bc" target="_top" xlink:title="riv_rout_mod_1a::riv\l_rout_1a">
<polygon fill="#ffffff" stroke="#000000" points="320,-33 320,-63 437,-63 437,-33 320,-33"/>
<text text-anchor="start" x="328" y="-51" font-family="Helvetica,sans-Serif" font-size="10.00" fill="#000000">riv_rout_mod_1a::riv</text>
<text text-anchor="middle" x="378.5" y="-40" font-family="Helvetica,sans-Serif" font-size="10.00" fill="#000000">_rout_1a</text>
</a>
</g>
</g>
<!-- Node2&#45;&gt;Node3 -->
<g id="edge2" class="edge">
<title>Node2&#45;&gt;Node3</title>
<path fill="none" stroke="#191970" d="M294.1689,-48C302.8449,-48 311.5891,-48 319.9916,-48"/>
<polygon fill="#191970" stroke="#191970" points="294.0398,-44.5001 284.0398,-48 294.0397,-51.5001 294.0398,-44.5001"/>
</g>
<!-- Node4 -->
<g id="node4" class="node">
<title>Node4</title>
<g id="a_node4"><a xlink:href="namespaceriv__intctl__mod__1a.xhtml#a5bb3b151df4b63eba938c91f81308235" target="_top" xlink:title="riv_intctl_mod_1a::\lriv_intctl_1a">
<polygon fill="#ffffff" stroke="#000000" points="473,-33 473,-63 583,-63 583,-33 473,-33"/>
<text text-anchor="start" x="481" y="-51" font-family="Helvetica,sans-Serif" font-size="10.00" fill="#000000">riv_intctl_mod_1a::</text>
<text text-anchor="middle" x="528" y="-40" font-family="Helvetica,sans-Serif" font-size="10.00" fill="#000000">riv_intctl_1a</text>
</a>
</g>
</g>
<!-- Node3&#45;&gt;Node4 -->
<g id="edge3" class="edge">
<title>Node3&#45;&gt;Node4</title>
<path fill="none" stroke="#191970" d="M447.2015,-48C455.8235,-48 464.5536,-48 472.9289,-48"/>
<polygon fill="#191970" stroke="#191970" points="447.1573,-44.5001 437.1573,-48 447.1572,-51.5001 447.1573,-44.5001"/>
</g>
<!-- Node5 -->
<g id="node5" class="node">
<title>Node5</title>
<g id="a_node5"><a xlink:href="atmos__physics2_8f90.xhtml#a0f74e8c75312201121b305cd566b175a" target="_top" xlink:title="Interface to Atmos Physics parametrizations after S&#45;L advection. ">
<polygon fill="#ffffff" stroke="#000000" points="619,-38.5 619,-57.5 714,-57.5 714,-38.5 619,-38.5"/>
<text text-anchor="middle" x="666.5" y="-45.5" font-family="Helvetica,sans-Serif" font-size="10.00" fill="#000000">atmos_physics2</text>
</a>
</g>
</g>
<!-- Node4&#45;&gt;Node5 -->
<g id="edge4" class="edge">
<title>Node4&#45;&gt;Node5</title>
<path fill="none" stroke="#191970" d="M593.1688,-48C601.7749,-48 610.4653,-48 618.7059,-48"/>
<polygon fill="#191970" stroke="#191970" points="593.1369,-44.5001 583.1368,-48 593.1368,-51.5001 593.1369,-44.5001"/>
</g>
<!-- Node6 -->
<g id="node6" class="node">
<title>Node6</title>
<g id="a_node6"><a xlink:href="atm__step_8f90.xhtml#ac0ee2467a1a9959b7065fdb8fd27bce4" target="_top" xlink:title="Perform a 1&#45;timestep integration of the Atmosphere Model. ">
<polygon fill="#ffffff" stroke="#000000" points="759,-76.5 759,-95.5 821,-95.5 821,-76.5 759,-76.5"/>
<text text-anchor="middle" x="790" y="-83.5" font-family="Helvetica,sans-Serif" font-size="10.00" fill="#000000">atm_step</text>
</a>
</g>
</g>
<!-- Node5&#45;&gt;Node6 -->
<g id="edge5" class="edge">
<title>Node5&#45;&gt;Node6</title>
<path fill="none" stroke="#191970" d="M707.2397,-60.5353C724.0405,-65.7048 743.197,-71.5991 758.8457,-76.4141"/>
<polygon fill="#191970" stroke="#191970" points="708.2514,-57.1847 697.6643,-57.589 706.1927,-63.8752 708.2514,-57.1847"/>
</g>
<!-- Node10 -->
<g id="node10" class="node">
<title>Node10</title>
<g id="a_node10"><a xlink:href="atm__step__4_a_8f90.xhtml#a2319aa4963e90c64cd78bdcd5f481095" target="_top" xlink:title="Perform a 1&#45;timestep integration of the Atmosphere Model. ">
<polygon fill="#ffffff" stroke="#000000" points="750,-38.5 750,-57.5 830,-57.5 830,-38.5 750,-38.5"/>
<text text-anchor="middle" x="790" y="-45.5" font-family="Helvetica,sans-Serif" font-size="10.00" fill="#000000">atm_step_4a</text>
</a>
</g>
</g>
<!-- Node5&#45;&gt;Node10 -->
<g id="edge9" class="edge">
<title>Node5&#45;&gt;Node10</title>
<path fill="none" stroke="#191970" d="M724.3434,-48C733.0185,-48 741.7967,-48 749.9897,-48"/>
<polygon fill="#191970" stroke="#191970" points="724.2484,-44.5001 714.2483,-48 724.2483,-51.5001 724.2484,-44.5001"/>
</g>
<!-- Node12 -->
<g id="node12" class="node">
<title>Node12</title>
<g id="a_node12"><a xlink:href="scm__main_8f90.xhtml#a2c730136605550612e094ce51d33a2a5" target="_top" xlink:title="*********************************COPYRIGHT********************************* ">
<polygon fill="#ffffff" stroke="#000000" points="756.5,-.5 756.5,-19.5 823.5,-19.5 823.5,-.5 756.5,-.5"/>
<text text-anchor="middle" x="790" y="-7.5" font-family="Helvetica,sans-Serif" font-size="10.00" fill="#000000">scm_main</text>
</a>
</g>
</g>
<!-- Node5&#45;&gt;Node12 -->
<g id="edge12" class="edge">
<title>Node5&#45;&gt;Node12</title>
<path fill="none" stroke="#191970" d="M707.2397,-35.4647C724.0405,-30.2952 743.197,-24.4009 758.8457,-19.5859"/>
<polygon fill="#191970" stroke="#191970" points="706.1927,-32.1248 697.6643,-38.411 708.2514,-38.8153 706.1927,-32.1248"/>
</g>
<!-- Node7 -->
<g id="node7" class="node">
<title>Node7</title>
<g id="a_node7"><a xlink:href="u__model_8f90.xhtml#ada0cd2ce4699433bf0f9adbd882c8eec" target="_top" xlink:title="Subroutine: U_MODEL &#45;!&gt; ">
<polygon fill="#ffffff" stroke="#000000" points="874.5,-76.5 874.5,-95.5 933.5,-95.5 933.5,-76.5 874.5,-76.5"/>
<text text-anchor="middle" x="904" y="-83.5" font-family="Helvetica,sans-Serif" font-size="10.00" fill="#000000">u_model</text>
</a>
</g>
</g>
<!-- Node6&#45;&gt;Node7 -->
<g id="edge6" class="edge">
<title>Node6&#45;&gt;Node7</title>
<path fill="none" stroke="#191970" d="M831.2532,-86C845.5539,-86 861.2895,-86 874.4568,-86"/>
<polygon fill="#191970" stroke="#191970" points="831.151,-82.5001 821.151,-86 831.151,-89.5001 831.151,-82.5001"/>
</g>
<!-- Node8 -->
<g id="node8" class="node">
<title>Node8</title>
<g id="a_node8"><a xlink:href="um__shell_8f90.xhtml#a8c9bd25362824a5c301376ecb5ed5c27" target="_top" xlink:title="Subroutine: UM_SHELL !&gt; ">
<polygon fill="#ffffff" stroke="#000000" points="978,-57.5 978,-76.5 1039,-76.5 1039,-57.5 978,-57.5"/>
<text text-anchor="middle" x="1008.5" y="-64.5" font-family="Helvetica,sans-Serif" font-size="10.00" fill="#000000">um_shell</text>
</a>
</g>
</g>
<!-- Node7&#45;&gt;Node8 -->
<g id="edge7" class="edge">
<title>Node7&#45;&gt;Node8</title>
<path fill="none" stroke="#191970" d="M943.701,-78.7816C954.951,-76.7362 967.0261,-74.5407 977.6677,-72.6059"/>
<polygon fill="#191970" stroke="#191970" points="942.8786,-75.3737 933.666,-80.6062 944.1308,-82.2608 942.8786,-75.3737"/>
</g>
<!-- Node9 -->
<g id="node9" class="node">
<title>Node9</title>
<g id="a_node9"><a xlink:href="um__main_8f90.xhtml#a8f2d13215621443a5313261c282f098b" target="_top" xlink:title="Code Owner: See Unified Model Code Owner&#39;s HTML page. ">
<polygon fill="#ffffff" stroke="#000000" points="1075,-57.5 1075,-76.5 1137,-76.5 1137,-57.5 1075,-57.5"/>
<text text-anchor="middle" x="1106" y="-64.5" font-family="Helvetica,sans-Serif" font-size="10.00" fill="#000000">um_main</text>
</a>
</g>
</g>
<!-- Node8&#45;&gt;Node9 -->
<g id="edge8" class="edge">
<title>Node8&#45;&gt;Node9</title>
<path fill="none" stroke="#191970" d="M1049.2756,-67C1057.8294,-67 1066.72,-67 1074.8551,-67"/>
<polygon fill="#191970" stroke="#191970" points="1049.0821,-63.5001 1039.0821,-67 1049.0821,-70.5001 1049.0821,-63.5001"/>
</g>
<!-- Node11 -->
<g id="node11" class="node">
<title>Node11</title>
<g id="a_node11"><a xlink:href="u__model__4_a_8f90.xhtml#afa05064dab5eba198b461d0928767c7e" target="_top" xlink:title="LL Subroutine: U_MODEL_4A (ENDGAME VERSION) !&gt;LL. ">
<polygon fill="#ffffff" stroke="#000000" points="866,-38.5 866,-57.5 942,-57.5 942,-38.5 866,-38.5"/>
<text text-anchor="middle" x="904" y="-45.5" font-family="Helvetica,sans-Serif" font-size="10.00" fill="#000000">u_model_4a</text>
</a>
</g>
</g>
<!-- Node10&#45;&gt;Node11 -->
<g id="edge10" class="edge">
<title>Node10&#45;&gt;Node11</title>
<path fill="none" stroke="#191970" d="M840.3998,-48C848.891,-48 857.5803,-48 865.7002,-48"/>
<polygon fill="#191970" stroke="#191970" points="840.1922,-44.5001 830.1921,-48 840.1921,-51.5001 840.1922,-44.5001"/>
</g>
<!-- Node11&#45;&gt;Node8 -->
<g id="edge11" class="edge">
<title>Node11&#45;&gt;Node8</title>
<path fill="none" stroke="#191970" d="M951.8728,-56.7041C960.7087,-58.3107 969.7128,-59.9478 977.8647,-61.43"/>
<polygon fill="#191970" stroke="#191970" points="952.4873,-53.2586 942.0225,-54.9132 951.2351,-60.1457 952.4873,-53.2586"/>
</g>
<!-- Node13 -->
<g id="node13" class="node">
<title>Node13</title>
<g id="a_node13"><a xlink:href="scm__shell_8f90.xhtml#ab15255829ee7b5be626b1c0861b40c8d" target="_top" xlink:title="scm_shell is the main calling program for the Single Column Model. ">
<polygon fill="#ffffff" stroke="#000000" points="871.5,-.5 871.5,-19.5 936.5,-19.5 936.5,-.5 871.5,-.5"/>
<text text-anchor="middle" x="904" y="-7.5" font-family="Helvetica,sans-Serif" font-size="10.00" fill="#000000">scm_shell</text>
</a>
</g>
</g>
<!-- Node12&#45;&gt;Node13 -->
<g id="edge13" class="edge">
<title>Node12&#45;&gt;Node13</title>
<path fill="none" stroke="#191970" d="M833.8248,-10C846.3307,-10 859.7319,-10 871.4371,-10"/>
<polygon fill="#191970" stroke="#191970" points="833.5872,-6.5001 823.5872,-10 833.5871,-13.5001 833.5872,-6.5001"/>
</g>
</g>
</svg>
