<?xml version="1.0" encoding="UTF-8" standalone="no"?>
<!DOCTYPE svg PUBLIC "-//W3C//DTD SVG 1.1//EN"
 "http://www.w3.org/Graphics/SVG/1.1/DTD/svg11.dtd">
<!-- Generated by graphviz version 2.40.1 (20161225.0304)
 -->
<!-- Title: io_mod::buffin_um_lookup Pages: 1 -->
<svg width="468pt" height="66pt"
 viewBox="0.00 0.00 468.00 66.00" xmlns="http://www.w3.org/2000/svg" xmlns:xlink="http://www.w3.org/1999/xlink">
<g id="graph0" class="graph" transform="scale(1 1) rotate(0) translate(4 62)">
<title>io_mod::buffin_um_lookup</title>
<polygon fill="#ffffff" stroke="transparent" points="-4,4 -4,-62 464,-62 464,4 -4,4"/>
<!-- Node2 -->
<g id="node1" class="node">
<title>Node2</title>
<polygon fill="#bfbfbf" stroke="#000000" points="0,-19.5 0,-38.5 146,-38.5 146,-19.5 0,-19.5"/>
<text text-anchor="middle" x="73" y="-26.5" font-family="Helvetica,sans-Serif" font-size="10.00" fill="#000000">io_mod::buffin_um_lookup</text>
</g>
<!-- Node3 -->
<g id="node2" class="node">
<title>Node3</title>
<g id="a_node2"><a xlink:href="read__umhdr_8f90.xhtml#a5ce45464a0f56cf4cce1bfce02806f24" target="_top" xlink:title="Routine to read a UM Fieldsfile header. ">
<polygon fill="#ffffff" stroke="#000000" points="182,-19.5 182,-38.5 257,-38.5 257,-19.5 182,-19.5"/>
<text text-anchor="middle" x="219.5" y="-26.5" font-family="Helvetica,sans-Serif" font-size="10.00" fill="#000000">read_umhdr</text>
</a>
</g>
</g>
<!-- Node2&#45;&gt;Node3 -->
<g id="edge1" class="edge">
<title>Node2&#45;&gt;Node3</title>
<path fill="none" stroke="#191970" d="M156.3145,-29C165.1785,-29 173.842,-29 181.7726,-29"/>
<polygon fill="#191970" stroke="#191970" points="156.25,-25.5001 146.25,-29 156.25,-32.5001 156.25,-25.5001"/>
</g>
<!-- Node4 -->
<g id="node3" class="node">
<title>Node4</title>
<g id="a_node3"><a xlink:href="fieldcalc_8f90.xhtml#ac71d10790a6550f257c927ee60db58b2" target="_top" xlink:title="Program for post&#45;processing of UM output. ">
<polygon fill="#ffffff" stroke="#000000" points="403,-38.5 403,-57.5 460,-57.5 460,-38.5 403,-38.5"/>
<text text-anchor="middle" x="431.5" y="-45.5" font-family="Helvetica,sans-Serif" font-size="10.00" fill="#000000">fieldcalc</text>
</a>
</g>
</g>
<!-- Node3&#45;&gt;Node4 -->
<g id="edge2" class="edge">
<title>Node3&#45;&gt;Node4</title>
<path fill="none" stroke="#191970" d="M267.5922,-33.3101C309.2329,-37.0421 368.0757,-42.3157 402.7606,-45.4243"/>
<polygon fill="#191970" stroke="#191970" points="267.6739,-29.8035 257.4014,-32.3968 267.049,-36.7756 267.6739,-29.8035"/>
</g>
<!-- Node5 -->
<g id="node4" class="node">
<title>Node5</title>
<g id="a_node4"><a xlink:href="new__umhdr_8f90.xhtml#ab6f6c7eaebc494292cad2d5f087caf28" target="_top" xlink:title="Routine to set up a new UM header in Fieldcalc. ">
<polygon fill="#ffffff" stroke="#000000" points="293,-.5 293,-19.5 367,-19.5 367,-.5 293,-.5"/>
<text text-anchor="middle" x="330" y="-7.5" font-family="Helvetica,sans-Serif" font-size="10.00" fill="#000000">new_umhdr</text>
</a>
</g>
</g>
<!-- Node3&#45;&gt;Node5 -->
<g id="edge3" class="edge">
<title>Node3&#45;&gt;Node5</title>
<path fill="none" stroke="#191970" d="M267.1425,-20.8081C275.7377,-19.3302 284.5832,-17.8092 292.8256,-16.392"/>
<polygon fill="#191970" stroke="#191970" points="266.481,-17.3704 257.2188,-22.5144 267.6673,-24.2691 266.481,-17.3704"/>
</g>
<!-- Node5&#45;&gt;Node4 -->
<g id="edge5" class="edge">
<title>Node5&#45;&gt;Node4</title>
<path fill="none" stroke="#191970" d="M365.0389,-23.118C378.4634,-28.1439 393.5152,-33.7791 405.8955,-38.4141"/>
<polygon fill="#191970" stroke="#191970" points="366.2051,-19.8174 355.6127,-19.589 363.7507,-26.3731 366.2051,-19.8174"/>
</g>
<!-- Node6 -->
<g id="node5" class="node">
<title>Node6</title>
<g id="a_node5"><a xlink:href="cutout_8f90.xhtml#a1c4b774bfd8e00cb84da103999655685" target="_top" xlink:title="Given header grid information returns parameters of fixed portion of grid. ">
<polygon fill="#ffffff" stroke="#000000" points="408,-.5 408,-19.5 455,-19.5 455,-.5 408,-.5"/>
<text text-anchor="middle" x="431.5" y="-7.5" font-family="Helvetica,sans-Serif" font-size="10.00" fill="#000000">cutout</text>
</a>
</g>
</g>
<!-- Node5&#45;&gt;Node6 -->
<g id="edge4" class="edge">
<title>Node5&#45;&gt;Node6</title>
<path fill="none" stroke="#191970" d="M377.2687,-10C387.8799,-10 398.6951,-10 407.8469,-10"/>
<polygon fill="#191970" stroke="#191970" points="377.2185,-6.5001 367.2185,-10 377.2185,-13.5001 377.2185,-6.5001"/>
</g>
</g>
</svg>
