<?xml version="1.0" encoding="UTF-8" standalone="no"?>
<!DOCTYPE svg PUBLIC "-//W3C//DTD SVG 1.1//EN"
 "http://www.w3.org/Graphics/SVG/1.1/DTD/svg11.dtd">
<!-- Generated by graphviz version 2.40.1 (20161225.0304)
 -->
<!-- Title: boundary_layer_mod::diffusion_coefficient Pages: 1 -->
<svg width="1374pt" height="88pt"
 viewBox="0.00 0.00 1374.00 88.00" xmlns="http://www.w3.org/2000/svg" xmlns:xlink="http://www.w3.org/1999/xlink">
<g id="graph0" class="graph" transform="scale(1 1) rotate(0) translate(4 84)">
<title>boundary_layer_mod::diffusion_coefficient</title>
<polygon fill="#ffffff" stroke="transparent" points="-4,4 -4,-84 1370,-84 1370,4 -4,4"/>
<!-- Node33 -->
<g id="node1" class="node">
<title>Node33</title>
<polygon fill="#bfbfbf" stroke="#000000" points="0,-24.5 0,-54.5 121,-54.5 121,-24.5 0,-24.5"/>
<text text-anchor="start" x="8" y="-42.5" font-family="Helvetica,sans-Serif" font-size="10.00" fill="#000000">boundary_layer_mod</text>
<text text-anchor="middle" x="60.5" y="-31.5" font-family="Helvetica,sans-Serif" font-size="10.00" fill="#000000">::diffusion_coefficient</text>
</g>
<!-- Node34 -->
<g id="node2" class="node">
<title>Node34</title>
<g id="a_node2"><a xlink:href="namespaceboundary__layer__mod.xhtml#adcc62244205dc6d832adf449809426c8" target="_top" xlink:title="boundary_layer_mod\l::find_new_field">
<polygon fill="#ffffff" stroke="#000000" points="157,-24.5 157,-54.5 276,-54.5 276,-24.5 157,-24.5"/>
<text text-anchor="start" x="165" y="-42.5" font-family="Helvetica,sans-Serif" font-size="10.00" fill="#000000">boundary_layer_mod</text>
<text text-anchor="middle" x="216.5" y="-31.5" font-family="Helvetica,sans-Serif" font-size="10.00" fill="#000000">::find_new_field</text>
</a>
</g>
</g>
<!-- Node33&#45;&gt;Node34 -->
<g id="edge1" class="edge">
<title>Node33&#45;&gt;Node34</title>
<path fill="none" stroke="#191970" d="M131.5339,-39.5C140.024,-39.5 148.6249,-39.5 156.9302,-39.5"/>
<polygon fill="#191970" stroke="#191970" points="131.2604,-36.0001 121.2604,-39.5 131.2603,-43.0001 131.2604,-36.0001"/>
</g>
<!-- Node35 -->
<g id="node3" class="node">
<title>Node35</title>
<g id="a_node3"><a xlink:href="namespacecolumn__mod.xhtml#a62f818413fe7f1c57af1e77eef537f1f" target="_top" xlink:title="column_mod::evolve\l_column">
<polygon fill="#ffffff" stroke="#000000" points="508,-24.5 508,-54.5 627,-54.5 627,-24.5 508,-24.5"/>
<text text-anchor="start" x="516" y="-42.5" font-family="Helvetica,sans-Serif" font-size="10.00" fill="#000000">column_mod::evolve</text>
<text text-anchor="middle" x="567.5" y="-31.5" font-family="Helvetica,sans-Serif" font-size="10.00" fill="#000000">_column</text>
</a>
</g>
</g>
<!-- Node34&#45;&gt;Node35 -->
<g id="edge2" class="edge">
<title>Node34&#45;&gt;Node35</title>
<path fill="none" stroke="#191970" d="M286.1742,-39.5C351.0104,-39.5 446.6,-39.5 507.9592,-39.5"/>
<polygon fill="#191970" stroke="#191970" points="286.0424,-36.0001 276.0424,-39.5 286.0423,-43.0001 286.0424,-36.0001"/>
</g>
<!-- Node43 -->
<g id="node11" class="node">
<title>Node43</title>
<g id="a_node11"><a xlink:href="namespacecolumn__mod.xhtml#a81629de64cb9598807289ed8dccf030b" target="_top" xlink:title="column_mod::apply_diffusion">
<polygon fill="#ffffff" stroke="#000000" points="312,-11 312,-30 472,-30 472,-11 312,-11"/>
<text text-anchor="middle" x="392" y="-18" font-family="Helvetica,sans-Serif" font-size="10.00" fill="#000000">column_mod::apply_diffusion</text>
</a>
</g>
</g>
<!-- Node34&#45;&gt;Node43 -->
<g id="edge11" class="edge">
<title>Node34&#45;&gt;Node43</title>
<path fill="none" stroke="#191970" d="M286.4634,-31.9256C294.8174,-31.0212 303.3959,-30.0925 311.8785,-29.1741"/>
<polygon fill="#191970" stroke="#191970" points="285.9714,-28.4583 276.4063,-33.0144 286.7249,-35.4177 285.9714,-28.4583"/>
</g>
<!-- Node36 -->
<g id="node4" class="node">
<title>Node36</title>
<g id="a_node4"><a xlink:href="namespaceeg__moist__gcm__ctl__mod.xhtml#aaa5af5fd7888d583f447738840aca1a6" target="_top" xlink:title="eg_moist_gcm_ctl_mod\l::eg_moist_gcm_ctl">
<polygon fill="#ffffff" stroke="#000000" points="663,-24.5 663,-54.5 795,-54.5 795,-24.5 663,-24.5"/>
<text text-anchor="start" x="671" y="-42.5" font-family="Helvetica,sans-Serif" font-size="10.00" fill="#000000">eg_moist_gcm_ctl_mod</text>
<text text-anchor="middle" x="729" y="-31.5" font-family="Helvetica,sans-Serif" font-size="10.00" fill="#000000">::eg_moist_gcm_ctl</text>
</a>
</g>
</g>
<!-- Node35&#45;&gt;Node36 -->
<g id="edge3" class="edge">
<title>Node35&#45;&gt;Node36</title>
<path fill="none" stroke="#191970" d="M637.3603,-39.5C645.7945,-39.5 654.3902,-39.5 662.7702,-39.5"/>
<polygon fill="#191970" stroke="#191970" points="637.1778,-36.0001 627.1778,-39.5 637.1778,-43.0001 637.1778,-36.0001"/>
</g>
<!-- Node37 -->
<g id="node5" class="node">
<title>Node37</title>
<g id="a_node5"><a xlink:href="namespaceeg__idl__forcing__mod.xhtml#af6b661542faffe897edc18d4ac526e89" target="_top" xlink:title="This file belongs in section: Dynamics. ">
<polygon fill="#ffffff" stroke="#000000" points="831,-49.5 831,-79.5 943,-79.5 943,-49.5 831,-49.5"/>
<text text-anchor="start" x="839" y="-67.5" font-family="Helvetica,sans-Serif" font-size="10.00" fill="#000000">eg_idl_forcing_mod</text>
<text text-anchor="middle" x="887" y="-56.5" font-family="Helvetica,sans-Serif" font-size="10.00" fill="#000000">::eg_idl_forcing</text>
</a>
</g>
</g>
<!-- Node36&#45;&gt;Node37 -->
<g id="edge4" class="edge">
<title>Node36&#45;&gt;Node37</title>
<path fill="none" stroke="#191970" d="M805.1495,-51.549C813.7567,-52.9109 822.409,-54.2799 830.6971,-55.5913"/>
<polygon fill="#191970" stroke="#191970" points="805.5149,-48.0633 795.0907,-49.9574 804.4208,-54.9773 805.5149,-48.0633"/>
</g>
<!-- Node42 -->
<g id="node10" class="node">
<title>Node42</title>
<g id="a_node10"><a xlink:href="namespaceeg__idl__forcing__mod.xhtml#a2a8abd90e51b9822688a00906f4c0486" target="_top" xlink:title="eg_idl_forcing_mod\l::eg_idl_forcing2">
<polygon fill="#ffffff" stroke="#000000" points="831,-.5 831,-30.5 943,-30.5 943,-.5 831,-.5"/>
<text text-anchor="start" x="839" y="-18.5" font-family="Helvetica,sans-Serif" font-size="10.00" fill="#000000">eg_idl_forcing_mod</text>
<text text-anchor="middle" x="887" y="-7.5" font-family="Helvetica,sans-Serif" font-size="10.00" fill="#000000">::eg_idl_forcing2</text>
</a>
</g>
</g>
<!-- Node36&#45;&gt;Node42 -->
<g id="edge9" class="edge">
<title>Node36&#45;&gt;Node42</title>
<path fill="none" stroke="#191970" d="M805.1495,-27.933C813.7567,-26.6256 822.409,-25.3113 830.6971,-24.0523"/>
<polygon fill="#191970" stroke="#191970" points="804.4517,-24.4987 795.0907,-29.4609 805.503,-31.4194 804.4517,-24.4987"/>
</g>
<!-- Node38 -->
<g id="node6" class="node">
<title>Node38</title>
<g id="a_node6"><a xlink:href="atm__step__4_a_8f90.xhtml#a2319aa4963e90c64cd78bdcd5f481095" target="_top" xlink:title="Perform a 1&#45;timestep integration of the Atmosphere Model. ">
<polygon fill="#ffffff" stroke="#000000" points="979,-30 979,-49 1059,-49 1059,-30 979,-30"/>
<text text-anchor="middle" x="1019" y="-37" font-family="Helvetica,sans-Serif" font-size="10.00" fill="#000000">atm_step_4a</text>
</a>
</g>
</g>
<!-- Node37&#45;&gt;Node38 -->
<g id="edge5" class="edge">
<title>Node37&#45;&gt;Node38</title>
<path fill="none" stroke="#191970" d="M953.198,-51.9625C961.9363,-50.3075 970.6701,-48.6534 978.7865,-47.1162"/>
<polygon fill="#191970" stroke="#191970" points="952.5368,-48.5254 943.3628,-53.8252 953.8394,-55.4032 952.5368,-48.5254"/>
</g>
<!-- Node39 -->
<g id="node7" class="node">
<title>Node39</title>
<g id="a_node7"><a xlink:href="u__model__4_a_8f90.xhtml#afa05064dab5eba198b461d0928767c7e" target="_top" xlink:title="LL Subroutine: U_MODEL_4A (ENDGAME VERSION) !&gt;LL. ">
<polygon fill="#ffffff" stroke="#000000" points="1095,-30 1095,-49 1171,-49 1171,-30 1095,-30"/>
<text text-anchor="middle" x="1133" y="-37" font-family="Helvetica,sans-Serif" font-size="10.00" fill="#000000">u_model_4a</text>
</a>
</g>
</g>
<!-- Node38&#45;&gt;Node39 -->
<g id="edge6" class="edge">
<title>Node38&#45;&gt;Node39</title>
<path fill="none" stroke="#191970" d="M1069.3998,-39.5C1077.891,-39.5 1086.5803,-39.5 1094.7002,-39.5"/>
<polygon fill="#191970" stroke="#191970" points="1069.1922,-36.0001 1059.1921,-39.5 1069.1921,-43.0001 1069.1922,-36.0001"/>
</g>
<!-- Node40 -->
<g id="node8" class="node">
<title>Node40</title>
<g id="a_node8"><a xlink:href="um__shell_8f90.xhtml#a8c9bd25362824a5c301376ecb5ed5c27" target="_top" xlink:title="Subroutine: UM_SHELL !&gt; ">
<polygon fill="#ffffff" stroke="#000000" points="1207,-30 1207,-49 1268,-49 1268,-30 1207,-30"/>
<text text-anchor="middle" x="1237.5" y="-37" font-family="Helvetica,sans-Serif" font-size="10.00" fill="#000000">um_shell</text>
</a>
</g>
</g>
<!-- Node39&#45;&gt;Node40 -->
<g id="edge7" class="edge">
<title>Node39&#45;&gt;Node40</title>
<path fill="none" stroke="#191970" d="M1181.1579,-39.5C1189.9023,-39.5 1198.8005,-39.5 1206.8647,-39.5"/>
<polygon fill="#191970" stroke="#191970" points="1181.0225,-36.0001 1171.0225,-39.5 1181.0225,-43.0001 1181.0225,-36.0001"/>
</g>
<!-- Node41 -->
<g id="node9" class="node">
<title>Node41</title>
<g id="a_node9"><a xlink:href="um__main_8f90.xhtml#a8f2d13215621443a5313261c282f098b" target="_top" xlink:title="Code Owner: See Unified Model Code Owner&#39;s HTML page. ">
<polygon fill="#ffffff" stroke="#000000" points="1304,-30 1304,-49 1366,-49 1366,-30 1304,-30"/>
<text text-anchor="middle" x="1335" y="-37" font-family="Helvetica,sans-Serif" font-size="10.00" fill="#000000">um_main</text>
</a>
</g>
</g>
<!-- Node40&#45;&gt;Node41 -->
<g id="edge8" class="edge">
<title>Node40&#45;&gt;Node41</title>
<path fill="none" stroke="#191970" d="M1278.2756,-39.5C1286.8294,-39.5 1295.72,-39.5 1303.8551,-39.5"/>
<polygon fill="#191970" stroke="#191970" points="1278.0821,-36.0001 1268.0821,-39.5 1278.0821,-43.0001 1278.0821,-36.0001"/>
</g>
<!-- Node42&#45;&gt;Node38 -->
<g id="edge10" class="edge">
<title>Node42&#45;&gt;Node38</title>
<path fill="none" stroke="#191970" d="M953.4799,-27.5872C962.1241,-29.1589 970.7574,-30.7286 978.7865,-32.1885"/>
<polygon fill="#191970" stroke="#191970" points="953.8276,-24.0932 943.3628,-25.7478 952.5753,-30.9803 953.8276,-24.0932"/>
</g>
<!-- Node43&#45;&gt;Node35 -->
<g id="edge12" class="edge">
<title>Node43&#45;&gt;Node35</title>
<path fill="none" stroke="#191970" d="M482.2172,-30.2671C490.8859,-31.2056 499.5224,-32.1406 507.7881,-33.0355"/>
<polygon fill="#191970" stroke="#191970" points="482.3651,-26.7627 472.0464,-29.166 481.6116,-33.7221 482.3651,-26.7627"/>
</g>
</g>
</svg>
