<?xml version="1.0" encoding="UTF-8" standalone="no"?>
<!DOCTYPE svg PUBLIC "-//W3C//DTD SVG 1.1//EN"
 "http://www.w3.org/Graphics/SVG/1.1/DTD/svg11.dtd">
<!-- Generated by graphviz version 2.40.1 (20161225.0304)
 -->
<!-- Title: ios::ios_write_lookup Pages: 1 -->
<svg width="1734pt" height="596pt"
 viewBox="0.00 0.00 1734.00 595.50" xmlns="http://www.w3.org/2000/svg" xmlns:xlink="http://www.w3.org/1999/xlink">
<g id="graph0" class="graph" transform="scale(1 1) rotate(0) translate(4 591.5)">
<title>ios::ios_write_lookup</title>
<polygon fill="#ffffff" stroke="transparent" points="-4,4 -4,-591.5 1730,-591.5 1730,4 -4,4"/>
<!-- Node1511 -->
<g id="node1" class="node">
<title>Node1511</title>
<polygon fill="#bfbfbf" stroke="#000000" points="0,-308.5 0,-327.5 119,-327.5 119,-308.5 0,-308.5"/>
<text text-anchor="middle" x="59.5" y="-315.5" font-family="Helvetica,sans-Serif" font-size="10.00" fill="#000000">ios::ios_write_lookup</text>
</g>
<!-- Node1512 -->
<g id="node2" class="node">
<title>Node1512</title>
<g id="a_node2"><a xlink:href="namespaceios__common.xhtml#a2c973e11abf690e8e0215ca4d7e669de" target="_top" xlink:title="ios_common::l_ios_active">
<polygon fill="#ffffff" stroke="#000000" points="478,-468.5 478,-487.5 621,-487.5 621,-468.5 478,-468.5"/>
<text text-anchor="middle" x="549.5" y="-475.5" font-family="Helvetica,sans-Serif" font-size="10.00" fill="#000000">ios_common::l_ios_active</text>
</a>
</g>
</g>
<!-- Node1511&#45;&gt;Node1512 -->
<g id="edge1" class="edge">
<title>Node1511&#45;&gt;Node1512</title>
<path fill="none" stroke="#191970" d="M70.4636,-327.5995C103.6604,-355.9724 207.1284,-439.3698 310,-470 360.8919,-485.1531 420.5709,-487.185 467.6245,-485.4127"/>
<polygon fill="#191970" stroke="#191970" points="467.934,-488.9025 477.7699,-484.9648 467.6252,-481.9093 467.934,-488.9025"/>
</g>
<!-- Node1513 -->
<g id="node3" class="node">
<title>Node1513</title>
<g id="a_node3"><a xlink:href="namespaceios__client__queue.xhtml#afe87459ebf2e7fc1b3915458ad63d06f" target="_top" xlink:title="ios_client_queue::ios\l_init_md">
<polygon fill="#ffffff" stroke="#000000" points="155,-303 155,-333 274,-333 274,-303 155,-303"/>
<text text-anchor="start" x="163" y="-321" font-family="Helvetica,sans-Serif" font-size="10.00" fill="#000000">ios_client_queue::ios</text>
<text text-anchor="middle" x="214.5" y="-310" font-family="Helvetica,sans-Serif" font-size="10.00" fill="#000000">_init_md</text>
</a>
</g>
</g>
<!-- Node1511&#45;&gt;Node1513 -->
<g id="edge2" class="edge">
<title>Node1511&#45;&gt;Node1513</title>
<path fill="none" stroke="#191970" d="M119.427,-318C127.7244,-318 136.3054,-318 144.7618,-318"/>
<polygon fill="#191970" stroke="#191970" points="144.9877,-321.5001 154.9877,-318 144.9877,-314.5001 144.9877,-321.5001"/>
</g>
<!-- Node1528 -->
<g id="node18" class="node">
<title>Node1528</title>
<g id="a_node18"><a xlink:href="namespaceios__client__queue.xhtml#a6288f2c5e8ba14c7dba338d01f36d418" target="_top" xlink:title="ios_client_queue::ios\l_attach_sendbuffer">
<polygon fill="#ffffff" stroke="#000000" points="155,-557 155,-587 274,-587 274,-557 155,-557"/>
<text text-anchor="start" x="163" y="-575" font-family="Helvetica,sans-Serif" font-size="10.00" fill="#000000">ios_client_queue::ios</text>
<text text-anchor="middle" x="214.5" y="-564" font-family="Helvetica,sans-Serif" font-size="10.00" fill="#000000">_attach_sendbuffer</text>
</a>
</g>
</g>
<!-- Node1511&#45;&gt;Node1528 -->
<g id="edge32" class="edge">
<title>Node1511&#45;&gt;Node1528</title>
<path fill="none" stroke="#191970" d="M61.1905,-327.8191C67.49,-361.7179 92.529,-475.3973 155,-542 158.2894,-545.5069 162.079,-548.6659 166.1198,-551.4975"/>
<polygon fill="#191970" stroke="#191970" points="164.3527,-554.5205 174.6869,-556.8564 168.065,-548.5858 164.3527,-554.5205"/>
</g>
<!-- Node1529 -->
<g id="node19" class="node">
<title>Node1529</title>
<g id="a_node19"><a xlink:href="namespaceios__client__queue.xhtml#ad45a47e6cd283c6c4b4e7a3a45dd37a6" target="_top" xlink:title="ios_client_queue::ios_send">
<polygon fill="#ffffff" stroke="#000000" points="476,-76.5 476,-95.5 623,-95.5 623,-76.5 476,-76.5"/>
<text text-anchor="middle" x="549.5" y="-83.5" font-family="Helvetica,sans-Serif" font-size="10.00" fill="#000000">ios_client_queue::ios_send</text>
</a>
</g>
</g>
<!-- Node1511&#45;&gt;Node1529 -->
<g id="edge34" class="edge">
<title>Node1511&#45;&gt;Node1529</title>
<path fill="none" stroke="#191970" d="M67.8196,-308.267C97.0354,-274.8366 199.1837,-164.1741 310,-117 358.9678,-96.1546 418.2586,-88.3596 465.5959,-85.7982"/>
<polygon fill="#191970" stroke="#191970" points="465.9904,-89.2836 475.8142,-85.3158 465.6603,-82.2914 465.9904,-89.2836"/>
</g>
<!-- Node1531 -->
<g id="node21" class="node">
<title>Node1531</title>
<g id="a_node21"><a xlink:href="argspc_8h.xhtml#a3b51acbeb211391bb5a08eeb1d98132e" target="_top" xlink:title="array">
<polygon fill="#ffffff" stroke="#000000" points="193.5,-38.5 193.5,-57.5 235.5,-57.5 235.5,-38.5 193.5,-38.5"/>
<text text-anchor="middle" x="214.5" y="-45.5" font-family="Helvetica,sans-Serif" font-size="10.00" fill="#000000">array</text>
</a>
</g>
</g>
<!-- Node1511&#45;&gt;Node1531 -->
<g id="edge40" class="edge">
<title>Node1511&#45;&gt;Node1531</title>
<path fill="none" stroke="#191970" d="M60.5505,-308.0469C64.9194,-271.4916 84.8426,-143.0824 155,-72 162.7461,-64.1517 173.3994,-58.7844 183.5529,-55.1528"/>
<polygon fill="#191970" stroke="#191970" points="184.9123,-58.395 193.4137,-52.0723 182.8249,-51.7135 184.9123,-58.395"/>
</g>
<!-- Node1514 -->
<g id="node4" class="node">
<title>Node1514</title>
<g id="a_node4"><a xlink:href="namespaceios__common.xhtml#a31ef4cb4de4333384dba3e441df47903" target="_top" xlink:title="ios_common::assert\l_client">
<polygon fill="#ffffff" stroke="#000000" points="317.5,-333 317.5,-363 432.5,-363 432.5,-333 317.5,-333"/>
<text text-anchor="start" x="325.5" y="-351" font-family="Helvetica,sans-Serif" font-size="10.00" fill="#000000">ios_common::assert</text>
<text text-anchor="middle" x="375" y="-340" font-family="Helvetica,sans-Serif" font-size="10.00" fill="#000000">_client</text>
</a>
</g>
</g>
<!-- Node1513&#45;&gt;Node1514 -->
<g id="edge3" class="edge">
<title>Node1513&#45;&gt;Node1514</title>
<path fill="none" stroke="#191970" d="M274.2643,-329.1709C285.0457,-331.1861 296.3558,-333.3002 307.343,-335.3538"/>
<polygon fill="#191970" stroke="#191970" points="306.8451,-338.8213 317.318,-337.2183 308.1313,-331.9405 306.8451,-338.8213"/>
</g>
<!-- Node1515 -->
<g id="node5" class="node">
<title>Node1515</title>
<g id="a_node5"><a xlink:href="namespaceios__common.xhtml#a4b4c79405dd73494ae58cbf0e4f1658b" target="_top" xlink:title="ios_common::ios_ereport">
<polygon fill="#ffffff" stroke="#000000" points="662,-342.5 662,-361.5 802,-361.5 802,-342.5 662,-342.5"/>
<text text-anchor="middle" x="732" y="-349.5" font-family="Helvetica,sans-Serif" font-size="10.00" fill="#000000">ios_common::ios_ereport</text>
</a>
</g>
</g>
<!-- Node1513&#45;&gt;Node1515 -->
<g id="edge16" class="edge">
<title>Node1513&#45;&gt;Node1515</title>
<path fill="none" stroke="#191970" d="M234.0335,-333.0754C252.4622,-346.2758 281.4493,-364.487 310,-372 441.185,-406.5207 603.0757,-380.7241 682.8364,-363.7449"/>
<polygon fill="#191970" stroke="#191970" points="684.0457,-367.0638 693.0728,-361.5175 682.5573,-360.2238 684.0457,-367.0638"/>
</g>
<!-- Node1516 -->
<g id="node6" class="node">
<title>Node1516</title>
<g id="a_node6"><a xlink:href="namespaceios__print__mgr.xhtml#abd09d7fc0d2381103fd0889b447f4995" target="_top" xlink:title="ios_print_mgr::ios\l_print">
<polygon fill="#ffffff" stroke="#000000" points="1061,-261 1061,-291 1165,-291 1165,-261 1061,-261"/>
<text text-anchor="start" x="1069" y="-279" font-family="Helvetica,sans-Serif" font-size="10.00" fill="#000000">ios_print_mgr::ios</text>
<text text-anchor="middle" x="1113" y="-268" font-family="Helvetica,sans-Serif" font-size="10.00" fill="#000000">_print</text>
</a>
</g>
</g>
<!-- Node1513&#45;&gt;Node1516 -->
<g id="edge15" class="edge">
<title>Node1513&#45;&gt;Node1516</title>
<path fill="none" stroke="#191970" d="M219.2261,-333.0927C229.8618,-364.3493 258.8322,-436.0701 310,-470 426.3679,-547.1648 485.7347,-522.5763 623,-497 797.6961,-464.4493 837.9903,-434.3092 996,-353 1027.8265,-336.6226 1061.7343,-313.6221 1084.8081,-297.0293"/>
<polygon fill="#191970" stroke="#191970" points="1087.06,-299.7195 1093.094,-291.0108 1082.9461,-294.0559 1087.06,-299.7195"/>
</g>
<!-- Node1522 -->
<g id="node12" class="node">
<title>Node1522</title>
<g id="a_node12"><a xlink:href="namespaceios__common.xhtml#a9cbfffb6c02387dc317575ab449918b6" target="_top" xlink:title="ios_common::ios_actionname">
<polygon fill="#ffffff" stroke="#000000" points="1032,-152.5 1032,-171.5 1194,-171.5 1194,-152.5 1032,-152.5"/>
<text text-anchor="middle" x="1113" y="-159.5" font-family="Helvetica,sans-Serif" font-size="10.00" fill="#000000">ios_common::ios_actionname</text>
</a>
</g>
</g>
<!-- Node1513&#45;&gt;Node1522 -->
<g id="edge14" class="edge">
<title>Node1513&#45;&gt;Node1522</title>
<path fill="none" stroke="#191970" d="M225.2922,-302.812C241.3002,-281.4416 273.4133,-242.79 310,-222 405.4065,-167.7862 439.7661,-162 549.5,-162 549.5,-162 549.5,-162 732,-162 831.0702,-162 944.6309,-162 1021.8152,-162"/>
<polygon fill="#191970" stroke="#191970" points="1021.9869,-165.5001 1031.9868,-162 1021.9868,-158.5001 1021.9869,-165.5001"/>
</g>
<!-- Node1523 -->
<g id="node13" class="node">
<title>Node1523</title>
<g id="a_node13"><a xlink:href="namespaceios__client__queue.xhtml#a8113f81d94a6b3ff7dded6fcd66952a3" target="_top" xlink:title="ios_client_queue::ios\l_querybuffer">
<polygon fill="#ffffff" stroke="#000000" points="490,-191 490,-221 609,-221 609,-191 490,-191"/>
<text text-anchor="start" x="498" y="-209" font-family="Helvetica,sans-Serif" font-size="10.00" fill="#000000">ios_client_queue::ios</text>
<text text-anchor="middle" x="549.5" y="-198" font-family="Helvetica,sans-Serif" font-size="10.00" fill="#000000">_querybuffer</text>
</a>
</g>
</g>
<!-- Node1513&#45;&gt;Node1523 -->
<g id="edge17" class="edge">
<title>Node1513&#45;&gt;Node1523</title>
<path fill="none" stroke="#191970" d="M236.3419,-302.9691C255.1246,-290.656 283.3276,-273.5941 310,-263 365.2562,-241.0525 431.1775,-226.1267 479.8584,-217.072"/>
<polygon fill="#191970" stroke="#191970" points="480.7641,-220.4647 489.9746,-215.2285 479.5091,-213.5781 480.7641,-220.4647"/>
</g>
<!-- Node1525 -->
<g id="node15" class="node">
<title>Node1525</title>
<g id="a_node15"><a xlink:href="namespaceios__common.xhtml#a66b4e97a85f71f85bc4f53af5819c234" target="_top" xlink:title="ios_common::io_server\l_for_unit">
<polygon fill="#ffffff" stroke="#000000" points="310,-431 310,-461 440,-461 440,-431 310,-431"/>
<text text-anchor="start" x="318" y="-449" font-family="Helvetica,sans-Serif" font-size="10.00" fill="#000000">ios_common::io_server</text>
<text text-anchor="middle" x="375" y="-438" font-family="Helvetica,sans-Serif" font-size="10.00" fill="#000000">_for_unit</text>
</a>
</g>
</g>
<!-- Node1513&#45;&gt;Node1525 -->
<g id="edge23" class="edge">
<title>Node1513&#45;&gt;Node1525</title>
<path fill="none" stroke="#191970" d="M226.3611,-333.3032C243.1555,-354.1709 275.6645,-391.7272 310,-416 315.2615,-419.7195 321.0578,-423.1629 326.9564,-426.2894"/>
<polygon fill="#191970" stroke="#191970" points="325.7382,-429.5935 336.2477,-430.9359 328.8692,-423.3327 325.7382,-429.5935"/>
</g>
<!-- Node1526 -->
<g id="node16" class="node">
<title>Node1526</title>
<g id="a_node16"><a xlink:href="namespaceios__common.xhtml#a7ff67c62d278ec0aad0a979c736996c9" target="_top" xlink:title="ios_common::ioserverno">
<polygon fill="#ffffff" stroke="#000000" points="663.5,-114.5 663.5,-133.5 800.5,-133.5 800.5,-114.5 663.5,-114.5"/>
<text text-anchor="middle" x="732" y="-121.5" font-family="Helvetica,sans-Serif" font-size="10.00" fill="#000000">ios_common::ioserverno</text>
</a>
</g>
</g>
<!-- Node1513&#45;&gt;Node1526 -->
<g id="edge26" class="edge">
<title>Node1513&#45;&gt;Node1526</title>
<path fill="none" stroke="#191970" d="M217.8367,-302.8192C226.3231,-268.2779 252.2743,-184.0215 310,-148 365.3346,-113.4706 547.3038,-115.3229 653.3566,-119.6799"/>
<polygon fill="#191970" stroke="#191970" points="653.2356,-123.1778 663.376,-120.1082 653.5347,-116.1842 653.2356,-123.1778"/>
</g>
<!-- Node1527 -->
<g id="node17" class="node">
<title>Node1527</title>
<g id="a_node17"><a xlink:href="namespaceios__client__queue.xhtml#a9b6ce597cb41097a50bacde8955fa2e7" target="_top" xlink:title="ios_client_queue::ios\l_consume_client_mem">
<polygon fill="#ffffff" stroke="#000000" points="310.5,-273 310.5,-303 439.5,-303 439.5,-273 310.5,-273"/>
<text text-anchor="start" x="318.5" y="-291" font-family="Helvetica,sans-Serif" font-size="10.00" fill="#000000">ios_client_queue::ios</text>
<text text-anchor="middle" x="375" y="-280" font-family="Helvetica,sans-Serif" font-size="10.00" fill="#000000">_consume_client_mem</text>
</a>
</g>
</g>
<!-- Node1513&#45;&gt;Node1527 -->
<g id="edge27" class="edge">
<title>Node1513&#45;&gt;Node1527</title>
<path fill="none" stroke="#191970" d="M274.2643,-306.8291C282.812,-305.2314 291.692,-303.5716 300.48,-301.929"/>
<polygon fill="#191970" stroke="#191970" points="301.1534,-305.3638 310.3401,-300.086 299.8672,-298.483 301.1534,-305.3638"/>
</g>
<!-- Node1514&#45;&gt;Node1515 -->
<g id="edge4" class="edge">
<title>Node1514&#45;&gt;Node1515</title>
<path fill="none" stroke="#191970" d="M432.755,-348.6471C492.1638,-349.3128 585.1654,-350.3548 651.7172,-351.1005"/>
<polygon fill="#191970" stroke="#191970" points="651.7105,-354.6005 661.7492,-351.2129 651.789,-347.601 651.7105,-354.6005"/>
</g>
<!-- Node1515&#45;&gt;Node1516 -->
<g id="edge5" class="edge">
<title>Node1515&#45;&gt;Node1516</title>
<path fill="none" stroke="#191970" d="M802.2694,-351.8253C856.0854,-350.2088 931.7502,-344.71 996,-328 1024.2354,-320.6566 1054.2727,-307.1745 1076.8424,-295.7785"/>
<polygon fill="#191970" stroke="#191970" points="1078.7432,-298.7365 1086.0309,-291.0463 1075.5381,-292.5134 1078.7432,-298.7365"/>
</g>
<!-- Node1521 -->
<g id="node11" class="node">
<title>Node1521</title>
<g id="a_node11"><a xlink:href="namespaceios__common.xhtml#ade38472c488c019e816ec75cb70ab3cc" target="_top" xlink:title="ios_common::ios_report_md">
<polygon fill="#ffffff" stroke="#000000" points="841,-266.5 841,-285.5 996,-285.5 996,-266.5 841,-266.5"/>
<text text-anchor="middle" x="918.5" y="-273.5" font-family="Helvetica,sans-Serif" font-size="10.00" fill="#000000">ios_common::ios_report_md</text>
</a>
</g>
</g>
<!-- Node1515&#45;&gt;Node1521 -->
<g id="edge11" class="edge">
<title>Node1515&#45;&gt;Node1521</title>
<path fill="none" stroke="#191970" d="M755.6204,-342.3745C788.5517,-328.9548 848.4003,-304.5661 885.6593,-289.3828"/>
<polygon fill="#191970" stroke="#191970" points="887.1317,-292.5623 895.0714,-285.5473 884.49,-286.0799 887.1317,-292.5623"/>
</g>
<!-- Node1517 -->
<g id="node7" class="node">
<title>Node1517</title>
<g id="a_node7"><a xlink:href="namespaceumprintmgr.xhtml#aae44897e556705dbf5e945a26538be9a" target="_top" xlink:title="umprintmgr::umprint">
<polygon fill="#ffffff" stroke="#000000" points="1230,-266.5 1230,-285.5 1349,-285.5 1349,-266.5 1230,-266.5"/>
<text text-anchor="middle" x="1289.5" y="-273.5" font-family="Helvetica,sans-Serif" font-size="10.00" fill="#000000">umprintmgr::umprint</text>
</a>
</g>
</g>
<!-- Node1516&#45;&gt;Node1517 -->
<g id="edge6" class="edge">
<title>Node1516&#45;&gt;Node1517</title>
<path fill="none" stroke="#191970" d="M1165.0012,-276C1182.1607,-276 1201.5332,-276 1219.796,-276"/>
<polygon fill="#191970" stroke="#191970" points="1219.8067,-279.5001 1229.8067,-276 1219.8067,-272.5001 1219.8067,-279.5001"/>
</g>
<!-- Node1518 -->
<g id="node8" class="node">
<title>Node1518</title>
<g id="a_node8"><a xlink:href="namespaceumprintmgr.xhtml#a088ce22a18d574e9df7ee1850bfb10c7" target="_top" xlink:title="umprintmgr::umprintopenstream">
<polygon fill="#ffffff" stroke="#000000" points="1385,-266.5 1385,-285.5 1562,-285.5 1562,-266.5 1385,-266.5"/>
<text text-anchor="middle" x="1473.5" y="-273.5" font-family="Helvetica,sans-Serif" font-size="10.00" fill="#000000">umprintmgr::umprintopenstream</text>
</a>
</g>
</g>
<!-- Node1517&#45;&gt;Node1518 -->
<g id="edge7" class="edge">
<title>Node1517&#45;&gt;Node1518</title>
<path fill="none" stroke="#191970" d="M1349.2395,-269.6333C1357.4605,-269.4301 1366.0751,-269.3077 1374.7702,-269.2661"/>
<polygon fill="#191970" stroke="#191970" points="1374.9998,-272.7659 1384.9958,-269.2543 1374.9917,-265.7659 1374.9998,-272.7659"/>
</g>
<!-- Node1519 -->
<g id="node9" class="node">
<title>Node1519</title>
<g id="a_node9"><a xlink:href="namespaceumprintmgr.xhtml#ad3a290b30a6e25500eabc0bf90330b77" target="_top" xlink:title="umprintmgr::umprintflush">
<polygon fill="#ffffff" stroke="#000000" points="1402.5,-228.5 1402.5,-247.5 1544.5,-247.5 1544.5,-228.5 1402.5,-228.5"/>
<text text-anchor="middle" x="1473.5" y="-235.5" font-family="Helvetica,sans-Serif" font-size="10.00" fill="#000000">umprintmgr::umprintflush</text>
</a>
</g>
</g>
<!-- Node1517&#45;&gt;Node1519 -->
<g id="edge9" class="edge">
<title>Node1517&#45;&gt;Node1519</title>
<path fill="none" stroke="#191970" d="M1335.931,-266.411C1360.6493,-261.3061 1391.239,-254.9887 1417.292,-249.6082"/>
<polygon fill="#191970" stroke="#191970" points="1418.3175,-252.9703 1427.4029,-247.5201 1416.9017,-246.115 1418.3175,-252.9703"/>
</g>
<!-- Node1518&#45;&gt;Node1517 -->
<g id="edge8" class="edge">
<title>Node1518&#45;&gt;Node1517</title>
<path fill="none" stroke="#191970" d="M1384.9958,-282.7457C1376.3802,-282.767 1367.7236,-282.7094 1359.3289,-282.5727"/>
<polygon fill="#191970" stroke="#191970" points="1359.3089,-279.0716 1349.2395,-282.3667 1359.166,-286.0702 1359.3089,-279.0716"/>
</g>
<!-- Node1520 -->
<g id="node10" class="node">
<title>Node1520</title>
<g id="a_node10"><a xlink:href="namespaceumflush__mod.xhtml#a3a003ab59990bdcb712b443dd5e0d1cd" target="_top" xlink:title="umflush_mod::umflush">
<polygon fill="#ffffff" stroke="#000000" points="1598,-228.5 1598,-247.5 1726,-247.5 1726,-228.5 1598,-228.5"/>
<text text-anchor="middle" x="1662" y="-235.5" font-family="Helvetica,sans-Serif" font-size="10.00" fill="#000000">umflush_mod::umflush</text>
</a>
</g>
</g>
<!-- Node1519&#45;&gt;Node1520 -->
<g id="edge10" class="edge">
<title>Node1519&#45;&gt;Node1520</title>
<path fill="none" stroke="#191970" d="M1544.7638,-238C1558.7742,-238 1573.5063,-238 1587.6162,-238"/>
<polygon fill="#191970" stroke="#191970" points="1587.7612,-241.5001 1597.7611,-238 1587.7611,-234.5001 1587.7612,-241.5001"/>
</g>
<!-- Node1521&#45;&gt;Node1516 -->
<g id="edge12" class="edge">
<title>Node1521&#45;&gt;Node1516</title>
<path fill="none" stroke="#191970" d="M996.2101,-276C1014.3428,-276 1033.4209,-276 1050.7801,-276"/>
<polygon fill="#191970" stroke="#191970" points="1050.7822,-279.5001 1060.7822,-276 1050.7821,-272.5001 1050.7822,-279.5001"/>
</g>
<!-- Node1521&#45;&gt;Node1522 -->
<g id="edge13" class="edge">
<title>Node1521&#45;&gt;Node1522</title>
<path fill="none" stroke="#191970" d="M934.7484,-266.4765C968.7143,-246.5685 1047.4293,-200.4322 1087.9312,-176.6933"/>
<polygon fill="#191970" stroke="#191970" points="1089.8035,-179.6528 1096.661,-171.5766 1086.2639,-173.6137 1089.8035,-179.6528"/>
</g>
<!-- Node1523&#45;&gt;Node1515 -->
<g id="edge22" class="edge">
<title>Node1523&#45;&gt;Node1515</title>
<path fill="none" stroke="#191970" d="M568.3433,-221.0747C602.9333,-248.7466 676.2642,-307.4114 711.8235,-335.8588"/>
<polygon fill="#191970" stroke="#191970" points="710.0085,-338.889 720.0036,-342.4029 714.3814,-333.4229 710.0085,-338.889"/>
</g>
<!-- Node1523&#45;&gt;Node1516 -->
<g id="edge18" class="edge">
<title>Node1523&#45;&gt;Node1516</title>
<path fill="none" stroke="#191970" d="M609.2571,-207.3444C695.4136,-210.1559 859.207,-218.7737 996,-245 1014.5448,-248.5554 1034.4862,-253.4344 1052.5589,-258.2696"/>
<polygon fill="#191970" stroke="#191970" points="1051.8183,-261.6953 1062.3863,-260.9427 1053.6556,-254.9407 1051.8183,-261.6953"/>
</g>
<!-- Node1524 -->
<g id="node14" class="node">
<title>Node1524</title>
<g id="a_node14"><a xlink:href="namespaceios__client__queue.xhtml#a9df32aa21836ca6d0c9912866fc9a3e8" target="_top" xlink:title="ios_client_queue::ios\l_print_protocol_slot">
<polygon fill="#ffffff" stroke="#000000" points="672.5,-232 672.5,-262 791.5,-262 791.5,-232 672.5,-232"/>
<text text-anchor="start" x="680.5" y="-250" font-family="Helvetica,sans-Serif" font-size="10.00" fill="#000000">ios_client_queue::ios</text>
<text text-anchor="middle" x="732" y="-239" font-family="Helvetica,sans-Serif" font-size="10.00" fill="#000000">_print_protocol_slot</text>
</a>
</g>
</g>
<!-- Node1523&#45;&gt;Node1524 -->
<g id="edge19" class="edge">
<title>Node1523&#45;&gt;Node1524</title>
<path fill="none" stroke="#191970" d="M609.0048,-219.3682C625.9605,-223.1774 644.5868,-227.362 662.1012,-231.2967"/>
<polygon fill="#191970" stroke="#191970" points="661.7399,-234.8027 672.2639,-233.5798 663.2743,-227.9729 661.7399,-234.8027"/>
</g>
<!-- Node1524&#45;&gt;Node1516 -->
<g id="edge20" class="edge">
<title>Node1524&#45;&gt;Node1516</title>
<path fill="none" stroke="#191970" d="M791.6456,-247.1678C845.2471,-247.8157 926.0572,-250.023 996,-257 1013.8022,-258.7758 1033.0065,-261.5367 1050.6075,-264.4089"/>
<polygon fill="#191970" stroke="#191970" points="1050.3226,-267.9097 1060.7627,-266.1062 1051.4766,-261.0055 1050.3226,-267.9097"/>
</g>
<!-- Node1524&#45;&gt;Node1521 -->
<g id="edge21" class="edge">
<title>Node1524&#45;&gt;Node1521</title>
<path fill="none" stroke="#191970" d="M791.5225,-256.2555C809.2419,-259.0108 828.839,-262.0581 847.2271,-264.9174"/>
<polygon fill="#191970" stroke="#191970" points="846.8797,-268.4053 857.2988,-266.4835 847.9553,-261.4884 846.8797,-268.4053"/>
</g>
<!-- Node1525&#45;&gt;Node1512 -->
<g id="edge25" class="edge">
<title>Node1525&#45;&gt;Node1512</title>
<path fill="none" stroke="#191970" d="M440.4738,-458.0067C455.9435,-460.8435 472.3889,-463.8593 487.6903,-466.6653"/>
<polygon fill="#191970" stroke="#191970" points="487.0913,-470.1137 497.5586,-468.4749 488.354,-463.2285 487.0913,-470.1137"/>
</g>
<!-- Node1525&#45;&gt;Node1515 -->
<g id="edge24" class="edge">
<title>Node1525&#45;&gt;Node1515</title>
<path fill="none" stroke="#191970" d="M440.0494,-445.3524C491.0286,-443.1428 563.1113,-436.2229 623,-416 656.2918,-404.7582 690.581,-382.5406 711.595,-367.4758"/>
<polygon fill="#191970" stroke="#191970" points="713.7437,-370.2404 719.7466,-361.5102 709.6097,-364.5915 713.7437,-370.2404"/>
</g>
<!-- Node1527&#45;&gt;Node1515 -->
<g id="edge28" class="edge">
<title>Node1527&#45;&gt;Node1515</title>
<path fill="none" stroke="#191970" d="M439.65,-299.5899C504.6887,-311.2495 604.3366,-329.1136 668.8403,-340.6773"/>
<polygon fill="#191970" stroke="#191970" points="668.4196,-344.1576 678.8803,-342.4771 669.6549,-337.2674 668.4196,-344.1576"/>
</g>
<!-- Node1527&#45;&gt;Node1516 -->
<g id="edge29" class="edge">
<title>Node1527&#45;&gt;Node1516</title>
<path fill="none" stroke="#191970" d="M439.5016,-292.6117C552.4767,-299.8225 793.4186,-311.3419 996,-295 1013.8326,-293.5615 1033.0467,-290.9088 1050.6473,-288.0324"/>
<polygon fill="#191970" stroke="#191970" points="1051.5223,-291.4344 1060.8012,-286.3206 1050.3585,-284.5318 1051.5223,-291.4344"/>
</g>
<!-- Node1527&#45;&gt;Node1523 -->
<g id="edge30" class="edge">
<title>Node1527&#45;&gt;Node1523</title>
<path fill="none" stroke="#191970" d="M402.5412,-272.9881C422.6665,-262.2237 450.7405,-247.6302 476,-236 484.0954,-232.2727 492.7907,-228.5142 501.2663,-224.9782"/>
<polygon fill="#191970" stroke="#191970" points="502.7846,-228.1382 510.6984,-221.0939 500.119,-221.6655 502.7846,-228.1382"/>
</g>
<!-- Node1527&#45;&gt;Node1524 -->
<g id="edge31" class="edge">
<title>Node1527&#45;&gt;Node1524</title>
<path fill="none" stroke="#191970" d="M439.6153,-278.7237C451.6978,-277.0799 464.2267,-275.4364 476,-274 539.0079,-266.3125 610.9013,-258.8442 662.426,-253.7183"/>
<polygon fill="#191970" stroke="#191970" points="662.8446,-257.194 672.4507,-252.7249 662.1543,-250.2281 662.8446,-257.194"/>
</g>
<!-- Node1528&#45;&gt;Node1515 -->
<g id="edge33" class="edge">
<title>Node1528&#45;&gt;Node1515</title>
<path fill="none" stroke="#191970" d="M274.0503,-574.1546C358.1182,-574.4537 513.5351,-564.7 623,-497 673.2711,-465.9092 708.4184,-402.4674 723.5966,-370.8229"/>
<polygon fill="#191970" stroke="#191970" points="726.7739,-372.2908 727.8168,-361.7474 720.4266,-369.3392 726.7739,-372.2908"/>
</g>
<!-- Node1529&#45;&gt;Node1515 -->
<g id="edge39" class="edge">
<title>Node1529&#45;&gt;Node1515</title>
<path fill="none" stroke="#191970" d="M558.4212,-95.6067C573.3459,-112.0619 603.6411,-147.1495 623,-181 644.3874,-218.3976 636.2253,-234.4307 659,-271 674.3398,-295.6312 697.4811,-319.8054 713.5821,-335.2394"/>
<polygon fill="#191970" stroke="#191970" points="711.5959,-338.1756 721.2815,-342.4698 716.3878,-333.0728 711.5959,-338.1756"/>
</g>
<!-- Node1529&#45;&gt;Node1516 -->
<g id="edge37" class="edge">
<title>Node1529&#45;&gt;Node1516</title>
<path fill="none" stroke="#191970" d="M623.1447,-83.1801C675.0235,-83.1806 745.5505,-87.2255 805,-105 916.8477,-138.4407 1033.1316,-217.0772 1085.0579,-254.9229"/>
<polygon fill="#191970" stroke="#191970" points="1082.9897,-257.7464 1093.1199,-260.8494 1087.1358,-252.1064 1082.9897,-257.7464"/>
</g>
<!-- Node1529&#45;&gt;Node1522 -->
<g id="edge38" class="edge">
<title>Node1529&#45;&gt;Node1522</title>
<path fill="none" stroke="#191970" d="M585.7789,-76.4848C663.4992,-57.8798 850.8027,-22.6152 996,-72 1038.3817,-86.4149 1077.401,-123.0627 1097.9133,-144.89"/>
<polygon fill="#191970" stroke="#191970" points="1095.5028,-147.4403 1104.837,-152.4526 1100.6659,-142.7134 1095.5028,-147.4403"/>
</g>
<!-- Node1529&#45;&gt;Node1526 -->
<g id="edge35" class="edge">
<title>Node1529&#45;&gt;Node1526</title>
<path fill="none" stroke="#191970" d="M595.5525,-95.589C620.0692,-100.6939 650.4096,-107.0113 676.2502,-112.3918"/>
<polygon fill="#191970" stroke="#191970" points="675.7752,-115.8679 686.2787,-114.4799 677.2022,-109.0149 675.7752,-115.8679"/>
</g>
<!-- Node1530 -->
<g id="node20" class="node">
<title>Node1530</title>
<g id="a_node20"><a xlink:href="namespaceios__common.xhtml#a3976806ac3c1c9b09b572dff6c77d79f" target="_top" xlink:title="ios_common::ioserverrank">
<polygon fill="#ffffff" stroke="#000000" points="659,-.5 659,-19.5 805,-19.5 805,-.5 659,-.5"/>
<text text-anchor="middle" x="732" y="-7.5" font-family="Helvetica,sans-Serif" font-size="10.00" fill="#000000">ios_common::ioserverrank</text>
</a>
</g>
</g>
<!-- Node1529&#45;&gt;Node1530 -->
<g id="edge36" class="edge">
<title>Node1529&#45;&gt;Node1530</title>
<path fill="none" stroke="#191970" d="M567.7844,-76.4454C589.2736,-65.4217 626.1728,-47.1304 659,-34 669.044,-29.9825 680.049,-26.1023 690.3986,-22.6753"/>
<polygon fill="#191970" stroke="#191970" points="691.6357,-25.9537 700.0679,-19.5389 689.4758,-19.2952 691.6357,-25.9537"/>
</g>
</g>
</svg>
