<?xml version="1.0" encoding="UTF-8" standalone="no"?>
<!DOCTYPE svg PUBLIC "-//W3C//DTD SVG 1.1//EN"
 "http://www.w3.org/Graphics/SVG/1.1/DTD/svg11.dtd">
<!-- Generated by graphviz version 2.40.1 (20161225.0304)
 -->
<!-- Title: rcf_grib_sethdr_mod::rcf_grib_sethdr Pages: 1 -->
<svg width="811pt" height="103pt"
 viewBox="0.00 0.00 811.00 102.97" xmlns="http://www.w3.org/2000/svg" xmlns:xlink="http://www.w3.org/1999/xlink">
<g id="graph0" class="graph" transform="scale(1 1) rotate(0) translate(4 98.9719)">
<title>rcf_grib_sethdr_mod::rcf_grib_sethdr</title>
<polygon fill="#ffffff" stroke="transparent" points="-4,4 -4,-98.9719 807,-98.9719 807,4 -4,4"/>
<!-- Node0 -->
<g id="node1" class="node">
<title>Node0</title>
<polygon fill="#bfbfbf" stroke="#000000" points="0,-49.5 0,-79.5 116,-79.5 116,-49.5 0,-49.5"/>
<text text-anchor="start" x="8" y="-67.5" font-family="Helvetica,sans-Serif" font-size="10.00" fill="#000000">rcf_grib_sethdr_mod</text>
<text text-anchor="middle" x="58" y="-56.5" font-family="Helvetica,sans-Serif" font-size="10.00" fill="#000000">::rcf_grib_sethdr</text>
</g>
<!-- Node1 -->
<g id="node2" class="node">
<title>Node1</title>
<g id="a_node2"><a xlink:href="namespaceumprintmgr.xhtml#aae44897e556705dbf5e945a26538be9a" target="_top" xlink:title="umprintmgr::umprint">
<polygon fill="#ffffff" stroke="#000000" points="307,-52 307,-71 426,-71 426,-52 307,-52"/>
<text text-anchor="middle" x="366.5" y="-59" font-family="Helvetica,sans-Serif" font-size="10.00" fill="#000000">umprintmgr::umprint</text>
</a>
</g>
</g>
<!-- Node0&#45;&gt;Node1 -->
<g id="edge1" class="edge">
<title>Node0&#45;&gt;Node1</title>
<path fill="none" stroke="#191970" d="M104.8575,-79.5237C119.7643,-83.6087 136.4278,-87.4646 152,-89.5 204.4428,-96.3546 218.6479,-97.0164 271,-89.5 291.3011,-86.5853 313.3084,-80.3535 331.0748,-74.5075"/>
<polygon fill="#191970" stroke="#191970" points="332.6563,-77.6668 341.0004,-71.138 330.406,-71.0384 332.6563,-77.6668"/>
</g>
<!-- Node5 -->
<g id="node6" class="node">
<title>Node5</title>
<g id="a_node6"><a xlink:href="namespacercf__allochdr__mod.xhtml#aacd6149a28e89048e1cb5f47b03cdc53" target="_top" xlink:title="Subroutine Rcf_AllocHdr &#45; allocates space for the header. ">
<polygon fill="#ffffff" stroke="#000000" points="152,-49.5 152,-79.5 271,-79.5 271,-49.5 152,-49.5"/>
<text text-anchor="start" x="160" y="-67.5" font-family="Helvetica,sans-Serif" font-size="10.00" fill="#000000">rcf_allochdr_mod::rcf</text>
<text text-anchor="middle" x="211.5" y="-56.5" font-family="Helvetica,sans-Serif" font-size="10.00" fill="#000000">_allochdr</text>
</a>
</g>
</g>
<!-- Node0&#45;&gt;Node5 -->
<g id="edge6" class="edge">
<title>Node0&#45;&gt;Node5</title>
<path fill="none" stroke="#191970" d="M116.0318,-64.5C124.4527,-64.5 133.1939,-64.5 141.8151,-64.5"/>
<polygon fill="#191970" stroke="#191970" points="141.8542,-68.0001 151.8542,-64.5 141.8542,-61.0001 141.8542,-68.0001"/>
</g>
<!-- Node6 -->
<g id="node7" class="node">
<title>Node6</title>
<g id="a_node7"><a xlink:href="namespacercf__setup__fixhd__mod.xhtml#a36dcbfa0fed9ead1142dd729917bbe7d" target="_top" xlink:title="Subroutine Rcf_Setup_FixHd &#45; sets the output dump fixed header. ">
<polygon fill="#ffffff" stroke="#000000" points="152.5,-.5 152.5,-30.5 270.5,-30.5 270.5,-.5 152.5,-.5"/>
<text text-anchor="start" x="160.5" y="-18.5" font-family="Helvetica,sans-Serif" font-size="10.00" fill="#000000">rcf_setup_fixhd_mod</text>
<text text-anchor="middle" x="211.5" y="-7.5" font-family="Helvetica,sans-Serif" font-size="10.00" fill="#000000">::rcf_setup_fixhd</text>
</a>
</g>
</g>
<!-- Node0&#45;&gt;Node6 -->
<g id="edge7" class="edge">
<title>Node0&#45;&gt;Node6</title>
<path fill="none" stroke="#191970" d="M105.3076,-49.3986C120.8458,-44.4385 138.2816,-38.8726 154.4634,-33.7071"/>
<polygon fill="#191970" stroke="#191970" points="155.8866,-36.9269 164.3486,-30.5516 153.7579,-30.2584 155.8866,-36.9269"/>
</g>
<!-- Node2 -->
<g id="node3" class="node">
<title>Node2</title>
<g id="a_node3"><a xlink:href="namespaceumprintmgr.xhtml#a088ce22a18d574e9df7ee1850bfb10c7" target="_top" xlink:title="umprintmgr::umprintopenstream">
<polygon fill="#ffffff" stroke="#000000" points="462,-52 462,-71 639,-71 639,-52 462,-52"/>
<text text-anchor="middle" x="550.5" y="-59" font-family="Helvetica,sans-Serif" font-size="10.00" fill="#000000">umprintmgr::umprintopenstream</text>
</a>
</g>
</g>
<!-- Node1&#45;&gt;Node2 -->
<g id="edge2" class="edge">
<title>Node1&#45;&gt;Node2</title>
<path fill="none" stroke="#191970" d="M426.2395,-55.1333C434.4605,-54.9301 443.0751,-54.8077 451.7702,-54.7661"/>
<polygon fill="#191970" stroke="#191970" points="451.9998,-58.2659 461.9958,-54.7543 451.9917,-51.2659 451.9998,-58.2659"/>
</g>
<!-- Node3 -->
<g id="node4" class="node">
<title>Node3</title>
<g id="a_node4"><a xlink:href="namespaceumprintmgr.xhtml#ad3a290b30a6e25500eabc0bf90330b77" target="_top" xlink:title="umprintmgr::umprintflush">
<polygon fill="#ffffff" stroke="#000000" points="479.5,-14 479.5,-33 621.5,-33 621.5,-14 479.5,-14"/>
<text text-anchor="middle" x="550.5" y="-21" font-family="Helvetica,sans-Serif" font-size="10.00" fill="#000000">umprintmgr::umprintflush</text>
</a>
</g>
</g>
<!-- Node1&#45;&gt;Node3 -->
<g id="edge4" class="edge">
<title>Node1&#45;&gt;Node3</title>
<path fill="none" stroke="#191970" d="M412.931,-51.911C437.6493,-46.8061 468.239,-40.4887 494.292,-35.1082"/>
<polygon fill="#191970" stroke="#191970" points="495.3175,-38.4703 504.4029,-33.0201 493.9017,-31.615 495.3175,-38.4703"/>
</g>
<!-- Node2&#45;&gt;Node1 -->
<g id="edge3" class="edge">
<title>Node2&#45;&gt;Node1</title>
<path fill="none" stroke="#191970" d="M461.9958,-68.2457C453.3802,-68.267 444.7236,-68.2094 436.3289,-68.0727"/>
<polygon fill="#191970" stroke="#191970" points="436.3089,-64.5716 426.2395,-67.8667 436.166,-71.5702 436.3089,-64.5716"/>
</g>
<!-- Node4 -->
<g id="node5" class="node">
<title>Node4</title>
<g id="a_node5"><a xlink:href="namespaceumflush__mod.xhtml#a3a003ab59990bdcb712b443dd5e0d1cd" target="_top" xlink:title="umflush_mod::umflush">
<polygon fill="#ffffff" stroke="#000000" points="675,-14 675,-33 803,-33 803,-14 675,-14"/>
<text text-anchor="middle" x="739" y="-21" font-family="Helvetica,sans-Serif" font-size="10.00" fill="#000000">umflush_mod::umflush</text>
</a>
</g>
</g>
<!-- Node3&#45;&gt;Node4 -->
<g id="edge5" class="edge">
<title>Node3&#45;&gt;Node4</title>
<path fill="none" stroke="#191970" d="M621.7638,-23.5C635.7742,-23.5 650.5063,-23.5 664.6162,-23.5"/>
<polygon fill="#191970" stroke="#191970" points="664.7612,-27.0001 674.7611,-23.5 664.7611,-20.0001 664.7612,-27.0001"/>
</g>
<!-- Node6&#45;&gt;Node1 -->
<g id="edge8" class="edge">
<title>Node6&#45;&gt;Node1</title>
<path fill="none" stroke="#191970" d="M262.2528,-30.5621C282.4023,-36.542 305.3011,-43.3378 324.495,-49.034"/>
<polygon fill="#191970" stroke="#191970" points="323.5777,-52.4126 334.1602,-51.9024 325.5693,-45.7019 323.5777,-52.4126"/>
</g>
</g>
</svg>
