<?xml version="1.0" encoding="UTF-8" standalone="no"?>
<!DOCTYPE svg PUBLIC "-//W3C//DTD SVG 1.1//EN"
 "http://www.w3.org/Graphics/SVG/1.1/DTD/svg11.dtd">
<!-- Generated by graphviz version 2.40.1 (20161225.0304)
 -->
<!-- Title: conv_diag_4a_mod::conv_diag_4a Pages: 1 -->
<svg width="1329pt" height="384pt"
 viewBox="0.00 0.00 1329.00 383.81" xmlns="http://www.w3.org/2000/svg" xmlns:xlink="http://www.w3.org/1999/xlink">
<g id="graph0" class="graph" transform="scale(1 1) rotate(0) translate(4 379.8096)">
<title>conv_diag_4a_mod::conv_diag_4a</title>
<polygon fill="#ffffff" stroke="transparent" points="-4,4 -4,-379.8096 1325,-379.8096 1325,4 -4,4"/>
<!-- Node0 -->
<g id="node1" class="node">
<title>Node0</title>
<polygon fill="#bfbfbf" stroke="#000000" points="0,-61 0,-91 140,-91 140,-61 0,-61"/>
<text text-anchor="start" x="8" y="-79" font-family="Helvetica,sans-Serif" font-size="10.00" fill="#000000">conv_diag_4a_mod::conv</text>
<text text-anchor="middle" x="70" y="-68" font-family="Helvetica,sans-Serif" font-size="10.00" fill="#000000">_diag_4a</text>
</g>
<!-- Node1 -->
<g id="node2" class="node">
<title>Node1</title>
<g id="a_node2"><a xlink:href="qsat__mix_8f90.xhtml#ab2c9bd03497c107afdc2ea71e3887626" target="_top" xlink:title="Saturation Specific Humidity/mixing Scheme(Qsat):Vapour to Liquid/Ice. ">
<polygon fill="#ffffff" stroke="#000000" points="179,-104.5 179,-123.5 241,-123.5 241,-104.5 179,-104.5"/>
<text text-anchor="middle" x="210" y="-111.5" font-family="Helvetica,sans-Serif" font-size="10.00" fill="#000000">qsat_mix</text>
</a>
</g>
</g>
<!-- Node0&#45;&gt;Node1 -->
<g id="edge1" class="edge">
<title>Node0&#45;&gt;Node1</title>
<path fill="none" stroke="#191970" d="M125.3317,-91.0186C139.8272,-94.9531 155.2014,-99.1261 168.8143,-102.821"/>
<polygon fill="#191970" stroke="#191970" points="168.2694,-106.2997 178.8371,-105.5415 170.1031,-99.5441 168.2694,-106.2997"/>
</g>
<!-- Node2 -->
<g id="node3" class="node">
<title>Node2</title>
<g id="a_node3"><a xlink:href="scmoutput_8f90.xhtml#a1ebaa1ca3d36d0fc74ab3a09f13c6d78" target="_top" xlink:title="Create a SCM output diagnostic. ">
<polygon fill="#ffffff" stroke="#000000" points="176,-66.5 176,-85.5 244,-85.5 244,-66.5 176,-66.5"/>
<text text-anchor="middle" x="210" y="-73.5" font-family="Helvetica,sans-Serif" font-size="10.00" fill="#000000">scmoutput</text>
</a>
</g>
</g>
<!-- Node0&#45;&gt;Node2 -->
<g id="edge2" class="edge">
<title>Node0&#45;&gt;Node2</title>
<path fill="none" stroke="#191970" d="M140.4102,-76C149.0269,-76 157.6354,-76 165.7132,-76"/>
<polygon fill="#191970" stroke="#191970" points="165.9829,-79.5001 175.9829,-76 165.9828,-72.5001 165.9829,-79.5001"/>
</g>
<!-- Node4 -->
<g id="node5" class="node">
<title>Node4</title>
<g id="a_node5"><a xlink:href="namespaceumprintmgr.xhtml#aae44897e556705dbf5e945a26538be9a" target="_top" xlink:title="umprintmgr::umprint">
<polygon fill="#ffffff" stroke="#000000" points="821,-123.5 821,-142.5 940,-142.5 940,-123.5 821,-123.5"/>
<text text-anchor="middle" x="880.5" y="-130.5" font-family="Helvetica,sans-Serif" font-size="10.00" fill="#000000">umprintmgr::umprint</text>
</a>
</g>
</g>
<!-- Node0&#45;&gt;Node4 -->
<g id="edge25" class="edge">
<title>Node0&#45;&gt;Node4</title>
<path fill="none" stroke="#191970" d="M102.7717,-60.9848C154.1928,-38.8361 257.4763,0 349.5,0 349.5,0 349.5,0 526.5,0 659.3135,0 803.2783,-83.052 857.8349,-117.8969"/>
<polygon fill="#191970" stroke="#191970" points="856.0901,-120.9368 866.3863,-123.435 859.8953,-115.0613 856.0901,-120.9368"/>
</g>
<!-- Node3 -->
<g id="node4" class="node">
<title>Node3</title>
<g id="a_node4"><a xlink:href="namespaces__scmop__mod.xhtml#aed5d8df9d253718e6f8ed9b708bdd0da" target="_top" xlink:title="s_scmop_mod::stepnmbr">
<polygon fill="#ffffff" stroke="#000000" points="280,-28.5 280,-47.5 419,-47.5 419,-28.5 280,-28.5"/>
<text text-anchor="middle" x="349.5" y="-35.5" font-family="Helvetica,sans-Serif" font-size="10.00" fill="#000000">s_scmop_mod::stepnmbr</text>
</a>
</g>
</g>
<!-- Node2&#45;&gt;Node3 -->
<g id="edge3" class="edge">
<title>Node2&#45;&gt;Node3</title>
<path fill="none" stroke="#191970" d="M244.1255,-66.7042C262.3425,-61.7418 284.9911,-55.5723 304.6173,-50.2261"/>
<polygon fill="#191970" stroke="#191970" points="305.5416,-53.602 314.2701,-47.5967 303.7017,-46.848 305.5416,-53.602"/>
</g>
<!-- Node2&#45;&gt;Node4 -->
<g id="edge4" class="edge">
<title>Node2&#45;&gt;Node4</title>
<path fill="none" stroke="#191970" d="M244.0347,-83.7015C255.4183,-86.0379 268.2096,-88.4053 280,-90 470.8391,-115.8122 698.0334,-126.7431 810.398,-130.8429"/>
<polygon fill="#191970" stroke="#191970" points="810.4625,-134.3473 820.5813,-131.2071 810.7128,-127.3518 810.4625,-134.3473"/>
</g>
<!-- Node8 -->
<g id="node9" class="node">
<title>Node8</title>
<g id="a_node9"><a xlink:href="getdistinctdiags_8f90.xhtml#ae19d30f8fc794efdb49886f1952c090f" target="_top" xlink:title="Obtain indices of diagnostic entries in SCMop given SCMoutput inputs. ">
<polygon fill="#ffffff" stroke="#000000" points="302,-240.5 302,-259.5 397,-259.5 397,-240.5 302,-240.5"/>
<text text-anchor="middle" x="349.5" y="-247.5" font-family="Helvetica,sans-Serif" font-size="10.00" fill="#000000">getdistinctdiags</text>
</a>
</g>
</g>
<!-- Node2&#45;&gt;Node8 -->
<g id="edge9" class="edge">
<title>Node2&#45;&gt;Node8</title>
<path fill="none" stroke="#191970" d="M230.8124,-85.6173C235.4341,-88.283 240.11,-91.4382 244,-95 288.8432,-136.0599 324.4125,-199.7185 340.3682,-231.1398"/>
<polygon fill="#191970" stroke="#191970" points="337.2578,-232.7456 344.8463,-240.1392 343.5248,-229.6271 337.2578,-232.7456"/>
</g>
<!-- Node15 -->
<g id="node16" class="node">
<title>Node15</title>
<g id="a_node16"><a xlink:href="add2dump_8f90.xhtml#a9ef6bd2348ed8547ea4a98403bc63c63" target="_top" xlink:title="Update the dump array of a SCM diagnostic entry in SCMop. ">
<polygon fill="#ffffff" stroke="#000000" points="492.5,-66.5 492.5,-85.5 560.5,-85.5 560.5,-66.5 492.5,-66.5"/>
<text text-anchor="middle" x="526.5" y="-73.5" font-family="Helvetica,sans-Serif" font-size="10.00" fill="#000000">add2dump</text>
</a>
</g>
</g>
<!-- Node2&#45;&gt;Node15 -->
<g id="edge23" class="edge">
<title>Node2&#45;&gt;Node15</title>
<path fill="none" stroke="#191970" d="M244.1718,-76C301.8606,-76 418.5038,-76 482.323,-76"/>
<polygon fill="#191970" stroke="#191970" points="482.4711,-79.5001 492.4711,-76 482.4711,-72.5001 482.4711,-79.5001"/>
</g>
<!-- Node5 -->
<g id="node6" class="node">
<title>Node5</title>
<g id="a_node6"><a xlink:href="namespaceumprintmgr.xhtml#a088ce22a18d574e9df7ee1850bfb10c7" target="_top" xlink:title="umprintmgr::umprintopenstream">
<polygon fill="#ffffff" stroke="#000000" points="980,-123.5 980,-142.5 1157,-142.5 1157,-123.5 980,-123.5"/>
<text text-anchor="middle" x="1068.5" y="-130.5" font-family="Helvetica,sans-Serif" font-size="10.00" fill="#000000">umprintmgr::umprintopenstream</text>
</a>
</g>
</g>
<!-- Node4&#45;&gt;Node5 -->
<g id="edge5" class="edge">
<title>Node4&#45;&gt;Node5</title>
<path fill="none" stroke="#191970" d="M940.2427,-126.6653C949.6774,-126.4266 959.6455,-126.2907 969.687,-126.2579"/>
<polygon fill="#191970" stroke="#191970" points="969.7354,-129.7578 979.7359,-126.2593 969.7365,-122.7578 969.7354,-129.7578"/>
</g>
<!-- Node6 -->
<g id="node7" class="node">
<title>Node6</title>
<g id="a_node7"><a xlink:href="namespaceumprintmgr.xhtml#ad3a290b30a6e25500eabc0bf90330b77" target="_top" xlink:title="umprintmgr::umprintflush">
<polygon fill="#ffffff" stroke="#000000" points="997.5,-85.5 997.5,-104.5 1139.5,-104.5 1139.5,-85.5 997.5,-85.5"/>
<text text-anchor="middle" x="1068.5" y="-92.5" font-family="Helvetica,sans-Serif" font-size="10.00" fill="#000000">umprintmgr::umprintflush</text>
</a>
</g>
</g>
<!-- Node4&#45;&gt;Node6 -->
<g id="edge7" class="edge">
<title>Node4&#45;&gt;Node6</title>
<path fill="none" stroke="#191970" d="M927.9403,-123.411C953.3077,-118.2835 984.7274,-111.9328 1011.4232,-106.5368"/>
<polygon fill="#191970" stroke="#191970" points="1012.2925,-109.932 1021.4008,-104.5201 1010.9056,-103.0707 1012.2925,-109.932"/>
</g>
<!-- Node5&#45;&gt;Node4 -->
<g id="edge6" class="edge">
<title>Node5&#45;&gt;Node4</title>
<path fill="none" stroke="#191970" d="M979.7359,-139.7407C969.9057,-139.7757 959.9989,-139.712 950.4473,-139.5496"/>
<polygon fill="#191970" stroke="#191970" points="950.3142,-136.0461 940.2427,-139.3347 950.1667,-143.0446 950.3142,-136.0461"/>
</g>
<!-- Node7 -->
<g id="node8" class="node">
<title>Node7</title>
<g id="a_node8"><a xlink:href="namespaceumflush__mod.xhtml#a3a003ab59990bdcb712b443dd5e0d1cd" target="_top" xlink:title="umflush_mod::umflush">
<polygon fill="#ffffff" stroke="#000000" points="1193,-85.5 1193,-104.5 1321,-104.5 1321,-85.5 1193,-85.5"/>
<text text-anchor="middle" x="1257" y="-92.5" font-family="Helvetica,sans-Serif" font-size="10.00" fill="#000000">umflush_mod::umflush</text>
</a>
</g>
</g>
<!-- Node6&#45;&gt;Node7 -->
<g id="edge8" class="edge">
<title>Node6&#45;&gt;Node7</title>
<path fill="none" stroke="#191970" d="M1139.7638,-95C1153.7742,-95 1168.5063,-95 1182.6162,-95"/>
<polygon fill="#191970" stroke="#191970" points="1182.7612,-98.5001 1192.7611,-95 1182.7611,-91.5001 1182.7612,-98.5001"/>
</g>
<!-- Node8&#45;&gt;Node4 -->
<g id="edge16" class="edge">
<title>Node8&#45;&gt;Node4</title>
<path fill="none" stroke="#191970" d="M368.0634,-240.3493C388.7585,-229.963 423.4717,-213.6403 455,-204 577.1591,-166.6478 725.4241,-147.5508 810.7784,-138.9645"/>
<polygon fill="#191970" stroke="#191970" points="811.2615,-142.4339 820.8696,-137.969 810.5743,-135.4677 811.2615,-142.4339"/>
</g>
<!-- Node9 -->
<g id="node10" class="node">
<title>Node9</title>
<g id="a_node10"><a xlink:href="namespaces__scmop__mod.xhtml#a38fce513317cc68592785da1765674f9" target="_top" xlink:title="s_scmop_mod::stream">
<polygon fill="#ffffff" stroke="#000000" points="817,-332.5 817,-351.5 944,-351.5 944,-332.5 817,-332.5"/>
<text text-anchor="middle" x="880.5" y="-339.5" font-family="Helvetica,sans-Serif" font-size="10.00" fill="#000000">s_scmop_mod::stream</text>
</a>
</g>
</g>
<!-- Node8&#45;&gt;Node9 -->
<g id="edge10" class="edge">
<title>Node8&#45;&gt;Node9</title>
<path fill="none" stroke="#191970" d="M356.9749,-259.6529C372.6938,-279.1417 411.3434,-322.9502 455,-342 582.2615,-397.5313 752.0261,-371.5179 833.2759,-353.7678"/>
<polygon fill="#191970" stroke="#191970" points="834.2125,-357.1448 843.2051,-351.5427 832.6817,-350.3142 834.2125,-357.1448"/>
</g>
<!-- Node10 -->
<g id="node11" class="node">
<title>Node10</title>
<g id="a_node11"><a xlink:href="namespaces__scmop__mod.xhtml#a5bda18f0a188e3401cfc9addee6bc4e9" target="_top" xlink:title="s_scmop_mod::streamison">
<polygon fill="#ffffff" stroke="#000000" points="634,-332.5 634,-351.5 781,-351.5 781,-332.5 634,-332.5"/>
<text text-anchor="middle" x="707.5" y="-339.5" font-family="Helvetica,sans-Serif" font-size="10.00" fill="#000000">s_scmop_mod::streamison</text>
</a>
</g>
</g>
<!-- Node8&#45;&gt;Node10 -->
<g id="edge11" class="edge">
<title>Node8&#45;&gt;Node10</title>
<path fill="none" stroke="#191970" d="M360.9194,-259.6613C379.35,-274.6411 417.4026,-303.0876 455,-316 509.1999,-334.6143 573.4898,-341.0264 623.6333,-342.83"/>
<polygon fill="#191970" stroke="#191970" points="623.6856,-346.3331 633.7876,-343.1396 623.899,-339.3363 623.6856,-346.3331"/>
</g>
<!-- Node11 -->
<g id="node12" class="node">
<title>Node11</title>
<g id="a_node12"><a xlink:href="namespaces__scmop__mod.xhtml#a0aff366ad97d283dfca70868566ddaf1" target="_top" xlink:title="s_scmop_mod::notwritten">
<polygon fill="#ffffff" stroke="#000000" points="455,-287.5 455,-306.5 598,-306.5 598,-287.5 455,-287.5"/>
<text text-anchor="middle" x="526.5" y="-294.5" font-family="Helvetica,sans-Serif" font-size="10.00" fill="#000000">s_scmop_mod::notwritten</text>
</a>
</g>
</g>
<!-- Node8&#45;&gt;Node11 -->
<g id="edge13" class="edge">
<title>Node8&#45;&gt;Node11</title>
<path fill="none" stroke="#191970" d="M385.3186,-259.5112C412.8177,-266.8132 450.9862,-276.9483 480.7045,-284.8396"/>
<polygon fill="#191970" stroke="#191970" points="479.868,-288.2387 490.4314,-287.4224 481.6646,-281.4732 479.868,-288.2387"/>
</g>
<!-- Node12 -->
<g id="node13" class="node">
<title>Node12</title>
<g id="a_node13"><a xlink:href="namespaces__scmop__mod.xhtml#ab687d11e6f6da6a26dc6ae65b1ce467f" target="_top" xlink:title="s_scmop_mod::donotwrite">
<polygon fill="#ffffff" stroke="#000000" points="635,-180.5 635,-199.5 780,-199.5 780,-180.5 635,-180.5"/>
<text text-anchor="middle" x="707.5" y="-187.5" font-family="Helvetica,sans-Serif" font-size="10.00" fill="#000000">s_scmop_mod::donotwrite</text>
</a>
</g>
</g>
<!-- Node8&#45;&gt;Node12 -->
<g id="edge15" class="edge">
<title>Node8&#45;&gt;Node12</title>
<path fill="none" stroke="#191970" d="M397.2612,-241.2188C415.3374,-237.9427 436.106,-234.2351 455,-231 516.3264,-220.4995 586.1517,-209.2128 636.807,-201.1453"/>
<polygon fill="#191970" stroke="#191970" points="637.6683,-204.5524 646.9944,-199.525 636.5688,-197.6392 637.6683,-204.5524"/>
</g>
<!-- Node13 -->
<g id="node14" class="node">
<title>Node13</title>
<g id="a_node14"><a xlink:href="newdiag_8f90.xhtml#ac4a0c6e99f87ae6a0d34479ccaa09d6c" target="_top" xlink:title="Create a new SCM diagnostic entry in SCMop. ">
<polygon fill="#ffffff" stroke="#000000" points="497.5,-240.5 497.5,-259.5 555.5,-259.5 555.5,-240.5 497.5,-240.5"/>
<text text-anchor="middle" x="526.5" y="-247.5" font-family="Helvetica,sans-Serif" font-size="10.00" fill="#000000">newdiag</text>
</a>
</g>
</g>
<!-- Node8&#45;&gt;Node13 -->
<g id="edge17" class="edge">
<title>Node8&#45;&gt;Node13</title>
<path fill="none" stroke="#191970" d="M397.3987,-250C425.5984,-250 460.8199,-250 487.347,-250"/>
<polygon fill="#191970" stroke="#191970" points="487.4146,-253.5001 497.4146,-250 487.4145,-246.5001 487.4146,-253.5001"/>
</g>
<!-- Node10&#45;&gt;Node9 -->
<g id="edge12" class="edge">
<title>Node10&#45;&gt;Node9</title>
<path fill="none" stroke="#191970" d="M781.1184,-342C789.5527,-342 798.154,-342 806.592,-342"/>
<polygon fill="#191970" stroke="#191970" points="806.7813,-345.5001 816.7813,-342 806.7813,-338.5001 806.7813,-345.5001"/>
</g>
<!-- Node11&#45;&gt;Node10 -->
<g id="edge14" class="edge">
<title>Node11&#45;&gt;Node10</title>
<path fill="none" stroke="#191970" d="M564.8854,-306.5433C592.4821,-313.4044 629.8863,-322.7038 659.4645,-330.0575"/>
<polygon fill="#191970" stroke="#191970" points="658.6208,-333.4542 669.1699,-332.4704 660.3098,-326.661 658.6208,-333.4542"/>
</g>
<!-- Node13&#45;&gt;Node4 -->
<g id="edge20" class="edge">
<title>Node13&#45;&gt;Node4</title>
<path fill="none" stroke="#191970" d="M555.6331,-249.864C604.2929,-248.6587 704.3197,-241.9643 781,-209 813.8777,-194.8661 845.6198,-167.4785 864.089,-149.7301"/>
<polygon fill="#191970" stroke="#191970" points="866.7043,-152.067 871.377,-142.5582 861.7944,-147.0776 866.7043,-152.067"/>
</g>
<!-- Node13&#45;&gt;Node9 -->
<g id="edge18" class="edge">
<title>Node13&#45;&gt;Node9</title>
<path fill="none" stroke="#191970" d="M553.6937,-259.5839C575.3074,-267.0237 606.3897,-277.3289 634,-285 698.5375,-302.9308 773.6544,-319.7252 823.8466,-330.3745"/>
<polygon fill="#191970" stroke="#191970" points="823.3467,-333.846 833.8539,-332.4864 824.7921,-326.9969 823.3467,-333.846"/>
</g>
<!-- Node13&#45;&gt;Node12 -->
<g id="edge19" class="edge">
<title>Node13&#45;&gt;Node12</title>
<path fill="none" stroke="#191970" d="M554.7729,-240.4673C576.4412,-233.177 607.0913,-222.8988 634,-214 645.2372,-210.2838 657.4527,-206.2805 668.6397,-202.6286"/>
<polygon fill="#191970" stroke="#191970" points="669.733,-205.9536 678.1554,-199.526 667.563,-199.2984 669.733,-205.9536"/>
</g>
<!-- Node14 -->
<g id="node15" class="node">
<title>Node14</title>
<g id="a_node15"><a xlink:href="expand__scmop_8f90.xhtml#a44c4ca2bbc673edd7221e3044d985bee" target="_top" xlink:title="Increase the size of the SCM diagnostic arrays in SCMop. ">
<polygon fill="#ffffff" stroke="#000000" points="662.5,-256.5 662.5,-275.5 752.5,-275.5 752.5,-256.5 662.5,-256.5"/>
<text text-anchor="middle" x="707.5" y="-263.5" font-family="Helvetica,sans-Serif" font-size="10.00" fill="#000000">expand_scmop</text>
</a>
</g>
</g>
<!-- Node13&#45;&gt;Node14 -->
<g id="edge21" class="edge">
<title>Node13&#45;&gt;Node14</title>
<path fill="none" stroke="#191970" d="M555.5808,-252.5707C581.5503,-254.8663 620.2955,-258.2913 652.1569,-261.1078"/>
<polygon fill="#191970" stroke="#191970" points="651.9653,-264.6044 662.2347,-261.9986 652.5817,-257.6316 651.9653,-264.6044"/>
</g>
<!-- Node14&#45;&gt;Node4 -->
<g id="edge22" class="edge">
<title>Node14&#45;&gt;Node4</title>
<path fill="none" stroke="#191970" d="M749.2408,-256.4643C760.0909,-252.9134 771.4142,-248.1886 781,-242 818.817,-217.5855 851.5885,-175.3477 868.43,-151.2467"/>
<polygon fill="#191970" stroke="#191970" points="871.5225,-152.9244 874.2693,-142.6918 865.7409,-148.9781 871.5225,-152.9244"/>
</g>
<!-- Node15&#45;&gt;Node4 -->
<g id="edge24" class="edge">
<title>Node15&#45;&gt;Node4</title>
<path fill="none" stroke="#191970" d="M560.6228,-76.7736C609.8064,-78.4383 703.2578,-83.6627 781,-100 803.5985,-104.749 828.2385,-112.8971 847.3447,-119.9082"/>
<polygon fill="#191970" stroke="#191970" points="846.1992,-123.2166 856.7916,-123.4469 848.6548,-116.6614 846.1992,-123.2166"/>
</g>
</g>
</svg>
