<?xml version="1.0" encoding="UTF-8" standalone="no"?>
<!DOCTYPE svg PUBLIC "-//W3C//DTD SVG 1.1//EN"
 "http://www.w3.org/Graphics/SVG/1.1/DTD/svg11.dtd">
<!-- Generated by graphviz version 2.40.1 (20161225.0304)
 -->
<!-- Title: skeb_forcing_mod::skeb_forcing Pages: 1 -->
<!--zoomable 107 -->
<svg id="main" version="1.1" xmlns="http://www.w3.org/2000/svg" xmlns:xlink="http://www.w3.org/1999/xlink" xml:space="preserve" onload="init(evt)">
<style type="text/css"><![CDATA[
.edge:hover path { stroke: red; }
.edge:hover polygon { stroke: red; fill: red; }
]]></style>
<script type="text/javascript"><![CDATA[
var edges = document.getElementsByTagName('g');
if (edges && edges.length) {
  for (var i=0;i<edges.length;i++) {
    if (edges[i].id.substr(0,4)=='edge') {
      edges[i].setAttribute('class','edge');
    }
  }
}
]]></script>
        <defs>
                <circle id="rim" cx="0" cy="0" r="7"/>
                <circle id="rim2" cx="0" cy="0" r="3.5"/>
                <g id="zoomPlus">
                        <use xlink:href="#rim" fill="#404040">
                                <set attributeName="fill" to="#808080" begin="zoomplus.mouseover" end="zoomplus.mouseout"/>
                        </use>
                        <path d="M-4,0h8M0,-4v8" fill="none" stroke="white" stroke-width="1.5" pointer-events="none"/>
                </g>
                <g id="zoomMin">
                        <use xlink:href="#rim" fill="#404040">
                                <set attributeName="fill" to="#808080" begin="zoomminus.mouseover" end="zoomminus.mouseout"/>
                        </use>
                        <path d="M-4,0h8" fill="none" stroke="white" stroke-width="1.5" pointer-events="none"/>
                </g>
                <g id="dirArrow">
                        <path fill="none" stroke="white" stroke-width="1.5" d="M0,-3.0v7 M-2.5,-0.5L0,-3.0L2.5,-0.5"/>
                </g>
               <g id="resetDef">
                       <use xlink:href="#rim2" fill="#404040">
                               <set attributeName="fill" to="#808080" begin="reset.mouseover" end="reset.mouseout"/>
                       </use>
               </g>
        </defs>

<script type="text/javascript">
var viewWidth = 728;
var viewHeight = 107;
var sectionId = 'dynsection-1';
</script>
<script xlink:href="svgpan.js"/>
<svg id="graph" class="graph">
<g id="viewport">
<title>skeb_forcing_mod::skeb_forcing</title>
<polygon fill="#ffffff" stroke="transparent" points="-4,4 -4,-103 724,-103 724,4 -4,4"/>
<!-- Node9 -->
<g id="node1" class="node">
<title>Node9</title>
<polygon fill="#bfbfbf" stroke="#000000" points="0,-17 0,-47 135,-47 135,-17 0,-17"/>
<text text-anchor="start" x="8" y="-35" font-family="Helvetica,sans-Serif" font-size="10.00" fill="#000000">skeb_forcing_mod::skeb</text>
<text text-anchor="middle" x="67.5" y="-24" font-family="Helvetica,sans-Serif" font-size="10.00" fill="#000000">_forcing</text>
</g>
<!-- Node10 -->
<g id="node2" class="node">
<title>Node10</title>
<g id="a_node2"><a xlink:href="namespacestph__skeb2__mod.xhtml#a51dcab695adc5e23d75a09d6f08eade4" target="_top" xlink:title="stph_skeb2_mod::stph\l_skeb2">
<polygon fill="#ffffff" stroke="#000000" points="171,-39 171,-69 297,-69 297,-39 171,-39"/>
<text text-anchor="start" x="179" y="-57" font-family="Helvetica,sans-Serif" font-size="10.00" fill="#000000">stph_skeb2_mod::stph</text>
<text text-anchor="middle" x="234" y="-46" font-family="Helvetica,sans-Serif" font-size="10.00" fill="#000000">_skeb2</text>
</a>
</g>
</g>
<!-- Node9&#45;&gt;Node10 -->
<g id="edge1" class="edge">
<title>Node9&#45;&gt;Node10</title>
<path fill="none" stroke="#191970" d="M145.2535,-42.2737C153.8484,-43.4094 162.5218,-44.5554 170.9051,-45.6631"/>
<polygon fill="#191970" stroke="#191970" points="145.5943,-38.7884 135.2219,-40.9482 144.6772,-45.7281 145.5943,-38.7884"/>
</g>
<!-- Node17 -->
<g id="node9" class="node">
<title>Node17</title>
<g id="a_node9"><a xlink:href="sst__genpatt_8f90.xhtml#a5961e773bb065a8a47cf5545e0543d0e" target="_top" xlink:title="function (gspect) ">
<polygon fill="#ffffff" stroke="#000000" points="197,-.5 197,-19.5 271,-19.5 271,-.5 197,-.5"/>
<text text-anchor="middle" x="234" y="-7.5" font-family="Helvetica,sans-Serif" font-size="10.00" fill="#000000">sst_genpatt</text>
</a>
</g>
</g>
<!-- Node9&#45;&gt;Node17 -->
<g id="edge9" class="edge">
<title>Node9&#45;&gt;Node17</title>
<path fill="none" stroke="#191970" d="M145.1765,-21.7364C163.1983,-19.3552 181.5701,-16.9277 196.8931,-14.903"/>
<polygon fill="#191970" stroke="#191970" points="144.6772,-18.2719 135.2219,-23.0518 145.5943,-25.2116 144.6772,-18.2719"/>
</g>
<!-- Node11 -->
<g id="node3" class="node">
<title>Node11</title>
<g id="a_node3"><a xlink:href="atm__step_8f90.xhtml#ac0ee2467a1a9959b7065fdb8fd27bce4" target="_top" xlink:title="Perform a 1&#45;timestep integration of the Atmosphere Model. ">
<polygon fill="#ffffff" stroke="#000000" points="342,-79.5 342,-98.5 404,-98.5 404,-79.5 342,-79.5"/>
<text text-anchor="middle" x="373" y="-86.5" font-family="Helvetica,sans-Serif" font-size="10.00" fill="#000000">atm_step</text>
</a>
</g>
</g>
<!-- Node10&#45;&gt;Node11 -->
<g id="edge2" class="edge">
<title>Node10&#45;&gt;Node11</title>
<path fill="none" stroke="#191970" d="M303.4698,-71.4924C316.8505,-74.8616 330.2326,-78.2312 341.6324,-81.1017"/>
<polygon fill="#191970" stroke="#191970" points="304.3072,-68.0941 293.7552,-69.0463 302.5979,-74.8822 304.3072,-68.0941"/>
</g>
<!-- Node15 -->
<g id="node7" class="node">
<title>Node15</title>
<g id="a_node7"><a xlink:href="atm__step__4_a_8f90.xhtml#a2319aa4963e90c64cd78bdcd5f481095" target="_top" xlink:title="Perform a 1&#45;timestep integration of the Atmosphere Model. ">
<polygon fill="#ffffff" stroke="#000000" points="333,-41.5 333,-60.5 413,-60.5 413,-41.5 333,-41.5"/>
<text text-anchor="middle" x="373" y="-48.5" font-family="Helvetica,sans-Serif" font-size="10.00" fill="#000000">atm_step_4a</text>
</a>
</g>
</g>
<!-- Node10&#45;&gt;Node15 -->
<g id="edge6" class="edge">
<title>Node10&#45;&gt;Node15</title>
<path fill="none" stroke="#191970" d="M307.574,-52.4121C316.2363,-52.2251 324.814,-52.04 332.7663,-51.8684"/>
<polygon fill="#191970" stroke="#191970" points="307.3207,-48.9166 297.3986,-52.6317 307.4718,-55.915 307.3207,-48.9166"/>
</g>
<!-- Node12 -->
<g id="node4" class="node">
<title>Node12</title>
<g id="a_node4"><a xlink:href="u__model_8f90.xhtml#ada0cd2ce4699433bf0f9adbd882c8eec" target="_top" xlink:title="Subroutine: U_MODEL &#45;!&gt; ">
<polygon fill="#ffffff" stroke="#000000" points="457.5,-79.5 457.5,-98.5 516.5,-98.5 516.5,-79.5 457.5,-79.5"/>
<text text-anchor="middle" x="487" y="-86.5" font-family="Helvetica,sans-Serif" font-size="10.00" fill="#000000">u_model</text>
</a>
</g>
</g>
<!-- Node11&#45;&gt;Node12 -->
<g id="edge3" class="edge">
<title>Node11&#45;&gt;Node12</title>
<path fill="none" stroke="#191970" d="M414.2532,-89C428.5539,-89 444.2895,-89 457.4568,-89"/>
<polygon fill="#191970" stroke="#191970" points="414.151,-85.5001 404.151,-89 414.151,-92.5001 414.151,-85.5001"/>
</g>
<!-- Node13 -->
<g id="node5" class="node">
<title>Node13</title>
<g id="a_node5"><a xlink:href="um__shell_8f90.xhtml#a8c9bd25362824a5c301376ecb5ed5c27" target="_top" xlink:title="Subroutine: UM_SHELL !&gt; ">
<polygon fill="#ffffff" stroke="#000000" points="561,-60.5 561,-79.5 622,-79.5 622,-60.5 561,-60.5"/>
<text text-anchor="middle" x="591.5" y="-67.5" font-family="Helvetica,sans-Serif" font-size="10.00" fill="#000000">um_shell</text>
</a>
</g>
</g>
<!-- Node12&#45;&gt;Node13 -->
<g id="edge4" class="edge">
<title>Node12&#45;&gt;Node13</title>
<path fill="none" stroke="#191970" d="M526.701,-81.7816C537.951,-79.7362 550.0261,-77.5407 560.6677,-75.6059"/>
<polygon fill="#191970" stroke="#191970" points="525.8786,-78.3737 516.666,-83.6062 527.1308,-85.2608 525.8786,-78.3737"/>
</g>
<!-- Node14 -->
<g id="node6" class="node">
<title>Node14</title>
<g id="a_node6"><a xlink:href="um__main_8f90.xhtml#a8f2d13215621443a5313261c282f098b" target="_top" xlink:title="Code Owner: See Unified Model Code Owner&#39;s HTML page. ">
<polygon fill="#ffffff" stroke="#000000" points="658,-60.5 658,-79.5 720,-79.5 720,-60.5 658,-60.5"/>
<text text-anchor="middle" x="689" y="-67.5" font-family="Helvetica,sans-Serif" font-size="10.00" fill="#000000">um_main</text>
</a>
</g>
</g>
<!-- Node13&#45;&gt;Node14 -->
<g id="edge5" class="edge">
<title>Node13&#45;&gt;Node14</title>
<path fill="none" stroke="#191970" d="M632.2756,-70C640.8294,-70 649.72,-70 657.8551,-70"/>
<polygon fill="#191970" stroke="#191970" points="632.0821,-66.5001 622.0821,-70 632.0821,-73.5001 632.0821,-66.5001"/>
</g>
<!-- Node16 -->
<g id="node8" class="node">
<title>Node16</title>
<g id="a_node8"><a xlink:href="u__model__4_a_8f90.xhtml#afa05064dab5eba198b461d0928767c7e" target="_top" xlink:title="LL Subroutine: U_MODEL_4A (ENDGAME VERSION) !&gt;LL. ">
<polygon fill="#ffffff" stroke="#000000" points="449,-41.5 449,-60.5 525,-60.5 525,-41.5 449,-41.5"/>
<text text-anchor="middle" x="487" y="-48.5" font-family="Helvetica,sans-Serif" font-size="10.00" fill="#000000">u_model_4a</text>
</a>
</g>
</g>
<!-- Node15&#45;&gt;Node16 -->
<g id="edge7" class="edge">
<title>Node15&#45;&gt;Node16</title>
<path fill="none" stroke="#191970" d="M423.3998,-51C431.891,-51 440.5803,-51 448.7002,-51"/>
<polygon fill="#191970" stroke="#191970" points="423.1922,-47.5001 413.1921,-51 423.1921,-54.5001 423.1922,-47.5001"/>
</g>
<!-- Node16&#45;&gt;Node13 -->
<g id="edge8" class="edge">
<title>Node16&#45;&gt;Node13</title>
<path fill="none" stroke="#191970" d="M534.8728,-59.7041C543.7087,-61.3107 552.7128,-62.9478 560.8647,-64.43"/>
<polygon fill="#191970" stroke="#191970" points="535.4873,-56.2586 525.0225,-57.9132 534.2351,-63.1457 535.4873,-56.2586"/>
</g>
<!-- Node18 -->
<g id="node10" class="node">
<title>Node18</title>
<g id="a_node10"><a xlink:href="sstpert_8f90.xhtml#ab2c6fefb2c5e925b5b7c96641710735d" target="_top" xlink:title="Generic routines for manipulating pp&#45;fields within Fieldcalc. ">
<polygon fill="#ffffff" stroke="#000000" points="348,-.5 348,-19.5 398,-19.5 398,-.5 348,-.5"/>
<text text-anchor="middle" x="373" y="-7.5" font-family="Helvetica,sans-Serif" font-size="10.00" fill="#000000">sstpert</text>
</a>
</g>
</g>
<!-- Node17&#45;&gt;Node18 -->
<g id="edge10" class="edge">
<title>Node17&#45;&gt;Node18</title>
<path fill="none" stroke="#191970" d="M281.5471,-10C303.8414,-10 329.4944,-10 347.9463,-10"/>
<polygon fill="#191970" stroke="#191970" points="281.2495,-6.5001 271.2494,-10 281.2494,-13.5001 281.2495,-6.5001"/>
</g>
<!-- Node19 -->
<g id="node11" class="node">
<title>Node19</title>
<g id="a_node11"><a xlink:href="fieldcalc_8f90.xhtml#ac71d10790a6550f257c927ee60db58b2" target="_top" xlink:title="Program for post&#45;processing of UM output. ">
<polygon fill="#ffffff" stroke="#000000" points="458.5,-.5 458.5,-19.5 515.5,-19.5 515.5,-.5 458.5,-.5"/>
<text text-anchor="middle" x="487" y="-7.5" font-family="Helvetica,sans-Serif" font-size="10.00" fill="#000000">fieldcalc</text>
</a>
</g>
</g>
<!-- Node18&#45;&gt;Node19 -->
<g id="edge11" class="edge">
<title>Node18&#45;&gt;Node19</title>
<path fill="none" stroke="#191970" d="M408.1585,-10C424.2951,-10 443.1832,-10 458.4261,-10"/>
<polygon fill="#191970" stroke="#191970" points="408.0178,-6.5001 398.0178,-10 408.0177,-13.5001 408.0178,-6.5001"/>
</g>
</g>
</svg>
        <g id="navigator" transform="translate(0 0)" fill="#404254">
                <rect fill="#f2f5e9" fill-opacity="0.5" stroke="#606060" stroke-width=".5" x="0" y="0" width="60" height="60"/>
                <use id="zoomplus" xlink:href="#zoomPlus" x="17" y="9" onmousedown="handleZoom(evt,'in')"/>
                <use id="zoomminus" xlink:href="#zoomMin" x="42" y="9" onmousedown="handleZoom(evt,'out')"/>
                <use id="reset" xlink:href="#resetDef" x="30" y="36" onmousedown="handleReset()"/>
                <g id="arrowUp" xlink:href="#dirArrow" transform="translate(30 24)" onmousedown="handlePan(0,-1)">
                  <use xlink:href="#rim" fill="#404040">
                        <set attributeName="fill" to="#808080" begin="arrowUp.mouseover" end="arrowUp.mouseout"/>
                  </use>
                  <path fill="none" stroke="white" stroke-width="1.5" d="M0,-3.0v7 M-2.5,-0.5L0,-3.0L2.5,-0.5"/>
                </g>
                <g id="arrowRight" xlink:href="#dirArrow" transform="rotate(90) translate(36 -43)" onmousedown="handlePan(1,0)">
                  <use xlink:href="#rim" fill="#404040">
                        <set attributeName="fill" to="#808080" begin="arrowRight.mouseover" end="arrowRight.mouseout"/>
                  </use>
                  <path fill="none" stroke="white" stroke-width="1.5" d="M0,-3.0v7 M-2.5,-0.5L0,-3.0L2.5,-0.5"/>
                </g>
                <g id="arrowDown" xlink:href="#dirArrow" transform="rotate(180) translate(-30 -48)" onmousedown="handlePan(0,1)">
                  <use xlink:href="#rim" fill="#404040">
                        <set attributeName="fill" to="#808080" begin="arrowDown.mouseover" end="arrowDown.mouseout"/>
                  </use>
                  <path fill="none" stroke="white" stroke-width="1.5" d="M0,-3.0v7 M-2.5,-0.5L0,-3.0L2.5,-0.5"/>
                </g>
                <g id="arrowLeft" xlink:href="#dirArrow" transform="rotate(270) translate(-36 17)" onmousedown="handlePan(-1,0)">
                  <use xlink:href="#rim" fill="#404040">
                        <set attributeName="fill" to="#808080" begin="arrowLeft.mouseover" end="arrowLeft.mouseout"/>
                  </use>
                  <path fill="none" stroke="white" stroke-width="1.5" d="M0,-3.0v7 M-2.5,-0.5L0,-3.0L2.5,-0.5"/>
                </g>
        </g>
        <svg viewBox="0 0 15 15" width="100%" height="30px" preserveAspectRatio="xMaxYMin meet">
         <g id="arrow_out" transform="scale(0.3 0.3)">
          <a xlink:href="namespaceskeb__forcing__mod_a00d0e881c3d489c70ed07b0bc322f043_icgraph_org.svg" target="_base">
           <rect id="button" ry="5" rx="5" y="6" x="6" height="38" width="38"
                fill="#f2f5e9" fill-opacity="0.5" stroke="#606060" stroke-width="1.0"/>
           <path id="arrow"
             d="M 11.500037,31.436501 C 11.940474,20.09759 22.043105,11.32322 32.158766,21.979434 L 37.068811,17.246167 C 37.068811,17.246167 37.088388,32 37.088388,32 L 22.160133,31.978069 C 22.160133,31.978069 26.997745,27.140456 26.997745,27.140456 C 18.528582,18.264221 13.291696,25.230495 11.500037,31.436501 z"
             style="fill:#404040;"/>
          </a>
         </g>
        </svg>
</svg>
