<?xml version="1.0" encoding="UTF-8" standalone="no"?>
<!DOCTYPE svg PUBLIC "-//W3C//DTD SVG 1.1//EN"
 "http://www.w3.org/Graphics/SVG/1.1/DTD/svg11.dtd">
<!-- Generated by graphviz version 2.40.1 (20161225.0304)
 -->
<!-- Title: boundary_layer_mod::satq_deriv Pages: 1 -->
<svg width="1236pt" height="88pt"
 viewBox="0.00 0.00 1236.00 88.00" xmlns="http://www.w3.org/2000/svg" xmlns:xlink="http://www.w3.org/1999/xlink">
<g id="graph0" class="graph" transform="scale(1 1) rotate(0) translate(4 84)">
<title>boundary_layer_mod::satq_deriv</title>
<polygon fill="#ffffff" stroke="transparent" points="-4,4 -4,-84 1232,-84 1232,4 -4,4"/>
<!-- Node202 -->
<g id="node1" class="node">
<title>Node202</title>
<polygon fill="#bfbfbf" stroke="#000000" points="0,-24.5 0,-54.5 119,-54.5 119,-24.5 0,-24.5"/>
<text text-anchor="start" x="8" y="-42.5" font-family="Helvetica,sans-Serif" font-size="10.00" fill="#000000">boundary_layer_mod</text>
<text text-anchor="middle" x="59.5" y="-31.5" font-family="Helvetica,sans-Serif" font-size="10.00" fill="#000000">::satq_deriv</text>
</g>
<!-- Node203 -->
<g id="node2" class="node">
<title>Node203</title>
<g id="a_node2"><a xlink:href="namespacecolumn__mod.xhtml#aca882d79ce8cc79a2f920ba82d219fe3" target="_top" xlink:title="column_mod::apply_precipitation">
<polygon fill="#ffffff" stroke="#000000" points="155,-30 155,-49 334,-49 334,-30 155,-30"/>
<text text-anchor="middle" x="244.5" y="-37" font-family="Helvetica,sans-Serif" font-size="10.00" fill="#000000">column_mod::apply_precipitation</text>
</a>
</g>
</g>
<!-- Node202&#45;&gt;Node203 -->
<g id="edge1" class="edge">
<title>Node202&#45;&gt;Node203</title>
<path fill="none" stroke="#191970" d="M129.1189,-39.5C137.4957,-39.5 146.1398,-39.5 154.7519,-39.5"/>
<polygon fill="#191970" stroke="#191970" points="129.0535,-36.0001 119.0535,-39.5 129.0535,-43.0001 129.0535,-36.0001"/>
</g>
<!-- Node204 -->
<g id="node3" class="node">
<title>Node204</title>
<g id="a_node3"><a xlink:href="namespacecolumn__mod.xhtml#a62f818413fe7f1c57af1e77eef537f1f" target="_top" xlink:title="column_mod::evolve\l_column">
<polygon fill="#ffffff" stroke="#000000" points="370,-24.5 370,-54.5 489,-54.5 489,-24.5 370,-24.5"/>
<text text-anchor="start" x="378" y="-42.5" font-family="Helvetica,sans-Serif" font-size="10.00" fill="#000000">column_mod::evolve</text>
<text text-anchor="middle" x="429.5" y="-31.5" font-family="Helvetica,sans-Serif" font-size="10.00" fill="#000000">_column</text>
</a>
</g>
</g>
<!-- Node203&#45;&gt;Node204 -->
<g id="edge2" class="edge">
<title>Node203&#45;&gt;Node204</title>
<path fill="none" stroke="#191970" d="M344.2892,-39.5C353.0194,-39.5 361.6624,-39.5 369.9047,-39.5"/>
<polygon fill="#191970" stroke="#191970" points="344.0195,-36.0001 334.0195,-39.5 344.0195,-43.0001 344.0195,-36.0001"/>
</g>
<!-- Node205 -->
<g id="node4" class="node">
<title>Node205</title>
<g id="a_node4"><a xlink:href="namespaceeg__moist__gcm__ctl__mod.xhtml#aaa5af5fd7888d583f447738840aca1a6" target="_top" xlink:title="eg_moist_gcm_ctl_mod\l::eg_moist_gcm_ctl">
<polygon fill="#ffffff" stroke="#000000" points="525,-24.5 525,-54.5 657,-54.5 657,-24.5 525,-24.5"/>
<text text-anchor="start" x="533" y="-42.5" font-family="Helvetica,sans-Serif" font-size="10.00" fill="#000000">eg_moist_gcm_ctl_mod</text>
<text text-anchor="middle" x="591" y="-31.5" font-family="Helvetica,sans-Serif" font-size="10.00" fill="#000000">::eg_moist_gcm_ctl</text>
</a>
</g>
</g>
<!-- Node204&#45;&gt;Node205 -->
<g id="edge3" class="edge">
<title>Node204&#45;&gt;Node205</title>
<path fill="none" stroke="#191970" d="M499.3603,-39.5C507.7945,-39.5 516.3902,-39.5 524.7702,-39.5"/>
<polygon fill="#191970" stroke="#191970" points="499.1778,-36.0001 489.1778,-39.5 499.1778,-43.0001 499.1778,-36.0001"/>
</g>
<!-- Node206 -->
<g id="node5" class="node">
<title>Node206</title>
<g id="a_node5"><a xlink:href="namespaceeg__idl__forcing__mod.xhtml#af6b661542faffe897edc18d4ac526e89" target="_top" xlink:title="This file belongs in section: Dynamics. ">
<polygon fill="#ffffff" stroke="#000000" points="693,-49.5 693,-79.5 805,-79.5 805,-49.5 693,-49.5"/>
<text text-anchor="start" x="701" y="-67.5" font-family="Helvetica,sans-Serif" font-size="10.00" fill="#000000">eg_idl_forcing_mod</text>
<text text-anchor="middle" x="749" y="-56.5" font-family="Helvetica,sans-Serif" font-size="10.00" fill="#000000">::eg_idl_forcing</text>
</a>
</g>
</g>
<!-- Node205&#45;&gt;Node206 -->
<g id="edge4" class="edge">
<title>Node205&#45;&gt;Node206</title>
<path fill="none" stroke="#191970" d="M667.1495,-51.549C675.7567,-52.9109 684.409,-54.2799 692.6971,-55.5913"/>
<polygon fill="#191970" stroke="#191970" points="667.5149,-48.0633 657.0907,-49.9574 666.4208,-54.9773 667.5149,-48.0633"/>
</g>
<!-- Node211 -->
<g id="node10" class="node">
<title>Node211</title>
<g id="a_node10"><a xlink:href="namespaceeg__idl__forcing__mod.xhtml#a2a8abd90e51b9822688a00906f4c0486" target="_top" xlink:title="eg_idl_forcing_mod\l::eg_idl_forcing2">
<polygon fill="#ffffff" stroke="#000000" points="693,-.5 693,-30.5 805,-30.5 805,-.5 693,-.5"/>
<text text-anchor="start" x="701" y="-18.5" font-family="Helvetica,sans-Serif" font-size="10.00" fill="#000000">eg_idl_forcing_mod</text>
<text text-anchor="middle" x="749" y="-7.5" font-family="Helvetica,sans-Serif" font-size="10.00" fill="#000000">::eg_idl_forcing2</text>
</a>
</g>
</g>
<!-- Node205&#45;&gt;Node211 -->
<g id="edge9" class="edge">
<title>Node205&#45;&gt;Node211</title>
<path fill="none" stroke="#191970" d="M667.1495,-27.933C675.7567,-26.6256 684.409,-25.3113 692.6971,-24.0523"/>
<polygon fill="#191970" stroke="#191970" points="666.4517,-24.4987 657.0907,-29.4609 667.503,-31.4194 666.4517,-24.4987"/>
</g>
<!-- Node207 -->
<g id="node6" class="node">
<title>Node207</title>
<g id="a_node6"><a xlink:href="atm__step__4_a_8f90.xhtml#a2319aa4963e90c64cd78bdcd5f481095" target="_top" xlink:title="Perform a 1&#45;timestep integration of the Atmosphere Model. ">
<polygon fill="#ffffff" stroke="#000000" points="841,-30 841,-49 921,-49 921,-30 841,-30"/>
<text text-anchor="middle" x="881" y="-37" font-family="Helvetica,sans-Serif" font-size="10.00" fill="#000000">atm_step_4a</text>
</a>
</g>
</g>
<!-- Node206&#45;&gt;Node207 -->
<g id="edge5" class="edge">
<title>Node206&#45;&gt;Node207</title>
<path fill="none" stroke="#191970" d="M815.198,-51.9625C823.9363,-50.3075 832.6701,-48.6534 840.7865,-47.1162"/>
<polygon fill="#191970" stroke="#191970" points="814.5368,-48.5254 805.3628,-53.8252 815.8394,-55.4032 814.5368,-48.5254"/>
</g>
<!-- Node208 -->
<g id="node7" class="node">
<title>Node208</title>
<g id="a_node7"><a xlink:href="u__model__4_a_8f90.xhtml#afa05064dab5eba198b461d0928767c7e" target="_top" xlink:title="LL Subroutine: U_MODEL_4A (ENDGAME VERSION) !&gt;LL. ">
<polygon fill="#ffffff" stroke="#000000" points="957,-30 957,-49 1033,-49 1033,-30 957,-30"/>
<text text-anchor="middle" x="995" y="-37" font-family="Helvetica,sans-Serif" font-size="10.00" fill="#000000">u_model_4a</text>
</a>
</g>
</g>
<!-- Node207&#45;&gt;Node208 -->
<g id="edge6" class="edge">
<title>Node207&#45;&gt;Node208</title>
<path fill="none" stroke="#191970" d="M931.3998,-39.5C939.891,-39.5 948.5803,-39.5 956.7002,-39.5"/>
<polygon fill="#191970" stroke="#191970" points="931.1922,-36.0001 921.1921,-39.5 931.1921,-43.0001 931.1922,-36.0001"/>
</g>
<!-- Node209 -->
<g id="node8" class="node">
<title>Node209</title>
<g id="a_node8"><a xlink:href="um__shell_8f90.xhtml#a8c9bd25362824a5c301376ecb5ed5c27" target="_top" xlink:title="Subroutine: UM_SHELL !&gt; ">
<polygon fill="#ffffff" stroke="#000000" points="1069,-30 1069,-49 1130,-49 1130,-30 1069,-30"/>
<text text-anchor="middle" x="1099.5" y="-37" font-family="Helvetica,sans-Serif" font-size="10.00" fill="#000000">um_shell</text>
</a>
</g>
</g>
<!-- Node208&#45;&gt;Node209 -->
<g id="edge7" class="edge">
<title>Node208&#45;&gt;Node209</title>
<path fill="none" stroke="#191970" d="M1043.1579,-39.5C1051.9023,-39.5 1060.8005,-39.5 1068.8647,-39.5"/>
<polygon fill="#191970" stroke="#191970" points="1043.0225,-36.0001 1033.0225,-39.5 1043.0225,-43.0001 1043.0225,-36.0001"/>
</g>
<!-- Node210 -->
<g id="node9" class="node">
<title>Node210</title>
<g id="a_node9"><a xlink:href="um__main_8f90.xhtml#a8f2d13215621443a5313261c282f098b" target="_top" xlink:title="Code Owner: See Unified Model Code Owner&#39;s HTML page. ">
<polygon fill="#ffffff" stroke="#000000" points="1166,-30 1166,-49 1228,-49 1228,-30 1166,-30"/>
<text text-anchor="middle" x="1197" y="-37" font-family="Helvetica,sans-Serif" font-size="10.00" fill="#000000">um_main</text>
</a>
</g>
</g>
<!-- Node209&#45;&gt;Node210 -->
<g id="edge8" class="edge">
<title>Node209&#45;&gt;Node210</title>
<path fill="none" stroke="#191970" d="M1140.2756,-39.5C1148.8294,-39.5 1157.72,-39.5 1165.8551,-39.5"/>
<polygon fill="#191970" stroke="#191970" points="1140.0821,-36.0001 1130.0821,-39.5 1140.0821,-43.0001 1140.0821,-36.0001"/>
</g>
<!-- Node211&#45;&gt;Node207 -->
<g id="edge10" class="edge">
<title>Node211&#45;&gt;Node207</title>
<path fill="none" stroke="#191970" d="M815.4799,-27.5872C824.1241,-29.1589 832.7574,-30.7286 840.7865,-32.1885"/>
<polygon fill="#191970" stroke="#191970" points="815.8276,-24.0932 805.3628,-25.7478 814.5753,-30.9803 815.8276,-24.0932"/>
</g>
</g>
</svg>
