<?xml version="1.0" encoding="UTF-8" standalone="no"?>
<!DOCTYPE svg PUBLIC "-//W3C//DTD SVG 1.1//EN"
 "http://www.w3.org/Graphics/SVG/1.1/DTD/svg11.dtd">
<!-- Generated by graphviz version 2.40.1 (20161225.0304)
 -->
<!-- Title: nlstcall_pop_mod::pop_nlstcall Pages: 1 -->
<svg width="421pt" height="39pt"
 viewBox="0.00 0.00 421.00 39.00" xmlns="http://www.w3.org/2000/svg" xmlns:xlink="http://www.w3.org/1999/xlink">
<g id="graph0" class="graph" transform="scale(1 1) rotate(0) translate(4 35)">
<title>nlstcall_pop_mod::pop_nlstcall</title>
<polygon fill="#ffffff" stroke="transparent" points="-4,4 -4,-35 417,-35 417,4 -4,4"/>
<!-- Node1 -->
<g id="node1" class="node">
<title>Node1</title>
<polygon fill="#bfbfbf" stroke="#000000" points="0,-.5 0,-30.5 126,-30.5 126,-.5 0,-.5"/>
<text text-anchor="start" x="8" y="-18.5" font-family="Helvetica,sans-Serif" font-size="10.00" fill="#000000">nlstcall_pop_mod::pop</text>
<text text-anchor="middle" x="63" y="-7.5" font-family="Helvetica,sans-Serif" font-size="10.00" fill="#000000">_nlstcall</text>
</g>
<!-- Node2 -->
<g id="node2" class="node">
<title>Node2</title>
<g id="a_node2"><a xlink:href="readcntl_8f90.xhtml#ae6bac41dbd827e14474d68ebfcdc1e18" target="_top" xlink:title="Subroutine Interface: ">
<polygon fill="#ffffff" stroke="#000000" points="162,-6 162,-25 218,-25 218,-6 162,-6"/>
<text text-anchor="middle" x="190" y="-13" font-family="Helvetica,sans-Serif" font-size="10.00" fill="#000000">readcntl</text>
</a>
</g>
</g>
<!-- Node1&#45;&gt;Node2 -->
<g id="edge1" class="edge">
<title>Node1&#45;&gt;Node2</title>
<path fill="none" stroke="#191970" d="M136.4075,-15.5C145.4446,-15.5 154.2073,-15.5 161.9389,-15.5"/>
<polygon fill="#191970" stroke="#191970" points="136.128,-12.0001 126.1279,-15.5 136.1279,-19.0001 136.128,-12.0001"/>
</g>
<!-- Node3 -->
<g id="node3" class="node">
<title>Node3</title>
<g id="a_node3"><a xlink:href="um__shell_8f90.xhtml#a8c9bd25362824a5c301376ecb5ed5c27" target="_top" xlink:title="Subroutine: UM_SHELL !&gt; ">
<polygon fill="#ffffff" stroke="#000000" points="254,-6 254,-25 315,-25 315,-6 254,-6"/>
<text text-anchor="middle" x="284.5" y="-13" font-family="Helvetica,sans-Serif" font-size="10.00" fill="#000000">um_shell</text>
</a>
</g>
</g>
<!-- Node2&#45;&gt;Node3 -->
<g id="edge2" class="edge">
<title>Node2&#45;&gt;Node3</title>
<path fill="none" stroke="#191970" d="M228.1728,-15.5C236.6616,-15.5 245.5565,-15.5 253.7053,-15.5"/>
<polygon fill="#191970" stroke="#191970" points="228.0973,-12.0001 218.0973,-15.5 228.0972,-19.0001 228.0973,-12.0001"/>
</g>
<!-- Node4 -->
<g id="node4" class="node">
<title>Node4</title>
<g id="a_node4"><a xlink:href="um__main_8f90.xhtml#a8f2d13215621443a5313261c282f098b" target="_top" xlink:title="Code Owner: See Unified Model Code Owner&#39;s HTML page. ">
<polygon fill="#ffffff" stroke="#000000" points="351,-6 351,-25 413,-25 413,-6 351,-6"/>
<text text-anchor="middle" x="382" y="-13" font-family="Helvetica,sans-Serif" font-size="10.00" fill="#000000">um_main</text>
</a>
</g>
</g>
<!-- Node3&#45;&gt;Node4 -->
<g id="edge3" class="edge">
<title>Node3&#45;&gt;Node4</title>
<path fill="none" stroke="#191970" d="M325.2756,-15.5C333.8294,-15.5 342.72,-15.5 350.8551,-15.5"/>
<polygon fill="#191970" stroke="#191970" points="325.0821,-12.0001 315.0821,-15.5 325.0821,-19.0001 325.0821,-12.0001"/>
</g>
</g>
</svg>
