<?xml version="1.0" encoding="UTF-8" standalone="no"?>
<!DOCTYPE svg PUBLIC "-//W3C//DTD SVG 1.1//EN"
 "http://www.w3.org/Graphics/SVG/1.1/DTD/svg11.dtd">
<!-- Generated by graphviz version 2.40.1 (20161225.0304)
 -->
<!-- Title: boundary_layer_mod::drag_coefficient Pages: 1 -->
<!--zoomable 293 -->
<svg id="main" version="1.1" xmlns="http://www.w3.org/2000/svg" xmlns:xlink="http://www.w3.org/1999/xlink" xml:space="preserve" onload="init(evt)">
<style type="text/css"><![CDATA[
.edge:hover path { stroke: red; }
.edge:hover polygon { stroke: red; fill: red; }
]]></style>
<script type="text/javascript"><![CDATA[
var edges = document.getElementsByTagName('g');
if (edges && edges.length) {
  for (var i=0;i<edges.length;i++) {
    if (edges[i].id.substr(0,4)=='edge') {
      edges[i].setAttribute('class','edge');
    }
  }
}
]]></script>
        <defs>
                <circle id="rim" cx="0" cy="0" r="7"/>
                <circle id="rim2" cx="0" cy="0" r="3.5"/>
                <g id="zoomPlus">
                        <use xlink:href="#rim" fill="#404040">
                                <set attributeName="fill" to="#808080" begin="zoomplus.mouseover" end="zoomplus.mouseout"/>
                        </use>
                        <path d="M-4,0h8M0,-4v8" fill="none" stroke="white" stroke-width="1.5" pointer-events="none"/>
                </g>
                <g id="zoomMin">
                        <use xlink:href="#rim" fill="#404040">
                                <set attributeName="fill" to="#808080" begin="zoomminus.mouseover" end="zoomminus.mouseout"/>
                        </use>
                        <path d="M-4,0h8" fill="none" stroke="white" stroke-width="1.5" pointer-events="none"/>
                </g>
                <g id="dirArrow">
                        <path fill="none" stroke="white" stroke-width="1.5" d="M0,-3.0v7 M-2.5,-0.5L0,-3.0L2.5,-0.5"/>
                </g>
               <g id="resetDef">
                       <use xlink:href="#rim2" fill="#404040">
                               <set attributeName="fill" to="#808080" begin="reset.mouseover" end="reset.mouseout"/>
                       </use>
               </g>
        </defs>

<script type="text/javascript">
var viewWidth = 755;
var viewHeight = 293;
var sectionId = 'dynsection-4';
</script>
<script xlink:href="svgpan.js"/>
<svg id="graph" class="graph">
<g id="viewport">
<title>boundary_layer_mod::drag_coefficient</title>
<polygon fill="#ffffff" stroke="transparent" points="-4,4 -4,-288.9525 751,-288.9525 751,4 -4,4"/>
<!-- Node44 -->
<g id="node1" class="node">
<title>Node44</title>
<polygon fill="#bfbfbf" stroke="#000000" points="0,-71.5 0,-101.5 119,-101.5 119,-71.5 0,-71.5"/>
<text text-anchor="start" x="8" y="-89.5" font-family="Helvetica,sans-Serif" font-size="10.00" fill="#000000">boundary_layer_mod</text>
<text text-anchor="middle" x="59.5" y="-78.5" font-family="Helvetica,sans-Serif" font-size="10.00" fill="#000000">::drag_coefficient</text>
</g>
<!-- Node45 -->
<g id="node2" class="node">
<title>Node45</title>
<g id="a_node2"><a xlink:href="namespaceboundary__layer__mod.xhtml#affa05435eab4611b0ae3e1e262d7b556" target="_top" xlink:title="boundary_layer_mod\l::richardson_number\l_lowest">
<polygon fill="#ffffff" stroke="#000000" points="155,-66 155,-107 274,-107 274,-66 155,-66"/>
<text text-anchor="start" x="163" y="-95" font-family="Helvetica,sans-Serif" font-size="10.00" fill="#000000">boundary_layer_mod</text>
<text text-anchor="start" x="163" y="-84" font-family="Helvetica,sans-Serif" font-size="10.00" fill="#000000">::richardson_number</text>
<text text-anchor="middle" x="214.5" y="-73" font-family="Helvetica,sans-Serif" font-size="10.00" fill="#000000">_lowest</text>
</a>
</g>
</g>
<!-- Node44&#45;&gt;Node45 -->
<g id="edge1" class="edge">
<title>Node44&#45;&gt;Node45</title>
<path fill="none" stroke="#191970" d="M119.427,-86.5C127.7244,-86.5 136.3054,-86.5 144.7618,-86.5"/>
<polygon fill="#191970" stroke="#191970" points="144.9877,-90.0001 154.9877,-86.5 144.9877,-83.0001 144.9877,-90.0001"/>
</g>
<!-- Node46 -->
<g id="node3" class="node">
<title>Node46</title>
<g id="a_node3"><a xlink:href="namespaceutils__mod.xhtml#a342a50c6f6fc85a69eaa3ec622a2ecba" target="_top" xlink:title="utils_mod::interp">
<polygon fill="#ffffff" stroke="#000000" points="320,-181 320,-200 419,-200 419,-181 320,-181"/>
<text text-anchor="middle" x="369.5" y="-188" font-family="Helvetica,sans-Serif" font-size="10.00" fill="#000000">utils_mod::interp</text>
</a>
</g>
</g>
<!-- Node45&#45;&gt;Node46 -->
<g id="edge2" class="edge">
<title>Node45&#45;&gt;Node46</title>
<path fill="none" stroke="#191970" d="M245.123,-107.0471C275.0854,-127.1509 320.0214,-157.3015 346.8846,-175.3258"/>
<polygon fill="#191970" stroke="#191970" points="345,-178.2761 355.2541,-180.9415 348.9002,-172.4633 345,-178.2761"/>
</g>
<!-- Node47 -->
<g id="node4" class="node">
<title>Node47</title>
<g id="a_node4"><a xlink:href="namespaceutils__mod.xhtml#a27fd469d1bf78e37eae7902444010be4" target="_top" xlink:title="utils_mod::error">
<polygon fill="#ffffff" stroke="#000000" points="653,-137 653,-156 747,-156 747,-137 653,-137"/>
<text text-anchor="middle" x="700" y="-144" font-family="Helvetica,sans-Serif" font-size="10.00" fill="#000000">utils_mod::error</text>
</a>
</g>
</g>
<!-- Node45&#45;&gt;Node47 -->
<g id="edge8" class="edge">
<title>Node45&#45;&gt;Node47</title>
<path fill="none" stroke="#191970" d="M274.1364,-90.2625C352.9809,-95.7642 496.0612,-107.5763 617,-127.5 628.6197,-129.4143 641.0451,-131.977 652.6495,-134.5994"/>
<polygon fill="#191970" stroke="#191970" points="652.0631,-138.0562 662.5952,-136.9043 653.6436,-131.2369 652.0631,-138.0562"/>
</g>
<!-- Node51 -->
<g id="node8" class="node">
<title>Node51</title>
<g id="a_node8"><a xlink:href="namespaceboundary__layer__mod.xhtml#af72f82596edea620fa670c99d52727c8" target="_top" xlink:title="boundary_layer_mod\l::temphum2vtemp">
<polygon fill="#ffffff" stroke="#000000" points="310,-49.5 310,-79.5 429,-79.5 429,-49.5 310,-49.5"/>
<text text-anchor="start" x="318" y="-67.5" font-family="Helvetica,sans-Serif" font-size="10.00" fill="#000000">boundary_layer_mod</text>
<text text-anchor="middle" x="369.5" y="-56.5" font-family="Helvetica,sans-Serif" font-size="10.00" fill="#000000">::temphum2vtemp</text>
</a>
</g>
</g>
<!-- Node45&#45;&gt;Node51 -->
<g id="edge9" class="edge">
<title>Node45&#45;&gt;Node51</title>
<path fill="none" stroke="#191970" d="M274.427,-77.9942C282.8155,-76.8036 291.494,-75.5718 300.0406,-74.3588"/>
<polygon fill="#191970" stroke="#191970" points="300.5788,-77.8175 309.9877,-72.9469 299.595,-70.887 300.5788,-77.8175"/>
</g>
<!-- Node52 -->
<g id="node9" class="node">
<title>Node52</title>
<g id="a_node9"><a xlink:href="namespaceboundary__layer__mod.xhtml#a3753f8d3e3c60854cfee0bb8f76919b8" target="_top" xlink:title="boundary_layer_mod\l::grav_pot">
<polygon fill="#ffffff" stroke="#000000" points="310,-.5 310,-30.5 429,-30.5 429,-.5 310,-.5"/>
<text text-anchor="start" x="318" y="-18.5" font-family="Helvetica,sans-Serif" font-size="10.00" fill="#000000">boundary_layer_mod</text>
<text text-anchor="middle" x="369.5" y="-7.5" font-family="Helvetica,sans-Serif" font-size="10.00" fill="#000000">::grav_pot</text>
</a>
</g>
</g>
<!-- Node45&#45;&gt;Node52 -->
<g id="edge10" class="edge">
<title>Node45&#45;&gt;Node52</title>
<path fill="none" stroke="#191970" d="M254.6142,-65.9371C271.5688,-57.4608 291.6115,-47.72 310,-39.5 313.7752,-37.8124 317.7067,-36.1096 321.6699,-34.4314"/>
<polygon fill="#191970" stroke="#191970" points="323.0312,-37.6559 330.916,-30.5791 320.339,-31.1943 323.0312,-37.6559"/>
</g>
<!-- Node46&#45;&gt;Node47 -->
<g id="edge3" class="edge">
<title>Node46&#45;&gt;Node47</title>
<path fill="none" stroke="#191970" d="M377.7511,-200.1475C392.952,-217.0865 427.2932,-251.6007 465,-264.5 528.9189,-286.3662 557.0443,-295.6298 617,-264.5 657.2097,-243.6226 682.0357,-193.3332 693.1421,-165.6209"/>
<polygon fill="#191970" stroke="#191970" points="696.4366,-166.8045 696.7305,-156.2137 689.8963,-164.3096 696.4366,-166.8045"/>
</g>
<!-- Node48 -->
<g id="node5" class="node">
<title>Node48</title>
<g id="a_node5"><a xlink:href="namespaceutils__mod.xhtml#af7241d3b5409e6269728c37c50812984" target="_top" xlink:title="utils_mod::search_gridpoint\l_by_height">
<polygon fill="#ffffff" stroke="#000000" points="465,-224.5 465,-254.5 617,-254.5 617,-224.5 465,-224.5"/>
<text text-anchor="start" x="473" y="-242.5" font-family="Helvetica,sans-Serif" font-size="10.00" fill="#000000">utils_mod::search_gridpoint</text>
<text text-anchor="middle" x="541" y="-231.5" font-family="Helvetica,sans-Serif" font-size="10.00" fill="#000000">_by_height</text>
</a>
</g>
</g>
<!-- Node46&#45;&gt;Node48 -->
<g id="edge4" class="edge">
<title>Node46&#45;&gt;Node48</title>
<path fill="none" stroke="#191970" d="M402.9741,-200.064C424.4969,-206.2134 453.1248,-214.3928 478.7274,-221.7078"/>
<polygon fill="#191970" stroke="#191970" points="477.7938,-225.0811 488.3706,-224.463 479.7169,-218.3504 477.7938,-225.0811"/>
</g>
<!-- Node49 -->
<g id="node6" class="node">
<title>Node49</title>
<g id="a_node6"><a xlink:href="namespaceutils__mod.xhtml#a68ca86ec0d44e08f2c97becf3a900788" target="_top" xlink:title="utils_mod::find_cubic\l_coeffs">
<polygon fill="#ffffff" stroke="#000000" points="481.5,-175.5 481.5,-205.5 600.5,-205.5 600.5,-175.5 481.5,-175.5"/>
<text text-anchor="start" x="489.5" y="-193.5" font-family="Helvetica,sans-Serif" font-size="10.00" fill="#000000">utils_mod::find_cubic</text>
<text text-anchor="middle" x="541" y="-182.5" font-family="Helvetica,sans-Serif" font-size="10.00" fill="#000000">_coeffs</text>
</a>
</g>
</g>
<!-- Node46&#45;&gt;Node49 -->
<g id="edge5" class="edge">
<title>Node46&#45;&gt;Node49</title>
<path fill="none" stroke="#191970" d="M419.1049,-190.5C435.3961,-190.5 453.8179,-190.5 471.3142,-190.5"/>
<polygon fill="#191970" stroke="#191970" points="471.4858,-194.0001 481.4858,-190.5 471.4857,-187.0001 471.4858,-194.0001"/>
</g>
<!-- Node50 -->
<g id="node7" class="node">
<title>Node50</title>
<g id="a_node7"><a xlink:href="namespaceutils__mod.xhtml#adcb79f21826654c69427237b492c0d1e" target="_top" xlink:title="utils_mod::deriv_gridpoint">
<polygon fill="#ffffff" stroke="#000000" points="469,-137 469,-156 613,-156 613,-137 469,-137"/>
<text text-anchor="middle" x="541" y="-144" font-family="Helvetica,sans-Serif" font-size="10.00" fill="#000000">utils_mod::deriv_gridpoint</text>
</a>
</g>
</g>
<!-- Node46&#45;&gt;Node50 -->
<g id="edge6" class="edge">
<title>Node46&#45;&gt;Node50</title>
<path fill="none" stroke="#191970" d="M405.7545,-180.9086C423.5869,-176.2165 445.4078,-170.5133 465,-165.5 473.902,-163.2221 483.3988,-160.8232 492.5564,-158.5258"/>
<polygon fill="#191970" stroke="#191970" points="493.465,-161.9064 502.316,-156.0832 491.7654,-155.1159 493.465,-161.9064"/>
</g>
<!-- Node50&#45;&gt;Node47 -->
<g id="edge7" class="edge">
<title>Node50&#45;&gt;Node47</title>
<path fill="none" stroke="#191970" d="M613.0566,-146.5C622.9525,-146.5 633.0037,-146.5 642.5895,-146.5"/>
<polygon fill="#191970" stroke="#191970" points="642.779,-150.0001 652.779,-146.5 642.779,-143.0001 642.779,-150.0001"/>
</g>
</g>
</svg>
        <g id="navigator" transform="translate(0 0)" fill="#404254">
                <rect fill="#f2f5e9" fill-opacity="0.5" stroke="#606060" stroke-width=".5" x="0" y="0" width="60" height="60"/>
                <use id="zoomplus" xlink:href="#zoomPlus" x="17" y="9" onmousedown="handleZoom(evt,'in')"/>
                <use id="zoomminus" xlink:href="#zoomMin" x="42" y="9" onmousedown="handleZoom(evt,'out')"/>
                <use id="reset" xlink:href="#resetDef" x="30" y="36" onmousedown="handleReset()"/>
                <g id="arrowUp" xlink:href="#dirArrow" transform="translate(30 24)" onmousedown="handlePan(0,-1)">
                  <use xlink:href="#rim" fill="#404040">
                        <set attributeName="fill" to="#808080" begin="arrowUp.mouseover" end="arrowUp.mouseout"/>
                  </use>
                  <path fill="none" stroke="white" stroke-width="1.5" d="M0,-3.0v7 M-2.5,-0.5L0,-3.0L2.5,-0.5"/>
                </g>
                <g id="arrowRight" xlink:href="#dirArrow" transform="rotate(90) translate(36 -43)" onmousedown="handlePan(1,0)">
                  <use xlink:href="#rim" fill="#404040">
                        <set attributeName="fill" to="#808080" begin="arrowRight.mouseover" end="arrowRight.mouseout"/>
                  </use>
                  <path fill="none" stroke="white" stroke-width="1.5" d="M0,-3.0v7 M-2.5,-0.5L0,-3.0L2.5,-0.5"/>
                </g>
                <g id="arrowDown" xlink:href="#dirArrow" transform="rotate(180) translate(-30 -48)" onmousedown="handlePan(0,1)">
                  <use xlink:href="#rim" fill="#404040">
                        <set attributeName="fill" to="#808080" begin="arrowDown.mouseover" end="arrowDown.mouseout"/>
                  </use>
                  <path fill="none" stroke="white" stroke-width="1.5" d="M0,-3.0v7 M-2.5,-0.5L0,-3.0L2.5,-0.5"/>
                </g>
                <g id="arrowLeft" xlink:href="#dirArrow" transform="rotate(270) translate(-36 17)" onmousedown="handlePan(-1,0)">
                  <use xlink:href="#rim" fill="#404040">
                        <set attributeName="fill" to="#808080" begin="arrowLeft.mouseover" end="arrowLeft.mouseout"/>
                  </use>
                  <path fill="none" stroke="white" stroke-width="1.5" d="M0,-3.0v7 M-2.5,-0.5L0,-3.0L2.5,-0.5"/>
                </g>
        </g>
        <svg viewBox="0 0 15 15" width="100%" height="30px" preserveAspectRatio="xMaxYMin meet">
         <g id="arrow_out" transform="scale(0.3 0.3)">
          <a xlink:href="namespaceboundary__layer__mod_ae89b3383e596e207f8be95c7af8e9802_cgraph_org.svg" target="_base">
           <rect id="button" ry="5" rx="5" y="6" x="6" height="38" width="38"
                fill="#f2f5e9" fill-opacity="0.5" stroke="#606060" stroke-width="1.0"/>
           <path id="arrow"
             d="M 11.500037,31.436501 C 11.940474,20.09759 22.043105,11.32322 32.158766,21.979434 L 37.068811,17.246167 C 37.068811,17.246167 37.088388,32 37.088388,32 L 22.160133,31.978069 C 22.160133,31.978069 26.997745,27.140456 26.997745,27.140456 C 18.528582,18.264221 13.291696,25.230495 11.500037,31.436501 z"
             style="fill:#404040;"/>
          </a>
         </g>
        </svg>
</svg>
