<?xml version="1.0" encoding="UTF-8" standalone="no"?>
<!DOCTYPE svg PUBLIC "-//W3C//DTD SVG 1.1//EN"
 "http://www.w3.org/Graphics/SVG/1.1/DTD/svg11.dtd">
<!-- Generated by graphviz version 2.40.1 (20161225.0304)
 -->
<!-- Title: boundary_layer_mod::boundary_layer_height Pages: 1 -->
<svg width="770pt" height="179pt"
 viewBox="0.00 0.00 770.00 179.46" xmlns="http://www.w3.org/2000/svg" xmlns:xlink="http://www.w3.org/1999/xlink">
<g id="graph0" class="graph" transform="scale(1 1) rotate(0) translate(4 175.4565)">
<title>boundary_layer_mod::boundary_layer_height</title>
<polygon fill="#ffffff" stroke="transparent" points="-4,4 -4,-175.4565 766,-175.4565 766,4 -4,4"/>
<!-- Node0 -->
<g id="node1" class="node">
<title>Node0</title>
<polygon fill="#bfbfbf" stroke="#000000" points="0,-49.5 0,-79.5 134,-79.5 134,-49.5 0,-49.5"/>
<text text-anchor="start" x="8" y="-67.5" font-family="Helvetica,sans-Serif" font-size="10.00" fill="#000000">boundary_layer_mod</text>
<text text-anchor="middle" x="67" y="-56.5" font-family="Helvetica,sans-Serif" font-size="10.00" fill="#000000">::boundary_layer_height</text>
</g>
<!-- Node1 -->
<g id="node2" class="node">
<title>Node1</title>
<g id="a_node2"><a xlink:href="namespaceboundary__layer__mod.xhtml#afc88b09b6f9668258aac78a84fda5761" target="_top" xlink:title="boundary_layer_mod\l::richardson_number">
<polygon fill="#ffffff" stroke="#000000" points="170,-49.5 170,-79.5 289,-79.5 289,-49.5 170,-49.5"/>
<text text-anchor="start" x="178" y="-67.5" font-family="Helvetica,sans-Serif" font-size="10.00" fill="#000000">boundary_layer_mod</text>
<text text-anchor="middle" x="229.5" y="-56.5" font-family="Helvetica,sans-Serif" font-size="10.00" fill="#000000">::richardson_number</text>
</a>
</g>
</g>
<!-- Node0&#45;&gt;Node1 -->
<g id="edge1" class="edge">
<title>Node0&#45;&gt;Node1</title>
<path fill="none" stroke="#191970" d="M134.0332,-64.5C142.4862,-64.5 151.1512,-64.5 159.6466,-64.5"/>
<polygon fill="#191970" stroke="#191970" points="159.8994,-68.0001 169.8993,-64.5 159.8993,-61.0001 159.8994,-68.0001"/>
</g>
<!-- Node2 -->
<g id="node3" class="node">
<title>Node2</title>
<g id="a_node3"><a xlink:href="namespaceutils__mod.xhtml#a342a50c6f6fc85a69eaa3ec622a2ecba" target="_top" xlink:title="utils_mod::interp">
<polygon fill="#ffffff" stroke="#000000" points="335,-99 335,-118 434,-118 434,-99 335,-99"/>
<text text-anchor="middle" x="384.5" y="-106" font-family="Helvetica,sans-Serif" font-size="10.00" fill="#000000">utils_mod::interp</text>
</a>
</g>
</g>
<!-- Node1&#45;&gt;Node2 -->
<g id="edge2" class="edge">
<title>Node1&#45;&gt;Node2</title>
<path fill="none" stroke="#191970" d="M282.4087,-79.5192C301.4998,-84.9387 322.8121,-90.9886 341.0056,-96.1532"/>
<polygon fill="#191970" stroke="#191970" points="340.1826,-99.5578 350.7583,-98.9217 342.0942,-92.8239 340.1826,-99.5578"/>
</g>
<!-- Node7 -->
<g id="node8" class="node">
<title>Node7</title>
<g id="a_node8"><a xlink:href="namespaceboundary__layer__mod.xhtml#af72f82596edea620fa670c99d52727c8" target="_top" xlink:title="boundary_layer_mod\l::temphum2vtemp">
<polygon fill="#ffffff" stroke="#000000" points="325,-49.5 325,-79.5 444,-79.5 444,-49.5 325,-49.5"/>
<text text-anchor="start" x="333" y="-67.5" font-family="Helvetica,sans-Serif" font-size="10.00" fill="#000000">boundary_layer_mod</text>
<text text-anchor="middle" x="384.5" y="-56.5" font-family="Helvetica,sans-Serif" font-size="10.00" fill="#000000">::temphum2vtemp</text>
</a>
</g>
</g>
<!-- Node1&#45;&gt;Node7 -->
<g id="edge8" class="edge">
<title>Node1&#45;&gt;Node7</title>
<path fill="none" stroke="#191970" d="M289.427,-64.5C297.7244,-64.5 306.3054,-64.5 314.7618,-64.5"/>
<polygon fill="#191970" stroke="#191970" points="314.9877,-68.0001 324.9877,-64.5 314.9877,-61.0001 314.9877,-68.0001"/>
</g>
<!-- Node8 -->
<g id="node9" class="node">
<title>Node8</title>
<g id="a_node9"><a xlink:href="namespaceboundary__layer__mod.xhtml#a3753f8d3e3c60854cfee0bb8f76919b8" target="_top" xlink:title="boundary_layer_mod\l::grav_pot">
<polygon fill="#ffffff" stroke="#000000" points="325,-.5 325,-30.5 444,-30.5 444,-.5 325,-.5"/>
<text text-anchor="start" x="333" y="-18.5" font-family="Helvetica,sans-Serif" font-size="10.00" fill="#000000">boundary_layer_mod</text>
<text text-anchor="middle" x="384.5" y="-7.5" font-family="Helvetica,sans-Serif" font-size="10.00" fill="#000000">::grav_pot</text>
</a>
</g>
</g>
<!-- Node1&#45;&gt;Node8 -->
<g id="edge9" class="edge">
<title>Node1&#45;&gt;Node8</title>
<path fill="none" stroke="#191970" d="M277.2699,-49.3986C292.9599,-44.4385 310.5662,-38.8726 326.9061,-33.7071"/>
<polygon fill="#191970" stroke="#191970" points="328.408,-36.9031 336.8879,-30.5516 326.298,-30.2287 328.408,-36.9031"/>
</g>
<!-- Node3 -->
<g id="node4" class="node">
<title>Node3</title>
<g id="a_node4"><a xlink:href="namespaceutils__mod.xhtml#a27fd469d1bf78e37eae7902444010be4" target="_top" xlink:title="utils_mod::error">
<polygon fill="#ffffff" stroke="#000000" points="668,-99 668,-118 762,-118 762,-99 668,-99"/>
<text text-anchor="middle" x="715" y="-106" font-family="Helvetica,sans-Serif" font-size="10.00" fill="#000000">utils_mod::error</text>
</a>
</g>
</g>
<!-- Node2&#45;&gt;Node3 -->
<g id="edge3" class="edge">
<title>Node2&#45;&gt;Node3</title>
<path fill="none" stroke="#191970" d="M397.5804,-118.0001C415.2474,-130.1852 448.1968,-150.6782 480,-158.5 545.6006,-174.6342 566.9117,-176.5905 632,-158.5 655.7954,-151.8864 679.5957,-136.4141 695.5693,-124.4189"/>
<polygon fill="#191970" stroke="#191970" points="697.8374,-127.089 703.5886,-118.191 693.5438,-121.5604 697.8374,-127.089"/>
</g>
<!-- Node4 -->
<g id="node5" class="node">
<title>Node4</title>
<g id="a_node5"><a xlink:href="namespaceutils__mod.xhtml#af7241d3b5409e6269728c37c50812984" target="_top" xlink:title="utils_mod::search_gridpoint\l_by_height">
<polygon fill="#ffffff" stroke="#000000" points="480,-118.5 480,-148.5 632,-148.5 632,-118.5 480,-118.5"/>
<text text-anchor="start" x="488" y="-136.5" font-family="Helvetica,sans-Serif" font-size="10.00" fill="#000000">utils_mod::search_gridpoint</text>
<text text-anchor="middle" x="556" y="-125.5" font-family="Helvetica,sans-Serif" font-size="10.00" fill="#000000">_by_height</text>
</a>
</g>
</g>
<!-- Node2&#45;&gt;Node4 -->
<g id="edge4" class="edge">
<title>Node2&#45;&gt;Node4</title>
<path fill="none" stroke="#191970" d="M434.1049,-115.731C445.2342,-117.3534 457.3577,-119.1207 469.5013,-120.8909"/>
<polygon fill="#191970" stroke="#191970" points="469.2849,-124.3962 479.6852,-122.3754 470.2946,-117.4694 469.2849,-124.3962"/>
</g>
<!-- Node5 -->
<g id="node6" class="node">
<title>Node5</title>
<g id="a_node6"><a xlink:href="namespaceutils__mod.xhtml#a68ca86ec0d44e08f2c97becf3a900788" target="_top" xlink:title="utils_mod::find_cubic\l_coeffs">
<polygon fill="#ffffff" stroke="#000000" points="496.5,-69.5 496.5,-99.5 615.5,-99.5 615.5,-69.5 496.5,-69.5"/>
<text text-anchor="start" x="504.5" y="-87.5" font-family="Helvetica,sans-Serif" font-size="10.00" fill="#000000">utils_mod::find_cubic</text>
<text text-anchor="middle" x="556" y="-76.5" font-family="Helvetica,sans-Serif" font-size="10.00" fill="#000000">_coeffs</text>
</a>
</g>
</g>
<!-- Node2&#45;&gt;Node5 -->
<g id="edge5" class="edge">
<title>Node2&#45;&gt;Node5</title>
<path fill="none" stroke="#191970" d="M434.1049,-101.5582C450.3961,-99.2784 468.8179,-96.7004 486.3142,-94.2519"/>
<polygon fill="#191970" stroke="#191970" points="487.0674,-97.6807 496.4858,-92.8285 486.0972,-90.7483 487.0674,-97.6807"/>
</g>
<!-- Node6 -->
<g id="node7" class="node">
<title>Node6</title>
<g id="a_node7"><a xlink:href="namespaceutils__mod.xhtml#adcb79f21826654c69427237b492c0d1e" target="_top" xlink:title="utils_mod::deriv_gridpoint">
<polygon fill="#ffffff" stroke="#000000" points="484,-31 484,-50 628,-50 628,-31 484,-31"/>
<text text-anchor="middle" x="556" y="-38" font-family="Helvetica,sans-Serif" font-size="10.00" fill="#000000">utils_mod::deriv_gridpoint</text>
</a>
</g>
</g>
<!-- Node2&#45;&gt;Node6 -->
<g id="edge6" class="edge">
<title>Node2&#45;&gt;Node6</title>
<path fill="none" stroke="#191970" d="M419.6703,-98.9706C427.893,-96.1246 436.4496,-92.6365 444,-88.5 462.0187,-78.6284 461.6042,-68.6497 480,-59.5 484.675,-57.1748 489.657,-55.1196 494.7488,-53.3059"/>
<polygon fill="#191970" stroke="#191970" points="496.1888,-56.5186 504.6241,-50.1079 494.0322,-49.8591 496.1888,-56.5186"/>
</g>
<!-- Node6&#45;&gt;Node3 -->
<g id="edge7" class="edge">
<title>Node6&#45;&gt;Node3</title>
<path fill="none" stroke="#191970" d="M603.3048,-50.0788C612.9642,-52.6565 622.9397,-55.7848 632,-59.5 653.7431,-68.4158 676.6087,-82.2957 692.8218,-93.0101"/>
<polygon fill="#191970" stroke="#191970" points="691.2929,-96.2006 701.5404,-98.8914 695.2075,-90.3975 691.2929,-96.2006"/>
</g>
</g>
</svg>
