<?xml version="1.0" encoding="UTF-8" standalone="no"?>
<!DOCTYPE svg PUBLIC "-//W3C//DTD SVG 1.1//EN"
 "http://www.w3.org/Graphics/SVG/1.1/DTD/svg11.dtd">
<!-- Generated by graphviz version 2.40.1 (20161225.0304)
 -->
<!-- Title: vert_interp_mdi2_mod::vert_interp_mdi2 Pages: 1 -->
<!--zoomable 142 -->
<svg id="main" version="1.1" xmlns="http://www.w3.org/2000/svg" xmlns:xlink="http://www.w3.org/1999/xlink" xml:space="preserve" onload="init(evt)">
<style type="text/css"><![CDATA[
.edge:hover path { stroke: red; }
.edge:hover polygon { stroke: red; fill: red; }
]]></style>
<script type="text/javascript"><![CDATA[
var edges = document.getElementsByTagName('g');
if (edges && edges.length) {
  for (var i=0;i<edges.length;i++) {
    if (edges[i].id.substr(0,4)=='edge') {
      edges[i].setAttribute('class','edge');
    }
  }
}
]]></script>
        <defs>
                <circle id="rim" cx="0" cy="0" r="7"/>
                <circle id="rim2" cx="0" cy="0" r="3.5"/>
                <g id="zoomPlus">
                        <use xlink:href="#rim" fill="#404040">
                                <set attributeName="fill" to="#808080" begin="zoomplus.mouseover" end="zoomplus.mouseout"/>
                        </use>
                        <path d="M-4,0h8M0,-4v8" fill="none" stroke="white" stroke-width="1.5" pointer-events="none"/>
                </g>
                <g id="zoomMin">
                        <use xlink:href="#rim" fill="#404040">
                                <set attributeName="fill" to="#808080" begin="zoomminus.mouseover" end="zoomminus.mouseout"/>
                        </use>
                        <path d="M-4,0h8" fill="none" stroke="white" stroke-width="1.5" pointer-events="none"/>
                </g>
                <g id="dirArrow">
                        <path fill="none" stroke="white" stroke-width="1.5" d="M0,-3.0v7 M-2.5,-0.5L0,-3.0L2.5,-0.5"/>
                </g>
               <g id="resetDef">
                       <use xlink:href="#rim2" fill="#404040">
                               <set attributeName="fill" to="#808080" begin="reset.mouseover" end="reset.mouseout"/>
                       </use>
               </g>
        </defs>

<script type="text/javascript">
var viewWidth = 851;
var viewHeight = 142;
var sectionId = 'dynsection-0';
</script>
<script xlink:href="svgpan.js"/>
<svg id="graph" class="graph">
<g id="viewport">
<title>vert_interp_mdi2_mod::vert_interp_mdi2</title>
<polygon fill="#ffffff" stroke="transparent" points="-4,4 -4,-138 847,-138 847,4 -4,4"/>
<!-- Node1 -->
<g id="node1" class="node">
<title>Node1</title>
<polygon fill="#bfbfbf" stroke="#000000" points="0,-71 0,-101 127,-101 127,-71 0,-71"/>
<text text-anchor="start" x="8" y="-89" font-family="Helvetica,sans-Serif" font-size="10.00" fill="#000000">vert_interp_mdi2_mod</text>
<text text-anchor="middle" x="63.5" y="-78" font-family="Helvetica,sans-Serif" font-size="10.00" fill="#000000">::vert_interp_mdi2</text>
</g>
<!-- Node2 -->
<g id="node2" class="node">
<title>Node2</title>
<g id="a_node2"><a xlink:href="dyn__diag_8f90.xhtml#a5d7ee040db4855910fa0e51e1675dfdc" target="_top" xlink:title="Calculate various diagnostics related to dynamics variables. Calculate various diagnostics related to...">
<polygon fill="#ffffff" stroke="#000000" points="163,-76.5 163,-95.5 224,-95.5 224,-76.5 163,-76.5"/>
<text text-anchor="middle" x="193.5" y="-83.5" font-family="Helvetica,sans-Serif" font-size="10.00" fill="#000000">dyn_diag</text>
</a>
</g>
</g>
<!-- Node1&#45;&gt;Node2 -->
<g id="edge1" class="edge">
<title>Node1&#45;&gt;Node2</title>
<path fill="none" stroke="#191970" d="M137.4468,-86C146.3297,-86 154.9853,-86 162.733,-86"/>
<polygon fill="#191970" stroke="#191970" points="137.3575,-82.5001 127.3575,-86 137.3574,-89.5001 137.3575,-82.5001"/>
</g>
<!-- Node3 -->
<g id="node3" class="node">
<title>Node3</title>
<g id="a_node3"><a xlink:href="st__diag1_8f90.xhtml#a448077cde050b9a7c4cad654935688ac" target="_top" xlink:title="LL Subroutine ST_DIAG1 !&gt;LL. ">
<polygon fill="#ffffff" stroke="#000000" points="358.5,-57.5 358.5,-76.5 416.5,-76.5 416.5,-57.5 358.5,-57.5"/>
<text text-anchor="middle" x="387.5" y="-64.5" font-family="Helvetica,sans-Serif" font-size="10.00" fill="#000000">st_diag1</text>
</a>
</g>
</g>
<!-- Node2&#45;&gt;Node3 -->
<g id="edge2" class="edge">
<title>Node2&#45;&gt;Node3</title>
<path fill="none" stroke="#191970" d="M234.2531,-82.0087C271.4519,-78.3655 325.513,-73.0709 358.4882,-69.8414"/>
<polygon fill="#191970" stroke="#191970" points="233.8511,-78.5313 224.2399,-82.9894 234.5334,-85.4979 233.8511,-78.5313"/>
</g>
<!-- Node11 -->
<g id="node11" class="node">
<title>Node11</title>
<g id="a_node11"><a xlink:href="st__mean_8f90.xhtml#a56c57d59e0430c6d123a6e4a366df8e6" target="_top" xlink:title="LL Routine: ST_MEAN &#45;!&gt;LL. ">
<polygon fill="#ffffff" stroke="#000000" points="260,-95.5 260,-114.5 319,-114.5 319,-95.5 260,-95.5"/>
<text text-anchor="middle" x="289.5" y="-102.5" font-family="Helvetica,sans-Serif" font-size="10.00" fill="#000000">st_mean</text>
</a>
</g>
</g>
<!-- Node2&#45;&gt;Node11 -->
<g id="edge11" class="edge">
<title>Node2&#45;&gt;Node11</title>
<path fill="none" stroke="#191970" d="M234.0591,-94.0273C242.6975,-95.737 251.6655,-97.5119 259.807,-99.1233"/>
<polygon fill="#191970" stroke="#191970" points="234.6282,-90.5721 224.1389,-92.064 233.2691,-97.4389 234.6282,-90.5721"/>
</g>
<!-- Node4 -->
<g id="node4" class="node">
<title>Node4</title>
<g id="a_node4"><a xlink:href="atm__step_8f90.xhtml#ac0ee2467a1a9959b7065fdb8fd27bce4" target="_top" xlink:title="Perform a 1&#45;timestep integration of the Atmosphere Model. ">
<polygon fill="#ffffff" stroke="#000000" points="465,-76.5 465,-95.5 527,-95.5 527,-76.5 465,-76.5"/>
<text text-anchor="middle" x="496" y="-83.5" font-family="Helvetica,sans-Serif" font-size="10.00" fill="#000000">atm_step</text>
</a>
</g>
</g>
<!-- Node3&#45;&gt;Node4 -->
<g id="edge3" class="edge">
<title>Node3&#45;&gt;Node4</title>
<path fill="none" stroke="#191970" d="M426.7843,-73.8793C439.3401,-76.078 453.0561,-78.4799 464.9423,-80.5613"/>
<polygon fill="#191970" stroke="#191970" points="427.0299,-70.3691 416.576,-72.0917 425.8224,-77.2642 427.0299,-70.3691"/>
</g>
<!-- Node8 -->
<g id="node8" class="node">
<title>Node8</title>
<g id="a_node8"><a xlink:href="atm__step__4_a_8f90.xhtml#a2319aa4963e90c64cd78bdcd5f481095" target="_top" xlink:title="Perform a 1&#45;timestep integration of the Atmosphere Model. ">
<polygon fill="#ffffff" stroke="#000000" points="456,-.5 456,-19.5 536,-19.5 536,-.5 456,-.5"/>
<text text-anchor="middle" x="496" y="-7.5" font-family="Helvetica,sans-Serif" font-size="10.00" fill="#000000">atm_step_4a</text>
</a>
</g>
</g>
<!-- Node3&#45;&gt;Node8 -->
<g id="edge7" class="edge">
<title>Node3&#45;&gt;Node8</title>
<path fill="none" stroke="#191970" d="M412.7014,-52.5215C425.5555,-45.2642 441.4991,-36.4567 456,-29 462.1534,-25.8358 468.924,-22.5481 475.1173,-19.6148"/>
<polygon fill="#191970" stroke="#191970" points="410.9194,-49.5084 403.9525,-57.4904 414.3764,-55.5952 410.9194,-49.5084"/>
</g>
<!-- Node10 -->
<g id="node10" class="node">
<title>Node10</title>
<g id="a_node10"><a xlink:href="initdiag_8f90.xhtml#a95a853661b4e10339418e4a8c29b8c9c" target="_top" xlink:title="Calculate diagnostic quantities from the initial atmosphere dump Calculate diagnostic quantities from...">
<polygon fill="#ffffff" stroke="#000000" points="469.5,-38.5 469.5,-57.5 522.5,-57.5 522.5,-38.5 469.5,-38.5"/>
<text text-anchor="middle" x="496" y="-45.5" font-family="Helvetica,sans-Serif" font-size="10.00" fill="#000000">initdiag</text>
</a>
</g>
</g>
<!-- Node3&#45;&gt;Node10 -->
<g id="edge10" class="edge">
<title>Node3&#45;&gt;Node10</title>
<path fill="none" stroke="#191970" d="M426.604,-60.1523C440.8278,-57.6615 456.5618,-54.9062 469.4471,-52.6498"/>
<polygon fill="#191970" stroke="#191970" points="425.8224,-56.7358 416.576,-61.9083 427.0299,-63.6309 425.8224,-56.7358"/>
</g>
<!-- Node5 -->
<g id="node5" class="node">
<title>Node5</title>
<g id="a_node5"><a xlink:href="u__model_8f90.xhtml#ada0cd2ce4699433bf0f9adbd882c8eec" target="_top" xlink:title="Subroutine: U_MODEL &#45;!&gt; ">
<polygon fill="#ffffff" stroke="#000000" points="580.5,-95.5 580.5,-114.5 639.5,-114.5 639.5,-95.5 580.5,-95.5"/>
<text text-anchor="middle" x="610" y="-102.5" font-family="Helvetica,sans-Serif" font-size="10.00" fill="#000000">u_model</text>
</a>
</g>
</g>
<!-- Node4&#45;&gt;Node5 -->
<g id="edge4" class="edge">
<title>Node4&#45;&gt;Node5</title>
<path fill="none" stroke="#191970" d="M537.2532,-92.8755C551.5539,-95.259 567.2895,-97.8816 580.4568,-100.0761"/>
<polygon fill="#191970" stroke="#191970" points="537.5904,-89.3835 527.151,-91.1918 536.4395,-96.2883 537.5904,-89.3835"/>
</g>
<!-- Node6 -->
<g id="node6" class="node">
<title>Node6</title>
<g id="a_node6"><a xlink:href="um__shell_8f90.xhtml#a8c9bd25362824a5c301376ecb5ed5c27" target="_top" xlink:title="Subroutine: UM_SHELL !&gt; ">
<polygon fill="#ffffff" stroke="#000000" points="684,-76.5 684,-95.5 745,-95.5 745,-76.5 684,-76.5"/>
<text text-anchor="middle" x="714.5" y="-83.5" font-family="Helvetica,sans-Serif" font-size="10.00" fill="#000000">um_shell</text>
</a>
</g>
</g>
<!-- Node5&#45;&gt;Node6 -->
<g id="edge5" class="edge">
<title>Node5&#45;&gt;Node6</title>
<path fill="none" stroke="#191970" d="M649.701,-97.7816C660.951,-95.7362 673.0261,-93.5407 683.6677,-91.6059"/>
<polygon fill="#191970" stroke="#191970" points="648.8786,-94.3737 639.666,-99.6062 650.1308,-101.2608 648.8786,-94.3737"/>
</g>
<!-- Node7 -->
<g id="node7" class="node">
<title>Node7</title>
<g id="a_node7"><a xlink:href="um__main_8f90.xhtml#a8f2d13215621443a5313261c282f098b" target="_top" xlink:title="Code Owner: See Unified Model Code Owner&#39;s HTML page. ">
<polygon fill="#ffffff" stroke="#000000" points="781,-76.5 781,-95.5 843,-95.5 843,-76.5 781,-76.5"/>
<text text-anchor="middle" x="812" y="-83.5" font-family="Helvetica,sans-Serif" font-size="10.00" fill="#000000">um_main</text>
</a>
</g>
</g>
<!-- Node6&#45;&gt;Node7 -->
<g id="edge6" class="edge">
<title>Node6&#45;&gt;Node7</title>
<path fill="none" stroke="#191970" d="M755.2756,-86C763.8294,-86 772.72,-86 780.8551,-86"/>
<polygon fill="#191970" stroke="#191970" points="755.0821,-82.5001 745.0821,-86 755.0821,-89.5001 755.0821,-82.5001"/>
</g>
<!-- Node9 -->
<g id="node9" class="node">
<title>Node9</title>
<g id="a_node9"><a xlink:href="u__model__4_a_8f90.xhtml#afa05064dab5eba198b461d0928767c7e" target="_top" xlink:title="LL Subroutine: U_MODEL_4A (ENDGAME VERSION) !&gt;LL. ">
<polygon fill="#ffffff" stroke="#000000" points="572,-57.5 572,-76.5 648,-76.5 648,-57.5 572,-57.5"/>
<text text-anchor="middle" x="610" y="-64.5" font-family="Helvetica,sans-Serif" font-size="10.00" fill="#000000">u_model_4a</text>
</a>
</g>
</g>
<!-- Node8&#45;&gt;Node9 -->
<g id="edge8" class="edge">
<title>Node8&#45;&gt;Node9</title>
<path fill="none" stroke="#191970" d="M525.5671,-23.9179C529.0908,-25.614 532.6313,-27.3355 536,-29 555.1627,-38.4685 576.9014,-49.6897 591.833,-57.4724"/>
<polygon fill="#191970" stroke="#191970" points="526.94,-20.695 516.4078,-19.5445 523.9237,-27.0118 526.94,-20.695"/>
</g>
<!-- Node9&#45;&gt;Node6 -->
<g id="edge9" class="edge">
<title>Node9&#45;&gt;Node6</title>
<path fill="none" stroke="#191970" d="M657.8728,-75.7041C666.7087,-77.3107 675.7128,-78.9478 683.8647,-80.43"/>
<polygon fill="#191970" stroke="#191970" points="658.4873,-72.2586 648.0225,-73.9132 657.2351,-79.1457 658.4873,-72.2586"/>
</g>
<!-- Node12 -->
<g id="node12" class="node">
<title>Node12</title>
<g id="a_node12"><a xlink:href="meandiag_8f90.xhtml#a72a0b96fb4670010dc65680c7e8ac636" target="_top" xlink:title="LL Routine: MEANDIAG !&gt;LL. ">
<polygon fill="#ffffff" stroke="#000000" points="355,-104.5 355,-123.5 420,-123.5 420,-104.5 355,-104.5"/>
<text text-anchor="middle" x="387.5" y="-111.5" font-family="Helvetica,sans-Serif" font-size="10.00" fill="#000000">meandiag</text>
</a>
</g>
</g>
<!-- Node11&#45;&gt;Node12 -->
<g id="edge12" class="edge">
<title>Node11&#45;&gt;Node12</title>
<path fill="none" stroke="#191970" d="M329.2748,-108.6528C337.7751,-109.4334 346.6596,-110.2493 354.8547,-111.002"/>
<polygon fill="#191970" stroke="#191970" points="329.4474,-105.154 319.1692,-107.7247 328.8072,-112.1247 329.4474,-105.154"/>
</g>
<!-- Node13 -->
<g id="node13" class="node">
<title>Node13</title>
<g id="a_node13"><a xlink:href="meanctl_8f90.xhtml#a5bbbf6327297fa87e7a0d9b511eb2b00" target="_top" xlink:title="Subroutine: MEANCTL&#45;!&gt; ">
<polygon fill="#ffffff" stroke="#000000" points="468,-114.5 468,-133.5 524,-133.5 524,-114.5 468,-114.5"/>
<text text-anchor="middle" x="496" y="-121.5" font-family="Helvetica,sans-Serif" font-size="10.00" fill="#000000">meanctl</text>
</a>
</g>
</g>
<!-- Node12&#45;&gt;Node13 -->
<g id="edge13" class="edge">
<title>Node12&#45;&gt;Node13</title>
<path fill="none" stroke="#191970" d="M430.3774,-117.9518C442.9833,-119.1137 456.4471,-120.3546 467.8777,-121.4081"/>
<polygon fill="#191970" stroke="#191970" points="430.3326,-114.433 420.0536,-117.0003 429.6901,-121.4034 430.3326,-114.433"/>
</g>
<!-- Node13&#45;&gt;Node5 -->
<g id="edge14" class="edge">
<title>Node13&#45;&gt;Node5</title>
<path fill="none" stroke="#191970" d="M534.1794,-117.6368C549.1599,-115.14 566.094,-112.3177 580.1526,-109.9746"/>
<polygon fill="#191970" stroke="#191970" points="533.4683,-114.2069 524.1798,-119.3034 534.6191,-121.1117 533.4683,-114.2069"/>
</g>
<!-- Node13&#45;&gt;Node9 -->
<g id="edge15" class="edge">
<title>Node13&#45;&gt;Node9</title>
<path fill="none" stroke="#191970" d="M525.5855,-110.1191C529.106,-108.4166 532.6407,-106.6834 536,-105 552.1745,-96.8948 555.9082,-94.2681 572,-86 578.0357,-82.8988 584.641,-79.5727 590.6269,-76.5839"/>
<polygon fill="#191970" stroke="#191970" points="523.94,-107.0264 516.4296,-114.4992 526.9609,-113.341 523.94,-107.0264"/>
</g>
</g>
</svg>
        <g id="navigator" transform="translate(0 0)" fill="#404254">
                <rect fill="#f2f5e9" fill-opacity="0.5" stroke="#606060" stroke-width=".5" x="0" y="0" width="60" height="60"/>
                <use id="zoomplus" xlink:href="#zoomPlus" x="17" y="9" onmousedown="handleZoom(evt,'in')"/>
                <use id="zoomminus" xlink:href="#zoomMin" x="42" y="9" onmousedown="handleZoom(evt,'out')"/>
                <use id="reset" xlink:href="#resetDef" x="30" y="36" onmousedown="handleReset()"/>
                <g id="arrowUp" xlink:href="#dirArrow" transform="translate(30 24)" onmousedown="handlePan(0,-1)">
                  <use xlink:href="#rim" fill="#404040">
                        <set attributeName="fill" to="#808080" begin="arrowUp.mouseover" end="arrowUp.mouseout"/>
                  </use>
                  <path fill="none" stroke="white" stroke-width="1.5" d="M0,-3.0v7 M-2.5,-0.5L0,-3.0L2.5,-0.5"/>
                </g>
                <g id="arrowRight" xlink:href="#dirArrow" transform="rotate(90) translate(36 -43)" onmousedown="handlePan(1,0)">
                  <use xlink:href="#rim" fill="#404040">
                        <set attributeName="fill" to="#808080" begin="arrowRight.mouseover" end="arrowRight.mouseout"/>
                  </use>
                  <path fill="none" stroke="white" stroke-width="1.5" d="M0,-3.0v7 M-2.5,-0.5L0,-3.0L2.5,-0.5"/>
                </g>
                <g id="arrowDown" xlink:href="#dirArrow" transform="rotate(180) translate(-30 -48)" onmousedown="handlePan(0,1)">
                  <use xlink:href="#rim" fill="#404040">
                        <set attributeName="fill" to="#808080" begin="arrowDown.mouseover" end="arrowDown.mouseout"/>
                  </use>
                  <path fill="none" stroke="white" stroke-width="1.5" d="M0,-3.0v7 M-2.5,-0.5L0,-3.0L2.5,-0.5"/>
                </g>
                <g id="arrowLeft" xlink:href="#dirArrow" transform="rotate(270) translate(-36 17)" onmousedown="handlePan(-1,0)">
                  <use xlink:href="#rim" fill="#404040">
                        <set attributeName="fill" to="#808080" begin="arrowLeft.mouseover" end="arrowLeft.mouseout"/>
                  </use>
                  <path fill="none" stroke="white" stroke-width="1.5" d="M0,-3.0v7 M-2.5,-0.5L0,-3.0L2.5,-0.5"/>
                </g>
        </g>
        <svg viewBox="0 0 15 15" width="100%" height="30px" preserveAspectRatio="xMaxYMin meet">
         <g id="arrow_out" transform="scale(0.3 0.3)">
          <a xlink:href="namespacevert__interp__mdi2__mod_a1f5b1306e3be8816dca3a1eeecde63aa_icgraph_org.svg" target="_base">
           <rect id="button" ry="5" rx="5" y="6" x="6" height="38" width="38"
                fill="#f2f5e9" fill-opacity="0.5" stroke="#606060" stroke-width="1.0"/>
           <path id="arrow"
             d="M 11.500037,31.436501 C 11.940474,20.09759 22.043105,11.32322 32.158766,21.979434 L 37.068811,17.246167 C 37.068811,17.246167 37.088388,32 37.088388,32 L 22.160133,31.978069 C 22.160133,31.978069 26.997745,27.140456 26.997745,27.140456 C 18.528582,18.264221 13.291696,25.230495 11.500037,31.436501 z"
             style="fill:#404040;"/>
          </a>
         </g>
        </svg>
</svg>
