<?xml version="1.0" encoding="UTF-8" standalone="no"?>
<!DOCTYPE svg PUBLIC "-//W3C//DTD SVG 1.1//EN"
 "http://www.w3.org/Graphics/SVG/1.1/DTD/svg11.dtd">
<!-- Generated by graphviz version 2.40.1 (20161225.0304)
 -->
<!-- Title: rcf_generate_heights_mod::rcf_generate_heights Pages: 1 -->
<svg width="853pt" height="444pt"
 viewBox="0.00 0.00 853.00 443.50" xmlns="http://www.w3.org/2000/svg" xmlns:xlink="http://www.w3.org/1999/xlink">
<g id="graph0" class="graph" transform="scale(1 1) rotate(0) translate(4 439.5)">
<title>rcf_generate_heights_mod::rcf_generate_heights</title>
<polygon fill="#ffffff" stroke="transparent" points="-4,4 -4,-439.5 849,-439.5 849,4 -4,4"/>
<!-- Node124 -->
<g id="node1" class="node">
<title>Node124</title>
<polygon fill="#bfbfbf" stroke="#000000" points="0,-224 0,-254 152,-254 152,-224 0,-224"/>
<text text-anchor="start" x="8" y="-242" font-family="Helvetica,sans-Serif" font-size="10.00" fill="#000000">rcf_generate_heights</text>
<text text-anchor="middle" x="76" y="-231" font-family="Helvetica,sans-Serif" font-size="10.00" fill="#000000">_mod::rcf_generate_heights</text>
</g>
<!-- Node125 -->
<g id="node2" class="node">
<title>Node125</title>
<g id="a_node2"><a xlink:href="namespacercf__scatter__field__mod.xhtml#a94d64ca7a6b237b1e4b75a2a386a5bd3" target="_top" xlink:title="This deals with real data. ">
<polygon fill="#ffffff" stroke="#000000" points="188,-405 188,-435 313,-435 313,-405 188,-405"/>
<text text-anchor="start" x="196" y="-423" font-family="Helvetica,sans-Serif" font-size="10.00" fill="#000000">rcf_scatter_field_mod</text>
<text text-anchor="middle" x="250.5" y="-412" font-family="Helvetica,sans-Serif" font-size="10.00" fill="#000000">::rcf_scatter_field_real</text>
</a>
</g>
</g>
<!-- Node124&#45;&gt;Node125 -->
<g id="edge1" class="edge">
<title>Node124&#45;&gt;Node125</title>
<path fill="none" stroke="#191970" d="M83.9331,-254.1876C100.0273,-283.7591 139.1671,-349.691 188,-390 192.5193,-393.7304 197.5802,-397.127 202.8133,-400.1818"/>
<polygon fill="#191970" stroke="#191970" points="201.2566,-403.319 211.7175,-404.9988 204.5874,-397.1622 201.2566,-403.319"/>
</g>
<!-- Node126 -->
<g id="node3" class="node">
<title>Node126</title>
<g id="a_node3"><a xlink:href="namespaceumprintmgr.xhtml#aae44897e556705dbf5e945a26538be9a" target="_top" xlink:title="umprintmgr::umprint">
<polygon fill="#ffffff" stroke="#000000" points="349,-229.5 349,-248.5 468,-248.5 468,-229.5 349,-229.5"/>
<text text-anchor="middle" x="408.5" y="-236.5" font-family="Helvetica,sans-Serif" font-size="10.00" fill="#000000">umprintmgr::umprint</text>
</a>
</g>
</g>
<!-- Node124&#45;&gt;Node126 -->
<g id="edge8" class="edge">
<title>Node124&#45;&gt;Node126</title>
<path fill="none" stroke="#191970" d="M84.6624,-254.2617C100.8812,-281.0789 138.692,-335.8185 188,-357 239.045,-378.9277 262.8597,-380.9243 313,-357 356.2159,-336.3797 386.1928,-285.5922 399.9549,-257.8442"/>
<polygon fill="#191970" stroke="#191970" points="403.1406,-259.295 404.286,-248.7623 396.8223,-256.2818 403.1406,-259.295"/>
</g>
<!-- Node130 -->
<g id="node7" class="node">
<title>Node130</title>
<g id="a_node7"><a xlink:href="namespacercf__gather__field__mod.xhtml#a89b4e60faf990dd491ead61ded834c22" target="_top" xlink:title="Thus subroutine copes with the REAL case. ">
<polygon fill="#ffffff" stroke="#000000" points="189.5,-317 189.5,-347 311.5,-347 311.5,-317 189.5,-317"/>
<text text-anchor="start" x="197.5" y="-335" font-family="Helvetica,sans-Serif" font-size="10.00" fill="#000000">rcf_gather_field_mod</text>
<text text-anchor="middle" x="250.5" y="-324" font-family="Helvetica,sans-Serif" font-size="10.00" fill="#000000">::rcf_gather_field_real</text>
</a>
</g>
</g>
<!-- Node124&#45;&gt;Node130 -->
<g id="edge7" class="edge">
<title>Node124&#45;&gt;Node130</title>
<path fill="none" stroke="#191970" d="M98.536,-254.2073C120.7175,-268.8051 155.844,-290.9448 188,-307 192.05,-309.0221 196.3052,-311.0046 200.6109,-312.9133"/>
<polygon fill="#191970" stroke="#191970" points="199.487,-316.2394 210.0573,-316.9603 202.2436,-309.805 199.487,-316.2394"/>
</g>
<!-- Node131 -->
<g id="node8" class="node">
<title>Node131</title>
<g id="a_node8"><a xlink:href="timer-timer1a_8f90.xhtml#a9ec0272078965f809aa1a1cbc6a05ea4" target="_top" xlink:title="timer">
<polygon fill="#ffffff" stroke="#000000" points="229,-278.5 229,-297.5 272,-297.5 272,-278.5 229,-278.5"/>
<text text-anchor="middle" x="250.5" y="-285.5" font-family="Helvetica,sans-Serif" font-size="10.00" fill="#000000">timer</text>
</a>
</g>
</g>
<!-- Node124&#45;&gt;Node131 -->
<g id="edge9" class="edge">
<title>Node124&#45;&gt;Node131</title>
<path fill="none" stroke="#191970" d="M129.7796,-254.1014C158.8706,-262.2703 193.8128,-272.0821 218.6015,-279.0428"/>
<polygon fill="#191970" stroke="#191970" points="217.983,-282.5045 228.5568,-281.8383 219.8754,-275.7651 217.983,-282.5045"/>
</g>
<!-- Node132 -->
<g id="node9" class="node">
<title>Node132</title>
<g id="a_node9"><a xlink:href="namespacercf__generate__heights__mod.xhtml#a19cff0a6f867e8035bdfcabae229116f" target="_top" xlink:title="rcf_generate_heights\l_mod::rcf_gen_height\l_original">
<polygon fill="#ffffff" stroke="#000000" points="189.5,-218.5 189.5,-259.5 311.5,-259.5 311.5,-218.5 189.5,-218.5"/>
<text text-anchor="start" x="197.5" y="-247.5" font-family="Helvetica,sans-Serif" font-size="10.00" fill="#000000">rcf_generate_heights</text>
<text text-anchor="start" x="197.5" y="-236.5" font-family="Helvetica,sans-Serif" font-size="10.00" fill="#000000">_mod::rcf_gen_height</text>
<text text-anchor="middle" x="250.5" y="-225.5" font-family="Helvetica,sans-Serif" font-size="10.00" fill="#000000">_original</text>
</a>
</g>
</g>
<!-- Node124&#45;&gt;Node132 -->
<g id="edge11" class="edge">
<title>Node124&#45;&gt;Node132</title>
<path fill="none" stroke="#191970" d="M152.0306,-239C161.106,-239 170.346,-239 179.3491,-239"/>
<polygon fill="#191970" stroke="#191970" points="179.3918,-242.5001 189.3918,-239 179.3917,-235.5001 179.3918,-242.5001"/>
</g>
<!-- Node133 -->
<g id="node10" class="node">
<title>Node133</title>
<g id="a_node10"><a xlink:href="namespacercf__generate__heights__mod.xhtml#ab9e8a4359a65449bf9dcee8267cb9e21" target="_top" xlink:title="rcf_generate_heights\l_mod::rcf_gen_height\l_smooth">
<polygon fill="#ffffff" stroke="#000000" points="189.5,-158.5 189.5,-199.5 311.5,-199.5 311.5,-158.5 189.5,-158.5"/>
<text text-anchor="start" x="197.5" y="-187.5" font-family="Helvetica,sans-Serif" font-size="10.00" fill="#000000">rcf_generate_heights</text>
<text text-anchor="start" x="197.5" y="-176.5" font-family="Helvetica,sans-Serif" font-size="10.00" fill="#000000">_mod::rcf_gen_height</text>
<text text-anchor="middle" x="250.5" y="-165.5" font-family="Helvetica,sans-Serif" font-size="10.00" fill="#000000">_smooth</text>
</a>
</g>
</g>
<!-- Node124&#45;&gt;Node133 -->
<g id="edge13" class="edge">
<title>Node124&#45;&gt;Node133</title>
<path fill="none" stroke="#191970" d="M120.0337,-223.8595C138.5119,-217.5059 160.4499,-209.9628 181.0133,-202.8923"/>
<polygon fill="#191970" stroke="#191970" points="182.3421,-206.1366 190.6606,-199.5751 180.066,-199.5169 182.3421,-206.1366"/>
</g>
<!-- Node134 -->
<g id="node11" class="node">
<title>Node134</title>
<g id="a_node11"><a xlink:href="namespacercf__generate__heights__mod.xhtml#a4a183cced86ac4f643c1a62f34fb93cb" target="_top" xlink:title="rcf_generate_heights\l_mod::rcf_gen_height\l_pressure">
<polygon fill="#ffffff" stroke="#000000" points="189.5,-98.5 189.5,-139.5 311.5,-139.5 311.5,-98.5 189.5,-98.5"/>
<text text-anchor="start" x="197.5" y="-127.5" font-family="Helvetica,sans-Serif" font-size="10.00" fill="#000000">rcf_generate_heights</text>
<text text-anchor="start" x="197.5" y="-116.5" font-family="Helvetica,sans-Serif" font-size="10.00" fill="#000000">_mod::rcf_gen_height</text>
<text text-anchor="middle" x="250.5" y="-105.5" font-family="Helvetica,sans-Serif" font-size="10.00" fill="#000000">_pressure</text>
</a>
</g>
</g>
<!-- Node124&#45;&gt;Node134 -->
<g id="edge15" class="edge">
<title>Node124&#45;&gt;Node134</title>
<path fill="none" stroke="#191970" d="M92.5374,-223.6764C113.6192,-204.6364 151.6996,-171.8708 188,-149 190.4345,-147.4662 192.9593,-145.9572 195.5363,-144.4819"/>
<polygon fill="#191970" stroke="#191970" points="197.3516,-147.4783 204.4442,-139.6077 193.9915,-141.3375 197.3516,-147.4783"/>
</g>
<!-- Node135 -->
<g id="node12" class="node">
<title>Node135</title>
<g id="a_node12"><a xlink:href="namespacercf__generate__heights__mod.xhtml#a76e18cca460c605fcfaa46a3e2fe5937" target="_top" xlink:title="rcf_generate_heights\l_mod::rcf_gen_height\l_hybrid">
<polygon fill="#ffffff" stroke="#000000" points="189.5,-38.5 189.5,-79.5 311.5,-79.5 311.5,-38.5 189.5,-38.5"/>
<text text-anchor="start" x="197.5" y="-67.5" font-family="Helvetica,sans-Serif" font-size="10.00" fill="#000000">rcf_generate_heights</text>
<text text-anchor="start" x="197.5" y="-56.5" font-family="Helvetica,sans-Serif" font-size="10.00" fill="#000000">_mod::rcf_gen_height</text>
<text text-anchor="middle" x="250.5" y="-45.5" font-family="Helvetica,sans-Serif" font-size="10.00" fill="#000000">_hybrid</text>
</a>
</g>
</g>
<!-- Node124&#45;&gt;Node135 -->
<g id="edge17" class="edge">
<title>Node124&#45;&gt;Node135</title>
<path fill="none" stroke="#191970" d="M83.9586,-223.916C100.0973,-194.5458 139.3117,-129.0596 188,-89 189.5684,-87.7095 191.2016,-86.4589 192.8843,-85.2483"/>
<polygon fill="#191970" stroke="#191970" points="195.1793,-87.9299 201.6385,-79.5317 191.3519,-82.0688 195.1793,-87.9299"/>
</g>
<!-- Node136 -->
<g id="node13" class="node">
<title>Node136</title>
<g id="a_node13"><a xlink:href="sum_8f90.xhtml#a025c1f845b6a4ea9c9f48b8612cd82e7" target="_top" xlink:title="Generic routines for manipulating pp&#45;fields within Fieldcalc. ">
<polygon fill="#ffffff" stroke="#000000" points="231.5,-.5 231.5,-19.5 269.5,-19.5 269.5,-.5 231.5,-.5"/>
<text text-anchor="middle" x="250.5" y="-7.5" font-family="Helvetica,sans-Serif" font-size="10.00" fill="#000000">sum</text>
</a>
</g>
</g>
<!-- Node124&#45;&gt;Node136 -->
<g id="edge19" class="edge">
<title>Node124&#45;&gt;Node136</title>
<path fill="none" stroke="#191970" d="M79.7729,-223.7212C90.1074,-185.0929 122.563,-82.7858 188,-29 197.4581,-21.226 210.0533,-16.6298 221.4581,-13.9137"/>
<polygon fill="#191970" stroke="#191970" points="222.3537,-17.304 231.473,-11.9107 220.9808,-10.4399 222.3537,-17.304"/>
</g>
<!-- Node125&#45;&gt;Node126 -->
<g id="edge2" class="edge">
<title>Node125&#45;&gt;Node126</title>
<path fill="none" stroke="#191970" d="M290.5898,-404.8811C298.5338,-400.79 306.4363,-395.8409 313,-390 356.0946,-351.6515 386.9764,-289.3294 400.6462,-258.1047"/>
<polygon fill="#191970" stroke="#191970" points="403.9162,-259.359 404.615,-248.7872 397.4761,-256.6158 403.9162,-259.359"/>
</g>
<!-- Node127 -->
<g id="node4" class="node">
<title>Node127</title>
<g id="a_node4"><a xlink:href="namespaceumprintmgr.xhtml#a088ce22a18d574e9df7ee1850bfb10c7" target="_top" xlink:title="umprintmgr::umprintopenstream">
<polygon fill="#ffffff" stroke="#000000" points="504,-229.5 504,-248.5 681,-248.5 681,-229.5 504,-229.5"/>
<text text-anchor="middle" x="592.5" y="-236.5" font-family="Helvetica,sans-Serif" font-size="10.00" fill="#000000">umprintmgr::umprintopenstream</text>
</a>
</g>
</g>
<!-- Node126&#45;&gt;Node127 -->
<g id="edge3" class="edge">
<title>Node126&#45;&gt;Node127</title>
<path fill="none" stroke="#191970" d="M468.2395,-232.6333C476.4605,-232.4301 485.0751,-232.3077 493.7702,-232.2661"/>
<polygon fill="#191970" stroke="#191970" points="493.9998,-235.7659 503.9958,-232.2543 493.9917,-228.7659 493.9998,-235.7659"/>
</g>
<!-- Node128 -->
<g id="node5" class="node">
<title>Node128</title>
<g id="a_node5"><a xlink:href="namespaceumprintmgr.xhtml#ad3a290b30a6e25500eabc0bf90330b77" target="_top" xlink:title="umprintmgr::umprintflush">
<polygon fill="#ffffff" stroke="#000000" points="521.5,-191.5 521.5,-210.5 663.5,-210.5 663.5,-191.5 521.5,-191.5"/>
<text text-anchor="middle" x="592.5" y="-198.5" font-family="Helvetica,sans-Serif" font-size="10.00" fill="#000000">umprintmgr::umprintflush</text>
</a>
</g>
</g>
<!-- Node126&#45;&gt;Node128 -->
<g id="edge5" class="edge">
<title>Node126&#45;&gt;Node128</title>
<path fill="none" stroke="#191970" d="M454.931,-229.411C479.6493,-224.3061 510.239,-217.9887 536.292,-212.6082"/>
<polygon fill="#191970" stroke="#191970" points="537.3175,-215.9703 546.4029,-210.5201 535.9017,-209.115 537.3175,-215.9703"/>
</g>
<!-- Node127&#45;&gt;Node126 -->
<g id="edge4" class="edge">
<title>Node127&#45;&gt;Node126</title>
<path fill="none" stroke="#191970" d="M503.9958,-245.7457C495.3802,-245.767 486.7236,-245.7094 478.3289,-245.5727"/>
<polygon fill="#191970" stroke="#191970" points="478.3089,-242.0716 468.2395,-245.3667 478.166,-249.0702 478.3089,-242.0716"/>
</g>
<!-- Node129 -->
<g id="node6" class="node">
<title>Node129</title>
<g id="a_node6"><a xlink:href="namespaceumflush__mod.xhtml#a3a003ab59990bdcb712b443dd5e0d1cd" target="_top" xlink:title="umflush_mod::umflush">
<polygon fill="#ffffff" stroke="#000000" points="717,-191.5 717,-210.5 845,-210.5 845,-191.5 717,-191.5"/>
<text text-anchor="middle" x="781" y="-198.5" font-family="Helvetica,sans-Serif" font-size="10.00" fill="#000000">umflush_mod::umflush</text>
</a>
</g>
</g>
<!-- Node128&#45;&gt;Node129 -->
<g id="edge6" class="edge">
<title>Node128&#45;&gt;Node129</title>
<path fill="none" stroke="#191970" d="M663.7638,-201C677.7742,-201 692.5063,-201 706.6162,-201"/>
<polygon fill="#191970" stroke="#191970" points="706.7612,-204.5001 716.7611,-201 706.7611,-197.5001 706.7612,-204.5001"/>
</g>
<!-- Node131&#45;&gt;Node126 -->
<g id="edge10" class="edge">
<title>Node131&#45;&gt;Node126</title>
<path fill="none" stroke="#191970" d="M272.2086,-281.4544C284.2372,-277.814 299.4559,-273.186 313,-269 331.3212,-263.3376 351.5911,-256.9829 368.726,-251.5848"/>
<polygon fill="#191970" stroke="#191970" points="369.9298,-254.8751 378.414,-248.5294 367.8243,-248.1993 369.9298,-254.8751"/>
</g>
<!-- Node132&#45;&gt;Node126 -->
<g id="edge12" class="edge">
<title>Node132&#45;&gt;Node126</title>
<path fill="none" stroke="#191970" d="M311.5869,-239C320.4831,-239 329.6992,-239 338.751,-239"/>
<polygon fill="#191970" stroke="#191970" points="338.8752,-242.5001 348.8752,-239 338.8751,-235.5001 338.8752,-242.5001"/>
</g>
<!-- Node133&#45;&gt;Node126 -->
<g id="edge14" class="edge">
<title>Node133&#45;&gt;Node126</title>
<path fill="none" stroke="#191970" d="M304.8746,-199.6486C327.7349,-208.3297 353.6518,-218.1716 373.8484,-225.8412"/>
<polygon fill="#191970" stroke="#191970" points="372.6739,-229.139 383.2651,-229.4171 375.1591,-222.5949 372.6739,-229.139"/>
</g>
<!-- Node134&#45;&gt;Node126 -->
<g id="edge16" class="edge">
<title>Node134&#45;&gt;Node126</title>
<path fill="none" stroke="#191970" d="M297.4705,-139.576C302.8474,-142.5027 308.1379,-145.662 313,-149 344.3893,-170.5502 375.4958,-202.3201 393.311,-221.7818"/>
<polygon fill="#191970" stroke="#191970" points="390.7979,-224.2213 400.0944,-229.3033 395.9962,-219.5331 390.7979,-224.2213"/>
</g>
<!-- Node135&#45;&gt;Node126 -->
<g id="edge18" class="edge">
<title>Node135&#45;&gt;Node126</title>
<path fill="none" stroke="#191970" d="M300.262,-79.6119C304.7943,-82.4381 309.1285,-85.5653 313,-89 355.9483,-127.1028 386.8963,-189.0084 400.6133,-220.0237"/>
<polygon fill="#191970" stroke="#191970" points="397.4285,-221.4772 404.5971,-229.2786 403.8581,-218.7096 397.4285,-221.4772"/>
</g>
</g>
</svg>
