<?xml version="1.0" encoding="UTF-8" standalone="no"?>
<!DOCTYPE svg PUBLIC "-//W3C//DTD SVG 1.1//EN"
 "http://www.w3.org/Graphics/SVG/1.1/DTD/svg11.dtd">
<!-- Generated by graphviz version 2.40.1 (20161225.0304)
 -->
<!-- Title: rcf_init_tile_t_mod::rcf_init_tile_t Pages: 1 -->
<svg width="682pt" height="39pt"
 viewBox="0.00 0.00 682.00 39.00" xmlns="http://www.w3.org/2000/svg" xmlns:xlink="http://www.w3.org/1999/xlink">
<g id="graph0" class="graph" transform="scale(1 1) rotate(0) translate(4 35)">
<title>rcf_init_tile_t_mod::rcf_init_tile_t</title>
<polygon fill="#ffffff" stroke="transparent" points="-4,4 -4,-35 678,-35 678,4 -4,4"/>
<!-- Node191 -->
<g id="node1" class="node">
<title>Node191</title>
<polygon fill="#bfbfbf" stroke="#000000" points="0,-.5 0,-30.5 107,-30.5 107,-.5 0,-.5"/>
<text text-anchor="start" x="8" y="-18.5" font-family="Helvetica,sans-Serif" font-size="10.00" fill="#000000">rcf_init_tile_t_mod</text>
<text text-anchor="middle" x="53.5" y="-7.5" font-family="Helvetica,sans-Serif" font-size="10.00" fill="#000000">::rcf_init_tile_t</text>
</g>
<!-- Node192 -->
<g id="node2" class="node">
<title>Node192</title>
<g id="a_node2"><a xlink:href="namespacercf__field__calcs__mod.xhtml#aaf83a6a3cfce239d92cf41c835842415" target="_top" xlink:title="Subroutine Rcf_Field_Calcs &#45; field initialisation calculations. ">
<polygon fill="#ffffff" stroke="#000000" points="143,-.5 143,-30.5 256,-30.5 256,-.5 143,-.5"/>
<text text-anchor="start" x="151" y="-18.5" font-family="Helvetica,sans-Serif" font-size="10.00" fill="#000000">rcf_field_calcs_mod</text>
<text text-anchor="middle" x="199.5" y="-7.5" font-family="Helvetica,sans-Serif" font-size="10.00" fill="#000000">::rcf_field_calcs</text>
</a>
</g>
</g>
<!-- Node191&#45;&gt;Node192 -->
<g id="edge1" class="edge">
<title>Node191&#45;&gt;Node192</title>
<path fill="none" stroke="#191970" d="M117.2027,-15.5C125.6312,-15.5 134.2279,-15.5 142.5332,-15.5"/>
<polygon fill="#191970" stroke="#191970" points="117.036,-12.0001 107.036,-15.5 117.0359,-19.0001 117.036,-12.0001"/>
</g>
<!-- Node193 -->
<g id="node3" class="node">
<title>Node193</title>
<g id="a_node3"><a xlink:href="namespacercf__create__dump__mod.xhtml#a2f1f869ea648718c07cc083ce73c40c9" target="_top" xlink:title="Subroutine Rcf_Create_Dump &#45; main dump creation loop. ">
<polygon fill="#ffffff" stroke="#000000" points="292,-.5 292,-30.5 417,-30.5 417,-.5 292,-.5"/>
<text text-anchor="start" x="300" y="-18.5" font-family="Helvetica,sans-Serif" font-size="10.00" fill="#000000">rcf_create_dump_mod</text>
<text text-anchor="middle" x="354.5" y="-7.5" font-family="Helvetica,sans-Serif" font-size="10.00" fill="#000000">::rcf_create_dump</text>
</a>
</g>
</g>
<!-- Node192&#45;&gt;Node193 -->
<g id="edge2" class="edge">
<title>Node192&#45;&gt;Node193</title>
<path fill="none" stroke="#191970" d="M266.515,-15.5C274.951,-15.5 283.5559,-15.5 291.9198,-15.5"/>
<polygon fill="#191970" stroke="#191970" points="266.3362,-12.0001 256.3361,-15.5 266.3361,-19.0001 266.3362,-12.0001"/>
</g>
<!-- Node194 -->
<g id="node4" class="node">
<title>Node194</title>
<g id="a_node4"><a xlink:href="namespacercf__control__mod.xhtml#a3ac6d1c6311ded848ddd750726da301a" target="_top" xlink:title="Subroutine Rcf_Control &#45; main control routine. ">
<polygon fill="#ffffff" stroke="#000000" points="453,-.5 453,-30.5 567,-30.5 567,-.5 453,-.5"/>
<text text-anchor="start" x="461" y="-18.5" font-family="Helvetica,sans-Serif" font-size="10.00" fill="#000000">rcf_control_mod::rcf</text>
<text text-anchor="middle" x="510" y="-7.5" font-family="Helvetica,sans-Serif" font-size="10.00" fill="#000000">_control</text>
</a>
</g>
</g>
<!-- Node193&#45;&gt;Node194 -->
<g id="edge3" class="edge">
<title>Node193&#45;&gt;Node194</title>
<path fill="none" stroke="#191970" d="M427.3443,-15.5C435.9541,-15.5 444.6445,-15.5 452.9908,-15.5"/>
<polygon fill="#191970" stroke="#191970" points="427.2996,-12.0001 417.2996,-15.5 427.2995,-19.0001 427.2996,-12.0001"/>
</g>
<!-- Node195 -->
<g id="node5" class="node">
<title>Node195</title>
<g id="a_node5"><a xlink:href="reconfigure_8f90.xhtml#a55389899cfceedbb4b0f908c73988c0c" target="_top" xlink:title="Top level program for reconfiguration. ">
<polygon fill="#ffffff" stroke="#000000" points="603,-6 603,-25 674,-25 674,-6 603,-6"/>
<text text-anchor="middle" x="638.5" y="-13" font-family="Helvetica,sans-Serif" font-size="10.00" fill="#000000">reconfigure</text>
</a>
</g>
</g>
<!-- Node194&#45;&gt;Node195 -->
<g id="edge4" class="edge">
<title>Node194&#45;&gt;Node195</title>
<path fill="none" stroke="#191970" d="M577.159,-15.5C586.0636,-15.5 594.8936,-15.5 602.9628,-15.5"/>
<polygon fill="#191970" stroke="#191970" points="577.1103,-12.0001 567.1103,-15.5 577.1103,-19.0001 577.1103,-12.0001"/>
</g>
</g>
</svg>
