<?xml version="1.0" encoding="UTF-8" standalone="no"?>
<!DOCTYPE svg PUBLIC "-//W3C//DTD SVG 1.1//EN"
 "http://www.w3.org/Graphics/SVG/1.1/DTD/svg11.dtd">
<!-- Generated by graphviz version 2.40.1 (20161225.0304)
 -->
<!-- Title: rcf_smc_conc_mod::rcf_smc_conc Pages: 1 -->
<svg width="760pt" height="39pt"
 viewBox="0.00 0.00 760.00 39.00" xmlns="http://www.w3.org/2000/svg" xmlns:xlink="http://www.w3.org/1999/xlink">
<g id="graph0" class="graph" transform="scale(1 1) rotate(0) translate(4 35)">
<title>rcf_smc_conc_mod::rcf_smc_conc</title>
<polygon fill="#ffffff" stroke="transparent" points="-4,4 -4,-35 756,-35 756,4 -4,4"/>
<!-- Node5 -->
<g id="node1" class="node">
<title>Node5</title>
<polygon fill="#bfbfbf" stroke="#000000" points="0,-.5 0,-30.5 128,-30.5 128,-.5 0,-.5"/>
<text text-anchor="start" x="8" y="-18.5" font-family="Helvetica,sans-Serif" font-size="10.00" fill="#000000">rcf_smc_conc_mod::rcf</text>
<text text-anchor="middle" x="64" y="-7.5" font-family="Helvetica,sans-Serif" font-size="10.00" fill="#000000">_smc_conc</text>
</g>
<!-- Node6 -->
<g id="node2" class="node">
<title>Node6</title>
<g id="a_node2"><a xlink:href="namespacercf__pre__interp__transform__mod.xhtml#a20d33c2705b41c9046ce97c6a6b97e61" target="_top" xlink:title="Subroutine Rcf_Pre_Interp_Transform. ">
<polygon fill="#ffffff" stroke="#000000" points="164,-.5 164,-30.5 334,-30.5 334,-.5 164,-.5"/>
<text text-anchor="start" x="172" y="-18.5" font-family="Helvetica,sans-Serif" font-size="10.00" fill="#000000">rcf_pre_interp_transform</text>
<text text-anchor="middle" x="249" y="-7.5" font-family="Helvetica,sans-Serif" font-size="10.00" fill="#000000">_mod::rcf_pre_interp_transform</text>
</a>
</g>
</g>
<!-- Node5&#45;&gt;Node6 -->
<g id="edge1" class="edge">
<title>Node5&#45;&gt;Node6</title>
<path fill="none" stroke="#191970" d="M138.2817,-15.5C146.6598,-15.5 155.2454,-15.5 163.7489,-15.5"/>
<polygon fill="#191970" stroke="#191970" points="138.1849,-12.0001 128.1848,-15.5 138.1848,-19.0001 138.1849,-12.0001"/>
</g>
<!-- Node7 -->
<g id="node3" class="node">
<title>Node7</title>
<g id="a_node3"><a xlink:href="namespacercf__create__dump__mod.xhtml#a2f1f869ea648718c07cc083ce73c40c9" target="_top" xlink:title="Subroutine Rcf_Create_Dump &#45; main dump creation loop. ">
<polygon fill="#ffffff" stroke="#000000" points="370,-.5 370,-30.5 495,-30.5 495,-.5 370,-.5"/>
<text text-anchor="start" x="378" y="-18.5" font-family="Helvetica,sans-Serif" font-size="10.00" fill="#000000">rcf_create_dump_mod</text>
<text text-anchor="middle" x="432.5" y="-7.5" font-family="Helvetica,sans-Serif" font-size="10.00" fill="#000000">::rcf_create_dump</text>
</a>
</g>
</g>
<!-- Node6&#45;&gt;Node7 -->
<g id="edge2" class="edge">
<title>Node6&#45;&gt;Node7</title>
<path fill="none" stroke="#191970" d="M344.2578,-15.5C352.9654,-15.5 361.6307,-15.5 369.9395,-15.5"/>
<polygon fill="#191970" stroke="#191970" points="344.0354,-12.0001 334.0354,-15.5 344.0353,-19.0001 344.0354,-12.0001"/>
</g>
<!-- Node8 -->
<g id="node4" class="node">
<title>Node8</title>
<g id="a_node4"><a xlink:href="namespacercf__control__mod.xhtml#a3ac6d1c6311ded848ddd750726da301a" target="_top" xlink:title="Subroutine Rcf_Control &#45; main control routine. ">
<polygon fill="#ffffff" stroke="#000000" points="531,-.5 531,-30.5 645,-30.5 645,-.5 531,-.5"/>
<text text-anchor="start" x="539" y="-18.5" font-family="Helvetica,sans-Serif" font-size="10.00" fill="#000000">rcf_control_mod::rcf</text>
<text text-anchor="middle" x="588" y="-7.5" font-family="Helvetica,sans-Serif" font-size="10.00" fill="#000000">_control</text>
</a>
</g>
</g>
<!-- Node7&#45;&gt;Node8 -->
<g id="edge3" class="edge">
<title>Node7&#45;&gt;Node8</title>
<path fill="none" stroke="#191970" d="M505.3443,-15.5C513.9541,-15.5 522.6445,-15.5 530.9908,-15.5"/>
<polygon fill="#191970" stroke="#191970" points="505.2996,-12.0001 495.2996,-15.5 505.2995,-19.0001 505.2996,-12.0001"/>
</g>
<!-- Node9 -->
<g id="node5" class="node">
<title>Node9</title>
<g id="a_node5"><a xlink:href="reconfigure_8f90.xhtml#a55389899cfceedbb4b0f908c73988c0c" target="_top" xlink:title="Top level program for reconfiguration. ">
<polygon fill="#ffffff" stroke="#000000" points="681,-6 681,-25 752,-25 752,-6 681,-6"/>
<text text-anchor="middle" x="716.5" y="-13" font-family="Helvetica,sans-Serif" font-size="10.00" fill="#000000">reconfigure</text>
</a>
</g>
</g>
<!-- Node8&#45;&gt;Node9 -->
<g id="edge4" class="edge">
<title>Node8&#45;&gt;Node9</title>
<path fill="none" stroke="#191970" d="M655.159,-15.5C664.0636,-15.5 672.8936,-15.5 680.9628,-15.5"/>
<polygon fill="#191970" stroke="#191970" points="655.1103,-12.0001 645.1103,-15.5 655.1103,-19.0001 655.1103,-12.0001"/>
</g>
</g>
</svg>
