<?xml version="1.0" encoding="UTF-8" standalone="no"?>
<!DOCTYPE svg PUBLIC "-//W3C//DTD SVG 1.1//EN"
 "http://www.w3.org/Graphics/SVG/1.1/DTD/svg11.dtd">
<!-- Generated by graphviz version 2.40.1 (20161225.0304)
 -->
<!-- Title: sl_input_mod::print_nlist_run_sl Pages: 1 -->
<svg width="423pt" height="66pt"
 viewBox="0.00 0.00 423.00 66.00" xmlns="http://www.w3.org/2000/svg" xmlns:xlink="http://www.w3.org/1999/xlink">
<g id="graph0" class="graph" transform="scale(1 1) rotate(0) translate(4 62)">
<title>sl_input_mod::print_nlist_run_sl</title>
<polygon fill="#ffffff" stroke="transparent" points="-4,4 -4,-62 419,-62 419,4 -4,4"/>
<!-- Node11 -->
<g id="node1" class="node">
<title>Node11</title>
<polygon fill="#bfbfbf" stroke="#000000" points="0,-14 0,-44 110,-44 110,-14 0,-14"/>
<text text-anchor="start" x="8" y="-32" font-family="Helvetica,sans-Serif" font-size="10.00" fill="#000000">sl_input_mod::print</text>
<text text-anchor="middle" x="55" y="-21" font-family="Helvetica,sans-Serif" font-size="10.00" fill="#000000">_nlist_run_sl</text>
</g>
<!-- Node12 -->
<g id="node2" class="node">
<title>Node12</title>
<g id="a_node2"><a xlink:href="readlsta_8f90.xhtml#a6be7c745662b87214220c8519949fefe" target="_top" xlink:title="Read run&#45;time control information from namelists for atmos model. ">
<polygon fill="#ffffff" stroke="#000000" points="155,-38.5 155,-57.5 211,-57.5 211,-38.5 155,-38.5"/>
<text text-anchor="middle" x="183" y="-45.5" font-family="Helvetica,sans-Serif" font-size="10.00" fill="#000000">readlsta</text>
</a>
</g>
</g>
<!-- Node11&#45;&gt;Node12 -->
<g id="edge1" class="edge">
<title>Node11&#45;&gt;Node12</title>
<path fill="none" stroke="#191970" d="M120.2282,-38.6823C132.4027,-40.4895 144.518,-42.2878 154.8109,-43.8157"/>
<polygon fill="#191970" stroke="#191970" points="120.4319,-35.1743 110.0264,-37.168 119.4041,-42.0984 120.4319,-35.1743"/>
</g>
<!-- Node15 -->
<g id="node5" class="node">
<title>Node15</title>
<g id="a_node5"><a xlink:href="readlsta__4_a_8f90.xhtml#abc5fe175d74e13235464439055294edc" target="_top" xlink:title="Read run&#45;time control information from namelists for atmos model. ">
<polygon fill="#ffffff" stroke="#000000" points="146,-.5 146,-19.5 220,-19.5 220,-.5 146,-.5"/>
<text text-anchor="middle" x="183" y="-7.5" font-family="Helvetica,sans-Serif" font-size="10.00" fill="#000000">readlsta_4a</text>
</a>
</g>
</g>
<!-- Node11&#45;&gt;Node15 -->
<g id="edge4" class="edge">
<title>Node11&#45;&gt;Node15</title>
<path fill="none" stroke="#191970" d="M119.9815,-19.3543C128.8214,-18.0421 137.6363,-16.7337 145.7514,-15.5291"/>
<polygon fill="#191970" stroke="#191970" points="119.4041,-15.9016 110.0264,-20.832 120.4319,-22.8257 119.4041,-15.9016"/>
</g>
<!-- Node13 -->
<g id="node3" class="node">
<title>Node13</title>
<g id="a_node3"><a xlink:href="um__shell_8f90.xhtml#a8c9bd25362824a5c301376ecb5ed5c27" target="_top" xlink:title="Subroutine: UM_SHELL !&gt; ">
<polygon fill="#ffffff" stroke="#000000" points="256,-19.5 256,-38.5 317,-38.5 317,-19.5 256,-19.5"/>
<text text-anchor="middle" x="286.5" y="-26.5" font-family="Helvetica,sans-Serif" font-size="10.00" fill="#000000">um_shell</text>
</a>
</g>
</g>
<!-- Node12&#45;&gt;Node13 -->
<g id="edge2" class="edge">
<title>Node12&#45;&gt;Node13</title>
<path fill="none" stroke="#191970" d="M221.1838,-40.9904C232.6321,-38.8888 245.0336,-36.6122 255.9235,-34.6131"/>
<polygon fill="#191970" stroke="#191970" points="220.2123,-37.6102 211.0086,-42.8583 221.4762,-44.4951 220.2123,-37.6102"/>
</g>
<!-- Node14 -->
<g id="node4" class="node">
<title>Node14</title>
<g id="a_node4"><a xlink:href="um__main_8f90.xhtml#a8f2d13215621443a5313261c282f098b" target="_top" xlink:title="Code Owner: See Unified Model Code Owner&#39;s HTML page. ">
<polygon fill="#ffffff" stroke="#000000" points="353,-19.5 353,-38.5 415,-38.5 415,-19.5 353,-19.5"/>
<text text-anchor="middle" x="384" y="-26.5" font-family="Helvetica,sans-Serif" font-size="10.00" fill="#000000">um_main</text>
</a>
</g>
</g>
<!-- Node13&#45;&gt;Node14 -->
<g id="edge3" class="edge">
<title>Node13&#45;&gt;Node14</title>
<path fill="none" stroke="#191970" d="M327.2756,-29C335.8294,-29 344.72,-29 352.8551,-29"/>
<polygon fill="#191970" stroke="#191970" points="327.0821,-25.5001 317.0821,-29 327.0821,-32.5001 327.0821,-25.5001"/>
</g>
<!-- Node15&#45;&gt;Node13 -->
<g id="edge5" class="edge">
<title>Node15&#45;&gt;Node13</title>
<path fill="none" stroke="#191970" d="M230.1595,-18.6573C238.8707,-20.2565 247.7567,-21.8877 255.8197,-23.3679"/>
<polygon fill="#191970" stroke="#191970" points="230.5412,-15.169 220.0735,-16.8058 229.2772,-22.0539 230.5412,-15.169"/>
</g>
</g>
</svg>
