<?xml version="1.0" encoding="UTF-8" standalone="no"?>
<!DOCTYPE svg PUBLIC "-//W3C//DTD SVG 1.1//EN"
 "http://www.w3.org/Graphics/SVG/1.1/DTD/svg11.dtd">
<!-- Generated by graphviz version 2.40.1 (20161225.0304)
 -->
<!-- Title: rcf_exner_p_convs_mod::rcf_conv_p_exner Pages: 1 -->
<svg width="820pt" height="72pt"
 viewBox="0.00 0.00 820.00 71.50" xmlns="http://www.w3.org/2000/svg" xmlns:xlink="http://www.w3.org/1999/xlink">
<g id="graph0" class="graph" transform="scale(1 1) rotate(0) translate(4 67.5)">
<title>rcf_exner_p_convs_mod::rcf_conv_p_exner</title>
<polygon fill="#ffffff" stroke="transparent" points="-4,4 -4,-67.5 816,-67.5 816,4 -4,4"/>
<!-- Node16 -->
<g id="node1" class="node">
<title>Node16</title>
<polygon fill="#bfbfbf" stroke="#000000" points="0,-33 0,-63 134,-63 134,-33 0,-33"/>
<text text-anchor="start" x="8" y="-51" font-family="Helvetica,sans-Serif" font-size="10.00" fill="#000000">rcf_exner_p_convs_mod</text>
<text text-anchor="middle" x="67" y="-40" font-family="Helvetica,sans-Serif" font-size="10.00" fill="#000000">::rcf_conv_p_exner</text>
</g>
<!-- Node17 -->
<g id="node2" class="node">
<title>Node17</title>
<g id="a_node2"><a xlink:href="namespacercf__exppx__mod.xhtml#a88789ab4ab32d603dfdd4b9b0c492604" target="_top" xlink:title="Subroutine Rcf_Exppx &#45; extract a STASHmaster record. ">
<polygon fill="#ffffff" stroke="#000000" points="170,-33 170,-63 280,-63 280,-33 170,-33"/>
<text text-anchor="start" x="178" y="-51" font-family="Helvetica,sans-Serif" font-size="10.00" fill="#000000">rcf_exppx_mod::rcf</text>
<text text-anchor="middle" x="225" y="-40" font-family="Helvetica,sans-Serif" font-size="10.00" fill="#000000">_exppx</text>
</a>
</g>
</g>
<!-- Node16&#45;&gt;Node17 -->
<g id="edge1" class="edge">
<title>Node16&#45;&gt;Node17</title>
<path fill="none" stroke="#191970" d="M134.0062,-48C142.4971,-48 151.1773,-48 159.6419,-48"/>
<polygon fill="#191970" stroke="#191970" points="159.8329,-51.5001 169.8329,-48 159.8328,-44.5001 159.8329,-51.5001"/>
</g>
<!-- Node18 -->
<g id="node3" class="node">
<title>Node18</title>
<g id="a_node3"><a xlink:href="namespaceumprintmgr.xhtml#aae44897e556705dbf5e945a26538be9a" target="_top" xlink:title="umprintmgr::umprint">
<polygon fill="#ffffff" stroke="#000000" points="316,-38.5 316,-57.5 435,-57.5 435,-38.5 316,-38.5"/>
<text text-anchor="middle" x="375.5" y="-45.5" font-family="Helvetica,sans-Serif" font-size="10.00" fill="#000000">umprintmgr::umprint</text>
</a>
</g>
</g>
<!-- Node17&#45;&gt;Node18 -->
<g id="edge2" class="edge">
<title>Node17&#45;&gt;Node18</title>
<path fill="none" stroke="#191970" d="M280.1861,-48C288.4166,-48 296.9927,-48 305.4796,-48"/>
<polygon fill="#191970" stroke="#191970" points="305.7584,-51.5001 315.7583,-48 305.7583,-44.5001 305.7584,-51.5001"/>
</g>
<!-- Node19 -->
<g id="node4" class="node">
<title>Node19</title>
<g id="a_node4"><a xlink:href="namespaceumprintmgr.xhtml#a088ce22a18d574e9df7ee1850bfb10c7" target="_top" xlink:title="umprintmgr::umprintopenstream">
<polygon fill="#ffffff" stroke="#000000" points="471,-38.5 471,-57.5 648,-57.5 648,-38.5 471,-38.5"/>
<text text-anchor="middle" x="559.5" y="-45.5" font-family="Helvetica,sans-Serif" font-size="10.00" fill="#000000">umprintmgr::umprintopenstream</text>
</a>
</g>
</g>
<!-- Node18&#45;&gt;Node19 -->
<g id="edge3" class="edge">
<title>Node18&#45;&gt;Node19</title>
<path fill="none" stroke="#191970" d="M435.2395,-41.6333C443.4605,-41.4301 452.0751,-41.3077 460.7702,-41.2661"/>
<polygon fill="#191970" stroke="#191970" points="460.9998,-44.7659 470.9958,-41.2543 460.9917,-37.7659 460.9998,-44.7659"/>
</g>
<!-- Node20 -->
<g id="node5" class="node">
<title>Node20</title>
<g id="a_node5"><a xlink:href="namespaceumprintmgr.xhtml#ad3a290b30a6e25500eabc0bf90330b77" target="_top" xlink:title="umprintmgr::umprintflush">
<polygon fill="#ffffff" stroke="#000000" points="488.5,-.5 488.5,-19.5 630.5,-19.5 630.5,-.5 488.5,-.5"/>
<text text-anchor="middle" x="559.5" y="-7.5" font-family="Helvetica,sans-Serif" font-size="10.00" fill="#000000">umprintmgr::umprintflush</text>
</a>
</g>
</g>
<!-- Node18&#45;&gt;Node20 -->
<g id="edge5" class="edge">
<title>Node18&#45;&gt;Node20</title>
<path fill="none" stroke="#191970" d="M421.931,-38.411C446.6493,-33.3061 477.239,-26.9887 503.292,-21.6082"/>
<polygon fill="#191970" stroke="#191970" points="504.3175,-24.9703 513.4029,-19.5201 502.9017,-18.115 504.3175,-24.9703"/>
</g>
<!-- Node19&#45;&gt;Node18 -->
<g id="edge4" class="edge">
<title>Node19&#45;&gt;Node18</title>
<path fill="none" stroke="#191970" d="M470.9958,-54.7457C462.3802,-54.767 453.7236,-54.7094 445.3289,-54.5727"/>
<polygon fill="#191970" stroke="#191970" points="445.3089,-51.0716 435.2395,-54.3667 445.166,-58.0702 445.3089,-51.0716"/>
</g>
<!-- Node21 -->
<g id="node6" class="node">
<title>Node21</title>
<g id="a_node6"><a xlink:href="namespaceumflush__mod.xhtml#a3a003ab59990bdcb712b443dd5e0d1cd" target="_top" xlink:title="umflush_mod::umflush">
<polygon fill="#ffffff" stroke="#000000" points="684,-.5 684,-19.5 812,-19.5 812,-.5 684,-.5"/>
<text text-anchor="middle" x="748" y="-7.5" font-family="Helvetica,sans-Serif" font-size="10.00" fill="#000000">umflush_mod::umflush</text>
</a>
</g>
</g>
<!-- Node20&#45;&gt;Node21 -->
<g id="edge6" class="edge">
<title>Node20&#45;&gt;Node21</title>
<path fill="none" stroke="#191970" d="M630.7638,-10C644.7742,-10 659.5063,-10 673.6162,-10"/>
<polygon fill="#191970" stroke="#191970" points="673.7612,-13.5001 683.7611,-10 673.7611,-6.5001 673.7612,-13.5001"/>
</g>
</g>
</svg>
