<?xml version="1.0" encoding="UTF-8" standalone="no"?>
<!DOCTYPE svg PUBLIC "-//W3C//DTD SVG 1.1//EN"
 "http://www.w3.org/Graphics/SVG/1.1/DTD/svg11.dtd">
<!-- Generated by graphviz version 2.40.1 (20161225.0304)
 -->
<!-- Title: ukca_phot2d::ukca_inpr2d Pages: 1 -->
<svg width="479pt" height="47pt"
 viewBox="0.00 0.00 479.00 47.00" xmlns="http://www.w3.org/2000/svg" xmlns:xlink="http://www.w3.org/1999/xlink">
<g id="graph0" class="graph" transform="scale(1 1) rotate(0) translate(4 43)">
<title>ukca_phot2d::ukca_inpr2d</title>
<polygon fill="#ffffff" stroke="transparent" points="-4,4 -4,-43 475,-43 475,4 -4,4"/>
<!-- Node16 -->
<g id="node1" class="node">
<title>Node16</title>
<polygon fill="#bfbfbf" stroke="#000000" points="0,-19.5 0,-38.5 144,-38.5 144,-19.5 0,-19.5"/>
<text text-anchor="middle" x="72" y="-26.5" font-family="Helvetica,sans-Serif" font-size="10.00" fill="#000000">ukca_phot2d::ukca_inpr2d</text>
</g>
<!-- Node17 -->
<g id="node2" class="node">
<title>Node17</title>
<g id="a_node2"><a xlink:href="ukca__chemistry__ctl_8f90.xhtml#a236899d464f41a41baacbb5737d98bd7" target="_top" xlink:title="!&gt; (c) [University of Cambridge] [2008]. All rights reserved.!&gt; This routine has been licensed to the...">
<polygon fill="#ffffff" stroke="#000000" points="360,-19.5 360,-38.5 471,-38.5 471,-19.5 360,-19.5"/>
<text text-anchor="middle" x="415.5" y="-26.5" font-family="Helvetica,sans-Serif" font-size="10.00" fill="#000000">ukca_chemistry_ctl</text>
</a>
</g>
</g>
<!-- Node16&#45;&gt;Node17 -->
<g id="edge1" class="edge">
<title>Node16&#45;&gt;Node17</title>
<path fill="none" stroke="#191970" d="M154.022,-29C217.6863,-29 304.222,-29 359.9753,-29"/>
<polygon fill="#191970" stroke="#191970" points="154.0089,-25.5001 144.0089,-29 154.0088,-32.5001 154.0089,-25.5001"/>
</g>
<!-- Node18 -->
<g id="node3" class="node">
<title>Node18</title>
<g id="a_node3"><a xlink:href="namespaceukca__phot2d.xhtml#af09d98aceaad8a6935ea26c0cb91426e" target="_top" xlink:title="ukca_phot2d::ukca_photin">
<polygon fill="#ffffff" stroke="#000000" points="180,-.5 180,-19.5 324,-19.5 324,-.5 180,-.5"/>
<text text-anchor="middle" x="252" y="-7.5" font-family="Helvetica,sans-Serif" font-size="10.00" fill="#000000">ukca_phot2d::ukca_photin</text>
</a>
</g>
</g>
<!-- Node16&#45;&gt;Node18 -->
<g id="edge2" class="edge">
<title>Node16&#45;&gt;Node18</title>
<path fill="none" stroke="#191970" d="M154.16,-20.3276C162.7183,-19.4242 171.3719,-18.5107 179.8081,-17.6203"/>
<polygon fill="#191970" stroke="#191970" points="153.7531,-16.851 144.1757,-21.3815 154.4879,-23.8123 153.7531,-16.851"/>
</g>
<!-- Node18&#45;&gt;Node17 -->
<g id="edge3" class="edge">
<title>Node18&#45;&gt;Node17</title>
<path fill="none" stroke="#191970" d="M334.3371,-19.5682C342.9978,-20.5747 351.6497,-21.5801 359.9039,-22.5393"/>
<polygon fill="#191970" stroke="#191970" points="334.5266,-16.0668 324.1894,-18.389 333.7185,-23.02 334.5266,-16.0668"/>
</g>
</g>
</svg>
