<?xml version="1.0" encoding="UTF-8" standalone="no"?>
<!DOCTYPE svg PUBLIC "-//W3C//DTD SVG 1.1//EN"
 "http://www.w3.org/Graphics/SVG/1.1/DTD/svg11.dtd">
<!-- Generated by graphviz version 2.40.1 (20161225.0304)
 -->
<!-- Title: rcf_conv_cld_chk_mod::rcf_conv_cld_chk Pages: 1 -->
<svg width="729pt" height="39pt"
 viewBox="0.00 0.00 729.00 39.00" xmlns="http://www.w3.org/2000/svg" xmlns:xlink="http://www.w3.org/1999/xlink">
<g id="graph0" class="graph" transform="scale(1 1) rotate(0) translate(4 35)">
<title>rcf_conv_cld_chk_mod::rcf_conv_cld_chk</title>
<polygon fill="#ffffff" stroke="transparent" points="-4,4 -4,-35 725,-35 725,4 -4,4"/>
<!-- Node198 -->
<g id="node1" class="node">
<title>Node198</title>
<polygon fill="#bfbfbf" stroke="#000000" points="0,-.5 0,-30.5 127,-30.5 127,-.5 0,-.5"/>
<text text-anchor="start" x="8" y="-18.5" font-family="Helvetica,sans-Serif" font-size="10.00" fill="#000000">rcf_conv_cld_chk_mod</text>
<text text-anchor="middle" x="63.5" y="-7.5" font-family="Helvetica,sans-Serif" font-size="10.00" fill="#000000">::rcf_conv_cld_chk</text>
</g>
<!-- Node199 -->
<g id="node2" class="node">
<title>Node199</title>
<g id="a_node2"><a xlink:href="namespacercf__post__process__mod.xhtml#abd81a99947cd0c226d25842ec46e1e95" target="_top" xlink:title="Subroutine Rcf_Post_Process &#45; process fields after `main loop&#39;. ">
<polygon fill="#ffffff" stroke="#000000" points="163,-.5 163,-30.5 303,-30.5 303,-.5 163,-.5"/>
<text text-anchor="start" x="171" y="-18.5" font-family="Helvetica,sans-Serif" font-size="10.00" fill="#000000">rcf_post_process_mod</text>
<text text-anchor="middle" x="233" y="-7.5" font-family="Helvetica,sans-Serif" font-size="10.00" fill="#000000">::rcf_post_process_atmos</text>
</a>
</g>
</g>
<!-- Node198&#45;&gt;Node199 -->
<g id="edge1" class="edge">
<title>Node198&#45;&gt;Node199</title>
<path fill="none" stroke="#191970" d="M137.3187,-15.5C145.777,-15.5 154.3831,-15.5 162.7922,-15.5"/>
<polygon fill="#191970" stroke="#191970" points="137.0978,-12.0001 127.0978,-15.5 137.0978,-19.0001 137.0978,-12.0001"/>
</g>
<!-- Node200 -->
<g id="node3" class="node">
<title>Node200</title>
<g id="a_node3"><a xlink:href="namespacercf__create__dump__mod.xhtml#a2f1f869ea648718c07cc083ce73c40c9" target="_top" xlink:title="Subroutine Rcf_Create_Dump &#45; main dump creation loop. ">
<polygon fill="#ffffff" stroke="#000000" points="339,-.5 339,-30.5 464,-30.5 464,-.5 339,-.5"/>
<text text-anchor="start" x="347" y="-18.5" font-family="Helvetica,sans-Serif" font-size="10.00" fill="#000000">rcf_create_dump_mod</text>
<text text-anchor="middle" x="401.5" y="-7.5" font-family="Helvetica,sans-Serif" font-size="10.00" fill="#000000">::rcf_create_dump</text>
</a>
</g>
</g>
<!-- Node199&#45;&gt;Node200 -->
<g id="edge2" class="edge">
<title>Node199&#45;&gt;Node200</title>
<path fill="none" stroke="#191970" d="M313.7184,-15.5C322.1475,-15.5 330.6239,-15.5 338.8092,-15.5"/>
<polygon fill="#191970" stroke="#191970" points="313.4829,-12.0001 303.4829,-15.5 313.4828,-19.0001 313.4829,-12.0001"/>
</g>
<!-- Node201 -->
<g id="node4" class="node">
<title>Node201</title>
<g id="a_node4"><a xlink:href="namespacercf__control__mod.xhtml#a3ac6d1c6311ded848ddd750726da301a" target="_top" xlink:title="Subroutine Rcf_Control &#45; main control routine. ">
<polygon fill="#ffffff" stroke="#000000" points="500,-.5 500,-30.5 614,-30.5 614,-.5 500,-.5"/>
<text text-anchor="start" x="508" y="-18.5" font-family="Helvetica,sans-Serif" font-size="10.00" fill="#000000">rcf_control_mod::rcf</text>
<text text-anchor="middle" x="557" y="-7.5" font-family="Helvetica,sans-Serif" font-size="10.00" fill="#000000">_control</text>
</a>
</g>
</g>
<!-- Node200&#45;&gt;Node201 -->
<g id="edge3" class="edge">
<title>Node200&#45;&gt;Node201</title>
<path fill="none" stroke="#191970" d="M474.3443,-15.5C482.9541,-15.5 491.6445,-15.5 499.9908,-15.5"/>
<polygon fill="#191970" stroke="#191970" points="474.2996,-12.0001 464.2996,-15.5 474.2995,-19.0001 474.2996,-12.0001"/>
</g>
<!-- Node202 -->
<g id="node5" class="node">
<title>Node202</title>
<g id="a_node5"><a xlink:href="reconfigure_8f90.xhtml#a55389899cfceedbb4b0f908c73988c0c" target="_top" xlink:title="Top level program for reconfiguration. ">
<polygon fill="#ffffff" stroke="#000000" points="650,-6 650,-25 721,-25 721,-6 650,-6"/>
<text text-anchor="middle" x="685.5" y="-13" font-family="Helvetica,sans-Serif" font-size="10.00" fill="#000000">reconfigure</text>
</a>
</g>
</g>
<!-- Node201&#45;&gt;Node202 -->
<g id="edge4" class="edge">
<title>Node201&#45;&gt;Node202</title>
<path fill="none" stroke="#191970" d="M624.159,-15.5C633.0636,-15.5 641.8936,-15.5 649.9628,-15.5"/>
<polygon fill="#191970" stroke="#191970" points="624.1103,-12.0001 614.1103,-15.5 624.1103,-19.0001 624.1103,-12.0001"/>
</g>
</g>
</svg>
