<?xml version="1.0" encoding="UTF-8" standalone="no"?>
<!DOCTYPE svg PUBLIC "-//W3C//DTD SVG 1.1//EN"
 "http://www.w3.org/Graphics/SVG/1.1/DTD/svg11.dtd">
<!-- Generated by graphviz version 2.40.1 (20161225.0304)
 -->
<!-- Title: calc_wp_below_t_mod::calc_wp_below_t Pages: 1 -->
<svg width="1143pt" height="104pt"
 viewBox="0.00 0.00 1143.00 104.00" xmlns="http://www.w3.org/2000/svg" xmlns:xlink="http://www.w3.org/1999/xlink">
<g id="graph0" class="graph" transform="scale(1 1) rotate(0) translate(4 100)">
<title>calc_wp_below_t_mod::calc_wp_below_t</title>
<polygon fill="#ffffff" stroke="transparent" points="-4,4 -4,-100 1139,-100 1139,4 -4,4"/>
<!-- Node1 -->
<g id="node1" class="node">
<title>Node1</title>
<polygon fill="#bfbfbf" stroke="#000000" points="0,-33 0,-63 126,-63 126,-33 0,-33"/>
<text text-anchor="start" x="8" y="-51" font-family="Helvetica,sans-Serif" font-size="10.00" fill="#000000">calc_wp_below_t_mod</text>
<text text-anchor="middle" x="63" y="-40" font-family="Helvetica,sans-Serif" font-size="10.00" fill="#000000">::calc_wp_below_t</text>
</g>
<!-- Node2 -->
<g id="node2" class="node">
<title>Node2</title>
<g id="a_node2"><a xlink:href="namespaceflash__rate__mod.xhtml#af5e2cb7f3ac282e40e91bd286c6a2461" target="_top" xlink:title="flash_rate_mod::flash_rate">
<polygon fill="#ffffff" stroke="#000000" points="162,-38.5 162,-57.5 308,-57.5 308,-38.5 162,-38.5"/>
<text text-anchor="middle" x="235" y="-45.5" font-family="Helvetica,sans-Serif" font-size="10.00" fill="#000000">flash_rate_mod::flash_rate</text>
</a>
</g>
</g>
<!-- Node1&#45;&gt;Node2 -->
<g id="edge1" class="edge">
<title>Node1&#45;&gt;Node2</title>
<path fill="none" stroke="#191970" d="M136.2581,-48C144.6972,-48 153.3037,-48 161.7428,-48"/>
<polygon fill="#191970" stroke="#191970" points="136.0698,-44.5001 126.0698,-48 136.0698,-51.5001 136.0698,-44.5001"/>
</g>
<!-- Node3 -->
<g id="node3" class="node">
<title>Node3</title>
<g id="a_node3"><a xlink:href="namespaceelectric__main__mod.xhtml#a6442497e1595a67daf7c198f0f26ee86" target="_top" xlink:title="electric_main_mod::\lelectric_main">
<polygon fill="#ffffff" stroke="#000000" points="344,-33 344,-63 460,-63 460,-33 344,-33"/>
<text text-anchor="start" x="352" y="-51" font-family="Helvetica,sans-Serif" font-size="10.00" fill="#000000">electric_main_mod::</text>
<text text-anchor="middle" x="402" y="-40" font-family="Helvetica,sans-Serif" font-size="10.00" fill="#000000">electric_main</text>
</a>
</g>
</g>
<!-- Node2&#45;&gt;Node3 -->
<g id="edge2" class="edge">
<title>Node2&#45;&gt;Node3</title>
<path fill="none" stroke="#191970" d="M318.3502,-48C326.9749,-48 335.6017,-48 343.8626,-48"/>
<polygon fill="#191970" stroke="#191970" points="318.2487,-44.5001 308.2486,-48 318.2486,-51.5001 318.2487,-44.5001"/>
</g>
<!-- Node4 -->
<g id="node4" class="node">
<title>Node4</title>
<g id="a_node4"><a xlink:href="microphys__ctl_8f90.xhtml#a84b5cd5d89cbd475c33ce5b23e71d1d5" target="_top" xlink:title="Subroutine microphys_ctl. ">
<polygon fill="#ffffff" stroke="#000000" points="496,-38.5 496,-57.5 581,-57.5 581,-38.5 496,-38.5"/>
<text text-anchor="middle" x="538.5" y="-45.5" font-family="Helvetica,sans-Serif" font-size="10.00" fill="#000000">microphys_ctl</text>
</a>
</g>
</g>
<!-- Node3&#45;&gt;Node4 -->
<g id="edge3" class="edge">
<title>Node3&#45;&gt;Node4</title>
<path fill="none" stroke="#191970" d="M470.3758,-48C478.9995,-48 487.6204,-48 495.688,-48"/>
<polygon fill="#191970" stroke="#191970" points="470.2843,-44.5001 460.2842,-48 470.2842,-51.5001 470.2843,-44.5001"/>
</g>
<!-- Node5 -->
<g id="node5" class="node">
<title>Node5</title>
<g id="a_node5"><a xlink:href="atmos__physics1_8f90.xhtml#ae8d55d89da6ed68f5f8d7e9eec99bc76" target="_top" xlink:title="Interface to Atmos Physics parametrizations before S&#45;L advection. ">
<polygon fill="#ffffff" stroke="#000000" points="617,-38.5 617,-57.5 712,-57.5 712,-38.5 617,-38.5"/>
<text text-anchor="middle" x="664.5" y="-45.5" font-family="Helvetica,sans-Serif" font-size="10.00" fill="#000000">atmos_physics1</text>
</a>
</g>
</g>
<!-- Node4&#45;&gt;Node5 -->
<g id="edge4" class="edge">
<title>Node4&#45;&gt;Node5</title>
<path fill="none" stroke="#191970" d="M591.2722,-48C599.7007,-48 608.3801,-48 616.6851,-48"/>
<polygon fill="#191970" stroke="#191970" points="591.1579,-44.5001 581.1579,-48 591.1578,-51.5001 591.1579,-44.5001"/>
</g>
<!-- Node6 -->
<g id="node6" class="node">
<title>Node6</title>
<g id="a_node6"><a xlink:href="atm__step_8f90.xhtml#ac0ee2467a1a9959b7065fdb8fd27bce4" target="_top" xlink:title="Perform a 1&#45;timestep integration of the Atmosphere Model. ">
<polygon fill="#ffffff" stroke="#000000" points="757,-76.5 757,-95.5 819,-95.5 819,-76.5 757,-76.5"/>
<text text-anchor="middle" x="788" y="-83.5" font-family="Helvetica,sans-Serif" font-size="10.00" fill="#000000">atm_step</text>
</a>
</g>
</g>
<!-- Node5&#45;&gt;Node6 -->
<g id="edge5" class="edge">
<title>Node5&#45;&gt;Node6</title>
<path fill="none" stroke="#191970" d="M705.2397,-60.5353C722.0405,-65.7048 741.197,-71.5991 756.8457,-76.4141"/>
<polygon fill="#191970" stroke="#191970" points="706.2514,-57.1847 695.6643,-57.589 704.1927,-63.8752 706.2514,-57.1847"/>
</g>
<!-- Node10 -->
<g id="node10" class="node">
<title>Node10</title>
<g id="a_node10"><a xlink:href="atm__step__4_a_8f90.xhtml#a2319aa4963e90c64cd78bdcd5f481095" target="_top" xlink:title="Perform a 1&#45;timestep integration of the Atmosphere Model. ">
<polygon fill="#ffffff" stroke="#000000" points="748,-38.5 748,-57.5 828,-57.5 828,-38.5 748,-38.5"/>
<text text-anchor="middle" x="788" y="-45.5" font-family="Helvetica,sans-Serif" font-size="10.00" fill="#000000">atm_step_4a</text>
</a>
</g>
</g>
<!-- Node5&#45;&gt;Node10 -->
<g id="edge9" class="edge">
<title>Node5&#45;&gt;Node10</title>
<path fill="none" stroke="#191970" d="M722.3434,-48C731.0185,-48 739.7967,-48 747.9897,-48"/>
<polygon fill="#191970" stroke="#191970" points="722.2484,-44.5001 712.2483,-48 722.2483,-51.5001 722.2484,-44.5001"/>
</g>
<!-- Node12 -->
<g id="node12" class="node">
<title>Node12</title>
<g id="a_node12"><a xlink:href="scm__main_8f90.xhtml#a2c730136605550612e094ce51d33a2a5" target="_top" xlink:title="*********************************COPYRIGHT********************************* ">
<polygon fill="#ffffff" stroke="#000000" points="754.5,-.5 754.5,-19.5 821.5,-19.5 821.5,-.5 754.5,-.5"/>
<text text-anchor="middle" x="788" y="-7.5" font-family="Helvetica,sans-Serif" font-size="10.00" fill="#000000">scm_main</text>
</a>
</g>
</g>
<!-- Node5&#45;&gt;Node12 -->
<g id="edge12" class="edge">
<title>Node5&#45;&gt;Node12</title>
<path fill="none" stroke="#191970" d="M705.2397,-35.4647C722.0405,-30.2952 741.197,-24.4009 756.8457,-19.5859"/>
<polygon fill="#191970" stroke="#191970" points="704.1927,-32.1248 695.6643,-38.411 706.2514,-38.8153 704.1927,-32.1248"/>
</g>
<!-- Node7 -->
<g id="node7" class="node">
<title>Node7</title>
<g id="a_node7"><a xlink:href="u__model_8f90.xhtml#ada0cd2ce4699433bf0f9adbd882c8eec" target="_top" xlink:title="Subroutine: U_MODEL &#45;!&gt; ">
<polygon fill="#ffffff" stroke="#000000" points="872.5,-76.5 872.5,-95.5 931.5,-95.5 931.5,-76.5 872.5,-76.5"/>
<text text-anchor="middle" x="902" y="-83.5" font-family="Helvetica,sans-Serif" font-size="10.00" fill="#000000">u_model</text>
</a>
</g>
</g>
<!-- Node6&#45;&gt;Node7 -->
<g id="edge6" class="edge">
<title>Node6&#45;&gt;Node7</title>
<path fill="none" stroke="#191970" d="M829.2532,-86C843.5539,-86 859.2895,-86 872.4568,-86"/>
<polygon fill="#191970" stroke="#191970" points="829.151,-82.5001 819.151,-86 829.151,-89.5001 829.151,-82.5001"/>
</g>
<!-- Node8 -->
<g id="node8" class="node">
<title>Node8</title>
<g id="a_node8"><a xlink:href="um__shell_8f90.xhtml#a8c9bd25362824a5c301376ecb5ed5c27" target="_top" xlink:title="Subroutine: UM_SHELL !&gt; ">
<polygon fill="#ffffff" stroke="#000000" points="976,-57.5 976,-76.5 1037,-76.5 1037,-57.5 976,-57.5"/>
<text text-anchor="middle" x="1006.5" y="-64.5" font-family="Helvetica,sans-Serif" font-size="10.00" fill="#000000">um_shell</text>
</a>
</g>
</g>
<!-- Node7&#45;&gt;Node8 -->
<g id="edge7" class="edge">
<title>Node7&#45;&gt;Node8</title>
<path fill="none" stroke="#191970" d="M941.701,-78.7816C952.951,-76.7362 965.0261,-74.5407 975.6677,-72.6059"/>
<polygon fill="#191970" stroke="#191970" points="940.8786,-75.3737 931.666,-80.6062 942.1308,-82.2608 940.8786,-75.3737"/>
</g>
<!-- Node9 -->
<g id="node9" class="node">
<title>Node9</title>
<g id="a_node9"><a xlink:href="um__main_8f90.xhtml#a8f2d13215621443a5313261c282f098b" target="_top" xlink:title="Code Owner: See Unified Model Code Owner&#39;s HTML page. ">
<polygon fill="#ffffff" stroke="#000000" points="1073,-57.5 1073,-76.5 1135,-76.5 1135,-57.5 1073,-57.5"/>
<text text-anchor="middle" x="1104" y="-64.5" font-family="Helvetica,sans-Serif" font-size="10.00" fill="#000000">um_main</text>
</a>
</g>
</g>
<!-- Node8&#45;&gt;Node9 -->
<g id="edge8" class="edge">
<title>Node8&#45;&gt;Node9</title>
<path fill="none" stroke="#191970" d="M1047.2756,-67C1055.8294,-67 1064.72,-67 1072.8551,-67"/>
<polygon fill="#191970" stroke="#191970" points="1047.0821,-63.5001 1037.0821,-67 1047.0821,-70.5001 1047.0821,-63.5001"/>
</g>
<!-- Node11 -->
<g id="node11" class="node">
<title>Node11</title>
<g id="a_node11"><a xlink:href="u__model__4_a_8f90.xhtml#afa05064dab5eba198b461d0928767c7e" target="_top" xlink:title="LL Subroutine: U_MODEL_4A (ENDGAME VERSION) !&gt;LL. ">
<polygon fill="#ffffff" stroke="#000000" points="864,-38.5 864,-57.5 940,-57.5 940,-38.5 864,-38.5"/>
<text text-anchor="middle" x="902" y="-45.5" font-family="Helvetica,sans-Serif" font-size="10.00" fill="#000000">u_model_4a</text>
</a>
</g>
</g>
<!-- Node10&#45;&gt;Node11 -->
<g id="edge10" class="edge">
<title>Node10&#45;&gt;Node11</title>
<path fill="none" stroke="#191970" d="M838.3998,-48C846.891,-48 855.5803,-48 863.7002,-48"/>
<polygon fill="#191970" stroke="#191970" points="838.1922,-44.5001 828.1921,-48 838.1921,-51.5001 838.1922,-44.5001"/>
</g>
<!-- Node11&#45;&gt;Node8 -->
<g id="edge11" class="edge">
<title>Node11&#45;&gt;Node8</title>
<path fill="none" stroke="#191970" d="M949.8728,-56.7041C958.7087,-58.3107 967.7128,-59.9478 975.8647,-61.43"/>
<polygon fill="#191970" stroke="#191970" points="950.4873,-53.2586 940.0225,-54.9132 949.2351,-60.1457 950.4873,-53.2586"/>
</g>
<!-- Node13 -->
<g id="node13" class="node">
<title>Node13</title>
<g id="a_node13"><a xlink:href="scm__shell_8f90.xhtml#ab15255829ee7b5be626b1c0861b40c8d" target="_top" xlink:title="scm_shell is the main calling program for the Single Column Model. ">
<polygon fill="#ffffff" stroke="#000000" points="869.5,-.5 869.5,-19.5 934.5,-19.5 934.5,-.5 869.5,-.5"/>
<text text-anchor="middle" x="902" y="-7.5" font-family="Helvetica,sans-Serif" font-size="10.00" fill="#000000">scm_shell</text>
</a>
</g>
</g>
<!-- Node12&#45;&gt;Node13 -->
<g id="edge13" class="edge">
<title>Node12&#45;&gt;Node13</title>
<path fill="none" stroke="#191970" d="M831.8248,-10C844.3307,-10 857.7319,-10 869.4371,-10"/>
<polygon fill="#191970" stroke="#191970" points="831.5872,-6.5001 821.5872,-10 831.5871,-13.5001 831.5872,-6.5001"/>
</g>
</g>
</svg>
