<?xml version="1.0" encoding="UTF-8" standalone="no"?>
<!DOCTYPE svg PUBLIC "-//W3C//DTD SVG 1.1//EN"
 "http://www.w3.org/Graphics/SVG/1.1/DTD/svg11.dtd">
<!-- Generated by graphviz version 2.40.1 (20161225.0304)
 -->
<!-- Title: g_wave_4a_mod::g_wave_4a Pages: 1 -->
<svg width="867pt" height="104pt"
 viewBox="0.00 0.00 867.00 104.00" xmlns="http://www.w3.org/2000/svg" xmlns:xlink="http://www.w3.org/1999/xlink">
<g id="graph0" class="graph" transform="scale(1 1) rotate(0) translate(4 100)">
<title>g_wave_4a_mod::g_wave_4a</title>
<polygon fill="#ffffff" stroke="transparent" points="-4,4 -4,-100 863,-100 863,4 -4,4"/>
<!-- Node12 -->
<g id="node1" class="node">
<title>Node12</title>
<polygon fill="#bfbfbf" stroke="#000000" points="0,-38.5 0,-57.5 159,-57.5 159,-38.5 0,-38.5"/>
<text text-anchor="middle" x="79.5" y="-45.5" font-family="Helvetica,sans-Serif" font-size="10.00" fill="#000000">g_wave_4a_mod::g_wave_4a</text>
</g>
<!-- Node13 -->
<g id="node2" class="node">
<title>Node13</title>
<g id="a_node2"><a xlink:href="namespaceni__gwd__ctl__mod.xhtml#a8b9d37bf8ca26e11c4f9090a2efde488" target="_top" xlink:title="ni_gwd_ctl_mod::ni\l_gwd_ctl">
<polygon fill="#ffffff" stroke="#000000" points="195,-33 195,-63 305,-63 305,-33 195,-33"/>
<text text-anchor="start" x="203" y="-51" font-family="Helvetica,sans-Serif" font-size="10.00" fill="#000000">ni_gwd_ctl_mod::ni</text>
<text text-anchor="middle" x="250" y="-40" font-family="Helvetica,sans-Serif" font-size="10.00" fill="#000000">_gwd_ctl</text>
</a>
</g>
</g>
<!-- Node12&#45;&gt;Node13 -->
<g id="edge1" class="edge">
<title>Node12&#45;&gt;Node13</title>
<path fill="none" stroke="#191970" d="M169.3635,-48C177.9647,-48 186.503,-48 194.627,-48"/>
<polygon fill="#191970" stroke="#191970" points="169.2588,-44.5001 159.2588,-48 169.2587,-51.5001 169.2588,-44.5001"/>
</g>
<!-- Node14 -->
<g id="node3" class="node">
<title>Node14</title>
<g id="a_node3"><a xlink:href="atmos__physics1_8f90.xhtml#ae8d55d89da6ed68f5f8d7e9eec99bc76" target="_top" xlink:title="Interface to Atmos Physics parametrizations before S&#45;L advection. ">
<polygon fill="#ffffff" stroke="#000000" points="341,-38.5 341,-57.5 436,-57.5 436,-38.5 341,-38.5"/>
<text text-anchor="middle" x="388.5" y="-45.5" font-family="Helvetica,sans-Serif" font-size="10.00" fill="#000000">atmos_physics1</text>
</a>
</g>
</g>
<!-- Node13&#45;&gt;Node14 -->
<g id="edge2" class="edge">
<title>Node13&#45;&gt;Node14</title>
<path fill="none" stroke="#191970" d="M315.1688,-48C323.7749,-48 332.4653,-48 340.7059,-48"/>
<polygon fill="#191970" stroke="#191970" points="315.1369,-44.5001 305.1368,-48 315.1368,-51.5001 315.1369,-44.5001"/>
</g>
<!-- Node15 -->
<g id="node4" class="node">
<title>Node15</title>
<g id="a_node4"><a xlink:href="atm__step_8f90.xhtml#ac0ee2467a1a9959b7065fdb8fd27bce4" target="_top" xlink:title="Perform a 1&#45;timestep integration of the Atmosphere Model. ">
<polygon fill="#ffffff" stroke="#000000" points="481,-76.5 481,-95.5 543,-95.5 543,-76.5 481,-76.5"/>
<text text-anchor="middle" x="512" y="-83.5" font-family="Helvetica,sans-Serif" font-size="10.00" fill="#000000">atm_step</text>
</a>
</g>
</g>
<!-- Node14&#45;&gt;Node15 -->
<g id="edge3" class="edge">
<title>Node14&#45;&gt;Node15</title>
<path fill="none" stroke="#191970" d="M429.2397,-60.5353C446.0405,-65.7048 465.197,-71.5991 480.8457,-76.4141"/>
<polygon fill="#191970" stroke="#191970" points="430.2514,-57.1847 419.6643,-57.589 428.1927,-63.8752 430.2514,-57.1847"/>
</g>
<!-- Node19 -->
<g id="node8" class="node">
<title>Node19</title>
<g id="a_node8"><a xlink:href="atm__step__4_a_8f90.xhtml#a2319aa4963e90c64cd78bdcd5f481095" target="_top" xlink:title="Perform a 1&#45;timestep integration of the Atmosphere Model. ">
<polygon fill="#ffffff" stroke="#000000" points="472,-38.5 472,-57.5 552,-57.5 552,-38.5 472,-38.5"/>
<text text-anchor="middle" x="512" y="-45.5" font-family="Helvetica,sans-Serif" font-size="10.00" fill="#000000">atm_step_4a</text>
</a>
</g>
</g>
<!-- Node14&#45;&gt;Node19 -->
<g id="edge7" class="edge">
<title>Node14&#45;&gt;Node19</title>
<path fill="none" stroke="#191970" d="M446.3434,-48C455.0185,-48 463.7967,-48 471.9897,-48"/>
<polygon fill="#191970" stroke="#191970" points="446.2484,-44.5001 436.2483,-48 446.2483,-51.5001 446.2484,-44.5001"/>
</g>
<!-- Node21 -->
<g id="node10" class="node">
<title>Node21</title>
<g id="a_node10"><a xlink:href="scm__main_8f90.xhtml#a2c730136605550612e094ce51d33a2a5" target="_top" xlink:title="*********************************COPYRIGHT********************************* ">
<polygon fill="#ffffff" stroke="#000000" points="478.5,-.5 478.5,-19.5 545.5,-19.5 545.5,-.5 478.5,-.5"/>
<text text-anchor="middle" x="512" y="-7.5" font-family="Helvetica,sans-Serif" font-size="10.00" fill="#000000">scm_main</text>
</a>
</g>
</g>
<!-- Node14&#45;&gt;Node21 -->
<g id="edge10" class="edge">
<title>Node14&#45;&gt;Node21</title>
<path fill="none" stroke="#191970" d="M429.2397,-35.4647C446.0405,-30.2952 465.197,-24.4009 480.8457,-19.5859"/>
<polygon fill="#191970" stroke="#191970" points="428.1927,-32.1248 419.6643,-38.411 430.2514,-38.8153 428.1927,-32.1248"/>
</g>
<!-- Node16 -->
<g id="node5" class="node">
<title>Node16</title>
<g id="a_node5"><a xlink:href="u__model_8f90.xhtml#ada0cd2ce4699433bf0f9adbd882c8eec" target="_top" xlink:title="Subroutine: U_MODEL &#45;!&gt; ">
<polygon fill="#ffffff" stroke="#000000" points="596.5,-76.5 596.5,-95.5 655.5,-95.5 655.5,-76.5 596.5,-76.5"/>
<text text-anchor="middle" x="626" y="-83.5" font-family="Helvetica,sans-Serif" font-size="10.00" fill="#000000">u_model</text>
</a>
</g>
</g>
<!-- Node15&#45;&gt;Node16 -->
<g id="edge4" class="edge">
<title>Node15&#45;&gt;Node16</title>
<path fill="none" stroke="#191970" d="M553.2532,-86C567.5539,-86 583.2895,-86 596.4568,-86"/>
<polygon fill="#191970" stroke="#191970" points="553.151,-82.5001 543.151,-86 553.151,-89.5001 553.151,-82.5001"/>
</g>
<!-- Node17 -->
<g id="node6" class="node">
<title>Node17</title>
<g id="a_node6"><a xlink:href="um__shell_8f90.xhtml#a8c9bd25362824a5c301376ecb5ed5c27" target="_top" xlink:title="Subroutine: UM_SHELL !&gt; ">
<polygon fill="#ffffff" stroke="#000000" points="700,-57.5 700,-76.5 761,-76.5 761,-57.5 700,-57.5"/>
<text text-anchor="middle" x="730.5" y="-64.5" font-family="Helvetica,sans-Serif" font-size="10.00" fill="#000000">um_shell</text>
</a>
</g>
</g>
<!-- Node16&#45;&gt;Node17 -->
<g id="edge5" class="edge">
<title>Node16&#45;&gt;Node17</title>
<path fill="none" stroke="#191970" d="M665.701,-78.7816C676.951,-76.7362 689.0261,-74.5407 699.6677,-72.6059"/>
<polygon fill="#191970" stroke="#191970" points="664.8786,-75.3737 655.666,-80.6062 666.1308,-82.2608 664.8786,-75.3737"/>
</g>
<!-- Node18 -->
<g id="node7" class="node">
<title>Node18</title>
<g id="a_node7"><a xlink:href="um__main_8f90.xhtml#a8f2d13215621443a5313261c282f098b" target="_top" xlink:title="Code Owner: See Unified Model Code Owner&#39;s HTML page. ">
<polygon fill="#ffffff" stroke="#000000" points="797,-57.5 797,-76.5 859,-76.5 859,-57.5 797,-57.5"/>
<text text-anchor="middle" x="828" y="-64.5" font-family="Helvetica,sans-Serif" font-size="10.00" fill="#000000">um_main</text>
</a>
</g>
</g>
<!-- Node17&#45;&gt;Node18 -->
<g id="edge6" class="edge">
<title>Node17&#45;&gt;Node18</title>
<path fill="none" stroke="#191970" d="M771.2756,-67C779.8294,-67 788.72,-67 796.8551,-67"/>
<polygon fill="#191970" stroke="#191970" points="771.0821,-63.5001 761.0821,-67 771.0821,-70.5001 771.0821,-63.5001"/>
</g>
<!-- Node20 -->
<g id="node9" class="node">
<title>Node20</title>
<g id="a_node9"><a xlink:href="u__model__4_a_8f90.xhtml#afa05064dab5eba198b461d0928767c7e" target="_top" xlink:title="LL Subroutine: U_MODEL_4A (ENDGAME VERSION) !&gt;LL. ">
<polygon fill="#ffffff" stroke="#000000" points="588,-38.5 588,-57.5 664,-57.5 664,-38.5 588,-38.5"/>
<text text-anchor="middle" x="626" y="-45.5" font-family="Helvetica,sans-Serif" font-size="10.00" fill="#000000">u_model_4a</text>
</a>
</g>
</g>
<!-- Node19&#45;&gt;Node20 -->
<g id="edge8" class="edge">
<title>Node19&#45;&gt;Node20</title>
<path fill="none" stroke="#191970" d="M562.3998,-48C570.891,-48 579.5803,-48 587.7002,-48"/>
<polygon fill="#191970" stroke="#191970" points="562.1922,-44.5001 552.1921,-48 562.1921,-51.5001 562.1922,-44.5001"/>
</g>
<!-- Node20&#45;&gt;Node17 -->
<g id="edge9" class="edge">
<title>Node20&#45;&gt;Node17</title>
<path fill="none" stroke="#191970" d="M673.8728,-56.7041C682.7087,-58.3107 691.7128,-59.9478 699.8647,-61.43"/>
<polygon fill="#191970" stroke="#191970" points="674.4873,-53.2586 664.0225,-54.9132 673.2351,-60.1457 674.4873,-53.2586"/>
</g>
<!-- Node22 -->
<g id="node11" class="node">
<title>Node22</title>
<g id="a_node11"><a xlink:href="scm__shell_8f90.xhtml#ab15255829ee7b5be626b1c0861b40c8d" target="_top" xlink:title="scm_shell is the main calling program for the Single Column Model. ">
<polygon fill="#ffffff" stroke="#000000" points="593.5,-.5 593.5,-19.5 658.5,-19.5 658.5,-.5 593.5,-.5"/>
<text text-anchor="middle" x="626" y="-7.5" font-family="Helvetica,sans-Serif" font-size="10.00" fill="#000000">scm_shell</text>
</a>
</g>
</g>
<!-- Node21&#45;&gt;Node22 -->
<g id="edge11" class="edge">
<title>Node21&#45;&gt;Node22</title>
<path fill="none" stroke="#191970" d="M555.8248,-10C568.3307,-10 581.7319,-10 593.4371,-10"/>
<polygon fill="#191970" stroke="#191970" points="555.5872,-6.5001 545.5872,-10 555.5871,-13.5001 555.5872,-6.5001"/>
</g>
</g>
</svg>
