<?xml version="1.0" encoding="UTF-8" standalone="no"?>
<!DOCTYPE svg PUBLIC "-//W3C//DTD SVG 1.1//EN"
 "http://www.w3.org/Graphics/SVG/1.1/DTD/svg11.dtd">
<!-- Generated by graphviz version 2.40.1 (20161225.0304)
 -->
<!-- Title: ios_client_queue::ios_send Pages: 1 -->
<svg width="1258pt" height="202pt"
 viewBox="0.00 0.00 1258.00 202.00" xmlns="http://www.w3.org/2000/svg" xmlns:xlink="http://www.w3.org/1999/xlink">
<g id="graph0" class="graph" transform="scale(1 1) rotate(0) translate(4 198)">
<title>ios_client_queue::ios_send</title>
<polygon fill="#ffffff" stroke="transparent" points="-4,4 -4,-198 1254,-198 1254,4 -4,4"/>
<!-- Node2530 -->
<g id="node1" class="node">
<title>Node2530</title>
<polygon fill="#bfbfbf" stroke="#000000" points="0,-98.5 0,-117.5 147,-117.5 147,-98.5 0,-98.5"/>
<text text-anchor="middle" x="73.5" y="-105.5" font-family="Helvetica,sans-Serif" font-size="10.00" fill="#000000">ios_client_queue::ios_send</text>
</g>
<!-- Node2531 -->
<g id="node2" class="node">
<title>Node2531</title>
<g id="a_node2"><a xlink:href="namespaceios__common.xhtml#a7ff67c62d278ec0aad0a979c736996c9" target="_top" xlink:title="ios_common::ioserverno">
<polygon fill="#ffffff" stroke="#000000" points="187.5,-174.5 187.5,-193.5 324.5,-193.5 324.5,-174.5 187.5,-174.5"/>
<text text-anchor="middle" x="256" y="-181.5" font-family="Helvetica,sans-Serif" font-size="10.00" fill="#000000">ios_common::ioserverno</text>
</a>
</g>
</g>
<!-- Node2530&#45;&gt;Node2531 -->
<g id="edge1" class="edge">
<title>Node2530&#45;&gt;Node2531</title>
<path fill="none" stroke="#191970" d="M89.2941,-117.6764C110.1173,-130.0889 148.1958,-151.6092 183,-165 189.3232,-167.4328 196.072,-169.6583 202.8161,-171.6609"/>
<polygon fill="#191970" stroke="#191970" points="202.0689,-175.0867 212.6436,-174.4336 203.9697,-168.3497 202.0689,-175.0867"/>
</g>
<!-- Node2532 -->
<g id="node3" class="node">
<title>Node2532</title>
<g id="a_node3"><a xlink:href="namespaceios__common.xhtml#a3976806ac3c1c9b09b572dff6c77d79f" target="_top" xlink:title="ios_common::ioserverrank">
<polygon fill="#ffffff" stroke="#000000" points="183,-136.5 183,-155.5 329,-155.5 329,-136.5 183,-136.5"/>
<text text-anchor="middle" x="256" y="-143.5" font-family="Helvetica,sans-Serif" font-size="10.00" fill="#000000">ios_common::ioserverrank</text>
</a>
</g>
</g>
<!-- Node2530&#45;&gt;Node2532 -->
<g id="edge2" class="edge">
<title>Node2530&#45;&gt;Node2532</title>
<path fill="none" stroke="#191970" d="M119.5525,-117.589C144.0692,-122.6939 174.4096,-129.0113 200.2502,-134.3918"/>
<polygon fill="#191970" stroke="#191970" points="199.7752,-137.8679 210.2787,-136.4799 201.2022,-131.0149 199.7752,-137.8679"/>
</g>
<!-- Node2533 -->
<g id="node4" class="node">
<title>Node2533</title>
<g id="a_node4"><a xlink:href="namespaceios__print__mgr.xhtml#abd09d7fc0d2381103fd0889b447f4995" target="_top" xlink:title="ios_print_mgr::ios\l_print">
<polygon fill="#ffffff" stroke="#000000" points="585,-55 585,-85 689,-85 689,-55 585,-55"/>
<text text-anchor="start" x="593" y="-73" font-family="Helvetica,sans-Serif" font-size="10.00" fill="#000000">ios_print_mgr::ios</text>
<text text-anchor="middle" x="637" y="-62" font-family="Helvetica,sans-Serif" font-size="10.00" fill="#000000">_print</text>
</a>
</g>
</g>
<!-- Node2530&#45;&gt;Node2533 -->
<g id="edge3" class="edge">
<title>Node2530&#45;&gt;Node2533</title>
<path fill="none" stroke="#191970" d="M147.0816,-105.5203C235.6707,-102.1941 388.9092,-95.354 520,-84 537.804,-82.458 557.0808,-80.3382 574.7522,-78.2145"/>
<polygon fill="#191970" stroke="#191970" points="575.4468,-81.6557 584.9481,-76.9679 574.5972,-74.7074 575.4468,-81.6557"/>
</g>
<!-- Node2538 -->
<g id="node9" class="node">
<title>Node2538</title>
<g id="a_node9"><a xlink:href="namespaceios__common.xhtml#a9cbfffb6c02387dc317575ab449918b6" target="_top" xlink:title="ios_common::ios_actionname">
<polygon fill="#ffffff" stroke="#000000" points="556,-.5 556,-19.5 718,-19.5 718,-.5 556,-.5"/>
<text text-anchor="middle" x="637" y="-7.5" font-family="Helvetica,sans-Serif" font-size="10.00" fill="#000000">ios_common::ios_actionname</text>
</a>
</g>
</g>
<!-- Node2530&#45;&gt;Node2538 -->
<g id="edge9" class="edge">
<title>Node2530&#45;&gt;Node2538</title>
<path fill="none" stroke="#191970" d="M88.4892,-98.4952C109.0415,-85.8676 147.4758,-63.6819 183,-51 303.0944,-8.1269 451.8668,-2.9809 545.6405,-5.0548"/>
<polygon fill="#191970" stroke="#191970" points="545.5825,-8.5544 555.668,-5.3088 545.7598,-1.5566 545.5825,-8.5544"/>
</g>
<!-- Node2539 -->
<g id="node10" class="node">
<title>Node2539</title>
<g id="a_node10"><a xlink:href="namespaceios__common.xhtml#a4b4c79405dd73494ae58cbf0e4f1658b" target="_top" xlink:title="ios_common::ios_ereport">
<polygon fill="#ffffff" stroke="#000000" points="186,-60.5 186,-79.5 326,-79.5 326,-60.5 186,-60.5"/>
<text text-anchor="middle" x="256" y="-67.5" font-family="Helvetica,sans-Serif" font-size="10.00" fill="#000000">ios_common::ios_ereport</text>
</a>
</g>
</g>
<!-- Node2530&#45;&gt;Node2539 -->
<g id="edge10" class="edge">
<title>Node2530&#45;&gt;Node2539</title>
<path fill="none" stroke="#191970" d="M119.5525,-98.411C144.0692,-93.3061 174.4096,-86.9887 200.2502,-81.6082"/>
<polygon fill="#191970" stroke="#191970" points="201.2022,-84.9851 210.2787,-79.5201 199.7752,-78.1321 201.2022,-84.9851"/>
</g>
<!-- Node2534 -->
<g id="node5" class="node">
<title>Node2534</title>
<g id="a_node5"><a xlink:href="namespaceumprintmgr.xhtml#aae44897e556705dbf5e945a26538be9a" target="_top" xlink:title="umprintmgr::umprint">
<polygon fill="#ffffff" stroke="#000000" points="754,-60.5 754,-79.5 873,-79.5 873,-60.5 754,-60.5"/>
<text text-anchor="middle" x="813.5" y="-67.5" font-family="Helvetica,sans-Serif" font-size="10.00" fill="#000000">umprintmgr::umprint</text>
</a>
</g>
</g>
<!-- Node2533&#45;&gt;Node2534 -->
<g id="edge4" class="edge">
<title>Node2533&#45;&gt;Node2534</title>
<path fill="none" stroke="#191970" d="M689.0012,-70C706.1607,-70 725.5332,-70 743.796,-70"/>
<polygon fill="#191970" stroke="#191970" points="743.8067,-73.5001 753.8067,-70 743.8067,-66.5001 743.8067,-73.5001"/>
</g>
<!-- Node2535 -->
<g id="node6" class="node">
<title>Node2535</title>
<g id="a_node6"><a xlink:href="namespaceumprintmgr.xhtml#a088ce22a18d574e9df7ee1850bfb10c7" target="_top" xlink:title="umprintmgr::umprintopenstream">
<polygon fill="#ffffff" stroke="#000000" points="909,-60.5 909,-79.5 1086,-79.5 1086,-60.5 909,-60.5"/>
<text text-anchor="middle" x="997.5" y="-67.5" font-family="Helvetica,sans-Serif" font-size="10.00" fill="#000000">umprintmgr::umprintopenstream</text>
</a>
</g>
</g>
<!-- Node2534&#45;&gt;Node2535 -->
<g id="edge5" class="edge">
<title>Node2534&#45;&gt;Node2535</title>
<path fill="none" stroke="#191970" d="M873.2395,-63.6333C881.4605,-63.4301 890.0751,-63.3077 898.7702,-63.2661"/>
<polygon fill="#191970" stroke="#191970" points="898.9998,-66.7659 908.9958,-63.2543 898.9917,-59.7659 898.9998,-66.7659"/>
</g>
<!-- Node2536 -->
<g id="node7" class="node">
<title>Node2536</title>
<g id="a_node7"><a xlink:href="namespaceumprintmgr.xhtml#ad3a290b30a6e25500eabc0bf90330b77" target="_top" xlink:title="umprintmgr::umprintflush">
<polygon fill="#ffffff" stroke="#000000" points="926.5,-22.5 926.5,-41.5 1068.5,-41.5 1068.5,-22.5 926.5,-22.5"/>
<text text-anchor="middle" x="997.5" y="-29.5" font-family="Helvetica,sans-Serif" font-size="10.00" fill="#000000">umprintmgr::umprintflush</text>
</a>
</g>
</g>
<!-- Node2534&#45;&gt;Node2536 -->
<g id="edge7" class="edge">
<title>Node2534&#45;&gt;Node2536</title>
<path fill="none" stroke="#191970" d="M859.931,-60.411C884.6493,-55.3061 915.239,-48.9887 941.292,-43.6082"/>
<polygon fill="#191970" stroke="#191970" points="942.3175,-46.9703 951.4029,-41.5201 940.9017,-40.115 942.3175,-46.9703"/>
</g>
<!-- Node2535&#45;&gt;Node2534 -->
<g id="edge6" class="edge">
<title>Node2535&#45;&gt;Node2534</title>
<path fill="none" stroke="#191970" d="M908.9958,-76.7457C900.3802,-76.767 891.7236,-76.7094 883.3289,-76.5727"/>
<polygon fill="#191970" stroke="#191970" points="883.3089,-73.0716 873.2395,-76.3667 883.166,-80.0702 883.3089,-73.0716"/>
</g>
<!-- Node2537 -->
<g id="node8" class="node">
<title>Node2537</title>
<g id="a_node8"><a xlink:href="namespaceumflush__mod.xhtml#a3a003ab59990bdcb712b443dd5e0d1cd" target="_top" xlink:title="umflush_mod::umflush">
<polygon fill="#ffffff" stroke="#000000" points="1122,-22.5 1122,-41.5 1250,-41.5 1250,-22.5 1122,-22.5"/>
<text text-anchor="middle" x="1186" y="-29.5" font-family="Helvetica,sans-Serif" font-size="10.00" fill="#000000">umflush_mod::umflush</text>
</a>
</g>
</g>
<!-- Node2536&#45;&gt;Node2537 -->
<g id="edge8" class="edge">
<title>Node2536&#45;&gt;Node2537</title>
<path fill="none" stroke="#191970" d="M1068.7638,-32C1082.7742,-32 1097.5063,-32 1111.6162,-32"/>
<polygon fill="#191970" stroke="#191970" points="1111.7612,-35.5001 1121.7611,-32 1111.7611,-28.5001 1111.7612,-35.5001"/>
</g>
<!-- Node2539&#45;&gt;Node2533 -->
<g id="edge11" class="edge">
<title>Node2539&#45;&gt;Node2533</title>
<path fill="none" stroke="#191970" d="M326.3253,-70C397.497,-70 506.4939,-70 574.661,-70"/>
<polygon fill="#191970" stroke="#191970" points="574.8256,-73.5001 584.8256,-70 574.8255,-66.5001 574.8256,-73.5001"/>
</g>
<!-- Node2540 -->
<g id="node11" class="node">
<title>Node2540</title>
<g id="a_node11"><a xlink:href="namespaceios__common.xhtml#ade38472c488c019e816ec75cb70ab3cc" target="_top" xlink:title="ios_common::ios_report_md">
<polygon fill="#ffffff" stroke="#000000" points="365,-22.5 365,-41.5 520,-41.5 520,-22.5 365,-22.5"/>
<text text-anchor="middle" x="442.5" y="-29.5" font-family="Helvetica,sans-Serif" font-size="10.00" fill="#000000">ios_common::ios_report_md</text>
</a>
</g>
</g>
<!-- Node2539&#45;&gt;Node2540 -->
<g id="edge12" class="edge">
<title>Node2539&#45;&gt;Node2540</title>
<path fill="none" stroke="#191970" d="M303.0618,-60.411C328.2268,-55.2835 359.3958,-48.9328 385.8786,-43.5368"/>
<polygon fill="#191970" stroke="#191970" points="386.6767,-46.9462 395.7766,-41.5201 385.2791,-40.0871 386.6767,-46.9462"/>
</g>
<!-- Node2540&#45;&gt;Node2533 -->
<g id="edge13" class="edge">
<title>Node2540&#45;&gt;Node2533</title>
<path fill="none" stroke="#191970" d="M491.3295,-41.54C516.5742,-46.4721 547.6631,-52.546 574.6282,-57.8143"/>
<polygon fill="#191970" stroke="#191970" points="574.2546,-61.3074 584.7402,-59.7899 575.5969,-54.4372 574.2546,-61.3074"/>
</g>
<!-- Node2540&#45;&gt;Node2538 -->
<g id="edge14" class="edge">
<title>Node2540&#45;&gt;Node2538</title>
<path fill="none" stroke="#191970" d="M520.2101,-23.2102C528.6519,-22.2553 537.2986,-21.2773 545.8814,-20.3065"/>
<polygon fill="#191970" stroke="#191970" points="546.3681,-23.7738 555.9114,-19.172 545.5813,-16.8182 546.3681,-23.7738"/>
</g>
</g>
</svg>
