<?xml version="1.0" encoding="UTF-8" standalone="no"?>
<!DOCTYPE svg PUBLIC "-//W3C//DTD SVG 1.1//EN"
 "http://www.w3.org/Graphics/SVG/1.1/DTD/svg11.dtd">
<!-- Generated by graphviz version 2.40.1 (20161225.0304)
 -->
<!-- Title: ios::ios_write_stash_prepacked_data Pages: 1 -->
<!--zoomable 334 -->
<svg id="main" version="1.1" xmlns="http://www.w3.org/2000/svg" xmlns:xlink="http://www.w3.org/1999/xlink" xml:space="preserve" onload="init(evt)">
<style type="text/css"><![CDATA[
.edge:hover path { stroke: red; }
.edge:hover polygon { stroke: red; fill: red; }
]]></style>
<script type="text/javascript"><![CDATA[
var edges = document.getElementsByTagName('g');
if (edges && edges.length) {
  for (var i=0;i<edges.length;i++) {
    if (edges[i].id.substr(0,4)=='edge') {
      edges[i].setAttribute('class','edge');
    }
  }
}
]]></script>
        <defs>
                <circle id="rim" cx="0" cy="0" r="7"/>
                <circle id="rim2" cx="0" cy="0" r="3.5"/>
                <g id="zoomPlus">
                        <use xlink:href="#rim" fill="#404040">
                                <set attributeName="fill" to="#808080" begin="zoomplus.mouseover" end="zoomplus.mouseout"/>
                        </use>
                        <path d="M-4,0h8M0,-4v8" fill="none" stroke="white" stroke-width="1.5" pointer-events="none"/>
                </g>
                <g id="zoomMin">
                        <use xlink:href="#rim" fill="#404040">
                                <set attributeName="fill" to="#808080" begin="zoomminus.mouseover" end="zoomminus.mouseout"/>
                        </use>
                        <path d="M-4,0h8" fill="none" stroke="white" stroke-width="1.5" pointer-events="none"/>
                </g>
                <g id="dirArrow">
                        <path fill="none" stroke="white" stroke-width="1.5" d="M0,-3.0v7 M-2.5,-0.5L0,-3.0L2.5,-0.5"/>
                </g>
               <g id="resetDef">
                       <use xlink:href="#rim2" fill="#404040">
                               <set attributeName="fill" to="#808080" begin="reset.mouseover" end="reset.mouseout"/>
                       </use>
               </g>
        </defs>

<script type="text/javascript">
var viewWidth = 1035;
var viewHeight = 334;
var sectionId = 'dynsection-47';
</script>
<script xlink:href="svgpan.js"/>
<svg id="graph" class="graph">
<g id="viewport">
<title>ios::ios_write_stash_prepacked_data</title>
<polygon fill="#ffffff" stroke="transparent" points="-4,4 -4,-329.7037 1031,-329.7037 1031,4 -4,4"/>
<!-- Node1554 -->
<g id="node1" class="node">
<title>Node1554</title>
<polygon fill="#bfbfbf" stroke="#000000" points="0,-229.1061 0,-259.1061 113,-259.1061 113,-229.1061 0,-229.1061"/>
<text text-anchor="start" x="8" y="-247.1061" font-family="Helvetica,sans-Serif" font-size="10.00" fill="#000000">ios::ios_write_stash</text>
<text text-anchor="middle" x="56.5" y="-236.1061" font-family="Helvetica,sans-Serif" font-size="10.00" fill="#000000">_prepacked_data</text>
</g>
<!-- Node1555 -->
<g id="node2" class="node">
<title>Node1555</title>
<g id="a_node2"><a xlink:href="pp__file_8f90.xhtml#a16dcddb977828f88bb3f21e8bc1b8c30" target="_top" xlink:title="SUBROUTINE PP_FILE &#45;!&gt; ">
<polygon fill="#ffffff" stroke="#000000" points="149,-234.6061 149,-253.6061 198,-253.6061 198,-234.6061 149,-234.6061"/>
<text text-anchor="middle" x="173.5" y="-241.6061" font-family="Helvetica,sans-Serif" font-size="10.00" fill="#000000">pp_file</text>
</a>
</g>
</g>
<!-- Node1554&#45;&gt;Node1555 -->
<g id="edge1" class="edge">
<title>Node1554&#45;&gt;Node1555</title>
<path fill="none" stroke="#191970" d="M123.4841,-244.1061C132.4551,-244.1061 141.1541,-244.1061 148.713,-244.1061"/>
<polygon fill="#191970" stroke="#191970" points="123.2864,-240.6062 113.2864,-244.1061 123.2863,-247.6062 123.2864,-240.6062"/>
</g>
<!-- Node1556 -->
<g id="node3" class="node">
<title>Node1556</title>
<g id="a_node3"><a xlink:href="meandiag_8f90.xhtml#a72a0b96fb4670010dc65680c7e8ac636" target="_top" xlink:title="LL Routine: MEANDIAG !&gt;LL. ">
<polygon fill="#ffffff" stroke="#000000" points="555.5,-291.6061 555.5,-310.6061 620.5,-310.6061 620.5,-291.6061 555.5,-291.6061"/>
<text text-anchor="middle" x="588" y="-298.6061" font-family="Helvetica,sans-Serif" font-size="10.00" fill="#000000">meandiag</text>
</a>
</g>
</g>
<!-- Node1555&#45;&gt;Node1556 -->
<g id="edge2" class="edge">
<title>Node1555&#45;&gt;Node1556</title>
<path fill="none" stroke="#191970" d="M203.5781,-257.7644C246.066,-276.2338 326.5703,-308.2289 399,-320.1061 448.5603,-328.2332 462.1541,-326.2425 512,-320.1061 527.1185,-318.245 543.5551,-314.3756 557.2628,-310.6115"/>
<polygon fill="#191970" stroke="#191970" points="204.9259,-254.5337 194.3631,-253.7105 202.1071,-260.941 204.9259,-254.5337"/>
</g>
<!-- Node1562 -->
<g id="node9" class="node">
<title>Node1562</title>
<g id="a_node9"><a xlink:href="stwork_8f90.xhtml#a60176015435dd67d80b42122c78e024e" target="_top" xlink:title="Subroutine STWORK !&gt; ">
<polygon fill="#ffffff" stroke="#000000" points="234,-215.6061 234,-234.6061 284,-234.6061 284,-215.6061 234,-215.6061"/>
<text text-anchor="middle" x="259" y="-222.6061" font-family="Helvetica,sans-Serif" font-size="10.00" fill="#000000">stwork</text>
</a>
</g>
</g>
<!-- Node1555&#45;&gt;Node1562 -->
<g id="edge9" class="edge">
<title>Node1555&#45;&gt;Node1562</title>
<path fill="none" stroke="#191970" d="M208.0218,-236.4346C216.618,-234.5244 225.6754,-232.5116 233.7321,-230.7212"/>
<polygon fill="#191970" stroke="#191970" points="207.2327,-233.0245 198.2301,-238.6106 208.7513,-239.8578 207.2327,-233.0245"/>
</g>
<!-- Node1557 -->
<g id="node4" class="node">
<title>Node1557</title>
<g id="a_node4"><a xlink:href="meanctl_8f90.xhtml#a5bbbf6327297fa87e7a0d9b511eb2b00" target="_top" xlink:title="Subroutine: MEANCTL&#45;!&gt; ">
<polygon fill="#ffffff" stroke="#000000" points="664,-196.6061 664,-215.6061 720,-215.6061 720,-196.6061 664,-196.6061"/>
<text text-anchor="middle" x="692" y="-203.6061" font-family="Helvetica,sans-Serif" font-size="10.00" fill="#000000">meanctl</text>
</a>
</g>
</g>
<!-- Node1556&#45;&gt;Node1557 -->
<g id="edge3" class="edge">
<title>Node1556&#45;&gt;Node1557</title>
<path fill="none" stroke="#191970" d="M606.3574,-284.3374C628.1808,-264.4025 663.8565,-231.8142 681.4752,-215.7201"/>
<polygon fill="#191970" stroke="#191970" points="603.7609,-281.9687 598.7381,-291.2973 608.482,-287.137 603.7609,-281.9687"/>
</g>
<!-- Node1558 -->
<g id="node5" class="node">
<title>Node1558</title>
<g id="a_node5"><a xlink:href="u__model_8f90.xhtml#ada0cd2ce4699433bf0f9adbd882c8eec" target="_top" xlink:title="Subroutine: U_MODEL &#45;!&gt; ">
<polygon fill="#ffffff" stroke="#000000" points="764.5,-177.6061 764.5,-196.6061 823.5,-196.6061 823.5,-177.6061 764.5,-177.6061"/>
<text text-anchor="middle" x="794" y="-184.6061" font-family="Helvetica,sans-Serif" font-size="10.00" fill="#000000">u_model</text>
</a>
</g>
</g>
<!-- Node1557&#45;&gt;Node1558 -->
<g id="edge4" class="edge">
<title>Node1557&#45;&gt;Node1558</title>
<path fill="none" stroke="#191970" d="M730.1485,-199C741.392,-196.9057 753.527,-194.6452 764.1674,-192.6632"/>
<polygon fill="#191970" stroke="#191970" points="729.3319,-195.5919 720.142,-200.864 730.6138,-202.4735 729.3319,-195.5919"/>
</g>
<!-- Node1561 -->
<g id="node8" class="node">
<title>Node1561</title>
<g id="a_node8"><a xlink:href="u__model__4_a_8f90.xhtml#afa05064dab5eba198b461d0928767c7e" target="_top" xlink:title="LL Subroutine: U_MODEL_4A (ENDGAME VERSION) !&gt;LL. ">
<polygon fill="#ffffff" stroke="#000000" points="756,-139.6061 756,-158.6061 832,-158.6061 832,-139.6061 756,-139.6061"/>
<text text-anchor="middle" x="794" y="-146.6061" font-family="Helvetica,sans-Serif" font-size="10.00" fill="#000000">u_model_4a</text>
</a>
</g>
</g>
<!-- Node1557&#45;&gt;Node1561 -->
<g id="edge7" class="edge">
<title>Node1557&#45;&gt;Node1561</title>
<path fill="none" stroke="#191970" d="M716.2053,-191.1751C728.08,-183.9943 742.6653,-175.3862 756,-168.1061 761.8265,-164.9251 768.253,-161.6324 774.1373,-158.6998"/>
<polygon fill="#191970" stroke="#191970" points="714.0588,-188.3844 707.3388,-196.5754 717.7,-194.3628 714.0588,-188.3844"/>
</g>
<!-- Node1559 -->
<g id="node6" class="node">
<title>Node1559</title>
<g id="a_node6"><a xlink:href="um__shell_8f90.xhtml#a8c9bd25362824a5c301376ecb5ed5c27" target="_top" xlink:title="Subroutine: UM_SHELL !&gt; ">
<polygon fill="#ffffff" stroke="#000000" points="868,-158.6061 868,-177.6061 929,-177.6061 929,-158.6061 868,-158.6061"/>
<text text-anchor="middle" x="898.5" y="-165.6061" font-family="Helvetica,sans-Serif" font-size="10.00" fill="#000000">um_shell</text>
</a>
</g>
</g>
<!-- Node1558&#45;&gt;Node1559 -->
<g id="edge5" class="edge">
<title>Node1558&#45;&gt;Node1559</title>
<path fill="none" stroke="#191970" d="M833.701,-179.8878C844.951,-177.8423 857.0261,-175.6469 867.6677,-173.712"/>
<polygon fill="#191970" stroke="#191970" points="832.8786,-176.4798 823.666,-181.7123 834.1308,-183.3669 832.8786,-176.4798"/>
</g>
<!-- Node1560 -->
<g id="node7" class="node">
<title>Node1560</title>
<g id="a_node7"><a xlink:href="um__main_8f90.xhtml#a8f2d13215621443a5313261c282f098b" target="_top" xlink:title="Code Owner: See Unified Model Code Owner&#39;s HTML page. ">
<polygon fill="#ffffff" stroke="#000000" points="965,-158.6061 965,-177.6061 1027,-177.6061 1027,-158.6061 965,-158.6061"/>
<text text-anchor="middle" x="996" y="-165.6061" font-family="Helvetica,sans-Serif" font-size="10.00" fill="#000000">um_main</text>
</a>
</g>
</g>
<!-- Node1559&#45;&gt;Node1560 -->
<g id="edge6" class="edge">
<title>Node1559&#45;&gt;Node1560</title>
<path fill="none" stroke="#191970" d="M939.2756,-168.1061C947.8294,-168.1061 956.72,-168.1061 964.8551,-168.1061"/>
<polygon fill="#191970" stroke="#191970" points="939.0821,-164.6062 929.0821,-168.1061 939.0821,-171.6062 939.0821,-164.6062"/>
</g>
<!-- Node1561&#45;&gt;Node1559 -->
<g id="edge8" class="edge">
<title>Node1561&#45;&gt;Node1559</title>
<path fill="none" stroke="#191970" d="M841.8728,-157.8103C850.7087,-159.4168 859.7128,-161.0539 867.8647,-162.5361"/>
<polygon fill="#191970" stroke="#191970" points="842.4873,-154.3647 832.0225,-156.0193 841.2351,-161.2518 842.4873,-154.3647"/>
</g>
<!-- Node1563 -->
<g id="node10" class="node">
<title>Node1563</title>
<g id="a_node10"><a xlink:href="stash_8f90.xhtml#aeb6381a2ce8a30249b8dbaff0df2ebb5" target="_top" xlink:title="Subroutine STASH &#45;!&gt; ">
<polygon fill="#ffffff" stroke="#000000" points="320,-158.6061 320,-177.6061 363,-177.6061 363,-158.6061 320,-158.6061"/>
<text text-anchor="middle" x="341.5" y="-165.6061" font-family="Helvetica,sans-Serif" font-size="10.00" fill="#000000">stash</text>
</a>
</g>
</g>
<!-- Node1562&#45;&gt;Node1563 -->
<g id="edge10" class="edge">
<title>Node1562&#45;&gt;Node1563</title>
<path fill="none" stroke="#191970" d="M281.5714,-209.5113C296.333,-199.3124 315.1401,-186.3184 327.7117,-177.6326"/>
<polygon fill="#191970" stroke="#191970" points="279.2328,-206.8729 272.995,-215.4369 283.2118,-212.6321 279.2328,-206.8729"/>
</g>
<!-- Node1564 -->
<g id="node11" class="node">
<title>Node1564</title>
<g id="a_node11"><a xlink:href="st__diag1_8f90.xhtml#a448077cde050b9a7c4cad654935688ac" target="_top" xlink:title="LL Subroutine ST_DIAG1 !&gt;LL. ">
<polygon fill="#ffffff" stroke="#000000" points="426.5,-139.6061 426.5,-158.6061 484.5,-158.6061 484.5,-139.6061 426.5,-139.6061"/>
<text text-anchor="middle" x="455.5" y="-146.6061" font-family="Helvetica,sans-Serif" font-size="10.00" fill="#000000">st_diag1</text>
</a>
</g>
</g>
<!-- Node1563&#45;&gt;Node1564 -->
<g id="edge11" class="edge">
<title>Node1563&#45;&gt;Node1564</title>
<path fill="none" stroke="#191970" d="M373.4805,-162.7761C389.9916,-160.0242 409.9971,-156.69 426.1167,-154.0034"/>
<polygon fill="#191970" stroke="#191970" points="372.4994,-159.3912 363.2109,-164.4877 373.6502,-166.296 372.4994,-159.3912"/>
</g>
<!-- Node1565 -->
<g id="node12" class="node">
<title>Node1565</title>
<g id="a_node12"><a xlink:href="atm__step_8f90.xhtml#ac0ee2467a1a9959b7065fdb8fd27bce4" target="_top" xlink:title="Perform a 1&#45;timestep integration of the Atmosphere Model. ">
<polygon fill="#ffffff" stroke="#000000" points="557,-158.6061 557,-177.6061 619,-177.6061 619,-158.6061 557,-158.6061"/>
<text text-anchor="middle" x="588" y="-165.6061" font-family="Helvetica,sans-Serif" font-size="10.00" fill="#000000">atm_step</text>
</a>
</g>
</g>
<!-- Node1563&#45;&gt;Node1565 -->
<g id="edge27" class="edge">
<title>Node1563&#45;&gt;Node1565</title>
<path fill="none" stroke="#191970" d="M349.6408,-187.0718C358.6976,-205.4723 375.2512,-232.294 399,-244.1061 443.9672,-266.4719 465.6007,-263.3254 512,-244.1061 544.9272,-230.4672 571.0267,-194.8743 582.1576,-177.679"/>
<polygon fill="#191970" stroke="#191970" points="352.757,-185.4715 345.3825,-177.8645 346.4036,-188.41 352.757,-185.4715"/>
</g>
<!-- Node1566 -->
<g id="node13" class="node">
<title>Node1566</title>
<g id="a_node13"><a xlink:href="atm__step__4_a_8f90.xhtml#a2319aa4963e90c64cd78bdcd5f481095" target="_top" xlink:title="Perform a 1&#45;timestep integration of the Atmosphere Model. ">
<polygon fill="#ffffff" stroke="#000000" points="548,-111.6061 548,-130.6061 628,-130.6061 628,-111.6061 548,-111.6061"/>
<text text-anchor="middle" x="588" y="-118.6061" font-family="Helvetica,sans-Serif" font-size="10.00" fill="#000000">atm_step_4a</text>
</a>
</g>
</g>
<!-- Node1563&#45;&gt;Node1566 -->
<g id="edge28" class="edge">
<title>Node1563&#45;&gt;Node1566</title>
<path fill="none" stroke="#191970" d="M349.6408,-149.1405C358.6976,-130.74 375.2512,-103.9183 399,-92.1061 456.3653,-63.5738 534.6573,-94.5458 569.7175,-111.5177"/>
<polygon fill="#191970" stroke="#191970" points="346.4036,-147.8023 345.3825,-158.3478 352.757,-150.7408 346.4036,-147.8023"/>
</g>
<!-- Node1567 -->
<g id="node14" class="node">
<title>Node1567</title>
<g id="a_node14"><a xlink:href="initdiag_8f90.xhtml#a95a853661b4e10339418e4a8c29b8c9c" target="_top" xlink:title="Calculate diagnostic quantities from the initial atmosphere dump Calculate diagnostic quantities from...">
<polygon fill="#ffffff" stroke="#000000" points="561.5,-35.6061 561.5,-54.6061 614.5,-54.6061 614.5,-35.6061 561.5,-35.6061"/>
<text text-anchor="middle" x="588" y="-42.6061" font-family="Helvetica,sans-Serif" font-size="10.00" fill="#000000">initdiag</text>
</a>
</g>
</g>
<!-- Node1563&#45;&gt;Node1567 -->
<g id="edge34" class="edge">
<title>Node1563&#45;&gt;Node1567</title>
<path fill="none" stroke="#191970" d="M346.031,-148.3791C355.0863,-110.8805 376.4908,-31.6571 399,-16.1061 453.0783,21.255 536.5651,-16.5249 571.6192,-35.5616"/>
<polygon fill="#191970" stroke="#191970" points="342.5188,-148.0239 343.6296,-158.5603 349.3318,-149.6309 342.5188,-148.0239"/>
</g>
<!-- Node1568 -->
<g id="node15" class="node">
<title>Node1568</title>
<g id="a_node15"><a xlink:href="st__diag2_8f90.xhtml#ad3935d3ef8da955602b10c37af06aa57" target="_top" xlink:title="LL. ">
<polygon fill="#ffffff" stroke="#000000" points="426.5,-101.6061 426.5,-120.6061 484.5,-120.6061 484.5,-101.6061 426.5,-101.6061"/>
<text text-anchor="middle" x="455.5" y="-108.6061" font-family="Helvetica,sans-Serif" font-size="10.00" fill="#000000">st_diag2</text>
</a>
</g>
</g>
<!-- Node1563&#45;&gt;Node1568 -->
<g id="edge17" class="edge">
<title>Node1563&#45;&gt;Node1568</title>
<path fill="none" stroke="#191970" d="M362.3505,-152.4259C372.9362,-144.9673 386.2314,-136.3402 399,-130.1061 407.6486,-125.8836 417.47,-122.2215 426.4706,-119.2699"/>
<polygon fill="#191970" stroke="#191970" points="360.2231,-149.6449 354.1667,-158.3381 364.3223,-155.3191 360.2231,-149.6449"/>
</g>
<!-- Node1569 -->
<g id="node16" class="node">
<title>Node1569</title>
<g id="a_node16"><a xlink:href="st__diag3_8f90.xhtml#a00e9b3afaa3d890cca6a5f8421814074" target="_top" xlink:title="End of Timestep climate diagnostics control routine End of Timestep climate diagnostics control routi...">
<polygon fill="#ffffff" stroke="#000000" points="426.5,-25.6061 426.5,-44.6061 484.5,-44.6061 484.5,-25.6061 426.5,-25.6061"/>
<text text-anchor="middle" x="455.5" y="-32.6061" font-family="Helvetica,sans-Serif" font-size="10.00" fill="#000000">st_diag3</text>
</a>
</g>
</g>
<!-- Node1563&#45;&gt;Node1569 -->
<g id="edge21" class="edge">
<title>Node1563&#45;&gt;Node1569</title>
<path fill="none" stroke="#191970" d="M347.181,-148.8846C355.157,-124.927 371.8224,-84.0981 399,-59.1061 406.6878,-52.0366 416.7694,-46.8626 426.2855,-43.1688"/>
<polygon fill="#191970" stroke="#191970" points="343.7908,-147.9978 344.1213,-158.5875 350.4668,-150.103 343.7908,-147.9978"/>
</g>
<!-- Node1570 -->
<g id="node17" class="node">
<title>Node1570</title>
<g id="a_node17"><a xlink:href="st__mean_8f90.xhtml#a56c57d59e0430c6d123a6e4a366df8e6" target="_top" xlink:title="LL Routine: ST_MEAN &#45;!&gt;LL. ">
<polygon fill="#ffffff" stroke="#000000" points="426,-291.6061 426,-310.6061 485,-310.6061 485,-291.6061 426,-291.6061"/>
<text text-anchor="middle" x="455.5" y="-298.6061" font-family="Helvetica,sans-Serif" font-size="10.00" fill="#000000">st_mean</text>
</a>
</g>
</g>
<!-- Node1563&#45;&gt;Node1570 -->
<g id="edge25" class="edge">
<title>Node1563&#45;&gt;Node1570</title>
<path fill="none" stroke="#191970" d="M347.181,-187.3277C355.157,-211.2853 371.8224,-252.1141 399,-277.1061 406.6093,-284.1035 416.5639,-289.2439 425.994,-292.9299"/>
<polygon fill="#191970" stroke="#191970" points="350.4668,-186.1092 344.1213,-177.6248 343.7908,-188.2145 350.4668,-186.1092"/>
</g>
<!-- Node1571 -->
<g id="node18" class="node">
<title>Node1571</title>
<g id="a_node18"><a xlink:href="atm__step__ac__assim_8f90.xhtml#a1a53479d77027fb4fee329c374bc6062" target="_top" xlink:title="Contains atm_step code for AC assimilation. ">
<polygon fill="#ffffff" stroke="#000000" points="399,-215.6061 399,-234.6061 512,-234.6061 512,-215.6061 399,-215.6061"/>
<text text-anchor="middle" x="455.5" y="-222.6061" font-family="Helvetica,sans-Serif" font-size="10.00" fill="#000000">atm_step_ac_assim</text>
</a>
</g>
</g>
<!-- Node1563&#45;&gt;Node1571 -->
<g id="edge29" class="edge">
<title>Node1563&#45;&gt;Node1571</title>
<path fill="none" stroke="#191970" d="M362.3505,-183.7864C372.9362,-191.245 386.2314,-199.8721 399,-206.1061 406.3467,-209.693 414.5396,-212.8755 422.3568,-215.5616"/>
<polygon fill="#191970" stroke="#191970" points="364.3223,-180.8931 354.1667,-177.8742 360.2231,-186.5673 364.3223,-180.8931"/>
</g>
<!-- Node1572 -->
<g id="node19" class="node">
<title>Node1572</title>
<g id="a_node19"><a xlink:href="atm__step__stash_8f90.xhtml#a8e27538bbd9060910e7d0ddcf329f7e0" target="_top" xlink:title="Contains various chunks of code from atm_step &#45; the purpose of each. ">
<polygon fill="#ffffff" stroke="#000000" points="408.5,-177.6061 408.5,-196.6061 502.5,-196.6061 502.5,-177.6061 408.5,-177.6061"/>
<text text-anchor="middle" x="455.5" y="-184.6061" font-family="Helvetica,sans-Serif" font-size="10.00" fill="#000000">atm_step_stash</text>
</a>
</g>
</g>
<!-- Node1563&#45;&gt;Node1572 -->
<g id="edge31" class="edge">
<title>Node1563&#45;&gt;Node1572</title>
<path fill="none" stroke="#191970" d="M373.1221,-173.3765C384.0308,-175.1946 396.4977,-177.2724 408.3746,-179.2519"/>
<polygon fill="#191970" stroke="#191970" points="373.6502,-169.9163 363.2109,-171.7246 372.4994,-176.8211 373.6502,-169.9163"/>
</g>
<!-- Node1564&#45;&gt;Node1565 -->
<g id="edge12" class="edge">
<title>Node1564&#45;&gt;Node1565</title>
<path fill="none" stroke="#191970" d="M494.5306,-154.703C514.3404,-157.5436 538.0806,-160.9479 556.678,-163.6147"/>
<polygon fill="#191970" stroke="#191970" points="494.9733,-151.2307 484.5777,-153.2758 493.9796,-158.1599 494.9733,-151.2307"/>
</g>
<!-- Node1564&#45;&gt;Node1566 -->
<g id="edge14" class="edge">
<title>Node1564&#45;&gt;Node1566</title>
<path fill="none" stroke="#191970" d="M494.6241,-140.8384C511.4223,-137.2886 531.0328,-133.1445 547.9339,-129.5729"/>
<polygon fill="#191970" stroke="#191970" points="493.6379,-137.4694 484.5777,-142.9614 495.0853,-144.3182 493.6379,-137.4694"/>
</g>
<!-- Node1564&#45;&gt;Node1567 -->
<g id="edge16" class="edge">
<title>Node1564&#45;&gt;Node1567</title>
<path fill="none" stroke="#191970" d="M494.3319,-139.0339C500.4994,-136.6054 506.6133,-133.6571 512,-130.1061 543.5675,-109.2965 570.3362,-72.223 581.8946,-54.7382"/>
<polygon fill="#191970" stroke="#191970" points="492.959,-135.8068 484.693,-142.4342 495.2878,-142.408 492.959,-135.8068"/>
</g>
<!-- Node1565&#45;&gt;Node1558 -->
<g id="edge13" class="edge">
<title>Node1565&#45;&gt;Node1558</title>
<path fill="none" stroke="#191970" d="M629.2563,-171.9113C669.2566,-175.6007 728.9479,-181.1062 764.427,-184.3785"/>
<polygon fill="#191970" stroke="#191970" points="629.5662,-168.4251 619.287,-170.9918 628.9232,-175.3956 629.5662,-168.4251"/>
</g>
<!-- Node1566&#45;&gt;Node1561 -->
<g id="edge15" class="edge">
<title>Node1566&#45;&gt;Node1561</title>
<path fill="none" stroke="#191970" d="M638.5781,-127.9808C674.851,-132.9111 722.9503,-139.4489 755.9801,-143.9384"/>
<polygon fill="#191970" stroke="#191970" points="638.5882,-124.4501 628.2079,-126.5713 637.6454,-131.3863 638.5882,-124.4501"/>
</g>
<!-- Node1568&#45;&gt;Node1565 -->
<g id="edge18" class="edge">
<title>Node1568&#45;&gt;Node1565</title>
<path fill="none" stroke="#191970" d="M494.3831,-123.3861C500.3346,-125.4941 506.3681,-127.7646 512,-130.1061 532.5683,-138.6578 555.3141,-150.342 570.5125,-158.488"/>
<polygon fill="#191970" stroke="#191970" points="495.1245,-119.9403 484.5298,-120.008 492.8543,-126.562 495.1245,-119.9403"/>
</g>
<!-- Node1568&#45;&gt;Node1566 -->
<g id="edge19" class="edge">
<title>Node1568&#45;&gt;Node1566</title>
<path fill="none" stroke="#191970" d="M494.6241,-114.0589C511.4223,-115.3267 531.0328,-116.8067 547.9339,-118.0823"/>
<polygon fill="#191970" stroke="#191970" points="494.8128,-110.5633 484.5777,-113.3007 494.2859,-117.5434 494.8128,-110.5633"/>
</g>
<!-- Node1568&#45;&gt;Node1567 -->
<g id="edge20" class="edge">
<title>Node1568&#45;&gt;Node1567</title>
<path fill="none" stroke="#191970" d="M483.9648,-96.9275C509.5481,-84.1841 546.4246,-65.8154 568.7101,-54.7147"/>
<polygon fill="#191970" stroke="#191970" points="482.1571,-93.9176 474.7666,-101.5092 485.2782,-100.1834 482.1571,-93.9176"/>
</g>
<!-- Node1569&#45;&gt;Node1565 -->
<g id="edge22" class="edge">
<title>Node1569&#45;&gt;Node1565</title>
<path fill="none" stroke="#191970" d="M473.2277,-51.7592C484.6947,-62.824 499.7182,-77.8819 512,-92.1061 529.4276,-112.29 528.8374,-121.5615 548,-140.1061 555.1879,-147.0622 564.2479,-153.5546 571.9271,-158.5329"/>
<polygon fill="#191970" stroke="#191970" points="475.5845,-49.1702 465.9346,-44.7963 470.7506,-54.2333 475.5845,-49.1702"/>
</g>
<!-- Node1569&#45;&gt;Node1566 -->
<g id="edge23" class="edge">
<title>Node1569&#45;&gt;Node1566</title>
<path fill="none" stroke="#191970" d="M491.4845,-48.583C498.4689,-51.6978 505.6015,-55.2446 512,-59.1061 537.6588,-74.5912 563.9586,-98.089 577.8903,-111.2629"/>
<polygon fill="#191970" stroke="#191970" points="492.7078,-45.3 482.1351,-44.6144 489.9726,-51.7436 492.7078,-45.3"/>
</g>
<!-- Node1569&#45;&gt;Node1567 -->
<g id="edge24" class="edge">
<title>Node1569&#45;&gt;Node1567</title>
<path fill="none" stroke="#191970" d="M494.6865,-38.0636C516.1282,-39.6819 542.1372,-41.6448 561.244,-43.0868"/>
<polygon fill="#191970" stroke="#191970" points="494.8128,-34.5633 484.5777,-37.3007 494.2859,-41.5434 494.8128,-34.5633"/>
</g>
<!-- Node1570&#45;&gt;Node1556 -->
<g id="edge26" class="edge">
<title>Node1570&#45;&gt;Node1556</title>
<path fill="none" stroke="#191970" d="M495.4225,-301.1061C514.4935,-301.1061 537.0408,-301.1061 555.1089,-301.1061"/>
<polygon fill="#191970" stroke="#191970" points="495.2356,-297.6062 485.2356,-301.1061 495.2356,-304.6062 495.2356,-297.6062"/>
</g>
<!-- Node1571&#45;&gt;Node1565 -->
<g id="edge30" class="edge">
<title>Node1571&#45;&gt;Node1565</title>
<path fill="none" stroke="#191970" d="M496.1459,-212.1978C501.5208,-210.2697 506.9235,-208.2168 512,-206.1061 532.5683,-197.5545 555.3141,-185.8703 570.5125,-177.7243"/>
<polygon fill="#191970" stroke="#191970" points="494.8767,-208.9335 486.5776,-215.5194 497.1724,-215.5463 494.8767,-208.9335"/>
</g>
<!-- Node1572&#45;&gt;Node1565 -->
<g id="edge32" class="edge">
<title>Node1572&#45;&gt;Node1565</title>
<path fill="none" stroke="#191970" d="M512.8915,-178.8764C527.9757,-176.7134 543.6838,-174.4609 556.8117,-172.5784"/>
<polygon fill="#191970" stroke="#191970" points="511.9895,-175.4699 502.5876,-180.354 512.9832,-182.399 511.9895,-175.4699"/>
</g>
<!-- Node1572&#45;&gt;Node1566 -->
<g id="edge33" class="edge">
<title>Node1572&#45;&gt;Node1566</title>
<path fill="none" stroke="#191970" d="M497.4714,-174.1978C502.4355,-172.3185 507.3765,-170.2779 512,-168.1061 535.0285,-157.2893 559.7422,-141.0427 574.531,-130.7625"/>
<polygon fill="#191970" stroke="#191970" points="496.2045,-170.9338 487.9738,-177.605 498.5683,-177.5226 496.2045,-170.9338"/>
</g>
</g>
</svg>
        <g id="navigator" transform="translate(0 0)" fill="#404254">
                <rect fill="#f2f5e9" fill-opacity="0.5" stroke="#606060" stroke-width=".5" x="0" y="0" width="60" height="60"/>
                <use id="zoomplus" xlink:href="#zoomPlus" x="17" y="9" onmousedown="handleZoom(evt,'in')"/>
                <use id="zoomminus" xlink:href="#zoomMin" x="42" y="9" onmousedown="handleZoom(evt,'out')"/>
                <use id="reset" xlink:href="#resetDef" x="30" y="36" onmousedown="handleReset()"/>
                <g id="arrowUp" xlink:href="#dirArrow" transform="translate(30 24)" onmousedown="handlePan(0,-1)">
                  <use xlink:href="#rim" fill="#404040">
                        <set attributeName="fill" to="#808080" begin="arrowUp.mouseover" end="arrowUp.mouseout"/>
                  </use>
                  <path fill="none" stroke="white" stroke-width="1.5" d="M0,-3.0v7 M-2.5,-0.5L0,-3.0L2.5,-0.5"/>
                </g>
                <g id="arrowRight" xlink:href="#dirArrow" transform="rotate(90) translate(36 -43)" onmousedown="handlePan(1,0)">
                  <use xlink:href="#rim" fill="#404040">
                        <set attributeName="fill" to="#808080" begin="arrowRight.mouseover" end="arrowRight.mouseout"/>
                  </use>
                  <path fill="none" stroke="white" stroke-width="1.5" d="M0,-3.0v7 M-2.5,-0.5L0,-3.0L2.5,-0.5"/>
                </g>
                <g id="arrowDown" xlink:href="#dirArrow" transform="rotate(180) translate(-30 -48)" onmousedown="handlePan(0,1)">
                  <use xlink:href="#rim" fill="#404040">
                        <set attributeName="fill" to="#808080" begin="arrowDown.mouseover" end="arrowDown.mouseout"/>
                  </use>
                  <path fill="none" stroke="white" stroke-width="1.5" d="M0,-3.0v7 M-2.5,-0.5L0,-3.0L2.5,-0.5"/>
                </g>
                <g id="arrowLeft" xlink:href="#dirArrow" transform="rotate(270) translate(-36 17)" onmousedown="handlePan(-1,0)">
                  <use xlink:href="#rim" fill="#404040">
                        <set attributeName="fill" to="#808080" begin="arrowLeft.mouseover" end="arrowLeft.mouseout"/>
                  </use>
                  <path fill="none" stroke="white" stroke-width="1.5" d="M0,-3.0v7 M-2.5,-0.5L0,-3.0L2.5,-0.5"/>
                </g>
        </g>
        <svg viewBox="0 0 15 15" width="100%" height="30px" preserveAspectRatio="xMaxYMin meet">
         <g id="arrow_out" transform="scale(0.3 0.3)">
          <a xlink:href="namespaceios_a14bd72f59d2241814c97927a3dd25372_icgraph_org.svg" target="_base">
           <rect id="button" ry="5" rx="5" y="6" x="6" height="38" width="38"
                fill="#f2f5e9" fill-opacity="0.5" stroke="#606060" stroke-width="1.0"/>
           <path id="arrow"
             d="M 11.500037,31.436501 C 11.940474,20.09759 22.043105,11.32322 32.158766,21.979434 L 37.068811,17.246167 C 37.068811,17.246167 37.088388,32 37.088388,32 L 22.160133,31.978069 C 22.160133,31.978069 26.997745,27.140456 26.997745,27.140456 C 18.528582,18.264221 13.291696,25.230495 11.500037,31.436501 z"
             style="fill:#404040;"/>
          </a>
         </g>
        </svg>
</svg>
