<?xml version="1.0" encoding="UTF-8" standalone="no"?>
<!DOCTYPE svg PUBLIC "-//W3C//DTD SVG 1.1//EN"
 "http://www.w3.org/Graphics/SVG/1.1/DTD/svg11.dtd">
<!-- Generated by graphviz version 2.40.1 (20161225.0304)
 -->
<!-- Title: mod_cosp::cosp_iter Pages: 1 -->
<svg width="598pt" height="112pt"
 viewBox="0.00 0.00 598.00 112.00" xmlns="http://www.w3.org/2000/svg" xmlns:xlink="http://www.w3.org/1999/xlink">
<g id="graph0" class="graph" transform="scale(1 1) rotate(0) translate(4 108)">
<title>mod_cosp::cosp_iter</title>
<polygon fill="#ffffff" stroke="transparent" points="-4,4 -4,-108 594,-108 594,4 -4,4"/>
<!-- Node10 -->
<g id="node1" class="node">
<title>Node10</title>
<polygon fill="#bfbfbf" stroke="#000000" points="0,-54 0,-73 116,-73 116,-54 0,-54"/>
<text text-anchor="middle" x="58" y="-61" font-family="Helvetica,sans-Serif" font-size="10.00" fill="#000000">mod_cosp::cosp_iter</text>
</g>
<!-- Node11 -->
<g id="node2" class="node">
<title>Node11</title>
<g id="a_node2"><a xlink:href="namespacemod__cosp__simulator.xhtml#a15fa81bbced90659f8b317aa564db4dc" target="_top" xlink:title="%%%%%%%%%%%%%%%%%%%%%%%%%%%%%%%%%%%%%%%%%%%%%%%%%%%%%%%%%%%%%%%%% ">
<polygon fill="#ffffff" stroke="#000000" points="152,-48.5 152,-78.5 270,-78.5 270,-48.5 152,-48.5"/>
<text text-anchor="start" x="160" y="-66.5" font-family="Helvetica,sans-Serif" font-size="10.00" fill="#000000">mod_cosp_simulator</text>
<text text-anchor="middle" x="211" y="-55.5" font-family="Helvetica,sans-Serif" font-size="10.00" fill="#000000">::cosp_simulator</text>
</a>
</g>
</g>
<!-- Node10&#45;&gt;Node11 -->
<g id="edge1" class="edge">
<title>Node10&#45;&gt;Node11</title>
<path fill="none" stroke="#191970" d="M116.2792,-63.5C124.5644,-63.5 133.1524,-63.5 141.6228,-63.5"/>
<polygon fill="#191970" stroke="#191970" points="141.8685,-67.0001 151.8684,-63.5 141.8684,-60.0001 141.8685,-67.0001"/>
</g>
<!-- Node12 -->
<g id="node3" class="node">
<title>Node12</title>
<g id="a_node3"><a xlink:href="namespacemod__cosp__lidar.xhtml#a55a68ee4b562bb084b605def96eebee0" target="_top" xlink:title="%%%%%%%%%%%%%%%%%%%%%%%%%%%%%%%%%%%%%%%%%%%%%%%%%%%%%%%%%%%%%%%%% ">
<polygon fill="#ffffff" stroke="#000000" points="307,-73.5 307,-103.5 429,-103.5 429,-73.5 307,-73.5"/>
<text text-anchor="start" x="315" y="-91.5" font-family="Helvetica,sans-Serif" font-size="10.00" fill="#000000">mod_cosp_lidar::cosp</text>
<text text-anchor="middle" x="368" y="-80.5" font-family="Helvetica,sans-Serif" font-size="10.00" fill="#000000">_lidar</text>
</a>
</g>
</g>
<!-- Node11&#45;&gt;Node12 -->
<g id="edge2" class="edge">
<title>Node11&#45;&gt;Node12</title>
<path fill="none" stroke="#191970" d="M270.355,-72.9514C279.0616,-74.3378 288.1028,-75.7775 297.0137,-77.1964"/>
<polygon fill="#191970" stroke="#191970" points="296.5682,-80.6695 306.9942,-78.7857 297.669,-73.7566 296.5682,-80.6695"/>
</g>
<!-- Node13 -->
<g id="node4" class="node">
<title>Node13</title>
<g id="a_node4"><a xlink:href="namespacemod__cosp__stats.xhtml#aac77e7b04a244f6b74d2fd9e646ef519" target="_top" xlink:title="%%%%%%%%%%%%%%%%%%%%%%%%%%%%%%%%%%%%%%%%%%%%%%%%%%%%%%%%%%%%%%%%% ">
<polygon fill="#ffffff" stroke="#000000" points="306,-24.5 306,-54.5 430,-54.5 430,-24.5 306,-24.5"/>
<text text-anchor="start" x="314" y="-42.5" font-family="Helvetica,sans-Serif" font-size="10.00" fill="#000000">mod_cosp_stats::cosp</text>
<text text-anchor="middle" x="368" y="-31.5" font-family="Helvetica,sans-Serif" font-size="10.00" fill="#000000">_stats</text>
</a>
</g>
</g>
<!-- Node11&#45;&gt;Node13 -->
<g id="edge3" class="edge">
<title>Node11&#45;&gt;Node13</title>
<path fill="none" stroke="#191970" d="M270.355,-54.4266C278.7183,-53.1482 287.3904,-51.8225 295.9591,-50.5126"/>
<polygon fill="#191970" stroke="#191970" points="296.5897,-53.957 305.9459,-48.986 295.5318,-47.0374 296.5897,-53.957"/>
</g>
<!-- Node14 -->
<g id="node5" class="node">
<title>Node14</title>
<g id="a_node5"><a xlink:href="namespacemod__cosp__stats.xhtml#a8d081c60ecc1fee981e78b8528b9a8f7" target="_top" xlink:title="mod_cosp_stats::cosp\l_change_vertical_grid">
<polygon fill="#ffffff" stroke="#000000" points="466,-49.5 466,-79.5 590,-79.5 590,-49.5 466,-49.5"/>
<text text-anchor="start" x="474" y="-67.5" font-family="Helvetica,sans-Serif" font-size="10.00" fill="#000000">mod_cosp_stats::cosp</text>
<text text-anchor="middle" x="528" y="-56.5" font-family="Helvetica,sans-Serif" font-size="10.00" fill="#000000">_change_vertical_grid</text>
</a>
</g>
</g>
<!-- Node13&#45;&gt;Node14 -->
<g id="edge4" class="edge">
<title>Node13&#45;&gt;Node14</title>
<path fill="none" stroke="#191970" d="M430.3183,-49.2372C438.7062,-50.5478 447.367,-51.9011 455.9065,-53.2354"/>
<polygon fill="#191970" stroke="#191970" points="455.4313,-56.7035 465.8518,-54.7893 456.512,-49.7874 455.4313,-56.7035"/>
</g>
<!-- Node15 -->
<g id="node6" class="node">
<title>Node15</title>
<g id="a_node6"><a xlink:href="namespacemod__cosp__stats.xhtml#abd6599a29f39aa27f8159dac685f8abc" target="_top" xlink:title="mod_cosp_stats::cosp\l_gridbox_mean">
<polygon fill="#ffffff" stroke="#000000" points="466,-.5 466,-30.5 590,-30.5 590,-.5 466,-.5"/>
<text text-anchor="start" x="474" y="-18.5" font-family="Helvetica,sans-Serif" font-size="10.00" fill="#000000">mod_cosp_stats::cosp</text>
<text text-anchor="middle" x="528" y="-7.5" font-family="Helvetica,sans-Serif" font-size="10.00" fill="#000000">_gridbox_mean</text>
</a>
</g>
</g>
<!-- Node13&#45;&gt;Node15 -->
<g id="edge5" class="edge">
<title>Node13&#45;&gt;Node15</title>
<path fill="none" stroke="#191970" d="M430.3183,-30.1523C438.7062,-28.8941 447.367,-27.5949 455.9065,-26.314"/>
<polygon fill="#191970" stroke="#191970" points="456.4816,-29.767 465.8518,-24.8222 455.4432,-22.8444 456.4816,-29.767"/>
</g>
</g>
</svg>
