<?xml version="1.0" encoding="UTF-8" standalone="no"?>
<!DOCTYPE svg PUBLIC "-//W3C//DTD SVG 1.1//EN"
 "http://www.w3.org/Graphics/SVG/1.1/DTD/svg11.dtd">
<!-- Generated by graphviz version 2.40.1 (20161225.0304)
 -->
<!-- Title: nlsizes_namelist_mod::print_nlist_atm_sizes Pages: 1 -->
<svg width="733pt" height="61pt"
 viewBox="0.00 0.00 733.00 61.00" xmlns="http://www.w3.org/2000/svg" xmlns:xlink="http://www.w3.org/1999/xlink">
<g id="graph0" class="graph" transform="scale(1 1) rotate(0) translate(4 57)">
<title>nlsizes_namelist_mod::print_nlist_atm_sizes</title>
<polygon fill="#ffffff" stroke="transparent" points="-4,4 -4,-57 729,-57 729,4 -4,4"/>
<!-- Node5 -->
<g id="node1" class="node">
<title>Node5</title>
<polygon fill="#bfbfbf" stroke="#000000" points="0,-.5 0,-30.5 126,-30.5 126,-.5 0,-.5"/>
<text text-anchor="start" x="8" y="-18.5" font-family="Helvetica,sans-Serif" font-size="10.00" fill="#000000">nlsizes_namelist_mod</text>
<text text-anchor="middle" x="63" y="-7.5" font-family="Helvetica,sans-Serif" font-size="10.00" fill="#000000">::print_nlist_atm_sizes</text>
</g>
<!-- Node6 -->
<g id="node2" class="node">
<title>Node6</title>
<g id="a_node2"><a xlink:href="namespacercf__readnl__nlsizes__mod.xhtml#a99afd5c7ec8b801b8d31c93ca8a0616b" target="_top" xlink:title="rcf_readnl_nlsizes reads in the NLSIZES namelist, containing information about the various grid level...">
<polygon fill="#ffffff" stroke="#000000" points="162,-.5 162,-30.5 299,-30.5 299,-.5 162,-.5"/>
<text text-anchor="start" x="170" y="-18.5" font-family="Helvetica,sans-Serif" font-size="10.00" fill="#000000">rcf_readnl_nlsizes</text>
<text text-anchor="middle" x="230.5" y="-7.5" font-family="Helvetica,sans-Serif" font-size="10.00" fill="#000000">_mod::rcf_readnl_nlsizes</text>
</a>
</g>
</g>
<!-- Node5&#45;&gt;Node6 -->
<g id="edge1" class="edge">
<title>Node5&#45;&gt;Node6</title>
<path fill="none" stroke="#191970" d="M136.4828,-15.5C144.8866,-15.5 153.4305,-15.5 161.769,-15.5"/>
<polygon fill="#191970" stroke="#191970" points="136.3246,-12.0001 126.3246,-15.5 136.3245,-19.0001 136.3246,-12.0001"/>
</g>
<!-- Node7 -->
<g id="node3" class="node">
<title>Node7</title>
<g id="a_node3"><a xlink:href="namespacercf__read__namelists__mod.xhtml#a03f55943f24c46a584c68e062c7c51b8" target="_top" xlink:title="Subroutine Rcf_Read_Namelists &#45; read the rcf namelists. ">
<polygon fill="#ffffff" stroke="#000000" points="335,-.5 335,-30.5 478,-30.5 478,-.5 335,-.5"/>
<text text-anchor="start" x="343" y="-18.5" font-family="Helvetica,sans-Serif" font-size="10.00" fill="#000000">rcf_read_namelists</text>
<text text-anchor="middle" x="406.5" y="-7.5" font-family="Helvetica,sans-Serif" font-size="10.00" fill="#000000">_mod::rcf_read_namelists</text>
</a>
</g>
</g>
<!-- Node6&#45;&gt;Node7 -->
<g id="edge2" class="edge">
<title>Node6&#45;&gt;Node7</title>
<path fill="none" stroke="#191970" d="M309.0816,-15.5C317.6916,-15.5 326.4233,-15.5 334.9418,-15.5"/>
<polygon fill="#191970" stroke="#191970" points="309.0502,-12.0001 299.0502,-15.5 309.0501,-19.0001 309.0502,-12.0001"/>
</g>
<!-- Node8 -->
<g id="node4" class="node">
<title>Node8</title>
<g id="a_node4"><a xlink:href="namespacercf__initialise__mod.xhtml#ab7086bd455bd5857b757207d0255c3f4" target="_top" xlink:title="Subroutine Rcf_Initialise &#45; initialisation tasks. ">
<polygon fill="#ffffff" stroke="#000000" points="514,-22.5 514,-52.5 618,-52.5 618,-22.5 514,-22.5"/>
<text text-anchor="start" x="522" y="-40.5" font-family="Helvetica,sans-Serif" font-size="10.00" fill="#000000">rcf_initialise_mod</text>
<text text-anchor="middle" x="566" y="-29.5" font-family="Helvetica,sans-Serif" font-size="10.00" fill="#000000">::rcf_initialise</text>
</a>
</g>
</g>
<!-- Node7&#45;&gt;Node8 -->
<g id="edge3" class="edge">
<title>Node7&#45;&gt;Node8</title>
<path fill="none" stroke="#191970" d="M488.3968,-26.7961C496.99,-27.9814 505.5499,-29.1621 513.6771,-30.283"/>
<polygon fill="#191970" stroke="#191970" points="488.7023,-23.3052 478.3178,-25.4059 487.7458,-30.2395 488.7023,-23.3052"/>
</g>
<!-- Node9 -->
<g id="node5" class="node">
<title>Node9</title>
<g id="a_node5"><a xlink:href="reconfigure_8f90.xhtml#a55389899cfceedbb4b0f908c73988c0c" target="_top" xlink:title="Top level program for reconfiguration. ">
<polygon fill="#ffffff" stroke="#000000" points="654,-6 654,-25 725,-25 725,-6 654,-6"/>
<text text-anchor="middle" x="689.5" y="-13" font-family="Helvetica,sans-Serif" font-size="10.00" fill="#000000">reconfigure</text>
</a>
</g>
</g>
<!-- Node7&#45;&gt;Node9 -->
<g id="edge5" class="edge">
<title>Node7&#45;&gt;Node9</title>
<path fill="none" stroke="#191970" d="M488.3397,-13.819C497.0027,-13.6884 505.6821,-13.5774 514,-13.5 560.2202,-13.0701 571.7823,-12.8537 618,-13.5 629.6718,-13.6632 642.4123,-13.9762 653.8629,-14.307"/>
<polygon fill="#191970" stroke="#191970" points="488.1431,-10.3216 478.2001,-13.9806 488.2546,-17.3207 488.1431,-10.3216"/>
</g>
<!-- Node8&#45;&gt;Node9 -->
<g id="edge4" class="edge">
<title>Node8&#45;&gt;Node9</title>
<path fill="none" stroke="#191970" d="M627.9335,-26.4673C636.7486,-24.897 645.5587,-23.3276 653.6452,-21.8871"/>
<polygon fill="#191970" stroke="#191970" points="627.2483,-23.0342 618.0172,-28.2338 628.476,-29.9257 627.2483,-23.0342"/>
</g>
</g>
</svg>
