<?xml version="1.0" encoding="UTF-8" standalone="no"?>
<!DOCTYPE svg PUBLIC "-//W3C//DTD SVG 1.1//EN"
 "http://www.w3.org/Graphics/SVG/1.1/DTD/svg11.dtd">
<!-- Generated by graphviz version 2.40.1 (20161225.0304)
 -->
<!-- Title: calc_ntiles_mod::calc_ntiles Pages: 1 -->
<svg width="728pt" height="116pt"
 viewBox="0.00 0.00 728.00 115.50" xmlns="http://www.w3.org/2000/svg" xmlns:xlink="http://www.w3.org/1999/xlink">
<g id="graph0" class="graph" transform="scale(1 1) rotate(0) translate(4 111.5)">
<title>calc_ntiles_mod::calc_ntiles</title>
<polygon fill="#ffffff" stroke="transparent" points="-4,4 -4,-111.5 724,-111.5 724,4 -4,4"/>
<!-- Node1 -->
<g id="node1" class="node">
<title>Node1</title>
<polygon fill="#bfbfbf" stroke="#000000" points="0,-44.5 0,-74.5 121,-74.5 121,-44.5 0,-44.5"/>
<text text-anchor="start" x="8" y="-62.5" font-family="Helvetica,sans-Serif" font-size="10.00" fill="#000000">calc_ntiles_mod::calc</text>
<text text-anchor="middle" x="60.5" y="-51.5" font-family="Helvetica,sans-Serif" font-size="10.00" fill="#000000">_ntiles</text>
</g>
<!-- Node2 -->
<g id="node2" class="node">
<title>Node2</title>
<g id="a_node2"><a xlink:href="readsize_8f90.xhtml#a1f10b1778cfceb7e841fdf8d950a07ae" target="_top" xlink:title="LL Subroutine READSIZE &#45;!&gt;LL. ">
<polygon fill="#ffffff" stroke="#000000" points="196.5,-88 196.5,-107 254.5,-107 254.5,-88 196.5,-88"/>
<text text-anchor="middle" x="225.5" y="-95" font-family="Helvetica,sans-Serif" font-size="10.00" fill="#000000">readsize</text>
</a>
</g>
</g>
<!-- Node1&#45;&gt;Node2 -->
<g id="edge1" class="edge">
<title>Node1&#45;&gt;Node2</title>
<path fill="none" stroke="#191970" d="M130.7833,-75.6865C153.8404,-80.9966 178.1995,-86.6066 196.4403,-90.8075"/>
<polygon fill="#191970" stroke="#191970" points="131.5334,-72.2677 121.003,-73.434 129.9624,-79.0891 131.5334,-72.2677"/>
</g>
<!-- Node5 -->
<g id="node5" class="node">
<title>Node5</title>
<g id="a_node5"><a xlink:href="scm__shell_8f90.xhtml#ab15255829ee7b5be626b1c0861b40c8d" target="_top" xlink:title="scm_shell is the main calling program for the Single Column Model. ">
<polygon fill="#ffffff" stroke="#000000" points="193,-50 193,-69 258,-69 258,-50 193,-50"/>
<text text-anchor="middle" x="225.5" y="-57" font-family="Helvetica,sans-Serif" font-size="10.00" fill="#000000">scm_shell</text>
</a>
</g>
</g>
<!-- Node1&#45;&gt;Node5 -->
<g id="edge4" class="edge">
<title>Node1&#45;&gt;Node5</title>
<path fill="none" stroke="#191970" d="M131.0922,-59.5C152.5513,-59.5 175.1083,-59.5 192.7904,-59.5"/>
<polygon fill="#191970" stroke="#191970" points="131.003,-56.0001 121.003,-59.5 131.003,-63.0001 131.003,-56.0001"/>
</g>
<!-- Node6 -->
<g id="node6" class="node">
<title>Node6</title>
<g id="a_node6"><a xlink:href="namespacercf__readnl__nlsizes__mod.xhtml#a99afd5c7ec8b801b8d31c93ca8a0616b" target="_top" xlink:title="rcf_readnl_nlsizes reads in the NLSIZES namelist, containing information about the various grid level...">
<polygon fill="#ffffff" stroke="#000000" points="157,-.5 157,-30.5 294,-30.5 294,-.5 157,-.5"/>
<text text-anchor="start" x="165" y="-18.5" font-family="Helvetica,sans-Serif" font-size="10.00" fill="#000000">rcf_readnl_nlsizes</text>
<text text-anchor="middle" x="225.5" y="-7.5" font-family="Helvetica,sans-Serif" font-size="10.00" fill="#000000">_mod::rcf_readnl_nlsizes</text>
</a>
</g>
</g>
<!-- Node1&#45;&gt;Node6 -->
<g id="edge5" class="edge">
<title>Node1&#45;&gt;Node6</title>
<path fill="none" stroke="#191970" d="M126.8859,-41.7971C140.8968,-38.0608 155.5529,-34.1525 169.1517,-30.5262"/>
<polygon fill="#191970" stroke="#191970" points="125.5827,-38.5222 116.8222,-44.4808 127.3863,-45.2859 125.5827,-38.5222"/>
</g>
<!-- Node3 -->
<g id="node3" class="node">
<title>Node3</title>
<g id="a_node3"><a xlink:href="um__shell_8f90.xhtml#a8c9bd25362824a5c301376ecb5ed5c27" target="_top" xlink:title="Subroutine: UM_SHELL !&gt; ">
<polygon fill="#ffffff" stroke="#000000" points="371,-88 371,-107 432,-107 432,-88 371,-88"/>
<text text-anchor="middle" x="401.5" y="-95" font-family="Helvetica,sans-Serif" font-size="10.00" fill="#000000">um_shell</text>
</a>
</g>
</g>
<!-- Node2&#45;&gt;Node3 -->
<g id="edge2" class="edge">
<title>Node2&#45;&gt;Node3</title>
<path fill="none" stroke="#191970" d="M264.9099,-97.5C296.9541,-97.5 341.5193,-97.5 370.9154,-97.5"/>
<polygon fill="#191970" stroke="#191970" points="264.5629,-94.0001 254.5628,-97.5 264.5628,-101.0001 264.5629,-94.0001"/>
</g>
<!-- Node4 -->
<g id="node4" class="node">
<title>Node4</title>
<g id="a_node4"><a xlink:href="um__main_8f90.xhtml#a8f2d13215621443a5313261c282f098b" target="_top" xlink:title="Code Owner: See Unified Model Code Owner&#39;s HTML page. ">
<polygon fill="#ffffff" stroke="#000000" points="530,-88 530,-107 592,-107 592,-88 530,-88"/>
<text text-anchor="middle" x="561" y="-95" font-family="Helvetica,sans-Serif" font-size="10.00" fill="#000000">um_main</text>
</a>
</g>
</g>
<!-- Node3&#45;&gt;Node4 -->
<g id="edge3" class="edge">
<title>Node3&#45;&gt;Node4</title>
<path fill="none" stroke="#191970" d="M442.2607,-97.5C469.5003,-97.5 504.7889,-97.5 529.797,-97.5"/>
<polygon fill="#191970" stroke="#191970" points="442.2532,-94.0001 432.2532,-97.5 442.2532,-101.0001 442.2532,-94.0001"/>
</g>
<!-- Node7 -->
<g id="node7" class="node">
<title>Node7</title>
<g id="a_node7"><a xlink:href="namespacercf__read__namelists__mod.xhtml#a03f55943f24c46a584c68e062c7c51b8" target="_top" xlink:title="Subroutine Rcf_Read_Namelists &#45; read the rcf namelists. ">
<polygon fill="#ffffff" stroke="#000000" points="330,-.5 330,-30.5 473,-30.5 473,-.5 330,-.5"/>
<text text-anchor="start" x="338" y="-18.5" font-family="Helvetica,sans-Serif" font-size="10.00" fill="#000000">rcf_read_namelists</text>
<text text-anchor="middle" x="401.5" y="-7.5" font-family="Helvetica,sans-Serif" font-size="10.00" fill="#000000">_mod::rcf_read_namelists</text>
</a>
</g>
</g>
<!-- Node6&#45;&gt;Node7 -->
<g id="edge6" class="edge">
<title>Node6&#45;&gt;Node7</title>
<path fill="none" stroke="#191970" d="M304.0816,-15.5C312.6916,-15.5 321.4233,-15.5 329.9418,-15.5"/>
<polygon fill="#191970" stroke="#191970" points="304.0502,-12.0001 294.0502,-15.5 304.0501,-19.0001 304.0502,-12.0001"/>
</g>
<!-- Node8 -->
<g id="node8" class="node">
<title>Node8</title>
<g id="a_node8"><a xlink:href="namespacercf__initialise__mod.xhtml#ab7086bd455bd5857b757207d0255c3f4" target="_top" xlink:title="Subroutine Rcf_Initialise &#45; initialisation tasks. ">
<polygon fill="#ffffff" stroke="#000000" points="509,-19.5 509,-49.5 613,-49.5 613,-19.5 509,-19.5"/>
<text text-anchor="start" x="517" y="-37.5" font-family="Helvetica,sans-Serif" font-size="10.00" fill="#000000">rcf_initialise_mod</text>
<text text-anchor="middle" x="561" y="-26.5" font-family="Helvetica,sans-Serif" font-size="10.00" fill="#000000">::rcf_initialise</text>
</a>
</g>
</g>
<!-- Node7&#45;&gt;Node8 -->
<g id="edge7" class="edge">
<title>Node7&#45;&gt;Node8</title>
<path fill="none" stroke="#191970" d="M483.3968,-25.2557C491.99,-26.2794 500.5499,-27.299 508.6771,-28.2672"/>
<polygon fill="#191970" stroke="#191970" points="483.6617,-21.7626 473.3178,-24.0551 482.8336,-28.7135 483.6617,-21.7626"/>
</g>
<!-- Node9 -->
<g id="node9" class="node">
<title>Node9</title>
<g id="a_node9"><a xlink:href="reconfigure_8f90.xhtml#a55389899cfceedbb4b0f908c73988c0c" target="_top" xlink:title="Top level program for reconfiguration. ">
<polygon fill="#ffffff" stroke="#000000" points="649,-3 649,-22 720,-22 720,-3 649,-3"/>
<text text-anchor="middle" x="684.5" y="-10" font-family="Helvetica,sans-Serif" font-size="10.00" fill="#000000">reconfigure</text>
</a>
</g>
</g>
<!-- Node7&#45;&gt;Node9 -->
<g id="edge9" class="edge">
<title>Node7&#45;&gt;Node9</title>
<path fill="none" stroke="#191970" d="M483.322,-10.4573C491.9885,-10.0653 500.6735,-9.7322 509,-9.5 555.2043,-8.2116 566.7879,-8.5309 613,-9.5 624.6761,-9.7448 637.4177,-10.2144 648.868,-10.7105"/>
<polygon fill="#191970" stroke="#191970" points="483.001,-6.9685 473.1795,-10.9419 483.3351,-13.9606 483.001,-6.9685"/>
</g>
<!-- Node8&#45;&gt;Node9 -->
<g id="edge8" class="edge">
<title>Node8&#45;&gt;Node9</title>
<path fill="none" stroke="#191970" d="M622.9335,-23.4673C631.7486,-21.897 640.5587,-20.3276 648.6452,-18.8871"/>
<polygon fill="#191970" stroke="#191970" points="622.2483,-20.0342 613.0172,-25.2338 623.476,-26.9257 622.2483,-20.0342"/>
</g>
</g>
</svg>
