<?xml version="1.0" encoding="UTF-8" standalone="no"?>
<!DOCTYPE svg PUBLIC "-//W3C//DTD SVG 1.1//EN"
 "http://www.w3.org/Graphics/SVG/1.1/DTD/svg11.dtd">
<!-- Generated by graphviz version 2.40.1 (20161225.0304)
 -->
<!-- Title: um_types::umfortranpointersize Pages: 1 -->
<!--zoomable 674 -->
<svg id="main" version="1.1" xmlns="http://www.w3.org/2000/svg" xmlns:xlink="http://www.w3.org/1999/xlink" xml:space="preserve" onload="init(evt)">
<style type="text/css"><![CDATA[
.edge:hover path { stroke: red; }
.edge:hover polygon { stroke: red; fill: red; }
]]></style>
<script type="text/javascript"><![CDATA[
var edges = document.getElementsByTagName('g');
if (edges && edges.length) {
  for (var i=0;i<edges.length;i++) {
    if (edges[i].id.substr(0,4)=='edge') {
      edges[i].setAttribute('class','edge');
    }
  }
}
]]></script>
        <defs>
                <circle id="rim" cx="0" cy="0" r="7"/>
                <circle id="rim2" cx="0" cy="0" r="3.5"/>
                <g id="zoomPlus">
                        <use xlink:href="#rim" fill="#404040">
                                <set attributeName="fill" to="#808080" begin="zoomplus.mouseover" end="zoomplus.mouseout"/>
                        </use>
                        <path d="M-4,0h8M0,-4v8" fill="none" stroke="white" stroke-width="1.5" pointer-events="none"/>
                </g>
                <g id="zoomMin">
                        <use xlink:href="#rim" fill="#404040">
                                <set attributeName="fill" to="#808080" begin="zoomminus.mouseover" end="zoomminus.mouseout"/>
                        </use>
                        <path d="M-4,0h8" fill="none" stroke="white" stroke-width="1.5" pointer-events="none"/>
                </g>
                <g id="dirArrow">
                        <path fill="none" stroke="white" stroke-width="1.5" d="M0,-3.0v7 M-2.5,-0.5L0,-3.0L2.5,-0.5"/>
                </g>
               <g id="resetDef">
                       <use xlink:href="#rim2" fill="#404040">
                               <set attributeName="fill" to="#808080" begin="reset.mouseover" end="reset.mouseout"/>
                       </use>
               </g>
        </defs>

<script type="text/javascript">
var viewWidth = 742;
var viewHeight = 674;
var sectionId = 'dynsection-1';
</script>
<script xlink:href="svgpan.js"/>
<svg id="graph" class="graph">
<g id="viewport">
<title>um_types::umfortranpointersize</title>
<polygon fill="#ffffff" stroke="transparent" points="-4,4 -4,-670 738,-670 738,4 -4,4"/>
<!-- Node252 -->
<g id="node1" class="node">
<title>Node252</title>
<polygon fill="#bfbfbf" stroke="#000000" points="0,-323.5 0,-342.5 173,-342.5 173,-323.5 0,-323.5"/>
<text text-anchor="middle" x="86.5" y="-330.5" font-family="Helvetica,sans-Serif" font-size="10.00" fill="#000000">um_types::umfortranpointersize</text>
</g>
<!-- Node253 -->
<g id="node2" class="node">
<title>Node253</title>
<g id="a_node2"><a xlink:href="namespaceapplication__description.xhtml#ab1f76bbee099d1cf0d60a8d897cf6b55" target="_top" xlink:title="application_description\l::setapplicationdesc">
<polygon fill="#ffffff" stroke="#000000" points="209,-318 209,-348 339,-348 339,-318 209,-318"/>
<text text-anchor="start" x="217" y="-336" font-family="Helvetica,sans-Serif" font-size="10.00" fill="#000000">application_description</text>
<text text-anchor="middle" x="274" y="-325" font-family="Helvetica,sans-Serif" font-size="10.00" fill="#000000">::setapplicationdesc</text>
</a>
</g>
</g>
<!-- Node252&#45;&gt;Node253 -->
<g id="edge1" class="edge">
<title>Node252&#45;&gt;Node253</title>
<path fill="none" stroke="#191970" d="M183.2547,-333C191.8939,-333 200.499,-333 208.7763,-333"/>
<polygon fill="#191970" stroke="#191970" points="183.1151,-329.5001 173.115,-333 183.115,-336.5001 183.1151,-329.5001"/>
</g>
<!-- Node254 -->
<g id="node3" class="node">
<title>Node254</title>
<g id="a_node3"><a xlink:href="namespaceum__config.xhtml#a1a0748027c4ccea31f2682bb9de31c5d" target="_top" xlink:title="um_config::appinit">
<polygon fill="#ffffff" stroke="#000000" points="375,-323.5 375,-342.5 482,-342.5 482,-323.5 375,-323.5"/>
<text text-anchor="middle" x="428.5" y="-330.5" font-family="Helvetica,sans-Serif" font-size="10.00" fill="#000000">um_config::appinit</text>
</a>
</g>
</g>
<!-- Node253&#45;&gt;Node254 -->
<g id="edge2" class="edge">
<title>Node253&#45;&gt;Node254</title>
<path fill="none" stroke="#191970" d="M349.1616,-333C357.7903,-333 366.4538,-333 374.7209,-333"/>
<polygon fill="#191970" stroke="#191970" points="349.0742,-329.5001 339.0741,-333 349.0741,-336.5001 349.0742,-329.5001"/>
</g>
<!-- Node255 -->
<g id="node4" class="node">
<title>Node255</title>
<g id="a_node4"><a xlink:href="scm__shell_8f90.xhtml#ab15255829ee7b5be626b1c0861b40c8d" target="_top" xlink:title="scm_shell is the main calling program for the Single Column Model. ">
<polygon fill="#ffffff" stroke="#000000" points="544.5,-646.5 544.5,-665.5 609.5,-665.5 609.5,-646.5 544.5,-646.5"/>
<text text-anchor="middle" x="577" y="-653.5" font-family="Helvetica,sans-Serif" font-size="10.00" fill="#000000">scm_shell</text>
</a>
</g>
</g>
<!-- Node254&#45;&gt;Node255 -->
<g id="edge3" class="edge">
<title>Node254&#45;&gt;Node255</title>
<path fill="none" stroke="#191970" d="M431.8669,-352.8816C442.5228,-413.6256 477.2252,-595.1833 518,-637 524.9868,-644.1653 534.6836,-648.632 544.1995,-651.4153"/>
<polygon fill="#191970" stroke="#191970" points="435.2615,-351.9708 430.1111,-342.7121 428.3636,-353.1618 435.2615,-351.9708"/>
</g>
<!-- Node256 -->
<g id="node5" class="node">
<title>Node256</title>
<g id="a_node5"><a xlink:href="um__shell_8f90.xhtml#a8c9bd25362824a5c301376ecb5ed5c27" target="_top" xlink:title="Subroutine: UM_SHELL !&gt; ">
<polygon fill="#ffffff" stroke="#000000" points="546.5,-608.5 546.5,-627.5 607.5,-627.5 607.5,-608.5 546.5,-608.5"/>
<text text-anchor="middle" x="577" y="-615.5" font-family="Helvetica,sans-Serif" font-size="10.00" fill="#000000">um_shell</text>
</a>
</g>
</g>
<!-- Node254&#45;&gt;Node256 -->
<g id="edge4" class="edge">
<title>Node254&#45;&gt;Node256</title>
<path fill="none" stroke="#191970" d="M429.3156,-352.7268C432.4085,-401.5522 447.2122,-529.1279 518,-599 525.582,-606.4839 536.1234,-611.021 546.2013,-613.7712"/>
<polygon fill="#191970" stroke="#191970" points="432.8018,-352.3724 428.7748,-342.5727 425.8117,-352.7448 432.8018,-352.3724"/>
</g>
<!-- Node258 -->
<g id="node7" class="node">
<title>Node258</title>
<g id="a_node7"><a xlink:href="main__convieee_8f90.xhtml#a07e35ba560316981ee3a8e7b3d6433be" target="_top" xlink:title="PROGRAM MAIN_CONVIEEE!&gt; ">
<polygon fill="#ffffff" stroke="#000000" points="531.5,-570.5 531.5,-589.5 622.5,-589.5 622.5,-570.5 531.5,-570.5"/>
<text text-anchor="middle" x="577" y="-577.5" font-family="Helvetica,sans-Serif" font-size="10.00" fill="#000000">main_convieee</text>
</a>
</g>
</g>
<!-- Node254&#45;&gt;Node258 -->
<g id="edge6" class="edge">
<title>Node254&#45;&gt;Node258</title>
<path fill="none" stroke="#191970" d="M430.6081,-352.8464C436.3285,-396.7656 456.129,-502.8808 518,-561 522.157,-564.9049 527.1215,-568.0073 532.3812,-570.4721"/>
<polygon fill="#191970" stroke="#191970" points="434.0771,-352.3779 429.4158,-342.8636 427.1265,-353.2081 434.0771,-352.3779"/>
</g>
<!-- Node259 -->
<g id="node8" class="node">
<title>Node259</title>
<g id="a_node8"><a xlink:href="main__convpp_8f90.xhtml#a6f4ba32c9adc2434634c6798ec850359" target="_top" xlink:title="LL PROGRAM MAIN_CONVPP &#45;!&gt;LL. ">
<polygon fill="#ffffff" stroke="#000000" points="536,-532.5 536,-551.5 618,-551.5 618,-532.5 536,-532.5"/>
<text text-anchor="middle" x="577" y="-539.5" font-family="Helvetica,sans-Serif" font-size="10.00" fill="#000000">main_convpp</text>
</a>
</g>
</g>
<!-- Node254&#45;&gt;Node259 -->
<g id="edge7" class="edge">
<title>Node254&#45;&gt;Node259</title>
<path fill="none" stroke="#191970" d="M432.2558,-352.3601C440.6756,-390.5881 464.6569,-476.1143 518,-523 523.1729,-527.5467 529.4469,-531.0076 535.9481,-533.6414"/>
<polygon fill="#191970" stroke="#191970" points="435.6688,-351.5813 430.204,-342.5046 428.8157,-353.0081 435.6688,-351.5813"/>
</g>
<!-- Node260 -->
<g id="node9" class="node">
<title>Node260</title>
<g id="a_node9"><a xlink:href="main__compare_8f90.xhtml#a859636429424208eb8d60d10a418297b" target="_top" xlink:title="Program MAIN_COMPARE and Subroutine COMPARE. ">
<polygon fill="#ffffff" stroke="#000000" points="532.5,-494.5 532.5,-513.5 621.5,-513.5 621.5,-494.5 532.5,-494.5"/>
<text text-anchor="middle" x="577" y="-501.5" font-family="Helvetica,sans-Serif" font-size="10.00" fill="#000000">main_compare</text>
</a>
</g>
</g>
<!-- Node254&#45;&gt;Node260 -->
<g id="edge8" class="edge">
<title>Node254&#45;&gt;Node260</title>
<path fill="none" stroke="#191970" d="M434.7806,-352.4392C446.1818,-384.6886 473.3251,-449.2342 518,-485 522.8724,-488.9007 528.5654,-492.0092 534.4572,-494.4842"/>
<polygon fill="#191970" stroke="#191970" points="438.0463,-351.171 431.5151,-342.8287 431.4185,-353.4231 438.0463,-351.171"/>
</g>
<!-- Node261 -->
<g id="node10" class="node">
<title>Node261</title>
<g id="a_node10"><a xlink:href="fieldcalc_8f90.xhtml#ac71d10790a6550f257c927ee60db58b2" target="_top" xlink:title="Program for post&#45;processing of UM output. ">
<polygon fill="#ffffff" stroke="#000000" points="548.5,-456.5 548.5,-475.5 605.5,-475.5 605.5,-456.5 548.5,-456.5"/>
<text text-anchor="middle" x="577" y="-463.5" font-family="Helvetica,sans-Serif" font-size="10.00" fill="#000000">fieldcalc</text>
</a>
</g>
</g>
<!-- Node254&#45;&gt;Node261 -->
<g id="edge9" class="edge">
<title>Node254&#45;&gt;Node261</title>
<path fill="none" stroke="#191970" d="M438.2604,-351.4063C452.5144,-376.5674 481.3618,-421.4811 518,-447 527.0069,-453.2734 538.2028,-457.564 548.4135,-460.4559"/>
<polygon fill="#191970" stroke="#191970" points="441.2591,-349.5958 433.3714,-342.5222 435.1264,-352.9707 441.2591,-349.5958"/>
</g>
<!-- Node262 -->
<g id="node11" class="node">
<title>Node262</title>
<g id="a_node11"><a xlink:href="fieldop_8f90.xhtml#a23485bba0dce2ebf2edfa827cd3f6b2b" target="_top" xlink:title="fieldop">
<polygon fill="#ffffff" stroke="#000000" points="552,-418.5 552,-437.5 602,-437.5 602,-418.5 552,-418.5"/>
<text text-anchor="middle" x="577" y="-425.5" font-family="Helvetica,sans-Serif" font-size="10.00" fill="#000000">fieldop</text>
</a>
</g>
</g>
<!-- Node254&#45;&gt;Node262 -->
<g id="edge10" class="edge">
<title>Node254&#45;&gt;Node262</title>
<path fill="none" stroke="#191970" d="M444.5731,-350.132C461.4194,-367.1922 489.3747,-393.0716 518,-409 528.5317,-414.8603 541.1412,-419.2296 551.9945,-422.2908"/>
<polygon fill="#191970" stroke="#191970" points="446.7081,-347.3049 437.2413,-342.5478 441.6753,-352.1702 446.7081,-347.3049"/>
</g>
<!-- Node263 -->
<g id="node12" class="node">
<title>Node263</title>
<g id="a_node12"><a xlink:href="flux__process__main_8f90.xhtml#aa4f9adbe127f17a972e1284856a37f9c" target="_top" xlink:title="Programming standard: Unified Model Documentation Paper No 3. ">
<polygon fill="#ffffff" stroke="#000000" points="523.5,-380.5 523.5,-399.5 630.5,-399.5 630.5,-380.5 523.5,-380.5"/>
<text text-anchor="middle" x="577" y="-387.5" font-family="Helvetica,sans-Serif" font-size="10.00" fill="#000000">flux_process_main</text>
</a>
</g>
</g>
<!-- Node254&#45;&gt;Node263 -->
<g id="edge11" class="edge">
<title>Node254&#45;&gt;Node263</title>
<path fill="none" stroke="#191970" d="M459.1287,-346.8119C476.2879,-354.345 498.1643,-363.6122 518,-371 526.8742,-374.3052 536.6191,-377.5832 545.5875,-380.4621"/>
<polygon fill="#191970" stroke="#191970" points="460.1827,-343.451 449.6218,-342.6042 457.3496,-349.852 460.1827,-343.451"/>
</g>
<!-- Node264 -->
<g id="node13" class="node">
<title>Node264</title>
<g id="a_node13"><a xlink:href="flux__transform__main_8f90.xhtml#a9514a018945b31f3f7749d95c2e47c5e" target="_top" xlink:title="contains progam: Flux_Transform_Main ">
<polygon fill="#ffffff" stroke="#000000" points="518,-342.5 518,-361.5 636,-361.5 636,-342.5 518,-342.5"/>
<text text-anchor="middle" x="577" y="-349.5" font-family="Helvetica,sans-Serif" font-size="10.00" fill="#000000">flux_transform_main</text>
</a>
</g>
</g>
<!-- Node254&#45;&gt;Node264 -->
<g id="edge12" class="edge">
<title>Node254&#45;&gt;Node264</title>
<path fill="none" stroke="#191970" d="M492.0714,-341.1337C500.6556,-342.232 509.4343,-343.3552 517.9355,-344.4429"/>
<polygon fill="#191970" stroke="#191970" points="492.4753,-337.6569 482.1119,-339.8594 491.5868,-344.6003 492.4753,-337.6569"/>
</g>
<!-- Node265 -->
<g id="node14" class="node">
<title>Node265</title>
<g id="a_node14"><a xlink:href="set__ancillary__time_8f90.xhtml#a0540d23abc4197e375a7de0606d3f27e" target="_top" xlink:title="Programming standard: Unified Model Documentation Paper No 3. ">
<polygon fill="#ffffff" stroke="#000000" points="523.5,-304.5 523.5,-323.5 630.5,-323.5 630.5,-304.5 523.5,-304.5"/>
<text text-anchor="middle" x="577" y="-311.5" font-family="Helvetica,sans-Serif" font-size="10.00" fill="#000000">set_ancillary_time</text>
</a>
</g>
</g>
<!-- Node254&#45;&gt;Node265 -->
<g id="edge13" class="edge">
<title>Node254&#45;&gt;Node265</title>
<path fill="none" stroke="#191970" d="M492.0354,-324.8709C502.5078,-323.531 513.2705,-322.1539 523.4668,-320.8494"/>
<polygon fill="#191970" stroke="#191970" points="491.5868,-321.3997 482.1119,-326.1406 492.4753,-328.3431 491.5868,-321.3997"/>
</g>
<!-- Node266 -->
<g id="node15" class="node">
<title>Node266</title>
<g id="a_node15"><a xlink:href="main__makebc_8f90.xhtml#a50b6c2de94add4874d93c8719b2fe8c3" target="_top" xlink:title="Program MAKEBC : Top&#45;level program to create boundary dataset. ">
<polygon fill="#ffffff" stroke="#000000" points="534,-266.5 534,-285.5 620,-285.5 620,-266.5 534,-266.5"/>
<text text-anchor="middle" x="577" y="-273.5" font-family="Helvetica,sans-Serif" font-size="10.00" fill="#000000">main_makebc</text>
</a>
</g>
</g>
<!-- Node254&#45;&gt;Node266 -->
<g id="edge14" class="edge">
<title>Node254&#45;&gt;Node266</title>
<path fill="none" stroke="#191970" d="M459.1287,-319.1881C476.2879,-311.655 498.1643,-302.3878 518,-295 526.8742,-291.6948 536.6191,-288.4168 545.5875,-285.5379"/>
<polygon fill="#191970" stroke="#191970" points="457.3496,-316.148 449.6218,-323.3958 460.1827,-322.549 457.3496,-316.148"/>
</g>
<!-- Node267 -->
<g id="node16" class="node">
<title>Node267</title>
<g id="a_node16"><a xlink:href="pptoanc_8f90.xhtml#a2e730625ecfdf710fce82f4ee59e0c2c" target="_top" xlink:title="pptoanc">
<polygon fill="#ffffff" stroke="#000000" points="549,-228.5 549,-247.5 605,-247.5 605,-228.5 549,-228.5"/>
<text text-anchor="middle" x="577" y="-235.5" font-family="Helvetica,sans-Serif" font-size="10.00" fill="#000000">pptoanc</text>
</a>
</g>
</g>
<!-- Node254&#45;&gt;Node267 -->
<g id="edge15" class="edge">
<title>Node254&#45;&gt;Node267</title>
<path fill="none" stroke="#191970" d="M444.5731,-315.868C461.4194,-298.8078 489.3747,-272.9284 518,-257 527.4974,-251.7152 538.6844,-247.6431 548.7494,-244.6492"/>
<polygon fill="#191970" stroke="#191970" points="441.6753,-313.8298 437.2413,-323.4522 446.7081,-318.6951 441.6753,-313.8298"/>
</g>
<!-- Node268 -->
<g id="node17" class="node">
<title>Node268</title>
<g id="a_node17"><a xlink:href="main__printdump_8f90.xhtml#abb9467d2020e5c148b924e27f98e3955" target="_top" xlink:title="PROGRAM MAIN_PRINTDUMP and others!&gt; Purpose: Prints a summary of contents of atmosphere, ocean or. ">
<polygon fill="#ffffff" stroke="#000000" points="528.5,-190.5 528.5,-209.5 625.5,-209.5 625.5,-190.5 528.5,-190.5"/>
<text text-anchor="middle" x="577" y="-197.5" font-family="Helvetica,sans-Serif" font-size="10.00" fill="#000000">main_printdump</text>
</a>
</g>
</g>
<!-- Node254&#45;&gt;Node268 -->
<g id="edge16" class="edge">
<title>Node254&#45;&gt;Node268</title>
<path fill="none" stroke="#191970" d="M438.2604,-314.5937C452.5144,-289.4326 481.3618,-244.5189 518,-219 523.5631,-215.1253 529.9612,-212.0069 536.4466,-209.5074"/>
<polygon fill="#191970" stroke="#191970" points="435.1264,-313.0293 433.3714,-323.4778 441.2591,-316.4042 435.1264,-313.0293"/>
</g>
<!-- Node269 -->
<g id="node18" class="node">
<title>Node269</title>
<g id="a_node18"><a xlink:href="fieldcos_8f90.xhtml#a964738f376f82ff1c74d785687a11a4b" target="_top" xlink:title="Program: FIELDCOS!&gt; ">
<polygon fill="#ffffff" stroke="#000000" points="550,-152.5 550,-171.5 604,-171.5 604,-152.5 550,-152.5"/>
<text text-anchor="middle" x="577" y="-159.5" font-family="Helvetica,sans-Serif" font-size="10.00" fill="#000000">fieldcos</text>
</a>
</g>
</g>
<!-- Node254&#45;&gt;Node269 -->
<g id="edge17" class="edge">
<title>Node254&#45;&gt;Node269</title>
<path fill="none" stroke="#191970" d="M434.7806,-313.5608C446.1818,-281.3114 473.3251,-216.7658 518,-181 527.0727,-173.7366 538.991,-169.2201 549.7392,-166.4255"/>
<polygon fill="#191970" stroke="#191970" points="431.4185,-312.5769 431.5151,-323.1713 438.0463,-314.829 431.4185,-312.5769"/>
</g>
<!-- Node270 -->
<g id="node19" class="node">
<title>Node270</title>
<g id="a_node19"><a xlink:href="fldmod_8f90.xhtml#a5e61379da9a8eae9d78c318f469107d8" target="_top" xlink:title="LL Routine: FLDMOD &#45;!&gt;LL. ">
<polygon fill="#ffffff" stroke="#000000" points="552,-114.5 552,-133.5 602,-133.5 602,-114.5 552,-114.5"/>
<text text-anchor="middle" x="577" y="-121.5" font-family="Helvetica,sans-Serif" font-size="10.00" fill="#000000">fldmod</text>
</a>
</g>
</g>
<!-- Node254&#45;&gt;Node270 -->
<g id="edge18" class="edge">
<title>Node254&#45;&gt;Node270</title>
<path fill="none" stroke="#191970" d="M432.2558,-313.6399C440.6756,-275.4119 464.6569,-189.8857 518,-143 527.376,-134.759 540.369,-130.0853 551.776,-127.4381"/>
<polygon fill="#191970" stroke="#191970" points="428.8157,-312.9919 430.204,-323.4954 435.6688,-314.4187 428.8157,-312.9919"/>
</g>
<!-- Node271 -->
<g id="node20" class="node">
<title>Node271</title>
<g id="a_node20"><a xlink:href="main__merge_8f90.xhtml#ae792931e7c1dc5f5a33a8b7d5766d64e" target="_top" xlink:title="MAIN PROGRAM FOR MERGE UTILITY. ">
<polygon fill="#ffffff" stroke="#000000" points="538,-76.5 538,-95.5 616,-95.5 616,-76.5 538,-76.5"/>
<text text-anchor="middle" x="577" y="-83.5" font-family="Helvetica,sans-Serif" font-size="10.00" fill="#000000">main_merge</text>
</a>
</g>
</g>
<!-- Node254&#45;&gt;Node271 -->
<g id="edge19" class="edge">
<title>Node254&#45;&gt;Node271</title>
<path fill="none" stroke="#191970" d="M430.6081,-313.1536C436.3285,-269.2344 456.129,-163.1192 518,-105 523.5688,-99.7689 530.5869,-95.978 537.822,-93.2307"/>
<polygon fill="#191970" stroke="#191970" points="427.1265,-312.7919 429.4158,-323.1364 434.0771,-313.6221 427.1265,-312.7919"/>
</g>
<!-- Node272 -->
<g id="node21" class="node">
<title>Node272</title>
<g id="a_node21"><a xlink:href="reconfigure_8f90.xhtml#a55389899cfceedbb4b0f908c73988c0c" target="_top" xlink:title="Top level program for reconfiguration. ">
<polygon fill="#ffffff" stroke="#000000" points="541.5,-38.5 541.5,-57.5 612.5,-57.5 612.5,-38.5 541.5,-38.5"/>
<text text-anchor="middle" x="577" y="-45.5" font-family="Helvetica,sans-Serif" font-size="10.00" fill="#000000">reconfigure</text>
</a>
</g>
</g>
<!-- Node254&#45;&gt;Node272 -->
<g id="edge20" class="edge">
<title>Node254&#45;&gt;Node272</title>
<path fill="none" stroke="#191970" d="M429.3156,-313.2732C432.4085,-264.4478 447.2122,-136.8721 518,-67 524.3567,-60.7256 532.7934,-56.5225 541.2931,-53.7072"/>
<polygon fill="#191970" stroke="#191970" points="425.8117,-313.2552 428.7748,-323.4273 432.8018,-313.6276 425.8117,-313.2552"/>
</g>
<!-- Node273 -->
<g id="node22" class="node">
<title>Node273</title>
<g id="a_node22"><a xlink:href="vomext_8f90.xhtml#a0dca728c404932cb5944e3f7627fa957" target="_top" xlink:title=" ">
<polygon fill="#ffffff" stroke="#000000" points="538,-.5 538,-19.5 616,-19.5 616,-.5 538,-.5"/>
<text text-anchor="middle" x="577" y="-7.5" font-family="Helvetica,sans-Serif" font-size="10.00" fill="#000000">vom_extract</text>
</a>
</g>
</g>
<!-- Node254&#45;&gt;Node273 -->
<g id="edge21" class="edge">
<title>Node254&#45;&gt;Node273</title>
<path fill="none" stroke="#191970" d="M431.8669,-313.1184C442.5228,-252.3744 477.2252,-70.8167 518,-29 523.4091,-23.4527 530.4426,-19.5228 537.7589,-16.7393"/>
<polygon fill="#191970" stroke="#191970" points="428.3636,-312.8382 430.1111,-323.2879 435.2615,-314.0292 428.3636,-312.8382"/>
</g>
<!-- Node257 -->
<g id="node6" class="node">
<title>Node257</title>
<g id="a_node6"><a xlink:href="um__main_8f90.xhtml#a8f2d13215621443a5313261c282f098b" target="_top" xlink:title="Code Owner: See Unified Model Code Owner&#39;s HTML page. ">
<polygon fill="#ffffff" stroke="#000000" points="672,-608.5 672,-627.5 734,-627.5 734,-608.5 672,-608.5"/>
<text text-anchor="middle" x="703" y="-615.5" font-family="Helvetica,sans-Serif" font-size="10.00" fill="#000000">um_main</text>
</a>
</g>
</g>
<!-- Node256&#45;&gt;Node257 -->
<g id="edge5" class="edge">
<title>Node256&#45;&gt;Node257</title>
<path fill="none" stroke="#191970" d="M617.5208,-618C635.1542,-618 655.4918,-618 671.9045,-618"/>
<polygon fill="#191970" stroke="#191970" points="617.5011,-614.5001 607.5011,-618 617.5011,-621.5001 617.5011,-614.5001"/>
</g>
</g>
</svg>
        <g id="navigator" transform="translate(0 0)" fill="#404254">
                <rect fill="#f2f5e9" fill-opacity="0.5" stroke="#606060" stroke-width=".5" x="0" y="0" width="60" height="60"/>
                <use id="zoomplus" xlink:href="#zoomPlus" x="17" y="9" onmousedown="handleZoom(evt,'in')"/>
                <use id="zoomminus" xlink:href="#zoomMin" x="42" y="9" onmousedown="handleZoom(evt,'out')"/>
                <use id="reset" xlink:href="#resetDef" x="30" y="36" onmousedown="handleReset()"/>
                <g id="arrowUp" xlink:href="#dirArrow" transform="translate(30 24)" onmousedown="handlePan(0,-1)">
                  <use xlink:href="#rim" fill="#404040">
                        <set attributeName="fill" to="#808080" begin="arrowUp.mouseover" end="arrowUp.mouseout"/>
                  </use>
                  <path fill="none" stroke="white" stroke-width="1.5" d="M0,-3.0v7 M-2.5,-0.5L0,-3.0L2.5,-0.5"/>
                </g>
                <g id="arrowRight" xlink:href="#dirArrow" transform="rotate(90) translate(36 -43)" onmousedown="handlePan(1,0)">
                  <use xlink:href="#rim" fill="#404040">
                        <set attributeName="fill" to="#808080" begin="arrowRight.mouseover" end="arrowRight.mouseout"/>
                  </use>
                  <path fill="none" stroke="white" stroke-width="1.5" d="M0,-3.0v7 M-2.5,-0.5L0,-3.0L2.5,-0.5"/>
                </g>
                <g id="arrowDown" xlink:href="#dirArrow" transform="rotate(180) translate(-30 -48)" onmousedown="handlePan(0,1)">
                  <use xlink:href="#rim" fill="#404040">
                        <set attributeName="fill" to="#808080" begin="arrowDown.mouseover" end="arrowDown.mouseout"/>
                  </use>
                  <path fill="none" stroke="white" stroke-width="1.5" d="M0,-3.0v7 M-2.5,-0.5L0,-3.0L2.5,-0.5"/>
                </g>
                <g id="arrowLeft" xlink:href="#dirArrow" transform="rotate(270) translate(-36 17)" onmousedown="handlePan(-1,0)">
                  <use xlink:href="#rim" fill="#404040">
                        <set attributeName="fill" to="#808080" begin="arrowLeft.mouseover" end="arrowLeft.mouseout"/>
                  </use>
                  <path fill="none" stroke="white" stroke-width="1.5" d="M0,-3.0v7 M-2.5,-0.5L0,-3.0L2.5,-0.5"/>
                </g>
        </g>
        <svg viewBox="0 0 15 15" width="100%" height="30px" preserveAspectRatio="xMaxYMin meet">
         <g id="arrow_out" transform="scale(0.3 0.3)">
          <a xlink:href="namespaceum__types_a0ee78d27e5e9562f5baa40f6b84f79ff_icgraph_org.svg" target="_base">
           <rect id="button" ry="5" rx="5" y="6" x="6" height="38" width="38"
                fill="#f2f5e9" fill-opacity="0.5" stroke="#606060" stroke-width="1.0"/>
           <path id="arrow"
             d="M 11.500037,31.436501 C 11.940474,20.09759 22.043105,11.32322 32.158766,21.979434 L 37.068811,17.246167 C 37.068811,17.246167 37.088388,32 37.088388,32 L 22.160133,31.978069 C 22.160133,31.978069 26.997745,27.140456 26.997745,27.140456 C 18.528582,18.264221 13.291696,25.230495 11.500037,31.436501 z"
             style="fill:#404040;"/>
          </a>
         </g>
        </svg>
</svg>
