<?xml version="1.0" encoding="UTF-8" standalone="no"?>
<!DOCTYPE svg PUBLIC "-//W3C//DTD SVG 1.1//EN"
 "http://www.w3.org/Graphics/SVG/1.1/DTD/svg11.dtd">
<!-- Generated by graphviz version 2.40.1 (20161225.0304)
 -->
<!-- Title: ios::ios_config Pages: 1 -->
<!--zoomable 474 -->
<svg id="main" version="1.1" xmlns="http://www.w3.org/2000/svg" xmlns:xlink="http://www.w3.org/1999/xlink" xml:space="preserve" onload="init(evt)">
<style type="text/css"><![CDATA[
.edge:hover path { stroke: red; }
.edge:hover polygon { stroke: red; fill: red; }
]]></style>
<script type="text/javascript"><![CDATA[
var edges = document.getElementsByTagName('g');
if (edges && edges.length) {
  for (var i=0;i<edges.length;i++) {
    if (edges[i].id.substr(0,4)=='edge') {
      edges[i].setAttribute('class','edge');
    }
  }
}
]]></script>
        <defs>
                <circle id="rim" cx="0" cy="0" r="7"/>
                <circle id="rim2" cx="0" cy="0" r="3.5"/>
                <g id="zoomPlus">
                        <use xlink:href="#rim" fill="#404040">
                                <set attributeName="fill" to="#808080" begin="zoomplus.mouseover" end="zoomplus.mouseout"/>
                        </use>
                        <path d="M-4,0h8M0,-4v8" fill="none" stroke="white" stroke-width="1.5" pointer-events="none"/>
                </g>
                <g id="zoomMin">
                        <use xlink:href="#rim" fill="#404040">
                                <set attributeName="fill" to="#808080" begin="zoomminus.mouseover" end="zoomminus.mouseout"/>
                        </use>
                        <path d="M-4,0h8" fill="none" stroke="white" stroke-width="1.5" pointer-events="none"/>
                </g>
                <g id="dirArrow">
                        <path fill="none" stroke="white" stroke-width="1.5" d="M0,-3.0v7 M-2.5,-0.5L0,-3.0L2.5,-0.5"/>
                </g>
               <g id="resetDef">
                       <use xlink:href="#rim2" fill="#404040">
                               <set attributeName="fill" to="#808080" begin="reset.mouseover" end="reset.mouseout"/>
                       </use>
               </g>
        </defs>

<script type="text/javascript">
var viewWidth = 1734;
var viewHeight = 474;
var sectionId = 'dynsection-2';
</script>
<script xlink:href="svgpan.js"/>
<svg id="graph" class="graph">
<g id="viewport">
<title>ios::ios_config</title>
<polygon fill="#ffffff" stroke="transparent" points="-4,4 -4,-469.6784 1730,-469.6784 1730,4 -4,4"/>
<!-- Node281 -->
<g id="node1" class="node">
<title>Node281</title>
<polygon fill="#bfbfbf" stroke="#000000" points="0,-257.1687 0,-276.1687 86,-276.1687 86,-257.1687 0,-257.1687"/>
<text text-anchor="middle" x="43" y="-264.1687" font-family="Helvetica,sans-Serif" font-size="10.00" fill="#000000">ios::ios_config</text>
</g>
<!-- Node282 -->
<g id="node2" class="node">
<title>Node282</title>
<g id="a_node2"><a xlink:href="namespaceios__common.xhtml#a2c973e11abf690e8e0215ca4d7e669de" target="_top" xlink:title="ios_common::l_ios_active">
<polygon fill="#ffffff" stroke="#000000" points="478,-352.1687 478,-371.1687 621,-371.1687 621,-352.1687 478,-352.1687"/>
<text text-anchor="middle" x="549.5" y="-359.1687" font-family="Helvetica,sans-Serif" font-size="10.00" fill="#000000">ios_common::l_ios_active</text>
</a>
</g>
</g>
<!-- Node281&#45;&gt;Node282 -->
<g id="edge1" class="edge">
<title>Node281&#45;&gt;Node282</title>
<path fill="none" stroke="#191970" d="M74.1308,-276.1687C88.6693,-280.5944 106.2145,-285.9199 122,-290.6687 205.4876,-315.7845 224.1636,-331.4012 310,-346.6687 362.0661,-355.9295 421.3826,-359.6944 467.9584,-361.1367"/>
<polygon fill="#191970" stroke="#191970" points="467.9031,-364.6365 477.9972,-361.418 468.0992,-357.6392 467.9031,-364.6365"/>
</g>
<!-- Node283 -->
<g id="node3" class="node">
<title>Node283</title>
<g id="a_node3"><a xlink:href="namespaceios__common.xhtml#a45a8a03804119a7b82df10e4e614c57a" target="_top" xlink:title="ios_common::ios_metadata\l_receivers">
<polygon fill="#ffffff" stroke="#000000" points="122,-202.6687 122,-232.6687 274,-232.6687 274,-202.6687 122,-202.6687"/>
<text text-anchor="start" x="130" y="-220.6687" font-family="Helvetica,sans-Serif" font-size="10.00" fill="#000000">ios_common::ios_metadata</text>
<text text-anchor="middle" x="198" y="-209.6687" font-family="Helvetica,sans-Serif" font-size="10.00" fill="#000000">_receivers</text>
</a>
</g>
</g>
<!-- Node281&#45;&gt;Node283 -->
<g id="edge2" class="edge">
<title>Node281&#45;&gt;Node283</title>
<path fill="none" stroke="#191970" d="M73.0095,-257.1673C87.7653,-252.4966 105.8144,-246.7853 122,-241.6687 127.974,-239.7801 134.2125,-237.8088 140.4349,-235.8431"/>
<polygon fill="#191970" stroke="#191970" points="141.678,-239.1209 150.1594,-232.7714 139.5696,-232.446 141.678,-239.1209"/>
</g>
<!-- Node284 -->
<g id="node4" class="node">
<title>Node284</title>
<g id="a_node4"><a xlink:href="namespaceios__client__queue.xhtml#afe87459ebf2e7fc1b3915458ad63d06f" target="_top" xlink:title="ios_client_queue::ios\l_init_md">
<polygon fill="#ffffff" stroke="#000000" points="138.5,-251.6687 138.5,-281.6687 257.5,-281.6687 257.5,-251.6687 138.5,-251.6687"/>
<text text-anchor="start" x="146.5" y="-269.6687" font-family="Helvetica,sans-Serif" font-size="10.00" fill="#000000">ios_client_queue::ios</text>
<text text-anchor="middle" x="198" y="-258.6687" font-family="Helvetica,sans-Serif" font-size="10.00" fill="#000000">_init_md</text>
</a>
</g>
</g>
<!-- Node281&#45;&gt;Node284 -->
<g id="edge3" class="edge">
<title>Node281&#45;&gt;Node284</title>
<path fill="none" stroke="#191970" d="M86.1761,-266.6687C99.1508,-266.6687 113.7338,-266.6687 127.9768,-266.6687"/>
<polygon fill="#191970" stroke="#191970" points="128.2601,-270.1688 138.26,-266.6687 128.26,-263.1688 128.2601,-270.1688"/>
</g>
<!-- Node299 -->
<g id="node19" class="node">
<title>Node299</title>
<g id="a_node19"><a xlink:href="namespaceios__client__queue.xhtml#af3464b68647df538f288fdc3f40aaa88" target="_top" xlink:title="ios_client_queue::ios\l_attach_metadata">
<polygon fill="#ffffff" stroke="#000000" points="138.5,-153.6687 138.5,-183.6687 257.5,-183.6687 257.5,-153.6687 138.5,-153.6687"/>
<text text-anchor="start" x="146.5" y="-171.6687" font-family="Helvetica,sans-Serif" font-size="10.00" fill="#000000">ios_client_queue::ios</text>
<text text-anchor="middle" x="198" y="-160.6687" font-family="Helvetica,sans-Serif" font-size="10.00" fill="#000000">_attach_metadata</text>
</a>
</g>
</g>
<!-- Node281&#45;&gt;Node299 -->
<g id="edge33" class="edge">
<title>Node281&#45;&gt;Node299</title>
<path fill="none" stroke="#191970" d="M50.7223,-257.0548C63.7967,-241.3848 91.829,-210.3182 122,-192.6687 124.8664,-190.9919 127.8633,-189.4185 130.9411,-187.944"/>
<polygon fill="#191970" stroke="#191970" points="132.6136,-191.0324 140.3672,-183.8122 129.8033,-184.6213 132.6136,-191.0324"/>
</g>
<!-- Node300 -->
<g id="node20" class="node">
<title>Node300</title>
<g id="a_node20"><a xlink:href="namespaceios__client__queue.xhtml#ad45a47e6cd283c6c4b4e7a3a45dd37a6" target="_top" xlink:title="ios_client_queue::ios_send">
<polygon fill="#ffffff" stroke="#000000" points="476,-428.1687 476,-447.1687 623,-447.1687 623,-428.1687 476,-428.1687"/>
<text text-anchor="middle" x="549.5" y="-435.1687" font-family="Helvetica,sans-Serif" font-size="10.00" fill="#000000">ios_client_queue::ios_send</text>
</a>
</g>
</g>
<!-- Node281&#45;&gt;Node300 -->
<g id="edge34" class="edge">
<title>Node281&#45;&gt;Node300</title>
<path fill="none" stroke="#191970" d="M52.274,-276.3204C66.1467,-290.1936 93.7104,-315.6412 122,-329.6687 233.9331,-385.171 376.9027,-413.8008 465.8389,-427.2634"/>
<polygon fill="#191970" stroke="#191970" points="465.4705,-430.7469 475.876,-428.753 466.4982,-423.8228 465.4705,-430.7469"/>
</g>
<!-- Node285 -->
<g id="node5" class="node">
<title>Node285</title>
<g id="a_node5"><a xlink:href="namespaceios__common.xhtml#a31ef4cb4de4333384dba3e441df47903" target="_top" xlink:title="ios_common::assert\l_client">
<polygon fill="#ffffff" stroke="#000000" points="317.5,-185.6687 317.5,-215.6687 432.5,-215.6687 432.5,-185.6687 317.5,-185.6687"/>
<text text-anchor="start" x="325.5" y="-203.6687" font-family="Helvetica,sans-Serif" font-size="10.00" fill="#000000">ios_common::assert</text>
<text text-anchor="middle" x="375" y="-192.6687" font-family="Helvetica,sans-Serif" font-size="10.00" fill="#000000">_client</text>
</a>
</g>
</g>
<!-- Node284&#45;&gt;Node285 -->
<g id="edge4" class="edge">
<title>Node284&#45;&gt;Node285</title>
<path fill="none" stroke="#191970" d="M245.6049,-251.5587C255.0538,-248.4052 264.8722,-245.0182 274,-241.6687 292.5876,-234.8476 312.852,-226.7538 330.3178,-219.5669"/>
<polygon fill="#191970" stroke="#191970" points="331.8037,-222.7399 339.7047,-215.6813 329.1264,-216.2721 331.8037,-222.7399"/>
</g>
<!-- Node286 -->
<g id="node6" class="node">
<title>Node286</title>
<g id="a_node6"><a xlink:href="namespaceios__common.xhtml#a4b4c79405dd73494ae58cbf0e4f1658b" target="_top" xlink:title="ios_common::ios_ereport">
<polygon fill="#ffffff" stroke="#000000" points="662,-200.1687 662,-219.1687 802,-219.1687 802,-200.1687 662,-200.1687"/>
<text text-anchor="middle" x="732" y="-207.1687" font-family="Helvetica,sans-Serif" font-size="10.00" fill="#000000">ios_common::ios_ereport</text>
</a>
</g>
</g>
<!-- Node284&#45;&gt;Node286 -->
<g id="edge17" class="edge">
<title>Node284&#45;&gt;Node286</title>
<path fill="none" stroke="#191970" d="M257.7022,-260.296C353.9359,-250.0238 543.4636,-229.7933 651.527,-218.2585"/>
<polygon fill="#191970" stroke="#191970" points="652.1525,-221.7117 661.7245,-217.17 651.4095,-214.7512 652.1525,-221.7117"/>
</g>
<!-- Node287 -->
<g id="node7" class="node">
<title>Node287</title>
<g id="a_node7"><a xlink:href="namespaceios__print__mgr.xhtml#abd09d7fc0d2381103fd0889b447f4995" target="_top" xlink:title="ios_print_mgr::ios\l_print">
<polygon fill="#ffffff" stroke="#000000" points="1061,-118.6687 1061,-148.6687 1165,-148.6687 1165,-118.6687 1061,-118.6687"/>
<text text-anchor="start" x="1069" y="-136.6687" font-family="Helvetica,sans-Serif" font-size="10.00" fill="#000000">ios_print_mgr::ios</text>
<text text-anchor="middle" x="1113" y="-125.6687" font-family="Helvetica,sans-Serif" font-size="10.00" fill="#000000">_print</text>
</a>
</g>
</g>
<!-- Node284&#45;&gt;Node287 -->
<g id="edge16" class="edge">
<title>Node284&#45;&gt;Node287</title>
<path fill="none" stroke="#191970" d="M257.5427,-254.303C263.7338,-251.0279 269.4224,-246.8916 274,-241.6687 330.9371,-176.7049 248.654,-111.4864 310,-50.6687 386.801,25.471 441.3536,-7.6687 549.5,-7.6687 549.5,-7.6687 549.5,-7.6687 732,-7.6687 865.1388,-7.6687 1011.8154,-77.8819 1077.6268,-113.4814"/>
<polygon fill="#191970" stroke="#191970" points="1076.2864,-116.7377 1086.7387,-118.4701 1079.6481,-110.5977 1076.2864,-116.7377"/>
</g>
<!-- Node293 -->
<g id="node13" class="node">
<title>Node293</title>
<g id="a_node13"><a xlink:href="namespaceios__common.xhtml#a9cbfffb6c02387dc317575ab449918b6" target="_top" xlink:title="ios_common::ios_actionname">
<polygon fill="#ffffff" stroke="#000000" points="1032,-314.1687 1032,-333.1687 1194,-333.1687 1194,-314.1687 1032,-314.1687"/>
<text text-anchor="middle" x="1113" y="-321.1687" font-family="Helvetica,sans-Serif" font-size="10.00" fill="#000000">ios_common::ios_actionname</text>
</a>
</g>
</g>
<!-- Node284&#45;&gt;Node293 -->
<g id="edge15" class="edge">
<title>Node284&#45;&gt;Node293</title>
<path fill="none" stroke="#191970" d="M257.6727,-280.0983C263.2922,-282.0375 268.8189,-284.2206 274,-286.6687 291.8448,-295.1003 291.2628,-306.4679 310,-312.6687 439.5011,-355.5252 840.1791,-339.2929 1021.8213,-329.2632"/>
<polygon fill="#191970" stroke="#191970" points="1022.0959,-332.7534 1031.8853,-328.7015 1021.7057,-325.7643 1022.0959,-332.7534"/>
</g>
<!-- Node294 -->
<g id="node14" class="node">
<title>Node294</title>
<g id="a_node14"><a xlink:href="namespaceios__client__queue.xhtml#a8113f81d94a6b3ff7dded6fcd66952a3" target="_top" xlink:title="ios_client_queue::ios\l_querybuffer">
<polygon fill="#ffffff" stroke="#000000" points="490,-36.6687 490,-66.6687 609,-66.6687 609,-36.6687 490,-36.6687"/>
<text text-anchor="start" x="498" y="-54.6687" font-family="Helvetica,sans-Serif" font-size="10.00" fill="#000000">ios_client_queue::ios</text>
<text text-anchor="middle" x="549.5" y="-43.6687" font-family="Helvetica,sans-Serif" font-size="10.00" fill="#000000">_querybuffer</text>
</a>
</g>
</g>
<!-- Node284&#45;&gt;Node294 -->
<g id="edge18" class="edge">
<title>Node284&#45;&gt;Node294</title>
<path fill="none" stroke="#191970" d="M257.5286,-253.7545C263.6435,-250.5727 269.3177,-246.6082 274,-241.6687 316.1293,-197.2249 266.0386,-151.301 310,-108.6687 354.823,-65.2007 426.4796,-52.781 479.749,-50.1293"/>
<polygon fill="#191970" stroke="#191970" points="479.953,-53.6241 489.8072,-49.7326 479.677,-46.6295 479.953,-53.6241"/>
</g>
<!-- Node296 -->
<g id="node16" class="node">
<title>Node296</title>
<g id="a_node16"><a xlink:href="namespaceios__common.xhtml#a66b4e97a85f71f85bc4f53af5819c234" target="_top" xlink:title="ios_common::io_server\l_for_unit">
<polygon fill="#ffffff" stroke="#000000" points="310,-273.6687 310,-303.6687 440,-303.6687 440,-273.6687 310,-273.6687"/>
<text text-anchor="start" x="318" y="-291.6687" font-family="Helvetica,sans-Serif" font-size="10.00" fill="#000000">ios_common::io_server</text>
<text text-anchor="middle" x="375" y="-280.6687" font-family="Helvetica,sans-Serif" font-size="10.00" fill="#000000">_for_unit</text>
</a>
</g>
</g>
<!-- Node284&#45;&gt;Node296 -->
<g id="edge24" class="edge">
<title>Node284&#45;&gt;Node296</title>
<path fill="none" stroke="#191970" d="M257.9241,-274.1169C271.4015,-275.792 285.8694,-277.5903 299.8794,-279.3316"/>
<polygon fill="#191970" stroke="#191970" points="299.6238,-282.8267 309.9792,-280.587 300.4873,-275.8802 299.6238,-282.8267"/>
</g>
<!-- Node297 -->
<g id="node17" class="node">
<title>Node297</title>
<g id="a_node17"><a xlink:href="namespaceios__common.xhtml#a7ff67c62d278ec0aad0a979c736996c9" target="_top" xlink:title="ios_common::ioserverno">
<polygon fill="#ffffff" stroke="#000000" points="663.5,-352.1687 663.5,-371.1687 800.5,-371.1687 800.5,-352.1687 663.5,-352.1687"/>
<text text-anchor="middle" x="732" y="-359.1687" font-family="Helvetica,sans-Serif" font-size="10.00" fill="#000000">ios_common::ioserverno</text>
</a>
</g>
</g>
<!-- Node284&#45;&gt;Node297 -->
<g id="edge27" class="edge">
<title>Node284&#45;&gt;Node297</title>
<path fill="none" stroke="#191970" d="M214.4548,-281.8697C235.1545,-300.1298 272.544,-330.3385 310,-346.6687 438.2687,-402.5918 483.5912,-392.728 623,-380.6687 640.9175,-379.1187 660.3084,-376.1612 677.6985,-373.0329"/>
<polygon fill="#191970" stroke="#191970" points="678.4865,-376.4465 687.68,-371.1807 677.2093,-369.564 678.4865,-376.4465"/>
</g>
<!-- Node298 -->
<g id="node18" class="node">
<title>Node298</title>
<g id="a_node18"><a xlink:href="namespaceios__client__queue.xhtml#a9b6ce597cb41097a50bacde8955fa2e7" target="_top" xlink:title="ios_client_queue::ios\l_consume_client_mem">
<polygon fill="#ffffff" stroke="#000000" points="310.5,-118.6687 310.5,-148.6687 439.5,-148.6687 439.5,-118.6687 310.5,-118.6687"/>
<text text-anchor="start" x="318.5" y="-136.6687" font-family="Helvetica,sans-Serif" font-size="10.00" fill="#000000">ios_client_queue::ios</text>
<text text-anchor="middle" x="375" y="-125.6687" font-family="Helvetica,sans-Serif" font-size="10.00" fill="#000000">_consume_client_mem</text>
</a>
</g>
</g>
<!-- Node284&#45;&gt;Node298 -->
<g id="edge28" class="edge">
<title>Node284&#45;&gt;Node298</title>
<path fill="none" stroke="#191970" d="M257.6104,-252.0564C263.4924,-249.1857 269.0911,-245.7585 274,-241.6687 299.6712,-220.281 287.2674,-200.1568 310,-175.6687 317.6283,-167.4512 327.1906,-160.1281 336.6153,-153.9895"/>
<polygon fill="#191970" stroke="#191970" points="338.5114,-156.9322 345.1725,-148.6933 334.8274,-150.9799 338.5114,-156.9322"/>
</g>
<!-- Node285&#45;&gt;Node286 -->
<g id="edge5" class="edge">
<title>Node285&#45;&gt;Node286</title>
<path fill="none" stroke="#191970" d="M432.755,-202.1247C492.1638,-203.6224 585.1654,-205.9669 651.7172,-207.6447"/>
<polygon fill="#191970" stroke="#191970" points="651.6641,-211.1444 661.7492,-207.8976 651.8406,-204.1466 651.6641,-211.1444"/>
</g>
<!-- Node286&#45;&gt;Node287 -->
<g id="edge6" class="edge">
<title>Node286&#45;&gt;Node287</title>
<path fill="none" stroke="#191970" d="M779.8681,-200.1202C848.5352,-186.4228 975.0541,-161.1854 1050.862,-146.0636"/>
<polygon fill="#191970" stroke="#191970" points="1051.6342,-149.4786 1060.7563,-144.09 1050.2648,-142.6139 1051.6342,-149.4786"/>
</g>
<!-- Node292 -->
<g id="node12" class="node">
<title>Node292</title>
<g id="a_node12"><a xlink:href="namespaceios__common.xhtml#ade38472c488c019e816ec75cb70ab3cc" target="_top" xlink:title="ios_common::ios_report_md">
<polygon fill="#ffffff" stroke="#000000" points="841,-200.1687 841,-219.1687 996,-219.1687 996,-200.1687 841,-200.1687"/>
<text text-anchor="middle" x="918.5" y="-207.1687" font-family="Helvetica,sans-Serif" font-size="10.00" fill="#000000">ios_common::ios_report_md</text>
</a>
</g>
</g>
<!-- Node286&#45;&gt;Node292 -->
<g id="edge12" class="edge">
<title>Node286&#45;&gt;Node292</title>
<path fill="none" stroke="#191970" d="M802.2419,-209.6687C811.493,-209.6687 821.0663,-209.6687 830.5659,-209.6687"/>
<polygon fill="#191970" stroke="#191970" points="830.8262,-213.1688 840.8262,-209.6687 830.8262,-206.1688 830.8262,-213.1688"/>
</g>
<!-- Node288 -->
<g id="node8" class="node">
<title>Node288</title>
<g id="a_node8"><a xlink:href="namespaceumprintmgr.xhtml#aae44897e556705dbf5e945a26538be9a" target="_top" xlink:title="umprintmgr::umprint">
<polygon fill="#ffffff" stroke="#000000" points="1230,-124.1687 1230,-143.1687 1349,-143.1687 1349,-124.1687 1230,-124.1687"/>
<text text-anchor="middle" x="1289.5" y="-131.1687" font-family="Helvetica,sans-Serif" font-size="10.00" fill="#000000">umprintmgr::umprint</text>
</a>
</g>
</g>
<!-- Node287&#45;&gt;Node288 -->
<g id="edge7" class="edge">
<title>Node287&#45;&gt;Node288</title>
<path fill="none" stroke="#191970" d="M1165.0012,-133.6687C1182.1607,-133.6687 1201.5332,-133.6687 1219.796,-133.6687"/>
<polygon fill="#191970" stroke="#191970" points="1219.8067,-137.1688 1229.8067,-133.6687 1219.8067,-130.1688 1219.8067,-137.1688"/>
</g>
<!-- Node289 -->
<g id="node9" class="node">
<title>Node289</title>
<g id="a_node9"><a xlink:href="namespaceumprintmgr.xhtml#a088ce22a18d574e9df7ee1850bfb10c7" target="_top" xlink:title="umprintmgr::umprintopenstream">
<polygon fill="#ffffff" stroke="#000000" points="1385,-124.1687 1385,-143.1687 1562,-143.1687 1562,-124.1687 1385,-124.1687"/>
<text text-anchor="middle" x="1473.5" y="-131.1687" font-family="Helvetica,sans-Serif" font-size="10.00" fill="#000000">umprintmgr::umprintopenstream</text>
</a>
</g>
</g>
<!-- Node288&#45;&gt;Node289 -->
<g id="edge8" class="edge">
<title>Node288&#45;&gt;Node289</title>
<path fill="none" stroke="#191970" d="M1349.2395,-127.3019C1357.4605,-127.0987 1366.0751,-126.9764 1374.7702,-126.9347"/>
<polygon fill="#191970" stroke="#191970" points="1374.9998,-130.4346 1384.9958,-126.923 1374.9917,-123.4346 1374.9998,-130.4346"/>
</g>
<!-- Node290 -->
<g id="node10" class="node">
<title>Node290</title>
<g id="a_node10"><a xlink:href="namespaceumprintmgr.xhtml#ad3a290b30a6e25500eabc0bf90330b77" target="_top" xlink:title="umprintmgr::umprintflush">
<polygon fill="#ffffff" stroke="#000000" points="1402.5,-86.1687 1402.5,-105.1687 1544.5,-105.1687 1544.5,-86.1687 1402.5,-86.1687"/>
<text text-anchor="middle" x="1473.5" y="-93.1687" font-family="Helvetica,sans-Serif" font-size="10.00" fill="#000000">umprintmgr::umprintflush</text>
</a>
</g>
</g>
<!-- Node288&#45;&gt;Node290 -->
<g id="edge10" class="edge">
<title>Node288&#45;&gt;Node290</title>
<path fill="none" stroke="#191970" d="M1335.931,-124.0797C1360.6493,-118.9748 1391.239,-112.6573 1417.292,-107.2768"/>
<polygon fill="#191970" stroke="#191970" points="1418.3175,-110.639 1427.4029,-105.1887 1416.9017,-103.7837 1418.3175,-110.639"/>
</g>
<!-- Node289&#45;&gt;Node288 -->
<g id="edge9" class="edge">
<title>Node289&#45;&gt;Node288</title>
<path fill="none" stroke="#191970" d="M1384.9958,-140.4143C1376.3802,-140.4357 1367.7236,-140.378 1359.3289,-140.2413"/>
<polygon fill="#191970" stroke="#191970" points="1359.3089,-136.7403 1349.2395,-140.0354 1359.166,-143.7388 1359.3089,-136.7403"/>
</g>
<!-- Node291 -->
<g id="node11" class="node">
<title>Node291</title>
<g id="a_node11"><a xlink:href="namespaceumflush__mod.xhtml#a3a003ab59990bdcb712b443dd5e0d1cd" target="_top" xlink:title="umflush_mod::umflush">
<polygon fill="#ffffff" stroke="#000000" points="1598,-86.1687 1598,-105.1687 1726,-105.1687 1726,-86.1687 1598,-86.1687"/>
<text text-anchor="middle" x="1662" y="-93.1687" font-family="Helvetica,sans-Serif" font-size="10.00" fill="#000000">umflush_mod::umflush</text>
</a>
</g>
</g>
<!-- Node290&#45;&gt;Node291 -->
<g id="edge11" class="edge">
<title>Node290&#45;&gt;Node291</title>
<path fill="none" stroke="#191970" d="M1544.7638,-95.6687C1558.7742,-95.6687 1573.5063,-95.6687 1587.6162,-95.6687"/>
<polygon fill="#191970" stroke="#191970" points="1587.7612,-99.1688 1597.7611,-95.6687 1587.7611,-92.1688 1587.7612,-99.1688"/>
</g>
<!-- Node292&#45;&gt;Node287 -->
<g id="edge13" class="edge">
<title>Node292&#45;&gt;Node287</title>
<path fill="none" stroke="#191970" d="M952.3619,-200.1272C966.0372,-196.0296 981.891,-190.9675 996,-185.6687 1021.8554,-175.9582 1050.1741,-163.4243 1072.4743,-153.0951"/>
<polygon fill="#191970" stroke="#191970" points="1074.057,-156.2189 1081.6384,-148.818 1071.0965,-149.8758 1074.057,-156.2189"/>
</g>
<!-- Node292&#45;&gt;Node293 -->
<g id="edge14" class="edge">
<title>Node292&#45;&gt;Node293</title>
<path fill="none" stroke="#191970" d="M934.7484,-219.1922C968.7143,-239.1002 1047.4293,-285.2365 1087.9312,-308.9754"/>
<polygon fill="#191970" stroke="#191970" points="1086.2639,-312.055 1096.661,-314.0921 1089.8035,-306.0159 1086.2639,-312.055"/>
</g>
<!-- Node294&#45;&gt;Node286 -->
<g id="edge23" class="edge">
<title>Node294&#45;&gt;Node286</title>
<path fill="none" stroke="#191970" d="M566.9989,-66.8184C601.3579,-96.5649 677.3852,-162.3857 712.9548,-193.1802"/>
<polygon fill="#191970" stroke="#191970" points="710.836,-195.9753 720.6872,-199.8745 715.4177,-190.683 710.836,-195.9753"/>
</g>
<!-- Node294&#45;&gt;Node287 -->
<g id="edge19" class="edge">
<title>Node294&#45;&gt;Node287</title>
<path fill="none" stroke="#191970" d="M609.0436,-52.5891C660.9364,-53.894 738.1442,-57.0477 805,-64.6687 890.6686,-74.4341 912.1149,-78.7248 996,-98.6687 1016.2925,-103.4933 1038.2672,-109.7786 1057.6343,-115.6894"/>
<polygon fill="#191970" stroke="#191970" points="1056.619,-119.0389 1067.2065,-118.6444 1058.6838,-112.3504 1056.619,-119.0389"/>
</g>
<!-- Node295 -->
<g id="node15" class="node">
<title>Node295</title>
<g id="a_node15"><a xlink:href="namespaceios__client__queue.xhtml#a9df32aa21836ca6d0c9912866fc9a3e8" target="_top" xlink:title="ios_client_queue::ios\l_print_protocol_slot">
<polygon fill="#ffffff" stroke="#000000" points="672.5,-74.6687 672.5,-104.6687 791.5,-104.6687 791.5,-74.6687 672.5,-74.6687"/>
<text text-anchor="start" x="680.5" y="-92.6687" font-family="Helvetica,sans-Serif" font-size="10.00" fill="#000000">ios_client_queue::ios</text>
<text text-anchor="middle" x="732" y="-81.6687" font-family="Helvetica,sans-Serif" font-size="10.00" fill="#000000">_print_protocol_slot</text>
</a>
</g>
</g>
<!-- Node294&#45;&gt;Node295 -->
<g id="edge20" class="edge">
<title>Node294&#45;&gt;Node295</title>
<path fill="none" stroke="#191970" d="M609.0048,-64.0587C625.9605,-67.5892 644.5868,-71.4675 662.1012,-75.1144"/>
<polygon fill="#191970" stroke="#191970" points="661.7604,-78.6184 672.2639,-77.2305 663.1874,-71.7654 661.7604,-78.6184"/>
</g>
<!-- Node295&#45;&gt;Node287 -->
<g id="edge21" class="edge">
<title>Node295&#45;&gt;Node287</title>
<path fill="none" stroke="#191970" d="M791.5138,-96.3295C845.0282,-102.3431 925.7844,-111.4783 996,-119.6687 1013.7503,-121.7392 1033.0101,-124.0268 1050.6823,-126.1422"/>
<polygon fill="#191970" stroke="#191970" points="1050.535,-129.6496 1060.8806,-127.365 1051.3684,-122.6993 1050.535,-129.6496"/>
</g>
<!-- Node295&#45;&gt;Node292 -->
<g id="edge22" class="edge">
<title>Node295&#45;&gt;Node292</title>
<path fill="none" stroke="#191970" d="M755.6204,-104.8667C791.4309,-127.9084 859.0714,-171.4304 894.8811,-194.4715"/>
<polygon fill="#191970" stroke="#191970" points="893.3697,-197.6609 903.6731,-200.1286 897.1574,-191.7742 893.3697,-197.6609"/>
</g>
<!-- Node296&#45;&gt;Node282 -->
<g id="edge26" class="edge">
<title>Node296&#45;&gt;Node282</title>
<path fill="none" stroke="#191970" d="M411.1565,-303.7943C442.3685,-316.8515 487.0494,-335.5432 517.1104,-348.1189"/>
<polygon fill="#191970" stroke="#191970" points="516.1279,-351.5017 526.704,-352.1322 518.8294,-345.044 516.1279,-351.5017"/>
</g>
<!-- Node296&#45;&gt;Node286 -->
<g id="edge25" class="edge">
<title>Node296&#45;&gt;Node286</title>
<path fill="none" stroke="#191970" d="M440.1087,-287.5332C490.8048,-285.2345 562.4866,-278.8593 623,-261.6687 653.5698,-252.9844 686.1504,-236.355 707.6445,-224.2329"/>
<polygon fill="#191970" stroke="#191970" points="709.4926,-227.2077 716.4159,-219.1878 706.0025,-221.1398 709.4926,-227.2077"/>
</g>
<!-- Node298&#45;&gt;Node286 -->
<g id="edge29" class="edge">
<title>Node298&#45;&gt;Node286</title>
<path fill="none" stroke="#191970" d="M439.65,-147.4317C507.645,-161.9068 613.4671,-184.4348 677.4119,-198.0477"/>
<polygon fill="#191970" stroke="#191970" points="676.7932,-201.4943 687.3029,-200.1533 678.2508,-194.6477 676.7932,-201.4943"/>
</g>
<!-- Node298&#45;&gt;Node287 -->
<g id="edge30" class="edge">
<title>Node298&#45;&gt;Node287</title>
<path fill="none" stroke="#191970" d="M439.5234,-133.6687C580.0033,-133.6687 912.0262,-133.6687 1050.5754,-133.6687"/>
<polygon fill="#191970" stroke="#191970" points="1050.6076,-137.1688 1060.6075,-133.6687 1050.6075,-130.1688 1050.6076,-137.1688"/>
</g>
<!-- Node298&#45;&gt;Node294 -->
<g id="edge31" class="edge">
<title>Node298&#45;&gt;Node294</title>
<path fill="none" stroke="#191970" d="M402.5412,-118.6568C422.6665,-107.8924 450.7405,-93.2988 476,-81.6687 484.0954,-77.9413 492.7907,-74.1829 501.2663,-70.6469"/>
<polygon fill="#191970" stroke="#191970" points="502.7846,-73.8068 510.6984,-66.7626 500.119,-67.3342 502.7846,-73.8068"/>
</g>
<!-- Node298&#45;&gt;Node295 -->
<g id="edge32" class="edge">
<title>Node298&#45;&gt;Node295</title>
<path fill="none" stroke="#191970" d="M439.6292,-124.5038C451.7104,-122.8492 464.2352,-121.1732 476,-119.6687 539.0435,-111.6063 610.933,-103.2556 662.4472,-97.4183"/>
<polygon fill="#191970" stroke="#191970" points="662.9263,-100.8866 672.4697,-96.2852 662.1398,-93.9309 662.9263,-100.8866"/>
</g>
<!-- Node300&#45;&gt;Node286 -->
<g id="edge39" class="edge">
<title>Node300&#45;&gt;Node286</title>
<path fill="none" stroke="#191970" d="M564.8224,-428.0756C580.6226,-417.6898 605.3739,-399.9986 623,-380.6687 667.9297,-331.3958 706.0424,-261.4275 722.8308,-228.3598"/>
<polygon fill="#191970" stroke="#191970" points="725.9962,-229.8551 727.3403,-219.3459 719.7359,-226.7232 725.9962,-229.8551"/>
</g>
<!-- Node300&#45;&gt;Node287 -->
<g id="edge37" class="edge">
<title>Node300&#45;&gt;Node287</title>
<path fill="none" stroke="#191970" d="M605.9639,-428.1315C670.1006,-416.7654 770.3504,-397.2289 805,-380.6687 928.0213,-321.8726 1045.8286,-205.3102 1092.2431,-156.2584"/>
<polygon fill="#191970" stroke="#191970" points="1095.0301,-158.4032 1099.3197,-148.7155 1089.9251,-153.6138 1095.0301,-158.4032"/>
</g>
<!-- Node300&#45;&gt;Node293 -->
<g id="edge38" class="edge">
<title>Node300&#45;&gt;Node293</title>
<path fill="none" stroke="#191970" d="M594.0254,-447.1807C613.8196,-450.9461 637.4699,-454.8146 659,-456.6687 809.4353,-469.6233 859.2976,-477.7864 996,-413.6687 1035.9122,-394.9486 1075.0151,-360.7485 1096.3745,-340.3254"/>
<polygon fill="#191970" stroke="#191970" points="1098.9344,-342.7179 1103.6566,-333.2336 1094.0506,-337.703 1098.9344,-342.7179"/>
</g>
<!-- Node300&#45;&gt;Node297 -->
<g id="edge35" class="edge">
<title>Node300&#45;&gt;Node297</title>
<path fill="none" stroke="#191970" d="M587.1612,-428.1116C598.9871,-424.3967 611.8568,-419.5884 623,-413.6687 640.9006,-404.1591 641.109,-395.1963 659,-385.6687 667.1287,-381.3398 676.1815,-377.6005 685.0691,-374.4474"/>
<polygon fill="#191970" stroke="#191970" points="686.2262,-377.751 694.5966,-371.256 684.0027,-371.1135 686.2262,-377.751"/>
</g>
<!-- Node301 -->
<g id="node21" class="node">
<title>Node301</title>
<g id="a_node21"><a xlink:href="namespaceios__common.xhtml#a3976806ac3c1c9b09b572dff6c77d79f" target="_top" xlink:title="ios_common::ioserverrank">
<polygon fill="#ffffff" stroke="#000000" points="659,-428.1687 659,-447.1687 805,-447.1687 805,-428.1687 659,-428.1687"/>
<text text-anchor="middle" x="732" y="-435.1687" font-family="Helvetica,sans-Serif" font-size="10.00" fill="#000000">ios_common::ioserverrank</text>
</a>
</g>
</g>
<!-- Node300&#45;&gt;Node301 -->
<g id="edge36" class="edge">
<title>Node300&#45;&gt;Node301</title>
<path fill="none" stroke="#191970" d="M623.2037,-437.6687C631.665,-437.6687 640.3355,-437.6687 648.9092,-437.6687"/>
<polygon fill="#191970" stroke="#191970" points="648.9111,-441.1688 658.9111,-437.6687 648.911,-434.1688 648.9111,-441.1688"/>
</g>
</g>
</svg>
        <g id="navigator" transform="translate(0 0)" fill="#404254">
                <rect fill="#f2f5e9" fill-opacity="0.5" stroke="#606060" stroke-width=".5" x="0" y="0" width="60" height="60"/>
                <use id="zoomplus" xlink:href="#zoomPlus" x="17" y="9" onmousedown="handleZoom(evt,'in')"/>
                <use id="zoomminus" xlink:href="#zoomMin" x="42" y="9" onmousedown="handleZoom(evt,'out')"/>
                <use id="reset" xlink:href="#resetDef" x="30" y="36" onmousedown="handleReset()"/>
                <g id="arrowUp" xlink:href="#dirArrow" transform="translate(30 24)" onmousedown="handlePan(0,-1)">
                  <use xlink:href="#rim" fill="#404040">
                        <set attributeName="fill" to="#808080" begin="arrowUp.mouseover" end="arrowUp.mouseout"/>
                  </use>
                  <path fill="none" stroke="white" stroke-width="1.5" d="M0,-3.0v7 M-2.5,-0.5L0,-3.0L2.5,-0.5"/>
                </g>
                <g id="arrowRight" xlink:href="#dirArrow" transform="rotate(90) translate(36 -43)" onmousedown="handlePan(1,0)">
                  <use xlink:href="#rim" fill="#404040">
                        <set attributeName="fill" to="#808080" begin="arrowRight.mouseover" end="arrowRight.mouseout"/>
                  </use>
                  <path fill="none" stroke="white" stroke-width="1.5" d="M0,-3.0v7 M-2.5,-0.5L0,-3.0L2.5,-0.5"/>
                </g>
                <g id="arrowDown" xlink:href="#dirArrow" transform="rotate(180) translate(-30 -48)" onmousedown="handlePan(0,1)">
                  <use xlink:href="#rim" fill="#404040">
                        <set attributeName="fill" to="#808080" begin="arrowDown.mouseover" end="arrowDown.mouseout"/>
                  </use>
                  <path fill="none" stroke="white" stroke-width="1.5" d="M0,-3.0v7 M-2.5,-0.5L0,-3.0L2.5,-0.5"/>
                </g>
                <g id="arrowLeft" xlink:href="#dirArrow" transform="rotate(270) translate(-36 17)" onmousedown="handlePan(-1,0)">
                  <use xlink:href="#rim" fill="#404040">
                        <set attributeName="fill" to="#808080" begin="arrowLeft.mouseover" end="arrowLeft.mouseout"/>
                  </use>
                  <path fill="none" stroke="white" stroke-width="1.5" d="M0,-3.0v7 M-2.5,-0.5L0,-3.0L2.5,-0.5"/>
                </g>
        </g>
        <svg viewBox="0 0 15 15" width="100%" height="30px" preserveAspectRatio="xMaxYMin meet">
         <g id="arrow_out" transform="scale(0.3 0.3)">
          <a xlink:href="namespaceios_a38e422fd5dac7434b0d0fc454a3cb264_cgraph_org.svg" target="_base">
           <rect id="button" ry="5" rx="5" y="6" x="6" height="38" width="38"
                fill="#f2f5e9" fill-opacity="0.5" stroke="#606060" stroke-width="1.0"/>
           <path id="arrow"
             d="M 11.500037,31.436501 C 11.940474,20.09759 22.043105,11.32322 32.158766,21.979434 L 37.068811,17.246167 C 37.068811,17.246167 37.088388,32 37.088388,32 L 22.160133,31.978069 C 22.160133,31.978069 26.997745,27.140456 26.997745,27.140456 C 18.528582,18.264221 13.291696,25.230495 11.500037,31.436501 z"
             style="fill:#404040;"/>
          </a>
         </g>
        </svg>
</svg>
