<?xml version="1.0" encoding="UTF-8" standalone="no"?>
<!DOCTYPE svg PUBLIC "-//W3C//DTD SVG 1.1//EN"
 "http://www.w3.org/Graphics/SVG/1.1/DTD/svg11.dtd">
<!-- Generated by graphviz version 2.40.1 (20161225.0304)
 -->
<!-- Title: mppio_file_utils::file_copy Pages: 1 -->
<!--zoomable 66 -->
<svg id="main" version="1.1" xmlns="http://www.w3.org/2000/svg" xmlns:xlink="http://www.w3.org/1999/xlink" xml:space="preserve" onload="init(evt)">
<style type="text/css"><![CDATA[
.edge:hover path { stroke: red; }
.edge:hover polygon { stroke: red; fill: red; }
]]></style>
<script type="text/javascript"><![CDATA[
var edges = document.getElementsByTagName('g');
if (edges && edges.length) {
  for (var i=0;i<edges.length;i++) {
    if (edges[i].id.substr(0,4)=='edge') {
      edges[i].setAttribute('class','edge');
    }
  }
}
]]></script>
        <defs>
                <circle id="rim" cx="0" cy="0" r="7"/>
                <circle id="rim2" cx="0" cy="0" r="3.5"/>
                <g id="zoomPlus">
                        <use xlink:href="#rim" fill="#404040">
                                <set attributeName="fill" to="#808080" begin="zoomplus.mouseover" end="zoomplus.mouseout"/>
                        </use>
                        <path d="M-4,0h8M0,-4v8" fill="none" stroke="white" stroke-width="1.5" pointer-events="none"/>
                </g>
                <g id="zoomMin">
                        <use xlink:href="#rim" fill="#404040">
                                <set attributeName="fill" to="#808080" begin="zoomminus.mouseover" end="zoomminus.mouseout"/>
                        </use>
                        <path d="M-4,0h8" fill="none" stroke="white" stroke-width="1.5" pointer-events="none"/>
                </g>
                <g id="dirArrow">
                        <path fill="none" stroke="white" stroke-width="1.5" d="M0,-3.0v7 M-2.5,-0.5L0,-3.0L2.5,-0.5"/>
                </g>
               <g id="resetDef">
                       <use xlink:href="#rim2" fill="#404040">
                               <set attributeName="fill" to="#808080" begin="reset.mouseover" end="reset.mouseout"/>
                       </use>
               </g>
        </defs>

<script type="text/javascript">
var viewWidth = 554;
var viewHeight = 66;
var sectionId = 'dynsection-5';
</script>
<script xlink:href="svgpan.js"/>
<svg id="graph" class="graph">
<g id="viewport">
<title>mppio_file_utils::file_copy</title>
<polygon fill="#ffffff" stroke="transparent" points="-4,4 -4,-62 550,-62 550,4 -4,4"/>
<!-- Node116 -->
<g id="node1" class="node">
<title>Node116</title>
<polygon fill="#bfbfbf" stroke="#000000" points="0,-19.5 0,-38.5 143,-38.5 143,-19.5 0,-19.5"/>
<text text-anchor="middle" x="71.5" y="-26.5" font-family="Helvetica,sans-Serif" font-size="10.00" fill="#000000">mppio_file_utils::file_copy</text>
</g>
<!-- Node117 -->
<g id="node2" class="node">
<title>Node117</title>
<g id="a_node2"><a xlink:href="temphist_8f90.xhtml#a4bcbe6438654eaf785414c7294a25c75" target="_top" xlink:title="Routine : TEMPHIST !&gt; ">
<polygon fill="#ffffff" stroke="#000000" points="179,-19.5 179,-38.5 239,-38.5 239,-19.5 179,-19.5"/>
<text text-anchor="middle" x="209" y="-26.5" font-family="Helvetica,sans-Serif" font-size="10.00" fill="#000000">temphist</text>
</a>
</g>
</g>
<!-- Node116&#45;&gt;Node117 -->
<g id="edge1" class="edge">
<title>Node116&#45;&gt;Node117</title>
<path fill="none" stroke="#191970" d="M153.0977,-29C162.2554,-29 171.0977,-29 178.9432,-29"/>
<polygon fill="#191970" stroke="#191970" points="153.0692,-25.5001 143.0691,-29 153.0691,-32.5001 153.0692,-25.5001"/>
</g>
<!-- Node118 -->
<g id="node3" class="node">
<title>Node118</title>
<g id="a_node3"><a xlink:href="u__model_8f90.xhtml#ada0cd2ce4699433bf0f9adbd882c8eec" target="_top" xlink:title="Subroutine: U_MODEL &#45;!&gt; ">
<polygon fill="#ffffff" stroke="#000000" points="283.5,-38.5 283.5,-57.5 342.5,-57.5 342.5,-38.5 283.5,-38.5"/>
<text text-anchor="middle" x="313" y="-45.5" font-family="Helvetica,sans-Serif" font-size="10.00" fill="#000000">u_model</text>
</a>
</g>
</g>
<!-- Node117&#45;&gt;Node118 -->
<g id="edge2" class="edge">
<title>Node117&#45;&gt;Node118</title>
<path fill="none" stroke="#191970" d="M249.2229,-36.3484C260.5811,-38.4235 272.7305,-40.6431 283.3456,-42.5824"/>
<polygon fill="#191970" stroke="#191970" points="249.5473,-32.8498 239.0811,-34.4956 248.2893,-39.7359 249.5473,-32.8498"/>
</g>
<!-- Node121 -->
<g id="node6" class="node">
<title>Node121</title>
<g id="a_node6"><a xlink:href="u__model__4_a_8f90.xhtml#afa05064dab5eba198b461d0928767c7e" target="_top" xlink:title="LL Subroutine: U_MODEL_4A (ENDGAME VERSION) !&gt;LL. ">
<polygon fill="#ffffff" stroke="#000000" points="275,-.5 275,-19.5 351,-19.5 351,-.5 275,-.5"/>
<text text-anchor="middle" x="313" y="-7.5" font-family="Helvetica,sans-Serif" font-size="10.00" fill="#000000">u_model_4a</text>
</a>
</g>
</g>
<!-- Node117&#45;&gt;Node121 -->
<g id="edge5" class="edge">
<title>Node117&#45;&gt;Node121</title>
<path fill="none" stroke="#191970" d="M249.1061,-21.6729C257.5577,-20.1289 266.4522,-18.5039 274.8302,-16.9733"/>
<polygon fill="#191970" stroke="#191970" points="248.2893,-18.2641 239.0811,-23.5044 249.5473,-25.1502 248.2893,-18.2641"/>
</g>
<!-- Node119 -->
<g id="node4" class="node">
<title>Node119</title>
<g id="a_node4"><a xlink:href="um__shell_8f90.xhtml#a8c9bd25362824a5c301376ecb5ed5c27" target="_top" xlink:title="Subroutine: UM_SHELL !&gt; ">
<polygon fill="#ffffff" stroke="#000000" points="387,-19.5 387,-38.5 448,-38.5 448,-19.5 387,-19.5"/>
<text text-anchor="middle" x="417.5" y="-26.5" font-family="Helvetica,sans-Serif" font-size="10.00" fill="#000000">um_shell</text>
</a>
</g>
</g>
<!-- Node118&#45;&gt;Node119 -->
<g id="edge3" class="edge">
<title>Node118&#45;&gt;Node119</title>
<path fill="none" stroke="#191970" d="M352.701,-40.7816C363.951,-38.7362 376.0261,-36.5407 386.6677,-34.6059"/>
<polygon fill="#191970" stroke="#191970" points="351.8786,-37.3737 342.666,-42.6062 353.1308,-44.2608 351.8786,-37.3737"/>
</g>
<!-- Node120 -->
<g id="node5" class="node">
<title>Node120</title>
<g id="a_node5"><a xlink:href="um__main_8f90.xhtml#a8f2d13215621443a5313261c282f098b" target="_top" xlink:title="Code Owner: See Unified Model Code Owner&#39;s HTML page. ">
<polygon fill="#ffffff" stroke="#000000" points="484,-19.5 484,-38.5 546,-38.5 546,-19.5 484,-19.5"/>
<text text-anchor="middle" x="515" y="-26.5" font-family="Helvetica,sans-Serif" font-size="10.00" fill="#000000">um_main</text>
</a>
</g>
</g>
<!-- Node119&#45;&gt;Node120 -->
<g id="edge4" class="edge">
<title>Node119&#45;&gt;Node120</title>
<path fill="none" stroke="#191970" d="M458.2756,-29C466.8294,-29 475.72,-29 483.8551,-29"/>
<polygon fill="#191970" stroke="#191970" points="458.0821,-25.5001 448.0821,-29 458.0821,-32.5001 458.0821,-25.5001"/>
</g>
<!-- Node121&#45;&gt;Node119 -->
<g id="edge6" class="edge">
<title>Node121&#45;&gt;Node119</title>
<path fill="none" stroke="#191970" d="M360.8728,-18.7041C369.7087,-20.3107 378.7128,-21.9478 386.8647,-23.43"/>
<polygon fill="#191970" stroke="#191970" points="361.4873,-15.2586 351.0225,-16.9132 360.2351,-22.1457 361.4873,-15.2586"/>
</g>
</g>
</svg>
        <g id="navigator" transform="translate(0 0)" fill="#404254">
                <rect fill="#f2f5e9" fill-opacity="0.5" stroke="#606060" stroke-width=".5" x="0" y="0" width="60" height="60"/>
                <use id="zoomplus" xlink:href="#zoomPlus" x="17" y="9" onmousedown="handleZoom(evt,'in')"/>
                <use id="zoomminus" xlink:href="#zoomMin" x="42" y="9" onmousedown="handleZoom(evt,'out')"/>
                <use id="reset" xlink:href="#resetDef" x="30" y="36" onmousedown="handleReset()"/>
                <g id="arrowUp" xlink:href="#dirArrow" transform="translate(30 24)" onmousedown="handlePan(0,-1)">
                  <use xlink:href="#rim" fill="#404040">
                        <set attributeName="fill" to="#808080" begin="arrowUp.mouseover" end="arrowUp.mouseout"/>
                  </use>
                  <path fill="none" stroke="white" stroke-width="1.5" d="M0,-3.0v7 M-2.5,-0.5L0,-3.0L2.5,-0.5"/>
                </g>
                <g id="arrowRight" xlink:href="#dirArrow" transform="rotate(90) translate(36 -43)" onmousedown="handlePan(1,0)">
                  <use xlink:href="#rim" fill="#404040">
                        <set attributeName="fill" to="#808080" begin="arrowRight.mouseover" end="arrowRight.mouseout"/>
                  </use>
                  <path fill="none" stroke="white" stroke-width="1.5" d="M0,-3.0v7 M-2.5,-0.5L0,-3.0L2.5,-0.5"/>
                </g>
                <g id="arrowDown" xlink:href="#dirArrow" transform="rotate(180) translate(-30 -48)" onmousedown="handlePan(0,1)">
                  <use xlink:href="#rim" fill="#404040">
                        <set attributeName="fill" to="#808080" begin="arrowDown.mouseover" end="arrowDown.mouseout"/>
                  </use>
                  <path fill="none" stroke="white" stroke-width="1.5" d="M0,-3.0v7 M-2.5,-0.5L0,-3.0L2.5,-0.5"/>
                </g>
                <g id="arrowLeft" xlink:href="#dirArrow" transform="rotate(270) translate(-36 17)" onmousedown="handlePan(-1,0)">
                  <use xlink:href="#rim" fill="#404040">
                        <set attributeName="fill" to="#808080" begin="arrowLeft.mouseover" end="arrowLeft.mouseout"/>
                  </use>
                  <path fill="none" stroke="white" stroke-width="1.5" d="M0,-3.0v7 M-2.5,-0.5L0,-3.0L2.5,-0.5"/>
                </g>
        </g>
        <svg viewBox="0 0 15 15" width="100%" height="30px" preserveAspectRatio="xMaxYMin meet">
         <g id="arrow_out" transform="scale(0.3 0.3)">
          <a xlink:href="namespacemppio__file__utils_ae30e1dea0e4ae774b33b985890b466ac_icgraph_org.svg" target="_base">
           <rect id="button" ry="5" rx="5" y="6" x="6" height="38" width="38"
                fill="#f2f5e9" fill-opacity="0.5" stroke="#606060" stroke-width="1.0"/>
           <path id="arrow"
             d="M 11.500037,31.436501 C 11.940474,20.09759 22.043105,11.32322 32.158766,21.979434 L 37.068811,17.246167 C 37.068811,17.246167 37.088388,32 37.088388,32 L 22.160133,31.978069 C 22.160133,31.978069 26.997745,27.140456 26.997745,27.140456 C 18.528582,18.264221 13.291696,25.230495 11.500037,31.436501 z"
             style="fill:#404040;"/>
          </a>
         </g>
        </svg>
</svg>
