<?xml version="1.0" encoding="UTF-8" standalone="no"?>
<!DOCTYPE svg PUBLIC "-//W3C//DTD SVG 1.1//EN"
 "http://www.w3.org/Graphics/SVG/1.1/DTD/svg11.dtd">
<!-- Generated by graphviz version 2.40.1 (20161225.0304)
 -->
<!-- Title: rcf_general_scatter_field_mod::rcf_general_scatter_field Pages: 1 -->
<svg width="972pt" height="274pt"
 viewBox="0.00 0.00 972.00 274.00" xmlns="http://www.w3.org/2000/svg" xmlns:xlink="http://www.w3.org/1999/xlink">
<g id="graph0" class="graph" transform="scale(1 1) rotate(0) translate(4 270)">
<title>rcf_general_scatter_field_mod::rcf_general_scatter_field</title>
<polygon fill="#ffffff" stroke="transparent" points="-4,4 -4,-270 968,-270 968,4 -4,4"/>
<!-- Node0 -->
<g id="node1" class="node">
<title>Node0</title>
<polygon fill="#bfbfbf" stroke="#000000" points="0,-115 0,-156 131,-156 131,-115 0,-115"/>
<text text-anchor="start" x="8" y="-144" font-family="Helvetica,sans-Serif" font-size="10.00" fill="#000000">rcf_general_scatter</text>
<text text-anchor="start" x="8" y="-133" font-family="Helvetica,sans-Serif" font-size="10.00" fill="#000000">_field_mod::rcf_general</text>
<text text-anchor="middle" x="65.5" y="-122" font-family="Helvetica,sans-Serif" font-size="10.00" fill="#000000">_scatter_field</text>
</g>
<!-- Node1 -->
<g id="node2" class="node">
<title>Node1</title>
<g id="a_node2"><a xlink:href="namespacercf__scatter__atmos__lbcs__mod.xhtml#a5342aaec4bda78f19b20055530ff397c" target="_top" xlink:title="Subroutine Rcf_Scatter_Atmos_LBCs &#45; scatters atmos lbcs. ">
<polygon fill="#ffffff" stroke="#000000" points="168,-235.5 168,-265.5 330,-265.5 330,-235.5 168,-235.5"/>
<text text-anchor="start" x="176" y="-253.5" font-family="Helvetica,sans-Serif" font-size="10.00" fill="#000000">rcf_scatter_atmos_lbcs</text>
<text text-anchor="middle" x="249" y="-242.5" font-family="Helvetica,sans-Serif" font-size="10.00" fill="#000000">_mod::rcf_scatter_atmos_lbcs</text>
</a>
</g>
</g>
<!-- Node0&#45;&gt;Node1 -->
<g id="edge1" class="edge">
<title>Node0&#45;&gt;Node1</title>
<path fill="none" stroke="#191970" d="M83.7464,-156.2067C102.6958,-176.5306 134.1257,-207.0825 167,-225.5 170.9034,-227.6868 175.0208,-229.7048 179.2481,-231.5634"/>
<polygon fill="#191970" stroke="#191970" points="178.0559,-234.8569 188.6378,-235.3815 180.6927,-228.3725 178.0559,-234.8569"/>
</g>
<!-- Node5 -->
<g id="node6" class="node">
<title>Node5</title>
<g id="a_node6"><a xlink:href="namespacercf__global__to__local__mod.xhtml#a77b8a85bffb7822e380fae0f558091d1" target="_top" xlink:title="rcf_global_to_local\l_mod::rcf_get_fld_type">
<polygon fill="#ffffff" stroke="#000000" points="695,-144.5 695,-174.5 823,-174.5 823,-144.5 695,-144.5"/>
<text text-anchor="start" x="703" y="-162.5" font-family="Helvetica,sans-Serif" font-size="10.00" fill="#000000">rcf_global_to_local</text>
<text text-anchor="middle" x="759" y="-151.5" font-family="Helvetica,sans-Serif" font-size="10.00" fill="#000000">_mod::rcf_get_fld_type</text>
</a>
</g>
</g>
<!-- Node0&#45;&gt;Node5 -->
<g id="edge13" class="edge">
<title>Node0&#45;&gt;Node5</title>
<path fill="none" stroke="#191970" d="M131.0551,-137.7687C260.4623,-142.2471 547.9985,-152.1979 684.411,-156.9187"/>
<polygon fill="#191970" stroke="#191970" points="684.6442,-160.4288 694.7593,-157.2768 684.8864,-153.433 684.6442,-160.4288"/>
</g>
<!-- Node9 -->
<g id="node10" class="node">
<title>Node9</title>
<g id="a_node10"><a xlink:href="namespacercf__scatter__ocean__lbcs__mod.xhtml#adb7be158e2f9d58eb20232095e32af60" target="_top" xlink:title="Subroutine Rcf_Scatter_Ocean_LBCS &#45; scatters ocean lbc fields. ">
<polygon fill="#ffffff" stroke="#000000" points="168.5,-186.5 168.5,-216.5 329.5,-216.5 329.5,-186.5 168.5,-186.5"/>
<text text-anchor="start" x="176.5" y="-204.5" font-family="Helvetica,sans-Serif" font-size="10.00" fill="#000000">rcf_scatter_ocean_lbcs</text>
<text text-anchor="middle" x="249" y="-193.5" font-family="Helvetica,sans-Serif" font-size="10.00" fill="#000000">_mod::rcf_scatter_ocean_lbcs</text>
</a>
</g>
</g>
<!-- Node0&#45;&gt;Node9 -->
<g id="edge10" class="edge">
<title>Node0&#45;&gt;Node9</title>
<path fill="none" stroke="#191970" d="M122.5547,-156.021C146.4896,-164.6298 174.1189,-174.5673 197.4339,-182.9531"/>
<polygon fill="#191970" stroke="#191970" points="196.5441,-186.3525 207.1386,-186.4436 198.9133,-179.7656 196.5441,-186.3525"/>
</g>
<!-- Node10 -->
<g id="node11" class="node">
<title>Node10</title>
<g id="a_node11"><a xlink:href="namespacercf__scatter__zonal__field__mod.xhtml#aa88e1d8e831b3e772734ef53f13321cb" target="_top" xlink:title="Subroutine Rcf_Scatter_Zonal &#45; scatters a zonal field. ">
<polygon fill="#ffffff" stroke="#000000" points="169.5,-98.5 169.5,-128.5 328.5,-128.5 328.5,-98.5 169.5,-98.5"/>
<text text-anchor="start" x="177.5" y="-116.5" font-family="Helvetica,sans-Serif" font-size="10.00" fill="#000000">rcf_scatter_zonal_field</text>
<text text-anchor="middle" x="249" y="-105.5" font-family="Helvetica,sans-Serif" font-size="10.00" fill="#000000">_mod::rcf_scatter_zonal_field</text>
</a>
</g>
</g>
<!-- Node0&#45;&gt;Node10 -->
<g id="edge12" class="edge">
<title>Node0&#45;&gt;Node10</title>
<path fill="none" stroke="#191970" d="M131.2294,-127.6196C140.2921,-126.5331 149.724,-125.4023 159.1295,-124.2747"/>
<polygon fill="#191970" stroke="#191970" points="159.7942,-127.7201 169.3065,-123.0545 158.9609,-120.7699 159.7942,-127.7201"/>
</g>
<!-- Node11 -->
<g id="node12" class="node">
<title>Node11</title>
<g id="a_node12"><a xlink:href="namespacemask__compression.xhtml#acb339fbf0c2985509169d255246c5fd2" target="_top" xlink:title="Subroutine Compress_To_Mask &#45;!&gt; Purpose: Selects land points values from input horizontal field!&gt; and...">
<polygon fill="#ffffff" stroke="#000000" points="167,-49.5 167,-79.5 331,-79.5 331,-49.5 167,-49.5"/>
<text text-anchor="start" x="175" y="-67.5" font-family="Helvetica,sans-Serif" font-size="10.00" fill="#000000">mask_compression::compress</text>
<text text-anchor="middle" x="249" y="-56.5" font-family="Helvetica,sans-Serif" font-size="10.00" fill="#000000">_to_mask</text>
</a>
</g>
</g>
<!-- Node0&#45;&gt;Node11 -->
<g id="edge14" class="edge">
<title>Node0&#45;&gt;Node11</title>
<path fill="none" stroke="#191970" d="M106.3887,-114.8738C124.6658,-106.0971 146.6387,-96.1453 167,-88.5 172.4267,-86.4624 178.1073,-84.4876 183.838,-82.604"/>
<polygon fill="#191970" stroke="#191970" points="185.0295,-85.8977 193.4934,-79.525 182.9027,-79.2286 185.0295,-85.8977"/>
</g>
<!-- Node12 -->
<g id="node13" class="node">
<title>Node12</title>
<g id="a_node13"><a xlink:href="namespacemask__compression.xhtml#a52de765c26bfe8598cb6f6598e168940" target="_top" xlink:title="mask_compression::expand\l_from_mask">
<polygon fill="#ffffff" stroke="#000000" points="172.5,-.5 172.5,-30.5 325.5,-30.5 325.5,-.5 172.5,-.5"/>
<text text-anchor="start" x="180.5" y="-18.5" font-family="Helvetica,sans-Serif" font-size="10.00" fill="#000000">mask_compression::expand</text>
<text text-anchor="middle" x="249" y="-7.5" font-family="Helvetica,sans-Serif" font-size="10.00" fill="#000000">_from_mask</text>
</a>
</g>
</g>
<!-- Node0&#45;&gt;Node12 -->
<g id="edge15" class="edge">
<title>Node0&#45;&gt;Node12</title>
<path fill="none" stroke="#191970" d="M82.0383,-114.8893C100.5494,-93.1328 132.5026,-59.3043 167,-39.5 170.0512,-37.7483 173.241,-36.1153 176.5174,-34.5938"/>
<polygon fill="#191970" stroke="#191970" points="178.0994,-37.7246 185.9372,-30.5958 175.3646,-31.2809 178.0994,-37.7246"/>
</g>
<!-- Node2 -->
<g id="node3" class="node">
<title>Node2</title>
<g id="a_node3"><a xlink:href="namespacercf__level__code__mod.xhtml#ab662837c0414874b83675887f890c6ab" target="_top" xlink:title="Sets ILOUT to an appropriate level size according to the value of ILIN. ">
<polygon fill="#ffffff" stroke="#000000" points="545,-233.5 545,-263.5 659,-263.5 659,-233.5 545,-233.5"/>
<text text-anchor="start" x="553" y="-251.5" font-family="Helvetica,sans-Serif" font-size="10.00" fill="#000000">rcf_level_code_mod</text>
<text text-anchor="middle" x="602" y="-240.5" font-family="Helvetica,sans-Serif" font-size="10.00" fill="#000000">::rcf_level_code</text>
</a>
</g>
</g>
<!-- Node1&#45;&gt;Node2 -->
<g id="edge2" class="edge">
<title>Node1&#45;&gt;Node2</title>
<path fill="none" stroke="#191970" d="M330.4286,-250.0386C392.3742,-249.6877 476.5895,-249.2105 534.7372,-248.8811"/>
<polygon fill="#191970" stroke="#191970" points="534.9386,-252.3801 544.9186,-248.8234 534.8989,-245.3802 534.9386,-252.3801"/>
</g>
<!-- Node3 -->
<g id="node4" class="node">
<title>Node3</title>
<g id="a_node4"><a xlink:href="namespacercf__address__length__mod.xhtml#ac762ac17a67256a8b206cedfe7ace7e3" target="_top" xlink:title="Subroutine Rcf_Address_Length &#45; determines field size. ">
<polygon fill="#ffffff" stroke="#000000" points="367,-190.5 367,-220.5 509,-220.5 509,-190.5 367,-190.5"/>
<text text-anchor="start" x="375" y="-208.5" font-family="Helvetica,sans-Serif" font-size="10.00" fill="#000000">rcf_address_length</text>
<text text-anchor="middle" x="438" y="-197.5" font-family="Helvetica,sans-Serif" font-size="10.00" fill="#000000">_mod::rcf_address_length</text>
</a>
</g>
</g>
<!-- Node1&#45;&gt;Node3 -->
<g id="edge3" class="edge">
<title>Node1&#45;&gt;Node3</title>
<path fill="none" stroke="#191970" d="M312.197,-235.4531C329.0618,-231.4377 347.426,-227.0652 364.7803,-222.9333"/>
<polygon fill="#191970" stroke="#191970" points="365.9452,-226.2538 374.8625,-220.5327 364.3238,-219.4442 365.9452,-226.2538"/>
</g>
<!-- Node3&#45;&gt;Node2 -->
<g id="edge4" class="edge">
<title>Node3&#45;&gt;Node2</title>
<path fill="none" stroke="#191970" d="M495.3592,-220.5393C508.1668,-223.8974 521.8584,-227.4873 535.016,-230.9371"/>
<polygon fill="#191970" stroke="#191970" points="534.3893,-234.3911 544.9501,-233.5418 536.1647,-227.6199 534.3893,-234.3911"/>
</g>
<!-- Node4 -->
<g id="node5" class="node">
<title>Node4</title>
<g id="a_node5"><a xlink:href="lltorc_8f90.xhtml#a1b56b2e3d06737db1e41ebaca802bce6" target="_top" xlink:title="Convert lat/long specification to row/column specification. ">
<polygon fill="#ffffff" stroke="#000000" points="581.5,-195 581.5,-214 622.5,-214 622.5,-195 581.5,-195"/>
<text text-anchor="middle" x="602" y="-202" font-family="Helvetica,sans-Serif" font-size="10.00" fill="#000000">lltorc</text>
</a>
</g>
</g>
<!-- Node3&#45;&gt;Node4 -->
<g id="edge5" class="edge">
<title>Node3&#45;&gt;Node4</title>
<path fill="none" stroke="#191970" d="M509.4557,-205.0643C531.0432,-204.9327 553.6221,-204.795 571.0731,-204.6886"/>
<polygon fill="#191970" stroke="#191970" points="571.2431,-208.1877 581.2215,-204.6267 571.2003,-201.1878 571.2431,-208.1877"/>
</g>
<!-- Node4&#45;&gt;Node5 -->
<g id="edge6" class="edge">
<title>Node4&#45;&gt;Node5</title>
<path fill="none" stroke="#191970" d="M622.525,-198.617C641.3192,-193.2302 670.1307,-184.9721 696.4462,-177.4294"/>
<polygon fill="#191970" stroke="#191970" points="697.735,-180.701 706.3835,-174.5812 695.8062,-173.972 697.735,-180.701"/>
</g>
<!-- Node6 -->
<g id="node7" class="node">
<title>Node6</title>
<g id="a_node7"><a xlink:href="gt__decode_8f90.xhtml#a6e18f6bdab351d4581f650061e35c8f8" target="_top" xlink:title="Returns information about a given grid type. ">
<polygon fill="#ffffff" stroke="#000000" points="725.5,-195 725.5,-214 792.5,-214 792.5,-195 725.5,-195"/>
<text text-anchor="middle" x="759" y="-202" font-family="Helvetica,sans-Serif" font-size="10.00" fill="#000000">gt_decode</text>
</a>
</g>
</g>
<!-- Node4&#45;&gt;Node6 -->
<g id="edge7" class="edge">
<title>Node4&#45;&gt;Node6</title>
<path fill="none" stroke="#191970" d="M622.525,-204.5C645.8716,-204.5 684.676,-204.5 714.9515,-204.5"/>
<polygon fill="#191970" stroke="#191970" points="715.2654,-208.0001 725.2653,-204.5 715.2653,-201.0001 715.2654,-208.0001"/>
</g>
<!-- Node7 -->
<g id="node8" class="node">
<title>Node7</title>
<g id="a_node8"><a xlink:href="lltoll_8f90.xhtml#ab73fd16c9f8ff040d2480fe112b6a1cd" target="_top" xlink:title="Use subroutine LLTOEQ to convert to equatorial lat/lon for LAM. ">
<polygon fill="#ffffff" stroke="#000000" points="740,-233 740,-252 778,-252 778,-233 740,-233"/>
<text text-anchor="middle" x="759" y="-240" font-family="Helvetica,sans-Serif" font-size="10.00" fill="#000000">lltoll</text>
</a>
</g>
</g>
<!-- Node4&#45;&gt;Node7 -->
<g id="edge8" class="edge">
<title>Node4&#45;&gt;Node7</title>
<path fill="none" stroke="#191970" d="M622.525,-209.4678C650.0061,-216.1193 698.9047,-227.9546 730.1006,-235.5052"/>
<polygon fill="#191970" stroke="#191970" points="729.4021,-238.9372 739.9448,-237.8879 731.0489,-232.1336 729.4021,-238.9372"/>
</g>
<!-- Node8 -->
<g id="node9" class="node">
<title>Node8</title>
<g id="a_node9"><a xlink:href="namespacelltoeq__mod.xhtml#a3c9637ba83181ca868444be33867cdaa" target="_top" xlink:title="lltoeq_mod::lltoeq">
<polygon fill="#ffffff" stroke="#000000" points="859,-233 859,-252 964,-252 964,-233 859,-233"/>
<text text-anchor="middle" x="911.5" y="-240" font-family="Helvetica,sans-Serif" font-size="10.00" fill="#000000">lltoeq_mod::lltoeq</text>
</a>
</g>
</g>
<!-- Node7&#45;&gt;Node8 -->
<g id="edge9" class="edge">
<title>Node7&#45;&gt;Node8</title>
<path fill="none" stroke="#191970" d="M778.0059,-242.5C795.6902,-242.5 823.0554,-242.5 848.4166,-242.5"/>
<polygon fill="#191970" stroke="#191970" points="848.7546,-246.0001 858.7545,-242.5 848.7545,-239.0001 848.7546,-246.0001"/>
</g>
<!-- Node9&#45;&gt;Node3 -->
<g id="edge11" class="edge">
<title>Node9&#45;&gt;Node3</title>
<path fill="none" stroke="#191970" d="M329.7012,-203.208C338.6676,-203.3977 347.8033,-203.5911 356.776,-203.781"/>
<polygon fill="#191970" stroke="#191970" points="356.7478,-207.2811 366.8197,-203.9935 356.896,-200.2826 356.7478,-207.2811"/>
</g>
</g>
</svg>
