<?xml version="1.0" encoding="UTF-8" standalone="no"?>
<!DOCTYPE svg PUBLIC "-//W3C//DTD SVG 1.1//EN"
 "http://www.w3.org/Graphics/SVG/1.1/DTD/svg11.dtd">
<!-- Generated by graphviz version 2.40.1 (20161225.0304)
 -->
<!-- Title: rcf_setup_coldepc_mod::rcf_setup_coldepc Pages: 1 -->
<svg width="560pt" height="39pt"
 viewBox="0.00 0.00 560.00 39.00" xmlns="http://www.w3.org/2000/svg" xmlns:xlink="http://www.w3.org/1999/xlink">
<g id="graph0" class="graph" transform="scale(1 1) rotate(0) translate(4 35)">
<title>rcf_setup_coldepc_mod::rcf_setup_coldepc</title>
<polygon fill="#ffffff" stroke="transparent" points="-4,4 -4,-35 556,-35 556,4 -4,4"/>
<!-- Node1 -->
<g id="node1" class="node">
<title>Node1</title>
<polygon fill="#bfbfbf" stroke="#000000" points="0,-.5 0,-30.5 131,-30.5 131,-.5 0,-.5"/>
<text text-anchor="start" x="8" y="-18.5" font-family="Helvetica,sans-Serif" font-size="10.00" fill="#000000">rcf_setup_coldepc_mod</text>
<text text-anchor="middle" x="65.5" y="-7.5" font-family="Helvetica,sans-Serif" font-size="10.00" fill="#000000">::rcf_setup_coldepc</text>
</g>
<!-- Node2 -->
<g id="node2" class="node">
<title>Node2</title>
<g id="a_node2"><a xlink:href="namespacercf__setup__header__mod.xhtml#af5f48a19184bba024496d1fa6b62fd80" target="_top" xlink:title="Subroutine Rcf_Setup_Header &#45; sets up the output dump header. ">
<polygon fill="#ffffff" stroke="#000000" points="167,-.5 167,-30.5 295,-30.5 295,-.5 167,-.5"/>
<text text-anchor="start" x="175" y="-18.5" font-family="Helvetica,sans-Serif" font-size="10.00" fill="#000000">rcf_setup_header_mod</text>
<text text-anchor="middle" x="231" y="-7.5" font-family="Helvetica,sans-Serif" font-size="10.00" fill="#000000">::rcf_setup_header</text>
</a>
</g>
</g>
<!-- Node1&#45;&gt;Node2 -->
<g id="edge1" class="edge">
<title>Node1&#45;&gt;Node2</title>
<path fill="none" stroke="#191970" d="M141.6417,-15.5C150.1074,-15.5 158.6658,-15.5 166.9597,-15.5"/>
<polygon fill="#191970" stroke="#191970" points="141.3856,-12.0001 131.3855,-15.5 141.3855,-19.0001 141.3856,-12.0001"/>
</g>
<!-- Node3 -->
<g id="node3" class="node">
<title>Node3</title>
<g id="a_node3"><a xlink:href="namespacercf__control__mod.xhtml#a3ac6d1c6311ded848ddd750726da301a" target="_top" xlink:title="Subroutine Rcf_Control &#45; main control routine. ">
<polygon fill="#ffffff" stroke="#000000" points="331,-.5 331,-30.5 445,-30.5 445,-.5 331,-.5"/>
<text text-anchor="start" x="339" y="-18.5" font-family="Helvetica,sans-Serif" font-size="10.00" fill="#000000">rcf_control_mod::rcf</text>
<text text-anchor="middle" x="388" y="-7.5" font-family="Helvetica,sans-Serif" font-size="10.00" fill="#000000">_control</text>
</a>
</g>
</g>
<!-- Node2&#45;&gt;Node3 -->
<g id="edge2" class="edge">
<title>Node2&#45;&gt;Node3</title>
<path fill="none" stroke="#191970" d="M305.5277,-15.5C313.9499,-15.5 322.4333,-15.5 330.5887,-15.5"/>
<polygon fill="#191970" stroke="#191970" points="305.3109,-12.0001 295.3109,-15.5 305.3109,-19.0001 305.3109,-12.0001"/>
</g>
<!-- Node4 -->
<g id="node4" class="node">
<title>Node4</title>
<g id="a_node4"><a xlink:href="reconfigure_8f90.xhtml#a55389899cfceedbb4b0f908c73988c0c" target="_top" xlink:title="Top level program for reconfiguration. ">
<polygon fill="#ffffff" stroke="#000000" points="481,-6 481,-25 552,-25 552,-6 481,-6"/>
<text text-anchor="middle" x="516.5" y="-13" font-family="Helvetica,sans-Serif" font-size="10.00" fill="#000000">reconfigure</text>
</a>
</g>
</g>
<!-- Node3&#45;&gt;Node4 -->
<g id="edge3" class="edge">
<title>Node3&#45;&gt;Node4</title>
<path fill="none" stroke="#191970" d="M455.159,-15.5C464.0636,-15.5 472.8936,-15.5 480.9628,-15.5"/>
<polygon fill="#191970" stroke="#191970" points="455.1103,-12.0001 445.1103,-15.5 455.1103,-19.0001 455.1103,-12.0001"/>
</g>
</g>
</svg>
