<?xml version="1.0" encoding="UTF-8" standalone="no"?>
<!DOCTYPE svg PUBLIC "-//W3C//DTD SVG 1.1//EN"
 "http://www.w3.org/Graphics/SVG/1.1/DTD/svg11.dtd">
<!-- Generated by graphviz version 2.40.1 (20161225.0304)
 -->
<!-- Title: mod_cosp_utils::cosp_check_input_1d Pages: 1 -->
<svg width="284pt" height="39pt"
 viewBox="0.00 0.00 284.00 39.00" xmlns="http://www.w3.org/2000/svg" xmlns:xlink="http://www.w3.org/1999/xlink">
<g id="graph0" class="graph" transform="scale(1 1) rotate(0) translate(4 35)">
<title>mod_cosp_utils::cosp_check_input_1d</title>
<polygon fill="#ffffff" stroke="transparent" points="-4,4 -4,-35 280,-35 280,4 -4,4"/>
<!-- Node5 -->
<g id="node1" class="node">
<title>Node5</title>
<polygon fill="#bfbfbf" stroke="#000000" points="0,-.5 0,-30.5 121,-30.5 121,-.5 0,-.5"/>
<text text-anchor="start" x="8" y="-18.5" font-family="Helvetica,sans-Serif" font-size="10.00" fill="#000000">mod_cosp_utils::cosp</text>
<text text-anchor="middle" x="60.5" y="-7.5" font-family="Helvetica,sans-Serif" font-size="10.00" fill="#000000">_check_input_1d</text>
</g>
<!-- Node6 -->
<g id="node2" class="node">
<title>Node6</title>
<g id="a_node2"><a xlink:href="namespacemod__cosp__utils.xhtml#abb7a2f3e15c11599831e716e3e3d40a5" target="_top" xlink:title="mod_cosp_utils::z_to\l_dbz_4d">
<polygon fill="#ffffff" stroke="#000000" points="157,-.5 157,-30.5 276,-30.5 276,-.5 157,-.5"/>
<text text-anchor="start" x="165" y="-18.5" font-family="Helvetica,sans-Serif" font-size="10.00" fill="#000000">mod_cosp_utils::z_to</text>
<text text-anchor="middle" x="216.5" y="-7.5" font-family="Helvetica,sans-Serif" font-size="10.00" fill="#000000">_dbz_4d</text>
</a>
</g>
</g>
<!-- Node5&#45;&gt;Node6 -->
<g id="edge1" class="edge">
<title>Node5&#45;&gt;Node6</title>
<path fill="none" stroke="#191970" d="M131.5339,-15.5C140.024,-15.5 148.6249,-15.5 156.9302,-15.5"/>
<polygon fill="#191970" stroke="#191970" points="131.2604,-12.0001 121.2604,-15.5 131.2603,-19.0001 131.2604,-12.0001"/>
</g>
</g>
</svg>
