<?xml version="1.0" encoding="UTF-8" standalone="no"?>
<!DOCTYPE svg PUBLIC "-//W3C//DTD SVG 1.1//EN"
 "http://www.w3.org/Graphics/SVG/1.1/DTD/svg11.dtd">
<!-- Generated by graphviz version 2.40.1 (20161225.0304)
 -->
<!-- Title: eg_r_mod::eg_r Pages: 1 -->
<svg width="632pt" height="104pt"
 viewBox="0.00 0.00 632.00 104.00" xmlns="http://www.w3.org/2000/svg" xmlns:xlink="http://www.w3.org/1999/xlink">
<g id="graph0" class="graph" transform="scale(1 1) rotate(0) translate(4 100)">
<title>eg_r_mod::eg_r</title>
<polygon fill="#ffffff" stroke="transparent" points="-4,4 -4,-100 628,-100 628,4 -4,4"/>
<!-- Node0 -->
<g id="node1" class="node">
<title>Node0</title>
<polygon fill="#bfbfbf" stroke="#000000" points="0,-57.5 0,-76.5 92,-76.5 92,-57.5 0,-57.5"/>
<text text-anchor="middle" x="46" y="-64.5" font-family="Helvetica,sans-Serif" font-size="10.00" fill="#000000">eg_r_mod::eg_r</text>
</g>
<!-- Node1 -->
<g id="node2" class="node">
<title>Node1</title>
<g id="a_node2"><a xlink:href="sum_8f90.xhtml#a025c1f845b6a4ea9c9f48b8612cd82e7" target="_top" xlink:title="Generic routines for manipulating pp&#45;fields within Fieldcalc. ">
<polygon fill="#ffffff" stroke="#000000" points="168.5,-76.5 168.5,-95.5 206.5,-95.5 206.5,-76.5 168.5,-76.5"/>
<text text-anchor="middle" x="187.5" y="-83.5" font-family="Helvetica,sans-Serif" font-size="10.00" fill="#000000">sum</text>
</a>
</g>
</g>
<!-- Node0&#45;&gt;Node1 -->
<g id="edge1" class="edge">
<title>Node0&#45;&gt;Node1</title>
<path fill="none" stroke="#191970" d="M92.3324,-73.2213C113.9937,-76.1299 139.1357,-79.5059 158.1361,-82.0572"/>
<polygon fill="#191970" stroke="#191970" points="157.8926,-85.5558 168.2694,-83.4178 158.8242,-78.618 157.8926,-85.5558"/>
</g>
<!-- Node2 -->
<g id="node3" class="node">
<title>Node2</title>
<g id="a_node3"><a xlink:href="namespaceumprintmgr.xhtml#aae44897e556705dbf5e945a26538be9a" target="_top" xlink:title="umprintmgr::umprint">
<polygon fill="#ffffff" stroke="#000000" points="128,-38.5 128,-57.5 247,-57.5 247,-38.5 128,-38.5"/>
<text text-anchor="middle" x="187.5" y="-45.5" font-family="Helvetica,sans-Serif" font-size="10.00" fill="#000000">umprintmgr::umprint</text>
</a>
</g>
</g>
<!-- Node0&#45;&gt;Node2 -->
<g id="edge2" class="edge">
<title>Node0&#45;&gt;Node2</title>
<path fill="none" stroke="#191970" d="M92.3324,-60.7787C100.5007,-59.6819 109.164,-58.5186 117.8063,-57.3582"/>
<polygon fill="#191970" stroke="#191970" points="118.4657,-60.8011 127.911,-56.0014 117.5341,-53.8634 118.4657,-60.8011"/>
</g>
<!-- Node3 -->
<g id="node4" class="node">
<title>Node3</title>
<g id="a_node4"><a xlink:href="namespaceumprintmgr.xhtml#a088ce22a18d574e9df7ee1850bfb10c7" target="_top" xlink:title="umprintmgr::umprintopenstream">
<polygon fill="#ffffff" stroke="#000000" points="283,-38.5 283,-57.5 460,-57.5 460,-38.5 283,-38.5"/>
<text text-anchor="middle" x="371.5" y="-45.5" font-family="Helvetica,sans-Serif" font-size="10.00" fill="#000000">umprintmgr::umprintopenstream</text>
</a>
</g>
</g>
<!-- Node2&#45;&gt;Node3 -->
<g id="edge3" class="edge">
<title>Node2&#45;&gt;Node3</title>
<path fill="none" stroke="#191970" d="M247.2395,-41.6333C255.4605,-41.4301 264.0751,-41.3077 272.7702,-41.2661"/>
<polygon fill="#191970" stroke="#191970" points="272.9998,-44.7659 282.9958,-41.2543 272.9917,-37.7659 272.9998,-44.7659"/>
</g>
<!-- Node4 -->
<g id="node5" class="node">
<title>Node4</title>
<g id="a_node5"><a xlink:href="namespaceumprintmgr.xhtml#ad3a290b30a6e25500eabc0bf90330b77" target="_top" xlink:title="umprintmgr::umprintflush">
<polygon fill="#ffffff" stroke="#000000" points="300.5,-.5 300.5,-19.5 442.5,-19.5 442.5,-.5 300.5,-.5"/>
<text text-anchor="middle" x="371.5" y="-7.5" font-family="Helvetica,sans-Serif" font-size="10.00" fill="#000000">umprintmgr::umprintflush</text>
</a>
</g>
</g>
<!-- Node2&#45;&gt;Node4 -->
<g id="edge5" class="edge">
<title>Node2&#45;&gt;Node4</title>
<path fill="none" stroke="#191970" d="M233.931,-38.411C258.6493,-33.3061 289.239,-26.9887 315.292,-21.6082"/>
<polygon fill="#191970" stroke="#191970" points="316.3175,-24.9703 325.4029,-19.5201 314.9017,-18.115 316.3175,-24.9703"/>
</g>
<!-- Node3&#45;&gt;Node2 -->
<g id="edge4" class="edge">
<title>Node3&#45;&gt;Node2</title>
<path fill="none" stroke="#191970" d="M282.9958,-54.7457C274.3802,-54.767 265.7236,-54.7094 257.3289,-54.5727"/>
<polygon fill="#191970" stroke="#191970" points="257.3089,-51.0716 247.2395,-54.3667 257.166,-58.0702 257.3089,-51.0716"/>
</g>
<!-- Node5 -->
<g id="node6" class="node">
<title>Node5</title>
<g id="a_node6"><a xlink:href="namespaceumflush__mod.xhtml#a3a003ab59990bdcb712b443dd5e0d1cd" target="_top" xlink:title="umflush_mod::umflush">
<polygon fill="#ffffff" stroke="#000000" points="496,-.5 496,-19.5 624,-19.5 624,-.5 496,-.5"/>
<text text-anchor="middle" x="560" y="-7.5" font-family="Helvetica,sans-Serif" font-size="10.00" fill="#000000">umflush_mod::umflush</text>
</a>
</g>
</g>
<!-- Node4&#45;&gt;Node5 -->
<g id="edge6" class="edge">
<title>Node4&#45;&gt;Node5</title>
<path fill="none" stroke="#191970" d="M442.7638,-10C456.7742,-10 471.5063,-10 485.6162,-10"/>
<polygon fill="#191970" stroke="#191970" points="485.7612,-13.5001 495.7611,-10 485.7611,-6.5001 485.7612,-13.5001"/>
</g>
</g>
</svg>
