<?xml version="1.0" encoding="UTF-8" standalone="no"?>
<!DOCTYPE svg PUBLIC "-//W3C//DTD SVG 1.1//EN"
 "http://www.w3.org/Graphics/SVG/1.1/DTD/svg11.dtd">
<!-- Generated by graphviz version 2.40.1 (20161225.0304)
 -->
<!-- Title: rcf_grib_spcl_lpstar_mod::rcf_grib_spcl_lpstar Pages: 1 -->
<svg width="712pt" height="39pt"
 viewBox="0.00 0.00 712.00 39.00" xmlns="http://www.w3.org/2000/svg" xmlns:xlink="http://www.w3.org/1999/xlink">
<g id="graph0" class="graph" transform="scale(1 1) rotate(0) translate(4 35)">
<title>rcf_grib_spcl_lpstar_mod::rcf_grib_spcl_lpstar</title>
<polygon fill="#ffffff" stroke="transparent" points="-4,4 -4,-35 708,-35 708,4 -4,4"/>
<!-- Node5 -->
<g id="node1" class="node">
<title>Node5</title>
<polygon fill="#bfbfbf" stroke="#000000" points="0,-.5 0,-30.5 144,-30.5 144,-.5 0,-.5"/>
<text text-anchor="start" x="8" y="-18.5" font-family="Helvetica,sans-Serif" font-size="10.00" fill="#000000">rcf_grib_spcl_lpstar</text>
<text text-anchor="middle" x="72" y="-7.5" font-family="Helvetica,sans-Serif" font-size="10.00" fill="#000000">_mod::rcf_grib_spcl_lpstar</text>
</g>
<!-- Node6 -->
<g id="node2" class="node">
<title>Node6</title>
<g id="a_node2"><a xlink:href="namespacercf__grib__spcl__ctl__mod.xhtml#a89175e414666bc7a9a703d4b1ecd602e" target="_top" xlink:title="SUBROUTINE Rcf_Grib_Spcl_Ctl. ">
<polygon fill="#ffffff" stroke="#000000" points="180,-.5 180,-30.5 302,-30.5 302,-.5 180,-.5"/>
<text text-anchor="start" x="188" y="-18.5" font-family="Helvetica,sans-Serif" font-size="10.00" fill="#000000">rcf_grib_spcl_ctl_mod</text>
<text text-anchor="middle" x="241" y="-7.5" font-family="Helvetica,sans-Serif" font-size="10.00" fill="#000000">::rcf_grib_spcl_ctl</text>
</a>
</g>
</g>
<!-- Node5&#45;&gt;Node6 -->
<g id="edge1" class="edge">
<title>Node5&#45;&gt;Node6</title>
<path fill="none" stroke="#191970" d="M154.2869,-15.5C162.9429,-15.5 171.63,-15.5 179.9843,-15.5"/>
<polygon fill="#191970" stroke="#191970" points="154.1615,-12.0001 144.1614,-15.5 154.1614,-19.0001 154.1615,-12.0001"/>
</g>
<!-- Node7 -->
<g id="node3" class="node">
<title>Node7</title>
<g id="a_node3"><a xlink:href="namespacercf__grib__control__mod.xhtml#ac6174bbd64f507e15341873465221613" target="_top" xlink:title="SUBROUTINE Rcf_Grib_Control. ">
<polygon fill="#ffffff" stroke="#000000" points="338,-.5 338,-30.5 457,-30.5 457,-.5 338,-.5"/>
<text text-anchor="start" x="346" y="-18.5" font-family="Helvetica,sans-Serif" font-size="10.00" fill="#000000">rcf_grib_control_mod</text>
<text text-anchor="middle" x="397.5" y="-7.5" font-family="Helvetica,sans-Serif" font-size="10.00" fill="#000000">::rcf_grib_control</text>
</a>
</g>
</g>
<!-- Node6&#45;&gt;Node7 -->
<g id="edge2" class="edge">
<title>Node6&#45;&gt;Node7</title>
<path fill="none" stroke="#191970" d="M312.6076,-15.5C321.0368,-15.5 329.5696,-15.5 337.8108,-15.5"/>
<polygon fill="#191970" stroke="#191970" points="312.4038,-12.0001 302.4038,-15.5 312.4037,-19.0001 312.4038,-12.0001"/>
</g>
<!-- Node8 -->
<g id="node4" class="node">
<title>Node8</title>
<g id="a_node4"><a xlink:href="namespacercf__initialise__mod.xhtml#ab7086bd455bd5857b757207d0255c3f4" target="_top" xlink:title="Subroutine Rcf_Initialise &#45; initialisation tasks. ">
<polygon fill="#ffffff" stroke="#000000" points="493,-.5 493,-30.5 597,-30.5 597,-.5 493,-.5"/>
<text text-anchor="start" x="501" y="-18.5" font-family="Helvetica,sans-Serif" font-size="10.00" fill="#000000">rcf_initialise_mod</text>
<text text-anchor="middle" x="545" y="-7.5" font-family="Helvetica,sans-Serif" font-size="10.00" fill="#000000">::rcf_initialise</text>
</a>
</g>
</g>
<!-- Node7&#45;&gt;Node8 -->
<g id="edge3" class="edge">
<title>Node7&#45;&gt;Node8</title>
<path fill="none" stroke="#191970" d="M467.1447,-15.5C475.7816,-15.5 484.4939,-15.5 492.8057,-15.5"/>
<polygon fill="#191970" stroke="#191970" points="467.0688,-12.0001 457.0687,-15.5 467.0687,-19.0001 467.0688,-12.0001"/>
</g>
<!-- Node9 -->
<g id="node5" class="node">
<title>Node9</title>
<g id="a_node5"><a xlink:href="reconfigure_8f90.xhtml#a55389899cfceedbb4b0f908c73988c0c" target="_top" xlink:title="Top level program for reconfiguration. ">
<polygon fill="#ffffff" stroke="#000000" points="633,-6 633,-25 704,-25 704,-6 633,-6"/>
<text text-anchor="middle" x="668.5" y="-13" font-family="Helvetica,sans-Serif" font-size="10.00" fill="#000000">reconfigure</text>
</a>
</g>
</g>
<!-- Node8&#45;&gt;Node9 -->
<g id="edge4" class="edge">
<title>Node8&#45;&gt;Node9</title>
<path fill="none" stroke="#191970" d="M607.2179,-15.5C615.938,-15.5 624.6456,-15.5 632.6452,-15.5"/>
<polygon fill="#191970" stroke="#191970" points="607.0172,-12.0001 597.0172,-15.5 607.0171,-19.0001 607.0172,-12.0001"/>
</g>
</g>
</svg>
