<?xml version="1.0" encoding="UTF-8" standalone="no"?>
<!DOCTYPE svg PUBLIC "-//W3C//DTD SVG 1.1//EN"
 "http://www.w3.org/Graphics/SVG/1.1/DTD/svg11.dtd">
<!-- Generated by graphviz version 2.40.1 (20161225.0304)
 -->
<!-- Title: bl_option_mod::check_run_bl Pages: 1 -->
<svg width="436pt" height="104pt"
 viewBox="0.00 0.00 436.00 104.00" xmlns="http://www.w3.org/2000/svg" xmlns:xlink="http://www.w3.org/1999/xlink">
<g id="graph0" class="graph" transform="scale(1 1) rotate(0) translate(4 100)">
<title>bl_option_mod::check_run_bl</title>
<polygon fill="#ffffff" stroke="transparent" points="-4,4 -4,-100 432,-100 432,4 -4,4"/>
<!-- Node1 -->
<g id="node1" class="node">
<title>Node1</title>
<polygon fill="#bfbfbf" stroke="#000000" points="0,-33 0,-63 123,-63 123,-33 0,-33"/>
<text text-anchor="start" x="8" y="-51" font-family="Helvetica,sans-Serif" font-size="10.00" fill="#000000">bl_option_mod::check</text>
<text text-anchor="middle" x="61.5" y="-40" font-family="Helvetica,sans-Serif" font-size="10.00" fill="#000000">_run_bl</text>
</g>
<!-- Node2 -->
<g id="node2" class="node">
<title>Node2</title>
<g id="a_node2"><a xlink:href="readlsta_8f90.xhtml#a6be7c745662b87214220c8519949fefe" target="_top" xlink:title="Read run&#45;time control information from namelists for atmos model. ">
<polygon fill="#ffffff" stroke="#000000" points="168,-76.5 168,-95.5 224,-95.5 224,-76.5 168,-76.5"/>
<text text-anchor="middle" x="196" y="-83.5" font-family="Helvetica,sans-Serif" font-size="10.00" fill="#000000">readlsta</text>
</a>
</g>
</g>
<!-- Node1&#45;&gt;Node2 -->
<g id="edge1" class="edge">
<title>Node1&#45;&gt;Node2</title>
<path fill="none" stroke="#191970" d="M124.5813,-65.8222C139.7945,-70.1204 155.2934,-74.4993 167.9477,-78.0744"/>
<polygon fill="#191970" stroke="#191970" points="125.2329,-62.3694 114.658,-63.0186 123.3296,-69.1057 125.2329,-62.3694"/>
</g>
<!-- Node5 -->
<g id="node5" class="node">
<title>Node5</title>
<g id="a_node5"><a xlink:href="readlsta__4_a_8f90.xhtml#abc5fe175d74e13235464439055294edc" target="_top" xlink:title="Read run&#45;time control information from namelists for atmos model. ">
<polygon fill="#ffffff" stroke="#000000" points="159,-38.5 159,-57.5 233,-57.5 233,-38.5 159,-38.5"/>
<text text-anchor="middle" x="196" y="-45.5" font-family="Helvetica,sans-Serif" font-size="10.00" fill="#000000">readlsta_4a</text>
</a>
</g>
</g>
<!-- Node1&#45;&gt;Node5 -->
<g id="edge4" class="edge">
<title>Node1&#45;&gt;Node5</title>
<path fill="none" stroke="#191970" d="M133.5158,-48C142.2582,-48 150.8928,-48 158.8244,-48"/>
<polygon fill="#191970" stroke="#191970" points="133.2389,-44.5001 123.2389,-48 133.2389,-51.5001 133.2389,-44.5001"/>
</g>
<!-- Node6 -->
<g id="node6" class="node">
<title>Node6</title>
<g id="a_node6"><a xlink:href="scm__shell_8f90.xhtml#ab15255829ee7b5be626b1c0861b40c8d" target="_top" xlink:title="scm_shell is the main calling program for the Single Column Model. ">
<polygon fill="#ffffff" stroke="#000000" points="163.5,-.5 163.5,-19.5 228.5,-19.5 228.5,-.5 163.5,-.5"/>
<text text-anchor="middle" x="196" y="-7.5" font-family="Helvetica,sans-Serif" font-size="10.00" fill="#000000">scm_shell</text>
</a>
</g>
</g>
<!-- Node1&#45;&gt;Node6 -->
<g id="edge6" class="edge">
<title>Node1&#45;&gt;Node6</title>
<path fill="none" stroke="#191970" d="M124.399,-30.2293C137.8762,-26.4216 151.5875,-22.5478 163.3555,-19.223"/>
<polygon fill="#191970" stroke="#191970" points="123.3296,-26.8943 114.658,-32.9814 125.2329,-33.6306 123.3296,-26.8943"/>
</g>
<!-- Node3 -->
<g id="node3" class="node">
<title>Node3</title>
<g id="a_node3"><a xlink:href="um__shell_8f90.xhtml#a8c9bd25362824a5c301376ecb5ed5c27" target="_top" xlink:title="Subroutine: UM_SHELL !&gt; ">
<polygon fill="#ffffff" stroke="#000000" points="269,-57.5 269,-76.5 330,-76.5 330,-57.5 269,-57.5"/>
<text text-anchor="middle" x="299.5" y="-64.5" font-family="Helvetica,sans-Serif" font-size="10.00" fill="#000000">um_shell</text>
</a>
</g>
</g>
<!-- Node2&#45;&gt;Node3 -->
<g id="edge2" class="edge">
<title>Node2&#45;&gt;Node3</title>
<path fill="none" stroke="#191970" d="M234.1838,-78.9904C245.6321,-76.8888 258.0336,-74.6122 268.9235,-72.6131"/>
<polygon fill="#191970" stroke="#191970" points="233.2123,-75.6102 224.0086,-80.8583 234.4762,-82.4951 233.2123,-75.6102"/>
</g>
<!-- Node4 -->
<g id="node4" class="node">
<title>Node4</title>
<g id="a_node4"><a xlink:href="um__main_8f90.xhtml#a8f2d13215621443a5313261c282f098b" target="_top" xlink:title="Code Owner: See Unified Model Code Owner&#39;s HTML page. ">
<polygon fill="#ffffff" stroke="#000000" points="366,-57.5 366,-76.5 428,-76.5 428,-57.5 366,-57.5"/>
<text text-anchor="middle" x="397" y="-64.5" font-family="Helvetica,sans-Serif" font-size="10.00" fill="#000000">um_main</text>
</a>
</g>
</g>
<!-- Node3&#45;&gt;Node4 -->
<g id="edge3" class="edge">
<title>Node3&#45;&gt;Node4</title>
<path fill="none" stroke="#191970" d="M340.2756,-67C348.8294,-67 357.72,-67 365.8551,-67"/>
<polygon fill="#191970" stroke="#191970" points="340.0821,-63.5001 330.0821,-67 340.0821,-70.5001 340.0821,-63.5001"/>
</g>
<!-- Node5&#45;&gt;Node3 -->
<g id="edge5" class="edge">
<title>Node5&#45;&gt;Node3</title>
<path fill="none" stroke="#191970" d="M243.1595,-56.6573C251.8707,-58.2565 260.7567,-59.8877 268.8197,-61.3679"/>
<polygon fill="#191970" stroke="#191970" points="243.5412,-53.169 233.0735,-54.8058 242.2772,-60.0539 243.5412,-53.169"/>
</g>
</g>
</svg>
