<?xml version="1.0" encoding="UTF-8" standalone="no"?>
<!DOCTYPE svg PUBLIC "-//W3C//DTD SVG 1.1//EN"
 "http://www.w3.org/Graphics/SVG/1.1/DTD/svg11.dtd">
<!-- Generated by graphviz version 2.40.1 (20161225.0304)
 -->
<!-- Title: rcf_theta_t_convs_mod::rcf_conv_t_theta Pages: 1 -->
<svg width="732pt" height="39pt"
 viewBox="0.00 0.00 732.00 39.00" xmlns="http://www.w3.org/2000/svg" xmlns:xlink="http://www.w3.org/1999/xlink">
<g id="graph0" class="graph" transform="scale(1 1) rotate(0) translate(4 35)">
<title>rcf_theta_t_convs_mod::rcf_conv_t_theta</title>
<polygon fill="#ffffff" stroke="transparent" points="-4,4 -4,-35 728,-35 728,4 -4,4"/>
<!-- Node194 -->
<g id="node1" class="node">
<title>Node194</title>
<polygon fill="#bfbfbf" stroke="#000000" points="0,-.5 0,-30.5 130,-30.5 130,-.5 0,-.5"/>
<text text-anchor="start" x="8" y="-18.5" font-family="Helvetica,sans-Serif" font-size="10.00" fill="#000000">rcf_theta_t_convs_mod</text>
<text text-anchor="middle" x="65" y="-7.5" font-family="Helvetica,sans-Serif" font-size="10.00" fill="#000000">::rcf_conv_t_theta</text>
</g>
<!-- Node195 -->
<g id="node2" class="node">
<title>Node195</title>
<g id="a_node2"><a xlink:href="namespacercf__post__process__mod.xhtml#abd81a99947cd0c226d25842ec46e1e95" target="_top" xlink:title="Subroutine Rcf_Post_Process &#45; process fields after `main loop&#39;. ">
<polygon fill="#ffffff" stroke="#000000" points="166,-.5 166,-30.5 306,-30.5 306,-.5 166,-.5"/>
<text text-anchor="start" x="174" y="-18.5" font-family="Helvetica,sans-Serif" font-size="10.00" fill="#000000">rcf_post_process_mod</text>
<text text-anchor="middle" x="236" y="-7.5" font-family="Helvetica,sans-Serif" font-size="10.00" fill="#000000">::rcf_post_process_atmos</text>
</a>
</g>
</g>
<!-- Node194&#45;&gt;Node195 -->
<g id="edge1" class="edge">
<title>Node194&#45;&gt;Node195</title>
<path fill="none" stroke="#191970" d="M140.3974,-15.5C148.8837,-15.5 157.5047,-15.5 165.9197,-15.5"/>
<polygon fill="#191970" stroke="#191970" points="140.1356,-12.0001 130.1356,-15.5 140.1355,-19.0001 140.1356,-12.0001"/>
</g>
<!-- Node196 -->
<g id="node3" class="node">
<title>Node196</title>
<g id="a_node3"><a xlink:href="namespacercf__create__dump__mod.xhtml#a2f1f869ea648718c07cc083ce73c40c9" target="_top" xlink:title="Subroutine Rcf_Create_Dump &#45; main dump creation loop. ">
<polygon fill="#ffffff" stroke="#000000" points="342,-.5 342,-30.5 467,-30.5 467,-.5 342,-.5"/>
<text text-anchor="start" x="350" y="-18.5" font-family="Helvetica,sans-Serif" font-size="10.00" fill="#000000">rcf_create_dump_mod</text>
<text text-anchor="middle" x="404.5" y="-7.5" font-family="Helvetica,sans-Serif" font-size="10.00" fill="#000000">::rcf_create_dump</text>
</a>
</g>
</g>
<!-- Node195&#45;&gt;Node196 -->
<g id="edge2" class="edge">
<title>Node195&#45;&gt;Node196</title>
<path fill="none" stroke="#191970" d="M316.7184,-15.5C325.1475,-15.5 333.6239,-15.5 341.8092,-15.5"/>
<polygon fill="#191970" stroke="#191970" points="316.4829,-12.0001 306.4829,-15.5 316.4828,-19.0001 316.4829,-12.0001"/>
</g>
<!-- Node197 -->
<g id="node4" class="node">
<title>Node197</title>
<g id="a_node4"><a xlink:href="namespacercf__control__mod.xhtml#a3ac6d1c6311ded848ddd750726da301a" target="_top" xlink:title="Subroutine Rcf_Control &#45; main control routine. ">
<polygon fill="#ffffff" stroke="#000000" points="503,-.5 503,-30.5 617,-30.5 617,-.5 503,-.5"/>
<text text-anchor="start" x="511" y="-18.5" font-family="Helvetica,sans-Serif" font-size="10.00" fill="#000000">rcf_control_mod::rcf</text>
<text text-anchor="middle" x="560" y="-7.5" font-family="Helvetica,sans-Serif" font-size="10.00" fill="#000000">_control</text>
</a>
</g>
</g>
<!-- Node196&#45;&gt;Node197 -->
<g id="edge3" class="edge">
<title>Node196&#45;&gt;Node197</title>
<path fill="none" stroke="#191970" d="M477.3443,-15.5C485.9541,-15.5 494.6445,-15.5 502.9908,-15.5"/>
<polygon fill="#191970" stroke="#191970" points="477.2996,-12.0001 467.2996,-15.5 477.2995,-19.0001 477.2996,-12.0001"/>
</g>
<!-- Node198 -->
<g id="node5" class="node">
<title>Node198</title>
<g id="a_node5"><a xlink:href="reconfigure_8f90.xhtml#a55389899cfceedbb4b0f908c73988c0c" target="_top" xlink:title="Top level program for reconfiguration. ">
<polygon fill="#ffffff" stroke="#000000" points="653,-6 653,-25 724,-25 724,-6 653,-6"/>
<text text-anchor="middle" x="688.5" y="-13" font-family="Helvetica,sans-Serif" font-size="10.00" fill="#000000">reconfigure</text>
</a>
</g>
</g>
<!-- Node197&#45;&gt;Node198 -->
<g id="edge4" class="edge">
<title>Node197&#45;&gt;Node198</title>
<path fill="none" stroke="#191970" d="M627.159,-15.5C636.0636,-15.5 644.8936,-15.5 652.9628,-15.5"/>
<polygon fill="#191970" stroke="#191970" points="627.1103,-12.0001 617.1103,-15.5 627.1103,-19.0001 627.1103,-12.0001"/>
</g>
</g>
</svg>
