<?xml version="1.0" encoding="UTF-8" standalone="no"?>
<!DOCTYPE svg PUBLIC "-//W3C//DTD SVG 1.1//EN"
 "http://www.w3.org/Graphics/SVG/1.1/DTD/svg11.dtd">
<!-- Generated by graphviz version 2.40.1 (20161225.0304)
 -->
<!-- Title: s_logic::read_logic Pages: 1 -->
<svg width="443pt" height="28pt"
 viewBox="0.00 0.00 443.00 28.00" xmlns="http://www.w3.org/2000/svg" xmlns:xlink="http://www.w3.org/1999/xlink">
<g id="graph0" class="graph" transform="scale(1 1) rotate(0) translate(4 24)">
<title>s_logic::read_logic</title>
<polygon fill="#ffffff" stroke="transparent" points="-4,4 -4,-24 439,-24 439,4 -4,4"/>
<!-- Node5 -->
<g id="node1" class="node">
<title>Node5</title>
<polygon fill="#bfbfbf" stroke="#000000" points="0,-.5 0,-19.5 107,-19.5 107,-.5 0,-.5"/>
<text text-anchor="middle" x="53.5" y="-7.5" font-family="Helvetica,sans-Serif" font-size="10.00" fill="#000000">s_logic::read_logic</text>
</g>
<!-- Node6 -->
<g id="node2" class="node">
<title>Node6</title>
<g id="a_node2"><a xlink:href="read__scm__nml_8f90.xhtml#af3d01a68b9750a66d402c5c7312acdf2" target="_top" xlink:title="Reads in forcing file &#39;namelist.scm&#39; and passes data back to scm_main. ">
<polygon fill="#ffffff" stroke="#000000" points="143,-.5 143,-19.5 231,-19.5 231,-.5 143,-.5"/>
<text text-anchor="middle" x="187" y="-7.5" font-family="Helvetica,sans-Serif" font-size="10.00" fill="#000000">read_scm_nml</text>
</a>
</g>
</g>
<!-- Node5&#45;&gt;Node6 -->
<g id="edge1" class="edge">
<title>Node5&#45;&gt;Node6</title>
<path fill="none" stroke="#191970" d="M117.1711,-10C125.8672,-10 134.633,-10 142.8766,-10"/>
<polygon fill="#191970" stroke="#191970" points="117.0304,-6.5001 107.0303,-10 117.0303,-13.5001 117.0304,-6.5001"/>
</g>
<!-- Node7 -->
<g id="node3" class="node">
<title>Node7</title>
<g id="a_node3"><a xlink:href="scm__main_8f90.xhtml#a2c730136605550612e094ce51d33a2a5" target="_top" xlink:title="*********************************COPYRIGHT********************************* ">
<polygon fill="#ffffff" stroke="#000000" points="267,-.5 267,-19.5 334,-19.5 334,-.5 267,-.5"/>
<text text-anchor="middle" x="300.5" y="-7.5" font-family="Helvetica,sans-Serif" font-size="10.00" fill="#000000">scm_main</text>
</a>
</g>
</g>
<!-- Node6&#45;&gt;Node7 -->
<g id="edge2" class="edge">
<title>Node6&#45;&gt;Node7</title>
<path fill="none" stroke="#191970" d="M241.3182,-10C250.0028,-10 258.7635,-10 266.7847,-10"/>
<polygon fill="#191970" stroke="#191970" points="241.2071,-6.5001 231.2071,-10 241.207,-13.5001 241.2071,-6.5001"/>
</g>
<!-- Node8 -->
<g id="node4" class="node">
<title>Node8</title>
<g id="a_node4"><a xlink:href="scm__shell_8f90.xhtml#ab15255829ee7b5be626b1c0861b40c8d" target="_top" xlink:title="scm_shell is the main calling program for the Single Column Model. ">
<polygon fill="#ffffff" stroke="#000000" points="370,-.5 370,-19.5 435,-19.5 435,-.5 370,-.5"/>
<text text-anchor="middle" x="402.5" y="-7.5" font-family="Helvetica,sans-Serif" font-size="10.00" fill="#000000">scm_shell</text>
</a>
</g>
</g>
<!-- Node7&#45;&gt;Node8 -->
<g id="edge3" class="edge">
<title>Node7&#45;&gt;Node8</title>
<path fill="none" stroke="#191970" d="M344.4121,-10C352.9642,-10 361.7874,-10 369.8946,-10"/>
<polygon fill="#191970" stroke="#191970" points="344.1813,-6.5001 334.1813,-10 344.1813,-13.5001 344.1813,-6.5001"/>
</g>
</g>
</svg>
