<?xml version="1.0" encoding="UTF-8" standalone="no"?>
<!DOCTYPE svg PUBLIC "-//W3C//DTD SVG 1.1//EN"
 "http://www.w3.org/Graphics/SVG/1.1/DTD/svg11.dtd">
<!-- Generated by graphviz version 2.40.1 (20161225.0304)
 -->
<!-- Title: twpice_netcdf::dealloc_twpice_nc Pages: 1 -->
<svg width="524pt" height="39pt"
 viewBox="0.00 0.00 524.00 39.00" xmlns="http://www.w3.org/2000/svg" xmlns:xlink="http://www.w3.org/1999/xlink">
<g id="graph0" class="graph" transform="scale(1 1) rotate(0) translate(4 35)">
<title>twpice_netcdf::dealloc_twpice_nc</title>
<polygon fill="#ffffff" stroke="transparent" points="-4,4 -4,-35 520,-35 520,4 -4,4"/>
<!-- Node10 -->
<g id="node1" class="node">
<title>Node10</title>
<polygon fill="#bfbfbf" stroke="#000000" points="0,-.5 0,-30.5 126,-30.5 126,-.5 0,-.5"/>
<text text-anchor="start" x="8" y="-18.5" font-family="Helvetica,sans-Serif" font-size="10.00" fill="#000000">twpice_netcdf::dealloc</text>
<text text-anchor="middle" x="63" y="-7.5" font-family="Helvetica,sans-Serif" font-size="10.00" fill="#000000">_twpice_nc</text>
</g>
<!-- Node11 -->
<g id="node2" class="node">
<title>Node11</title>
<g id="a_node2"><a xlink:href="namespacenetcdf__obs.xhtml#aa213273e45276557462da71fa38b5523" target="_top" xlink:title="============================================================================== ">
<polygon fill="#ffffff" stroke="#000000" points="162,-6 162,-25 312,-25 312,-6 162,-6"/>
<text text-anchor="middle" x="237" y="-13" font-family="Helvetica,sans-Serif" font-size="10.00" fill="#000000">netcdf_obs::get_netcdf_obs</text>
</a>
</g>
</g>
<!-- Node10&#45;&gt;Node11 -->
<g id="edge1" class="edge">
<title>Node10&#45;&gt;Node11</title>
<path fill="none" stroke="#191970" d="M136.4673,-15.5C144.8826,-15.5 153.4711,-15.5 161.9073,-15.5"/>
<polygon fill="#191970" stroke="#191970" points="136.3102,-12.0001 126.3102,-15.5 136.3102,-19.0001 136.3102,-12.0001"/>
</g>
<!-- Node12 -->
<g id="node3" class="node">
<title>Node12</title>
<g id="a_node3"><a xlink:href="scm__main_8f90.xhtml#a2c730136605550612e094ce51d33a2a5" target="_top" xlink:title="*********************************COPYRIGHT********************************* ">
<polygon fill="#ffffff" stroke="#000000" points="348,-6 348,-25 415,-25 415,-6 348,-6"/>
<text text-anchor="middle" x="381.5" y="-13" font-family="Helvetica,sans-Serif" font-size="10.00" fill="#000000">scm_main</text>
</a>
</g>
</g>
<!-- Node11&#45;&gt;Node12 -->
<g id="edge2" class="edge">
<title>Node11&#45;&gt;Node12</title>
<path fill="none" stroke="#191970" d="M322.3938,-15.5C331.3339,-15.5 339.9961,-15.5 347.8078,-15.5"/>
<polygon fill="#191970" stroke="#191970" points="322.2127,-12.0001 312.2126,-15.5 322.2126,-19.0001 322.2127,-12.0001"/>
</g>
<!-- Node13 -->
<g id="node4" class="node">
<title>Node13</title>
<g id="a_node4"><a xlink:href="scm__shell_8f90.xhtml#ab15255829ee7b5be626b1c0861b40c8d" target="_top" xlink:title="scm_shell is the main calling program for the Single Column Model. ">
<polygon fill="#ffffff" stroke="#000000" points="451,-6 451,-25 516,-25 516,-6 451,-6"/>
<text text-anchor="middle" x="483.5" y="-13" font-family="Helvetica,sans-Serif" font-size="10.00" fill="#000000">scm_shell</text>
</a>
</g>
</g>
<!-- Node12&#45;&gt;Node13 -->
<g id="edge3" class="edge">
<title>Node12&#45;&gt;Node13</title>
<path fill="none" stroke="#191970" d="M425.4121,-15.5C433.9642,-15.5 442.7874,-15.5 450.8946,-15.5"/>
<polygon fill="#191970" stroke="#191970" points="425.1813,-12.0001 415.1813,-15.5 425.1813,-19.0001 425.1813,-12.0001"/>
</g>
</g>
</svg>
