<?xml version="1.0" encoding="UTF-8" standalone="no"?>
<!DOCTYPE svg PUBLIC "-//W3C//DTD SVG 1.1//EN"
 "http://www.w3.org/Graphics/SVG/1.1/DTD/svg11.dtd">
<!-- Generated by graphviz version 2.40.1 (20161225.0304)
 -->
<!-- Title: mod_cosp_stats::cosp_stats Pages: 1 -->
<svg width="760pt" height="39pt"
 viewBox="0.00 0.00 760.00 39.00" xmlns="http://www.w3.org/2000/svg" xmlns:xlink="http://www.w3.org/1999/xlink">
<g id="graph0" class="graph" transform="scale(1 1) rotate(0) translate(4 35)">
<title>mod_cosp_stats::cosp_stats</title>
<polygon fill="#ffffff" stroke="transparent" points="-4,4 -4,-35 756,-35 756,4 -4,4"/>
<!-- Node17 -->
<g id="node1" class="node">
<title>Node17</title>
<polygon fill="#bfbfbf" stroke="#000000" points="0,-.5 0,-30.5 124,-30.5 124,-.5 0,-.5"/>
<text text-anchor="start" x="8" y="-18.5" font-family="Helvetica,sans-Serif" font-size="10.00" fill="#000000">mod_cosp_stats::cosp</text>
<text text-anchor="middle" x="62" y="-7.5" font-family="Helvetica,sans-Serif" font-size="10.00" fill="#000000">_stats</text>
</g>
<!-- Node18 -->
<g id="node2" class="node">
<title>Node18</title>
<g id="a_node2"><a xlink:href="namespacemod__cosp__simulator.xhtml#a15fa81bbced90659f8b317aa564db4dc" target="_top" xlink:title="%%%%%%%%%%%%%%%%%%%%%%%%%%%%%%%%%%%%%%%%%%%%%%%%%%%%%%%%%%%%%%%%% ">
<polygon fill="#ffffff" stroke="#000000" points="160,-.5 160,-30.5 278,-30.5 278,-.5 160,-.5"/>
<text text-anchor="start" x="168" y="-18.5" font-family="Helvetica,sans-Serif" font-size="10.00" fill="#000000">mod_cosp_simulator</text>
<text text-anchor="middle" x="219" y="-7.5" font-family="Helvetica,sans-Serif" font-size="10.00" fill="#000000">::cosp_simulator</text>
</a>
</g>
</g>
<!-- Node17&#45;&gt;Node18 -->
<g id="edge1" class="edge">
<title>Node17&#45;&gt;Node18</title>
<path fill="none" stroke="#191970" d="M134.129,-15.5C142.7766,-15.5 151.5279,-15.5 159.9596,-15.5"/>
<polygon fill="#191970" stroke="#191970" points="134.0506,-12.0001 124.0506,-15.5 134.0505,-19.0001 134.0506,-12.0001"/>
</g>
<!-- Node19 -->
<g id="node3" class="node">
<title>Node19</title>
<g id="a_node3"><a xlink:href="namespacemod__cosp.xhtml#a9cd1795a6258f1956410fbd897bd6644" target="_top" xlink:title="mod_cosp::cosp_iter">
<polygon fill="#ffffff" stroke="#000000" points="314,-6 314,-25 430,-25 430,-6 314,-6"/>
<text text-anchor="middle" x="372" y="-13" font-family="Helvetica,sans-Serif" font-size="10.00" fill="#000000">mod_cosp::cosp_iter</text>
</a>
</g>
</g>
<!-- Node18&#45;&gt;Node19 -->
<g id="edge2" class="edge">
<title>Node18&#45;&gt;Node19</title>
<path fill="none" stroke="#191970" d="M288.4046,-15.5C296.8793,-15.5 305.4711,-15.5 313.7592,-15.5"/>
<polygon fill="#191970" stroke="#191970" points="288.1538,-12.0001 278.1538,-15.5 288.1538,-19.0001 288.1538,-12.0001"/>
</g>
<!-- Node20 -->
<g id="node4" class="node">
<title>Node20</title>
<g id="a_node4"><a xlink:href="namespacemod__cosp.xhtml#afa9a714cd1a25c250d2a6060049fed9f" target="_top" xlink:title="%%%%%%%%%%%%%%%%%%%%%%%%%%%%%%%%%%%%%%%%%%%%%%%%%%%%%%%%%%%%%%%%% ">
<polygon fill="#ffffff" stroke="#000000" points="466,-6 466,-25 561,-25 561,-6 466,-6"/>
<text text-anchor="middle" x="513.5" y="-13" font-family="Helvetica,sans-Serif" font-size="10.00" fill="#000000">mod_cosp::cosp</text>
</a>
</g>
</g>
<!-- Node19&#45;&gt;Node20 -->
<g id="edge3" class="edge">
<title>Node19&#45;&gt;Node20</title>
<path fill="none" stroke="#191970" d="M440.622,-15.5C449.0696,-15.5 457.5576,-15.5 465.6038,-15.5"/>
<polygon fill="#191970" stroke="#191970" points="440.3704,-12.0001 430.3704,-15.5 440.3704,-19.0001 440.3704,-12.0001"/>
</g>
<!-- Node21 -->
<g id="node5" class="node">
<title>Node21</title>
<g id="a_node5"><a xlink:href="namespacecosp__main__mod.xhtml#a1b53063ed2ac89adb22ebd3cec76b138" target="_top" xlink:title="Routine that calls the main COSP routine and passes the outputs!&gt; to the diagnostics routine/...">
<polygon fill="#ffffff" stroke="#000000" points="597,-6 597,-25 752,-25 752,-6 597,-6"/>
<text text-anchor="middle" x="674.5" y="-13" font-family="Helvetica,sans-Serif" font-size="10.00" fill="#000000">cosp_main_mod::cosp_main</text>
</a>
</g>
</g>
<!-- Node20&#45;&gt;Node21 -->
<g id="edge4" class="edge">
<title>Node20&#45;&gt;Node21</title>
<path fill="none" stroke="#191970" d="M571.5984,-15.5C579.8406,-15.5 588.4231,-15.5 596.9612,-15.5"/>
<polygon fill="#191970" stroke="#191970" points="571.3694,-12.0001 561.3694,-15.5 571.3694,-19.0001 571.3694,-12.0001"/>
</g>
</g>
</svg>
