<?xml version="1.0" encoding="UTF-8" standalone="no"?>
<!DOCTYPE svg PUBLIC "-//W3C//DTD SVG 1.1//EN"
 "http://www.w3.org/Graphics/SVG/1.1/DTD/svg11.dtd">
<!-- Generated by graphviz version 2.40.1 (20161225.0304)
 -->
<!-- Title: sl_input_mod::print_nlist_run_sl Pages: 1 -->
<svg width="650pt" height="72pt"
 viewBox="0.00 0.00 650.00 71.50" xmlns="http://www.w3.org/2000/svg" xmlns:xlink="http://www.w3.org/1999/xlink">
<g id="graph0" class="graph" transform="scale(1 1) rotate(0) translate(4 67.5)">
<title>sl_input_mod::print_nlist_run_sl</title>
<polygon fill="#ffffff" stroke="transparent" points="-4,4 -4,-67.5 646,-67.5 646,4 -4,4"/>
<!-- Node6 -->
<g id="node1" class="node">
<title>Node6</title>
<polygon fill="#bfbfbf" stroke="#000000" points="0,-33 0,-63 110,-63 110,-33 0,-33"/>
<text text-anchor="start" x="8" y="-51" font-family="Helvetica,sans-Serif" font-size="10.00" fill="#000000">sl_input_mod::print</text>
<text text-anchor="middle" x="55" y="-40" font-family="Helvetica,sans-Serif" font-size="10.00" fill="#000000">_nlist_run_sl</text>
</g>
<!-- Node7 -->
<g id="node2" class="node">
<title>Node7</title>
<g id="a_node2"><a xlink:href="namespaceumprintmgr.xhtml#aae44897e556705dbf5e945a26538be9a" target="_top" xlink:title="umprintmgr::umprint">
<polygon fill="#ffffff" stroke="#000000" points="146,-38.5 146,-57.5 265,-57.5 265,-38.5 146,-38.5"/>
<text text-anchor="middle" x="205.5" y="-45.5" font-family="Helvetica,sans-Serif" font-size="10.00" fill="#000000">umprintmgr::umprint</text>
</a>
</g>
</g>
<!-- Node6&#45;&gt;Node7 -->
<g id="edge1" class="edge">
<title>Node6&#45;&gt;Node7</title>
<path fill="none" stroke="#191970" d="M110.1861,-48C118.4166,-48 126.9927,-48 135.4796,-48"/>
<polygon fill="#191970" stroke="#191970" points="135.7584,-51.5001 145.7583,-48 135.7583,-44.5001 135.7584,-51.5001"/>
</g>
<!-- Node8 -->
<g id="node3" class="node">
<title>Node8</title>
<g id="a_node3"><a xlink:href="namespaceumprintmgr.xhtml#a088ce22a18d574e9df7ee1850bfb10c7" target="_top" xlink:title="umprintmgr::umprintopenstream">
<polygon fill="#ffffff" stroke="#000000" points="301,-38.5 301,-57.5 478,-57.5 478,-38.5 301,-38.5"/>
<text text-anchor="middle" x="389.5" y="-45.5" font-family="Helvetica,sans-Serif" font-size="10.00" fill="#000000">umprintmgr::umprintopenstream</text>
</a>
</g>
</g>
<!-- Node7&#45;&gt;Node8 -->
<g id="edge2" class="edge">
<title>Node7&#45;&gt;Node8</title>
<path fill="none" stroke="#191970" d="M265.2395,-41.6333C273.4605,-41.4301 282.0751,-41.3077 290.7702,-41.2661"/>
<polygon fill="#191970" stroke="#191970" points="290.9998,-44.7659 300.9958,-41.2543 290.9917,-37.7659 290.9998,-44.7659"/>
</g>
<!-- Node9 -->
<g id="node4" class="node">
<title>Node9</title>
<g id="a_node4"><a xlink:href="namespaceumprintmgr.xhtml#ad3a290b30a6e25500eabc0bf90330b77" target="_top" xlink:title="umprintmgr::umprintflush">
<polygon fill="#ffffff" stroke="#000000" points="318.5,-.5 318.5,-19.5 460.5,-19.5 460.5,-.5 318.5,-.5"/>
<text text-anchor="middle" x="389.5" y="-7.5" font-family="Helvetica,sans-Serif" font-size="10.00" fill="#000000">umprintmgr::umprintflush</text>
</a>
</g>
</g>
<!-- Node7&#45;&gt;Node9 -->
<g id="edge4" class="edge">
<title>Node7&#45;&gt;Node9</title>
<path fill="none" stroke="#191970" d="M251.931,-38.411C276.6493,-33.3061 307.239,-26.9887 333.292,-21.6082"/>
<polygon fill="#191970" stroke="#191970" points="334.3175,-24.9703 343.4029,-19.5201 332.9017,-18.115 334.3175,-24.9703"/>
</g>
<!-- Node8&#45;&gt;Node7 -->
<g id="edge3" class="edge">
<title>Node8&#45;&gt;Node7</title>
<path fill="none" stroke="#191970" d="M300.9958,-54.7457C292.3802,-54.767 283.7236,-54.7094 275.3289,-54.5727"/>
<polygon fill="#191970" stroke="#191970" points="275.3089,-51.0716 265.2395,-54.3667 275.166,-58.0702 275.3089,-51.0716"/>
</g>
<!-- Node10 -->
<g id="node5" class="node">
<title>Node10</title>
<g id="a_node5"><a xlink:href="namespaceumflush__mod.xhtml#a3a003ab59990bdcb712b443dd5e0d1cd" target="_top" xlink:title="umflush_mod::umflush">
<polygon fill="#ffffff" stroke="#000000" points="514,-.5 514,-19.5 642,-19.5 642,-.5 514,-.5"/>
<text text-anchor="middle" x="578" y="-7.5" font-family="Helvetica,sans-Serif" font-size="10.00" fill="#000000">umflush_mod::umflush</text>
</a>
</g>
</g>
<!-- Node9&#45;&gt;Node10 -->
<g id="edge5" class="edge">
<title>Node9&#45;&gt;Node10</title>
<path fill="none" stroke="#191970" d="M460.7638,-10C474.7742,-10 489.5063,-10 503.6162,-10"/>
<polygon fill="#191970" stroke="#191970" points="503.7612,-13.5001 513.7611,-10 503.7611,-6.5001 503.7612,-13.5001"/>
</g>
</g>
</svg>
