<?xml version="1.0" encoding="UTF-8" standalone="no"?>
<!DOCTYPE svg PUBLIC "-//W3C//DTD SVG 1.1//EN"
 "http://www.w3.org/Graphics/SVG/1.1/DTD/svg11.dtd">
<!-- Generated by graphviz version 2.40.1 (20161225.0304)
 -->
<!-- Title: conv_diag_0a_mod::conv_diag_0a Pages: 1 -->
<!--zoomable 580 -->
<svg id="main" version="1.1" xmlns="http://www.w3.org/2000/svg" xmlns:xlink="http://www.w3.org/1999/xlink" xml:space="preserve" onload="init(evt)">
<style type="text/css"><![CDATA[
.edge:hover path { stroke: red; }
.edge:hover polygon { stroke: red; fill: red; }
]]></style>
<script type="text/javascript"><![CDATA[
var edges = document.getElementsByTagName('g');
if (edges && edges.length) {
  for (var i=0;i<edges.length;i++) {
    if (edges[i].id.substr(0,4)=='edge') {
      edges[i].setAttribute('class','edge');
    }
  }
}
]]></script>
        <defs>
                <circle id="rim" cx="0" cy="0" r="7"/>
                <circle id="rim2" cx="0" cy="0" r="3.5"/>
                <g id="zoomPlus">
                        <use xlink:href="#rim" fill="#404040">
                                <set attributeName="fill" to="#808080" begin="zoomplus.mouseover" end="zoomplus.mouseout"/>
                        </use>
                        <path d="M-4,0h8M0,-4v8" fill="none" stroke="white" stroke-width="1.5" pointer-events="none"/>
                </g>
                <g id="zoomMin">
                        <use xlink:href="#rim" fill="#404040">
                                <set attributeName="fill" to="#808080" begin="zoomminus.mouseover" end="zoomminus.mouseout"/>
                        </use>
                        <path d="M-4,0h8" fill="none" stroke="white" stroke-width="1.5" pointer-events="none"/>
                </g>
                <g id="dirArrow">
                        <path fill="none" stroke="white" stroke-width="1.5" d="M0,-3.0v7 M-2.5,-0.5L0,-3.0L2.5,-0.5"/>
                </g>
               <g id="resetDef">
                       <use xlink:href="#rim2" fill="#404040">
                               <set attributeName="fill" to="#808080" begin="reset.mouseover" end="reset.mouseout"/>
                       </use>
               </g>
        </defs>

<script type="text/javascript">
var viewWidth = 1666;
var viewHeight = 580;
var sectionId = 'dynsection-0';
</script>
<script xlink:href="svgpan.js"/>
<svg id="graph" class="graph">
<g id="viewport">
<title>conv_diag_0a_mod::conv_diag_0a</title>
<polygon fill="#ffffff" stroke="transparent" points="-4,4 -4,-576.3561 1662,-576.3561 1662,4 -4,4"/>
<!-- Node0 -->
<g id="node1" class="node">
<title>Node0</title>
<polygon fill="#bfbfbf" stroke="#000000" points="0,-425 0,-455 140,-455 140,-425 0,-425"/>
<text text-anchor="start" x="8" y="-443" font-family="Helvetica,sans-Serif" font-size="10.00" fill="#000000">conv_diag_0a_mod::conv</text>
<text text-anchor="middle" x="70" y="-432" font-family="Helvetica,sans-Serif" font-size="10.00" fill="#000000">_diag_0a</text>
</g>
<!-- Node1 -->
<g id="node2" class="node">
<title>Node1</title>
<g id="a_node2"><a xlink:href="namespaceconv__surf__flux__mod.xhtml#a8204c4be1078f5efd8ae3367d03b40d2" target="_top" xlink:title="Calculate surface fluxes for convective diagnosis. ">
<polygon fill="#ffffff" stroke="#000000" points="177,-523 177,-553 291,-553 291,-523 177,-523"/>
<text text-anchor="start" x="185" y="-541" font-family="Helvetica,sans-Serif" font-size="10.00" fill="#000000">conv_surf_flux_mod</text>
<text text-anchor="middle" x="234" y="-530" font-family="Helvetica,sans-Serif" font-size="10.00" fill="#000000">::conv_surf_flux</text>
</a>
</g>
</g>
<!-- Node0&#45;&gt;Node1 -->
<g id="edge1" class="edge">
<title>Node0&#45;&gt;Node1</title>
<path fill="none" stroke="#191970" d="M95.2656,-455.0977C123.3154,-471.8592 168.7373,-499.0016 199.9185,-517.6342"/>
<polygon fill="#191970" stroke="#191970" points="198.3262,-520.76 208.7057,-522.8851 201.9169,-514.7511 198.3262,-520.76"/>
</g>
<!-- Node3 -->
<g id="node4" class="node">
<title>Node3</title>
<g id="a_node4"><a xlink:href="conv__diag__comp-0a_8f90.xhtml#a78a8fa44cacc398f731b165c2f466a1f" target="_top" xlink:title="To diagnose convective occurrence and type. ">
<polygon fill="#ffffff" stroke="#000000" points="176,-430.5 176,-449.5 292,-449.5 292,-430.5 176,-430.5"/>
<text text-anchor="middle" x="234" y="-437.5" font-family="Helvetica,sans-Serif" font-size="10.00" fill="#000000">conv_diag_comp_0a</text>
</a>
</g>
</g>
<!-- Node0&#45;&gt;Node3 -->
<g id="edge3" class="edge">
<title>Node0&#45;&gt;Node3</title>
<path fill="none" stroke="#191970" d="M140.0265,-440C148.506,-440 157.1601,-440 165.6154,-440"/>
<polygon fill="#191970" stroke="#191970" points="165.8055,-443.5001 175.8055,-440 165.8055,-436.5001 165.8055,-443.5001"/>
</g>
<!-- Node7 -->
<g id="node8" class="node">
<title>Node7</title>
<g id="a_node8"><a xlink:href="scmoutput_8f90.xhtml#a1ebaa1ca3d36d0fc74ab3a09f13c6d78" target="_top" xlink:title="Create a SCM output diagnostic. ">
<polygon fill="#ffffff" stroke="#000000" points="513,-323.5 513,-342.5 581,-342.5 581,-323.5 513,-323.5"/>
<text text-anchor="middle" x="547" y="-330.5" font-family="Helvetica,sans-Serif" font-size="10.00" fill="#000000">scmoutput</text>
</a>
</g>
</g>
<!-- Node0&#45;&gt;Node7 -->
<g id="edge35" class="edge">
<title>Node0&#45;&gt;Node7</title>
<path fill="none" stroke="#191970" d="M94.0612,-424.9573C138.3238,-398.2736 236.5241,-343.6185 328,-324 387.5437,-311.2299 458.2253,-317.943 502.8503,-324.7705"/>
<polygon fill="#191970" stroke="#191970" points="502.3594,-328.2364 512.7865,-326.3589 503.4644,-321.3241 502.3594,-328.2364"/>
</g>
<!-- Node2 -->
<g id="node3" class="node">
<title>Node2</title>
<g id="a_node3"><a xlink:href="qsat__mix_8f90.xhtml#ab2c9bd03497c107afdc2ea71e3887626" target="_top" xlink:title="Saturation Specific Humidity/mixing Scheme(Qsat):Vapour to Liquid/Ice. ">
<polygon fill="#ffffff" stroke="#000000" points="516,-449.5 516,-468.5 578,-468.5 578,-449.5 516,-449.5"/>
<text text-anchor="middle" x="547" y="-456.5" font-family="Helvetica,sans-Serif" font-size="10.00" fill="#000000">qsat_mix</text>
</a>
</g>
</g>
<!-- Node1&#45;&gt;Node2 -->
<g id="edge2" class="edge">
<title>Node1&#45;&gt;Node2</title>
<path fill="none" stroke="#191970" d="M275.6812,-553.0412C326.2351,-568.6188 412.662,-586.5105 477,-554 508.3959,-538.1354 529.1665,-500.8154 539.4412,-477.9578"/>
<polygon fill="#191970" stroke="#191970" points="542.7272,-479.1743 543.4239,-468.6024 536.2866,-476.4324 542.7272,-479.1743"/>
</g>
<!-- Node4 -->
<g id="node5" class="node">
<title>Node4</title>
<g id="a_node5"><a xlink:href="namespacemean__w__layer__mod.xhtml#aeea19c74cf1e965f6809de28da8ce460" target="_top" xlink:title="Subroutine Interface: ">
<polygon fill="#ffffff" stroke="#000000" points="328,-362 328,-392 477,-392 477,-362 328,-362"/>
<text text-anchor="start" x="336" y="-380" font-family="Helvetica,sans-Serif" font-size="10.00" fill="#000000">mean_w_layer_mod::mean</text>
<text text-anchor="middle" x="402.5" y="-369" font-family="Helvetica,sans-Serif" font-size="10.00" fill="#000000">_w_layer</text>
</a>
</g>
</g>
<!-- Node3&#45;&gt;Node4 -->
<g id="edge4" class="edge">
<title>Node3&#45;&gt;Node4</title>
<path fill="none" stroke="#191970" d="M256.6438,-430.3984C275.591,-422.4725 303.3983,-411.0911 328,-402 333.9626,-399.7966 340.2227,-397.5672 346.4744,-395.3941"/>
<polygon fill="#191970" stroke="#191970" points="347.9269,-398.596 356.2477,-392.0375 345.6531,-391.9755 347.9269,-398.596"/>
</g>
<!-- Node5 -->
<g id="node6" class="node">
<title>Node5</title>
<g id="a_node6"><a xlink:href="lift__cond__lev__5a_8f90.xhtml#a774a0638566da915666457b732f9dbf0" target="_top" xlink:title="Lifting condensation level calculation. ">
<polygon fill="#ffffff" stroke="#000000" points="363,-449.5 363,-468.5 442,-468.5 442,-449.5 363,-449.5"/>
<text text-anchor="middle" x="402.5" y="-456.5" font-family="Helvetica,sans-Serif" font-size="10.00" fill="#000000">lift_cond_lev</text>
</a>
</g>
</g>
<!-- Node3&#45;&gt;Node5 -->
<g id="edge5" class="edge">
<title>Node3&#45;&gt;Node5</title>
<path fill="none" stroke="#191970" d="M292.4602,-446.592C312.1093,-448.8076 333.8297,-451.2568 352.7458,-453.3897"/>
<polygon fill="#191970" stroke="#191970" points="352.606,-456.8961 362.9352,-454.5387 353.3904,-449.9401 352.606,-456.8961"/>
</g>
<!-- Node6 -->
<g id="node7" class="node">
<title>Node6</title>
<g id="a_node7"><a xlink:href="parcel__ascent__5a_8f90.xhtml#ac8687d4575fe13570e71edcd737b4df2" target="_top" xlink:title="Calculates parcel ascent. ">
<polygon fill="#ffffff" stroke="#000000" points="360.5,-411.5 360.5,-430.5 444.5,-430.5 444.5,-411.5 360.5,-411.5"/>
<text text-anchor="middle" x="402.5" y="-418.5" font-family="Helvetica,sans-Serif" font-size="10.00" fill="#000000">parcel_ascent</text>
</a>
</g>
</g>
<!-- Node3&#45;&gt;Node6 -->
<g id="edge7" class="edge">
<title>Node3&#45;&gt;Node6</title>
<path fill="none" stroke="#191970" d="M292.4602,-433.408C311.2201,-431.2927 331.868,-428.9644 350.1607,-426.9018"/>
<polygon fill="#191970" stroke="#191970" points="350.7947,-430.3525 360.3395,-425.754 350.0103,-423.3966 350.7947,-430.3525"/>
</g>
<!-- Node3&#45;&gt;Node7 -->
<g id="edge34" class="edge">
<title>Node3&#45;&gt;Node7</title>
<path fill="none" stroke="#191970" d="M240.6865,-430.416C254.4868,-411.5202 288.1878,-369.7548 328,-352 384.2645,-326.9081 456.6499,-325.9058 502.4538,-328.5898"/>
<polygon fill="#191970" stroke="#191970" points="502.4414,-332.0968 512.6534,-329.2745 502.9103,-325.1125 502.4414,-332.0968"/>
</g>
<!-- Node21 -->
<g id="node22" class="node">
<title>Node21</title>
<g id="a_node22"><a xlink:href="cv__parcel__neutral__dil_8f90.xhtml#a1549a7515921b22c792e5dc0b9986987" target="_top" xlink:title="Calculate level of neutral buoyancy for a dilute and an undilute ascent. ">
<polygon fill="#ffffff" stroke="#000000" points="342.5,-525.5 342.5,-544.5 462.5,-544.5 462.5,-525.5 342.5,-525.5"/>
<text text-anchor="middle" x="402.5" y="-532.5" font-family="Helvetica,sans-Serif" font-size="10.00" fill="#000000">cv_parcel_neutral_dil</text>
</a>
</g>
</g>
<!-- Node3&#45;&gt;Node21 -->
<g id="edge32" class="edge">
<title>Node3&#45;&gt;Node21</title>
<path fill="none" stroke="#191970" d="M243.1598,-449.7534C258.9324,-465.9648 292.9195,-498.4087 328,-516 332.6534,-518.3335 337.6181,-520.3969 342.6911,-522.2185"/>
<polygon fill="#191970" stroke="#191970" points="341.9346,-525.6533 352.5271,-525.4307 344.1077,-518.9992 341.9346,-525.6533"/>
</g>
<!-- Node22 -->
<g id="node23" class="node">
<title>Node22</title>
<g id="a_node23"><a xlink:href="cv__parcel__neutral__inv_8f90.xhtml#a0897fdef4b8519a550412c644f712f4d" target="_top" xlink:title="Calculate level of neutral buoyancy, CAPE and CIN for ascent. ">
<polygon fill="#ffffff" stroke="#000000" points="341,-487.5 341,-506.5 464,-506.5 464,-487.5 341,-487.5"/>
<text text-anchor="middle" x="402.5" y="-494.5" font-family="Helvetica,sans-Serif" font-size="10.00" fill="#000000">cv_parcel_neutral_inv</text>
</a>
</g>
</g>
<!-- Node3&#45;&gt;Node22 -->
<g id="edge33" class="edge">
<title>Node3&#45;&gt;Node22</title>
<path fill="none" stroke="#191970" d="M255.3487,-449.5902C274.205,-457.8283 302.5768,-469.6613 328,-478 335.4018,-480.4278 343.3006,-482.7361 351.0851,-484.8532"/>
<polygon fill="#191970" stroke="#191970" points="350.2762,-488.2594 360.8382,-487.4272 352.0625,-481.4912 350.2762,-488.2594"/>
</g>
<!-- Node5&#45;&gt;Node2 -->
<g id="edge6" class="edge">
<title>Node5&#45;&gt;Node2</title>
<path fill="none" stroke="#191970" d="M442.3678,-459C462.1439,-459 486.0013,-459 505.9379,-459"/>
<polygon fill="#191970" stroke="#191970" points="505.9637,-462.5001 515.9637,-459 505.9637,-455.5001 505.9637,-462.5001"/>
</g>
<!-- Node6&#45;&gt;Node2 -->
<g id="edge8" class="edge">
<title>Node6&#45;&gt;Node2</title>
<path fill="none" stroke="#191970" d="M440.4291,-430.5536C452.1626,-433.5411 465.1243,-436.8741 477,-440 486.3997,-442.4741 496.4948,-445.1836 506.0115,-447.7615"/>
<polygon fill="#191970" stroke="#191970" points="505.0982,-451.1402 515.6661,-450.3851 506.9339,-444.3852 505.0982,-451.1402"/>
</g>
<!-- Node6&#45;&gt;Node7 -->
<g id="edge9" class="edge">
<title>Node6&#45;&gt;Node7</title>
<path fill="none" stroke="#191970" d="M444.5658,-413.6763C455.5639,-410.716 467.1022,-406.6224 477,-401 499.6228,-388.1493 520.2926,-366.2476 533.2121,-350.7775"/>
<polygon fill="#191970" stroke="#191970" points="535.983,-352.9173 539.5555,-342.943 530.5426,-348.5124 535.983,-352.9173"/>
</g>
<!-- Node8 -->
<g id="node9" class="node">
<title>Node8</title>
<g id="a_node9"><a xlink:href="namespaces__scmop__mod.xhtml#aed5d8df9d253718e6f8ed9b708bdd0da" target="_top" xlink:title="s_scmop_mod::stepnmbr">
<polygon fill="#ffffff" stroke="#000000" points="617,-380.5 617,-399.5 756,-399.5 756,-380.5 617,-380.5"/>
<text text-anchor="middle" x="686.5" y="-387.5" font-family="Helvetica,sans-Serif" font-size="10.00" fill="#000000">s_scmop_mod::stepnmbr</text>
</a>
</g>
</g>
<!-- Node7&#45;&gt;Node8 -->
<g id="edge10" class="edge">
<title>Node7&#45;&gt;Node8</title>
<path fill="none" stroke="#191970" d="M565.7681,-342.5252C579.7243,-349.4413 599.329,-358.8081 617,-366 626.577,-369.8977 637.0514,-373.7316 646.8965,-377.1519"/>
<polygon fill="#191970" stroke="#191970" points="645.8808,-380.5034 656.4753,-380.4213 648.142,-373.8787 645.8808,-380.5034"/>
</g>
<!-- Node9 -->
<g id="node10" class="node">
<title>Node9</title>
<g id="a_node10"><a xlink:href="namespaceumprintmgr.xhtml#aae44897e556705dbf5e945a26538be9a" target="_top" xlink:title="umprintmgr::umprint">
<polygon fill="#ffffff" stroke="#000000" points="1158,-266.5 1158,-285.5 1277,-285.5 1277,-266.5 1158,-266.5"/>
<text text-anchor="middle" x="1217.5" y="-273.5" font-family="Helvetica,sans-Serif" font-size="10.00" fill="#000000">umprintmgr::umprint</text>
</a>
</g>
</g>
<!-- Node7&#45;&gt;Node9 -->
<g id="edge11" class="edge">
<title>Node7&#45;&gt;Node9</title>
<path fill="none" stroke="#191970" d="M581.172,-330.095C686.0929,-321.1755 1005.0946,-294.0568 1147.5272,-281.9485"/>
<polygon fill="#191970" stroke="#191970" points="1148.215,-285.4027 1157.8825,-281.0682 1147.622,-278.4279 1148.215,-285.4027"/>
</g>
<!-- Node13 -->
<g id="node14" class="node">
<title>Node13</title>
<g id="a_node14"><a xlink:href="getdistinctdiags_8f90.xhtml#ae19d30f8fc794efdb49886f1952c090f" target="_top" xlink:title="Obtain indices of diagnostic entries in SCMop given SCMoutput inputs. ">
<polygon fill="#ffffff" stroke="#000000" points="639,-114.5 639,-133.5 734,-133.5 734,-114.5 639,-114.5"/>
<text text-anchor="middle" x="686.5" y="-121.5" font-family="Helvetica,sans-Serif" font-size="10.00" fill="#000000">getdistinctdiags</text>
</a>
</g>
</g>
<!-- Node7&#45;&gt;Node13 -->
<g id="edge16" class="edge">
<title>Node7&#45;&gt;Node13</title>
<path fill="none" stroke="#191970" d="M553.3565,-323.4766C574.9619,-291.1073 645.808,-184.9651 674.3868,-142.1481"/>
<polygon fill="#191970" stroke="#191970" points="677.4656,-143.8399 680.1061,-133.5793 671.6434,-139.9537 677.4656,-143.8399"/>
</g>
<!-- Node20 -->
<g id="node21" class="node">
<title>Node20</title>
<g id="a_node21"><a xlink:href="add2dump_8f90.xhtml#a9ef6bd2348ed8547ea4a98403bc63c63" target="_top" xlink:title="Update the dump array of a SCM diagnostic entry in SCMop. ">
<polygon fill="#ffffff" stroke="#000000" points="829.5,-342.5 829.5,-361.5 897.5,-361.5 897.5,-342.5 829.5,-342.5"/>
<text text-anchor="middle" x="863.5" y="-349.5" font-family="Helvetica,sans-Serif" font-size="10.00" fill="#000000">add2dump</text>
</a>
</g>
</g>
<!-- Node7&#45;&gt;Node20 -->
<g id="edge30" class="edge">
<title>Node7&#45;&gt;Node20</title>
<path fill="none" stroke="#191970" d="M581.1718,-335.0514C638.8606,-338.5145 755.5038,-345.5168 819.323,-349.348"/>
<polygon fill="#191970" stroke="#191970" points="819.2793,-352.8516 829.4711,-349.9572 819.6988,-345.8642 819.2793,-352.8516"/>
</g>
<!-- Node10 -->
<g id="node11" class="node">
<title>Node10</title>
<g id="a_node11"><a xlink:href="namespaceumprintmgr.xhtml#a088ce22a18d574e9df7ee1850bfb10c7" target="_top" xlink:title="umprintmgr::umprintopenstream">
<polygon fill="#ffffff" stroke="#000000" points="1317,-266.5 1317,-285.5 1494,-285.5 1494,-266.5 1317,-266.5"/>
<text text-anchor="middle" x="1405.5" y="-273.5" font-family="Helvetica,sans-Serif" font-size="10.00" fill="#000000">umprintmgr::umprintopenstream</text>
</a>
</g>
</g>
<!-- Node9&#45;&gt;Node10 -->
<g id="edge12" class="edge">
<title>Node9&#45;&gt;Node10</title>
<path fill="none" stroke="#191970" d="M1277.2427,-269.6653C1286.6774,-269.4266 1296.6455,-269.2907 1306.687,-269.2579"/>
<polygon fill="#191970" stroke="#191970" points="1306.7354,-272.7578 1316.7359,-269.2593 1306.7365,-265.7578 1306.7354,-272.7578"/>
</g>
<!-- Node11 -->
<g id="node12" class="node">
<title>Node11</title>
<g id="a_node12"><a xlink:href="namespaceumprintmgr.xhtml#ad3a290b30a6e25500eabc0bf90330b77" target="_top" xlink:title="umprintmgr::umprintflush">
<polygon fill="#ffffff" stroke="#000000" points="1334.5,-228.5 1334.5,-247.5 1476.5,-247.5 1476.5,-228.5 1334.5,-228.5"/>
<text text-anchor="middle" x="1405.5" y="-235.5" font-family="Helvetica,sans-Serif" font-size="10.00" fill="#000000">umprintmgr::umprintflush</text>
</a>
</g>
</g>
<!-- Node9&#45;&gt;Node11 -->
<g id="edge14" class="edge">
<title>Node9&#45;&gt;Node11</title>
<path fill="none" stroke="#191970" d="M1264.9403,-266.411C1290.3077,-261.2835 1321.7274,-254.9328 1348.4232,-249.5368"/>
<polygon fill="#191970" stroke="#191970" points="1349.2925,-252.932 1358.4008,-247.5201 1347.9056,-246.0707 1349.2925,-252.932"/>
</g>
<!-- Node10&#45;&gt;Node9 -->
<g id="edge13" class="edge">
<title>Node10&#45;&gt;Node9</title>
<path fill="none" stroke="#191970" d="M1316.7359,-282.7407C1306.9057,-282.7757 1296.9989,-282.712 1287.4473,-282.5496"/>
<polygon fill="#191970" stroke="#191970" points="1287.3142,-279.0461 1277.2427,-282.3347 1287.1667,-286.0446 1287.3142,-279.0461"/>
</g>
<!-- Node12 -->
<g id="node13" class="node">
<title>Node12</title>
<g id="a_node13"><a xlink:href="namespaceumflush__mod.xhtml#a3a003ab59990bdcb712b443dd5e0d1cd" target="_top" xlink:title="umflush_mod::umflush">
<polygon fill="#ffffff" stroke="#000000" points="1530,-228.5 1530,-247.5 1658,-247.5 1658,-228.5 1530,-228.5"/>
<text text-anchor="middle" x="1594" y="-235.5" font-family="Helvetica,sans-Serif" font-size="10.00" fill="#000000">umflush_mod::umflush</text>
</a>
</g>
</g>
<!-- Node11&#45;&gt;Node12 -->
<g id="edge15" class="edge">
<title>Node11&#45;&gt;Node12</title>
<path fill="none" stroke="#191970" d="M1476.7638,-238C1490.7742,-238 1505.5063,-238 1519.6162,-238"/>
<polygon fill="#191970" stroke="#191970" points="1519.7612,-241.5001 1529.7611,-238 1519.7611,-234.5001 1519.7612,-241.5001"/>
</g>
<!-- Node13&#45;&gt;Node9 -->
<g id="edge23" class="edge">
<title>Node13&#45;&gt;Node9</title>
<path fill="none" stroke="#191970" d="M703.0109,-133.6757C723.5281,-145.522 759.7747,-165.8725 792,-181 869.623,-217.4384 887.6617,-232.8058 971,-253 1029.6197,-267.2045 1098.0435,-272.7473 1147.9079,-274.8563"/>
<polygon fill="#191970" stroke="#191970" points="1147.8123,-278.3551 1157.9403,-275.245 1148.0834,-271.3604 1147.8123,-278.3551"/>
</g>
<!-- Node14 -->
<g id="node15" class="node">
<title>Node14</title>
<g id="a_node15"><a xlink:href="namespaces__scmop__mod.xhtml#a38fce513317cc68592785da1765674f9" target="_top" xlink:title="s_scmop_mod::stream">
<polygon fill="#ffffff" stroke="#000000" points="1154,-76.5 1154,-95.5 1281,-95.5 1281,-76.5 1154,-76.5"/>
<text text-anchor="middle" x="1217.5" y="-83.5" font-family="Helvetica,sans-Serif" font-size="10.00" fill="#000000">s_scmop_mod::stream</text>
</a>
</g>
</g>
<!-- Node13&#45;&gt;Node14 -->
<g id="edge17" class="edge">
<title>Node13&#45;&gt;Node14</title>
<path fill="none" stroke="#191970" d="M734.09,-120.5943C827.0302,-113.9432 1033.2336,-99.1867 1143.9067,-91.2666"/>
<polygon fill="#191970" stroke="#191970" points="1144.2616,-94.7502 1153.9862,-90.5452 1143.7618,-87.7681 1144.2616,-94.7502"/>
</g>
<!-- Node15 -->
<g id="node16" class="node">
<title>Node15</title>
<g id="a_node16"><a xlink:href="namespaces__scmop__mod.xhtml#a5bda18f0a188e3401cfc9addee6bc4e9" target="_top" xlink:title="s_scmop_mod::streamison">
<polygon fill="#ffffff" stroke="#000000" points="971,-38.5 971,-57.5 1118,-57.5 1118,-38.5 971,-38.5"/>
<text text-anchor="middle" x="1044.5" y="-45.5" font-family="Helvetica,sans-Serif" font-size="10.00" fill="#000000">s_scmop_mod::streamison</text>
</a>
</g>
</g>
<!-- Node13&#45;&gt;Node15 -->
<g id="edge18" class="edge">
<title>Node13&#45;&gt;Node15</title>
<path fill="none" stroke="#191970" d="M701.5172,-114.3962C721.3634,-102.2333 757.8174,-81.6946 792,-72 846.8918,-56.432 910.9034,-50.475 960.7406,-48.3881"/>
<polygon fill="#191970" stroke="#191970" points="960.9696,-51.882 970.8315,-48.01 960.7074,-44.8869 960.9696,-51.882"/>
</g>
<!-- Node16 -->
<g id="node17" class="node">
<title>Node16</title>
<g id="a_node17"><a xlink:href="namespaces__scmop__mod.xhtml#a0aff366ad97d283dfca70868566ddaf1" target="_top" xlink:title="s_scmop_mod::notwritten">
<polygon fill="#ffffff" stroke="#000000" points="792,-.5 792,-19.5 935,-19.5 935,-.5 792,-.5"/>
<text text-anchor="middle" x="863.5" y="-7.5" font-family="Helvetica,sans-Serif" font-size="10.00" fill="#000000">s_scmop_mod::notwritten</text>
</a>
</g>
</g>
<!-- Node13&#45;&gt;Node16 -->
<g id="edge20" class="edge">
<title>Node13&#45;&gt;Node16</title>
<path fill="none" stroke="#191970" d="M695.1764,-114.4894C712.134,-96.419 751.5632,-56.8883 792,-34 799.6997,-29.6418 808.316,-25.9122 816.8286,-22.7831"/>
<polygon fill="#191970" stroke="#191970" points="818.028,-26.0718 826.3413,-19.5038 815.7465,-19.454 818.028,-26.0718"/>
</g>
<!-- Node17 -->
<g id="node18" class="node">
<title>Node17</title>
<g id="a_node18"><a xlink:href="namespaces__scmop__mod.xhtml#ab687d11e6f6da6a26dc6ae65b1ce467f" target="_top" xlink:title="s_scmop_mod::donotwrite">
<polygon fill="#ffffff" stroke="#000000" points="972,-114.5 972,-133.5 1117,-133.5 1117,-114.5 972,-114.5"/>
<text text-anchor="middle" x="1044.5" y="-121.5" font-family="Helvetica,sans-Serif" font-size="10.00" fill="#000000">s_scmop_mod::donotwrite</text>
</a>
</g>
</g>
<!-- Node13&#45;&gt;Node17 -->
<g id="edge22" class="edge">
<title>Node13&#45;&gt;Node17</title>
<path fill="none" stroke="#191970" d="M734.0396,-124C792.051,-124 891.1179,-124 961.7405,-124"/>
<polygon fill="#191970" stroke="#191970" points="961.9456,-127.5001 971.9456,-124 961.9455,-120.5001 961.9456,-127.5001"/>
</g>
<!-- Node18 -->
<g id="node19" class="node">
<title>Node18</title>
<g id="a_node19"><a xlink:href="newdiag_8f90.xhtml#ac4a0c6e99f87ae6a0d34479ccaa09d6c" target="_top" xlink:title="Create a new SCM diagnostic entry in SCMop. ">
<polygon fill="#ffffff" stroke="#000000" points="834.5,-152.5 834.5,-171.5 892.5,-171.5 892.5,-152.5 834.5,-152.5"/>
<text text-anchor="middle" x="863.5" y="-159.5" font-family="Helvetica,sans-Serif" font-size="10.00" fill="#000000">newdiag</text>
</a>
</g>
</g>
<!-- Node13&#45;&gt;Node18 -->
<g id="edge24" class="edge">
<title>Node13&#45;&gt;Node18</title>
<path fill="none" stroke="#191970" d="M731.1646,-133.589C759.8607,-139.7497 796.7829,-147.6766 824.3328,-153.5912"/>
<polygon fill="#191970" stroke="#191970" points="823.8841,-157.0746 834.396,-155.7517 825.3535,-150.2305 823.8841,-157.0746"/>
</g>
<!-- Node15&#45;&gt;Node14 -->
<g id="edge19" class="edge">
<title>Node15&#45;&gt;Node14</title>
<path fill="none" stroke="#191970" d="M1088.1552,-57.589C1111.2929,-62.6713 1139.9024,-68.9554 1164.3268,-74.3203"/>
<polygon fill="#191970" stroke="#191970" points="1163.6406,-77.753 1174.1587,-76.4799 1165.1425,-70.916 1163.6406,-77.753"/>
</g>
<!-- Node16&#45;&gt;Node15 -->
<g id="edge21" class="edge">
<title>Node16&#45;&gt;Node15</title>
<path fill="none" stroke="#191970" d="M909.1739,-19.589C933.4892,-24.6939 963.5802,-31.0113 989.2084,-36.3918"/>
<polygon fill="#191970" stroke="#191970" points="988.6487,-39.8505 999.1545,-38.4799 990.087,-32.9999 988.6487,-39.8505"/>
</g>
<!-- Node18&#45;&gt;Node9 -->
<g id="edge27" class="edge">
<title>Node18&#45;&gt;Node9</title>
<path fill="none" stroke="#191970" d="M878.5747,-171.6241C898.8497,-184.18 936.3681,-206.0675 971,-219 1028.9376,-240.6355 1097.71,-255.7144 1147.8728,-264.9043"/>
<polygon fill="#191970" stroke="#191970" points="1147.5041,-268.3941 1157.9659,-266.72 1148.7436,-261.5047 1147.5041,-268.3941"/>
</g>
<!-- Node18&#45;&gt;Node14 -->
<g id="edge25" class="edge">
<title>Node18&#45;&gt;Node14</title>
<path fill="none" stroke="#191970" d="M892.5054,-163.9314C940.5608,-166.2355 1039.2061,-167.1472 1118,-143 1147.4131,-133.9861 1177.5712,-115.0856 1196.858,-101.5184"/>
<polygon fill="#191970" stroke="#191970" points="1199.093,-104.2219 1205.1572,-95.5342 1194.9989,-98.544 1199.093,-104.2219"/>
</g>
<!-- Node18&#45;&gt;Node17 -->
<g id="edge26" class="edge">
<title>Node18&#45;&gt;Node17</title>
<path fill="none" stroke="#191970" d="M892.5808,-155.8946C918.5503,-150.4425 957.2955,-142.3081 989.1569,-135.619"/>
<polygon fill="#191970" stroke="#191970" points="990.1672,-138.9833 999.2347,-133.5032 988.7289,-132.1326 990.1672,-138.9833"/>
</g>
<!-- Node19 -->
<g id="node20" class="node">
<title>Node19</title>
<g id="a_node20"><a xlink:href="expand__scmop_8f90.xhtml#a44c4ca2bbc673edd7221e3044d985bee" target="_top" xlink:title="Increase the size of the SCM diagnostic arrays in SCMop. ">
<polygon fill="#ffffff" stroke="#000000" points="999.5,-190.5 999.5,-209.5 1089.5,-209.5 1089.5,-190.5 999.5,-190.5"/>
<text text-anchor="middle" x="1044.5" y="-197.5" font-family="Helvetica,sans-Serif" font-size="10.00" fill="#000000">expand_scmop</text>
</a>
</g>
</g>
<!-- Node18&#45;&gt;Node19 -->
<g id="edge28" class="edge">
<title>Node18&#45;&gt;Node19</title>
<path fill="none" stroke="#191970" d="M892.5808,-168.1054C918.5503,-173.5575 957.2955,-181.6919 989.1569,-188.381"/>
<polygon fill="#191970" stroke="#191970" points="988.7289,-191.8674 999.2347,-190.4968 990.1672,-185.0167 988.7289,-191.8674"/>
</g>
<!-- Node19&#45;&gt;Node9 -->
<g id="edge29" class="edge">
<title>Node19&#45;&gt;Node9</title>
<path fill="none" stroke="#191970" d="M1077.8575,-209.6049C1090.5912,-213.6048 1105.134,-218.5816 1118,-224 1144.2072,-235.0369 1172.8597,-250.3828 1192.6586,-261.5417"/>
<polygon fill="#191970" stroke="#191970" points="1190.9326,-264.5865 1201.3542,-266.4946 1194.3972,-258.504 1190.9326,-264.5865"/>
</g>
<!-- Node20&#45;&gt;Node9 -->
<g id="edge31" class="edge">
<title>Node20&#45;&gt;Node9</title>
<path fill="none" stroke="#191970" d="M897.6333,-352.9089C947.2247,-353.3133 1041.6142,-350.6115 1118,-328 1146.0736,-319.6897 1175.4589,-303.2287 1194.9512,-291.0432"/>
<polygon fill="#191970" stroke="#191970" points="1196.8847,-293.9612 1203.4234,-285.6247 1193.1132,-288.0642 1196.8847,-293.9612"/>
</g>
</g>
</svg>
        <g id="navigator" transform="translate(0 0)" fill="#404254">
                <rect fill="#f2f5e9" fill-opacity="0.5" stroke="#606060" stroke-width=".5" x="0" y="0" width="60" height="60"/>
                <use id="zoomplus" xlink:href="#zoomPlus" x="17" y="9" onmousedown="handleZoom(evt,'in')"/>
                <use id="zoomminus" xlink:href="#zoomMin" x="42" y="9" onmousedown="handleZoom(evt,'out')"/>
                <use id="reset" xlink:href="#resetDef" x="30" y="36" onmousedown="handleReset()"/>
                <g id="arrowUp" xlink:href="#dirArrow" transform="translate(30 24)" onmousedown="handlePan(0,-1)">
                  <use xlink:href="#rim" fill="#404040">
                        <set attributeName="fill" to="#808080" begin="arrowUp.mouseover" end="arrowUp.mouseout"/>
                  </use>
                  <path fill="none" stroke="white" stroke-width="1.5" d="M0,-3.0v7 M-2.5,-0.5L0,-3.0L2.5,-0.5"/>
                </g>
                <g id="arrowRight" xlink:href="#dirArrow" transform="rotate(90) translate(36 -43)" onmousedown="handlePan(1,0)">
                  <use xlink:href="#rim" fill="#404040">
                        <set attributeName="fill" to="#808080" begin="arrowRight.mouseover" end="arrowRight.mouseout"/>
                  </use>
                  <path fill="none" stroke="white" stroke-width="1.5" d="M0,-3.0v7 M-2.5,-0.5L0,-3.0L2.5,-0.5"/>
                </g>
                <g id="arrowDown" xlink:href="#dirArrow" transform="rotate(180) translate(-30 -48)" onmousedown="handlePan(0,1)">
                  <use xlink:href="#rim" fill="#404040">
                        <set attributeName="fill" to="#808080" begin="arrowDown.mouseover" end="arrowDown.mouseout"/>
                  </use>
                  <path fill="none" stroke="white" stroke-width="1.5" d="M0,-3.0v7 M-2.5,-0.5L0,-3.0L2.5,-0.5"/>
                </g>
                <g id="arrowLeft" xlink:href="#dirArrow" transform="rotate(270) translate(-36 17)" onmousedown="handlePan(-1,0)">
                  <use xlink:href="#rim" fill="#404040">
                        <set attributeName="fill" to="#808080" begin="arrowLeft.mouseover" end="arrowLeft.mouseout"/>
                  </use>
                  <path fill="none" stroke="white" stroke-width="1.5" d="M0,-3.0v7 M-2.5,-0.5L0,-3.0L2.5,-0.5"/>
                </g>
        </g>
        <svg viewBox="0 0 15 15" width="100%" height="30px" preserveAspectRatio="xMaxYMin meet">
         <g id="arrow_out" transform="scale(0.3 0.3)">
          <a xlink:href="namespaceconv__diag__0a__mod_a77a925217d0eae538e590ec90b42d802_cgraph_org.svg" target="_base">
           <rect id="button" ry="5" rx="5" y="6" x="6" height="38" width="38"
                fill="#f2f5e9" fill-opacity="0.5" stroke="#606060" stroke-width="1.0"/>
           <path id="arrow"
             d="M 11.500037,31.436501 C 11.940474,20.09759 22.043105,11.32322 32.158766,21.979434 L 37.068811,17.246167 C 37.068811,17.246167 37.088388,32 37.088388,32 L 22.160133,31.978069 C 22.160133,31.978069 26.997745,27.140456 26.997745,27.140456 C 18.528582,18.264221 13.291696,25.230495 11.500037,31.436501 z"
             style="fill:#404040;"/>
          </a>
         </g>
        </svg>
</svg>
