<?xml version="1.0" encoding="UTF-8" standalone="no"?>
<!DOCTYPE svg PUBLIC "-//W3C//DTD SVG 1.1//EN"
 "http://www.w3.org/Graphics/SVG/1.1/DTD/svg11.dtd">
<!-- Generated by graphviz version 2.40.1 (20161225.0304)
 -->
<!-- Title: radiation_mod::eval_flux_deriv Pages: 1 -->
<svg width="608pt" height="267pt"
 viewBox="0.00 0.00 608.00 267.47" xmlns="http://www.w3.org/2000/svg" xmlns:xlink="http://www.w3.org/1999/xlink">
<g id="graph0" class="graph" transform="scale(1 1) rotate(0) translate(4 263.4744)">
<title>radiation_mod::eval_flux_deriv</title>
<polygon fill="#ffffff" stroke="transparent" points="-4,4 -4,-263.4744 604,-263.4744 604,4 -4,4"/>
<!-- Node13 -->
<g id="node1" class="node">
<title>Node13</title>
<polygon fill="#bfbfbf" stroke="#000000" points="0,-74 0,-104 114,-104 114,-74 0,-74"/>
<text text-anchor="start" x="8" y="-92" font-family="Helvetica,sans-Serif" font-size="10.00" fill="#000000">radiation_mod::eval</text>
<text text-anchor="middle" x="57" y="-81" font-family="Helvetica,sans-Serif" font-size="10.00" fill="#000000">_flux_deriv</text>
</g>
<!-- Node14 -->
<g id="node2" class="node">
<title>Node14</title>
<g id="a_node2"><a xlink:href="namespaceutils__mod.xhtml#a634624f9865fd619988c365e4ee38dcf" target="_top" xlink:title="utils_mod::deriv">
<polygon fill="#ffffff" stroke="#000000" points="168.5,-120.5 168.5,-139.5 263.5,-139.5 263.5,-120.5 168.5,-120.5"/>
<text text-anchor="middle" x="216" y="-127.5" font-family="Helvetica,sans-Serif" font-size="10.00" fill="#000000">utils_mod::deriv</text>
</a>
</g>
</g>
<!-- Node13&#45;&gt;Node14 -->
<g id="edge1" class="edge">
<title>Node13&#45;&gt;Node14</title>
<path fill="none" stroke="#191970" d="M114.4026,-103.8019C132.3974,-108.4421 152.033,-113.5054 169.2035,-117.933"/>
<polygon fill="#191970" stroke="#191970" points="168.4402,-121.3506 178.9974,-120.4584 170.1881,-114.5723 168.4402,-121.3506"/>
</g>
<!-- Node15 -->
<g id="node3" class="node">
<title>Node15</title>
<g id="a_node3"><a xlink:href="namespaceutils__mod.xhtml#a27fd469d1bf78e37eae7902444010be4" target="_top" xlink:title="utils_mod::error">
<polygon fill="#ffffff" stroke="#000000" points="506,-144.5 506,-163.5 600,-163.5 600,-144.5 506,-144.5"/>
<text text-anchor="middle" x="553" y="-151.5" font-family="Helvetica,sans-Serif" font-size="10.00" fill="#000000">utils_mod::error</text>
</a>
</g>
</g>
<!-- Node13&#45;&gt;Node15 -->
<g id="edge12" class="edge">
<title>Node13&#45;&gt;Node15</title>
<path fill="none" stroke="#191970" d="M114.2494,-78.7499C195.6887,-66.5498 348.5747,-52.5265 470,-93 496.2934,-101.7641 521.1713,-122.2741 536.7107,-137.0957"/>
<polygon fill="#191970" stroke="#191970" points="534.3681,-139.7012 543.9436,-144.2356 539.2857,-134.7196 534.3681,-139.7012"/>
</g>
<!-- Node19 -->
<g id="node7" class="node">
<title>Node19</title>
<g id="a_node7"><a xlink:href="namespaceutils__mod.xhtml#a342a50c6f6fc85a69eaa3ec622a2ecba" target="_top" xlink:title="utils_mod::interp">
<polygon fill="#ffffff" stroke="#000000" points="166.5,-169.5 166.5,-188.5 265.5,-188.5 265.5,-169.5 166.5,-169.5"/>
<text text-anchor="middle" x="216" y="-176.5" font-family="Helvetica,sans-Serif" font-size="10.00" fill="#000000">utils_mod::interp</text>
</a>
</g>
</g>
<!-- Node13&#45;&gt;Node19 -->
<g id="edge7" class="edge">
<title>Node13&#45;&gt;Node19</title>
<path fill="none" stroke="#191970" d="M78.6188,-104.2373C97.1226,-116.962 124.7038,-135.1873 150,-149 160.5723,-154.7729 172.4638,-160.4222 183.2106,-165.2335"/>
<polygon fill="#191970" stroke="#191970" points="182.1244,-168.5791 192.6877,-169.396 184.9394,-162.17 182.1244,-168.5791"/>
</g>
<!-- Node20 -->
<g id="node8" class="node">
<title>Node20</title>
<g id="a_node8"><a xlink:href="namespaceradiation__mod.xhtml#a9c64e788daca7a232a3308f8221087fb" target="_top" xlink:title="radiation_mod::dtau_dp">
<polygon fill="#ffffff" stroke="#000000" points="150,-.5 150,-19.5 282,-19.5 282,-.5 150,-.5"/>
<text text-anchor="middle" x="216" y="-7.5" font-family="Helvetica,sans-Serif" font-size="10.00" fill="#000000">radiation_mod::dtau_dp</text>
</a>
</g>
</g>
<!-- Node13&#45;&gt;Node20 -->
<g id="edge13" class="edge">
<title>Node13&#45;&gt;Node20</title>
<path fill="none" stroke="#191970" d="M79.6632,-73.9851C98.1049,-62.1668 125.0688,-45.7804 150,-34 158.3298,-30.064 167.4923,-26.3606 176.2704,-23.0954"/>
<polygon fill="#191970" stroke="#191970" points="177.7317,-26.2892 185.9527,-19.6061 175.3583,-19.7038 177.7317,-26.2892"/>
</g>
<!-- Node14&#45;&gt;Node15 -->
<g id="edge2" class="edge">
<title>Node14&#45;&gt;Node15</title>
<path fill="none" stroke="#191970" d="M245.14,-120.4285C292.9632,-106.1972 390.7093,-83.3413 470,-105 493.6986,-111.4734 517.5131,-126.6374 533.5165,-138.3952"/>
<polygon fill="#191970" stroke="#191970" points="531.473,-141.2382 541.5533,-144.5 535.7072,-135.664 531.473,-141.2382"/>
</g>
<!-- Node16 -->
<g id="node4" class="node">
<title>Node16</title>
<g id="a_node4"><a xlink:href="namespaceutils__mod.xhtml#af7241d3b5409e6269728c37c50812984" target="_top" xlink:title="utils_mod::search_gridpoint\l_by_height">
<polygon fill="#ffffff" stroke="#000000" points="318,-164 318,-194 470,-194 470,-164 318,-164"/>
<text text-anchor="start" x="326" y="-182" font-family="Helvetica,sans-Serif" font-size="10.00" fill="#000000">utils_mod::search_gridpoint</text>
<text text-anchor="middle" x="394" y="-171" font-family="Helvetica,sans-Serif" font-size="10.00" fill="#000000">_by_height</text>
</a>
</g>
</g>
<!-- Node14&#45;&gt;Node16 -->
<g id="edge3" class="edge">
<title>Node14&#45;&gt;Node16</title>
<path fill="none" stroke="#191970" d="M250.7427,-139.564C273.1797,-145.7405 303.0562,-153.9649 329.7182,-161.3045"/>
<polygon fill="#191970" stroke="#191970" points="328.8056,-164.6834 339.3759,-163.963 330.6635,-157.9344 328.8056,-164.6834"/>
</g>
<!-- Node17 -->
<g id="node5" class="node">
<title>Node17</title>
<g id="a_node5"><a xlink:href="namespaceutils__mod.xhtml#adcb79f21826654c69427237b492c0d1e" target="_top" xlink:title="utils_mod::deriv_gridpoint">
<polygon fill="#ffffff" stroke="#000000" points="322,-213.5 322,-232.5 466,-232.5 466,-213.5 322,-213.5"/>
<text text-anchor="middle" x="394" y="-220.5" font-family="Helvetica,sans-Serif" font-size="10.00" fill="#000000">utils_mod::deriv_gridpoint</text>
</a>
</g>
</g>
<!-- Node14&#45;&gt;Node17 -->
<g id="edge4" class="edge">
<title>Node14&#45;&gt;Node17</title>
<path fill="none" stroke="#191970" d="M244.1771,-139.5653C256.4932,-144.5362 270.6792,-151.3903 282,-160 301.839,-175.088 296.9563,-189.6434 318,-203 322.1037,-205.6047 326.5371,-207.8717 331.1289,-209.8447"/>
<polygon fill="#191970" stroke="#191970" points="330.1308,-213.2097 340.7218,-213.4953 332.6205,-206.6674 330.1308,-213.2097"/>
</g>
<!-- Node18 -->
<g id="node6" class="node">
<title>Node18</title>
<g id="a_node6"><a xlink:href="namespaceutils__mod.xhtml#a68ca86ec0d44e08f2c97becf3a900788" target="_top" xlink:title="utils_mod::find_cubic\l_coeffs">
<polygon fill="#ffffff" stroke="#000000" points="334.5,-115 334.5,-145 453.5,-145 453.5,-115 334.5,-115"/>
<text text-anchor="start" x="342.5" y="-133" font-family="Helvetica,sans-Serif" font-size="10.00" fill="#000000">utils_mod::find_cubic</text>
<text text-anchor="middle" x="394" y="-122" font-family="Helvetica,sans-Serif" font-size="10.00" fill="#000000">_coeffs</text>
</a>
</g>
</g>
<!-- Node14&#45;&gt;Node18 -->
<g id="edge6" class="edge">
<title>Node14&#45;&gt;Node18</title>
<path fill="none" stroke="#191970" d="M263.7007,-130C282.289,-130 303.9656,-130 324.2427,-130"/>
<polygon fill="#191970" stroke="#191970" points="324.3786,-133.5001 334.3786,-130 324.3785,-126.5001 324.3786,-133.5001"/>
</g>
<!-- Node17&#45;&gt;Node15 -->
<g id="edge5" class="edge">
<title>Node17&#45;&gt;Node15</title>
<path fill="none" stroke="#191970" d="M438.4888,-213.491C449.0074,-210.6443 460.0528,-207.1508 470,-203 491.6876,-193.9502 514.5587,-180.0833 530.7879,-169.4079"/>
<polygon fill="#191970" stroke="#191970" points="533.1625,-172.0296 539.5169,-163.5518 529.2626,-166.2166 533.1625,-172.0296"/>
</g>
<!-- Node19&#45;&gt;Node15 -->
<g id="edge8" class="edge">
<title>Node19&#45;&gt;Node15</title>
<path fill="none" stroke="#191970" d="M226.924,-188.6648C244.5835,-203.5702 281.1588,-231.5398 318,-242 382.9869,-260.4516 407.9713,-268.7618 470,-242 502.7752,-227.8594 528.6166,-193.7039 542.2837,-172.3444"/>
<polygon fill="#191970" stroke="#191970" points="545.4348,-173.9014 547.6876,-163.5488 539.4706,-170.237 545.4348,-173.9014"/>
</g>
<!-- Node19&#45;&gt;Node16 -->
<g id="edge9" class="edge">
<title>Node19&#45;&gt;Node16</title>
<path fill="none" stroke="#191970" d="M265.5829,-179C278.5789,-179 292.9802,-179 307.3018,-179"/>
<polygon fill="#191970" stroke="#191970" points="307.695,-182.5001 317.695,-179 307.6949,-175.5001 307.695,-182.5001"/>
</g>
<!-- Node19&#45;&gt;Node17 -->
<g id="edge11" class="edge">
<title>Node19&#45;&gt;Node17</title>
<path fill="none" stroke="#191970" d="M254.6233,-188.5473C281.331,-195.1492 317.0631,-203.9819 345.6607,-211.051"/>
<polygon fill="#191970" stroke="#191970" points="344.9043,-214.4693 355.452,-213.4713 346.5841,-207.6738 344.9043,-214.4693"/>
</g>
<!-- Node19&#45;&gt;Node18 -->
<g id="edge10" class="edge">
<title>Node19&#45;&gt;Node18</title>
<path fill="none" stroke="#191970" d="M250.7427,-169.436C273.1797,-163.2595 303.0562,-155.0351 329.7182,-147.6955"/>
<polygon fill="#191970" stroke="#191970" points="330.6635,-151.0656 339.3759,-145.037 328.8056,-144.3166 330.6635,-151.0656"/>
</g>
</g>
</svg>
