<?xml version="1.0" encoding="UTF-8" standalone="no"?>
<!DOCTYPE svg PUBLIC "-//W3C//DTD SVG 1.1//EN"
 "http://www.w3.org/Graphics/SVG/1.1/DTD/svg11.dtd">
<!-- Generated by graphviz version 2.40.1 (20161225.0304)
 -->
<!-- Title: eg_q_to_mix_mod::eq_conv2 Pages: 1 -->
<svg width="900pt" height="252pt"
 viewBox="0.00 0.00 900.00 251.50" xmlns="http://www.w3.org/2000/svg" xmlns:xlink="http://www.w3.org/1999/xlink">
<g id="graph0" class="graph" transform="scale(1 1) rotate(0) translate(4 247.5)">
<title>eg_q_to_mix_mod::eq_conv2</title>
<polygon fill="#ffffff" stroke="transparent" points="-4,4 -4,-247.5 896,-247.5 896,4 -4,4"/>
<!-- Node30 -->
<g id="node1" class="node">
<title>Node30</title>
<polygon fill="#bfbfbf" stroke="#000000" points="0,-120.5 0,-150.5 124,-150.5 124,-120.5 0,-120.5"/>
<text text-anchor="start" x="8" y="-138.5" font-family="Helvetica,sans-Serif" font-size="10.00" fill="#000000">eg_q_to_mix_mod::eq</text>
<text text-anchor="middle" x="62" y="-127.5" font-family="Helvetica,sans-Serif" font-size="10.00" fill="#000000">_conv2</text>
</g>
<!-- Node31 -->
<g id="node2" class="node">
<title>Node31</title>
<g id="a_node2"><a xlink:href="namespaceeg__q__to__mix__mod.xhtml#a486ac614126596d905e31a41ec69776c" target="_top" xlink:title="eg_q_to_mix_mod::eg\l_q_to_mix">
<polygon fill="#ffffff" stroke="#000000" points="160,-120.5 160,-150.5 284,-150.5 284,-120.5 160,-120.5"/>
<text text-anchor="start" x="168" y="-138.5" font-family="Helvetica,sans-Serif" font-size="10.00" fill="#000000">eg_q_to_mix_mod::eg</text>
<text text-anchor="middle" x="222" y="-127.5" font-family="Helvetica,sans-Serif" font-size="10.00" fill="#000000">_q_to_mix</text>
</a>
</g>
</g>
<!-- Node30&#45;&gt;Node31 -->
<g id="edge1" class="edge">
<title>Node30&#45;&gt;Node31</title>
<path fill="none" stroke="#191970" d="M134.5453,-135.5C142.996,-135.5 151.5587,-135.5 159.8518,-135.5"/>
<polygon fill="#191970" stroke="#191970" points="134.3184,-132.0001 124.3183,-135.5 134.3183,-139.0001 134.3184,-132.0001"/>
</g>
<!-- Node32 -->
<g id="node3" class="node">
<title>Node32</title>
<g id="a_node3"><a xlink:href="iau_8f90.xhtml#a0f8a69ad9f632c479e55cb582efcb452" target="_top" xlink:title="Main routine for IAU scheme. ">
<polygon fill="#ffffff" stroke="#000000" points="378.5,-224 378.5,-243 410.5,-243 410.5,-224 378.5,-224"/>
<text text-anchor="middle" x="394.5" y="-231" font-family="Helvetica,sans-Serif" font-size="10.00" fill="#000000">iau</text>
</a>
</g>
</g>
<!-- Node31&#45;&gt;Node32 -->
<g id="edge2" class="edge">
<title>Node31&#45;&gt;Node32</title>
<path fill="none" stroke="#191970" d="M246.0696,-157.3439C265.0115,-173.5875 292.6869,-195.3081 320,-209.5 339.0517,-219.3992 362.965,-226.2212 378.4817,-229.9936"/>
<polygon fill="#191970" stroke="#191970" points="248.3505,-154.689 238.5129,-150.7556 243.7504,-159.9653 248.3505,-154.689"/>
</g>
<!-- Node37 -->
<g id="node8" class="node">
<title>Node37</title>
<g id="a_node8"><a xlink:href="atm__step__4_a_8f90.xhtml#a2319aa4963e90c64cd78bdcd5f481095" target="_top" xlink:title="Perform a 1&#45;timestep integration of the Atmosphere Model. ">
<polygon fill="#ffffff" stroke="#000000" points="505,-167 505,-186 585,-186 585,-167 505,-167"/>
<text text-anchor="middle" x="545" y="-174" font-family="Helvetica,sans-Serif" font-size="10.00" fill="#000000">atm_step_4a</text>
</a>
</g>
</g>
<!-- Node31&#45;&gt;Node37 -->
<g id="edge17" class="edge">
<title>Node31&#45;&gt;Node37</title>
<path fill="none" stroke="#191970" d="M259.2392,-155.1844C277.0915,-163.5378 299.0982,-172.3039 320,-176.5 383.5753,-189.2629 459.3074,-185.4739 504.6989,-181.2324"/>
<polygon fill="#191970" stroke="#191970" points="260.3091,-151.8144 249.7821,-150.6177 257.2652,-158.1179 260.3091,-151.8144"/>
</g>
<!-- Node39 -->
<g id="node10" class="node">
<title>Node39</title>
<g id="a_node10"><a xlink:href="namespaceeg__r__s__mod.xhtml#ad581c322c049a29bbd793d430e76dd7b" target="_top" xlink:title="eg_r_s_mod::eg_r_s">
<polygon fill="#ffffff" stroke="#000000" points="338,-148 338,-167 451,-167 451,-148 338,-148"/>
<text text-anchor="middle" x="394.5" y="-155" font-family="Helvetica,sans-Serif" font-size="10.00" fill="#000000">eg_r_s_mod::eg_r_s</text>
</a>
</g>
</g>
<!-- Node31&#45;&gt;Node39 -->
<g id="edge10" class="edge">
<title>Node31&#45;&gt;Node39</title>
<path fill="none" stroke="#191970" d="M294.2311,-144.7121C308.7664,-146.5659 323.8476,-148.4893 337.7632,-150.264"/>
<polygon fill="#191970" stroke="#191970" points="294.6389,-141.2358 284.2765,-143.4425 293.7533,-148.1796 294.6389,-141.2358"/>
</g>
<!-- Node40 -->
<g id="node11" class="node">
<title>Node40</title>
<g id="a_node11"><a xlink:href="namespaceupdate__moisture__fields__mod.xhtml#aede695d35123cbc57d5d866910689502" target="_top" xlink:title="update_moisture_fields\l_mod::update_eg_moisture">
<polygon fill="#ffffff" stroke="#000000" points="320,-98.5 320,-128.5 469,-128.5 469,-98.5 320,-98.5"/>
<text text-anchor="start" x="328" y="-116.5" font-family="Helvetica,sans-Serif" font-size="10.00" fill="#000000">update_moisture_fields</text>
<text text-anchor="middle" x="394.5" y="-105.5" font-family="Helvetica,sans-Serif" font-size="10.00" fill="#000000">_mod::update_eg_moisture</text>
</a>
</g>
</g>
<!-- Node31&#45;&gt;Node40 -->
<g id="edge12" class="edge">
<title>Node31&#45;&gt;Node40</title>
<path fill="none" stroke="#191970" d="M294.4536,-126.2595C302.8889,-125.1837 311.5049,-124.0849 319.9676,-123.0056"/>
<polygon fill="#191970" stroke="#191970" points="293.7533,-122.8204 284.2765,-127.5575 294.6389,-129.7642 293.7533,-122.8204"/>
</g>
<!-- Node41 -->
<g id="node12" class="node">
<title>Node41</title>
<g id="a_node12"><a xlink:href="namespaceupdate__moisture__fields__mod.xhtml#a86044d90f6ec53df878f6a39c5c516c9" target="_top" xlink:title="update_moisture_fields\l_mod::update_m_star">
<polygon fill="#ffffff" stroke="#000000" points="329,-49.5 329,-79.5 460,-79.5 460,-49.5 329,-49.5"/>
<text text-anchor="start" x="337" y="-67.5" font-family="Helvetica,sans-Serif" font-size="10.00" fill="#000000">update_moisture_fields</text>
<text text-anchor="middle" x="394.5" y="-56.5" font-family="Helvetica,sans-Serif" font-size="10.00" fill="#000000">_mod::update_m_star</text>
</a>
</g>
</g>
<!-- Node31&#45;&gt;Node41 -->
<g id="edge14" class="edge">
<title>Node31&#45;&gt;Node41</title>
<path fill="none" stroke="#191970" d="M261.4899,-115.6957C279.1786,-107.1557 300.4234,-97.3489 320,-89.5 328.6108,-86.0476 337.9036,-82.6654 346.9085,-79.5597"/>
<polygon fill="#191970" stroke="#191970" points="259.5185,-112.7628 252.0619,-120.2894 262.5846,-119.0557 259.5185,-112.7628"/>
</g>
<!-- Node42 -->
<g id="node13" class="node">
<title>Node42</title>
<g id="a_node13"><a xlink:href="namespaceupdate__rho__mod.xhtml#ab1ffad01e1dabfebecf0b1c3341a1cac" target="_top" xlink:title="update_rho_mod::update\l_dryrho">
<polygon fill="#ffffff" stroke="#000000" points="325.5,-.5 325.5,-30.5 463.5,-30.5 463.5,-.5 325.5,-.5"/>
<text text-anchor="start" x="333.5" y="-18.5" font-family="Helvetica,sans-Serif" font-size="10.00" fill="#000000">update_rho_mod::update</text>
<text text-anchor="middle" x="394.5" y="-7.5" font-family="Helvetica,sans-Serif" font-size="10.00" fill="#000000">_dryrho</text>
</a>
</g>
</g>
<!-- Node31&#45;&gt;Node42 -->
<g id="edge16" class="edge">
<title>Node31&#45;&gt;Node42</title>
<path fill="none" stroke="#191970" d="M239.9841,-112.5521C258.0701,-90.8979 287.8225,-58.9358 320,-39.5 325.5831,-36.1277 331.6917,-33.1763 337.9324,-30.6064"/>
<polygon fill="#191970" stroke="#191970" points="237.2687,-110.3438 233.643,-120.299 242.6854,-114.7777 237.2687,-110.3438"/>
</g>
<!-- Node33 -->
<g id="node4" class="node">
<title>Node33</title>
<g id="a_node4"><a xlink:href="atm__step_8f90.xhtml#ac0ee2467a1a9959b7065fdb8fd27bce4" target="_top" xlink:title="Perform a 1&#45;timestep integration of the Atmosphere Model. ">
<polygon fill="#ffffff" stroke="#000000" points="514,-214 514,-233 576,-233 576,-214 514,-214"/>
<text text-anchor="middle" x="545" y="-221" font-family="Helvetica,sans-Serif" font-size="10.00" fill="#000000">atm_step</text>
</a>
</g>
</g>
<!-- Node32&#45;&gt;Node33 -->
<g id="edge3" class="edge">
<title>Node32&#45;&gt;Node33</title>
<path fill="none" stroke="#191970" d="M420.8092,-231.7519C446.75,-230.0282 486.3944,-227.3941 513.8848,-225.5675"/>
<polygon fill="#191970" stroke="#191970" points="420.3521,-228.2744 410.6061,-232.4298 420.8162,-235.259 420.3521,-228.2744"/>
</g>
<!-- Node32&#45;&gt;Node37 -->
<g id="edge7" class="edge">
<title>Node32&#45;&gt;Node37</title>
<path fill="none" stroke="#191970" d="M420.3909,-225.8433C434.8181,-221.4063 453.0394,-215.5194 469,-209.5 488.1121,-202.292 509.4052,-192.927 524.5795,-186.0157"/>
<polygon fill="#191970" stroke="#191970" points="419.197,-222.5478 410.6428,-228.799 421.2282,-229.2467 419.197,-222.5478"/>
</g>
<!-- Node34 -->
<g id="node5" class="node">
<title>Node34</title>
<g id="a_node5"><a xlink:href="u__model_8f90.xhtml#ada0cd2ce4699433bf0f9adbd882c8eec" target="_top" xlink:title="Subroutine: U_MODEL &#45;!&gt; ">
<polygon fill="#ffffff" stroke="#000000" points="629.5,-205 629.5,-224 688.5,-224 688.5,-205 629.5,-205"/>
<text text-anchor="middle" x="659" y="-212" font-family="Helvetica,sans-Serif" font-size="10.00" fill="#000000">u_model</text>
</a>
</g>
</g>
<!-- Node33&#45;&gt;Node34 -->
<g id="edge4" class="edge">
<title>Node33&#45;&gt;Node34</title>
<path fill="none" stroke="#191970" d="M586.2532,-220.2432C600.5539,-219.1142 616.2895,-217.8719 629.4568,-216.8324"/>
<polygon fill="#191970" stroke="#191970" points="585.8445,-216.7645 576.151,-221.0407 586.3955,-223.7427 585.8445,-216.7645"/>
</g>
<!-- Node35 -->
<g id="node6" class="node">
<title>Node35</title>
<g id="a_node6"><a xlink:href="um__shell_8f90.xhtml#a8c9bd25362824a5c301376ecb5ed5c27" target="_top" xlink:title="Subroutine: UM_SHELL !&gt; ">
<polygon fill="#ffffff" stroke="#000000" points="733,-186 733,-205 794,-205 794,-186 733,-186"/>
<text text-anchor="middle" x="763.5" y="-193" font-family="Helvetica,sans-Serif" font-size="10.00" fill="#000000">um_shell</text>
</a>
</g>
</g>
<!-- Node34&#45;&gt;Node35 -->
<g id="edge5" class="edge">
<title>Node34&#45;&gt;Node35</title>
<path fill="none" stroke="#191970" d="M698.701,-207.2816C709.951,-205.2362 722.0261,-203.0407 732.6677,-201.1059"/>
<polygon fill="#191970" stroke="#191970" points="697.8786,-203.8737 688.666,-209.1062 699.1308,-210.7608 697.8786,-203.8737"/>
</g>
<!-- Node36 -->
<g id="node7" class="node">
<title>Node36</title>
<g id="a_node7"><a xlink:href="um__main_8f90.xhtml#a8f2d13215621443a5313261c282f098b" target="_top" xlink:title="Code Owner: See Unified Model Code Owner&#39;s HTML page. ">
<polygon fill="#ffffff" stroke="#000000" points="830,-186 830,-205 892,-205 892,-186 830,-186"/>
<text text-anchor="middle" x="861" y="-193" font-family="Helvetica,sans-Serif" font-size="10.00" fill="#000000">um_main</text>
</a>
</g>
</g>
<!-- Node35&#45;&gt;Node36 -->
<g id="edge6" class="edge">
<title>Node35&#45;&gt;Node36</title>
<path fill="none" stroke="#191970" d="M804.2756,-195.5C812.8294,-195.5 821.72,-195.5 829.8551,-195.5"/>
<polygon fill="#191970" stroke="#191970" points="804.0821,-192.0001 794.0821,-195.5 804.0821,-199.0001 804.0821,-192.0001"/>
</g>
<!-- Node38 -->
<g id="node9" class="node">
<title>Node38</title>
<g id="a_node9"><a xlink:href="u__model__4_a_8f90.xhtml#afa05064dab5eba198b461d0928767c7e" target="_top" xlink:title="LL Subroutine: U_MODEL_4A (ENDGAME VERSION) !&gt;LL. ">
<polygon fill="#ffffff" stroke="#000000" points="621,-167 621,-186 697,-186 697,-167 621,-167"/>
<text text-anchor="middle" x="659" y="-174" font-family="Helvetica,sans-Serif" font-size="10.00" fill="#000000">u_model_4a</text>
</a>
</g>
</g>
<!-- Node37&#45;&gt;Node38 -->
<g id="edge8" class="edge">
<title>Node37&#45;&gt;Node38</title>
<path fill="none" stroke="#191970" d="M595.3998,-176.5C603.891,-176.5 612.5803,-176.5 620.7002,-176.5"/>
<polygon fill="#191970" stroke="#191970" points="595.1922,-173.0001 585.1921,-176.5 595.1921,-180.0001 595.1922,-173.0001"/>
</g>
<!-- Node38&#45;&gt;Node35 -->
<g id="edge9" class="edge">
<title>Node38&#45;&gt;Node35</title>
<path fill="none" stroke="#191970" d="M706.8728,-185.2041C715.7087,-186.8107 724.7128,-188.4478 732.8647,-189.93"/>
<polygon fill="#191970" stroke="#191970" points="707.4873,-181.7586 697.0225,-183.4132 706.2351,-188.6457 707.4873,-181.7586"/>
</g>
<!-- Node39&#45;&gt;Node37 -->
<g id="edge11" class="edge">
<title>Node39&#45;&gt;Node37</title>
<path fill="none" stroke="#191970" d="M461.5432,-165.9639C476.338,-167.8317 491.5611,-169.7536 504.8881,-171.436"/>
<polygon fill="#191970" stroke="#191970" points="461.7573,-162.4632 451.3976,-164.6831 460.8804,-169.4081 461.7573,-162.4632"/>
</g>
<!-- Node40&#45;&gt;Node37 -->
<g id="edge13" class="edge">
<title>Node40&#45;&gt;Node37</title>
<path fill="none" stroke="#191970" d="M452.1802,-131.9586C457.9036,-134.0578 463.5922,-136.2537 469,-138.5 489.5711,-147.0451 512.3163,-158.7304 527.5139,-166.8785"/>
<polygon fill="#191970" stroke="#191970" points="453.1536,-128.5899 442.5589,-128.5254 450.8009,-135.1827 453.1536,-128.5899"/>
</g>
<!-- Node41&#45;&gt;Node37 -->
<g id="edge15" class="edge">
<title>Node41&#45;&gt;Node37</title>
<path fill="none" stroke="#191970" d="M459.7863,-84.0549C462.9817,-85.7359 466.074,-87.5482 469,-89.5 501.0339,-110.8684 527.7669,-149.1217 539.1314,-166.9128"/>
<polygon fill="#191970" stroke="#191970" points="461.0938,-80.8009 450.5607,-79.6582 458.0822,-87.12 461.0938,-80.8009"/>
</g>
</g>
</svg>
