<?xml version="1.0" encoding="UTF-8" standalone="no"?>
<!DOCTYPE svg PUBLIC "-//W3C//DTD SVG 1.1//EN"
 "http://www.w3.org/Graphics/SVG/1.1/DTD/svg11.dtd">
<!-- Generated by graphviz version 2.40.1 (20161225.0304)
 -->
<!-- Title: set_var_horiz_grid_mod::set_var_horiz_grid Pages: 1 -->
<svg width="380pt" height="39pt"
 viewBox="0.00 0.00 380.00 39.00" xmlns="http://www.w3.org/2000/svg" xmlns:xlink="http://www.w3.org/1999/xlink">
<g id="graph0" class="graph" transform="scale(1 1) rotate(0) translate(4 35)">
<title>set_var_horiz_grid_mod::set_var_horiz_grid</title>
<polygon fill="#ffffff" stroke="transparent" points="-4,4 -4,-35 376,-35 376,4 -4,4"/>
<!-- Node5 -->
<g id="node1" class="node">
<title>Node5</title>
<polygon fill="#bfbfbf" stroke="#000000" points="0,-.5 0,-30.5 139,-30.5 139,-.5 0,-.5"/>
<text text-anchor="start" x="8" y="-18.5" font-family="Helvetica,sans-Serif" font-size="10.00" fill="#000000">set_var_horiz_grid</text>
<text text-anchor="middle" x="69.5" y="-7.5" font-family="Helvetica,sans-Serif" font-size="10.00" fill="#000000">_mod::set_var_horiz_grid</text>
</g>
<!-- Node6 -->
<g id="node2" class="node">
<title>Node6</title>
<g id="a_node2"><a xlink:href="setcona__4_a_8f90.xhtml#ab6beee322d7ff9bca411f17380e33743" target="_top" xlink:title="Subroutine SETCONA (ENDGAME VERSION)!&gt; Purpose : to calculate additional constants derived from...">
<polygon fill="#ffffff" stroke="#000000" points="175,-6 175,-25 247,-25 247,-6 175,-6"/>
<text text-anchor="middle" x="211" y="-13" font-family="Helvetica,sans-Serif" font-size="10.00" fill="#000000">setcona_4a</text>
</a>
</g>
</g>
<!-- Node5&#45;&gt;Node6 -->
<g id="edge1" class="edge">
<title>Node5&#45;&gt;Node6</title>
<path fill="none" stroke="#191970" d="M149.1917,-15.5C158.1675,-15.5 166.9481,-15.5 174.9432,-15.5"/>
<polygon fill="#191970" stroke="#191970" points="149.0064,-12.0001 139.0064,-15.5 149.0064,-19.0001 149.0064,-12.0001"/>
</g>
<!-- Node7 -->
<g id="node3" class="node">
<title>Node7</title>
<g id="a_node3"><a xlink:href="setcona__ctl__4_a_8f90.xhtml#aae00cb9b838e6f0f912412753746f414" target="_top" xlink:title="Subroutine SETCONA_CTL (ENDGAME version) ">
<polygon fill="#ffffff" stroke="#000000" points="283,-6 283,-25 372,-25 372,-6 283,-6"/>
<text text-anchor="middle" x="327.5" y="-13" font-family="Helvetica,sans-Serif" font-size="10.00" fill="#000000">setcona_ctl_4a</text>
</a>
</g>
</g>
<!-- Node6&#45;&gt;Node7 -->
<g id="edge2" class="edge">
<title>Node6&#45;&gt;Node7</title>
<path fill="none" stroke="#191970" d="M257.225,-15.5C265.6069,-15.5 274.336,-15.5 282.6768,-15.5"/>
<polygon fill="#191970" stroke="#191970" points="257.2228,-12.0001 247.2227,-15.5 257.2227,-19.0001 257.2228,-12.0001"/>
</g>
</g>
</svg>
