<?xml version="1.0" encoding="UTF-8" standalone="no"?>
<!DOCTYPE svg PUBLIC "-//W3C//DTD SVG 1.1//EN"
 "http://www.w3.org/Graphics/SVG/1.1/DTD/svg11.dtd">
<!-- Generated by graphviz version 2.40.1 (20161225.0304)
 -->
<!-- Title: ukca_cdnc_mod::ukca_cdnc_init Pages: 1 -->
<svg width="664pt" height="72pt"
 viewBox="0.00 0.00 664.00 71.50" xmlns="http://www.w3.org/2000/svg" xmlns:xlink="http://www.w3.org/1999/xlink">
<g id="graph0" class="graph" transform="scale(1 1) rotate(0) translate(4 67.5)">
<title>ukca_cdnc_mod::ukca_cdnc_init</title>
<polygon fill="#ffffff" stroke="transparent" points="-4,4 -4,-67.5 660,-67.5 660,4 -4,4"/>
<!-- Node6 -->
<g id="node1" class="node">
<title>Node6</title>
<polygon fill="#bfbfbf" stroke="#000000" points="0,-33 0,-63 124,-63 124,-33 0,-33"/>
<text text-anchor="start" x="8" y="-51" font-family="Helvetica,sans-Serif" font-size="10.00" fill="#000000">ukca_cdnc_mod::ukca</text>
<text text-anchor="middle" x="62" y="-40" font-family="Helvetica,sans-Serif" font-size="10.00" fill="#000000">_cdnc_init</text>
</g>
<!-- Node7 -->
<g id="node2" class="node">
<title>Node7</title>
<g id="a_node2"><a xlink:href="namespaceumprintmgr.xhtml#aae44897e556705dbf5e945a26538be9a" target="_top" xlink:title="umprintmgr::umprint">
<polygon fill="#ffffff" stroke="#000000" points="160,-38.5 160,-57.5 279,-57.5 279,-38.5 160,-38.5"/>
<text text-anchor="middle" x="219.5" y="-45.5" font-family="Helvetica,sans-Serif" font-size="10.00" fill="#000000">umprintmgr::umprint</text>
</a>
</g>
</g>
<!-- Node6&#45;&gt;Node7 -->
<g id="edge1" class="edge">
<title>Node6&#45;&gt;Node7</title>
<path fill="none" stroke="#191970" d="M124.2482,-48C132.5618,-48 141.1323,-48 149.5662,-48"/>
<polygon fill="#191970" stroke="#191970" points="149.7595,-51.5001 159.7595,-48 149.7595,-44.5001 149.7595,-51.5001"/>
</g>
<!-- Node8 -->
<g id="node3" class="node">
<title>Node8</title>
<g id="a_node3"><a xlink:href="namespaceumprintmgr.xhtml#a088ce22a18d574e9df7ee1850bfb10c7" target="_top" xlink:title="umprintmgr::umprintopenstream">
<polygon fill="#ffffff" stroke="#000000" points="315,-38.5 315,-57.5 492,-57.5 492,-38.5 315,-38.5"/>
<text text-anchor="middle" x="403.5" y="-45.5" font-family="Helvetica,sans-Serif" font-size="10.00" fill="#000000">umprintmgr::umprintopenstream</text>
</a>
</g>
</g>
<!-- Node7&#45;&gt;Node8 -->
<g id="edge2" class="edge">
<title>Node7&#45;&gt;Node8</title>
<path fill="none" stroke="#191970" d="M279.2395,-41.6333C287.4605,-41.4301 296.0751,-41.3077 304.7702,-41.2661"/>
<polygon fill="#191970" stroke="#191970" points="304.9998,-44.7659 314.9958,-41.2543 304.9917,-37.7659 304.9998,-44.7659"/>
</g>
<!-- Node9 -->
<g id="node4" class="node">
<title>Node9</title>
<g id="a_node4"><a xlink:href="namespaceumprintmgr.xhtml#ad3a290b30a6e25500eabc0bf90330b77" target="_top" xlink:title="umprintmgr::umprintflush">
<polygon fill="#ffffff" stroke="#000000" points="332.5,-.5 332.5,-19.5 474.5,-19.5 474.5,-.5 332.5,-.5"/>
<text text-anchor="middle" x="403.5" y="-7.5" font-family="Helvetica,sans-Serif" font-size="10.00" fill="#000000">umprintmgr::umprintflush</text>
</a>
</g>
</g>
<!-- Node7&#45;&gt;Node9 -->
<g id="edge4" class="edge">
<title>Node7&#45;&gt;Node9</title>
<path fill="none" stroke="#191970" d="M265.931,-38.411C290.6493,-33.3061 321.239,-26.9887 347.292,-21.6082"/>
<polygon fill="#191970" stroke="#191970" points="348.3175,-24.9703 357.4029,-19.5201 346.9017,-18.115 348.3175,-24.9703"/>
</g>
<!-- Node8&#45;&gt;Node7 -->
<g id="edge3" class="edge">
<title>Node8&#45;&gt;Node7</title>
<path fill="none" stroke="#191970" d="M314.9958,-54.7457C306.3802,-54.767 297.7236,-54.7094 289.3289,-54.5727"/>
<polygon fill="#191970" stroke="#191970" points="289.3089,-51.0716 279.2395,-54.3667 289.166,-58.0702 289.3089,-51.0716"/>
</g>
<!-- Node10 -->
<g id="node5" class="node">
<title>Node10</title>
<g id="a_node5"><a xlink:href="namespaceumflush__mod.xhtml#a3a003ab59990bdcb712b443dd5e0d1cd" target="_top" xlink:title="umflush_mod::umflush">
<polygon fill="#ffffff" stroke="#000000" points="528,-.5 528,-19.5 656,-19.5 656,-.5 528,-.5"/>
<text text-anchor="middle" x="592" y="-7.5" font-family="Helvetica,sans-Serif" font-size="10.00" fill="#000000">umflush_mod::umflush</text>
</a>
</g>
</g>
<!-- Node9&#45;&gt;Node10 -->
<g id="edge5" class="edge">
<title>Node9&#45;&gt;Node10</title>
<path fill="none" stroke="#191970" d="M474.7638,-10C488.7742,-10 503.5063,-10 517.6162,-10"/>
<polygon fill="#191970" stroke="#191970" points="517.7612,-13.5001 527.7611,-10 517.7611,-6.5001 517.7612,-13.5001"/>
</g>
</g>
</svg>
