<?xml version="1.0" encoding="UTF-8" standalone="no"?>
<!DOCTYPE svg PUBLIC "-//W3C//DTD SVG 1.1//EN"
 "http://www.w3.org/Graphics/SVG/1.1/DTD/svg11.dtd">
<!-- Generated by graphviz version 2.40.1 (20161225.0304)
 -->
<!-- Title: io::iofilestate Pages: 1 -->
<svg width="1827pt" height="495pt"
 viewBox="0.00 0.00 1827.00 495.00" xmlns="http://www.w3.org/2000/svg" xmlns:xlink="http://www.w3.org/1999/xlink">
<g id="graph0" class="graph" transform="scale(1 1) rotate(0) translate(4 491)">
<title>io::iofilestate</title>
<polygon fill="#ffffff" stroke="transparent" points="-4,4 -4,-491 1823,-491 1823,4 -4,4"/>
<!-- Node1398 -->
<g id="node1" class="node">
<title>Node1398</title>
<polygon fill="#bfbfbf" stroke="#000000" points="0,-123.5 0,-142.5 80,-142.5 80,-123.5 0,-123.5"/>
<text text-anchor="middle" x="40" y="-130.5" font-family="Helvetica,sans-Serif" font-size="10.00" fill="#000000">io::iofilestate</text>
</g>
<!-- Node1399 -->
<g id="node2" class="node">
<title>Node1399</title>
<g id="a_node2"><a xlink:href="namespaceios.xhtml#ace12686ddd266463114e914b93a6158b" target="_top" xlink:title="ios::ios_filestate">
<polygon fill="#ffffff" stroke="#000000" points="116,-123.5 116,-142.5 212,-142.5 212,-123.5 116,-123.5"/>
<text text-anchor="middle" x="164" y="-130.5" font-family="Helvetica,sans-Serif" font-size="10.00" fill="#000000">ios::ios_filestate</text>
</a>
</g>
</g>
<!-- Node1398&#45;&gt;Node1399 -->
<g id="edge1" class="edge">
<title>Node1398&#45;&gt;Node1399</title>
<path fill="none" stroke="#191970" d="M80.2592,-133C88.3917,-133 97.0956,-133 105.7039,-133"/>
<polygon fill="#191970" stroke="#191970" points="105.7255,-136.5001 115.7255,-133 105.7255,-129.5001 105.7255,-136.5001"/>
</g>
<!-- Node1400 -->
<g id="node3" class="node">
<title>Node1400</title>
<g id="a_node3"><a xlink:href="namespaceios__client__queue.xhtml#afe87459ebf2e7fc1b3915458ad63d06f" target="_top" xlink:title="ios_client_queue::ios\l_init_md">
<polygon fill="#ffffff" stroke="#000000" points="248,-232 248,-262 367,-262 367,-232 248,-232"/>
<text text-anchor="start" x="256" y="-250" font-family="Helvetica,sans-Serif" font-size="10.00" fill="#000000">ios_client_queue::ios</text>
<text text-anchor="middle" x="307.5" y="-239" font-family="Helvetica,sans-Serif" font-size="10.00" fill="#000000">_init_md</text>
</a>
</g>
</g>
<!-- Node1399&#45;&gt;Node1400 -->
<g id="edge2" class="edge">
<title>Node1399&#45;&gt;Node1400</title>
<path fill="none" stroke="#191970" d="M176.2347,-142.7196C199.2554,-161.0078 249.4989,-200.9225 280.7167,-225.7227"/>
<polygon fill="#191970" stroke="#191970" points="278.5899,-228.5031 288.5969,-231.9829 282.9441,-223.0221 278.5899,-228.5031"/>
</g>
<!-- Node1416 -->
<g id="node19" class="node">
<title>Node1416</title>
<g id="a_node19"><a xlink:href="namespaceios__client__queue.xhtml#ad45a47e6cd283c6c4b4e7a3a45dd37a6" target="_top" xlink:title="ios_client_queue::ios_send">
<polygon fill="#ffffff" stroke="#000000" points="569,-47.5 569,-66.5 716,-66.5 716,-47.5 569,-47.5"/>
<text text-anchor="middle" x="642.5" y="-54.5" font-family="Helvetica,sans-Serif" font-size="10.00" fill="#000000">ios_client_queue::ios_send</text>
</a>
</g>
</g>
<!-- Node1399&#45;&gt;Node1416 -->
<g id="edge32" class="edge">
<title>Node1399&#45;&gt;Node1416</title>
<path fill="none" stroke="#191970" d="M192.9317,-123.4795C209.0241,-118.4145 229.4852,-112.352 248,-108 353.7306,-83.1472 478.4444,-69.5823 558.9113,-62.816"/>
<polygon fill="#191970" stroke="#191970" points="559.3099,-66.2951 568.9883,-61.9847 558.7343,-59.3188 559.3099,-66.2951"/>
</g>
<!-- Node1418 -->
<g id="node21" class="node">
<title>Node1418</title>
<g id="a_node21"><a xlink:href="namespaceios__client__queue.xhtml#ad201019d989b2fa965cb74df8e3268b3" target="_top" xlink:title="ios_client_queue::ios\l_attach_recvbuffer">
<polygon fill="#ffffff" stroke="#000000" points="248,-118 248,-148 367,-148 367,-118 248,-118"/>
<text text-anchor="start" x="256" y="-136" font-family="Helvetica,sans-Serif" font-size="10.00" fill="#000000">ios_client_queue::ios</text>
<text text-anchor="middle" x="307.5" y="-125" font-family="Helvetica,sans-Serif" font-size="10.00" fill="#000000">_attach_recvbuffer</text>
</a>
</g>
</g>
<!-- Node1399&#45;&gt;Node1418 -->
<g id="edge38" class="edge">
<title>Node1399&#45;&gt;Node1418</title>
<path fill="none" stroke="#191970" d="M212.1826,-133C220.4343,-133 229.1538,-133 237.8326,-133"/>
<polygon fill="#191970" stroke="#191970" points="237.9716,-136.5001 247.9716,-133 237.9716,-129.5001 237.9716,-136.5001"/>
</g>
<!-- Node1401 -->
<g id="node4" class="node">
<title>Node1401</title>
<g id="a_node4"><a xlink:href="namespaceios__common.xhtml#a31ef4cb4de4333384dba3e441df47903" target="_top" xlink:title="ios_common::assert\l_client">
<polygon fill="#ffffff" stroke="#000000" points="410.5,-276 410.5,-306 525.5,-306 525.5,-276 410.5,-276"/>
<text text-anchor="start" x="418.5" y="-294" font-family="Helvetica,sans-Serif" font-size="10.00" fill="#000000">ios_common::assert</text>
<text text-anchor="middle" x="468" y="-283" font-family="Helvetica,sans-Serif" font-size="10.00" fill="#000000">_client</text>
</a>
</g>
</g>
<!-- Node1400&#45;&gt;Node1401 -->
<g id="edge3" class="edge">
<title>Node1400&#45;&gt;Node1401</title>
<path fill="none" stroke="#191970" d="M362.2861,-262.0192C375.5127,-265.6452 389.7688,-269.5534 403.3984,-273.2899"/>
<polygon fill="#191970" stroke="#191970" points="402.619,-276.7053 413.1885,-275.9738 404.4697,-269.9544 402.619,-276.7053"/>
</g>
<!-- Node1402 -->
<g id="node5" class="node">
<title>Node1402</title>
<g id="a_node5"><a xlink:href="namespaceios__common.xhtml#a4b4c79405dd73494ae58cbf0e4f1658b" target="_top" xlink:title="ios_common::ios_ereport">
<polygon fill="#ffffff" stroke="#000000" points="755,-256.5 755,-275.5 895,-275.5 895,-256.5 755,-256.5"/>
<text text-anchor="middle" x="825" y="-263.5" font-family="Helvetica,sans-Serif" font-size="10.00" fill="#000000">ios_common::ios_ereport</text>
</a>
</g>
</g>
<!-- Node1400&#45;&gt;Node1402 -->
<g id="edge16" class="edge">
<title>Node1400&#45;&gt;Node1402</title>
<path fill="none" stroke="#191970" d="M367.1164,-249.1888C460.2263,-252.6073 640.2938,-259.2185 744.7247,-263.0527"/>
<polygon fill="#191970" stroke="#191970" points="744.7779,-266.5569 754.8996,-263.4263 745.0348,-259.5616 744.7779,-266.5569"/>
</g>
<!-- Node1403 -->
<g id="node6" class="node">
<title>Node1403</title>
<g id="a_node6"><a xlink:href="namespaceios__print__mgr.xhtml#abd09d7fc0d2381103fd0889b447f4995" target="_top" xlink:title="ios_print_mgr::ios\l_print">
<polygon fill="#ffffff" stroke="#000000" points="1154,-327 1154,-357 1258,-357 1258,-327 1154,-327"/>
<text text-anchor="start" x="1162" y="-345" font-family="Helvetica,sans-Serif" font-size="10.00" fill="#000000">ios_print_mgr::ios</text>
<text text-anchor="middle" x="1206" y="-334" font-family="Helvetica,sans-Serif" font-size="10.00" fill="#000000">_print</text>
</a>
</g>
</g>
<!-- Node1400&#45;&gt;Node1403 -->
<g id="edge15" class="edge">
<title>Node1400&#45;&gt;Node1403</title>
<path fill="none" stroke="#191970" d="M312.7594,-262.359C324.2087,-293.5625 354.3367,-364.7318 403,-404 490.6715,-474.7454 529.8447,-487 642.5,-487 642.5,-487 642.5,-487 825,-487 962.9488,-487 1111.7011,-402.9429 1174.8362,-362.828"/>
<polygon fill="#191970" stroke="#191970" points="1177.0015,-365.5968 1183.5185,-357.2435 1173.2147,-359.7095 1177.0015,-365.5968"/>
</g>
<!-- Node1409 -->
<g id="node12" class="node">
<title>Node1409</title>
<g id="a_node12"><a xlink:href="namespaceios__common.xhtml#a9cbfffb6c02387dc317575ab449918b6" target="_top" xlink:title="ios_common::ios_actionname">
<polygon fill="#ffffff" stroke="#000000" points="1125,-28.5 1125,-47.5 1287,-47.5 1287,-28.5 1125,-28.5"/>
<text text-anchor="middle" x="1206" y="-35.5" font-family="Helvetica,sans-Serif" font-size="10.00" fill="#000000">ios_common::ios_actionname</text>
</a>
</g>
</g>
<!-- Node1400&#45;&gt;Node1409 -->
<g id="edge14" class="edge">
<title>Node1400&#45;&gt;Node1409</title>
<path fill="none" stroke="#191970" d="M317.2876,-231.9209C353.4129,-178.2935 485.3359,0 642.5,0 642.5,0 642.5,0 825,0 934.5815,0 1061.0201,-15.757 1137.167,-26.9779"/>
<polygon fill="#191970" stroke="#191970" points="1136.7067,-30.4479 1147.1133,-28.46 1137.7384,-23.5243 1136.7067,-30.4479"/>
</g>
<!-- Node1410 -->
<g id="node13" class="node">
<title>Node1410</title>
<g id="a_node13"><a xlink:href="namespaceios__client__queue.xhtml#a8113f81d94a6b3ff7dded6fcd66952a3" target="_top" xlink:title="ios_client_queue::ios\l_querybuffer">
<polygon fill="#ffffff" stroke="#000000" points="583,-352 583,-382 702,-382 702,-352 583,-352"/>
<text text-anchor="start" x="591" y="-370" font-family="Helvetica,sans-Serif" font-size="10.00" fill="#000000">ios_client_queue::ios</text>
<text text-anchor="middle" x="642.5" y="-359" font-family="Helvetica,sans-Serif" font-size="10.00" fill="#000000">_querybuffer</text>
</a>
</g>
</g>
<!-- Node1400&#45;&gt;Node1410 -->
<g id="edge17" class="edge">
<title>Node1400&#45;&gt;Node1410</title>
<path fill="none" stroke="#191970" d="M323.757,-262.0561C341.7692,-277.9006 372.3391,-302.3906 403,-316 457.2327,-340.0722 523.5204,-353.0555 572.5977,-359.8859"/>
<polygon fill="#191970" stroke="#191970" points="572.4224,-363.3936 582.7985,-361.2518 573.3515,-356.4555 572.4224,-363.3936"/>
</g>
<!-- Node1412 -->
<g id="node15" class="node">
<title>Node1412</title>
<g id="a_node15"><a xlink:href="namespaceios__common.xhtml#a66b4e97a85f71f85bc4f53af5819c234" target="_top" xlink:title="ios_common::io_server\l_for_unit">
<polygon fill="#ffffff" stroke="#000000" points="403,-188 403,-218 533,-218 533,-188 403,-188"/>
<text text-anchor="start" x="411" y="-206" font-family="Helvetica,sans-Serif" font-size="10.00" fill="#000000">ios_common::io_server</text>
<text text-anchor="middle" x="468" y="-195" font-family="Helvetica,sans-Serif" font-size="10.00" fill="#000000">_for_unit</text>
</a>
</g>
</g>
<!-- Node1400&#45;&gt;Node1412 -->
<g id="edge23" class="edge">
<title>Node1400&#45;&gt;Node1412</title>
<path fill="none" stroke="#191970" d="M362.2861,-231.9808C375.5127,-228.3548 389.7688,-224.4466 403.3984,-220.7101"/>
<polygon fill="#191970" stroke="#191970" points="404.4697,-224.0456 413.1885,-218.0262 402.619,-217.2947 404.4697,-224.0456"/>
</g>
<!-- Node1414 -->
<g id="node17" class="node">
<title>Node1414</title>
<g id="a_node17"><a xlink:href="namespaceios__common.xhtml#a7ff67c62d278ec0aad0a979c736996c9" target="_top" xlink:title="ios_common::ioserverno">
<polygon fill="#ffffff" stroke="#000000" points="756.5,-142.5 756.5,-161.5 893.5,-161.5 893.5,-142.5 756.5,-142.5"/>
<text text-anchor="middle" x="825" y="-149.5" font-family="Helvetica,sans-Serif" font-size="10.00" fill="#000000">ios_common::ioserverno</text>
</a>
</g>
</g>
<!-- Node1400&#45;&gt;Node1414 -->
<g id="edge26" class="edge">
<title>Node1400&#45;&gt;Node1414</title>
<path fill="none" stroke="#191970" d="M323.292,-231.9126C341.1396,-215.7979 371.7909,-190.8477 403,-178 515.301,-131.7698 658.7082,-134.4357 746.1081,-142.1056"/>
<polygon fill="#191970" stroke="#191970" points="745.9418,-145.605 756.2208,-143.0374 746.5841,-138.6345 745.9418,-145.605"/>
</g>
<!-- Node1415 -->
<g id="node18" class="node">
<title>Node1415</title>
<g id="a_node18"><a xlink:href="namespaceios__client__queue.xhtml#a9b6ce597cb41097a50bacde8955fa2e7" target="_top" xlink:title="ios_client_queue::ios\l_consume_client_mem">
<polygon fill="#ffffff" stroke="#000000" points="403.5,-364 403.5,-394 532.5,-394 532.5,-364 403.5,-364"/>
<text text-anchor="start" x="411.5" y="-382" font-family="Helvetica,sans-Serif" font-size="10.00" fill="#000000">ios_client_queue::ios</text>
<text text-anchor="middle" x="468" y="-371" font-family="Helvetica,sans-Serif" font-size="10.00" fill="#000000">_consume_client_mem</text>
</a>
</g>
</g>
<!-- Node1400&#45;&gt;Node1415 -->
<g id="edge27" class="edge">
<title>Node1400&#45;&gt;Node1415</title>
<path fill="none" stroke="#191970" d="M318.6671,-262.2336C335.1312,-283.8404 367.7947,-323.581 403,-349 408.158,-352.7242 413.852,-356.1584 419.6615,-359.2699"/>
<polygon fill="#191970" stroke="#191970" points="418.3201,-362.5132 428.8252,-363.8887 421.4708,-356.2623 418.3201,-362.5132"/>
</g>
<!-- Node1401&#45;&gt;Node1402 -->
<g id="edge4" class="edge">
<title>Node1401&#45;&gt;Node1402</title>
<path fill="none" stroke="#191970" d="M525.755,-286.9555C585.1638,-282.7953 678.1654,-276.2825 744.7172,-271.622"/>
<polygon fill="#191970" stroke="#191970" points="745.0181,-275.1096 754.7492,-270.9195 744.5291,-268.1267 745.0181,-275.1096"/>
</g>
<!-- Node1402&#45;&gt;Node1403 -->
<g id="edge5" class="edge">
<title>Node1402&#45;&gt;Node1403</title>
<path fill="none" stroke="#191970" d="M872.8681,-275.5485C941.5352,-289.2459 1068.0541,-314.4832 1143.862,-329.605"/>
<polygon fill="#191970" stroke="#191970" points="1143.2648,-333.0548 1153.7563,-331.5787 1144.6342,-326.19 1143.2648,-333.0548"/>
</g>
<!-- Node1408 -->
<g id="node11" class="node">
<title>Node1408</title>
<g id="a_node11"><a xlink:href="namespaceios__common.xhtml#ade38472c488c019e816ec75cb70ab3cc" target="_top" xlink:title="ios_common::ios_report_md">
<polygon fill="#ffffff" stroke="#000000" points="934,-256.5 934,-275.5 1089,-275.5 1089,-256.5 934,-256.5"/>
<text text-anchor="middle" x="1011.5" y="-263.5" font-family="Helvetica,sans-Serif" font-size="10.00" fill="#000000">ios_common::ios_report_md</text>
</a>
</g>
</g>
<!-- Node1402&#45;&gt;Node1408 -->
<g id="edge11" class="edge">
<title>Node1402&#45;&gt;Node1408</title>
<path fill="none" stroke="#191970" d="M895.2419,-266C904.493,-266 914.0663,-266 923.5659,-266"/>
<polygon fill="#191970" stroke="#191970" points="923.8262,-269.5001 933.8262,-266 923.8262,-262.5001 923.8262,-269.5001"/>
</g>
<!-- Node1404 -->
<g id="node7" class="node">
<title>Node1404</title>
<g id="a_node7"><a xlink:href="namespaceumprintmgr.xhtml#aae44897e556705dbf5e945a26538be9a" target="_top" xlink:title="umprintmgr::umprint">
<polygon fill="#ffffff" stroke="#000000" points="1323,-332.5 1323,-351.5 1442,-351.5 1442,-332.5 1323,-332.5"/>
<text text-anchor="middle" x="1382.5" y="-339.5" font-family="Helvetica,sans-Serif" font-size="10.00" fill="#000000">umprintmgr::umprint</text>
</a>
</g>
</g>
<!-- Node1403&#45;&gt;Node1404 -->
<g id="edge6" class="edge">
<title>Node1403&#45;&gt;Node1404</title>
<path fill="none" stroke="#191970" d="M1258.0012,-342C1275.1607,-342 1294.5332,-342 1312.796,-342"/>
<polygon fill="#191970" stroke="#191970" points="1312.8067,-345.5001 1322.8067,-342 1312.8067,-338.5001 1312.8067,-345.5001"/>
</g>
<!-- Node1405 -->
<g id="node8" class="node">
<title>Node1405</title>
<g id="a_node8"><a xlink:href="namespaceumprintmgr.xhtml#a088ce22a18d574e9df7ee1850bfb10c7" target="_top" xlink:title="umprintmgr::umprintopenstream">
<polygon fill="#ffffff" stroke="#000000" points="1478,-332.5 1478,-351.5 1655,-351.5 1655,-332.5 1478,-332.5"/>
<text text-anchor="middle" x="1566.5" y="-339.5" font-family="Helvetica,sans-Serif" font-size="10.00" fill="#000000">umprintmgr::umprintopenstream</text>
</a>
</g>
</g>
<!-- Node1404&#45;&gt;Node1405 -->
<g id="edge7" class="edge">
<title>Node1404&#45;&gt;Node1405</title>
<path fill="none" stroke="#191970" d="M1442.2395,-335.6333C1450.4605,-335.4301 1459.0751,-335.3077 1467.7702,-335.2661"/>
<polygon fill="#191970" stroke="#191970" points="1467.9998,-338.7659 1477.9958,-335.2543 1467.9917,-331.7659 1467.9998,-338.7659"/>
</g>
<!-- Node1406 -->
<g id="node9" class="node">
<title>Node1406</title>
<g id="a_node9"><a xlink:href="namespaceumprintmgr.xhtml#ad3a290b30a6e25500eabc0bf90330b77" target="_top" xlink:title="umprintmgr::umprintflush">
<polygon fill="#ffffff" stroke="#000000" points="1495.5,-294.5 1495.5,-313.5 1637.5,-313.5 1637.5,-294.5 1495.5,-294.5"/>
<text text-anchor="middle" x="1566.5" y="-301.5" font-family="Helvetica,sans-Serif" font-size="10.00" fill="#000000">umprintmgr::umprintflush</text>
</a>
</g>
</g>
<!-- Node1404&#45;&gt;Node1406 -->
<g id="edge9" class="edge">
<title>Node1404&#45;&gt;Node1406</title>
<path fill="none" stroke="#191970" d="M1428.931,-332.411C1453.6493,-327.3061 1484.239,-320.9887 1510.292,-315.6082"/>
<polygon fill="#191970" stroke="#191970" points="1511.3175,-318.9703 1520.4029,-313.5201 1509.9017,-312.115 1511.3175,-318.9703"/>
</g>
<!-- Node1405&#45;&gt;Node1404 -->
<g id="edge8" class="edge">
<title>Node1405&#45;&gt;Node1404</title>
<path fill="none" stroke="#191970" d="M1477.9958,-348.7457C1469.3802,-348.767 1460.7236,-348.7094 1452.3289,-348.5727"/>
<polygon fill="#191970" stroke="#191970" points="1452.3089,-345.0716 1442.2395,-348.3667 1452.166,-352.0702 1452.3089,-345.0716"/>
</g>
<!-- Node1407 -->
<g id="node10" class="node">
<title>Node1407</title>
<g id="a_node10"><a xlink:href="namespaceumflush__mod.xhtml#a3a003ab59990bdcb712b443dd5e0d1cd" target="_top" xlink:title="umflush_mod::umflush">
<polygon fill="#ffffff" stroke="#000000" points="1691,-294.5 1691,-313.5 1819,-313.5 1819,-294.5 1691,-294.5"/>
<text text-anchor="middle" x="1755" y="-301.5" font-family="Helvetica,sans-Serif" font-size="10.00" fill="#000000">umflush_mod::umflush</text>
</a>
</g>
</g>
<!-- Node1406&#45;&gt;Node1407 -->
<g id="edge10" class="edge">
<title>Node1406&#45;&gt;Node1407</title>
<path fill="none" stroke="#191970" d="M1637.7638,-304C1651.7742,-304 1666.5063,-304 1680.6162,-304"/>
<polygon fill="#191970" stroke="#191970" points="1680.7612,-307.5001 1690.7611,-304 1680.7611,-300.5001 1680.7612,-307.5001"/>
</g>
<!-- Node1408&#45;&gt;Node1403 -->
<g id="edge12" class="edge">
<title>Node1408&#45;&gt;Node1403</title>
<path fill="none" stroke="#191970" d="M1045.3619,-275.5415C1059.0372,-279.639 1074.891,-284.7011 1089,-290 1114.8554,-299.7104 1143.1741,-312.2444 1165.4743,-322.5735"/>
<polygon fill="#191970" stroke="#191970" points="1164.0965,-325.7929 1174.6384,-326.8507 1167.057,-319.4497 1164.0965,-325.7929"/>
</g>
<!-- Node1408&#45;&gt;Node1409 -->
<g id="edge13" class="edge">
<title>Node1408&#45;&gt;Node1409</title>
<path fill="none" stroke="#191970" d="M1019.6098,-256.4934C1049.3286,-221.656 1152.5504,-100.6556 1191.2202,-55.3254"/>
<polygon fill="#191970" stroke="#191970" points="1194.0283,-57.4266 1197.8556,-47.5472 1188.7028,-52.8835 1194.0283,-57.4266"/>
</g>
<!-- Node1410&#45;&gt;Node1402 -->
<g id="edge22" class="edge">
<title>Node1410&#45;&gt;Node1402</title>
<path fill="none" stroke="#191970" d="M683.5638,-351.8441C694.3052,-347.4474 705.7441,-342.3711 716,-337 747.8605,-320.3144 782.2619,-296.9131 803.7139,-281.6082"/>
<polygon fill="#191970" stroke="#191970" points="806.0023,-284.2733 812.0697,-275.5878 801.9102,-278.5939 806.0023,-284.2733"/>
</g>
<!-- Node1410&#45;&gt;Node1403 -->
<g id="edge18" class="edge">
<title>Node1410&#45;&gt;Node1403</title>
<path fill="none" stroke="#191970" d="M702.1709,-364.2579C718.3402,-363.5196 735.8406,-362.7249 752,-362 892.0679,-355.7169 1056.4522,-348.5191 1143.8928,-344.7044"/>
<polygon fill="#191970" stroke="#191970" points="1144.073,-348.1999 1153.911,-344.2674 1143.768,-341.2066 1144.073,-348.1999"/>
</g>
<!-- Node1411 -->
<g id="node14" class="node">
<title>Node1411</title>
<g id="a_node14"><a xlink:href="namespaceios__client__queue.xhtml#a9df32aa21836ca6d0c9912866fc9a3e8" target="_top" xlink:title="ios_client_queue::ios\l_print_protocol_slot">
<polygon fill="#ffffff" stroke="#000000" points="765.5,-371 765.5,-401 884.5,-401 884.5,-371 765.5,-371"/>
<text text-anchor="start" x="773.5" y="-389" font-family="Helvetica,sans-Serif" font-size="10.00" fill="#000000">ios_client_queue::ios</text>
<text text-anchor="middle" x="825" y="-378" font-family="Helvetica,sans-Serif" font-size="10.00" fill="#000000">_print_protocol_slot</text>
</a>
</g>
</g>
<!-- Node1410&#45;&gt;Node1411 -->
<g id="edge19" class="edge">
<title>Node1410&#45;&gt;Node1411</title>
<path fill="none" stroke="#191970" d="M702.0048,-373.195C718.9605,-374.9603 737.5868,-376.8994 755.1012,-378.7229"/>
<polygon fill="#191970" stroke="#191970" points="754.9552,-382.2265 765.2639,-379.7809 755.6801,-375.2641 754.9552,-382.2265"/>
</g>
<!-- Node1411&#45;&gt;Node1403 -->
<g id="edge20" class="edge">
<title>Node1411&#45;&gt;Node1403</title>
<path fill="none" stroke="#191970" d="M884.5138,-379.3392C938.0282,-373.3255 1018.7844,-364.1904 1089,-356 1106.7503,-353.9295 1126.0101,-351.6419 1143.6823,-349.5264"/>
<polygon fill="#191970" stroke="#191970" points="1144.3684,-352.9693 1153.8806,-348.3037 1143.535,-346.0191 1144.3684,-352.9693"/>
</g>
<!-- Node1411&#45;&gt;Node1408 -->
<g id="edge21" class="edge">
<title>Node1411&#45;&gt;Node1408</title>
<path fill="none" stroke="#191970" d="M848.6204,-370.8019C884.4309,-347.7603 952.0714,-304.2383 987.8811,-281.1972"/>
<polygon fill="#191970" stroke="#191970" points="990.1574,-283.8945 996.6731,-275.5401 986.3697,-278.0078 990.1574,-283.8945"/>
</g>
<!-- Node1412&#45;&gt;Node1402 -->
<g id="edge24" class="edge">
<title>Node1412&#45;&gt;Node1402</title>
<path fill="none" stroke="#191970" d="M533.2539,-207.7793C583.5624,-212.2124 654.6714,-220.1089 716,-233 740.4433,-238.1379 767.3053,-246.2409 788.2468,-253.1315"/>
<polygon fill="#191970" stroke="#191970" points="787.4211,-256.5459 798.0149,-256.3985 789.6414,-249.9073 787.4211,-256.5459"/>
</g>
<!-- Node1413 -->
<g id="node16" class="node">
<title>Node1413</title>
<g id="a_node16"><a xlink:href="namespaceios__common.xhtml#a2c973e11abf690e8e0215ca4d7e669de" target="_top" xlink:title="ios_common::l_ios_active">
<polygon fill="#ffffff" stroke="#000000" points="571,-161.5 571,-180.5 714,-180.5 714,-161.5 571,-161.5"/>
<text text-anchor="middle" x="642.5" y="-168.5" font-family="Helvetica,sans-Serif" font-size="10.00" fill="#000000">ios_common::l_ios_active</text>
</a>
</g>
</g>
<!-- Node1412&#45;&gt;Node1413 -->
<g id="edge25" class="edge">
<title>Node1412&#45;&gt;Node1413</title>
<path fill="none" stroke="#191970" d="M533.4738,-190.9933C548.9435,-188.1565 565.3889,-185.1407 580.6903,-182.3347"/>
<polygon fill="#191970" stroke="#191970" points="581.354,-185.7715 590.5586,-180.5251 580.0913,-178.8863 581.354,-185.7715"/>
</g>
<!-- Node1415&#45;&gt;Node1402 -->
<g id="edge28" class="edge">
<title>Node1415&#45;&gt;Node1402</title>
<path fill="none" stroke="#191970" d="M508.6284,-363.9937C526.9939,-357.3461 549.0147,-349.5628 569,-343 643.2032,-318.6332 730.4711,-293.0291 781.5639,-278.3435"/>
<polygon fill="#191970" stroke="#191970" points="782.6378,-281.6766 791.2855,-275.5555 780.7081,-274.9479 782.6378,-281.6766"/>
</g>
<!-- Node1415&#45;&gt;Node1403 -->
<g id="edge29" class="edge">
<title>Node1415&#45;&gt;Node1403</title>
<path fill="none" stroke="#191970" d="M512.9864,-394.0508C530.2925,-399.1557 550.3678,-404.2574 569,-407 798.0027,-440.708 863.8807,-431.8495 1089,-378 1109.8646,-373.0091 1132.4665,-366.3567 1152.1915,-360.1291"/>
<polygon fill="#191970" stroke="#191970" points="1153.4611,-363.3978 1161.9205,-357.0191 1151.3296,-356.7302 1153.4611,-363.3978"/>
</g>
<!-- Node1415&#45;&gt;Node1410 -->
<g id="edge30" class="edge">
<title>Node1415&#45;&gt;Node1410</title>
<path fill="none" stroke="#191970" d="M532.9774,-374.5316C545.8991,-373.643 559.5194,-372.7064 572.5978,-371.807"/>
<polygon fill="#191970" stroke="#191970" points="573.2102,-375.2733 582.9465,-371.0954 572.7299,-368.2898 573.2102,-375.2733"/>
</g>
<!-- Node1415&#45;&gt;Node1411 -->
<g id="edge31" class="edge">
<title>Node1415&#45;&gt;Node1411</title>
<path fill="none" stroke="#191970" d="M532.5374,-388.5559C544.6275,-389.9909 557.1791,-391.2424 569,-392 632.013,-396.0386 703.9059,-393.749 755.4291,-390.91"/>
<polygon fill="#191970" stroke="#191970" points="755.6697,-394.4021 765.4535,-390.3366 755.2699,-387.4135 755.6697,-394.4021"/>
</g>
<!-- Node1416&#45;&gt;Node1402 -->
<g id="edge37" class="edge">
<title>Node1416&#45;&gt;Node1402</title>
<path fill="none" stroke="#191970" d="M655.8965,-66.5852C671.3761,-78.0315 697.1345,-98.2475 716,-119 734.908,-139.7993 735.4313,-148.2931 752,-171 772.004,-198.415 796.1623,-229.4742 811.0537,-248.3961"/>
<polygon fill="#191970" stroke="#191970" points="808.4357,-250.7285 817.3782,-256.4102 813.9307,-246.392 808.4357,-250.7285"/>
</g>
<!-- Node1416&#45;&gt;Node1403 -->
<g id="edge35" class="edge">
<title>Node1416&#45;&gt;Node1403</title>
<path fill="none" stroke="#191970" d="M668.4165,-66.6461C690.485,-74.7025 723.1141,-86.2438 752,-95 816.1674,-114.4511 836.1477,-107.1138 898,-133 989.1951,-171.1666 1007.9727,-190.3624 1089,-247 1122.1878,-270.1981 1158.0062,-300.0651 1181.1471,-320.061"/>
<polygon fill="#191970" stroke="#191970" points="1178.9352,-322.7757 1188.7785,-326.695 1183.5277,-317.4928 1178.9352,-322.7757"/>
</g>
<!-- Node1416&#45;&gt;Node1409 -->
<g id="edge36" class="edge">
<title>Node1416&#45;&gt;Node1409</title>
<path fill="none" stroke="#191970" d="M716.1678,-54.5161C818.4338,-51.0679 1003.3358,-44.8334 1114.3771,-41.0893"/>
<polygon fill="#191970" stroke="#191970" points="1114.6797,-44.5812 1124.5561,-40.7461 1114.4438,-37.5852 1114.6797,-44.5812"/>
</g>
<!-- Node1416&#45;&gt;Node1414 -->
<g id="edge33" class="edge">
<title>Node1416&#45;&gt;Node1414</title>
<path fill="none" stroke="#191970" d="M686.1438,-66.5006C696.5119,-70.0037 707.1279,-74.7144 716,-81 737.4702,-96.211 730.5451,-112.7673 752,-128 758.0577,-132.3009 764.9343,-135.8663 771.9868,-138.8127"/>
<polygon fill="#191970" stroke="#191970" points="771.0607,-142.204 781.6525,-142.4578 773.5307,-135.6543 771.0607,-142.204"/>
</g>
<!-- Node1417 -->
<g id="node20" class="node">
<title>Node1417</title>
<g id="a_node20"><a xlink:href="namespaceios__common.xhtml#a3976806ac3c1c9b09b572dff6c77d79f" target="_top" xlink:title="ios_common::ioserverrank">
<polygon fill="#ffffff" stroke="#000000" points="752,-66.5 752,-85.5 898,-85.5 898,-66.5 752,-66.5"/>
<text text-anchor="middle" x="825" y="-73.5" font-family="Helvetica,sans-Serif" font-size="10.00" fill="#000000">ios_common::ioserverrank</text>
</a>
</g>
</g>
<!-- Node1416&#45;&gt;Node1417 -->
<g id="edge34" class="edge">
<title>Node1416&#45;&gt;Node1417</title>
<path fill="none" stroke="#191970" d="M716.2037,-64.6733C724.665,-65.5542 733.3355,-66.4568 741.9092,-67.3494"/>
<polygon fill="#191970" stroke="#191970" points="741.6024,-70.8363 751.9111,-68.3907 742.3273,-63.874 741.6024,-70.8363"/>
</g>
<!-- Node1418&#45;&gt;Node1402 -->
<g id="edge39" class="edge">
<title>Node1418&#45;&gt;Node1402</title>
<path fill="none" stroke="#191970" d="M367.1699,-122.4878C449.7016,-110.8174 601.4649,-99.8668 716,-152 761.0589,-172.5096 796.8394,-220.9099 813.9728,-247.5763"/>
<polygon fill="#191970" stroke="#191970" points="811.1653,-249.689 819.4241,-256.3255 817.1065,-245.9873 811.1653,-249.689"/>
</g>
</g>
</svg>
