<?xml version="1.0" encoding="UTF-8" standalone="no"?>
<!DOCTYPE svg PUBLIC "-//W3C//DTD SVG 1.1//EN"
 "http://www.w3.org/Graphics/SVG/1.1/DTD/svg11.dtd">
<!-- Generated by graphviz version 2.40.1 (20161225.0304)
 -->
<!-- Title: eg_f1sp_mod::eg_f1sp Pages: 1 -->
<svg width="666pt" height="204pt"
 viewBox="0.00 0.00 666.00 203.50" xmlns="http://www.w3.org/2000/svg" xmlns:xlink="http://www.w3.org/1999/xlink">
<g id="graph0" class="graph" transform="scale(1 1) rotate(0) translate(4 199.5)">
<title>eg_f1sp_mod::eg_f1sp</title>
<polygon fill="#ffffff" stroke="transparent" points="-4,4 -4,-199.5 662,-199.5 662,4 -4,4"/>
<!-- Node0 -->
<g id="node1" class="node">
<title>Node0</title>
<polygon fill="#bfbfbf" stroke="#000000" points="0,-104.5 0,-123.5 126,-123.5 126,-104.5 0,-104.5"/>
<text text-anchor="middle" x="63" y="-111.5" font-family="Helvetica,sans-Serif" font-size="10.00" fill="#000000">eg_f1sp_mod::eg_f1sp</text>
</g>
<!-- Node1 -->
<g id="node2" class="node">
<title>Node1</title>
<g id="a_node2"><a xlink:href="namespaceeg__sisl__init__mod.xhtml#a5b9451d4d083e860c585f994941f719e" target="_top" xlink:title="eg_sisl_init_mod::eg\l_sisl_init">
<polygon fill="#ffffff" stroke="#000000" points="163.5,-165 163.5,-195 279.5,-195 279.5,-165 163.5,-165"/>
<text text-anchor="start" x="171.5" y="-183" font-family="Helvetica,sans-Serif" font-size="10.00" fill="#000000">eg_sisl_init_mod::eg</text>
<text text-anchor="middle" x="221.5" y="-172" font-family="Helvetica,sans-Serif" font-size="10.00" fill="#000000">_sisl_init</text>
</a>
</g>
</g>
<!-- Node0&#45;&gt;Node1 -->
<g id="edge1" class="edge">
<title>Node0&#45;&gt;Node1</title>
<path fill="none" stroke="#191970" d="M86.0473,-123.597C109.5219,-133.3719 146.5512,-148.791 175.9646,-161.0389"/>
<polygon fill="#191970" stroke="#191970" points="174.6429,-164.2798 185.22,-164.8929 177.3338,-157.8176 174.6429,-164.2798"/>
</g>
<!-- Node3 -->
<g id="node4" class="node">
<title>Node3</title>
<g id="a_node4"><a xlink:href="fill__external__halos_8f90.xhtml#a9f4e1e061e136821fb9a51281a5e69c2" target="_top" xlink:title="Routine for filling in External Halos. ">
<polygon fill="#ffffff" stroke="#000000" points="168.5,-126.5 168.5,-145.5 274.5,-145.5 274.5,-126.5 168.5,-126.5"/>
<text text-anchor="middle" x="221.5" y="-133.5" font-family="Helvetica,sans-Serif" font-size="10.00" fill="#000000">fill_external_halos</text>
</a>
</g>
</g>
<!-- Node0&#45;&gt;Node3 -->
<g id="edge3" class="edge">
<title>Node0&#45;&gt;Node3</title>
<path fill="none" stroke="#191970" d="M126.0988,-122.7582C136.6971,-124.2292 147.6978,-125.7562 158.2986,-127.2276"/>
<polygon fill="#191970" stroke="#191970" points="157.9274,-130.7095 168.3136,-128.6177 158.8898,-123.776 157.9274,-130.7095"/>
</g>
<!-- Node4 -->
<g id="node5" class="node">
<title>Node4</title>
<g id="a_node5"><a xlink:href="namespaceeg__v__at__poles__mod.xhtml#a2b4413ba994c589340c64169af4db7da" target="_top" xlink:title="eg_v_at_poles_mod::\leg_v_at_poles">
<polygon fill="#ffffff" stroke="#000000" points="162,-77 162,-107 281,-107 281,-77 162,-77"/>
<text text-anchor="start" x="170" y="-95" font-family="Helvetica,sans-Serif" font-size="10.00" fill="#000000">eg_v_at_poles_mod::</text>
<text text-anchor="middle" x="221.5" y="-84" font-family="Helvetica,sans-Serif" font-size="10.00" fill="#000000">eg_v_at_poles</text>
</a>
</g>
</g>
<!-- Node0&#45;&gt;Node4 -->
<g id="edge4" class="edge">
<title>Node0&#45;&gt;Node4</title>
<path fill="none" stroke="#191970" d="M126.0988,-105.2418C134.5995,-104.0619 143.3592,-102.846 151.9637,-101.6517"/>
<polygon fill="#191970" stroke="#191970" points="152.5449,-105.1047 161.9687,-100.263 151.5824,-98.1712 152.5449,-105.1047"/>
</g>
<!-- Node6 -->
<g id="node7" class="node">
<title>Node6</title>
<g id="a_node7"><a xlink:href="namespaceumprintmgr.xhtml#aae44897e556705dbf5e945a26538be9a" target="_top" xlink:title="umprintmgr::umprint">
<polygon fill="#ffffff" stroke="#000000" points="162,-38.5 162,-57.5 281,-57.5 281,-38.5 162,-38.5"/>
<text text-anchor="middle" x="221.5" y="-45.5" font-family="Helvetica,sans-Serif" font-size="10.00" fill="#000000">umprintmgr::umprint</text>
</a>
</g>
</g>
<!-- Node0&#45;&gt;Node6 -->
<g id="edge6" class="edge">
<title>Node0&#45;&gt;Node6</title>
<path fill="none" stroke="#191970" d="M82.0731,-104.3688C101.809,-94.5861 133.6592,-79.3071 162,-68 168.1111,-65.5618 174.6492,-63.1613 181.0729,-60.9163"/>
<polygon fill="#191970" stroke="#191970" points="182.6598,-64.0731 190.9953,-57.5332 180.4008,-57.4476 182.6598,-64.0731"/>
</g>
<!-- Node2 -->
<g id="node3" class="node">
<title>Node2</title>
<g id="a_node3"><a xlink:href="namespaceeg__sisl__init__uvw__mod.xhtml#a50407fb53a3119944d4c1af6c4398832" target="_top" xlink:title="eg_sisl_init_uvw_mod\l::eg_sisl_init_uvw">
<polygon fill="#ffffff" stroke="#000000" points="343.5,-165 343.5,-195 467.5,-195 467.5,-165 343.5,-165"/>
<text text-anchor="start" x="351.5" y="-183" font-family="Helvetica,sans-Serif" font-size="10.00" fill="#000000">eg_sisl_init_uvw_mod</text>
<text text-anchor="middle" x="405.5" y="-172" font-family="Helvetica,sans-Serif" font-size="10.00" fill="#000000">::eg_sisl_init_uvw</text>
</a>
</g>
</g>
<!-- Node1&#45;&gt;Node2 -->
<g id="edge2" class="edge">
<title>Node1&#45;&gt;Node2</title>
<path fill="none" stroke="#191970" d="M279.7188,-180C296.6171,-180 315.2812,-180 332.9434,-180"/>
<polygon fill="#191970" stroke="#191970" points="333.206,-183.5001 343.206,-180 333.206,-176.5001 333.206,-183.5001"/>
</g>
<!-- Node5 -->
<g id="node6" class="node">
<title>Node5</title>
<g id="a_node6"><a xlink:href="namespaceglobal__2d__sums__mod.xhtml#ac3fe3c2679168085c4635a17e5f82215" target="_top" xlink:title="global_2d_sums_mod\l::global_2d_sums">
<polygon fill="#ffffff" stroke="#000000" points="344.5,-77 344.5,-107 466.5,-107 466.5,-77 344.5,-77"/>
<text text-anchor="start" x="352.5" y="-95" font-family="Helvetica,sans-Serif" font-size="10.00" fill="#000000">global_2d_sums_mod</text>
<text text-anchor="middle" x="405.5" y="-84" font-family="Helvetica,sans-Serif" font-size="10.00" fill="#000000">::global_2d_sums</text>
</a>
</g>
</g>
<!-- Node4&#45;&gt;Node5 -->
<g id="edge5" class="edge">
<title>Node4&#45;&gt;Node5</title>
<path fill="none" stroke="#191970" d="M281.2395,-92C298.1693,-92 316.768,-92 334.3027,-92"/>
<polygon fill="#191970" stroke="#191970" points="334.4833,-95.5001 344.4832,-92 334.4832,-88.5001 334.4833,-95.5001"/>
</g>
<!-- Node7 -->
<g id="node8" class="node">
<title>Node7</title>
<g id="a_node8"><a xlink:href="namespaceumprintmgr.xhtml#a088ce22a18d574e9df7ee1850bfb10c7" target="_top" xlink:title="umprintmgr::umprintopenstream">
<polygon fill="#ffffff" stroke="#000000" points="317,-38.5 317,-57.5 494,-57.5 494,-38.5 317,-38.5"/>
<text text-anchor="middle" x="405.5" y="-45.5" font-family="Helvetica,sans-Serif" font-size="10.00" fill="#000000">umprintmgr::umprintopenstream</text>
</a>
</g>
</g>
<!-- Node6&#45;&gt;Node7 -->
<g id="edge7" class="edge">
<title>Node6&#45;&gt;Node7</title>
<path fill="none" stroke="#191970" d="M281.2395,-41.6333C289.4605,-41.4301 298.0751,-41.3077 306.7702,-41.2661"/>
<polygon fill="#191970" stroke="#191970" points="306.9998,-44.7659 316.9958,-41.2543 306.9917,-37.7659 306.9998,-44.7659"/>
</g>
<!-- Node8 -->
<g id="node9" class="node">
<title>Node8</title>
<g id="a_node9"><a xlink:href="namespaceumprintmgr.xhtml#ad3a290b30a6e25500eabc0bf90330b77" target="_top" xlink:title="umprintmgr::umprintflush">
<polygon fill="#ffffff" stroke="#000000" points="334.5,-.5 334.5,-19.5 476.5,-19.5 476.5,-.5 334.5,-.5"/>
<text text-anchor="middle" x="405.5" y="-7.5" font-family="Helvetica,sans-Serif" font-size="10.00" fill="#000000">umprintmgr::umprintflush</text>
</a>
</g>
</g>
<!-- Node6&#45;&gt;Node8 -->
<g id="edge9" class="edge">
<title>Node6&#45;&gt;Node8</title>
<path fill="none" stroke="#191970" d="M267.931,-38.411C292.6493,-33.3061 323.239,-26.9887 349.292,-21.6082"/>
<polygon fill="#191970" stroke="#191970" points="350.3175,-24.9703 359.4029,-19.5201 348.9017,-18.115 350.3175,-24.9703"/>
</g>
<!-- Node7&#45;&gt;Node6 -->
<g id="edge8" class="edge">
<title>Node7&#45;&gt;Node6</title>
<path fill="none" stroke="#191970" d="M316.9958,-54.7457C308.3802,-54.767 299.7236,-54.7094 291.3289,-54.5727"/>
<polygon fill="#191970" stroke="#191970" points="291.3089,-51.0716 281.2395,-54.3667 291.166,-58.0702 291.3089,-51.0716"/>
</g>
<!-- Node9 -->
<g id="node10" class="node">
<title>Node9</title>
<g id="a_node10"><a xlink:href="namespaceumflush__mod.xhtml#a3a003ab59990bdcb712b443dd5e0d1cd" target="_top" xlink:title="umflush_mod::umflush">
<polygon fill="#ffffff" stroke="#000000" points="530,-.5 530,-19.5 658,-19.5 658,-.5 530,-.5"/>
<text text-anchor="middle" x="594" y="-7.5" font-family="Helvetica,sans-Serif" font-size="10.00" fill="#000000">umflush_mod::umflush</text>
</a>
</g>
</g>
<!-- Node8&#45;&gt;Node9 -->
<g id="edge10" class="edge">
<title>Node8&#45;&gt;Node9</title>
<path fill="none" stroke="#191970" d="M476.7638,-10C490.7742,-10 505.5063,-10 519.6162,-10"/>
<polygon fill="#191970" stroke="#191970" points="519.7612,-13.5001 529.7611,-10 519.7611,-6.5001 519.7612,-13.5001"/>
</g>
</g>
</svg>
