<?xml version="1.0" encoding="UTF-8" standalone="no"?>
<!DOCTYPE svg PUBLIC "-//W3C//DTD SVG 1.1//EN"
 "http://www.w3.org/Graphics/SVG/1.1/DTD/svg11.dtd">
<!-- Generated by graphviz version 2.40.1 (20161225.0304)
 -->
<!-- Title: ios::ios_write64_l2d Pages: 1 -->
<!--zoomable 484 -->
<svg id="main" version="1.1" xmlns="http://www.w3.org/2000/svg" xmlns:xlink="http://www.w3.org/1999/xlink" xml:space="preserve" onload="init(evt)">
<style type="text/css"><![CDATA[
.edge:hover path { stroke: red; }
.edge:hover polygon { stroke: red; fill: red; }
]]></style>
<script type="text/javascript"><![CDATA[
var edges = document.getElementsByTagName('g');
if (edges && edges.length) {
  for (var i=0;i<edges.length;i++) {
    if (edges[i].id.substr(0,4)=='edge') {
      edges[i].setAttribute('class','edge');
    }
  }
}
]]></script>
        <defs>
                <circle id="rim" cx="0" cy="0" r="7"/>
                <circle id="rim2" cx="0" cy="0" r="3.5"/>
                <g id="zoomPlus">
                        <use xlink:href="#rim" fill="#404040">
                                <set attributeName="fill" to="#808080" begin="zoomplus.mouseover" end="zoomplus.mouseout"/>
                        </use>
                        <path d="M-4,0h8M0,-4v8" fill="none" stroke="white" stroke-width="1.5" pointer-events="none"/>
                </g>
                <g id="zoomMin">
                        <use xlink:href="#rim" fill="#404040">
                                <set attributeName="fill" to="#808080" begin="zoomminus.mouseover" end="zoomminus.mouseout"/>
                        </use>
                        <path d="M-4,0h8" fill="none" stroke="white" stroke-width="1.5" pointer-events="none"/>
                </g>
                <g id="dirArrow">
                        <path fill="none" stroke="white" stroke-width="1.5" d="M0,-3.0v7 M-2.5,-0.5L0,-3.0L2.5,-0.5"/>
                </g>
               <g id="resetDef">
                       <use xlink:href="#rim2" fill="#404040">
                               <set attributeName="fill" to="#808080" begin="reset.mouseover" end="reset.mouseout"/>
                       </use>
               </g>
        </defs>

<script type="text/javascript">
var viewWidth = 1728;
var viewHeight = 484;
var sectionId = 'dynsection-41';
</script>
<script xlink:href="svgpan.js"/>
<svg id="graph" class="graph">
<g id="viewport">
<title>ios::ios_write64_l2d</title>
<polygon fill="#ffffff" stroke="transparent" points="-4,4 -4,-479.68 1724,-479.68 1724,4 -4,4"/>
<!-- Node1448 -->
<g id="node1" class="node">
<title>Node1448</title>
<polygon fill="#bfbfbf" stroke="#000000" points="0,-266.18 0,-285.18 113,-285.18 113,-266.18 0,-266.18"/>
<text text-anchor="middle" x="56.5" y="-273.18" font-family="Helvetica,sans-Serif" font-size="10.00" fill="#000000">ios::ios_write64_l2d</text>
</g>
<!-- Node1449 -->
<g id="node2" class="node">
<title>Node1449</title>
<g id="a_node2"><a xlink:href="namespaceios__client__queue.xhtml#afe87459ebf2e7fc1b3915458ad63d06f" target="_top" xlink:title="ios_client_queue::ios\l_init_md">
<polygon fill="#ffffff" stroke="#000000" points="149,-260.68 149,-290.68 268,-290.68 268,-260.68 149,-260.68"/>
<text text-anchor="start" x="157" y="-278.68" font-family="Helvetica,sans-Serif" font-size="10.00" fill="#000000">ios_client_queue::ios</text>
<text text-anchor="middle" x="208.5" y="-267.68" font-family="Helvetica,sans-Serif" font-size="10.00" fill="#000000">_init_md</text>
</a>
</g>
</g>
<!-- Node1448&#45;&gt;Node1449 -->
<g id="edge1" class="edge">
<title>Node1448&#45;&gt;Node1449</title>
<path fill="none" stroke="#191970" d="M113.0992,-275.68C121.4712,-275.68 130.1798,-275.68 138.7804,-275.68"/>
<polygon fill="#191970" stroke="#191970" points="138.8006,-279.1801 148.8005,-275.68 138.8005,-272.1801 138.8006,-279.1801"/>
</g>
<!-- Node1465 -->
<g id="node18" class="node">
<title>Node1465</title>
<g id="a_node18"><a xlink:href="namespaceios__client__queue.xhtml#a6288f2c5e8ba14c7dba338d01f36d418" target="_top" xlink:title="ios_client_queue::ios\l_attach_sendbuffer">
<polygon fill="#ffffff" stroke="#000000" points="149,-203.68 149,-233.68 268,-233.68 268,-203.68 149,-203.68"/>
<text text-anchor="start" x="157" y="-221.68" font-family="Helvetica,sans-Serif" font-size="10.00" fill="#000000">ios_client_queue::ios</text>
<text text-anchor="middle" x="208.5" y="-210.68" font-family="Helvetica,sans-Serif" font-size="10.00" fill="#000000">_attach_sendbuffer</text>
</a>
</g>
</g>
<!-- Node1448&#45;&gt;Node1465 -->
<g id="edge31" class="edge">
<title>Node1448&#45;&gt;Node1465</title>
<path fill="none" stroke="#191970" d="M81.9414,-266.1395C102.8495,-258.299 133.1005,-246.9548 158.7842,-237.3235"/>
<polygon fill="#191970" stroke="#191970" points="160.2407,-240.5153 168.3751,-233.7269 157.7828,-233.961 160.2407,-240.5153"/>
</g>
<!-- Node1466 -->
<g id="node19" class="node">
<title>Node1466</title>
<g id="a_node19"><a xlink:href="namespaceios__client__queue.xhtml#ad45a47e6cd283c6c4b4e7a3a45dd37a6" target="_top" xlink:title="ios_client_queue::ios_send">
<polygon fill="#ffffff" stroke="#000000" points="470,-428.18 470,-447.18 617,-447.18 617,-428.18 470,-428.18"/>
<text text-anchor="middle" x="543.5" y="-435.18" font-family="Helvetica,sans-Serif" font-size="10.00" fill="#000000">ios_client_queue::ios_send</text>
</a>
</g>
</g>
<!-- Node1448&#45;&gt;Node1466 -->
<g id="edge33" class="edge">
<title>Node1448&#45;&gt;Node1466</title>
<path fill="none" stroke="#191970" d="M73.6368,-285.2911C113.0745,-307.0208 213.8067,-360.3187 304,-389.68 356.1247,-406.6486 416.6739,-418.7192 463.8499,-426.5119"/>
<polygon fill="#191970" stroke="#191970" points="463.5788,-430.0136 474.0099,-428.1584 464.6986,-423.1037 463.5788,-430.0136"/>
</g>
<!-- Node1450 -->
<g id="node3" class="node">
<title>Node1450</title>
<g id="a_node3"><a xlink:href="namespaceios__common.xhtml#a31ef4cb4de4333384dba3e441df47903" target="_top" xlink:title="ios_common::assert\l_client">
<polygon fill="#ffffff" stroke="#000000" points="311.5,-333.68 311.5,-363.68 426.5,-363.68 426.5,-333.68 311.5,-333.68"/>
<text text-anchor="start" x="319.5" y="-351.68" font-family="Helvetica,sans-Serif" font-size="10.00" fill="#000000">ios_common::assert</text>
<text text-anchor="middle" x="369" y="-340.68" font-family="Helvetica,sans-Serif" font-size="10.00" fill="#000000">_client</text>
</a>
</g>
</g>
<!-- Node1449&#45;&gt;Node1450 -->
<g id="edge2" class="edge">
<title>Node1449&#45;&gt;Node1450</title>
<path fill="none" stroke="#191970" d="M241.7557,-290.8057C266.2887,-301.964 299.8687,-317.2371 326.3724,-329.2918"/>
<polygon fill="#191970" stroke="#191970" points="325.2351,-332.6195 335.7869,-333.5738 328.1333,-326.2476 325.2351,-332.6195"/>
</g>
<!-- Node1451 -->
<g id="node4" class="node">
<title>Node1451</title>
<g id="a_node4"><a xlink:href="namespaceios__common.xhtml#a4b4c79405dd73494ae58cbf0e4f1658b" target="_top" xlink:title="ios_common::ios_ereport">
<polygon fill="#ffffff" stroke="#000000" points="656,-200.18 656,-219.18 796,-219.18 796,-200.18 656,-200.18"/>
<text text-anchor="middle" x="726" y="-207.18" font-family="Helvetica,sans-Serif" font-size="10.00" fill="#000000">ios_common::ios_ereport</text>
</a>
</g>
</g>
<!-- Node1449&#45;&gt;Node1451 -->
<g id="edge15" class="edge">
<title>Node1449&#45;&gt;Node1451</title>
<path fill="none" stroke="#191970" d="M268.1461,-269.5536C347.8061,-261.1699 493.264,-245.1567 617,-227.68 631.4275,-225.6423 646.891,-223.2288 661.5051,-220.8421"/>
<polygon fill="#191970" stroke="#191970" points="662.1669,-224.2803 671.4637,-219.1989 661.0273,-217.3737 662.1669,-224.2803"/>
</g>
<!-- Node1452 -->
<g id="node5" class="node">
<title>Node1452</title>
<g id="a_node5"><a xlink:href="namespaceios__print__mgr.xhtml#abd09d7fc0d2381103fd0889b447f4995" target="_top" xlink:title="ios_print_mgr::ios\l_print">
<polygon fill="#ffffff" stroke="#000000" points="1055,-118.68 1055,-148.68 1159,-148.68 1159,-118.68 1055,-118.68"/>
<text text-anchor="start" x="1063" y="-136.68" font-family="Helvetica,sans-Serif" font-size="10.00" fill="#000000">ios_print_mgr::ios</text>
<text text-anchor="middle" x="1107" y="-125.68" font-family="Helvetica,sans-Serif" font-size="10.00" fill="#000000">_print</text>
</a>
</g>
</g>
<!-- Node1449&#45;&gt;Node1452 -->
<g id="edge14" class="edge">
<title>Node1449&#45;&gt;Node1452</title>
<path fill="none" stroke="#191970" d="M247.2852,-260.6601C255.1762,-255.9814 262.6792,-250.0567 268,-242.68 318.7899,-172.2658 242.3728,-111.8345 304,-50.68 380.7649,25.4961 435.3536,-7.68 543.5,-7.68 543.5,-7.68 543.5,-7.68 726,-7.68 846.1316,-7.68 878.0576,-22.0852 990,-65.68 1021.3096,-77.8733 1054.1518,-97.6653 1077.0427,-112.7606"/>
<polygon fill="#191970" stroke="#191970" points="1075.3491,-115.8387 1085.6056,-118.4949 1079.2441,-110.0224 1075.3491,-115.8387"/>
</g>
<!-- Node1458 -->
<g id="node11" class="node">
<title>Node1458</title>
<g id="a_node11"><a xlink:href="namespaceios__common.xhtml#a9cbfffb6c02387dc317575ab449918b6" target="_top" xlink:title="ios_common::ios_actionname">
<polygon fill="#ffffff" stroke="#000000" points="1026,-428.18 1026,-447.18 1188,-447.18 1188,-428.18 1026,-428.18"/>
<text text-anchor="middle" x="1107" y="-435.18" font-family="Helvetica,sans-Serif" font-size="10.00" fill="#000000">ios_common::ios_actionname</text>
</a>
</g>
</g>
<!-- Node1449&#45;&gt;Node1458 -->
<g id="edge13" class="edge">
<title>Node1449&#45;&gt;Node1458</title>
<path fill="none" stroke="#191970" d="M217.7944,-291.0319C233.0494,-315.0756 265.573,-361.7478 304,-389.68 395.4837,-456.1788 430.4011,-475.68 543.5,-475.68 543.5,-475.68 543.5,-475.68 726,-475.68 835.5815,-475.68 962.0201,-459.923 1038.167,-448.7021"/>
<polygon fill="#191970" stroke="#191970" points="1038.7384,-452.1557 1048.1133,-447.22 1037.7067,-445.2321 1038.7384,-452.1557"/>
</g>
<!-- Node1459 -->
<g id="node12" class="node">
<title>Node1459</title>
<g id="a_node12"><a xlink:href="namespaceios__client__queue.xhtml#a8113f81d94a6b3ff7dded6fcd66952a3" target="_top" xlink:title="ios_client_queue::ios\l_querybuffer">
<polygon fill="#ffffff" stroke="#000000" points="484,-36.68 484,-66.68 603,-66.68 603,-36.68 484,-36.68"/>
<text text-anchor="start" x="492" y="-54.68" font-family="Helvetica,sans-Serif" font-size="10.00" fill="#000000">ios_client_queue::ios</text>
<text text-anchor="middle" x="543.5" y="-43.68" font-family="Helvetica,sans-Serif" font-size="10.00" fill="#000000">_querybuffer</text>
</a>
</g>
</g>
<!-- Node1449&#45;&gt;Node1459 -->
<g id="edge16" class="edge">
<title>Node1449&#45;&gt;Node1459</title>
<path fill="none" stroke="#191970" d="M246.5656,-260.5324C254.586,-255.8384 262.326,-249.9392 268,-242.68 305.9764,-194.0935 259.771,-151.6528 304,-108.68 348.7821,-65.1699 420.4445,-52.7562 473.7263,-50.1173"/>
<polygon fill="#191970" stroke="#191970" points="473.9318,-53.6121 483.7871,-49.7232 473.6577,-46.6174 473.9318,-53.6121"/>
</g>
<!-- Node1461 -->
<g id="node14" class="node">
<title>Node1461</title>
<g id="a_node14"><a xlink:href="namespaceios__common.xhtml#a66b4e97a85f71f85bc4f53af5819c234" target="_top" xlink:title="ios_common::io_server\l_for_unit">
<polygon fill="#ffffff" stroke="#000000" points="304,-276.68 304,-306.68 434,-306.68 434,-276.68 304,-276.68"/>
<text text-anchor="start" x="312" y="-294.68" font-family="Helvetica,sans-Serif" font-size="10.00" fill="#000000">ios_common::io_server</text>
<text text-anchor="middle" x="369" y="-283.68" font-family="Helvetica,sans-Serif" font-size="10.00" fill="#000000">_for_unit</text>
</a>
</g>
</g>
<!-- Node1449&#45;&gt;Node1461 -->
<g id="edge22" class="edge">
<title>Node1449&#45;&gt;Node1461</title>
<path fill="none" stroke="#191970" d="M268.2643,-281.6378C276.592,-282.468 285.2351,-283.3296 293.8012,-284.1836"/>
<polygon fill="#191970" stroke="#191970" points="293.5002,-287.6708 303.7981,-285.1802 294.1946,-280.7054 293.5002,-287.6708"/>
</g>
<!-- Node1463 -->
<g id="node16" class="node">
<title>Node1463</title>
<g id="a_node16"><a xlink:href="namespaceios__common.xhtml#a7ff67c62d278ec0aad0a979c736996c9" target="_top" xlink:title="ios_common::ioserverno">
<polygon fill="#ffffff" stroke="#000000" points="657.5,-314.18 657.5,-333.18 794.5,-333.18 794.5,-314.18 657.5,-314.18"/>
<text text-anchor="middle" x="726" y="-321.18" font-family="Helvetica,sans-Serif" font-size="10.00" fill="#000000">ios_common::ioserverno</text>
</a>
</g>
</g>
<!-- Node1449&#45;&gt;Node1463 -->
<g id="edge25" class="edge">
<title>Node1449&#45;&gt;Node1463</title>
<path fill="none" stroke="#191970" d="M217.6368,-290.7689C232.4494,-313.5855 264.1096,-355.9745 304,-372.68 326.9323,-382.2837 592.448,-375.6064 617,-368.68 634.8274,-363.6507 636.1082,-355.2813 653,-347.68 662.3069,-343.4919 672.5703,-339.6637 682.3874,-336.3543"/>
<polygon fill="#191970" stroke="#191970" points="683.5784,-339.6474 692.0037,-333.2236 681.4114,-332.9912 683.5784,-339.6474"/>
</g>
<!-- Node1464 -->
<g id="node17" class="node">
<title>Node1464</title>
<g id="a_node17"><a xlink:href="namespaceios__client__queue.xhtml#a9b6ce597cb41097a50bacde8955fa2e7" target="_top" xlink:title="ios_client_queue::ios\l_consume_client_mem">
<polygon fill="#ffffff" stroke="#000000" points="304.5,-118.68 304.5,-148.68 433.5,-148.68 433.5,-118.68 304.5,-118.68"/>
<text text-anchor="start" x="312.5" y="-136.68" font-family="Helvetica,sans-Serif" font-size="10.00" fill="#000000">ios_client_queue::ios</text>
<text text-anchor="middle" x="369" y="-125.68" font-family="Helvetica,sans-Serif" font-size="10.00" fill="#000000">_consume_client_mem</text>
</a>
</g>
</g>
<!-- Node1449&#45;&gt;Node1464 -->
<g id="edge26" class="edge">
<title>Node1449&#45;&gt;Node1464</title>
<path fill="none" stroke="#191970" d="M239.9405,-260.658C249.3582,-255.533 259.4479,-249.3852 268,-242.68 300.7283,-217.0199 332.2873,-180.4553 351.1721,-156.8941"/>
<polygon fill="#191970" stroke="#191970" points="354.0784,-158.8614 357.5349,-148.8462 348.5873,-154.52 354.0784,-158.8614"/>
</g>
<!-- Node1450&#45;&gt;Node1451 -->
<g id="edge3" class="edge">
<title>Node1450&#45;&gt;Node1451</title>
<path fill="none" stroke="#191970" d="M426.5896,-360.3297C479.0041,-368.0038 557.1099,-371.9225 617,-342.68 630.0519,-336.3072 686.2503,-262.7637 712.4532,-227.8577"/>
<polygon fill="#191970" stroke="#191970" points="715.5176,-229.6044 718.707,-219.5011 709.9132,-225.4103 715.5176,-229.6044"/>
</g>
<!-- Node1451&#45;&gt;Node1452 -->
<g id="edge4" class="edge">
<title>Node1451&#45;&gt;Node1452</title>
<path fill="none" stroke="#191970" d="M773.8681,-200.1315C842.5352,-186.4342 969.0541,-161.1968 1044.862,-146.075"/>
<polygon fill="#191970" stroke="#191970" points="1045.6342,-149.49 1054.7563,-144.1013 1044.2648,-142.6253 1045.6342,-149.49"/>
</g>
<!-- Node1457 -->
<g id="node10" class="node">
<title>Node1457</title>
<g id="a_node10"><a xlink:href="namespaceios__common.xhtml#ade38472c488c019e816ec75cb70ab3cc" target="_top" xlink:title="ios_common::ios_report_md">
<polygon fill="#ffffff" stroke="#000000" points="835,-200.18 835,-219.18 990,-219.18 990,-200.18 835,-200.18"/>
<text text-anchor="middle" x="912.5" y="-207.18" font-family="Helvetica,sans-Serif" font-size="10.00" fill="#000000">ios_common::ios_report_md</text>
</a>
</g>
</g>
<!-- Node1451&#45;&gt;Node1457 -->
<g id="edge10" class="edge">
<title>Node1451&#45;&gt;Node1457</title>
<path fill="none" stroke="#191970" d="M796.2419,-209.68C805.493,-209.68 815.0663,-209.68 824.5659,-209.68"/>
<polygon fill="#191970" stroke="#191970" points="824.8262,-213.1801 834.8262,-209.68 824.8262,-206.1801 824.8262,-213.1801"/>
</g>
<!-- Node1453 -->
<g id="node6" class="node">
<title>Node1453</title>
<g id="a_node6"><a xlink:href="namespaceumprintmgr.xhtml#aae44897e556705dbf5e945a26538be9a" target="_top" xlink:title="umprintmgr::umprint">
<polygon fill="#ffffff" stroke="#000000" points="1224,-124.18 1224,-143.18 1343,-143.18 1343,-124.18 1224,-124.18"/>
<text text-anchor="middle" x="1283.5" y="-131.18" font-family="Helvetica,sans-Serif" font-size="10.00" fill="#000000">umprintmgr::umprint</text>
</a>
</g>
</g>
<!-- Node1452&#45;&gt;Node1453 -->
<g id="edge5" class="edge">
<title>Node1452&#45;&gt;Node1453</title>
<path fill="none" stroke="#191970" d="M1159.0012,-133.68C1176.1607,-133.68 1195.5332,-133.68 1213.796,-133.68"/>
<polygon fill="#191970" stroke="#191970" points="1213.8067,-137.1801 1223.8067,-133.68 1213.8067,-130.1801 1213.8067,-137.1801"/>
</g>
<!-- Node1454 -->
<g id="node7" class="node">
<title>Node1454</title>
<g id="a_node7"><a xlink:href="namespaceumprintmgr.xhtml#a088ce22a18d574e9df7ee1850bfb10c7" target="_top" xlink:title="umprintmgr::umprintopenstream">
<polygon fill="#ffffff" stroke="#000000" points="1379,-124.18 1379,-143.18 1556,-143.18 1556,-124.18 1379,-124.18"/>
<text text-anchor="middle" x="1467.5" y="-131.18" font-family="Helvetica,sans-Serif" font-size="10.00" fill="#000000">umprintmgr::umprintopenstream</text>
</a>
</g>
</g>
<!-- Node1453&#45;&gt;Node1454 -->
<g id="edge6" class="edge">
<title>Node1453&#45;&gt;Node1454</title>
<path fill="none" stroke="#191970" d="M1343.2395,-127.3133C1351.4605,-127.1101 1360.0751,-126.9877 1368.7702,-126.9461"/>
<polygon fill="#191970" stroke="#191970" points="1368.9998,-130.4459 1378.9958,-126.9344 1368.9917,-123.446 1368.9998,-130.4459"/>
</g>
<!-- Node1455 -->
<g id="node8" class="node">
<title>Node1455</title>
<g id="a_node8"><a xlink:href="namespaceumprintmgr.xhtml#ad3a290b30a6e25500eabc0bf90330b77" target="_top" xlink:title="umprintmgr::umprintflush">
<polygon fill="#ffffff" stroke="#000000" points="1396.5,-86.18 1396.5,-105.18 1538.5,-105.18 1538.5,-86.18 1396.5,-86.18"/>
<text text-anchor="middle" x="1467.5" y="-93.18" font-family="Helvetica,sans-Serif" font-size="10.00" fill="#000000">umprintmgr::umprintflush</text>
</a>
</g>
</g>
<!-- Node1453&#45;&gt;Node1455 -->
<g id="edge8" class="edge">
<title>Node1453&#45;&gt;Node1455</title>
<path fill="none" stroke="#191970" d="M1329.931,-124.091C1354.6493,-118.9862 1385.239,-112.6687 1411.292,-107.2882"/>
<polygon fill="#191970" stroke="#191970" points="1412.3175,-110.6504 1421.4029,-105.2001 1410.9017,-103.795 1412.3175,-110.6504"/>
</g>
<!-- Node1454&#45;&gt;Node1453 -->
<g id="edge7" class="edge">
<title>Node1454&#45;&gt;Node1453</title>
<path fill="none" stroke="#191970" d="M1378.9958,-140.4257C1370.3802,-140.4471 1361.7236,-140.3894 1353.3289,-140.2527"/>
<polygon fill="#191970" stroke="#191970" points="1353.3089,-136.7517 1343.2395,-140.0468 1353.166,-143.7502 1353.3089,-136.7517"/>
</g>
<!-- Node1456 -->
<g id="node9" class="node">
<title>Node1456</title>
<g id="a_node9"><a xlink:href="namespaceumflush__mod.xhtml#a3a003ab59990bdcb712b443dd5e0d1cd" target="_top" xlink:title="umflush_mod::umflush">
<polygon fill="#ffffff" stroke="#000000" points="1592,-86.18 1592,-105.18 1720,-105.18 1720,-86.18 1592,-86.18"/>
<text text-anchor="middle" x="1656" y="-93.18" font-family="Helvetica,sans-Serif" font-size="10.00" fill="#000000">umflush_mod::umflush</text>
</a>
</g>
</g>
<!-- Node1455&#45;&gt;Node1456 -->
<g id="edge9" class="edge">
<title>Node1455&#45;&gt;Node1456</title>
<path fill="none" stroke="#191970" d="M1538.7638,-95.68C1552.7742,-95.68 1567.5063,-95.68 1581.6162,-95.68"/>
<polygon fill="#191970" stroke="#191970" points="1581.7612,-99.1801 1591.7611,-95.68 1581.7611,-92.1801 1581.7612,-99.1801"/>
</g>
<!-- Node1457&#45;&gt;Node1452 -->
<g id="edge11" class="edge">
<title>Node1457&#45;&gt;Node1452</title>
<path fill="none" stroke="#191970" d="M946.3619,-200.1386C960.0372,-196.041 975.891,-190.9789 990,-185.68 1015.8554,-175.9696 1044.1741,-163.4357 1066.4743,-153.1065"/>
<polygon fill="#191970" stroke="#191970" points="1068.057,-156.2303 1075.6384,-148.8293 1065.0965,-149.8872 1068.057,-156.2303"/>
</g>
<!-- Node1457&#45;&gt;Node1458 -->
<g id="edge12" class="edge">
<title>Node1457&#45;&gt;Node1458</title>
<path fill="none" stroke="#191970" d="M920.6098,-219.1866C950.3286,-254.0241 1053.5504,-375.0244 1092.2202,-420.3546"/>
<polygon fill="#191970" stroke="#191970" points="1089.7028,-422.7965 1098.8556,-428.1329 1095.0283,-418.2535 1089.7028,-422.7965"/>
</g>
<!-- Node1459&#45;&gt;Node1451 -->
<g id="edge21" class="edge">
<title>Node1459&#45;&gt;Node1451</title>
<path fill="none" stroke="#191970" d="M560.9989,-66.8297C595.3579,-96.5762 671.3852,-162.3971 706.9548,-193.1916"/>
<polygon fill="#191970" stroke="#191970" points="704.836,-195.9866 714.6872,-199.8859 709.4177,-190.6944 704.836,-195.9866"/>
</g>
<!-- Node1459&#45;&gt;Node1452 -->
<g id="edge17" class="edge">
<title>Node1459&#45;&gt;Node1452</title>
<path fill="none" stroke="#191970" d="M603.0436,-52.6005C654.9364,-53.9053 732.1442,-57.0591 799,-64.68 884.6686,-74.4455 906.1149,-78.7361 990,-98.68 1010.2925,-103.5046 1032.2672,-109.7899 1051.6343,-115.7008"/>
<polygon fill="#191970" stroke="#191970" points="1050.619,-119.0503 1061.2065,-118.6558 1052.6838,-112.3617 1050.619,-119.0503"/>
</g>
<!-- Node1460 -->
<g id="node13" class="node">
<title>Node1460</title>
<g id="a_node13"><a xlink:href="namespaceios__client__queue.xhtml#a9df32aa21836ca6d0c9912866fc9a3e8" target="_top" xlink:title="ios_client_queue::ios\l_print_protocol_slot">
<polygon fill="#ffffff" stroke="#000000" points="666.5,-74.68 666.5,-104.68 785.5,-104.68 785.5,-74.68 666.5,-74.68"/>
<text text-anchor="start" x="674.5" y="-92.68" font-family="Helvetica,sans-Serif" font-size="10.00" fill="#000000">ios_client_queue::ios</text>
<text text-anchor="middle" x="726" y="-81.68" font-family="Helvetica,sans-Serif" font-size="10.00" fill="#000000">_print_protocol_slot</text>
</a>
</g>
</g>
<!-- Node1459&#45;&gt;Node1460 -->
<g id="edge18" class="edge">
<title>Node1459&#45;&gt;Node1460</title>
<path fill="none" stroke="#191970" d="M603.0048,-64.0701C619.9605,-67.6006 638.5868,-71.4789 656.1012,-75.1258"/>
<polygon fill="#191970" stroke="#191970" points="655.7604,-78.6298 666.2639,-77.2418 657.1874,-71.7768 655.7604,-78.6298"/>
</g>
<!-- Node1460&#45;&gt;Node1452 -->
<g id="edge19" class="edge">
<title>Node1460&#45;&gt;Node1452</title>
<path fill="none" stroke="#191970" d="M785.5138,-96.3408C839.0282,-102.3545 919.7844,-111.4897 990,-119.68 1007.7503,-121.7505 1027.0101,-124.0382 1044.6823,-126.1536"/>
<polygon fill="#191970" stroke="#191970" points="1044.535,-129.6609 1054.8806,-127.3763 1045.3684,-122.7107 1044.535,-129.6609"/>
</g>
<!-- Node1460&#45;&gt;Node1457 -->
<g id="edge20" class="edge">
<title>Node1460&#45;&gt;Node1457</title>
<path fill="none" stroke="#191970" d="M749.6204,-104.8781C785.4309,-127.9198 853.0714,-171.4418 888.8811,-194.4829"/>
<polygon fill="#191970" stroke="#191970" points="887.3697,-197.6723 897.6731,-200.14 891.1574,-191.7856 887.3697,-197.6723"/>
</g>
<!-- Node1461&#45;&gt;Node1451 -->
<g id="edge23" class="edge">
<title>Node1461&#45;&gt;Node1451</title>
<path fill="none" stroke="#191970" d="M434.1204,-289.5621C484.8228,-286.5448 556.5074,-279.2557 617,-261.68 647.342,-252.8644 679.7331,-236.4082 701.2464,-224.3617"/>
<polygon fill="#191970" stroke="#191970" points="703.0905,-227.3392 710.0406,-219.3425 699.6206,-221.2597 703.0905,-227.3392"/>
</g>
<!-- Node1462 -->
<g id="node15" class="node">
<title>Node1462</title>
<g id="a_node15"><a xlink:href="namespaceios__common.xhtml#a2c973e11abf690e8e0215ca4d7e669de" target="_top" xlink:title="ios_common::l_ios_active">
<polygon fill="#ffffff" stroke="#000000" points="472,-314.18 472,-333.18 615,-333.18 615,-314.18 472,-314.18"/>
<text text-anchor="middle" x="543.5" y="-321.18" font-family="Helvetica,sans-Serif" font-size="10.00" fill="#000000">ios_common::l_ios_active</text>
</a>
</g>
</g>
<!-- Node1461&#45;&gt;Node1462 -->
<g id="edge24" class="edge">
<title>Node1461&#45;&gt;Node1462</title>
<path fill="none" stroke="#191970" d="M434.4738,-303.6867C449.9435,-306.5235 466.3889,-309.5393 481.6903,-312.3453"/>
<polygon fill="#191970" stroke="#191970" points="481.0913,-315.7937 491.5586,-314.155 482.354,-308.9086 481.0913,-315.7937"/>
</g>
<!-- Node1464&#45;&gt;Node1451 -->
<g id="edge27" class="edge">
<title>Node1464&#45;&gt;Node1451</title>
<path fill="none" stroke="#191970" d="M433.65,-147.4431C501.645,-161.9182 607.4671,-184.4461 671.4119,-198.059"/>
<polygon fill="#191970" stroke="#191970" points="670.7932,-201.5057 681.3029,-200.1647 672.2508,-194.6591 670.7932,-201.5057"/>
</g>
<!-- Node1464&#45;&gt;Node1452 -->
<g id="edge28" class="edge">
<title>Node1464&#45;&gt;Node1452</title>
<path fill="none" stroke="#191970" d="M433.5234,-133.68C574.0033,-133.68 906.0262,-133.68 1044.5754,-133.68"/>
<polygon fill="#191970" stroke="#191970" points="1044.6076,-137.1801 1054.6075,-133.68 1044.6075,-130.1801 1044.6076,-137.1801"/>
</g>
<!-- Node1464&#45;&gt;Node1459 -->
<g id="edge29" class="edge">
<title>Node1464&#45;&gt;Node1459</title>
<path fill="none" stroke="#191970" d="M396.5412,-118.6682C416.6665,-107.9037 444.7405,-93.3102 470,-81.68 478.0954,-77.9527 486.7907,-74.1943 495.2663,-70.6582"/>
<polygon fill="#191970" stroke="#191970" points="496.7846,-73.8182 504.6984,-66.774 494.119,-67.3456 496.7846,-73.8182"/>
</g>
<!-- Node1464&#45;&gt;Node1460 -->
<g id="edge30" class="edge">
<title>Node1464&#45;&gt;Node1460</title>
<path fill="none" stroke="#191970" d="M433.6292,-124.5152C445.7104,-122.8606 458.2352,-121.1846 470,-119.68 533.0435,-111.6176 604.933,-103.267 656.4472,-97.4297"/>
<polygon fill="#191970" stroke="#191970" points="656.9263,-100.8979 666.4697,-96.2966 656.1398,-93.9423 656.9263,-100.8979"/>
</g>
<!-- Node1465&#45;&gt;Node1451 -->
<g id="edge32" class="edge">
<title>Node1465&#45;&gt;Node1451</title>
<path fill="none" stroke="#191970" d="M268.1164,-217.6432C361.2263,-216.0239 541.2938,-212.8923 645.7247,-211.0761"/>
<polygon fill="#191970" stroke="#191970" points="645.962,-214.5726 655.8996,-210.8992 645.8403,-207.5737 645.962,-214.5726"/>
</g>
<!-- Node1466&#45;&gt;Node1451 -->
<g id="edge38" class="edge">
<title>Node1466&#45;&gt;Node1451</title>
<path fill="none" stroke="#191970" d="M557.9874,-428.1353C574.0005,-417.0261 599.7985,-397.4071 617,-375.68 638.9613,-347.941 634.1399,-334.6141 653,-304.68 670.9953,-276.1186 695.5138,-245.589 711.0517,-227.0662"/>
<polygon fill="#191970" stroke="#191970" points="713.9018,-229.1166 717.6967,-219.2247 708.5614,-224.5911 713.9018,-229.1166"/>
</g>
<!-- Node1466&#45;&gt;Node1452 -->
<g id="edge36" class="edge">
<title>Node1466&#45;&gt;Node1452</title>
<path fill="none" stroke="#191970" d="M559.2941,-428.0036C580.1173,-415.5911 618.1958,-394.0708 653,-380.68 715.5788,-356.6031 737.1477,-368.5662 799,-342.68 890.1951,-304.5135 908.9727,-285.3176 990,-228.68 1023.1878,-205.482 1059.0062,-175.6149 1082.1471,-155.6191"/>
<polygon fill="#191970" stroke="#191970" points="1084.5277,-158.1872 1089.7785,-148.9851 1079.9352,-152.9043 1084.5277,-158.1872"/>
</g>
<!-- Node1466&#45;&gt;Node1458 -->
<g id="edge37" class="edge">
<title>Node1466&#45;&gt;Node1458</title>
<path fill="none" stroke="#191970" d="M617.1678,-437.68C719.4338,-437.68 904.3358,-437.68 1015.3771,-437.68"/>
<polygon fill="#191970" stroke="#191970" points="1015.5561,-441.1801 1025.5561,-437.68 1015.556,-434.1801 1015.5561,-441.1801"/>
</g>
<!-- Node1466&#45;&gt;Node1463 -->
<g id="edge34" class="edge">
<title>Node1466&#45;&gt;Node1463</title>
<path fill="none" stroke="#191970" d="M590.5437,-428.1652C599.9973,-424.7143 609.3613,-420.03 617,-413.68 642.6945,-392.3204 627.3271,-369.0656 653,-347.68 657.9779,-343.5334 663.6941,-340.0964 669.6894,-337.2489"/>
<polygon fill="#191970" stroke="#191970" points="671.3978,-340.3284 679.2743,-333.2424 668.6981,-333.8699 671.3978,-340.3284"/>
</g>
<!-- Node1467 -->
<g id="node20" class="node">
<title>Node1467</title>
<g id="a_node20"><a xlink:href="namespaceios__common.xhtml#a3976806ac3c1c9b09b572dff6c77d79f" target="_top" xlink:title="ios_common::ioserverrank">
<polygon fill="#ffffff" stroke="#000000" points="653,-390.18 653,-409.18 799,-409.18 799,-390.18 653,-390.18"/>
<text text-anchor="middle" x="726" y="-397.18" font-family="Helvetica,sans-Serif" font-size="10.00" fill="#000000">ios_common::ioserverrank</text>
</a>
</g>
</g>
<!-- Node1466&#45;&gt;Node1467 -->
<g id="edge35" class="edge">
<title>Node1466&#45;&gt;Node1467</title>
<path fill="none" stroke="#191970" d="M589.5525,-428.091C614.0692,-422.9862 644.4096,-416.6687 670.2502,-411.2882"/>
<polygon fill="#191970" stroke="#191970" points="671.2022,-414.6651 680.2787,-409.2001 669.7752,-407.8121 671.2022,-414.6651"/>
</g>
</g>
</svg>
        <g id="navigator" transform="translate(0 0)" fill="#404254">
                <rect fill="#f2f5e9" fill-opacity="0.5" stroke="#606060" stroke-width=".5" x="0" y="0" width="60" height="60"/>
                <use id="zoomplus" xlink:href="#zoomPlus" x="17" y="9" onmousedown="handleZoom(evt,'in')"/>
                <use id="zoomminus" xlink:href="#zoomMin" x="42" y="9" onmousedown="handleZoom(evt,'out')"/>
                <use id="reset" xlink:href="#resetDef" x="30" y="36" onmousedown="handleReset()"/>
                <g id="arrowUp" xlink:href="#dirArrow" transform="translate(30 24)" onmousedown="handlePan(0,-1)">
                  <use xlink:href="#rim" fill="#404040">
                        <set attributeName="fill" to="#808080" begin="arrowUp.mouseover" end="arrowUp.mouseout"/>
                  </use>
                  <path fill="none" stroke="white" stroke-width="1.5" d="M0,-3.0v7 M-2.5,-0.5L0,-3.0L2.5,-0.5"/>
                </g>
                <g id="arrowRight" xlink:href="#dirArrow" transform="rotate(90) translate(36 -43)" onmousedown="handlePan(1,0)">
                  <use xlink:href="#rim" fill="#404040">
                        <set attributeName="fill" to="#808080" begin="arrowRight.mouseover" end="arrowRight.mouseout"/>
                  </use>
                  <path fill="none" stroke="white" stroke-width="1.5" d="M0,-3.0v7 M-2.5,-0.5L0,-3.0L2.5,-0.5"/>
                </g>
                <g id="arrowDown" xlink:href="#dirArrow" transform="rotate(180) translate(-30 -48)" onmousedown="handlePan(0,1)">
                  <use xlink:href="#rim" fill="#404040">
                        <set attributeName="fill" to="#808080" begin="arrowDown.mouseover" end="arrowDown.mouseout"/>
                  </use>
                  <path fill="none" stroke="white" stroke-width="1.5" d="M0,-3.0v7 M-2.5,-0.5L0,-3.0L2.5,-0.5"/>
                </g>
                <g id="arrowLeft" xlink:href="#dirArrow" transform="rotate(270) translate(-36 17)" onmousedown="handlePan(-1,0)">
                  <use xlink:href="#rim" fill="#404040">
                        <set attributeName="fill" to="#808080" begin="arrowLeft.mouseover" end="arrowLeft.mouseout"/>
                  </use>
                  <path fill="none" stroke="white" stroke-width="1.5" d="M0,-3.0v7 M-2.5,-0.5L0,-3.0L2.5,-0.5"/>
                </g>
        </g>
        <svg viewBox="0 0 15 15" width="100%" height="30px" preserveAspectRatio="xMaxYMin meet">
         <g id="arrow_out" transform="scale(0.3 0.3)">
          <a xlink:href="namespaceios_ac532bd010d5d16cb3771d18dd9c10fd8_cgraph_org.svg" target="_base">
           <rect id="button" ry="5" rx="5" y="6" x="6" height="38" width="38"
                fill="#f2f5e9" fill-opacity="0.5" stroke="#606060" stroke-width="1.0"/>
           <path id="arrow"
             d="M 11.500037,31.436501 C 11.940474,20.09759 22.043105,11.32322 32.158766,21.979434 L 37.068811,17.246167 C 37.068811,17.246167 37.088388,32 37.088388,32 L 22.160133,31.978069 C 22.160133,31.978069 26.997745,27.140456 26.997745,27.140456 C 18.528582,18.264221 13.291696,25.230495 11.500037,31.436501 z"
             style="fill:#404040;"/>
          </a>
         </g>
        </svg>
</svg>
