<?xml version="1.0" encoding="UTF-8" standalone="no"?>
<!DOCTYPE svg PUBLIC "-//W3C//DTD SVG 1.1//EN"
 "http://www.w3.org/Graphics/SVG/1.1/DTD/svg11.dtd">
<!-- Generated by graphviz version 2.40.1 (20161225.0304)
 -->
<!-- Title: array_lib::lin_interpolate Pages: 1 -->
<svg width="301pt" height="78pt"
 viewBox="0.00 0.00 301.00 77.50" xmlns="http://www.w3.org/2000/svg" xmlns:xlink="http://www.w3.org/1999/xlink">
<g id="graph0" class="graph" transform="scale(1 1) rotate(0) translate(4 73.5)">
<title>array_lib::lin_interpolate</title>
<polygon fill="#ffffff" stroke="transparent" points="-4,4 -4,-73.5 297,-73.5 297,4 -4,4"/>
<!-- Node11 -->
<g id="node1" class="node">
<title>Node11</title>
<polygon fill="#bfbfbf" stroke="#000000" points="0,-28 0,-47 136,-47 136,-28 0,-28"/>
<text text-anchor="middle" x="68" y="-35" font-family="Helvetica,sans-Serif" font-size="10.00" fill="#000000">array_lib::lin_interpolate</text>
</g>
<!-- Node12 -->
<g id="node2" class="node">
<title>Node12</title>
<g id="a_node2"><a xlink:href="namespacearray__lib.xhtml#a566b848192b7c484cf2c8f999062442f" target="_top" xlink:title="array_lib::infind">
<polygon fill="#ffffff" stroke="#000000" points="186.5,-50 186.5,-69 278.5,-69 278.5,-50 186.5,-50"/>
<text text-anchor="middle" x="232.5" y="-57" font-family="Helvetica,sans-Serif" font-size="10.00" fill="#000000">array_lib::infind</text>
</a>
</g>
</g>
<!-- Node11&#45;&gt;Node12 -->
<g id="edge1" class="edge">
<title>Node11&#45;&gt;Node12</title>
<path fill="none" stroke="#191970" d="M136.3337,-46.6389C149.5679,-48.4088 163.2971,-50.2449 176.0968,-51.9567"/>
<polygon fill="#191970" stroke="#191970" points="175.7596,-55.4427 186.1353,-53.2993 176.6876,-48.5045 175.7596,-55.4427"/>
</g>
<!-- Node13 -->
<g id="node3" class="node">
<title>Node13</title>
<g id="a_node3"><a xlink:href="namespacemod__cosp__utils.xhtml#a73e9ff71214152fd204ef6eb6087efcf" target="_top" xlink:title="mod_cosp_utils::cosp\l_ereport">
<polygon fill="#ffffff" stroke="#000000" points="172,-.5 172,-30.5 293,-30.5 293,-.5 172,-.5"/>
<text text-anchor="start" x="180" y="-18.5" font-family="Helvetica,sans-Serif" font-size="10.00" fill="#000000">mod_cosp_utils::cosp</text>
<text text-anchor="middle" x="232.5" y="-7.5" font-family="Helvetica,sans-Serif" font-size="10.00" fill="#000000">_ereport</text>
</a>
</g>
</g>
<!-- Node11&#45;&gt;Node13 -->
<g id="edge2" class="edge">
<title>Node11&#45;&gt;Node13</title>
<path fill="none" stroke="#191970" d="M136.3337,-28.3611C144.8356,-27.2241 153.5418,-26.0598 162.0745,-24.9186"/>
<polygon fill="#191970" stroke="#191970" points="162.5412,-28.3874 171.989,-23.5927 161.6133,-21.4492 162.5412,-28.3874"/>
</g>
</g>
</svg>
