<?xml version="1.0" encoding="UTF-8" standalone="no"?>
<!DOCTYPE svg PUBLIC "-//W3C//DTD SVG 1.1//EN"
 "http://www.w3.org/Graphics/SVG/1.1/DTD/svg11.dtd">
<!-- Generated by graphviz version 2.40.1 (20161225.0304)
 -->
<!-- Title: rcf_calc_2d_cca_mod::rcf_calc_2d_cca Pages: 1 -->
<svg width="853pt" height="39pt"
 viewBox="0.00 0.00 853.00 39.00" xmlns="http://www.w3.org/2000/svg" xmlns:xlink="http://www.w3.org/1999/xlink">
<g id="graph0" class="graph" transform="scale(1 1) rotate(0) translate(4 35)">
<title>rcf_calc_2d_cca_mod::rcf_calc_2d_cca</title>
<polygon fill="#ffffff" stroke="transparent" points="-4,4 -4,-35 849,-35 849,4 -4,4"/>
<!-- Node1 -->
<g id="node1" class="node">
<title>Node1</title>
<polygon fill="#bfbfbf" stroke="#000000" points="0,-.5 0,-30.5 120,-30.5 120,-.5 0,-.5"/>
<text text-anchor="start" x="8" y="-18.5" font-family="Helvetica,sans-Serif" font-size="10.00" fill="#000000">rcf_calc_2d_cca_mod</text>
<text text-anchor="middle" x="60" y="-7.5" font-family="Helvetica,sans-Serif" font-size="10.00" fill="#000000">::rcf_calc_2d_cca</text>
</g>
<!-- Node2 -->
<g id="node2" class="node">
<title>Node2</title>
<g id="a_node2"><a xlink:href="namespacercf__derv__2d__cca__mod.xhtml#a82bfdfa1d1706bde9be0fef4ac04469d" target="_top" xlink:title="Subroutine Rcf_Derv_2D_CCA. ">
<polygon fill="#ffffff" stroke="#000000" points="156,-.5 156,-30.5 278,-30.5 278,-.5 156,-.5"/>
<text text-anchor="start" x="164" y="-18.5" font-family="Helvetica,sans-Serif" font-size="10.00" fill="#000000">rcf_derv_2d_cca_mod</text>
<text text-anchor="middle" x="217" y="-7.5" font-family="Helvetica,sans-Serif" font-size="10.00" fill="#000000">::rcf_derv_2d_cca</text>
</a>
</g>
</g>
<!-- Node1&#45;&gt;Node2 -->
<g id="edge1" class="edge">
<title>Node1&#45;&gt;Node2</title>
<path fill="none" stroke="#191970" d="M130.4909,-15.5C138.9586,-15.5 147.5519,-15.5 155.8712,-15.5"/>
<polygon fill="#191970" stroke="#191970" points="130.2513,-12.0001 120.2513,-15.5 130.2513,-19.0001 130.2513,-12.0001"/>
</g>
<!-- Node3 -->
<g id="node3" class="node">
<title>Node3</title>
<g id="a_node3"><a xlink:href="namespacercf__field__calcs__mod.xhtml#aaf83a6a3cfce239d92cf41c835842415" target="_top" xlink:title="Subroutine Rcf_Field_Calcs &#45; field initialisation calculations. ">
<polygon fill="#ffffff" stroke="#000000" points="314,-.5 314,-30.5 427,-30.5 427,-.5 314,-.5"/>
<text text-anchor="start" x="322" y="-18.5" font-family="Helvetica,sans-Serif" font-size="10.00" fill="#000000">rcf_field_calcs_mod</text>
<text text-anchor="middle" x="370.5" y="-7.5" font-family="Helvetica,sans-Serif" font-size="10.00" fill="#000000">::rcf_field_calcs</text>
</a>
</g>
</g>
<!-- Node2&#45;&gt;Node3 -->
<g id="edge2" class="edge">
<title>Node2&#45;&gt;Node3</title>
<path fill="none" stroke="#191970" d="M288.3578,-15.5C296.8191,-15.5 305.3682,-15.5 313.5911,-15.5"/>
<polygon fill="#191970" stroke="#191970" points="288.1084,-12.0001 278.1083,-15.5 288.1083,-19.0001 288.1084,-12.0001"/>
</g>
<!-- Node4 -->
<g id="node4" class="node">
<title>Node4</title>
<g id="a_node4"><a xlink:href="namespacercf__create__dump__mod.xhtml#a2f1f869ea648718c07cc083ce73c40c9" target="_top" xlink:title="Subroutine Rcf_Create_Dump &#45; main dump creation loop. ">
<polygon fill="#ffffff" stroke="#000000" points="463,-.5 463,-30.5 588,-30.5 588,-.5 463,-.5"/>
<text text-anchor="start" x="471" y="-18.5" font-family="Helvetica,sans-Serif" font-size="10.00" fill="#000000">rcf_create_dump_mod</text>
<text text-anchor="middle" x="525.5" y="-7.5" font-family="Helvetica,sans-Serif" font-size="10.00" fill="#000000">::rcf_create_dump</text>
</a>
</g>
</g>
<!-- Node3&#45;&gt;Node4 -->
<g id="edge3" class="edge">
<title>Node3&#45;&gt;Node4</title>
<path fill="none" stroke="#191970" d="M437.515,-15.5C445.951,-15.5 454.5559,-15.5 462.9198,-15.5"/>
<polygon fill="#191970" stroke="#191970" points="437.3362,-12.0001 427.3361,-15.5 437.3361,-19.0001 437.3362,-12.0001"/>
</g>
<!-- Node5 -->
<g id="node5" class="node">
<title>Node5</title>
<g id="a_node5"><a xlink:href="namespacercf__control__mod.xhtml#a3ac6d1c6311ded848ddd750726da301a" target="_top" xlink:title="Subroutine Rcf_Control &#45; main control routine. ">
<polygon fill="#ffffff" stroke="#000000" points="624,-.5 624,-30.5 738,-30.5 738,-.5 624,-.5"/>
<text text-anchor="start" x="632" y="-18.5" font-family="Helvetica,sans-Serif" font-size="10.00" fill="#000000">rcf_control_mod::rcf</text>
<text text-anchor="middle" x="681" y="-7.5" font-family="Helvetica,sans-Serif" font-size="10.00" fill="#000000">_control</text>
</a>
</g>
</g>
<!-- Node4&#45;&gt;Node5 -->
<g id="edge4" class="edge">
<title>Node4&#45;&gt;Node5</title>
<path fill="none" stroke="#191970" d="M598.3443,-15.5C606.9541,-15.5 615.6445,-15.5 623.9908,-15.5"/>
<polygon fill="#191970" stroke="#191970" points="598.2996,-12.0001 588.2996,-15.5 598.2995,-19.0001 598.2996,-12.0001"/>
</g>
<!-- Node6 -->
<g id="node6" class="node">
<title>Node6</title>
<g id="a_node6"><a xlink:href="reconfigure_8f90.xhtml#a55389899cfceedbb4b0f908c73988c0c" target="_top" xlink:title="Top level program for reconfiguration. ">
<polygon fill="#ffffff" stroke="#000000" points="774,-6 774,-25 845,-25 845,-6 774,-6"/>
<text text-anchor="middle" x="809.5" y="-13" font-family="Helvetica,sans-Serif" font-size="10.00" fill="#000000">reconfigure</text>
</a>
</g>
</g>
<!-- Node5&#45;&gt;Node6 -->
<g id="edge5" class="edge">
<title>Node5&#45;&gt;Node6</title>
<path fill="none" stroke="#191970" d="M748.159,-15.5C757.0636,-15.5 765.8936,-15.5 773.9628,-15.5"/>
<polygon fill="#191970" stroke="#191970" points="748.1103,-12.0001 738.1103,-15.5 748.1103,-19.0001 748.1103,-12.0001"/>
</g>
</g>
</svg>
