<?xml version="1.0" encoding="UTF-8" standalone="no"?>
<!DOCTYPE svg PUBLIC "-//W3C//DTD SVG 1.1//EN"
 "http://www.w3.org/Graphics/SVG/1.1/DTD/svg11.dtd">
<!-- Generated by graphviz version 2.40.1 (20161225.0304)
 -->
<!-- Title: lspcon_mod::lspcon Pages: 1 -->
<svg width="945pt" height="104pt"
 viewBox="0.00 0.00 945.00 104.00" xmlns="http://www.w3.org/2000/svg" xmlns:xlink="http://www.w3.org/1999/xlink">
<g id="graph0" class="graph" transform="scale(1 1) rotate(0) translate(4 100)">
<title>lspcon_mod::lspcon</title>
<polygon fill="#ffffff" stroke="transparent" points="-4,4 -4,-100 941,-100 941,4 -4,4"/>
<!-- Node2 -->
<g id="node1" class="node">
<title>Node2</title>
<polygon fill="#bfbfbf" stroke="#000000" points="0,-38.5 0,-57.5 113,-57.5 113,-38.5 0,-38.5"/>
<text text-anchor="middle" x="56.5" y="-45.5" font-family="Helvetica,sans-Serif" font-size="10.00" fill="#000000">lspcon_mod::lspcon</text>
</g>
<!-- Node3 -->
<g id="node2" class="node">
<title>Node3</title>
<g id="a_node2"><a xlink:href="namespacels__ppn__mod.xhtml#a04a50a9f284f7ebb1acbb206ac81cdb9" target="_top" xlink:title="ls_ppn_mod::ls_ppn">
<polygon fill="#ffffff" stroke="#000000" points="149,-38.5 149,-57.5 262,-57.5 262,-38.5 149,-38.5"/>
<text text-anchor="middle" x="205.5" y="-45.5" font-family="Helvetica,sans-Serif" font-size="10.00" fill="#000000">ls_ppn_mod::ls_ppn</text>
</a>
</g>
</g>
<!-- Node2&#45;&gt;Node3 -->
<g id="edge1" class="edge">
<title>Node2&#45;&gt;Node3</title>
<path fill="none" stroke="#191970" d="M123.5076,-48C131.9902,-48 140.6037,-48 148.9022,-48"/>
<polygon fill="#191970" stroke="#191970" points="123.2556,-44.5001 113.2556,-48 123.2555,-51.5001 123.2556,-44.5001"/>
</g>
<!-- Node4 -->
<g id="node3" class="node">
<title>Node4</title>
<g id="a_node3"><a xlink:href="microphys__ctl_8f90.xhtml#a84b5cd5d89cbd475c33ce5b23e71d1d5" target="_top" xlink:title="Subroutine microphys_ctl. ">
<polygon fill="#ffffff" stroke="#000000" points="298,-38.5 298,-57.5 383,-57.5 383,-38.5 298,-38.5"/>
<text text-anchor="middle" x="340.5" y="-45.5" font-family="Helvetica,sans-Serif" font-size="10.00" fill="#000000">microphys_ctl</text>
</a>
</g>
</g>
<!-- Node3&#45;&gt;Node4 -->
<g id="edge2" class="edge">
<title>Node3&#45;&gt;Node4</title>
<path fill="none" stroke="#191970" d="M272.4047,-48C280.994,-48 289.5961,-48 297.6548,-48"/>
<polygon fill="#191970" stroke="#191970" points="272.3609,-44.5001 262.3609,-48 272.3608,-51.5001 272.3609,-44.5001"/>
</g>
<!-- Node5 -->
<g id="node4" class="node">
<title>Node5</title>
<g id="a_node4"><a xlink:href="atmos__physics1_8f90.xhtml#ae8d55d89da6ed68f5f8d7e9eec99bc76" target="_top" xlink:title="Interface to Atmos Physics parametrizations before S&#45;L advection. ">
<polygon fill="#ffffff" stroke="#000000" points="419,-38.5 419,-57.5 514,-57.5 514,-38.5 419,-38.5"/>
<text text-anchor="middle" x="466.5" y="-45.5" font-family="Helvetica,sans-Serif" font-size="10.00" fill="#000000">atmos_physics1</text>
</a>
</g>
</g>
<!-- Node4&#45;&gt;Node5 -->
<g id="edge3" class="edge">
<title>Node4&#45;&gt;Node5</title>
<path fill="none" stroke="#191970" d="M393.2722,-48C401.7007,-48 410.3801,-48 418.6851,-48"/>
<polygon fill="#191970" stroke="#191970" points="393.1579,-44.5001 383.1579,-48 393.1578,-51.5001 393.1579,-44.5001"/>
</g>
<!-- Node6 -->
<g id="node5" class="node">
<title>Node6</title>
<g id="a_node5"><a xlink:href="atm__step_8f90.xhtml#ac0ee2467a1a9959b7065fdb8fd27bce4" target="_top" xlink:title="Perform a 1&#45;timestep integration of the Atmosphere Model. ">
<polygon fill="#ffffff" stroke="#000000" points="559,-76.5 559,-95.5 621,-95.5 621,-76.5 559,-76.5"/>
<text text-anchor="middle" x="590" y="-83.5" font-family="Helvetica,sans-Serif" font-size="10.00" fill="#000000">atm_step</text>
</a>
</g>
</g>
<!-- Node5&#45;&gt;Node6 -->
<g id="edge4" class="edge">
<title>Node5&#45;&gt;Node6</title>
<path fill="none" stroke="#191970" d="M507.2397,-60.5353C524.0405,-65.7048 543.197,-71.5991 558.8457,-76.4141"/>
<polygon fill="#191970" stroke="#191970" points="508.2514,-57.1847 497.6643,-57.589 506.1927,-63.8752 508.2514,-57.1847"/>
</g>
<!-- Node10 -->
<g id="node9" class="node">
<title>Node10</title>
<g id="a_node9"><a xlink:href="atm__step__4_a_8f90.xhtml#a2319aa4963e90c64cd78bdcd5f481095" target="_top" xlink:title="Perform a 1&#45;timestep integration of the Atmosphere Model. ">
<polygon fill="#ffffff" stroke="#000000" points="550,-38.5 550,-57.5 630,-57.5 630,-38.5 550,-38.5"/>
<text text-anchor="middle" x="590" y="-45.5" font-family="Helvetica,sans-Serif" font-size="10.00" fill="#000000">atm_step_4a</text>
</a>
</g>
</g>
<!-- Node5&#45;&gt;Node10 -->
<g id="edge8" class="edge">
<title>Node5&#45;&gt;Node10</title>
<path fill="none" stroke="#191970" d="M524.3434,-48C533.0185,-48 541.7967,-48 549.9897,-48"/>
<polygon fill="#191970" stroke="#191970" points="524.2484,-44.5001 514.2483,-48 524.2483,-51.5001 524.2484,-44.5001"/>
</g>
<!-- Node12 -->
<g id="node11" class="node">
<title>Node12</title>
<g id="a_node11"><a xlink:href="scm__main_8f90.xhtml#a2c730136605550612e094ce51d33a2a5" target="_top" xlink:title="*********************************COPYRIGHT********************************* ">
<polygon fill="#ffffff" stroke="#000000" points="556.5,-.5 556.5,-19.5 623.5,-19.5 623.5,-.5 556.5,-.5"/>
<text text-anchor="middle" x="590" y="-7.5" font-family="Helvetica,sans-Serif" font-size="10.00" fill="#000000">scm_main</text>
</a>
</g>
</g>
<!-- Node5&#45;&gt;Node12 -->
<g id="edge11" class="edge">
<title>Node5&#45;&gt;Node12</title>
<path fill="none" stroke="#191970" d="M507.2397,-35.4647C524.0405,-30.2952 543.197,-24.4009 558.8457,-19.5859"/>
<polygon fill="#191970" stroke="#191970" points="506.1927,-32.1248 497.6643,-38.411 508.2514,-38.8153 506.1927,-32.1248"/>
</g>
<!-- Node7 -->
<g id="node6" class="node">
<title>Node7</title>
<g id="a_node6"><a xlink:href="u__model_8f90.xhtml#ada0cd2ce4699433bf0f9adbd882c8eec" target="_top" xlink:title="Subroutine: U_MODEL &#45;!&gt; ">
<polygon fill="#ffffff" stroke="#000000" points="674.5,-76.5 674.5,-95.5 733.5,-95.5 733.5,-76.5 674.5,-76.5"/>
<text text-anchor="middle" x="704" y="-83.5" font-family="Helvetica,sans-Serif" font-size="10.00" fill="#000000">u_model</text>
</a>
</g>
</g>
<!-- Node6&#45;&gt;Node7 -->
<g id="edge5" class="edge">
<title>Node6&#45;&gt;Node7</title>
<path fill="none" stroke="#191970" d="M631.2532,-86C645.5539,-86 661.2895,-86 674.4568,-86"/>
<polygon fill="#191970" stroke="#191970" points="631.151,-82.5001 621.151,-86 631.151,-89.5001 631.151,-82.5001"/>
</g>
<!-- Node8 -->
<g id="node7" class="node">
<title>Node8</title>
<g id="a_node7"><a xlink:href="um__shell_8f90.xhtml#a8c9bd25362824a5c301376ecb5ed5c27" target="_top" xlink:title="Subroutine: UM_SHELL !&gt; ">
<polygon fill="#ffffff" stroke="#000000" points="778,-57.5 778,-76.5 839,-76.5 839,-57.5 778,-57.5"/>
<text text-anchor="middle" x="808.5" y="-64.5" font-family="Helvetica,sans-Serif" font-size="10.00" fill="#000000">um_shell</text>
</a>
</g>
</g>
<!-- Node7&#45;&gt;Node8 -->
<g id="edge6" class="edge">
<title>Node7&#45;&gt;Node8</title>
<path fill="none" stroke="#191970" d="M743.701,-78.7816C754.951,-76.7362 767.0261,-74.5407 777.6677,-72.6059"/>
<polygon fill="#191970" stroke="#191970" points="742.8786,-75.3737 733.666,-80.6062 744.1308,-82.2608 742.8786,-75.3737"/>
</g>
<!-- Node9 -->
<g id="node8" class="node">
<title>Node9</title>
<g id="a_node8"><a xlink:href="um__main_8f90.xhtml#a8f2d13215621443a5313261c282f098b" target="_top" xlink:title="Code Owner: See Unified Model Code Owner&#39;s HTML page. ">
<polygon fill="#ffffff" stroke="#000000" points="875,-57.5 875,-76.5 937,-76.5 937,-57.5 875,-57.5"/>
<text text-anchor="middle" x="906" y="-64.5" font-family="Helvetica,sans-Serif" font-size="10.00" fill="#000000">um_main</text>
</a>
</g>
</g>
<!-- Node8&#45;&gt;Node9 -->
<g id="edge7" class="edge">
<title>Node8&#45;&gt;Node9</title>
<path fill="none" stroke="#191970" d="M849.2756,-67C857.8294,-67 866.72,-67 874.8551,-67"/>
<polygon fill="#191970" stroke="#191970" points="849.0821,-63.5001 839.0821,-67 849.0821,-70.5001 849.0821,-63.5001"/>
</g>
<!-- Node11 -->
<g id="node10" class="node">
<title>Node11</title>
<g id="a_node10"><a xlink:href="u__model__4_a_8f90.xhtml#afa05064dab5eba198b461d0928767c7e" target="_top" xlink:title="LL Subroutine: U_MODEL_4A (ENDGAME VERSION) !&gt;LL. ">
<polygon fill="#ffffff" stroke="#000000" points="666,-38.5 666,-57.5 742,-57.5 742,-38.5 666,-38.5"/>
<text text-anchor="middle" x="704" y="-45.5" font-family="Helvetica,sans-Serif" font-size="10.00" fill="#000000">u_model_4a</text>
</a>
</g>
</g>
<!-- Node10&#45;&gt;Node11 -->
<g id="edge9" class="edge">
<title>Node10&#45;&gt;Node11</title>
<path fill="none" stroke="#191970" d="M640.3998,-48C648.891,-48 657.5803,-48 665.7002,-48"/>
<polygon fill="#191970" stroke="#191970" points="640.1922,-44.5001 630.1921,-48 640.1921,-51.5001 640.1922,-44.5001"/>
</g>
<!-- Node11&#45;&gt;Node8 -->
<g id="edge10" class="edge">
<title>Node11&#45;&gt;Node8</title>
<path fill="none" stroke="#191970" d="M751.8728,-56.7041C760.7087,-58.3107 769.7128,-59.9478 777.8647,-61.43"/>
<polygon fill="#191970" stroke="#191970" points="752.4873,-53.2586 742.0225,-54.9132 751.2351,-60.1457 752.4873,-53.2586"/>
</g>
<!-- Node13 -->
<g id="node12" class="node">
<title>Node13</title>
<g id="a_node12"><a xlink:href="scm__shell_8f90.xhtml#ab15255829ee7b5be626b1c0861b40c8d" target="_top" xlink:title="scm_shell is the main calling program for the Single Column Model. ">
<polygon fill="#ffffff" stroke="#000000" points="671.5,-.5 671.5,-19.5 736.5,-19.5 736.5,-.5 671.5,-.5"/>
<text text-anchor="middle" x="704" y="-7.5" font-family="Helvetica,sans-Serif" font-size="10.00" fill="#000000">scm_shell</text>
</a>
</g>
</g>
<!-- Node12&#45;&gt;Node13 -->
<g id="edge12" class="edge">
<title>Node12&#45;&gt;Node13</title>
<path fill="none" stroke="#191970" d="M633.8248,-10C646.3307,-10 659.7319,-10 671.4371,-10"/>
<polygon fill="#191970" stroke="#191970" points="633.5872,-6.5001 623.5872,-10 633.5871,-13.5001 633.5872,-6.5001"/>
</g>
</g>
</svg>
