<?xml version="1.0" encoding="UTF-8" standalone="no"?>
<!DOCTYPE svg PUBLIC "-//W3C//DTD SVG 1.1//EN"
 "http://www.w3.org/Graphics/SVG/1.1/DTD/svg11.dtd">
<!-- Generated by graphviz version 2.40.1 (20161225.0304)
 -->
<!-- Title: column_mod::level_mass Pages: 1 -->
<!--zoomable 88 -->
<svg id="main" version="1.1" xmlns="http://www.w3.org/2000/svg" xmlns:xlink="http://www.w3.org/1999/xlink" xml:space="preserve" onload="init(evt)">
<style type="text/css"><![CDATA[
.edge:hover path { stroke: red; }
.edge:hover polygon { stroke: red; fill: red; }
]]></style>
<script type="text/javascript"><![CDATA[
var edges = document.getElementsByTagName('g');
if (edges && edges.length) {
  for (var i=0;i<edges.length;i++) {
    if (edges[i].id.substr(0,4)=='edge') {
      edges[i].setAttribute('class','edge');
    }
  }
}
]]></script>
        <defs>
                <circle id="rim" cx="0" cy="0" r="7"/>
                <circle id="rim2" cx="0" cy="0" r="3.5"/>
                <g id="zoomPlus">
                        <use xlink:href="#rim" fill="#404040">
                                <set attributeName="fill" to="#808080" begin="zoomplus.mouseover" end="zoomplus.mouseout"/>
                        </use>
                        <path d="M-4,0h8M0,-4v8" fill="none" stroke="white" stroke-width="1.5" pointer-events="none"/>
                </g>
                <g id="zoomMin">
                        <use xlink:href="#rim" fill="#404040">
                                <set attributeName="fill" to="#808080" begin="zoomminus.mouseover" end="zoomminus.mouseout"/>
                        </use>
                        <path d="M-4,0h8" fill="none" stroke="white" stroke-width="1.5" pointer-events="none"/>
                </g>
                <g id="dirArrow">
                        <path fill="none" stroke="white" stroke-width="1.5" d="M0,-3.0v7 M-2.5,-0.5L0,-3.0L2.5,-0.5"/>
                </g>
               <g id="resetDef">
                       <use xlink:href="#rim2" fill="#404040">
                               <set attributeName="fill" to="#808080" begin="reset.mouseover" end="reset.mouseout"/>
                       </use>
               </g>
        </defs>

<script type="text/javascript">
var viewWidth = 1258;
var viewHeight = 88;
var sectionId = 'dynsection-8';
</script>
<script xlink:href="svgpan.js"/>
<svg id="graph" class="graph">
<g id="viewport">
<title>column_mod::level_mass</title>
<polygon fill="#ffffff" stroke="transparent" points="-4,4 -4,-84 1254,-84 1254,4 -4,4"/>
<!-- Node105 -->
<g id="node1" class="node">
<title>Node105</title>
<polygon fill="#bfbfbf" stroke="#000000" points="0,-30 0,-49 141,-49 141,-30 0,-30"/>
<text text-anchor="middle" x="70.5" y="-37" font-family="Helvetica,sans-Serif" font-size="10.00" fill="#000000">column_mod::level_mass</text>
</g>
<!-- Node106 -->
<g id="node2" class="node">
<title>Node106</title>
<g id="a_node2"><a xlink:href="namespacecolumn__mod.xhtml#a62f818413fe7f1c57af1e77eef537f1f" target="_top" xlink:title="column_mod::evolve\l_column">
<polygon fill="#ffffff" stroke="#000000" points="392,-24.5 392,-54.5 511,-54.5 511,-24.5 392,-24.5"/>
<text text-anchor="start" x="400" y="-42.5" font-family="Helvetica,sans-Serif" font-size="10.00" fill="#000000">column_mod::evolve</text>
<text text-anchor="middle" x="451.5" y="-31.5" font-family="Helvetica,sans-Serif" font-size="10.00" fill="#000000">_column</text>
</a>
</g>
</g>
<!-- Node105&#45;&gt;Node106 -->
<g id="edge1" class="edge">
<title>Node105&#45;&gt;Node106</title>
<path fill="none" stroke="#191970" d="M151.6534,-39.5C223.6337,-39.5 327.1053,-39.5 391.7544,-39.5"/>
<polygon fill="#191970" stroke="#191970" points="151.2703,-36.0001 141.2703,-39.5 151.2702,-43.0001 151.2703,-36.0001"/>
</g>
<!-- Node114 -->
<g id="node10" class="node">
<title>Node114</title>
<g id="a_node10"><a xlink:href="namespacecolumn__mod.xhtml#aca882d79ce8cc79a2f920ba82d219fe3" target="_top" xlink:title="column_mod::apply_precipitation">
<polygon fill="#ffffff" stroke="#000000" points="177,-11 177,-30 356,-30 356,-11 177,-11"/>
<text text-anchor="middle" x="266.5" y="-18" font-family="Helvetica,sans-Serif" font-size="10.00" fill="#000000">column_mod::apply_precipitation</text>
</a>
</g>
</g>
<!-- Node105&#45;&gt;Node114 -->
<g id="edge10" class="edge">
<title>Node105&#45;&gt;Node114</title>
<path fill="none" stroke="#191970" d="M151.3643,-31.6611C159.7316,-30.85 168.2709,-30.0222 176.7278,-29.2024"/>
<polygon fill="#191970" stroke="#191970" points="150.8761,-28.1919 141.2605,-32.6406 151.5516,-35.1593 150.8761,-28.1919"/>
</g>
<!-- Node107 -->
<g id="node3" class="node">
<title>Node107</title>
<g id="a_node3"><a xlink:href="namespaceeg__moist__gcm__ctl__mod.xhtml#aaa5af5fd7888d583f447738840aca1a6" target="_top" xlink:title="eg_moist_gcm_ctl_mod\l::eg_moist_gcm_ctl">
<polygon fill="#ffffff" stroke="#000000" points="547,-24.5 547,-54.5 679,-54.5 679,-24.5 547,-24.5"/>
<text text-anchor="start" x="555" y="-42.5" font-family="Helvetica,sans-Serif" font-size="10.00" fill="#000000">eg_moist_gcm_ctl_mod</text>
<text text-anchor="middle" x="613" y="-31.5" font-family="Helvetica,sans-Serif" font-size="10.00" fill="#000000">::eg_moist_gcm_ctl</text>
</a>
</g>
</g>
<!-- Node106&#45;&gt;Node107 -->
<g id="edge2" class="edge">
<title>Node106&#45;&gt;Node107</title>
<path fill="none" stroke="#191970" d="M521.3603,-39.5C529.7945,-39.5 538.3902,-39.5 546.7702,-39.5"/>
<polygon fill="#191970" stroke="#191970" points="521.1778,-36.0001 511.1778,-39.5 521.1778,-43.0001 521.1778,-36.0001"/>
</g>
<!-- Node108 -->
<g id="node4" class="node">
<title>Node108</title>
<g id="a_node4"><a xlink:href="namespaceeg__idl__forcing__mod.xhtml#af6b661542faffe897edc18d4ac526e89" target="_top" xlink:title="This file belongs in section: Dynamics. ">
<polygon fill="#ffffff" stroke="#000000" points="715,-49.5 715,-79.5 827,-79.5 827,-49.5 715,-49.5"/>
<text text-anchor="start" x="723" y="-67.5" font-family="Helvetica,sans-Serif" font-size="10.00" fill="#000000">eg_idl_forcing_mod</text>
<text text-anchor="middle" x="771" y="-56.5" font-family="Helvetica,sans-Serif" font-size="10.00" fill="#000000">::eg_idl_forcing</text>
</a>
</g>
</g>
<!-- Node107&#45;&gt;Node108 -->
<g id="edge3" class="edge">
<title>Node107&#45;&gt;Node108</title>
<path fill="none" stroke="#191970" d="M689.1495,-51.549C697.7567,-52.9109 706.409,-54.2799 714.6971,-55.5913"/>
<polygon fill="#191970" stroke="#191970" points="689.5149,-48.0633 679.0907,-49.9574 688.4208,-54.9773 689.5149,-48.0633"/>
</g>
<!-- Node113 -->
<g id="node9" class="node">
<title>Node113</title>
<g id="a_node9"><a xlink:href="namespaceeg__idl__forcing__mod.xhtml#a2a8abd90e51b9822688a00906f4c0486" target="_top" xlink:title="eg_idl_forcing_mod\l::eg_idl_forcing2">
<polygon fill="#ffffff" stroke="#000000" points="715,-.5 715,-30.5 827,-30.5 827,-.5 715,-.5"/>
<text text-anchor="start" x="723" y="-18.5" font-family="Helvetica,sans-Serif" font-size="10.00" fill="#000000">eg_idl_forcing_mod</text>
<text text-anchor="middle" x="771" y="-7.5" font-family="Helvetica,sans-Serif" font-size="10.00" fill="#000000">::eg_idl_forcing2</text>
</a>
</g>
</g>
<!-- Node107&#45;&gt;Node113 -->
<g id="edge8" class="edge">
<title>Node107&#45;&gt;Node113</title>
<path fill="none" stroke="#191970" d="M689.1495,-27.933C697.7567,-26.6256 706.409,-25.3113 714.6971,-24.0523"/>
<polygon fill="#191970" stroke="#191970" points="688.4517,-24.4987 679.0907,-29.4609 689.503,-31.4194 688.4517,-24.4987"/>
</g>
<!-- Node109 -->
<g id="node5" class="node">
<title>Node109</title>
<g id="a_node5"><a xlink:href="atm__step__4_a_8f90.xhtml#a2319aa4963e90c64cd78bdcd5f481095" target="_top" xlink:title="Perform a 1&#45;timestep integration of the Atmosphere Model. ">
<polygon fill="#ffffff" stroke="#000000" points="863,-30 863,-49 943,-49 943,-30 863,-30"/>
<text text-anchor="middle" x="903" y="-37" font-family="Helvetica,sans-Serif" font-size="10.00" fill="#000000">atm_step_4a</text>
</a>
</g>
</g>
<!-- Node108&#45;&gt;Node109 -->
<g id="edge4" class="edge">
<title>Node108&#45;&gt;Node109</title>
<path fill="none" stroke="#191970" d="M837.198,-51.9625C845.9363,-50.3075 854.6701,-48.6534 862.7865,-47.1162"/>
<polygon fill="#191970" stroke="#191970" points="836.5368,-48.5254 827.3628,-53.8252 837.8394,-55.4032 836.5368,-48.5254"/>
</g>
<!-- Node110 -->
<g id="node6" class="node">
<title>Node110</title>
<g id="a_node6"><a xlink:href="u__model__4_a_8f90.xhtml#afa05064dab5eba198b461d0928767c7e" target="_top" xlink:title="LL Subroutine: U_MODEL_4A (ENDGAME VERSION) !&gt;LL. ">
<polygon fill="#ffffff" stroke="#000000" points="979,-30 979,-49 1055,-49 1055,-30 979,-30"/>
<text text-anchor="middle" x="1017" y="-37" font-family="Helvetica,sans-Serif" font-size="10.00" fill="#000000">u_model_4a</text>
</a>
</g>
</g>
<!-- Node109&#45;&gt;Node110 -->
<g id="edge5" class="edge">
<title>Node109&#45;&gt;Node110</title>
<path fill="none" stroke="#191970" d="M953.3998,-39.5C961.891,-39.5 970.5803,-39.5 978.7002,-39.5"/>
<polygon fill="#191970" stroke="#191970" points="953.1922,-36.0001 943.1921,-39.5 953.1921,-43.0001 953.1922,-36.0001"/>
</g>
<!-- Node111 -->
<g id="node7" class="node">
<title>Node111</title>
<g id="a_node7"><a xlink:href="um__shell_8f90.xhtml#a8c9bd25362824a5c301376ecb5ed5c27" target="_top" xlink:title="Subroutine: UM_SHELL !&gt; ">
<polygon fill="#ffffff" stroke="#000000" points="1091,-30 1091,-49 1152,-49 1152,-30 1091,-30"/>
<text text-anchor="middle" x="1121.5" y="-37" font-family="Helvetica,sans-Serif" font-size="10.00" fill="#000000">um_shell</text>
</a>
</g>
</g>
<!-- Node110&#45;&gt;Node111 -->
<g id="edge6" class="edge">
<title>Node110&#45;&gt;Node111</title>
<path fill="none" stroke="#191970" d="M1065.1579,-39.5C1073.9023,-39.5 1082.8005,-39.5 1090.8647,-39.5"/>
<polygon fill="#191970" stroke="#191970" points="1065.0225,-36.0001 1055.0225,-39.5 1065.0225,-43.0001 1065.0225,-36.0001"/>
</g>
<!-- Node112 -->
<g id="node8" class="node">
<title>Node112</title>
<g id="a_node8"><a xlink:href="um__main_8f90.xhtml#a8f2d13215621443a5313261c282f098b" target="_top" xlink:title="Code Owner: See Unified Model Code Owner&#39;s HTML page. ">
<polygon fill="#ffffff" stroke="#000000" points="1188,-30 1188,-49 1250,-49 1250,-30 1188,-30"/>
<text text-anchor="middle" x="1219" y="-37" font-family="Helvetica,sans-Serif" font-size="10.00" fill="#000000">um_main</text>
</a>
</g>
</g>
<!-- Node111&#45;&gt;Node112 -->
<g id="edge7" class="edge">
<title>Node111&#45;&gt;Node112</title>
<path fill="none" stroke="#191970" d="M1162.2756,-39.5C1170.8294,-39.5 1179.72,-39.5 1187.8551,-39.5"/>
<polygon fill="#191970" stroke="#191970" points="1162.0821,-36.0001 1152.0821,-39.5 1162.0821,-43.0001 1162.0821,-36.0001"/>
</g>
<!-- Node113&#45;&gt;Node109 -->
<g id="edge9" class="edge">
<title>Node113&#45;&gt;Node109</title>
<path fill="none" stroke="#191970" d="M837.4799,-27.5872C846.1241,-29.1589 854.7574,-30.7286 862.7865,-32.1885"/>
<polygon fill="#191970" stroke="#191970" points="837.8276,-24.0932 827.3628,-25.7478 836.5753,-30.9803 837.8276,-24.0932"/>
</g>
<!-- Node114&#45;&gt;Node106 -->
<g id="edge11" class="edge">
<title>Node114&#45;&gt;Node106</title>
<path fill="none" stroke="#191970" d="M366.0045,-30.7194C374.8314,-31.6259 383.5728,-32.5237 391.9047,-33.3794"/>
<polygon fill="#191970" stroke="#191970" points="366.3248,-27.234 356.0195,-29.6939 365.6096,-34.1973 366.3248,-27.234"/>
</g>
</g>
</svg>
        <g id="navigator" transform="translate(0 0)" fill="#404254">
                <rect fill="#f2f5e9" fill-opacity="0.5" stroke="#606060" stroke-width=".5" x="0" y="0" width="60" height="60"/>
                <use id="zoomplus" xlink:href="#zoomPlus" x="17" y="9" onmousedown="handleZoom(evt,'in')"/>
                <use id="zoomminus" xlink:href="#zoomMin" x="42" y="9" onmousedown="handleZoom(evt,'out')"/>
                <use id="reset" xlink:href="#resetDef" x="30" y="36" onmousedown="handleReset()"/>
                <g id="arrowUp" xlink:href="#dirArrow" transform="translate(30 24)" onmousedown="handlePan(0,-1)">
                  <use xlink:href="#rim" fill="#404040">
                        <set attributeName="fill" to="#808080" begin="arrowUp.mouseover" end="arrowUp.mouseout"/>
                  </use>
                  <path fill="none" stroke="white" stroke-width="1.5" d="M0,-3.0v7 M-2.5,-0.5L0,-3.0L2.5,-0.5"/>
                </g>
                <g id="arrowRight" xlink:href="#dirArrow" transform="rotate(90) translate(36 -43)" onmousedown="handlePan(1,0)">
                  <use xlink:href="#rim" fill="#404040">
                        <set attributeName="fill" to="#808080" begin="arrowRight.mouseover" end="arrowRight.mouseout"/>
                  </use>
                  <path fill="none" stroke="white" stroke-width="1.5" d="M0,-3.0v7 M-2.5,-0.5L0,-3.0L2.5,-0.5"/>
                </g>
                <g id="arrowDown" xlink:href="#dirArrow" transform="rotate(180) translate(-30 -48)" onmousedown="handlePan(0,1)">
                  <use xlink:href="#rim" fill="#404040">
                        <set attributeName="fill" to="#808080" begin="arrowDown.mouseover" end="arrowDown.mouseout"/>
                  </use>
                  <path fill="none" stroke="white" stroke-width="1.5" d="M0,-3.0v7 M-2.5,-0.5L0,-3.0L2.5,-0.5"/>
                </g>
                <g id="arrowLeft" xlink:href="#dirArrow" transform="rotate(270) translate(-36 17)" onmousedown="handlePan(-1,0)">
                  <use xlink:href="#rim" fill="#404040">
                        <set attributeName="fill" to="#808080" begin="arrowLeft.mouseover" end="arrowLeft.mouseout"/>
                  </use>
                  <path fill="none" stroke="white" stroke-width="1.5" d="M0,-3.0v7 M-2.5,-0.5L0,-3.0L2.5,-0.5"/>
                </g>
        </g>
        <svg viewBox="0 0 15 15" width="100%" height="30px" preserveAspectRatio="xMaxYMin meet">
         <g id="arrow_out" transform="scale(0.3 0.3)">
          <a xlink:href="namespacecolumn__mod_ae8a0227e5d6a99556f3a91b66af27771_icgraph_org.svg" target="_base">
           <rect id="button" ry="5" rx="5" y="6" x="6" height="38" width="38"
                fill="#f2f5e9" fill-opacity="0.5" stroke="#606060" stroke-width="1.0"/>
           <path id="arrow"
             d="M 11.500037,31.436501 C 11.940474,20.09759 22.043105,11.32322 32.158766,21.979434 L 37.068811,17.246167 C 37.068811,17.246167 37.088388,32 37.088388,32 L 22.160133,31.978069 C 22.160133,31.978069 26.997745,27.140456 26.997745,27.140456 C 18.528582,18.264221 13.291696,25.230495 11.500037,31.436501 z"
             style="fill:#404040;"/>
          </a>
         </g>
        </svg>
</svg>
