<?xml version="1.0" encoding="UTF-8" standalone="no"?>
<!DOCTYPE svg PUBLIC "-//W3C//DTD SVG 1.1//EN"
 "http://www.w3.org/Graphics/SVG/1.1/DTD/svg11.dtd">
<!-- Generated by graphviz version 2.40.1 (20161225.0304)
 -->
<!-- Title: s_radcloud::read_radcloud Pages: 1 -->
<svg width="711pt" height="165pt"
 viewBox="0.00 0.00 711.00 164.50" xmlns="http://www.w3.org/2000/svg" xmlns:xlink="http://www.w3.org/1999/xlink">
<g id="graph0" class="graph" transform="scale(1 1) rotate(0) translate(4 160.5)">
<title>s_radcloud::read_radcloud</title>
<polygon fill="#ffffff" stroke="transparent" points="-4,4 -4,-160.5 707,-160.5 707,4 -4,4"/>
<!-- Node20 -->
<g id="node1" class="node">
<title>Node20</title>
<polygon fill="#bfbfbf" stroke="#000000" points="0,-77 0,-96 144,-96 144,-77 0,-77"/>
<text text-anchor="middle" x="72" y="-84" font-family="Helvetica,sans-Serif" font-size="10.00" fill="#000000">s_radcloud::read_radcloud</text>
</g>
<!-- Node21 -->
<g id="node2" class="node">
<title>Node21</title>
<g id="a_node2"><a xlink:href="namespaceumprintmgr.xhtml#aae44897e556705dbf5e945a26538be9a" target="_top" xlink:title="umprintmgr::umprint">
<polygon fill="#ffffff" stroke="#000000" points="193.5,-137 193.5,-156 312.5,-156 312.5,-137 193.5,-137"/>
<text text-anchor="middle" x="253" y="-144" font-family="Helvetica,sans-Serif" font-size="10.00" fill="#000000">umprintmgr::umprint</text>
</a>
</g>
</g>
<!-- Node20&#45;&gt;Node21 -->
<g id="edge1" class="edge">
<title>Node20&#45;&gt;Node21</title>
<path fill="none" stroke="#191970" d="M94.919,-96.0291C116.6083,-104.8484 150.1924,-117.9937 180,-127.5 187.4568,-129.8781 195.4106,-132.1814 203.2229,-134.3152"/>
<polygon fill="#191970" stroke="#191970" points="202.4307,-137.7262 212.9949,-136.9202 204.2339,-130.9624 202.4307,-137.7262"/>
</g>
<!-- Node25 -->
<g id="node6" class="node">
<title>Node25</title>
<g id="a_node6"><a xlink:href="namespaces__radcloud.xhtml#a49ca87a78c1df4438b0d1bc6890a3f75" target="_top" xlink:title="s_radcloud::alloc_radcloud">
<polygon fill="#ffffff" stroke="#000000" points="180,-99 180,-118 326,-118 326,-99 180,-99"/>
<text text-anchor="middle" x="253" y="-106" font-family="Helvetica,sans-Serif" font-size="10.00" fill="#000000">s_radcloud::alloc_radcloud</text>
</a>
</g>
</g>
<!-- Node20&#45;&gt;Node25 -->
<g id="edge6" class="edge">
<title>Node20&#45;&gt;Node25</title>
<path fill="none" stroke="#191970" d="M144.0561,-95.2582C152.4881,-96.2831 161.1432,-97.3351 169.7115,-98.3765"/>
<polygon fill="#191970" stroke="#191970" points="169.3623,-101.8598 179.7116,-99.592 170.207,-94.9109 169.3623,-101.8598"/>
</g>
<!-- Node26 -->
<g id="node7" class="node">
<title>Node26</title>
<g id="a_node7"><a xlink:href="namespaces__radcloud.xhtml#ac493ad049b0cf1bda7d196e7867b10eb" target="_top" xlink:title="s_radcloud::interp\l_radcloud">
<polygon fill="#ffffff" stroke="#000000" points="201,-49.5 201,-79.5 305,-79.5 305,-49.5 201,-49.5"/>
<text text-anchor="start" x="209" y="-67.5" font-family="Helvetica,sans-Serif" font-size="10.00" fill="#000000">s_radcloud::interp</text>
<text text-anchor="middle" x="253" y="-56.5" font-family="Helvetica,sans-Serif" font-size="10.00" fill="#000000">_radcloud</text>
</a>
</g>
</g>
<!-- Node20&#45;&gt;Node26 -->
<g id="edge7" class="edge">
<title>Node20&#45;&gt;Node26</title>
<path fill="none" stroke="#191970" d="M144.0561,-77.7418C159.5153,-75.8628 175.7244,-73.8926 190.7738,-72.0634"/>
<polygon fill="#191970" stroke="#191970" points="191.4794,-75.5035 200.984,-70.8224 190.6347,-68.5546 191.4794,-75.5035"/>
</g>
<!-- Node29 -->
<g id="node10" class="node">
<title>Node29</title>
<g id="a_node10"><a xlink:href="namespaces__radcloud.xhtml#a557a3d60becc94ddee26dc7cb66b9c1e" target="_top" xlink:title="s_radcloud::dealloc\l_radcloud">
<polygon fill="#ffffff" stroke="#000000" points="198,-.5 198,-30.5 308,-30.5 308,-.5 198,-.5"/>
<text text-anchor="start" x="206" y="-18.5" font-family="Helvetica,sans-Serif" font-size="10.00" fill="#000000">s_radcloud::dealloc</text>
<text text-anchor="middle" x="253" y="-7.5" font-family="Helvetica,sans-Serif" font-size="10.00" fill="#000000">_radcloud</text>
</a>
</g>
</g>
<!-- Node20&#45;&gt;Node29 -->
<g id="edge10" class="edge">
<title>Node20&#45;&gt;Node29</title>
<path fill="none" stroke="#191970" d="M92.4695,-76.914C114.0182,-66.9833 149.0444,-51.2952 180,-39.5 184.862,-37.6474 189.9368,-35.8023 195.0468,-34.0053"/>
<polygon fill="#191970" stroke="#191970" points="196.5564,-37.1872 204.8702,-30.6198 194.2755,-30.5692 196.5564,-37.1872"/>
</g>
<!-- Node22 -->
<g id="node3" class="node">
<title>Node22</title>
<g id="a_node3"><a xlink:href="namespaceumprintmgr.xhtml#a088ce22a18d574e9df7ee1850bfb10c7" target="_top" xlink:title="umprintmgr::umprintopenstream">
<polygon fill="#ffffff" stroke="#000000" points="362,-137 362,-156 539,-156 539,-137 362,-137"/>
<text text-anchor="middle" x="450.5" y="-144" font-family="Helvetica,sans-Serif" font-size="10.00" fill="#000000">umprintmgr::umprintopenstream</text>
</a>
</g>
</g>
<!-- Node21&#45;&gt;Node22 -->
<g id="edge2" class="edge">
<title>Node21&#45;&gt;Node22</title>
<path fill="none" stroke="#191970" d="M312.5243,-140.2475C324.924,-139.9163 338.3089,-139.7505 351.6951,-139.75"/>
<polygon fill="#191970" stroke="#191970" points="351.9047,-143.2506 361.9156,-139.7819 351.9266,-136.2506 351.9047,-143.2506"/>
</g>
<!-- Node23 -->
<g id="node4" class="node">
<title>Node23</title>
<g id="a_node4"><a xlink:href="namespaceumprintmgr.xhtml#ad3a290b30a6e25500eabc0bf90330b77" target="_top" xlink:title="umprintmgr::umprintflush">
<polygon fill="#ffffff" stroke="#000000" points="379.5,-99 379.5,-118 521.5,-118 521.5,-99 379.5,-99"/>
<text text-anchor="middle" x="450.5" y="-106" font-family="Helvetica,sans-Serif" font-size="10.00" fill="#000000">umprintmgr::umprintflush</text>
</a>
</g>
</g>
<!-- Node21&#45;&gt;Node23 -->
<g id="edge4" class="edge">
<title>Node21&#45;&gt;Node23</title>
<path fill="none" stroke="#191970" d="M302.5827,-136.96C329.3473,-131.8104 362.5814,-125.416 390.7638,-119.9935"/>
<polygon fill="#191970" stroke="#191970" points="391.7384,-123.3703 400.8969,-118.0439 390.4157,-116.4964 391.7384,-123.3703"/>
</g>
<!-- Node22&#45;&gt;Node21 -->
<g id="edge3" class="edge">
<title>Node22&#45;&gt;Node21</title>
<path fill="none" stroke="#191970" d="M361.9156,-153.2181C348.7233,-153.3011 335.2863,-153.222 322.56,-152.9808"/>
<polygon fill="#191970" stroke="#191970" points="322.6014,-149.4809 312.5243,-152.7525 322.4421,-156.4791 322.6014,-149.4809"/>
</g>
<!-- Node24 -->
<g id="node5" class="node">
<title>Node24</title>
<g id="a_node5"><a xlink:href="namespaceumflush__mod.xhtml#a3a003ab59990bdcb712b443dd5e0d1cd" target="_top" xlink:title="umflush_mod::umflush">
<polygon fill="#ffffff" stroke="#000000" points="575,-99 575,-118 703,-118 703,-99 575,-99"/>
<text text-anchor="middle" x="639" y="-106" font-family="Helvetica,sans-Serif" font-size="10.00" fill="#000000">umflush_mod::umflush</text>
</a>
</g>
</g>
<!-- Node23&#45;&gt;Node24 -->
<g id="edge5" class="edge">
<title>Node23&#45;&gt;Node24</title>
<path fill="none" stroke="#191970" d="M521.7638,-108.5C535.7742,-108.5 550.5063,-108.5 564.6162,-108.5"/>
<polygon fill="#191970" stroke="#191970" points="564.7612,-112.0001 574.7611,-108.5 564.7611,-105.0001 564.7612,-112.0001"/>
</g>
<!-- Node27 -->
<g id="node8" class="node">
<title>Node27</title>
<g id="a_node8"><a xlink:href="namespaces__interp__mod.xhtml#a361a07385a0b22d3a8178bb05f8fc1c1" target="_top" xlink:title="s_interp_mod::interp1d">
<polygon fill="#ffffff" stroke="#000000" points="386,-55 386,-74 515,-74 515,-55 386,-55"/>
<text text-anchor="middle" x="450.5" y="-62" font-family="Helvetica,sans-Serif" font-size="10.00" fill="#000000">s_interp_mod::interp1d</text>
</a>
</g>
</g>
<!-- Node26&#45;&gt;Node27 -->
<g id="edge8" class="edge">
<title>Node26&#45;&gt;Node27</title>
<path fill="none" stroke="#191970" d="M305.1491,-64.5C326.6524,-64.5 351.9809,-64.5 375.419,-64.5"/>
<polygon fill="#191970" stroke="#191970" points="375.6816,-68.0001 385.6816,-64.5 375.6815,-61.0001 375.6816,-68.0001"/>
</g>
<!-- Node28 -->
<g id="node9" class="node">
<title>Node28</title>
<g id="a_node9"><a xlink:href="namespacesort__mod.xhtml#a616127775e6e1f61558460fb2f6dd64e" target="_top" xlink:title="SCM Sort : Sorts data points (x,y) to be monotonically increasing in x. ">
<polygon fill="#ffffff" stroke="#000000" points="595.5,-55 595.5,-74 682.5,-74 682.5,-55 595.5,-55"/>
<text text-anchor="middle" x="639" y="-62" font-family="Helvetica,sans-Serif" font-size="10.00" fill="#000000">sort_mod::sort</text>
</a>
</g>
</g>
<!-- Node27&#45;&gt;Node28 -->
<g id="edge9" class="edge">
<title>Node27&#45;&gt;Node28</title>
<path fill="none" stroke="#191970" d="M515.1073,-64.5C537.9246,-64.5 563.3224,-64.5 585.1531,-64.5"/>
<polygon fill="#191970" stroke="#191970" points="585.2323,-68.0001 595.2323,-64.5 585.2323,-61.0001 585.2323,-68.0001"/>
</g>
</g>
</svg>
