<?xml version="1.0" encoding="UTF-8" standalone="no"?>
<!DOCTYPE svg PUBLIC "-//W3C//DTD SVG 1.1//EN"
 "http://www.w3.org/Graphics/SVG/1.1/DTD/svg11.dtd">
<!-- Generated by graphviz version 2.40.1 (20161225.0304)
 -->
<!-- Title: nudging_update_stash Pages: 1 -->
<svg width="902pt" height="66pt"
 viewBox="0.00 0.00 902.00 66.00" xmlns="http://www.w3.org/2000/svg" xmlns:xlink="http://www.w3.org/1999/xlink">
<g id="graph0" class="graph" transform="scale(1 1) rotate(0) translate(4 62)">
<title>nudging_update_stash</title>
<polygon fill="#ffffff" stroke="transparent" points="-4,4 -4,-62 898,-62 898,4 -4,4"/>
<!-- Node54 -->
<g id="node1" class="node">
<title>Node54</title>
<polygon fill="#bfbfbf" stroke="#000000" points="0,-38.5 0,-57.5 126,-57.5 126,-38.5 0,-38.5"/>
<text text-anchor="middle" x="63" y="-45.5" font-family="Helvetica,sans-Serif" font-size="10.00" fill="#000000">nudging_update_stash</text>
</g>
<!-- Node55 -->
<g id="node2" class="node">
<title>Node55</title>
<g id="a_node2"><a xlink:href="copydiag__3d_8f90.xhtml#aba2363a925768155f54d8f70068e1611" target="_top" xlink:title="Subroutine COPYDIAG_3D !&gt; Purpose : To copy a diagnostic field from secondary space to the...">
<polygon fill="#ffffff" stroke="#000000" points="162,-38.5 162,-57.5 240,-57.5 240,-38.5 162,-38.5"/>
<text text-anchor="middle" x="201" y="-45.5" font-family="Helvetica,sans-Serif" font-size="10.00" fill="#000000">copydiag_3d</text>
</a>
</g>
</g>
<!-- Node54&#45;&gt;Node55 -->
<g id="edge1" class="edge">
<title>Node54&#45;&gt;Node55</title>
<path fill="none" stroke="#191970" d="M126.3455,-48C134.8149,-48 143.3987,-48 151.5819,-48"/>
<polygon fill="#191970" stroke="#191970" points="151.6942,-51.5001 161.6942,-48 151.6942,-44.5001 151.6942,-51.5001"/>
</g>
<!-- Node56 -->
<g id="node3" class="node">
<title>Node56</title>
<g id="a_node3"><a xlink:href="set__levels__list_8f90.xhtml#a7047599e3e5b5dada45a1616ed44a537" target="_top" xlink:title="Subroutine SET_LEVELS_LIST. ">
<polygon fill="#ffffff" stroke="#000000" points="276,-38.5 276,-57.5 362,-57.5 362,-38.5 276,-38.5"/>
<text text-anchor="middle" x="319" y="-45.5" font-family="Helvetica,sans-Serif" font-size="10.00" fill="#000000">set_levels_list</text>
</a>
</g>
</g>
<!-- Node55&#45;&gt;Node56 -->
<g id="edge2" class="edge">
<title>Node55&#45;&gt;Node56</title>
<path fill="none" stroke="#191970" d="M240.2923,-48C248.3951,-48 257.0582,-48 265.5656,-48"/>
<polygon fill="#191970" stroke="#191970" points="265.8175,-51.5001 275.8174,-48 265.8174,-44.5001 265.8175,-51.5001"/>
</g>
<!-- Node57 -->
<g id="node4" class="node">
<title>Node57</title>
<g id="a_node4"><a xlink:href="namespaceumprintmgr.xhtml#aae44897e556705dbf5e945a26538be9a" target="_top" xlink:title="umprintmgr::umprint">
<polygon fill="#ffffff" stroke="#000000" points="398,-38.5 398,-57.5 517,-57.5 517,-38.5 398,-38.5"/>
<text text-anchor="middle" x="457.5" y="-45.5" font-family="Helvetica,sans-Serif" font-size="10.00" fill="#000000">umprintmgr::umprint</text>
</a>
</g>
</g>
<!-- Node56&#45;&gt;Node57 -->
<g id="edge3" class="edge">
<title>Node56&#45;&gt;Node57</title>
<path fill="none" stroke="#191970" d="M362.0631,-48C370.2247,-48 378.9555,-48 387.6981,-48"/>
<polygon fill="#191970" stroke="#191970" points="387.9331,-51.5001 397.933,-48 387.933,-44.5001 387.9331,-51.5001"/>
</g>
<!-- Node58 -->
<g id="node5" class="node">
<title>Node58</title>
<g id="a_node5"><a xlink:href="namespaceumprintmgr.xhtml#a088ce22a18d574e9df7ee1850bfb10c7" target="_top" xlink:title="umprintmgr::umprintopenstream">
<polygon fill="#ffffff" stroke="#000000" points="553,-38.5 553,-57.5 730,-57.5 730,-38.5 553,-38.5"/>
<text text-anchor="middle" x="641.5" y="-45.5" font-family="Helvetica,sans-Serif" font-size="10.00" fill="#000000">umprintmgr::umprintopenstream</text>
</a>
</g>
</g>
<!-- Node57&#45;&gt;Node58 -->
<g id="edge4" class="edge">
<title>Node57&#45;&gt;Node58</title>
<path fill="none" stroke="#191970" d="M517.2395,-41.6333C525.4605,-41.4301 534.0751,-41.3077 542.7702,-41.2661"/>
<polygon fill="#191970" stroke="#191970" points="542.9998,-44.7659 552.9958,-41.2543 542.9917,-37.7659 542.9998,-44.7659"/>
</g>
<!-- Node59 -->
<g id="node6" class="node">
<title>Node59</title>
<g id="a_node6"><a xlink:href="namespaceumprintmgr.xhtml#ad3a290b30a6e25500eabc0bf90330b77" target="_top" xlink:title="umprintmgr::umprintflush">
<polygon fill="#ffffff" stroke="#000000" points="570.5,-.5 570.5,-19.5 712.5,-19.5 712.5,-.5 570.5,-.5"/>
<text text-anchor="middle" x="641.5" y="-7.5" font-family="Helvetica,sans-Serif" font-size="10.00" fill="#000000">umprintmgr::umprintflush</text>
</a>
</g>
</g>
<!-- Node57&#45;&gt;Node59 -->
<g id="edge6" class="edge">
<title>Node57&#45;&gt;Node59</title>
<path fill="none" stroke="#191970" d="M503.931,-38.411C528.6493,-33.3061 559.239,-26.9887 585.292,-21.6082"/>
<polygon fill="#191970" stroke="#191970" points="586.3175,-24.9703 595.4029,-19.5201 584.9017,-18.115 586.3175,-24.9703"/>
</g>
<!-- Node58&#45;&gt;Node57 -->
<g id="edge5" class="edge">
<title>Node58&#45;&gt;Node57</title>
<path fill="none" stroke="#191970" d="M552.9958,-54.7457C544.3802,-54.767 535.7236,-54.7094 527.3289,-54.5727"/>
<polygon fill="#191970" stroke="#191970" points="527.3089,-51.0716 517.2395,-54.3667 527.166,-58.0702 527.3089,-51.0716"/>
</g>
<!-- Node60 -->
<g id="node7" class="node">
<title>Node60</title>
<g id="a_node7"><a xlink:href="namespaceumflush__mod.xhtml#a3a003ab59990bdcb712b443dd5e0d1cd" target="_top" xlink:title="umflush_mod::umflush">
<polygon fill="#ffffff" stroke="#000000" points="766,-.5 766,-19.5 894,-19.5 894,-.5 766,-.5"/>
<text text-anchor="middle" x="830" y="-7.5" font-family="Helvetica,sans-Serif" font-size="10.00" fill="#000000">umflush_mod::umflush</text>
</a>
</g>
</g>
<!-- Node59&#45;&gt;Node60 -->
<g id="edge7" class="edge">
<title>Node59&#45;&gt;Node60</title>
<path fill="none" stroke="#191970" d="M712.7638,-10C726.7742,-10 741.5063,-10 755.6162,-10"/>
<polygon fill="#191970" stroke="#191970" points="755.7612,-13.5001 765.7611,-10 755.7611,-6.5001 755.7612,-13.5001"/>
</g>
</g>
</svg>
