<?xml version="1.0" encoding="UTF-8" standalone="no"?>
<!DOCTYPE svg PUBLIC "-//W3C//DTD SVG 1.1//EN"
 "http://www.w3.org/Graphics/SVG/1.1/DTD/svg11.dtd">
<!-- Generated by graphviz version 2.40.1 (20161225.0304)
 -->
<!-- Title: oasis3_puta2o Pages: 1 -->
<svg width="1077pt" height="180pt"
 viewBox="0.00 0.00 1077.00 180.00" xmlns="http://www.w3.org/2000/svg" xmlns:xlink="http://www.w3.org/1999/xlink">
<g id="graph0" class="graph" transform="scale(1 1) rotate(0) translate(4 176)">
<title>oasis3_puta2o</title>
<polygon fill="#ffffff" stroke="transparent" points="-4,4 -4,-176 1073,-176 1073,4 -4,4"/>
<!-- Node0 -->
<g id="node1" class="node">
<title>Node0</title>
<polygon fill="#bfbfbf" stroke="#000000" points="0,-114.5 0,-133.5 87,-133.5 87,-114.5 0,-114.5"/>
<text text-anchor="middle" x="43.5" y="-121.5" font-family="Helvetica,sans-Serif" font-size="10.00" fill="#000000">oasis3_puta2o</text>
</g>
<!-- Node1 -->
<g id="node2" class="node">
<title>Node1</title>
<g id="a_node2"><a xlink:href="namespaceoasis__timers.xhtml#aeac0039a80a4f4b238835d5306117c4c" target="_top" xlink:title="oasis_timers::putstarts">
<polygon fill="#ffffff" stroke="#000000" points="123,-152.5 123,-171.5 251,-171.5 251,-152.5 123,-152.5"/>
<text text-anchor="middle" x="187" y="-159.5" font-family="Helvetica,sans-Serif" font-size="10.00" fill="#000000">oasis_timers::putstarts</text>
</a>
</g>
</g>
<!-- Node0&#45;&gt;Node1 -->
<g id="edge1" class="edge">
<title>Node0&#45;&gt;Node1</title>
<path fill="none" stroke="#191970" d="M79.7111,-133.589C98.3206,-138.5169 121.1972,-144.5749 141.0389,-149.8291"/>
<polygon fill="#191970" stroke="#191970" points="140.2377,-153.2375 150.8005,-152.4141 142.0296,-146.4708 140.2377,-153.2375"/>
</g>
<!-- Node8 -->
<g id="node9" class="node">
<title>Node8</title>
<g id="a_node9"><a xlink:href="namespaceoasis__timers.xhtml#afed93daf6a568d8a0e22d1469dc8995d" target="_top" xlink:title="oasis_timers::putends">
<polygon fill="#ffffff" stroke="#000000" points="125,-114.5 125,-133.5 249,-133.5 249,-114.5 125,-114.5"/>
<text text-anchor="middle" x="187" y="-121.5" font-family="Helvetica,sans-Serif" font-size="10.00" fill="#000000">oasis_timers::putends</text>
</a>
</g>
</g>
<!-- Node0&#45;&gt;Node8 -->
<g id="edge9" class="edge">
<title>Node0&#45;&gt;Node8</title>
<path fill="none" stroke="#191970" d="M87.3345,-124C96.0507,-124 105.4182,-124 114.7959,-124"/>
<polygon fill="#191970" stroke="#191970" points="114.9456,-127.5001 124.9455,-124 114.9455,-120.5001 114.9456,-127.5001"/>
</g>
<!-- Node9 -->
<g id="node10" class="node">
<title>Node9</title>
<g id="a_node10"><a xlink:href="oasis3__put_8f90.xhtml#a53a5c79a23dba47d81a8be4e246c1062" target="_top" xlink:title="*****************************COPYRIGHT**************************************** For further details pl...">
<polygon fill="#ffffff" stroke="#000000" points="152.5,-76.5 152.5,-95.5 221.5,-95.5 221.5,-76.5 152.5,-76.5"/>
<text text-anchor="middle" x="187" y="-83.5" font-family="Helvetica,sans-Serif" font-size="10.00" fill="#000000">oasis3_put</text>
</a>
</g>
</g>
<!-- Node0&#45;&gt;Node9 -->
<g id="edge12" class="edge">
<title>Node0&#45;&gt;Node9</title>
<path fill="none" stroke="#191970" d="M79.7111,-114.411C98.7467,-109.3702 122.2472,-103.1471 142.3972,-97.8112"/>
<polygon fill="#191970" stroke="#191970" points="143.5147,-101.136 152.2855,-95.1927 141.7227,-94.3692 143.5147,-101.136"/>
</g>
<!-- Node2 -->
<g id="node3" class="node">
<title>Node2</title>
<g id="a_node3"><a xlink:href="namespaceoasis__timers.xhtml#a24e4f7a508168b74ef2758a739ab649c" target="_top" xlink:title="oasis_timers::sync">
<polygon fill="#ffffff" stroke="#000000" points="287,-114.5 287,-133.5 394,-133.5 394,-114.5 287,-114.5"/>
<text text-anchor="middle" x="340.5" y="-121.5" font-family="Helvetica,sans-Serif" font-size="10.00" fill="#000000">oasis_timers::sync</text>
</a>
</g>
</g>
<!-- Node1&#45;&gt;Node2 -->
<g id="edge2" class="edge">
<title>Node1&#45;&gt;Node2</title>
<path fill="none" stroke="#191970" d="M225.7345,-152.411C245.8993,-147.4191 270.7479,-141.2676 292.1611,-135.9666"/>
<polygon fill="#191970" stroke="#191970" points="293.1781,-139.3206 302.044,-133.5201 291.4959,-132.5257 293.1781,-139.3206"/>
</g>
<!-- Node3 -->
<g id="node4" class="node">
<title>Node3</title>
<g id="a_node4"><a xlink:href="timer-timer1a_8f90.xhtml#a9ec0272078965f809aa1a1cbc6a05ea4" target="_top" xlink:title="timer">
<polygon fill="#ffffff" stroke="#000000" points="319,-152.5 319,-171.5 362,-171.5 362,-152.5 319,-152.5"/>
<text text-anchor="middle" x="340.5" y="-159.5" font-family="Helvetica,sans-Serif" font-size="10.00" fill="#000000">timer</text>
</a>
</g>
</g>
<!-- Node1&#45;&gt;Node3 -->
<g id="edge3" class="edge">
<title>Node1&#45;&gt;Node3</title>
<path fill="none" stroke="#191970" d="M251.2084,-162C271.0217,-162 291.9811,-162 308.6108,-162"/>
<polygon fill="#191970" stroke="#191970" points="308.8582,-165.5001 318.8581,-162 308.8581,-158.5001 308.8582,-165.5001"/>
</g>
<!-- Node4 -->
<g id="node5" class="node">
<title>Node4</title>
<g id="a_node5"><a xlink:href="namespaceumprintmgr.xhtml#aae44897e556705dbf5e945a26538be9a" target="_top" xlink:title="umprintmgr::umprint">
<polygon fill="#ffffff" stroke="#000000" points="573,-57.5 573,-76.5 692,-76.5 692,-57.5 573,-57.5"/>
<text text-anchor="middle" x="632.5" y="-64.5" font-family="Helvetica,sans-Serif" font-size="10.00" fill="#000000">umprintmgr::umprint</text>
</a>
</g>
</g>
<!-- Node3&#45;&gt;Node4 -->
<g id="edge4" class="edge">
<title>Node3&#45;&gt;Node4</title>
<path fill="none" stroke="#191970" d="M362.0781,-155.401C398.3156,-144.272 473.6538,-120.9339 537,-100 556.3534,-93.6043 577.8126,-86.216 595.4789,-80.0538"/>
<polygon fill="#191970" stroke="#191970" points="597.1143,-83.1897 605.3977,-76.584 594.8029,-76.5823 597.1143,-83.1897"/>
</g>
<!-- Node5 -->
<g id="node6" class="node">
<title>Node5</title>
<g id="a_node6"><a xlink:href="namespaceumprintmgr.xhtml#a088ce22a18d574e9df7ee1850bfb10c7" target="_top" xlink:title="umprintmgr::umprintopenstream">
<polygon fill="#ffffff" stroke="#000000" points="728,-57.5 728,-76.5 905,-76.5 905,-57.5 728,-57.5"/>
<text text-anchor="middle" x="816.5" y="-64.5" font-family="Helvetica,sans-Serif" font-size="10.00" fill="#000000">umprintmgr::umprintopenstream</text>
</a>
</g>
</g>
<!-- Node4&#45;&gt;Node5 -->
<g id="edge5" class="edge">
<title>Node4&#45;&gt;Node5</title>
<path fill="none" stroke="#191970" d="M692.2395,-60.6333C700.4605,-60.4301 709.0751,-60.3077 717.7702,-60.2661"/>
<polygon fill="#191970" stroke="#191970" points="717.9998,-63.7659 727.9958,-60.2543 717.9917,-56.7659 717.9998,-63.7659"/>
</g>
<!-- Node6 -->
<g id="node7" class="node">
<title>Node6</title>
<g id="a_node7"><a xlink:href="namespaceumprintmgr.xhtml#ad3a290b30a6e25500eabc0bf90330b77" target="_top" xlink:title="umprintmgr::umprintflush">
<polygon fill="#ffffff" stroke="#000000" points="745.5,-19.5 745.5,-38.5 887.5,-38.5 887.5,-19.5 745.5,-19.5"/>
<text text-anchor="middle" x="816.5" y="-26.5" font-family="Helvetica,sans-Serif" font-size="10.00" fill="#000000">umprintmgr::umprintflush</text>
</a>
</g>
</g>
<!-- Node4&#45;&gt;Node6 -->
<g id="edge7" class="edge">
<title>Node4&#45;&gt;Node6</title>
<path fill="none" stroke="#191970" d="M678.931,-57.411C703.6493,-52.3061 734.239,-45.9887 760.292,-40.6082"/>
<polygon fill="#191970" stroke="#191970" points="761.3175,-43.9703 770.4029,-38.5201 759.9017,-37.115 761.3175,-43.9703"/>
</g>
<!-- Node5&#45;&gt;Node4 -->
<g id="edge6" class="edge">
<title>Node5&#45;&gt;Node4</title>
<path fill="none" stroke="#191970" d="M727.9958,-73.7457C719.3802,-73.767 710.7236,-73.7094 702.3289,-73.5727"/>
<polygon fill="#191970" stroke="#191970" points="702.3089,-70.0716 692.2395,-73.3667 702.166,-77.0702 702.3089,-70.0716"/>
</g>
<!-- Node7 -->
<g id="node8" class="node">
<title>Node7</title>
<g id="a_node8"><a xlink:href="namespaceumflush__mod.xhtml#a3a003ab59990bdcb712b443dd5e0d1cd" target="_top" xlink:title="umflush_mod::umflush">
<polygon fill="#ffffff" stroke="#000000" points="941,-19.5 941,-38.5 1069,-38.5 1069,-19.5 941,-19.5"/>
<text text-anchor="middle" x="1005" y="-26.5" font-family="Helvetica,sans-Serif" font-size="10.00" fill="#000000">umflush_mod::umflush</text>
</a>
</g>
</g>
<!-- Node6&#45;&gt;Node7 -->
<g id="edge8" class="edge">
<title>Node6&#45;&gt;Node7</title>
<path fill="none" stroke="#191970" d="M887.7638,-29C901.7742,-29 916.5063,-29 930.6162,-29"/>
<polygon fill="#191970" stroke="#191970" points="930.7612,-32.5001 940.7611,-29 930.7611,-25.5001 930.7612,-32.5001"/>
</g>
<!-- Node8&#45;&gt;Node2 -->
<g id="edge10" class="edge">
<title>Node8&#45;&gt;Node2</title>
<path fill="none" stroke="#191970" d="M249.4343,-124C258.4803,-124 267.8014,-124 276.8705,-124"/>
<polygon fill="#191970" stroke="#191970" points="276.9748,-127.5001 286.9748,-124 276.9747,-120.5001 276.9748,-127.5001"/>
</g>
<!-- Node8&#45;&gt;Node3 -->
<g id="edge11" class="edge">
<title>Node8&#45;&gt;Node3</title>
<path fill="none" stroke="#191970" d="M225.7345,-133.589C251.5352,-139.9761 285.0038,-148.2615 309.1332,-154.2349"/>
<polygon fill="#191970" stroke="#191970" points="308.305,-157.6355 318.8531,-156.6411 309.9872,-150.8406 308.305,-157.6355"/>
</g>
<!-- Node9&#45;&gt;Node4 -->
<g id="edge13" class="edge">
<title>Node9&#45;&gt;Node4</title>
<path fill="none" stroke="#191970" d="M221.5869,-84.5249C294.5696,-81.4123 465.5466,-74.1203 562.3836,-69.9904"/>
<polygon fill="#191970" stroke="#191970" points="562.8237,-73.4749 572.6654,-69.5519 562.5254,-66.4812 562.8237,-73.4749"/>
</g>
<!-- Node10 -->
<g id="node11" class="node">
<title>Node10</title>
<g id="a_node11"><a xlink:href="gather__field_8f90.xhtml#a411d8497576055c9806030d5e1f6bfa4" target="_top" xlink:title="Gathers a field from many processors to one processor Gathers a field from many processors to one pro...">
<polygon fill="#ffffff" stroke="#000000" points="303.5,-38.5 303.5,-57.5 377.5,-57.5 377.5,-38.5 303.5,-38.5"/>
<text text-anchor="middle" x="340.5" y="-45.5" font-family="Helvetica,sans-Serif" font-size="10.00" fill="#000000">gather_field</text>
</a>
</g>
</g>
<!-- Node9&#45;&gt;Node10 -->
<g id="edge14" class="edge">
<title>Node9&#45;&gt;Node10</title>
<path fill="none" stroke="#191970" d="M221.8315,-77.3772C243.021,-72.1316 270.3596,-65.3637 293.4549,-59.6464"/>
<polygon fill="#191970" stroke="#191970" points="294.5296,-62.986 303.3955,-57.1855 292.8474,-56.1911 294.5296,-62.986"/>
</g>
<!-- Node11 -->
<g id="node12" class="node">
<title>Node11</title>
<g id="a_node12"><a xlink:href="gather__field__gcom_8f90.xhtml#a4b057c8e6eb901fedde7602ab191157d" target="_top" xlink:title="Gathers a field from many processors to one processor Gathers a field from many processors to one pro...">
<polygon fill="#ffffff" stroke="#000000" points="430,-38.5 430,-57.5 537,-57.5 537,-38.5 430,-38.5"/>
<text text-anchor="middle" x="483.5" y="-45.5" font-family="Helvetica,sans-Serif" font-size="10.00" fill="#000000">gather_field_gcom</text>
</a>
</g>
</g>
<!-- Node10&#45;&gt;Node11 -->
<g id="edge15" class="edge">
<title>Node10&#45;&gt;Node11</title>
<path fill="none" stroke="#191970" d="M377.6983,-48C390.4838,-48 405.1872,-48 419.4867,-48"/>
<polygon fill="#191970" stroke="#191970" points="419.7944,-51.5001 429.7943,-48 419.7943,-44.5001 419.7944,-51.5001"/>
</g>
<!-- Node12 -->
<g id="node13" class="node">
<title>Node12</title>
<g id="a_node13"><a xlink:href="gather__field__mpl_8f90.xhtml#a0f529f10ba33089c1e74ec9fd2a53b25" target="_top" xlink:title="Gathers a field from many processors to one processor Gathers a field from many processors to one pro...">
<polygon fill="#ffffff" stroke="#000000" points="434.5,-.5 434.5,-19.5 532.5,-19.5 532.5,-.5 434.5,-.5"/>
<text text-anchor="middle" x="483.5" y="-7.5" font-family="Helvetica,sans-Serif" font-size="10.00" fill="#000000">gather_field_mpl</text>
</a>
</g>
</g>
<!-- Node10&#45;&gt;Node12 -->
<g id="edge17" class="edge">
<title>Node10&#45;&gt;Node12</title>
<path fill="none" stroke="#191970" d="M376.5849,-38.411C395.1296,-33.4831 417.9265,-27.4251 437.699,-22.1709"/>
<polygon fill="#191970" stroke="#191970" points="438.6609,-25.5368 447.4266,-19.5859 436.8631,-18.7716 438.6609,-25.5368"/>
</g>
<!-- Node11&#45;&gt;Node4 -->
<g id="edge16" class="edge">
<title>Node11&#45;&gt;Node4</title>
<path fill="none" stroke="#191970" d="M537.2924,-54.8594C545.6204,-55.9214 554.3234,-57.0312 562.9379,-58.1297"/>
<polygon fill="#191970" stroke="#191970" points="562.6198,-61.6174 572.9823,-59.4105 563.5054,-54.6736 562.6198,-61.6174"/>
</g>
<!-- Node12&#45;&gt;Node4 -->
<g id="edge18" class="edge">
<title>Node12&#45;&gt;Node4</title>
<path fill="none" stroke="#191970" d="M511.0638,-19.5669C519.4187,-22.5264 528.6054,-25.8405 537,-29 557.9513,-36.8855 581.3025,-46.1681 599.67,-53.5848"/>
<polygon fill="#191970" stroke="#191970" points="598.465,-56.8729 609.0475,-57.3839 601.0934,-50.3851 598.465,-56.8729"/>
</g>
<!-- Node13 -->
<g id="node14" class="node">
<title>Node13</title>
<g id="a_node14"><a xlink:href="sum_8f90.xhtml#a025c1f845b6a4ea9c9f48b8612cd82e7" target="_top" xlink:title="Generic routines for manipulating pp&#45;fields within Fieldcalc. ">
<polygon fill="#ffffff" stroke="#000000" points="613.5,-.5 613.5,-19.5 651.5,-19.5 651.5,-.5 613.5,-.5"/>
<text text-anchor="middle" x="632.5" y="-7.5" font-family="Helvetica,sans-Serif" font-size="10.00" fill="#000000">sum</text>
</a>
</g>
</g>
<!-- Node12&#45;&gt;Node13 -->
<g id="edge19" class="edge">
<title>Node12&#45;&gt;Node13</title>
<path fill="none" stroke="#191970" d="M532.7011,-10C556.1251,-10 583.3354,-10 603.4216,-10"/>
<polygon fill="#191970" stroke="#191970" points="603.4979,-13.5001 613.4978,-10 603.4978,-6.5001 603.4979,-13.5001"/>
</g>
</g>
</svg>
