<?xml version="1.0" encoding="UTF-8" standalone="no"?>
<!DOCTYPE svg PUBLIC "-//W3C//DTD SVG 1.1//EN"
 "http://www.w3.org/Graphics/SVG/1.1/DTD/svg11.dtd">
<!-- Generated by graphviz version 2.40.1 (20161225.0304)
 -->
<!-- Title: open_grid_control_files Pages: 1 -->
<svg width="669pt" height="66pt"
 viewBox="0.00 0.00 669.00 66.00" xmlns="http://www.w3.org/2000/svg" xmlns:xlink="http://www.w3.org/1999/xlink">
<g id="graph0" class="graph" transform="scale(1 1) rotate(0) translate(4 62)">
<title>open_grid_control_files</title>
<polygon fill="#ffffff" stroke="transparent" points="-4,4 -4,-62 665,-62 665,4 -4,4"/>
<!-- Node0 -->
<g id="node1" class="node">
<title>Node0</title>
<polygon fill="#bfbfbf" stroke="#000000" points="0,-19.5 0,-38.5 129,-38.5 129,-19.5 0,-19.5"/>
<text text-anchor="middle" x="64.5" y="-26.5" font-family="Helvetica,sans-Serif" font-size="10.00" fill="#000000">open_grid_control_files</text>
</g>
<!-- Node1 -->
<g id="node2" class="node">
<title>Node1</title>
<g id="a_node2"><a xlink:href="namespaceumprintmgr.xhtml#aae44897e556705dbf5e945a26538be9a" target="_top" xlink:title="umprintmgr::umprint">
<polygon fill="#ffffff" stroke="#000000" points="165,-38.5 165,-57.5 284,-57.5 284,-38.5 165,-38.5"/>
<text text-anchor="middle" x="224.5" y="-45.5" font-family="Helvetica,sans-Serif" font-size="10.00" fill="#000000">umprintmgr::umprint</text>
</a>
</g>
</g>
<!-- Node0&#45;&gt;Node1 -->
<g id="edge1" class="edge">
<title>Node0&#45;&gt;Node1</title>
<path fill="none" stroke="#191970" d="M129.1169,-36.6733C137.5948,-37.68 146.3122,-38.7152 154.8687,-39.7313"/>
<polygon fill="#191970" stroke="#191970" points="154.4723,-43.2087 164.8153,-40.9124 155.2978,-36.2576 154.4723,-43.2087"/>
</g>
<!-- Node5 -->
<g id="node6" class="node">
<title>Node5</title>
<g id="a_node6"><a xlink:href="open__file_8f90.xhtml#a48537f764802051f8e293c7aec58ad6b" target="_top" xlink:title="Programming standard: Unified Model Documentation Paper No 3. ">
<polygon fill="#ffffff" stroke="#000000" points="194,-.5 194,-19.5 255,-19.5 255,-.5 194,-.5"/>
<text text-anchor="middle" x="224.5" y="-7.5" font-family="Helvetica,sans-Serif" font-size="10.00" fill="#000000">open_file</text>
</a>
</g>
</g>
<!-- Node0&#45;&gt;Node5 -->
<g id="edge6" class="edge">
<title>Node0&#45;&gt;Node5</title>
<path fill="none" stroke="#191970" d="M129.1169,-21.3267C147.4726,-19.147 166.951,-16.8339 183.4877,-14.8702"/>
<polygon fill="#191970" stroke="#191970" points="184.371,-18.29 193.8884,-13.6351 183.5455,-11.3388 184.371,-18.29"/>
</g>
<!-- Node2 -->
<g id="node3" class="node">
<title>Node2</title>
<g id="a_node3"><a xlink:href="namespaceumprintmgr.xhtml#a088ce22a18d574e9df7ee1850bfb10c7" target="_top" xlink:title="umprintmgr::umprintopenstream">
<polygon fill="#ffffff" stroke="#000000" points="320,-38.5 320,-57.5 497,-57.5 497,-38.5 320,-38.5"/>
<text text-anchor="middle" x="408.5" y="-45.5" font-family="Helvetica,sans-Serif" font-size="10.00" fill="#000000">umprintmgr::umprintopenstream</text>
</a>
</g>
</g>
<!-- Node1&#45;&gt;Node2 -->
<g id="edge2" class="edge">
<title>Node1&#45;&gt;Node2</title>
<path fill="none" stroke="#191970" d="M284.2395,-41.6333C292.4605,-41.4301 301.0751,-41.3077 309.7702,-41.2661"/>
<polygon fill="#191970" stroke="#191970" points="309.9998,-44.7659 319.9958,-41.2543 309.9917,-37.7659 309.9998,-44.7659"/>
</g>
<!-- Node3 -->
<g id="node4" class="node">
<title>Node3</title>
<g id="a_node4"><a xlink:href="namespaceumprintmgr.xhtml#ad3a290b30a6e25500eabc0bf90330b77" target="_top" xlink:title="umprintmgr::umprintflush">
<polygon fill="#ffffff" stroke="#000000" points="337.5,-.5 337.5,-19.5 479.5,-19.5 479.5,-.5 337.5,-.5"/>
<text text-anchor="middle" x="408.5" y="-7.5" font-family="Helvetica,sans-Serif" font-size="10.00" fill="#000000">umprintmgr::umprintflush</text>
</a>
</g>
</g>
<!-- Node1&#45;&gt;Node3 -->
<g id="edge4" class="edge">
<title>Node1&#45;&gt;Node3</title>
<path fill="none" stroke="#191970" d="M270.931,-38.411C295.6493,-33.3061 326.239,-26.9887 352.292,-21.6082"/>
<polygon fill="#191970" stroke="#191970" points="353.3175,-24.9703 362.4029,-19.5201 351.9017,-18.115 353.3175,-24.9703"/>
</g>
<!-- Node2&#45;&gt;Node1 -->
<g id="edge3" class="edge">
<title>Node2&#45;&gt;Node1</title>
<path fill="none" stroke="#191970" d="M319.9958,-54.7457C311.3802,-54.767 302.7236,-54.7094 294.3289,-54.5727"/>
<polygon fill="#191970" stroke="#191970" points="294.3089,-51.0716 284.2395,-54.3667 294.166,-58.0702 294.3089,-51.0716"/>
</g>
<!-- Node4 -->
<g id="node5" class="node">
<title>Node4</title>
<g id="a_node5"><a xlink:href="namespaceumflush__mod.xhtml#a3a003ab59990bdcb712b443dd5e0d1cd" target="_top" xlink:title="umflush_mod::umflush">
<polygon fill="#ffffff" stroke="#000000" points="533,-.5 533,-19.5 661,-19.5 661,-.5 533,-.5"/>
<text text-anchor="middle" x="597" y="-7.5" font-family="Helvetica,sans-Serif" font-size="10.00" fill="#000000">umflush_mod::umflush</text>
</a>
</g>
</g>
<!-- Node3&#45;&gt;Node4 -->
<g id="edge5" class="edge">
<title>Node3&#45;&gt;Node4</title>
<path fill="none" stroke="#191970" d="M479.7638,-10C493.7742,-10 508.5063,-10 522.6162,-10"/>
<polygon fill="#191970" stroke="#191970" points="522.7612,-13.5001 532.7611,-10 522.7611,-6.5001 522.7612,-13.5001"/>
</g>
</g>
</svg>
