<?xml version="1.0" encoding="UTF-8" standalone="no"?>
<!DOCTYPE svg PUBLIC "-//W3C//DTD SVG 1.1//EN"
 "http://www.w3.org/Graphics/SVG/1.1/DTD/svg11.dtd">
<!-- Generated by graphviz version 2.40.1 (20161225.0304)
 -->
<!-- Title: parcel_ascent Pages: 1 -->
<svg width="1273pt" height="408pt"
 viewBox="0.00 0.00 1273.00 408.00" xmlns="http://www.w3.org/2000/svg" xmlns:xlink="http://www.w3.org/1999/xlink">
<g id="graph0" class="graph" transform="scale(1 1) rotate(0) translate(4 404)">
<title>parcel_ascent</title>
<polygon fill="#ffffff" stroke="transparent" points="-4,4 -4,-404 1269,-404 1269,4 -4,4"/>
<!-- Node0 -->
<g id="node1" class="node">
<title>Node0</title>
<polygon fill="#bfbfbf" stroke="#000000" points="0,-342.5 0,-361.5 84,-361.5 84,-342.5 0,-342.5"/>
<text text-anchor="middle" x="42" y="-349.5" font-family="Helvetica,sans-Serif" font-size="10.00" fill="#000000">parcel_ascent</text>
</g>
<!-- Node1 -->
<g id="node2" class="node">
<title>Node1</title>
<g id="a_node2"><a xlink:href="qsat__mix_8f90.xhtml#ab2c9bd03497c107afdc2ea71e3887626" target="_top" xlink:title="Saturation Specific Humidity/mixing Scheme(Qsat):Vapour to Liquid/Ice. ">
<polygon fill="#ffffff" stroke="#000000" points="123,-361.5 123,-380.5 185,-380.5 185,-361.5 123,-361.5"/>
<text text-anchor="middle" x="154" y="-368.5" font-family="Helvetica,sans-Serif" font-size="10.00" fill="#000000">qsat_mix</text>
</a>
</g>
</g>
<!-- Node0&#45;&gt;Node1 -->
<g id="edge1" class="edge">
<title>Node0&#45;&gt;Node1</title>
<path fill="none" stroke="#191970" d="M84.0233,-359.129C93.5047,-360.7374 103.5571,-362.4427 112.9959,-364.044"/>
<polygon fill="#191970" stroke="#191970" points="112.4966,-367.5092 122.9412,-365.7311 113.6675,-360.6078 112.4966,-367.5092"/>
</g>
<!-- Node2 -->
<g id="node3" class="node">
<title>Node2</title>
<g id="a_node3"><a xlink:href="scmoutput_8f90.xhtml#a1ebaa1ca3d36d0fc74ab3a09f13c6d78" target="_top" xlink:title="Create a SCM output diagnostic. ">
<polygon fill="#ffffff" stroke="#000000" points="120,-323.5 120,-342.5 188,-342.5 188,-323.5 120,-323.5"/>
<text text-anchor="middle" x="154" y="-330.5" font-family="Helvetica,sans-Serif" font-size="10.00" fill="#000000">scmoutput</text>
</a>
</g>
</g>
<!-- Node0&#45;&gt;Node2 -->
<g id="edge2" class="edge">
<title>Node0&#45;&gt;Node2</title>
<path fill="none" stroke="#191970" d="M84.0233,-344.871C92.4078,-343.4487 101.2388,-341.9506 109.6972,-340.5157"/>
<polygon fill="#191970" stroke="#191970" points="110.5009,-343.9294 119.7746,-338.8061 109.3301,-337.028 110.5009,-343.9294"/>
</g>
<!-- Node3 -->
<g id="node4" class="node">
<title>Node3</title>
<g id="a_node4"><a xlink:href="namespaces__scmop__mod.xhtml#aed5d8df9d253718e6f8ed9b708bdd0da" target="_top" xlink:title="s_scmop_mod::stepnmbr">
<polygon fill="#ffffff" stroke="#000000" points="224,-380.5 224,-399.5 363,-399.5 363,-380.5 224,-380.5"/>
<text text-anchor="middle" x="293.5" y="-387.5" font-family="Helvetica,sans-Serif" font-size="10.00" fill="#000000">s_scmop_mod::stepnmbr</text>
</a>
</g>
</g>
<!-- Node2&#45;&gt;Node3 -->
<g id="edge3" class="edge">
<title>Node2&#45;&gt;Node3</title>
<path fill="none" stroke="#191970" d="M172.7681,-342.5252C186.7243,-349.4413 206.329,-358.8081 224,-366 233.577,-369.8977 244.0514,-373.7316 253.8965,-377.1519"/>
<polygon fill="#191970" stroke="#191970" points="252.8808,-380.5034 263.4753,-380.4213 255.142,-373.8787 252.8808,-380.5034"/>
</g>
<!-- Node4 -->
<g id="node5" class="node">
<title>Node4</title>
<g id="a_node5"><a xlink:href="namespaceumprintmgr.xhtml#aae44897e556705dbf5e945a26538be9a" target="_top" xlink:title="umprintmgr::umprint">
<polygon fill="#ffffff" stroke="#000000" points="765,-266.5 765,-285.5 884,-285.5 884,-266.5 765,-266.5"/>
<text text-anchor="middle" x="824.5" y="-273.5" font-family="Helvetica,sans-Serif" font-size="10.00" fill="#000000">umprintmgr::umprint</text>
</a>
</g>
</g>
<!-- Node2&#45;&gt;Node4 -->
<g id="edge4" class="edge">
<title>Node2&#45;&gt;Node4</title>
<path fill="none" stroke="#191970" d="M188.172,-330.095C293.0929,-321.1755 612.0946,-294.0568 754.5272,-281.9485"/>
<polygon fill="#191970" stroke="#191970" points="755.215,-285.4027 764.8825,-281.0682 754.622,-278.4279 755.215,-285.4027"/>
</g>
<!-- Node8 -->
<g id="node9" class="node">
<title>Node8</title>
<g id="a_node9"><a xlink:href="getdistinctdiags_8f90.xhtml#ae19d30f8fc794efdb49886f1952c090f" target="_top" xlink:title="Obtain indices of diagnostic entries in SCMop given SCMoutput inputs. ">
<polygon fill="#ffffff" stroke="#000000" points="246,-114.5 246,-133.5 341,-133.5 341,-114.5 246,-114.5"/>
<text text-anchor="middle" x="293.5" y="-121.5" font-family="Helvetica,sans-Serif" font-size="10.00" fill="#000000">getdistinctdiags</text>
</a>
</g>
</g>
<!-- Node2&#45;&gt;Node8 -->
<g id="edge9" class="edge">
<title>Node2&#45;&gt;Node8</title>
<path fill="none" stroke="#191970" d="M160.3565,-323.4766C181.9619,-291.1073 252.808,-184.9651 281.3868,-142.1481"/>
<polygon fill="#191970" stroke="#191970" points="284.4656,-143.8399 287.1061,-133.5793 278.6434,-139.9537 284.4656,-143.8399"/>
</g>
<!-- Node15 -->
<g id="node16" class="node">
<title>Node15</title>
<g id="a_node16"><a xlink:href="add2dump_8f90.xhtml#a9ef6bd2348ed8547ea4a98403bc63c63" target="_top" xlink:title="Update the dump array of a SCM diagnostic entry in SCMop. ">
<polygon fill="#ffffff" stroke="#000000" points="436.5,-342.5 436.5,-361.5 504.5,-361.5 504.5,-342.5 436.5,-342.5"/>
<text text-anchor="middle" x="470.5" y="-349.5" font-family="Helvetica,sans-Serif" font-size="10.00" fill="#000000">add2dump</text>
</a>
</g>
</g>
<!-- Node2&#45;&gt;Node15 -->
<g id="edge23" class="edge">
<title>Node2&#45;&gt;Node15</title>
<path fill="none" stroke="#191970" d="M188.1718,-335.0514C245.8606,-338.5145 362.5038,-345.5168 426.323,-349.348"/>
<polygon fill="#191970" stroke="#191970" points="426.2793,-352.8516 436.4711,-349.9572 426.6988,-345.8642 426.2793,-352.8516"/>
</g>
<!-- Node5 -->
<g id="node6" class="node">
<title>Node5</title>
<g id="a_node6"><a xlink:href="namespaceumprintmgr.xhtml#a088ce22a18d574e9df7ee1850bfb10c7" target="_top" xlink:title="umprintmgr::umprintopenstream">
<polygon fill="#ffffff" stroke="#000000" points="924,-266.5 924,-285.5 1101,-285.5 1101,-266.5 924,-266.5"/>
<text text-anchor="middle" x="1012.5" y="-273.5" font-family="Helvetica,sans-Serif" font-size="10.00" fill="#000000">umprintmgr::umprintopenstream</text>
</a>
</g>
</g>
<!-- Node4&#45;&gt;Node5 -->
<g id="edge5" class="edge">
<title>Node4&#45;&gt;Node5</title>
<path fill="none" stroke="#191970" d="M884.2427,-269.6653C893.6774,-269.4266 903.6455,-269.2907 913.687,-269.2579"/>
<polygon fill="#191970" stroke="#191970" points="913.7354,-272.7578 923.7359,-269.2593 913.7365,-265.7578 913.7354,-272.7578"/>
</g>
<!-- Node6 -->
<g id="node7" class="node">
<title>Node6</title>
<g id="a_node7"><a xlink:href="namespaceumprintmgr.xhtml#ad3a290b30a6e25500eabc0bf90330b77" target="_top" xlink:title="umprintmgr::umprintflush">
<polygon fill="#ffffff" stroke="#000000" points="941.5,-228.5 941.5,-247.5 1083.5,-247.5 1083.5,-228.5 941.5,-228.5"/>
<text text-anchor="middle" x="1012.5" y="-235.5" font-family="Helvetica,sans-Serif" font-size="10.00" fill="#000000">umprintmgr::umprintflush</text>
</a>
</g>
</g>
<!-- Node4&#45;&gt;Node6 -->
<g id="edge7" class="edge">
<title>Node4&#45;&gt;Node6</title>
<path fill="none" stroke="#191970" d="M871.9403,-266.411C897.3077,-261.2835 928.7274,-254.9328 955.4232,-249.5368"/>
<polygon fill="#191970" stroke="#191970" points="956.2925,-252.932 965.4008,-247.5201 954.9056,-246.0707 956.2925,-252.932"/>
</g>
<!-- Node5&#45;&gt;Node4 -->
<g id="edge6" class="edge">
<title>Node5&#45;&gt;Node4</title>
<path fill="none" stroke="#191970" d="M923.7359,-282.7407C913.9057,-282.7757 903.9989,-282.712 894.4473,-282.5496"/>
<polygon fill="#191970" stroke="#191970" points="894.3142,-279.0461 884.2427,-282.3347 894.1667,-286.0446 894.3142,-279.0461"/>
</g>
<!-- Node7 -->
<g id="node8" class="node">
<title>Node7</title>
<g id="a_node8"><a xlink:href="namespaceumflush__mod.xhtml#a3a003ab59990bdcb712b443dd5e0d1cd" target="_top" xlink:title="umflush_mod::umflush">
<polygon fill="#ffffff" stroke="#000000" points="1137,-228.5 1137,-247.5 1265,-247.5 1265,-228.5 1137,-228.5"/>
<text text-anchor="middle" x="1201" y="-235.5" font-family="Helvetica,sans-Serif" font-size="10.00" fill="#000000">umflush_mod::umflush</text>
</a>
</g>
</g>
<!-- Node6&#45;&gt;Node7 -->
<g id="edge8" class="edge">
<title>Node6&#45;&gt;Node7</title>
<path fill="none" stroke="#191970" d="M1083.7638,-238C1097.7742,-238 1112.5063,-238 1126.6162,-238"/>
<polygon fill="#191970" stroke="#191970" points="1126.7612,-241.5001 1136.7611,-238 1126.7611,-234.5001 1126.7612,-241.5001"/>
</g>
<!-- Node8&#45;&gt;Node4 -->
<g id="edge16" class="edge">
<title>Node8&#45;&gt;Node4</title>
<path fill="none" stroke="#191970" d="M310.0109,-133.6757C330.5281,-145.522 366.7747,-165.8725 399,-181 476.623,-217.4384 494.6617,-232.8058 578,-253 636.6197,-267.2045 705.0435,-272.7473 754.9079,-274.8563"/>
<polygon fill="#191970" stroke="#191970" points="754.8123,-278.3551 764.9403,-275.245 755.0834,-271.3604 754.8123,-278.3551"/>
</g>
<!-- Node9 -->
<g id="node10" class="node">
<title>Node9</title>
<g id="a_node10"><a xlink:href="namespaces__scmop__mod.xhtml#a38fce513317cc68592785da1765674f9" target="_top" xlink:title="s_scmop_mod::stream">
<polygon fill="#ffffff" stroke="#000000" points="761,-76.5 761,-95.5 888,-95.5 888,-76.5 761,-76.5"/>
<text text-anchor="middle" x="824.5" y="-83.5" font-family="Helvetica,sans-Serif" font-size="10.00" fill="#000000">s_scmop_mod::stream</text>
</a>
</g>
</g>
<!-- Node8&#45;&gt;Node9 -->
<g id="edge10" class="edge">
<title>Node8&#45;&gt;Node9</title>
<path fill="none" stroke="#191970" d="M341.09,-120.5943C434.0302,-113.9432 640.2336,-99.1867 750.9067,-91.2666"/>
<polygon fill="#191970" stroke="#191970" points="751.2616,-94.7502 760.9862,-90.5452 750.7618,-87.7681 751.2616,-94.7502"/>
</g>
<!-- Node10 -->
<g id="node11" class="node">
<title>Node10</title>
<g id="a_node11"><a xlink:href="namespaces__scmop__mod.xhtml#a5bda18f0a188e3401cfc9addee6bc4e9" target="_top" xlink:title="s_scmop_mod::streamison">
<polygon fill="#ffffff" stroke="#000000" points="578,-38.5 578,-57.5 725,-57.5 725,-38.5 578,-38.5"/>
<text text-anchor="middle" x="651.5" y="-45.5" font-family="Helvetica,sans-Serif" font-size="10.00" fill="#000000">s_scmop_mod::streamison</text>
</a>
</g>
</g>
<!-- Node8&#45;&gt;Node10 -->
<g id="edge11" class="edge">
<title>Node8&#45;&gt;Node10</title>
<path fill="none" stroke="#191970" d="M308.5172,-114.3962C328.3634,-102.2333 364.8174,-81.6946 399,-72 453.8918,-56.432 517.9034,-50.475 567.7406,-48.3881"/>
<polygon fill="#191970" stroke="#191970" points="567.9696,-51.882 577.8315,-48.01 567.7074,-44.8869 567.9696,-51.882"/>
</g>
<!-- Node11 -->
<g id="node12" class="node">
<title>Node11</title>
<g id="a_node12"><a xlink:href="namespaces__scmop__mod.xhtml#a0aff366ad97d283dfca70868566ddaf1" target="_top" xlink:title="s_scmop_mod::notwritten">
<polygon fill="#ffffff" stroke="#000000" points="399,-.5 399,-19.5 542,-19.5 542,-.5 399,-.5"/>
<text text-anchor="middle" x="470.5" y="-7.5" font-family="Helvetica,sans-Serif" font-size="10.00" fill="#000000">s_scmop_mod::notwritten</text>
</a>
</g>
</g>
<!-- Node8&#45;&gt;Node11 -->
<g id="edge13" class="edge">
<title>Node8&#45;&gt;Node11</title>
<path fill="none" stroke="#191970" d="M302.1764,-114.4894C319.134,-96.419 358.5632,-56.8883 399,-34 406.6997,-29.6418 415.316,-25.9122 423.8286,-22.7831"/>
<polygon fill="#191970" stroke="#191970" points="425.028,-26.0718 433.3413,-19.5038 422.7465,-19.454 425.028,-26.0718"/>
</g>
<!-- Node12 -->
<g id="node13" class="node">
<title>Node12</title>
<g id="a_node13"><a xlink:href="namespaces__scmop__mod.xhtml#ab687d11e6f6da6a26dc6ae65b1ce467f" target="_top" xlink:title="s_scmop_mod::donotwrite">
<polygon fill="#ffffff" stroke="#000000" points="579,-114.5 579,-133.5 724,-133.5 724,-114.5 579,-114.5"/>
<text text-anchor="middle" x="651.5" y="-121.5" font-family="Helvetica,sans-Serif" font-size="10.00" fill="#000000">s_scmop_mod::donotwrite</text>
</a>
</g>
</g>
<!-- Node8&#45;&gt;Node12 -->
<g id="edge15" class="edge">
<title>Node8&#45;&gt;Node12</title>
<path fill="none" stroke="#191970" d="M341.0396,-124C399.051,-124 498.1179,-124 568.7405,-124"/>
<polygon fill="#191970" stroke="#191970" points="568.9456,-127.5001 578.9456,-124 568.9455,-120.5001 568.9456,-127.5001"/>
</g>
<!-- Node13 -->
<g id="node14" class="node">
<title>Node13</title>
<g id="a_node14"><a xlink:href="newdiag_8f90.xhtml#ac4a0c6e99f87ae6a0d34479ccaa09d6c" target="_top" xlink:title="Create a new SCM diagnostic entry in SCMop. ">
<polygon fill="#ffffff" stroke="#000000" points="441.5,-152.5 441.5,-171.5 499.5,-171.5 499.5,-152.5 441.5,-152.5"/>
<text text-anchor="middle" x="470.5" y="-159.5" font-family="Helvetica,sans-Serif" font-size="10.00" fill="#000000">newdiag</text>
</a>
</g>
</g>
<!-- Node8&#45;&gt;Node13 -->
<g id="edge17" class="edge">
<title>Node8&#45;&gt;Node13</title>
<path fill="none" stroke="#191970" d="M338.1646,-133.589C366.8607,-139.7497 403.7829,-147.6766 431.3328,-153.5912"/>
<polygon fill="#191970" stroke="#191970" points="430.8841,-157.0746 441.396,-155.7517 432.3535,-150.2305 430.8841,-157.0746"/>
</g>
<!-- Node10&#45;&gt;Node9 -->
<g id="edge12" class="edge">
<title>Node10&#45;&gt;Node9</title>
<path fill="none" stroke="#191970" d="M695.1552,-57.589C718.2929,-62.6713 746.9024,-68.9554 771.3268,-74.3203"/>
<polygon fill="#191970" stroke="#191970" points="770.6406,-77.753 781.1587,-76.4799 772.1425,-70.916 770.6406,-77.753"/>
</g>
<!-- Node11&#45;&gt;Node10 -->
<g id="edge14" class="edge">
<title>Node11&#45;&gt;Node10</title>
<path fill="none" stroke="#191970" d="M516.1739,-19.589C540.4892,-24.6939 570.5802,-31.0113 596.2084,-36.3918"/>
<polygon fill="#191970" stroke="#191970" points="595.6487,-39.8505 606.1545,-38.4799 597.087,-32.9999 595.6487,-39.8505"/>
</g>
<!-- Node13&#45;&gt;Node4 -->
<g id="edge20" class="edge">
<title>Node13&#45;&gt;Node4</title>
<path fill="none" stroke="#191970" d="M485.5747,-171.6241C505.8497,-184.18 543.3681,-206.0675 578,-219 635.9376,-240.6355 704.71,-255.7144 754.8728,-264.9043"/>
<polygon fill="#191970" stroke="#191970" points="754.5041,-268.3941 764.9659,-266.72 755.7436,-261.5047 754.5041,-268.3941"/>
</g>
<!-- Node13&#45;&gt;Node9 -->
<g id="edge18" class="edge">
<title>Node13&#45;&gt;Node9</title>
<path fill="none" stroke="#191970" d="M499.5054,-163.9314C547.5608,-166.2355 646.2061,-167.1472 725,-143 754.4131,-133.9861 784.5712,-115.0856 803.858,-101.5184"/>
<polygon fill="#191970" stroke="#191970" points="806.093,-104.2219 812.1572,-95.5342 801.9989,-98.544 806.093,-104.2219"/>
</g>
<!-- Node13&#45;&gt;Node12 -->
<g id="edge19" class="edge">
<title>Node13&#45;&gt;Node12</title>
<path fill="none" stroke="#191970" d="M499.5808,-155.8946C525.5503,-150.4425 564.2955,-142.3081 596.1569,-135.619"/>
<polygon fill="#191970" stroke="#191970" points="597.1672,-138.9833 606.2347,-133.5032 595.7289,-132.1326 597.1672,-138.9833"/>
</g>
<!-- Node14 -->
<g id="node15" class="node">
<title>Node14</title>
<g id="a_node15"><a xlink:href="expand__scmop_8f90.xhtml#a44c4ca2bbc673edd7221e3044d985bee" target="_top" xlink:title="Increase the size of the SCM diagnostic arrays in SCMop. ">
<polygon fill="#ffffff" stroke="#000000" points="606.5,-190.5 606.5,-209.5 696.5,-209.5 696.5,-190.5 606.5,-190.5"/>
<text text-anchor="middle" x="651.5" y="-197.5" font-family="Helvetica,sans-Serif" font-size="10.00" fill="#000000">expand_scmop</text>
</a>
</g>
</g>
<!-- Node13&#45;&gt;Node14 -->
<g id="edge21" class="edge">
<title>Node13&#45;&gt;Node14</title>
<path fill="none" stroke="#191970" d="M499.5808,-168.1054C525.5503,-173.5575 564.2955,-181.6919 596.1569,-188.381"/>
<polygon fill="#191970" stroke="#191970" points="595.7289,-191.8674 606.2347,-190.4968 597.1672,-185.0167 595.7289,-191.8674"/>
</g>
<!-- Node14&#45;&gt;Node4 -->
<g id="edge22" class="edge">
<title>Node14&#45;&gt;Node4</title>
<path fill="none" stroke="#191970" d="M684.8575,-209.6049C697.5912,-213.6048 712.134,-218.5816 725,-224 751.2072,-235.0369 779.8597,-250.3828 799.6586,-261.5417"/>
<polygon fill="#191970" stroke="#191970" points="797.9326,-264.5865 808.3542,-266.4946 801.3972,-258.504 797.9326,-264.5865"/>
</g>
<!-- Node15&#45;&gt;Node4 -->
<g id="edge24" class="edge">
<title>Node15&#45;&gt;Node4</title>
<path fill="none" stroke="#191970" d="M504.6333,-352.9089C554.2247,-353.3133 648.6142,-350.6115 725,-328 753.0736,-319.6897 782.4589,-303.2287 801.9512,-291.0432"/>
<polygon fill="#191970" stroke="#191970" points="803.8847,-293.9612 810.4234,-285.6247 800.1132,-288.0642 803.8847,-293.9612"/>
</g>
</g>
</svg>
