<?xml version="1.0" encoding="UTF-8" standalone="no"?>
<!DOCTYPE svg PUBLIC "-//W3C//DTD SVG 1.1//EN"
 "http://www.w3.org/Graphics/SVG/1.1/DTD/svg11.dtd">
<!-- Generated by graphviz version 2.40.1 (20161225.0304)
 -->
<!-- Title: pc2_checks Pages: 1 -->
<svg width="372pt" height="28pt"
 viewBox="0.00 0.00 372.00 28.00" xmlns="http://www.w3.org/2000/svg" xmlns:xlink="http://www.w3.org/1999/xlink">
<g id="graph0" class="graph" transform="scale(1 1) rotate(0) translate(4 24)">
<title>pc2_checks</title>
<polygon fill="#ffffff" stroke="transparent" points="-4,4 -4,-24 368,-24 368,4 -4,4"/>
<!-- Node0 -->
<g id="node1" class="node">
<title>Node0</title>
<polygon fill="#bfbfbf" stroke="#000000" points="0,-.5 0,-19.5 73,-19.5 73,-.5 0,-.5"/>
<text text-anchor="middle" x="36.5" y="-7.5" font-family="Helvetica,sans-Serif" font-size="10.00" fill="#000000">pc2_checks</text>
</g>
<!-- Node1 -->
<g id="node2" class="node">
<title>Node1</title>
<g id="a_node2"><a xlink:href="qsat__wat__mix_8f90.xhtml#a2c76d0fec243d54bbf3512ebc16d81dc" target="_top" xlink:title="Saturation Specific Humidity Scheme (Qsat_Wat): Vapour to Liquid. ">
<polygon fill="#ffffff" stroke="#000000" points="109,-.5 109,-19.5 194,-19.5 194,-.5 109,-.5"/>
<text text-anchor="middle" x="151.5" y="-7.5" font-family="Helvetica,sans-Serif" font-size="10.00" fill="#000000">qsat_wat_mix</text>
</a>
</g>
</g>
<!-- Node0&#45;&gt;Node1 -->
<g id="edge1" class="edge">
<title>Node0&#45;&gt;Node1</title>
<path fill="none" stroke="#191970" d="M73.2029,-10C81.3292,-10 90.096,-10 98.7202,-10"/>
<polygon fill="#191970" stroke="#191970" points="98.7319,-13.5001 108.7319,-10 98.7318,-6.5001 98.7319,-13.5001"/>
</g>
<!-- Node2 -->
<g id="node3" class="node">
<title>Node2</title>
<g id="a_node3"><a xlink:href="namespacevectlib__mod.xhtml#a158dc38b092e77b3f84dc889d5ed2bd3" target="_top" xlink:title="vectlib_mod::oneover_v">
<polygon fill="#ffffff" stroke="#000000" points="230,-.5 230,-19.5 364,-19.5 364,-.5 230,-.5"/>
<text text-anchor="middle" x="297" y="-7.5" font-family="Helvetica,sans-Serif" font-size="10.00" fill="#000000">vectlib_mod::oneover_v</text>
</a>
</g>
</g>
<!-- Node1&#45;&gt;Node2 -->
<g id="edge2" class="edge">
<title>Node1&#45;&gt;Node2</title>
<path fill="none" stroke="#191970" d="M194.3678,-10C202.3811,-10 210.9798,-10 219.6659,-10"/>
<polygon fill="#191970" stroke="#191970" points="219.8731,-13.5001 229.8731,-10 219.8731,-6.5001 219.8731,-13.5001"/>
</g>
</g>
</svg>
