<?xml version="1.0" encoding="UTF-8" standalone="no"?>
<!DOCTYPE svg PUBLIC "-//W3C//DTD SVG 1.1//EN"
 "http://www.w3.org/Graphics/SVG/1.1/DTD/svg11.dtd">
<!-- Generated by graphviz version 2.40.1 (20161225.0304)
 -->
<!-- Title: pe_helmholtz_global_2b Pages: 1 -->
<svg width="664pt" height="28pt"
 viewBox="0.00 0.00 664.00 28.00" xmlns="http://www.w3.org/2000/svg" xmlns:xlink="http://www.w3.org/1999/xlink">
<g id="graph0" class="graph" transform="scale(1 1) rotate(0) translate(4 24)">
<title>pe_helmholtz_global_2b</title>
<polygon fill="#ffffff" stroke="transparent" points="-4,4 -4,-24 660,-24 660,4 -4,4"/>
<!-- Node47 -->
<g id="node1" class="node">
<title>Node47</title>
<polygon fill="#bfbfbf" stroke="#000000" points="0,-.5 0,-19.5 135,-19.5 135,-.5 0,-.5"/>
<text text-anchor="middle" x="67.5" y="-7.5" font-family="Helvetica,sans-Serif" font-size="10.00" fill="#000000">pe_helmholtz_global_2b</text>
</g>
<!-- Node48 -->
<g id="node2" class="node">
<title>Node48</title>
<g id="a_node2"><a xlink:href="ni__pe__helmholtz_8f90.xhtml#a69d5566c0852d7caa4baa84a26341b21" target="_top" xlink:title="ni_pe_helmholtz">
<polygon fill="#ffffff" stroke="#000000" points="171,-.5 171,-19.5 268,-19.5 268,-.5 171,-.5"/>
<text text-anchor="middle" x="219.5" y="-7.5" font-family="Helvetica,sans-Serif" font-size="10.00" fill="#000000">ni_pe_helmholtz</text>
</a>
</g>
</g>
<!-- Node47&#45;&gt;Node48 -->
<g id="edge1" class="edge">
<title>Node47&#45;&gt;Node48</title>
<path fill="none" stroke="#191970" d="M145.2639,-10C153.972,-10 162.6493,-10 170.8379,-10"/>
<polygon fill="#191970" stroke="#191970" points="145.0546,-6.5001 135.0546,-10 145.0546,-13.5001 145.0546,-6.5001"/>
</g>
<!-- Node49 -->
<g id="node3" class="node">
<title>Node49</title>
<g id="a_node3"><a xlink:href="atm__step_8f90.xhtml#ac0ee2467a1a9959b7065fdb8fd27bce4" target="_top" xlink:title="Perform a 1&#45;timestep integration of the Atmosphere Model. ">
<polygon fill="#ffffff" stroke="#000000" points="304,-.5 304,-19.5 366,-19.5 366,-.5 304,-.5"/>
<text text-anchor="middle" x="335" y="-7.5" font-family="Helvetica,sans-Serif" font-size="10.00" fill="#000000">atm_step</text>
</a>
</g>
</g>
<!-- Node48&#45;&gt;Node49 -->
<g id="edge2" class="edge">
<title>Node48&#45;&gt;Node49</title>
<path fill="none" stroke="#191970" d="M278.4239,-10C287.2051,-10 295.9501,-10 303.8463,-10"/>
<polygon fill="#191970" stroke="#191970" points="278.1477,-6.5001 268.1476,-10 278.1476,-13.5001 278.1477,-6.5001"/>
</g>
<!-- Node50 -->
<g id="node4" class="node">
<title>Node50</title>
<g id="a_node4"><a xlink:href="u__model_8f90.xhtml#ada0cd2ce4699433bf0f9adbd882c8eec" target="_top" xlink:title="Subroutine: U_MODEL &#45;!&gt; ">
<polygon fill="#ffffff" stroke="#000000" points="402,-.5 402,-19.5 461,-19.5 461,-.5 402,-.5"/>
<text text-anchor="middle" x="431.5" y="-7.5" font-family="Helvetica,sans-Serif" font-size="10.00" fill="#000000">u_model</text>
</a>
</g>
</g>
<!-- Node49&#45;&gt;Node50 -->
<g id="edge3" class="edge">
<title>Node49&#45;&gt;Node50</title>
<path fill="none" stroke="#191970" d="M376.3007,-10C384.8757,-10 393.7497,-10 401.8088,-10"/>
<polygon fill="#191970" stroke="#191970" points="376.0644,-6.5001 366.0644,-10 376.0644,-13.5001 376.0644,-6.5001"/>
</g>
<!-- Node51 -->
<g id="node5" class="node">
<title>Node51</title>
<g id="a_node5"><a xlink:href="um__shell_8f90.xhtml#a8c9bd25362824a5c301376ecb5ed5c27" target="_top" xlink:title="Subroutine: UM_SHELL !&gt; ">
<polygon fill="#ffffff" stroke="#000000" points="497,-.5 497,-19.5 558,-19.5 558,-.5 497,-.5"/>
<text text-anchor="middle" x="527.5" y="-7.5" font-family="Helvetica,sans-Serif" font-size="10.00" fill="#000000">um_shell</text>
</a>
</g>
</g>
<!-- Node50&#45;&gt;Node51 -->
<g id="edge4" class="edge">
<title>Node50&#45;&gt;Node51</title>
<path fill="none" stroke="#191970" d="M471.2581,-10C479.8053,-10 488.7119,-10 496.8497,-10"/>
<polygon fill="#191970" stroke="#191970" points="471.0865,-6.5001 461.0865,-10 471.0865,-13.5001 471.0865,-6.5001"/>
</g>
<!-- Node52 -->
<g id="node6" class="node">
<title>Node52</title>
<g id="a_node6"><a xlink:href="um__main_8f90.xhtml#a8f2d13215621443a5313261c282f098b" target="_top" xlink:title="Code Owner: See Unified Model Code Owner&#39;s HTML page. ">
<polygon fill="#ffffff" stroke="#000000" points="594,-.5 594,-19.5 656,-19.5 656,-.5 594,-.5"/>
<text text-anchor="middle" x="625" y="-7.5" font-family="Helvetica,sans-Serif" font-size="10.00" fill="#000000">um_main</text>
</a>
</g>
</g>
<!-- Node51&#45;&gt;Node52 -->
<g id="edge5" class="edge">
<title>Node51&#45;&gt;Node52</title>
<path fill="none" stroke="#191970" d="M568.2756,-10C576.8294,-10 585.72,-10 593.8551,-10"/>
<polygon fill="#191970" stroke="#191970" points="568.0821,-6.5001 558.0821,-10 568.0821,-13.5001 568.0821,-6.5001"/>
</g>
</g>
</svg>
