<?xml version="1.0" encoding="UTF-8" standalone="no"?>
<!DOCTYPE svg PUBLIC "-//W3C//DTD SVG 1.1//EN"
 "http://www.w3.org/Graphics/SVG/1.1/DTD/svg11.dtd">
<!-- Generated by graphviz version 2.40.1 (20161225.0304)
 -->
<!-- Title: pevp_bcb Pages: 1 -->
<svg width="227pt" height="66pt"
 viewBox="0.00 0.00 227.00 66.00" xmlns="http://www.w3.org/2000/svg" xmlns:xlink="http://www.w3.org/1999/xlink">
<g id="graph0" class="graph" transform="scale(1 1) rotate(0) translate(4 62)">
<title>pevp_bcb</title>
<polygon fill="#ffffff" stroke="transparent" points="-4,4 -4,-62 223,-62 223,4 -4,4"/>
<!-- Node0 -->
<g id="node1" class="node">
<title>Node0</title>
<polygon fill="#bfbfbf" stroke="#000000" points="0,-19.5 0,-38.5 63,-38.5 63,-19.5 0,-19.5"/>
<text text-anchor="middle" x="31.5" y="-26.5" font-family="Helvetica,sans-Serif" font-size="10.00" fill="#000000">pevp_bcb</text>
</g>
<!-- Node1 -->
<g id="node2" class="node">
<title>Node1</title>
<g id="a_node2"><a xlink:href="evp-evp3a_8f90.xhtml#a1f5f8c5d680d3475f55a0e4d9037eae0" target="_top" xlink:title="Calculates the evaporation of precipitation. ">
<polygon fill="#ffffff" stroke="#000000" points="104.5,-38.5 104.5,-57.5 139.5,-57.5 139.5,-38.5 104.5,-38.5"/>
<text text-anchor="middle" x="122" y="-45.5" font-family="Helvetica,sans-Serif" font-size="10.00" fill="#000000">evp</text>
</a>
</g>
</g>
<!-- Node0&#45;&gt;Node1 -->
<g id="edge1" class="edge">
<title>Node0&#45;&gt;Node1</title>
<path fill="none" stroke="#191970" d="M63.1525,-35.6453C73.3341,-37.7829 84.5283,-40.133 94.3952,-42.2045"/>
<polygon fill="#191970" stroke="#191970" points="93.9644,-45.6903 104.4702,-44.3197 95.4027,-38.8397 93.9644,-45.6903"/>
</g>
<!-- Node2 -->
<g id="node3" class="node">
<title>Node2</title>
<g id="a_node3"><a xlink:href="satcal-5a_8f90.xhtml#a47ac06b51422732dd6027cd7c3fbfc69" target="_top" xlink:title="Calculate saturated temperature. ">
<polygon fill="#ffffff" stroke="#000000" points="99,-.5 99,-19.5 145,-19.5 145,-.5 99,-.5"/>
<text text-anchor="middle" x="122" y="-7.5" font-family="Helvetica,sans-Serif" font-size="10.00" fill="#000000">satcal</text>
</a>
</g>
</g>
<!-- Node0&#45;&gt;Node2 -->
<g id="edge2" class="edge">
<title>Node0&#45;&gt;Node2</title>
<path fill="none" stroke="#191970" d="M63.1525,-22.3547C71.4872,-20.6049 80.5004,-18.7126 88.9086,-16.9474"/>
<polygon fill="#191970" stroke="#191970" points="89.711,-20.3553 98.7785,-14.8752 88.2727,-13.5046 89.711,-20.3553"/>
</g>
<!-- Node3 -->
<g id="node4" class="node">
<title>Node3</title>
<g id="a_node4"><a xlink:href="qsat_8f90.xhtml#aea6c2f88cb65e881fc815b7be5559cc9" target="_top" xlink:title="Saturation Specific Humidity Scheme (Qsat): Vapour to Liquid/Ice. ">
<polygon fill="#ffffff" stroke="#000000" points="181,-.5 181,-19.5 219,-19.5 219,-.5 181,-.5"/>
<text text-anchor="middle" x="200" y="-7.5" font-family="Helvetica,sans-Serif" font-size="10.00" fill="#000000">qsat</text>
</a>
</g>
</g>
<!-- Node2&#45;&gt;Node3 -->
<g id="edge3" class="edge">
<title>Node2&#45;&gt;Node3</title>
<path fill="none" stroke="#191970" d="M145.4026,-10C153.3536,-10 162.3403,-10 170.6935,-10"/>
<polygon fill="#191970" stroke="#191970" points="170.8098,-13.5001 180.8098,-10 170.8097,-6.5001 170.8098,-13.5001"/>
</g>
</g>
</svg>
