<?xml version="1.0" encoding="UTF-8" standalone="no"?>
<!DOCTYPE svg PUBLIC "-//W3C//DTD SVG 1.1//EN"
 "http://www.w3.org/Graphics/SVG/1.1/DTD/svg11.dtd">
<!-- Generated by graphviz version 2.40.1 (20161225.0304)
 -->
<!-- Title: pofil_wth_incs Pages: 1 -->
<svg width="613pt" height="28pt"
 viewBox="0.00 0.00 613.00 28.00" xmlns="http://www.w3.org/2000/svg" xmlns:xlink="http://www.w3.org/1999/xlink">
<g id="graph0" class="graph" transform="scale(1 1) rotate(0) translate(4 24)">
<title>pofil_wth_incs</title>
<polygon fill="#ffffff" stroke="transparent" points="-4,4 -4,-24 609,-24 609,4 -4,4"/>
<!-- Node4 -->
<g id="node1" class="node">
<title>Node4</title>
<polygon fill="#bfbfbf" stroke="#000000" points="0,-.5 0,-19.5 86,-19.5 86,-.5 0,-.5"/>
<text text-anchor="middle" x="43" y="-7.5" font-family="Helvetica,sans-Serif" font-size="10.00" fill="#000000">pofil_wth_incs</text>
</g>
<!-- Node5 -->
<g id="node2" class="node">
<title>Node5</title>
<g id="a_node2"><a xlink:href="ni__filter__incs__ctl_8f90.xhtml#aef025d632749e93242422fe4b80ca760" target="_top" xlink:title="Subroutine NI_filter_incs_Ctl. ">
<polygon fill="#ffffff" stroke="#000000" points="122,-.5 122,-19.5 217,-19.5 217,-.5 122,-.5"/>
<text text-anchor="middle" x="169.5" y="-7.5" font-family="Helvetica,sans-Serif" font-size="10.00" fill="#000000">ni_filter_incs_ctl</text>
</a>
</g>
</g>
<!-- Node4&#45;&gt;Node5 -->
<g id="edge1" class="edge">
<title>Node4&#45;&gt;Node5</title>
<path fill="none" stroke="#191970" d="M96.3149,-10C104.7562,-10 113.4396,-10 121.7434,-10"/>
<polygon fill="#191970" stroke="#191970" points="96.1804,-6.5001 86.1803,-10 96.1803,-13.5001 96.1804,-6.5001"/>
</g>
<!-- Node6 -->
<g id="node3" class="node">
<title>Node6</title>
<g id="a_node3"><a xlink:href="atm__step_8f90.xhtml#ac0ee2467a1a9959b7065fdb8fd27bce4" target="_top" xlink:title="Perform a 1&#45;timestep integration of the Atmosphere Model. ">
<polygon fill="#ffffff" stroke="#000000" points="253,-.5 253,-19.5 315,-19.5 315,-.5 253,-.5"/>
<text text-anchor="middle" x="284" y="-7.5" font-family="Helvetica,sans-Serif" font-size="10.00" fill="#000000">atm_step</text>
</a>
</g>
</g>
<!-- Node5&#45;&gt;Node6 -->
<g id="edge2" class="edge">
<title>Node5&#45;&gt;Node6</title>
<path fill="none" stroke="#191970" d="M227.3152,-10C236.0831,-10 244.8333,-10 252.7431,-10"/>
<polygon fill="#191970" stroke="#191970" points="227.0636,-6.5001 217.0636,-10 227.0636,-13.5001 227.0636,-6.5001"/>
</g>
<!-- Node7 -->
<g id="node4" class="node">
<title>Node7</title>
<g id="a_node4"><a xlink:href="u__model_8f90.xhtml#ada0cd2ce4699433bf0f9adbd882c8eec" target="_top" xlink:title="Subroutine: U_MODEL &#45;!&gt; ">
<polygon fill="#ffffff" stroke="#000000" points="351,-.5 351,-19.5 410,-19.5 410,-.5 351,-.5"/>
<text text-anchor="middle" x="380.5" y="-7.5" font-family="Helvetica,sans-Serif" font-size="10.00" fill="#000000">u_model</text>
</a>
</g>
</g>
<!-- Node6&#45;&gt;Node7 -->
<g id="edge3" class="edge">
<title>Node6&#45;&gt;Node7</title>
<path fill="none" stroke="#191970" d="M325.3007,-10C333.8757,-10 342.7497,-10 350.8088,-10"/>
<polygon fill="#191970" stroke="#191970" points="325.0644,-6.5001 315.0644,-10 325.0644,-13.5001 325.0644,-6.5001"/>
</g>
<!-- Node8 -->
<g id="node5" class="node">
<title>Node8</title>
<g id="a_node5"><a xlink:href="um__shell_8f90.xhtml#a8c9bd25362824a5c301376ecb5ed5c27" target="_top" xlink:title="Subroutine: UM_SHELL !&gt; ">
<polygon fill="#ffffff" stroke="#000000" points="446,-.5 446,-19.5 507,-19.5 507,-.5 446,-.5"/>
<text text-anchor="middle" x="476.5" y="-7.5" font-family="Helvetica,sans-Serif" font-size="10.00" fill="#000000">um_shell</text>
</a>
</g>
</g>
<!-- Node7&#45;&gt;Node8 -->
<g id="edge4" class="edge">
<title>Node7&#45;&gt;Node8</title>
<path fill="none" stroke="#191970" d="M420.2581,-10C428.8053,-10 437.7119,-10 445.8497,-10"/>
<polygon fill="#191970" stroke="#191970" points="420.0865,-6.5001 410.0865,-10 420.0865,-13.5001 420.0865,-6.5001"/>
</g>
<!-- Node9 -->
<g id="node6" class="node">
<title>Node9</title>
<g id="a_node6"><a xlink:href="um__main_8f90.xhtml#a8f2d13215621443a5313261c282f098b" target="_top" xlink:title="Code Owner: See Unified Model Code Owner&#39;s HTML page. ">
<polygon fill="#ffffff" stroke="#000000" points="543,-.5 543,-19.5 605,-19.5 605,-.5 543,-.5"/>
<text text-anchor="middle" x="574" y="-7.5" font-family="Helvetica,sans-Serif" font-size="10.00" fill="#000000">um_main</text>
</a>
</g>
</g>
<!-- Node8&#45;&gt;Node9 -->
<g id="edge5" class="edge">
<title>Node8&#45;&gt;Node9</title>
<path fill="none" stroke="#191970" d="M517.2756,-10C525.8294,-10 534.72,-10 542.8551,-10"/>
<polygon fill="#191970" stroke="#191970" points="517.0821,-6.5001 507.0821,-10 517.0821,-13.5001 517.0821,-6.5001"/>
</g>
</g>
</svg>
