<?xml version="1.0" encoding="UTF-8" standalone="no"?>
<!DOCTYPE svg PUBLIC "-//W3C//DTD SVG 1.1//EN"
 "http://www.w3.org/Graphics/SVG/1.1/DTD/svg11.dtd">
<!-- Generated by graphviz version 2.40.1 (20161225.0304)
 -->
<!-- Title: file_op_cp Pages: 1 -->
<svg width="283pt" height="28pt"
 viewBox="0.00 0.00 283.00 28.00" xmlns="http://www.w3.org/2000/svg" xmlns:xlink="http://www.w3.org/1999/xlink">
<g id="graph0" class="graph" transform="scale(1 1) rotate(0) translate(4 24)">
<title>file_op_cp</title>
<polygon fill="#ffffff" stroke="transparent" points="-4,4 -4,-24 279,-24 279,4 -4,4"/>
<!-- Node37 -->
<g id="node1" class="node">
<title>Node37</title>
<polygon fill="#bfbfbf" stroke="#000000" points="0,-.5 0,-19.5 65,-19.5 65,-.5 0,-.5"/>
<text text-anchor="middle" x="32.5" y="-7.5" font-family="Helvetica,sans-Serif" font-size="10.00" fill="#000000">file_op_cp</text>
</g>
<!-- Node38 -->
<g id="node2" class="node">
<title>Node38</title>
<g id="a_node2"><a xlink:href="portutils_8c.xhtml#a0bbfb45b72af5e615ac85ca054343414" target="_top" xlink:title="FILE_OP">
<polygon fill="#ffffff" stroke="#000000" points="101,-.5 101,-19.5 156,-19.5 156,-.5 101,-.5"/>
<text text-anchor="middle" x="128.5" y="-7.5" font-family="Helvetica,sans-Serif" font-size="10.00" fill="#000000">FILE_OP</text>
</a>
</g>
</g>
<!-- Node37&#45;&gt;Node38 -->
<g id="edge1" class="edge">
<title>Node37&#45;&gt;Node38</title>
<path fill="none" stroke="#191970" d="M75.0757,-10C83.8127,-10 92.7927,-10 100.8375,-10"/>
<polygon fill="#191970" stroke="#191970" points="75.0013,-6.5001 65.0012,-10 75.0012,-13.5001 75.0013,-6.5001"/>
</g>
<!-- Node39 -->
<g id="node3" class="node">
<title>Node39</title>
<g id="a_node3"><a xlink:href="portutils_8c.xhtml#adf71aa6cd822df12a952fd86e71a1a55" target="_top" xlink:title="file_op_mkdir">
<polygon fill="#ffffff" stroke="#000000" points="192,-.5 192,-19.5 275,-19.5 275,-.5 192,-.5"/>
<text text-anchor="middle" x="233.5" y="-7.5" font-family="Helvetica,sans-Serif" font-size="10.00" fill="#000000">file_op_mkdir</text>
</a>
</g>
</g>
<!-- Node38&#45;&gt;Node39 -->
<g id="edge2" class="edge">
<title>Node38&#45;&gt;Node39</title>
<path fill="none" stroke="#191970" d="M166.2549,-3.4924C174.5633,-3.2124 183.4079,-3.175 191.8598,-3.38"/>
<polygon fill="#191970" stroke="#191970" points="165.9096,-.0048 156.0875,-3.9767 166.2428,-6.9969 165.9096,-.0048"/>
</g>
<!-- Node39&#45;&gt;Node38 -->
<g id="edge3" class="edge">
<title>Node39&#45;&gt;Node38</title>
<path fill="none" stroke="#191970" d="M181.5885,-16.7496C172.7795,-16.7609 163.9485,-16.5188 156.0875,-16.0233"/>
<polygon fill="#191970" stroke="#191970" points="181.9048,-20.246 191.8598,-16.62 181.8164,-13.2466 181.9048,-20.246"/>
</g>
</g>
</svg>
