<?xml version="1.0" encoding="UTF-8" standalone="no"?>
<!DOCTYPE svg PUBLIC "-//W3C//DTD SVG 1.1//EN"
 "http://www.w3.org/Graphics/SVG/1.1/DTD/svg11.dtd">
<!-- Generated by graphviz version 2.40.1 (20161225.0304)
 -->
<!-- Title: file_op_mkdir Pages: 1 -->
<svg width="469pt" height="180pt"
 viewBox="0.00 0.00 469.00 180.00" xmlns="http://www.w3.org/2000/svg" xmlns:xlink="http://www.w3.org/1999/xlink">
<g id="graph0" class="graph" transform="scale(1 1) rotate(0) translate(4 176)">
<title>file_op_mkdir</title>
<polygon fill="#ffffff" stroke="transparent" points="-4,4 -4,-176 465,-176 465,4 -4,4"/>
<!-- Node40 -->
<g id="node1" class="node">
<title>Node40</title>
<polygon fill="#bfbfbf" stroke="#000000" points="0,-76.5 0,-95.5 83,-95.5 83,-76.5 0,-76.5"/>
<text text-anchor="middle" x="41.5" y="-83.5" font-family="Helvetica,sans-Serif" font-size="10.00" fill="#000000">file_op_mkdir</text>
</g>
<!-- Node41 -->
<g id="node2" class="node">
<title>Node41</title>
<g id="a_node2"><a xlink:href="portutils_8c.xhtml#a0bbfb45b72af5e615ac85ca054343414" target="_top" xlink:title="FILE_OP">
<polygon fill="#ffffff" stroke="#000000" points="119,-76.5 119,-95.5 174,-95.5 174,-76.5 119,-76.5"/>
<text text-anchor="middle" x="146.5" y="-83.5" font-family="Helvetica,sans-Serif" font-size="10.00" fill="#000000">FILE_OP</text>
</a>
</g>
</g>
<!-- Node40&#45;&gt;Node41 -->
<g id="edge1" class="edge">
<title>Node40&#45;&gt;Node41</title>
<path fill="none" stroke="#191970" d="M83.3005,-79.3762C91.6645,-79.1764 100.4068,-79.2139 108.629,-79.4885"/>
<polygon fill="#191970" stroke="#191970" points="108.544,-82.9883 118.6978,-79.9633 108.8738,-75.9961 108.544,-82.9883"/>
</g>
<!-- Node41&#45;&gt;Node40 -->
<g id="edge5" class="edge">
<title>Node41&#45;&gt;Node40</title>
<path fill="none" stroke="#191970" d="M118.6978,-92.0367C110.9058,-92.5222 102.1737,-92.7599 93.4614,-92.7497"/>
<polygon fill="#191970" stroke="#191970" points="93.3431,-89.248 83.3005,-92.6238 93.2563,-96.2475 93.3431,-89.248"/>
</g>
<!-- Node42 -->
<g id="node3" class="node">
<title>Node42</title>
<g id="a_node3"><a xlink:href="portutils_8c.xhtml#a0358408f8a3a73a1ab2d1f34b6ce8738" target="_top" xlink:title="um_str_split">
<polygon fill="#ffffff" stroke="#000000" points="212,-152.5 212,-171.5 289,-171.5 289,-152.5 212,-152.5"/>
<text text-anchor="middle" x="250.5" y="-159.5" font-family="Helvetica,sans-Serif" font-size="10.00" fill="#000000">um_str_split</text>
</a>
</g>
</g>
<!-- Node41&#45;&gt;Node42 -->
<g id="edge2" class="edge">
<title>Node41&#45;&gt;Node42</title>
<path fill="none" stroke="#191970" d="M155.6625,-95.8383C167.3948,-108.0345 188.7577,-128.9279 210,-143 212.5717,-144.7036 215.3203,-146.336 218.129,-147.8782"/>
<polygon fill="#191970" stroke="#191970" points="216.6622,-151.0588 227.1622,-152.4739 219.8364,-144.8198 216.6622,-151.0588"/>
</g>
<!-- Node43 -->
<g id="node4" class="node">
<title>Node43</title>
<g id="a_node4"><a xlink:href="portutils_8c.xhtml#a279de8533a8a8f8e4daa7b92005ecd17" target="_top" xlink:title="file_op_cp">
<polygon fill="#ffffff" stroke="#000000" points="218,-114.5 218,-133.5 283,-133.5 283,-114.5 218,-114.5"/>
<text text-anchor="middle" x="250.5" y="-121.5" font-family="Helvetica,sans-Serif" font-size="10.00" fill="#000000">file_op_cp</text>
</a>
</g>
</g>
<!-- Node41&#45;&gt;Node43 -->
<g id="edge3" class="edge">
<title>Node41&#45;&gt;Node43</title>
<path fill="none" stroke="#191970" d="M172.7436,-95.589C185.43,-100.2244 200.8527,-105.8596 214.6072,-110.8853"/>
<polygon fill="#191970" stroke="#191970" points="213.671,-114.2695 224.2648,-114.4141 216.0733,-107.6946 213.671,-114.2695"/>
</g>
<!-- Node44 -->
<g id="node5" class="node">
<title>Node44</title>
<g id="a_node5"><a xlink:href="portutils_8c.xhtml#a95525925201464ee9ce793824970e1ba" target="_top" xlink:title="file_op_rm">
<polygon fill="#ffffff" stroke="#000000" points="216.5,-76.5 216.5,-95.5 284.5,-95.5 284.5,-76.5 216.5,-76.5"/>
<text text-anchor="middle" x="250.5" y="-83.5" font-family="Helvetica,sans-Serif" font-size="10.00" fill="#000000">file_op_rm</text>
</a>
</g>
</g>
<!-- Node41&#45;&gt;Node44 -->
<g id="edge4" class="edge">
<title>Node41&#45;&gt;Node44</title>
<path fill="none" stroke="#191970" d="M174.097,-86C183.9472,-86 195.3083,-86 206.2073,-86"/>
<polygon fill="#191970" stroke="#191970" points="206.451,-89.5001 216.451,-86 206.451,-82.5001 206.451,-89.5001"/>
</g>
<!-- Node45 -->
<g id="node6" class="node">
<title>Node45</title>
<g id="a_node6"><a xlink:href="portutils_8c.xhtml#aed504b65d045c1a7509bb718b36e1e97" target="_top" xlink:title="file_op_touch">
<polygon fill="#ffffff" stroke="#000000" points="210,-38.5 210,-57.5 291,-57.5 291,-38.5 210,-38.5"/>
<text text-anchor="middle" x="250.5" y="-45.5" font-family="Helvetica,sans-Serif" font-size="10.00" fill="#000000">file_op_touch</text>
</a>
</g>
</g>
<!-- Node41&#45;&gt;Node45 -->
<g id="edge6" class="edge">
<title>Node41&#45;&gt;Node45</title>
<path fill="none" stroke="#191970" d="M172.7436,-76.411C185.43,-71.7756 200.8527,-66.1404 214.6072,-61.1147"/>
<polygon fill="#191970" stroke="#191970" points="216.0733,-64.3054 224.2648,-57.5859 213.671,-57.7305 216.0733,-64.3054"/>
</g>
<!-- Node46 -->
<g id="node7" class="node">
<title>Node46</title>
<g id="a_node7"><a xlink:href="portutils_8c.xhtml#ae7b85218ce10752263d9ffe9ea42b01c" target="_top" xlink:title="SHELL">
<polygon fill="#ffffff" stroke="#000000" points="227,-.5 227,-19.5 274,-19.5 274,-.5 227,-.5"/>
<text text-anchor="middle" x="250.5" y="-7.5" font-family="Helvetica,sans-Serif" font-size="10.00" fill="#000000">SHELL</text>
</a>
</g>
</g>
<!-- Node41&#45;&gt;Node46 -->
<g id="edge7" class="edge">
<title>Node41&#45;&gt;Node46</title>
<path fill="none" stroke="#191970" d="M155.6625,-76.1617C167.3948,-63.9655 188.7577,-43.0721 210,-29 212.5717,-27.2964 215.3203,-25.664 218.129,-24.1218"/>
<polygon fill="#191970" stroke="#191970" points="219.8364,-27.1802 227.1622,-19.5261 216.6622,-20.9412 219.8364,-27.1802"/>
</g>
<!-- Node47 -->
<g id="node8" class="node">
<title>Node47</title>
<g id="a_node8"><a xlink:href="portutils_8c.xhtml#ae175172f0f523db0e6e7e8b992e6b0e6" target="_top" xlink:title="SET_DUMPFILE_LENGTH">
<polygon fill="#ffffff" stroke="#000000" points="327,-.5 327,-19.5 461,-19.5 461,-.5 327,-.5"/>
<text text-anchor="middle" x="394" y="-7.5" font-family="Helvetica,sans-Serif" font-size="10.00" fill="#000000">SET_DUMPFILE_LENGTH</text>
</a>
</g>
</g>
<!-- Node46&#45;&gt;Node47 -->
<g id="edge8" class="edge">
<title>Node46&#45;&gt;Node47</title>
<path fill="none" stroke="#191970" d="M274.1961,-10C286.081,-10 301.2214,-10 316.7081,-10"/>
<polygon fill="#191970" stroke="#191970" points="316.9045,-13.5001 326.9044,-10 316.9044,-6.5001 316.9045,-13.5001"/>
</g>
</g>
</svg>
