<?xml version="1.0" encoding="UTF-8" standalone="no"?>
<!DOCTYPE svg PUBLIC "-//W3C//DTD SVG 1.1//EN"
 "http://www.w3.org/Graphics/SVG/1.1/DTD/svg11.dtd">
<!-- Generated by graphviz version 2.40.1 (20161225.0304)
 -->
<!-- Title: GET_FILE Pages: 1 -->
<svg width="1137pt" height="28pt"
 viewBox="0.00 0.00 1137.00 28.00" xmlns="http://www.w3.org/2000/svg" xmlns:xlink="http://www.w3.org/1999/xlink">
<g id="graph0" class="graph" transform="scale(1 1) rotate(0) translate(4 24)">
<title>GET_FILE</title>
<polygon fill="#ffffff" stroke="transparent" points="-4,4 -4,-24 1133,-24 1133,4 -4,4"/>
<!-- Node71 -->
<g id="node1" class="node">
<title>Node71</title>
<polygon fill="#bfbfbf" stroke="#000000" points="0,-.5 0,-19.5 61,-19.5 61,-.5 0,-.5"/>
<text text-anchor="middle" x="30.5" y="-7.5" font-family="Helvetica,sans-Serif" font-size="10.00" fill="#000000">GET_FILE</text>
</g>
<!-- Node72 -->
<g id="node2" class="node">
<title>Node72</title>
<g id="a_node2"><a xlink:href="portutils_8c.xhtml#a5d1448f3a2db588da0bb392babee8932" target="_top" xlink:title="ABORT">
<polygon fill="#ffffff" stroke="#000000" points="97,-.5 97,-19.5 147,-19.5 147,-.5 97,-.5"/>
<text text-anchor="middle" x="122" y="-7.5" font-family="Helvetica,sans-Serif" font-size="10.00" fill="#000000">ABORT</text>
</a>
</g>
</g>
<!-- Node71&#45;&gt;Node72 -->
<g id="edge1" class="edge">
<title>Node71&#45;&gt;Node72</title>
<path fill="none" stroke="#191970" d="M61.2227,-10C69.4906,-10 78.495,-10 86.978,-10"/>
<polygon fill="#191970" stroke="#191970" points="86.9821,-13.5001 96.9821,-10 86.9821,-6.5001 86.9821,-13.5001"/>
</g>
<!-- Node73 -->
<g id="node3" class="node">
<title>Node73</title>
<g id="a_node3"><a xlink:href="portutils_8c.xhtml#a4df173ece58c58b0ff1af7201d242dd0" target="_top" xlink:title="FORT_GET_ENV">
<polygon fill="#ffffff" stroke="#000000" points="183,-.5 183,-19.5 275,-19.5 275,-.5 183,-.5"/>
<text text-anchor="middle" x="229" y="-7.5" font-family="Helvetica,sans-Serif" font-size="10.00" fill="#000000">FORT_GET_ENV</text>
</a>
</g>
</g>
<!-- Node72&#45;&gt;Node73 -->
<g id="edge2" class="edge">
<title>Node72&#45;&gt;Node73</title>
<path fill="none" stroke="#191970" d="M147.0867,-10C154.806,-10 163.637,-10 172.5772,-10"/>
<polygon fill="#191970" stroke="#191970" points="172.6639,-13.5001 182.6638,-10 172.6638,-6.5001 172.6639,-13.5001"/>
</g>
<!-- Node74 -->
<g id="node4" class="node">
<title>Node74</title>
<g id="a_node4"><a xlink:href="portutils_8c.xhtml#a77d930660f89937928c5060f6288d4f0" target="_top" xlink:title="UM_ADDR_DIFF">
<polygon fill="#ffffff" stroke="#000000" points="311,-.5 311,-19.5 403,-19.5 403,-.5 311,-.5"/>
<text text-anchor="middle" x="357" y="-7.5" font-family="Helvetica,sans-Serif" font-size="10.00" fill="#000000">UM_ADDR_DIFF</text>
</a>
</g>
</g>
<!-- Node73&#45;&gt;Node74 -->
<g id="edge3" class="edge">
<title>Node73&#45;&gt;Node74</title>
<path fill="none" stroke="#191970" d="M275.2109,-10C283.4583,-10 292.1339,-10 300.6276,-10"/>
<polygon fill="#191970" stroke="#191970" points="300.8569,-13.5001 310.8569,-10 300.8569,-6.5001 300.8569,-13.5001"/>
</g>
<!-- Node75 -->
<g id="node5" class="node">
<title>Node75</title>
<g id="a_node5"><a xlink:href="portutils_8c.xhtml#a5d5d7fa3c10a94a300b031009d4f223e" target="_top" xlink:title="UM_ADDR_SIZE">
<polygon fill="#ffffff" stroke="#000000" points="439,-.5 439,-19.5 532,-19.5 532,-.5 439,-.5"/>
<text text-anchor="middle" x="485.5" y="-7.5" font-family="Helvetica,sans-Serif" font-size="10.00" fill="#000000">UM_ADDR_SIZE</text>
</a>
</g>
</g>
<!-- Node74&#45;&gt;Node75 -->
<g id="edge4" class="edge">
<title>Node74&#45;&gt;Node75</title>
<path fill="none" stroke="#191970" d="M403.0285,-10C411.4137,-10 420.2504,-10 428.8995,-10"/>
<polygon fill="#191970" stroke="#191970" points="428.9283,-13.5001 438.9283,-10 428.9283,-6.5001 428.9283,-13.5001"/>
</g>
<!-- Node76 -->
<g id="node6" class="node">
<title>Node76</title>
<g id="a_node6"><a xlink:href="portutils_8c.xhtml#a3898dfb201848e7e44db57bf63986be7" target="_top" xlink:title="UM_SLEEP">
<polygon fill="#ffffff" stroke="#000000" points="568,-.5 568,-19.5 635,-19.5 635,-.5 568,-.5"/>
<text text-anchor="middle" x="601.5" y="-7.5" font-family="Helvetica,sans-Serif" font-size="10.00" fill="#000000">UM_SLEEP</text>
</a>
</g>
</g>
<!-- Node75&#45;&gt;Node76 -->
<g id="edge5" class="edge">
<title>Node75&#45;&gt;Node76</title>
<path fill="none" stroke="#191970" d="M532.0133,-10C540.5274,-10 549.3856,-10 557.8137,-10"/>
<polygon fill="#191970" stroke="#191970" points="557.8287,-13.5001 567.8287,-10 557.8287,-6.5001 557.8287,-13.5001"/>
</g>
<!-- Node77 -->
<g id="node7" class="node">
<title>Node77</title>
<g id="a_node7"><a xlink:href="portutils_8c.xhtml#a9c183a8113a5a73783566ab18d6722df" target="_top" xlink:title="UM_MEMCPY">
<polygon fill="#ffffff" stroke="#000000" points="671,-.5 671,-19.5 750,-19.5 750,-.5 671,-.5"/>
<text text-anchor="middle" x="710.5" y="-7.5" font-family="Helvetica,sans-Serif" font-size="10.00" fill="#000000">UM_MEMCPY</text>
</a>
</g>
</g>
<!-- Node76&#45;&gt;Node77 -->
<g id="edge6" class="edge">
<title>Node76&#45;&gt;Node77</title>
<path fill="none" stroke="#191970" d="M635.093,-10C643.1857,-10 652.0033,-10 660.6628,-10"/>
<polygon fill="#191970" stroke="#191970" points="660.7027,-13.5001 670.7027,-10 660.7027,-6.5001 660.7027,-13.5001"/>
</g>
<!-- Node78 -->
<g id="node8" class="node">
<title>Node78</title>
<g id="a_node8"><a xlink:href="portutils_8c.xhtml#a94d62e343058a5c94fef5264c717eedd" target="_top" xlink:title="UM_MEMCPY_F">
<polygon fill="#ffffff" stroke="#000000" points="786,-.5 786,-19.5 875,-19.5 875,-.5 786,-.5"/>
<text text-anchor="middle" x="830.5" y="-7.5" font-family="Helvetica,sans-Serif" font-size="10.00" fill="#000000">UM_MEMCPY_F</text>
</a>
</g>
</g>
<!-- Node77&#45;&gt;Node78 -->
<g id="edge7" class="edge">
<title>Node77&#45;&gt;Node78</title>
<path fill="none" stroke="#191970" d="M750.1251,-10C758.3684,-10 767.1941,-10 775.8688,-10"/>
<polygon fill="#191970" stroke="#191970" points="775.939,-13.5001 785.939,-10 775.939,-6.5001 775.939,-13.5001"/>
</g>
<!-- Node79 -->
<g id="node9" class="node">
<title>Node79</title>
<g id="a_node9"><a xlink:href="portutils_8c.xhtml#ac5a9bc068a38fc043ee954c2af128a79" target="_top" xlink:title="UM_MEMCPY64">
<polygon fill="#ffffff" stroke="#000000" points="911,-.5 911,-19.5 1002,-19.5 1002,-.5 911,-.5"/>
<text text-anchor="middle" x="956.5" y="-7.5" font-family="Helvetica,sans-Serif" font-size="10.00" fill="#000000">UM_MEMCPY64</text>
</a>
</g>
</g>
<!-- Node78&#45;&gt;Node79 -->
<g id="edge8" class="edge">
<title>Node78&#45;&gt;Node79</title>
<path fill="none" stroke="#191970" d="M875.2777,-10C883.4243,-10 892.0157,-10 900.4396,-10"/>
<polygon fill="#191970" stroke="#191970" points="900.5906,-13.5001 910.5906,-10 900.5905,-6.5001 900.5906,-13.5001"/>
</g>
<!-- Node80 -->
<g id="node10" class="node">
<title>Node80</title>
<g id="a_node10"><a xlink:href="portutils_8c.xhtml#a4fdb176b80aa57a3aa4e5f345e14ff06" target="_top" xlink:title="UM_MEMCPY32">
<polygon fill="#ffffff" stroke="#000000" points="1038,-.5 1038,-19.5 1129,-19.5 1129,-.5 1038,-.5"/>
<text text-anchor="middle" x="1083.5" y="-7.5" font-family="Helvetica,sans-Serif" font-size="10.00" fill="#000000">UM_MEMCPY32</text>
</a>
</g>
</g>
<!-- Node79&#45;&gt;Node80 -->
<g id="edge9" class="edge">
<title>Node79&#45;&gt;Node80</title>
<path fill="none" stroke="#191970" d="M1002.3499,-10C1010.5329,-10 1019.1406,-10 1027.568,-10"/>
<polygon fill="#191970" stroke="#191970" points="1027.7174,-13.5001 1037.7174,-10 1027.7174,-6.5001 1027.7174,-13.5001"/>
</g>
</g>
</svg>
