<?xml version="1.0" encoding="UTF-8" standalone="no"?>
<!DOCTYPE svg PUBLIC "-//W3C//DTD SVG 1.1//EN"
 "http://www.w3.org/Graphics/SVG/1.1/DTD/svg11.dtd">
<!-- Generated by graphviz version 2.40.1 (20161225.0304)
 -->
<!-- Title: UM_SLEEP Pages: 1 -->
<svg width="879pt" height="28pt"
 viewBox="0.00 0.00 879.00 28.00" xmlns="http://www.w3.org/2000/svg" xmlns:xlink="http://www.w3.org/1999/xlink">
<g id="graph0" class="graph" transform="scale(1 1) rotate(0) translate(4 24)">
<title>UM_SLEEP</title>
<polygon fill="#ffffff" stroke="transparent" points="-4,4 -4,-24 875,-24 875,4 -4,4"/>
<!-- Node177 -->
<g id="node1" class="node">
<title>Node177</title>
<polygon fill="#bfbfbf" stroke="#000000" points="0,-.5 0,-19.5 67,-19.5 67,-.5 0,-.5"/>
<text text-anchor="middle" x="33.5" y="-7.5" font-family="Helvetica,sans-Serif" font-size="10.00" fill="#000000">UM_SLEEP</text>
</g>
<!-- Node178 -->
<g id="node2" class="node">
<title>Node178</title>
<g id="a_node2"><a xlink:href="portutils_8c.xhtml#a5d5d7fa3c10a94a300b031009d4f223e" target="_top" xlink:title="UM_ADDR_SIZE">
<polygon fill="#ffffff" stroke="#000000" points="103,-.5 103,-19.5 196,-19.5 196,-.5 103,-.5"/>
<text text-anchor="middle" x="149.5" y="-7.5" font-family="Helvetica,sans-Serif" font-size="10.00" fill="#000000">UM_ADDR_SIZE</text>
</a>
</g>
</g>
<!-- Node177&#45;&gt;Node178 -->
<g id="edge1" class="edge">
<title>Node177&#45;&gt;Node178</title>
<path fill="none" stroke="#191970" d="M77.2764,-10C85.5664,-10 94.2696,-10 102.6501,-10"/>
<polygon fill="#191970" stroke="#191970" points="77.052,-6.5001 67.052,-10 77.052,-13.5001 77.052,-6.5001"/>
</g>
<!-- Node179 -->
<g id="node3" class="node">
<title>Node179</title>
<g id="a_node3"><a xlink:href="portutils_8c.xhtml#a77d930660f89937928c5060f6288d4f0" target="_top" xlink:title="UM_ADDR_DIFF">
<polygon fill="#ffffff" stroke="#000000" points="232,-.5 232,-19.5 324,-19.5 324,-.5 232,-.5"/>
<text text-anchor="middle" x="278" y="-7.5" font-family="Helvetica,sans-Serif" font-size="10.00" fill="#000000">UM_ADDR_DIFF</text>
</a>
</g>
</g>
<!-- Node178&#45;&gt;Node179 -->
<g id="edge2" class="edge">
<title>Node178&#45;&gt;Node179</title>
<path fill="none" stroke="#191970" d="M206.5028,-10C215.0073,-10 223.6834,-10 231.9247,-10"/>
<polygon fill="#191970" stroke="#191970" points="206.255,-6.5001 196.255,-10 206.2549,-13.5001 206.255,-6.5001"/>
</g>
<!-- Node180 -->
<g id="node4" class="node">
<title>Node180</title>
<g id="a_node4"><a xlink:href="portutils_8c.xhtml#a4df173ece58c58b0ff1af7201d242dd0" target="_top" xlink:title="FORT_GET_ENV">
<polygon fill="#ffffff" stroke="#000000" points="360,-.5 360,-19.5 452,-19.5 452,-.5 360,-.5"/>
<text text-anchor="middle" x="406" y="-7.5" font-family="Helvetica,sans-Serif" font-size="10.00" fill="#000000">FORT_GET_ENV</text>
</a>
</g>
</g>
<!-- Node179&#45;&gt;Node180 -->
<g id="edge3" class="edge">
<title>Node179&#45;&gt;Node180</title>
<path fill="none" stroke="#191970" d="M334.4423,-10C342.937,-10 351.6118,-10 359.8569,-10"/>
<polygon fill="#191970" stroke="#191970" points="334.211,-6.5001 324.2109,-10 334.2109,-13.5001 334.211,-6.5001"/>
</g>
<!-- Node181 -->
<g id="node5" class="node">
<title>Node181</title>
<g id="a_node5"><a xlink:href="portutils_8c.xhtml#a5d1448f3a2db588da0bb392babee8932" target="_top" xlink:title="ABORT">
<polygon fill="#ffffff" stroke="#000000" points="488,-.5 488,-19.5 538,-19.5 538,-.5 488,-.5"/>
<text text-anchor="middle" x="513" y="-7.5" font-family="Helvetica,sans-Serif" font-size="10.00" fill="#000000">ABORT</text>
</a>
</g>
</g>
<!-- Node180&#45;&gt;Node181 -->
<g id="edge4" class="edge">
<title>Node180&#45;&gt;Node181</title>
<path fill="none" stroke="#191970" d="M462.3779,-10C471.3024,-10 480.1198,-10 487.833,-10"/>
<polygon fill="#191970" stroke="#191970" points="462.3095,-6.5001 452.3094,-10 462.3094,-13.5001 462.3095,-6.5001"/>
</g>
<!-- Node182 -->
<g id="node6" class="node">
<title>Node182</title>
<g id="a_node6"><a xlink:href="portutils_8c.xhtml#a0aa785d46f7f7e98cece74907dfa7d45" target="_top" xlink:title="GET_FILE">
<polygon fill="#ffffff" stroke="#000000" points="574,-.5 574,-19.5 635,-19.5 635,-.5 574,-.5"/>
<text text-anchor="middle" x="604.5" y="-7.5" font-family="Helvetica,sans-Serif" font-size="10.00" fill="#000000">GET_FILE</text>
</a>
</g>
</g>
<!-- Node181&#45;&gt;Node182 -->
<g id="edge5" class="edge">
<title>Node181&#45;&gt;Node182</title>
<path fill="none" stroke="#191970" d="M548.0718,-10C556.611,-10 565.6759,-10 573.9841,-10"/>
<polygon fill="#191970" stroke="#191970" points="548.0028,-6.5001 538.0028,-10 548.0027,-13.5001 548.0028,-6.5001"/>
</g>
<!-- Node183 -->
<g id="node7" class="node">
<title>Node183</title>
<g id="a_node7"><a xlink:href="portutils_8c.xhtml#a5ab22a6dd2df79cb1ed4f9fc82b3fbde" target="_top" xlink:title="WORD_LENGTH">
<polygon fill="#ffffff" stroke="#000000" points="671,-.5 671,-19.5 764,-19.5 764,-.5 671,-.5"/>
<text text-anchor="middle" x="717.5" y="-7.5" font-family="Helvetica,sans-Serif" font-size="10.00" fill="#000000">WORD_LENGTH</text>
</a>
</g>
</g>
<!-- Node182&#45;&gt;Node183 -->
<g id="edge6" class="edge">
<title>Node182&#45;&gt;Node183</title>
<path fill="none" stroke="#191970" d="M645.2406,-10C653.5167,-10 662.2831,-10 670.7484,-10"/>
<polygon fill="#191970" stroke="#191970" points="645.0795,-6.5001 635.0794,-10 645.0794,-13.5001 645.0795,-6.5001"/>
</g>
<!-- Node184 -->
<g id="node8" class="node">
<title>Node184</title>
<g id="a_node8"><a xlink:href="portutils_8c.xhtml#ab59ff8b247256eaf109edfdebe0906ce" target="_top" xlink:title="DATE_TIME">
<polygon fill="#ffffff" stroke="#000000" points="800,-.5 800,-19.5 871,-19.5 871,-.5 800,-.5"/>
<text text-anchor="middle" x="835.5" y="-7.5" font-family="Helvetica,sans-Serif" font-size="10.00" fill="#000000">DATE_TIME</text>
</a>
</g>
</g>
<!-- Node183&#45;&gt;Node184 -->
<g id="edge7" class="edge">
<title>Node183&#45;&gt;Node184</title>
<path fill="none" stroke="#191970" d="M774.2581,-10C782.944,-10 791.6947,-10 799.7558,-10"/>
<polygon fill="#191970" stroke="#191970" points="774.1368,-6.5001 764.1367,-10 774.1367,-13.5001 774.1368,-6.5001"/>
</g>
</g>
</svg>
