<?xml version="1.0" encoding="UTF-8" standalone="no"?>
<!DOCTYPE svg PUBLIC "-//W3C//DTD SVG 1.1//EN"
 "http://www.w3.org/Graphics/SVG/1.1/DTD/svg11.dtd">
<!-- Generated by graphviz version 2.40.1 (20161225.0304)
 -->
<!-- Title: pp_head Pages: 1 -->
<!--zoomable 298 -->
<svg id="main" version="1.1" xmlns="http://www.w3.org/2000/svg" xmlns:xlink="http://www.w3.org/1999/xlink" xml:space="preserve" onload="init(evt)">
<style type="text/css"><![CDATA[
.edge:hover path { stroke: red; }
.edge:hover polygon { stroke: red; fill: red; }
]]></style>
<script type="text/javascript"><![CDATA[
var edges = document.getElementsByTagName('g');
if (edges && edges.length) {
  for (var i=0;i<edges.length;i++) {
    if (edges[i].id.substr(0,4)=='edge') {
      edges[i].setAttribute('class','edge');
    }
  }
}
]]></script>
        <defs>
                <circle id="rim" cx="0" cy="0" r="7"/>
                <circle id="rim2" cx="0" cy="0" r="3.5"/>
                <g id="zoomPlus">
                        <use xlink:href="#rim" fill="#404040">
                                <set attributeName="fill" to="#808080" begin="zoomplus.mouseover" end="zoomplus.mouseout"/>
                        </use>
                        <path d="M-4,0h8M0,-4v8" fill="none" stroke="white" stroke-width="1.5" pointer-events="none"/>
                </g>
                <g id="zoomMin">
                        <use xlink:href="#rim" fill="#404040">
                                <set attributeName="fill" to="#808080" begin="zoomminus.mouseover" end="zoomminus.mouseout"/>
                        </use>
                        <path d="M-4,0h8" fill="none" stroke="white" stroke-width="1.5" pointer-events="none"/>
                </g>
                <g id="dirArrow">
                        <path fill="none" stroke="white" stroke-width="1.5" d="M0,-3.0v7 M-2.5,-0.5L0,-3.0L2.5,-0.5"/>
                </g>
               <g id="resetDef">
                       <use xlink:href="#rim2" fill="#404040">
                               <set attributeName="fill" to="#808080" begin="reset.mouseover" end="reset.mouseout"/>
                       </use>
               </g>
        </defs>

<script type="text/javascript">
var viewWidth = 895;
var viewHeight = 298;
var sectionId = 'dynsection-1';
</script>
<script xlink:href="svgpan.js"/>
<svg id="graph" class="graph">
<g id="viewport">
<title>pp_head</title>
<polygon fill="#ffffff" stroke="transparent" points="-4,4 -4,-294.4886 891,-294.4886 891,4 -4,4"/>
<!-- Node7 -->
<g id="node1" class="node">
<title>Node7</title>
<polygon fill="#bfbfbf" stroke="#000000" points="0,-118.9886 0,-137.9886 58,-137.9886 58,-118.9886 0,-118.9886"/>
<text text-anchor="middle" x="29" y="-125.9886" font-family="Helvetica,sans-Serif" font-size="10.00" fill="#000000">pp_head</text>
</g>
<!-- Node8 -->
<g id="node2" class="node">
<title>Node8</title>
<g id="a_node2"><a xlink:href="stwork_8f90.xhtml#a60176015435dd67d80b42122c78e024e" target="_top" xlink:title="Subroutine STWORK !&gt; ">
<polygon fill="#ffffff" stroke="#000000" points="94,-118.9886 94,-137.9886 144,-137.9886 144,-118.9886 94,-118.9886"/>
<text text-anchor="middle" x="119" y="-125.9886" font-family="Helvetica,sans-Serif" font-size="10.00" fill="#000000">stwork</text>
</a>
</g>
</g>
<!-- Node7&#45;&gt;Node8 -->
<g id="edge1" class="edge">
<title>Node7&#45;&gt;Node8</title>
<path fill="none" stroke="#191970" d="M68.7276,-128.4886C77.3132,-128.4886 86.1583,-128.4886 93.9898,-128.4886"/>
<polygon fill="#191970" stroke="#191970" points="68.4694,-124.9887 58.4694,-128.4886 68.4693,-131.9887 68.4694,-124.9887"/>
</g>
<!-- Node9 -->
<g id="node3" class="node">
<title>Node9</title>
<g id="a_node3"><a xlink:href="stash_8f90.xhtml#aeb6381a2ce8a30249b8dbaff0df2ebb5" target="_top" xlink:title="Subroutine STASH &#45;!&gt; ">
<polygon fill="#ffffff" stroke="#000000" points="180,-118.9886 180,-137.9886 223,-137.9886 223,-118.9886 180,-118.9886"/>
<text text-anchor="middle" x="201.5" y="-125.9886" font-family="Helvetica,sans-Serif" font-size="10.00" fill="#000000">stash</text>
</a>
</g>
</g>
<!-- Node8&#45;&gt;Node9 -->
<g id="edge2" class="edge">
<title>Node8&#45;&gt;Node9</title>
<path fill="none" stroke="#191970" d="M154.4426,-128.4886C163.0645,-128.4886 172.0319,-128.4886 179.7971,-128.4886"/>
<polygon fill="#191970" stroke="#191970" points="154.201,-124.9887 144.201,-128.4886 154.201,-131.9887 154.201,-124.9887"/>
</g>
<!-- Node10 -->
<g id="node4" class="node">
<title>Node10</title>
<g id="a_node4"><a xlink:href="st__diag1_8f90.xhtml#a448077cde050b9a7c4cad654935688ac" target="_top" xlink:title="LL Subroutine ST_DIAG1 !&gt;LL. ">
<polygon fill="#ffffff" stroke="#000000" points="286.5,-118.9886 286.5,-137.9886 344.5,-137.9886 344.5,-118.9886 286.5,-118.9886"/>
<text text-anchor="middle" x="315.5" y="-125.9886" font-family="Helvetica,sans-Serif" font-size="10.00" fill="#000000">st_diag1</text>
</a>
</g>
</g>
<!-- Node9&#45;&gt;Node10 -->
<g id="edge3" class="edge">
<title>Node9&#45;&gt;Node10</title>
<path fill="none" stroke="#191970" d="M233.4805,-128.4886C249.9916,-128.4886 269.9971,-128.4886 286.1167,-128.4886"/>
<polygon fill="#191970" stroke="#191970" points="233.2109,-124.9887 223.2109,-128.4886 233.2108,-131.9887 233.2109,-124.9887"/>
</g>
<!-- Node11 -->
<g id="node5" class="node">
<title>Node11</title>
<g id="a_node5"><a xlink:href="atm__step_8f90.xhtml#ac0ee2467a1a9959b7065fdb8fd27bce4" target="_top" xlink:title="Perform a 1&#45;timestep integration of the Atmosphere Model. ">
<polygon fill="#ffffff" stroke="#000000" points="417,-156.9886 417,-175.9886 479,-175.9886 479,-156.9886 417,-156.9886"/>
<text text-anchor="middle" x="448" y="-163.9886" font-family="Helvetica,sans-Serif" font-size="10.00" fill="#000000">atm_step</text>
</a>
</g>
</g>
<!-- Node9&#45;&gt;Node11 -->
<g id="edge25" class="edge">
<title>Node9&#45;&gt;Node11</title>
<path fill="none" stroke="#191970" d="M213.3667,-146.23C223.6258,-159.8385 239.8075,-177.5879 259,-185.4886 314.501,-208.336 386.6132,-189.0941 423.6656,-176.0607"/>
<polygon fill="#191970" stroke="#191970" points="216.1694,-144.1321 207.5081,-138.0303 210.4738,-148.2016 216.1694,-144.1321"/>
</g>
<!-- Node15 -->
<g id="node9" class="node">
<title>Node15</title>
<g id="a_node9"><a xlink:href="atm__step__4_a_8f90.xhtml#a2319aa4963e90c64cd78bdcd5f481095" target="_top" xlink:title="Perform a 1&#45;timestep integration of the Atmosphere Model. ">
<polygon fill="#ffffff" stroke="#000000" points="408,-80.9886 408,-99.9886 488,-99.9886 488,-80.9886 408,-80.9886"/>
<text text-anchor="middle" x="448" y="-87.9886" font-family="Helvetica,sans-Serif" font-size="10.00" fill="#000000">atm_step_4a</text>
</a>
</g>
</g>
<!-- Node9&#45;&gt;Node15 -->
<g id="edge26" class="edge">
<title>Node9&#45;&gt;Node15</title>
<path fill="none" stroke="#191970" d="M206.8185,-109.3494C214.2865,-86.5949 230.2928,-49.6693 259,-33.4886 302.7511,-8.8286 325.8646,-13.6443 372,-33.4886 393.3713,-42.6811 389.1734,-57.8214 408,-71.4886 412.8528,-75.0115 418.4618,-78.1515 423.9157,-80.8148"/>
<polygon fill="#191970" stroke="#191970" points="203.4583,-108.3695 203.8963,-118.9553 210.1553,-110.4068 203.4583,-108.3695"/>
</g>
<!-- Node17 -->
<g id="node11" class="node">
<title>Node17</title>
<g id="a_node11"><a xlink:href="initdiag_8f90.xhtml#a95a853661b4e10339418e4a8c29b8c9c" target="_top" xlink:title="Calculate diagnostic quantities from the initial atmosphere dump Calculate diagnostic quantities from...">
<polygon fill="#ffffff" stroke="#000000" points="421.5,-42.9886 421.5,-61.9886 474.5,-61.9886 474.5,-42.9886 421.5,-42.9886"/>
<text text-anchor="middle" x="448" y="-49.9886" font-family="Helvetica,sans-Serif" font-size="10.00" fill="#000000">initdiag</text>
</a>
</g>
</g>
<!-- Node9&#45;&gt;Node17 -->
<g id="edge32" class="edge">
<title>Node9&#45;&gt;Node17</title>
<path fill="none" stroke="#191970" d="M204.8076,-108.9736C210.5365,-82.0385 225.1218,-34.4265 259,-13.4886 316.2851,21.9155 400.1276,-22.3182 433.5095,-42.9591"/>
<polygon fill="#191970" stroke="#191970" points="201.3684,-108.3244 202.9168,-118.8055 208.2424,-109.6465 201.3684,-108.3244"/>
</g>
<!-- Node18 -->
<g id="node12" class="node">
<title>Node18</title>
<g id="a_node12"><a xlink:href="st__diag2_8f90.xhtml#ad3935d3ef8da955602b10c37af06aa57" target="_top" xlink:title="LL. ">
<polygon fill="#ffffff" stroke="#000000" points="286.5,-80.9886 286.5,-99.9886 344.5,-99.9886 344.5,-80.9886 286.5,-80.9886"/>
<text text-anchor="middle" x="315.5" y="-87.9886" font-family="Helvetica,sans-Serif" font-size="10.00" fill="#000000">st_diag2</text>
</a>
</g>
</g>
<!-- Node9&#45;&gt;Node18 -->
<g id="edge12" class="edge">
<title>Node9&#45;&gt;Node18</title>
<path fill="none" stroke="#191970" d="M233.1596,-117.9354C250.0228,-112.3143 270.6014,-105.4548 286.9674,-99.9995"/>
<polygon fill="#191970" stroke="#191970" points="231.5909,-114.7689 223.2109,-121.2517 233.8045,-121.4097 231.5909,-114.7689"/>
</g>
<!-- Node19 -->
<g id="node13" class="node">
<title>Node19</title>
<g id="a_node13"><a xlink:href="st__diag3_8f90.xhtml#a00e9b3afaa3d890cca6a5f8421814074" target="_top" xlink:title="End of Timestep climate diagnostics control routine End of Timestep climate diagnostics control routi...">
<polygon fill="#ffffff" stroke="#000000" points="286.5,-42.9886 286.5,-61.9886 344.5,-61.9886 344.5,-42.9886 286.5,-42.9886"/>
<text text-anchor="middle" x="315.5" y="-49.9886" font-family="Helvetica,sans-Serif" font-size="10.00" fill="#000000">st_diag3</text>
</a>
</g>
</g>
<!-- Node9&#45;&gt;Node19 -->
<g id="edge16" class="edge">
<title>Node9&#45;&gt;Node19</title>
<path fill="none" stroke="#191970" d="M215.5877,-110.7143C226.318,-98.215 242.0868,-81.9215 259,-71.4886 267.3675,-66.3271 277.3054,-62.3799 286.4958,-59.4566"/>
<polygon fill="#191970" stroke="#191970" points="212.7018,-108.7113 209.0119,-118.6428 218.0898,-113.18 212.7018,-108.7113"/>
</g>
<!-- Node20 -->
<g id="node14" class="node">
<title>Node20</title>
<g id="a_node14"><a xlink:href="st__mean_8f90.xhtml#a56c57d59e0430c6d123a6e4a366df8e6" target="_top" xlink:title="LL Routine: ST_MEAN &#45;!&gt;LL. ">
<polygon fill="#ffffff" stroke="#000000" points="286,-270.9886 286,-289.9886 345,-289.9886 345,-270.9886 286,-270.9886"/>
<text text-anchor="middle" x="315.5" y="-277.9886" font-family="Helvetica,sans-Serif" font-size="10.00" fill="#000000">st_mean</text>
</a>
</g>
</g>
<!-- Node9&#45;&gt;Node20 -->
<g id="edge20" class="edge">
<title>Node9&#45;&gt;Node20</title>
<path fill="none" stroke="#191970" d="M204.7867,-148.1212C210.6228,-176.9573 225.4902,-230.6712 259,-261.4886 266.3888,-268.2837 276.29,-272.6573 285.7388,-275.4687"/>
<polygon fill="#191970" stroke="#191970" points="208.186,-147.2567 202.9175,-138.0647 201.3039,-148.5359 208.186,-147.2567"/>
</g>
<!-- Node23 -->
<g id="node17" class="node">
<title>Node23</title>
<g id="a_node17"><a xlink:href="atm__step__ac__assim_8f90.xhtml#a1a53479d77027fb4fee329c374bc6062" target="_top" xlink:title="Contains atm_step code for AC assimilation. ">
<polygon fill="#ffffff" stroke="#000000" points="259,-232.9886 259,-251.9886 372,-251.9886 372,-232.9886 259,-232.9886"/>
<text text-anchor="middle" x="315.5" y="-239.9886" font-family="Helvetica,sans-Serif" font-size="10.00" fill="#000000">atm_step_ac_assim</text>
</a>
</g>
</g>
<!-- Node9&#45;&gt;Node23 -->
<g id="edge27" class="edge">
<title>Node9&#45;&gt;Node23</title>
<path fill="none" stroke="#191970" d="M209.5297,-147.5806C218.8176,-167.631 235.852,-198.9129 259,-218.4886 266.1611,-224.5445 275.0752,-229.2729 283.6909,-232.8709"/>
<polygon fill="#191970" stroke="#191970" points="212.6413,-145.9632 205.3876,-138.2409 206.2423,-148.8012 212.6413,-145.9632"/>
</g>
<!-- Node24 -->
<g id="node18" class="node">
<title>Node24</title>
<g id="a_node18"><a xlink:href="atm__step__stash_8f90.xhtml#a8e27538bbd9060910e7d0ddcf329f7e0" target="_top" xlink:title="Contains various chunks of code from atm_step &#45; the purpose of each. ">
<polygon fill="#ffffff" stroke="#000000" points="268.5,-156.9886 268.5,-175.9886 362.5,-175.9886 362.5,-156.9886 268.5,-156.9886"/>
<text text-anchor="middle" x="315.5" y="-163.9886" font-family="Helvetica,sans-Serif" font-size="10.00" fill="#000000">atm_step_stash</text>
</a>
</g>
</g>
<!-- Node9&#45;&gt;Node24 -->
<g id="edge29" class="edge">
<title>Node9&#45;&gt;Node24</title>
<path fill="none" stroke="#191970" d="M233.1596,-139.0418C250.0228,-144.6629 270.6014,-151.5224 286.9674,-156.9777"/>
<polygon fill="#191970" stroke="#191970" points="233.8045,-135.5675 223.2109,-135.7256 231.5909,-142.2083 233.8045,-135.5675"/>
</g>
<!-- Node10&#45;&gt;Node11 -->
<g id="edge4" class="edge">
<title>Node10&#45;&gt;Node11</title>
<path fill="none" stroke="#191970" d="M354.2582,-139.6042C374.1225,-145.3011 397.9953,-152.1476 416.678,-157.5057"/>
<polygon fill="#191970" stroke="#191970" points="355.1551,-136.2204 344.5777,-136.8279 353.2253,-142.9491 355.1551,-136.2204"/>
</g>
<!-- Node10&#45;&gt;Node15 -->
<g id="edge8" class="edge">
<title>Node10&#45;&gt;Node15</title>
<path fill="none" stroke="#191970" d="M354.2349,-117.3797C373.4405,-111.8717 396.3977,-105.2878 414.7891,-100.0132"/>
<polygon fill="#191970" stroke="#191970" points="353.2253,-114.0281 344.5777,-120.1493 355.1551,-120.7569 353.2253,-114.0281"/>
</g>
<!-- Node10&#45;&gt;Node17 -->
<g id="edge11" class="edge">
<title>Node10&#45;&gt;Node17</title>
<path fill="none" stroke="#191970" d="M354.245,-118.2825C360.4228,-115.8698 366.5627,-112.9616 372,-109.4886 391.6063,-96.9655 389.1734,-85.1559 408,-71.4886 412.8528,-67.9657 418.4618,-64.8257 423.9157,-62.1624"/>
<polygon fill="#191970" stroke="#191970" points="352.8729,-115.0549 344.6015,-121.6757 355.1963,-121.658 352.8729,-115.0549"/>
</g>
<!-- Node12 -->
<g id="node6" class="node">
<title>Node12</title>
<g id="a_node6"><a xlink:href="u__model_8f90.xhtml#ada0cd2ce4699433bf0f9adbd882c8eec" target="_top" xlink:title="Subroutine: U_MODEL &#45;!&gt; ">
<polygon fill="#ffffff" stroke="#000000" points="624.5,-137.9886 624.5,-156.9886 683.5,-156.9886 683.5,-137.9886 624.5,-137.9886"/>
<text text-anchor="middle" x="654" y="-144.9886" font-family="Helvetica,sans-Serif" font-size="10.00" fill="#000000">u_model</text>
</a>
</g>
</g>
<!-- Node11&#45;&gt;Node12 -->
<g id="edge5" class="edge">
<title>Node11&#45;&gt;Node12</title>
<path fill="none" stroke="#191970" d="M489.2563,-162.6834C529.2566,-158.9941 588.9479,-153.4886 624.427,-150.2162"/>
<polygon fill="#191970" stroke="#191970" points="488.9232,-159.1992 479.287,-163.6029 489.5662,-166.1696 488.9232,-159.1992"/>
</g>
<!-- Node13 -->
<g id="node7" class="node">
<title>Node13</title>
<g id="a_node7"><a xlink:href="um__shell_8f90.xhtml#a8c9bd25362824a5c301376ecb5ed5c27" target="_top" xlink:title="Subroutine: UM_SHELL !&gt; ">
<polygon fill="#ffffff" stroke="#000000" points="728,-118.9886 728,-137.9886 789,-137.9886 789,-118.9886 728,-118.9886"/>
<text text-anchor="middle" x="758.5" y="-125.9886" font-family="Helvetica,sans-Serif" font-size="10.00" fill="#000000">um_shell</text>
</a>
</g>
</g>
<!-- Node12&#45;&gt;Node13 -->
<g id="edge6" class="edge">
<title>Node12&#45;&gt;Node13</title>
<path fill="none" stroke="#191970" d="M693.701,-140.2702C704.951,-138.2248 717.0261,-136.0293 727.6677,-134.0945"/>
<polygon fill="#191970" stroke="#191970" points="692.8786,-136.8623 683.666,-142.0948 694.1308,-143.7494 692.8786,-136.8623"/>
</g>
<!-- Node14 -->
<g id="node8" class="node">
<title>Node14</title>
<g id="a_node8"><a xlink:href="um__main_8f90.xhtml#a8f2d13215621443a5313261c282f098b" target="_top" xlink:title="Code Owner: See Unified Model Code Owner&#39;s HTML page. ">
<polygon fill="#ffffff" stroke="#000000" points="825,-118.9886 825,-137.9886 887,-137.9886 887,-118.9886 825,-118.9886"/>
<text text-anchor="middle" x="856" y="-125.9886" font-family="Helvetica,sans-Serif" font-size="10.00" fill="#000000">um_main</text>
</a>
</g>
</g>
<!-- Node13&#45;&gt;Node14 -->
<g id="edge7" class="edge">
<title>Node13&#45;&gt;Node14</title>
<path fill="none" stroke="#191970" d="M799.2756,-128.4886C807.8294,-128.4886 816.72,-128.4886 824.8551,-128.4886"/>
<polygon fill="#191970" stroke="#191970" points="799.0821,-124.9887 789.0821,-128.4886 799.0821,-131.9887 799.0821,-124.9887"/>
</g>
<!-- Node16 -->
<g id="node10" class="node">
<title>Node16</title>
<g id="a_node10"><a xlink:href="u__model__4_a_8f90.xhtml#afa05064dab5eba198b461d0928767c7e" target="_top" xlink:title="LL Subroutine: U_MODEL_4A (ENDGAME VERSION) !&gt;LL. ">
<polygon fill="#ffffff" stroke="#000000" points="616,-99.9886 616,-118.9886 692,-118.9886 692,-99.9886 616,-99.9886"/>
<text text-anchor="middle" x="654" y="-106.9886" font-family="Helvetica,sans-Serif" font-size="10.00" fill="#000000">u_model_4a</text>
</a>
</g>
</g>
<!-- Node15&#45;&gt;Node16 -->
<g id="edge9" class="edge">
<title>Node15&#45;&gt;Node16</title>
<path fill="none" stroke="#191970" d="M498.5781,-95.1536C534.851,-98.4991 582.9503,-102.9355 615.9801,-105.9819"/>
<polygon fill="#191970" stroke="#191970" points="498.4871,-91.6304 488.2079,-94.1971 497.8442,-98.6008 498.4871,-91.6304"/>
</g>
<!-- Node16&#45;&gt;Node13 -->
<g id="edge10" class="edge">
<title>Node16&#45;&gt;Node13</title>
<path fill="none" stroke="#191970" d="M701.8728,-118.1927C710.7087,-119.7993 719.7128,-121.4364 727.8647,-122.9186"/>
<polygon fill="#191970" stroke="#191970" points="702.4873,-114.7472 692.0225,-116.4018 701.2351,-121.6343 702.4873,-114.7472"/>
</g>
<!-- Node18&#45;&gt;Node11 -->
<g id="edge13" class="edge">
<title>Node18&#45;&gt;Node11</title>
<path fill="none" stroke="#191970" d="M354.1691,-101.6502C360.273,-103.9325 366.4093,-106.5499 372,-109.4886 397.4023,-122.8412 423.3835,-144.3752 437.4214,-156.8004"/>
<polygon fill="#191970" stroke="#191970" points="355.2817,-98.3315 344.6869,-98.3416 352.9755,-104.9408 355.2817,-98.3315"/>
</g>
<!-- Node18&#45;&gt;Node15 -->
<g id="edge14" class="edge">
<title>Node18&#45;&gt;Node15</title>
<path fill="none" stroke="#191970" d="M354.6241,-90.4886C371.4223,-90.4886 391.0328,-90.4886 407.9339,-90.4886"/>
<polygon fill="#191970" stroke="#191970" points="354.5777,-86.9887 344.5777,-90.4886 354.5777,-93.9887 354.5777,-86.9887"/>
</g>
<!-- Node18&#45;&gt;Node17 -->
<g id="edge15" class="edge">
<title>Node18&#45;&gt;Node17</title>
<path fill="none" stroke="#191970" d="M354.3944,-79.334C375.8916,-73.1688 402.0503,-65.6666 421.244,-60.162"/>
<polygon fill="#191970" stroke="#191970" points="353.2253,-76.0281 344.5777,-82.1493 355.1551,-82.7569 353.2253,-76.0281"/>
</g>
<!-- Node19&#45;&gt;Node11 -->
<g id="edge17" class="edge">
<title>Node19&#45;&gt;Node11</title>
<path fill="none" stroke="#191970" d="M354.3083,-62.2323C360.5219,-64.7045 366.657,-67.7524 372,-71.4886 389.3959,-83.6529 426.3265,-135.2801 441.3922,-156.9022"/>
<polygon fill="#191970" stroke="#191970" points="355.1767,-58.8274 344.5819,-58.8051 352.8504,-65.4295 355.1767,-58.8274"/>
</g>
<!-- Node19&#45;&gt;Node15 -->
<g id="edge18" class="edge">
<title>Node19&#45;&gt;Node15</title>
<path fill="none" stroke="#191970" d="M354.2349,-63.5975C373.4405,-69.1055 396.3977,-75.6894 414.7891,-80.964"/>
<polygon fill="#191970" stroke="#191970" points="355.1551,-60.2204 344.5777,-60.8279 353.2253,-66.9491 355.1551,-60.2204"/>
</g>
<!-- Node19&#45;&gt;Node17 -->
<g id="edge19" class="edge">
<title>Node19&#45;&gt;Node17</title>
<path fill="none" stroke="#191970" d="M354.6865,-52.4886C376.1282,-52.4886 402.1372,-52.4886 421.244,-52.4886"/>
<polygon fill="#191970" stroke="#191970" points="354.5777,-48.9887 344.5777,-52.4886 354.5777,-55.9887 354.5777,-48.9887"/>
</g>
<!-- Node21 -->
<g id="node15" class="node">
<title>Node21</title>
<g id="a_node15"><a xlink:href="meandiag_8f90.xhtml#a72a0b96fb4670010dc65680c7e8ac636" target="_top" xlink:title="LL Routine: MEANDIAG !&gt;LL. ">
<polygon fill="#ffffff" stroke="#000000" points="415.5,-232.9886 415.5,-251.9886 480.5,-251.9886 480.5,-232.9886 415.5,-232.9886"/>
<text text-anchor="middle" x="448" y="-239.9886" font-family="Helvetica,sans-Serif" font-size="10.00" fill="#000000">meandiag</text>
</a>
</g>
</g>
<!-- Node20&#45;&gt;Node21 -->
<g id="edge21" class="edge">
<title>Node20&#45;&gt;Node21</title>
<path fill="none" stroke="#191970" d="M354.8936,-269.1908C374.0756,-263.6896 396.8735,-257.1513 415.1089,-251.9215"/>
<polygon fill="#191970" stroke="#191970" points="353.8832,-265.8394 345.2356,-271.9607 355.813,-272.5682 353.8832,-265.8394"/>
</g>
<!-- Node22 -->
<g id="node16" class="node">
<title>Node22</title>
<g id="a_node16"><a xlink:href="meanctl_8f90.xhtml#a5bbbf6327297fa87e7a0d9b511eb2b00" target="_top" xlink:title="Subroutine: MEANCTL&#45;!&gt; ">
<polygon fill="#ffffff" stroke="#000000" points="524,-118.9886 524,-137.9886 580,-137.9886 580,-118.9886 524,-118.9886"/>
<text text-anchor="middle" x="552" y="-125.9886" font-family="Helvetica,sans-Serif" font-size="10.00" fill="#000000">meanctl</text>
</a>
</g>
</g>
<!-- Node21&#45;&gt;Node22 -->
<g id="edge22" class="edge">
<title>Node21&#45;&gt;Node22</title>
<path fill="none" stroke="#191970" d="M463.6431,-225.3414C485.7824,-201.0733 525.5212,-157.5134 543.1555,-138.1836"/>
<polygon fill="#191970" stroke="#191970" points="461.0209,-223.0225 456.867,-232.769 466.1923,-227.7402 461.0209,-223.0225"/>
</g>
<!-- Node22&#45;&gt;Node12 -->
<g id="edge23" class="edge">
<title>Node22&#45;&gt;Node12</title>
<path fill="none" stroke="#191970" d="M590.1485,-135.5947C601.392,-137.6891 613.527,-139.9495 624.1674,-141.9316"/>
<polygon fill="#191970" stroke="#191970" points="590.6138,-132.1212 580.142,-133.7307 589.3319,-139.0029 590.6138,-132.1212"/>
</g>
<!-- Node22&#45;&gt;Node16 -->
<g id="edge24" class="edge">
<title>Node22&#45;&gt;Node16</title>
<path fill="none" stroke="#191970" d="M590.0329,-121.4041C598.3986,-119.8457 607.2629,-118.1945 615.6414,-116.6338"/>
<polygon fill="#191970" stroke="#191970" points="589.3319,-117.9743 580.142,-123.2465 590.6138,-124.856 589.3319,-117.9743"/>
</g>
<!-- Node23&#45;&gt;Node11 -->
<g id="edge28" class="edge">
<title>Node23&#45;&gt;Node11</title>
<path fill="none" stroke="#191970" d="M350.6188,-228.851C357.8167,-225.7019 365.2517,-222.1828 372,-218.4886 395.5595,-205.5914 420.9277,-187.2273 435.5843,-176.1259"/>
<polygon fill="#191970" stroke="#191970" points="348.8878,-225.7827 341.0373,-232.8975 351.6111,-232.2312 348.8878,-225.7827"/>
</g>
<!-- Node24&#45;&gt;Node11 -->
<g id="edge30" class="edge">
<title>Node24&#45;&gt;Node11</title>
<path fill="none" stroke="#191970" d="M372.8915,-166.4886C387.9757,-166.4886 403.6838,-166.4886 416.8117,-166.4886"/>
<polygon fill="#191970" stroke="#191970" points="372.5877,-162.9887 362.5876,-166.4886 372.5876,-169.9887 372.5877,-162.9887"/>
</g>
<!-- Node24&#45;&gt;Node15 -->
<g id="edge31" class="edge">
<title>Node24&#45;&gt;Node15</title>
<path fill="none" stroke="#191970" d="M359.2928,-153.3308C363.6676,-151.5533 367.9752,-149.6042 372,-147.4886 397.4023,-134.136 423.3835,-112.602 437.4214,-100.1768"/>
<polygon fill="#191970" stroke="#191970" points="357.8175,-150.1463 349.6922,-156.9456 360.2842,-156.6973 357.8175,-150.1463"/>
</g>
</g>
</svg>
        <g id="navigator" transform="translate(0 0)" fill="#404254">
                <rect fill="#f2f5e9" fill-opacity="0.5" stroke="#606060" stroke-width=".5" x="0" y="0" width="60" height="60"/>
                <use id="zoomplus" xlink:href="#zoomPlus" x="17" y="9" onmousedown="handleZoom(evt,'in')"/>
                <use id="zoomminus" xlink:href="#zoomMin" x="42" y="9" onmousedown="handleZoom(evt,'out')"/>
                <use id="reset" xlink:href="#resetDef" x="30" y="36" onmousedown="handleReset()"/>
                <g id="arrowUp" xlink:href="#dirArrow" transform="translate(30 24)" onmousedown="handlePan(0,-1)">
                  <use xlink:href="#rim" fill="#404040">
                        <set attributeName="fill" to="#808080" begin="arrowUp.mouseover" end="arrowUp.mouseout"/>
                  </use>
                  <path fill="none" stroke="white" stroke-width="1.5" d="M0,-3.0v7 M-2.5,-0.5L0,-3.0L2.5,-0.5"/>
                </g>
                <g id="arrowRight" xlink:href="#dirArrow" transform="rotate(90) translate(36 -43)" onmousedown="handlePan(1,0)">
                  <use xlink:href="#rim" fill="#404040">
                        <set attributeName="fill" to="#808080" begin="arrowRight.mouseover" end="arrowRight.mouseout"/>
                  </use>
                  <path fill="none" stroke="white" stroke-width="1.5" d="M0,-3.0v7 M-2.5,-0.5L0,-3.0L2.5,-0.5"/>
                </g>
                <g id="arrowDown" xlink:href="#dirArrow" transform="rotate(180) translate(-30 -48)" onmousedown="handlePan(0,1)">
                  <use xlink:href="#rim" fill="#404040">
                        <set attributeName="fill" to="#808080" begin="arrowDown.mouseover" end="arrowDown.mouseout"/>
                  </use>
                  <path fill="none" stroke="white" stroke-width="1.5" d="M0,-3.0v7 M-2.5,-0.5L0,-3.0L2.5,-0.5"/>
                </g>
                <g id="arrowLeft" xlink:href="#dirArrow" transform="rotate(270) translate(-36 17)" onmousedown="handlePan(-1,0)">
                  <use xlink:href="#rim" fill="#404040">
                        <set attributeName="fill" to="#808080" begin="arrowLeft.mouseover" end="arrowLeft.mouseout"/>
                  </use>
                  <path fill="none" stroke="white" stroke-width="1.5" d="M0,-3.0v7 M-2.5,-0.5L0,-3.0L2.5,-0.5"/>
                </g>
        </g>
        <svg viewBox="0 0 15 15" width="100%" height="30px" preserveAspectRatio="xMaxYMin meet">
         <g id="arrow_out" transform="scale(0.3 0.3)">
          <a xlink:href="pp__head_8f90_af375be95fa8e37afc539c88bfc02a057_icgraph_org.svg" target="_base">
           <rect id="button" ry="5" rx="5" y="6" x="6" height="38" width="38"
                fill="#f2f5e9" fill-opacity="0.5" stroke="#606060" stroke-width="1.0"/>
           <path id="arrow"
             d="M 11.500037,31.436501 C 11.940474,20.09759 22.043105,11.32322 32.158766,21.979434 L 37.068811,17.246167 C 37.068811,17.246167 37.088388,32 37.088388,32 L 22.160133,31.978069 C 22.160133,31.978069 26.997745,27.140456 26.997745,27.140456 C 18.528582,18.264221 13.291696,25.230495 11.500037,31.436501 z"
             style="fill:#404040;"/>
          </a>
         </g>
        </svg>
</svg>
