<?xml version="1.0" encoding="UTF-8" standalone="no"?>
<!DOCTYPE svg PUBLIC "-//W3C//DTD SVG 1.1//EN"
 "http://www.w3.org/Graphics/SVG/1.1/DTD/svg11.dtd">
<!-- Generated by graphviz version 2.40.1 (20161225.0304)
 -->
<!-- Title: print_ops_diag Pages: 1 -->
<svg width="628pt" height="66pt"
 viewBox="0.00 0.00 628.00 66.00" xmlns="http://www.w3.org/2000/svg" xmlns:xlink="http://www.w3.org/1999/xlink">
<g id="graph0" class="graph" transform="scale(1 1) rotate(0) translate(4 62)">
<title>print_ops_diag</title>
<polygon fill="#ffffff" stroke="transparent" points="-4,4 -4,-62 624,-62 624,4 -4,4"/>
<!-- Node0 -->
<g id="node1" class="node">
<title>Node0</title>
<polygon fill="#bfbfbf" stroke="#000000" points="0,-38.5 0,-57.5 88,-57.5 88,-38.5 0,-38.5"/>
<text text-anchor="middle" x="44" y="-45.5" font-family="Helvetica,sans-Serif" font-size="10.00" fill="#000000">print_ops_diag</text>
</g>
<!-- Node1 -->
<g id="node2" class="node">
<title>Node1</title>
<g id="a_node2"><a xlink:href="namespaceumprintmgr.xhtml#aae44897e556705dbf5e945a26538be9a" target="_top" xlink:title="umprintmgr::umprint">
<polygon fill="#ffffff" stroke="#000000" points="124,-38.5 124,-57.5 243,-57.5 243,-38.5 124,-38.5"/>
<text text-anchor="middle" x="183.5" y="-45.5" font-family="Helvetica,sans-Serif" font-size="10.00" fill="#000000">umprintmgr::umprint</text>
</a>
</g>
</g>
<!-- Node0&#45;&gt;Node1 -->
<g id="edge1" class="edge">
<title>Node0&#45;&gt;Node1</title>
<path fill="none" stroke="#191970" d="M88.1387,-48C96.2856,-48 104.9738,-48 113.6638,-48"/>
<polygon fill="#191970" stroke="#191970" points="113.8336,-51.5001 123.8336,-48 113.8336,-44.5001 113.8336,-51.5001"/>
</g>
<!-- Node2 -->
<g id="node3" class="node">
<title>Node2</title>
<g id="a_node3"><a xlink:href="namespaceumprintmgr.xhtml#a088ce22a18d574e9df7ee1850bfb10c7" target="_top" xlink:title="umprintmgr::umprintopenstream">
<polygon fill="#ffffff" stroke="#000000" points="279,-38.5 279,-57.5 456,-57.5 456,-38.5 279,-38.5"/>
<text text-anchor="middle" x="367.5" y="-45.5" font-family="Helvetica,sans-Serif" font-size="10.00" fill="#000000">umprintmgr::umprintopenstream</text>
</a>
</g>
</g>
<!-- Node1&#45;&gt;Node2 -->
<g id="edge2" class="edge">
<title>Node1&#45;&gt;Node2</title>
<path fill="none" stroke="#191970" d="M243.2395,-41.6333C251.4605,-41.4301 260.0751,-41.3077 268.7702,-41.2661"/>
<polygon fill="#191970" stroke="#191970" points="268.9998,-44.7659 278.9958,-41.2543 268.9917,-37.7659 268.9998,-44.7659"/>
</g>
<!-- Node3 -->
<g id="node4" class="node">
<title>Node3</title>
<g id="a_node4"><a xlink:href="namespaceumprintmgr.xhtml#ad3a290b30a6e25500eabc0bf90330b77" target="_top" xlink:title="umprintmgr::umprintflush">
<polygon fill="#ffffff" stroke="#000000" points="296.5,-.5 296.5,-19.5 438.5,-19.5 438.5,-.5 296.5,-.5"/>
<text text-anchor="middle" x="367.5" y="-7.5" font-family="Helvetica,sans-Serif" font-size="10.00" fill="#000000">umprintmgr::umprintflush</text>
</a>
</g>
</g>
<!-- Node1&#45;&gt;Node3 -->
<g id="edge4" class="edge">
<title>Node1&#45;&gt;Node3</title>
<path fill="none" stroke="#191970" d="M229.931,-38.411C254.6493,-33.3061 285.239,-26.9887 311.292,-21.6082"/>
<polygon fill="#191970" stroke="#191970" points="312.3175,-24.9703 321.4029,-19.5201 310.9017,-18.115 312.3175,-24.9703"/>
</g>
<!-- Node2&#45;&gt;Node1 -->
<g id="edge3" class="edge">
<title>Node2&#45;&gt;Node1</title>
<path fill="none" stroke="#191970" d="M278.9958,-54.7457C270.3802,-54.767 261.7236,-54.7094 253.3289,-54.5727"/>
<polygon fill="#191970" stroke="#191970" points="253.3089,-51.0716 243.2395,-54.3667 253.166,-58.0702 253.3089,-51.0716"/>
</g>
<!-- Node4 -->
<g id="node5" class="node">
<title>Node4</title>
<g id="a_node5"><a xlink:href="namespaceumflush__mod.xhtml#a3a003ab59990bdcb712b443dd5e0d1cd" target="_top" xlink:title="umflush_mod::umflush">
<polygon fill="#ffffff" stroke="#000000" points="492,-.5 492,-19.5 620,-19.5 620,-.5 492,-.5"/>
<text text-anchor="middle" x="556" y="-7.5" font-family="Helvetica,sans-Serif" font-size="10.00" fill="#000000">umflush_mod::umflush</text>
</a>
</g>
</g>
<!-- Node3&#45;&gt;Node4 -->
<g id="edge5" class="edge">
<title>Node3&#45;&gt;Node4</title>
<path fill="none" stroke="#191970" d="M438.7638,-10C452.7742,-10 467.5063,-10 481.6162,-10"/>
<polygon fill="#191970" stroke="#191970" points="481.7612,-13.5001 491.7611,-10 481.7611,-6.5001 481.7612,-13.5001"/>
</g>
</g>
</svg>
