<?xml version="1.0" encoding="UTF-8" standalone="no"?>
<!DOCTYPE svg PUBLIC "-//W3C//DTD SVG 1.1//EN"
 "http://www.w3.org/Graphics/SVG/1.1/DTD/svg11.dtd">
<!-- Generated by graphviz version 2.40.1 (20161225.0304)
 -->
<!-- Title: quintic_lagrange Pages: 1 -->
<svg width="1343pt" height="305pt"
 viewBox="0.00 0.00 1343.00 305.18" xmlns="http://www.w3.org/2000/svg" xmlns:xlink="http://www.w3.org/1999/xlink">
<g id="graph0" class="graph" transform="scale(1 1) rotate(0) translate(4 301.1831)">
<title>quintic_lagrange</title>
<polygon fill="#ffffff" stroke="transparent" points="-4,4 -4,-301.1831 1339,-301.1831 1339,4 -4,4"/>
<!-- Node1 -->
<g id="node1" class="node">
<title>Node1</title>
<polygon fill="#bfbfbf" stroke="#000000" points="0,-125.6831 0,-144.6831 98,-144.6831 98,-125.6831 0,-125.6831"/>
<text text-anchor="middle" x="49" y="-132.6831" font-family="Helvetica,sans-Serif" font-size="10.00" fill="#000000">quintic_lagrange</text>
</g>
<!-- Node2 -->
<g id="node2" class="node">
<title>Node2</title>
<g id="a_node2"><a xlink:href="interpolation_8f90.xhtml#a593bf062ab906072e9835ea48c50cdcd" target="_top" xlink:title="Subroutine Interpolation. ">
<polygon fill="#ffffff" stroke="#000000" points="149.5,-125.6831 149.5,-144.6831 228.5,-144.6831 228.5,-125.6831 149.5,-125.6831"/>
<text text-anchor="middle" x="189" y="-132.6831" font-family="Helvetica,sans-Serif" font-size="10.00" fill="#000000">interpolation</text>
</a>
</g>
</g>
<!-- Node1&#45;&gt;Node2 -->
<g id="edge1" class="edge">
<title>Node1&#45;&gt;Node2</title>
<path fill="none" stroke="#191970" d="M108.7058,-135.1831C122.421,-135.1831 136.6751,-135.1831 149.2999,-135.1831"/>
<polygon fill="#191970" stroke="#191970" points="108.3588,-131.6832 98.3588,-135.1831 108.3587,-138.6832 108.3588,-131.6832"/>
</g>
<!-- Node19 -->
<g id="node19" class="node">
<title>Node19</title>
<g id="a_node19"><a xlink:href="interpolation__multi_8f90.xhtml#a217620cc0a5c28d870beb42e777e9544" target="_top" xlink:title="Subroutine Interpolation_multi. ">
<polygon fill="#ffffff" stroke="#000000" points="134,-11.6831 134,-30.6831 244,-30.6831 244,-11.6831 134,-11.6831"/>
<text text-anchor="middle" x="189" y="-18.6831" font-family="Helvetica,sans-Serif" font-size="10.00" fill="#000000">interpolation_multi</text>
</a>
</g>
</g>
<!-- Node1&#45;&gt;Node19 -->
<g id="edge25" class="edge">
<title>Node1&#45;&gt;Node19</title>
<path fill="none" stroke="#191970" d="M68.904,-118.9756C98.4604,-94.9082 153.0459,-50.46 177.0939,-30.8781"/>
<polygon fill="#191970" stroke="#191970" points="66.4807,-116.4352 60.9363,-125.4635 70.9007,-121.8633 66.4807,-116.4352"/>
</g>
<!-- Node21 -->
<g id="node21" class="node">
<title>Node21</title>
<g id="a_node21"><a xlink:href="interpolation__qcon__multi_8f90.xhtml#a5af4e63677cfc71f2524a3121626c962" target="_top" xlink:title="Subroutine Interpolation_qcon_multi. ">
<polygon fill="#ffffff" stroke="#000000" points="381,-240.1831 381,-270.1831 488,-270.1831 488,-240.1831 381,-240.1831"/>
<text text-anchor="start" x="389" y="-258.1831" font-family="Helvetica,sans-Serif" font-size="10.00" fill="#000000">interpolation_qcon</text>
<text text-anchor="middle" x="434.5" y="-247.1831" font-family="Helvetica,sans-Serif" font-size="10.00" fill="#000000">_multi</text>
</a>
</g>
</g>
<!-- Node1&#45;&gt;Node21 -->
<g id="edge28" class="edge">
<title>Node1&#45;&gt;Node21</title>
<path fill="none" stroke="#191970" d="M85.1682,-148.1492C130.4572,-164.2104 210.5424,-192.0366 280,-213.1831 313.2391,-223.3028 350.8538,-233.5536 380.6463,-241.3947"/>
<polygon fill="#191970" stroke="#191970" points="86.104,-144.7673 75.5092,-144.7149 83.7588,-151.3628 86.104,-144.7673"/>
</g>
<!-- Node3 -->
<g id="node3" class="node">
<title>Node3</title>
<g id="a_node3"><a xlink:href="ritchie_8f90.xhtml#ae902e59848fdf2d044e2d5b862992cc5" target="_top" xlink:title="Subroutine Ritchie. ">
<polygon fill="#ffffff" stroke="#000000" points="289,-163.6831 289,-182.6831 336,-182.6831 336,-163.6831 289,-163.6831"/>
<text text-anchor="middle" x="312.5" y="-170.6831" font-family="Helvetica,sans-Serif" font-size="10.00" fill="#000000">ritchie</text>
</a>
</g>
</g>
<!-- Node2&#45;&gt;Node3 -->
<g id="edge2" class="edge">
<title>Node2&#45;&gt;Node3</title>
<path fill="none" stroke="#191970" d="M229.7595,-147.7245C249.3174,-153.7423 272.0639,-160.7412 288.7519,-165.876"/>
<polygon fill="#191970" stroke="#191970" points="230.7514,-144.3678 220.1643,-144.7721 228.6927,-151.0583 230.7514,-144.3678"/>
</g>
<!-- Node12 -->
<g id="node12" class="node">
<title>Node12</title>
<g id="a_node12"><a xlink:href="sl__thermo_8f90.xhtml#adf4851495d7846c5a9b0e1c12a57ce8f" target="_top" xlink:title="Subroutine SL_Thermo. ">
<polygon fill="#ffffff" stroke="#000000" points="582.5,-49.6831 582.5,-68.6831 647.5,-68.6831 647.5,-49.6831 582.5,-49.6831"/>
<text text-anchor="middle" x="615" y="-56.6831" font-family="Helvetica,sans-Serif" font-size="10.00" fill="#000000">sl_thermo</text>
</a>
</g>
</g>
<!-- Node2&#45;&gt;Node12 -->
<g id="edge20" class="edge">
<title>Node2&#45;&gt;Node12</title>
<path fill="none" stroke="#191970" d="M224.5913,-122.1897C262.7294,-108.8433 325.3087,-88.5938 381,-78.1831 451.9145,-64.9266 536.6295,-60.9186 582.1614,-59.7073"/>
<polygon fill="#191970" stroke="#191970" points="223.2359,-118.9565 214.975,-125.5903 225.5698,-125.556 223.2359,-118.9565"/>
</g>
<!-- Node14 -->
<g id="node14" class="node">
<title>Node14</title>
<g id="a_node14"><a xlink:href="sl__vector__u_8f90.xhtml#a5e399b856774cc15de601c340496c8f1" target="_top" xlink:title="Subroutine SL_Vector_u. ">
<polygon fill="#ffffff" stroke="#000000" points="579,-163.6831 579,-182.6831 651,-182.6831 651,-163.6831 579,-163.6831"/>
<text text-anchor="middle" x="615" y="-170.6831" font-family="Helvetica,sans-Serif" font-size="10.00" fill="#000000">sl_vector_u</text>
</a>
</g>
</g>
<!-- Node2&#45;&gt;Node14 -->
<g id="edge21" class="edge">
<title>Node2&#45;&gt;Node14</title>
<path fill="none" stroke="#191970" d="M207.9306,-151.538C225.3367,-165.4157 252.5365,-184.292 280,-192.1831 368.8495,-217.7123 395.8103,-199.041 488,-192.1831 518.7921,-189.8925 553.4388,-184.5191 578.7566,-180.0691"/>
<polygon fill="#191970" stroke="#191970" points="209.7165,-148.4748 199.7715,-144.8212 205.2675,-153.8791 209.7165,-148.4748"/>
</g>
<!-- Node17 -->
<g id="node17" class="node">
<title>Node17</title>
<g id="a_node17"><a xlink:href="sl__vector__v_8f90.xhtml#a4e6c465727d0bb4de3fb7f972ebe5891" target="_top" xlink:title="Subroutine SL_Vector_v. ">
<polygon fill="#ffffff" stroke="#000000" points="579,-125.6831 579,-144.6831 651,-144.6831 651,-125.6831 579,-125.6831"/>
<text text-anchor="middle" x="615" y="-132.6831" font-family="Helvetica,sans-Serif" font-size="10.00" fill="#000000">sl_vector_v</text>
</a>
</g>
</g>
<!-- Node2&#45;&gt;Node17 -->
<g id="edge22" class="edge">
<title>Node2&#45;&gt;Node17</title>
<path fill="none" stroke="#191970" d="M238.8255,-135.1831C325.6738,-135.1831 502.7719,-135.1831 578.8984,-135.1831"/>
<polygon fill="#191970" stroke="#191970" points="238.6945,-131.6832 228.6945,-135.1831 238.6945,-138.6832 238.6945,-131.6832"/>
</g>
<!-- Node18 -->
<g id="node18" class="node">
<title>Node18</title>
<g id="a_node18"><a xlink:href="sl__vector__w_8f90.xhtml#a53acbb28c82fd398f312631723d1e6b7" target="_top" xlink:title="Subroutine SL_Vector_w. ">
<polygon fill="#ffffff" stroke="#000000" points="397.5,-87.6831 397.5,-106.6831 471.5,-106.6831 471.5,-87.6831 397.5,-87.6831"/>
<text text-anchor="middle" x="434.5" y="-94.6831" font-family="Helvetica,sans-Serif" font-size="10.00" fill="#000000">sl_vector_w</text>
</a>
</g>
</g>
<!-- Node2&#45;&gt;Node18 -->
<g id="edge23" class="edge">
<title>Node2&#45;&gt;Node18</title>
<path fill="none" stroke="#191970" d="M238.6634,-127.4959C285.5827,-120.2334 354.907,-109.503 397.254,-102.9483"/>
<polygon fill="#191970" stroke="#191970" points="238.0636,-124.047 228.7167,-129.0355 239.1344,-130.9646 238.0636,-124.047"/>
</g>
<!-- Node4 -->
<g id="node4" class="node">
<title>Node4</title>
<g id="a_node4"><a xlink:href="departure__point_8f90.xhtml#a297b14ecfc1ba82fa9e3828f168628ac" target="_top" xlink:title="Subroutine Departure_Point. ">
<polygon fill="#ffffff" stroke="#000000" points="387.5,-163.6831 387.5,-182.6831 481.5,-182.6831 481.5,-163.6831 387.5,-163.6831"/>
<text text-anchor="middle" x="434.5" y="-170.6831" font-family="Helvetica,sans-Serif" font-size="10.00" fill="#000000">departure_point</text>
</a>
</g>
</g>
<!-- Node3&#45;&gt;Node4 -->
<g id="edge3" class="edge">
<title>Node3&#45;&gt;Node4</title>
<path fill="none" stroke="#191970" d="M346.1657,-173.1831C358.8774,-173.1831 373.5858,-173.1831 387.3098,-173.1831"/>
<polygon fill="#191970" stroke="#191970" points="346.0229,-169.6832 336.0228,-173.1831 346.0228,-176.6832 346.0229,-169.6832"/>
</g>
<!-- Node5 -->
<g id="node5" class="node">
<title>Node5</title>
<g id="a_node5"><a xlink:href="sl__moist__nonhydro__conserve_8f90.xhtml#a195479266dc50a7e71e2138310fd3469" target="_top" xlink:title="Subroutine SL_moist_nonhydro_conserve. ">
<polygon fill="#ffffff" stroke="#000000" points="536,-239.6831 536,-258.6831 694,-258.6831 694,-239.6831 536,-239.6831"/>
<text text-anchor="middle" x="615" y="-246.6831" font-family="Helvetica,sans-Serif" font-size="10.00" fill="#000000">sl_moist_nonhydro_conserve</text>
</a>
</g>
</g>
<!-- Node4&#45;&gt;Node5 -->
<g id="edge4" class="edge">
<title>Node4&#45;&gt;Node5</title>
<path fill="none" stroke="#191970" d="M454.7056,-189.0832C472.1208,-202.0183 498.4266,-219.7766 524,-230.1831 533.4179,-234.0155 543.7115,-237.1123 553.8796,-239.6035"/>
<polygon fill="#191970" stroke="#191970" points="456.541,-186.0823 446.4599,-182.8231 452.3082,-191.6576 456.541,-186.0823"/>
</g>
<!-- Node11 -->
<g id="node11" class="node">
<title>Node11</title>
<g id="a_node11"><a xlink:href="sl__moist__nonhydro__conserve__mix_8f90.xhtml#a8fea5324561cd0085bdd77a3db00418e" target="_top" xlink:title="Subroutine SL_moist_nonhydro_conserve_mix. ">
<polygon fill="#ffffff" stroke="#000000" points="524,-201.6831 524,-220.6831 706,-220.6831 706,-201.6831 524,-201.6831"/>
<text text-anchor="middle" x="615" y="-208.6831" font-family="Helvetica,sans-Serif" font-size="10.00" fill="#000000">sl_moist_nonhydro_conserve_mix</text>
</a>
</g>
</g>
<!-- Node4&#45;&gt;Node11 -->
<g id="edge10" class="edge">
<title>Node4&#45;&gt;Node11</title>
<path fill="none" stroke="#191970" d="M489.0641,-184.797C500.5987,-187.2436 512.6992,-189.8038 524,-192.1831 538.6875,-195.2754 554.7132,-198.6285 569.1665,-201.6447"/>
<polygon fill="#191970" stroke="#191970" points="489.6165,-181.3363 479.1076,-182.6836 488.163,-188.1838 489.6165,-181.3363"/>
</g>
<!-- Node4&#45;&gt;Node12 -->
<g id="edge11" class="edge">
<title>Node4&#45;&gt;Node12</title>
<path fill="none" stroke="#191970" d="M458.0566,-158.1127C476.0873,-146.5941 501.5851,-130.3406 524,-116.1831 550.4791,-99.4586 581.3948,-80.1372 599.5205,-68.8299"/>
<polygon fill="#191970" stroke="#191970" points="455.9053,-155.3339 449.3642,-163.6685 459.6751,-161.2321 455.9053,-155.3339"/>
</g>
<!-- Node4&#45;&gt;Node14 -->
<g id="edge14" class="edge">
<title>Node4&#45;&gt;Node14</title>
<path fill="none" stroke="#191970" d="M492.139,-173.1831C520.5446,-173.1831 553.9299,-173.1831 578.7241,-173.1831"/>
<polygon fill="#191970" stroke="#191970" points="491.9243,-169.6832 481.9243,-173.1831 491.9242,-176.6832 491.9243,-169.6832"/>
</g>
<!-- Node4&#45;&gt;Node17 -->
<g id="edge18" class="edge">
<title>Node4&#45;&gt;Node17</title>
<path fill="none" stroke="#191970" d="M489.0641,-161.5692C500.5987,-159.1227 512.6992,-156.5624 524,-154.1831 542.0041,-150.3925 562.0189,-146.2102 578.6833,-142.7366"/>
<polygon fill="#191970" stroke="#191970" points="488.163,-158.1825 479.1076,-163.6826 489.6165,-165.0299 488.163,-158.1825"/>
</g>
<!-- Node6 -->
<g id="node6" class="node">
<title>Node6</title>
<g id="a_node6"><a xlink:href="ni__sl__moist_8f90.xhtml#a0e40166b48c1cdb3d5246a3f297e7fec" target="_top" xlink:title="Subroutine NI_SL_MOIST. ">
<polygon fill="#ffffff" stroke="#000000" points="866.5,-201.6831 866.5,-220.6831 938.5,-220.6831 938.5,-201.6831 866.5,-201.6831"/>
<text text-anchor="middle" x="902.5" y="-208.6831" font-family="Helvetica,sans-Serif" font-size="10.00" fill="#000000">ni_sl_moist</text>
</a>
</g>
</g>
<!-- Node5&#45;&gt;Node6 -->
<g id="edge5" class="edge">
<title>Node5&#45;&gt;Node6</title>
<path fill="none" stroke="#191970" d="M697.4035,-238.2915C753.1708,-230.9205 824.1005,-221.5455 866.2558,-215.9737"/>
<polygon fill="#191970" stroke="#191970" points="696.6324,-234.8629 687.1773,-239.6432 697.5497,-241.8025 696.6324,-234.8629"/>
</g>
<!-- Node7 -->
<g id="node7" class="node">
<title>Node7</title>
<g id="a_node7"><a xlink:href="atm__step_8f90.xhtml#ac0ee2467a1a9959b7065fdb8fd27bce4" target="_top" xlink:title="Perform a 1&#45;timestep integration of the Atmosphere Model. ">
<polygon fill="#ffffff" stroke="#000000" points="983,-125.6831 983,-144.6831 1045,-144.6831 1045,-125.6831 983,-125.6831"/>
<text text-anchor="middle" x="1014" y="-132.6831" font-family="Helvetica,sans-Serif" font-size="10.00" fill="#000000">atm_step</text>
</a>
</g>
</g>
<!-- Node6&#45;&gt;Node7 -->
<g id="edge6" class="edge">
<title>Node6&#45;&gt;Node7</title>
<path fill="none" stroke="#191970" d="M924.8869,-195.9239C947.3086,-180.6409 981.1193,-157.5951 999.9931,-144.7304"/>
<polygon fill="#191970" stroke="#191970" points="922.9133,-193.0333 916.6216,-201.5577 926.8559,-198.8175 922.9133,-193.0333"/>
</g>
<!-- Node8 -->
<g id="node8" class="node">
<title>Node8</title>
<g id="a_node8"><a xlink:href="u__model_8f90.xhtml#ada0cd2ce4699433bf0f9adbd882c8eec" target="_top" xlink:title="Subroutine: U_MODEL &#45;!&gt; ">
<polygon fill="#ffffff" stroke="#000000" points="1081,-125.6831 1081,-144.6831 1140,-144.6831 1140,-125.6831 1081,-125.6831"/>
<text text-anchor="middle" x="1110.5" y="-132.6831" font-family="Helvetica,sans-Serif" font-size="10.00" fill="#000000">u_model</text>
</a>
</g>
</g>
<!-- Node7&#45;&gt;Node8 -->
<g id="edge7" class="edge">
<title>Node7&#45;&gt;Node8</title>
<path fill="none" stroke="#191970" d="M1055.3007,-135.1831C1063.8757,-135.1831 1072.7497,-135.1831 1080.8088,-135.1831"/>
<polygon fill="#191970" stroke="#191970" points="1055.0644,-131.6832 1045.0644,-135.1831 1055.0644,-138.6832 1055.0644,-131.6832"/>
</g>
<!-- Node9 -->
<g id="node9" class="node">
<title>Node9</title>
<g id="a_node9"><a xlink:href="um__shell_8f90.xhtml#a8c9bd25362824a5c301376ecb5ed5c27" target="_top" xlink:title="Subroutine: UM_SHELL !&gt; ">
<polygon fill="#ffffff" stroke="#000000" points="1176,-125.6831 1176,-144.6831 1237,-144.6831 1237,-125.6831 1176,-125.6831"/>
<text text-anchor="middle" x="1206.5" y="-132.6831" font-family="Helvetica,sans-Serif" font-size="10.00" fill="#000000">um_shell</text>
</a>
</g>
</g>
<!-- Node8&#45;&gt;Node9 -->
<g id="edge8" class="edge">
<title>Node8&#45;&gt;Node9</title>
<path fill="none" stroke="#191970" d="M1150.2581,-135.1831C1158.8053,-135.1831 1167.7119,-135.1831 1175.8497,-135.1831"/>
<polygon fill="#191970" stroke="#191970" points="1150.0865,-131.6832 1140.0865,-135.1831 1150.0865,-138.6832 1150.0865,-131.6832"/>
</g>
<!-- Node10 -->
<g id="node10" class="node">
<title>Node10</title>
<g id="a_node10"><a xlink:href="um__main_8f90.xhtml#a8f2d13215621443a5313261c282f098b" target="_top" xlink:title="Code Owner: See Unified Model Code Owner&#39;s HTML page. ">
<polygon fill="#ffffff" stroke="#000000" points="1273,-125.6831 1273,-144.6831 1335,-144.6831 1335,-125.6831 1273,-125.6831"/>
<text text-anchor="middle" x="1304" y="-132.6831" font-family="Helvetica,sans-Serif" font-size="10.00" fill="#000000">um_main</text>
</a>
</g>
</g>
<!-- Node9&#45;&gt;Node10 -->
<g id="edge9" class="edge">
<title>Node9&#45;&gt;Node10</title>
<path fill="none" stroke="#191970" d="M1247.2756,-135.1831C1255.8294,-135.1831 1264.72,-135.1831 1272.8551,-135.1831"/>
<polygon fill="#191970" stroke="#191970" points="1247.0821,-131.6832 1237.0821,-135.1831 1247.0821,-138.6832 1247.0821,-131.6832"/>
</g>
<!-- Node13 -->
<g id="node13" class="node">
<title>Node13</title>
<g id="a_node13"><a xlink:href="ni__sl__thermo_8f90.xhtml#a17ce9696a494a15c73ba0ce0df90e052" target="_top" xlink:title="Subroutine NI_SL_Thermo. ">
<polygon fill="#ffffff" stroke="#000000" points="742,-68.6831 742,-87.6831 822,-87.6831 822,-68.6831 742,-68.6831"/>
<text text-anchor="middle" x="782" y="-75.6831" font-family="Helvetica,sans-Serif" font-size="10.00" fill="#000000">ni_sl_thermo</text>
</a>
</g>
</g>
<!-- Node12&#45;&gt;Node13 -->
<g id="edge12" class="edge">
<title>Node12&#45;&gt;Node13</title>
<path fill="none" stroke="#191970" d="M657.8553,-64.0589C683.7147,-67.001 716.4529,-70.7257 741.8167,-73.6114"/>
<polygon fill="#191970" stroke="#191970" points="657.9273,-60.5446 647.5957,-62.8916 657.1359,-67.4997 657.9273,-60.5446"/>
</g>
<!-- Node13&#45;&gt;Node7 -->
<g id="edge13" class="edge">
<title>Node13&#45;&gt;Node7</title>
<path fill="none" stroke="#191970" d="M831.9553,-89.0063C864.7594,-96.2811 908.5538,-106.3112 947,-116.1831 958.7107,-119.1901 971.4958,-122.747 982.729,-125.9655"/>
<polygon fill="#191970" stroke="#191970" points="832.6651,-85.5788 822.1456,-86.8403 831.1557,-92.4141 832.6651,-85.5788"/>
</g>
<!-- Node15 -->
<g id="node15" class="node">
<title>Node15</title>
<g id="a_node15"><a xlink:href="sl__full__wind_8f90.xhtml#a739c13209ac7d57db72c07bbd5f4f7a7" target="_top" xlink:title="Subroutine SL_Full_Wind. ">
<polygon fill="#ffffff" stroke="#000000" points="745,-125.6831 745,-144.6831 819,-144.6831 819,-125.6831 745,-125.6831"/>
<text text-anchor="middle" x="782" y="-132.6831" font-family="Helvetica,sans-Serif" font-size="10.00" fill="#000000">sl_full_wind</text>
</a>
</g>
</g>
<!-- Node14&#45;&gt;Node15 -->
<g id="edge15" class="edge">
<title>Node14&#45;&gt;Node15</title>
<path fill="none" stroke="#191970" d="M661.4948,-163.841C675.7957,-160.8694 691.5692,-157.4921 706,-154.1831 718.7262,-151.2649 732.5953,-147.8635 744.9604,-144.7517"/>
<polygon fill="#191970" stroke="#191970" points="660.469,-160.4788 651.382,-165.9264 661.8828,-167.3346 660.469,-160.4788"/>
</g>
<!-- Node16 -->
<g id="node16" class="node">
<title>Node16</title>
<g id="a_node16"><a xlink:href="ni__sl__full__wind_8f90.xhtml#a282239161173ea1930089c837257d8e2" target="_top" xlink:title="Subroutine NI_SL_Full_Wind. ">
<polygon fill="#ffffff" stroke="#000000" points="858,-125.6831 858,-144.6831 947,-144.6831 947,-125.6831 858,-125.6831"/>
<text text-anchor="middle" x="902.5" y="-132.6831" font-family="Helvetica,sans-Serif" font-size="10.00" fill="#000000">ni_sl_full_wind</text>
</a>
</g>
</g>
<!-- Node15&#45;&gt;Node16 -->
<g id="edge16" class="edge">
<title>Node15&#45;&gt;Node16</title>
<path fill="none" stroke="#191970" d="M829.4034,-135.1831C838.702,-135.1831 848.4287,-135.1831 857.641,-135.1831"/>
<polygon fill="#191970" stroke="#191970" points="829.1372,-131.6832 819.1372,-135.1831 829.1372,-138.6832 829.1372,-131.6832"/>
</g>
<!-- Node16&#45;&gt;Node7 -->
<g id="edge17" class="edge">
<title>Node16&#45;&gt;Node7</title>
<path fill="none" stroke="#191970" d="M957.447,-135.1831C966.2232,-135.1831 975.0259,-135.1831 982.985,-135.1831"/>
<polygon fill="#191970" stroke="#191970" points="957.2089,-131.6832 947.2089,-135.1831 957.2088,-138.6832 957.2089,-131.6832"/>
</g>
<!-- Node17&#45;&gt;Node15 -->
<g id="edge19" class="edge">
<title>Node17&#45;&gt;Node15</title>
<path fill="none" stroke="#191970" d="M661.3771,-135.1831C687.7475,-135.1831 720.3205,-135.1831 744.9681,-135.1831"/>
<polygon fill="#191970" stroke="#191970" points="661.2365,-131.6832 651.2365,-135.1831 661.2365,-138.6832 661.2365,-131.6832"/>
</g>
<!-- Node18&#45;&gt;Node15 -->
<g id="edge24" class="edge">
<title>Node18&#45;&gt;Node15</title>
<path fill="none" stroke="#191970" d="M481.6524,-97.9841C536.03,-99.4845 627.9632,-103.7958 706,-116.1831 720.2383,-118.4432 735.7155,-122.0892 748.9646,-125.5859"/>
<polygon fill="#191970" stroke="#191970" points="481.7066,-94.4844 471.6204,-97.7276 481.5277,-101.4821 481.7066,-94.4844"/>
</g>
<!-- Node19&#45;&gt;Node12 -->
<g id="edge26" class="edge">
<title>Node19&#45;&gt;Node12</title>
<path fill="none" stroke="#191970" d="M235.8823,-9.4718C249.9717,-6.4745 265.5314,-3.6775 280,-2.1831 395.6064,9.7569 531.6671,-30.4337 588.242,-49.5932"/>
<polygon fill="#191970" stroke="#191970" points="234.9284,-6.098 225.9195,-11.6739 236.4393,-12.9331 234.9284,-6.098"/>
</g>
<!-- Node20 -->
<g id="node20" class="node">
<title>Node20</title>
<g id="a_node20"><a xlink:href="sl__tracer1-sltrac1__2a_8f90.xhtml#af448d6756a8decaa3050ca4273f070a8" target="_top" xlink:title="Subroutine SL_Tracer1. ">
<polygon fill="#ffffff" stroke="#000000" points="280,-11.6831 280,-30.6831 345,-30.6831 345,-11.6831 280,-11.6831"/>
<text text-anchor="middle" x="312.5" y="-18.6831" font-family="Helvetica,sans-Serif" font-size="10.00" fill="#000000">sl_tracer1</text>
</a>
</g>
</g>
<!-- Node19&#45;&gt;Node20 -->
<g id="edge27" class="edge">
<title>Node19&#45;&gt;Node20</title>
<path fill="none" stroke="#191970" d="M254.2952,-21.1831C263.192,-21.1831 271.9904,-21.1831 279.9484,-21.1831"/>
<polygon fill="#191970" stroke="#191970" points="254.2481,-17.6832 244.248,-21.1831 254.248,-24.6832 254.2481,-17.6832"/>
</g>
<!-- Node21&#45;&gt;Node5 -->
<g id="edge29" class="edge">
<title>Node21&#45;&gt;Node5</title>
<path fill="none" stroke="#191970" d="M498.1976,-253.0657C510.3623,-252.6614 523.2336,-252.2335 535.8137,-251.8153"/>
<polygon fill="#191970" stroke="#191970" points="498.0454,-249.5688 488.1672,-253.3992 498.278,-256.5649 498.0454,-249.5688"/>
</g>
<!-- Node21&#45;&gt;Node11 -->
<g id="edge30" class="edge">
<title>Node21&#45;&gt;Node11</title>
<path fill="none" stroke="#191970" d="M496.3327,-237.3343C505.5804,-234.8327 515.0217,-232.3718 524,-230.1831 537.6417,-226.8576 552.5212,-223.598 566.2218,-220.7436"/>
<polygon fill="#191970" stroke="#191970" points="495.125,-234.0362 486.4051,-240.054 496.9746,-240.7874 495.125,-234.0362"/>
</g>
<!-- Node22 -->
<g id="node22" class="node">
<title>Node22</title>
<g id="a_node22"><a xlink:href="sl__tracer2-sltrac2__2a_8f90.xhtml#a98a988d433775ff84772962feb2655ef" target="_top" xlink:title="Subroutine SL_tracer2. ">
<polygon fill="#ffffff" stroke="#000000" points="582.5,-277.6831 582.5,-296.6831 647.5,-296.6831 647.5,-277.6831 582.5,-277.6831"/>
<text text-anchor="middle" x="615" y="-284.6831" font-family="Helvetica,sans-Serif" font-size="10.00" fill="#000000">sl_tracer2</text>
</a>
</g>
</g>
<!-- Node21&#45;&gt;Node22 -->
<g id="edge31" class="edge">
<title>Node21&#45;&gt;Node22</title>
<path fill="none" stroke="#191970" d="M498.0721,-266.4535C526.5951,-271.5102 559.0242,-277.2594 582.4834,-281.4184"/>
<polygon fill="#191970" stroke="#191970" points="498.6247,-262.997 488.1672,-264.6975 497.4027,-269.8895 498.6247,-262.997"/>
</g>
</g>
</svg>
