<?xml version="1.0" encoding="UTF-8" standalone="no"?>
<!DOCTYPE svg PUBLIC "-//W3C//DTD SVG 1.1//EN"
 "http://www.w3.org/Graphics/SVG/1.1/DTD/svg11.dtd">
<!-- Generated by graphviz version 2.40.1 (20161225.0304)
 -->
<!-- Title: copy_input_field_real Pages: 1 -->
<!--zoomable 689 -->
<svg id="main" version="1.1" xmlns="http://www.w3.org/2000/svg" xmlns:xlink="http://www.w3.org/1999/xlink" xml:space="preserve" onload="init(evt)">
<style type="text/css"><![CDATA[
.edge:hover path { stroke: red; }
.edge:hover polygon { stroke: red; fill: red; }
]]></style>
<script type="text/javascript"><![CDATA[
var edges = document.getElementsByTagName('g');
if (edges && edges.length) {
  for (var i=0;i<edges.length;i++) {
    if (edges[i].id.substr(0,4)=='edge') {
      edges[i].setAttribute('class','edge');
    }
  }
}
]]></script>
        <defs>
                <circle id="rim" cx="0" cy="0" r="7"/>
                <circle id="rim2" cx="0" cy="0" r="3.5"/>
                <g id="zoomPlus">
                        <use xlink:href="#rim" fill="#404040">
                                <set attributeName="fill" to="#808080" begin="zoomplus.mouseover" end="zoomplus.mouseout"/>
                        </use>
                        <path d="M-4,0h8M0,-4v8" fill="none" stroke="white" stroke-width="1.5" pointer-events="none"/>
                </g>
                <g id="zoomMin">
                        <use xlink:href="#rim" fill="#404040">
                                <set attributeName="fill" to="#808080" begin="zoomminus.mouseover" end="zoomminus.mouseout"/>
                        </use>
                        <path d="M-4,0h8" fill="none" stroke="white" stroke-width="1.5" pointer-events="none"/>
                </g>
                <g id="dirArrow">
                        <path fill="none" stroke="white" stroke-width="1.5" d="M0,-3.0v7 M-2.5,-0.5L0,-3.0L2.5,-0.5"/>
                </g>
               <g id="resetDef">
                       <use xlink:href="#rim2" fill="#404040">
                               <set attributeName="fill" to="#808080" begin="reset.mouseover" end="reset.mouseout"/>
                       </use>
               </g>
        </defs>

<script type="text/javascript">
var viewWidth = 1412;
var viewHeight = 689;
var sectionId = 'dynsection-2';
</script>
<script xlink:href="svgpan.js"/>
<svg id="graph" class="graph">
<g id="viewport">
<title>copy_input_field_real</title>
<polygon fill="#ffffff" stroke="transparent" points="-4,4 -4,-685.4735 1408,-685.4735 1408,4 -4,4"/>
<!-- Node49 -->
<g id="node1" class="node">
<title>Node49</title>
<polygon fill="#bfbfbf" stroke="#000000" points="0,-349.263 0,-368.263 120,-368.263 120,-349.263 0,-349.263"/>
<text text-anchor="middle" x="60" y="-356.263" font-family="Helvetica,sans-Serif" font-size="10.00" fill="#000000">copy_input_field_real</text>
</g>
<!-- Node50 -->
<g id="node2" class="node">
<title>Node50</title>
<g id="a_node2"><a xlink:href="namespacercf__vertical__mod.xhtml#a4ed70c43ac9779e08feb240a88428cb2" target="_top" xlink:title="Subroutine Rcf_Vertical &#45; wrapper for vertical interpolation. ">
<polygon fill="#ffffff" stroke="#000000" points="156,-343.763 156,-373.763 273,-373.763 273,-343.763 156,-343.763"/>
<text text-anchor="start" x="164" y="-361.763" font-family="Helvetica,sans-Serif" font-size="10.00" fill="#000000">rcf_vertical_mod::rcf</text>
<text text-anchor="middle" x="214.5" y="-350.763" font-family="Helvetica,sans-Serif" font-size="10.00" fill="#000000">_vertical</text>
</a>
</g>
</g>
<!-- Node49&#45;&gt;Node50 -->
<g id="edge1" class="edge">
<title>Node49&#45;&gt;Node50</title>
<path fill="none" stroke="#191970" d="M130.4258,-358.763C138.8962,-358.763 147.4769,-358.763 155.7562,-358.763"/>
<polygon fill="#191970" stroke="#191970" points="130.1762,-355.2631 120.1761,-358.763 130.1761,-362.2631 130.1762,-355.2631"/>
</g>
<!-- Node51 -->
<g id="node3" class="node">
<title>Node51</title>
<g id="a_node3"><a xlink:href="namespacercf__interpolate__mod.xhtml#a69c11fea979d74b2dc45c3929395fdb8" target="_top" xlink:title="Subroutine Rcf_Interpolate &#45; top level interpolation wrapper. ">
<polygon fill="#ffffff" stroke="#000000" points="309,-343.763 309,-373.763 424,-373.763 424,-343.763 309,-343.763"/>
<text text-anchor="start" x="317" y="-361.763" font-family="Helvetica,sans-Serif" font-size="10.00" fill="#000000">rcf_interpolate_mod</text>
<text text-anchor="middle" x="366.5" y="-350.763" font-family="Helvetica,sans-Serif" font-size="10.00" fill="#000000">::rcf_interpolate</text>
</a>
</g>
</g>
<!-- Node50&#45;&gt;Node51 -->
<g id="edge2" class="edge">
<title>Node50&#45;&gt;Node51</title>
<path fill="none" stroke="#191970" d="M283.5249,-358.763C292.0054,-358.763 300.6027,-358.763 308.8897,-358.763"/>
<polygon fill="#191970" stroke="#191970" points="283.2672,-355.2631 273.2672,-358.763 283.2671,-362.2631 283.2672,-355.2631"/>
</g>
<!-- Node52 -->
<g id="node4" class="node">
<title>Node52</title>
<g id="a_node4"><a xlink:href="namespacercf__adjust__pstar__mod.xhtml#a2e7249e62b48f51a745b23b9f1423b02" target="_top" xlink:title="Subroutine Rcf_Adjust_Pstar Adjusts P* when an ancillary orography has been used with an interpolated...">
<polygon fill="#ffffff" stroke="#000000" points="477.5,-605.763 477.5,-635.763 599.5,-635.763 599.5,-605.763 477.5,-605.763"/>
<text text-anchor="start" x="485.5" y="-623.763" font-family="Helvetica,sans-Serif" font-size="10.00" fill="#000000">rcf_adjust_pstar_mod</text>
<text text-anchor="middle" x="538.5" y="-612.763" font-family="Helvetica,sans-Serif" font-size="10.00" fill="#000000">::rcf_adjust_pstar</text>
</a>
</g>
</g>
<!-- Node51&#45;&gt;Node52 -->
<g id="edge3" class="edge">
<title>Node51&#45;&gt;Node52</title>
<path fill="none" stroke="#191970" d="M369.8951,-383.6893C377.5429,-430.5191 400.3566,-532.1876 460,-590.763 466.2456,-596.8968 473.8757,-601.8033 481.8982,-605.7209"/>
<polygon fill="#191970" stroke="#191970" points="373.3523,-383.1427 368.3737,-373.7905 366.4335,-384.2061 373.3523,-383.1427"/>
</g>
<!-- Node53 -->
<g id="node5" class="node">
<title>Node53</title>
<g id="a_node5"><a xlink:href="namespacercf__calc__output__exner__mod.xhtml#ac4151773b597c2381d693b523d1d6ecc" target="_top" xlink:title="Subroutine Rcf_Calc_Output_Exner. ">
<polygon fill="#ffffff" stroke="#000000" points="653,-567.763 653,-597.763 810,-597.763 810,-567.763 653,-567.763"/>
<text text-anchor="start" x="661" y="-585.763" font-family="Helvetica,sans-Serif" font-size="10.00" fill="#000000">rcf_calc_output_exner</text>
<text text-anchor="middle" x="731.5" y="-574.763" font-family="Helvetica,sans-Serif" font-size="10.00" fill="#000000">_mod::rcf_calc_output_exner</text>
</a>
</g>
</g>
<!-- Node51&#45;&gt;Node53 -->
<g id="edge12" class="edge">
<title>Node51&#45;&gt;Node53</title>
<path fill="none" stroke="#191970" d="M370.6251,-383.8763C379.063,-426.4536 402.5865,-512.1321 460,-552.763 515.6449,-592.1424 594.4043,-596.7561 652.7741,-593.231"/>
<polygon fill="#191970" stroke="#191970" points="374.0199,-382.9877 368.752,-373.7953 367.1377,-384.2664 374.0199,-382.9877"/>
</g>
<!-- Node55 -->
<g id="node7" class="node">
<title>Node55</title>
<g id="a_node7"><a xlink:href="namespacercf__create__dump__mod.xhtml#a2f1f869ea648718c07cc083ce73c40c9" target="_top" xlink:title="Subroutine Rcf_Create_Dump &#45; main dump creation loop. ">
<polygon fill="#ffffff" stroke="#000000" points="1022,-504.763 1022,-534.763 1147,-534.763 1147,-504.763 1022,-504.763"/>
<text text-anchor="start" x="1030" y="-522.763" font-family="Helvetica,sans-Serif" font-size="10.00" fill="#000000">rcf_create_dump_mod</text>
<text text-anchor="middle" x="1084.5" y="-511.763" font-family="Helvetica,sans-Serif" font-size="10.00" fill="#000000">::rcf_create_dump</text>
</a>
</g>
</g>
<!-- Node51&#45;&gt;Node55 -->
<g id="edge16" class="edge">
<title>Node51&#45;&gt;Node55</title>
<path fill="none" stroke="#191970" d="M374.0581,-383.9824C386.0049,-418.9009 412.8747,-480.8235 460,-508.763 553.3924,-564.1331 882.7948,-539.61 1021.8359,-526.303"/>
<polygon fill="#191970" stroke="#191970" points="377.2557,-382.4991 370.8237,-374.08 370.6016,-384.6726 377.2557,-382.4991"/>
</g>
<!-- Node58 -->
<g id="node10" class="node">
<title>Node58</title>
<g id="a_node10"><a xlink:href="namespacercf__ancil__atmos__mod.xhtml#a4af82ab1081f4074c046dcc4cb69aa4c" target="_top" xlink:title="Subroutine Rcf_Ancil_Atmos &#45; Ancillary processing for Atmosphere. ">
<polygon fill="#ffffff" stroke="#000000" points="671,-640.763 671,-670.763 792,-670.763 792,-640.763 671,-640.763"/>
<text text-anchor="start" x="679" y="-658.763" font-family="Helvetica,sans-Serif" font-size="10.00" fill="#000000">rcf_ancil_atmos_mod</text>
<text text-anchor="middle" x="731.5" y="-647.763" font-family="Helvetica,sans-Serif" font-size="10.00" fill="#000000">::rcf_ancil_atmos</text>
</a>
</g>
</g>
<!-- Node51&#45;&gt;Node58 -->
<g id="edge9" class="edge">
<title>Node51&#45;&gt;Node58</title>
<path fill="none" stroke="#191970" d="M370.9436,-383.9773C382.7565,-447.8613 416.9937,-613.3174 460,-645.763 521.8459,-692.422 616.0946,-683.3245 675.7077,-670.8102"/>
<polygon fill="#191970" stroke="#191970" points="374.3539,-383.1678 369.1212,-373.9553 367.4668,-384.4201 374.3539,-383.1678"/>
</g>
<!-- Node60 -->
<g id="node12" class="node">
<title>Node60</title>
<g id="a_node12"><a xlink:href="namespacercf__change__dust__bins__mod.xhtml#a7b3aedcab558637faa5f7b38994298db" target="_top" xlink:title="Calculates the contents of the bins for a 2 bin dust scheme!&gt; from the bin contents in a 6 bin dust s...">
<polygon fill="#ffffff" stroke="#000000" points="461,-196.763 461,-226.763 616,-226.763 616,-196.763 461,-196.763"/>
<text text-anchor="start" x="469" y="-214.763" font-family="Helvetica,sans-Serif" font-size="10.00" fill="#000000">rcf_change_dust_bins</text>
<text text-anchor="middle" x="538.5" y="-203.763" font-family="Helvetica,sans-Serif" font-size="10.00" fill="#000000">_mod::rcf_change_dust_bins</text>
</a>
</g>
</g>
<!-- Node51&#45;&gt;Node60 -->
<g id="edge13" class="edge">
<title>Node51&#45;&gt;Node60</title>
<path fill="none" stroke="#191970" d="M378.8973,-334.3733C394.2587,-306.5433 422.9942,-261.5591 460,-235.763 464.9102,-232.3402 470.3222,-229.3945 475.9392,-226.8615"/>
<polygon fill="#191970" stroke="#191970" points="375.6751,-332.9758 374.0299,-343.4421 381.8429,-336.2862 375.6751,-332.9758"/>
</g>
<!-- Node62 -->
<g id="node14" class="node">
<title>Node62</title>
<g id="a_node14"><a xlink:href="namespacercf__derv__2d__cca__mod.xhtml#a82bfdfa1d1706bde9be0fef4ac04469d" target="_top" xlink:title="Subroutine Rcf_Derv_2D_CCA. ">
<polygon fill="#ffffff" stroke="#000000" points="477.5,-147.763 477.5,-177.763 599.5,-177.763 599.5,-147.763 477.5,-147.763"/>
<text text-anchor="start" x="485.5" y="-165.763" font-family="Helvetica,sans-Serif" font-size="10.00" fill="#000000">rcf_derv_2d_cca_mod</text>
<text text-anchor="middle" x="538.5" y="-154.763" font-family="Helvetica,sans-Serif" font-size="10.00" fill="#000000">::rcf_derv_2d_cca</text>
</a>
</g>
</g>
<!-- Node51&#45;&gt;Node62 -->
<g id="edge17" class="edge">
<title>Node51&#45;&gt;Node62</title>
<path fill="none" stroke="#191970" d="M373.3429,-333.9831C384.9372,-296.5923 411.9941,-225.9655 460,-186.763 465.188,-182.5264 471.117,-179.0365 477.34,-176.1619"/>
<polygon fill="#191970" stroke="#191970" points="369.9805,-333.011 370.4782,-343.5941 376.6889,-335.0105 369.9805,-333.011"/>
</g>
<!-- Node63 -->
<g id="node15" class="node">
<title>Node63</title>
<g id="a_node15"><a xlink:href="namespacercf__derv__dry__rho__mod.xhtml#a4d738cd4a9a6916cf27295643be81d1e" target="_top" xlink:title="Subroutine Rcf_Derv_Dry_Rho_Mod. ">
<polygon fill="#ffffff" stroke="#000000" points="476,-98.763 476,-128.763 601,-128.763 601,-98.763 476,-98.763"/>
<text text-anchor="start" x="484" y="-116.763" font-family="Helvetica,sans-Serif" font-size="10.00" fill="#000000">rcf_derv_dry_rho_mod</text>
<text text-anchor="middle" x="538.5" y="-105.763" font-family="Helvetica,sans-Serif" font-size="10.00" fill="#000000">::rcf_derv_dry_rho</text>
</a>
</g>
</g>
<!-- Node51&#45;&gt;Node63 -->
<g id="edge19" class="edge">
<title>Node51&#45;&gt;Node63</title>
<path fill="none" stroke="#191970" d="M370.0704,-333.6847C377.8983,-288.0159 400.8445,-191.0905 460,-137.763 464.6574,-133.5645 470.0328,-130.1002 475.7418,-127.2418"/>
<polygon fill="#191970" stroke="#191970" points="366.6032,-333.2018 368.4684,-343.6312 373.5141,-334.315 366.6032,-333.2018"/>
</g>
<!-- Node64 -->
<g id="node16" class="node">
<title>Node64</title>
<g id="a_node16"><a xlink:href="namespacercf__derv__etadot__mod.xhtml#a00ddc13a66ee85b1559964f42a9edf35" target="_top" xlink:title="Subroutine Rcf_Derv_Etadot_Mod. ">
<polygon fill="#ffffff" stroke="#000000" points="478.5,-49.763 478.5,-79.763 598.5,-79.763 598.5,-49.763 478.5,-49.763"/>
<text text-anchor="start" x="486.5" y="-67.763" font-family="Helvetica,sans-Serif" font-size="10.00" fill="#000000">rcf_derv_etadot_mod</text>
<text text-anchor="middle" x="538.5" y="-56.763" font-family="Helvetica,sans-Serif" font-size="10.00" fill="#000000">::rcf_derv_etadot</text>
</a>
</g>
</g>
<!-- Node51&#45;&gt;Node64 -->
<g id="edge21" class="edge">
<title>Node51&#45;&gt;Node64</title>
<path fill="none" stroke="#191970" d="M367.8691,-333.5249C372.1211,-280.4834 389.4811,-156.7427 460,-88.763 465.2327,-83.7188 471.496,-79.7318 478.1716,-76.5811"/>
<polygon fill="#191970" stroke="#191970" points="364.362,-333.5024 367.1463,-343.7248 371.3445,-333.9972 364.362,-333.5024"/>
</g>
<!-- Node65 -->
<g id="node17" class="node">
<title>Node65</title>
<g id="a_node17"><a xlink:href="namespacercf__derv__exner__surf__mod.xhtml#ac4474416e1bbc7c09bd36afe1fb33711" target="_top" xlink:title="Subroutine Rcf_Derv_Exner_Surf_Mod. ">
<polygon fill="#ffffff" stroke="#000000" points="465.5,-441.763 465.5,-471.763 611.5,-471.763 611.5,-441.763 465.5,-441.763"/>
<text text-anchor="start" x="473.5" y="-459.763" font-family="Helvetica,sans-Serif" font-size="10.00" fill="#000000">rcf_derv_exner_surf</text>
<text text-anchor="middle" x="538.5" y="-448.763" font-family="Helvetica,sans-Serif" font-size="10.00" fill="#000000">_mod::rcf_derv_exner_surf</text>
</a>
</g>
</g>
<!-- Node51&#45;&gt;Node65 -->
<g id="edge23" class="edge">
<title>Node51&#45;&gt;Node65</title>
<path fill="none" stroke="#191970" d="M389.8136,-380.8131C407.8012,-396.825 433.9393,-418.0094 460,-431.763 467.0837,-435.5015 474.8246,-438.8006 482.5962,-441.6738"/>
<polygon fill="#191970" stroke="#191970" points="391.9111,-377.9903 382.1521,-373.8655 387.2088,-383.1758 391.9111,-377.9903"/>
</g>
<!-- Node66 -->
<g id="node18" class="node">
<title>Node66</title>
<g id="a_node18"><a xlink:href="namespacercf__eg__poles__mod.xhtml#a00c0bbac7357b8e7f482c0553fa9d090" target="_top" xlink:title="Subroutine Rcf_eg_poles. ">
<polygon fill="#ffffff" stroke="#000000" points="476.5,-392.763 476.5,-422.763 600.5,-422.763 600.5,-392.763 476.5,-392.763"/>
<text text-anchor="start" x="484.5" y="-410.763" font-family="Helvetica,sans-Serif" font-size="10.00" fill="#000000">rcf_eg_poles_mod::rcf</text>
<text text-anchor="middle" x="538.5" y="-399.763" font-family="Helvetica,sans-Serif" font-size="10.00" fill="#000000">_eg_poles</text>
</a>
</g>
</g>
<!-- Node51&#45;&gt;Node66 -->
<g id="edge25" class="edge">
<title>Node51&#45;&gt;Node66</title>
<path fill="none" stroke="#191970" d="M429.3119,-376.6571C447.8119,-381.9275 467.859,-387.6386 485.6659,-392.7115"/>
<polygon fill="#191970" stroke="#191970" points="430.0855,-373.2383 419.5091,-373.8645 428.1675,-379.9704 430.0855,-373.2383"/>
</g>
<!-- Node67 -->
<g id="node19" class="node">
<title>Node67</title>
<g id="a_node19"><a xlink:href="namespacercf__grib__interp__tnpstar__mod.xhtml#addcfe6a3157fa516fe9136e6a043323b" target="_top" xlink:title="Subroutine Rcf_GRIB_Interp_TnPstar. ">
<polygon fill="#ffffff" stroke="#000000" points="852.5,-100.263 852.5,-141.263 979.5,-141.263 979.5,-100.263 852.5,-100.263"/>
<text text-anchor="start" x="860.5" y="-129.263" font-family="Helvetica,sans-Serif" font-size="10.00" fill="#000000">rcf_grib_interp_tnpstar</text>
<text text-anchor="start" x="860.5" y="-118.263" font-family="Helvetica,sans-Serif" font-size="10.00" fill="#000000">_mod::rcf_grib_interp</text>
<text text-anchor="middle" x="916" y="-107.263" font-family="Helvetica,sans-Serif" font-size="10.00" fill="#000000">_tnpstar</text>
</a>
</g>
</g>
<!-- Node51&#45;&gt;Node67 -->
<g id="edge27" class="edge">
<title>Node51&#45;&gt;Node67</title>
<path fill="none" stroke="#191970" d="M370.0101,-333.4711C380.1527,-264.4854 411.8783,-75.8046 460,-39.763 591.4485,58.6875 803.4188,-51.5217 883.7462,-100.1021"/>
<polygon fill="#191970" stroke="#191970" points="366.5309,-333.0764 368.5684,-343.4734 373.4593,-334.0751 366.5309,-333.0764"/>
</g>
<!-- Node68 -->
<g id="node20" class="node">
<title>Node68</title>
<g id="a_node20"><a xlink:href="namespacercf__init__canopy__water__mod.xhtml#a6835b726afa27fbda5eb82be93c4e1f7" target="_top" xlink:title="Subroutine Rcf_Init_Canopy_Water. ">
<polygon fill="#ffffff" stroke="#000000" points="460,-343.763 460,-373.763 617,-373.763 617,-343.763 460,-343.763"/>
<text text-anchor="start" x="468" y="-361.763" font-family="Helvetica,sans-Serif" font-size="10.00" fill="#000000">rcf_init_canopy_water</text>
<text text-anchor="middle" x="538.5" y="-350.763" font-family="Helvetica,sans-Serif" font-size="10.00" fill="#000000">_mod::rcf_init_canopy_water</text>
</a>
</g>
</g>
<!-- Node51&#45;&gt;Node68 -->
<g id="edge29" class="edge">
<title>Node51&#45;&gt;Node68</title>
<path fill="none" stroke="#191970" d="M434.3186,-358.763C442.6879,-358.763 451.2979,-358.763 459.8116,-358.763"/>
<polygon fill="#191970" stroke="#191970" points="434.252,-355.2631 424.252,-358.763 434.252,-362.2631 434.252,-355.2631"/>
</g>
<!-- Node69 -->
<g id="node21" class="node">
<title>Node69</title>
<g id="a_node21"><a xlink:href="namespacercf__init__field__on__tiles__mod.xhtml#adec7c2f880b26099da266f18f37bb640" target="_top" xlink:title="Subroutine Rcf_Init_Field_On_Tiles. ">
<polygon fill="#ffffff" stroke="#000000" points="462,-294.763 462,-324.763 615,-324.763 615,-294.763 462,-294.763"/>
<text text-anchor="start" x="470" y="-312.763" font-family="Helvetica,sans-Serif" font-size="10.00" fill="#000000">rcf_init_field_on_tiles</text>
<text text-anchor="middle" x="538.5" y="-301.763" font-family="Helvetica,sans-Serif" font-size="10.00" fill="#000000">_mod::rcf_init_field_on_tiles</text>
</a>
</g>
</g>
<!-- Node51&#45;&gt;Node69 -->
<g id="edge31" class="edge">
<title>Node51&#45;&gt;Node69</title>
<path fill="none" stroke="#191970" d="M429.3119,-340.8689C447.8119,-335.5986 467.859,-329.8875 485.6659,-324.8146"/>
<polygon fill="#191970" stroke="#191970" points="428.1675,-337.5556 419.5091,-343.6616 430.0855,-344.2878 428.1675,-337.5556"/>
</g>
<!-- Node70 -->
<g id="node22" class="node">
<title>Node70</title>
<g id="a_node22"><a xlink:href="namespacercf__mixing__ratios__mod.xhtml#a6cd1c959fc9c436a45a0a388c8559dc4" target="_top" xlink:title="Subroutine Rcf_Mixing_Ratios_Mod. ">
<polygon fill="#ffffff" stroke="#000000" points="474.5,-245.763 474.5,-275.763 602.5,-275.763 602.5,-245.763 474.5,-245.763"/>
<text text-anchor="start" x="482.5" y="-263.763" font-family="Helvetica,sans-Serif" font-size="10.00" fill="#000000">rcf_mixing_ratios_mod</text>
<text text-anchor="middle" x="538.5" y="-252.763" font-family="Helvetica,sans-Serif" font-size="10.00" fill="#000000">::rcf_mixing_ratios</text>
</a>
</g>
</g>
<!-- Node51&#45;&gt;Node70 -->
<g id="edge33" class="edge">
<title>Node51&#45;&gt;Node70</title>
<path fill="none" stroke="#191970" d="M389.389,-336.6001C407.3344,-320.2797 433.6101,-298.6062 460,-284.763 466.4363,-281.3868 473.4237,-278.4032 480.4871,-275.7899"/>
<polygon fill="#191970" stroke="#191970" points="386.7125,-334.3087 381.7595,-343.6746 391.4721,-339.4417 386.7125,-334.3087"/>
</g>
<!-- Node71 -->
<g id="node23" class="node">
<title>Node71</title>
<g id="a_node23"><a xlink:href="namespacercf__set__orography__mod.xhtml#ace5213d13ad442d40e62715689e6cd99" target="_top" xlink:title="Subroutine Rcf_Set_Orography &#45; sets the orographies. ">
<polygon fill="#ffffff" stroke="#000000" points="666,-479.763 666,-509.763 797,-509.763 797,-479.763 666,-479.763"/>
<text text-anchor="start" x="674" y="-497.763" font-family="Helvetica,sans-Serif" font-size="10.00" fill="#000000">rcf_set_orography_mod</text>
<text text-anchor="middle" x="731.5" y="-486.763" font-family="Helvetica,sans-Serif" font-size="10.00" fill="#000000">::rcf_set_orography</text>
</a>
</g>
</g>
<!-- Node51&#45;&gt;Node71 -->
<g id="edge35" class="edge">
<title>Node51&#45;&gt;Node71</title>
<path fill="none" stroke="#191970" d="M377.0716,-382.8495C391.2648,-411.8897 419.4713,-459.4464 460,-480.763 523.8074,-514.3235 608.1309,-512.8186 665.7703,-506.1456"/>
<polygon fill="#191970" stroke="#191970" points="380.2252,-381.3311 372.7979,-373.7756 373.8925,-384.3138 380.2252,-381.3311"/>
</g>
<!-- Node52&#45;&gt;Node53 -->
<g id="edge4" class="edge">
<title>Node52&#45;&gt;Node53</title>
<path fill="none" stroke="#191970" d="M609.6808,-606.7482C624.516,-603.8272 640.2104,-600.7371 655.2213,-597.7816"/>
<polygon fill="#191970" stroke="#191970" points="608.7019,-603.3736 599.5664,-608.7396 610.0542,-610.2418 608.7019,-603.3736"/>
</g>
<!-- Node54 -->
<g id="node6" class="node">
<title>Node54</title>
<g id="a_node6"><a xlink:href="namespacercf__post__process__mod.xhtml#abd81a99947cd0c226d25842ec46e1e95" target="_top" xlink:title="Subroutine Rcf_Post_Process &#45; process fields after `main loop&#39;. ">
<polygon fill="#ffffff" stroke="#000000" points="846,-567.763 846,-597.763 986,-597.763 986,-567.763 846,-567.763"/>
<text text-anchor="start" x="854" y="-585.763" font-family="Helvetica,sans-Serif" font-size="10.00" fill="#000000">rcf_post_process_mod</text>
<text text-anchor="middle" x="916" y="-574.763" font-family="Helvetica,sans-Serif" font-size="10.00" fill="#000000">::rcf_post_process_atmos</text>
</a>
</g>
</g>
<!-- Node53&#45;&gt;Node54 -->
<g id="edge5" class="edge">
<title>Node53&#45;&gt;Node54</title>
<path fill="none" stroke="#191970" d="M820.081,-582.763C828.6902,-582.763 837.342,-582.763 845.736,-582.763"/>
<polygon fill="#191970" stroke="#191970" points="820.0122,-579.2631 810.0121,-582.763 820.0121,-586.2631 820.0122,-579.2631"/>
</g>
<!-- Node54&#45;&gt;Node55 -->
<g id="edge6" class="edge">
<title>Node54&#45;&gt;Node55</title>
<path fill="none" stroke="#191970" d="M966.0115,-564.0644C990.9534,-554.7389 1020.7195,-543.6097 1044.1777,-534.839"/>
<polygon fill="#191970" stroke="#191970" points="964.5009,-560.8924 956.3599,-567.673 966.9524,-567.4492 964.5009,-560.8924"/>
</g>
<!-- Node56 -->
<g id="node8" class="node">
<title>Node56</title>
<g id="a_node8"><a xlink:href="namespacercf__control__mod.xhtml#a3ac6d1c6311ded848ddd750726da301a" target="_top" xlink:title="Subroutine Rcf_Control &#45; main control routine. ">
<polygon fill="#ffffff" stroke="#000000" points="1183,-526.763 1183,-556.763 1297,-556.763 1297,-526.763 1183,-526.763"/>
<text text-anchor="start" x="1191" y="-544.763" font-family="Helvetica,sans-Serif" font-size="10.00" fill="#000000">rcf_control_mod::rcf</text>
<text text-anchor="middle" x="1240" y="-533.763" font-family="Helvetica,sans-Serif" font-size="10.00" fill="#000000">_control</text>
</a>
</g>
</g>
<!-- Node55&#45;&gt;Node56 -->
<g id="edge7" class="edge">
<title>Node55&#45;&gt;Node56</title>
<path fill="none" stroke="#191970" d="M1157.3443,-530.069C1165.9541,-531.2871 1174.6445,-532.5166 1182.9908,-533.6974"/>
<polygon fill="#191970" stroke="#191970" points="1157.6913,-526.5833 1147.2996,-528.6479 1156.7107,-533.5143 1157.6913,-526.5833"/>
</g>
<!-- Node57 -->
<g id="node9" class="node">
<title>Node57</title>
<g id="a_node9"><a xlink:href="reconfigure_8f90.xhtml#a55389899cfceedbb4b0f908c73988c0c" target="_top" xlink:title="Top level program for reconfiguration. ">
<polygon fill="#ffffff" stroke="#000000" points="1333,-532.263 1333,-551.263 1404,-551.263 1404,-532.263 1333,-532.263"/>
<text text-anchor="middle" x="1368.5" y="-539.263" font-family="Helvetica,sans-Serif" font-size="10.00" fill="#000000">reconfigure</text>
</a>
</g>
</g>
<!-- Node56&#45;&gt;Node57 -->
<g id="edge8" class="edge">
<title>Node56&#45;&gt;Node57</title>
<path fill="none" stroke="#191970" d="M1307.159,-541.763C1316.0636,-541.763 1324.8936,-541.763 1332.9628,-541.763"/>
<polygon fill="#191970" stroke="#191970" points="1307.1103,-538.2631 1297.1103,-541.763 1307.1103,-545.2631 1307.1103,-538.2631"/>
</g>
<!-- Node59 -->
<g id="node11" class="node">
<title>Node59</title>
<g id="a_node11"><a xlink:href="namespacercf__ancil__mod.xhtml#af0d79a90918b3178fb9102d0237d48b6" target="_top" xlink:title="Subroutine Rcf_Ancil &#45; Reconfiguration Ancillary Processing. ">
<polygon fill="#ffffff" stroke="#000000" points="864,-624.763 864,-654.763 968,-654.763 968,-624.763 864,-624.763"/>
<text text-anchor="start" x="872" y="-642.763" font-family="Helvetica,sans-Serif" font-size="10.00" fill="#000000">rcf_ancil_mod::rcf</text>
<text text-anchor="middle" x="916" y="-631.763" font-family="Helvetica,sans-Serif" font-size="10.00" fill="#000000">_ancil</text>
</a>
</g>
</g>
<!-- Node58&#45;&gt;Node59 -->
<g id="edge10" class="edge">
<title>Node58&#45;&gt;Node59</title>
<path fill="none" stroke="#191970" d="M802.4012,-649.6144C822.8839,-647.8381 844.8523,-645.933 863.9594,-644.276"/>
<polygon fill="#191970" stroke="#191970" points="801.8279,-646.1509 792.1677,-650.5019 802.4328,-653.1247 801.8279,-646.1509"/>
</g>
<!-- Node59&#45;&gt;Node56 -->
<g id="edge11" class="edge">
<title>Node59&#45;&gt;Node56</title>
<path fill="none" stroke="#191970" d="M975.5146,-621.7617C1037.1947,-603.1054 1132.5069,-574.2764 1190.2944,-556.7974"/>
<polygon fill="#191970" stroke="#191970" points="974.4734,-618.42 965.9149,-624.6653 976.5,-625.1202 974.4734,-618.42"/>
</g>
<!-- Node61 -->
<g id="node13" class="node">
<title>Node61</title>
<g id="a_node13"><a xlink:href="namespacercf__field__calcs__mod.xhtml#aaf83a6a3cfce239d92cf41c835842415" target="_top" xlink:title="Subroutine Rcf_Field_Calcs &#45; field initialisation calculations. ">
<polygon fill="#ffffff" stroke="#000000" points="675,-269.763 675,-299.763 788,-299.763 788,-269.763 675,-269.763"/>
<text text-anchor="start" x="683" y="-287.763" font-family="Helvetica,sans-Serif" font-size="10.00" fill="#000000">rcf_field_calcs_mod</text>
<text text-anchor="middle" x="731.5" y="-276.763" font-family="Helvetica,sans-Serif" font-size="10.00" fill="#000000">::rcf_field_calcs</text>
</a>
</g>
</g>
<!-- Node60&#45;&gt;Node61 -->
<g id="edge14" class="edge">
<title>Node60&#45;&gt;Node61</title>
<path fill="none" stroke="#191970" d="M600.2632,-229.9572C605.9483,-231.839 611.5981,-233.7879 617,-235.763 645.0242,-246.0097 676.1072,-259.448 698.8077,-269.6594"/>
<polygon fill="#191970" stroke="#191970" points="601.2914,-226.6113 590.6995,-226.8608 599.1351,-233.271 601.2914,-226.6113"/>
</g>
<!-- Node61&#45;&gt;Node55 -->
<g id="edge15" class="edge">
<title>Node61&#45;&gt;Node55</title>
<path fill="none" stroke="#191970" d="M762.5165,-305.4114C832.2923,-351.8627 1000.3021,-463.7106 1061.6128,-504.5265"/>
<polygon fill="#191970" stroke="#191970" points="764.3824,-302.449 754.1187,-299.8208 760.5033,-308.2759 764.3824,-302.449"/>
</g>
<!-- Node62&#45;&gt;Node61 -->
<g id="edge18" class="edge">
<title>Node62&#45;&gt;Node61</title>
<path fill="none" stroke="#191970" d="M606.8584,-181.7451C610.3466,-183.306 613.7485,-184.977 617,-186.763 658.0505,-209.3122 697.6743,-248.2406 717.7967,-269.6185"/>
<polygon fill="#191970" stroke="#191970" points="608.0468,-178.4492 597.4679,-177.8673 605.3749,-184.9193 608.0468,-178.4492"/>
</g>
<!-- Node63&#45;&gt;Node61 -->
<g id="edge20" class="edge">
<title>Node63&#45;&gt;Node61</title>
<path fill="none" stroke="#191970" d="M610.2694,-133.5719C612.5912,-134.8829 614.843,-136.2782 617,-137.763 668.6937,-173.3474 707.7942,-239.4183 723.7014,-269.3342"/>
<polygon fill="#191970" stroke="#191970" points="611.5254,-130.286 601.0187,-128.9222 608.3817,-136.5404 611.5254,-130.286"/>
</g>
<!-- Node64&#45;&gt;Node61 -->
<g id="edge22" class="edge">
<title>Node64&#45;&gt;Node61</title>
<path fill="none" stroke="#191970" d="M607.6872,-82.4962C610.9616,-84.3791 614.0908,-86.4611 617,-88.763 679.8899,-138.5261 715.1473,-233.0262 726.9634,-269.6932"/>
<polygon fill="#191970" stroke="#191970" points="609.2346,-79.3567 598.7319,-77.9626 606.0729,-85.602 609.2346,-79.3567"/>
</g>
<!-- Node65&#45;&gt;Node61 -->
<g id="edge24" class="edge">
<title>Node65&#45;&gt;Node61</title>
<path fill="none" stroke="#191970" d="M608.0304,-437.2661C611.1475,-435.5757 614.1563,-433.745 617,-431.763 668.4863,-395.8793 707.6937,-329.9627 723.6649,-300.1391"/>
<polygon fill="#191970" stroke="#191970" points="606.4597,-434.138 599.006,-441.6674 609.5283,-440.4296 606.4597,-434.138"/>
</g>
<!-- Node66&#45;&gt;Node61 -->
<g id="edge26" class="edge">
<title>Node66&#45;&gt;Node61</title>
<path fill="none" stroke="#191970" d="M604.7596,-388.8124C608.9819,-386.9498 613.0989,-384.9355 617,-382.763 657.919,-359.976 697.5952,-321.1423 717.7609,-299.843"/>
<polygon fill="#191970" stroke="#191970" points="603.3182,-385.6205 595.3911,-392.6498 605.9716,-392.0982 603.3182,-385.6205"/>
</g>
<!-- Node67&#45;&gt;Node55 -->
<g id="edge28" class="edge">
<title>Node67&#45;&gt;Node55</title>
<path fill="none" stroke="#191970" d="M928.7015,-150.8396C962.3648,-230.5527 1053.0077,-445.1907 1078.0264,-504.4337"/>
<polygon fill="#191970" stroke="#191970" points="931.8192,-149.2254 924.7045,-141.3748 925.3706,-151.9487 931.8192,-149.2254"/>
</g>
<!-- Node68&#45;&gt;Node61 -->
<g id="edge30" class="edge">
<title>Node68&#45;&gt;Node61</title>
<path fill="none" stroke="#191970" d="M597.7074,-340.5792C604.2479,-338.3713 610.7858,-336.0761 617,-333.763 644.9642,-323.3539 676.0519,-309.9283 698.7695,-299.7631"/>
<polygon fill="#191970" stroke="#191970" points="596.5514,-337.2751 588.1603,-343.7436 598.7537,-343.9196 596.5514,-337.2751"/>
</g>
<!-- Node69&#45;&gt;Node61 -->
<g id="edge32" class="edge">
<title>Node69&#45;&gt;Node61</title>
<path fill="none" stroke="#191970" d="M624.9782,-298.5612C641.9395,-296.3641 659.3183,-294.113 674.9881,-292.0832"/>
<polygon fill="#191970" stroke="#191970" points="624.5234,-295.0908 615.0559,-299.8465 625.4227,-302.0328 624.5234,-295.0908"/>
</g>
<!-- Node70&#45;&gt;Node61 -->
<g id="edge34" class="edge">
<title>Node70&#45;&gt;Node61</title>
<path fill="none" stroke="#191970" d="M612.7708,-269.9988C633.422,-272.5668 655.5095,-275.3134 674.9647,-277.7327"/>
<polygon fill="#191970" stroke="#191970" points="613.1217,-266.5155 602.7662,-268.7547 612.2578,-273.462 613.1217,-266.5155"/>
</g>
<!-- Node71&#45;&gt;Node55 -->
<g id="edge36" class="edge">
<title>Node71&#45;&gt;Node55</title>
<path fill="none" stroke="#191970" d="M807.112,-500.118C871.1686,-504.6546 961.9179,-511.0816 1021.9489,-515.3331"/>
<polygon fill="#191970" stroke="#191970" points="807.2916,-496.622 797.0693,-499.4067 806.797,-503.6045 807.2916,-496.622"/>
</g>
</g>
</svg>
        <g id="navigator" transform="translate(0 0)" fill="#404254">
                <rect fill="#f2f5e9" fill-opacity="0.5" stroke="#606060" stroke-width=".5" x="0" y="0" width="60" height="60"/>
                <use id="zoomplus" xlink:href="#zoomPlus" x="17" y="9" onmousedown="handleZoom(evt,'in')"/>
                <use id="zoomminus" xlink:href="#zoomMin" x="42" y="9" onmousedown="handleZoom(evt,'out')"/>
                <use id="reset" xlink:href="#resetDef" x="30" y="36" onmousedown="handleReset()"/>
                <g id="arrowUp" xlink:href="#dirArrow" transform="translate(30 24)" onmousedown="handlePan(0,-1)">
                  <use xlink:href="#rim" fill="#404040">
                        <set attributeName="fill" to="#808080" begin="arrowUp.mouseover" end="arrowUp.mouseout"/>
                  </use>
                  <path fill="none" stroke="white" stroke-width="1.5" d="M0,-3.0v7 M-2.5,-0.5L0,-3.0L2.5,-0.5"/>
                </g>
                <g id="arrowRight" xlink:href="#dirArrow" transform="rotate(90) translate(36 -43)" onmousedown="handlePan(1,0)">
                  <use xlink:href="#rim" fill="#404040">
                        <set attributeName="fill" to="#808080" begin="arrowRight.mouseover" end="arrowRight.mouseout"/>
                  </use>
                  <path fill="none" stroke="white" stroke-width="1.5" d="M0,-3.0v7 M-2.5,-0.5L0,-3.0L2.5,-0.5"/>
                </g>
                <g id="arrowDown" xlink:href="#dirArrow" transform="rotate(180) translate(-30 -48)" onmousedown="handlePan(0,1)">
                  <use xlink:href="#rim" fill="#404040">
                        <set attributeName="fill" to="#808080" begin="arrowDown.mouseover" end="arrowDown.mouseout"/>
                  </use>
                  <path fill="none" stroke="white" stroke-width="1.5" d="M0,-3.0v7 M-2.5,-0.5L0,-3.0L2.5,-0.5"/>
                </g>
                <g id="arrowLeft" xlink:href="#dirArrow" transform="rotate(270) translate(-36 17)" onmousedown="handlePan(-1,0)">
                  <use xlink:href="#rim" fill="#404040">
                        <set attributeName="fill" to="#808080" begin="arrowLeft.mouseover" end="arrowLeft.mouseout"/>
                  </use>
                  <path fill="none" stroke="white" stroke-width="1.5" d="M0,-3.0v7 M-2.5,-0.5L0,-3.0L2.5,-0.5"/>
                </g>
        </g>
        <svg viewBox="0 0 15 15" width="100%" height="30px" preserveAspectRatio="xMaxYMin meet">
         <g id="arrow_out" transform="scale(0.3 0.3)">
          <a xlink:href="rcf__vertical__mod_8f90_abf36cc02b84f19c5852bbeeca575f70d_icgraph_org.svg" target="_base">
           <rect id="button" ry="5" rx="5" y="6" x="6" height="38" width="38"
                fill="#f2f5e9" fill-opacity="0.5" stroke="#606060" stroke-width="1.0"/>
           <path id="arrow"
             d="M 11.500037,31.436501 C 11.940474,20.09759 22.043105,11.32322 32.158766,21.979434 L 37.068811,17.246167 C 37.068811,17.246167 37.088388,32 37.088388,32 L 22.160133,31.978069 C 22.160133,31.978069 26.997745,27.140456 26.997745,27.140456 C 18.528582,18.264221 13.291696,25.230495 11.500037,31.436501 z"
             style="fill:#404040;"/>
          </a>
         </g>
        </svg>
</svg>
