<?xml version="1.0" encoding="UTF-8" standalone="no"?>
<!DOCTYPE svg PUBLIC "-//W3C//DTD SVG 1.1//EN"
 "http://www.w3.org/Graphics/SVG/1.1/DTD/svg11.dtd">
<!-- Generated by graphviz version 2.40.1 (20161225.0304)
 -->
<!-- Title: readff_fieldcos Pages: 1 -->
<svg width="433pt" height="66pt"
 viewBox="0.00 0.00 433.00 66.00" xmlns="http://www.w3.org/2000/svg" xmlns:xlink="http://www.w3.org/1999/xlink">
<g id="graph0" class="graph" transform="scale(1 1) rotate(0) translate(4 62)">
<title>readff_fieldcos</title>
<polygon fill="#ffffff" stroke="transparent" points="-4,4 -4,-62 429,-62 429,4 -4,4"/>
<!-- Node179 -->
<g id="node1" class="node">
<title>Node179</title>
<polygon fill="#bfbfbf" stroke="#000000" points="0,-19.5 0,-38.5 88,-38.5 88,-19.5 0,-19.5"/>
<text text-anchor="middle" x="44" y="-26.5" font-family="Helvetica,sans-Serif" font-size="10.00" fill="#000000">readff_fieldcos</text>
</g>
<!-- Node180 -->
<g id="node2" class="node">
<title>Node180</title>
<g id="a_node2"><a xlink:href="cray__ibm_8f90.xhtml#a86cf758f55f833cfecf40a0f12430bb1" target="_top" xlink:title="LL Routine: CRAY_IBM. ">
<polygon fill="#ffffff" stroke="#000000" points="125,-38.5 125,-57.5 187,-57.5 187,-38.5 125,-38.5"/>
<text text-anchor="middle" x="156" y="-45.5" font-family="Helvetica,sans-Serif" font-size="10.00" fill="#000000">cray_ibm</text>
</a>
</g>
</g>
<!-- Node179&#45;&gt;Node180 -->
<g id="edge1" class="edge">
<title>Node179&#45;&gt;Node180</title>
<path fill="none" stroke="#191970" d="M98.1293,-38.1826C107.2865,-39.7361 116.5105,-41.3009 124.8204,-42.7106"/>
<polygon fill="#191970" stroke="#191970" points="98.7099,-34.7312 88.2654,-36.5093 97.5391,-41.6326 98.7099,-34.7312"/>
</g>
<!-- Node183 -->
<g id="node5" class="node">
<title>Node183</title>
<g id="a_node5"><a xlink:href="cray__ieee_8f90.xhtml#aa27664f4d181048ca56074a5a7027fb6" target="_top" xlink:title="LL Subroutine: CRAY_IEEE LL Subroutine: CRAY_IEEE LL LL Purpose: To read a direct access PP file and ...">
<polygon fill="#ffffff" stroke="#000000" points="124,-.5 124,-19.5 188,-19.5 188,-.5 124,-.5"/>
<text text-anchor="middle" x="156" y="-7.5" font-family="Helvetica,sans-Serif" font-size="10.00" fill="#000000">cray_ieee</text>
</a>
</g>
</g>
<!-- Node179&#45;&gt;Node183 -->
<g id="edge4" class="edge">
<title>Node179&#45;&gt;Node183</title>
<path fill="none" stroke="#191970" d="M98.3982,-19.7717C107.0928,-18.2968 115.839,-16.813 123.7974,-15.4629"/>
<polygon fill="#191970" stroke="#191970" points="97.5391,-16.3674 88.2654,-21.4907 98.7099,-23.2688 97.5391,-16.3674"/>
</g>
<!-- Node181 -->
<g id="node3" class="node">
<title>Node181</title>
<g id="a_node3"><a xlink:href="read__write-fieldcos_8f90.xhtml#a83a915a972fd004dc6753151cced432b" target="_top" xlink:title="LL LL LL Subroutine: READ_WRITE!&gt;LL LL Purpose: To read a direct access PP file and convert it to a L...">
<polygon fill="#ffffff" stroke="#000000" points="224,-19.5 224,-38.5 335,-38.5 335,-19.5 224,-19.5"/>
<text text-anchor="middle" x="279.5" y="-26.5" font-family="Helvetica,sans-Serif" font-size="10.00" fill="#000000">read_write_fieldcos</text>
</a>
</g>
</g>
<!-- Node180&#45;&gt;Node181 -->
<g id="edge2" class="edge">
<title>Node180&#45;&gt;Node181</title>
<path fill="none" stroke="#191970" d="M197.2258,-41.6576C205.7562,-40.3452 214.8761,-38.9421 223.8243,-37.5655"/>
<polygon fill="#191970" stroke="#191970" points="196.5158,-38.2255 187.1643,-43.2055 197.5802,-45.1441 196.5158,-38.2255"/>
</g>
<!-- Node182 -->
<g id="node4" class="node">
<title>Node182</title>
<g id="a_node4"><a xlink:href="fieldcos_8f90.xhtml#a964738f376f82ff1c74d785687a11a4b" target="_top" xlink:title="Program: FIELDCOS!&gt; ">
<polygon fill="#ffffff" stroke="#000000" points="371,-19.5 371,-38.5 425,-38.5 425,-19.5 371,-19.5"/>
<text text-anchor="middle" x="398" y="-26.5" font-family="Helvetica,sans-Serif" font-size="10.00" fill="#000000">fieldcos</text>
</a>
</g>
</g>
<!-- Node181&#45;&gt;Node182 -->
<g id="edge3" class="edge">
<title>Node181&#45;&gt;Node182</title>
<path fill="none" stroke="#191970" d="M345.4253,-29C354.3728,-29 363.1147,-29 370.8207,-29"/>
<polygon fill="#191970" stroke="#191970" points="345.2801,-25.5001 335.2801,-29 345.2801,-32.5001 345.2801,-25.5001"/>
</g>
<!-- Node183&#45;&gt;Node181 -->
<g id="edge5" class="edge">
<title>Node183&#45;&gt;Node181</title>
<path fill="none" stroke="#191970" d="M198.1749,-16.4884C206.3642,-17.7483 215.0658,-19.087 223.616,-20.4025"/>
<polygon fill="#191970" stroke="#191970" points="198.5417,-13.0038 188.1258,-14.9424 197.4773,-19.9224 198.5417,-13.0038"/>
</g>
</g>
</svg>
