<?xml version="1.0" encoding="UTF-8" standalone="no"?>
<!DOCTYPE svg PUBLIC "-//W3C//DTD SVG 1.1//EN"
 "http://www.w3.org/Graphics/SVG/1.1/DTD/svg11.dtd">
<!-- Generated by graphviz version 2.40.1 (20161225.0304)
 -->
<!-- Title: read_one_header Pages: 1 -->
<svg width="408pt" height="66pt"
 viewBox="0.00 0.00 408.00 66.00" xmlns="http://www.w3.org/2000/svg" xmlns:xlink="http://www.w3.org/1999/xlink">
<g id="graph0" class="graph" transform="scale(1 1) rotate(0) translate(4 62)">
<title>read_one_header</title>
<polygon fill="#ffffff" stroke="transparent" points="-4,4 -4,-62 404,-62 404,4 -4,4"/>
<!-- Node49 -->
<g id="node1" class="node">
<title>Node49</title>
<polygon fill="#bfbfbf" stroke="#000000" points="0,-19.5 0,-38.5 101,-38.5 101,-19.5 0,-19.5"/>
<text text-anchor="middle" x="50.5" y="-26.5" font-family="Helvetica,sans-Serif" font-size="10.00" fill="#000000">read_one_header</text>
</g>
<!-- Node50 -->
<g id="node2" class="node">
<title>Node50</title>
<g id="a_node2"><a xlink:href="read__field__headers_8f90.xhtml#aba4c01cf54efd3c53f0b6e02bff52ddd" target="_top" xlink:title="Programming standard: Unified Model Documentation Paper No 3. ">
<polygon fill="#ffffff" stroke="#000000" points="137,-38.5 137,-57.5 246,-57.5 246,-38.5 137,-38.5"/>
<text text-anchor="middle" x="191.5" y="-45.5" font-family="Helvetica,sans-Serif" font-size="10.00" fill="#000000">read_field_headers</text>
</a>
</g>
</g>
<!-- Node49&#45;&gt;Node50 -->
<g id="edge1" class="edge">
<title>Node49&#45;&gt;Node50</title>
<path fill="none" stroke="#191970" d="M111.1725,-37.1757C119.6126,-38.313 128.2443,-39.4762 136.5709,-40.5982"/>
<polygon fill="#191970" stroke="#191970" points="111.3838,-33.6727 101.006,-35.8058 110.449,-40.61 111.3838,-33.6727"/>
</g>
<!-- Node52 -->
<g id="node4" class="node">
<title>Node52</title>
<g id="a_node4"><a xlink:href="read__lsm__headers_8f90.xhtml#a7bfd16875a872b504838085864d2861c" target="_top" xlink:title="Programming standard: Unified Model Documentation Paper No 3. ">
<polygon fill="#ffffff" stroke="#000000" points="138.5,-.5 138.5,-19.5 244.5,-19.5 244.5,-.5 138.5,-.5"/>
<text text-anchor="middle" x="191.5" y="-7.5" font-family="Helvetica,sans-Serif" font-size="10.00" fill="#000000">read_lsm_headers</text>
</a>
</g>
</g>
<!-- Node49&#45;&gt;Node52 -->
<g id="edge3" class="edge">
<title>Node49&#45;&gt;Node52</title>
<path fill="none" stroke="#191970" d="M111.1497,-20.8274C120.2474,-19.6014 129.5685,-18.3454 138.4906,-17.1431"/>
<polygon fill="#191970" stroke="#191970" points="110.449,-17.39 101.006,-22.1942 111.3838,-24.3273 110.449,-17.39"/>
</g>
<!-- Node51 -->
<g id="node3" class="node">
<title>Node51</title>
<g id="a_node3"><a xlink:href="flux__process__main_8f90.xhtml#aa4f9adbe127f17a972e1284856a37f9c" target="_top" xlink:title="Programming standard: Unified Model Documentation Paper No 3. ">
<polygon fill="#ffffff" stroke="#000000" points="287.5,-38.5 287.5,-57.5 394.5,-57.5 394.5,-38.5 287.5,-38.5"/>
<text text-anchor="middle" x="341" y="-45.5" font-family="Helvetica,sans-Serif" font-size="10.00" fill="#000000">flux_process_main</text>
</a>
</g>
</g>
<!-- Node50&#45;&gt;Node51 -->
<g id="edge2" class="edge">
<title>Node50&#45;&gt;Node51</title>
<path fill="none" stroke="#191970" d="M256.4614,-48C266.716,-48 277.2207,-48 287.1855,-48"/>
<polygon fill="#191970" stroke="#191970" points="256.3194,-44.5001 246.3194,-48 256.3193,-51.5001 256.3194,-44.5001"/>
</g>
<!-- Node52&#45;&gt;Node51 -->
<g id="edge4" class="edge">
<title>Node52&#45;&gt;Node51</title>
<path fill="none" stroke="#191970" d="M239.1516,-22.1121C259.9726,-27.4044 284.0377,-33.5213 303.5461,-38.4799"/>
<polygon fill="#191970" stroke="#191970" points="239.7792,-18.6604 229.2252,-19.589 238.0547,-25.4447 239.7792,-18.6604"/>
</g>
<!-- Node53 -->
<g id="node5" class="node">
<title>Node53</title>
<g id="a_node5"><a xlink:href="flux__transform__main_8f90.xhtml#a9514a018945b31f3f7749d95c2e47c5e" target="_top" xlink:title="contains progam: Flux_Transform_Main ">
<polygon fill="#ffffff" stroke="#000000" points="282,-.5 282,-19.5 400,-19.5 400,-.5 282,-.5"/>
<text text-anchor="middle" x="341" y="-7.5" font-family="Helvetica,sans-Serif" font-size="10.00" fill="#000000">flux_transform_main</text>
</a>
</g>
</g>
<!-- Node52&#45;&gt;Node53 -->
<g id="edge5" class="edge">
<title>Node52&#45;&gt;Node53</title>
<path fill="none" stroke="#191970" d="M254.6989,-10C263.7305,-10 272.9925,-10 281.9405,-10"/>
<polygon fill="#191970" stroke="#191970" points="254.6291,-6.5001 244.6291,-10 254.629,-13.5001 254.6291,-6.5001"/>
</g>
</g>
</svg>
