<?xml version="1.0" encoding="UTF-8" standalone="no"?>
<!DOCTYPE svg PUBLIC "-//W3C//DTD SVG 1.1//EN"
 "http://www.w3.org/Graphics/SVG/1.1/DTD/svg11.dtd">
<!-- Generated by graphviz version 2.40.1 (20161225.0304)
 -->
<!-- Title: read_leads_flds Pages: 1 -->
<svg width="939pt" height="154pt"
 viewBox="0.00 0.00 939.00 154.00" xmlns="http://www.w3.org/2000/svg" xmlns:xlink="http://www.w3.org/1999/xlink">
<g id="graph0" class="graph" transform="scale(1 1) rotate(0) translate(4 150)">
<title>read_leads_flds</title>
<polygon fill="#ffffff" stroke="transparent" points="-4,4 -4,-150 935,-150 935,4 -4,4"/>
<!-- Node191 -->
<g id="node1" class="node">
<title>Node191</title>
<polygon fill="#bfbfbf" stroke="#000000" points="0,-69.5 0,-88.5 92,-88.5 92,-69.5 0,-69.5"/>
<text text-anchor="middle" x="46" y="-76.5" font-family="Helvetica,sans-Serif" font-size="10.00" fill="#000000">read_leads_flds</text>
</g>
<!-- Node192 -->
<g id="node2" class="node">
<title>Node192</title>
<g id="a_node2"><a xlink:href="heat_8f90.xhtml#ae82bfb02a6037a2e985fe27ec0c569b8" target="_top" xlink:title="Programming standard: Unified Model Documentation Paper No 3. ">
<polygon fill="#ffffff" stroke="#000000" points="139,-126.5 139,-145.5 177,-145.5 177,-126.5 139,-126.5"/>
<text text-anchor="middle" x="158" y="-133.5" font-family="Helvetica,sans-Serif" font-size="10.00" fill="#000000">heat</text>
</a>
</g>
</g>
<!-- Node191&#45;&gt;Node192 -->
<g id="edge1" class="edge">
<title>Node191&#45;&gt;Node192</title>
<path fill="none" stroke="#191970" d="M73.858,-93.1777C94.2329,-103.5471 121.3235,-117.3343 139.1926,-126.4284"/>
<polygon fill="#191970" stroke="#191970" points="75.246,-89.957 64.7463,-88.5405 72.071,-96.1955 75.246,-89.957"/>
</g>
<!-- Node203 -->
<g id="node13" class="node">
<title>Node203</title>
<g id="a_node13"><a xlink:href="moisture_8f90.xhtml#af6c05cda00ac9748b5551b882e939e0d" target="_top" xlink:title="Programming standard: Unified Model Documentation Paper No 3. ">
<polygon fill="#ffffff" stroke="#000000" points="128,-88.5 128,-107.5 188,-107.5 188,-88.5 128,-88.5"/>
<text text-anchor="middle" x="158" y="-95.5" font-family="Helvetica,sans-Serif" font-size="10.00" fill="#000000">moisture</text>
</a>
</g>
</g>
<!-- Node191&#45;&gt;Node203 -->
<g id="edge13" class="edge">
<title>Node191&#45;&gt;Node203</title>
<path fill="none" stroke="#191970" d="M102.1798,-88.5305C111.0578,-90.0366 119.9298,-91.5417 127.9032,-92.8943"/>
<polygon fill="#191970" stroke="#191970" points="102.6459,-85.0596 92.2013,-86.8377 101.475,-91.961 102.6459,-85.0596"/>
</g>
<!-- Node204 -->
<g id="node14" class="node">
<title>Node204</title>
<g id="a_node14"><a xlink:href="sea__ice_8f90.xhtml#a28289c8924c4b60580062053c10aadb3" target="_top" xlink:title="Programming standard: Unified Model Documentation Paper No 3. ">
<polygon fill="#ffffff" stroke="#000000" points="131.5,-12.5 131.5,-31.5 184.5,-31.5 184.5,-12.5 131.5,-12.5"/>
<text text-anchor="middle" x="158" y="-19.5" font-family="Helvetica,sans-Serif" font-size="10.00" fill="#000000">sea_ice</text>
</a>
</g>
</g>
<!-- Node191&#45;&gt;Node204 -->
<g id="edge15" class="edge">
<title>Node191&#45;&gt;Node204</title>
<path fill="none" stroke="#191970" d="M73.858,-64.8223C94.2329,-54.4529 121.3235,-40.6657 139.1926,-31.5716"/>
<polygon fill="#191970" stroke="#191970" points="72.071,-61.8045 64.7463,-69.4595 75.246,-68.043 72.071,-61.8045"/>
</g>
<!-- Node210 -->
<g id="node20" class="node">
<title>Node210</title>
<g id="a_node20"><a xlink:href="winds_8f90.xhtml#ac8634888b39ff175fa646fc3f1e58cca" target="_top" xlink:title="Programming standard: Unified Model Documentation Paper No 3. ">
<polygon fill="#ffffff" stroke="#000000" points="135.5,-50.5 135.5,-69.5 180.5,-69.5 180.5,-50.5 135.5,-50.5"/>
<text text-anchor="middle" x="158" y="-57.5" font-family="Helvetica,sans-Serif" font-size="10.00" fill="#000000">winds</text>
</a>
</g>
</g>
<!-- Node191&#45;&gt;Node210 -->
<g id="edge25" class="edge">
<title>Node191&#45;&gt;Node210</title>
<path fill="none" stroke="#191970" d="M102.0997,-69.4831C113.937,-67.475 125.7685,-65.4679 135.4783,-63.8207"/>
<polygon fill="#191970" stroke="#191970" points="101.475,-66.039 92.2013,-71.1623 102.6459,-72.9404 101.475,-66.039"/>
</g>
<!-- Node193 -->
<g id="node3" class="node">
<title>Node193</title>
<g id="a_node3"><a xlink:href="st__diag3_8f90.xhtml#a00e9b3afaa3d890cca6a5f8421814074" target="_top" xlink:title="End of Timestep climate diagnostics control routine End of Timestep climate diagnostics control routi...">
<polygon fill="#ffffff" stroke="#000000" points="415,-126.5 415,-145.5 473,-145.5 473,-126.5 415,-126.5"/>
<text text-anchor="middle" x="444" y="-133.5" font-family="Helvetica,sans-Serif" font-size="10.00" fill="#000000">st_diag3</text>
</a>
</g>
</g>
<!-- Node192&#45;&gt;Node193 -->
<g id="edge2" class="edge">
<title>Node192&#45;&gt;Node193</title>
<path fill="none" stroke="#191970" d="M187.3291,-136C242.3122,-136 360.2597,-136 414.9946,-136"/>
<polygon fill="#191970" stroke="#191970" points="187.2094,-132.5001 177.2094,-136 187.2093,-139.5001 187.2094,-132.5001"/>
</g>
<!-- Node201 -->
<g id="node11" class="node">
<title>Node201</title>
<g id="a_node11"><a xlink:href="flux__process_8f90.xhtml#aa4dfcc67002fe61814d5d93db54c4d94" target="_top" xlink:title="Programming standard: Unified Model Documentation Paper No 3. ">
<polygon fill="#ffffff" stroke="#000000" points="245.5,-88.5 245.5,-107.5 322.5,-107.5 322.5,-88.5 245.5,-88.5"/>
<text text-anchor="middle" x="284" y="-95.5" font-family="Helvetica,sans-Serif" font-size="10.00" fill="#000000">flux_process</text>
</a>
</g>
</g>
<!-- Node192&#45;&gt;Node201 -->
<g id="edge11" class="edge">
<title>Node192&#45;&gt;Node201</title>
<path fill="none" stroke="#191970" d="M186.7343,-127.3341C206.3169,-121.4282 232.2479,-113.6078 252.4107,-107.5269"/>
<polygon fill="#191970" stroke="#191970" points="185.7001,-123.9902 177.1367,-130.2286 187.7214,-130.6921 185.7001,-123.9902"/>
</g>
<!-- Node194 -->
<g id="node4" class="node">
<title>Node194</title>
<g id="a_node4"><a xlink:href="atm__step_8f90.xhtml#ac0ee2467a1a9959b7065fdb8fd27bce4" target="_top" xlink:title="Perform a 1&#45;timestep integration of the Atmosphere Model. ">
<polygon fill="#ffffff" stroke="#000000" points="553,-82.5 553,-101.5 615,-101.5 615,-82.5 553,-82.5"/>
<text text-anchor="middle" x="584" y="-89.5" font-family="Helvetica,sans-Serif" font-size="10.00" fill="#000000">atm_step</text>
</a>
</g>
</g>
<!-- Node193&#45;&gt;Node194 -->
<g id="edge3" class="edge">
<title>Node193&#45;&gt;Node194</title>
<path fill="none" stroke="#191970" d="M482.8995,-124.6494C491.1972,-122.173 499.8999,-119.534 508,-117 523.7751,-112.0649 541.3064,-106.3159 555.5524,-101.5761"/>
<polygon fill="#191970" stroke="#191970" points="481.6386,-121.3726 473.0466,-127.5717 483.6291,-128.0837 481.6386,-121.3726"/>
</g>
<!-- Node198 -->
<g id="node8" class="node">
<title>Node198</title>
<g id="a_node8"><a xlink:href="atm__step__4_a_8f90.xhtml#a2319aa4963e90c64cd78bdcd5f481095" target="_top" xlink:title="Perform a 1&#45;timestep integration of the Atmosphere Model. ">
<polygon fill="#ffffff" stroke="#000000" points="544,-44.5 544,-63.5 624,-63.5 624,-44.5 544,-44.5"/>
<text text-anchor="middle" x="584" y="-51.5" font-family="Helvetica,sans-Serif" font-size="10.00" fill="#000000">atm_step_4a</text>
</a>
</g>
</g>
<!-- Node193&#45;&gt;Node198 -->
<g id="edge7" class="edge">
<title>Node193&#45;&gt;Node198</title>
<path fill="none" stroke="#191970" d="M482.9642,-128.4499C491.6486,-125.7006 500.4968,-121.9894 508,-117 529.0399,-103.0091 524.1054,-88.5764 544,-73 548.6006,-69.398 553.9949,-66.2601 559.3063,-63.6282"/>
<polygon fill="#191970" stroke="#191970" points="481.9901,-125.088 473.3093,-131.162 483.8832,-131.8271 481.9901,-125.088"/>
</g>
<!-- Node200 -->
<g id="node10" class="node">
<title>Node200</title>
<g id="a_node10"><a xlink:href="initdiag_8f90.xhtml#a95a853661b4e10339418e4a8c29b8c9c" target="_top" xlink:title="Calculate diagnostic quantities from the initial atmosphere dump Calculate diagnostic quantities from...">
<polygon fill="#ffffff" stroke="#000000" points="557.5,-126.5 557.5,-145.5 610.5,-145.5 610.5,-126.5 557.5,-126.5"/>
<text text-anchor="middle" x="584" y="-133.5" font-family="Helvetica,sans-Serif" font-size="10.00" fill="#000000">initdiag</text>
</a>
</g>
</g>
<!-- Node193&#45;&gt;Node200 -->
<g id="edge10" class="edge">
<title>Node193&#45;&gt;Node200</title>
<path fill="none" stroke="#191970" d="M483.0922,-136C506.7878,-136 536.3958,-136 557.3969,-136"/>
<polygon fill="#191970" stroke="#191970" points="483.0081,-132.5001 473.0081,-136 483.0081,-139.5001 483.0081,-132.5001"/>
</g>
<!-- Node195 -->
<g id="node5" class="node">
<title>Node195</title>
<g id="a_node5"><a xlink:href="u__model_8f90.xhtml#ada0cd2ce4699433bf0f9adbd882c8eec" target="_top" xlink:title="Subroutine: U_MODEL &#45;!&gt; ">
<polygon fill="#ffffff" stroke="#000000" points="668.5,-82.5 668.5,-101.5 727.5,-101.5 727.5,-82.5 668.5,-82.5"/>
<text text-anchor="middle" x="698" y="-89.5" font-family="Helvetica,sans-Serif" font-size="10.00" fill="#000000">u_model</text>
</a>
</g>
</g>
<!-- Node194&#45;&gt;Node195 -->
<g id="edge4" class="edge">
<title>Node194&#45;&gt;Node195</title>
<path fill="none" stroke="#191970" d="M625.2532,-92C639.5539,-92 655.2895,-92 668.4568,-92"/>
<polygon fill="#191970" stroke="#191970" points="625.151,-88.5001 615.151,-92 625.151,-95.5001 625.151,-88.5001"/>
</g>
<!-- Node196 -->
<g id="node6" class="node">
<title>Node196</title>
<g id="a_node6"><a xlink:href="um__shell_8f90.xhtml#a8c9bd25362824a5c301376ecb5ed5c27" target="_top" xlink:title="Subroutine: UM_SHELL !&gt; ">
<polygon fill="#ffffff" stroke="#000000" points="772,-63.5 772,-82.5 833,-82.5 833,-63.5 772,-63.5"/>
<text text-anchor="middle" x="802.5" y="-70.5" font-family="Helvetica,sans-Serif" font-size="10.00" fill="#000000">um_shell</text>
</a>
</g>
</g>
<!-- Node195&#45;&gt;Node196 -->
<g id="edge5" class="edge">
<title>Node195&#45;&gt;Node196</title>
<path fill="none" stroke="#191970" d="M737.701,-84.7816C748.951,-82.7362 761.0261,-80.5407 771.6677,-78.6059"/>
<polygon fill="#191970" stroke="#191970" points="736.8786,-81.3737 727.666,-86.6062 738.1308,-88.2608 736.8786,-81.3737"/>
</g>
<!-- Node197 -->
<g id="node7" class="node">
<title>Node197</title>
<g id="a_node7"><a xlink:href="um__main_8f90.xhtml#a8f2d13215621443a5313261c282f098b" target="_top" xlink:title="Code Owner: See Unified Model Code Owner&#39;s HTML page. ">
<polygon fill="#ffffff" stroke="#000000" points="869,-63.5 869,-82.5 931,-82.5 931,-63.5 869,-63.5"/>
<text text-anchor="middle" x="900" y="-70.5" font-family="Helvetica,sans-Serif" font-size="10.00" fill="#000000">um_main</text>
</a>
</g>
</g>
<!-- Node196&#45;&gt;Node197 -->
<g id="edge6" class="edge">
<title>Node196&#45;&gt;Node197</title>
<path fill="none" stroke="#191970" d="M843.2756,-73C851.8294,-73 860.72,-73 868.8551,-73"/>
<polygon fill="#191970" stroke="#191970" points="843.0821,-69.5001 833.0821,-73 843.0821,-76.5001 843.0821,-69.5001"/>
</g>
<!-- Node199 -->
<g id="node9" class="node">
<title>Node199</title>
<g id="a_node9"><a xlink:href="u__model__4_a_8f90.xhtml#afa05064dab5eba198b461d0928767c7e" target="_top" xlink:title="LL Subroutine: U_MODEL_4A (ENDGAME VERSION) !&gt;LL. ">
<polygon fill="#ffffff" stroke="#000000" points="660,-44.5 660,-63.5 736,-63.5 736,-44.5 660,-44.5"/>
<text text-anchor="middle" x="698" y="-51.5" font-family="Helvetica,sans-Serif" font-size="10.00" fill="#000000">u_model_4a</text>
</a>
</g>
</g>
<!-- Node198&#45;&gt;Node199 -->
<g id="edge8" class="edge">
<title>Node198&#45;&gt;Node199</title>
<path fill="none" stroke="#191970" d="M634.3998,-54C642.891,-54 651.5803,-54 659.7002,-54"/>
<polygon fill="#191970" stroke="#191970" points="634.1922,-50.5001 624.1921,-54 634.1921,-57.5001 634.1922,-50.5001"/>
</g>
<!-- Node199&#45;&gt;Node196 -->
<g id="edge9" class="edge">
<title>Node199&#45;&gt;Node196</title>
<path fill="none" stroke="#191970" d="M745.8728,-62.7041C754.7087,-64.3107 763.7128,-65.9478 771.8647,-67.43"/>
<polygon fill="#191970" stroke="#191970" points="746.4873,-59.2586 736.0225,-60.9132 745.2351,-66.1457 746.4873,-59.2586"/>
</g>
<!-- Node202 -->
<g id="node12" class="node">
<title>Node202</title>
<g id="a_node12"><a xlink:href="flux__process__main_8f90.xhtml#aa4f9adbe127f17a972e1284856a37f9c" target="_top" xlink:title="Programming standard: Unified Model Documentation Paper No 3. ">
<polygon fill="#ffffff" stroke="#000000" points="390.5,-88.5 390.5,-107.5 497.5,-107.5 497.5,-88.5 390.5,-88.5"/>
<text text-anchor="middle" x="444" y="-95.5" font-family="Helvetica,sans-Serif" font-size="10.00" fill="#000000">flux_process_main</text>
</a>
</g>
</g>
<!-- Node201&#45;&gt;Node202 -->
<g id="edge12" class="edge">
<title>Node201&#45;&gt;Node202</title>
<path fill="none" stroke="#191970" d="M332.8048,-98C350.9532,-98 371.6413,-98 390.2111,-98"/>
<polygon fill="#191970" stroke="#191970" points="332.7316,-94.5001 322.7315,-98 332.7315,-101.5001 332.7316,-94.5001"/>
</g>
<!-- Node203&#45;&gt;Node201 -->
<g id="edge14" class="edge">
<title>Node203&#45;&gt;Node201</title>
<path fill="none" stroke="#191970" d="M198.27,-98C213.3838,-98 230.5132,-98 245.4656,-98"/>
<polygon fill="#191970" stroke="#191970" points="198.1802,-94.5001 188.1801,-98 198.1801,-101.5001 198.1802,-94.5001"/>
</g>
<!-- Node204&#45;&gt;Node201 -->
<g id="edge24" class="edge">
<title>Node204&#45;&gt;Node201</title>
<path fill="none" stroke="#191970" d="M182.6286,-36.8553C207.9581,-52.1335 246.6545,-75.4742 268.1716,-88.4527"/>
<polygon fill="#191970" stroke="#191970" points="184.3287,-33.7934 173.958,-31.6255 180.7132,-39.7875 184.3287,-33.7934"/>
</g>
<!-- Node205 -->
<g id="node15" class="node">
<title>Node205</title>
<g id="a_node15"><a xlink:href="namespaceset__seasalt__mod.xhtml#a5c36f354358226be262b60f271cd9938" target="_top" xlink:title="set_seasalt_mod::set\l_seasalt_4a">
<polygon fill="#ffffff" stroke="#000000" points="224,-7 224,-37 344,-37 344,-7 224,-7"/>
<text text-anchor="start" x="232" y="-25" font-family="Helvetica,sans-Serif" font-size="10.00" fill="#000000">set_seasalt_mod::set</text>
<text text-anchor="middle" x="284" y="-14" font-family="Helvetica,sans-Serif" font-size="10.00" fill="#000000">_seasalt_4a</text>
</a>
</g>
</g>
<!-- Node204&#45;&gt;Node205 -->
<g id="edge16" class="edge">
<title>Node204&#45;&gt;Node205</title>
<path fill="none" stroke="#191970" d="M194.9334,-22C204.0265,-22 213.9991,-22 223.8773,-22"/>
<polygon fill="#191970" stroke="#191970" points="194.7214,-18.5001 184.7214,-22 194.7213,-25.5001 194.7214,-18.5001"/>
</g>
<!-- Node206 -->
<g id="node16" class="node">
<title>Node206</title>
<g id="a_node16"><a xlink:href="namespaceaero__ctl__mod__4a.xhtml#a8be16d3b6d6949cfc2fd32c575e47e76" target="_top" xlink:title="aero_ctl_mod_4a::aero\l_ctl_4a">
<polygon fill="#ffffff" stroke="#000000" points="380,-39 380,-69 508,-69 508,-39 380,-39"/>
<text text-anchor="start" x="388" y="-57" font-family="Helvetica,sans-Serif" font-size="10.00" fill="#000000">aero_ctl_mod_4a::aero</text>
<text text-anchor="middle" x="444" y="-46" font-family="Helvetica,sans-Serif" font-size="10.00" fill="#000000">_ctl_4a</text>
</a>
</g>
</g>
<!-- Node205&#45;&gt;Node206 -->
<g id="edge17" class="edge">
<title>Node205&#45;&gt;Node206</title>
<path fill="none" stroke="#191970" d="M354.0296,-36.0059C362.6266,-37.7253 371.3797,-39.4759 379.8834,-41.1767"/>
<polygon fill="#191970" stroke="#191970" points="354.5256,-32.5359 344.0333,-34.0067 353.1527,-39.3999 354.5256,-32.5359"/>
</g>
<!-- Node207 -->
<g id="node17" class="node">
<title>Node207</title>
<g id="a_node17"><a xlink:href="atmos__physics1_8f90.xhtml#ae8d55d89da6ed68f5f8d7e9eec99bc76" target="_top" xlink:title="Interface to Atmos Physics parametrizations before S&#45;L advection. ">
<polygon fill="#ffffff" stroke="#000000" points="396.5,-.5 396.5,-19.5 491.5,-19.5 491.5,-.5 396.5,-.5"/>
<text text-anchor="middle" x="444" y="-7.5" font-family="Helvetica,sans-Serif" font-size="10.00" fill="#000000">atmos_physics1</text>
</a>
</g>
</g>
<!-- Node205&#45;&gt;Node207 -->
<g id="edge19" class="edge">
<title>Node205&#45;&gt;Node207</title>
<path fill="none" stroke="#191970" d="M354.2908,-16.7282C368.5147,-15.6614 383.1542,-14.5634 396.3747,-13.5719"/>
<polygon fill="#191970" stroke="#191970" points="353.7435,-13.2593 344.0333,-17.4975 354.2671,-20.2397 353.7435,-13.2593"/>
</g>
<!-- Node206&#45;&gt;Node198 -->
<g id="edge18" class="edge">
<title>Node206&#45;&gt;Node198</title>
<path fill="none" stroke="#191970" d="M518.475,-54C527.1649,-54 535.7626,-54 543.7292,-54"/>
<polygon fill="#191970" stroke="#191970" points="518.2636,-50.5001 508.2635,-54 518.2635,-57.5001 518.2636,-50.5001"/>
</g>
<!-- Node207&#45;&gt;Node194 -->
<g id="edge20" class="edge">
<title>Node207&#45;&gt;Node194</title>
<path fill="none" stroke="#191970" d="M498.1965,-23.4857C501.6211,-25.1235 504.9236,-26.9543 508,-29 529.0399,-42.9909 524.1054,-57.4236 544,-73 548.6006,-76.602 553.9949,-79.7399 559.3063,-82.3718"/>
<polygon fill="#191970" stroke="#191970" points="499.4927,-20.234 488.9177,-19.5865 496.7808,-26.6873 499.4927,-20.234"/>
</g>
<!-- Node207&#45;&gt;Node198 -->
<g id="edge21" class="edge">
<title>Node207&#45;&gt;Node198</title>
<path fill="none" stroke="#191970" d="M486.5474,-22.442C493.7192,-24.5934 501.0795,-26.835 508,-29 523.7751,-33.9351 541.3064,-39.6841 555.5524,-44.4239"/>
<polygon fill="#191970" stroke="#191970" points="487.5266,-19.0818 476.9434,-19.5798 485.5272,-25.7902 487.5266,-19.0818"/>
</g>
<!-- Node208 -->
<g id="node18" class="node">
<title>Node208</title>
<g id="a_node18"><a xlink:href="scm__main_8f90.xhtml#a2c730136605550612e094ce51d33a2a5" target="_top" xlink:title="*********************************COPYRIGHT********************************* ">
<polygon fill="#ffffff" stroke="#000000" points="550.5,-.5 550.5,-19.5 617.5,-19.5 617.5,-.5 550.5,-.5"/>
<text text-anchor="middle" x="584" y="-7.5" font-family="Helvetica,sans-Serif" font-size="10.00" fill="#000000">scm_main</text>
</a>
</g>
</g>
<!-- Node207&#45;&gt;Node208 -->
<g id="edge22" class="edge">
<title>Node207&#45;&gt;Node208</title>
<path fill="none" stroke="#191970" d="M501.8588,-10C518.2772,-10 535.6148,-10 550.1085,-10"/>
<polygon fill="#191970" stroke="#191970" points="501.7885,-6.5001 491.7885,-10 501.7885,-13.5001 501.7885,-6.5001"/>
</g>
<!-- Node209 -->
<g id="node19" class="node">
<title>Node209</title>
<g id="a_node19"><a xlink:href="scm__shell_8f90.xhtml#ab15255829ee7b5be626b1c0861b40c8d" target="_top" xlink:title="scm_shell is the main calling program for the Single Column Model. ">
<polygon fill="#ffffff" stroke="#000000" points="665.5,-.5 665.5,-19.5 730.5,-19.5 730.5,-.5 665.5,-.5"/>
<text text-anchor="middle" x="698" y="-7.5" font-family="Helvetica,sans-Serif" font-size="10.00" fill="#000000">scm_shell</text>
</a>
</g>
</g>
<!-- Node208&#45;&gt;Node209 -->
<g id="edge23" class="edge">
<title>Node208&#45;&gt;Node209</title>
<path fill="none" stroke="#191970" d="M627.8248,-10C640.3307,-10 653.7319,-10 665.4371,-10"/>
<polygon fill="#191970" stroke="#191970" points="627.5872,-6.5001 617.5872,-10 627.5871,-13.5001 627.5872,-6.5001"/>
</g>
<!-- Node210&#45;&gt;Node201 -->
<g id="edge26" class="edge">
<title>Node210&#45;&gt;Node201</title>
<path fill="none" stroke="#191970" d="M190.2458,-69.7249C209.2714,-75.4628 233.2554,-82.6961 252.2023,-88.4102"/>
<polygon fill="#191970" stroke="#191970" points="191.111,-66.3302 180.5263,-66.7936 189.0897,-73.0321 191.111,-66.3302"/>
</g>
</g>
</svg>
