<?xml version="1.0" encoding="UTF-8" standalone="no"?>
<!DOCTYPE svg PUBLIC "-//W3C//DTD SVG 1.1//EN"
 "http://www.w3.org/Graphics/SVG/1.1/DTD/svg11.dtd">
<!-- Generated by graphviz version 2.40.1 (20161225.0304)
 -->
<!-- Title: read_land_sea Pages: 1 -->
<svg width="922pt" height="203pt"
 viewBox="0.00 0.00 922.00 202.50" xmlns="http://www.w3.org/2000/svg" xmlns:xlink="http://www.w3.org/1999/xlink">
<g id="graph0" class="graph" transform="scale(1 1) rotate(0) translate(4 198.5)">
<title>read_land_sea</title>
<polygon fill="#ffffff" stroke="transparent" points="-4,4 -4,-198.5 918,-198.5 918,4 -4,4"/>
<!-- Node10 -->
<g id="node1" class="node">
<title>Node10</title>
<polygon fill="#bfbfbf" stroke="#000000" points="0,-118 0,-137 87,-137 87,-118 0,-118"/>
<text text-anchor="middle" x="43.5" y="-125" font-family="Helvetica,sans-Serif" font-size="10.00" fill="#000000">read_land_sea</text>
</g>
<!-- Node11 -->
<g id="node2" class="node">
<title>Node11</title>
<g id="a_node2"><a xlink:href="calc__land__field_8f90.xhtml#ab01aeffaa29d9db6fa900eee2244cfa6" target="_top" xlink:title="Subroutine DERV_LAND_FIELD : Computes no of land points in MPP jobs Subroutine DERV_LAND_FIELD : Comp...">
<polygon fill="#ffffff" stroke="#000000" points="123,-156 123,-175 212,-175 212,-156 123,-156"/>
<text text-anchor="middle" x="167.5" y="-163" font-family="Helvetica,sans-Serif" font-size="10.00" fill="#000000">calc_land_field</text>
</a>
</g>
</g>
<!-- Node10&#45;&gt;Node11 -->
<g id="edge1" class="edge">
<title>Node10&#45;&gt;Node11</title>
<path fill="none" stroke="#191970" d="M84.4047,-140.0353C101.2734,-145.2048 120.5076,-151.0991 136.2196,-155.9141"/>
<polygon fill="#191970" stroke="#191970" points="85.3771,-136.6727 74.7904,-137.089 83.326,-143.3655 85.3771,-136.6727"/>
</g>
<!-- Node15 -->
<g id="node6" class="node">
<title>Node15</title>
<g id="a_node6"><a xlink:href="compare_8f90.xhtml#a8263e041986ac65a9137b8fddbcdce4e" target="_top" xlink:title="Subroutine COMPARE. ">
<polygon fill="#ffffff" stroke="#000000" points="138,-99 138,-118 197,-118 197,-99 138,-99"/>
<text text-anchor="middle" x="167.5" y="-106" font-family="Helvetica,sans-Serif" font-size="10.00" fill="#000000">compare</text>
</a>
</g>
</g>
<!-- Node10&#45;&gt;Node15 -->
<g id="edge5" class="edge">
<title>Node10&#45;&gt;Node15</title>
<path fill="none" stroke="#191970" d="M97.2055,-119.2709C111.1159,-117.1395 125.5936,-114.9211 137.7693,-113.0555"/>
<polygon fill="#191970" stroke="#191970" points="96.5723,-115.827 87.2178,-120.8013 97.6325,-122.7463 96.5723,-115.827"/>
</g>
<!-- Node12 -->
<g id="node3" class="node">
<title>Node12</title>
<g id="a_node3"><a xlink:href="derv__land__field_8f90.xhtml#aec166bb22b5ae583ddfaed40104bda74" target="_top" xlink:title="Subroutine DERV_LAND_FIELD : Computes no of land points in MPP jobs Subroutine DERV_LAND_FIELD : Comp...">
<polygon fill="#ffffff" stroke="#000000" points="259.5,-175 259.5,-194 350.5,-194 350.5,-175 259.5,-175"/>
<text text-anchor="middle" x="305" y="-182" font-family="Helvetica,sans-Serif" font-size="10.00" fill="#000000">derv_land_field</text>
</a>
</g>
</g>
<!-- Node11&#45;&gt;Node12 -->
<g id="edge2" class="edge">
<title>Node11&#45;&gt;Node12</title>
<path fill="none" stroke="#191970" d="M222.2403,-173.0641C234.4777,-174.7551 247.3336,-176.5316 259.1667,-178.1667"/>
<polygon fill="#191970" stroke="#191970" points="222.5273,-169.5706 212.1423,-171.6688 221.5691,-176.5047 222.5273,-169.5706"/>
</g>
<!-- Node13 -->
<g id="node4" class="node">
<title>Node13</title>
<g id="a_node4"><a xlink:href="um__shell_8f90.xhtml#a8c9bd25362824a5c301376ecb5ed5c27" target="_top" xlink:title="Subroutine: UM_SHELL !&gt; ">
<polygon fill="#ffffff" stroke="#000000" points="424.5,-175 424.5,-194 485.5,-194 485.5,-175 424.5,-175"/>
<text text-anchor="middle" x="455" y="-182" font-family="Helvetica,sans-Serif" font-size="10.00" fill="#000000">um_shell</text>
</a>
</g>
</g>
<!-- Node12&#45;&gt;Node13 -->
<g id="edge3" class="edge">
<title>Node12&#45;&gt;Node13</title>
<path fill="none" stroke="#191970" d="M361.0938,-184.5C382.4474,-184.5 405.9883,-184.5 424.1585,-184.5"/>
<polygon fill="#191970" stroke="#191970" points="360.82,-181.0001 350.82,-184.5 360.82,-188.0001 360.82,-181.0001"/>
</g>
<!-- Node14 -->
<g id="node5" class="node">
<title>Node14</title>
<g id="a_node5"><a xlink:href="um__main_8f90.xhtml#a8f2d13215621443a5313261c282f098b" target="_top" xlink:title="Code Owner: See Unified Model Code Owner&#39;s HTML page. ">
<polygon fill="#ffffff" stroke="#000000" points="576.5,-175 576.5,-194 638.5,-194 638.5,-175 576.5,-175"/>
<text text-anchor="middle" x="607.5" y="-182" font-family="Helvetica,sans-Serif" font-size="10.00" fill="#000000">um_main</text>
</a>
</g>
</g>
<!-- Node13&#45;&gt;Node14 -->
<g id="edge4" class="edge">
<title>Node13&#45;&gt;Node14</title>
<path fill="none" stroke="#191970" d="M495.9014,-184.5C521.2104,-184.5 553.1919,-184.5 576.4239,-184.5"/>
<polygon fill="#191970" stroke="#191970" points="495.8607,-181.0001 485.8607,-184.5 495.8606,-188.0001 495.8607,-181.0001"/>
</g>
<!-- Node16 -->
<g id="node7" class="node">
<title>Node16</title>
<g id="a_node7"><a xlink:href="main__compare_8f90.xhtml#a859636429424208eb8d60d10a418297b" target="_top" xlink:title="Program MAIN_COMPARE and Subroutine COMPARE. ">
<polygon fill="#ffffff" stroke="#000000" points="260.5,-137 260.5,-156 349.5,-156 349.5,-137 260.5,-137"/>
<text text-anchor="middle" x="305" y="-144" font-family="Helvetica,sans-Serif" font-size="10.00" fill="#000000">main_compare</text>
</a>
</g>
</g>
<!-- Node15&#45;&gt;Node16 -->
<g id="edge6" class="edge">
<title>Node15&#45;&gt;Node16</title>
<path fill="none" stroke="#191970" d="M207.0818,-119.439C227.0779,-124.9652 251.1152,-131.6082 270.3695,-136.9294"/>
<polygon fill="#191970" stroke="#191970" points="207.9065,-116.0357 197.3355,-116.7454 206.0418,-122.7828 207.9065,-116.0357"/>
</g>
<!-- Node17 -->
<g id="node8" class="node">
<title>Node17</title>
<g id="a_node8"><a xlink:href="namespacercf__grib__check__mod.xhtml#aabd82bfcb65d0bc36c6702bed0e660a1" target="_top" xlink:title="SUBROUTINE Rcf_Grib_Check Perform Basic consistancy checks on GRIB Data being handled. &#45;and!&gt; FUNCTION Find_Match &#45; recursively traverse a list to find a match. ">
<polygon fill="#ffffff" stroke="#000000" points="398,-49.5 398,-79.5 512,-79.5 512,-49.5 398,-49.5"/>
<text text-anchor="start" x="406" y="-67.5" font-family="Helvetica,sans-Serif" font-size="10.00" fill="#000000">rcf_grib_check_mod</text>
<text text-anchor="middle" x="455" y="-56.5" font-family="Helvetica,sans-Serif" font-size="10.00" fill="#000000">::rcf_grib_check</text>
</a>
</g>
</g>
<!-- Node15&#45;&gt;Node17 -->
<g id="edge7" class="edge">
<title>Node15&#45;&gt;Node17</title>
<path fill="none" stroke="#191970" d="M207.0529,-106.5554C246.5406,-104.1648 308.8365,-99.1738 362,-89.5 376.1461,-86.9259 391.2832,-83.26 405.149,-79.5262"/>
<polygon fill="#191970" stroke="#191970" points="206.8169,-103.0631 197.036,-107.1354 207.2216,-110.0514 206.8169,-103.0631"/>
</g>
<!-- Node21 -->
<g id="node12" class="node">
<title>Node21</title>
<g id="a_node12"><a xlink:href="namespacercf__grib__check__mod.xhtml#ac6c4e0c34e93a10bb0c03bfa8113a544" target="_top" xlink:title="rcf_grib_check_mod\l::find_match">
<polygon fill="#ffffff" stroke="#000000" points="248,-49.5 248,-79.5 362,-79.5 362,-49.5 248,-49.5"/>
<text text-anchor="start" x="256" y="-67.5" font-family="Helvetica,sans-Serif" font-size="10.00" fill="#000000">rcf_grib_check_mod</text>
<text text-anchor="middle" x="305" y="-56.5" font-family="Helvetica,sans-Serif" font-size="10.00" fill="#000000">::find_match</text>
</a>
</g>
</g>
<!-- Node15&#45;&gt;Node21 -->
<g id="edge11" class="edge">
<title>Node15&#45;&gt;Node21</title>
<path fill="none" stroke="#191970" d="M206.8725,-95.9008C222.7909,-90.8069 241.2973,-84.8849 257.9207,-79.5654"/>
<polygon fill="#191970" stroke="#191970" points="205.793,-92.5713 197.3355,-98.9527 207.9264,-99.2383 205.793,-92.5713"/>
</g>
<!-- Node22 -->
<g id="node13" class="node">
<title>Node22</title>
<g id="a_node13"><a xlink:href="namespacercf__grib__check__mod.xhtml#af0ed2f6b3c790f175c07d9ba420cd13e" target="_top" xlink:title="rcf_grib_check_mod\l::find_match_vert">
<polygon fill="#ffffff" stroke="#000000" points="248,-.5 248,-30.5 362,-30.5 362,-.5 248,-.5"/>
<text text-anchor="start" x="256" y="-18.5" font-family="Helvetica,sans-Serif" font-size="10.00" fill="#000000">rcf_grib_check_mod</text>
<text text-anchor="middle" x="305" y="-7.5" font-family="Helvetica,sans-Serif" font-size="10.00" fill="#000000">::find_match_vert</text>
</a>
</g>
</g>
<!-- Node15&#45;&gt;Node22 -->
<g id="edge13" class="edge">
<title>Node15&#45;&gt;Node22</title>
<path fill="none" stroke="#191970" d="M183.875,-91.7538C199.3438,-76.6261 223.7326,-54.4981 248,-39.5 253.2062,-36.2824 258.9198,-33.3078 264.6568,-30.6276"/>
<polygon fill="#191970" stroke="#191970" points="181.2631,-89.4154 176.6469,-98.9518 186.2025,-94.3756 181.2631,-89.4154"/>
</g>
<!-- Node18 -->
<g id="node9" class="node">
<title>Node18</title>
<g id="a_node9"><a xlink:href="namespacercf__grib__control__mod.xhtml#ac6174bbd64f507e15341873465221613" target="_top" xlink:title="SUBROUTINE Rcf_Grib_Control. ">
<polygon fill="#ffffff" stroke="#000000" points="548,-49.5 548,-79.5 667,-79.5 667,-49.5 548,-49.5"/>
<text text-anchor="start" x="556" y="-67.5" font-family="Helvetica,sans-Serif" font-size="10.00" fill="#000000">rcf_grib_control_mod</text>
<text text-anchor="middle" x="607.5" y="-56.5" font-family="Helvetica,sans-Serif" font-size="10.00" fill="#000000">::rcf_grib_control</text>
</a>
</g>
</g>
<!-- Node17&#45;&gt;Node18 -->
<g id="edge8" class="edge">
<title>Node17&#45;&gt;Node18</title>
<path fill="none" stroke="#191970" d="M522.4639,-64.5C530.9459,-64.5 539.575,-64.5 547.9236,-64.5"/>
<polygon fill="#191970" stroke="#191970" points="522.2193,-61.0001 512.2192,-64.5 522.2192,-68.0001 522.2193,-61.0001"/>
</g>
<!-- Node19 -->
<g id="node10" class="node">
<title>Node19</title>
<g id="a_node10"><a xlink:href="namespacercf__initialise__mod.xhtml#ab7086bd455bd5857b757207d0255c3f4" target="_top" xlink:title="Subroutine Rcf_Initialise &#45; initialisation tasks. ">
<polygon fill="#ffffff" stroke="#000000" points="703,-49.5 703,-79.5 807,-79.5 807,-49.5 703,-49.5"/>
<text text-anchor="start" x="711" y="-67.5" font-family="Helvetica,sans-Serif" font-size="10.00" fill="#000000">rcf_initialise_mod</text>
<text text-anchor="middle" x="755" y="-56.5" font-family="Helvetica,sans-Serif" font-size="10.00" fill="#000000">::rcf_initialise</text>
</a>
</g>
</g>
<!-- Node18&#45;&gt;Node19 -->
<g id="edge9" class="edge">
<title>Node18&#45;&gt;Node19</title>
<path fill="none" stroke="#191970" d="M677.1447,-64.5C685.7816,-64.5 694.4939,-64.5 702.8057,-64.5"/>
<polygon fill="#191970" stroke="#191970" points="677.0688,-61.0001 667.0687,-64.5 677.0687,-68.0001 677.0688,-61.0001"/>
</g>
<!-- Node20 -->
<g id="node11" class="node">
<title>Node20</title>
<g id="a_node11"><a xlink:href="reconfigure_8f90.xhtml#a55389899cfceedbb4b0f908c73988c0c" target="_top" xlink:title="Top level program for reconfiguration. ">
<polygon fill="#ffffff" stroke="#000000" points="843,-55 843,-74 914,-74 914,-55 843,-55"/>
<text text-anchor="middle" x="878.5" y="-62" font-family="Helvetica,sans-Serif" font-size="10.00" fill="#000000">reconfigure</text>
</a>
</g>
</g>
<!-- Node19&#45;&gt;Node20 -->
<g id="edge10" class="edge">
<title>Node19&#45;&gt;Node20</title>
<path fill="none" stroke="#191970" d="M817.2179,-64.5C825.938,-64.5 834.6456,-64.5 842.6452,-64.5"/>
<polygon fill="#191970" stroke="#191970" points="817.0172,-61.0001 807.0172,-64.5 817.0171,-68.0001 817.0172,-61.0001"/>
</g>
<!-- Node21&#45;&gt;Node17 -->
<g id="edge12" class="edge">
<title>Node21&#45;&gt;Node17</title>
<path fill="none" stroke="#191970" d="M372.3106,-64.5C380.7284,-64.5 389.2768,-64.5 397.5255,-64.5"/>
<polygon fill="#191970" stroke="#191970" points="372.1365,-61.0001 362.1365,-64.5 372.1364,-68.0001 372.1365,-61.0001"/>
</g>
<!-- Node22&#45;&gt;Node17 -->
<g id="edge14" class="edge">
<title>Node22&#45;&gt;Node17</title>
<path fill="none" stroke="#191970" d="M360.8951,-33.7591C376.7161,-38.9273 393.7523,-44.4924 408.9237,-49.4484"/>
<polygon fill="#191970" stroke="#191970" points="361.8214,-30.3797 351.2289,-30.6014 359.6477,-37.0337 361.8214,-30.3797"/>
</g>
</g>
</svg>
