<?xml version="1.0" encoding="UTF-8" standalone="no"?>
<!DOCTYPE svg PUBLIC "-//W3C//DTD SVG 1.1//EN"
 "http://www.w3.org/Graphics/SVG/1.1/DTD/svg11.dtd">
<!-- Generated by graphviz version 2.40.1 (20161225.0304)
 -->
<!-- Title: readflds_serial Pages: 1 -->
<svg width="320pt" height="28pt"
 viewBox="0.00 0.00 320.00 28.00" xmlns="http://www.w3.org/2000/svg" xmlns:xlink="http://www.w3.org/1999/xlink">
<g id="graph0" class="graph" transform="scale(1 1) rotate(0) translate(4 24)">
<title>readflds_serial</title>
<polygon fill="#ffffff" stroke="transparent" points="-4,4 -4,-24 316,-24 316,4 -4,4"/>
<!-- Node175 -->
<g id="node1" class="node">
<title>Node175</title>
<polygon fill="#bfbfbf" stroke="#000000" points="0,-.5 0,-19.5 88,-19.5 88,-.5 0,-.5"/>
<text text-anchor="middle" x="44" y="-7.5" font-family="Helvetica,sans-Serif" font-size="10.00" fill="#000000">readflds_serial</text>
</g>
<!-- Node176 -->
<g id="node2" class="node">
<title>Node176</title>
<g id="a_node2"><a xlink:href="vomext_8f90.xhtml#ac134361e9d91e7f7c5afae011709cc2d" target="_top" xlink:title="DEPENDS ON: Timer. ">
<polygon fill="#ffffff" stroke="#000000" points="124,-.5 124,-19.5 198,-19.5 198,-.5 124,-.5"/>
<text text-anchor="middle" x="161" y="-7.5" font-family="Helvetica,sans-Serif" font-size="10.00" fill="#000000">um_profiles</text>
</a>
</g>
</g>
<!-- Node175&#45;&gt;Node176 -->
<g id="edge1" class="edge">
<title>Node175&#45;&gt;Node176</title>
<path fill="none" stroke="#191970" d="M98.3188,-10C106.9983,-10 115.8011,-10 123.9579,-10"/>
<polygon fill="#191970" stroke="#191970" points="98.2327,-6.5001 88.2327,-10 98.2326,-13.5001 98.2327,-6.5001"/>
</g>
<!-- Node177 -->
<g id="node3" class="node">
<title>Node177</title>
<g id="a_node3"><a xlink:href="vomext_8f90.xhtml#a0dca728c404932cb5944e3f7627fa957" target="_top" xlink:title=" ">
<polygon fill="#ffffff" stroke="#000000" points="234,-.5 234,-19.5 312,-19.5 312,-.5 234,-.5"/>
<text text-anchor="middle" x="273" y="-7.5" font-family="Helvetica,sans-Serif" font-size="10.00" fill="#000000">vom_extract</text>
</a>
</g>
</g>
<!-- Node176&#45;&gt;Node177 -->
<g id="edge2" class="edge">
<title>Node176&#45;&gt;Node177</title>
<path fill="none" stroke="#191970" d="M208.4688,-10C216.9635,-10 225.7263,-10 233.9507,-10"/>
<polygon fill="#191970" stroke="#191970" points="208.2944,-6.5001 198.2944,-10 208.2943,-13.5001 208.2944,-6.5001"/>
</g>
</g>
</svg>
