<?xml version="1.0" encoding="UTF-8" standalone="no"?>
<!DOCTYPE svg PUBLIC "-//W3C//DTD SVG 1.1//EN"
 "http://www.w3.org/Graphics/SVG/1.1/DTD/svg11.dtd">
<!-- Generated by graphviz version 2.40.1 (20161225.0304)
 -->
<!-- Title: read_flh Pages: 1 -->
<svg width="681pt" height="66pt"
 viewBox="0.00 0.00 681.00 66.00" xmlns="http://www.w3.org/2000/svg" xmlns:xlink="http://www.w3.org/1999/xlink">
<g id="graph0" class="graph" transform="scale(1 1) rotate(0) translate(4 62)">
<title>read_flh</title>
<polygon fill="#ffffff" stroke="transparent" points="-4,4 -4,-62 677,-62 677,4 -4,4"/>
<!-- Node0 -->
<g id="node1" class="node">
<title>Node0</title>
<polygon fill="#bfbfbf" stroke="#000000" points="0,-38.5 0,-57.5 56,-57.5 56,-38.5 0,-38.5"/>
<text text-anchor="middle" x="28" y="-45.5" font-family="Helvetica,sans-Serif" font-size="10.00" fill="#000000">read_flh</text>
</g>
<!-- Node1 -->
<g id="node2" class="node">
<title>Node1</title>
<g id="a_node2"><a xlink:href="ioerror_8f90.xhtml#aa3812224bd42148a2e00c44c715f82de" target="_top" xlink:title="SUBROUTINE IOERROR!&gt; ">
<polygon fill="#ffffff" stroke="#000000" points="92,-38.5 92,-57.5 141,-57.5 141,-38.5 92,-38.5"/>
<text text-anchor="middle" x="116.5" y="-45.5" font-family="Helvetica,sans-Serif" font-size="10.00" fill="#000000">ioerror</text>
</a>
</g>
</g>
<!-- Node0&#45;&gt;Node1 -->
<g id="edge1" class="edge">
<title>Node0&#45;&gt;Node1</title>
<path fill="none" stroke="#191970" d="M56.002,-48C64.2104,-48 73.2851,-48 81.8548,-48"/>
<polygon fill="#191970" stroke="#191970" points="81.9654,-51.5001 91.9653,-48 81.9653,-44.5001 81.9654,-51.5001"/>
</g>
<!-- Node2 -->
<g id="node3" class="node">
<title>Node2</title>
<g id="a_node3"><a xlink:href="namespaceumprintmgr.xhtml#aae44897e556705dbf5e945a26538be9a" target="_top" xlink:title="umprintmgr::umprint">
<polygon fill="#ffffff" stroke="#000000" points="177,-38.5 177,-57.5 296,-57.5 296,-38.5 177,-38.5"/>
<text text-anchor="middle" x="236.5" y="-45.5" font-family="Helvetica,sans-Serif" font-size="10.00" fill="#000000">umprintmgr::umprint</text>
</a>
</g>
</g>
<!-- Node1&#45;&gt;Node2 -->
<g id="edge2" class="edge">
<title>Node1&#45;&gt;Node2</title>
<path fill="none" stroke="#191970" d="M141.0734,-48C148.7274,-48 157.5798,-48 166.7443,-48"/>
<polygon fill="#191970" stroke="#191970" points="166.7692,-51.5001 176.7692,-48 166.7691,-44.5001 166.7692,-51.5001"/>
</g>
<!-- Node3 -->
<g id="node4" class="node">
<title>Node3</title>
<g id="a_node4"><a xlink:href="namespaceumprintmgr.xhtml#a088ce22a18d574e9df7ee1850bfb10c7" target="_top" xlink:title="umprintmgr::umprintopenstream">
<polygon fill="#ffffff" stroke="#000000" points="332,-38.5 332,-57.5 509,-57.5 509,-38.5 332,-38.5"/>
<text text-anchor="middle" x="420.5" y="-45.5" font-family="Helvetica,sans-Serif" font-size="10.00" fill="#000000">umprintmgr::umprintopenstream</text>
</a>
</g>
</g>
<!-- Node2&#45;&gt;Node3 -->
<g id="edge3" class="edge">
<title>Node2&#45;&gt;Node3</title>
<path fill="none" stroke="#191970" d="M296.2395,-41.6333C304.4605,-41.4301 313.0751,-41.3077 321.7702,-41.2661"/>
<polygon fill="#191970" stroke="#191970" points="321.9998,-44.7659 331.9958,-41.2543 321.9917,-37.7659 321.9998,-44.7659"/>
</g>
<!-- Node4 -->
<g id="node5" class="node">
<title>Node4</title>
<g id="a_node5"><a xlink:href="namespaceumprintmgr.xhtml#ad3a290b30a6e25500eabc0bf90330b77" target="_top" xlink:title="umprintmgr::umprintflush">
<polygon fill="#ffffff" stroke="#000000" points="349.5,-.5 349.5,-19.5 491.5,-19.5 491.5,-.5 349.5,-.5"/>
<text text-anchor="middle" x="420.5" y="-7.5" font-family="Helvetica,sans-Serif" font-size="10.00" fill="#000000">umprintmgr::umprintflush</text>
</a>
</g>
</g>
<!-- Node2&#45;&gt;Node4 -->
<g id="edge5" class="edge">
<title>Node2&#45;&gt;Node4</title>
<path fill="none" stroke="#191970" d="M282.931,-38.411C307.6493,-33.3061 338.239,-26.9887 364.292,-21.6082"/>
<polygon fill="#191970" stroke="#191970" points="365.3175,-24.9703 374.4029,-19.5201 363.9017,-18.115 365.3175,-24.9703"/>
</g>
<!-- Node3&#45;&gt;Node2 -->
<g id="edge4" class="edge">
<title>Node3&#45;&gt;Node2</title>
<path fill="none" stroke="#191970" d="M331.9958,-54.7457C323.3802,-54.767 314.7236,-54.7094 306.3289,-54.5727"/>
<polygon fill="#191970" stroke="#191970" points="306.3089,-51.0716 296.2395,-54.3667 306.166,-58.0702 306.3089,-51.0716"/>
</g>
<!-- Node5 -->
<g id="node6" class="node">
<title>Node5</title>
<g id="a_node6"><a xlink:href="namespaceumflush__mod.xhtml#a3a003ab59990bdcb712b443dd5e0d1cd" target="_top" xlink:title="umflush_mod::umflush">
<polygon fill="#ffffff" stroke="#000000" points="545,-.5 545,-19.5 673,-19.5 673,-.5 545,-.5"/>
<text text-anchor="middle" x="609" y="-7.5" font-family="Helvetica,sans-Serif" font-size="10.00" fill="#000000">umflush_mod::umflush</text>
</a>
</g>
</g>
<!-- Node4&#45;&gt;Node5 -->
<g id="edge6" class="edge">
<title>Node4&#45;&gt;Node5</title>
<path fill="none" stroke="#191970" d="M491.7638,-10C505.7742,-10 520.5063,-10 534.6162,-10"/>
<polygon fill="#191970" stroke="#191970" points="534.7612,-13.5001 544.7611,-10 534.7611,-6.5001 534.7612,-13.5001"/>
</g>
</g>
</svg>
