<?xml version="1.0" encoding="UTF-8" standalone="no"?>
<!DOCTYPE svg PUBLIC "-//W3C//DTD SVG 1.1//EN"
 "http://www.w3.org/Graphics/SVG/1.1/DTD/svg11.dtd">
<!-- Generated by graphviz version 2.40.1 (20161225.0304)
 -->
<!-- Title: set_swdiag_logic Pages: 1 -->
<svg width="748pt" height="104pt"
 viewBox="0.00 0.00 748.00 104.00" xmlns="http://www.w3.org/2000/svg" xmlns:xlink="http://www.w3.org/1999/xlink">
<g id="graph0" class="graph" transform="scale(1 1) rotate(0) translate(4 100)">
<title>set_swdiag_logic</title>
<polygon fill="#ffffff" stroke="transparent" points="-4,4 -4,-100 744,-100 744,4 -4,4"/>
<!-- Node1 -->
<g id="node1" class="node">
<title>Node1</title>
<polygon fill="#bfbfbf" stroke="#000000" points="0,-38.5 0,-57.5 100,-57.5 100,-38.5 0,-38.5"/>
<text text-anchor="middle" x="50" y="-45.5" font-family="Helvetica,sans-Serif" font-size="10.00" fill="#000000">set_swdiag_logic</text>
</g>
<!-- Node2 -->
<g id="node2" class="node">
<title>Node2</title>
<g id="a_node2"><a xlink:href="rad__ctl_8f90.xhtml#aa6d43f369c6c2f85655ea8fc49f0132e" target="_top" xlink:title="Interface to Atmospheric Physics radiation code. ">
<polygon fill="#ffffff" stroke="#000000" points="136,-38.5 136,-57.5 186,-57.5 186,-38.5 136,-38.5"/>
<text text-anchor="middle" x="161" y="-45.5" font-family="Helvetica,sans-Serif" font-size="10.00" fill="#000000">rad_ctl</text>
</a>
</g>
</g>
<!-- Node1&#45;&gt;Node2 -->
<g id="edge1" class="edge">
<title>Node1&#45;&gt;Node2</title>
<path fill="none" stroke="#191970" d="M110.4004,-48C119.3231,-48 128.0756,-48 135.7256,-48"/>
<polygon fill="#191970" stroke="#191970" points="110.3037,-44.5001 100.3036,-48 110.3036,-51.5001 110.3037,-44.5001"/>
</g>
<!-- Node3 -->
<g id="node3" class="node">
<title>Node3</title>
<g id="a_node3"><a xlink:href="atmos__physics1_8f90.xhtml#ae8d55d89da6ed68f5f8d7e9eec99bc76" target="_top" xlink:title="Interface to Atmos Physics parametrizations before S&#45;L advection. ">
<polygon fill="#ffffff" stroke="#000000" points="222,-38.5 222,-57.5 317,-57.5 317,-38.5 222,-38.5"/>
<text text-anchor="middle" x="269.5" y="-45.5" font-family="Helvetica,sans-Serif" font-size="10.00" fill="#000000">atmos_physics1</text>
</a>
</g>
</g>
<!-- Node2&#45;&gt;Node3 -->
<g id="edge2" class="edge">
<title>Node2&#45;&gt;Node3</title>
<path fill="none" stroke="#191970" d="M196.4099,-48C204.5414,-48 213.3175,-48 221.8709,-48"/>
<polygon fill="#191970" stroke="#191970" points="196.1648,-44.5001 186.1648,-48 196.1648,-51.5001 196.1648,-44.5001"/>
</g>
<!-- Node4 -->
<g id="node4" class="node">
<title>Node4</title>
<g id="a_node4"><a xlink:href="atm__step_8f90.xhtml#ac0ee2467a1a9959b7065fdb8fd27bce4" target="_top" xlink:title="Perform a 1&#45;timestep integration of the Atmosphere Model. ">
<polygon fill="#ffffff" stroke="#000000" points="362,-76.5 362,-95.5 424,-95.5 424,-76.5 362,-76.5"/>
<text text-anchor="middle" x="393" y="-83.5" font-family="Helvetica,sans-Serif" font-size="10.00" fill="#000000">atm_step</text>
</a>
</g>
</g>
<!-- Node3&#45;&gt;Node4 -->
<g id="edge3" class="edge">
<title>Node3&#45;&gt;Node4</title>
<path fill="none" stroke="#191970" d="M310.2397,-60.5353C327.0405,-65.7048 346.197,-71.5991 361.8457,-76.4141"/>
<polygon fill="#191970" stroke="#191970" points="311.2514,-57.1847 300.6643,-57.589 309.1927,-63.8752 311.2514,-57.1847"/>
</g>
<!-- Node8 -->
<g id="node8" class="node">
<title>Node8</title>
<g id="a_node8"><a xlink:href="atm__step__4_a_8f90.xhtml#a2319aa4963e90c64cd78bdcd5f481095" target="_top" xlink:title="Perform a 1&#45;timestep integration of the Atmosphere Model. ">
<polygon fill="#ffffff" stroke="#000000" points="353,-38.5 353,-57.5 433,-57.5 433,-38.5 353,-38.5"/>
<text text-anchor="middle" x="393" y="-45.5" font-family="Helvetica,sans-Serif" font-size="10.00" fill="#000000">atm_step_4a</text>
</a>
</g>
</g>
<!-- Node3&#45;&gt;Node8 -->
<g id="edge7" class="edge">
<title>Node3&#45;&gt;Node8</title>
<path fill="none" stroke="#191970" d="M327.3434,-48C336.0185,-48 344.7967,-48 352.9897,-48"/>
<polygon fill="#191970" stroke="#191970" points="327.2484,-44.5001 317.2483,-48 327.2483,-51.5001 327.2484,-44.5001"/>
</g>
<!-- Node10 -->
<g id="node10" class="node">
<title>Node10</title>
<g id="a_node10"><a xlink:href="scm__main_8f90.xhtml#a2c730136605550612e094ce51d33a2a5" target="_top" xlink:title="*********************************COPYRIGHT********************************* ">
<polygon fill="#ffffff" stroke="#000000" points="359.5,-.5 359.5,-19.5 426.5,-19.5 426.5,-.5 359.5,-.5"/>
<text text-anchor="middle" x="393" y="-7.5" font-family="Helvetica,sans-Serif" font-size="10.00" fill="#000000">scm_main</text>
</a>
</g>
</g>
<!-- Node3&#45;&gt;Node10 -->
<g id="edge10" class="edge">
<title>Node3&#45;&gt;Node10</title>
<path fill="none" stroke="#191970" d="M310.2397,-35.4647C327.0405,-30.2952 346.197,-24.4009 361.8457,-19.5859"/>
<polygon fill="#191970" stroke="#191970" points="309.1927,-32.1248 300.6643,-38.411 311.2514,-38.8153 309.1927,-32.1248"/>
</g>
<!-- Node5 -->
<g id="node5" class="node">
<title>Node5</title>
<g id="a_node5"><a xlink:href="u__model_8f90.xhtml#ada0cd2ce4699433bf0f9adbd882c8eec" target="_top" xlink:title="Subroutine: U_MODEL &#45;!&gt; ">
<polygon fill="#ffffff" stroke="#000000" points="477.5,-76.5 477.5,-95.5 536.5,-95.5 536.5,-76.5 477.5,-76.5"/>
<text text-anchor="middle" x="507" y="-83.5" font-family="Helvetica,sans-Serif" font-size="10.00" fill="#000000">u_model</text>
</a>
</g>
</g>
<!-- Node4&#45;&gt;Node5 -->
<g id="edge4" class="edge">
<title>Node4&#45;&gt;Node5</title>
<path fill="none" stroke="#191970" d="M434.2532,-86C448.5539,-86 464.2895,-86 477.4568,-86"/>
<polygon fill="#191970" stroke="#191970" points="434.151,-82.5001 424.151,-86 434.151,-89.5001 434.151,-82.5001"/>
</g>
<!-- Node6 -->
<g id="node6" class="node">
<title>Node6</title>
<g id="a_node6"><a xlink:href="um__shell_8f90.xhtml#a8c9bd25362824a5c301376ecb5ed5c27" target="_top" xlink:title="Subroutine: UM_SHELL !&gt; ">
<polygon fill="#ffffff" stroke="#000000" points="581,-57.5 581,-76.5 642,-76.5 642,-57.5 581,-57.5"/>
<text text-anchor="middle" x="611.5" y="-64.5" font-family="Helvetica,sans-Serif" font-size="10.00" fill="#000000">um_shell</text>
</a>
</g>
</g>
<!-- Node5&#45;&gt;Node6 -->
<g id="edge5" class="edge">
<title>Node5&#45;&gt;Node6</title>
<path fill="none" stroke="#191970" d="M546.701,-78.7816C557.951,-76.7362 570.0261,-74.5407 580.6677,-72.6059"/>
<polygon fill="#191970" stroke="#191970" points="545.8786,-75.3737 536.666,-80.6062 547.1308,-82.2608 545.8786,-75.3737"/>
</g>
<!-- Node7 -->
<g id="node7" class="node">
<title>Node7</title>
<g id="a_node7"><a xlink:href="um__main_8f90.xhtml#a8f2d13215621443a5313261c282f098b" target="_top" xlink:title="Code Owner: See Unified Model Code Owner&#39;s HTML page. ">
<polygon fill="#ffffff" stroke="#000000" points="678,-57.5 678,-76.5 740,-76.5 740,-57.5 678,-57.5"/>
<text text-anchor="middle" x="709" y="-64.5" font-family="Helvetica,sans-Serif" font-size="10.00" fill="#000000">um_main</text>
</a>
</g>
</g>
<!-- Node6&#45;&gt;Node7 -->
<g id="edge6" class="edge">
<title>Node6&#45;&gt;Node7</title>
<path fill="none" stroke="#191970" d="M652.2756,-67C660.8294,-67 669.72,-67 677.8551,-67"/>
<polygon fill="#191970" stroke="#191970" points="652.0821,-63.5001 642.0821,-67 652.0821,-70.5001 652.0821,-63.5001"/>
</g>
<!-- Node9 -->
<g id="node9" class="node">
<title>Node9</title>
<g id="a_node9"><a xlink:href="u__model__4_a_8f90.xhtml#afa05064dab5eba198b461d0928767c7e" target="_top" xlink:title="LL Subroutine: U_MODEL_4A (ENDGAME VERSION) !&gt;LL. ">
<polygon fill="#ffffff" stroke="#000000" points="469,-38.5 469,-57.5 545,-57.5 545,-38.5 469,-38.5"/>
<text text-anchor="middle" x="507" y="-45.5" font-family="Helvetica,sans-Serif" font-size="10.00" fill="#000000">u_model_4a</text>
</a>
</g>
</g>
<!-- Node8&#45;&gt;Node9 -->
<g id="edge8" class="edge">
<title>Node8&#45;&gt;Node9</title>
<path fill="none" stroke="#191970" d="M443.3998,-48C451.891,-48 460.5803,-48 468.7002,-48"/>
<polygon fill="#191970" stroke="#191970" points="443.1922,-44.5001 433.1921,-48 443.1921,-51.5001 443.1922,-44.5001"/>
</g>
<!-- Node9&#45;&gt;Node6 -->
<g id="edge9" class="edge">
<title>Node9&#45;&gt;Node6</title>
<path fill="none" stroke="#191970" d="M554.8728,-56.7041C563.7087,-58.3107 572.7128,-59.9478 580.8647,-61.43"/>
<polygon fill="#191970" stroke="#191970" points="555.4873,-53.2586 545.0225,-54.9132 554.2351,-60.1457 555.4873,-53.2586"/>
</g>
<!-- Node11 -->
<g id="node11" class="node">
<title>Node11</title>
<g id="a_node11"><a xlink:href="scm__shell_8f90.xhtml#ab15255829ee7b5be626b1c0861b40c8d" target="_top" xlink:title="scm_shell is the main calling program for the Single Column Model. ">
<polygon fill="#ffffff" stroke="#000000" points="474.5,-.5 474.5,-19.5 539.5,-19.5 539.5,-.5 474.5,-.5"/>
<text text-anchor="middle" x="507" y="-7.5" font-family="Helvetica,sans-Serif" font-size="10.00" fill="#000000">scm_shell</text>
</a>
</g>
</g>
<!-- Node10&#45;&gt;Node11 -->
<g id="edge11" class="edge">
<title>Node10&#45;&gt;Node11</title>
<path fill="none" stroke="#191970" d="M436.8248,-10C449.3307,-10 462.7319,-10 474.4371,-10"/>
<polygon fill="#191970" stroke="#191970" points="436.5872,-6.5001 426.5872,-10 436.5871,-13.5001 436.5872,-6.5001"/>
</g>
</g>
</svg>
