<?xml version="1.0" encoding="UTF-8" standalone="no"?>
<!DOCTYPE svg PUBLIC "-//W3C//DTD SVG 1.1//EN"
 "http://www.w3.org/Graphics/SVG/1.1/DTD/svg11.dtd">
<!-- Generated by graphviz version 2.40.1 (20161225.0304)
 -->
<!-- Title: set_lsmu Pages: 1 -->
<svg width="474pt" height="66pt"
 viewBox="0.00 0.00 474.00 66.00" xmlns="http://www.w3.org/2000/svg" xmlns:xlink="http://www.w3.org/1999/xlink">
<g id="graph0" class="graph" transform="scale(1 1) rotate(0) translate(4 62)">
<title>set_lsmu</title>
<polygon fill="#ffffff" stroke="transparent" points="-4,4 -4,-62 470,-62 470,4 -4,4"/>
<!-- Node2 -->
<g id="node1" class="node">
<title>Node2</title>
<polygon fill="#bfbfbf" stroke="#000000" points="0,-19.5 0,-38.5 61,-38.5 61,-19.5 0,-19.5"/>
<text text-anchor="middle" x="30.5" y="-26.5" font-family="Helvetica,sans-Serif" font-size="10.00" fill="#000000">set_lsmu</text>
</g>
<!-- Node3 -->
<g id="node2" class="node">
<title>Node3</title>
<g id="a_node2"><a xlink:href="read__lsms_8f90.xhtml#adb662539b53540078ee72b2bc3b33a4d" target="_top" xlink:title="Programming standard: Unified Model Documentation Paper No 3. ">
<polygon fill="#ffffff" stroke="#000000" points="97,-19.5 97,-38.5 164,-38.5 164,-19.5 97,-19.5"/>
<text text-anchor="middle" x="130.5" y="-26.5" font-family="Helvetica,sans-Serif" font-size="10.00" fill="#000000">read_lsms</text>
</a>
</g>
</g>
<!-- Node2&#45;&gt;Node3 -->
<g id="edge1" class="edge">
<title>Node2&#45;&gt;Node3</title>
<path fill="none" stroke="#191970" d="M71.1314,-29C79.6068,-29 88.4546,-29 96.6533,-29"/>
<polygon fill="#191970" stroke="#191970" points="71.0467,-25.5001 61.0467,-29 71.0466,-32.5001 71.0467,-25.5001"/>
</g>
<!-- Node4 -->
<g id="node3" class="node">
<title>Node4</title>
<g id="a_node3"><a xlink:href="flux__process_8f90.xhtml#aa4dfcc67002fe61814d5d93db54c4d94" target="_top" xlink:title="Programming standard: Unified Model Documentation Paper No 3. ">
<polygon fill="#ffffff" stroke="#000000" points="217.5,-38.5 217.5,-57.5 294.5,-57.5 294.5,-38.5 217.5,-38.5"/>
<text text-anchor="middle" x="256" y="-45.5" font-family="Helvetica,sans-Serif" font-size="10.00" fill="#000000">flux_process</text>
</a>
</g>
</g>
<!-- Node3&#45;&gt;Node4 -->
<g id="edge2" class="edge">
<title>Node3&#45;&gt;Node4</title>
<path fill="none" stroke="#191970" d="M174.0908,-35.5994C188.1773,-37.732 203.6886,-40.0803 217.3887,-42.1545"/>
<polygon fill="#191970" stroke="#191970" points="174.543,-32.1281 164.1317,-34.0917 173.4951,-39.0492 174.543,-32.1281"/>
</g>
<!-- Node6 -->
<g id="node5" class="node">
<title>Node6</title>
<g id="a_node5"><a xlink:href="flux__transform__grid_8f90.xhtml#a47016ff48dce53ea7aae177201e3ee57" target="_top" xlink:title="contains routines: Flux_Transform_Grid ">
<polygon fill="#ffffff" stroke="#000000" points="200,-.5 200,-19.5 312,-19.5 312,-.5 200,-.5"/>
<text text-anchor="middle" x="256" y="-7.5" font-family="Helvetica,sans-Serif" font-size="10.00" fill="#000000">flux_transform_grid</text>
</a>
</g>
</g>
<!-- Node3&#45;&gt;Node6 -->
<g id="edge4" class="edge">
<title>Node3&#45;&gt;Node6</title>
<path fill="none" stroke="#191970" d="M174.0436,-22.4077C182.412,-21.1408 191.2848,-19.7975 199.983,-18.4807"/>
<polygon fill="#191970" stroke="#191970" points="173.4951,-18.9508 164.1317,-23.9083 174.543,-25.8719 173.4951,-18.9508"/>
</g>
<!-- Node5 -->
<g id="node4" class="node">
<title>Node5</title>
<g id="a_node4"><a xlink:href="flux__process__main_8f90.xhtml#aa4f9adbe127f17a972e1284856a37f9c" target="_top" xlink:title="Programming standard: Unified Model Documentation Paper No 3. ">
<polygon fill="#ffffff" stroke="#000000" points="353.5,-38.5 353.5,-57.5 460.5,-57.5 460.5,-38.5 353.5,-38.5"/>
<text text-anchor="middle" x="407" y="-45.5" font-family="Helvetica,sans-Serif" font-size="10.00" fill="#000000">flux_process_main</text>
</a>
</g>
</g>
<!-- Node4&#45;&gt;Node5 -->
<g id="edge3" class="edge">
<title>Node4&#45;&gt;Node5</title>
<path fill="none" stroke="#191970" d="M305.2549,-48C320.6708,-48 337.7541,-48 353.4509,-48"/>
<polygon fill="#191970" stroke="#191970" points="304.8863,-44.5001 294.8863,-48 304.8862,-51.5001 304.8863,-44.5001"/>
</g>
<!-- Node7 -->
<g id="node6" class="node">
<title>Node7</title>
<g id="a_node6"><a xlink:href="flux__transform__main_8f90.xhtml#a9514a018945b31f3f7749d95c2e47c5e" target="_top" xlink:title="contains progam: Flux_Transform_Main ">
<polygon fill="#ffffff" stroke="#000000" points="348,-.5 348,-19.5 466,-19.5 466,-.5 348,-.5"/>
<text text-anchor="middle" x="407" y="-7.5" font-family="Helvetica,sans-Serif" font-size="10.00" fill="#000000">flux_transform_main</text>
</a>
</g>
</g>
<!-- Node6&#45;&gt;Node7 -->
<g id="edge5" class="edge">
<title>Node6&#45;&gt;Node7</title>
<path fill="none" stroke="#191970" d="M322.4693,-10C330.9532,-10 339.5913,-10 347.947,-10"/>
<polygon fill="#191970" stroke="#191970" points="322.2269,-6.5001 312.2268,-10 322.2268,-13.5001 322.2269,-6.5001"/>
</g>
</g>
</svg>
