<?xml version="1.0" encoding="UTF-8" standalone="no"?>
<!DOCTYPE svg PUBLIC "-//W3C//DTD SVG 1.1//EN"
 "http://www.w3.org/Graphics/SVG/1.1/DTD/svg11.dtd">
<!-- Generated by graphviz version 2.40.1 (20161225.0304)
 -->
<!-- Title: setdiff Pages: 1 -->
<svg width="254pt" height="28pt"
 viewBox="0.00 0.00 254.00 28.00" xmlns="http://www.w3.org/2000/svg" xmlns:xlink="http://www.w3.org/1999/xlink">
<g id="graph0" class="graph" transform="scale(1 1) rotate(0) translate(4 24)">
<title>setdiff</title>
<polygon fill="#ffffff" stroke="transparent" points="-4,4 -4,-24 250,-24 250,4 -4,4"/>
<!-- Node7 -->
<g id="node1" class="node">
<title>Node7</title>
<polygon fill="#bfbfbf" stroke="#000000" points="0,-.5 0,-19.5 47,-19.5 47,-.5 0,-.5"/>
<text text-anchor="middle" x="23.5" y="-7.5" font-family="Helvetica,sans-Serif" font-size="10.00" fill="#000000">setdiff</text>
</g>
<!-- Node8 -->
<g id="node2" class="node">
<title>Node8</title>
<g id="a_node2"><a xlink:href="setcona_8f90.xhtml#a353c87ffe0be2800c2f0bf5d6c40d099" target="_top" xlink:title="LL Subroutine SETCONA!&gt;LL. ">
<polygon fill="#ffffff" stroke="#000000" points="83,-.5 83,-19.5 138,-19.5 138,-.5 83,-.5"/>
<text text-anchor="middle" x="110.5" y="-7.5" font-family="Helvetica,sans-Serif" font-size="10.00" fill="#000000">setcona</text>
</a>
</g>
</g>
<!-- Node7&#45;&gt;Node8 -->
<g id="edge1" class="edge">
<title>Node7&#45;&gt;Node8</title>
<path fill="none" stroke="#191970" d="M57.5032,-10C65.8658,-10 74.7207,-10 82.7484,-10"/>
<polygon fill="#191970" stroke="#191970" points="57.2732,-6.5001 47.2731,-10 57.2731,-13.5001 57.2732,-6.5001"/>
</g>
<!-- Node9 -->
<g id="node3" class="node">
<title>Node9</title>
<g id="a_node3"><a xlink:href="setcona__ctl_8f90.xhtml#a0a2ef213293e6f9a8f60060fc26ed5df" target="_top" xlink:title="Subroutine SETCONA_CTL. ">
<polygon fill="#ffffff" stroke="#000000" points="174,-.5 174,-19.5 246,-19.5 246,-.5 174,-.5"/>
<text text-anchor="middle" x="210" y="-7.5" font-family="Helvetica,sans-Serif" font-size="10.00" fill="#000000">setcona_ctl</text>
</a>
</g>
</g>
<!-- Node8&#45;&gt;Node9 -->
<g id="edge2" class="edge">
<title>Node8&#45;&gt;Node9</title>
<path fill="none" stroke="#191970" d="M148.4527,-10C156.7924,-10 165.6014,-10 173.8672,-10"/>
<polygon fill="#191970" stroke="#191970" points="148.2163,-6.5001 138.2163,-10 148.2163,-13.5001 148.2163,-6.5001"/>
</g>
</g>
</svg>
