<?xml version="1.0" encoding="UTF-8" standalone="no"?>
<!DOCTYPE svg PUBLIC "-//W3C//DTD SVG 1.1//EN"
 "http://www.w3.org/Graphics/SVG/1.1/DTD/svg11.dtd">
<!-- Generated by graphviz version 2.40.1 (20161225.0304)
 -->
<!-- Title: sl_moist_nonhydro_conserve_mix Pages: 1 -->
<svg width="1339pt" height="934pt"
 viewBox="0.00 0.00 1339.00 933.63" xmlns="http://www.w3.org/2000/svg" xmlns:xlink="http://www.w3.org/1999/xlink">
<g id="graph0" class="graph" transform="scale(1 1) rotate(0) translate(4 929.6289)">
<title>sl_moist_nonhydro_conserve_mix</title>
<polygon fill="#ffffff" stroke="transparent" points="-4,4 -4,-929.6289 1335,-929.6289 1335,4 -4,4"/>
<!-- Node0 -->
<g id="node1" class="node">
<title>Node0</title>
<polygon fill="#bfbfbf" stroke="#000000" points="0,-405.5 0,-424.5 182,-424.5 182,-405.5 0,-405.5"/>
<text text-anchor="middle" x="91" y="-412.5" font-family="Helvetica,sans-Serif" font-size="10.00" fill="#000000">sl_moist_nonhydro_conserve_mix</text>
</g>
<!-- Node1 -->
<g id="node2" class="node">
<title>Node1</title>
<g id="a_node2"><a xlink:href="departure__point_8f90.xhtml#a297b14ecfc1ba82fa9e3828f168628ac" target="_top" xlink:title="Subroutine Departure_Point. ">
<polygon fill="#ffffff" stroke="#000000" points="218,-520.5 218,-539.5 312,-539.5 312,-520.5 218,-520.5"/>
<text text-anchor="middle" x="265" y="-527.5" font-family="Helvetica,sans-Serif" font-size="10.00" fill="#000000">departure_point</text>
</a>
</g>
</g>
<!-- Node0&#45;&gt;Node1 -->
<g id="edge1" class="edge">
<title>Node0&#45;&gt;Node1</title>
<path fill="none" stroke="#191970" d="M105.5359,-424.607C135.6546,-444.5131 205.105,-490.4142 241.6096,-514.5409"/>
<polygon fill="#191970" stroke="#191970" points="239.8643,-517.5826 250.1367,-520.1765 243.7239,-511.7428 239.8643,-517.5826"/>
</g>
<!-- Node7 -->
<g id="node8" class="node">
<title>Node7</title>
<g id="a_node8"><a xlink:href="calc__index_8f90.xhtml#ac7167f221933104ba2e6ac19a0b50df7" target="_top" xlink:title="Subroutine Calc_Index. ">
<polygon fill="#ffffff" stroke="#000000" points="514.5,-482.5 514.5,-501.5 582.5,-501.5 582.5,-482.5 514.5,-482.5"/>
<text text-anchor="middle" x="548.5" y="-489.5" font-family="Helvetica,sans-Serif" font-size="10.00" fill="#000000">calc_index</text>
</a>
</g>
</g>
<!-- Node0&#45;&gt;Node7 -->
<g id="edge57" class="edge">
<title>Node0&#45;&gt;Node7</title>
<path fill="none" stroke="#191970" d="M147.5573,-424.5189C239.816,-440.0466 420.773,-470.5028 504.3096,-484.5625"/>
<polygon fill="#191970" stroke="#191970" points="503.7981,-488.0256 514.2404,-486.2339 504.96,-481.1226 503.7981,-488.0256"/>
</g>
<!-- Node8 -->
<g id="node9" class="node">
<title>Node8</title>
<g id="a_node9"><a xlink:href="bi__linear__h_8f90.xhtml#a9470f524f37f965985b761d7659cfedf" target="_top" xlink:title="Subroutine Bi_Linear_H. ">
<polygon fill="#ffffff" stroke="#000000" points="513.5,-371.5 513.5,-390.5 583.5,-390.5 583.5,-371.5 513.5,-371.5"/>
<text text-anchor="middle" x="548.5" y="-378.5" font-family="Helvetica,sans-Serif" font-size="10.00" fill="#000000">bi_linear_h</text>
</a>
</g>
</g>
<!-- Node0&#45;&gt;Node8 -->
<g id="edge56" class="edge">
<title>Node0&#45;&gt;Node8</title>
<path fill="none" stroke="#191970" d="M182.2082,-408.2217C279.3046,-401.0058 428.9883,-389.8817 503.3556,-384.355"/>
<polygon fill="#191970" stroke="#191970" points="503.623,-387.8449 513.336,-383.6133 503.1041,-380.8641 503.623,-387.8449"/>
</g>
<!-- Node33 -->
<g id="node34" class="node">
<title>Node33</title>
<g id="a_node34"><a xlink:href="interpolation__qcon__multi_8f90.xhtml#a5af4e63677cfc71f2524a3121626c962" target="_top" xlink:title="Subroutine Interpolation_qcon_multi. ">
<polygon fill="#ffffff" stroke="#000000" points="495,-410 495,-440 602,-440 602,-410 495,-410"/>
<text text-anchor="start" x="503" y="-428" font-family="Helvetica,sans-Serif" font-size="10.00" fill="#000000">interpolation_qcon</text>
<text text-anchor="middle" x="548.5" y="-417" font-family="Helvetica,sans-Serif" font-size="10.00" fill="#000000">_multi</text>
</a>
</g>
</g>
<!-- Node0&#45;&gt;Node33 -->
<g id="edge36" class="edge">
<title>Node0&#45;&gt;Node33</title>
<path fill="none" stroke="#191970" d="M182.2082,-416.9936C271.7695,-418.9512 406.0727,-421.8868 484.7409,-423.6064"/>
<polygon fill="#191970" stroke="#191970" points="484.9173,-427.111 494.9915,-423.8304 485.0704,-420.1126 484.9173,-427.111"/>
</g>
<!-- Node38 -->
<g id="node39" class="node">
<title>Node38</title>
<g id="a_node39"><a xlink:href="swap__bounds-swpbnd2a_8f90.xhtml#aa0269e41062e156c437596022ea9ccd0" target="_top" xlink:title="Portable GCOM based version SWAP_BOUNDS. ">
<polygon fill="#ffffff" stroke="#000000" points="223.5,-310.5 223.5,-329.5 306.5,-329.5 306.5,-310.5 223.5,-310.5"/>
<text text-anchor="middle" x="265" y="-317.5" font-family="Helvetica,sans-Serif" font-size="10.00" fill="#000000">swap_bounds</text>
</a>
</g>
</g>
<!-- Node0&#45;&gt;Node38 -->
<g id="edge58" class="edge">
<title>Node0&#45;&gt;Node38</title>
<path fill="none" stroke="#191970" d="M107.7346,-405.3798C131.9213,-391.5362 178.1247,-365.3175 218,-344 223.9387,-340.8252 230.3416,-337.495 236.4525,-334.3604"/>
<polygon fill="#191970" stroke="#191970" points="238.385,-337.3041 245.7066,-329.6461 235.2074,-331.0668 238.385,-337.3041"/>
</g>
<!-- Node39 -->
<g id="node40" class="node">
<title>Node39</title>
<g id="a_node40"><a xlink:href="fill__external__halos_8f90.xhtml#a9f4e1e061e136821fb9a51281a5e69c2" target="_top" xlink:title="Routine for filling in External Halos. ">
<polygon fill="#ffffff" stroke="#000000" points="348,-329.5 348,-348.5 454,-348.5 454,-329.5 348,-329.5"/>
<text text-anchor="middle" x="401" y="-336.5" font-family="Helvetica,sans-Serif" font-size="10.00" fill="#000000">fill_external_halos</text>
</a>
</g>
</g>
<!-- Node0&#45;&gt;Node39 -->
<g id="edge60" class="edge">
<title>Node0&#45;&gt;Node39</title>
<path fill="none" stroke="#191970" d="M126.7991,-405.4589C152.2109,-398.7446 187.1507,-389.6313 218,-382 262.1618,-371.0756 312.4884,-359.299 349.1726,-350.8372"/>
<polygon fill="#191970" stroke="#191970" points="350.1816,-354.1966 359.1412,-348.5419 348.6108,-347.375 350.1816,-354.1966"/>
</g>
<!-- Node2 -->
<g id="node3" class="node">
<title>Node2</title>
<g id="a_node3"><a xlink:href="ritchie_8f90.xhtml#ae902e59848fdf2d044e2d5b862992cc5" target="_top" xlink:title="Subroutine Ritchie. ">
<polygon fill="#ffffff" stroke="#000000" points="377.5,-529.5 377.5,-548.5 424.5,-548.5 424.5,-529.5 377.5,-529.5"/>
<text text-anchor="middle" x="401" y="-536.5" font-family="Helvetica,sans-Serif" font-size="10.00" fill="#000000">ritchie</text>
</a>
</g>
</g>
<!-- Node1&#45;&gt;Node2 -->
<g id="edge2" class="edge">
<title>Node1&#45;&gt;Node2</title>
<path fill="none" stroke="#191970" d="M312.1845,-533.1225C330.1835,-534.3136 350.3357,-535.6472 366.8887,-536.7426"/>
<polygon fill="#191970" stroke="#191970" points="366.9785,-540.2561 377.1878,-537.4242 367.4408,-533.2714 366.9785,-540.2561"/>
</g>
<!-- Node3 -->
<g id="node4" class="node">
<title>Node3</title>
<g id="a_node4"><a xlink:href="namespacevectlib__mod.xhtml#a0452aeb9a5f760cf01d97db8eb70fc8c" target="_top" xlink:title="vectlib_mod::asin_v">
<polygon fill="#ffffff" stroke="#000000" points="491.5,-605.5 491.5,-624.5 605.5,-624.5 605.5,-605.5 491.5,-605.5"/>
<text text-anchor="middle" x="548.5" y="-612.5" font-family="Helvetica,sans-Serif" font-size="10.00" fill="#000000">vectlib_mod::asin_v</text>
</a>
</g>
</g>
<!-- Node2&#45;&gt;Node3 -->
<g id="edge3" class="edge">
<title>Node2&#45;&gt;Node3</title>
<path fill="none" stroke="#191970" d="M413.6611,-548.5961C430.3953,-560.9217 461.1393,-582.3482 490,-596 494.647,-598.1982 499.615,-600.2415 504.6189,-602.1105"/>
<polygon fill="#191970" stroke="#191970" points="503.6162,-605.4679 514.2111,-605.4846 505.9391,-598.8645 503.6162,-605.4679"/>
</g>
<!-- Node4 -->
<g id="node5" class="node">
<title>Node4</title>
<g id="a_node5"><a xlink:href="polar__vector__wind__n_8f90.xhtml#ab3d6e08d4d489ae42dd07f5c50859b9f" target="_top" xlink:title="Subroutine Polar_Vector_Wind. ">
<polygon fill="#ffffff" stroke="#000000" points="490,-567.5 490,-586.5 607,-586.5 607,-567.5 490,-567.5"/>
<text text-anchor="middle" x="548.5" y="-574.5" font-family="Helvetica,sans-Serif" font-size="10.00" fill="#000000">polar_vector_wind_n</text>
</a>
</g>
</g>
<!-- Node2&#45;&gt;Node4 -->
<g id="edge4" class="edge">
<title>Node2&#45;&gt;Node4</title>
<path fill="none" stroke="#191970" d="M424.6984,-545.1054C445.4033,-550.4395 476.0736,-558.341 501.7062,-564.9447"/>
<polygon fill="#191970" stroke="#191970" points="501.0555,-568.3912 511.6125,-567.4968 502.8019,-561.6126 501.0555,-568.3912"/>
</g>
<!-- Node6 -->
<g id="node7" class="node">
<title>Node6</title>
<g id="a_node7"><a xlink:href="check__sl__domain_8f90.xhtml#a5254bfa776e11fcce38045e8e5e87723" target="_top" xlink:title="Subroutine Check_sl_domain. ">
<polygon fill="#ffffff" stroke="#000000" points="498,-643.5 498,-662.5 599,-662.5 599,-643.5 498,-643.5"/>
<text text-anchor="middle" x="548.5" y="-650.5" font-family="Helvetica,sans-Serif" font-size="10.00" fill="#000000">check_sl_domain</text>
</a>
</g>
</g>
<!-- Node2&#45;&gt;Node6 -->
<g id="edge6" class="edge">
<title>Node2&#45;&gt;Node6</title>
<path fill="none" stroke="#191970" d="M407.4156,-548.5856C420.634,-567.6166 452.8028,-610.3662 490,-634 493.3025,-636.0983 496.858,-637.9851 500.5265,-639.6781"/>
<polygon fill="#191970" stroke="#191970" points="499.2188,-642.9247 509.7982,-643.497 501.8848,-636.4522 499.2188,-642.9247"/>
</g>
<!-- Node2&#45;&gt;Node7 -->
<g id="edge7" class="edge">
<title>Node2&#45;&gt;Node7</title>
<path fill="none" stroke="#191970" d="M424.6984,-531.4486C447.3002,-524.2467 481.7769,-513.2609 508.6128,-504.7098"/>
<polygon fill="#191970" stroke="#191970" points="510.0178,-507.9356 518.4831,-501.5647 507.8925,-501.266 510.0178,-507.9356"/>
</g>
<!-- Node2&#45;&gt;Node8 -->
<g id="edge8" class="edge">
<title>Node2&#45;&gt;Node8</title>
<path fill="none" stroke="#191970" d="M404.5649,-529.4039C414.2999,-504.4904 443.7392,-437.1789 490,-401 494.1733,-397.7362 498.912,-394.9875 503.843,-392.6766"/>
<polygon fill="#191970" stroke="#191970" points="505.5272,-395.7697 513.4645,-388.7518 502.8832,-389.2882 505.5272,-395.7697"/>
</g>
<!-- Node10 -->
<g id="node11" class="node">
<title>Node10</title>
<g id="a_node11"><a xlink:href="interpolation_8f90.xhtml#a593bf062ab906072e9835ea48c50cdcd" target="_top" xlink:title="Subroutine Interpolation. ">
<polygon fill="#ffffff" stroke="#000000" points="509,-529.5 509,-548.5 588,-548.5 588,-529.5 509,-529.5"/>
<text text-anchor="middle" x="548.5" y="-536.5" font-family="Helvetica,sans-Serif" font-size="10.00" fill="#000000">interpolation</text>
</a>
</g>
</g>
<!-- Node2&#45;&gt;Node10 -->
<g id="edge10" class="edge">
<title>Node2&#45;&gt;Node10</title>
<path fill="none" stroke="#191970" d="M424.6984,-539C444.596,-539 473.6968,-539 498.6856,-539"/>
<polygon fill="#191970" stroke="#191970" points="498.7453,-542.5001 508.7453,-539 498.7453,-535.5001 498.7453,-542.5001"/>
</g>
<!-- Node5 -->
<g id="node6" class="node">
<title>Node5</title>
<g id="a_node6"><a xlink:href="namespaceglobal__2d__sums__mod.xhtml#ac3fe3c2679168085c4635a17e5f82215" target="_top" xlink:title="global_2d_sums_mod\l::global_2d_sums">
<polygon fill="#ffffff" stroke="#000000" points="828,-790 828,-820 950,-820 950,-790 828,-790"/>
<text text-anchor="start" x="836" y="-808" font-family="Helvetica,sans-Serif" font-size="10.00" fill="#000000">global_2d_sums_mod</text>
<text text-anchor="middle" x="889" y="-797" font-family="Helvetica,sans-Serif" font-size="10.00" fill="#000000">::global_2d_sums</text>
</a>
</g>
</g>
<!-- Node4&#45;&gt;Node5 -->
<g id="edge5" class="edge">
<title>Node4&#45;&gt;Node5</title>
<path fill="none" stroke="#191970" d="M595.4413,-586.5569C599.8288,-589.0253 603.8157,-592.1206 607,-596 650.1611,-648.5821 592.1474,-854.8141 643,-900 691.1741,-942.8059 728.0907,-923.7479 788,-900 824.115,-885.6841 854.8341,-851.6641 872.6082,-828.4723"/>
<polygon fill="#191970" stroke="#191970" points="875.6164,-830.292 878.7707,-820.1776 869.9975,-826.1174 875.6164,-830.292"/>
</g>
<!-- Node9 -->
<g id="node10" class="node">
<title>Node9</title>
<g id="a_node10"><a xlink:href="bi__linear_8f90.xhtml#a2d2bec3776651c0e7f3ea8621eda06a6" target="_top" xlink:title="Subroutine Bi_Linear. ">
<polygon fill="#ffffff" stroke="#000000" points="686,-.5 686,-19.5 745,-19.5 745,-.5 686,-.5"/>
<text text-anchor="middle" x="715.5" y="-7.5" font-family="Helvetica,sans-Serif" font-size="10.00" fill="#000000">bi_linear</text>
</a>
</g>
</g>
<!-- Node8&#45;&gt;Node9 -->
<g id="edge9" class="edge">
<title>Node8&#45;&gt;Node9</title>
<path fill="none" stroke="#191970" d="M549.7623,-371.4513C556.6971,-320.3864 591.7295,-79.965 643,-29 651.7957,-20.2568 664.0916,-15.3902 676.0622,-12.7257"/>
<polygon fill="#191970" stroke="#191970" points="676.723,-16.1632 685.957,-10.9686 675.4991,-9.271 676.723,-16.1632"/>
</g>
<!-- Node11 -->
<g id="node12" class="node">
<title>Node11</title>
<g id="a_node12"><a xlink:href="namespaceumprintmgr.xhtml#aae44897e556705dbf5e945a26538be9a" target="_top" xlink:title="umprintmgr::umprint">
<polygon fill="#ffffff" stroke="#000000" points="829.5,-510.5 829.5,-529.5 948.5,-529.5 948.5,-510.5 829.5,-510.5"/>
<text text-anchor="middle" x="889" y="-517.5" font-family="Helvetica,sans-Serif" font-size="10.00" fill="#000000">umprintmgr::umprint</text>
</a>
</g>
</g>
<!-- Node10&#45;&gt;Node11 -->
<g id="edge11" class="edge">
<title>Node10&#45;&gt;Node11</title>
<path fill="none" stroke="#191970" d="M588.2474,-545.8104C595.2647,-548.5923 601.9341,-552.5035 607,-558 654.0503,-609.0492 588.5457,-666.9363 643,-710 693.5482,-749.9746 732.762,-743.1942 788,-710 850.9273,-672.1851 876.7608,-580.4587 885.368,-539.8782"/>
<polygon fill="#191970" stroke="#191970" points="888.8394,-540.3664 887.3554,-529.876 881.9736,-539.0022 888.8394,-540.3664"/>
</g>
<!-- Node15 -->
<g id="node16" class="node">
<title>Node15</title>
<g id="a_node16"><a xlink:href="extend__data__quintic_8f90.xhtml#ac8d2484a17984c6578d53f6f50eed1e5" target="_top" xlink:title="Subroutine Extend_data_quintic. ">
<polygon fill="#ffffff" stroke="#000000" points="657.5,-757.5 657.5,-776.5 773.5,-776.5 773.5,-757.5 657.5,-757.5"/>
<text text-anchor="middle" x="715.5" y="-764.5" font-family="Helvetica,sans-Serif" font-size="10.00" fill="#000000">extend_data_quintic</text>
</a>
</g>
</g>
<!-- Node10&#45;&gt;Node15 -->
<g id="edge16" class="edge">
<title>Node10&#45;&gt;Node15</title>
<path fill="none" stroke="#191970" d="M588.1244,-545.5312C595.2379,-548.3327 601.9753,-552.3224 607,-558 662.5143,-620.7268 587.6629,-680.1168 643,-743 646.416,-746.8818 650.4738,-750.1379 654.8986,-752.8688"/>
<polygon fill="#191970" stroke="#191970" points="653.302,-755.9835 663.7878,-757.4996 656.5361,-749.7754 653.302,-755.9835"/>
</g>
<!-- Node16 -->
<g id="node17" class="node">
<title>Node16</title>
<g id="a_node17"><a xlink:href="extend__data__cubic_8f90.xhtml#a179e94a6dca12fc2e5eb3bdc37587e18" target="_top" xlink:title="Subroutine Extend_data_cubic. ">
<polygon fill="#ffffff" stroke="#000000" points="661.5,-871.5 661.5,-890.5 769.5,-890.5 769.5,-871.5 661.5,-871.5"/>
<text text-anchor="middle" x="715.5" y="-878.5" font-family="Helvetica,sans-Serif" font-size="10.00" fill="#000000">extend_data_cubic</text>
</a>
</g>
</g>
<!-- Node10&#45;&gt;Node16 -->
<g id="edge17" class="edge">
<title>Node10&#45;&gt;Node16</title>
<path fill="none" stroke="#191970" d="M588.1605,-545.1263C595.3603,-547.9542 602.1219,-552.0571 607,-558 693.3221,-663.1642 553.6785,-759.3711 643,-862 645.7095,-865.1132 648.8606,-867.7467 652.3023,-869.9714"/>
<polygon fill="#191970" stroke="#191970" points="650.8846,-873.1794 661.3697,-874.7002 654.1215,-866.9727 650.8846,-873.1794"/>
</g>
<!-- Node17 -->
<g id="node18" class="node">
<title>Node17</title>
<g id="a_node18"><a xlink:href="extend__data__linear_8f90.xhtml#abb0f25c28edbb4c18e8e390193a93738" target="_top" xlink:title="Subroutine Extend_data_linear. ">
<polygon fill="#ffffff" stroke="#000000" points="660.5,-833.5 660.5,-852.5 770.5,-852.5 770.5,-833.5 660.5,-833.5"/>
<text text-anchor="middle" x="715.5" y="-840.5" font-family="Helvetica,sans-Serif" font-size="10.00" fill="#000000">extend_data_linear</text>
</a>
</g>
</g>
<!-- Node10&#45;&gt;Node17 -->
<g id="edge18" class="edge">
<title>Node10&#45;&gt;Node17</title>
<path fill="none" stroke="#191970" d="M588.0841,-545.1896C595.2894,-548.0129 602.0726,-552.098 607,-558 683.4566,-649.58 563.932,-734.6649 643,-824 645.5198,-826.847 648.4088,-829.2916 651.55,-831.3886"/>
<polygon fill="#191970" stroke="#191970" points="649.913,-834.4823 660.3733,-836.1651 653.2455,-828.3264 649.913,-834.4823"/>
</g>
<!-- Node18 -->
<g id="node19" class="node">
<title>Node18</title>
<g id="a_node19"><a xlink:href="eta__vert__weights__e_8f90.xhtml#a65f73dd15ed42f24bc867604275265d7" target="_top" xlink:title="Subroutine eta_vert_weights_e. ">
<polygon fill="#ffffff" stroke="#000000" points="659.5,-339.5 659.5,-358.5 771.5,-358.5 771.5,-339.5 659.5,-339.5"/>
<text text-anchor="middle" x="715.5" y="-346.5" font-family="Helvetica,sans-Serif" font-size="10.00" fill="#000000">eta_vert_weights_e</text>
</a>
</g>
</g>
<!-- Node10&#45;&gt;Node18 -->
<g id="edge19" class="edge">
<title>Node10&#45;&gt;Node18</title>
<path fill="none" stroke="#191970" d="M581.0806,-529.3959C590.6324,-525.1446 600.2996,-519.1931 607,-511 648.4902,-460.2666 596.8821,-414.5666 643,-368 645.2618,-365.7161 647.7623,-363.6961 650.4342,-361.9103"/>
<polygon fill="#191970" stroke="#191970" points="652.3758,-364.8377 659.4689,-356.9676 649.0161,-358.6966 652.3758,-364.8377"/>
</g>
<!-- Node19 -->
<g id="node20" class="node">
<title>Node19</title>
<g id="a_node20"><a xlink:href="eta__vert__weights_8f90.xhtml#a50b2cd78ee1d1e83af4429fde51e5a52" target="_top" xlink:title="Subroutine eta_vert_weights. ">
<polygon fill="#ffffff" stroke="#000000" points="665,-263.5 665,-282.5 766,-282.5 766,-263.5 665,-263.5"/>
<text text-anchor="middle" x="715.5" y="-270.5" font-family="Helvetica,sans-Serif" font-size="10.00" fill="#000000">eta_vert_weights</text>
</a>
</g>
</g>
<!-- Node10&#45;&gt;Node19 -->
<g id="edge20" class="edge">
<title>Node10&#45;&gt;Node19</title>
<path fill="none" stroke="#191970" d="M582.1106,-529.4514C591.4797,-525.2328 600.7834,-519.2861 607,-511 666.1961,-432.0975 576.5826,-364.9281 643,-292 646.5771,-288.0723 650.8573,-284.9141 655.5253,-282.3799"/>
<polygon fill="#191970" stroke="#191970" points="657.1659,-285.4814 664.8973,-278.2373 654.3359,-279.079 657.1659,-285.4814"/>
</g>
<!-- Node21 -->
<g id="node22" class="node">
<title>Node21</title>
<g id="a_node22"><a xlink:href="cubic__lagrange_8f90.xhtml#a0a8a6137c43c1f33d1416ae4db7c7ae9" target="_top" xlink:title="Subroutine Cubic_Lagrange. ">
<polygon fill="#ffffff" stroke="#000000" points="670.5,-681.5 670.5,-700.5 760.5,-700.5 760.5,-681.5 670.5,-681.5"/>
<text text-anchor="middle" x="715.5" y="-688.5" font-family="Helvetica,sans-Serif" font-size="10.00" fill="#000000">cubic_lagrange</text>
</a>
</g>
</g>
<!-- Node10&#45;&gt;Node21 -->
<g id="edge22" class="edge">
<title>Node10&#45;&gt;Node21</title>
<path fill="none" stroke="#191970" d="M588.2354,-546.2292C595.1697,-548.9771 601.8112,-552.7687 607,-558 644.4171,-595.7236 604.5097,-635.372 643,-672 648.0031,-676.7611 654.0483,-680.3646 660.4882,-683.086"/>
<polygon fill="#191970" stroke="#191970" points="659.5358,-686.4611 670.1306,-686.474 661.8563,-679.8568 659.5358,-686.4611"/>
</g>
<!-- Node22 -->
<g id="node23" class="node">
<title>Node22</title>
<g id="a_node23"><a xlink:href="quintic__lagrange_8f90.xhtml#a9ddbd450bc8fa18c2b593b614baf4c1e" target="_top" xlink:title="Subroutine Quintic_Lagrange. ">
<polygon fill="#ffffff" stroke="#000000" points="666.5,-643.5 666.5,-662.5 764.5,-662.5 764.5,-643.5 666.5,-643.5"/>
<text text-anchor="middle" x="715.5" y="-650.5" font-family="Helvetica,sans-Serif" font-size="10.00" fill="#000000">quintic_lagrange</text>
</a>
</g>
</g>
<!-- Node10&#45;&gt;Node22 -->
<g id="edge23" class="edge">
<title>Node10&#45;&gt;Node22</title>
<path fill="none" stroke="#191970" d="M588.2904,-547.0519C595.0593,-549.7229 601.6269,-553.2758 607,-558 635.0689,-582.6795 614.2305,-610.141 643,-634 647.0892,-637.3913 651.7182,-640.1841 656.6107,-642.4831"/>
<polygon fill="#191970" stroke="#191970" points="655.6859,-645.8818 666.2716,-646.3231 658.2716,-639.3769 655.6859,-645.8818"/>
</g>
<!-- Node23 -->
<g id="node24" class="node">
<title>Node23</title>
<g id="a_node24"><a xlink:href="ecmwf__quasi__cubic_8f90.xhtml#aa563db909a71182632a8a2bce9534b95" target="_top" xlink:title="Subroutine ECMWF_quasi_cubic. ">
<polygon fill="#ffffff" stroke="#000000" points="659.5,-605.5 659.5,-624.5 771.5,-624.5 771.5,-605.5 659.5,-605.5"/>
<text text-anchor="middle" x="715.5" y="-612.5" font-family="Helvetica,sans-Serif" font-size="10.00" fill="#000000">ecmwf_quasi_cubic</text>
</a>
</g>
</g>
<!-- Node10&#45;&gt;Node23 -->
<g id="edge24" class="edge">
<title>Node10&#45;&gt;Node23</title>
<path fill="none" stroke="#191970" d="M587.1843,-548.5306C594.0605,-551.0581 600.9505,-554.18 607,-558 626.6709,-570.4213 622.9788,-584.1516 643,-596 646.6533,-598.162 650.553,-600.0815 654.5768,-601.7853"/>
<polygon fill="#191970" stroke="#191970" points="653.5418,-605.1354 664.1338,-605.3816 656.0072,-598.5839 653.5418,-605.1354"/>
</g>
<!-- Node24 -->
<g id="node25" class="node">
<title>Node24</title>
<g id="a_node25"><a xlink:href="ecmwf__mono__quasi__cubic_8f90.xhtml#a70ab9b48f959841dd2da4acd80ee8680" target="_top" xlink:title="Subroutine ECMWF_mono_quasi_cubic. ">
<polygon fill="#ffffff" stroke="#000000" points="643,-453.5 643,-472.5 788,-472.5 788,-453.5 643,-453.5"/>
<text text-anchor="middle" x="715.5" y="-460.5" font-family="Helvetica,sans-Serif" font-size="10.00" fill="#000000">ecmwf_mono_quasi_cubic</text>
</a>
</g>
</g>
<!-- Node10&#45;&gt;Node24 -->
<g id="edge25" class="edge">
<title>Node10&#45;&gt;Node24</title>
<path fill="none" stroke="#191970" d="M571.6535,-529.4112C582.6771,-524.4751 595.8543,-518.023 607,-511 624.3827,-500.0471 624.6563,-491.2537 643,-482 647.6016,-479.6787 652.5148,-477.6208 657.5331,-475.8005"/>
<polygon fill="#191970" stroke="#191970" points="658.8624,-479.0474 667.2588,-472.5858 656.6655,-472.4011 658.8624,-479.0474"/>
</g>
<!-- Node25 -->
<g id="node26" class="node">
<title>Node25</title>
<g id="a_node26"><a xlink:href="h__cubic__v__linear_8f90.xhtml#a5fc56e4a569b84d416b44aeed73effed" target="_top" xlink:title="Subroutine H_cubic_v_linear. ">
<polygon fill="#ffffff" stroke="#000000" points="666.5,-567.5 666.5,-586.5 764.5,-586.5 764.5,-567.5 666.5,-567.5"/>
<text text-anchor="middle" x="715.5" y="-574.5" font-family="Helvetica,sans-Serif" font-size="10.00" fill="#000000">h_cubic_v_linear</text>
</a>
</g>
</g>
<!-- Node10&#45;&gt;Node25 -->
<g id="edge26" class="edge">
<title>Node10&#45;&gt;Node25</title>
<path fill="none" stroke="#191970" d="M588.0767,-548.0055C610.7112,-553.1558 639.3653,-559.6759 663.7662,-565.2282"/>
<polygon fill="#191970" stroke="#191970" points="663.0555,-568.6559 673.5828,-567.462 664.6086,-561.8304 663.0555,-568.6559"/>
</g>
<!-- Node26 -->
<g id="node27" class="node">
<title>Node26</title>
<g id="a_node27"><a xlink:href="h__quasi__cubic__v__quintic_8f90.xhtml#ad7c38afa7a802170e8f308d8d77492c6" target="_top" xlink:title="!&gt; Subroutine h_quasi_cubic_v_quintic !&gt; Subroutine h_quasi_cubic_v_quintic ">
<polygon fill="#ffffff" stroke="#000000" points="648.5,-529.5 648.5,-548.5 782.5,-548.5 782.5,-529.5 648.5,-529.5"/>
<text text-anchor="middle" x="715.5" y="-536.5" font-family="Helvetica,sans-Serif" font-size="10.00" fill="#000000">h_quasi_cubic_v_quintic</text>
</a>
</g>
</g>
<!-- Node10&#45;&gt;Node26 -->
<g id="edge27" class="edge">
<title>Node10&#45;&gt;Node26</title>
<path fill="none" stroke="#191970" d="M588.0767,-539C603.1543,-539 620.903,-539 638.2864,-539"/>
<polygon fill="#191970" stroke="#191970" points="638.4563,-542.5001 648.4562,-539 638.4562,-535.5001 638.4563,-542.5001"/>
</g>
<!-- Node27 -->
<g id="node28" class="node">
<title>Node27</title>
<g id="a_node28"><a xlink:href="h__cubic__v__quintic_8f90.xhtml#a0c6da88b8898a0bb6b113d0221b4794b" target="_top" xlink:title="!&gt; Subroutine h_Cubic_v_quintic !&gt; Subroutine h_Cubic_v_quintic ">
<polygon fill="#ffffff" stroke="#000000" points="664,-491.5 664,-510.5 767,-510.5 767,-491.5 664,-491.5"/>
<text text-anchor="middle" x="715.5" y="-498.5" font-family="Helvetica,sans-Serif" font-size="10.00" fill="#000000">h_cubic_v_quintic</text>
</a>
</g>
</g>
<!-- Node10&#45;&gt;Node27 -->
<g id="edge28" class="edge">
<title>Node10&#45;&gt;Node27</title>
<path fill="none" stroke="#191970" d="M588.0767,-529.9945C610.7112,-524.8442 639.3653,-518.3241 663.7662,-512.7718"/>
<polygon fill="#191970" stroke="#191970" points="664.6086,-516.1696 673.5828,-510.538 663.0555,-509.3441 664.6086,-516.1696"/>
</g>
<!-- Node28 -->
<g id="node29" class="node">
<title>Node28</title>
<g id="a_node29"><a xlink:href="mono__enforce_8f90.xhtml#a04af862b6c4be95d408bda425a954990" target="_top" xlink:title="Subroutine Mono_Enforce. ">
<polygon fill="#ffffff" stroke="#000000" points="672.5,-415.5 672.5,-434.5 758.5,-434.5 758.5,-415.5 672.5,-415.5"/>
<text text-anchor="middle" x="715.5" y="-422.5" font-family="Helvetica,sans-Serif" font-size="10.00" fill="#000000">mono_enforce</text>
</a>
</g>
</g>
<!-- Node10&#45;&gt;Node28 -->
<g id="edge29" class="edge">
<title>Node10&#45;&gt;Node28</title>
<path fill="none" stroke="#191970" d="M577.5199,-529.4015C587.7172,-524.9852 598.6918,-518.9294 607,-511 631.454,-487.6608 616.4413,-464.9129 643,-444 648.7632,-439.4619 655.504,-436.0011 662.5123,-433.3633"/>
<polygon fill="#191970" stroke="#191970" points="663.7233,-436.6504 672.1682,-430.2524 661.5767,-429.9876 663.7233,-436.6504"/>
</g>
<!-- Node29 -->
<g id="node30" class="node">
<title>Node29</title>
<g id="a_node30"><a xlink:href="tri__linear_8f90.xhtml#a54f8235a5c39db3ff12a75cb925f11f0" target="_top" xlink:title="Subroutine Tri_Linear. ">
<polygon fill="#ffffff" stroke="#000000" points="685.5,-377.5 685.5,-396.5 745.5,-396.5 745.5,-377.5 685.5,-377.5"/>
<text text-anchor="middle" x="715.5" y="-384.5" font-family="Helvetica,sans-Serif" font-size="10.00" fill="#000000">tri_linear</text>
</a>
</g>
</g>
<!-- Node10&#45;&gt;Node29 -->
<g id="edge30" class="edge">
<title>Node10&#45;&gt;Node29</title>
<path fill="none" stroke="#191970" d="M579.7643,-529.4545C589.5806,-525.1537 599.7382,-519.158 607,-511 639.8011,-474.1508 606.8497,-439.5698 643,-406 651.7757,-397.8507 663.6126,-393.1053 675.1751,-390.3695"/>
<polygon fill="#191970" stroke="#191970" points="676.0213,-393.771 685.1816,-388.4476 674.7009,-386.8967 676.0213,-393.771"/>
</g>
<!-- Node30 -->
<g id="node31" class="node">
<title>Node30</title>
<g id="a_node31"><a xlink:href="interpolation__distribute__poles__c96__1c_8f90.xhtml#a4605d3ca2ff6b6611e0a1712db630ae7" target="_top" xlink:title="Performs distribution of polar data from the semi&#45;lagrangian. ">
<polygon fill="#ffffff" stroke="#000000" points="650,-176 650,-206 781,-206 781,-176 650,-176"/>
<text text-anchor="start" x="658" y="-194" font-family="Helvetica,sans-Serif" font-size="10.00" fill="#000000">interpolation_distribute</text>
<text text-anchor="middle" x="715.5" y="-183" font-family="Helvetica,sans-Serif" font-size="10.00" fill="#000000">_poles</text>
</a>
</g>
</g>
<!-- Node10&#45;&gt;Node30 -->
<g id="edge31" class="edge">
<title>Node10&#45;&gt;Node30</title>
<path fill="none" stroke="#191970" d="M582.5379,-529.4035C591.8076,-525.1967 600.9487,-519.2685 607,-511 675.1162,-417.9253 587.9795,-355.3679 643,-254 652.1099,-237.2162 667.5784,-222.841 681.8932,-212.0783"/>
<polygon fill="#191970" stroke="#191970" points="684.0464,-214.8411 690.1314,-206.1679 679.9659,-209.1534 684.0464,-214.8411"/>
</g>
<!-- Node32 -->
<g id="node33" class="node">
<title>Node32</title>
<g id="a_node33"><a xlink:href="mono__conserv_8f90.xhtml#a9e691e3f4975c5b370bf6cf4ca193390" target="_top" xlink:title="Subroutine Mono_Conserv. ">
<polygon fill="#ffffff" stroke="#000000" points="671.5,-795.5 671.5,-814.5 759.5,-814.5 759.5,-795.5 671.5,-795.5"/>
<text text-anchor="middle" x="715.5" y="-802.5" font-family="Helvetica,sans-Serif" font-size="10.00" fill="#000000">mono_conserv</text>
</a>
</g>
</g>
<!-- Node10&#45;&gt;Node32 -->
<g id="edge33" class="edge">
<title>Node10&#45;&gt;Node32</title>
<path fill="none" stroke="#191970" d="M588.2839,-545.3926C595.3851,-548.2048 602.0771,-552.2339 607,-558 673.6121,-636.021 574.1637,-709.9341 643,-786 648.0421,-791.5716 654.4988,-795.5964 661.4752,-798.4886"/>
<polygon fill="#191970" stroke="#191970" points="660.6327,-801.8979 671.2268,-801.7696 662.865,-795.2633 660.6327,-801.8979"/>
</g>
<!-- Node12 -->
<g id="node13" class="node">
<title>Node12</title>
<g id="a_node13"><a xlink:href="namespaceumprintmgr.xhtml#a088ce22a18d574e9df7ee1850bfb10c7" target="_top" xlink:title="umprintmgr::umprintopenstream">
<polygon fill="#ffffff" stroke="#000000" points="990,-510.5 990,-529.5 1167,-529.5 1167,-510.5 990,-510.5"/>
<text text-anchor="middle" x="1078.5" y="-517.5" font-family="Helvetica,sans-Serif" font-size="10.00" fill="#000000">umprintmgr::umprintopenstream</text>
</a>
</g>
</g>
<!-- Node11&#45;&gt;Node12 -->
<g id="edge12" class="edge">
<title>Node11&#45;&gt;Node12</title>
<path fill="none" stroke="#191970" d="M948.6989,-513.6785C958.6468,-513.4243 969.1947,-513.2832 979.8088,-513.2552"/>
<polygon fill="#191970" stroke="#191970" points="979.9852,-516.7552 989.9879,-513.263 979.9906,-509.7552 979.9852,-516.7552"/>
</g>
<!-- Node13 -->
<g id="node14" class="node">
<title>Node13</title>
<g id="a_node14"><a xlink:href="namespaceumprintmgr.xhtml#ad3a290b30a6e25500eabc0bf90330b77" target="_top" xlink:title="umprintmgr::umprintflush">
<polygon fill="#ffffff" stroke="#000000" points="1007.5,-472.5 1007.5,-491.5 1149.5,-491.5 1149.5,-472.5 1007.5,-472.5"/>
<text text-anchor="middle" x="1078.5" y="-479.5" font-family="Helvetica,sans-Serif" font-size="10.00" fill="#000000">umprintmgr::umprintflush</text>
</a>
</g>
</g>
<!-- Node11&#45;&gt;Node13 -->
<g id="edge14" class="edge">
<title>Node11&#45;&gt;Node13</title>
<path fill="none" stroke="#191970" d="M936.8189,-510.411C962.3886,-505.2835 994.059,-498.9328 1020.9678,-493.5368"/>
<polygon fill="#191970" stroke="#191970" points="1021.9084,-496.9179 1031.025,-491.5201 1020.532,-490.0546 1021.9084,-496.9179"/>
</g>
<!-- Node12&#45;&gt;Node11 -->
<g id="edge13" class="edge">
<title>Node12&#45;&gt;Node11</title>
<path fill="none" stroke="#191970" d="M989.9879,-526.737C979.4955,-526.7808 968.9006,-526.7139 958.721,-526.5362"/>
<polygon fill="#191970" stroke="#191970" points="958.7716,-523.0365 948.6989,-526.3215 958.6216,-530.0349 958.7716,-523.0365"/>
</g>
<!-- Node14 -->
<g id="node15" class="node">
<title>Node14</title>
<g id="a_node15"><a xlink:href="namespaceumflush__mod.xhtml#a3a003ab59990bdcb712b443dd5e0d1cd" target="_top" xlink:title="umflush_mod::umflush">
<polygon fill="#ffffff" stroke="#000000" points="1203,-472.5 1203,-491.5 1331,-491.5 1331,-472.5 1203,-472.5"/>
<text text-anchor="middle" x="1267" y="-479.5" font-family="Helvetica,sans-Serif" font-size="10.00" fill="#000000">umflush_mod::umflush</text>
</a>
</g>
</g>
<!-- Node13&#45;&gt;Node14 -->
<g id="edge15" class="edge">
<title>Node13&#45;&gt;Node14</title>
<path fill="none" stroke="#191970" d="M1149.7638,-482C1163.7742,-482 1178.5063,-482 1192.6162,-482"/>
<polygon fill="#191970" stroke="#191970" points="1192.7612,-485.5001 1202.7611,-482 1192.7611,-478.5001 1192.7612,-485.5001"/>
</g>
<!-- Node20 -->
<g id="node21" class="node">
<title>Node20</title>
<g id="a_node21"><a xlink:href="eta__vert__weights__level_8f90.xhtml#a42e921f294a2295659d37368ef5ba25f" target="_top" xlink:title="eta_vert_weights_level">
<polygon fill="#ffffff" stroke="#000000" points="824,-263.5 824,-282.5 954,-282.5 954,-263.5 824,-263.5"/>
<text text-anchor="middle" x="889" y="-270.5" font-family="Helvetica,sans-Serif" font-size="10.00" fill="#000000">eta_vert_weights_level</text>
</a>
</g>
</g>
<!-- Node19&#45;&gt;Node20 -->
<g id="edge21" class="edge">
<title>Node19&#45;&gt;Node20</title>
<path fill="none" stroke="#191970" d="M766.1498,-273C780.9186,-273 797.3863,-273 813.3449,-273"/>
<polygon fill="#191970" stroke="#191970" points="813.7354,-276.5001 823.7354,-273 813.7354,-269.5001 813.7354,-276.5001"/>
</g>
<!-- Node31 -->
<g id="node32" class="node">
<title>Node31</title>
<g id="a_node32"><a xlink:href="sum_8f90.xhtml#a025c1f845b6a4ea9c9f48b8612cd82e7" target="_top" xlink:title="Generic routines for manipulating pp&#45;fields within Fieldcalc. ">
<polygon fill="#ffffff" stroke="#000000" points="870,-181.5 870,-200.5 908,-200.5 908,-181.5 870,-181.5"/>
<text text-anchor="middle" x="889" y="-188.5" font-family="Helvetica,sans-Serif" font-size="10.00" fill="#000000">sum</text>
</a>
</g>
</g>
<!-- Node30&#45;&gt;Node31 -->
<g id="edge32" class="edge">
<title>Node30&#45;&gt;Node31</title>
<path fill="none" stroke="#191970" d="M781.0929,-191C808.1832,-191 838.2051,-191 859.6898,-191"/>
<polygon fill="#191970" stroke="#191970" points="859.7931,-194.5001 869.793,-191 859.793,-187.5001 859.7931,-194.5001"/>
</g>
<!-- Node32&#45;&gt;Node5 -->
<g id="edge34" class="edge">
<title>Node32&#45;&gt;Node5</title>
<path fill="none" stroke="#191970" d="M759.7303,-805C777.3423,-805 798.0606,-805 817.6893,-805"/>
<polygon fill="#191970" stroke="#191970" points="817.8323,-808.5001 827.8323,-805 817.8323,-801.5001 817.8323,-808.5001"/>
</g>
<!-- Node32&#45;&gt;Node11 -->
<g id="edge35" class="edge">
<title>Node32&#45;&gt;Node11</title>
<path fill="none" stroke="#191970" d="M759.829,-800.3793C770.0244,-797.5341 780.161,-793.0451 788,-786 863.1577,-718.4541 882.6928,-589.0076 887.5088,-539.7184"/>
<polygon fill="#191970" stroke="#191970" points="890.9979,-539.9943 888.3856,-529.7266 884.0247,-539.3823 890.9979,-539.9943"/>
</g>
<!-- Node33&#45;&gt;Node11 -->
<g id="edge37" class="edge">
<title>Node33&#45;&gt;Node11</title>
<path fill="none" stroke="#191970" d="M595.3709,-409.9472C599.7137,-407.159 603.7101,-403.8716 607,-400 650.2763,-349.0713 590.3888,-295.2144 643,-254 693.7314,-214.2582 734.9561,-217.4018 788,-254 830.7871,-283.5214 871.4878,-444.2959 884.6121,-500.5516"/>
<polygon fill="#191970" stroke="#191970" points="881.2106,-501.3774 886.8618,-510.3393 888.0327,-499.8093 881.2106,-501.3774"/>
</g>
<!-- Node33&#45;&gt;Node18 -->
<g id="edge41" class="edge">
<title>Node33&#45;&gt;Node18</title>
<path fill="none" stroke="#191970" d="M588.7152,-409.8634C595.0111,-406.9171 601.3106,-403.6087 607,-400 625.0775,-388.5337 624.1265,-378.1026 643,-368 647.2912,-365.703 651.8762,-363.6716 656.5776,-361.8773"/>
<polygon fill="#191970" stroke="#191970" points="658.0187,-365.0828 666.3345,-358.5179 655.7398,-358.4642 658.0187,-365.0828"/>
</g>
<!-- Node33&#45;&gt;Node19 -->
<g id="edge42" class="edge">
<title>Node33&#45;&gt;Node19</title>
<path fill="none" stroke="#191970" d="M594.7763,-409.8533C599.2858,-407.0771 603.4831,-403.8182 607,-400 641.2785,-362.7847 606.0715,-326.5874 643,-292 646.7617,-288.4768 651.0949,-285.589 655.7328,-283.2243"/>
<polygon fill="#191970" stroke="#191970" points="657.1305,-286.4333 664.957,-279.2922 654.3855,-279.994 657.1305,-286.4333"/>
</g>
<!-- Node33&#45;&gt;Node21 -->
<g id="edge43" class="edge">
<title>Node33&#45;&gt;Node21</title>
<path fill="none" stroke="#191970" d="M574.3234,-440.1556C586.1027,-448.3925 599.1454,-459.6349 607,-473 652.5397,-550.4891 581.9497,-606.0358 643,-672 647.8099,-677.1971 653.8513,-681.0431 660.3831,-683.8778"/>
<polygon fill="#191970" stroke="#191970" points="659.6228,-687.3209 670.2176,-687.3467 661.9513,-680.7195 659.6228,-687.3209"/>
</g>
<!-- Node33&#45;&gt;Node22 -->
<g id="edge44" class="edge">
<title>Node33&#45;&gt;Node22</title>
<path fill="none" stroke="#191970" d="M573.7882,-440.0888C585.5872,-448.379 598.8042,-459.6869 607,-473 645.439,-535.4391 592.1032,-581.2202 643,-634 646.9516,-638.0978 651.67,-641.3499 656.7777,-643.9256"/>
<polygon fill="#191970" stroke="#191970" points="655.7319,-647.2806 666.3105,-647.8682 658.4072,-640.812 655.7319,-647.2806"/>
</g>
<!-- Node33&#45;&gt;Node23 -->
<g id="edge45" class="edge">
<title>Node33&#45;&gt;Node23</title>
<path fill="none" stroke="#191970" d="M573.1268,-440.1129C584.9076,-448.4808 598.3051,-459.8496 607,-473 638.4154,-520.5134 602.1548,-556.2997 643,-596 645.2598,-598.1964 647.7408,-600.1473 650.3811,-601.8795"/>
<polygon fill="#191970" stroke="#191970" points="648.8194,-605.014 659.2793,-606.6999 652.1538,-598.8591 648.8194,-605.014"/>
</g>
<!-- Node33&#45;&gt;Node24 -->
<g id="edge46" class="edge">
<title>Node33&#45;&gt;Node24</title>
<path fill="none" stroke="#191970" d="M602.2591,-437.2326C621.9087,-441.7038 644.086,-446.7501 663.5728,-451.1842"/>
<polygon fill="#191970" stroke="#191970" points="662.9629,-454.6348 673.4902,-453.4409 664.5161,-447.8093 662.9629,-454.6348"/>
</g>
<!-- Node33&#45;&gt;Node25 -->
<g id="edge47" class="edge">
<title>Node33&#45;&gt;Node25</title>
<path fill="none" stroke="#191970" d="M571.9149,-440.1362C583.6647,-448.6618 597.4007,-460.1648 607,-473 631.5714,-505.8543 611.974,-531.157 643,-558 647.1821,-561.6182 651.9738,-564.5588 657.0574,-566.9469"/>
<polygon fill="#191970" stroke="#191970" points="655.8687,-570.2406 666.4546,-570.676 658.4507,-563.7342 655.8687,-570.2406"/>
</g>
<!-- Node33&#45;&gt;Node26 -->
<g id="edge48" class="edge">
<title>Node33&#45;&gt;Node26</title>
<path fill="none" stroke="#191970" d="M569.2573,-440.1449C580.9134,-449.0994 595.4014,-461.0063 607,-473 625.2916,-491.9146 621.0882,-505.4323 643,-520 646.1085,-522.0666 649.4307,-523.9087 652.8798,-525.5505"/>
<polygon fill="#191970" stroke="#191970" points="651.6686,-528.8374 662.246,-529.4457 654.3567,-522.3741 651.6686,-528.8374"/>
</g>
<!-- Node33&#45;&gt;Node27 -->
<g id="edge49" class="edge">
<title>Node33&#45;&gt;Node27</title>
<path fill="none" stroke="#191970" d="M569.7006,-440.2215C588.2585,-452.9372 616.3474,-470.7463 643,-482 648.7426,-484.4247 654.8748,-486.6073 661.0497,-488.5535"/>
<polygon fill="#191970" stroke="#191970" points="660.1563,-491.9391 670.7384,-491.418 662.141,-485.2263 660.1563,-491.9391"/>
</g>
<!-- Node33&#45;&gt;Node28 -->
<g id="edge50" class="edge">
<title>Node33&#45;&gt;Node28</title>
<path fill="none" stroke="#191970" d="M602.2591,-425C621.4953,-425 643.1538,-425 662.3392,-425"/>
<polygon fill="#191970" stroke="#191970" points="662.4154,-428.5001 672.4153,-425 662.4153,-421.5001 662.4154,-428.5001"/>
</g>
<!-- Node33&#45;&gt;Node29 -->
<g id="edge51" class="edge">
<title>Node33&#45;&gt;Node29</title>
<path fill="none" stroke="#191970" d="M602.2591,-412.7674C625.9656,-407.3731 653.3511,-401.1417 675.2525,-396.1581"/>
<polygon fill="#191970" stroke="#191970" points="676.235,-399.5241 685.2092,-393.8925 674.6818,-392.6986 676.235,-399.5241"/>
</g>
<!-- Node33&#45;&gt;Node30 -->
<g id="edge52" class="edge">
<title>Node33&#45;&gt;Node30</title>
<path fill="none" stroke="#191970" d="M595.8222,-409.9048C600.0235,-407.1292 603.8644,-403.8562 607,-400 658.196,-337.0393 591.4422,-283.6648 643,-221 645.902,-217.4728 649.2876,-214.3549 652.9804,-211.5997"/>
<polygon fill="#191970" stroke="#191970" points="654.9691,-214.482 661.4865,-206.1289 651.1826,-208.5945 654.9691,-214.482"/>
</g>
<!-- Node34 -->
<g id="node35" class="node">
<title>Node34</title>
<g id="a_node35"><a xlink:href="extend__data__quintic__multi_8f90.xhtml#a6b3c661e9be4b22757d46c4e29d483f4" target="_top" xlink:title="Subroutine Extend_data_quintic_multi. ">
<polygon fill="#ffffff" stroke="#000000" points="657.5,-39 657.5,-69 773.5,-69 773.5,-39 657.5,-39"/>
<text text-anchor="start" x="665.5" y="-57" font-family="Helvetica,sans-Serif" font-size="10.00" fill="#000000">extend_data_quintic</text>
<text text-anchor="middle" x="715.5" y="-46" font-family="Helvetica,sans-Serif" font-size="10.00" fill="#000000">_multi</text>
</a>
</g>
</g>
<!-- Node33&#45;&gt;Node34 -->
<g id="edge38" class="edge">
<title>Node33&#45;&gt;Node34</title>
<path fill="none" stroke="#191970" d="M596.4456,-409.9864C600.4707,-407.1986 604.1012,-403.9005 607,-400 692.8982,-284.4219 552.3147,-189.8614 643,-78 644.7169,-75.8822 646.6257,-73.9498 648.6845,-72.1867"/>
<polygon fill="#191970" stroke="#191970" points="651.0809,-74.7825 657.2807,-66.191 647.0764,-69.0411 651.0809,-74.7825"/>
</g>
<!-- Node35 -->
<g id="node36" class="node">
<title>Node35</title>
<g id="a_node36"><a xlink:href="extend__data__cubic__multi_8f90.xhtml#a7cfbda33f05d21172fc22599e966f60d" target="_top" xlink:title="Subroutine Extend_data_cubic_multi. ">
<polygon fill="#ffffff" stroke="#000000" points="646,-137.5 646,-156.5 785,-156.5 785,-137.5 646,-137.5"/>
<text text-anchor="middle" x="715.5" y="-144.5" font-family="Helvetica,sans-Serif" font-size="10.00" fill="#000000">extend_data_cubic_multi</text>
</a>
</g>
</g>
<!-- Node33&#45;&gt;Node35 -->
<g id="edge39" class="edge">
<title>Node33&#45;&gt;Node35</title>
<path fill="none" stroke="#191970" d="M596.2812,-409.8615C600.3383,-407.0981 604.0212,-403.8397 607,-400 671.4971,-316.8608 572.5501,-244.1589 643,-166 644.0617,-164.8221 645.1867,-163.7132 646.3665,-162.6696"/>
<polygon fill="#191970" stroke="#191970" points="648.6999,-165.3071 654.8589,-156.6863 644.6682,-159.5847 648.6999,-165.3071"/>
</g>
<!-- Node36 -->
<g id="node37" class="node">
<title>Node36</title>
<g id="a_node37"><a xlink:href="extend__data__linear__multi_8f90.xhtml#aa01d3eba94c813e960947b31e9a81414" target="_top" xlink:title="Subroutine Extend_data_linear_multi. ">
<polygon fill="#ffffff" stroke="#000000" points="660.5,-88 660.5,-118 770.5,-118 770.5,-88 660.5,-88"/>
<text text-anchor="start" x="668.5" y="-106" font-family="Helvetica,sans-Serif" font-size="10.00" fill="#000000">extend_data_linear</text>
<text text-anchor="middle" x="715.5" y="-95" font-family="Helvetica,sans-Serif" font-size="10.00" fill="#000000">_multi</text>
</a>
</g>
</g>
<!-- Node33&#45;&gt;Node36 -->
<g id="edge40" class="edge">
<title>Node33&#45;&gt;Node36</title>
<path fill="none" stroke="#191970" d="M596.3647,-409.9256C600.4055,-407.1497 604.0618,-403.8709 607,-400 680.7267,-302.8686 565.8345,-222.4225 643,-128 645.4617,-124.9877 648.306,-122.3374 651.4133,-120.0057"/>
<polygon fill="#191970" stroke="#191970" points="653.5357,-122.8071 660.1713,-114.5476 649.8333,-116.8663 653.5357,-122.8071"/>
</g>
<!-- Node37 -->
<g id="node38" class="node">
<title>Node37</title>
<g id="a_node38"><a xlink:href="mono__conserv__qcon_8f90.xhtml#ae0d28b7d066a022e850a815a79118224" target="_top" xlink:title="Subroutine Mono_Conserv_qcon. ">
<polygon fill="#ffffff" stroke="#000000" points="657.5,-301.5 657.5,-320.5 773.5,-320.5 773.5,-301.5 657.5,-301.5"/>
<text text-anchor="middle" x="715.5" y="-308.5" font-family="Helvetica,sans-Serif" font-size="10.00" fill="#000000">mono_conserv_qcon</text>
</a>
</g>
</g>
<!-- Node33&#45;&gt;Node37 -->
<g id="edge53" class="edge">
<title>Node33&#45;&gt;Node37</title>
<path fill="none" stroke="#191970" d="M593.0298,-409.9662C598.0763,-407.1403 602.8778,-403.8388 607,-400 632.6019,-376.1579 615.7104,-351.8901 643,-330 645.2837,-328.1681 647.7261,-326.5115 650.2815,-325.0134"/>
<polygon fill="#191970" stroke="#191970" points="651.9454,-328.0949 659.3395,-320.5069 648.8273,-321.8277 651.9454,-328.0949"/>
</g>
<!-- Node37&#45;&gt;Node5 -->
<g id="edge54" class="edge">
<title>Node37&#45;&gt;Node5</title>
<path fill="none" stroke="#191970" d="M773.6486,-319.4778C779.0194,-322.1517 783.9529,-325.5902 788,-330 851.7323,-399.4445 804.8014,-446.7191 824,-539 842.5504,-628.1653 869.7381,-732.8439 882.247,-779.8823"/>
<polygon fill="#191970" stroke="#191970" points="878.9312,-781.0316 884.8919,-789.7906 885.6944,-779.2262 878.9312,-781.0316"/>
</g>
<!-- Node37&#45;&gt;Node11 -->
<g id="edge55" class="edge">
<title>Node37&#45;&gt;Node11</title>
<path fill="none" stroke="#191970" d="M771.6082,-320.5726C777.4913,-323.0354 783.1016,-326.1252 788,-330 845.0658,-375.1415 873.7621,-461.5776 884.2243,-500.3406"/>
<polygon fill="#191970" stroke="#191970" points="880.9161,-501.5293 886.7992,-510.3406 887.695,-499.7837 880.9161,-501.5293"/>
</g>
<!-- Node38&#45;&gt;Node39 -->
<g id="edge59" class="edge">
<title>Node38&#45;&gt;Node39</title>
<path fill="none" stroke="#191970" d="M306.5435,-325.8039C316.3701,-327.1767 327.0701,-328.6716 337.621,-330.1456"/>
<polygon fill="#191970" stroke="#191970" points="337.2697,-333.6304 347.6578,-331.5478 338.2383,-326.6977 337.2697,-333.6304"/>
</g>
</g>
</svg>
