<?xml version="1.0" encoding="UTF-8" standalone="no"?>
<!DOCTYPE svg PUBLIC "-//W3C//DTD SVG 1.1//EN"
 "http://www.w3.org/Graphics/SVG/1.1/DTD/svg11.dtd">
<!-- Generated by graphviz version 2.40.1 (20161225.0304)
 -->
<!-- Title: stash_grib Pages: 1 -->
<svg width="1155pt" height="386pt"
 viewBox="0.00 0.00 1155.00 385.75" xmlns="http://www.w3.org/2000/svg" xmlns:xlink="http://www.w3.org/1999/xlink">
<g id="graph0" class="graph" transform="scale(1 1) rotate(0) translate(4 381.7473)">
<title>stash_grib</title>
<polygon fill="#ffffff" stroke="transparent" points="-4,4 -4,-381.7473 1151,-381.7473 1151,4 -4,4"/>
<!-- Node1 -->
<g id="node1" class="node">
<title>Node1</title>
<polygon fill="#bfbfbf" stroke="#000000" points="0,-190.5 0,-209.5 67,-209.5 67,-190.5 0,-190.5"/>
<text text-anchor="middle" x="33.5" y="-197.5" font-family="Helvetica,sans-Serif" font-size="10.00" fill="#000000">stash_grib</text>
</g>
<!-- Node2 -->
<g id="node2" class="node">
<title>Node2</title>
<g id="a_node2"><a xlink:href="pp2grib_8f90.xhtml#a615c7cededbf53a1db70dbb1c0e96e9d" target="_top" xlink:title="SUBROUTINE PP2GRIB. ">
<polygon fill="#ffffff" stroke="#000000" points="103,-190.5 103,-209.5 156,-209.5 156,-190.5 103,-190.5"/>
<text text-anchor="middle" x="129.5" y="-197.5" font-family="Helvetica,sans-Serif" font-size="10.00" fill="#000000">pp2grib</text>
</a>
</g>
</g>
<!-- Node1&#45;&gt;Node2 -->
<g id="edge1" class="edge">
<title>Node1&#45;&gt;Node2</title>
<path fill="none" stroke="#191970" d="M77.1585,-200C85.8822,-200 94.7987,-200 102.7427,-200"/>
<polygon fill="#191970" stroke="#191970" points="77.0762,-196.5001 67.0761,-200 77.0761,-203.5001 77.0762,-196.5001"/>
</g>
<!-- Node3 -->
<g id="node3" class="node">
<title>Node3</title>
<g id="a_node3"><a xlink:href="grib__file_8f90.xhtml#ae9ef8da0f47b5d06ed87aaedd376de69" target="_top" xlink:title="Purpose: This routine acts as an interface between the model and. ">
<polygon fill="#ffffff" stroke="#000000" points="192,-190.5 192,-209.5 248,-209.5 248,-190.5 192,-190.5"/>
<text text-anchor="middle" x="220" y="-197.5" font-family="Helvetica,sans-Serif" font-size="10.00" fill="#000000">grib_file</text>
</a>
</g>
</g>
<!-- Node2&#45;&gt;Node3 -->
<g id="edge2" class="edge">
<title>Node2&#45;&gt;Node3</title>
<path fill="none" stroke="#191970" d="M166.3096,-200C174.8681,-200 183.8442,-200 191.9541,-200"/>
<polygon fill="#191970" stroke="#191970" points="166.1635,-196.5001 156.1635,-200 166.1635,-203.5001 166.1635,-196.5001"/>
</g>
<!-- Node4 -->
<g id="node4" class="node">
<title>Node4</title>
<g id="a_node4"><a xlink:href="meandiag_8f90.xhtml#a72a0b96fb4670010dc65680c7e8ac636" target="_top" xlink:title="LL Routine: MEANDIAG !&gt;LL. ">
<polygon fill="#ffffff" stroke="#000000" points="675.5,-342.5 675.5,-361.5 740.5,-361.5 740.5,-342.5 675.5,-342.5"/>
<text text-anchor="middle" x="708" y="-349.5" font-family="Helvetica,sans-Serif" font-size="10.00" fill="#000000">meandiag</text>
</a>
</g>
</g>
<!-- Node3&#45;&gt;Node4 -->
<g id="edge3" class="edge">
<title>Node3&#45;&gt;Node4</title>
<path fill="none" stroke="#191970" d="M239.3586,-215.9893C284.7104,-252.2809 402.8106,-340.1218 519,-371 573.8191,-385.5686 640.2927,-371.9837 678.0138,-361.5001"/>
<polygon fill="#191970" stroke="#191970" points="241.4919,-213.2132 231.5164,-209.6438 237.0887,-218.6549 241.4919,-213.2132"/>
</g>
<!-- Node10 -->
<g id="node10" class="node">
<title>Node10</title>
<g id="a_node10"><a xlink:href="stwork_8f90.xhtml#a60176015435dd67d80b42122c78e024e" target="_top" xlink:title="Subroutine STWORK !&gt; ">
<polygon fill="#ffffff" stroke="#000000" points="284,-190.5 284,-209.5 334,-209.5 334,-190.5 284,-190.5"/>
<text text-anchor="middle" x="309" y="-197.5" font-family="Helvetica,sans-Serif" font-size="10.00" fill="#000000">stwork</text>
</a>
</g>
</g>
<!-- Node3&#45;&gt;Node10 -->
<g id="edge10" class="edge">
<title>Node3&#45;&gt;Node10</title>
<path fill="none" stroke="#191970" d="M258.3817,-200C266.9593,-200 275.846,-200 283.7342,-200"/>
<polygon fill="#191970" stroke="#191970" points="258.1602,-196.5001 248.1602,-200 258.1601,-203.5001 258.1602,-196.5001"/>
</g>
<!-- Node21 -->
<g id="node21" class="node">
<title>Node21</title>
<g id="a_node21"><a xlink:href="writeff_8f90.xhtml#a9d615efe637ebed89fde6ba0bb9bcf63" target="_top" xlink:title="writeff">
<polygon fill="#ffffff" stroke="#000000" points="285,-114.5 285,-133.5 333,-133.5 333,-114.5 285,-114.5"/>
<text text-anchor="middle" x="309" y="-121.5" font-family="Helvetica,sans-Serif" font-size="10.00" fill="#000000">writeff</text>
</a>
</g>
</g>
<!-- Node3&#45;&gt;Node21 -->
<g id="edge36" class="edge">
<title>Node3&#45;&gt;Node21</title>
<path fill="none" stroke="#191970" d="M239.3136,-183.5075C257.1911,-168.2413 283.1543,-146.0704 297.8196,-133.5473"/>
<polygon fill="#191970" stroke="#191970" points="236.6037,-181.2191 231.2719,-190.3745 241.1494,-186.5423 236.6037,-181.2191"/>
</g>
<!-- Node5 -->
<g id="node5" class="node">
<title>Node5</title>
<g id="a_node5"><a xlink:href="meanctl_8f90.xhtml#a5bbbf6327297fa87e7a0d9b511eb2b00" target="_top" xlink:title="Subroutine: MEANCTL&#45;!&gt; ">
<polygon fill="#ffffff" stroke="#000000" points="784,-257.5 784,-276.5 840,-276.5 840,-257.5 784,-257.5"/>
<text text-anchor="middle" x="812" y="-264.5" font-family="Helvetica,sans-Serif" font-size="10.00" fill="#000000">meanctl</text>
</a>
</g>
</g>
<!-- Node4&#45;&gt;Node5 -->
<g id="edge4" class="edge">
<title>Node4&#45;&gt;Node5</title>
<path fill="none" stroke="#191970" d="M727.7495,-335.8586C749.1465,-318.3707 782.5815,-291.044 800.209,-276.6369"/>
<polygon fill="#191970" stroke="#191970" points="725.4581,-333.211 719.9301,-342.2494 729.888,-338.6311 725.4581,-333.211"/>
</g>
<!-- Node6 -->
<g id="node6" class="node">
<title>Node6</title>
<g id="a_node6"><a xlink:href="u__model_8f90.xhtml#ada0cd2ce4699433bf0f9adbd882c8eec" target="_top" xlink:title="Subroutine: U_MODEL &#45;!&gt; ">
<polygon fill="#ffffff" stroke="#000000" points="884.5,-238.5 884.5,-257.5 943.5,-257.5 943.5,-238.5 884.5,-238.5"/>
<text text-anchor="middle" x="914" y="-245.5" font-family="Helvetica,sans-Serif" font-size="10.00" fill="#000000">u_model</text>
</a>
</g>
</g>
<!-- Node5&#45;&gt;Node6 -->
<g id="edge5" class="edge">
<title>Node5&#45;&gt;Node6</title>
<path fill="none" stroke="#191970" d="M850.1485,-259.8939C861.392,-257.7995 873.527,-255.5391 884.1674,-253.5571"/>
<polygon fill="#191970" stroke="#191970" points="849.3319,-256.4857 840.142,-261.7579 850.6138,-263.3674 849.3319,-256.4857"/>
</g>
<!-- Node9 -->
<g id="node9" class="node">
<title>Node9</title>
<g id="a_node9"><a xlink:href="u__model__4_a_8f90.xhtml#afa05064dab5eba198b461d0928767c7e" target="_top" xlink:title="LL Subroutine: U_MODEL_4A (ENDGAME VERSION) !&gt;LL. ">
<polygon fill="#ffffff" stroke="#000000" points="876,-200.5 876,-219.5 952,-219.5 952,-200.5 876,-200.5"/>
<text text-anchor="middle" x="914" y="-207.5" font-family="Helvetica,sans-Serif" font-size="10.00" fill="#000000">u_model_4a</text>
</a>
</g>
</g>
<!-- Node5&#45;&gt;Node9 -->
<g id="edge8" class="edge">
<title>Node5&#45;&gt;Node9</title>
<path fill="none" stroke="#191970" d="M836.2053,-252.069C848.08,-244.8882 862.6653,-236.2801 876,-229 881.8265,-225.819 888.253,-222.5263 894.1373,-219.5936"/>
<polygon fill="#191970" stroke="#191970" points="834.0588,-249.2782 827.3388,-257.4692 837.7,-255.2567 834.0588,-249.2782"/>
</g>
<!-- Node7 -->
<g id="node7" class="node">
<title>Node7</title>
<g id="a_node7"><a xlink:href="um__shell_8f90.xhtml#a8c9bd25362824a5c301376ecb5ed5c27" target="_top" xlink:title="Subroutine: UM_SHELL !&gt; ">
<polygon fill="#ffffff" stroke="#000000" points="988,-219.5 988,-238.5 1049,-238.5 1049,-219.5 988,-219.5"/>
<text text-anchor="middle" x="1018.5" y="-226.5" font-family="Helvetica,sans-Serif" font-size="10.00" fill="#000000">um_shell</text>
</a>
</g>
</g>
<!-- Node6&#45;&gt;Node7 -->
<g id="edge6" class="edge">
<title>Node6&#45;&gt;Node7</title>
<path fill="none" stroke="#191970" d="M953.701,-240.7816C964.951,-238.7362 977.0261,-236.5407 987.6677,-234.6059"/>
<polygon fill="#191970" stroke="#191970" points="952.8786,-237.3737 943.666,-242.6062 954.1308,-244.2608 952.8786,-237.3737"/>
</g>
<!-- Node8 -->
<g id="node8" class="node">
<title>Node8</title>
<g id="a_node8"><a xlink:href="um__main_8f90.xhtml#a8f2d13215621443a5313261c282f098b" target="_top" xlink:title="Code Owner: See Unified Model Code Owner&#39;s HTML page. ">
<polygon fill="#ffffff" stroke="#000000" points="1085,-219.5 1085,-238.5 1147,-238.5 1147,-219.5 1085,-219.5"/>
<text text-anchor="middle" x="1116" y="-226.5" font-family="Helvetica,sans-Serif" font-size="10.00" fill="#000000">um_main</text>
</a>
</g>
</g>
<!-- Node7&#45;&gt;Node8 -->
<g id="edge7" class="edge">
<title>Node7&#45;&gt;Node8</title>
<path fill="none" stroke="#191970" d="M1059.2756,-229C1067.8294,-229 1076.72,-229 1084.8551,-229"/>
<polygon fill="#191970" stroke="#191970" points="1059.0821,-225.5001 1049.0821,-229 1059.0821,-232.5001 1059.0821,-225.5001"/>
</g>
<!-- Node9&#45;&gt;Node7 -->
<g id="edge9" class="edge">
<title>Node9&#45;&gt;Node7</title>
<path fill="none" stroke="#191970" d="M961.8728,-218.7041C970.7087,-220.3107 979.7128,-221.9478 987.8647,-223.43"/>
<polygon fill="#191970" stroke="#191970" points="962.4873,-215.2586 952.0225,-216.9132 961.2351,-222.1457 962.4873,-215.2586"/>
</g>
<!-- Node11 -->
<g id="node11" class="node">
<title>Node11</title>
<g id="a_node11"><a xlink:href="stash_8f90.xhtml#aeb6381a2ce8a30249b8dbaff0df2ebb5" target="_top" xlink:title="Subroutine STASH &#45;!&gt; ">
<polygon fill="#ffffff" stroke="#000000" points="405,-190.5 405,-209.5 448,-209.5 448,-190.5 405,-190.5"/>
<text text-anchor="middle" x="426.5" y="-197.5" font-family="Helvetica,sans-Serif" font-size="10.00" fill="#000000">stash</text>
</a>
</g>
</g>
<!-- Node10&#45;&gt;Node11 -->
<g id="edge11" class="edge">
<title>Node10&#45;&gt;Node11</title>
<path fill="none" stroke="#191970" d="M344.3582,-200C364.0605,-200 387.9575,-200 404.8845,-200"/>
<polygon fill="#191970" stroke="#191970" points="344.2067,-196.5001 334.2067,-200 344.2067,-203.5001 344.2067,-196.5001"/>
</g>
<!-- Node12 -->
<g id="node12" class="node">
<title>Node12</title>
<g id="a_node12"><a xlink:href="st__diag1_8f90.xhtml#a448077cde050b9a7c4cad654935688ac" target="_top" xlink:title="LL Subroutine ST_DIAG1 !&gt;LL. ">
<polygon fill="#ffffff" stroke="#000000" points="546.5,-152.5 546.5,-171.5 604.5,-171.5 604.5,-152.5 546.5,-152.5"/>
<text text-anchor="middle" x="575.5" y="-159.5" font-family="Helvetica,sans-Serif" font-size="10.00" fill="#000000">st_diag1</text>
</a>
</g>
</g>
<!-- Node11&#45;&gt;Node12 -->
<g id="edge12" class="edge">
<title>Node11&#45;&gt;Node12</title>
<path fill="none" stroke="#191970" d="M457.9462,-191.9802C484.0624,-185.3196 520.9259,-175.9182 546.3767,-169.4274"/>
<polygon fill="#191970" stroke="#191970" points="456.9908,-188.6117 448.1659,-194.4745 458.7207,-195.3946 456.9908,-188.6117"/>
</g>
<!-- Node13 -->
<g id="node13" class="node">
<title>Node13</title>
<g id="a_node13"><a xlink:href="atm__step_8f90.xhtml#ac0ee2467a1a9959b7065fdb8fd27bce4" target="_top" xlink:title="Perform a 1&#45;timestep integration of the Atmosphere Model. ">
<polygon fill="#ffffff" stroke="#000000" points="677,-219.5 677,-238.5 739,-238.5 739,-219.5 677,-219.5"/>
<text text-anchor="middle" x="708" y="-226.5" font-family="Helvetica,sans-Serif" font-size="10.00" fill="#000000">atm_step</text>
</a>
</g>
</g>
<!-- Node11&#45;&gt;Node13 -->
<g id="edge28" class="edge">
<title>Node11&#45;&gt;Node13</title>
<path fill="none" stroke="#191970" d="M445.3045,-215.9781C463.0064,-229.8919 490.9264,-249.0448 519,-257 567.3197,-270.6923 582.558,-265.818 632,-257 651.657,-253.4941 672.8906,-245.2626 687.9037,-238.6266"/>
<polygon fill="#191970" stroke="#191970" points="447.4533,-213.2145 437.4794,-209.6407 443.0477,-218.6543 447.4533,-213.2145"/>
</g>
<!-- Node14 -->
<g id="node14" class="node">
<title>Node14</title>
<g id="a_node14"><a xlink:href="atm__step__4_a_8f90.xhtml#a2319aa4963e90c64cd78bdcd5f481095" target="_top" xlink:title="Perform a 1&#45;timestep integration of the Atmosphere Model. ">
<polygon fill="#ffffff" stroke="#000000" points="668,-162.5 668,-181.5 748,-181.5 748,-162.5 668,-162.5"/>
<text text-anchor="middle" x="708" y="-169.5" font-family="Helvetica,sans-Serif" font-size="10.00" fill="#000000">atm_step_4a</text>
</a>
</g>
</g>
<!-- Node11&#45;&gt;Node14 -->
<g id="edge29" class="edge">
<title>Node11&#45;&gt;Node14</title>
<path fill="none" stroke="#191970" d="M458.154,-197.3273C498.5325,-193.8596 570.5073,-187.4827 632,-181 643.6278,-179.7742 656.242,-178.3276 667.7904,-176.957"/>
<polygon fill="#191970" stroke="#191970" points="457.7817,-193.8463 448.1161,-198.1853 458.3778,-200.8209 457.7817,-193.8463"/>
</g>
<!-- Node15 -->
<g id="node15" class="node">
<title>Node15</title>
<g id="a_node15"><a xlink:href="initdiag_8f90.xhtml#a95a853661b4e10339418e4a8c29b8c9c" target="_top" xlink:title="Calculate diagnostic quantities from the initial atmosphere dump Calculate diagnostic quantities from...">
<polygon fill="#ffffff" stroke="#000000" points="681.5,-95.5 681.5,-114.5 734.5,-114.5 734.5,-95.5 681.5,-95.5"/>
<text text-anchor="middle" x="708" y="-102.5" font-family="Helvetica,sans-Serif" font-size="10.00" fill="#000000">initdiag</text>
</a>
</g>
</g>
<!-- Node11&#45;&gt;Node15 -->
<g id="edge35" class="edge">
<title>Node11&#45;&gt;Node15</title>
<path fill="none" stroke="#191970" d="M433.2248,-180.6284C445.0636,-149.931 472.8429,-91.121 519,-67 563.5108,-43.7393 583.1213,-55.4613 632,-67 655.1151,-72.4567 679.2155,-86.0798 693.9193,-95.4392"/>
<polygon fill="#191970" stroke="#191970" points="429.8674,-179.6176 429.6981,-190.2111 436.4366,-182.0353 429.8674,-179.6176"/>
</g>
<!-- Node16 -->
<g id="node16" class="node">
<title>Node16</title>
<g id="a_node16"><a xlink:href="st__diag2_8f90.xhtml#ad3935d3ef8da955602b10c37af06aa57" target="_top" xlink:title="LL. ">
<polygon fill="#ffffff" stroke="#000000" points="546.5,-114.5 546.5,-133.5 604.5,-133.5 604.5,-114.5 546.5,-114.5"/>
<text text-anchor="middle" x="575.5" y="-121.5" font-family="Helvetica,sans-Serif" font-size="10.00" fill="#000000">st_diag2</text>
</a>
</g>
</g>
<!-- Node11&#45;&gt;Node16 -->
<g id="edge18" class="edge">
<title>Node11&#45;&gt;Node16</title>
<path fill="none" stroke="#191970" d="M448.1872,-184.6655C466.445,-172.2467 493.5763,-154.9172 519,-143 527.6208,-138.9591 537.3424,-135.3687 546.2602,-132.4269"/>
<polygon fill="#191970" stroke="#191970" points="445.9883,-181.9304 439.7441,-190.4897 449.9631,-187.6925 445.9883,-181.9304"/>
</g>
<!-- Node17 -->
<g id="node17" class="node">
<title>Node17</title>
<g id="a_node17"><a xlink:href="st__diag3_8f90.xhtml#a00e9b3afaa3d890cca6a5f8421814074" target="_top" xlink:title="End of Timestep climate diagnostics control routine End of Timestep climate diagnostics control routi...">
<polygon fill="#ffffff" stroke="#000000" points="546.5,-76.5 546.5,-95.5 604.5,-95.5 604.5,-76.5 546.5,-76.5"/>
<text text-anchor="middle" x="575.5" y="-83.5" font-family="Helvetica,sans-Serif" font-size="10.00" fill="#000000">st_diag3</text>
</a>
</g>
</g>
<!-- Node11&#45;&gt;Node17 -->
<g id="edge22" class="edge">
<title>Node11&#45;&gt;Node17</title>
<path fill="none" stroke="#191970" d="M439.4089,-182.3285C455.7345,-161.1523 485.7546,-125.9158 519,-105 527.3215,-99.7647 537.2475,-95.7984 546.4413,-92.8803"/>
<polygon fill="#191970" stroke="#191970" points="436.5041,-180.3677 433.2812,-190.4604 442.0946,-184.5803 436.5041,-180.3677"/>
</g>
<!-- Node18 -->
<g id="node18" class="node">
<title>Node18</title>
<g id="a_node18"><a xlink:href="st__mean_8f90.xhtml#a56c57d59e0430c6d123a6e4a366df8e6" target="_top" xlink:title="LL Routine: ST_MEAN &#45;!&gt;LL. ">
<polygon fill="#ffffff" stroke="#000000" points="546,-342.5 546,-361.5 605,-361.5 605,-342.5 546,-342.5"/>
<text text-anchor="middle" x="575.5" y="-349.5" font-family="Helvetica,sans-Serif" font-size="10.00" fill="#000000">st_mean</text>
</a>
</g>
</g>
<!-- Node11&#45;&gt;Node18 -->
<g id="edge26" class="edge">
<title>Node11&#45;&gt;Node18</title>
<path fill="none" stroke="#191970" d="M434.8261,-218.9393C448.3901,-247.6705 477.9267,-302.1788 519,-333 526.8636,-338.9008 536.6716,-343.0386 545.898,-345.9093"/>
<polygon fill="#191970" stroke="#191970" points="437.9023,-217.25 430.5598,-209.612 431.5366,-220.1618 437.9023,-217.25"/>
</g>
<!-- Node19 -->
<g id="node19" class="node">
<title>Node19</title>
<g id="a_node19"><a xlink:href="atm__step__ac__assim_8f90.xhtml#a1a53479d77027fb4fee329c374bc6062" target="_top" xlink:title="Contains atm_step code for AC assimilation. ">
<polygon fill="#ffffff" stroke="#000000" points="519,-304.5 519,-323.5 632,-323.5 632,-304.5 519,-304.5"/>
<text text-anchor="middle" x="575.5" y="-311.5" font-family="Helvetica,sans-Serif" font-size="10.00" fill="#000000">atm_step_ac_assim</text>
</a>
</g>
</g>
<!-- Node11&#45;&gt;Node19 -->
<g id="edge30" class="edge">
<title>Node11&#45;&gt;Node19</title>
<path fill="none" stroke="#191970" d="M440.8913,-217.4703C457.8804,-237.2011 487.7924,-269.2539 519,-290 527.6977,-295.782 538.016,-300.6542 547.4396,-304.4659"/>
<polygon fill="#191970" stroke="#191970" points="443.3645,-214.9744 434.2358,-209.597 438.0186,-219.4935 443.3645,-214.9744"/>
</g>
<!-- Node20 -->
<g id="node20" class="node">
<title>Node20</title>
<g id="a_node20"><a xlink:href="atm__step__stash_8f90.xhtml#a8e27538bbd9060910e7d0ddcf329f7e0" target="_top" xlink:title="Contains various chunks of code from atm_step &#45; the purpose of each. ">
<polygon fill="#ffffff" stroke="#000000" points="528.5,-228.5 528.5,-247.5 622.5,-247.5 622.5,-228.5 528.5,-228.5"/>
<text text-anchor="middle" x="575.5" y="-235.5" font-family="Helvetica,sans-Serif" font-size="10.00" fill="#000000">atm_step_stash</text>
</a>
</g>
</g>
<!-- Node11&#45;&gt;Node20 -->
<g id="edge32" class="edge">
<title>Node11&#45;&gt;Node20</title>
<path fill="none" stroke="#191970" d="M457.9527,-208.0215C481.3958,-214.0003 513.4959,-222.1869 538.2284,-228.4945"/>
<polygon fill="#191970" stroke="#191970" points="458.7207,-204.6054 448.1659,-205.5255 456.9908,-211.3883 458.7207,-204.6054"/>
</g>
<!-- Node12&#45;&gt;Node13 -->
<g id="edge13" class="edge">
<title>Node12&#45;&gt;Node13</title>
<path fill="none" stroke="#191970" d="M603.721,-176.2702C629.4439,-189.2773 666.732,-208.1324 689.0512,-219.4183"/>
<polygon fill="#191970" stroke="#191970" points="604.9874,-172.9886 594.484,-171.5995 601.8286,-179.2354 604.9874,-172.9886"/>
</g>
<!-- Node12&#45;&gt;Node14 -->
<g id="edge15" class="edge">
<title>Node12&#45;&gt;Node14</title>
<path fill="none" stroke="#191970" d="M614.6241,-164.9528C631.4223,-166.2205 651.0328,-167.7006 667.9339,-168.9761"/>
<polygon fill="#191970" stroke="#191970" points="614.8128,-161.4571 604.5777,-164.1945 614.2859,-168.4373 614.8128,-161.4571"/>
</g>
<!-- Node12&#45;&gt;Node15 -->
<g id="edge17" class="edge">
<title>Node12&#45;&gt;Node15</title>
<path fill="none" stroke="#191970" d="M614.3831,-149.72C620.3346,-147.6121 626.3681,-145.3416 632,-143 652.5683,-134.4483 675.3141,-122.7642 690.5125,-114.6181"/>
<polygon fill="#191970" stroke="#191970" points="612.8543,-146.5441 604.5298,-153.0981 615.1245,-153.1658 612.8543,-146.5441"/>
</g>
<!-- Node13&#45;&gt;Node6 -->
<g id="edge14" class="edge">
<title>Node13&#45;&gt;Node6</title>
<path fill="none" stroke="#191970" d="M749.2563,-232.8052C789.2566,-236.4945 848.9479,-242 884.427,-245.2724"/>
<polygon fill="#191970" stroke="#191970" points="749.5662,-229.319 739.287,-231.8857 748.9232,-236.2894 749.5662,-229.319"/>
</g>
<!-- Node14&#45;&gt;Node9 -->
<g id="edge16" class="edge">
<title>Node14&#45;&gt;Node9</title>
<path fill="none" stroke="#191970" d="M758.1117,-181.2439C794.4378,-187.9448 842.8085,-196.8676 875.9801,-202.9866"/>
<polygon fill="#191970" stroke="#191970" points="758.6769,-177.7892 748.2079,-179.417 757.407,-184.6731 758.6769,-177.7892"/>
</g>
<!-- Node16&#45;&gt;Node13 -->
<g id="edge19" class="edge">
<title>Node16&#45;&gt;Node13</title>
<path fill="none" stroke="#191970" d="M614.4089,-133.6021C620.6109,-136.0907 626.716,-139.1808 632,-143 653.6124,-158.621 650.2712,-171.0802 668,-191 677.1701,-201.3034 688.6801,-212.0389 696.9961,-219.4603"/>
<polygon fill="#191970" stroke="#191970" points="615.2821,-130.1987 604.6873,-130.1683 612.9507,-136.7991 615.2821,-130.1987"/>
</g>
<!-- Node16&#45;&gt;Node14 -->
<g id="edge20" class="edge">
<title>Node16&#45;&gt;Node14</title>
<path fill="none" stroke="#191970" d="M614.3842,-136.8476C620.2991,-138.868 626.3214,-140.9627 632,-143 649.4136,-149.2474 668.9065,-156.6948 683.7908,-162.4782"/>
<polygon fill="#191970" stroke="#191970" points="615.205,-133.4305 604.6107,-133.5411 612.9616,-140.0613 615.205,-133.4305"/>
</g>
<!-- Node16&#45;&gt;Node15 -->
<g id="edge21" class="edge">
<title>Node16&#45;&gt;Node15</title>
<path fill="none" stroke="#191970" d="M614.6865,-118.3808C636.1282,-115.3061 662.1372,-111.5766 681.244,-108.8367"/>
<polygon fill="#191970" stroke="#191970" points="613.9796,-114.9463 604.5777,-119.8304 614.9733,-121.8754 613.9796,-114.9463"/>
</g>
<!-- Node17&#45;&gt;Node13 -->
<g id="edge23" class="edge">
<title>Node17&#45;&gt;Node13</title>
<path fill="none" stroke="#191970" d="M614.2563,-94.1118C620.7254,-96.776 626.9605,-100.311 632,-105 662.3358,-133.2255 644.4758,-156.8891 668,-191 675.6132,-202.0394 686.8623,-212.3692 695.4937,-219.4639"/>
<polygon fill="#191970" stroke="#191970" points="615.3178,-90.7754 604.7229,-90.7986 613.0198,-97.3875 615.3178,-90.7754"/>
</g>
<!-- Node17&#45;&gt;Node14 -->
<g id="edge24" class="edge">
<title>Node17&#45;&gt;Node14</title>
<path fill="none" stroke="#191970" d="M614.1827,-96.7062C620.3259,-99.0522 626.471,-101.8087 632,-105 659.7262,-121.0031 686.4421,-148.1157 699.5704,-162.4531"/>
<polygon fill="#191970" stroke="#191970" points="615.2143,-93.3591 604.6195,-93.3541 612.8987,-99.965 615.2143,-93.3591"/>
</g>
<!-- Node17&#45;&gt;Node15 -->
<g id="edge25" class="edge">
<title>Node17&#45;&gt;Node15</title>
<path fill="none" stroke="#191970" d="M614.6865,-91.6192C636.1282,-94.6939 662.1372,-98.4234 681.244,-101.1633"/>
<polygon fill="#191970" stroke="#191970" points="614.9733,-88.1246 604.5777,-90.1696 613.9796,-95.0537 614.9733,-88.1246"/>
</g>
<!-- Node18&#45;&gt;Node4 -->
<g id="edge27" class="edge">
<title>Node18&#45;&gt;Node4</title>
<path fill="none" stroke="#191970" d="M615.4225,-352C634.4935,-352 657.0408,-352 675.1089,-352"/>
<polygon fill="#191970" stroke="#191970" points="615.2356,-348.5001 605.2356,-352 615.2356,-355.5001 615.2356,-348.5001"/>
</g>
<!-- Node19&#45;&gt;Node13 -->
<g id="edge31" class="edge">
<title>Node19&#45;&gt;Node13</title>
<path fill="none" stroke="#191970" d="M611.4603,-300.4828C618.4467,-297.3713 625.5862,-293.836 632,-290 657.5552,-274.7157 683.8939,-251.6153 697.8599,-238.6701"/>
<polygon fill="#191970" stroke="#191970" points="609.9484,-297.3223 602.111,-304.4515 612.6836,-303.7658 609.9484,-297.3223"/>
</g>
<!-- Node20&#45;&gt;Node13 -->
<g id="edge33" class="edge">
<title>Node20&#45;&gt;Node13</title>
<path fill="none" stroke="#191970" d="M632.8915,-234.1017C647.9757,-233.0771 663.6838,-232.0102 676.8117,-231.1185"/>
<polygon fill="#191970" stroke="#191970" points="632.3274,-230.6319 622.5876,-234.8016 632.8019,-237.6158 632.3274,-230.6319"/>
</g>
<!-- Node20&#45;&gt;Node14 -->
<g id="edge34" class="edge">
<title>Node20&#45;&gt;Node14</title>
<path fill="none" stroke="#191970" d="M608.8172,-224.5223C616.4997,-221.2288 624.5896,-217.6096 632,-214 653.1425,-203.7015 676.7393,-190.3581 691.9481,-181.505"/>
<polygon fill="#191970" stroke="#191970" points="607.2432,-221.3874 599.3858,-228.4947 609.9604,-227.8386 607.2432,-221.3874"/>
</g>
<!-- Node22 -->
<g id="node22" class="node">
<title>Node22</title>
<g id="a_node22"><a xlink:href="read__write-fieldop1_8f90.xhtml#a723e5c513b88abc5c34318df643b9cb6" target="_top" xlink:title="This file belongs in section: Small execs. ">
<polygon fill="#ffffff" stroke="#000000" points="370,-38.5 370,-57.5 483,-57.5 483,-38.5 370,-38.5"/>
<text text-anchor="middle" x="426.5" y="-45.5" font-family="Helvetica,sans-Serif" font-size="10.00" fill="#000000">read_write_fieldop1</text>
</a>
</g>
</g>
<!-- Node21&#45;&gt;Node22 -->
<g id="edge37" class="edge">
<title>Node21&#45;&gt;Node22</title>
<path fill="none" stroke="#191970" d="M332.2786,-108.9432C355.9042,-93.662 391.7619,-70.4689 411.7394,-57.5473"/>
<polygon fill="#191970" stroke="#191970" points="330.3773,-106.0046 323.8815,-114.3745 334.179,-111.8823 330.3773,-106.0046"/>
</g>
<!-- Node23 -->
<g id="node23" class="node">
<title>Node23</title>
<g id="a_node23"><a xlink:href="fieldop__main_8f90.xhtml#aa97ac2f988f899c6286de711c370aef9" target="_top" xlink:title="Subroutine interface: ">
<polygon fill="#ffffff" stroke="#000000" points="535.5,-.5 535.5,-19.5 615.5,-19.5 615.5,-.5 535.5,-.5"/>
<text text-anchor="middle" x="575.5" y="-7.5" font-family="Helvetica,sans-Serif" font-size="10.00" fill="#000000">fieldop_main</text>
</a>
</g>
</g>
<!-- Node22&#45;&gt;Node23 -->
<g id="edge38" class="edge">
<title>Node22&#45;&gt;Node23</title>
<path fill="none" stroke="#191970" d="M473.9922,-35.8879C494.7436,-30.5956 518.7282,-24.4787 538.1714,-19.5201"/>
<polygon fill="#191970" stroke="#191970" points="472.9239,-32.5482 464.099,-38.411 474.6538,-39.3311 472.9239,-32.5482"/>
</g>
<!-- Node24 -->
<g id="node24" class="node">
<title>Node24</title>
<g id="a_node24"><a xlink:href="fieldop_8f90.xhtml#a23485bba0dce2ebf2edfa827cd3f6b2b" target="_top" xlink:title="fieldop">
<polygon fill="#ffffff" stroke="#000000" points="683,-.5 683,-19.5 733,-19.5 733,-.5 683,-.5"/>
<text text-anchor="middle" x="708" y="-7.5" font-family="Helvetica,sans-Serif" font-size="10.00" fill="#000000">fieldop</text>
</a>
</g>
</g>
<!-- Node23&#45;&gt;Node24 -->
<g id="edge39" class="edge">
<title>Node23&#45;&gt;Node24</title>
<path fill="none" stroke="#191970" d="M625.8408,-10C645.2335,-10 666.5592,-10 682.6229,-10"/>
<polygon fill="#191970" stroke="#191970" points="625.614,-6.5001 615.6139,-10 625.6139,-13.5001 625.614,-6.5001"/>
</g>
</g>
</svg>
