<?xml version="1.0" encoding="UTF-8" standalone="no"?>
<!DOCTYPE svg PUBLIC "-//W3C//DTD SVG 1.1//EN"
 "http://www.w3.org/Graphics/SVG/1.1/DTD/svg11.dtd">
<!-- Generated by graphviz version 2.40.1 (20161225.0304)
 -->
<!-- Title: stfieldm Pages: 1 -->
<svg width="1095pt" height="298pt"
 viewBox="0.00 0.00 1095.00 298.49" xmlns="http://www.w3.org/2000/svg" xmlns:xlink="http://www.w3.org/1999/xlink">
<g id="graph0" class="graph" transform="scale(1 1) rotate(0) translate(4 294.4886)">
<title>stfieldm</title>
<polygon fill="#ffffff" stroke="transparent" points="-4,4 -4,-294.4886 1091,-294.4886 1091,4 -4,4"/>
<!-- Node7 -->
<g id="node1" class="node">
<title>Node7</title>
<polygon fill="#bfbfbf" stroke="#000000" points="0,-118.9886 0,-137.9886 56,-137.9886 56,-118.9886 0,-118.9886"/>
<text text-anchor="middle" x="28" y="-125.9886" font-family="Helvetica,sans-Serif" font-size="10.00" fill="#000000">stfieldm</text>
</g>
<!-- Node8 -->
<g id="node2" class="node">
<title>Node8</title>
<g id="a_node2"><a xlink:href="spatial_8f90.xhtml#a1a8ed3040f333fb8eaffb10ae7545f55" target="_top" xlink:title="LL Routine: SPATIAL &#45;!&gt;LL. ">
<polygon fill="#ffffff" stroke="#000000" points="92,-118.9886 92,-137.9886 142,-137.9886 142,-118.9886 92,-118.9886"/>
<text text-anchor="middle" x="117" y="-125.9886" font-family="Helvetica,sans-Serif" font-size="10.00" fill="#000000">spatial</text>
</a>
</g>
</g>
<!-- Node7&#45;&gt;Node8 -->
<g id="edge1" class="edge">
<title>Node7&#45;&gt;Node8</title>
<path fill="none" stroke="#191970" d="M66.3817,-128.4886C74.9593,-128.4886 83.846,-128.4886 91.7342,-128.4886"/>
<polygon fill="#191970" stroke="#191970" points="66.1602,-124.9887 56.1602,-128.4886 66.1601,-131.9887 66.1602,-124.9887"/>
</g>
<!-- Node9 -->
<g id="node3" class="node">
<title>Node9</title>
<g id="a_node3"><a xlink:href="multi__spatial_8f90.xhtml#ade4d2e0edcbb3c9113bf99c7f1f8341d" target="_top" xlink:title="Routine: MULTI_SPATIAL &#45;!&gt; ">
<polygon fill="#ffffff" stroke="#000000" points="178,-137.9886 178,-156.9886 258,-156.9886 258,-137.9886 178,-137.9886"/>
<text text-anchor="middle" x="218" y="-144.9886" font-family="Helvetica,sans-Serif" font-size="10.00" fill="#000000">multi_spatial</text>
</a>
</g>
</g>
<!-- Node8&#45;&gt;Node9 -->
<g id="edge2" class="edge">
<title>Node8&#45;&gt;Node9</title>
<path fill="none" stroke="#191970" d="M152.2704,-135.1236C160.5115,-136.6739 169.3495,-138.3365 177.7874,-139.9239"/>
<polygon fill="#191970" stroke="#191970" points="152.7007,-131.6433 142.226,-133.2341 151.4066,-138.5226 152.7007,-131.6433"/>
</g>
<!-- Node10 -->
<g id="node4" class="node">
<title>Node10</title>
<g id="a_node4"><a xlink:href="stwork_8f90.xhtml#a60176015435dd67d80b42122c78e024e" target="_top" xlink:title="Subroutine STWORK !&gt; ">
<polygon fill="#ffffff" stroke="#000000" points="294,-118.9886 294,-137.9886 344,-137.9886 344,-118.9886 294,-118.9886"/>
<text text-anchor="middle" x="319" y="-125.9886" font-family="Helvetica,sans-Serif" font-size="10.00" fill="#000000">stwork</text>
</a>
</g>
</g>
<!-- Node8&#45;&gt;Node10 -->
<g id="edge35" class="edge">
<title>Node8&#45;&gt;Node10</title>
<path fill="none" stroke="#191970" d="M152.3989,-128.4886C192.8967,-128.4886 258.1959,-128.4886 293.8258,-128.4886"/>
<polygon fill="#191970" stroke="#191970" points="152.175,-124.9887 142.175,-128.4886 152.175,-131.9887 152.175,-124.9887"/>
</g>
<!-- Node9&#45;&gt;Node10 -->
<g id="edge3" class="edge">
<title>Node9&#45;&gt;Node10</title>
<path fill="none" stroke="#191970" d="M268.1685,-138.051C277.0475,-136.3807 285.9402,-134.7078 293.7486,-133.2389"/>
<polygon fill="#191970" stroke="#191970" points="267.3886,-134.6362 258.2081,-139.9247 268.6828,-141.5155 267.3886,-134.6362"/>
</g>
<!-- Node11 -->
<g id="node5" class="node">
<title>Node11</title>
<g id="a_node5"><a xlink:href="stash_8f90.xhtml#aeb6381a2ce8a30249b8dbaff0df2ebb5" target="_top" xlink:title="Subroutine STASH &#45;!&gt; ">
<polygon fill="#ffffff" stroke="#000000" points="380,-118.9886 380,-137.9886 423,-137.9886 423,-118.9886 380,-118.9886"/>
<text text-anchor="middle" x="401.5" y="-125.9886" font-family="Helvetica,sans-Serif" font-size="10.00" fill="#000000">stash</text>
</a>
</g>
</g>
<!-- Node10&#45;&gt;Node11 -->
<g id="edge4" class="edge">
<title>Node10&#45;&gt;Node11</title>
<path fill="none" stroke="#191970" d="M354.4426,-128.4886C363.0645,-128.4886 372.0319,-128.4886 379.7971,-128.4886"/>
<polygon fill="#191970" stroke="#191970" points="354.201,-124.9887 344.201,-128.4886 354.201,-131.9887 354.201,-124.9887"/>
</g>
<!-- Node12 -->
<g id="node6" class="node">
<title>Node12</title>
<g id="a_node6"><a xlink:href="st__diag1_8f90.xhtml#a448077cde050b9a7c4cad654935688ac" target="_top" xlink:title="LL Subroutine ST_DIAG1 !&gt;LL. ">
<polygon fill="#ffffff" stroke="#000000" points="486.5,-118.9886 486.5,-137.9886 544.5,-137.9886 544.5,-118.9886 486.5,-118.9886"/>
<text text-anchor="middle" x="515.5" y="-125.9886" font-family="Helvetica,sans-Serif" font-size="10.00" fill="#000000">st_diag1</text>
</a>
</g>
</g>
<!-- Node11&#45;&gt;Node12 -->
<g id="edge5" class="edge">
<title>Node11&#45;&gt;Node12</title>
<path fill="none" stroke="#191970" d="M433.4805,-128.4886C449.9916,-128.4886 469.9971,-128.4886 486.1167,-128.4886"/>
<polygon fill="#191970" stroke="#191970" points="433.2109,-124.9887 423.2109,-128.4886 433.2108,-131.9887 433.2109,-124.9887"/>
</g>
<!-- Node13 -->
<g id="node7" class="node">
<title>Node13</title>
<g id="a_node7"><a xlink:href="atm__step_8f90.xhtml#ac0ee2467a1a9959b7065fdb8fd27bce4" target="_top" xlink:title="Perform a 1&#45;timestep integration of the Atmosphere Model. ">
<polygon fill="#ffffff" stroke="#000000" points="617,-156.9886 617,-175.9886 679,-175.9886 679,-156.9886 617,-156.9886"/>
<text text-anchor="middle" x="648" y="-163.9886" font-family="Helvetica,sans-Serif" font-size="10.00" fill="#000000">atm_step</text>
</a>
</g>
</g>
<!-- Node11&#45;&gt;Node13 -->
<g id="edge27" class="edge">
<title>Node11&#45;&gt;Node13</title>
<path fill="none" stroke="#191970" d="M413.3667,-146.23C423.6258,-159.8385 439.8075,-177.5879 459,-185.4886 514.501,-208.336 586.6132,-189.0941 623.6656,-176.0607"/>
<polygon fill="#191970" stroke="#191970" points="416.1694,-144.1321 407.5081,-138.0303 410.4738,-148.2016 416.1694,-144.1321"/>
</g>
<!-- Node17 -->
<g id="node11" class="node">
<title>Node17</title>
<g id="a_node11"><a xlink:href="atm__step__4_a_8f90.xhtml#a2319aa4963e90c64cd78bdcd5f481095" target="_top" xlink:title="Perform a 1&#45;timestep integration of the Atmosphere Model. ">
<polygon fill="#ffffff" stroke="#000000" points="608,-80.9886 608,-99.9886 688,-99.9886 688,-80.9886 608,-80.9886"/>
<text text-anchor="middle" x="648" y="-87.9886" font-family="Helvetica,sans-Serif" font-size="10.00" fill="#000000">atm_step_4a</text>
</a>
</g>
</g>
<!-- Node11&#45;&gt;Node17 -->
<g id="edge28" class="edge">
<title>Node11&#45;&gt;Node17</title>
<path fill="none" stroke="#191970" d="M406.8185,-109.3494C414.2865,-86.5949 430.2928,-49.6693 459,-33.4886 502.7511,-8.8286 525.8646,-13.6443 572,-33.4886 593.3713,-42.6811 589.1734,-57.8214 608,-71.4886 612.8528,-75.0115 618.4618,-78.1515 623.9157,-80.8148"/>
<polygon fill="#191970" stroke="#191970" points="403.4583,-108.3695 403.8963,-118.9553 410.1553,-110.4068 403.4583,-108.3695"/>
</g>
<!-- Node19 -->
<g id="node13" class="node">
<title>Node19</title>
<g id="a_node13"><a xlink:href="initdiag_8f90.xhtml#a95a853661b4e10339418e4a8c29b8c9c" target="_top" xlink:title="Calculate diagnostic quantities from the initial atmosphere dump Calculate diagnostic quantities from...">
<polygon fill="#ffffff" stroke="#000000" points="621.5,-42.9886 621.5,-61.9886 674.5,-61.9886 674.5,-42.9886 621.5,-42.9886"/>
<text text-anchor="middle" x="648" y="-49.9886" font-family="Helvetica,sans-Serif" font-size="10.00" fill="#000000">initdiag</text>
</a>
</g>
</g>
<!-- Node11&#45;&gt;Node19 -->
<g id="edge34" class="edge">
<title>Node11&#45;&gt;Node19</title>
<path fill="none" stroke="#191970" d="M404.8076,-108.9736C410.5365,-82.0385 425.1218,-34.4265 459,-13.4886 516.2851,21.9155 600.1276,-22.3182 633.5095,-42.9591"/>
<polygon fill="#191970" stroke="#191970" points="401.3684,-108.3244 402.9168,-118.8055 408.2424,-109.6465 401.3684,-108.3244"/>
</g>
<!-- Node20 -->
<g id="node14" class="node">
<title>Node20</title>
<g id="a_node14"><a xlink:href="st__diag2_8f90.xhtml#ad3935d3ef8da955602b10c37af06aa57" target="_top" xlink:title="LL. ">
<polygon fill="#ffffff" stroke="#000000" points="486.5,-80.9886 486.5,-99.9886 544.5,-99.9886 544.5,-80.9886 486.5,-80.9886"/>
<text text-anchor="middle" x="515.5" y="-87.9886" font-family="Helvetica,sans-Serif" font-size="10.00" fill="#000000">st_diag2</text>
</a>
</g>
</g>
<!-- Node11&#45;&gt;Node20 -->
<g id="edge14" class="edge">
<title>Node11&#45;&gt;Node20</title>
<path fill="none" stroke="#191970" d="M433.1596,-117.9354C450.0228,-112.3143 470.6014,-105.4548 486.9674,-99.9995"/>
<polygon fill="#191970" stroke="#191970" points="431.5909,-114.7689 423.2109,-121.2517 433.8045,-121.4097 431.5909,-114.7689"/>
</g>
<!-- Node21 -->
<g id="node15" class="node">
<title>Node21</title>
<g id="a_node15"><a xlink:href="st__diag3_8f90.xhtml#a00e9b3afaa3d890cca6a5f8421814074" target="_top" xlink:title="End of Timestep climate diagnostics control routine End of Timestep climate diagnostics control routi...">
<polygon fill="#ffffff" stroke="#000000" points="486.5,-42.9886 486.5,-61.9886 544.5,-61.9886 544.5,-42.9886 486.5,-42.9886"/>
<text text-anchor="middle" x="515.5" y="-49.9886" font-family="Helvetica,sans-Serif" font-size="10.00" fill="#000000">st_diag3</text>
</a>
</g>
</g>
<!-- Node11&#45;&gt;Node21 -->
<g id="edge18" class="edge">
<title>Node11&#45;&gt;Node21</title>
<path fill="none" stroke="#191970" d="M415.5877,-110.7143C426.318,-98.215 442.0868,-81.9215 459,-71.4886 467.3675,-66.3271 477.3054,-62.3799 486.4958,-59.4566"/>
<polygon fill="#191970" stroke="#191970" points="412.7018,-108.7113 409.0119,-118.6428 418.0898,-113.18 412.7018,-108.7113"/>
</g>
<!-- Node22 -->
<g id="node16" class="node">
<title>Node22</title>
<g id="a_node16"><a xlink:href="st__mean_8f90.xhtml#a56c57d59e0430c6d123a6e4a366df8e6" target="_top" xlink:title="LL Routine: ST_MEAN &#45;!&gt;LL. ">
<polygon fill="#ffffff" stroke="#000000" points="486,-270.9886 486,-289.9886 545,-289.9886 545,-270.9886 486,-270.9886"/>
<text text-anchor="middle" x="515.5" y="-277.9886" font-family="Helvetica,sans-Serif" font-size="10.00" fill="#000000">st_mean</text>
</a>
</g>
</g>
<!-- Node11&#45;&gt;Node22 -->
<g id="edge22" class="edge">
<title>Node11&#45;&gt;Node22</title>
<path fill="none" stroke="#191970" d="M404.7867,-148.1212C410.6228,-176.9573 425.4902,-230.6712 459,-261.4886 466.3888,-268.2837 476.29,-272.6573 485.7388,-275.4687"/>
<polygon fill="#191970" stroke="#191970" points="408.186,-147.2567 402.9175,-138.0647 401.3039,-148.5359 408.186,-147.2567"/>
</g>
<!-- Node25 -->
<g id="node19" class="node">
<title>Node25</title>
<g id="a_node19"><a xlink:href="atm__step__ac__assim_8f90.xhtml#a1a53479d77027fb4fee329c374bc6062" target="_top" xlink:title="Contains atm_step code for AC assimilation. ">
<polygon fill="#ffffff" stroke="#000000" points="459,-232.9886 459,-251.9886 572,-251.9886 572,-232.9886 459,-232.9886"/>
<text text-anchor="middle" x="515.5" y="-239.9886" font-family="Helvetica,sans-Serif" font-size="10.00" fill="#000000">atm_step_ac_assim</text>
</a>
</g>
</g>
<!-- Node11&#45;&gt;Node25 -->
<g id="edge29" class="edge">
<title>Node11&#45;&gt;Node25</title>
<path fill="none" stroke="#191970" d="M409.5297,-147.5806C418.8176,-167.631 435.852,-198.9129 459,-218.4886 466.1611,-224.5445 475.0752,-229.2729 483.6909,-232.8709"/>
<polygon fill="#191970" stroke="#191970" points="412.6413,-145.9632 405.3876,-138.2409 406.2423,-148.8012 412.6413,-145.9632"/>
</g>
<!-- Node26 -->
<g id="node20" class="node">
<title>Node26</title>
<g id="a_node20"><a xlink:href="atm__step__stash_8f90.xhtml#a8e27538bbd9060910e7d0ddcf329f7e0" target="_top" xlink:title="Contains various chunks of code from atm_step &#45; the purpose of each. ">
<polygon fill="#ffffff" stroke="#000000" points="468.5,-156.9886 468.5,-175.9886 562.5,-175.9886 562.5,-156.9886 468.5,-156.9886"/>
<text text-anchor="middle" x="515.5" y="-163.9886" font-family="Helvetica,sans-Serif" font-size="10.00" fill="#000000">atm_step_stash</text>
</a>
</g>
</g>
<!-- Node11&#45;&gt;Node26 -->
<g id="edge31" class="edge">
<title>Node11&#45;&gt;Node26</title>
<path fill="none" stroke="#191970" d="M433.1596,-139.0418C450.0228,-144.6629 470.6014,-151.5224 486.9674,-156.9777"/>
<polygon fill="#191970" stroke="#191970" points="433.8045,-135.5675 423.2109,-135.7256 431.5909,-142.2083 433.8045,-135.5675"/>
</g>
<!-- Node12&#45;&gt;Node13 -->
<g id="edge6" class="edge">
<title>Node12&#45;&gt;Node13</title>
<path fill="none" stroke="#191970" d="M554.2582,-139.6042C574.1225,-145.3011 597.9953,-152.1476 616.678,-157.5057"/>
<polygon fill="#191970" stroke="#191970" points="555.1551,-136.2204 544.5777,-136.8279 553.2253,-142.9491 555.1551,-136.2204"/>
</g>
<!-- Node12&#45;&gt;Node17 -->
<g id="edge10" class="edge">
<title>Node12&#45;&gt;Node17</title>
<path fill="none" stroke="#191970" d="M554.2349,-117.3797C573.4405,-111.8717 596.3977,-105.2878 614.7891,-100.0132"/>
<polygon fill="#191970" stroke="#191970" points="553.2253,-114.0281 544.5777,-120.1493 555.1551,-120.7569 553.2253,-114.0281"/>
</g>
<!-- Node12&#45;&gt;Node19 -->
<g id="edge13" class="edge">
<title>Node12&#45;&gt;Node19</title>
<path fill="none" stroke="#191970" d="M554.245,-118.2825C560.4228,-115.8698 566.5627,-112.9616 572,-109.4886 591.6063,-96.9655 589.1734,-85.1559 608,-71.4886 612.8528,-67.9657 618.4618,-64.8257 623.9157,-62.1624"/>
<polygon fill="#191970" stroke="#191970" points="552.8729,-115.0549 544.6015,-121.6757 555.1963,-121.658 552.8729,-115.0549"/>
</g>
<!-- Node14 -->
<g id="node8" class="node">
<title>Node14</title>
<g id="a_node8"><a xlink:href="u__model_8f90.xhtml#ada0cd2ce4699433bf0f9adbd882c8eec" target="_top" xlink:title="Subroutine: U_MODEL &#45;!&gt; ">
<polygon fill="#ffffff" stroke="#000000" points="824.5,-137.9886 824.5,-156.9886 883.5,-156.9886 883.5,-137.9886 824.5,-137.9886"/>
<text text-anchor="middle" x="854" y="-144.9886" font-family="Helvetica,sans-Serif" font-size="10.00" fill="#000000">u_model</text>
</a>
</g>
</g>
<!-- Node13&#45;&gt;Node14 -->
<g id="edge7" class="edge">
<title>Node13&#45;&gt;Node14</title>
<path fill="none" stroke="#191970" d="M689.2563,-162.6834C729.2566,-158.9941 788.9479,-153.4886 824.427,-150.2162"/>
<polygon fill="#191970" stroke="#191970" points="688.9232,-159.1992 679.287,-163.6029 689.5662,-166.1696 688.9232,-159.1992"/>
</g>
<!-- Node15 -->
<g id="node9" class="node">
<title>Node15</title>
<g id="a_node9"><a xlink:href="um__shell_8f90.xhtml#a8c9bd25362824a5c301376ecb5ed5c27" target="_top" xlink:title="Subroutine: UM_SHELL !&gt; ">
<polygon fill="#ffffff" stroke="#000000" points="928,-118.9886 928,-137.9886 989,-137.9886 989,-118.9886 928,-118.9886"/>
<text text-anchor="middle" x="958.5" y="-125.9886" font-family="Helvetica,sans-Serif" font-size="10.00" fill="#000000">um_shell</text>
</a>
</g>
</g>
<!-- Node14&#45;&gt;Node15 -->
<g id="edge8" class="edge">
<title>Node14&#45;&gt;Node15</title>
<path fill="none" stroke="#191970" d="M893.701,-140.2702C904.951,-138.2248 917.0261,-136.0293 927.6677,-134.0945"/>
<polygon fill="#191970" stroke="#191970" points="892.8786,-136.8623 883.666,-142.0948 894.1308,-143.7494 892.8786,-136.8623"/>
</g>
<!-- Node16 -->
<g id="node10" class="node">
<title>Node16</title>
<g id="a_node10"><a xlink:href="um__main_8f90.xhtml#a8f2d13215621443a5313261c282f098b" target="_top" xlink:title="Code Owner: See Unified Model Code Owner&#39;s HTML page. ">
<polygon fill="#ffffff" stroke="#000000" points="1025,-118.9886 1025,-137.9886 1087,-137.9886 1087,-118.9886 1025,-118.9886"/>
<text text-anchor="middle" x="1056" y="-125.9886" font-family="Helvetica,sans-Serif" font-size="10.00" fill="#000000">um_main</text>
</a>
</g>
</g>
<!-- Node15&#45;&gt;Node16 -->
<g id="edge9" class="edge">
<title>Node15&#45;&gt;Node16</title>
<path fill="none" stroke="#191970" d="M999.2756,-128.4886C1007.8294,-128.4886 1016.72,-128.4886 1024.8551,-128.4886"/>
<polygon fill="#191970" stroke="#191970" points="999.0821,-124.9887 989.0821,-128.4886 999.0821,-131.9887 999.0821,-124.9887"/>
</g>
<!-- Node18 -->
<g id="node12" class="node">
<title>Node18</title>
<g id="a_node12"><a xlink:href="u__model__4_a_8f90.xhtml#afa05064dab5eba198b461d0928767c7e" target="_top" xlink:title="LL Subroutine: U_MODEL_4A (ENDGAME VERSION) !&gt;LL. ">
<polygon fill="#ffffff" stroke="#000000" points="816,-99.9886 816,-118.9886 892,-118.9886 892,-99.9886 816,-99.9886"/>
<text text-anchor="middle" x="854" y="-106.9886" font-family="Helvetica,sans-Serif" font-size="10.00" fill="#000000">u_model_4a</text>
</a>
</g>
</g>
<!-- Node17&#45;&gt;Node18 -->
<g id="edge11" class="edge">
<title>Node17&#45;&gt;Node18</title>
<path fill="none" stroke="#191970" d="M698.5781,-95.1536C734.851,-98.4991 782.9503,-102.9355 815.9801,-105.9819"/>
<polygon fill="#191970" stroke="#191970" points="698.4871,-91.6304 688.2079,-94.1971 697.8442,-98.6008 698.4871,-91.6304"/>
</g>
<!-- Node18&#45;&gt;Node15 -->
<g id="edge12" class="edge">
<title>Node18&#45;&gt;Node15</title>
<path fill="none" stroke="#191970" d="M901.8728,-118.1927C910.7087,-119.7993 919.7128,-121.4364 927.8647,-122.9186"/>
<polygon fill="#191970" stroke="#191970" points="902.4873,-114.7472 892.0225,-116.4018 901.2351,-121.6343 902.4873,-114.7472"/>
</g>
<!-- Node20&#45;&gt;Node13 -->
<g id="edge15" class="edge">
<title>Node20&#45;&gt;Node13</title>
<path fill="none" stroke="#191970" d="M554.1691,-101.6502C560.273,-103.9325 566.4093,-106.5499 572,-109.4886 597.4023,-122.8412 623.3835,-144.3752 637.4214,-156.8004"/>
<polygon fill="#191970" stroke="#191970" points="555.2817,-98.3315 544.6869,-98.3416 552.9755,-104.9408 555.2817,-98.3315"/>
</g>
<!-- Node20&#45;&gt;Node17 -->
<g id="edge16" class="edge">
<title>Node20&#45;&gt;Node17</title>
<path fill="none" stroke="#191970" d="M554.6241,-90.4886C571.4223,-90.4886 591.0328,-90.4886 607.9339,-90.4886"/>
<polygon fill="#191970" stroke="#191970" points="554.5777,-86.9887 544.5777,-90.4886 554.5777,-93.9887 554.5777,-86.9887"/>
</g>
<!-- Node20&#45;&gt;Node19 -->
<g id="edge17" class="edge">
<title>Node20&#45;&gt;Node19</title>
<path fill="none" stroke="#191970" d="M554.3944,-79.334C575.8916,-73.1688 602.0503,-65.6666 621.244,-60.162"/>
<polygon fill="#191970" stroke="#191970" points="553.2253,-76.0281 544.5777,-82.1493 555.1551,-82.7569 553.2253,-76.0281"/>
</g>
<!-- Node21&#45;&gt;Node13 -->
<g id="edge19" class="edge">
<title>Node21&#45;&gt;Node13</title>
<path fill="none" stroke="#191970" d="M554.3083,-62.2323C560.5219,-64.7045 566.657,-67.7524 572,-71.4886 589.3959,-83.6529 626.3265,-135.2801 641.3922,-156.9022"/>
<polygon fill="#191970" stroke="#191970" points="555.1767,-58.8274 544.5819,-58.8051 552.8504,-65.4295 555.1767,-58.8274"/>
</g>
<!-- Node21&#45;&gt;Node17 -->
<g id="edge20" class="edge">
<title>Node21&#45;&gt;Node17</title>
<path fill="none" stroke="#191970" d="M554.2349,-63.5975C573.4405,-69.1055 596.3977,-75.6894 614.7891,-80.964"/>
<polygon fill="#191970" stroke="#191970" points="555.1551,-60.2204 544.5777,-60.8279 553.2253,-66.9491 555.1551,-60.2204"/>
</g>
<!-- Node21&#45;&gt;Node19 -->
<g id="edge21" class="edge">
<title>Node21&#45;&gt;Node19</title>
<path fill="none" stroke="#191970" d="M554.6865,-52.4886C576.1282,-52.4886 602.1372,-52.4886 621.244,-52.4886"/>
<polygon fill="#191970" stroke="#191970" points="554.5777,-48.9887 544.5777,-52.4886 554.5777,-55.9887 554.5777,-48.9887"/>
</g>
<!-- Node23 -->
<g id="node17" class="node">
<title>Node23</title>
<g id="a_node17"><a xlink:href="meandiag_8f90.xhtml#a72a0b96fb4670010dc65680c7e8ac636" target="_top" xlink:title="LL Routine: MEANDIAG !&gt;LL. ">
<polygon fill="#ffffff" stroke="#000000" points="615.5,-232.9886 615.5,-251.9886 680.5,-251.9886 680.5,-232.9886 615.5,-232.9886"/>
<text text-anchor="middle" x="648" y="-239.9886" font-family="Helvetica,sans-Serif" font-size="10.00" fill="#000000">meandiag</text>
</a>
</g>
</g>
<!-- Node22&#45;&gt;Node23 -->
<g id="edge23" class="edge">
<title>Node22&#45;&gt;Node23</title>
<path fill="none" stroke="#191970" d="M554.8936,-269.1908C574.0756,-263.6896 596.8735,-257.1513 615.1089,-251.9215"/>
<polygon fill="#191970" stroke="#191970" points="553.8832,-265.8394 545.2356,-271.9607 555.813,-272.5682 553.8832,-265.8394"/>
</g>
<!-- Node24 -->
<g id="node18" class="node">
<title>Node24</title>
<g id="a_node18"><a xlink:href="meanctl_8f90.xhtml#a5bbbf6327297fa87e7a0d9b511eb2b00" target="_top" xlink:title="Subroutine: MEANCTL&#45;!&gt; ">
<polygon fill="#ffffff" stroke="#000000" points="724,-118.9886 724,-137.9886 780,-137.9886 780,-118.9886 724,-118.9886"/>
<text text-anchor="middle" x="752" y="-125.9886" font-family="Helvetica,sans-Serif" font-size="10.00" fill="#000000">meanctl</text>
</a>
</g>
</g>
<!-- Node23&#45;&gt;Node24 -->
<g id="edge24" class="edge">
<title>Node23&#45;&gt;Node24</title>
<path fill="none" stroke="#191970" d="M663.6431,-225.3414C685.7824,-201.0733 725.5212,-157.5134 743.1555,-138.1836"/>
<polygon fill="#191970" stroke="#191970" points="661.0209,-223.0225 656.867,-232.769 666.1923,-227.7402 661.0209,-223.0225"/>
</g>
<!-- Node24&#45;&gt;Node14 -->
<g id="edge25" class="edge">
<title>Node24&#45;&gt;Node14</title>
<path fill="none" stroke="#191970" d="M790.1485,-135.5947C801.392,-137.6891 813.527,-139.9495 824.1674,-141.9316"/>
<polygon fill="#191970" stroke="#191970" points="790.6138,-132.1212 780.142,-133.7307 789.3319,-139.0029 790.6138,-132.1212"/>
</g>
<!-- Node24&#45;&gt;Node18 -->
<g id="edge26" class="edge">
<title>Node24&#45;&gt;Node18</title>
<path fill="none" stroke="#191970" d="M790.0329,-121.4041C798.3986,-119.8457 807.2629,-118.1945 815.6414,-116.6338"/>
<polygon fill="#191970" stroke="#191970" points="789.3319,-117.9743 780.142,-123.2465 790.6138,-124.856 789.3319,-117.9743"/>
</g>
<!-- Node25&#45;&gt;Node13 -->
<g id="edge30" class="edge">
<title>Node25&#45;&gt;Node13</title>
<path fill="none" stroke="#191970" d="M550.6188,-228.851C557.8167,-225.7019 565.2517,-222.1828 572,-218.4886 595.5595,-205.5914 620.9277,-187.2273 635.5843,-176.1259"/>
<polygon fill="#191970" stroke="#191970" points="548.8878,-225.7827 541.0373,-232.8975 551.6111,-232.2312 548.8878,-225.7827"/>
</g>
<!-- Node26&#45;&gt;Node13 -->
<g id="edge32" class="edge">
<title>Node26&#45;&gt;Node13</title>
<path fill="none" stroke="#191970" d="M572.8915,-166.4886C587.9757,-166.4886 603.6838,-166.4886 616.8117,-166.4886"/>
<polygon fill="#191970" stroke="#191970" points="572.5877,-162.9887 562.5876,-166.4886 572.5876,-169.9887 572.5877,-162.9887"/>
</g>
<!-- Node26&#45;&gt;Node17 -->
<g id="edge33" class="edge">
<title>Node26&#45;&gt;Node17</title>
<path fill="none" stroke="#191970" d="M559.2928,-153.3308C563.6676,-151.5533 567.9752,-149.6042 572,-147.4886 597.4023,-134.136 623.3835,-112.602 637.4214,-100.1768"/>
<polygon fill="#191970" stroke="#191970" points="557.8175,-150.1463 549.6922,-156.9456 560.2842,-156.6973 557.8175,-150.1463"/>
</g>
</g>
</svg>
