<?xml version="1.0" encoding="UTF-8" standalone="no"?>
<!DOCTYPE svg PUBLIC "-//W3C//DTD SVG 1.1//EN"
 "http://www.w3.org/Graphics/SVG/1.1/DTD/svg11.dtd">
<!-- Generated by graphviz version 2.40.1 (20161225.0304)
 -->
<!-- Title: stmerm Pages: 1 -->
<svg width="780pt" height="116pt"
 viewBox="0.00 0.00 780.00 115.50" xmlns="http://www.w3.org/2000/svg" xmlns:xlink="http://www.w3.org/1999/xlink">
<g id="graph0" class="graph" transform="scale(1 1) rotate(0) translate(4 111.5)">
<title>stmerm</title>
<polygon fill="#ffffff" stroke="transparent" points="-4,4 -4,-111.5 776,-111.5 776,4 -4,4"/>
<!-- Node0 -->
<g id="node1" class="node">
<title>Node0</title>
<polygon fill="#bfbfbf" stroke="#000000" points="0,-60.5 0,-79.5 55,-79.5 55,-60.5 0,-60.5"/>
<text text-anchor="middle" x="27.5" y="-67.5" font-family="Helvetica,sans-Serif" font-size="10.00" fill="#000000">stmerm</text>
</g>
<!-- Node1 -->
<g id="node2" class="node">
<title>Node1</title>
<g id="a_node2"><a xlink:href="namespaceglobal__2d__sums__mod.xhtml#ac3fe3c2679168085c4635a17e5f82215" target="_top" xlink:title="global_2d_sums_mod\l::global_2d_sums">
<polygon fill="#ffffff" stroke="#000000" points="104.5,-77 104.5,-107 226.5,-107 226.5,-77 104.5,-77"/>
<text text-anchor="start" x="112.5" y="-95" font-family="Helvetica,sans-Serif" font-size="10.00" fill="#000000">global_2d_sums_mod</text>
<text text-anchor="middle" x="165.5" y="-84" font-family="Helvetica,sans-Serif" font-size="10.00" fill="#000000">::global_2d_sums</text>
</a>
</g>
</g>
<!-- Node0&#45;&gt;Node1 -->
<g id="edge1" class="edge">
<title>Node0&#45;&gt;Node1</title>
<path fill="none" stroke="#191970" d="M55.0947,-74.3992C66.4875,-76.2154 80.2702,-78.4126 94.1788,-80.63"/>
<polygon fill="#191970" stroke="#191970" points="93.87,-84.1248 104.2963,-82.2429 94.9721,-77.2121 93.87,-84.1248"/>
</g>
<!-- Node2 -->
<g id="node3" class="node">
<title>Node2</title>
<g id="a_node3"><a xlink:href="global__to__local__subdomain_8f90.xhtml#a33af13299bbbaf8b6b1a522619bed1ee" target="_top" xlink:title="Parallel UM : Transform from global to local co&#45;ordinates: Parallel UM : Transform from global to loc...">
<polygon fill="#ffffff" stroke="#000000" points="91,-38.5 91,-57.5 240,-57.5 240,-38.5 91,-38.5"/>
<text text-anchor="middle" x="165.5" y="-45.5" font-family="Helvetica,sans-Serif" font-size="10.00" fill="#000000">global_to_local_subdomain</text>
</a>
</g>
</g>
<!-- Node0&#45;&gt;Node2 -->
<g id="edge2" class="edge">
<title>Node0&#45;&gt;Node2</title>
<path fill="none" stroke="#191970" d="M55.0947,-65.6008C66.9177,-63.716 81.3144,-61.4209 95.7546,-59.1188"/>
<polygon fill="#191970" stroke="#191970" points="96.4033,-62.5597 105.7276,-57.5289 95.3013,-55.647 96.4033,-62.5597"/>
</g>
<!-- Node3 -->
<g id="node4" class="node">
<title>Node3</title>
<g id="a_node4"><a xlink:href="namespaceumprintmgr.xhtml#aae44897e556705dbf5e945a26538be9a" target="_top" xlink:title="umprintmgr::umprint">
<polygon fill="#ffffff" stroke="#000000" points="276,-38.5 276,-57.5 395,-57.5 395,-38.5 276,-38.5"/>
<text text-anchor="middle" x="335.5" y="-45.5" font-family="Helvetica,sans-Serif" font-size="10.00" fill="#000000">umprintmgr::umprint</text>
</a>
</g>
</g>
<!-- Node2&#45;&gt;Node3 -->
<g id="edge3" class="edge">
<title>Node2&#45;&gt;Node3</title>
<path fill="none" stroke="#191970" d="M240.0645,-48C248.5634,-48 257.2036,-48 265.6383,-48"/>
<polygon fill="#191970" stroke="#191970" points="265.8016,-51.5001 275.8015,-48 265.8015,-44.5001 265.8016,-51.5001"/>
</g>
<!-- Node4 -->
<g id="node5" class="node">
<title>Node4</title>
<g id="a_node5"><a xlink:href="namespaceumprintmgr.xhtml#a088ce22a18d574e9df7ee1850bfb10c7" target="_top" xlink:title="umprintmgr::umprintopenstream">
<polygon fill="#ffffff" stroke="#000000" points="431,-38.5 431,-57.5 608,-57.5 608,-38.5 431,-38.5"/>
<text text-anchor="middle" x="519.5" y="-45.5" font-family="Helvetica,sans-Serif" font-size="10.00" fill="#000000">umprintmgr::umprintopenstream</text>
</a>
</g>
</g>
<!-- Node3&#45;&gt;Node4 -->
<g id="edge4" class="edge">
<title>Node3&#45;&gt;Node4</title>
<path fill="none" stroke="#191970" d="M395.2395,-41.6333C403.4605,-41.4301 412.0751,-41.3077 420.7702,-41.2661"/>
<polygon fill="#191970" stroke="#191970" points="420.9998,-44.7659 430.9958,-41.2543 420.9917,-37.7659 420.9998,-44.7659"/>
</g>
<!-- Node5 -->
<g id="node6" class="node">
<title>Node5</title>
<g id="a_node6"><a xlink:href="namespaceumprintmgr.xhtml#ad3a290b30a6e25500eabc0bf90330b77" target="_top" xlink:title="umprintmgr::umprintflush">
<polygon fill="#ffffff" stroke="#000000" points="448.5,-.5 448.5,-19.5 590.5,-19.5 590.5,-.5 448.5,-.5"/>
<text text-anchor="middle" x="519.5" y="-7.5" font-family="Helvetica,sans-Serif" font-size="10.00" fill="#000000">umprintmgr::umprintflush</text>
</a>
</g>
</g>
<!-- Node3&#45;&gt;Node5 -->
<g id="edge6" class="edge">
<title>Node3&#45;&gt;Node5</title>
<path fill="none" stroke="#191970" d="M381.931,-38.411C406.6493,-33.3061 437.239,-26.9887 463.292,-21.6082"/>
<polygon fill="#191970" stroke="#191970" points="464.3175,-24.9703 473.4029,-19.5201 462.9017,-18.115 464.3175,-24.9703"/>
</g>
<!-- Node4&#45;&gt;Node3 -->
<g id="edge5" class="edge">
<title>Node4&#45;&gt;Node3</title>
<path fill="none" stroke="#191970" d="M430.9958,-54.7457C422.3802,-54.767 413.7236,-54.7094 405.3289,-54.5727"/>
<polygon fill="#191970" stroke="#191970" points="405.3089,-51.0716 395.2395,-54.3667 405.166,-58.0702 405.3089,-51.0716"/>
</g>
<!-- Node6 -->
<g id="node7" class="node">
<title>Node6</title>
<g id="a_node7"><a xlink:href="namespaceumflush__mod.xhtml#a3a003ab59990bdcb712b443dd5e0d1cd" target="_top" xlink:title="umflush_mod::umflush">
<polygon fill="#ffffff" stroke="#000000" points="644,-.5 644,-19.5 772,-19.5 772,-.5 644,-.5"/>
<text text-anchor="middle" x="708" y="-7.5" font-family="Helvetica,sans-Serif" font-size="10.00" fill="#000000">umflush_mod::umflush</text>
</a>
</g>
</g>
<!-- Node5&#45;&gt;Node6 -->
<g id="edge7" class="edge">
<title>Node5&#45;&gt;Node6</title>
<path fill="none" stroke="#191970" d="M590.7638,-10C604.7742,-10 619.5063,-10 633.6162,-10"/>
<polygon fill="#191970" stroke="#191970" points="633.7612,-13.5001 643.7611,-10 633.7611,-6.5001 633.7612,-13.5001"/>
</g>
</g>
</svg>
