<?xml version="1.0" encoding="UTF-8" standalone="no"?>
<!DOCTYPE svg PUBLIC "-//W3C//DTD SVG 1.1//EN"
 "http://www.w3.org/Graphics/SVG/1.1/DTD/svg11.dtd">
<!-- Generated by graphviz version 2.40.1 (20161225.0304)
 -->
<!-- Title: stzonm Pages: 1 -->
<svg width="778pt" height="116pt"
 viewBox="0.00 0.00 778.00 115.50" xmlns="http://www.w3.org/2000/svg" xmlns:xlink="http://www.w3.org/1999/xlink">
<g id="graph0" class="graph" transform="scale(1 1) rotate(0) translate(4 111.5)">
<title>stzonm</title>
<polygon fill="#ffffff" stroke="transparent" points="-4,4 -4,-111.5 774,-111.5 774,4 -4,4"/>
<!-- Node0 -->
<g id="node1" class="node">
<title>Node0</title>
<polygon fill="#bfbfbf" stroke="#000000" points="0,-60.5 0,-79.5 53,-79.5 53,-60.5 0,-60.5"/>
<text text-anchor="middle" x="26.5" y="-67.5" font-family="Helvetica,sans-Serif" font-size="10.00" fill="#000000">stzonm</text>
</g>
<!-- Node1 -->
<g id="node2" class="node">
<title>Node1</title>
<g id="a_node2"><a xlink:href="namespaceglobal__2d__sums__mod.xhtml#ac3fe3c2679168085c4635a17e5f82215" target="_top" xlink:title="global_2d_sums_mod\l::global_2d_sums">
<polygon fill="#ffffff" stroke="#000000" points="102.5,-77 102.5,-107 224.5,-107 224.5,-77 102.5,-77"/>
<text text-anchor="start" x="110.5" y="-95" font-family="Helvetica,sans-Serif" font-size="10.00" fill="#000000">global_2d_sums_mod</text>
<text text-anchor="middle" x="163.5" y="-84" font-family="Helvetica,sans-Serif" font-size="10.00" fill="#000000">::global_2d_sums</text>
</a>
</g>
</g>
<!-- Node0&#45;&gt;Node1 -->
<g id="edge1" class="edge">
<title>Node0&#45;&gt;Node1</title>
<path fill="none" stroke="#191970" d="M53.2402,-74.294C64.5192,-76.1053 78.2408,-78.3087 92.1204,-80.5376"/>
<polygon fill="#191970" stroke="#191970" points="91.7936,-84.0299 102.2221,-82.1597 92.9035,-77.1184 91.7936,-84.0299"/>
</g>
<!-- Node2 -->
<g id="node3" class="node">
<title>Node2</title>
<g id="a_node3"><a xlink:href="global__to__local__subdomain_8f90.xhtml#a33af13299bbbaf8b6b1a522619bed1ee" target="_top" xlink:title="Parallel UM : Transform from global to local co&#45;ordinates: Parallel UM : Transform from global to loc...">
<polygon fill="#ffffff" stroke="#000000" points="89,-38.5 89,-57.5 238,-57.5 238,-38.5 89,-38.5"/>
<text text-anchor="middle" x="163.5" y="-45.5" font-family="Helvetica,sans-Serif" font-size="10.00" fill="#000000">global_to_local_subdomain</text>
</a>
</g>
</g>
<!-- Node0&#45;&gt;Node2 -->
<g id="edge2" class="edge">
<title>Node0&#45;&gt;Node2</title>
<path fill="none" stroke="#191970" d="M53.2402,-65.706C65.0716,-63.806 79.5907,-61.4745 94.1605,-59.1348"/>
<polygon fill="#191970" stroke="#191970" points="94.9044,-62.5603 104.2229,-57.5189 93.7945,-55.6488 94.9044,-62.5603"/>
</g>
<!-- Node3 -->
<g id="node4" class="node">
<title>Node3</title>
<g id="a_node4"><a xlink:href="namespaceumprintmgr.xhtml#aae44897e556705dbf5e945a26538be9a" target="_top" xlink:title="umprintmgr::umprint">
<polygon fill="#ffffff" stroke="#000000" points="274,-38.5 274,-57.5 393,-57.5 393,-38.5 274,-38.5"/>
<text text-anchor="middle" x="333.5" y="-45.5" font-family="Helvetica,sans-Serif" font-size="10.00" fill="#000000">umprintmgr::umprint</text>
</a>
</g>
</g>
<!-- Node2&#45;&gt;Node3 -->
<g id="edge3" class="edge">
<title>Node2&#45;&gt;Node3</title>
<path fill="none" stroke="#191970" d="M238.0645,-48C246.5634,-48 255.2036,-48 263.6383,-48"/>
<polygon fill="#191970" stroke="#191970" points="263.8016,-51.5001 273.8015,-48 263.8015,-44.5001 263.8016,-51.5001"/>
</g>
<!-- Node4 -->
<g id="node5" class="node">
<title>Node4</title>
<g id="a_node5"><a xlink:href="namespaceumprintmgr.xhtml#a088ce22a18d574e9df7ee1850bfb10c7" target="_top" xlink:title="umprintmgr::umprintopenstream">
<polygon fill="#ffffff" stroke="#000000" points="429,-38.5 429,-57.5 606,-57.5 606,-38.5 429,-38.5"/>
<text text-anchor="middle" x="517.5" y="-45.5" font-family="Helvetica,sans-Serif" font-size="10.00" fill="#000000">umprintmgr::umprintopenstream</text>
</a>
</g>
</g>
<!-- Node3&#45;&gt;Node4 -->
<g id="edge4" class="edge">
<title>Node3&#45;&gt;Node4</title>
<path fill="none" stroke="#191970" d="M393.2395,-41.6333C401.4605,-41.4301 410.0751,-41.3077 418.7702,-41.2661"/>
<polygon fill="#191970" stroke="#191970" points="418.9998,-44.7659 428.9958,-41.2543 418.9917,-37.7659 418.9998,-44.7659"/>
</g>
<!-- Node5 -->
<g id="node6" class="node">
<title>Node5</title>
<g id="a_node6"><a xlink:href="namespaceumprintmgr.xhtml#ad3a290b30a6e25500eabc0bf90330b77" target="_top" xlink:title="umprintmgr::umprintflush">
<polygon fill="#ffffff" stroke="#000000" points="446.5,-.5 446.5,-19.5 588.5,-19.5 588.5,-.5 446.5,-.5"/>
<text text-anchor="middle" x="517.5" y="-7.5" font-family="Helvetica,sans-Serif" font-size="10.00" fill="#000000">umprintmgr::umprintflush</text>
</a>
</g>
</g>
<!-- Node3&#45;&gt;Node5 -->
<g id="edge6" class="edge">
<title>Node3&#45;&gt;Node5</title>
<path fill="none" stroke="#191970" d="M379.931,-38.411C404.6493,-33.3061 435.239,-26.9887 461.292,-21.6082"/>
<polygon fill="#191970" stroke="#191970" points="462.3175,-24.9703 471.4029,-19.5201 460.9017,-18.115 462.3175,-24.9703"/>
</g>
<!-- Node4&#45;&gt;Node3 -->
<g id="edge5" class="edge">
<title>Node4&#45;&gt;Node3</title>
<path fill="none" stroke="#191970" d="M428.9958,-54.7457C420.3802,-54.767 411.7236,-54.7094 403.3289,-54.5727"/>
<polygon fill="#191970" stroke="#191970" points="403.3089,-51.0716 393.2395,-54.3667 403.166,-58.0702 403.3089,-51.0716"/>
</g>
<!-- Node6 -->
<g id="node7" class="node">
<title>Node6</title>
<g id="a_node7"><a xlink:href="namespaceumflush__mod.xhtml#a3a003ab59990bdcb712b443dd5e0d1cd" target="_top" xlink:title="umflush_mod::umflush">
<polygon fill="#ffffff" stroke="#000000" points="642,-.5 642,-19.5 770,-19.5 770,-.5 642,-.5"/>
<text text-anchor="middle" x="706" y="-7.5" font-family="Helvetica,sans-Serif" font-size="10.00" fill="#000000">umflush_mod::umflush</text>
</a>
</g>
</g>
<!-- Node5&#45;&gt;Node6 -->
<g id="edge7" class="edge">
<title>Node5&#45;&gt;Node6</title>
<path fill="none" stroke="#191970" d="M588.7638,-10C602.7742,-10 617.5063,-10 631.6162,-10"/>
<polygon fill="#191970" stroke="#191970" points="631.7612,-13.5001 641.7611,-10 631.7611,-6.5001 631.7612,-13.5001"/>
</g>
</g>
</svg>
