<?xml version="1.0" encoding="UTF-8" standalone="no"?>
<!DOCTYPE svg PUBLIC "-//W3C//DTD SVG 1.1//EN"
 "http://www.w3.org/Graphics/SVG/1.1/DTD/svg11.dtd">
<!-- Generated by graphviz version 2.40.1 (20161225.0304)
 -->
<!-- Title: swap_bounds_2d_mv Pages: 1 -->
<svg width="1349pt" height="306pt"
 viewBox="0.00 0.00 1349.00 305.50" xmlns="http://www.w3.org/2000/svg" xmlns:xlink="http://www.w3.org/1999/xlink">
<g id="graph0" class="graph" transform="scale(1 1) rotate(0) translate(4 301.5)">
<title>swap_bounds_2d_mv</title>
<polygon fill="#ffffff" stroke="transparent" points="-4,4 -4,-301.5 1345,-301.5 1345,4 -4,4"/>
<!-- Node2 -->
<g id="node1" class="node">
<title>Node2</title>
<polygon fill="#bfbfbf" stroke="#000000" points="0,-133.5 0,-152.5 121,-152.5 121,-133.5 0,-133.5"/>
<text text-anchor="middle" x="60.5" y="-140.5" font-family="Helvetica,sans-Serif" font-size="10.00" fill="#000000">swap_bounds_2d_mv</text>
</g>
<!-- Node3 -->
<g id="node2" class="node">
<title>Node3</title>
<g id="a_node2"><a xlink:href="diagnostics__bl_8f90.xhtml#a50229e39ea09211655a2e283d999410f" target="_top" xlink:title="This file belongs in section: boundary layer. ">
<polygon fill="#ffffff" stroke="#000000" points="178,-190.5 178,-209.5 264,-209.5 264,-190.5 178,-190.5"/>
<text text-anchor="middle" x="221" y="-197.5" font-family="Helvetica,sans-Serif" font-size="10.00" fill="#000000">diagnostics_bl</text>
</a>
</g>
</g>
<!-- Node2&#45;&gt;Node3 -->
<g id="edge1" class="edge">
<title>Node2&#45;&gt;Node3</title>
<path fill="none" stroke="#191970" d="M96.9038,-155.9285C126.4356,-166.4164 167.3985,-180.9639 194.0483,-190.4284"/>
<polygon fill="#191970" stroke="#191970" points="97.9588,-152.589 87.3641,-152.5405 95.6161,-159.1854 97.9588,-152.589"/>
</g>
<!-- Node4 -->
<g id="node3" class="node">
<title>Node4</title>
<g id="a_node3"><a xlink:href="ni__imp__ctl_8f90.xhtml#a9d192b5c45d7330f88208ed64fe4d6b4" target="_top" xlink:title="Subroutine NI_imp_ctl Subroutine NI_imp_ctl &#160;">
<polygon fill="#ffffff" stroke="#000000" points="361,-152.5 361,-171.5 428,-171.5 428,-152.5 361,-152.5"/>
<text text-anchor="middle" x="394.5" y="-159.5" font-family="Helvetica,sans-Serif" font-size="10.00" fill="#000000">ni_imp_ctl</text>
</a>
</g>
</g>
<!-- Node2&#45;&gt;Node4 -->
<g id="edge34" class="edge">
<title>Node2&#45;&gt;Node4</title>
<path fill="none" stroke="#191970" d="M131.5131,-147.0397C202.0134,-151.0502 307.0685,-157.0264 360.5569,-160.0691"/>
<polygon fill="#191970" stroke="#191970" points="131.5551,-143.5365 121.3724,-146.4628 131.1574,-150.5252 131.5551,-143.5365"/>
</g>
<!-- Node5 -->
<g id="node4" class="node">
<title>Node5</title>
<g id="a_node4"><a xlink:href="atmos__physics2_8f90.xhtml#a0f74e8c75312201121b305cd566b175a" target="_top" xlink:title="Interface to Atmos Physics parametrizations after S&#45;L advection. ">
<polygon fill="#ffffff" stroke="#000000" points="705.5,-108.5 705.5,-127.5 800.5,-127.5 800.5,-108.5 705.5,-108.5"/>
<text text-anchor="middle" x="753" y="-115.5" font-family="Helvetica,sans-Serif" font-size="10.00" fill="#000000">atmos_physics2</text>
</a>
</g>
</g>
<!-- Node2&#45;&gt;Node5 -->
<g id="edge33" class="edge">
<title>Node2&#45;&gt;Node5</title>
<path fill="none" stroke="#191970" d="M131.3211,-138.3508C139.9692,-137.8556 148.6845,-137.391 157,-137 360.9773,-127.4096 604.457,-121.3182 705.4676,-119.0274"/>
<polygon fill="#191970" stroke="#191970" points="131.0055,-134.8632 121.2279,-138.9434 131.4159,-141.8511 131.0055,-134.8632"/>
</g>
<!-- Node14 -->
<g id="node13" class="node">
<title>Node14</title>
<g id="a_node13"><a xlink:href="namespacecalc__npmsl__redbl__mod.xhtml#a7f9937a1e55cf56ab89c068b6c6834bd" target="_top" xlink:title="calc_npmsl_redbl_mod\l::calc_npmsl_redbl">
<polygon fill="#ffffff" stroke="#000000" points="157,-267 157,-297 285,-297 285,-267 157,-267"/>
<text text-anchor="start" x="165" y="-285" font-family="Helvetica,sans-Serif" font-size="10.00" fill="#000000">calc_npmsl_redbl_mod</text>
<text text-anchor="middle" x="221" y="-274" font-family="Helvetica,sans-Serif" font-size="10.00" fill="#000000">::calc_npmsl_redbl</text>
</a>
</g>
</g>
<!-- Node2&#45;&gt;Node14 -->
<g id="edge13" class="edge">
<title>Node2&#45;&gt;Node14</title>
<path fill="none" stroke="#191970" d="M72.7904,-160.9561C89.5676,-184.3946 121.624,-225.5374 157,-252 164.6645,-257.7333 173.5998,-262.7579 182.3201,-266.9734"/>
<polygon fill="#191970" stroke="#191970" points="75.5568,-158.8053 66.9449,-152.6339 69.8287,-162.8288 75.5568,-158.8053"/>
</g>
<!-- Node22 -->
<g id="node21" class="node">
<title>Node22</title>
<g id="a_node21"><a xlink:href="namespaceuv__p__pnts__mod.xhtml#a257717be0bd93bcfece445a2a29dede3" target="_top" xlink:title="uv_p_pnts_mod::uv_p_pnts">
<polygon fill="#ffffff" stroke="#000000" points="504,-190.5 504,-209.5 653,-209.5 653,-190.5 504,-190.5"/>
<text text-anchor="middle" x="578.5" y="-197.5" font-family="Helvetica,sans-Serif" font-size="10.00" fill="#000000">uv_p_pnts_mod::uv_p_pnts</text>
</a>
</g>
</g>
<!-- Node2&#45;&gt;Node22 -->
<g id="edge25" class="edge">
<title>Node2&#45;&gt;Node22</title>
<path fill="none" stroke="#191970" d="M75.3734,-160.1504C92.7658,-178.7646 123.4746,-207.3834 157,-219 294.736,-266.726 473.0325,-228.772 545.6019,-209.5045"/>
<polygon fill="#191970" stroke="#191970" points="77.869,-157.6921 68.5609,-152.6315 72.6816,-162.3922 77.869,-157.6921"/>
</g>
<!-- Node24 -->
<g id="node23" class="node">
<title>Node24</title>
<g id="a_node23"><a xlink:href="atmos__physics1_8f90.xhtml#ae8d55d89da6ed68f5f8d7e9eec99bc76" target="_top" xlink:title="Interface to Atmos Physics parametrizations before S&#45;L advection. ">
<polygon fill="#ffffff" stroke="#000000" points="705.5,-146.5 705.5,-165.5 800.5,-165.5 800.5,-146.5 705.5,-146.5"/>
<text text-anchor="middle" x="753" y="-153.5" font-family="Helvetica,sans-Serif" font-size="10.00" fill="#000000">atmos_physics1</text>
</a>
</g>
</g>
<!-- Node2&#45;&gt;Node24 -->
<g id="edge32" class="edge">
<title>Node2&#45;&gt;Node24</title>
<path fill="none" stroke="#191970" d="M131.383,-142.0215C212.6849,-141.1265 349.9807,-140.3097 468,-143 551.5612,-144.9048 648.7963,-149.9471 705.3694,-153.1629"/>
<polygon fill="#191970" stroke="#191970" points="131.2239,-138.523 121.2643,-142.1365 131.3035,-145.5226 131.2239,-138.523"/>
</g>
<!-- Node25 -->
<g id="node24" class="node">
<title>Node25</title>
<g id="a_node24"><a xlink:href="set__trigs_8f90.xhtml#a9f6b9c8d07cb89b58261803e90b1ce94" target="_top" xlink:title="Initialises trigonometric and Coriolis dynamical arrays. ">
<polygon fill="#ffffff" stroke="#000000" points="191.5,-38.5 191.5,-57.5 250.5,-57.5 250.5,-38.5 191.5,-38.5"/>
<text text-anchor="middle" x="221" y="-45.5" font-family="Helvetica,sans-Serif" font-size="10.00" fill="#000000">set_trigs</text>
</a>
</g>
</g>
<!-- Node2&#45;&gt;Node25 -->
<g id="edge35" class="edge">
<title>Node2&#45;&gt;Node25</title>
<path fill="none" stroke="#191970" d="M79.1481,-126.8403C97.8549,-111.2376 127.9784,-87.7246 157,-72 167.7466,-66.1772 180.2059,-61.1548 191.26,-57.2314"/>
<polygon fill="#191970" stroke="#191970" points="76.7739,-124.2644 71.4014,-133.3961 81.2959,-129.6078 76.7739,-124.2644"/>
</g>
<!-- Node28 -->
<g id="node27" class="node">
<title>Node28</title>
<g id="a_node27"><a xlink:href="set__trigs__4_a_8f90.xhtml#a7b41a8766dd885af5cc896e30c60b72c" target="_top" xlink:title="Initialises trigonometric and Coriolis dynamical arrays (ENDGAME version) ">
<polygon fill="#ffffff" stroke="#000000" points="183,-.5 183,-19.5 259,-19.5 259,-.5 183,-.5"/>
<text text-anchor="middle" x="221" y="-7.5" font-family="Helvetica,sans-Serif" font-size="10.00" fill="#000000">set_trigs_4a</text>
</a>
</g>
</g>
<!-- Node2&#45;&gt;Node28 -->
<g id="edge38" class="edge">
<title>Node2&#45;&gt;Node28</title>
<path fill="none" stroke="#191970" d="M71.0925,-124.8258C86.7141,-99.6094 118.3032,-54.2681 157,-29 164.7637,-23.9305 173.9252,-20.1739 182.8525,-17.4048"/>
<polygon fill="#191970" stroke="#191970" points="68.0758,-123.0508 65.9057,-133.421 74.0691,-126.6675 68.0758,-123.0508"/>
</g>
<!-- Node3&#45;&gt;Node4 -->
<g id="edge2" class="edge">
<title>Node3&#45;&gt;Node4</title>
<path fill="none" stroke="#191970" d="M274.4537,-188.2926C302.6771,-182.1111 336.4436,-174.7155 360.9655,-169.3447"/>
<polygon fill="#191970" stroke="#191970" points="273.3534,-184.9505 264.3338,-190.509 274.8511,-191.7884 273.3534,-184.9505"/>
</g>
<!-- Node4&#45;&gt;Node5 -->
<g id="edge3" class="edge">
<title>Node4&#45;&gt;Node5</title>
<path fill="none" stroke="#191970" d="M438.55,-156.5936C506.2739,-148.2816 635.4438,-132.4281 705.3021,-123.8541"/>
<polygon fill="#191970" stroke="#191970" points="437.7259,-153.1684 428.2268,-157.8606 438.5787,-160.1162 437.7259,-153.1684"/>
</g>
<!-- Node6 -->
<g id="node5" class="node">
<title>Node6</title>
<g id="a_node5"><a xlink:href="atm__step_8f90.xhtml#ac0ee2467a1a9959b7065fdb8fd27bce4" target="_top" xlink:title="Perform a 1&#45;timestep integration of the Atmosphere Model. ">
<polygon fill="#ffffff" stroke="#000000" points="862,-149.5 862,-168.5 924,-168.5 924,-149.5 862,-149.5"/>
<text text-anchor="middle" x="893" y="-156.5" font-family="Helvetica,sans-Serif" font-size="10.00" fill="#000000">atm_step</text>
</a>
</g>
</g>
<!-- Node5&#45;&gt;Node6 -->
<g id="edge4" class="edge">
<title>Node5&#45;&gt;Node6</title>
<path fill="none" stroke="#191970" d="M795.2683,-130.3786C816.624,-136.6328 842.0875,-144.0899 861.6684,-149.8243"/>
<polygon fill="#191970" stroke="#191970" points="796.0513,-126.961 785.4707,-127.5093 794.0839,-133.6788 796.0513,-126.961"/>
</g>
<!-- Node10 -->
<g id="node9" class="node">
<title>Node10</title>
<g id="a_node9"><a xlink:href="atm__step__4_a_8f90.xhtml#a2319aa4963e90c64cd78bdcd5f481095" target="_top" xlink:title="Perform a 1&#45;timestep integration of the Atmosphere Model. ">
<polygon fill="#ffffff" stroke="#000000" points="853,-187.5 853,-206.5 933,-206.5 933,-187.5 853,-187.5"/>
<text text-anchor="middle" x="893" y="-194.5" font-family="Helvetica,sans-Serif" font-size="10.00" fill="#000000">atm_step_4a</text>
</a>
</g>
</g>
<!-- Node5&#45;&gt;Node10 -->
<g id="edge8" class="edge">
<title>Node5&#45;&gt;Node10</title>
<path fill="none" stroke="#191970" d="M806.456,-131.3044C810.1344,-132.9904 813.6902,-134.8813 817,-137 837.4235,-150.074 833.649,-163.3854 853,-178 857.7853,-181.614 863.3679,-184.7896 868.8178,-187.4584"/>
<polygon fill="#191970" stroke="#191970" points="807.7119,-128.0369 797.1296,-127.5217 805.0809,-134.5237 807.7119,-128.0369"/>
</g>
<!-- Node12 -->
<g id="node11" class="node">
<title>Node12</title>
<g id="a_node11"><a xlink:href="scm__main_8f90.xhtml#a2c730136605550612e094ce51d33a2a5" target="_top" xlink:title="*********************************COPYRIGHT********************************* ">
<polygon fill="#ffffff" stroke="#000000" points="859.5,-110.5 859.5,-129.5 926.5,-129.5 926.5,-110.5 859.5,-110.5"/>
<text text-anchor="middle" x="893" y="-117.5" font-family="Helvetica,sans-Serif" font-size="10.00" fill="#000000">scm_main</text>
</a>
</g>
</g>
<!-- Node5&#45;&gt;Node12 -->
<g id="edge11" class="edge">
<title>Node5&#45;&gt;Node12</title>
<path fill="none" stroke="#191970" d="M810.8588,-118.8266C827.2772,-119.0611 844.6148,-119.3088 859.1085,-119.5158"/>
<polygon fill="#191970" stroke="#191970" points="810.8375,-115.326 800.7885,-118.6827 810.7374,-122.3253 810.8375,-115.326"/>
</g>
<!-- Node7 -->
<g id="node6" class="node">
<title>Node7</title>
<g id="a_node6"><a xlink:href="u__model_8f90.xhtml#ada0cd2ce4699433bf0f9adbd882c8eec" target="_top" xlink:title="Subroutine: U_MODEL &#45;!&gt; ">
<polygon fill="#ffffff" stroke="#000000" points="1078.5,-149.5 1078.5,-168.5 1137.5,-168.5 1137.5,-149.5 1078.5,-149.5"/>
<text text-anchor="middle" x="1108" y="-156.5" font-family="Helvetica,sans-Serif" font-size="10.00" fill="#000000">u_model</text>
</a>
</g>
</g>
<!-- Node6&#45;&gt;Node7 -->
<g id="edge5" class="edge">
<title>Node6&#45;&gt;Node7</title>
<path fill="none" stroke="#191970" d="M934.4906,-159C976.7167,-159 1041.1124,-159 1078.4286,-159"/>
<polygon fill="#191970" stroke="#191970" points="934.2629,-155.5001 924.2628,-159 934.2628,-162.5001 934.2629,-155.5001"/>
</g>
<!-- Node8 -->
<g id="node7" class="node">
<title>Node8</title>
<g id="a_node7"><a xlink:href="um__shell_8f90.xhtml#a8c9bd25362824a5c301376ecb5ed5c27" target="_top" xlink:title="Subroutine: UM_SHELL !&gt; ">
<polygon fill="#ffffff" stroke="#000000" points="1182,-168.5 1182,-187.5 1243,-187.5 1243,-168.5 1182,-168.5"/>
<text text-anchor="middle" x="1212.5" y="-175.5" font-family="Helvetica,sans-Serif" font-size="10.00" fill="#000000">um_shell</text>
</a>
</g>
</g>
<!-- Node7&#45;&gt;Node8 -->
<g id="edge6" class="edge">
<title>Node7&#45;&gt;Node8</title>
<path fill="none" stroke="#191970" d="M1147.701,-166.2184C1158.951,-168.2638 1171.0261,-170.4593 1181.6677,-172.3941"/>
<polygon fill="#191970" stroke="#191970" points="1148.1308,-162.7392 1137.666,-164.3938 1146.8786,-169.6263 1148.1308,-162.7392"/>
</g>
<!-- Node9 -->
<g id="node8" class="node">
<title>Node9</title>
<g id="a_node8"><a xlink:href="um__main_8f90.xhtml#a8f2d13215621443a5313261c282f098b" target="_top" xlink:title="Code Owner: See Unified Model Code Owner&#39;s HTML page. ">
<polygon fill="#ffffff" stroke="#000000" points="1279,-168.5 1279,-187.5 1341,-187.5 1341,-168.5 1279,-168.5"/>
<text text-anchor="middle" x="1310" y="-175.5" font-family="Helvetica,sans-Serif" font-size="10.00" fill="#000000">um_main</text>
</a>
</g>
</g>
<!-- Node8&#45;&gt;Node9 -->
<g id="edge7" class="edge">
<title>Node8&#45;&gt;Node9</title>
<path fill="none" stroke="#191970" d="M1253.2756,-178C1261.8294,-178 1270.72,-178 1278.8551,-178"/>
<polygon fill="#191970" stroke="#191970" points="1253.0821,-174.5001 1243.0821,-178 1253.0821,-181.5001 1253.0821,-174.5001"/>
</g>
<!-- Node11 -->
<g id="node10" class="node">
<title>Node11</title>
<g id="a_node10"><a xlink:href="u__model__4_a_8f90.xhtml#afa05064dab5eba198b461d0928767c7e" target="_top" xlink:title="LL Subroutine: U_MODEL_4A (ENDGAME VERSION) !&gt;LL. ">
<polygon fill="#ffffff" stroke="#000000" points="1070,-187.5 1070,-206.5 1146,-206.5 1146,-187.5 1070,-187.5"/>
<text text-anchor="middle" x="1108" y="-194.5" font-family="Helvetica,sans-Serif" font-size="10.00" fill="#000000">u_model_4a</text>
</a>
</g>
</g>
<!-- Node10&#45;&gt;Node11 -->
<g id="edge9" class="edge">
<title>Node10&#45;&gt;Node11</title>
<path fill="none" stroke="#191970" d="M943.1985,-197C981.8733,-197 1034.5294,-197 1069.8149,-197"/>
<polygon fill="#191970" stroke="#191970" points="943.1877,-193.5001 933.1876,-197 943.1876,-200.5001 943.1877,-193.5001"/>
</g>
<!-- Node11&#45;&gt;Node8 -->
<g id="edge10" class="edge">
<title>Node11&#45;&gt;Node8</title>
<path fill="none" stroke="#191970" d="M1155.8728,-188.2959C1164.7087,-186.6893 1173.7128,-185.0522 1181.8647,-183.57"/>
<polygon fill="#191970" stroke="#191970" points="1155.2351,-184.8543 1146.0225,-190.0868 1156.4873,-191.7414 1155.2351,-184.8543"/>
</g>
<!-- Node13 -->
<g id="node12" class="node">
<title>Node13</title>
<g id="a_node12"><a xlink:href="scm__shell_8f90.xhtml#ab15255829ee7b5be626b1c0861b40c8d" target="_top" xlink:title="scm_shell is the main calling program for the Single Column Model. ">
<polygon fill="#ffffff" stroke="#000000" points="969,-110.5 969,-129.5 1034,-129.5 1034,-110.5 969,-110.5"/>
<text text-anchor="middle" x="1001.5" y="-117.5" font-family="Helvetica,sans-Serif" font-size="10.00" fill="#000000">scm_shell</text>
</a>
</g>
</g>
<!-- Node12&#45;&gt;Node13 -->
<g id="edge12" class="edge">
<title>Node12&#45;&gt;Node13</title>
<path fill="none" stroke="#191970" d="M936.787,-120C947.5123,-120 958.8047,-120 968.9005,-120"/>
<polygon fill="#191970" stroke="#191970" points="936.7354,-116.5001 926.7353,-120 936.7353,-123.5001 936.7354,-116.5001"/>
</g>
<!-- Node15 -->
<g id="node14" class="node">
<title>Node15</title>
<g id="a_node14"><a xlink:href="namespacecalc__pmsl__mod.xhtml#a7a7a85e4b815ca5087f921659fe66176" target="_top" xlink:title="calc_pmsl_mod::calc_pmsl">
<polygon fill="#ffffff" stroke="#000000" points="321,-272.5 321,-291.5 468,-291.5 468,-272.5 321,-272.5"/>
<text text-anchor="middle" x="394.5" y="-279.5" font-family="Helvetica,sans-Serif" font-size="10.00" fill="#000000">calc_pmsl_mod::calc_pmsl</text>
</a>
</g>
</g>
<!-- Node14&#45;&gt;Node15 -->
<g id="edge14" class="edge">
<title>Node14&#45;&gt;Node15</title>
<path fill="none" stroke="#191970" d="M295.3661,-282C303.8567,-282 312.5088,-282 320.9882,-282"/>
<polygon fill="#191970" stroke="#191970" points="295.1121,-278.5001 285.1121,-282 295.112,-285.5001 295.1121,-278.5001"/>
</g>
<!-- Node16 -->
<g id="node15" class="node">
<title>Node16</title>
<g id="a_node15"><a xlink:href="namespacephy__diag__mod.xhtml#a0607dc508340c97ddeeb5a8208a243ad" target="_top" xlink:title="phy_diag_mod::phy_diag">
<polygon fill="#ffffff" stroke="#000000" points="509.5,-272.5 509.5,-291.5 647.5,-291.5 647.5,-272.5 509.5,-272.5"/>
<text text-anchor="middle" x="578.5" y="-279.5" font-family="Helvetica,sans-Serif" font-size="10.00" fill="#000000">phy_diag_mod::phy_diag</text>
</a>
</g>
</g>
<!-- Node15&#45;&gt;Node16 -->
<g id="edge15" class="edge">
<title>Node15&#45;&gt;Node16</title>
<path fill="none" stroke="#191970" d="M478.3111,-282C488.6734,-282 499.1754,-282 509.2857,-282"/>
<polygon fill="#191970" stroke="#191970" points="478.015,-278.5001 468.0149,-282 478.0149,-285.5001 478.015,-278.5001"/>
</g>
<!-- Node17 -->
<g id="node16" class="node">
<title>Node17</title>
<g id="a_node16"><a xlink:href="st__diag2_8f90.xhtml#ad3935d3ef8da955602b10c37af06aa57" target="_top" xlink:title="LL. ">
<polygon fill="#ffffff" stroke="#000000" points="724,-234.5 724,-253.5 782,-253.5 782,-234.5 724,-234.5"/>
<text text-anchor="middle" x="753" y="-241.5" font-family="Helvetica,sans-Serif" font-size="10.00" fill="#000000">st_diag2</text>
</a>
</g>
</g>
<!-- Node16&#45;&gt;Node17 -->
<g id="edge16" class="edge">
<title>Node16&#45;&gt;Node17</title>
<path fill="none" stroke="#191970" d="M632.4828,-270.2444C662.5984,-263.6863 698.9331,-255.7739 723.7803,-250.363"/>
<polygon fill="#191970" stroke="#191970" points="631.56,-266.8633 622.5337,-272.411 633.0495,-273.703 631.56,-266.8633"/>
</g>
<!-- Node19 -->
<g id="node18" class="node">
<title>Node19</title>
<g id="a_node18"><a xlink:href="st__mean_8f90.xhtml#a56c57d59e0430c6d123a6e4a366df8e6" target="_top" xlink:title="LL Routine: ST_MEAN &#45;!&gt;LL. ">
<polygon fill="#ffffff" stroke="#000000" points="723.5,-272.5 723.5,-291.5 782.5,-291.5 782.5,-272.5 723.5,-272.5"/>
<text text-anchor="middle" x="753" y="-279.5" font-family="Helvetica,sans-Serif" font-size="10.00" fill="#000000">st_mean</text>
</a>
</g>
</g>
<!-- Node16&#45;&gt;Node19 -->
<g id="edge20" class="edge">
<title>Node16&#45;&gt;Node19</title>
<path fill="none" stroke="#191970" d="M657.966,-282C681.2091,-282 705.195,-282 723.2548,-282"/>
<polygon fill="#191970" stroke="#191970" points="657.7177,-278.5001 647.7177,-282 657.7176,-285.5001 657.7177,-278.5001"/>
</g>
<!-- Node17&#45;&gt;Node6 -->
<g id="edge17" class="edge">
<title>Node17&#45;&gt;Node6</title>
<path fill="none" stroke="#191970" d="M791.8387,-236.7011C800.5965,-233.9375 809.5085,-230.1569 817,-225 838.6738,-210.0805 832.5452,-194.5513 853,-178 857.5422,-174.3246 862.9128,-171.157 868.2197,-168.5194"/>
<polygon fill="#191970" stroke="#191970" points="790.7976,-233.3577 782.1004,-239.4083 792.6725,-240.102 790.7976,-233.3577"/>
</g>
<!-- Node17&#45;&gt;Node10 -->
<g id="edge18" class="edge">
<title>Node17&#45;&gt;Node10</title>
<path fill="none" stroke="#191970" d="M791.9696,-232.8668C800.2627,-230.3759 808.9457,-227.6762 817,-225 834.2139,-219.2804 853.3775,-212.2153 868.1548,-206.613"/>
<polygon fill="#191970" stroke="#191970" points="790.7097,-229.5896 782.1157,-235.7859 792.698,-236.3013 790.7097,-229.5896"/>
</g>
<!-- Node18 -->
<g id="node17" class="node">
<title>Node18</title>
<g id="a_node17"><a xlink:href="initdiag_8f90.xhtml#a95a853661b4e10339418e4a8c29b8c9c" target="_top" xlink:title="Calculate diagnostic quantities from the initial atmosphere dump Calculate diagnostic quantities from...">
<polygon fill="#ffffff" stroke="#000000" points="866.5,-234.5 866.5,-253.5 919.5,-253.5 919.5,-234.5 866.5,-234.5"/>
<text text-anchor="middle" x="893" y="-241.5" font-family="Helvetica,sans-Serif" font-size="10.00" fill="#000000">initdiag</text>
</a>
</g>
</g>
<!-- Node17&#45;&gt;Node18 -->
<g id="edge19" class="edge">
<title>Node17&#45;&gt;Node18</title>
<path fill="none" stroke="#191970" d="M792.0922,-244C815.7878,-244 845.3958,-244 866.3969,-244"/>
<polygon fill="#191970" stroke="#191970" points="792.0081,-240.5001 782.0081,-244 792.0081,-247.5001 792.0081,-240.5001"/>
</g>
<!-- Node20 -->
<g id="node19" class="node">
<title>Node20</title>
<g id="a_node19"><a xlink:href="meandiag_8f90.xhtml#a72a0b96fb4670010dc65680c7e8ac636" target="_top" xlink:title="LL Routine: MEANDIAG !&gt;LL. ">
<polygon fill="#ffffff" stroke="#000000" points="860.5,-272.5 860.5,-291.5 925.5,-291.5 925.5,-272.5 860.5,-272.5"/>
<text text-anchor="middle" x="893" y="-279.5" font-family="Helvetica,sans-Serif" font-size="10.00" fill="#000000">meandiag</text>
</a>
</g>
</g>
<!-- Node19&#45;&gt;Node20 -->
<g id="edge21" class="edge">
<title>Node19&#45;&gt;Node20</title>
<path fill="none" stroke="#191970" d="M792.7742,-282C814.1726,-282 840.2351,-282 860.4191,-282"/>
<polygon fill="#191970" stroke="#191970" points="792.6904,-278.5001 782.6904,-282 792.6904,-285.5001 792.6904,-278.5001"/>
</g>
<!-- Node21 -->
<g id="node20" class="node">
<title>Node21</title>
<g id="a_node20"><a xlink:href="meanctl_8f90.xhtml#a5bbbf6327297fa87e7a0d9b511eb2b00" target="_top" xlink:title="Subroutine: MEANCTL&#45;!&gt; ">
<polygon fill="#ffffff" stroke="#000000" points="973.5,-225.5 973.5,-244.5 1029.5,-244.5 1029.5,-225.5 973.5,-225.5"/>
<text text-anchor="middle" x="1001.5" y="-232.5" font-family="Helvetica,sans-Serif" font-size="10.00" fill="#000000">meanctl</text>
</a>
</g>
</g>
<!-- Node20&#45;&gt;Node21 -->
<g id="edge22" class="edge">
<title>Node20&#45;&gt;Node21</title>
<path fill="none" stroke="#191970" d="M924.2509,-268.4627C941.8221,-260.8513 963.3436,-251.5286 979.2037,-244.6583"/>
<polygon fill="#191970" stroke="#191970" points="922.7414,-265.3023 914.9566,-272.4888 925.5239,-271.7255 922.7414,-265.3023"/>
</g>
<!-- Node21&#45;&gt;Node7 -->
<g id="edge23" class="edge">
<title>Node21&#45;&gt;Node7</title>
<path fill="none" stroke="#191970" d="M1019.0896,-218.4182C1032.4277,-206.3413 1051.5531,-190.0551 1070,-178 1075.1865,-174.6106 1081.0607,-171.3999 1086.6128,-168.6154"/>
<polygon fill="#191970" stroke="#191970" points="1016.5795,-215.9717 1011.5905,-225.3184 1021.3192,-221.1229 1016.5795,-215.9717"/>
</g>
<!-- Node21&#45;&gt;Node11 -->
<g id="edge24" class="edge">
<title>Node21&#45;&gt;Node11</title>
<path fill="none" stroke="#191970" d="M1037.8551,-222.0282C1052.0439,-216.9656 1068.0179,-211.2659 1081.1342,-206.5859"/>
<polygon fill="#191970" stroke="#191970" points="1036.6167,-218.7539 1028.3744,-225.411 1038.9691,-225.3468 1036.6167,-218.7539"/>
</g>
<!-- Node23 -->
<g id="node22" class="node">
<title>Node23</title>
<g id="a_node22"><a xlink:href="namespaceaero__ctl__mod__4a.xhtml#a8be16d3b6d6949cfc2fd32c575e47e76" target="_top" xlink:title="aero_ctl_mod_4a::aero\l_ctl_4a">
<polygon fill="#ffffff" stroke="#000000" points="689,-185 689,-215 817,-215 817,-185 689,-185"/>
<text text-anchor="start" x="697" y="-203" font-family="Helvetica,sans-Serif" font-size="10.00" fill="#000000">aero_ctl_mod_4a::aero</text>
<text text-anchor="middle" x="753" y="-192" font-family="Helvetica,sans-Serif" font-size="10.00" fill="#000000">_ctl_4a</text>
</a>
</g>
</g>
<!-- Node22&#45;&gt;Node23 -->
<g id="edge26" class="edge">
<title>Node22&#45;&gt;Node23</title>
<path fill="none" stroke="#191970" d="M663.1493,-200C671.8175,-200 680.5199,-200 688.914,-200"/>
<polygon fill="#191970" stroke="#191970" points="663.0099,-196.5001 653.0099,-200 663.0098,-203.5001 663.0099,-196.5001"/>
</g>
<!-- Node22&#45;&gt;Node24 -->
<g id="edge28" class="edge">
<title>Node22&#45;&gt;Node24</title>
<path fill="none" stroke="#191970" d="M626.3358,-187.9383C654.3222,-180.8815 689.1584,-172.0976 715.21,-165.5287"/>
<polygon fill="#191970" stroke="#191970" points="625.2046,-184.6138 616.3639,-190.4527 626.9162,-191.4014 625.2046,-184.6138"/>
</g>
<!-- Node23&#45;&gt;Node10 -->
<g id="edge27" class="edge">
<title>Node23&#45;&gt;Node10</title>
<path fill="none" stroke="#191970" d="M827.475,-198.4041C836.1649,-198.2179 844.7626,-198.0337 852.7292,-197.8629"/>
<polygon fill="#191970" stroke="#191970" points="827.1862,-194.9094 817.2635,-198.6229 827.3363,-201.9078 827.1862,-194.9094"/>
</g>
<!-- Node24&#45;&gt;Node6 -->
<g id="edge29" class="edge">
<title>Node24&#45;&gt;Node6</title>
<path fill="none" stroke="#191970" d="M810.878,-157.2402C828.2739,-157.613 846.6999,-158.0079 861.6807,-158.3289"/>
<polygon fill="#191970" stroke="#191970" points="810.8612,-153.7392 800.7885,-157.024 810.7112,-160.7376 810.8612,-153.7392"/>
</g>
<!-- Node24&#45;&gt;Node10 -->
<g id="edge30" class="edge">
<title>Node24&#45;&gt;Node10</title>
<path fill="none" stroke="#191970" d="M795.3377,-168.3989C816.1564,-174.4958 840.8652,-181.7319 860.2204,-187.4003"/>
<polygon fill="#191970" stroke="#191970" points="796.0513,-164.961 785.4707,-165.5093 794.0839,-171.6788 796.0513,-164.961"/>
</g>
<!-- Node24&#45;&gt;Node12 -->
<g id="edge31" class="edge">
<title>Node24&#45;&gt;Node12</title>
<path fill="none" stroke="#191970" d="M799.9865,-143.9177C819.3264,-138.9446 841.3034,-133.2934 859.0373,-128.7333"/>
<polygon fill="#191970" stroke="#191970" points="798.9631,-140.567 790.1499,-146.4472 800.7065,-147.3464 798.9631,-140.567"/>
</g>
<!-- Node26 -->
<g id="node25" class="node">
<title>Node26</title>
<g id="a_node25"><a xlink:href="setcona_8f90.xhtml#a353c87ffe0be2800c2f0bf5d6c40d099" target="_top" xlink:title="LL Subroutine SETCONA!&gt;LL. ">
<polygon fill="#ffffff" stroke="#000000" points="367,-38.5 367,-57.5 422,-57.5 422,-38.5 367,-38.5"/>
<text text-anchor="middle" x="394.5" y="-45.5" font-family="Helvetica,sans-Serif" font-size="10.00" fill="#000000">setcona</text>
</a>
</g>
</g>
<!-- Node25&#45;&gt;Node26 -->
<g id="edge36" class="edge">
<title>Node25&#45;&gt;Node26</title>
<path fill="none" stroke="#191970" d="M260.8744,-48C293.2871,-48 338.1776,-48 366.7805,-48"/>
<polygon fill="#191970" stroke="#191970" points="260.8257,-44.5001 250.8257,-48 260.8257,-51.5001 260.8257,-44.5001"/>
</g>
<!-- Node27 -->
<g id="node26" class="node">
<title>Node27</title>
<g id="a_node26"><a xlink:href="setcona__ctl_8f90.xhtml#a0a2ef213293e6f9a8f60060fc26ed5df" target="_top" xlink:title="Subroutine SETCONA_CTL. ">
<polygon fill="#ffffff" stroke="#000000" points="542.5,-38.5 542.5,-57.5 614.5,-57.5 614.5,-38.5 542.5,-38.5"/>
<text text-anchor="middle" x="578.5" y="-45.5" font-family="Helvetica,sans-Serif" font-size="10.00" fill="#000000">setcona_ctl</text>
</a>
</g>
</g>
<!-- Node26&#45;&gt;Node27 -->
<g id="edge37" class="edge">
<title>Node26&#45;&gt;Node27</title>
<path fill="none" stroke="#191970" d="M432.3968,-48C464.5843,-48 510.4766,-48 542.1999,-48"/>
<polygon fill="#191970" stroke="#191970" points="432.0467,-44.5001 422.0467,-48 432.0466,-51.5001 432.0467,-44.5001"/>
</g>
<!-- Node29 -->
<g id="node28" class="node">
<title>Node29</title>
<g id="a_node28"><a xlink:href="setcona__4_a_8f90.xhtml#ab6beee322d7ff9bca411f17380e33743" target="_top" xlink:title="Subroutine SETCONA (ENDGAME VERSION)!&gt; Purpose : to calculate additional constants derived from...">
<polygon fill="#ffffff" stroke="#000000" points="358.5,-.5 358.5,-19.5 430.5,-19.5 430.5,-.5 358.5,-.5"/>
<text text-anchor="middle" x="394.5" y="-7.5" font-family="Helvetica,sans-Serif" font-size="10.00" fill="#000000">setcona_4a</text>
</a>
</g>
</g>
<!-- Node28&#45;&gt;Node29 -->
<g id="edge39" class="edge">
<title>Node28&#45;&gt;Node29</title>
<path fill="none" stroke="#191970" d="M269.1331,-10C297.3548,-10 332.4275,-10 358.2937,-10"/>
<polygon fill="#191970" stroke="#191970" points="269.0753,-6.5001 259.0753,-10 269.0753,-13.5001 269.0753,-6.5001"/>
</g>
<!-- Node30 -->
<g id="node29" class="node">
<title>Node30</title>
<g id="a_node29"><a xlink:href="setcona__ctl__4_a_8f90.xhtml#aae00cb9b838e6f0f912412753746f414" target="_top" xlink:title="Subroutine SETCONA_CTL (ENDGAME version) ">
<polygon fill="#ffffff" stroke="#000000" points="534,-.5 534,-19.5 623,-19.5 623,-.5 534,-.5"/>
<text text-anchor="middle" x="578.5" y="-7.5" font-family="Helvetica,sans-Serif" font-size="10.00" fill="#000000">setcona_ctl_4a</text>
</a>
</g>
</g>
<!-- Node29&#45;&gt;Node30 -->
<g id="edge40" class="edge">
<title>Node29&#45;&gt;Node30</title>
<path fill="none" stroke="#191970" d="M440.954,-10C469.4068,-10 505.6326,-10 533.7642,-10"/>
<polygon fill="#191970" stroke="#191970" points="440.8525,-6.5001 430.8525,-10 440.8524,-13.5001 440.8525,-6.5001"/>
</g>
</g>
</svg>
