<?xml version="1.0" encoding="UTF-8" standalone="no"?>
<!DOCTYPE svg PUBLIC "-//W3C//DTD SVG 1.1//EN"
 "http://www.w3.org/Graphics/SVG/1.1/DTD/svg11.dtd">
<!-- Generated by graphviz version 2.40.1 (20161225.0304)
 -->
<!-- Title: temphist Pages: 1 -->
<!--zoomable 616 -->
<svg id="main" version="1.1" xmlns="http://www.w3.org/2000/svg" xmlns:xlink="http://www.w3.org/1999/xlink" xml:space="preserve" onload="init(evt)">
<style type="text/css"><![CDATA[
.edge:hover path { stroke: red; }
.edge:hover polygon { stroke: red; fill: red; }
]]></style>
<script type="text/javascript"><![CDATA[
var edges = document.getElementsByTagName('g');
if (edges && edges.length) {
  for (var i=0;i<edges.length;i++) {
    if (edges[i].id.substr(0,4)=='edge') {
      edges[i].setAttribute('class','edge');
    }
  }
}
]]></script>
        <defs>
                <circle id="rim" cx="0" cy="0" r="7"/>
                <circle id="rim2" cx="0" cy="0" r="3.5"/>
                <g id="zoomPlus">
                        <use xlink:href="#rim" fill="#404040">
                                <set attributeName="fill" to="#808080" begin="zoomplus.mouseover" end="zoomplus.mouseout"/>
                        </use>
                        <path d="M-4,0h8M0,-4v8" fill="none" stroke="white" stroke-width="1.5" pointer-events="none"/>
                </g>
                <g id="zoomMin">
                        <use xlink:href="#rim" fill="#404040">
                                <set attributeName="fill" to="#808080" begin="zoomminus.mouseover" end="zoomminus.mouseout"/>
                        </use>
                        <path d="M-4,0h8" fill="none" stroke="white" stroke-width="1.5" pointer-events="none"/>
                </g>
                <g id="dirArrow">
                        <path fill="none" stroke="white" stroke-width="1.5" d="M0,-3.0v7 M-2.5,-0.5L0,-3.0L2.5,-0.5"/>
                </g>
               <g id="resetDef">
                       <use xlink:href="#rim2" fill="#404040">
                               <set attributeName="fill" to="#808080" begin="reset.mouseover" end="reset.mouseout"/>
                       </use>
               </g>
        </defs>

<script type="text/javascript">
var viewWidth = 2005;
var viewHeight = 616;
var sectionId = 'dynsection-0';
</script>
<script xlink:href="svgpan.js"/>
<svg id="graph" class="graph">
<g id="viewport">
<title>temphist</title>
<polygon fill="#ffffff" stroke="transparent" points="-4,4 -4,-611.7414 2001,-611.7414 2001,4 -4,4"/>
<!-- Node0 -->
<g id="node1" class="node">
<title>Node0</title>
<polygon fill="#bfbfbf" stroke="#000000" points="0,-167.5 0,-186.5 60,-186.5 60,-167.5 0,-167.5"/>
<text text-anchor="middle" x="30" y="-174.5" font-family="Helvetica,sans-Serif" font-size="10.00" fill="#000000">temphist</text>
</g>
<!-- Node1 -->
<g id="node2" class="node">
<title>Node1</title>
<g id="a_node2"><a xlink:href="namespacemppio__file__utils.xhtml#ae30e1dea0e4ae774b33b985890b466ac" target="_top" xlink:title="mppio_file_utils::file_copy">
<polygon fill="#ffffff" stroke="#000000" points="96,-167.5 96,-186.5 239,-186.5 239,-167.5 96,-167.5"/>
<text text-anchor="middle" x="167.5" y="-174.5" font-family="Helvetica,sans-Serif" font-size="10.00" fill="#000000">mppio_file_utils::file_copy</text>
</a>
</g>
</g>
<!-- Node0&#45;&gt;Node1 -->
<g id="edge1" class="edge">
<title>Node0&#45;&gt;Node1</title>
<path fill="none" stroke="#191970" d="M60.175,-177C68.0124,-177 76.8387,-177 85.977,-177"/>
<polygon fill="#191970" stroke="#191970" points="85.9836,-180.5001 95.9836,-177 85.9835,-173.5001 85.9836,-180.5001"/>
</g>
<!-- Node2 -->
<g id="node3" class="node">
<title>Node2</title>
<g id="a_node3"><a xlink:href="namespaceumprintmgr.xhtml#aae44897e556705dbf5e945a26538be9a" target="_top" xlink:title="umprintmgr::umprint">
<polygon fill="#ffffff" stroke="#000000" points="1501,-66.5 1501,-85.5 1620,-85.5 1620,-66.5 1501,-66.5"/>
<text text-anchor="middle" x="1560.5" y="-73.5" font-family="Helvetica,sans-Serif" font-size="10.00" fill="#000000">umprintmgr::umprint</text>
</a>
</g>
</g>
<!-- Node0&#45;&gt;Node2 -->
<g id="edge45" class="edge">
<title>Node0&#45;&gt;Node2</title>
<path fill="none" stroke="#191970" d="M38.3221,-167.4837C71.447,-130.719 198.6366,0 332.5,0 332.5,0 332.5,0 1189.5,0 1313.2283,0 1345.19,-9.1091 1465,-40 1487.252,-45.7373 1511.4681,-54.9009 1529.9472,-62.5468"/>
<polygon fill="#191970" stroke="#191970" points="1528.7357,-65.8343 1539.31,-66.4934 1531.4547,-59.3839 1528.7357,-65.8343"/>
</g>
<!-- Node22 -->
<g id="node23" class="node">
<title>Node22</title>
<g id="a_node23"><a xlink:href="namespacemppio__file__utils.xhtml#a915d483d6787ad9a0062c47c12087b6e" target="_top" xlink:title="mppio_file_utils::dir\l_create">
<polygon fill="#ffffff" stroke="#000000" points="111,-323 111,-353 224,-353 224,-323 111,-323"/>
<text text-anchor="start" x="119" y="-341" font-family="Helvetica,sans-Serif" font-size="10.00" fill="#000000">mppio_file_utils::dir</text>
<text text-anchor="middle" x="167.5" y="-330" font-family="Helvetica,sans-Serif" font-size="10.00" fill="#000000">_create</text>
</a>
</g>
</g>
<!-- Node0&#45;&gt;Node22 -->
<g id="edge42" class="edge">
<title>Node0&#45;&gt;Node22</title>
<path fill="none" stroke="#191970" d="M38.1895,-186.5891C59.492,-211.5324 117.1033,-278.99 147.7316,-314.853"/>
<polygon fill="#191970" stroke="#191970" points="145.3892,-317.4996 154.545,-322.8309 150.7122,-312.9536 145.3892,-317.4996"/>
</g>
<!-- Node1&#45;&gt;Node2 -->
<g id="edge2" class="edge">
<title>Node1&#45;&gt;Node2</title>
<path fill="none" stroke="#191970" d="M179.3892,-167.446C219.7088,-136.0419 355.9581,-38 485.5,-38 485.5,-38 485.5,-38 1189.5,-38 1296.0162,-38 1418.8434,-53.6928 1493.0301,-64.9092"/>
<polygon fill="#191970" stroke="#191970" points="1492.7543,-68.4076 1503.1686,-66.46 1493.8128,-61.4881 1492.7543,-68.4076"/>
</g>
<!-- Node6 -->
<g id="node7" class="node">
<title>Node6</title>
<g id="a_node7"><a xlink:href="namespacemppio__file__utils.xhtml#a23a19fab4926671d4eb7443a1ea246df" target="_top" xlink:title="mppio_file_utils::file\l_action">
<polygon fill="#ffffff" stroke="#000000" points="275,-323 275,-353 390,-353 390,-323 275,-323"/>
<text text-anchor="start" x="283" y="-341" font-family="Helvetica,sans-Serif" font-size="10.00" fill="#000000">mppio_file_utils::file</text>
<text text-anchor="middle" x="332.5" y="-330" font-family="Helvetica,sans-Serif" font-size="10.00" fill="#000000">_action</text>
</a>
</g>
</g>
<!-- Node1&#45;&gt;Node6 -->
<g id="edge7" class="edge">
<title>Node1&#45;&gt;Node6</title>
<path fill="none" stroke="#191970" d="M177.3274,-186.5891C203.1061,-211.7429 273.1938,-280.1315 309.7014,-315.7541"/>
<polygon fill="#191970" stroke="#191970" points="307.3523,-318.3521 316.954,-322.8309 312.241,-313.342 307.3523,-318.3521"/>
</g>
<!-- Node3 -->
<g id="node4" class="node">
<title>Node3</title>
<g id="a_node4"><a xlink:href="namespaceumprintmgr.xhtml#a088ce22a18d574e9df7ee1850bfb10c7" target="_top" xlink:title="umprintmgr::umprintopenstream">
<polygon fill="#ffffff" stroke="#000000" points="1656,-66.5 1656,-85.5 1833,-85.5 1833,-66.5 1656,-66.5"/>
<text text-anchor="middle" x="1744.5" y="-73.5" font-family="Helvetica,sans-Serif" font-size="10.00" fill="#000000">umprintmgr::umprintopenstream</text>
</a>
</g>
</g>
<!-- Node2&#45;&gt;Node3 -->
<g id="edge3" class="edge">
<title>Node2&#45;&gt;Node3</title>
<path fill="none" stroke="#191970" d="M1620.2395,-69.6333C1628.4605,-69.4301 1637.0751,-69.3077 1645.7702,-69.2661"/>
<polygon fill="#191970" stroke="#191970" points="1645.9998,-72.7659 1655.9958,-69.2543 1645.9917,-65.7659 1645.9998,-72.7659"/>
</g>
<!-- Node4 -->
<g id="node5" class="node">
<title>Node4</title>
<g id="a_node5"><a xlink:href="namespaceumprintmgr.xhtml#ad3a290b30a6e25500eabc0bf90330b77" target="_top" xlink:title="umprintmgr::umprintflush">
<polygon fill="#ffffff" stroke="#000000" points="1673.5,-28.5 1673.5,-47.5 1815.5,-47.5 1815.5,-28.5 1673.5,-28.5"/>
<text text-anchor="middle" x="1744.5" y="-35.5" font-family="Helvetica,sans-Serif" font-size="10.00" fill="#000000">umprintmgr::umprintflush</text>
</a>
</g>
</g>
<!-- Node2&#45;&gt;Node4 -->
<g id="edge5" class="edge">
<title>Node2&#45;&gt;Node4</title>
<path fill="none" stroke="#191970" d="M1606.931,-66.411C1631.6493,-61.3061 1662.239,-54.9887 1688.292,-49.6082"/>
<polygon fill="#191970" stroke="#191970" points="1689.3175,-52.9703 1698.4029,-47.5201 1687.9017,-46.115 1689.3175,-52.9703"/>
</g>
<!-- Node3&#45;&gt;Node2 -->
<g id="edge4" class="edge">
<title>Node3&#45;&gt;Node2</title>
<path fill="none" stroke="#191970" d="M1655.9958,-82.7457C1647.3802,-82.767 1638.7236,-82.7094 1630.3289,-82.5727"/>
<polygon fill="#191970" stroke="#191970" points="1630.3089,-79.0716 1620.2395,-82.3667 1630.166,-86.0702 1630.3089,-79.0716"/>
</g>
<!-- Node5 -->
<g id="node6" class="node">
<title>Node5</title>
<g id="a_node6"><a xlink:href="namespaceumflush__mod.xhtml#a3a003ab59990bdcb712b443dd5e0d1cd" target="_top" xlink:title="umflush_mod::umflush">
<polygon fill="#ffffff" stroke="#000000" points="1869,-28.5 1869,-47.5 1997,-47.5 1997,-28.5 1869,-28.5"/>
<text text-anchor="middle" x="1933" y="-35.5" font-family="Helvetica,sans-Serif" font-size="10.00" fill="#000000">umflush_mod::umflush</text>
</a>
</g>
</g>
<!-- Node4&#45;&gt;Node5 -->
<g id="edge6" class="edge">
<title>Node4&#45;&gt;Node5</title>
<path fill="none" stroke="#191970" d="M1815.7638,-38C1829.7742,-38 1844.5063,-38 1858.6162,-38"/>
<polygon fill="#191970" stroke="#191970" points="1858.7612,-41.5001 1868.7611,-38 1858.7611,-34.5001 1858.7612,-41.5001"/>
</g>
<!-- Node6&#45;&gt;Node2 -->
<g id="edge41" class="edge">
<title>Node6&#45;&gt;Node2</title>
<path fill="none" stroke="#191970" d="M340.7333,-322.7813C372.2128,-266.8641 491.0144,-76 646,-76 646,-76 646,-76 1189.5,-76 1294.3853,-76 1415.9499,-76 1490.5359,-76"/>
<polygon fill="#191970" stroke="#191970" points="1490.742,-79.5001 1500.7419,-76 1490.7419,-72.5001 1490.742,-79.5001"/>
</g>
<!-- Node7 -->
<g id="node8" class="node">
<title>Node7</title>
<g id="a_node8"><a xlink:href="namespaceios__client__queue.xhtml#afe87459ebf2e7fc1b3915458ad63d06f" target="_top" xlink:title="ios_client_queue::ios\l_init_md">
<polygon fill="#ffffff" stroke="#000000" points="426,-323 426,-353 545,-353 545,-323 426,-323"/>
<text text-anchor="start" x="434" y="-341" font-family="Helvetica,sans-Serif" font-size="10.00" fill="#000000">ios_client_queue::ios</text>
<text text-anchor="middle" x="485.5" y="-330" font-family="Helvetica,sans-Serif" font-size="10.00" fill="#000000">_init_md</text>
</a>
</g>
</g>
<!-- Node6&#45;&gt;Node7 -->
<g id="edge8" class="edge">
<title>Node6&#45;&gt;Node7</title>
<path fill="none" stroke="#191970" d="M390.3427,-338C398.5849,-338 407.1347,-338 415.577,-338"/>
<polygon fill="#191970" stroke="#191970" points="415.7934,-341.5001 425.7934,-338 415.7933,-334.5001 415.7934,-341.5001"/>
</g>
<!-- Node19 -->
<g id="node20" class="node">
<title>Node19</title>
<g id="a_node20"><a xlink:href="namespaceios__client__queue.xhtml#af3464b68647df538f288fdc3f40aaa88" target="_top" xlink:title="ios_client_queue::ios\l_attach_metadata">
<polygon fill="#ffffff" stroke="#000000" points="426,-548 426,-578 545,-578 545,-548 426,-548"/>
<text text-anchor="start" x="434" y="-566" font-family="Helvetica,sans-Serif" font-size="10.00" fill="#000000">ios_client_queue::ios</text>
<text text-anchor="middle" x="485.5" y="-555" font-family="Helvetica,sans-Serif" font-size="10.00" fill="#000000">_attach_metadata</text>
</a>
</g>
</g>
<!-- Node6&#45;&gt;Node19 -->
<g id="edge34" class="edge">
<title>Node6&#45;&gt;Node19</title>
<path fill="none" stroke="#191970" d="M336.1389,-353.1397C345.3873,-388.7412 372.9091,-478.8419 426,-533 429.414,-536.4826 433.3171,-539.6318 437.4556,-542.4628"/>
<polygon fill="#191970" stroke="#191970" points="435.8467,-545.5821 446.1998,-547.8322 439.5096,-539.6169 435.8467,-545.5821"/>
</g>
<!-- Node20 -->
<g id="node21" class="node">
<title>Node20</title>
<g id="a_node21"><a xlink:href="namespaceios__client__queue.xhtml#ad45a47e6cd283c6c4b4e7a3a45dd37a6" target="_top" xlink:title="ios_client_queue::ios_send">
<polygon fill="#ffffff" stroke="#000000" points="747,-496.5 747,-515.5 894,-515.5 894,-496.5 747,-496.5"/>
<text text-anchor="middle" x="820.5" y="-503.5" font-family="Helvetica,sans-Serif" font-size="10.00" fill="#000000">ios_client_queue::ios_send</text>
</a>
</g>
</g>
<!-- Node6&#45;&gt;Node20 -->
<g id="edge35" class="edge">
<title>Node6&#45;&gt;Node20</title>
<path fill="none" stroke="#191970" d="M354.6275,-353.1139C396.6838,-381.0538 491.9301,-440.6076 581,-470 631.3124,-486.6027 690.1194,-495.5831 736.8698,-500.4224"/>
<polygon fill="#191970" stroke="#191970" points="736.6615,-503.9188 746.958,-501.4222 737.3519,-496.9529 736.6615,-503.9188"/>
</g>
<!-- Node8 -->
<g id="node9" class="node">
<title>Node8</title>
<g id="a_node9"><a xlink:href="namespaceios__common.xhtml#a31ef4cb4de4333384dba3e441df47903" target="_top" xlink:title="ios_common::assert\l_client">
<polygon fill="#ffffff" stroke="#000000" points="588.5,-345 588.5,-375 703.5,-375 703.5,-345 588.5,-345"/>
<text text-anchor="start" x="596.5" y="-363" font-family="Helvetica,sans-Serif" font-size="10.00" fill="#000000">ios_common::assert</text>
<text text-anchor="middle" x="646" y="-352" font-family="Helvetica,sans-Serif" font-size="10.00" fill="#000000">_client</text>
</a>
</g>
</g>
<!-- Node7&#45;&gt;Node8 -->
<g id="edge9" class="edge">
<title>Node7&#45;&gt;Node8</title>
<path fill="none" stroke="#191970" d="M545.2643,-346.192C556.0457,-347.6698 567.3558,-349.2201 578.343,-350.7261"/>
<polygon fill="#191970" stroke="#191970" points="577.9353,-354.2029 588.318,-352.0934 578.886,-347.2678 577.9353,-354.2029"/>
</g>
<!-- Node9 -->
<g id="node10" class="node">
<title>Node9</title>
<g id="a_node10"><a xlink:href="namespaceios__common.xhtml#a4b4c79405dd73494ae58cbf0e4f1658b" target="_top" xlink:title="ios_common::ios_ereport">
<polygon fill="#ffffff" stroke="#000000" points="933,-306.5 933,-325.5 1073,-325.5 1073,-306.5 933,-306.5"/>
<text text-anchor="middle" x="1003" y="-313.5" font-family="Helvetica,sans-Serif" font-size="10.00" fill="#000000">ios_common::ios_ereport</text>
</a>
</g>
</g>
<!-- Node7&#45;&gt;Node9 -->
<g id="edge18" class="edge">
<title>Node7&#45;&gt;Node9</title>
<path fill="none" stroke="#191970" d="M545.1164,-335.4656C638.2263,-331.5073 818.2938,-323.8522 922.7247,-319.4127"/>
<polygon fill="#191970" stroke="#191970" points="923.0574,-322.9018 932.8996,-318.9801 922.76,-315.9081 923.0574,-322.9018"/>
</g>
<!-- Node10 -->
<g id="node11" class="node">
<title>Node10</title>
<g id="a_node11"><a xlink:href="namespaceios__print__mgr.xhtml#abd09d7fc0d2381103fd0889b447f4995" target="_top" xlink:title="ios_print_mgr::ios\l_print">
<polygon fill="#ffffff" stroke="#000000" points="1332,-204 1332,-234 1436,-234 1436,-204 1332,-204"/>
<text text-anchor="start" x="1340" y="-222" font-family="Helvetica,sans-Serif" font-size="10.00" fill="#000000">ios_print_mgr::ios</text>
<text text-anchor="middle" x="1384" y="-211" font-family="Helvetica,sans-Serif" font-size="10.00" fill="#000000">_print</text>
</a>
</g>
</g>
<!-- Node7&#45;&gt;Node10 -->
<g id="edge17" class="edge">
<title>Node7&#45;&gt;Node10</title>
<path fill="none" stroke="#191970" d="M489.338,-322.7568C498.72,-288.8011 526.1626,-206.7329 581,-166 668.4411,-101.0493 711.5755,-114 820.5,-114 820.5,-114 820.5,-114 1003,-114 1130.7827,-114 1274.2885,-169.572 1343.0103,-199.8587"/>
<polygon fill="#191970" stroke="#191970" points="1341.6428,-203.0811 1352.2015,-203.9561 1344.493,-196.6876 1341.6428,-203.0811"/>
</g>
<!-- Node12 -->
<g id="node13" class="node">
<title>Node12</title>
<g id="a_node13"><a xlink:href="namespaceios__common.xhtml#a9cbfffb6c02387dc317575ab449918b6" target="_top" xlink:title="ios_common::ios_actionname">
<polygon fill="#ffffff" stroke="#000000" points="1303,-496.5 1303,-515.5 1465,-515.5 1465,-496.5 1303,-496.5"/>
<text text-anchor="middle" x="1384" y="-503.5" font-family="Helvetica,sans-Serif" font-size="10.00" fill="#000000">ios_common::ios_actionname</text>
</a>
</g>
</g>
<!-- Node7&#45;&gt;Node12 -->
<g id="edge16" class="edge">
<title>Node7&#45;&gt;Node12</title>
<path fill="none" stroke="#191970" d="M492.4145,-353.0336C505.7072,-380.3094 537.4167,-438.0749 581,-470 643.7,-515.9283 670.2705,-512.6197 747,-525 949.9803,-557.7508 1193.9355,-532.9411 1312.4167,-516.8807"/>
<polygon fill="#191970" stroke="#191970" points="1313.0227,-520.3304 1322.4525,-515.5004 1312.0689,-513.3957 1313.0227,-520.3304"/>
</g>
<!-- Node13 -->
<g id="node14" class="node">
<title>Node13</title>
<g id="a_node14"><a xlink:href="namespaceios__client__queue.xhtml#a8113f81d94a6b3ff7dded6fcd66952a3" target="_top" xlink:title="ios_client_queue::ios\l_querybuffer">
<polygon fill="#ffffff" stroke="#000000" points="761,-143 761,-173 880,-173 880,-143 761,-143"/>
<text text-anchor="start" x="769" y="-161" font-family="Helvetica,sans-Serif" font-size="10.00" fill="#000000">ios_client_queue::ios</text>
<text text-anchor="middle" x="820.5" y="-150" font-family="Helvetica,sans-Serif" font-size="10.00" fill="#000000">_querybuffer</text>
</a>
</g>
</g>
<!-- Node7&#45;&gt;Node13 -->
<g id="edge19" class="edge">
<title>Node7&#45;&gt;Node13</title>
<path fill="none" stroke="#191970" d="M492.8726,-322.8195C506.4603,-296.5229 538.0407,-242.6644 581,-215 632.0164,-182.147 700.1057,-168.2024 750.642,-162.2979"/>
<polygon fill="#191970" stroke="#191970" points="751.2635,-165.751 760.8256,-161.1885 750.5054,-158.7922 751.2635,-165.751"/>
</g>
<!-- Node15 -->
<g id="node16" class="node">
<title>Node15</title>
<g id="a_node16"><a xlink:href="namespaceios__common.xhtml#a66b4e97a85f71f85bc4f53af5819c234" target="_top" xlink:title="ios_common::io_server\l_for_unit">
<polygon fill="#ffffff" stroke="#000000" points="581,-394 581,-424 711,-424 711,-394 581,-394"/>
<text text-anchor="start" x="589" y="-412" font-family="Helvetica,sans-Serif" font-size="10.00" fill="#000000">ios_common::io_server</text>
<text text-anchor="middle" x="646" y="-401" font-family="Helvetica,sans-Serif" font-size="10.00" fill="#000000">_for_unit</text>
</a>
</g>
</g>
<!-- Node7&#45;&gt;Node15 -->
<g id="edge25" class="edge">
<title>Node7&#45;&gt;Node15</title>
<path fill="none" stroke="#191970" d="M514.3922,-353.1932C533.1473,-362.812 558.2465,-375.2314 581,-385 585.0899,-386.7559 589.3553,-388.5055 593.6602,-390.2141"/>
<polygon fill="#191970" stroke="#191970" points="592.5054,-393.5202 603.0943,-393.8752 595.038,-386.9944 592.5054,-393.5202"/>
</g>
<!-- Node17 -->
<g id="node18" class="node">
<title>Node17</title>
<g id="a_node18"><a xlink:href="namespaceios__common.xhtml#a7ff67c62d278ec0aad0a979c736996c9" target="_top" xlink:title="ios_common::ioserverno">
<polygon fill="#ffffff" stroke="#000000" points="934.5,-382.5 934.5,-401.5 1071.5,-401.5 1071.5,-382.5 934.5,-382.5"/>
<text text-anchor="middle" x="1003" y="-389.5" font-family="Helvetica,sans-Serif" font-size="10.00" fill="#000000">ios_common::ioserverno</text>
</a>
</g>
</g>
<!-- Node7&#45;&gt;Node17 -->
<g id="edge28" class="edge">
<title>Node7&#45;&gt;Node17</title>
<path fill="none" stroke="#191970" d="M495.3703,-353.2337C510.6927,-375.4117 542.4848,-415.9119 581,-434 707.061,-493.2028 764.2032,-499.4889 894,-449 914.2286,-441.1314 911.2704,-426.9687 930,-416 937.4469,-411.6388 945.7914,-407.9493 954.1044,-404.8704"/>
<polygon fill="#191970" stroke="#191970" points="955.4782,-408.099 963.793,-401.5329 953.1983,-401.4807 955.4782,-408.099"/>
</g>
<!-- Node18 -->
<g id="node19" class="node">
<title>Node18</title>
<g id="a_node19"><a xlink:href="namespaceios__client__queue.xhtml#a9b6ce597cb41097a50bacde8955fa2e7" target="_top" xlink:title="ios_client_queue::ios\l_consume_client_mem">
<polygon fill="#ffffff" stroke="#000000" points="581.5,-225 581.5,-255 710.5,-255 710.5,-225 581.5,-225"/>
<text text-anchor="start" x="589.5" y="-243" font-family="Helvetica,sans-Serif" font-size="10.00" fill="#000000">ios_client_queue::ios</text>
<text text-anchor="middle" x="646" y="-232" font-family="Helvetica,sans-Serif" font-size="10.00" fill="#000000">_consume_client_mem</text>
</a>
</g>
</g>
<!-- Node7&#45;&gt;Node18 -->
<g id="edge29" class="edge">
<title>Node7&#45;&gt;Node18</title>
<path fill="none" stroke="#191970" d="M510.2264,-322.9023C537.6775,-306.1408 582.1301,-278.9984 612.6458,-260.3658"/>
<polygon fill="#191970" stroke="#191970" points="614.5347,-263.3134 621.2455,-255.1149 610.8868,-257.339 614.5347,-263.3134"/>
</g>
<!-- Node8&#45;&gt;Node9 -->
<g id="edge10" class="edge">
<title>Node8&#45;&gt;Node9</title>
<path fill="none" stroke="#191970" d="M703.6426,-353.1488C753.9151,-347.1445 828.8003,-338.1306 894,-330 903.3442,-328.8348 913.1369,-327.5984 922.8578,-326.3618"/>
<polygon fill="#191970" stroke="#191970" points="923.4634,-329.813 932.9402,-325.0759 922.5777,-322.8692 923.4634,-329.813"/>
</g>
<!-- Node9&#45;&gt;Node10 -->
<g id="edge11" class="edge">
<title>Node9&#45;&gt;Node10</title>
<path fill="none" stroke="#191970" d="M1047.1104,-306.4902C1099.6943,-294.9579 1190.1222,-274.5063 1267,-254 1286.451,-248.8117 1307.5683,-242.6573 1326.4401,-236.9672"/>
<polygon fill="#191970" stroke="#191970" points="1327.5304,-240.294 1336.0835,-234.0415 1325.4981,-233.5955 1327.5304,-240.294"/>
</g>
<!-- Node11 -->
<g id="node12" class="node">
<title>Node11</title>
<g id="a_node12"><a xlink:href="namespaceios__common.xhtml#ade38472c488c019e816ec75cb70ab3cc" target="_top" xlink:title="ios_common::ios_report_md">
<polygon fill="#ffffff" stroke="#000000" points="1112,-306.5 1112,-325.5 1267,-325.5 1267,-306.5 1112,-306.5"/>
<text text-anchor="middle" x="1189.5" y="-313.5" font-family="Helvetica,sans-Serif" font-size="10.00" fill="#000000">ios_common::ios_report_md</text>
</a>
</g>
</g>
<!-- Node9&#45;&gt;Node11 -->
<g id="edge13" class="edge">
<title>Node9&#45;&gt;Node11</title>
<path fill="none" stroke="#191970" d="M1073.2419,-316C1082.493,-316 1092.0663,-316 1101.5659,-316"/>
<polygon fill="#191970" stroke="#191970" points="1101.8262,-319.5001 1111.8262,-316 1101.8262,-312.5001 1101.8262,-319.5001"/>
</g>
<!-- Node10&#45;&gt;Node2 -->
<g id="edge12" class="edge">
<title>Node10&#45;&gt;Node2</title>
<path fill="none" stroke="#191970" d="M1402.555,-203.9668C1436.008,-176.8632 1506.1448,-120.0385 1540.5731,-92.1448"/>
<polygon fill="#191970" stroke="#191970" points="1542.946,-94.7268 1548.5126,-85.7122 1538.5394,-89.2879 1542.946,-94.7268"/>
</g>
<!-- Node11&#45;&gt;Node10 -->
<g id="edge14" class="edge">
<title>Node11&#45;&gt;Node10</title>
<path fill="none" stroke="#191970" d="M1227.2793,-306.421C1240.1485,-302.6057 1254.4477,-297.7426 1267,-292 1298.6608,-277.5153 1332.1057,-255.9307 1355.0913,-239.9865"/>
<polygon fill="#191970" stroke="#191970" points="1357.1903,-242.7894 1363.3631,-234.1785 1353.1678,-237.0605 1357.1903,-242.7894"/>
</g>
<!-- Node11&#45;&gt;Node12 -->
<g id="edge15" class="edge">
<title>Node11&#45;&gt;Node12</title>
<path fill="none" stroke="#191970" d="M1199.4127,-325.6833C1230.5547,-356.1048 1326.7134,-450.0388 1366.4945,-488.8995"/>
<polygon fill="#191970" stroke="#191970" points="1364.2749,-491.6241 1373.874,-496.1083 1369.1664,-486.6168 1364.2749,-491.6241"/>
</g>
<!-- Node13&#45;&gt;Node9 -->
<g id="edge24" class="edge">
<title>Node13&#45;&gt;Node9</title>
<path fill="none" stroke="#191970" d="M837.9989,-173.1497C872.3579,-202.8962 948.3852,-268.717 983.9548,-299.5116"/>
<polygon fill="#191970" stroke="#191970" points="981.836,-302.3066 991.6872,-306.2059 986.4177,-297.0144 981.836,-302.3066"/>
</g>
<!-- Node13&#45;&gt;Node10 -->
<g id="edge20" class="edge">
<title>Node13&#45;&gt;Node10</title>
<path fill="none" stroke="#191970" d="M880.2462,-159.4404C932.1023,-161.0723 1009.1459,-164.4139 1076,-171 1161.3829,-179.4115 1182.2648,-185.5487 1267,-199 1284.7788,-201.8223 1304.0477,-205.0473 1321.7195,-208.0715"/>
<polygon fill="#191970" stroke="#191970" points="1321.468,-211.5795 1331.9165,-209.8243 1322.654,-204.6807 1321.468,-211.5795"/>
</g>
<!-- Node14 -->
<g id="node15" class="node">
<title>Node14</title>
<g id="a_node15"><a xlink:href="namespaceios__client__queue.xhtml#a9df32aa21836ca6d0c9912866fc9a3e8" target="_top" xlink:title="ios_client_queue::ios\l_print_protocol_slot">
<polygon fill="#ffffff" stroke="#000000" points="943.5,-181 943.5,-211 1062.5,-211 1062.5,-181 943.5,-181"/>
<text text-anchor="start" x="951.5" y="-199" font-family="Helvetica,sans-Serif" font-size="10.00" fill="#000000">ios_client_queue::ios</text>
<text text-anchor="middle" x="1003" y="-188" font-family="Helvetica,sans-Serif" font-size="10.00" fill="#000000">_print_protocol_slot</text>
</a>
</g>
</g>
<!-- Node13&#45;&gt;Node14 -->
<g id="edge21" class="edge">
<title>Node13&#45;&gt;Node14</title>
<path fill="none" stroke="#191970" d="M880.0048,-170.39C896.9605,-173.9205 915.5868,-177.7989 933.1012,-181.4457"/>
<polygon fill="#191970" stroke="#191970" points="932.7604,-184.9498 943.2639,-183.5618 934.1874,-178.0967 932.7604,-184.9498"/>
</g>
<!-- Node14&#45;&gt;Node10 -->
<g id="edge22" class="edge">
<title>Node14&#45;&gt;Node10</title>
<path fill="none" stroke="#191970" d="M1062.5313,-199.5938C1133.0471,-203.8506 1249.9671,-210.9088 1321.6803,-215.2379"/>
<polygon fill="#191970" stroke="#191970" points="1321.7292,-218.7472 1331.922,-215.8562 1322.1511,-211.7599 1321.7292,-218.7472"/>
</g>
<!-- Node14&#45;&gt;Node11 -->
<g id="edge23" class="edge">
<title>Node14&#45;&gt;Node11</title>
<path fill="none" stroke="#191970" d="M1026.6204,-211.1981C1062.4309,-234.2397 1130.0714,-277.7617 1165.8811,-300.8028"/>
<polygon fill="#191970" stroke="#191970" points="1164.3697,-303.9922 1174.6731,-306.4599 1168.1574,-298.1055 1164.3697,-303.9922"/>
</g>
<!-- Node15&#45;&gt;Node9 -->
<g id="edge26" class="edge">
<title>Node15&#45;&gt;Node9</title>
<path fill="none" stroke="#191970" d="M711.1663,-395.7565C761.4282,-385.1247 832.5174,-369.1785 894,-352 918.5232,-345.1481 945.7184,-336.1685 966.8101,-328.8917"/>
<polygon fill="#191970" stroke="#191970" points="968.042,-332.169 976.337,-325.5777 965.7422,-325.5575 968.042,-332.169"/>
</g>
<!-- Node16 -->
<g id="node17" class="node">
<title>Node16</title>
<g id="a_node17"><a xlink:href="namespaceios__common.xhtml#a2c973e11abf690e8e0215ca4d7e669de" target="_top" xlink:title="ios_common::l_ios_active">
<polygon fill="#ffffff" stroke="#000000" points="749,-420.5 749,-439.5 892,-439.5 892,-420.5 749,-420.5"/>
<text text-anchor="middle" x="820.5" y="-427.5" font-family="Helvetica,sans-Serif" font-size="10.00" fill="#000000">ios_common::l_ios_active</text>
</a>
</g>
</g>
<!-- Node15&#45;&gt;Node16 -->
<g id="edge27" class="edge">
<title>Node15&#45;&gt;Node16</title>
<path fill="none" stroke="#191970" d="M711.4738,-416.8794C720.3272,-417.9448 729.5002,-419.0487 738.5955,-420.1433"/>
<polygon fill="#191970" stroke="#191970" points="738.4635,-423.6526 748.8101,-421.3726 739.2999,-416.7027 738.4635,-423.6526"/>
</g>
<!-- Node18&#45;&gt;Node9 -->
<g id="edge30" class="edge">
<title>Node18&#45;&gt;Node9</title>
<path fill="none" stroke="#191970" d="M710.65,-253.763C778.645,-268.2381 884.4671,-290.7661 948.4119,-304.379"/>
<polygon fill="#191970" stroke="#191970" points="947.7932,-307.8257 958.3029,-306.4846 949.2508,-300.9791 947.7932,-307.8257"/>
</g>
<!-- Node18&#45;&gt;Node10 -->
<g id="edge31" class="edge">
<title>Node18&#45;&gt;Node10</title>
<path fill="none" stroke="#191970" d="M710.5234,-238.164C851.0033,-234.1666 1183.0262,-224.7188 1321.5754,-220.7763"/>
<polygon fill="#191970" stroke="#191970" points="1321.7112,-224.274 1331.6075,-220.4908 1321.512,-217.2768 1321.7112,-224.274"/>
</g>
<!-- Node18&#45;&gt;Node13 -->
<g id="edge32" class="edge">
<title>Node18&#45;&gt;Node13</title>
<path fill="none" stroke="#191970" d="M673.5412,-224.9881C693.6665,-214.2237 721.7405,-199.6302 747,-188 755.0954,-184.2727 763.7907,-180.5142 772.2663,-176.9782"/>
<polygon fill="#191970" stroke="#191970" points="773.7846,-180.1382 781.6984,-173.0939 771.119,-173.6655 773.7846,-180.1382"/>
</g>
<!-- Node18&#45;&gt;Node14 -->
<g id="edge33" class="edge">
<title>Node18&#45;&gt;Node14</title>
<path fill="none" stroke="#191970" d="M710.6292,-230.8351C722.7104,-229.1805 735.2352,-227.5046 747,-226 810.0435,-217.9376 881.933,-209.587 933.4472,-203.7497"/>
<polygon fill="#191970" stroke="#191970" points="933.9263,-207.2179 943.4697,-202.6166 933.1398,-200.2622 933.9263,-207.2179"/>
</g>
<!-- Node20&#45;&gt;Node9 -->
<g id="edge40" class="edge">
<title>Node20&#45;&gt;Node9</title>
<path fill="none" stroke="#191970" d="M836.9295,-496.4624C853.1533,-486.3723 877.819,-469.1423 894,-449 917.4076,-419.862 906.6407,-402.1767 930,-373 943.4411,-356.2115 962.7638,-341.4066 978.1533,-331.0954"/>
<polygon fill="#191970" stroke="#191970" points="980.1997,-333.9399 986.6857,-325.5625 976.3911,-328.0667 980.1997,-333.9399"/>
</g>
<!-- Node20&#45;&gt;Node10 -->
<g id="edge38" class="edge">
<title>Node20&#45;&gt;Node10</title>
<path fill="none" stroke="#191970" d="M855.6991,-496.4892C868.2384,-492.3508 882.1736,-486.8573 894,-480 912.2662,-469.4087 911.2985,-458.8021 930,-449 989.3878,-417.8729 1012.283,-431.8794 1076,-411 1162.8197,-382.5501 1190.574,-385.0613 1267,-335 1306.7701,-308.9494 1344.218,-267.8274 1365.5945,-242.186"/>
<polygon fill="#191970" stroke="#191970" points="1368.5693,-244.0782 1372.2079,-234.1278 1363.1583,-239.6373 1368.5693,-244.0782"/>
</g>
<!-- Node20&#45;&gt;Node12 -->
<g id="edge39" class="edge">
<title>Node20&#45;&gt;Node12</title>
<path fill="none" stroke="#191970" d="M894.1678,-506C996.4338,-506 1181.3358,-506 1292.3771,-506"/>
<polygon fill="#191970" stroke="#191970" points="1292.5561,-509.5001 1302.5561,-506 1292.556,-502.5001 1292.5561,-509.5001"/>
</g>
<!-- Node20&#45;&gt;Node17 -->
<g id="edge36" class="edge">
<title>Node20&#45;&gt;Node17</title>
<path fill="none" stroke="#191970" d="M867.5437,-496.4852C876.9973,-493.0342 886.3613,-488.35 894,-482 919.6945,-460.6403 904.3271,-437.3856 930,-416 934.9779,-411.8534 940.6941,-408.4164 946.6894,-405.5689"/>
<polygon fill="#191970" stroke="#191970" points="948.3978,-408.6483 956.2743,-401.5623 945.6981,-402.1899 948.3978,-408.6483"/>
</g>
<!-- Node21 -->
<g id="node22" class="node">
<title>Node21</title>
<g id="a_node22"><a xlink:href="namespaceios__common.xhtml#a3976806ac3c1c9b09b572dff6c77d79f" target="_top" xlink:title="ios_common::ioserverrank">
<polygon fill="#ffffff" stroke="#000000" points="930,-458.5 930,-477.5 1076,-477.5 1076,-458.5 930,-458.5"/>
<text text-anchor="middle" x="1003" y="-465.5" font-family="Helvetica,sans-Serif" font-size="10.00" fill="#000000">ios_common::ioserverrank</text>
</a>
</g>
</g>
<!-- Node20&#45;&gt;Node21 -->
<g id="edge37" class="edge">
<title>Node20&#45;&gt;Node21</title>
<path fill="none" stroke="#191970" d="M866.5525,-496.411C891.0692,-491.3061 921.4096,-484.9887 947.2502,-479.6082"/>
<polygon fill="#191970" stroke="#191970" points="948.2022,-482.9851 957.2787,-477.5201 946.7752,-476.1321 948.2022,-482.9851"/>
</g>
<!-- Node22&#45;&gt;Node2 -->
<g id="edge43" class="edge">
<title>Node22&#45;&gt;Node2</title>
<path fill="none" stroke="#191970" d="M175.584,-353.2333C207.0024,-410.1386 327.1374,-607 485.5,-607 485.5,-607 485.5,-607 1189.5,-607 1317.253,-607 1378.3365,-618.863 1465,-525 1524.5219,-460.5334 1552.3043,-174.7777 1558.9113,-96.1082"/>
<polygon fill="#191970" stroke="#191970" points="1562.4366,-95.9397 1559.7628,-85.6878 1555.4599,-95.3695 1562.4366,-95.9397"/>
</g>
<!-- Node22&#45;&gt;Node6 -->
<g id="edge44" class="edge">
<title>Node22&#45;&gt;Node6</title>
<path fill="none" stroke="#191970" d="M224.2836,-338C237.2835,-338 251.2298,-338 264.6427,-338"/>
<polygon fill="#191970" stroke="#191970" points="264.7711,-341.5001 274.7711,-338 264.7711,-334.5001 264.7711,-341.5001"/>
</g>
</g>
</svg>
        <g id="navigator" transform="translate(0 0)" fill="#404254">
                <rect fill="#f2f5e9" fill-opacity="0.5" stroke="#606060" stroke-width=".5" x="0" y="0" width="60" height="60"/>
                <use id="zoomplus" xlink:href="#zoomPlus" x="17" y="9" onmousedown="handleZoom(evt,'in')"/>
                <use id="zoomminus" xlink:href="#zoomMin" x="42" y="9" onmousedown="handleZoom(evt,'out')"/>
                <use id="reset" xlink:href="#resetDef" x="30" y="36" onmousedown="handleReset()"/>
                <g id="arrowUp" xlink:href="#dirArrow" transform="translate(30 24)" onmousedown="handlePan(0,-1)">
                  <use xlink:href="#rim" fill="#404040">
                        <set attributeName="fill" to="#808080" begin="arrowUp.mouseover" end="arrowUp.mouseout"/>
                  </use>
                  <path fill="none" stroke="white" stroke-width="1.5" d="M0,-3.0v7 M-2.5,-0.5L0,-3.0L2.5,-0.5"/>
                </g>
                <g id="arrowRight" xlink:href="#dirArrow" transform="rotate(90) translate(36 -43)" onmousedown="handlePan(1,0)">
                  <use xlink:href="#rim" fill="#404040">
                        <set attributeName="fill" to="#808080" begin="arrowRight.mouseover" end="arrowRight.mouseout"/>
                  </use>
                  <path fill="none" stroke="white" stroke-width="1.5" d="M0,-3.0v7 M-2.5,-0.5L0,-3.0L2.5,-0.5"/>
                </g>
                <g id="arrowDown" xlink:href="#dirArrow" transform="rotate(180) translate(-30 -48)" onmousedown="handlePan(0,1)">
                  <use xlink:href="#rim" fill="#404040">
                        <set attributeName="fill" to="#808080" begin="arrowDown.mouseover" end="arrowDown.mouseout"/>
                  </use>
                  <path fill="none" stroke="white" stroke-width="1.5" d="M0,-3.0v7 M-2.5,-0.5L0,-3.0L2.5,-0.5"/>
                </g>
                <g id="arrowLeft" xlink:href="#dirArrow" transform="rotate(270) translate(-36 17)" onmousedown="handlePan(-1,0)">
                  <use xlink:href="#rim" fill="#404040">
                        <set attributeName="fill" to="#808080" begin="arrowLeft.mouseover" end="arrowLeft.mouseout"/>
                  </use>
                  <path fill="none" stroke="white" stroke-width="1.5" d="M0,-3.0v7 M-2.5,-0.5L0,-3.0L2.5,-0.5"/>
                </g>
        </g>
        <svg viewBox="0 0 15 15" width="100%" height="30px" preserveAspectRatio="xMaxYMin meet">
         <g id="arrow_out" transform="scale(0.3 0.3)">
          <a xlink:href="temphist_8f90_a4bcbe6438654eaf785414c7294a25c75_cgraph_org.svg" target="_base">
           <rect id="button" ry="5" rx="5" y="6" x="6" height="38" width="38"
                fill="#f2f5e9" fill-opacity="0.5" stroke="#606060" stroke-width="1.0"/>
           <path id="arrow"
             d="M 11.500037,31.436501 C 11.940474,20.09759 22.043105,11.32322 32.158766,21.979434 L 37.068811,17.246167 C 37.068811,17.246167 37.088388,32 37.088388,32 L 22.160133,31.978069 C 22.160133,31.978069 26.997745,27.140456 26.997745,27.140456 C 18.528582,18.264221 13.291696,25.230495 11.500037,31.436501 z"
             style="fill:#404040;"/>
          </a>
         </g>
        </svg>
</svg>
