<?xml version="1.0" encoding="UTF-8" standalone="no"?>
<!DOCTYPE svg PUBLIC "-//W3C//DTD SVG 1.1//EN"
 "http://www.w3.org/Graphics/SVG/1.1/DTD/svg11.dtd">
<!-- Generated by graphviz version 2.40.1 (20161225.0304)
 -->
<!-- Title: thetar_4a5a Pages: 1 -->
<!--zoomable 256 -->
<svg id="main" version="1.1" xmlns="http://www.w3.org/2000/svg" xmlns:xlink="http://www.w3.org/1999/xlink" xml:space="preserve" onload="init(evt)">
<style type="text/css"><![CDATA[
.edge:hover path { stroke: red; }
.edge:hover polygon { stroke: red; fill: red; }
]]></style>
<script type="text/javascript"><![CDATA[
var edges = document.getElementsByTagName('g');
if (edges && edges.length) {
  for (var i=0;i<edges.length;i++) {
    if (edges[i].id.substr(0,4)=='edge') {
      edges[i].setAttribute('class','edge');
    }
  }
}
]]></script>
        <defs>
                <circle id="rim" cx="0" cy="0" r="7"/>
                <circle id="rim2" cx="0" cy="0" r="3.5"/>
                <g id="zoomPlus">
                        <use xlink:href="#rim" fill="#404040">
                                <set attributeName="fill" to="#808080" begin="zoomplus.mouseover" end="zoomplus.mouseout"/>
                        </use>
                        <path d="M-4,0h8M0,-4v8" fill="none" stroke="white" stroke-width="1.5" pointer-events="none"/>
                </g>
                <g id="zoomMin">
                        <use xlink:href="#rim" fill="#404040">
                                <set attributeName="fill" to="#808080" begin="zoomminus.mouseover" end="zoomminus.mouseout"/>
                        </use>
                        <path d="M-4,0h8" fill="none" stroke="white" stroke-width="1.5" pointer-events="none"/>
                </g>
                <g id="dirArrow">
                        <path fill="none" stroke="white" stroke-width="1.5" d="M0,-3.0v7 M-2.5,-0.5L0,-3.0L2.5,-0.5"/>
                </g>
               <g id="resetDef">
                       <use xlink:href="#rim2" fill="#404040">
                               <set attributeName="fill" to="#808080" begin="reset.mouseover" end="reset.mouseout"/>
                       </use>
               </g>
        </defs>

<script type="text/javascript">
var viewWidth = 1403;
var viewHeight = 256;
var sectionId = 'dynsection-1';
</script>
<script xlink:href="svgpan.js"/>
<svg id="graph" class="graph">
<g id="viewport">
<title>thetar_4a5a</title>
<polygon fill="#ffffff" stroke="transparent" points="-4,4 -4,-252 1399,-252 1399,4 -4,4"/>
<!-- Node2 -->
<g id="node1" class="node">
<title>Node2</title>
<polygon fill="#bfbfbf" stroke="#000000" points="0,-114.5 0,-133.5 75,-133.5 75,-114.5 0,-114.5"/>
<text text-anchor="middle" x="37.5" y="-121.5" font-family="Helvetica,sans-Serif" font-size="10.00" fill="#000000">thetar_4a5a</text>
</g>
<!-- Node3 -->
<g id="node2" class="node">
<title>Node3</title>
<g id="a_node2"><a xlink:href="detrain-detrai4a_8f90.xhtml#ad61df286e88aa4c333debed73820a669" target="_top" xlink:title="forced detrainment calculation ">
<polygon fill="#ffffff" stroke="#000000" points="111,-114.5 111,-133.5 191,-133.5 191,-114.5 111,-114.5"/>
<text text-anchor="middle" x="151" y="-121.5" font-family="Helvetica,sans-Serif" font-size="10.00" fill="#000000">detrain_4a5a</text>
</a>
</g>
</g>
<!-- Node2&#45;&gt;Node3 -->
<g id="edge1" class="edge">
<title>Node2&#45;&gt;Node3</title>
<path fill="none" stroke="#191970" d="M85.3713,-124C93.7835,-124 102.4627,-124 110.6446,-124"/>
<polygon fill="#191970" stroke="#191970" points="85.2939,-120.5001 75.2939,-124 85.2938,-127.5001 85.2939,-120.5001"/>
</g>
<!-- Node4 -->
<g id="node3" class="node">
<title>Node4</title>
<g id="a_node3"><a xlink:href="parcel-parcel4a_8f90.xhtml#a0a5729491c30601478bf7dba9a99d975" target="_top" xlink:title="Completes lifting of the parcel from layer k to k+1. ">
<polygon fill="#ffffff" stroke="#000000" points="227,-114.5 227,-133.5 303,-133.5 303,-114.5 227,-114.5"/>
<text text-anchor="middle" x="265" y="-121.5" font-family="Helvetica,sans-Serif" font-size="10.00" fill="#000000">parcel_4a5a</text>
</a>
</g>
</g>
<!-- Node3&#45;&gt;Node4 -->
<g id="edge2" class="edge">
<title>Node3&#45;&gt;Node4</title>
<path fill="none" stroke="#191970" d="M201.3998,-124C209.891,-124 218.5803,-124 226.7002,-124"/>
<polygon fill="#191970" stroke="#191970" points="201.1922,-120.5001 191.1921,-124 201.1921,-127.5001 201.1922,-120.5001"/>
</g>
<!-- Node5 -->
<g id="node4" class="node">
<title>Node5</title>
<g id="a_node4"><a xlink:href="convec2-conv24a_8f90.xhtml#a9b41c79077663aeb17d05e1d1061d13a" target="_top" xlink:title="Completes lifting of the parcel from layer k to k+1. ">
<polygon fill="#ffffff" stroke="#000000" points="339,-114.5 339,-133.5 425,-133.5 425,-114.5 339,-114.5"/>
<text text-anchor="middle" x="382" y="-121.5" font-family="Helvetica,sans-Serif" font-size="10.00" fill="#000000">convec2_4a5a</text>
</a>
</g>
</g>
<!-- Node4&#45;&gt;Node5 -->
<g id="edge3" class="edge">
<title>Node4&#45;&gt;Node5</title>
<path fill="none" stroke="#191970" d="M313.3751,-124C321.7834,-124 330.4796,-124 338.74,-124"/>
<polygon fill="#191970" stroke="#191970" points="313.3102,-120.5001 303.3102,-124 313.3101,-127.5001 313.3102,-120.5001"/>
</g>
<!-- Node6 -->
<g id="node5" class="node">
<title>Node6</title>
<g id="a_node5"><a xlink:href="congest__conv_8f90.xhtml#a7c8195a99d74e6fe8fb182bba742ffed" target="_top" xlink:title="Congestus convection scheme. ">
<polygon fill="#ffffff" stroke="#000000" points="469.5,-228.5 469.5,-247.5 552.5,-247.5 552.5,-228.5 469.5,-228.5"/>
<text text-anchor="middle" x="511" y="-235.5" font-family="Helvetica,sans-Serif" font-size="10.00" fill="#000000">congest_conv</text>
</a>
</g>
</g>
<!-- Node5&#45;&gt;Node6 -->
<g id="edge4" class="edge">
<title>Node5&#45;&gt;Node6</title>
<path fill="none" stroke="#191970" d="M393.1339,-142.4468C406.7457,-163.5931 431.6318,-198.0284 461,-219 466.29,-222.7776 472.4255,-225.9098 478.5485,-228.4673"/>
<polygon fill="#191970" stroke="#191970" points="395.9702,-140.3814 387.6975,-133.7622 390.0368,-144.0955 395.9702,-140.3814"/>
</g>
<!-- Node18 -->
<g id="node17" class="node">
<title>Node18</title>
<g id="a_node17"><a xlink:href="deep__conv-dpconv4a_8f90.xhtml#a4a054214a4fde2ea5c75f564b22b7730" target="_top" xlink:title="Deep convection scheme. ">
<polygon fill="#ffffff" stroke="#000000" points="468,-76.5 468,-95.5 554,-95.5 554,-76.5 468,-76.5"/>
<text text-anchor="middle" x="511" y="-83.5" font-family="Helvetica,sans-Serif" font-size="10.00" fill="#000000">deep_conv_4a</text>
</a>
</g>
</g>
<!-- Node5&#45;&gt;Node18 -->
<g id="edge17" class="edge">
<title>Node5&#45;&gt;Node18</title>
<path fill="none" stroke="#191970" d="M424.554,-111.4647C442.103,-106.2952 462.1127,-100.4009 478.4583,-95.5859"/>
<polygon fill="#191970" stroke="#191970" points="423.1556,-108.2279 414.5521,-114.411 425.1336,-114.9426 423.1556,-108.2279"/>
</g>
<!-- Node20 -->
<g id="node19" class="node">
<title>Node20</title>
<g id="a_node19"><a xlink:href="deep__conv-dpconv5a_8f90.xhtml#ae86fee3769d20ffd6fc73ad19a1cf983" target="_top" xlink:title="Deep convection scheme. ">
<polygon fill="#ffffff" stroke="#000000" points="468,-190.5 468,-209.5 554,-209.5 554,-190.5 468,-190.5"/>
<text text-anchor="middle" x="511" y="-197.5" font-family="Helvetica,sans-Serif" font-size="10.00" fill="#000000">deep_conv_5a</text>
</a>
</g>
</g>
<!-- Node5&#45;&gt;Node20 -->
<g id="edge20" class="edge">
<title>Node5&#45;&gt;Node20</title>
<path fill="none" stroke="#191970" d="M400.9245,-139.8361C416.3706,-152.2091 439.1397,-169.225 461,-181 467.5405,-184.523 474.8759,-187.6996 481.8708,-190.4022"/>
<polygon fill="#191970" stroke="#191970" points="403.1129,-137.1044 393.1491,-133.5026 398.692,-142.5318 403.1129,-137.1044"/>
</g>
<!-- Node21 -->
<g id="node20" class="node">
<title>Node21</title>
<g id="a_node20"><a xlink:href="mid__conv-mdconv4a_8f90.xhtml#a27f844a5905bbf9765e10d27e2f7e157" target="_top" xlink:title="Mid&#45;level convection scheme. ">
<polygon fill="#ffffff" stroke="#000000" points="470.5,-38.5 470.5,-57.5 551.5,-57.5 551.5,-38.5 470.5,-38.5"/>
<text text-anchor="middle" x="511" y="-45.5" font-family="Helvetica,sans-Serif" font-size="10.00" fill="#000000">mid_conv_4a</text>
</a>
</g>
</g>
<!-- Node5&#45;&gt;Node21 -->
<g id="edge22" class="edge">
<title>Node5&#45;&gt;Node21</title>
<path fill="none" stroke="#191970" d="M400.9245,-108.1639C416.3706,-95.7909 439.1397,-78.775 461,-67 467.5405,-63.477 474.8759,-60.3004 481.8708,-57.5978"/>
<polygon fill="#191970" stroke="#191970" points="398.692,-105.4682 393.1491,-114.4974 403.1129,-110.8956 398.692,-105.4682"/>
</g>
<!-- Node22 -->
<g id="node21" class="node">
<title>Node22</title>
<g id="a_node21"><a xlink:href="mid__conv-mdconv5a_8f90.xhtml#ab66fee07f6cbf1091693ce2ebca374e0" target="_top" xlink:title="Mid&#45;level convection scheme. ">
<polygon fill="#ffffff" stroke="#000000" points="470.5,-152.5 470.5,-171.5 551.5,-171.5 551.5,-152.5 470.5,-152.5"/>
<text text-anchor="middle" x="511" y="-159.5" font-family="Helvetica,sans-Serif" font-size="10.00" fill="#000000">mid_conv_5a</text>
</a>
</g>
</g>
<!-- Node5&#45;&gt;Node22 -->
<g id="edge24" class="edge">
<title>Node5&#45;&gt;Node22</title>
<path fill="none" stroke="#191970" d="M424.554,-136.5353C442.103,-141.7048 462.1127,-147.5991 478.4583,-152.4141"/>
<polygon fill="#191970" stroke="#191970" points="425.1336,-133.0574 414.5521,-133.589 423.1556,-139.7721 425.1336,-133.0574"/>
</g>
<!-- Node23 -->
<g id="node22" class="node">
<title>Node23</title>
<g id="a_node22"><a xlink:href="shallow__conv-shconv4a_8f90.xhtml#aee87339d94d1e5bd657d531a71992cf3" target="_top" xlink:title="Shallow convection scheme. ">
<polygon fill="#ffffff" stroke="#000000" points="461,-.5 461,-19.5 561,-19.5 561,-.5 461,-.5"/>
<text text-anchor="middle" x="511" y="-7.5" font-family="Helvetica,sans-Serif" font-size="10.00" fill="#000000">shallow_conv_4a</text>
</a>
</g>
</g>
<!-- Node5&#45;&gt;Node23 -->
<g id="edge26" class="edge">
<title>Node5&#45;&gt;Node23</title>
<path fill="none" stroke="#191970" d="M393.1339,-105.5532C406.7457,-84.4069 431.6318,-49.9716 461,-29 466.29,-25.2224 472.4255,-22.0902 478.5485,-19.5327"/>
<polygon fill="#191970" stroke="#191970" points="390.0368,-103.9045 387.6975,-114.2378 395.9702,-107.6186 390.0368,-103.9045"/>
</g>
<!-- Node24 -->
<g id="node23" class="node">
<title>Node24</title>
<g id="a_node23"><a xlink:href="shallow__conv-shconv5a_8f90.xhtml#a9ee8df16ba28e0c3503e5d848118c242" target="_top" xlink:title="Shallow convection scheme. ">
<polygon fill="#ffffff" stroke="#000000" points="461,-114.5 461,-133.5 561,-133.5 561,-114.5 461,-114.5"/>
<text text-anchor="middle" x="511" y="-121.5" font-family="Helvetica,sans-Serif" font-size="10.00" fill="#000000">shallow_conv_5a</text>
</a>
</g>
</g>
<!-- Node5&#45;&gt;Node24 -->
<g id="edge28" class="edge">
<title>Node5&#45;&gt;Node24</title>
<path fill="none" stroke="#191970" d="M435.4254,-124C443.8538,-124 452.5422,-124 460.8915,-124"/>
<polygon fill="#191970" stroke="#191970" points="435.314,-120.5001 425.314,-124 435.314,-127.5001 435.314,-120.5001"/>
</g>
<!-- Node7 -->
<g id="node6" class="node">
<title>Node7</title>
<g id="a_node6"><a xlink:href="namespaceglue__conv__5a__mod.xhtml#a0a2a4645b74dadcd85116112a3eb1255" target="_top" xlink:title="Gather&#45;scatter routine for deep and shallow convection points. ">
<polygon fill="#ffffff" stroke="#000000" points="597,-147 597,-177 734,-177 734,-147 597,-147"/>
<text text-anchor="start" x="605" y="-165" font-family="Helvetica,sans-Serif" font-size="10.00" fill="#000000">glue_conv_5a_mod::glue</text>
<text text-anchor="middle" x="665.5" y="-154" font-family="Helvetica,sans-Serif" font-size="10.00" fill="#000000">_conv_5a</text>
</a>
</g>
</g>
<!-- Node6&#45;&gt;Node7 -->
<g id="edge5" class="edge">
<title>Node6&#45;&gt;Node7</title>
<path fill="none" stroke="#191970" d="M547.9048,-224.6308C552.3547,-222.8268 556.8057,-220.9299 561,-219 588.7851,-206.2152 619.3705,-189.1618 640.2319,-177.0484"/>
<polygon fill="#191970" stroke="#191970" points="546.2989,-221.5009 538.2653,-228.4083 548.8529,-228.0184 546.2989,-221.5009"/>
</g>
<!-- Node8 -->
<g id="node7" class="node">
<title>Node8</title>
<g id="a_node7"><a xlink:href="ni__conv__ctl_8f90.xhtml#a9923a06c286e88170babe094e612732d" target="_top" xlink:title="Subroutine NI_conv_ctl. ">
<polygon fill="#ffffff" stroke="#000000" points="770,-114.5 770,-133.5 841,-133.5 841,-114.5 770,-114.5"/>
<text text-anchor="middle" x="805.5" y="-121.5" font-family="Helvetica,sans-Serif" font-size="10.00" fill="#000000">ni_conv_ctl</text>
</a>
</g>
</g>
<!-- Node7&#45;&gt;Node8 -->
<g id="edge6" class="edge">
<title>Node7&#45;&gt;Node8</title>
<path fill="none" stroke="#191970" d="M730.6975,-144.3035C744.3469,-140.5987 758.241,-136.8275 770.2907,-133.5568"/>
<polygon fill="#191970" stroke="#191970" points="729.5657,-140.984 720.8317,-146.9814 731.3994,-147.7396 729.5657,-140.984"/>
</g>
<!-- Node9 -->
<g id="node8" class="node">
<title>Node9</title>
<g id="a_node8"><a xlink:href="atmos__physics2_8f90.xhtml#a0f74e8c75312201121b305cd566b175a" target="_top" xlink:title="Interface to Atmos Physics parametrizations after S&#45;L advection. ">
<polygon fill="#ffffff" stroke="#000000" points="877,-114.5 877,-133.5 972,-133.5 972,-114.5 877,-114.5"/>
<text text-anchor="middle" x="924.5" y="-121.5" font-family="Helvetica,sans-Serif" font-size="10.00" fill="#000000">atmos_physics2</text>
</a>
</g>
</g>
<!-- Node8&#45;&gt;Node9 -->
<g id="edge7" class="edge">
<title>Node8&#45;&gt;Node9</title>
<path fill="none" stroke="#191970" d="M851.2309,-124C859.6494,-124 868.457,-124 876.9283,-124"/>
<polygon fill="#191970" stroke="#191970" points="851.204,-120.5001 841.2039,-124 851.2039,-127.5001 851.204,-120.5001"/>
</g>
<!-- Node10 -->
<g id="node9" class="node">
<title>Node10</title>
<g id="a_node9"><a xlink:href="atm__step_8f90.xhtml#ac0ee2467a1a9959b7065fdb8fd27bce4" target="_top" xlink:title="Perform a 1&#45;timestep integration of the Atmosphere Model. ">
<polygon fill="#ffffff" stroke="#000000" points="1017,-152.5 1017,-171.5 1079,-171.5 1079,-152.5 1017,-152.5"/>
<text text-anchor="middle" x="1048" y="-159.5" font-family="Helvetica,sans-Serif" font-size="10.00" fill="#000000">atm_step</text>
</a>
</g>
</g>
<!-- Node9&#45;&gt;Node10 -->
<g id="edge8" class="edge">
<title>Node9&#45;&gt;Node10</title>
<path fill="none" stroke="#191970" d="M965.2397,-136.5353C982.0405,-141.7048 1001.197,-147.5991 1016.8457,-152.4141"/>
<polygon fill="#191970" stroke="#191970" points="966.2514,-133.1847 955.6643,-133.589 964.1927,-139.8752 966.2514,-133.1847"/>
</g>
<!-- Node14 -->
<g id="node13" class="node">
<title>Node14</title>
<g id="a_node13"><a xlink:href="atm__step__4_a_8f90.xhtml#a2319aa4963e90c64cd78bdcd5f481095" target="_top" xlink:title="Perform a 1&#45;timestep integration of the Atmosphere Model. ">
<polygon fill="#ffffff" stroke="#000000" points="1008,-114.5 1008,-133.5 1088,-133.5 1088,-114.5 1008,-114.5"/>
<text text-anchor="middle" x="1048" y="-121.5" font-family="Helvetica,sans-Serif" font-size="10.00" fill="#000000">atm_step_4a</text>
</a>
</g>
</g>
<!-- Node9&#45;&gt;Node14 -->
<g id="edge12" class="edge">
<title>Node9&#45;&gt;Node14</title>
<path fill="none" stroke="#191970" d="M982.3434,-124C991.0185,-124 999.7967,-124 1007.9897,-124"/>
<polygon fill="#191970" stroke="#191970" points="982.2484,-120.5001 972.2483,-124 982.2483,-127.5001 982.2484,-120.5001"/>
</g>
<!-- Node16 -->
<g id="node15" class="node">
<title>Node16</title>
<g id="a_node15"><a xlink:href="scm__main_8f90.xhtml#a2c730136605550612e094ce51d33a2a5" target="_top" xlink:title="*********************************COPYRIGHT********************************* ">
<polygon fill="#ffffff" stroke="#000000" points="1014.5,-76.5 1014.5,-95.5 1081.5,-95.5 1081.5,-76.5 1014.5,-76.5"/>
<text text-anchor="middle" x="1048" y="-83.5" font-family="Helvetica,sans-Serif" font-size="10.00" fill="#000000">scm_main</text>
</a>
</g>
</g>
<!-- Node9&#45;&gt;Node16 -->
<g id="edge15" class="edge">
<title>Node9&#45;&gt;Node16</title>
<path fill="none" stroke="#191970" d="M965.2397,-111.4647C982.0405,-106.2952 1001.197,-100.4009 1016.8457,-95.5859"/>
<polygon fill="#191970" stroke="#191970" points="964.1927,-108.1248 955.6643,-114.411 966.2514,-114.8153 964.1927,-108.1248"/>
</g>
<!-- Node11 -->
<g id="node10" class="node">
<title>Node11</title>
<g id="a_node10"><a xlink:href="u__model_8f90.xhtml#ada0cd2ce4699433bf0f9adbd882c8eec" target="_top" xlink:title="Subroutine: U_MODEL &#45;!&gt; ">
<polygon fill="#ffffff" stroke="#000000" points="1132.5,-152.5 1132.5,-171.5 1191.5,-171.5 1191.5,-152.5 1132.5,-152.5"/>
<text text-anchor="middle" x="1162" y="-159.5" font-family="Helvetica,sans-Serif" font-size="10.00" fill="#000000">u_model</text>
</a>
</g>
</g>
<!-- Node10&#45;&gt;Node11 -->
<g id="edge9" class="edge">
<title>Node10&#45;&gt;Node11</title>
<path fill="none" stroke="#191970" d="M1089.2532,-162C1103.5539,-162 1119.2895,-162 1132.4568,-162"/>
<polygon fill="#191970" stroke="#191970" points="1089.151,-158.5001 1079.151,-162 1089.151,-165.5001 1089.151,-158.5001"/>
</g>
<!-- Node12 -->
<g id="node11" class="node">
<title>Node12</title>
<g id="a_node11"><a xlink:href="um__shell_8f90.xhtml#a8c9bd25362824a5c301376ecb5ed5c27" target="_top" xlink:title="Subroutine: UM_SHELL !&gt; ">
<polygon fill="#ffffff" stroke="#000000" points="1236,-133.5 1236,-152.5 1297,-152.5 1297,-133.5 1236,-133.5"/>
<text text-anchor="middle" x="1266.5" y="-140.5" font-family="Helvetica,sans-Serif" font-size="10.00" fill="#000000">um_shell</text>
</a>
</g>
</g>
<!-- Node11&#45;&gt;Node12 -->
<g id="edge10" class="edge">
<title>Node11&#45;&gt;Node12</title>
<path fill="none" stroke="#191970" d="M1201.701,-154.7816C1212.951,-152.7362 1225.0261,-150.5407 1235.6677,-148.6059"/>
<polygon fill="#191970" stroke="#191970" points="1200.8786,-151.3737 1191.666,-156.6062 1202.1308,-158.2608 1200.8786,-151.3737"/>
</g>
<!-- Node13 -->
<g id="node12" class="node">
<title>Node13</title>
<g id="a_node12"><a xlink:href="um__main_8f90.xhtml#a8f2d13215621443a5313261c282f098b" target="_top" xlink:title="Code Owner: See Unified Model Code Owner&#39;s HTML page. ">
<polygon fill="#ffffff" stroke="#000000" points="1333,-133.5 1333,-152.5 1395,-152.5 1395,-133.5 1333,-133.5"/>
<text text-anchor="middle" x="1364" y="-140.5" font-family="Helvetica,sans-Serif" font-size="10.00" fill="#000000">um_main</text>
</a>
</g>
</g>
<!-- Node12&#45;&gt;Node13 -->
<g id="edge11" class="edge">
<title>Node12&#45;&gt;Node13</title>
<path fill="none" stroke="#191970" d="M1307.2756,-143C1315.8294,-143 1324.72,-143 1332.8551,-143"/>
<polygon fill="#191970" stroke="#191970" points="1307.0821,-139.5001 1297.0821,-143 1307.0821,-146.5001 1307.0821,-139.5001"/>
</g>
<!-- Node15 -->
<g id="node14" class="node">
<title>Node15</title>
<g id="a_node14"><a xlink:href="u__model__4_a_8f90.xhtml#afa05064dab5eba198b461d0928767c7e" target="_top" xlink:title="LL Subroutine: U_MODEL_4A (ENDGAME VERSION) !&gt;LL. ">
<polygon fill="#ffffff" stroke="#000000" points="1124,-114.5 1124,-133.5 1200,-133.5 1200,-114.5 1124,-114.5"/>
<text text-anchor="middle" x="1162" y="-121.5" font-family="Helvetica,sans-Serif" font-size="10.00" fill="#000000">u_model_4a</text>
</a>
</g>
</g>
<!-- Node14&#45;&gt;Node15 -->
<g id="edge13" class="edge">
<title>Node14&#45;&gt;Node15</title>
<path fill="none" stroke="#191970" d="M1098.3998,-124C1106.891,-124 1115.5803,-124 1123.7002,-124"/>
<polygon fill="#191970" stroke="#191970" points="1098.1922,-120.5001 1088.1921,-124 1098.1921,-127.5001 1098.1922,-120.5001"/>
</g>
<!-- Node15&#45;&gt;Node12 -->
<g id="edge14" class="edge">
<title>Node15&#45;&gt;Node12</title>
<path fill="none" stroke="#191970" d="M1209.8728,-132.7041C1218.7087,-134.3107 1227.7128,-135.9478 1235.8647,-137.43"/>
<polygon fill="#191970" stroke="#191970" points="1210.4873,-129.2586 1200.0225,-130.9132 1209.2351,-136.1457 1210.4873,-129.2586"/>
</g>
<!-- Node17 -->
<g id="node16" class="node">
<title>Node17</title>
<g id="a_node16"><a xlink:href="scm__shell_8f90.xhtml#ab15255829ee7b5be626b1c0861b40c8d" target="_top" xlink:title="scm_shell is the main calling program for the Single Column Model. ">
<polygon fill="#ffffff" stroke="#000000" points="1129.5,-76.5 1129.5,-95.5 1194.5,-95.5 1194.5,-76.5 1129.5,-76.5"/>
<text text-anchor="middle" x="1162" y="-83.5" font-family="Helvetica,sans-Serif" font-size="10.00" fill="#000000">scm_shell</text>
</a>
</g>
</g>
<!-- Node16&#45;&gt;Node17 -->
<g id="edge16" class="edge">
<title>Node16&#45;&gt;Node17</title>
<path fill="none" stroke="#191970" d="M1091.8248,-86C1104.3307,-86 1117.7319,-86 1129.4371,-86"/>
<polygon fill="#191970" stroke="#191970" points="1091.5872,-82.5001 1081.5872,-86 1091.5871,-89.5001 1091.5872,-82.5001"/>
</g>
<!-- Node19 -->
<g id="node18" class="node">
<title>Node19</title>
<g id="a_node18"><a xlink:href="namespaceglue__conv__4a__mod.xhtml#a4cb48dc3e9cfb0ea5d0daf6d1889ed9b" target="_top" xlink:title="Gather&#45;scatter routine for deep and shallow convection points. ">
<polygon fill="#ffffff" stroke="#000000" points="597,-52 597,-82 734,-82 734,-52 597,-52"/>
<text text-anchor="start" x="605" y="-70" font-family="Helvetica,sans-Serif" font-size="10.00" fill="#000000">glue_conv_4a_mod::glue</text>
<text text-anchor="middle" x="665.5" y="-59" font-family="Helvetica,sans-Serif" font-size="10.00" fill="#000000">_conv_4a</text>
</a>
</g>
</g>
<!-- Node18&#45;&gt;Node19 -->
<g id="edge18" class="edge">
<title>Node18&#45;&gt;Node19</title>
<path fill="none" stroke="#191970" d="M563.9715,-79.4857C574.5821,-78.1808 585.8729,-76.7923 596.924,-75.4333"/>
<polygon fill="#191970" stroke="#191970" points="563.5349,-76.0129 554.0369,-80.7074 564.3893,-82.9606 563.5349,-76.0129"/>
</g>
<!-- Node19&#45;&gt;Node8 -->
<g id="edge19" class="edge">
<title>Node19&#45;&gt;Node8</title>
<path fill="none" stroke="#191970" d="M712.0615,-85.9572C735.4531,-95.4809 762.7922,-106.6118 781.8313,-114.3635"/>
<polygon fill="#191970" stroke="#191970" points="713.2315,-82.6546 702.6499,-82.1253 710.5918,-89.1379 713.2315,-82.6546"/>
</g>
<!-- Node20&#45;&gt;Node7 -->
<g id="edge21" class="edge">
<title>Node20&#45;&gt;Node7</title>
<path fill="none" stroke="#191970" d="M559.9465,-187.9614C574.0221,-184.4994 589.5524,-180.6797 604.2711,-177.0595"/>
<polygon fill="#191970" stroke="#191970" points="558.8615,-184.6238 549.9869,-190.411 560.5334,-191.4213 558.8615,-184.6238"/>
</g>
<!-- Node21&#45;&gt;Node19 -->
<g id="edge23" class="edge">
<title>Node21&#45;&gt;Node19</title>
<path fill="none" stroke="#191970" d="M561.6422,-54.2278C572.8818,-55.6101 584.9776,-57.0976 596.8027,-58.5518"/>
<polygon fill="#191970" stroke="#191970" points="561.9455,-50.7389 551.5931,-52.992 561.0911,-57.6865 561.9455,-50.7389"/>
</g>
<!-- Node22&#45;&gt;Node7 -->
<g id="edge25" class="edge">
<title>Node22&#45;&gt;Node7</title>
<path fill="none" stroke="#191970" d="M561.6422,-162C572.8818,-162 584.9776,-162 596.8027,-162"/>
<polygon fill="#191970" stroke="#191970" points="561.5931,-158.5001 551.5931,-162 561.593,-165.5001 561.5931,-158.5001"/>
</g>
<!-- Node23&#45;&gt;Node19 -->
<g id="edge27" class="edge">
<title>Node23&#45;&gt;Node19</title>
<path fill="none" stroke="#191970" d="M546.374,-23.0506C569.7099,-31.66 600.3523,-42.9649 624.7151,-51.9532"/>
<polygon fill="#191970" stroke="#191970" points="547.4532,-19.7182 536.8598,-19.5405 545.0302,-26.2855 547.4532,-19.7182"/>
</g>
<!-- Node24&#45;&gt;Node7 -->
<g id="edge29" class="edge">
<title>Node24&#45;&gt;Node7</title>
<path fill="none" stroke="#191970" d="M559.9465,-136.0386C574.0221,-139.5006 589.5524,-143.3203 604.2711,-146.9405"/>
<polygon fill="#191970" stroke="#191970" points="560.5334,-132.5787 549.9869,-133.589 558.8615,-139.3762 560.5334,-132.5787"/>
</g>
</g>
</svg>
        <g id="navigator" transform="translate(0 0)" fill="#404254">
                <rect fill="#f2f5e9" fill-opacity="0.5" stroke="#606060" stroke-width=".5" x="0" y="0" width="60" height="60"/>
                <use id="zoomplus" xlink:href="#zoomPlus" x="17" y="9" onmousedown="handleZoom(evt,'in')"/>
                <use id="zoomminus" xlink:href="#zoomMin" x="42" y="9" onmousedown="handleZoom(evt,'out')"/>
                <use id="reset" xlink:href="#resetDef" x="30" y="36" onmousedown="handleReset()"/>
                <g id="arrowUp" xlink:href="#dirArrow" transform="translate(30 24)" onmousedown="handlePan(0,-1)">
                  <use xlink:href="#rim" fill="#404040">
                        <set attributeName="fill" to="#808080" begin="arrowUp.mouseover" end="arrowUp.mouseout"/>
                  </use>
                  <path fill="none" stroke="white" stroke-width="1.5" d="M0,-3.0v7 M-2.5,-0.5L0,-3.0L2.5,-0.5"/>
                </g>
                <g id="arrowRight" xlink:href="#dirArrow" transform="rotate(90) translate(36 -43)" onmousedown="handlePan(1,0)">
                  <use xlink:href="#rim" fill="#404040">
                        <set attributeName="fill" to="#808080" begin="arrowRight.mouseover" end="arrowRight.mouseout"/>
                  </use>
                  <path fill="none" stroke="white" stroke-width="1.5" d="M0,-3.0v7 M-2.5,-0.5L0,-3.0L2.5,-0.5"/>
                </g>
                <g id="arrowDown" xlink:href="#dirArrow" transform="rotate(180) translate(-30 -48)" onmousedown="handlePan(0,1)">
                  <use xlink:href="#rim" fill="#404040">
                        <set attributeName="fill" to="#808080" begin="arrowDown.mouseover" end="arrowDown.mouseout"/>
                  </use>
                  <path fill="none" stroke="white" stroke-width="1.5" d="M0,-3.0v7 M-2.5,-0.5L0,-3.0L2.5,-0.5"/>
                </g>
                <g id="arrowLeft" xlink:href="#dirArrow" transform="rotate(270) translate(-36 17)" onmousedown="handlePan(-1,0)">
                  <use xlink:href="#rim" fill="#404040">
                        <set attributeName="fill" to="#808080" begin="arrowLeft.mouseover" end="arrowLeft.mouseout"/>
                  </use>
                  <path fill="none" stroke="white" stroke-width="1.5" d="M0,-3.0v7 M-2.5,-0.5L0,-3.0L2.5,-0.5"/>
                </g>
        </g>
        <svg viewBox="0 0 15 15" width="100%" height="30px" preserveAspectRatio="xMaxYMin meet">
         <g id="arrow_out" transform="scale(0.3 0.3)">
          <a xlink:href="thetar-thetar1a_8f90_a07b7bd1ca4b17bf8c80e5265a555d211_icgraph_org.svg" target="_base">
           <rect id="button" ry="5" rx="5" y="6" x="6" height="38" width="38"
                fill="#f2f5e9" fill-opacity="0.5" stroke="#606060" stroke-width="1.0"/>
           <path id="arrow"
             d="M 11.500037,31.436501 C 11.940474,20.09759 22.043105,11.32322 32.158766,21.979434 L 37.068811,17.246167 C 37.068811,17.246167 37.088388,32 37.088388,32 L 22.160133,31.978069 C 22.160133,31.978069 26.997745,27.140456 26.997745,27.140456 C 18.528582,18.264221 13.291696,25.230495 11.500037,31.436501 z"
             style="fill:#404040;"/>
          </a>
         </g>
        </svg>
</svg>
