<?xml version="1.0" encoding="UTF-8" standalone="no"?>
<!DOCTYPE svg PUBLIC "-//W3C//DTD SVG 1.1//EN"
 "http://www.w3.org/Graphics/SVG/1.1/DTD/svg11.dtd">
<!-- Generated by graphviz version 2.40.1 (20161225.0304)
 -->
<!-- Title: thp_det_4a5a Pages: 1 -->
<!--zoomable 256 -->
<svg id="main" version="1.1" xmlns="http://www.w3.org/2000/svg" xmlns:xlink="http://www.w3.org/1999/xlink" xml:space="preserve" onload="init(evt)">
<style type="text/css"><![CDATA[
.edge:hover path { stroke: red; }
.edge:hover polygon { stroke: red; fill: red; }
]]></style>
<script type="text/javascript"><![CDATA[
var edges = document.getElementsByTagName('g');
if (edges && edges.length) {
  for (var i=0;i<edges.length;i++) {
    if (edges[i].id.substr(0,4)=='edge') {
      edges[i].setAttribute('class','edge');
    }
  }
}
]]></script>
        <defs>
                <circle id="rim" cx="0" cy="0" r="7"/>
                <circle id="rim2" cx="0" cy="0" r="3.5"/>
                <g id="zoomPlus">
                        <use xlink:href="#rim" fill="#404040">
                                <set attributeName="fill" to="#808080" begin="zoomplus.mouseover" end="zoomplus.mouseout"/>
                        </use>
                        <path d="M-4,0h8M0,-4v8" fill="none" stroke="white" stroke-width="1.5" pointer-events="none"/>
                </g>
                <g id="zoomMin">
                        <use xlink:href="#rim" fill="#404040">
                                <set attributeName="fill" to="#808080" begin="zoomminus.mouseover" end="zoomminus.mouseout"/>
                        </use>
                        <path d="M-4,0h8" fill="none" stroke="white" stroke-width="1.5" pointer-events="none"/>
                </g>
                <g id="dirArrow">
                        <path fill="none" stroke="white" stroke-width="1.5" d="M0,-3.0v7 M-2.5,-0.5L0,-3.0L2.5,-0.5"/>
                </g>
               <g id="resetDef">
                       <use xlink:href="#rim2" fill="#404040">
                               <set attributeName="fill" to="#808080" begin="reset.mouseover" end="reset.mouseout"/>
                       </use>
               </g>
        </defs>

<script type="text/javascript">
var viewWidth = 1411;
var viewHeight = 256;
var sectionId = 'dynsection-0';
</script>
<script xlink:href="svgpan.js"/>
<svg id="graph" class="graph">
<g id="viewport">
<title>thp_det_4a5a</title>
<polygon fill="#ffffff" stroke="transparent" points="-4,4 -4,-252 1407,-252 1407,4 -4,4"/>
<!-- Node1 -->
<g id="node1" class="node">
<title>Node1</title>
<polygon fill="#bfbfbf" stroke="#000000" points="0,-114.5 0,-133.5 83,-133.5 83,-114.5 0,-114.5"/>
<text text-anchor="middle" x="41.5" y="-121.5" font-family="Helvetica,sans-Serif" font-size="10.00" fill="#000000">thp_det_4a5a</text>
</g>
<!-- Node2 -->
<g id="node2" class="node">
<title>Node2</title>
<g id="a_node2"><a xlink:href="detrain-detrai4a_8f90.xhtml#ad61df286e88aa4c333debed73820a669" target="_top" xlink:title="forced detrainment calculation ">
<polygon fill="#ffffff" stroke="#000000" points="119,-114.5 119,-133.5 199,-133.5 199,-114.5 119,-114.5"/>
<text text-anchor="middle" x="159" y="-121.5" font-family="Helvetica,sans-Serif" font-size="10.00" fill="#000000">detrain_4a5a</text>
</a>
</g>
</g>
<!-- Node1&#45;&gt;Node2 -->
<g id="edge1" class="edge">
<title>Node1&#45;&gt;Node2</title>
<path fill="none" stroke="#191970" d="M93.5181,-124C102.0487,-124 110.7712,-124 118.9534,-124"/>
<polygon fill="#191970" stroke="#191970" points="93.257,-120.5001 83.2569,-124 93.2569,-127.5001 93.257,-120.5001"/>
</g>
<!-- Node3 -->
<g id="node3" class="node">
<title>Node3</title>
<g id="a_node3"><a xlink:href="parcel-parcel4a_8f90.xhtml#a0a5729491c30601478bf7dba9a99d975" target="_top" xlink:title="Completes lifting of the parcel from layer k to k+1. ">
<polygon fill="#ffffff" stroke="#000000" points="235,-114.5 235,-133.5 311,-133.5 311,-114.5 235,-114.5"/>
<text text-anchor="middle" x="273" y="-121.5" font-family="Helvetica,sans-Serif" font-size="10.00" fill="#000000">parcel_4a5a</text>
</a>
</g>
</g>
<!-- Node2&#45;&gt;Node3 -->
<g id="edge2" class="edge">
<title>Node2&#45;&gt;Node3</title>
<path fill="none" stroke="#191970" d="M209.3998,-124C217.891,-124 226.5803,-124 234.7002,-124"/>
<polygon fill="#191970" stroke="#191970" points="209.1922,-120.5001 199.1921,-124 209.1921,-127.5001 209.1922,-120.5001"/>
</g>
<!-- Node4 -->
<g id="node4" class="node">
<title>Node4</title>
<g id="a_node4"><a xlink:href="convec2-conv24a_8f90.xhtml#a9b41c79077663aeb17d05e1d1061d13a" target="_top" xlink:title="Completes lifting of the parcel from layer k to k+1. ">
<polygon fill="#ffffff" stroke="#000000" points="347,-114.5 347,-133.5 433,-133.5 433,-114.5 347,-114.5"/>
<text text-anchor="middle" x="390" y="-121.5" font-family="Helvetica,sans-Serif" font-size="10.00" fill="#000000">convec2_4a5a</text>
</a>
</g>
</g>
<!-- Node3&#45;&gt;Node4 -->
<g id="edge3" class="edge">
<title>Node3&#45;&gt;Node4</title>
<path fill="none" stroke="#191970" d="M321.3751,-124C329.7834,-124 338.4796,-124 346.74,-124"/>
<polygon fill="#191970" stroke="#191970" points="321.3102,-120.5001 311.3102,-124 321.3101,-127.5001 321.3102,-120.5001"/>
</g>
<!-- Node5 -->
<g id="node5" class="node">
<title>Node5</title>
<g id="a_node5"><a xlink:href="congest__conv_8f90.xhtml#a7c8195a99d74e6fe8fb182bba742ffed" target="_top" xlink:title="Congestus convection scheme. ">
<polygon fill="#ffffff" stroke="#000000" points="477.5,-228.5 477.5,-247.5 560.5,-247.5 560.5,-228.5 477.5,-228.5"/>
<text text-anchor="middle" x="519" y="-235.5" font-family="Helvetica,sans-Serif" font-size="10.00" fill="#000000">congest_conv</text>
</a>
</g>
</g>
<!-- Node4&#45;&gt;Node5 -->
<g id="edge4" class="edge">
<title>Node4&#45;&gt;Node5</title>
<path fill="none" stroke="#191970" d="M401.1339,-142.4468C414.7457,-163.5931 439.6318,-198.0284 469,-219 474.29,-222.7776 480.4255,-225.9098 486.5485,-228.4673"/>
<polygon fill="#191970" stroke="#191970" points="403.9702,-140.3814 395.6975,-133.7622 398.0368,-144.0955 403.9702,-140.3814"/>
</g>
<!-- Node17 -->
<g id="node17" class="node">
<title>Node17</title>
<g id="a_node17"><a xlink:href="deep__conv-dpconv4a_8f90.xhtml#a4a054214a4fde2ea5c75f564b22b7730" target="_top" xlink:title="Deep convection scheme. ">
<polygon fill="#ffffff" stroke="#000000" points="476,-76.5 476,-95.5 562,-95.5 562,-76.5 476,-76.5"/>
<text text-anchor="middle" x="519" y="-83.5" font-family="Helvetica,sans-Serif" font-size="10.00" fill="#000000">deep_conv_4a</text>
</a>
</g>
</g>
<!-- Node4&#45;&gt;Node17 -->
<g id="edge17" class="edge">
<title>Node4&#45;&gt;Node17</title>
<path fill="none" stroke="#191970" d="M432.554,-111.4647C450.103,-106.2952 470.1127,-100.4009 486.4583,-95.5859"/>
<polygon fill="#191970" stroke="#191970" points="431.1556,-108.2279 422.5521,-114.411 433.1336,-114.9426 431.1556,-108.2279"/>
</g>
<!-- Node19 -->
<g id="node19" class="node">
<title>Node19</title>
<g id="a_node19"><a xlink:href="deep__conv-dpconv5a_8f90.xhtml#ae86fee3769d20ffd6fc73ad19a1cf983" target="_top" xlink:title="Deep convection scheme. ">
<polygon fill="#ffffff" stroke="#000000" points="476,-190.5 476,-209.5 562,-209.5 562,-190.5 476,-190.5"/>
<text text-anchor="middle" x="519" y="-197.5" font-family="Helvetica,sans-Serif" font-size="10.00" fill="#000000">deep_conv_5a</text>
</a>
</g>
</g>
<!-- Node4&#45;&gt;Node19 -->
<g id="edge20" class="edge">
<title>Node4&#45;&gt;Node19</title>
<path fill="none" stroke="#191970" d="M408.9245,-139.8361C424.3706,-152.2091 447.1397,-169.225 469,-181 475.5405,-184.523 482.8759,-187.6996 489.8708,-190.4022"/>
<polygon fill="#191970" stroke="#191970" points="411.1129,-137.1044 401.1491,-133.5026 406.692,-142.5318 411.1129,-137.1044"/>
</g>
<!-- Node20 -->
<g id="node20" class="node">
<title>Node20</title>
<g id="a_node20"><a xlink:href="mid__conv-mdconv4a_8f90.xhtml#a27f844a5905bbf9765e10d27e2f7e157" target="_top" xlink:title="Mid&#45;level convection scheme. ">
<polygon fill="#ffffff" stroke="#000000" points="478.5,-38.5 478.5,-57.5 559.5,-57.5 559.5,-38.5 478.5,-38.5"/>
<text text-anchor="middle" x="519" y="-45.5" font-family="Helvetica,sans-Serif" font-size="10.00" fill="#000000">mid_conv_4a</text>
</a>
</g>
</g>
<!-- Node4&#45;&gt;Node20 -->
<g id="edge22" class="edge">
<title>Node4&#45;&gt;Node20</title>
<path fill="none" stroke="#191970" d="M408.9245,-108.1639C424.3706,-95.7909 447.1397,-78.775 469,-67 475.5405,-63.477 482.8759,-60.3004 489.8708,-57.5978"/>
<polygon fill="#191970" stroke="#191970" points="406.692,-105.4682 401.1491,-114.4974 411.1129,-110.8956 406.692,-105.4682"/>
</g>
<!-- Node21 -->
<g id="node21" class="node">
<title>Node21</title>
<g id="a_node21"><a xlink:href="mid__conv-mdconv5a_8f90.xhtml#ab66fee07f6cbf1091693ce2ebca374e0" target="_top" xlink:title="Mid&#45;level convection scheme. ">
<polygon fill="#ffffff" stroke="#000000" points="478.5,-152.5 478.5,-171.5 559.5,-171.5 559.5,-152.5 478.5,-152.5"/>
<text text-anchor="middle" x="519" y="-159.5" font-family="Helvetica,sans-Serif" font-size="10.00" fill="#000000">mid_conv_5a</text>
</a>
</g>
</g>
<!-- Node4&#45;&gt;Node21 -->
<g id="edge24" class="edge">
<title>Node4&#45;&gt;Node21</title>
<path fill="none" stroke="#191970" d="M432.554,-136.5353C450.103,-141.7048 470.1127,-147.5991 486.4583,-152.4141"/>
<polygon fill="#191970" stroke="#191970" points="433.1336,-133.0574 422.5521,-133.589 431.1556,-139.7721 433.1336,-133.0574"/>
</g>
<!-- Node22 -->
<g id="node22" class="node">
<title>Node22</title>
<g id="a_node22"><a xlink:href="shallow__conv-shconv4a_8f90.xhtml#aee87339d94d1e5bd657d531a71992cf3" target="_top" xlink:title="Shallow convection scheme. ">
<polygon fill="#ffffff" stroke="#000000" points="469,-.5 469,-19.5 569,-19.5 569,-.5 469,-.5"/>
<text text-anchor="middle" x="519" y="-7.5" font-family="Helvetica,sans-Serif" font-size="10.00" fill="#000000">shallow_conv_4a</text>
</a>
</g>
</g>
<!-- Node4&#45;&gt;Node22 -->
<g id="edge26" class="edge">
<title>Node4&#45;&gt;Node22</title>
<path fill="none" stroke="#191970" d="M401.1339,-105.5532C414.7457,-84.4069 439.6318,-49.9716 469,-29 474.29,-25.2224 480.4255,-22.0902 486.5485,-19.5327"/>
<polygon fill="#191970" stroke="#191970" points="398.0368,-103.9045 395.6975,-114.2378 403.9702,-107.6186 398.0368,-103.9045"/>
</g>
<!-- Node23 -->
<g id="node23" class="node">
<title>Node23</title>
<g id="a_node23"><a xlink:href="shallow__conv-shconv5a_8f90.xhtml#a9ee8df16ba28e0c3503e5d848118c242" target="_top" xlink:title="Shallow convection scheme. ">
<polygon fill="#ffffff" stroke="#000000" points="469,-114.5 469,-133.5 569,-133.5 569,-114.5 469,-114.5"/>
<text text-anchor="middle" x="519" y="-121.5" font-family="Helvetica,sans-Serif" font-size="10.00" fill="#000000">shallow_conv_5a</text>
</a>
</g>
</g>
<!-- Node4&#45;&gt;Node23 -->
<g id="edge28" class="edge">
<title>Node4&#45;&gt;Node23</title>
<path fill="none" stroke="#191970" d="M443.4254,-124C451.8538,-124 460.5422,-124 468.8915,-124"/>
<polygon fill="#191970" stroke="#191970" points="443.314,-120.5001 433.314,-124 443.314,-127.5001 443.314,-120.5001"/>
</g>
<!-- Node6 -->
<g id="node6" class="node">
<title>Node6</title>
<g id="a_node6"><a xlink:href="namespaceglue__conv__5a__mod.xhtml#a0a2a4645b74dadcd85116112a3eb1255" target="_top" xlink:title="Gather&#45;scatter routine for deep and shallow convection points. ">
<polygon fill="#ffffff" stroke="#000000" points="605,-147 605,-177 742,-177 742,-147 605,-147"/>
<text text-anchor="start" x="613" y="-165" font-family="Helvetica,sans-Serif" font-size="10.00" fill="#000000">glue_conv_5a_mod::glue</text>
<text text-anchor="middle" x="673.5" y="-154" font-family="Helvetica,sans-Serif" font-size="10.00" fill="#000000">_conv_5a</text>
</a>
</g>
</g>
<!-- Node5&#45;&gt;Node6 -->
<g id="edge5" class="edge">
<title>Node5&#45;&gt;Node6</title>
<path fill="none" stroke="#191970" d="M555.9048,-224.6308C560.3547,-222.8268 564.8057,-220.9299 569,-219 596.7851,-206.2152 627.3705,-189.1618 648.2319,-177.0484"/>
<polygon fill="#191970" stroke="#191970" points="554.2989,-221.5009 546.2653,-228.4083 556.8529,-228.0184 554.2989,-221.5009"/>
</g>
<!-- Node7 -->
<g id="node7" class="node">
<title>Node7</title>
<g id="a_node7"><a xlink:href="ni__conv__ctl_8f90.xhtml#a9923a06c286e88170babe094e612732d" target="_top" xlink:title="Subroutine NI_conv_ctl. ">
<polygon fill="#ffffff" stroke="#000000" points="778,-114.5 778,-133.5 849,-133.5 849,-114.5 778,-114.5"/>
<text text-anchor="middle" x="813.5" y="-121.5" font-family="Helvetica,sans-Serif" font-size="10.00" fill="#000000">ni_conv_ctl</text>
</a>
</g>
</g>
<!-- Node6&#45;&gt;Node7 -->
<g id="edge6" class="edge">
<title>Node6&#45;&gt;Node7</title>
<path fill="none" stroke="#191970" d="M738.6975,-144.3035C752.3469,-140.5987 766.241,-136.8275 778.2907,-133.5568"/>
<polygon fill="#191970" stroke="#191970" points="737.5657,-140.984 728.8317,-146.9814 739.3994,-147.7396 737.5657,-140.984"/>
</g>
<!-- Node8 -->
<g id="node8" class="node">
<title>Node8</title>
<g id="a_node8"><a xlink:href="atmos__physics2_8f90.xhtml#a0f74e8c75312201121b305cd566b175a" target="_top" xlink:title="Interface to Atmos Physics parametrizations after S&#45;L advection. ">
<polygon fill="#ffffff" stroke="#000000" points="885,-114.5 885,-133.5 980,-133.5 980,-114.5 885,-114.5"/>
<text text-anchor="middle" x="932.5" y="-121.5" font-family="Helvetica,sans-Serif" font-size="10.00" fill="#000000">atmos_physics2</text>
</a>
</g>
</g>
<!-- Node7&#45;&gt;Node8 -->
<g id="edge7" class="edge">
<title>Node7&#45;&gt;Node8</title>
<path fill="none" stroke="#191970" d="M859.2309,-124C867.6494,-124 876.457,-124 884.9283,-124"/>
<polygon fill="#191970" stroke="#191970" points="859.204,-120.5001 849.2039,-124 859.2039,-127.5001 859.204,-120.5001"/>
</g>
<!-- Node9 -->
<g id="node9" class="node">
<title>Node9</title>
<g id="a_node9"><a xlink:href="atm__step_8f90.xhtml#ac0ee2467a1a9959b7065fdb8fd27bce4" target="_top" xlink:title="Perform a 1&#45;timestep integration of the Atmosphere Model. ">
<polygon fill="#ffffff" stroke="#000000" points="1025,-152.5 1025,-171.5 1087,-171.5 1087,-152.5 1025,-152.5"/>
<text text-anchor="middle" x="1056" y="-159.5" font-family="Helvetica,sans-Serif" font-size="10.00" fill="#000000">atm_step</text>
</a>
</g>
</g>
<!-- Node8&#45;&gt;Node9 -->
<g id="edge8" class="edge">
<title>Node8&#45;&gt;Node9</title>
<path fill="none" stroke="#191970" d="M973.2397,-136.5353C990.0405,-141.7048 1009.197,-147.5991 1024.8457,-152.4141"/>
<polygon fill="#191970" stroke="#191970" points="974.2514,-133.1847 963.6643,-133.589 972.1927,-139.8752 974.2514,-133.1847"/>
</g>
<!-- Node13 -->
<g id="node13" class="node">
<title>Node13</title>
<g id="a_node13"><a xlink:href="atm__step__4_a_8f90.xhtml#a2319aa4963e90c64cd78bdcd5f481095" target="_top" xlink:title="Perform a 1&#45;timestep integration of the Atmosphere Model. ">
<polygon fill="#ffffff" stroke="#000000" points="1016,-114.5 1016,-133.5 1096,-133.5 1096,-114.5 1016,-114.5"/>
<text text-anchor="middle" x="1056" y="-121.5" font-family="Helvetica,sans-Serif" font-size="10.00" fill="#000000">atm_step_4a</text>
</a>
</g>
</g>
<!-- Node8&#45;&gt;Node13 -->
<g id="edge12" class="edge">
<title>Node8&#45;&gt;Node13</title>
<path fill="none" stroke="#191970" d="M990.3434,-124C999.0185,-124 1007.7967,-124 1015.9897,-124"/>
<polygon fill="#191970" stroke="#191970" points="990.2484,-120.5001 980.2483,-124 990.2483,-127.5001 990.2484,-120.5001"/>
</g>
<!-- Node15 -->
<g id="node15" class="node">
<title>Node15</title>
<g id="a_node15"><a xlink:href="scm__main_8f90.xhtml#a2c730136605550612e094ce51d33a2a5" target="_top" xlink:title="*********************************COPYRIGHT********************************* ">
<polygon fill="#ffffff" stroke="#000000" points="1022.5,-76.5 1022.5,-95.5 1089.5,-95.5 1089.5,-76.5 1022.5,-76.5"/>
<text text-anchor="middle" x="1056" y="-83.5" font-family="Helvetica,sans-Serif" font-size="10.00" fill="#000000">scm_main</text>
</a>
</g>
</g>
<!-- Node8&#45;&gt;Node15 -->
<g id="edge15" class="edge">
<title>Node8&#45;&gt;Node15</title>
<path fill="none" stroke="#191970" d="M973.2397,-111.4647C990.0405,-106.2952 1009.197,-100.4009 1024.8457,-95.5859"/>
<polygon fill="#191970" stroke="#191970" points="972.1927,-108.1248 963.6643,-114.411 974.2514,-114.8153 972.1927,-108.1248"/>
</g>
<!-- Node10 -->
<g id="node10" class="node">
<title>Node10</title>
<g id="a_node10"><a xlink:href="u__model_8f90.xhtml#ada0cd2ce4699433bf0f9adbd882c8eec" target="_top" xlink:title="Subroutine: U_MODEL &#45;!&gt; ">
<polygon fill="#ffffff" stroke="#000000" points="1140.5,-152.5 1140.5,-171.5 1199.5,-171.5 1199.5,-152.5 1140.5,-152.5"/>
<text text-anchor="middle" x="1170" y="-159.5" font-family="Helvetica,sans-Serif" font-size="10.00" fill="#000000">u_model</text>
</a>
</g>
</g>
<!-- Node9&#45;&gt;Node10 -->
<g id="edge9" class="edge">
<title>Node9&#45;&gt;Node10</title>
<path fill="none" stroke="#191970" d="M1097.2532,-162C1111.5539,-162 1127.2895,-162 1140.4568,-162"/>
<polygon fill="#191970" stroke="#191970" points="1097.151,-158.5001 1087.151,-162 1097.151,-165.5001 1097.151,-158.5001"/>
</g>
<!-- Node11 -->
<g id="node11" class="node">
<title>Node11</title>
<g id="a_node11"><a xlink:href="um__shell_8f90.xhtml#a8c9bd25362824a5c301376ecb5ed5c27" target="_top" xlink:title="Subroutine: UM_SHELL !&gt; ">
<polygon fill="#ffffff" stroke="#000000" points="1244,-133.5 1244,-152.5 1305,-152.5 1305,-133.5 1244,-133.5"/>
<text text-anchor="middle" x="1274.5" y="-140.5" font-family="Helvetica,sans-Serif" font-size="10.00" fill="#000000">um_shell</text>
</a>
</g>
</g>
<!-- Node10&#45;&gt;Node11 -->
<g id="edge10" class="edge">
<title>Node10&#45;&gt;Node11</title>
<path fill="none" stroke="#191970" d="M1209.701,-154.7816C1220.951,-152.7362 1233.0261,-150.5407 1243.6677,-148.6059"/>
<polygon fill="#191970" stroke="#191970" points="1208.8786,-151.3737 1199.666,-156.6062 1210.1308,-158.2608 1208.8786,-151.3737"/>
</g>
<!-- Node12 -->
<g id="node12" class="node">
<title>Node12</title>
<g id="a_node12"><a xlink:href="um__main_8f90.xhtml#a8f2d13215621443a5313261c282f098b" target="_top" xlink:title="Code Owner: See Unified Model Code Owner&#39;s HTML page. ">
<polygon fill="#ffffff" stroke="#000000" points="1341,-133.5 1341,-152.5 1403,-152.5 1403,-133.5 1341,-133.5"/>
<text text-anchor="middle" x="1372" y="-140.5" font-family="Helvetica,sans-Serif" font-size="10.00" fill="#000000">um_main</text>
</a>
</g>
</g>
<!-- Node11&#45;&gt;Node12 -->
<g id="edge11" class="edge">
<title>Node11&#45;&gt;Node12</title>
<path fill="none" stroke="#191970" d="M1315.2756,-143C1323.8294,-143 1332.72,-143 1340.8551,-143"/>
<polygon fill="#191970" stroke="#191970" points="1315.0821,-139.5001 1305.0821,-143 1315.0821,-146.5001 1315.0821,-139.5001"/>
</g>
<!-- Node14 -->
<g id="node14" class="node">
<title>Node14</title>
<g id="a_node14"><a xlink:href="u__model__4_a_8f90.xhtml#afa05064dab5eba198b461d0928767c7e" target="_top" xlink:title="LL Subroutine: U_MODEL_4A (ENDGAME VERSION) !&gt;LL. ">
<polygon fill="#ffffff" stroke="#000000" points="1132,-114.5 1132,-133.5 1208,-133.5 1208,-114.5 1132,-114.5"/>
<text text-anchor="middle" x="1170" y="-121.5" font-family="Helvetica,sans-Serif" font-size="10.00" fill="#000000">u_model_4a</text>
</a>
</g>
</g>
<!-- Node13&#45;&gt;Node14 -->
<g id="edge13" class="edge">
<title>Node13&#45;&gt;Node14</title>
<path fill="none" stroke="#191970" d="M1106.3998,-124C1114.891,-124 1123.5803,-124 1131.7002,-124"/>
<polygon fill="#191970" stroke="#191970" points="1106.1922,-120.5001 1096.1921,-124 1106.1921,-127.5001 1106.1922,-120.5001"/>
</g>
<!-- Node14&#45;&gt;Node11 -->
<g id="edge14" class="edge">
<title>Node14&#45;&gt;Node11</title>
<path fill="none" stroke="#191970" d="M1217.8728,-132.7041C1226.7087,-134.3107 1235.7128,-135.9478 1243.8647,-137.43"/>
<polygon fill="#191970" stroke="#191970" points="1218.4873,-129.2586 1208.0225,-130.9132 1217.2351,-136.1457 1218.4873,-129.2586"/>
</g>
<!-- Node16 -->
<g id="node16" class="node">
<title>Node16</title>
<g id="a_node16"><a xlink:href="scm__shell_8f90.xhtml#ab15255829ee7b5be626b1c0861b40c8d" target="_top" xlink:title="scm_shell is the main calling program for the Single Column Model. ">
<polygon fill="#ffffff" stroke="#000000" points="1137.5,-76.5 1137.5,-95.5 1202.5,-95.5 1202.5,-76.5 1137.5,-76.5"/>
<text text-anchor="middle" x="1170" y="-83.5" font-family="Helvetica,sans-Serif" font-size="10.00" fill="#000000">scm_shell</text>
</a>
</g>
</g>
<!-- Node15&#45;&gt;Node16 -->
<g id="edge16" class="edge">
<title>Node15&#45;&gt;Node16</title>
<path fill="none" stroke="#191970" d="M1099.8248,-86C1112.3307,-86 1125.7319,-86 1137.4371,-86"/>
<polygon fill="#191970" stroke="#191970" points="1099.5872,-82.5001 1089.5872,-86 1099.5871,-89.5001 1099.5872,-82.5001"/>
</g>
<!-- Node18 -->
<g id="node18" class="node">
<title>Node18</title>
<g id="a_node18"><a xlink:href="namespaceglue__conv__4a__mod.xhtml#a4cb48dc3e9cfb0ea5d0daf6d1889ed9b" target="_top" xlink:title="Gather&#45;scatter routine for deep and shallow convection points. ">
<polygon fill="#ffffff" stroke="#000000" points="605,-52 605,-82 742,-82 742,-52 605,-52"/>
<text text-anchor="start" x="613" y="-70" font-family="Helvetica,sans-Serif" font-size="10.00" fill="#000000">glue_conv_4a_mod::glue</text>
<text text-anchor="middle" x="673.5" y="-59" font-family="Helvetica,sans-Serif" font-size="10.00" fill="#000000">_conv_4a</text>
</a>
</g>
</g>
<!-- Node17&#45;&gt;Node18 -->
<g id="edge18" class="edge">
<title>Node17&#45;&gt;Node18</title>
<path fill="none" stroke="#191970" d="M571.9715,-79.4857C582.5821,-78.1808 593.8729,-76.7923 604.924,-75.4333"/>
<polygon fill="#191970" stroke="#191970" points="571.5349,-76.0129 562.0369,-80.7074 572.3893,-82.9606 571.5349,-76.0129"/>
</g>
<!-- Node18&#45;&gt;Node7 -->
<g id="edge19" class="edge">
<title>Node18&#45;&gt;Node7</title>
<path fill="none" stroke="#191970" d="M720.0615,-85.9572C743.4531,-95.4809 770.7922,-106.6118 789.8313,-114.3635"/>
<polygon fill="#191970" stroke="#191970" points="721.2315,-82.6546 710.6499,-82.1253 718.5918,-89.1379 721.2315,-82.6546"/>
</g>
<!-- Node19&#45;&gt;Node6 -->
<g id="edge21" class="edge">
<title>Node19&#45;&gt;Node6</title>
<path fill="none" stroke="#191970" d="M567.9465,-187.9614C582.0221,-184.4994 597.5524,-180.6797 612.2711,-177.0595"/>
<polygon fill="#191970" stroke="#191970" points="566.8615,-184.6238 557.9869,-190.411 568.5334,-191.4213 566.8615,-184.6238"/>
</g>
<!-- Node20&#45;&gt;Node18 -->
<g id="edge23" class="edge">
<title>Node20&#45;&gt;Node18</title>
<path fill="none" stroke="#191970" d="M569.6422,-54.2278C580.8818,-55.6101 592.9776,-57.0976 604.8027,-58.5518"/>
<polygon fill="#191970" stroke="#191970" points="569.9455,-50.7389 559.5931,-52.992 569.0911,-57.6865 569.9455,-50.7389"/>
</g>
<!-- Node21&#45;&gt;Node6 -->
<g id="edge25" class="edge">
<title>Node21&#45;&gt;Node6</title>
<path fill="none" stroke="#191970" d="M569.6422,-162C580.8818,-162 592.9776,-162 604.8027,-162"/>
<polygon fill="#191970" stroke="#191970" points="569.5931,-158.5001 559.5931,-162 569.593,-165.5001 569.5931,-158.5001"/>
</g>
<!-- Node22&#45;&gt;Node18 -->
<g id="edge27" class="edge">
<title>Node22&#45;&gt;Node18</title>
<path fill="none" stroke="#191970" d="M554.374,-23.0506C577.7099,-31.66 608.3523,-42.9649 632.7151,-51.9532"/>
<polygon fill="#191970" stroke="#191970" points="555.4532,-19.7182 544.8598,-19.5405 553.0302,-26.2855 555.4532,-19.7182"/>
</g>
<!-- Node23&#45;&gt;Node6 -->
<g id="edge29" class="edge">
<title>Node23&#45;&gt;Node6</title>
<path fill="none" stroke="#191970" d="M567.9465,-136.0386C582.0221,-139.5006 597.5524,-143.3203 612.2711,-146.9405"/>
<polygon fill="#191970" stroke="#191970" points="568.5334,-132.5787 557.9869,-133.589 566.8615,-139.3762 568.5334,-132.5787"/>
</g>
</g>
</svg>
        <g id="navigator" transform="translate(0 0)" fill="#404254">
                <rect fill="#f2f5e9" fill-opacity="0.5" stroke="#606060" stroke-width=".5" x="0" y="0" width="60" height="60"/>
                <use id="zoomplus" xlink:href="#zoomPlus" x="17" y="9" onmousedown="handleZoom(evt,'in')"/>
                <use id="zoomminus" xlink:href="#zoomMin" x="42" y="9" onmousedown="handleZoom(evt,'out')"/>
                <use id="reset" xlink:href="#resetDef" x="30" y="36" onmousedown="handleReset()"/>
                <g id="arrowUp" xlink:href="#dirArrow" transform="translate(30 24)" onmousedown="handlePan(0,-1)">
                  <use xlink:href="#rim" fill="#404040">
                        <set attributeName="fill" to="#808080" begin="arrowUp.mouseover" end="arrowUp.mouseout"/>
                  </use>
                  <path fill="none" stroke="white" stroke-width="1.5" d="M0,-3.0v7 M-2.5,-0.5L0,-3.0L2.5,-0.5"/>
                </g>
                <g id="arrowRight" xlink:href="#dirArrow" transform="rotate(90) translate(36 -43)" onmousedown="handlePan(1,0)">
                  <use xlink:href="#rim" fill="#404040">
                        <set attributeName="fill" to="#808080" begin="arrowRight.mouseover" end="arrowRight.mouseout"/>
                  </use>
                  <path fill="none" stroke="white" stroke-width="1.5" d="M0,-3.0v7 M-2.5,-0.5L0,-3.0L2.5,-0.5"/>
                </g>
                <g id="arrowDown" xlink:href="#dirArrow" transform="rotate(180) translate(-30 -48)" onmousedown="handlePan(0,1)">
                  <use xlink:href="#rim" fill="#404040">
                        <set attributeName="fill" to="#808080" begin="arrowDown.mouseover" end="arrowDown.mouseout"/>
                  </use>
                  <path fill="none" stroke="white" stroke-width="1.5" d="M0,-3.0v7 M-2.5,-0.5L0,-3.0L2.5,-0.5"/>
                </g>
                <g id="arrowLeft" xlink:href="#dirArrow" transform="rotate(270) translate(-36 17)" onmousedown="handlePan(-1,0)">
                  <use xlink:href="#rim" fill="#404040">
                        <set attributeName="fill" to="#808080" begin="arrowLeft.mouseover" end="arrowLeft.mouseout"/>
                  </use>
                  <path fill="none" stroke="white" stroke-width="1.5" d="M0,-3.0v7 M-2.5,-0.5L0,-3.0L2.5,-0.5"/>
                </g>
        </g>
        <svg viewBox="0 0 15 15" width="100%" height="30px" preserveAspectRatio="xMaxYMin meet">
         <g id="arrow_out" transform="scale(0.3 0.3)">
          <a xlink:href="thp__det-thpdet4a_8f90_acbc4e2799264d60a215ddcddeb6f442e_icgraph_org.svg" target="_base">
           <rect id="button" ry="5" rx="5" y="6" x="6" height="38" width="38"
                fill="#f2f5e9" fill-opacity="0.5" stroke="#606060" stroke-width="1.0"/>
           <path id="arrow"
             d="M 11.500037,31.436501 C 11.940474,20.09759 22.043105,11.32322 32.158766,21.979434 L 37.068811,17.246167 C 37.068811,17.246167 37.088388,32 37.088388,32 L 22.160133,31.978069 C 22.160133,31.978069 26.997745,27.140456 26.997745,27.140456 C 18.528582,18.264221 13.291696,25.230495 11.500037,31.436501 z"
             style="fill:#404040;"/>
          </a>
         </g>
        </svg>
</svg>
