<?xml version="1.0" encoding="UTF-8" standalone="no"?>
<!DOCTYPE svg PUBLIC "-//W3C//DTD SVG 1.1//EN"
 "http://www.w3.org/Graphics/SVG/1.1/DTD/svg11.dtd">
<!-- Generated by graphviz version 2.40.1 (20161225.0304)
 -->
<!-- Title: trbdry Pages: 1 -->
<svg width="608pt" height="104pt"
 viewBox="0.00 0.00 608.00 104.00" xmlns="http://www.w3.org/2000/svg" xmlns:xlink="http://www.w3.org/1999/xlink">
<g id="graph0" class="graph" transform="scale(1 1) rotate(0) translate(4 100)">
<title>trbdry</title>
<polygon fill="#ffffff" stroke="transparent" points="-4,4 -4,-100 604,-100 604,4 -4,4"/>
<!-- Node199 -->
<g id="node1" class="node">
<title>Node199</title>
<polygon fill="#bfbfbf" stroke="#000000" points="0,-38.5 0,-57.5 46,-57.5 46,-38.5 0,-38.5"/>
<text text-anchor="middle" x="23" y="-45.5" font-family="Helvetica,sans-Serif" font-size="10.00" fill="#000000">trbdry</text>
</g>
<!-- Node200 -->
<g id="node2" class="node">
<title>Node200</title>
<g id="a_node2"><a xlink:href="atmos__physics1_8f90.xhtml#ae8d55d89da6ed68f5f8d7e9eec99bc76" target="_top" xlink:title="Interface to Atmos Physics parametrizations before S&#45;L advection. ">
<polygon fill="#ffffff" stroke="#000000" points="82,-38.5 82,-57.5 177,-57.5 177,-38.5 82,-38.5"/>
<text text-anchor="middle" x="129.5" y="-45.5" font-family="Helvetica,sans-Serif" font-size="10.00" fill="#000000">atmos_physics1</text>
</a>
</g>
</g>
<!-- Node199&#45;&gt;Node200 -->
<g id="edge1" class="edge">
<title>Node199&#45;&gt;Node200</title>
<path fill="none" stroke="#191970" d="M56.301,-48C64.4312,-48 73.2867,-48 81.9394,-48"/>
<polygon fill="#191970" stroke="#191970" points="56.1089,-44.5001 46.1089,-48 56.1089,-51.5001 56.1089,-44.5001"/>
</g>
<!-- Node201 -->
<g id="node3" class="node">
<title>Node201</title>
<g id="a_node3"><a xlink:href="atm__step_8f90.xhtml#ac0ee2467a1a9959b7065fdb8fd27bce4" target="_top" xlink:title="Perform a 1&#45;timestep integration of the Atmosphere Model. ">
<polygon fill="#ffffff" stroke="#000000" points="222,-76.5 222,-95.5 284,-95.5 284,-76.5 222,-76.5"/>
<text text-anchor="middle" x="253" y="-83.5" font-family="Helvetica,sans-Serif" font-size="10.00" fill="#000000">atm_step</text>
</a>
</g>
</g>
<!-- Node200&#45;&gt;Node201 -->
<g id="edge2" class="edge">
<title>Node200&#45;&gt;Node201</title>
<path fill="none" stroke="#191970" d="M170.2397,-60.5353C187.0405,-65.7048 206.197,-71.5991 221.8457,-76.4141"/>
<polygon fill="#191970" stroke="#191970" points="171.2514,-57.1847 160.6643,-57.589 169.1927,-63.8752 171.2514,-57.1847"/>
</g>
<!-- Node205 -->
<g id="node7" class="node">
<title>Node205</title>
<g id="a_node7"><a xlink:href="atm__step__4_a_8f90.xhtml#a2319aa4963e90c64cd78bdcd5f481095" target="_top" xlink:title="Perform a 1&#45;timestep integration of the Atmosphere Model. ">
<polygon fill="#ffffff" stroke="#000000" points="213,-38.5 213,-57.5 293,-57.5 293,-38.5 213,-38.5"/>
<text text-anchor="middle" x="253" y="-45.5" font-family="Helvetica,sans-Serif" font-size="10.00" fill="#000000">atm_step_4a</text>
</a>
</g>
</g>
<!-- Node200&#45;&gt;Node205 -->
<g id="edge6" class="edge">
<title>Node200&#45;&gt;Node205</title>
<path fill="none" stroke="#191970" d="M187.3434,-48C196.0185,-48 204.7967,-48 212.9897,-48"/>
<polygon fill="#191970" stroke="#191970" points="187.2484,-44.5001 177.2483,-48 187.2483,-51.5001 187.2484,-44.5001"/>
</g>
<!-- Node207 -->
<g id="node9" class="node">
<title>Node207</title>
<g id="a_node9"><a xlink:href="scm__main_8f90.xhtml#a2c730136605550612e094ce51d33a2a5" target="_top" xlink:title="*********************************COPYRIGHT********************************* ">
<polygon fill="#ffffff" stroke="#000000" points="219.5,-.5 219.5,-19.5 286.5,-19.5 286.5,-.5 219.5,-.5"/>
<text text-anchor="middle" x="253" y="-7.5" font-family="Helvetica,sans-Serif" font-size="10.00" fill="#000000">scm_main</text>
</a>
</g>
</g>
<!-- Node200&#45;&gt;Node207 -->
<g id="edge9" class="edge">
<title>Node200&#45;&gt;Node207</title>
<path fill="none" stroke="#191970" d="M170.2397,-35.4647C187.0405,-30.2952 206.197,-24.4009 221.8457,-19.5859"/>
<polygon fill="#191970" stroke="#191970" points="169.1927,-32.1248 160.6643,-38.411 171.2514,-38.8153 169.1927,-32.1248"/>
</g>
<!-- Node202 -->
<g id="node4" class="node">
<title>Node202</title>
<g id="a_node4"><a xlink:href="u__model_8f90.xhtml#ada0cd2ce4699433bf0f9adbd882c8eec" target="_top" xlink:title="Subroutine: U_MODEL &#45;!&gt; ">
<polygon fill="#ffffff" stroke="#000000" points="337.5,-76.5 337.5,-95.5 396.5,-95.5 396.5,-76.5 337.5,-76.5"/>
<text text-anchor="middle" x="367" y="-83.5" font-family="Helvetica,sans-Serif" font-size="10.00" fill="#000000">u_model</text>
</a>
</g>
</g>
<!-- Node201&#45;&gt;Node202 -->
<g id="edge3" class="edge">
<title>Node201&#45;&gt;Node202</title>
<path fill="none" stroke="#191970" d="M294.2532,-86C308.5539,-86 324.2895,-86 337.4568,-86"/>
<polygon fill="#191970" stroke="#191970" points="294.151,-82.5001 284.151,-86 294.151,-89.5001 294.151,-82.5001"/>
</g>
<!-- Node203 -->
<g id="node5" class="node">
<title>Node203</title>
<g id="a_node5"><a xlink:href="um__shell_8f90.xhtml#a8c9bd25362824a5c301376ecb5ed5c27" target="_top" xlink:title="Subroutine: UM_SHELL !&gt; ">
<polygon fill="#ffffff" stroke="#000000" points="441,-57.5 441,-76.5 502,-76.5 502,-57.5 441,-57.5"/>
<text text-anchor="middle" x="471.5" y="-64.5" font-family="Helvetica,sans-Serif" font-size="10.00" fill="#000000">um_shell</text>
</a>
</g>
</g>
<!-- Node202&#45;&gt;Node203 -->
<g id="edge4" class="edge">
<title>Node202&#45;&gt;Node203</title>
<path fill="none" stroke="#191970" d="M406.701,-78.7816C417.951,-76.7362 430.0261,-74.5407 440.6677,-72.6059"/>
<polygon fill="#191970" stroke="#191970" points="405.8786,-75.3737 396.666,-80.6062 407.1308,-82.2608 405.8786,-75.3737"/>
</g>
<!-- Node204 -->
<g id="node6" class="node">
<title>Node204</title>
<g id="a_node6"><a xlink:href="um__main_8f90.xhtml#a8f2d13215621443a5313261c282f098b" target="_top" xlink:title="Code Owner: See Unified Model Code Owner&#39;s HTML page. ">
<polygon fill="#ffffff" stroke="#000000" points="538,-57.5 538,-76.5 600,-76.5 600,-57.5 538,-57.5"/>
<text text-anchor="middle" x="569" y="-64.5" font-family="Helvetica,sans-Serif" font-size="10.00" fill="#000000">um_main</text>
</a>
</g>
</g>
<!-- Node203&#45;&gt;Node204 -->
<g id="edge5" class="edge">
<title>Node203&#45;&gt;Node204</title>
<path fill="none" stroke="#191970" d="M512.2756,-67C520.8294,-67 529.72,-67 537.8551,-67"/>
<polygon fill="#191970" stroke="#191970" points="512.0821,-63.5001 502.0821,-67 512.0821,-70.5001 512.0821,-63.5001"/>
</g>
<!-- Node206 -->
<g id="node8" class="node">
<title>Node206</title>
<g id="a_node8"><a xlink:href="u__model__4_a_8f90.xhtml#afa05064dab5eba198b461d0928767c7e" target="_top" xlink:title="LL Subroutine: U_MODEL_4A (ENDGAME VERSION) !&gt;LL. ">
<polygon fill="#ffffff" stroke="#000000" points="329,-38.5 329,-57.5 405,-57.5 405,-38.5 329,-38.5"/>
<text text-anchor="middle" x="367" y="-45.5" font-family="Helvetica,sans-Serif" font-size="10.00" fill="#000000">u_model_4a</text>
</a>
</g>
</g>
<!-- Node205&#45;&gt;Node206 -->
<g id="edge7" class="edge">
<title>Node205&#45;&gt;Node206</title>
<path fill="none" stroke="#191970" d="M303.3998,-48C311.891,-48 320.5803,-48 328.7002,-48"/>
<polygon fill="#191970" stroke="#191970" points="303.1922,-44.5001 293.1921,-48 303.1921,-51.5001 303.1922,-44.5001"/>
</g>
<!-- Node206&#45;&gt;Node203 -->
<g id="edge8" class="edge">
<title>Node206&#45;&gt;Node203</title>
<path fill="none" stroke="#191970" d="M414.8728,-56.7041C423.7087,-58.3107 432.7128,-59.9478 440.8647,-61.43"/>
<polygon fill="#191970" stroke="#191970" points="415.4873,-53.2586 405.0225,-54.9132 414.2351,-60.1457 415.4873,-53.2586"/>
</g>
<!-- Node208 -->
<g id="node10" class="node">
<title>Node208</title>
<g id="a_node10"><a xlink:href="scm__shell_8f90.xhtml#ab15255829ee7b5be626b1c0861b40c8d" target="_top" xlink:title="scm_shell is the main calling program for the Single Column Model. ">
<polygon fill="#ffffff" stroke="#000000" points="334.5,-.5 334.5,-19.5 399.5,-19.5 399.5,-.5 334.5,-.5"/>
<text text-anchor="middle" x="367" y="-7.5" font-family="Helvetica,sans-Serif" font-size="10.00" fill="#000000">scm_shell</text>
</a>
</g>
</g>
<!-- Node207&#45;&gt;Node208 -->
<g id="edge10" class="edge">
<title>Node207&#45;&gt;Node208</title>
<path fill="none" stroke="#191970" d="M296.8248,-10C309.3307,-10 322.7319,-10 334.4371,-10"/>
<polygon fill="#191970" stroke="#191970" points="296.5872,-6.5001 286.5872,-10 296.5871,-13.5001 296.5872,-6.5001"/>
</g>
</g>
</svg>
