<?xml version="1.0" encoding="UTF-8" standalone="no"?>
<!DOCTYPE svg PUBLIC "-//W3C//DTD SVG 1.1//EN"
 "http://www.w3.org/Graphics/SVG/1.1/DTD/svg11.dtd">
<!-- Generated by graphviz version 2.40.1 (20161225.0304)
 -->
<!-- Title: turb_diff_q_varres Pages: 1 -->
<svg width="758pt" height="66pt"
 viewBox="0.00 0.00 758.00 66.00" xmlns="http://www.w3.org/2000/svg" xmlns:xlink="http://www.w3.org/1999/xlink">
<g id="graph0" class="graph" transform="scale(1 1) rotate(0) translate(4 62)">
<title>turb_diff_q_varres</title>
<polygon fill="#ffffff" stroke="transparent" points="-4,4 -4,-62 754,-62 754,4 -4,4"/>
<!-- Node3 -->
<g id="node1" class="node">
<title>Node3</title>
<polygon fill="#bfbfbf" stroke="#000000" points="0,-19.5 0,-38.5 104,-38.5 104,-19.5 0,-19.5"/>
<text text-anchor="middle" x="52" y="-26.5" font-family="Helvetica,sans-Serif" font-size="10.00" fill="#000000">turb_diff_q_varres</text>
</g>
<!-- Node4 -->
<g id="node2" class="node">
<title>Node4</title>
<g id="a_node2"><a xlink:href="diff__divdamp__ctl_8f90.xhtml#a77098d9f3dd564ffb8e7ac8cba554b7b" target="_top" xlink:title="Subroutine Diff_Divdamp_Ctl. ">
<polygon fill="#ffffff" stroke="#000000" points="152,-38.5 152,-57.5 250,-57.5 250,-38.5 152,-38.5"/>
<text text-anchor="middle" x="201" y="-45.5" font-family="Helvetica,sans-Serif" font-size="10.00" fill="#000000">diff_divdamp_ctl</text>
</a>
</g>
</g>
<!-- Node3&#45;&gt;Node4 -->
<g id="edge1" class="edge">
<title>Node3&#45;&gt;Node4</title>
<path fill="none" stroke="#191970" d="M114.045,-36.9118C126.5944,-38.512 139.629,-40.1742 151.6697,-41.7096"/>
<polygon fill="#191970" stroke="#191970" points="114.4754,-33.4384 104.113,-35.6453 113.5899,-40.3822 114.4754,-33.4384"/>
</g>
<!-- Node10 -->
<g id="node8" class="node">
<title>Node10</title>
<g id="a_node8"><a xlink:href="diff__divdamp__ctl__mix_8f90.xhtml#a0d036ef9743b2a9a7fbab507b817efc1" target="_top" xlink:title="Subroutine Diff_Divdamp_Ctl_mix. ">
<polygon fill="#ffffff" stroke="#000000" points="140,-.5 140,-19.5 262,-19.5 262,-.5 140,-.5"/>
<text text-anchor="middle" x="201" y="-7.5" font-family="Helvetica,sans-Serif" font-size="10.00" fill="#000000">diff_divdamp_ctl_mix</text>
</a>
</g>
</g>
<!-- Node3&#45;&gt;Node10 -->
<g id="edge7" class="edge">
<title>Node3&#45;&gt;Node10</title>
<path fill="none" stroke="#191970" d="M114.045,-21.0882C122.6183,-19.995 131.4182,-18.8729 139.9728,-17.782"/>
<polygon fill="#191970" stroke="#191970" points="113.5899,-17.6178 104.113,-22.3547 114.4754,-24.5616 113.5899,-17.6178"/>
</g>
<!-- Node5 -->
<g id="node3" class="node">
<title>Node5</title>
<g id="a_node3"><a xlink:href="ni__diff__ctl_8f90.xhtml#a1007de4d9c67f1cc7bebc717748c86ee" target="_top" xlink:title="Subroutine NI_DIFF_CTL. ">
<polygon fill="#ffffff" stroke="#000000" points="298,-38.5 298,-57.5 362,-57.5 362,-38.5 298,-38.5"/>
<text text-anchor="middle" x="330" y="-45.5" font-family="Helvetica,sans-Serif" font-size="10.00" fill="#000000">ni_diff_ctl</text>
</a>
</g>
</g>
<!-- Node4&#45;&gt;Node5 -->
<g id="edge2" class="edge">
<title>Node4&#45;&gt;Node5</title>
<path fill="none" stroke="#191970" d="M260.3683,-48C273.2481,-48 286.4025,-48 297.7598,-48"/>
<polygon fill="#191970" stroke="#191970" points="260.1374,-44.5001 250.1374,-48 260.1373,-51.5001 260.1374,-44.5001"/>
</g>
<!-- Node6 -->
<g id="node4" class="node">
<title>Node6</title>
<g id="a_node4"><a xlink:href="atm__step_8f90.xhtml#ac0ee2467a1a9959b7065fdb8fd27bce4" target="_top" xlink:title="Perform a 1&#45;timestep integration of the Atmosphere Model. ">
<polygon fill="#ffffff" stroke="#000000" points="398,-38.5 398,-57.5 460,-57.5 460,-38.5 398,-38.5"/>
<text text-anchor="middle" x="429" y="-45.5" font-family="Helvetica,sans-Serif" font-size="10.00" fill="#000000">atm_step</text>
</a>
</g>
</g>
<!-- Node5&#45;&gt;Node6 -->
<g id="edge3" class="edge">
<title>Node5&#45;&gt;Node6</title>
<path fill="none" stroke="#191970" d="M372.3157,-48C380.831,-48 389.636,-48 397.6938,-48"/>
<polygon fill="#191970" stroke="#191970" points="372.1425,-44.5001 362.1425,-48 372.1424,-51.5001 372.1425,-44.5001"/>
</g>
<!-- Node7 -->
<g id="node5" class="node">
<title>Node7</title>
<g id="a_node5"><a xlink:href="u__model_8f90.xhtml#ada0cd2ce4699433bf0f9adbd882c8eec" target="_top" xlink:title="Subroutine: U_MODEL &#45;!&gt; ">
<polygon fill="#ffffff" stroke="#000000" points="496,-38.5 496,-57.5 555,-57.5 555,-38.5 496,-38.5"/>
<text text-anchor="middle" x="525.5" y="-45.5" font-family="Helvetica,sans-Serif" font-size="10.00" fill="#000000">u_model</text>
</a>
</g>
</g>
<!-- Node6&#45;&gt;Node7 -->
<g id="edge4" class="edge">
<title>Node6&#45;&gt;Node7</title>
<path fill="none" stroke="#191970" d="M470.3007,-48C478.8757,-48 487.7497,-48 495.8088,-48"/>
<polygon fill="#191970" stroke="#191970" points="470.0644,-44.5001 460.0644,-48 470.0644,-51.5001 470.0644,-44.5001"/>
</g>
<!-- Node8 -->
<g id="node6" class="node">
<title>Node8</title>
<g id="a_node6"><a xlink:href="um__shell_8f90.xhtml#a8c9bd25362824a5c301376ecb5ed5c27" target="_top" xlink:title="Subroutine: UM_SHELL !&gt; ">
<polygon fill="#ffffff" stroke="#000000" points="591,-38.5 591,-57.5 652,-57.5 652,-38.5 591,-38.5"/>
<text text-anchor="middle" x="621.5" y="-45.5" font-family="Helvetica,sans-Serif" font-size="10.00" fill="#000000">um_shell</text>
</a>
</g>
</g>
<!-- Node7&#45;&gt;Node8 -->
<g id="edge5" class="edge">
<title>Node7&#45;&gt;Node8</title>
<path fill="none" stroke="#191970" d="M565.2581,-48C573.8053,-48 582.7119,-48 590.8497,-48"/>
<polygon fill="#191970" stroke="#191970" points="565.0865,-44.5001 555.0865,-48 565.0865,-51.5001 565.0865,-44.5001"/>
</g>
<!-- Node9 -->
<g id="node7" class="node">
<title>Node9</title>
<g id="a_node7"><a xlink:href="um__main_8f90.xhtml#a8f2d13215621443a5313261c282f098b" target="_top" xlink:title="Code Owner: See Unified Model Code Owner&#39;s HTML page. ">
<polygon fill="#ffffff" stroke="#000000" points="688,-38.5 688,-57.5 750,-57.5 750,-38.5 688,-38.5"/>
<text text-anchor="middle" x="719" y="-45.5" font-family="Helvetica,sans-Serif" font-size="10.00" fill="#000000">um_main</text>
</a>
</g>
</g>
<!-- Node8&#45;&gt;Node9 -->
<g id="edge6" class="edge">
<title>Node8&#45;&gt;Node9</title>
<path fill="none" stroke="#191970" d="M662.2756,-48C670.8294,-48 679.72,-48 687.8551,-48"/>
<polygon fill="#191970" stroke="#191970" points="662.0821,-44.5001 652.0821,-48 662.0821,-51.5001 662.0821,-44.5001"/>
</g>
</g>
</svg>
