<?xml version="1.0" encoding="UTF-8" standalone="no"?>
<!DOCTYPE svg PUBLIC "-//W3C//DTD SVG 1.1//EN"
 "http://www.w3.org/Graphics/SVG/1.1/DTD/svg11.dtd">
<!-- Generated by graphviz version 2.40.1 (20161225.0304)
 -->
<!-- Title: /home/wilfred/PhD/UM/src/include/declaration/typduma.h Pages: 1 -->
<svg width="269pt" height="106pt"
 viewBox="0.00 0.00 268.50 106.00" xmlns="http://www.w3.org/2000/svg" xmlns:xlink="http://www.w3.org/1999/xlink">
<g id="graph0" class="graph" transform="scale(1 1) rotate(0) translate(4 102)">
<title>/home/wilfred/PhD/UM/src/include/declaration/typduma.h</title>
<polygon fill="#ffffff" stroke="transparent" points="-4,4 -4,-102 264.5,-102 264.5,4 -4,4"/>
<!-- Node0 -->
<g id="node1" class="node">
<title>Node0</title>
<polygon fill="#bfbfbf" stroke="#000000" points="65,-56.5 65,-97.5 195,-97.5 195,-56.5 65,-56.5"/>
<text text-anchor="start" x="73" y="-85.5" font-family="Helvetica,sans-Serif" font-size="10.00" fill="#000000">/home/wilfred/PhD/UM</text>
<text text-anchor="start" x="73" y="-74.5" font-family="Helvetica,sans-Serif" font-size="10.00" fill="#000000">/src/include/declaration</text>
<text text-anchor="middle" x="130" y="-63.5" font-family="Helvetica,sans-Serif" font-size="10.00" fill="#000000">/typduma.h</text>
</g>
<!-- Node1 -->
<g id="node2" class="node">
<title>Node1</title>
<g id="a_node2"><a xlink:href="iheadapm_8h.xhtml" target="_top" xlink:title="iheadapm.h">
<polygon fill="#ffffff" stroke="#000000" points="0,-.5 0,-19.5 74,-19.5 74,-.5 0,-.5"/>
<text text-anchor="middle" x="37" y="-7.5" font-family="Helvetica,sans-Serif" font-size="10.00" fill="#000000">iheadapm.h</text>
</a>
</g>
</g>
<!-- Node0&#45;&gt;Node1 -->
<g id="edge1" class="edge">
<title>Node0&#45;&gt;Node1</title>
<path fill="none" stroke="#191970" d="M101.3381,-56.3511C87.5485,-46.4167 71.2921,-34.7051 58.5702,-25.5398"/>
<polygon fill="#191970" stroke="#191970" points="60.5608,-22.6602 50.4012,-19.6546 56.469,-28.3398 60.5608,-22.6602"/>
</g>
<!-- Node2 -->
<g id="node3" class="node">
<title>Node2</title>
<g id="a_node3"><a xlink:href="rheadapm_8h.xhtml" target="_top" xlink:title="rheadapm.h">
<polygon fill="#ffffff" stroke="#000000" points="92.5,-.5 92.5,-19.5 167.5,-19.5 167.5,-.5 92.5,-.5"/>
<text text-anchor="middle" x="130" y="-7.5" font-family="Helvetica,sans-Serif" font-size="10.00" fill="#000000">rheadapm.h</text>
</a>
</g>
</g>
<!-- Node0&#45;&gt;Node2 -->
<g id="edge2" class="edge">
<title>Node0&#45;&gt;Node2</title>
<path fill="none" stroke="#191970" d="M130,-56.168C130,-47.8226 130,-38.2471 130,-29.9879"/>
<polygon fill="#191970" stroke="#191970" points="133.5001,-29.7804 130,-19.7805 126.5001,-29.7805 133.5001,-29.7804"/>
</g>
<!-- Node3 -->
<g id="node4" class="node">
<title>Node3</title>
<g id="a_node4"><a xlink:href="fheadapm_8h.xhtml" target="_top" xlink:title="fheadapm.h">
<polygon fill="#ffffff" stroke="#000000" points="185.5,-.5 185.5,-19.5 260.5,-19.5 260.5,-.5 185.5,-.5"/>
<text text-anchor="middle" x="223" y="-7.5" font-family="Helvetica,sans-Serif" font-size="10.00" fill="#000000">fheadapm.h</text>
</a>
</g>
</g>
<!-- Node0&#45;&gt;Node3 -->
<g id="edge3" class="edge">
<title>Node0&#45;&gt;Node3</title>
<path fill="none" stroke="#191970" d="M158.6619,-56.3511C172.4515,-46.4167 188.7079,-34.7051 201.4298,-25.5398"/>
<polygon fill="#191970" stroke="#191970" points="203.531,-28.3398 209.5988,-19.6546 199.4392,-22.6602 203.531,-28.3398"/>
</g>
</g>
</svg>
