<?xml version="1.0" encoding="UTF-8" standalone="no"?>
<!DOCTYPE svg PUBLIC "-//W3C//DTD SVG 1.1//EN"
 "http://www.w3.org/Graphics/SVG/1.1/DTD/svg11.dtd">
<!-- Generated by graphviz version 2.40.1 (20161225.0304)
 -->
<!-- Title: u_model Pages: 1 -->
<svg width="262pt" height="28pt"
 viewBox="0.00 0.00 262.00 28.00" xmlns="http://www.w3.org/2000/svg" xmlns:xlink="http://www.w3.org/1999/xlink">
<g id="graph0" class="graph" transform="scale(1 1) rotate(0) translate(4 24)">
<title>u_model</title>
<polygon fill="#ffffff" stroke="transparent" points="-4,4 -4,-24 258,-24 258,4 -4,4"/>
<!-- Node1068 -->
<g id="node1" class="node">
<title>Node1068</title>
<polygon fill="#bfbfbf" stroke="#000000" points="0,-.5 0,-19.5 59,-19.5 59,-.5 0,-.5"/>
<text text-anchor="middle" x="29.5" y="-7.5" font-family="Helvetica,sans-Serif" font-size="10.00" fill="#000000">u_model</text>
</g>
<!-- Node1069 -->
<g id="node2" class="node">
<title>Node1069</title>
<g id="a_node2"><a xlink:href="um__shell_8f90.xhtml#a8c9bd25362824a5c301376ecb5ed5c27" target="_top" xlink:title="Subroutine: UM_SHELL !&gt; ">
<polygon fill="#ffffff" stroke="#000000" points="95,-.5 95,-19.5 156,-19.5 156,-.5 95,-.5"/>
<text text-anchor="middle" x="125.5" y="-7.5" font-family="Helvetica,sans-Serif" font-size="10.00" fill="#000000">um_shell</text>
</a>
</g>
</g>
<!-- Node1068&#45;&gt;Node1069 -->
<g id="edge1" class="edge">
<title>Node1068&#45;&gt;Node1069</title>
<path fill="none" stroke="#191970" d="M69.2581,-10C77.8053,-10 86.7119,-10 94.8497,-10"/>
<polygon fill="#191970" stroke="#191970" points="69.0865,-6.5001 59.0865,-10 69.0865,-13.5001 69.0865,-6.5001"/>
</g>
<!-- Node1070 -->
<g id="node3" class="node">
<title>Node1070</title>
<g id="a_node3"><a xlink:href="um__main_8f90.xhtml#a8f2d13215621443a5313261c282f098b" target="_top" xlink:title="Code Owner: See Unified Model Code Owner&#39;s HTML page. ">
<polygon fill="#ffffff" stroke="#000000" points="192,-.5 192,-19.5 254,-19.5 254,-.5 192,-.5"/>
<text text-anchor="middle" x="223" y="-7.5" font-family="Helvetica,sans-Serif" font-size="10.00" fill="#000000">um_main</text>
</a>
</g>
</g>
<!-- Node1069&#45;&gt;Node1070 -->
<g id="edge2" class="edge">
<title>Node1069&#45;&gt;Node1070</title>
<path fill="none" stroke="#191970" d="M166.2756,-10C174.8294,-10 183.72,-10 191.8551,-10"/>
<polygon fill="#191970" stroke="#191970" points="166.0821,-6.5001 156.0821,-10 166.0821,-13.5001 166.0821,-6.5001"/>
</g>
</g>
</svg>
