<?xml version="1.0" encoding="UTF-8" standalone="no"?>
<!DOCTYPE svg PUBLIC "-//W3C//DTD SVG 1.1//EN"
 "http://www.w3.org/Graphics/SVG/1.1/DTD/svg11.dtd">
<!-- Generated by graphviz version 2.40.1 (20161225.0304)
 -->
<!-- Title: ukca_emission_ctl Pages: 1 -->
<svg width="1216pt" height="410pt"
 viewBox="0.00 0.00 1216.00 410.24" xmlns="http://www.w3.org/2000/svg" xmlns:xlink="http://www.w3.org/1999/xlink">
<g id="graph0" class="graph" transform="scale(1 1) rotate(0) translate(4 406.2372)">
<title>ukca_emission_ctl</title>
<polygon fill="#ffffff" stroke="transparent" points="-4,4 -4,-406.2372 1212,-406.2372 1212,4 -4,4"/>
<!-- Node0 -->
<g id="node1" class="node">
<title>Node0</title>
<polygon fill="#bfbfbf" stroke="#000000" points="0,-127.2883 0,-146.2883 107,-146.2883 107,-127.2883 0,-127.2883"/>
<text text-anchor="middle" x="53.5" y="-134.2883" font-family="Helvetica,sans-Serif" font-size="10.00" fill="#000000">ukca_emission_ctl</text>
</g>
<!-- Node1 -->
<g id="node2" class="node">
<title>Node1</title>
<g id="a_node2"><a xlink:href="namespaceukca__mode__ems__um__mod.xhtml#ac7a6a7802fd9c3010125fefe47dfbb99" target="_top" xlink:title="Provide an aerosol primary emission array for GLOMAP&#45;mode and store emission diagnostics in the STASH...">
<polygon fill="#ffffff" stroke="#000000" points="143,-222.7883 143,-252.7883 290,-252.7883 290,-222.7883 143,-222.7883"/>
<text text-anchor="start" x="151" y="-240.7883" font-family="Helvetica,sans-Serif" font-size="10.00" fill="#000000">ukca_mode_ems_um_mod</text>
<text text-anchor="middle" x="216.5" y="-229.7883" font-family="Helvetica,sans-Serif" font-size="10.00" fill="#000000">::ukca_mode_ems_um</text>
</a>
</g>
</g>
<!-- Node0&#45;&gt;Node1 -->
<g id="edge1" class="edge">
<title>Node0&#45;&gt;Node1</title>
<path fill="none" stroke="#191970" d="M62.5182,-146.5322C77.7177,-162.4389 110.0201,-194.0829 143,-212.7883 146.693,-214.8829 150.5901,-216.8405 154.585,-218.6632"/>
<polygon fill="#191970" stroke="#191970" points="153.4614,-221.9884 164.0341,-222.6721 156.1954,-215.5444 153.4614,-221.9884"/>
</g>
<!-- Node10 -->
<g id="node11" class="node">
<title>Node10</title>
<g id="a_node11"><a xlink:href="sum_8f90.xhtml#a025c1f845b6a4ea9c9f48b8612cd82e7" target="_top" xlink:title="Generic routines for manipulating pp&#45;fields within Fieldcalc. ">
<polygon fill="#ffffff" stroke="#000000" points="374.5,-146.2883 374.5,-165.2883 412.5,-165.2883 412.5,-146.2883 374.5,-146.2883"/>
<text text-anchor="middle" x="393.5" y="-153.2883" font-family="Helvetica,sans-Serif" font-size="10.00" fill="#000000">sum</text>
</a>
</g>
</g>
<!-- Node0&#45;&gt;Node10 -->
<g id="edge26" class="edge">
<title>Node0&#45;&gt;Node10</title>
<path fill="none" stroke="#191970" d="M107.374,-139.7989C180.025,-143.8588 306.8774,-150.9476 364.0627,-154.1433"/>
<polygon fill="#191970" stroke="#191970" points="364.0383,-157.6473 374.218,-154.7108 364.4289,-150.6582 364.0383,-157.6473"/>
</g>
<!-- Node13 -->
<g id="node14" class="node">
<title>Node13</title>
<g id="a_node14"><a xlink:href="tr__mix_8f90.xhtml#a46b8187d395ca81bf4ff84e34cf7173c" target="_top" xlink:title="tr_mix">
<polygon fill="#ffffff" stroke="#000000" points="192.5,-108.2883 192.5,-127.2883 240.5,-127.2883 240.5,-108.2883 192.5,-108.2883"/>
<text text-anchor="middle" x="216.5" y="-115.2883" font-family="Helvetica,sans-Serif" font-size="10.00" fill="#000000">tr_mix</text>
</a>
</g>
</g>
<!-- Node0&#45;&gt;Node13 -->
<g id="edge17" class="edge">
<title>Node0&#45;&gt;Node13</title>
<path fill="none" stroke="#191970" d="M107.324,-130.5143C132.0282,-127.6347 160.582,-124.3063 182.291,-121.7758"/>
<polygon fill="#191970" stroke="#191970" points="182.824,-125.2375 192.3515,-120.6031 182.0135,-118.2846 182.824,-125.2375"/>
</g>
<!-- Node15 -->
<g id="node16" class="node">
<title>Node15</title>
<g id="a_node16"><a xlink:href="namespacetrsrce__mod.xhtml#a7eefc5bc8717562e297c331a549d63f1" target="_top" xlink:title="trsrce_mod::trsrce">
<polygon fill="#ffffff" stroke="#000000" points="164,-70.2883 164,-89.2883 269,-89.2883 269,-70.2883 164,-70.2883"/>
<text text-anchor="middle" x="216.5" y="-77.2883" font-family="Helvetica,sans-Serif" font-size="10.00" fill="#000000">trsrce_mod::trsrce</text>
</a>
</g>
</g>
<!-- Node0&#45;&gt;Node15 -->
<g id="edge19" class="edge">
<title>Node0&#45;&gt;Node15</title>
<path fill="none" stroke="#191970" d="M73.7817,-127.1529C91.7064,-118.8859 118.7029,-107.0358 143,-98.7883 150.1158,-96.3729 157.7078,-94.0909 165.2109,-92.0027"/>
<polygon fill="#191970" stroke="#191970" points="166.2292,-95.3533 174.9758,-89.3744 164.4098,-88.5939 166.2292,-95.3533"/>
</g>
<!-- Node17 -->
<g id="node18" class="node">
<title>Node17</title>
<g id="a_node18"><a xlink:href="ukca__diurnal__isop__ems_8f90.xhtml#aa6893337ca80ea4243fb7d4f83cfccee" target="_top" xlink:title="(c) [University of Cambridge] [2008]. All rights reserved. (c) [University of Cambridge] [2008]...">
<polygon fill="#ffffff" stroke="#000000" points="151,-323.2883 151,-342.2883 282,-342.2883 282,-323.2883 151,-323.2883"/>
<text text-anchor="middle" x="216.5" y="-330.2883" font-family="Helvetica,sans-Serif" font-size="10.00" fill="#000000">ukca_diurnal_isop_ems</text>
</a>
</g>
</g>
<!-- Node0&#45;&gt;Node17 -->
<g id="edge21" class="edge">
<title>Node0&#45;&gt;Node17</title>
<path fill="none" stroke="#191970" d="M59.4313,-146.4148C73.0041,-168.136 107.8698,-222.2214 143,-262.7883 160.0331,-282.4574 181.8693,-302.7244 197.3013,-316.3561"/>
<polygon fill="#191970" stroke="#191970" points="195.3088,-319.2626 205.1446,-323.2006 199.9114,-313.9884 195.3088,-319.2626"/>
</g>
<!-- Node18 -->
<g id="node19" class="node">
<title>Node18</title>
<g id="a_node19"><a xlink:href="namespaceasad__chem__flux__diags.xhtml#a7c911e764310970bbf4f3a1b4a1d894a" target="_top" xlink:title="asad_chem_flux_diags\l::asad_emissions_diagnostics">
<polygon fill="#ffffff" stroke="#000000" points="506,-134.7883 506,-164.7883 667,-164.7883 667,-134.7883 506,-134.7883"/>
<text text-anchor="start" x="514" y="-152.7883" font-family="Helvetica,sans-Serif" font-size="10.00" fill="#000000">asad_chem_flux_diags</text>
<text text-anchor="middle" x="586.5" y="-141.7883" font-family="Helvetica,sans-Serif" font-size="10.00" fill="#000000">::asad_emissions_diagnostics</text>
</a>
</g>
</g>
<!-- Node0&#45;&gt;Node18 -->
<g id="edge23" class="edge">
<title>Node0&#45;&gt;Node18</title>
<path fill="none" stroke="#191970" d="M60.8113,-127.1738C74.6202,-109.9109 106.4529,-74.2121 143,-60.7883 209.3337,-36.4239 399.9999,-25.1125 461,-60.7883 489.1714,-77.2643 471.3264,-104.64 497,-124.7883 499.3201,-126.6091 501.7653,-128.2974 504.3059,-129.8627"/>
<polygon fill="#191970" stroke="#191970" points="502.8091,-133.0326 513.2679,-134.7253 506.1475,-126.8799 502.8091,-133.0326"/>
</g>
<!-- Node19 -->
<g id="node20" class="node">
<title>Node19</title>
<g id="a_node20"><a xlink:href="namespaceasad__chem__flux__diags.xhtml#a7df5ea12dbda9e556b6fa6db338cd8e1" target="_top" xlink:title="asad_chem_flux_diags\l::asad_3d_emissions_diagnostics">
<polygon fill="#ffffff" stroke="#000000" points="497,-85.7883 497,-115.7883 676,-115.7883 676,-85.7883 497,-85.7883"/>
<text text-anchor="start" x="505" y="-103.7883" font-family="Helvetica,sans-Serif" font-size="10.00" fill="#000000">asad_chem_flux_diags</text>
<text text-anchor="middle" x="586.5" y="-92.7883" font-family="Helvetica,sans-Serif" font-size="10.00" fill="#000000">::asad_3d_emissions_diagnostics</text>
</a>
</g>
</g>
<!-- Node0&#45;&gt;Node19 -->
<g id="edge27" class="edge">
<title>Node0&#45;&gt;Node19</title>
<path fill="none" stroke="#191970" d="M58.3479,-127.1808C69.7021,-105.8972 100.3224,-55.1332 143,-35.7883 271.727,22.5611 323.7869,-.9081 461,-34.7883 496.3342,-43.5129 532.7135,-64.1728 557.146,-80.0726"/>
<polygon fill="#191970" stroke="#191970" points="555.3181,-83.0603 565.5829,-85.6841 559.1948,-77.2318 555.3181,-83.0603"/>
</g>
<!-- Node20 -->
<g id="node21" class="node">
<title>Node20</title>
<g id="a_node21"><a xlink:href="ukca__volcanic__so2_8f90.xhtml#a96aed4f187b282062c43a2ed188fb069" target="_top" xlink:title="(c) [University of Cambridge] [2008]. All rights reserved. ">
<polygon fill="#ffffff" stroke="#000000" points="162.5,-184.2883 162.5,-203.2883 270.5,-203.2883 270.5,-184.2883 162.5,-184.2883"/>
<text text-anchor="middle" x="216.5" y="-191.2883" font-family="Helvetica,sans-Serif" font-size="10.00" fill="#000000">ukca_volcanic_so2</text>
</a>
</g>
</g>
<!-- Node0&#45;&gt;Node20 -->
<g id="edge30" class="edge">
<title>Node0&#45;&gt;Node20</title>
<path fill="none" stroke="#191970" d="M78.8701,-146.4319C96.7386,-153.153 121.2559,-162.2325 143,-169.7883 153.8729,-173.5664 165.7084,-177.5063 176.6417,-181.0756"/>
<polygon fill="#191970" stroke="#191970" points="175.7834,-184.4767 186.3754,-184.2342 177.944,-177.8185 175.7834,-184.4767"/>
</g>
<!-- Node2 -->
<g id="node3" class="node">
<title>Node2</title>
<g id="a_node3"><a xlink:href="namespaceukca__mode__ems__mod.xhtml#a19818246e178a7675eb5a4dce967d2b8" target="_top" xlink:title="Supplies primary number and mass aerosol emissions for GLOMAP&#45;mode. ">
<polygon fill="#ffffff" stroke="#000000" points="327.5,-276.7883 327.5,-306.7883 459.5,-306.7883 459.5,-276.7883 327.5,-276.7883"/>
<text text-anchor="start" x="335.5" y="-294.7883" font-family="Helvetica,sans-Serif" font-size="10.00" fill="#000000">ukca_mode_ems_mod::</text>
<text text-anchor="middle" x="393.5" y="-283.7883" font-family="Helvetica,sans-Serif" font-size="10.00" fill="#000000">ukca_mode_ems</text>
</a>
</g>
</g>
<!-- Node1&#45;&gt;Node2 -->
<g id="edge2" class="edge">
<title>Node1&#45;&gt;Node2</title>
<path fill="none" stroke="#191970" d="M265.8044,-252.8303C287.1004,-259.3274 312.1911,-266.9822 334.4692,-273.7789"/>
<polygon fill="#191970" stroke="#191970" points="333.5672,-277.1629 344.1534,-276.7334 335.6099,-270.4676 333.5672,-277.1629"/>
</g>
<!-- Node4 -->
<g id="node5" class="node">
<title>Node4</title>
<g id="a_node5"><a xlink:href="namespaceumprintmgr.xhtml#aae44897e556705dbf5e945a26538be9a" target="_top" xlink:title="umprintmgr::umprint">
<polygon fill="#ffffff" stroke="#000000" points="712,-203.2883 712,-222.2883 831,-222.2883 831,-203.2883 712,-203.2883"/>
<text text-anchor="middle" x="771.5" y="-210.2883" font-family="Helvetica,sans-Serif" font-size="10.00" fill="#000000">umprintmgr::umprint</text>
</a>
</g>
</g>
<!-- Node1&#45;&gt;Node4 -->
<g id="edge12" class="edge">
<title>Node1&#45;&gt;Node4</title>
<path fill="none" stroke="#191970" d="M290.1997,-234.4685C397.7814,-229.6225 596.4408,-220.6738 701.7445,-215.9304"/>
<polygon fill="#191970" stroke="#191970" points="702.1145,-219.4174 711.9469,-215.4709 701.7995,-212.4245 702.1145,-219.4174"/>
</g>
<!-- Node1&#45;&gt;Node10 -->
<g id="edge13" class="edge">
<title>Node1&#45;&gt;Node10</title>
<path fill="none" stroke="#191970" d="M270.8943,-222.6704C277.5641,-219.8489 284.0999,-216.5713 290,-212.7883 309.5846,-200.2313 306.0867,-186.8172 326,-174.7883 337.6417,-167.756 351.9776,-163.243 364.4391,-160.3898"/>
<polygon fill="#191970" stroke="#191970" points="365.2671,-163.793 374.3656,-158.3646 363.8677,-156.9343 365.2671,-163.793"/>
</g>
<!-- Node11 -->
<g id="node12" class="node">
<title>Node11</title>
<g id="a_node12"><a xlink:href="copydiag__3d_8f90.xhtml#aba2363a925768155f54d8f70068e1611" target="_top" xlink:title="Subroutine COPYDIAG_3D !&gt; Purpose : To copy a diagnostic field from secondary space to the...">
<polygon fill="#ffffff" stroke="#000000" points="354.5,-184.2883 354.5,-203.2883 432.5,-203.2883 432.5,-184.2883 354.5,-184.2883"/>
<text text-anchor="middle" x="393.5" y="-191.2883" font-family="Helvetica,sans-Serif" font-size="10.00" fill="#000000">copydiag_3d</text>
</a>
</g>
</g>
<!-- Node1&#45;&gt;Node11 -->
<g id="edge14" class="edge">
<title>Node1&#45;&gt;Node11</title>
<path fill="none" stroke="#191970" d="M276.9183,-222.769C299.3103,-217.2027 324.378,-210.9712 345.5141,-205.717"/>
<polygon fill="#191970" stroke="#191970" points="346.3739,-209.1099 355.2341,-203.3007 344.6851,-202.3166 346.3739,-209.1099"/>
</g>
<!-- Node3 -->
<g id="node4" class="node">
<title>Node3</title>
<g id="a_node4"><a xlink:href="ukca__prim__su_8f90.xhtml#a759caed335234ea7397e0c757e071d38" target="_top" xlink:title="(c) [University of Leeds] [2008]. All rights reserved. ">
<polygon fill="#ffffff" stroke="#000000" points="544.5,-298.2883 544.5,-317.2883 628.5,-317.2883 628.5,-298.2883 544.5,-298.2883"/>
<text text-anchor="middle" x="586.5" y="-305.2883" font-family="Helvetica,sans-Serif" font-size="10.00" fill="#000000">ukca_prim_su</text>
</a>
</g>
</g>
<!-- Node2&#45;&gt;Node3 -->
<g id="edge3" class="edge">
<title>Node2&#45;&gt;Node3</title>
<path fill="none" stroke="#191970" d="M459.6496,-297.2722C483.969,-299.2883 511.1515,-301.5418 534.0967,-303.444"/>
<polygon fill="#191970" stroke="#191970" points="534.0604,-306.9529 544.3154,-304.2911 534.6388,-299.9768 534.0604,-306.9529"/>
</g>
<!-- Node8 -->
<g id="node9" class="node">
<title>Node8</title>
<g id="a_node9"><a xlink:href="ukca__prim__car_8f90.xhtml#ac5b7b677048ab6adb5551e6ecac0cf2b" target="_top" xlink:title="(c) [University of Leeds] [2008]. All rights reserved. ">
<polygon fill="#ffffff" stroke="#000000" points="542.5,-260.2883 542.5,-279.2883 630.5,-279.2883 630.5,-260.2883 542.5,-260.2883"/>
<text text-anchor="middle" x="586.5" y="-267.2883" font-family="Helvetica,sans-Serif" font-size="10.00" fill="#000000">ukca_prim_car</text>
</a>
</g>
</g>
<!-- Node2&#45;&gt;Node8 -->
<g id="edge9" class="edge">
<title>Node2&#45;&gt;Node8</title>
<path fill="none" stroke="#191970" d="M459.6496,-284.2479C483.3066,-281.5513 509.6729,-278.5458 532.2125,-275.9765"/>
<polygon fill="#191970" stroke="#191970" points="532.7366,-279.4395 542.2758,-274.8294 531.9437,-272.4846 532.7366,-279.4395"/>
</g>
<!-- Node9 -->
<g id="node10" class="node">
<title>Node9</title>
<g id="a_node10"><a xlink:href="ukca__prim__ss_8f90.xhtml#a9a79dbd63633d9b2f6263efb58e016e6" target="_top" xlink:title="(c) [University of Leeds] [2008]. All rights reserved. ">
<polygon fill="#ffffff" stroke="#000000" points="545,-336.2883 545,-355.2883 628,-355.2883 628,-336.2883 545,-336.2883"/>
<text text-anchor="middle" x="586.5" y="-343.2883" font-family="Helvetica,sans-Serif" font-size="10.00" fill="#000000">ukca_prim_ss</text>
</a>
</g>
</g>
<!-- Node2&#45;&gt;Node9 -->
<g id="edge10" class="edge">
<title>Node2&#45;&gt;Node9</title>
<path fill="none" stroke="#191970" d="M434.4573,-306.8695C453.3406,-313.5037 476.1459,-321.0697 497,-326.7883 509.2085,-330.1361 522.4895,-333.2408 534.9921,-335.9294"/>
<polygon fill="#191970" stroke="#191970" points="534.3108,-339.3626 544.8167,-337.9931 535.7498,-332.5121 534.3108,-339.3626"/>
</g>
<!-- Node3&#45;&gt;Node4 -->
<g id="edge4" class="edge">
<title>Node3&#45;&gt;Node4</title>
<path fill="none" stroke="#191970" d="M628.7882,-302.9365C644.1608,-300.1196 661.3458,-295.6994 676,-288.7883 707.2447,-274.0528 737.4252,-247.2626 755.2251,-229.7478"/>
<polygon fill="#191970" stroke="#191970" points="757.9292,-231.9919 762.4916,-222.4297 752.9619,-227.0596 757.9292,-231.9919"/>
</g>
<!-- Node5 -->
<g id="node6" class="node">
<title>Node5</title>
<g id="a_node6"><a xlink:href="namespaceumprintmgr.xhtml#a088ce22a18d574e9df7ee1850bfb10c7" target="_top" xlink:title="umprintmgr::umprintopenstream">
<polygon fill="#ffffff" stroke="#000000" points="867,-203.2883 867,-222.2883 1044,-222.2883 1044,-203.2883 867,-203.2883"/>
<text text-anchor="middle" x="955.5" y="-210.2883" font-family="Helvetica,sans-Serif" font-size="10.00" fill="#000000">umprintmgr::umprintopenstream</text>
</a>
</g>
</g>
<!-- Node4&#45;&gt;Node5 -->
<g id="edge5" class="edge">
<title>Node4&#45;&gt;Node5</title>
<path fill="none" stroke="#191970" d="M831.2395,-206.4215C839.4605,-206.2184 848.0751,-206.096 856.7702,-206.0544"/>
<polygon fill="#191970" stroke="#191970" points="856.9998,-209.5542 866.9958,-206.0426 856.9917,-202.5542 856.9998,-209.5542"/>
</g>
<!-- Node6 -->
<g id="node7" class="node">
<title>Node6</title>
<g id="a_node7"><a xlink:href="namespaceumprintmgr.xhtml#ad3a290b30a6e25500eabc0bf90330b77" target="_top" xlink:title="umprintmgr::umprintflush">
<polygon fill="#ffffff" stroke="#000000" points="884.5,-140.2883 884.5,-159.2883 1026.5,-159.2883 1026.5,-140.2883 884.5,-140.2883"/>
<text text-anchor="middle" x="955.5" y="-147.2883" font-family="Helvetica,sans-Serif" font-size="10.00" fill="#000000">umprintmgr::umprintflush</text>
</a>
</g>
</g>
<!-- Node4&#45;&gt;Node6 -->
<g id="edge7" class="edge">
<title>Node4&#45;&gt;Node6</title>
<path fill="none" stroke="#191970" d="M799.4456,-203.2199C831.0137,-192.4113 882.5568,-174.7634 917.7004,-162.7305"/>
<polygon fill="#191970" stroke="#191970" points="919.2664,-165.8939 927.5934,-159.3433 916.9988,-159.2713 919.2664,-165.8939"/>
</g>
<!-- Node5&#45;&gt;Node4 -->
<g id="edge6" class="edge">
<title>Node5&#45;&gt;Node4</title>
<path fill="none" stroke="#191970" d="M866.9958,-219.5339C858.3802,-219.5553 849.7236,-219.4977 841.3289,-219.361"/>
<polygon fill="#191970" stroke="#191970" points="841.3089,-215.8599 831.2395,-219.155 841.166,-222.8585 841.3089,-215.8599"/>
</g>
<!-- Node7 -->
<g id="node8" class="node">
<title>Node7</title>
<g id="a_node8"><a xlink:href="namespaceumflush__mod.xhtml#a3a003ab59990bdcb712b443dd5e0d1cd" target="_top" xlink:title="umflush_mod::umflush">
<polygon fill="#ffffff" stroke="#000000" points="1080,-140.2883 1080,-159.2883 1208,-159.2883 1208,-140.2883 1080,-140.2883"/>
<text text-anchor="middle" x="1144" y="-147.2883" font-family="Helvetica,sans-Serif" font-size="10.00" fill="#000000">umflush_mod::umflush</text>
</a>
</g>
</g>
<!-- Node6&#45;&gt;Node7 -->
<g id="edge8" class="edge">
<title>Node6&#45;&gt;Node7</title>
<path fill="none" stroke="#191970" d="M1026.7638,-149.7883C1040.7742,-149.7883 1055.5063,-149.7883 1069.6162,-149.7883"/>
<polygon fill="#191970" stroke="#191970" points="1069.7612,-153.2884 1079.7611,-149.7883 1069.7611,-146.2884 1069.7612,-153.2884"/>
</g>
<!-- Node9&#45;&gt;Node4 -->
<g id="edge11" class="edge">
<title>Node9&#45;&gt;Node4</title>
<path fill="none" stroke="#191970" d="M628.2624,-342.7254C644.0811,-340.123 661.706,-335.3824 676,-326.7883 715.4374,-303.077 746.2512,-257.1247 761.3333,-231.3935"/>
<polygon fill="#191970" stroke="#191970" points="764.4272,-233.0332 766.3286,-222.6104 758.3424,-229.5726 764.4272,-233.0332"/>
</g>
<!-- Node12 -->
<g id="node13" class="node">
<title>Node12</title>
<g id="a_node13"><a xlink:href="set__levels__list_8f90.xhtml#a7047599e3e5b5dada45a1616ed44a537" target="_top" xlink:title="Subroutine SET_LEVELS_LIST. ">
<polygon fill="#ffffff" stroke="#000000" points="543.5,-184.2883 543.5,-203.2883 629.5,-203.2883 629.5,-184.2883 543.5,-184.2883"/>
<text text-anchor="middle" x="586.5" y="-191.2883" font-family="Helvetica,sans-Serif" font-size="10.00" fill="#000000">set_levels_list</text>
</a>
</g>
</g>
<!-- Node11&#45;&gt;Node12 -->
<g id="edge15" class="edge">
<title>Node11&#45;&gt;Node12</title>
<path fill="none" stroke="#191970" d="M432.5564,-193.7883C461.5784,-193.7883 501.499,-193.7883 533.4151,-193.7883"/>
<polygon fill="#191970" stroke="#191970" points="533.4723,-197.2884 543.4722,-193.7883 533.4722,-190.2884 533.4723,-197.2884"/>
</g>
<!-- Node12&#45;&gt;Node4 -->
<g id="edge16" class="edge">
<title>Node12&#45;&gt;Node4</title>
<path fill="none" stroke="#191970" d="M629.8743,-198.2429C651.2739,-200.4407 677.6152,-203.1461 701.7527,-205.625"/>
<polygon fill="#191970" stroke="#191970" points="701.6362,-209.1314 711.9415,-206.6715 702.3515,-202.168 701.6362,-209.1314"/>
</g>
<!-- Node14 -->
<g id="node15" class="node">
<title>Node14</title>
<g id="a_node15"><a xlink:href="namespaceimp__mix__mod.xhtml#a5f38f571f6675802c62e6fd28e9949a4" target="_top" xlink:title="imp_mix_mod::imp_mix">
<polygon fill="#ffffff" stroke="#000000" points="326,-108.2883 326,-127.2883 461,-127.2883 461,-108.2883 326,-108.2883"/>
<text text-anchor="middle" x="393.5" y="-115.2883" font-family="Helvetica,sans-Serif" font-size="10.00" fill="#000000">imp_mix_mod::imp_mix</text>
</a>
</g>
</g>
<!-- Node13&#45;&gt;Node14 -->
<g id="edge18" class="edge">
<title>Node13&#45;&gt;Node14</title>
<path fill="none" stroke="#191970" d="M240.74,-117.7883C260.1333,-117.7883 288.4588,-117.7883 315.4657,-117.7883"/>
<polygon fill="#191970" stroke="#191970" points="315.7305,-121.2884 325.7305,-117.7883 315.7304,-114.2884 315.7305,-121.2884"/>
</g>
<!-- Node16 -->
<g id="node17" class="node">
<title>Node16</title>
<g id="a_node17"><a xlink:href="ctracera_8h.xhtml#af11ae928fae7e6ee508166ead553bcff" target="_top" xlink:title="tracer">
<polygon fill="#ffffff" stroke="#000000" points="371,-70.2883 371,-89.2883 416,-89.2883 416,-70.2883 371,-70.2883"/>
<text text-anchor="middle" x="393.5" y="-77.2883" font-family="Helvetica,sans-Serif" font-size="10.00" fill="#000000">tracer</text>
</a>
</g>
</g>
<!-- Node15&#45;&gt;Node16 -->
<g id="edge20" class="edge">
<title>Node15&#45;&gt;Node16</title>
<path fill="none" stroke="#191970" d="M269.1266,-79.7883C298.7297,-79.7883 334.7789,-79.7883 360.4295,-79.7883"/>
<polygon fill="#191970" stroke="#191970" points="360.7368,-83.2884 370.7368,-79.7883 360.7368,-76.2884 360.7368,-83.2884"/>
</g>
<!-- Node17&#45;&gt;Node4 -->
<g id="edge22" class="edge">
<title>Node17&#45;&gt;Node4</title>
<path fill="none" stroke="#191970" d="M238.9105,-342.3665C308.8472,-370.675 527.274,-446.9899 676,-364.7883 727.6862,-336.2211 755.1804,-266.6639 765.9776,-232.4507"/>
<polygon fill="#191970" stroke="#191970" points="769.3873,-233.265 768.906,-222.6811 762.6821,-231.2551 769.3873,-233.265"/>
</g>
<!-- Node18&#45;&gt;Node4 -->
<g id="edge24" class="edge">
<title>Node18&#45;&gt;Node4</title>
<path fill="none" stroke="#191970" d="M644.0711,-164.8946C654.7475,-167.9714 665.7586,-171.3313 676,-174.7883 697.6403,-182.093 721.5145,-191.5927 739.979,-199.2663"/>
<polygon fill="#191970" stroke="#191970" points="738.7905,-202.5631 749.366,-203.2034 741.498,-196.1079 738.7905,-202.5631"/>
</g>
<!-- Node18&#45;&gt;Node6 -->
<g id="edge25" class="edge">
<title>Node18&#45;&gt;Node6</title>
<path fill="none" stroke="#191970" d="M667.0226,-149.7883C728.4908,-149.7883 812.8208,-149.7883 874.4253,-149.7883"/>
<polygon fill="#191970" stroke="#191970" points="874.4948,-153.2884 884.4947,-149.7883 874.4947,-146.2884 874.4948,-153.2884"/>
</g>
<!-- Node19&#45;&gt;Node4 -->
<g id="edge28" class="edge">
<title>Node19&#45;&gt;Node4</title>
<path fill="none" stroke="#191970" d="M653.8528,-115.8809C661.5365,-118.6804 669.084,-121.9594 676,-125.7883 708.9648,-144.0384 739.7917,-175.803 757.09,-195.4847"/>
<polygon fill="#191970" stroke="#191970" points="754.4686,-197.8044 763.642,-203.1053 759.7765,-193.2408 754.4686,-197.8044"/>
</g>
<!-- Node19&#45;&gt;Node6 -->
<g id="edge29" class="edge">
<title>Node19&#45;&gt;Node6</title>
<path fill="none" stroke="#191970" d="M676.2957,-112.7124C736.7948,-120.7461 815.9332,-131.255 874.5015,-139.0324"/>
<polygon fill="#191970" stroke="#191970" points="874.0783,-142.5068 884.4521,-140.3537 874.9999,-135.5677 874.0783,-142.5068"/>
</g>
<!-- Node20&#45;&gt;Node10 -->
<g id="edge31" class="edge">
<title>Node20&#45;&gt;Node10</title>
<path fill="none" stroke="#191970" d="M261.1646,-184.1993C293.4931,-177.2587 336.2621,-168.0766 364.3086,-162.0554"/>
<polygon fill="#191970" stroke="#191970" points="365.2418,-165.4349 374.2843,-159.9137 363.7724,-158.5908 365.2418,-165.4349"/>
</g>
</g>
</svg>
