<?xml version="1.0" encoding="UTF-8" standalone="no"?>
<!DOCTYPE svg PUBLIC "-//W3C//DTD SVG 1.1//EN"
 "http://www.w3.org/Graphics/SVG/1.1/DTD/svg11.dtd">
<!-- Generated by graphviz version 2.40.1 (20161225.0304)
 -->
<!-- Title: ukca_volcanic_so2 Pages: 1 -->
<svg width="463pt" height="78pt"
 viewBox="0.00 0.00 463.00 77.50" xmlns="http://www.w3.org/2000/svg" xmlns:xlink="http://www.w3.org/1999/xlink">
<g id="graph0" class="graph" transform="scale(1 1) rotate(0) translate(4 73.5)">
<title>ukca_volcanic_so2</title>
<polygon fill="#ffffff" stroke="transparent" points="-4,4 -4,-73.5 459,-73.5 459,4 -4,4"/>
<!-- Node2 -->
<g id="node1" class="node">
<title>Node2</title>
<polygon fill="#bfbfbf" stroke="#000000" points="0,-22.5 0,-41.5 108,-41.5 108,-22.5 0,-22.5"/>
<text text-anchor="middle" x="54" y="-29.5" font-family="Helvetica,sans-Serif" font-size="10.00" fill="#000000">ukca_volcanic_so2</text>
</g>
<!-- Node3 -->
<g id="node2" class="node">
<title>Node3</title>
<g id="a_node2"><a xlink:href="namespaceukca__add__emiss__mod.xhtml#ac794e986c27f0edc65a75f3d3126c71e" target="_top" xlink:title="ukca_add_emiss_mod\l::ukca_add_emiss">
<polygon fill="#ffffff" stroke="#000000" points="144,-39 144,-69 269,-69 269,-39 144,-39"/>
<text text-anchor="start" x="152" y="-57" font-family="Helvetica,sans-Serif" font-size="10.00" fill="#000000">ukca_add_emiss_mod</text>
<text text-anchor="middle" x="206.5" y="-46" font-family="Helvetica,sans-Serif" font-size="10.00" fill="#000000">::ukca_add_emiss</text>
</a>
</g>
</g>
<!-- Node2&#45;&gt;Node3 -->
<g id="edge1" class="edge">
<title>Node2&#45;&gt;Node3</title>
<path fill="none" stroke="#191970" d="M118.0958,-41.2466C126.6339,-42.4783 135.3808,-43.7402 143.8931,-44.9682"/>
<polygon fill="#191970" stroke="#191970" points="118.5925,-37.7821 108.1952,-39.8183 117.593,-44.7104 118.5925,-37.7821"/>
</g>
<!-- Node5 -->
<g id="node4" class="node">
<title>Node5</title>
<g id="a_node4"><a xlink:href="ukca__emission__ctl_8f90.xhtml#a007dfe72c7fd41e2dcf96dc6ae4b2632" target="_top" xlink:title="(C) Crown copyright Met Office. All rights reserved.!&gt; For further details please refer to the file C...">
<polygon fill="#ffffff" stroke="#000000" points="153,-.5 153,-19.5 260,-19.5 260,-.5 153,-.5"/>
<text text-anchor="middle" x="206.5" y="-7.5" font-family="Helvetica,sans-Serif" font-size="10.00" fill="#000000">ukca_emission_ctl</text>
</a>
</g>
</g>
<!-- Node2&#45;&gt;Node5 -->
<g id="edge3" class="edge">
<title>Node2&#45;&gt;Node5</title>
<path fill="none" stroke="#191970" d="M118.2402,-22.7326C129.8131,-21.063 141.7647,-19.3389 152.9922,-17.7192"/>
<polygon fill="#191970" stroke="#191970" points="117.593,-19.2896 108.1952,-24.1817 118.5925,-26.2179 117.593,-19.2896"/>
</g>
<!-- Node4 -->
<g id="node3" class="node">
<title>Node4</title>
<g id="a_node3"><a xlink:href="namespaceukca__new__emiss__ctl__mod.xhtml#a09e21dd1c2f6ef3fe34d3403e1779ced" target="_top" xlink:title="ukca_new_emiss_ctl\l_mod::ukca_new_emiss_ctl">
<polygon fill="#ffffff" stroke="#000000" points="305,-39 305,-69 455,-69 455,-39 305,-39"/>
<text text-anchor="start" x="313" y="-57" font-family="Helvetica,sans-Serif" font-size="10.00" fill="#000000">ukca_new_emiss_ctl</text>
<text text-anchor="middle" x="380" y="-46" font-family="Helvetica,sans-Serif" font-size="10.00" fill="#000000">_mod::ukca_new_emiss_ctl</text>
</a>
</g>
</g>
<!-- Node3&#45;&gt;Node4 -->
<g id="edge2" class="edge">
<title>Node3&#45;&gt;Node4</title>
<path fill="none" stroke="#191970" d="M279.2873,-54C287.6996,-54 296.2918,-54 304.7361,-54"/>
<polygon fill="#191970" stroke="#191970" points="279.1375,-50.5001 269.1375,-54 279.1374,-57.5001 279.1375,-50.5001"/>
</g>
</g>
</svg>
