<?xml version="1.0" encoding="UTF-8" standalone="no"?>
<!DOCTYPE svg PUBLIC "-//W3C//DTD SVG 1.1//EN"
 "http://www.w3.org/Graphics/SVG/1.1/DTD/svg11.dtd">
<!-- Generated by graphviz version 2.40.1 (20161225.0304)
 -->
<!-- Title: ukca_aero_ctl Pages: 1 -->
<!--zoomable 818 -->
<svg id="main" version="1.1" xmlns="http://www.w3.org/2000/svg" xmlns:xlink="http://www.w3.org/1999/xlink" xml:space="preserve" onload="init(evt)">
<style type="text/css"><![CDATA[
.edge:hover path { stroke: red; }
.edge:hover polygon { stroke: red; fill: red; }
]]></style>
<script type="text/javascript"><![CDATA[
var edges = document.getElementsByTagName('g');
if (edges && edges.length) {
  for (var i=0;i<edges.length;i++) {
    if (edges[i].id.substr(0,4)=='edge') {
      edges[i].setAttribute('class','edge');
    }
  }
}
]]></script>
        <defs>
                <circle id="rim" cx="0" cy="0" r="7"/>
                <circle id="rim2" cx="0" cy="0" r="3.5"/>
                <g id="zoomPlus">
                        <use xlink:href="#rim" fill="#404040">
                                <set attributeName="fill" to="#808080" begin="zoomplus.mouseover" end="zoomplus.mouseout"/>
                        </use>
                        <path d="M-4,0h8M0,-4v8" fill="none" stroke="white" stroke-width="1.5" pointer-events="none"/>
                </g>
                <g id="zoomMin">
                        <use xlink:href="#rim" fill="#404040">
                                <set attributeName="fill" to="#808080" begin="zoomminus.mouseover" end="zoomminus.mouseout"/>
                        </use>
                        <path d="M-4,0h8" fill="none" stroke="white" stroke-width="1.5" pointer-events="none"/>
                </g>
                <g id="dirArrow">
                        <path fill="none" stroke="white" stroke-width="1.5" d="M0,-3.0v7 M-2.5,-0.5L0,-3.0L2.5,-0.5"/>
                </g>
               <g id="resetDef">
                       <use xlink:href="#rim2" fill="#404040">
                               <set attributeName="fill" to="#808080" begin="reset.mouseover" end="reset.mouseout"/>
                       </use>
               </g>
        </defs>

<script type="text/javascript">
var viewWidth = 1104;
var viewHeight = 818;
var sectionId = 'dynsection-0';
</script>
<script xlink:href="svgpan.js"/>
<svg id="graph" class="graph">
<g id="viewport">
<title>ukca_aero_ctl</title>
<polygon fill="#ffffff" stroke="transparent" points="-4,4 -4,-813.7193 1100,-813.7193 1100,4 -4,4"/>
<!-- Node0 -->
<g id="node1" class="node">
<title>Node0</title>
<polygon fill="#bfbfbf" stroke="#000000" points="0,-714.2193 0,-733.2193 84,-733.2193 84,-714.2193 0,-714.2193"/>
<text text-anchor="middle" x="42" y="-721.2193" font-family="Helvetica,sans-Serif" font-size="10.00" fill="#000000">ukca_aero_ctl</text>
</g>
<!-- Node1 -->
<g id="node2" class="node">
<title>Node1</title>
<g id="a_node2"><a xlink:href="tr__mix_8f90.xhtml#a46b8187d395ca81bf4ff84e34cf7173c" target="_top" xlink:title="tr_mix">
<polygon fill="#ffffff" stroke="#000000" points="142.5,-790.2193 142.5,-809.2193 190.5,-809.2193 190.5,-790.2193 142.5,-790.2193"/>
<text text-anchor="middle" x="166.5" y="-797.2193" font-family="Helvetica,sans-Serif" font-size="10.00" fill="#000000">tr_mix</text>
</a>
</g>
</g>
<!-- Node0&#45;&gt;Node1 -->
<g id="edge1" class="edge">
<title>Node0&#45;&gt;Node1</title>
<path fill="none" stroke="#191970" d="M55.5112,-733.3979C70.8348,-744.215 96.7205,-762.0094 120,-775.7193 125.6509,-779.0473 131.8123,-782.4067 137.747,-785.5153"/>
<polygon fill="#191970" stroke="#191970" points="136.2857,-788.6993 146.7803,-790.153 139.4828,-782.4721 136.2857,-788.6993"/>
</g>
<!-- Node3 -->
<g id="node4" class="node">
<title>Node3</title>
<g id="a_node4"><a xlink:href="namespaceumprintmgr.xhtml#aae44897e556705dbf5e945a26538be9a" target="_top" xlink:title="umprintmgr::umprint">
<polygon fill="#ffffff" stroke="#000000" points="596.5,-353.2193 596.5,-372.2193 715.5,-372.2193 715.5,-353.2193 596.5,-353.2193"/>
<text text-anchor="middle" x="656" y="-360.2193" font-family="Helvetica,sans-Serif" font-size="10.00" fill="#000000">umprintmgr::umprint</text>
</a>
</g>
</g>
<!-- Node0&#45;&gt;Node3 -->
<g id="edge3" class="edge">
<title>Node0&#45;&gt;Node3</title>
<path fill="none" stroke="#191970" d="M43.3658,-714.1472C54.3539,-638.6586 130.9763,-140.0833 249,-59.7193 362.1495,17.3258 446.2271,21.7054 557,-58.7193 604.887,-93.4868 641.684,-281.2406 652.6431,-343.0085"/>
<polygon fill="#191970" stroke="#191970" points="649.2211,-343.7596 654.3855,-353.0105 656.1172,-342.5581 649.2211,-343.7596"/>
</g>
<!-- Node7 -->
<g id="node8" class="node">
<title>Node7</title>
<g id="a_node8"><a xlink:href="sum_8f90.xhtml#a025c1f845b6a4ea9c9f48b8612cd82e7" target="_top" xlink:title="Generic routines for manipulating pp&#45;fields within Fieldcalc. ">
<polygon fill="#ffffff" stroke="#000000" points="637,-638.2193 637,-657.2193 675,-657.2193 675,-638.2193 637,-638.2193"/>
<text text-anchor="middle" x="656" y="-645.2193" font-family="Helvetica,sans-Serif" font-size="10.00" fill="#000000">sum</text>
</a>
</g>
</g>
<!-- Node0&#45;&gt;Node7 -->
<g id="edge8" class="edge">
<title>Node0&#45;&gt;Node7</title>
<path fill="none" stroke="#191970" d="M84.12,-728.8728C173.3983,-738.3565 387.3748,-753.4297 557,-704.7193 586.4565,-696.2604 616.4235,-677.245 635.5518,-663.4994"/>
<polygon fill="#191970" stroke="#191970" points="637.8111,-666.182 643.7793,-657.428 633.6548,-660.5495 637.8111,-666.182"/>
</g>
<!-- Node8 -->
<g id="node9" class="node">
<title>Node8</title>
<g id="a_node9"><a xlink:href="ukca__aero__step_8f90.xhtml#a79421be0b3f7349cd803539407a11d02" target="_top" xlink:title="(c) [University of Leeds] [2008]. All rights reserved. ">
<polygon fill="#ffffff" stroke="#000000" points="120,-391.2193 120,-410.2193 213,-410.2193 213,-391.2193 120,-391.2193"/>
<text text-anchor="middle" x="166.5" y="-398.2193" font-family="Helvetica,sans-Serif" font-size="10.00" fill="#000000">ukca_aero_step</text>
</a>
</g>
</g>
<!-- Node0&#45;&gt;Node8 -->
<g id="edge9" class="edge">
<title>Node0&#45;&gt;Node8</title>
<path fill="none" stroke="#191970" d="M45.726,-714.0525C63.0161,-669.1956 135.5802,-480.9369 159.1042,-419.9068"/>
<polygon fill="#191970" stroke="#191970" points="162.4577,-420.938 162.7885,-410.3483 155.9261,-418.4204 162.4577,-420.938"/>
</g>
<!-- Node11 -->
<g id="node12" class="node">
<title>Node11</title>
<g id="a_node12"><a xlink:href="ukca__calc__drydiam_8f90.xhtml#af6076dd93ccc507130de6a431b86f3a2" target="_top" xlink:title="!&gt; (c) [University of Leeds] [2008]. All rights reserved.!&gt; This routine has been licensed to the Met...">
<polygon fill="#ffffff" stroke="#000000" points="433.5,-638.2193 433.5,-657.2193 543.5,-657.2193 543.5,-638.2193 433.5,-638.2193"/>
<text text-anchor="middle" x="488.5" y="-645.2193" font-family="Helvetica,sans-Serif" font-size="10.00" fill="#000000">ukca_calc_drydiam</text>
</a>
</g>
</g>
<!-- Node0&#45;&gt;Node11 -->
<g id="edge47" class="edge">
<title>Node0&#45;&gt;Node11</title>
<path fill="none" stroke="#191970" d="M84.0056,-716.5694C162.1334,-703.2711 330.2786,-674.6506 423.2932,-658.8183"/>
<polygon fill="#191970" stroke="#191970" points="423.8826,-662.2684 433.1535,-657.14 422.708,-655.3677 423.8826,-662.2684"/>
</g>
<!-- Node2 -->
<g id="node3" class="node">
<title>Node2</title>
<g id="a_node3"><a xlink:href="namespaceimp__mix__mod.xhtml#a5f38f571f6675802c62e6fd28e9949a4" target="_top" xlink:title="imp_mix_mod::imp_mix">
<polygon fill="#ffffff" stroke="#000000" points="249,-790.2193 249,-809.2193 384,-809.2193 384,-790.2193 249,-790.2193"/>
<text text-anchor="middle" x="316.5" y="-797.2193" font-family="Helvetica,sans-Serif" font-size="10.00" fill="#000000">imp_mix_mod::imp_mix</text>
</a>
</g>
</g>
<!-- Node1&#45;&gt;Node2 -->
<g id="edge2" class="edge">
<title>Node1&#45;&gt;Node2</title>
<path fill="none" stroke="#191970" d="M190.6001,-799.7193C203.8227,-799.7193 221.0419,-799.7193 238.4792,-799.7193"/>
<polygon fill="#191970" stroke="#191970" points="238.7427,-803.2194 248.7426,-799.7193 238.7426,-796.2194 238.7427,-803.2194"/>
</g>
<!-- Node4 -->
<g id="node5" class="node">
<title>Node4</title>
<g id="a_node5"><a xlink:href="namespaceumprintmgr.xhtml#a088ce22a18d574e9df7ee1850bfb10c7" target="_top" xlink:title="umprintmgr::umprintopenstream">
<polygon fill="#ffffff" stroke="#000000" points="755,-353.2193 755,-372.2193 932,-372.2193 932,-353.2193 755,-353.2193"/>
<text text-anchor="middle" x="843.5" y="-360.2193" font-family="Helvetica,sans-Serif" font-size="10.00" fill="#000000">umprintmgr::umprintopenstream</text>
</a>
</g>
</g>
<!-- Node3&#45;&gt;Node4 -->
<g id="edge4" class="edge">
<title>Node3&#45;&gt;Node4</title>
<path fill="none" stroke="#191970" d="M715.5838,-356.3846C724.9934,-356.1458 734.935,-356.01 744.9498,-355.9772"/>
<polygon fill="#191970" stroke="#191970" points="744.9715,-359.4771 754.972,-355.9786 744.9725,-352.4771 744.9715,-359.4771"/>
</g>
<!-- Node5 -->
<g id="node6" class="node">
<title>Node5</title>
<g id="a_node6"><a xlink:href="namespaceumprintmgr.xhtml#ad3a290b30a6e25500eabc0bf90330b77" target="_top" xlink:title="umprintmgr::umprintflush">
<polygon fill="#ffffff" stroke="#000000" points="772.5,-315.2193 772.5,-334.2193 914.5,-334.2193 914.5,-315.2193 772.5,-315.2193"/>
<text text-anchor="middle" x="843.5" y="-322.2193" font-family="Helvetica,sans-Serif" font-size="10.00" fill="#000000">umprintmgr::umprintflush</text>
</a>
</g>
</g>
<!-- Node3&#45;&gt;Node5 -->
<g id="edge6" class="edge">
<title>Node3&#45;&gt;Node5</title>
<path fill="none" stroke="#191970" d="M703.3142,-353.1303C728.6141,-348.0028 759.9502,-341.652 786.575,-336.2561"/>
<polygon fill="#191970" stroke="#191970" points="787.4205,-339.656 796.5261,-334.2393 786.0301,-332.7954 787.4205,-339.656"/>
</g>
<!-- Node4&#45;&gt;Node3 -->
<g id="edge5" class="edge">
<title>Node4&#45;&gt;Node3</title>
<path fill="none" stroke="#191970" d="M754.972,-369.46C745.1679,-369.495 735.2875,-369.4313 725.7613,-369.2689"/>
<polygon fill="#191970" stroke="#191970" points="725.6555,-365.766 715.5838,-369.054 725.5076,-372.7644 725.6555,-365.766"/>
</g>
<!-- Node6 -->
<g id="node7" class="node">
<title>Node6</title>
<g id="a_node7"><a xlink:href="namespaceumflush__mod.xhtml#a3a003ab59990bdcb712b443dd5e0d1cd" target="_top" xlink:title="umflush_mod::umflush">
<polygon fill="#ffffff" stroke="#000000" points="968,-315.2193 968,-334.2193 1096,-334.2193 1096,-315.2193 968,-315.2193"/>
<text text-anchor="middle" x="1032" y="-322.2193" font-family="Helvetica,sans-Serif" font-size="10.00" fill="#000000">umflush_mod::umflush</text>
</a>
</g>
</g>
<!-- Node5&#45;&gt;Node6 -->
<g id="edge7" class="edge">
<title>Node5&#45;&gt;Node6</title>
<path fill="none" stroke="#191970" d="M914.7638,-324.7193C928.7742,-324.7193 943.5063,-324.7193 957.6162,-324.7193"/>
<polygon fill="#191970" stroke="#191970" points="957.7612,-328.2194 967.7611,-324.7193 957.7611,-321.2194 957.7612,-328.2194"/>
</g>
<!-- Node8&#45;&gt;Node3 -->
<g id="edge12" class="edge">
<title>Node8&#45;&gt;Node3</title>
<path fill="none" stroke="#191970" d="M167.9553,-391.0906C174.801,-347.2087 205.3067,-166.9144 249,-134.7193 365.7819,-48.6695 447.8984,-147.119 557,-242.7193 593.024,-274.2853 626.647,-319.7048 643.9077,-344.6353"/>
<polygon fill="#191970" stroke="#191970" points="641.1659,-346.8269 649.6927,-353.1153 646.9485,-342.882 641.1659,-346.8269"/>
</g>
<!-- Node9 -->
<g id="node10" class="node">
<title>Node9</title>
<g id="a_node10"><a xlink:href="ukca__check__md__nd_8f90.xhtml#a48c2af3cb369e2f20f6ce01ad897dfb8" target="_top" xlink:title="(c) [University of Leeds] [2008]. All rights reserved. ">
<polygon fill="#ffffff" stroke="#000000" points="432.5,-372.2193 432.5,-391.2193 544.5,-391.2193 544.5,-372.2193 432.5,-372.2193"/>
<text text-anchor="middle" x="488.5" y="-379.2193" font-family="Helvetica,sans-Serif" font-size="10.00" fill="#000000">ukca_check_md_nd</text>
</a>
</g>
</g>
<!-- Node8&#45;&gt;Node9 -->
<g id="edge10" class="edge">
<title>Node8&#45;&gt;Node9</title>
<path fill="none" stroke="#191970" d="M213.3216,-397.9565C268.3423,-394.71 360.0168,-389.3006 422.2966,-385.6257"/>
<polygon fill="#191970" stroke="#191970" points="422.6369,-389.1118 432.4133,-385.0288 422.2245,-382.124 422.6369,-389.1118"/>
</g>
<!-- Node10 -->
<g id="node11" class="node">
<title>Node10</title>
<g id="a_node11"><a xlink:href="ukca__calcminmaxndmdt_8f90.xhtml#aef696d80d8ef2ee27ebce420f8ccc855" target="_top" xlink:title="!&gt; (c) [University of Leeds] [2008]. All rights reserved.!&gt; This routine has been licensed to the Met...">
<polygon fill="#ffffff" stroke="#000000" points="420,-68.2193 420,-87.2193 557,-87.2193 557,-68.2193 420,-68.2193"/>
<text text-anchor="middle" x="488.5" y="-75.2193" font-family="Helvetica,sans-Serif" font-size="10.00" fill="#000000">ukca_calcminmaxndmdt</text>
</a>
</g>
</g>
<!-- Node8&#45;&gt;Node10 -->
<g id="edge13" class="edge">
<title>Node8&#45;&gt;Node10</title>
<path fill="none" stroke="#191970" d="M167.7171,-390.9797C173.8017,-343.9429 202.4879,-140.9536 249,-101.7193 299.2631,-59.3209 378.2256,-59.9775 431.6145,-66.7784"/>
<polygon fill="#191970" stroke="#191970" points="431.2187,-70.2569 441.6039,-68.1601 432.1778,-63.3229 431.2187,-70.2569"/>
</g>
<!-- Node8&#45;&gt;Node11 -->
<g id="edge15" class="edge">
<title>Node8&#45;&gt;Node11</title>
<path fill="none" stroke="#191970" d="M168.5712,-410.4858C177.2453,-450.4131 211.9256,-600.4539 249,-628.7193 301.8646,-669.0232 381.7318,-666.508 434.491,-658.8676"/>
<polygon fill="#191970" stroke="#191970" points="435.3234,-662.2802 444.6654,-657.2823 434.2457,-655.3636 435.3234,-662.2802"/>
</g>
<!-- Node12 -->
<g id="node13" class="node">
<title>Node12</title>
<g id="a_node13"><a xlink:href="ukca__remode_8f90.xhtml#a71cfd12cbb56bfcfdc30ef25c9724abe" target="_top" xlink:title="(c) [University of Leeds] [2008]. All rights reserved. ">
<polygon fill="#ffffff" stroke="#000000" points="275,-296.2193 275,-315.2193 358,-315.2193 358,-296.2193 275,-296.2193"/>
<text text-anchor="middle" x="316.5" y="-303.2193" font-family="Helvetica,sans-Serif" font-size="10.00" fill="#000000">ukca_remode</text>
</a>
</g>
</g>
<!-- Node8&#45;&gt;Node12 -->
<g id="edge18" class="edge">
<title>Node8&#45;&gt;Node12</title>
<path fill="none" stroke="#191970" d="M175.2716,-391.1733C189.4672,-376.2197 218.9322,-347.1801 249,-329.7193 256.1877,-325.5453 264.2225,-321.9151 272.1725,-318.8291"/>
<polygon fill="#191970" stroke="#191970" points="273.5668,-322.0462 281.7648,-315.3348 271.1709,-315.469 273.5668,-322.0462"/>
</g>
<!-- Node13 -->
<g id="node14" class="node">
<title>Node13</title>
<g id="a_node14"><a xlink:href="ukca__volume__mode_8f90.xhtml#af3dc5907e8940a43bb8ef2aee9a63993" target="_top" xlink:title="(c) [University of Leeds] [2008]. All rights reserved. ">
<polygon fill="#ffffff" stroke="#000000" points="431,-486.2193 431,-505.2193 546,-505.2193 546,-486.2193 431,-486.2193"/>
<text text-anchor="middle" x="488.5" y="-493.2193" font-family="Helvetica,sans-Serif" font-size="10.00" fill="#000000">ukca_volume_mode</text>
</a>
</g>
</g>
<!-- Node8&#45;&gt;Node13 -->
<g id="edge19" class="edge">
<title>Node8&#45;&gt;Node13</title>
<path fill="none" stroke="#191970" d="M173.3619,-410.3161C186.0719,-427.2191 215.0923,-461.9098 249,-476.7193 303.2419,-500.41 370.9406,-503.6743 420.5103,-501.8784"/>
<polygon fill="#191970" stroke="#191970" points="420.9656,-505.3618 430.8014,-501.4238 420.6566,-498.3686 420.9656,-505.3618"/>
</g>
<!-- Node16 -->
<g id="node17" class="node">
<title>Node16</title>
<g id="a_node17"><a xlink:href="ukca__rainout_8f90.xhtml#ac4569e41659b1f9ce3a7d5efb151e788" target="_top" xlink:title="(c) [University of Leeds] [2008]. All rights reserved. ">
<polygon fill="#ffffff" stroke="#000000" points="276.5,-220.2193 276.5,-239.2193 356.5,-239.2193 356.5,-220.2193 276.5,-220.2193"/>
<text text-anchor="middle" x="316.5" y="-227.2193" font-family="Helvetica,sans-Serif" font-size="10.00" fill="#000000">ukca_rainout</text>
</a>
</g>
</g>
<!-- Node8&#45;&gt;Node16 -->
<g id="edge24" class="edge">
<title>Node8&#45;&gt;Node16</title>
<path fill="none" stroke="#191970" d="M168.8631,-391.1905C176.008,-364.4103 199.9674,-287.8822 249,-248.7193 254.1189,-244.6308 260.0683,-241.4216 266.2729,-238.9027"/>
<polygon fill="#191970" stroke="#191970" points="267.8442,-242.0627 276.1503,-235.4855 265.5555,-235.4474 267.8442,-242.0627"/>
</g>
<!-- Node17 -->
<g id="node18" class="node">
<title>Node17</title>
<g id="a_node18"><a xlink:href="ukca__wetox_8f90.xhtml#a5e8254452044a4e564f20500c747f56a" target="_top" xlink:title="(c) [University of Leeds] [2008]. All rights reserved. ">
<polygon fill="#ffffff" stroke="#000000" points="279,-182.2193 279,-201.2193 354,-201.2193 354,-182.2193 279,-182.2193"/>
<text text-anchor="middle" x="316.5" y="-189.2193" font-family="Helvetica,sans-Serif" font-size="10.00" fill="#000000">ukca_wetox</text>
</a>
</g>
</g>
<!-- Node8&#45;&gt;Node17 -->
<g id="edge25" class="edge">
<title>Node8&#45;&gt;Node17</title>
<path fill="none" stroke="#191970" d="M167.7521,-391.1421C172.3282,-360.0978 191.0296,-261.3346 249,-210.7193 254.7373,-205.7099 261.7017,-202.0142 268.9509,-199.2893"/>
<polygon fill="#191970" stroke="#191970" points="270.4404,-202.4895 278.924,-196.143 268.3343,-195.8138 270.4404,-202.4895"/>
</g>
<!-- Node18 -->
<g id="node19" class="node">
<title>Node18</title>
<g id="a_node19"><a xlink:href="ukca__cloudproc_8f90.xhtml#a392d84aa40d1be4ee6a33304d3525ad3" target="_top" xlink:title="(c) [University of Leeds] [2008]. All rights reserved. ">
<polygon fill="#ffffff" stroke="#000000" points="270.5,-144.2193 270.5,-163.2193 362.5,-163.2193 362.5,-144.2193 270.5,-144.2193"/>
<text text-anchor="middle" x="316.5" y="-151.2193" font-family="Helvetica,sans-Serif" font-size="10.00" fill="#000000">ukca_cloudproc</text>
</a>
</g>
</g>
<!-- Node8&#45;&gt;Node18 -->
<g id="edge26" class="edge">
<title>Node8&#45;&gt;Node18</title>
<path fill="none" stroke="#191970" d="M167.0028,-390.7875C169.3386,-355.493 182.1006,-234.9172 249,-172.7193 252.5469,-169.4217 256.6214,-166.6901 260.974,-164.4283"/>
<polygon fill="#191970" stroke="#191970" points="262.4397,-167.6076 270.2186,-160.4146 259.6519,-161.1867 262.4397,-167.6076"/>
</g>
<!-- Node19 -->
<g id="node20" class="node">
<title>Node19</title>
<g id="a_node20"><a xlink:href="ukca__ddepaer_8f90.xhtml#a6f6abb7ca02fe47bddf4b36650bfeda9" target="_top" xlink:title="(c) [University of Leeds] [2008]. All rights reserved. ">
<polygon fill="#ffffff" stroke="#000000" points="274,-410.2193 274,-429.2193 359,-429.2193 359,-410.2193 274,-410.2193"/>
<text text-anchor="middle" x="316.5" y="-417.2193" font-family="Helvetica,sans-Serif" font-size="10.00" fill="#000000">ukca_ddepaer</text>
</a>
</g>
</g>
<!-- Node8&#45;&gt;Node19 -->
<g id="edge27" class="edge">
<title>Node8&#45;&gt;Node19</title>
<path fill="none" stroke="#191970" d="M213.1387,-406.6269C229.2344,-408.6657 247.374,-410.9633 263.9124,-413.0582"/>
<polygon fill="#191970" stroke="#191970" points="263.6099,-416.5478 273.9705,-414.3322 264.4896,-409.6033 263.6099,-416.5478"/>
</g>
<!-- Node22 -->
<g id="node23" class="node">
<title>Node22</title>
<g id="a_node23"><a xlink:href="ukca__ddepaer__incl__sedi_8f90.xhtml#a622d7e26f1301e4333f0f57642ae7d48" target="_top" xlink:title="(c) [University of Leeds] [2008]. All rights reserved. ">
<polygon fill="#ffffff" stroke="#000000" points="250,-448.2193 250,-467.2193 383,-467.2193 383,-448.2193 250,-448.2193"/>
<text text-anchor="middle" x="316.5" y="-455.2193" font-family="Helvetica,sans-Serif" font-size="10.00" fill="#000000">ukca_ddepaer_incl_sedi</text>
</a>
</g>
</g>
<!-- Node8&#45;&gt;Node22 -->
<g id="edge30" class="edge">
<title>Node8&#45;&gt;Node22</title>
<path fill="none" stroke="#191970" d="M185.1486,-410.3353C201.6414,-418.5898 226.5088,-430.4325 249,-438.7193 255.3704,-441.0664 262.1683,-443.2925 268.9054,-445.339"/>
<polygon fill="#191970" stroke="#191970" points="268.0947,-448.7486 278.6754,-448.202 270.0632,-442.0311 268.0947,-448.7486"/>
</g>
<!-- Node23 -->
<g id="node24" class="node">
<title>Node23</title>
<g id="a_node24"><a xlink:href="ukca__calc__coag__kernel_8f90.xhtml#a9df911953ecf4bbeb2dac8163242610c" target="_top" xlink:title="!&gt; (c) [University of Leeds] [2008]. All rights reserved.!&gt; This routine has been licensed to the Met...">
<polygon fill="#ffffff" stroke="#000000" points="252,-600.2193 252,-619.2193 381,-619.2193 381,-600.2193 252,-600.2193"/>
<text text-anchor="middle" x="316.5" y="-607.2193" font-family="Helvetica,sans-Serif" font-size="10.00" fill="#000000">ukca_calc_coag_kernel</text>
</a>
</g>
</g>
<!-- Node8&#45;&gt;Node23 -->
<g id="edge33" class="edge">
<title>Node8&#45;&gt;Node23</title>
<path fill="none" stroke="#191970" d="M167.7521,-410.2965C172.3282,-441.3408 191.0296,-540.104 249,-590.7193 250.7882,-592.2807 252.6957,-593.7144 254.6939,-595.0309"/>
<polygon fill="#191970" stroke="#191970" points="253.4929,-598.3629 263.947,-600.0843 256.8481,-592.2194 253.4929,-598.3629"/>
</g>
<!-- Node25 -->
<g id="node26" class="node">
<title>Node25</title>
<g id="a_node26"><a xlink:href="ukca__calcminmaxgc_8f90.xhtml#afcfad5ac7bbb79779f27e1e3ac4ab75b" target="_top" xlink:title="(c) [University of Leeds] [2008]. All rights reserved. ">
<polygon fill="#ffffff" stroke="#000000" points="430.5,-334.2193 430.5,-353.2193 546.5,-353.2193 546.5,-334.2193 430.5,-334.2193"/>
<text text-anchor="middle" x="488.5" y="-341.2193" font-family="Helvetica,sans-Serif" font-size="10.00" fill="#000000">ukca_calcminmaxgc</text>
</a>
</g>
</g>
<!-- Node8&#45;&gt;Node25 -->
<g id="edge35" class="edge">
<title>Node8&#45;&gt;Node25</title>
<path fill="none" stroke="#191970" d="M213.1507,-391.4861C224.8463,-389.2225 237.3744,-386.8415 249,-384.7193 306.9211,-374.1463 372.8753,-362.915 420.8864,-354.8861"/>
<polygon fill="#191970" stroke="#191970" points="421.5626,-358.3217 430.8498,-353.2228 420.4099,-351.4173 421.5626,-358.3217"/>
</g>
<!-- Node26 -->
<g id="node27" class="node">
<title>Node26</title>
<g id="a_node27"><a xlink:href="ukca__conden_8f90.xhtml#a82bb1bfa267cd79a2733001cca25529b" target="_top" xlink:title="!&gt; (c) [University of Leeds] [2008]. All rights reserved.!&gt; This routine has been licensed to the Met...">
<polygon fill="#ffffff" stroke="#000000" points="276.5,-562.2193 276.5,-581.2193 356.5,-581.2193 356.5,-562.2193 276.5,-562.2193"/>
<text text-anchor="middle" x="316.5" y="-569.2193" font-family="Helvetica,sans-Serif" font-size="10.00" fill="#000000">ukca_conden</text>
</a>
</g>
</g>
<!-- Node8&#45;&gt;Node26 -->
<g id="edge37" class="edge">
<title>Node8&#45;&gt;Node26</title>
<path fill="none" stroke="#191970" d="M168.8631,-410.2481C176.008,-437.0283 199.9674,-513.5564 249,-552.7193 254.1189,-556.8078 260.0683,-560.017 266.2729,-562.5359"/>
<polygon fill="#191970" stroke="#191970" points="265.5555,-565.9912 276.1503,-565.9531 267.8442,-559.3759 265.5555,-565.9912"/>
</g>
<!-- Node28 -->
<g id="node29" class="node">
<title>Node28</title>
<g id="a_node29"><a xlink:href="ukca__calcnucrate_8f90.xhtml#ade4a3902c7af6e9b7126d9a47c129296" target="_top" xlink:title="(c) [University of Leeds] [2008]. All rights reserved. ">
<polygon fill="#ffffff" stroke="#000000" points="266,-258.2193 266,-277.2193 367,-277.2193 367,-258.2193 266,-258.2193"/>
<text text-anchor="middle" x="316.5" y="-265.2193" font-family="Helvetica,sans-Serif" font-size="10.00" fill="#000000">ukca_calcnucrate</text>
</a>
</g>
</g>
<!-- Node8&#45;&gt;Node28 -->
<g id="edge39" class="edge">
<title>Node8&#45;&gt;Node28</title>
<path fill="none" stroke="#191970" d="M170.7119,-391.0862C180.8389,-369.0735 208.7329,-314.8248 249,-286.7193 251.8826,-284.7073 254.9736,-282.9075 258.1895,-281.2976"/>
<polygon fill="#191970" stroke="#191970" points="259.7374,-284.4411 267.5132,-277.2447 256.9469,-278.0214 259.7374,-284.4411"/>
</g>
<!-- Node30 -->
<g id="node31" class="node">
<title>Node30</title>
<g id="a_node31"><a xlink:href="ukca__coagwithnucl_8f90.xhtml#a74847b16415e183b2fbd13a6fa78caad" target="_top" xlink:title="(c) [University of Leeds] [2008]. All rights reserved. ">
<polygon fill="#ffffff" stroke="#000000" points="261.5,-524.2193 261.5,-543.2193 371.5,-543.2193 371.5,-524.2193 261.5,-524.2193"/>
<text text-anchor="middle" x="316.5" y="-531.2193" font-family="Helvetica,sans-Serif" font-size="10.00" fill="#000000">ukca_coagwithnucl</text>
</a>
</g>
</g>
<!-- Node8&#45;&gt;Node30 -->
<g id="edge41" class="edge">
<title>Node8&#45;&gt;Node30</title>
<path fill="none" stroke="#191970" d="M171.2823,-410.3732C182.1824,-431.4257 210.9012,-481.8087 249,-509.7193 254.6625,-513.8675 261.1089,-517.3532 267.7185,-520.2668"/>
<polygon fill="#191970" stroke="#191970" points="266.861,-523.6925 277.4466,-524.1368 269.4486,-517.1882 266.861,-523.6925"/>
</g>
<!-- Node32 -->
<g id="node33" class="node">
<title>Node32</title>
<g id="a_node33"><a xlink:href="ukca__ageing_8f90.xhtml#afe67776239d9c459519faee0d6867da7" target="_top" xlink:title="(c) [University of Leeds] [2008]. All rights reserved. ">
<polygon fill="#ffffff" stroke="#000000" points="449.5,-676.2193 449.5,-695.2193 527.5,-695.2193 527.5,-676.2193 449.5,-676.2193"/>
<text text-anchor="middle" x="488.5" y="-683.2193" font-family="Helvetica,sans-Serif" font-size="10.00" fill="#000000">ukca_ageing</text>
</a>
</g>
</g>
<!-- Node8&#45;&gt;Node32 -->
<g id="edge45" class="edge">
<title>Node8&#45;&gt;Node32</title>
<path fill="none" stroke="#191970" d="M168.1267,-410.2802C175.6054,-453.0597 208.078,-626.2683 249,-659.7193 302.2785,-703.2709 386.0015,-701.5809 439.0282,-694.8133"/>
<polygon fill="#191970" stroke="#191970" points="439.7808,-698.2426 449.2062,-693.404 438.8206,-691.3087 439.7808,-698.2426"/>
</g>
<!-- Node9&#45;&gt;Node3 -->
<g id="edge11" class="edge">
<title>Node9&#45;&gt;Node3</title>
<path fill="none" stroke="#191970" d="M544.741,-375.3397C558.1246,-373.8216 572.5625,-372.1838 586.4624,-370.6071"/>
<polygon fill="#191970" stroke="#191970" points="586.9241,-374.0773 596.4658,-369.4724 586.135,-367.1219 586.9241,-374.0773"/>
</g>
<!-- Node10&#45;&gt;Node3 -->
<g id="edge14" class="edge">
<title>Node10&#45;&gt;Node3</title>
<path fill="none" stroke="#191970" d="M533.7236,-87.2769C542.2423,-90.7172 550.5031,-95.3863 557,-101.7193 627.6806,-170.6171 648.5591,-295.0905 654.1413,-343.0981"/>
<polygon fill="#191970" stroke="#191970" points="650.6673,-343.5288 655.2067,-353.1019 657.6279,-342.7875 650.6673,-343.5288"/>
</g>
<!-- Node11&#45;&gt;Node3 -->
<g id="edge16" class="edge">
<title>Node11&#45;&gt;Node3</title>
<path fill="none" stroke="#191970" d="M543.6474,-638.5258C548.6173,-635.9807 553.1988,-632.7682 557,-628.7193 610.1591,-572.0968 563.0037,-529.3588 593,-457.7193 605.2832,-428.3837 626.9711,-398.4425 641.4157,-380.2162"/>
<polygon fill="#191970" stroke="#191970" points="644.2814,-382.2388 647.8519,-372.2637 638.8402,-377.835 644.2814,-382.2388"/>
</g>
<!-- Node11&#45;&gt;Node7 -->
<g id="edge17" class="edge">
<title>Node11&#45;&gt;Node7</title>
<path fill="none" stroke="#191970" d="M543.81,-647.7193C571.4503,-647.7193 603.7805,-647.7193 626.6153,-647.7193"/>
<polygon fill="#191970" stroke="#191970" points="626.6937,-651.2194 636.6936,-647.7193 626.6936,-644.2194 626.6937,-651.2194"/>
</g>
<!-- Node13&#45;&gt;Node3 -->
<g id="edge20" class="edge">
<title>Node13&#45;&gt;Node3</title>
<path fill="none" stroke="#191970" d="M536.8236,-486.1873C543.8855,-483.711 550.843,-480.6064 557,-476.7193 596.5053,-451.7785 628.9889,-406.3087 645.0793,-380.9841"/>
<polygon fill="#191970" stroke="#191970" points="648.1369,-382.6945 650.4239,-372.3494 642.1848,-379.0103 648.1369,-382.6945"/>
</g>
<!-- Node13&#45;&gt;Node7 -->
<g id="edge23" class="edge">
<title>Node13&#45;&gt;Node7</title>
<path fill="none" stroke="#191970" d="M538.1615,-505.2364C544.8142,-507.7061 551.2989,-510.8127 557,-514.7193 600.5436,-544.5565 632.5034,-599.8925 647.1319,-628.8864"/>
<polygon fill="#191970" stroke="#191970" points="644.0328,-630.5163 651.5739,-637.9583 650.3197,-627.438 644.0328,-630.5163"/>
</g>
<!-- Node14 -->
<g id="node15" class="node">
<title>Node14</title>
<g id="a_node15"><a xlink:href="ukca__vapour_8f90.xhtml#a14f834f57759406e4a0dddd6e653c61b" target="_top" xlink:title="(c) [University of Leeds]. All rights reserved. ">
<polygon fill="#ffffff" stroke="#000000" points="616.5,-467.2193 616.5,-486.2193 695.5,-486.2193 695.5,-467.2193 616.5,-467.2193"/>
<text text-anchor="middle" x="656" y="-474.2193" font-family="Helvetica,sans-Serif" font-size="10.00" fill="#000000">ukca_vapour</text>
</a>
</g>
</g>
<!-- Node13&#45;&gt;Node14 -->
<g id="edge21" class="edge">
<title>Node13&#45;&gt;Node14</title>
<path fill="none" stroke="#191970" d="M546.144,-489.1806C565.7063,-486.9616 587.38,-484.5031 606.2712,-482.3602"/>
<polygon fill="#191970" stroke="#191970" points="606.9073,-485.8106 616.449,-481.2057 606.1182,-478.8552 606.9073,-485.8106"/>
</g>
<!-- Node15 -->
<g id="node16" class="node">
<title>Node15</title>
<g id="a_node16"><a xlink:href="ukca__water__content__v_8f90.xhtml#ad987d2fabe7edd132c04ead9312c33ee" target="_top" xlink:title="(c) [University of Leeds] [2008]. All rights reserved. ">
<polygon fill="#ffffff" stroke="#000000" points="593,-505.2193 593,-524.2193 719,-524.2193 719,-505.2193 593,-505.2193"/>
<text text-anchor="middle" x="656" y="-512.2193" font-family="Helvetica,sans-Serif" font-size="10.00" fill="#000000">ukca_water_content_v</text>
</a>
</g>
</g>
<!-- Node13&#45;&gt;Node15 -->
<g id="edge22" class="edge">
<title>Node13&#45;&gt;Node15</title>
<path fill="none" stroke="#191970" d="M546.144,-502.258C557.8991,-503.5914 570.4166,-505.0113 582.6347,-506.3973"/>
<polygon fill="#191970" stroke="#191970" points="582.4733,-509.9013 592.8041,-507.5508 583.2623,-502.9459 582.4733,-509.9013"/>
</g>
<!-- Node20 -->
<g id="node21" class="node">
<title>Node20</title>
<g id="a_node21"><a xlink:href="ukca__vgrav__av__k_8f90.xhtml#ac9c4b1e0a9b821a5a9d100435902a44e" target="_top" xlink:title="(c) [University of Leeds] [2008]. All rights reserved. ">
<polygon fill="#ffffff" stroke="#000000" points="438,-410.2193 438,-429.2193 539,-429.2193 539,-410.2193 438,-410.2193"/>
<text text-anchor="middle" x="488.5" y="-417.2193" font-family="Helvetica,sans-Serif" font-size="10.00" fill="#000000">ukca_vgrav_av_k</text>
</a>
</g>
</g>
<!-- Node19&#45;&gt;Node20 -->
<g id="edge28" class="edge">
<title>Node19&#45;&gt;Node20</title>
<path fill="none" stroke="#191970" d="M359.0169,-419.7193C379.7213,-419.7193 404.9887,-419.7193 427.6884,-419.7193"/>
<polygon fill="#191970" stroke="#191970" points="427.9116,-423.2194 437.9116,-419.7193 427.9116,-416.2194 427.9116,-423.2194"/>
</g>
<!-- Node21 -->
<g id="node22" class="node">
<title>Node21</title>
<g id="a_node22"><a xlink:href="ukca__dcoff__par__av__k_8f90.xhtml#af3a51dd40a6a2e4df21796adf635e159" target="_top" xlink:title="(c) [University of Leeds] [2008]. All rights reserved. ">
<polygon fill="#ffffff" stroke="#000000" points="429,-448.2193 429,-467.2193 548,-467.2193 548,-448.2193 429,-448.2193"/>
<text text-anchor="middle" x="488.5" y="-455.2193" font-family="Helvetica,sans-Serif" font-size="10.00" fill="#000000">ukca_dcoff_par_av_k</text>
</a>
</g>
</g>
<!-- Node19&#45;&gt;Node21 -->
<g id="edge29" class="edge">
<title>Node19&#45;&gt;Node21</title>
<path fill="none" stroke="#191970" d="M359.0169,-429.1126C382.0995,-434.2122 410.8536,-440.5649 435.3981,-445.9875"/>
<polygon fill="#191970" stroke="#191970" points="434.7579,-449.4304 445.2775,-448.1701 436.2681,-442.5952 434.7579,-449.4304"/>
</g>
<!-- Node22&#45;&gt;Node20 -->
<g id="edge31" class="edge">
<title>Node22&#45;&gt;Node20</title>
<path fill="none" stroke="#191970" d="M359.9029,-448.1303C382.9068,-443.048 411.3509,-436.7639 435.6342,-431.3989"/>
<polygon fill="#191970" stroke="#191970" points="436.3998,-434.8143 445.4092,-429.2393 434.8896,-427.9791 436.3998,-434.8143"/>
</g>
<!-- Node22&#45;&gt;Node21 -->
<g id="edge32" class="edge">
<title>Node22&#45;&gt;Node21</title>
<path fill="none" stroke="#191970" d="M383.4922,-457.7193C395.092,-457.7193 407.1775,-457.7193 418.8462,-457.7193"/>
<polygon fill="#191970" stroke="#191970" points="418.9705,-461.2194 428.9705,-457.7193 418.9705,-454.2194 418.9705,-461.2194"/>
</g>
<!-- Node24 -->
<g id="node25" class="node">
<title>Node24</title>
<g id="a_node25"><a xlink:href="ukca__coag__coff__v_8f90.xhtml#a572eafdc5de080aab6f1786813ee7511" target="_top" xlink:title="(c) [University of Leeds] [2008]. All rights reserved. ">
<polygon fill="#ffffff" stroke="#000000" points="437,-600.2193 437,-619.2193 540,-619.2193 540,-600.2193 437,-600.2193"/>
<text text-anchor="middle" x="488.5" y="-607.2193" font-family="Helvetica,sans-Serif" font-size="10.00" fill="#000000">ukca_coag_coff_v</text>
</a>
</g>
</g>
<!-- Node23&#45;&gt;Node24 -->
<g id="edge34" class="edge">
<title>Node23&#45;&gt;Node24</title>
<path fill="none" stroke="#191970" d="M381.0358,-609.7193C395.9837,-609.7193 411.8559,-609.7193 426.684,-609.7193"/>
<polygon fill="#191970" stroke="#191970" points="426.7586,-613.2194 436.7586,-609.7193 426.7586,-606.2194 426.7586,-613.2194"/>
</g>
<!-- Node25&#45;&gt;Node3 -->
<g id="edge36" class="edge">
<title>Node25&#45;&gt;Node3</title>
<path fill="none" stroke="#191970" d="M546.6133,-350.3112C559.4135,-351.7632 573.0979,-353.3155 586.3026,-354.8133"/>
<polygon fill="#191970" stroke="#191970" points="585.9534,-358.2961 596.2842,-355.9456 586.7424,-351.3407 585.9534,-358.2961"/>
</g>
<!-- Node27 -->
<g id="node28" class="node">
<title>Node27</title>
<g id="a_node28"><a xlink:href="ukca__cond__coff__v_8f90.xhtml#a39921c8c3c04d082829eb30a61fb2f10" target="_top" xlink:title="(c) [University of Leeds] [2008]. All rights reserved. ">
<polygon fill="#ffffff" stroke="#000000" points="437,-562.2193 437,-581.2193 540,-581.2193 540,-562.2193 437,-562.2193"/>
<text text-anchor="middle" x="488.5" y="-569.2193" font-family="Helvetica,sans-Serif" font-size="10.00" fill="#000000">ukca_cond_coff_v</text>
</a>
</g>
</g>
<!-- Node26&#45;&gt;Node27 -->
<g id="edge38" class="edge">
<title>Node26&#45;&gt;Node27</title>
<path fill="none" stroke="#191970" d="M356.8264,-571.7193C377.6713,-571.7193 403.5595,-571.7193 426.8507,-571.7193"/>
<polygon fill="#191970" stroke="#191970" points="426.9954,-575.2194 436.9954,-571.7193 426.9953,-568.2194 426.9954,-575.2194"/>
</g>
<!-- Node29 -->
<g id="node30" class="node">
<title>Node29</title>
<g id="a_node30"><a xlink:href="namespaceukca__binapara__mod.xhtml#a9335223cf4fbc47b586be13a8a8fa9dd" target="_top" xlink:title="Module containing the subroutine UKCA_BINAPARA which calculates parametrized values of nucleation rat...">
<polygon fill="#ffffff" stroke="#000000" points="428,-252.7193 428,-282.7193 549,-282.7193 549,-252.7193 428,-252.7193"/>
<text text-anchor="start" x="436" y="-270.7193" font-family="Helvetica,sans-Serif" font-size="10.00" fill="#000000">ukca_binapara_mod::</text>
<text text-anchor="middle" x="488.5" y="-259.7193" font-family="Helvetica,sans-Serif" font-size="10.00" fill="#000000">ukca_binapara</text>
</a>
</g>
</g>
<!-- Node28&#45;&gt;Node29 -->
<g id="edge40" class="edge">
<title>Node28&#45;&gt;Node29</title>
<path fill="none" stroke="#191970" d="M367.1754,-267.7193C382.9312,-267.7193 400.6017,-267.7193 417.4781,-267.7193"/>
<polygon fill="#191970" stroke="#191970" points="417.8593,-271.2194 427.8592,-267.7193 417.8592,-264.2194 417.8593,-271.2194"/>
</g>
<!-- Node31 -->
<g id="node32" class="node">
<title>Node31</title>
<g id="a_node32"><a xlink:href="ukca__solvecoagnucl__v_8f90.xhtml#a1b6bf1b51fe8e5ab1a22310fe7c24de3" target="_top" xlink:title="(c) [University of Leeds] [2008]. All rights reserved. ">
<polygon fill="#ffffff" stroke="#000000" points="425.5,-524.2193 425.5,-543.2193 551.5,-543.2193 551.5,-524.2193 425.5,-524.2193"/>
<text text-anchor="middle" x="488.5" y="-531.2193" font-family="Helvetica,sans-Serif" font-size="10.00" fill="#000000">ukca_solvecoagnucl_v</text>
</a>
</g>
</g>
<!-- Node30&#45;&gt;Node31 -->
<g id="edge42" class="edge">
<title>Node30&#45;&gt;Node31</title>
<path fill="none" stroke="#191970" d="M371.8686,-533.7193C385.7524,-533.7193 400.8614,-533.7193 415.4603,-533.7193"/>
<polygon fill="#191970" stroke="#191970" points="415.4645,-537.2194 425.4645,-533.7193 415.4645,-530.2194 415.4645,-537.2194"/>
</g>
<!-- Node31&#45;&gt;Node3 -->
<g id="edge43" class="edge">
<title>Node31&#45;&gt;Node3</title>
<path fill="none" stroke="#191970" d="M539.5035,-524.1842C545.7374,-521.7206 551.7498,-518.6204 557,-514.7193 581.0506,-496.849 576.7191,-482.873 593,-457.7193 610.4657,-430.735 631.1289,-399.7503 643.9015,-380.7037"/>
<polygon fill="#191970" stroke="#191970" points="646.8201,-382.6355 649.4892,-372.3824 641.0088,-378.7332 646.8201,-382.6355"/>
</g>
<!-- Node31&#45;&gt;Node7 -->
<g id="edge44" class="edge">
<title>Node31&#45;&gt;Node7</title>
<path fill="none" stroke="#191970" d="M535.076,-543.273C542.6643,-545.7672 550.2437,-548.8717 557,-552.7193 592.4764,-572.9224 624.8234,-608.6536 642.3306,-630.0664"/>
<polygon fill="#191970" stroke="#191970" points="639.7133,-632.3977 648.6911,-638.0235 645.1811,-628.027 639.7133,-632.3977"/>
</g>
<!-- Node32&#45;&gt;Node7 -->
<g id="edge46" class="edge">
<title>Node32&#45;&gt;Node7</title>
<path fill="none" stroke="#191970" d="M527.7713,-676.81C558.1238,-669.924 599.4565,-660.5471 626.8972,-654.3217"/>
<polygon fill="#191970" stroke="#191970" points="627.7043,-657.7276 636.6821,-652.1019 626.1556,-650.9011 627.7043,-657.7276"/>
</g>
</g>
</svg>
        <g id="navigator" transform="translate(0 0)" fill="#404254">
                <rect fill="#f2f5e9" fill-opacity="0.5" stroke="#606060" stroke-width=".5" x="0" y="0" width="60" height="60"/>
                <use id="zoomplus" xlink:href="#zoomPlus" x="17" y="9" onmousedown="handleZoom(evt,'in')"/>
                <use id="zoomminus" xlink:href="#zoomMin" x="42" y="9" onmousedown="handleZoom(evt,'out')"/>
                <use id="reset" xlink:href="#resetDef" x="30" y="36" onmousedown="handleReset()"/>
                <g id="arrowUp" xlink:href="#dirArrow" transform="translate(30 24)" onmousedown="handlePan(0,-1)">
                  <use xlink:href="#rim" fill="#404040">
                        <set attributeName="fill" to="#808080" begin="arrowUp.mouseover" end="arrowUp.mouseout"/>
                  </use>
                  <path fill="none" stroke="white" stroke-width="1.5" d="M0,-3.0v7 M-2.5,-0.5L0,-3.0L2.5,-0.5"/>
                </g>
                <g id="arrowRight" xlink:href="#dirArrow" transform="rotate(90) translate(36 -43)" onmousedown="handlePan(1,0)">
                  <use xlink:href="#rim" fill="#404040">
                        <set attributeName="fill" to="#808080" begin="arrowRight.mouseover" end="arrowRight.mouseout"/>
                  </use>
                  <path fill="none" stroke="white" stroke-width="1.5" d="M0,-3.0v7 M-2.5,-0.5L0,-3.0L2.5,-0.5"/>
                </g>
                <g id="arrowDown" xlink:href="#dirArrow" transform="rotate(180) translate(-30 -48)" onmousedown="handlePan(0,1)">
                  <use xlink:href="#rim" fill="#404040">
                        <set attributeName="fill" to="#808080" begin="arrowDown.mouseover" end="arrowDown.mouseout"/>
                  </use>
                  <path fill="none" stroke="white" stroke-width="1.5" d="M0,-3.0v7 M-2.5,-0.5L0,-3.0L2.5,-0.5"/>
                </g>
                <g id="arrowLeft" xlink:href="#dirArrow" transform="rotate(270) translate(-36 17)" onmousedown="handlePan(-1,0)">
                  <use xlink:href="#rim" fill="#404040">
                        <set attributeName="fill" to="#808080" begin="arrowLeft.mouseover" end="arrowLeft.mouseout"/>
                  </use>
                  <path fill="none" stroke="white" stroke-width="1.5" d="M0,-3.0v7 M-2.5,-0.5L0,-3.0L2.5,-0.5"/>
                </g>
        </g>
        <svg viewBox="0 0 15 15" width="100%" height="30px" preserveAspectRatio="xMaxYMin meet">
         <g id="arrow_out" transform="scale(0.3 0.3)">
          <a xlink:href="ukca__aero__ctl_8f90_a8921f79c728762ac6e87a4dac61a364e_cgraph_org.svg" target="_base">
           <rect id="button" ry="5" rx="5" y="6" x="6" height="38" width="38"
                fill="#f2f5e9" fill-opacity="0.5" stroke="#606060" stroke-width="1.0"/>
           <path id="arrow"
             d="M 11.500037,31.436501 C 11.940474,20.09759 22.043105,11.32322 32.158766,21.979434 L 37.068811,17.246167 C 37.068811,17.246167 37.088388,32 37.088388,32 L 22.160133,31.978069 C 22.160133,31.978069 26.997745,27.140456 26.997745,27.140456 C 18.528582,18.264221 13.291696,25.230495 11.500037,31.436501 z"
             style="fill:#404040;"/>
          </a>
         </g>
        </svg>
</svg>
