<?xml version="1.0" encoding="UTF-8" standalone="no"?>
<!DOCTYPE svg PUBLIC "-//W3C//DTD SVG 1.1//EN"
 "http://www.w3.org/Graphics/SVG/1.1/DTD/svg11.dtd">
<!-- Generated by graphviz version 2.40.1 (20161225.0304)
 -->
<!-- Title: print_nlist_run_ukca Pages: 1 -->
<svg width="728pt" height="122pt"
 viewBox="0.00 0.00 728.00 122.00" xmlns="http://www.w3.org/2000/svg" xmlns:xlink="http://www.w3.org/1999/xlink">
<g id="graph0" class="graph" transform="scale(1 1) rotate(0) translate(4 118)">
<title>print_nlist_run_ukca</title>
<polygon fill="#ffffff" stroke="transparent" points="-4,4 -4,-118 724,-118 724,4 -4,4"/>
<!-- Node10 -->
<g id="node1" class="node">
<title>Node10</title>
<polygon fill="#bfbfbf" stroke="#000000" points="0,-56.5 0,-75.5 115,-75.5 115,-56.5 0,-56.5"/>
<text text-anchor="middle" x="57.5" y="-63.5" font-family="Helvetica,sans-Serif" font-size="10.00" fill="#000000">print_nlist_run_ukca</text>
</g>
<!-- Node11 -->
<g id="node2" class="node">
<title>Node11</title>
<g id="a_node2"><a xlink:href="readlsta_8f90.xhtml#a6be7c745662b87214220c8519949fefe" target="_top" xlink:title="Read run&#45;time control information from namelists for atmos model. ">
<polygon fill="#ffffff" stroke="#000000" points="194.5,-94.5 194.5,-113.5 250.5,-113.5 250.5,-94.5 194.5,-94.5"/>
<text text-anchor="middle" x="222.5" y="-101.5" font-family="Helvetica,sans-Serif" font-size="10.00" fill="#000000">readlsta</text>
</a>
</g>
</g>
<!-- Node10&#45;&gt;Node11 -->
<g id="edge1" class="edge">
<title>Node10&#45;&gt;Node11</title>
<path fill="none" stroke="#191970" d="M109.2216,-77.9117C137.361,-84.3922 171.077,-92.1571 194.3698,-97.5215"/>
<polygon fill="#191970" stroke="#191970" points="109.6669,-74.4226 99.1365,-75.589 108.0959,-81.2441 109.6669,-74.4226"/>
</g>
<!-- Node14 -->
<g id="node5" class="node">
<title>Node14</title>
<g id="a_node5"><a xlink:href="readlsta__4_a_8f90.xhtml#abc5fe175d74e13235464439055294edc" target="_top" xlink:title="Read run&#45;time control information from namelists for atmos model. ">
<polygon fill="#ffffff" stroke="#000000" points="185.5,-56.5 185.5,-75.5 259.5,-75.5 259.5,-56.5 185.5,-56.5"/>
<text text-anchor="middle" x="222.5" y="-63.5" font-family="Helvetica,sans-Serif" font-size="10.00" fill="#000000">readlsta_4a</text>
</a>
</g>
</g>
<!-- Node10&#45;&gt;Node14 -->
<g id="edge4" class="edge">
<title>Node10&#45;&gt;Node14</title>
<path fill="none" stroke="#191970" d="M125.4387,-66C145.8794,-66 167.5518,-66 185.22,-66"/>
<polygon fill="#191970" stroke="#191970" points="125.209,-62.5001 115.209,-66 125.209,-69.5001 125.209,-62.5001"/>
</g>
<!-- Node15 -->
<g id="node6" class="node">
<title>Node15</title>
<g id="a_node6"><a xlink:href="namespacercf__readnl__runukca__mod.xhtml#a52d0ecd8e58ec4483a47000d627970df" target="_top" xlink:title="rcf_readnl_runukca reads in the run_ukca namelist. ">
<polygon fill="#ffffff" stroke="#000000" points="151,-7 151,-37 294,-37 294,-7 151,-7"/>
<text text-anchor="start" x="159" y="-25" font-family="Helvetica,sans-Serif" font-size="10.00" fill="#000000">rcf_readnl_runukca</text>
<text text-anchor="middle" x="222.5" y="-14" font-family="Helvetica,sans-Serif" font-size="10.00" fill="#000000">_mod::rcf_readnl_runukca</text>
</a>
</g>
</g>
<!-- Node10&#45;&gt;Node15 -->
<g id="edge6" class="edge">
<title>Node10&#45;&gt;Node15</title>
<path fill="none" stroke="#191970" d="M103.1327,-53.8313C122.5902,-48.6426 145.4921,-42.5354 166.0049,-37.0654"/>
<polygon fill="#191970" stroke="#191970" points="102.0631,-50.4941 93.3025,-56.4527 103.8667,-57.2578 102.0631,-50.4941"/>
</g>
<!-- Node12 -->
<g id="node3" class="node">
<title>Node12</title>
<g id="a_node3"><a xlink:href="um__shell_8f90.xhtml#a8c9bd25362824a5c301376ecb5ed5c27" target="_top" xlink:title="Subroutine: UM_SHELL !&gt; ">
<polygon fill="#ffffff" stroke="#000000" points="371,-75.5 371,-94.5 432,-94.5 432,-75.5 371,-75.5"/>
<text text-anchor="middle" x="401.5" y="-82.5" font-family="Helvetica,sans-Serif" font-size="10.00" fill="#000000">um_shell</text>
</a>
</g>
</g>
<!-- Node11&#45;&gt;Node12 -->
<g id="edge2" class="edge">
<title>Node11&#45;&gt;Node12</title>
<path fill="none" stroke="#191970" d="M261.0113,-99.9122C293.8744,-96.4239 340.5008,-91.4748 370.8719,-88.251"/>
<polygon fill="#191970" stroke="#191970" points="260.4378,-96.4533 250.8631,-100.9894 261.1767,-103.4142 260.4378,-96.4533"/>
</g>
<!-- Node13 -->
<g id="node4" class="node">
<title>Node13</title>
<g id="a_node4"><a xlink:href="um__main_8f90.xhtml#a8f2d13215621443a5313261c282f098b" target="_top" xlink:title="Code Owner: See Unified Model Code Owner&#39;s HTML page. ">
<polygon fill="#ffffff" stroke="#000000" points="530,-75.5 530,-94.5 592,-94.5 592,-75.5 530,-75.5"/>
<text text-anchor="middle" x="561" y="-82.5" font-family="Helvetica,sans-Serif" font-size="10.00" fill="#000000">um_main</text>
</a>
</g>
</g>
<!-- Node12&#45;&gt;Node13 -->
<g id="edge3" class="edge">
<title>Node12&#45;&gt;Node13</title>
<path fill="none" stroke="#191970" d="M442.2607,-85C469.5003,-85 504.7889,-85 529.797,-85"/>
<polygon fill="#191970" stroke="#191970" points="442.2532,-81.5001 432.2532,-85 442.2532,-88.5001 442.2532,-81.5001"/>
</g>
<!-- Node14&#45;&gt;Node12 -->
<g id="edge5" class="edge">
<title>Node14&#45;&gt;Node12</title>
<path fill="none" stroke="#191970" d="M269.6391,-71.0036C301.7046,-74.4072 343.1993,-78.8117 370.9988,-81.7624"/>
<polygon fill="#191970" stroke="#191970" points="269.9025,-67.512 259.5889,-69.9368 269.1636,-74.4729 269.9025,-67.512"/>
</g>
<!-- Node16 -->
<g id="node7" class="node">
<title>Node16</title>
<g id="a_node7"><a xlink:href="namespacercf__read__namelists__mod.xhtml#a03f55943f24c46a584c68e062c7c51b8" target="_top" xlink:title="Subroutine Rcf_Read_Namelists &#45; read the rcf namelists. ">
<polygon fill="#ffffff" stroke="#000000" points="330,-7 330,-37 473,-37 473,-7 330,-7"/>
<text text-anchor="start" x="338" y="-25" font-family="Helvetica,sans-Serif" font-size="10.00" fill="#000000">rcf_read_namelists</text>
<text text-anchor="middle" x="401.5" y="-14" font-family="Helvetica,sans-Serif" font-size="10.00" fill="#000000">_mod::rcf_read_namelists</text>
</a>
</g>
</g>
<!-- Node15&#45;&gt;Node16 -->
<g id="edge7" class="edge">
<title>Node15&#45;&gt;Node16</title>
<path fill="none" stroke="#191970" d="M304.0428,-22C312.6381,-22 321.3321,-22 329.8042,-22"/>
<polygon fill="#191970" stroke="#191970" points="304.0173,-18.5001 294.0172,-22 304.0172,-25.5001 304.0173,-18.5001"/>
</g>
<!-- Node17 -->
<g id="node8" class="node">
<title>Node17</title>
<g id="a_node8"><a xlink:href="namespacercf__initialise__mod.xhtml#ab7086bd455bd5857b757207d0255c3f4" target="_top" xlink:title="Subroutine Rcf_Initialise &#45; initialisation tasks. ">
<polygon fill="#ffffff" stroke="#000000" points="509,-17 509,-47 613,-47 613,-17 509,-17"/>
<text text-anchor="start" x="517" y="-35" font-family="Helvetica,sans-Serif" font-size="10.00" fill="#000000">rcf_initialise_mod</text>
<text text-anchor="middle" x="561" y="-24" font-family="Helvetica,sans-Serif" font-size="10.00" fill="#000000">::rcf_initialise</text>
</a>
</g>
</g>
<!-- Node16&#45;&gt;Node17 -->
<g id="edge8" class="edge">
<title>Node16&#45;&gt;Node17</title>
<path fill="none" stroke="#191970" d="M483.3968,-27.1346C491.99,-27.6734 500.5499,-28.21 508.6771,-28.7196"/>
<polygon fill="#191970" stroke="#191970" points="483.5173,-23.6354 473.3178,-26.5027 483.0792,-30.6217 483.5173,-23.6354"/>
</g>
<!-- Node18 -->
<g id="node9" class="node">
<title>Node18</title>
<g id="a_node9"><a xlink:href="reconfigure_8f90.xhtml#a55389899cfceedbb4b0f908c73988c0c" target="_top" xlink:title="Top level program for reconfiguration. ">
<polygon fill="#ffffff" stroke="#000000" points="649,-.5 649,-19.5 720,-19.5 720,-.5 649,-.5"/>
<text text-anchor="middle" x="684.5" y="-7.5" font-family="Helvetica,sans-Serif" font-size="10.00" fill="#000000">reconfigure</text>
</a>
</g>
</g>
<!-- Node16&#45;&gt;Node18 -->
<g id="edge10" class="edge">
<title>Node16&#45;&gt;Node18</title>
<path fill="none" stroke="#191970" d="M483.2182,-9.3956C491.9047,-8.4153 500.6228,-7.5816 509,-7 555.1112,-3.7984 566.7879,-6.0309 613,-7 624.6761,-7.2448 637.4177,-7.7144 648.868,-8.2105"/>
<polygon fill="#191970" stroke="#191970" points="482.573,-5.9477 473.0579,-10.6075 483.4021,-12.8984 482.573,-5.9477"/>
</g>
<!-- Node17&#45;&gt;Node18 -->
<g id="edge9" class="edge">
<title>Node17&#45;&gt;Node18</title>
<path fill="none" stroke="#191970" d="M622.9335,-20.9673C631.7486,-19.397 640.5587,-17.8276 648.6452,-16.3871"/>
<polygon fill="#191970" stroke="#191970" points="622.2483,-17.5342 613.0172,-22.7338 623.476,-24.4257 622.2483,-17.5342"/>
</g>
</g>
</svg>
