<?xml version="1.0" encoding="UTF-8" standalone="no"?>
<!DOCTYPE svg PUBLIC "-//W3C//DTD SVG 1.1//EN"
 "http://www.w3.org/Graphics/SVG/1.1/DTD/svg11.dtd">
<!-- Generated by graphviz version 2.40.1 (20161225.0304)
 -->
<!-- Title: ukca_dcoff_par_av_k Pages: 1 -->
<svg width="545pt" height="66pt"
 viewBox="0.00 0.00 545.00 66.00" xmlns="http://www.w3.org/2000/svg" xmlns:xlink="http://www.w3.org/1999/xlink">
<g id="graph0" class="graph" transform="scale(1 1) rotate(0) translate(4 62)">
<title>ukca_dcoff_par_av_k</title>
<polygon fill="#ffffff" stroke="transparent" points="-4,4 -4,-62 541,-62 541,4 -4,4"/>
<!-- Node1 -->
<g id="node1" class="node">
<title>Node1</title>
<polygon fill="#bfbfbf" stroke="#000000" points="0,-19.5 0,-38.5 119,-38.5 119,-19.5 0,-19.5"/>
<text text-anchor="middle" x="59.5" y="-26.5" font-family="Helvetica,sans-Serif" font-size="10.00" fill="#000000">ukca_dcoff_par_av_k</text>
</g>
<!-- Node2 -->
<g id="node2" class="node">
<title>Node2</title>
<g id="a_node2"><a xlink:href="ukca__ddepaer_8f90.xhtml#a6f6abb7ca02fe47bddf4b36650bfeda9" target="_top" xlink:title="(c) [University of Leeds] [2008]. All rights reserved. ">
<polygon fill="#ffffff" stroke="#000000" points="179,-38.5 179,-57.5 264,-57.5 264,-38.5 179,-38.5"/>
<text text-anchor="middle" x="221.5" y="-45.5" font-family="Helvetica,sans-Serif" font-size="10.00" fill="#000000">ukca_ddepaer</text>
</a>
</g>
</g>
<!-- Node1&#45;&gt;Node2 -->
<g id="edge1" class="edge">
<title>Node1&#45;&gt;Node2</title>
<path fill="none" stroke="#191970" d="M129.6263,-37.2247C146.2816,-39.1781 163.5616,-41.2048 178.5803,-42.9662"/>
<polygon fill="#191970" stroke="#191970" points="129.7022,-33.7097 119.3626,-36.0209 128.8867,-40.662 129.7022,-33.7097"/>
</g>
<!-- Node5 -->
<g id="node5" class="node">
<title>Node5</title>
<g id="a_node5"><a xlink:href="ukca__ddepaer__incl__sedi_8f90.xhtml#a622d7e26f1301e4333f0f57642ae7d48" target="_top" xlink:title="(c) [University of Leeds] [2008]. All rights reserved. ">
<polygon fill="#ffffff" stroke="#000000" points="155,-.5 155,-19.5 288,-19.5 288,-.5 155,-.5"/>
<text text-anchor="middle" x="221.5" y="-7.5" font-family="Helvetica,sans-Serif" font-size="10.00" fill="#000000">ukca_ddepaer_incl_sedi</text>
</a>
</g>
</g>
<!-- Node1&#45;&gt;Node5 -->
<g id="edge4" class="edge">
<title>Node1&#45;&gt;Node5</title>
<path fill="none" stroke="#191970" d="M129.4966,-20.7905C137.8904,-19.8061 146.4447,-18.8028 154.7901,-17.824"/>
<polygon fill="#191970" stroke="#191970" points="128.8867,-17.338 119.3626,-21.9791 129.7022,-24.2903 128.8867,-17.338"/>
</g>
<!-- Node3 -->
<g id="node3" class="node">
<title>Node3</title>
<g id="a_node3"><a xlink:href="ukca__aero__step_8f90.xhtml#a79421be0b3f7349cd803539407a11d02" target="_top" xlink:title="(c) [University of Leeds] [2008]. All rights reserved. ">
<polygon fill="#ffffff" stroke="#000000" points="324,-19.5 324,-38.5 417,-38.5 417,-19.5 324,-19.5"/>
<text text-anchor="middle" x="370.5" y="-26.5" font-family="Helvetica,sans-Serif" font-size="10.00" fill="#000000">ukca_aero_step</text>
</a>
</g>
</g>
<!-- Node2&#45;&gt;Node3 -->
<g id="edge2" class="edge">
<title>Node2&#45;&gt;Node3</title>
<path fill="none" stroke="#191970" d="M274.5386,-41.2367C290.6501,-39.1822 308.2256,-36.941 323.8815,-34.9446"/>
<polygon fill="#191970" stroke="#191970" points="273.6743,-37.8185 264.1974,-42.5554 274.5598,-44.7622 273.6743,-37.8185"/>
</g>
<!-- Node4 -->
<g id="node4" class="node">
<title>Node4</title>
<g id="a_node4"><a xlink:href="ukca__aero__ctl_8f90.xhtml#a8921f79c728762ac6e87a4dac61a364e" target="_top" xlink:title="!&gt; (c) [University of Leeds] [2008]. All rights reserved.!&gt; This routine has been licensed to the Met...">
<polygon fill="#ffffff" stroke="#000000" points="453,-19.5 453,-38.5 537,-38.5 537,-19.5 453,-19.5"/>
<text text-anchor="middle" x="495" y="-26.5" font-family="Helvetica,sans-Serif" font-size="10.00" fill="#000000">ukca_aero_ctl</text>
</a>
</g>
</g>
<!-- Node3&#45;&gt;Node4 -->
<g id="edge3" class="edge">
<title>Node3&#45;&gt;Node4</title>
<path fill="none" stroke="#191970" d="M427.2566,-29C435.9021,-29 444.69,-29 452.9463,-29"/>
<polygon fill="#191970" stroke="#191970" points="427.2135,-25.5001 417.2134,-29 427.2134,-32.5001 427.2135,-25.5001"/>
</g>
<!-- Node5&#45;&gt;Node3 -->
<g id="edge5" class="edge">
<title>Node5&#45;&gt;Node3</title>
<path fill="none" stroke="#191970" d="M298.1072,-19.7687C306.9301,-20.8938 315.7135,-22.0138 323.962,-23.0656"/>
<polygon fill="#191970" stroke="#191970" points="298.518,-16.2928 288.1555,-18.4997 297.6324,-23.2366 298.518,-16.2928"/>
</g>
</g>
</svg>
