<?xml version="1.0" encoding="UTF-8" standalone="no"?>
<!DOCTYPE svg PUBLIC "-//W3C//DTD SVG 1.1//EN"
 "http://www.w3.org/Graphics/SVG/1.1/DTD/svg11.dtd">
<!-- Generated by graphviz version 2.40.1 (20161225.0304)
 -->
<!-- Title: ukca_emiss_diags Pages: 1 -->
<!--zoomable 192 -->
<svg id="main" version="1.1" xmlns="http://www.w3.org/2000/svg" xmlns:xlink="http://www.w3.org/1999/xlink" xml:space="preserve" onload="init(evt)">
<style type="text/css"><![CDATA[
.edge:hover path { stroke: red; }
.edge:hover polygon { stroke: red; fill: red; }
]]></style>
<script type="text/javascript"><![CDATA[
var edges = document.getElementsByTagName('g');
if (edges && edges.length) {
  for (var i=0;i<edges.length;i++) {
    if (edges[i].id.substr(0,4)=='edge') {
      edges[i].setAttribute('class','edge');
    }
  }
}
]]></script>
        <defs>
                <circle id="rim" cx="0" cy="0" r="7"/>
                <circle id="rim2" cx="0" cy="0" r="3.5"/>
                <g id="zoomPlus">
                        <use xlink:href="#rim" fill="#404040">
                                <set attributeName="fill" to="#808080" begin="zoomplus.mouseover" end="zoomplus.mouseout"/>
                        </use>
                        <path d="M-4,0h8M0,-4v8" fill="none" stroke="white" stroke-width="1.5" pointer-events="none"/>
                </g>
                <g id="zoomMin">
                        <use xlink:href="#rim" fill="#404040">
                                <set attributeName="fill" to="#808080" begin="zoomminus.mouseover" end="zoomminus.mouseout"/>
                        </use>
                        <path d="M-4,0h8" fill="none" stroke="white" stroke-width="1.5" pointer-events="none"/>
                </g>
                <g id="dirArrow">
                        <path fill="none" stroke="white" stroke-width="1.5" d="M0,-3.0v7 M-2.5,-0.5L0,-3.0L2.5,-0.5"/>
                </g>
               <g id="resetDef">
                       <use xlink:href="#rim2" fill="#404040">
                               <set attributeName="fill" to="#808080" begin="reset.mouseover" end="reset.mouseout"/>
                       </use>
               </g>
        </defs>

<script type="text/javascript">
var viewWidth = 1004;
var viewHeight = 192;
var sectionId = 'dynsection-0';
</script>
<script xlink:href="svgpan.js"/>
<svg id="graph" class="graph">
<g id="viewport">
<title>ukca_emiss_diags</title>
<polygon fill="#ffffff" stroke="transparent" points="-4,4 -4,-187.5 1000,-187.5 1000,4 -4,4"/>
<!-- Node2 -->
<g id="node1" class="node">
<title>Node2</title>
<polygon fill="#bfbfbf" stroke="#000000" points="0,-95.5 0,-114.5 106,-114.5 106,-95.5 0,-95.5"/>
<text text-anchor="middle" x="53" y="-102.5" font-family="Helvetica,sans-Serif" font-size="10.00" fill="#000000">ukca_emiss_diags</text>
</g>
<!-- Node3 -->
<g id="node2" class="node">
<title>Node3</title>
<g id="a_node2"><a xlink:href="namespaceukca__update__emdiagstruct__mod.xhtml#a33125e98721eb46ef2a6e94b7d56a5b7" target="_top" xlink:title="ukca_update_emdiagstruct\l_mod::update_emdiagstruct">
<polygon fill="#ffffff" stroke="#000000" points="142,-153 142,-183 295,-183 295,-153 142,-153"/>
<text text-anchor="start" x="150" y="-171" font-family="Helvetica,sans-Serif" font-size="10.00" fill="#000000">ukca_update_emdiagstruct</text>
<text text-anchor="middle" x="218.5" y="-160" font-family="Helvetica,sans-Serif" font-size="10.00" fill="#000000">_mod::update_emdiagstruct</text>
</a>
</g>
</g>
<!-- Node2&#45;&gt;Node3 -->
<g id="edge1" class="edge">
<title>Node2&#45;&gt;Node3</title>
<path fill="none" stroke="#191970" d="M78.1359,-114.5683C102.2881,-123.7622 139.4397,-137.9046 169.4553,-149.3304"/>
<polygon fill="#191970" stroke="#191970" points="168.3334,-152.6483 178.9244,-152.935 170.8238,-146.1063 168.3334,-152.6483"/>
</g>
<!-- Node4 -->
<g id="node3" class="node">
<title>Node4</title>
<g id="a_node3"><a xlink:href="namespaceget__emdiag__stash__mod.xhtml#a0dc1b2b8cfc41e36322acb31827f8551" target="_top" xlink:title="get_emdiag_stash_mod\l::get_emdiag_stash">
<polygon fill="#ffffff" stroke="#000000" points="331,-131 331,-161 464,-161 464,-131 331,-131"/>
<text text-anchor="start" x="339" y="-149" font-family="Helvetica,sans-Serif" font-size="10.00" fill="#000000">get_emdiag_stash_mod</text>
<text text-anchor="middle" x="397.5" y="-138" font-family="Helvetica,sans-Serif" font-size="10.00" fill="#000000">::get_emdiag_stash</text>
</a>
</g>
</g>
<!-- Node2&#45;&gt;Node4 -->
<g id="edge3" class="edge">
<title>Node2&#45;&gt;Node4</title>
<path fill="none" stroke="#191970" d="M106.0731,-111.3164C163.403,-118.1394 255.2801,-129.074 320.5355,-136.8402"/>
<polygon fill="#191970" stroke="#191970" points="320.4271,-140.3519 330.7707,-138.0583 321.2544,-133.401 320.4271,-140.3519"/>
</g>
<!-- Node5 -->
<g id="node4" class="node">
<title>Node5</title>
<g id="a_node4"><a xlink:href="copydiag_8f90.xhtml#aba8cd762ec91a21d0a7b6ad6647290da" target="_top" xlink:title="Purpose : To copy a single diagnostic field from secondary space to. ">
<polygon fill="#ffffff" stroke="#000000" points="188,-76.5 188,-95.5 249,-95.5 249,-76.5 188,-76.5"/>
<text text-anchor="middle" x="218.5" y="-83.5" font-family="Helvetica,sans-Serif" font-size="10.00" fill="#000000">copydiag</text>
</a>
</g>
</g>
<!-- Node2&#45;&gt;Node5 -->
<g id="edge4" class="edge">
<title>Node2&#45;&gt;Node5</title>
<path fill="none" stroke="#191970" d="M106.2762,-98.8837C129.3387,-96.236 155.9145,-93.185 177.4137,-90.7169"/>
<polygon fill="#191970" stroke="#191970" points="177.9869,-94.1741 187.5224,-89.5563 177.1885,-87.2198 177.9869,-94.1741"/>
</g>
<!-- Node6 -->
<g id="node5" class="node">
<title>Node6</title>
<g id="a_node5"><a xlink:href="copydiag__3d_8f90.xhtml#aba2363a925768155f54d8f70068e1611" target="_top" xlink:title="Subroutine COPYDIAG_3D !&gt; Purpose : To copy a diagnostic field from secondary space to the...">
<polygon fill="#ffffff" stroke="#000000" points="179.5,-38.5 179.5,-57.5 257.5,-57.5 257.5,-38.5 179.5,-38.5"/>
<text text-anchor="middle" x="218.5" y="-45.5" font-family="Helvetica,sans-Serif" font-size="10.00" fill="#000000">copydiag_3d</text>
</a>
</g>
</g>
<!-- Node2&#45;&gt;Node6 -->
<g id="edge5" class="edge">
<title>Node2&#45;&gt;Node6</title>
<path fill="none" stroke="#191970" d="M72.7926,-95.4638C90.5979,-87.1485 117.628,-75.1711 142,-67 150.7662,-64.061 160.2337,-61.3499 169.4217,-58.9512"/>
<polygon fill="#191970" stroke="#191970" points="170.3958,-62.3151 179.2356,-56.4748 168.6831,-55.5279 170.3958,-62.3151"/>
</g>
<!-- Node3&#45;&gt;Node4 -->
<g id="edge2" class="edge">
<title>Node3&#45;&gt;Node4</title>
<path fill="none" stroke="#191970" d="M295.1911,-158.5743C303.6237,-157.5379 312.2112,-156.4824 320.6458,-155.4458"/>
<polygon fill="#191970" stroke="#191970" points="321.3392,-158.887 330.8376,-154.1931 320.4853,-151.9392 321.3392,-158.887"/>
</g>
<!-- Node7 -->
<g id="node6" class="node">
<title>Node7</title>
<g id="a_node6"><a xlink:href="set__levels__list_8f90.xhtml#a7047599e3e5b5dada45a1616ed44a537" target="_top" xlink:title="Subroutine SET_LEVELS_LIST. ">
<polygon fill="#ffffff" stroke="#000000" points="354.5,-38.5 354.5,-57.5 440.5,-57.5 440.5,-38.5 354.5,-38.5"/>
<text text-anchor="middle" x="397.5" y="-45.5" font-family="Helvetica,sans-Serif" font-size="10.00" fill="#000000">set_levels_list</text>
</a>
</g>
</g>
<!-- Node6&#45;&gt;Node7 -->
<g id="edge6" class="edge">
<title>Node6&#45;&gt;Node7</title>
<path fill="none" stroke="#191970" d="M257.7823,-48C283.06,-48 316.2394,-48 343.9217,-48"/>
<polygon fill="#191970" stroke="#191970" points="344.2342,-51.5001 354.2342,-48 344.2342,-44.5001 344.2342,-51.5001"/>
</g>
<!-- Node8 -->
<g id="node7" class="node">
<title>Node8</title>
<g id="a_node7"><a xlink:href="namespaceumprintmgr.xhtml#aae44897e556705dbf5e945a26538be9a" target="_top" xlink:title="umprintmgr::umprint">
<polygon fill="#ffffff" stroke="#000000" points="500,-38.5 500,-57.5 619,-57.5 619,-38.5 500,-38.5"/>
<text text-anchor="middle" x="559.5" y="-45.5" font-family="Helvetica,sans-Serif" font-size="10.00" fill="#000000">umprintmgr::umprint</text>
</a>
</g>
</g>
<!-- Node7&#45;&gt;Node8 -->
<g id="edge7" class="edge">
<title>Node7&#45;&gt;Node8</title>
<path fill="none" stroke="#191970" d="M440.913,-48C455.8927,-48 473.076,-48 489.6274,-48"/>
<polygon fill="#191970" stroke="#191970" points="489.8261,-51.5001 499.826,-48 489.826,-44.5001 489.8261,-51.5001"/>
</g>
<!-- Node9 -->
<g id="node8" class="node">
<title>Node9</title>
<g id="a_node8"><a xlink:href="namespaceumprintmgr.xhtml#a088ce22a18d574e9df7ee1850bfb10c7" target="_top" xlink:title="umprintmgr::umprintopenstream">
<polygon fill="#ffffff" stroke="#000000" points="655,-38.5 655,-57.5 832,-57.5 832,-38.5 655,-38.5"/>
<text text-anchor="middle" x="743.5" y="-45.5" font-family="Helvetica,sans-Serif" font-size="10.00" fill="#000000">umprintmgr::umprintopenstream</text>
</a>
</g>
</g>
<!-- Node8&#45;&gt;Node9 -->
<g id="edge8" class="edge">
<title>Node8&#45;&gt;Node9</title>
<path fill="none" stroke="#191970" d="M619.2395,-41.6333C627.4605,-41.4301 636.0751,-41.3077 644.7702,-41.2661"/>
<polygon fill="#191970" stroke="#191970" points="644.9998,-44.7659 654.9958,-41.2543 644.9917,-37.7659 644.9998,-44.7659"/>
</g>
<!-- Node10 -->
<g id="node9" class="node">
<title>Node10</title>
<g id="a_node9"><a xlink:href="namespaceumprintmgr.xhtml#ad3a290b30a6e25500eabc0bf90330b77" target="_top" xlink:title="umprintmgr::umprintflush">
<polygon fill="#ffffff" stroke="#000000" points="672.5,-.5 672.5,-19.5 814.5,-19.5 814.5,-.5 672.5,-.5"/>
<text text-anchor="middle" x="743.5" y="-7.5" font-family="Helvetica,sans-Serif" font-size="10.00" fill="#000000">umprintmgr::umprintflush</text>
</a>
</g>
</g>
<!-- Node8&#45;&gt;Node10 -->
<g id="edge10" class="edge">
<title>Node8&#45;&gt;Node10</title>
<path fill="none" stroke="#191970" d="M605.931,-38.411C630.6493,-33.3061 661.239,-26.9887 687.292,-21.6082"/>
<polygon fill="#191970" stroke="#191970" points="688.3175,-24.9703 697.4029,-19.5201 686.9017,-18.115 688.3175,-24.9703"/>
</g>
<!-- Node9&#45;&gt;Node8 -->
<g id="edge9" class="edge">
<title>Node9&#45;&gt;Node8</title>
<path fill="none" stroke="#191970" d="M654.9958,-54.7457C646.3802,-54.767 637.7236,-54.7094 629.3289,-54.5727"/>
<polygon fill="#191970" stroke="#191970" points="629.3089,-51.0716 619.2395,-54.3667 629.166,-58.0702 629.3089,-51.0716"/>
</g>
<!-- Node11 -->
<g id="node10" class="node">
<title>Node11</title>
<g id="a_node10"><a xlink:href="namespaceumflush__mod.xhtml#a3a003ab59990bdcb712b443dd5e0d1cd" target="_top" xlink:title="umflush_mod::umflush">
<polygon fill="#ffffff" stroke="#000000" points="868,-.5 868,-19.5 996,-19.5 996,-.5 868,-.5"/>
<text text-anchor="middle" x="932" y="-7.5" font-family="Helvetica,sans-Serif" font-size="10.00" fill="#000000">umflush_mod::umflush</text>
</a>
</g>
</g>
<!-- Node10&#45;&gt;Node11 -->
<g id="edge11" class="edge">
<title>Node10&#45;&gt;Node11</title>
<path fill="none" stroke="#191970" d="M814.7638,-10C828.7742,-10 843.5063,-10 857.6162,-10"/>
<polygon fill="#191970" stroke="#191970" points="857.7612,-13.5001 867.7611,-10 857.7611,-6.5001 857.7612,-13.5001"/>
</g>
</g>
</svg>
        <g id="navigator" transform="translate(0 0)" fill="#404254">
                <rect fill="#f2f5e9" fill-opacity="0.5" stroke="#606060" stroke-width=".5" x="0" y="0" width="60" height="60"/>
                <use id="zoomplus" xlink:href="#zoomPlus" x="17" y="9" onmousedown="handleZoom(evt,'in')"/>
                <use id="zoomminus" xlink:href="#zoomMin" x="42" y="9" onmousedown="handleZoom(evt,'out')"/>
                <use id="reset" xlink:href="#resetDef" x="30" y="36" onmousedown="handleReset()"/>
                <g id="arrowUp" xlink:href="#dirArrow" transform="translate(30 24)" onmousedown="handlePan(0,-1)">
                  <use xlink:href="#rim" fill="#404040">
                        <set attributeName="fill" to="#808080" begin="arrowUp.mouseover" end="arrowUp.mouseout"/>
                  </use>
                  <path fill="none" stroke="white" stroke-width="1.5" d="M0,-3.0v7 M-2.5,-0.5L0,-3.0L2.5,-0.5"/>
                </g>
                <g id="arrowRight" xlink:href="#dirArrow" transform="rotate(90) translate(36 -43)" onmousedown="handlePan(1,0)">
                  <use xlink:href="#rim" fill="#404040">
                        <set attributeName="fill" to="#808080" begin="arrowRight.mouseover" end="arrowRight.mouseout"/>
                  </use>
                  <path fill="none" stroke="white" stroke-width="1.5" d="M0,-3.0v7 M-2.5,-0.5L0,-3.0L2.5,-0.5"/>
                </g>
                <g id="arrowDown" xlink:href="#dirArrow" transform="rotate(180) translate(-30 -48)" onmousedown="handlePan(0,1)">
                  <use xlink:href="#rim" fill="#404040">
                        <set attributeName="fill" to="#808080" begin="arrowDown.mouseover" end="arrowDown.mouseout"/>
                  </use>
                  <path fill="none" stroke="white" stroke-width="1.5" d="M0,-3.0v7 M-2.5,-0.5L0,-3.0L2.5,-0.5"/>
                </g>
                <g id="arrowLeft" xlink:href="#dirArrow" transform="rotate(270) translate(-36 17)" onmousedown="handlePan(-1,0)">
                  <use xlink:href="#rim" fill="#404040">
                        <set attributeName="fill" to="#808080" begin="arrowLeft.mouseover" end="arrowLeft.mouseout"/>
                  </use>
                  <path fill="none" stroke="white" stroke-width="1.5" d="M0,-3.0v7 M-2.5,-0.5L0,-3.0L2.5,-0.5"/>
                </g>
        </g>
        <svg viewBox="0 0 15 15" width="100%" height="30px" preserveAspectRatio="xMaxYMin meet">
         <g id="arrow_out" transform="scale(0.3 0.3)">
          <a xlink:href="ukca__emiss__diags__mod_8f90_adde92d6eff6e1e72a69a81710c0f50f9_cgraph_org.svg" target="_base">
           <rect id="button" ry="5" rx="5" y="6" x="6" height="38" width="38"
                fill="#f2f5e9" fill-opacity="0.5" stroke="#606060" stroke-width="1.0"/>
           <path id="arrow"
             d="M 11.500037,31.436501 C 11.940474,20.09759 22.043105,11.32322 32.158766,21.979434 L 37.068811,17.246167 C 37.068811,17.246167 37.088388,32 37.088388,32 L 22.160133,31.978069 C 22.160133,31.978069 26.997745,27.140456 26.997745,27.140456 C 18.528582,18.264221 13.291696,25.230495 11.500037,31.436501 z"
             style="fill:#404040;"/>
          </a>
         </g>
        </svg>
</svg>
