<?xml version="1.0" encoding="UTF-8" standalone="no"?>
<!DOCTYPE svg PUBLIC "-//W3C//DTD SVG 1.1//EN"
 "http://www.w3.org/Graphics/SVG/1.1/DTD/svg11.dtd">
<!-- Generated by graphviz version 2.40.1 (20161225.0304)
 -->
<!-- Title: ukca_solvecoagnucl_v Pages: 1 -->
<svg width="529pt" height="28pt"
 viewBox="0.00 0.00 529.00 28.00" xmlns="http://www.w3.org/2000/svg" xmlns:xlink="http://www.w3.org/1999/xlink">
<g id="graph0" class="graph" transform="scale(1 1) rotate(0) translate(4 24)">
<title>ukca_solvecoagnucl_v</title>
<polygon fill="#ffffff" stroke="transparent" points="-4,4 -4,-24 525,-24 525,4 -4,4"/>
<!-- Node6 -->
<g id="node1" class="node">
<title>Node6</title>
<polygon fill="#bfbfbf" stroke="#000000" points="0,-.5 0,-19.5 126,-19.5 126,-.5 0,-.5"/>
<text text-anchor="middle" x="63" y="-7.5" font-family="Helvetica,sans-Serif" font-size="10.00" fill="#000000">ukca_solvecoagnucl_v</text>
</g>
<!-- Node7 -->
<g id="node2" class="node">
<title>Node7</title>
<g id="a_node2"><a xlink:href="ukca__coagwithnucl_8f90.xhtml#a74847b16415e183b2fbd13a6fa78caad" target="_top" xlink:title="(c) [University of Leeds] [2008]. All rights reserved. ">
<polygon fill="#ffffff" stroke="#000000" points="162,-.5 162,-19.5 272,-19.5 272,-.5 162,-.5"/>
<text text-anchor="middle" x="217" y="-7.5" font-family="Helvetica,sans-Serif" font-size="10.00" fill="#000000">ukca_coagwithnucl</text>
</a>
</g>
</g>
<!-- Node6&#45;&gt;Node7 -->
<g id="edge1" class="edge">
<title>Node6&#45;&gt;Node7</title>
<path fill="none" stroke="#191970" d="M136.1155,-10C144.7097,-10 153.3686,-10 161.6625,-10"/>
<polygon fill="#191970" stroke="#191970" points="136.0821,-6.5001 126.082,-10 136.082,-13.5001 136.0821,-6.5001"/>
</g>
<!-- Node8 -->
<g id="node3" class="node">
<title>Node8</title>
<g id="a_node3"><a xlink:href="ukca__aero__step_8f90.xhtml#a79421be0b3f7349cd803539407a11d02" target="_top" xlink:title="(c) [University of Leeds] [2008]. All rights reserved. ">
<polygon fill="#ffffff" stroke="#000000" points="308,-.5 308,-19.5 401,-19.5 401,-.5 308,-.5"/>
<text text-anchor="middle" x="354.5" y="-7.5" font-family="Helvetica,sans-Serif" font-size="10.00" fill="#000000">ukca_aero_step</text>
</a>
</g>
</g>
<!-- Node7&#45;&gt;Node8 -->
<g id="edge2" class="edge">
<title>Node7&#45;&gt;Node8</title>
<path fill="none" stroke="#191970" d="M282.1943,-10C290.8211,-10 299.5227,-10 307.7539,-10"/>
<polygon fill="#191970" stroke="#191970" points="282.1343,-6.5001 272.1342,-10 282.1342,-13.5001 282.1343,-6.5001"/>
</g>
<!-- Node9 -->
<g id="node4" class="node">
<title>Node9</title>
<g id="a_node4"><a xlink:href="ukca__aero__ctl_8f90.xhtml#a8921f79c728762ac6e87a4dac61a364e" target="_top" xlink:title="!&gt; (c) [University of Leeds] [2008]. All rights reserved.!&gt; This routine has been licensed to the Met...">
<polygon fill="#ffffff" stroke="#000000" points="437,-.5 437,-19.5 521,-19.5 521,-.5 437,-.5"/>
<text text-anchor="middle" x="479" y="-7.5" font-family="Helvetica,sans-Serif" font-size="10.00" fill="#000000">ukca_aero_ctl</text>
</a>
</g>
</g>
<!-- Node8&#45;&gt;Node9 -->
<g id="edge3" class="edge">
<title>Node8&#45;&gt;Node9</title>
<path fill="none" stroke="#191970" d="M411.2566,-10C419.9021,-10 428.69,-10 436.9463,-10"/>
<polygon fill="#191970" stroke="#191970" points="411.2135,-6.5001 401.2134,-10 411.2134,-13.5001 411.2135,-6.5001"/>
</g>
</g>
</svg>
