<?xml version="1.0" encoding="UTF-8" standalone="no"?>
<!DOCTYPE svg PUBLIC "-//W3C//DTD SVG 1.1//EN"
 "http://www.w3.org/Graphics/SVG/1.1/DTD/svg11.dtd">
<!-- Generated by graphviz version 2.40.1 (20161225.0304)
 -->
<!-- Title: ukca_ddepaer Pages: 1 -->
<svg width="248pt" height="66pt"
 viewBox="0.00 0.00 248.00 66.00" xmlns="http://www.w3.org/2000/svg" xmlns:xlink="http://www.w3.org/1999/xlink">
<g id="graph0" class="graph" transform="scale(1 1) rotate(0) translate(4 62)">
<title>ukca_ddepaer</title>
<polygon fill="#ffffff" stroke="transparent" points="-4,4 -4,-62 244,-62 244,4 -4,4"/>
<!-- Node0 -->
<g id="node1" class="node">
<title>Node0</title>
<polygon fill="#bfbfbf" stroke="#000000" points="0,-19.5 0,-38.5 85,-38.5 85,-19.5 0,-19.5"/>
<text text-anchor="middle" x="42.5" y="-26.5" font-family="Helvetica,sans-Serif" font-size="10.00" fill="#000000">ukca_ddepaer</text>
</g>
<!-- Node1 -->
<g id="node2" class="node">
<title>Node1</title>
<g id="a_node2"><a xlink:href="ukca__vgrav__av__k_8f90.xhtml#ac9c4b1e0a9b821a5a9d100435902a44e" target="_top" xlink:title="(c) [University of Leeds] [2008]. All rights reserved. ">
<polygon fill="#ffffff" stroke="#000000" points="130,-38.5 130,-57.5 231,-57.5 231,-38.5 130,-38.5"/>
<text text-anchor="middle" x="180.5" y="-45.5" font-family="Helvetica,sans-Serif" font-size="10.00" fill="#000000">ukca_vgrav_av_k</text>
</a>
</g>
</g>
<!-- Node0&#45;&gt;Node1 -->
<g id="edge1" class="edge">
<title>Node0&#45;&gt;Node1</title>
<path fill="none" stroke="#191970" d="M85.0306,-34.8557C95.9335,-36.3568 107.8756,-38.001 119.5098,-39.6028"/>
<polygon fill="#191970" stroke="#191970" points="119.2368,-43.0981 129.6207,-40.9949 120.1916,-36.1636 119.2368,-43.0981"/>
</g>
<!-- Node2 -->
<g id="node3" class="node">
<title>Node2</title>
<g id="a_node3"><a xlink:href="ukca__dcoff__par__av__k_8f90.xhtml#af3a51dd40a6a2e4df21796adf635e159" target="_top" xlink:title="(c) [University of Leeds] [2008]. All rights reserved. ">
<polygon fill="#ffffff" stroke="#000000" points="121,-.5 121,-19.5 240,-19.5 240,-.5 121,-.5"/>
<text text-anchor="middle" x="180.5" y="-7.5" font-family="Helvetica,sans-Serif" font-size="10.00" fill="#000000">ukca_dcoff_par_av_k</text>
</a>
</g>
</g>
<!-- Node0&#45;&gt;Node2 -->
<g id="edge2" class="edge">
<title>Node0&#45;&gt;Node2</title>
<path fill="none" stroke="#191970" d="M85.0306,-23.1443C93.2588,-22.0115 102.0789,-20.7971 110.9119,-19.581"/>
<polygon fill="#191970" stroke="#191970" points="111.43,-23.0427 120.8592,-18.2114 110.4752,-16.1082 111.43,-23.0427"/>
</g>
</g>
</svg>
