<?xml version="1.0" encoding="UTF-8" standalone="no"?>
<!DOCTYPE svg PUBLIC "-//W3C//DTD SVG 1.1//EN"
 "http://www.w3.org/Graphics/SVG/1.1/DTD/svg11.dtd">
<!-- Generated by graphviz version 2.40.1 (20161225.0304)
 -->
<!-- Title: um_setup Pages: 1 -->
<svg width="697pt" height="203pt"
 viewBox="0.00 0.00 697.00 202.50" xmlns="http://www.w3.org/2000/svg" xmlns:xlink="http://www.w3.org/1999/xlink">
<g id="graph0" class="graph" transform="scale(1 1) rotate(0) translate(4 198.5)">
<title>um_setup</title>
<polygon fill="#ffffff" stroke="transparent" points="-4,4 -4,-198.5 693,-198.5 693,4 -4,4"/>
<!-- Node0 -->
<g id="node1" class="node">
<title>Node0</title>
<polygon fill="#bfbfbf" stroke="#000000" points="0,-57.5 0,-76.5 65,-76.5 65,-57.5 0,-57.5"/>
<text text-anchor="middle" x="32.5" y="-64.5" font-family="Helvetica,sans-Serif" font-size="10.00" fill="#000000">um_setup</text>
</g>
<!-- Node1 -->
<g id="node2" class="node">
<title>Node1</title>
<g id="a_node2"><a xlink:href="readhist_8f90.xhtml#a5c40451b2ebed1bf17ddf581c5dfeadf" target="_top" xlink:title="LL Routine: READHIST. ">
<polygon fill="#ffffff" stroke="#000000" points="101,-76.5 101,-95.5 157,-95.5 157,-76.5 101,-76.5"/>
<text text-anchor="middle" x="129" y="-83.5" font-family="Helvetica,sans-Serif" font-size="10.00" fill="#000000">readhist</text>
</a>
</g>
</g>
<!-- Node0&#45;&gt;Node1 -->
<g id="edge1" class="edge">
<title>Node0&#45;&gt;Node1</title>
<path fill="none" stroke="#191970" d="M65.1705,-73.4325C73.4116,-75.0551 82.3319,-76.8115 90.8175,-78.4822"/>
<polygon fill="#191970" stroke="#191970" points="90.3897,-81.9651 100.8775,-80.4629 91.742,-75.097 90.3897,-81.9651"/>
</g>
<!-- Node9 -->
<g id="node10" class="node">
<title>Node9</title>
<g id="a_node10"><a xlink:href="readhk-readhk1_8f90.xhtml#a8caedf63ffe6adda49b70ba7c61f2b45" target="_top" xlink:title="Routine: READHK. ">
<polygon fill="#ffffff" stroke="#000000" points="104,-38.5 104,-57.5 154,-57.5 154,-38.5 104,-38.5"/>
<text text-anchor="middle" x="129" y="-45.5" font-family="Helvetica,sans-Serif" font-size="10.00" fill="#000000">readhk</text>
</a>
</g>
</g>
<!-- Node0&#45;&gt;Node9 -->
<g id="edge10" class="edge">
<title>Node0&#45;&gt;Node9</title>
<path fill="none" stroke="#191970" d="M65.1705,-60.5675C74.4863,-58.7333 84.6702,-56.7281 94.1128,-54.869"/>
<polygon fill="#191970" stroke="#191970" points="94.8565,-58.2898 103.992,-52.9239 93.5042,-51.4217 94.8565,-58.2898"/>
</g>
<!-- Node2 -->
<g id="node3" class="node">
<title>Node2</title>
<g id="a_node3"><a xlink:href="namespaceumprintmgr.xhtml#aae44897e556705dbf5e945a26538be9a" target="_top" xlink:title="umprintmgr::umprint">
<polygon fill="#ffffff" stroke="#000000" points="193,-76.5 193,-95.5 312,-95.5 312,-76.5 193,-76.5"/>
<text text-anchor="middle" x="252.5" y="-83.5" font-family="Helvetica,sans-Serif" font-size="10.00" fill="#000000">umprintmgr::umprint</text>
</a>
</g>
</g>
<!-- Node1&#45;&gt;Node2 -->
<g id="edge2" class="edge">
<title>Node1&#45;&gt;Node2</title>
<path fill="none" stroke="#191970" d="M157.0241,-86C164.7802,-86 173.5603,-86 182.5771,-86"/>
<polygon fill="#191970" stroke="#191970" points="182.816,-89.5001 192.816,-86 182.8159,-82.5001 182.816,-89.5001"/>
</g>
<!-- Node6 -->
<g id="node7" class="node">
<title>Node6</title>
<g id="a_node7"><a xlink:href="initchst_8f90.xhtml#a349e92a4e653649fc383adf9498e4e72" target="_top" xlink:title="initchst">
<polygon fill="#ffffff" stroke="#000000" points="226,-120.5 226,-139.5 279,-139.5 279,-120.5 226,-120.5"/>
<text text-anchor="middle" x="252.5" y="-127.5" font-family="Helvetica,sans-Serif" font-size="10.00" fill="#000000">initchst</text>
</a>
</g>
</g>
<!-- Node1&#45;&gt;Node6 -->
<g id="edge7" class="edge">
<title>Node1&#45;&gt;Node6</title>
<path fill="none" stroke="#191970" d="M155.7977,-95.5473C173.5188,-101.8609 196.9664,-110.2147 216.3345,-117.1151"/>
<polygon fill="#191970" stroke="#191970" points="215.16,-120.4121 225.7546,-120.4713 217.5093,-113.8181 215.16,-120.4121"/>
</g>
<!-- Node3 -->
<g id="node4" class="node">
<title>Node3</title>
<g id="a_node4"><a xlink:href="namespaceumprintmgr.xhtml#a088ce22a18d574e9df7ee1850bfb10c7" target="_top" xlink:title="umprintmgr::umprintopenstream">
<polygon fill="#ffffff" stroke="#000000" points="348,-76.5 348,-95.5 525,-95.5 525,-76.5 348,-76.5"/>
<text text-anchor="middle" x="436.5" y="-83.5" font-family="Helvetica,sans-Serif" font-size="10.00" fill="#000000">umprintmgr::umprintopenstream</text>
</a>
</g>
</g>
<!-- Node2&#45;&gt;Node3 -->
<g id="edge3" class="edge">
<title>Node2&#45;&gt;Node3</title>
<path fill="none" stroke="#191970" d="M312.2395,-79.6333C320.4605,-79.4301 329.0751,-79.3077 337.7702,-79.2661"/>
<polygon fill="#191970" stroke="#191970" points="337.9998,-82.7659 347.9958,-79.2543 337.9917,-75.7659 337.9998,-82.7659"/>
</g>
<!-- Node4 -->
<g id="node5" class="node">
<title>Node4</title>
<g id="a_node5"><a xlink:href="namespaceumprintmgr.xhtml#ad3a290b30a6e25500eabc0bf90330b77" target="_top" xlink:title="umprintmgr::umprintflush">
<polygon fill="#ffffff" stroke="#000000" points="365.5,-38.5 365.5,-57.5 507.5,-57.5 507.5,-38.5 365.5,-38.5"/>
<text text-anchor="middle" x="436.5" y="-45.5" font-family="Helvetica,sans-Serif" font-size="10.00" fill="#000000">umprintmgr::umprintflush</text>
</a>
</g>
</g>
<!-- Node2&#45;&gt;Node4 -->
<g id="edge5" class="edge">
<title>Node2&#45;&gt;Node4</title>
<path fill="none" stroke="#191970" d="M298.931,-76.411C323.6493,-71.3061 354.239,-64.9887 380.292,-59.6082"/>
<polygon fill="#191970" stroke="#191970" points="381.3175,-62.9703 390.4029,-57.5201 379.9017,-56.115 381.3175,-62.9703"/>
</g>
<!-- Node3&#45;&gt;Node2 -->
<g id="edge4" class="edge">
<title>Node3&#45;&gt;Node2</title>
<path fill="none" stroke="#191970" d="M347.9958,-92.7457C339.3802,-92.767 330.7236,-92.7094 322.3289,-92.5727"/>
<polygon fill="#191970" stroke="#191970" points="322.3089,-89.0716 312.2395,-92.3667 322.166,-96.0702 322.3089,-89.0716"/>
</g>
<!-- Node5 -->
<g id="node6" class="node">
<title>Node5</title>
<g id="a_node6"><a xlink:href="namespaceumflush__mod.xhtml#a3a003ab59990bdcb712b443dd5e0d1cd" target="_top" xlink:title="umflush_mod::umflush">
<polygon fill="#ffffff" stroke="#000000" points="561,-38.5 561,-57.5 689,-57.5 689,-38.5 561,-38.5"/>
<text text-anchor="middle" x="625" y="-45.5" font-family="Helvetica,sans-Serif" font-size="10.00" fill="#000000">umflush_mod::umflush</text>
</a>
</g>
</g>
<!-- Node4&#45;&gt;Node5 -->
<g id="edge6" class="edge">
<title>Node4&#45;&gt;Node5</title>
<path fill="none" stroke="#191970" d="M507.7638,-48C521.7742,-48 536.5063,-48 550.6162,-48"/>
<polygon fill="#191970" stroke="#191970" points="550.7612,-51.5001 560.7611,-48 550.7611,-44.5001 550.7612,-51.5001"/>
</g>
<!-- Node7 -->
<g id="node8" class="node">
<title>Node7</title>
<g id="a_node8"><a xlink:href="namespacefile__units__mod.xhtml#ac44a245aa1f39e99c14fccd539c31dd3" target="_top" xlink:title="file_units_mod::init\l_file_unit_ptrs">
<polygon fill="#ffffff" stroke="#000000" points="381.5,-164 381.5,-194 491.5,-194 491.5,-164 381.5,-164"/>
<text text-anchor="start" x="389.5" y="-182" font-family="Helvetica,sans-Serif" font-size="10.00" fill="#000000">file_units_mod::init</text>
<text text-anchor="middle" x="436.5" y="-171" font-family="Helvetica,sans-Serif" font-size="10.00" fill="#000000">_file_unit_ptrs</text>
</a>
</g>
</g>
<!-- Node6&#45;&gt;Node7 -->
<g id="edge8" class="edge">
<title>Node6&#45;&gt;Node7</title>
<path fill="none" stroke="#191970" d="M279.2552,-137.125C303.3726,-143.5476 339.8145,-153.2522 371.5454,-161.7023"/>
<polygon fill="#191970" stroke="#191970" points="370.6589,-165.0881 381.2228,-164.2794 372.4603,-158.3239 370.6589,-165.0881"/>
</g>
<!-- Node8 -->
<g id="node9" class="node">
<title>Node8</title>
<g id="a_node9"><a xlink:href="namespacefile__units__mod.xhtml#a5872ab96fa4aff5068e046d334cc7ce4" target="_top" xlink:title="file_units_mod::set\l_model_ft_unit_filename">
<polygon fill="#ffffff" stroke="#000000" points="368,-115 368,-145 505,-145 505,-115 368,-115"/>
<text text-anchor="start" x="376" y="-133" font-family="Helvetica,sans-Serif" font-size="10.00" fill="#000000">file_units_mod::set</text>
<text text-anchor="middle" x="436.5" y="-122" font-family="Helvetica,sans-Serif" font-size="10.00" fill="#000000">_model_ft_unit_filename</text>
</a>
</g>
</g>
<!-- Node6&#45;&gt;Node8 -->
<g id="edge9" class="edge">
<title>Node6&#45;&gt;Node8</title>
<path fill="none" stroke="#191970" d="M279.2552,-130C299.9386,-130 329.6867,-130 357.7539,-130"/>
<polygon fill="#191970" stroke="#191970" points="357.9985,-133.5001 367.9985,-130 357.9984,-126.5001 357.9985,-133.5001"/>
</g>
<!-- Node9&#45;&gt;Node2 -->
<g id="edge11" class="edge">
<title>Node9&#45;&gt;Node2</title>
<path fill="none" stroke="#191970" d="M154.2901,-55.7816C170.8761,-60.885 192.9297,-67.6707 211.9361,-73.5188"/>
<polygon fill="#191970" stroke="#191970" points="210.9653,-76.882 221.5524,-76.4777 213.0239,-70.1915 210.9653,-76.882"/>
</g>
<!-- Node10 -->
<g id="node11" class="node">
<title>Node10</title>
<g id="a_node11"><a xlink:href="time__df_8f90.xhtml#a492b028f7c354e8b20e685c39521c011" target="_top" xlink:title="LL Routine: TIME_DF &#45;!&gt;LL. ">
<polygon fill="#ffffff" stroke="#000000" points="225.5,-38.5 225.5,-57.5 279.5,-57.5 279.5,-38.5 225.5,-38.5"/>
<text text-anchor="middle" x="252.5" y="-45.5" font-family="Helvetica,sans-Serif" font-size="10.00" fill="#000000">time_df</text>
</a>
</g>
</g>
<!-- Node9&#45;&gt;Node10 -->
<g id="edge12" class="edge">
<title>Node9&#45;&gt;Node10</title>
<path fill="none" stroke="#191970" d="M154.2901,-48C171.7571,-48 195.288,-48 214.9378,-48"/>
<polygon fill="#191970" stroke="#191970" points="215.0986,-51.5001 225.0985,-48 215.0985,-44.5001 215.0986,-51.5001"/>
</g>
<!-- Node11 -->
<g id="node12" class="node">
<title>Node11</title>
<g id="a_node12"><a xlink:href="sec2time_8f90.xhtml#ac74065211f64970d62c9e83164972f15" target="_top" xlink:title="LL Routine: SEC2TIM0 !&gt;LL. ">
<polygon fill="#ffffff" stroke="#000000" points="221.5,-.5 221.5,-19.5 283.5,-19.5 283.5,-.5 221.5,-.5"/>
<text text-anchor="middle" x="252.5" y="-7.5" font-family="Helvetica,sans-Serif" font-size="10.00" fill="#000000">sec2time</text>
</a>
</g>
</g>
<!-- Node9&#45;&gt;Node11 -->
<g id="edge13" class="edge">
<title>Node9&#45;&gt;Node11</title>
<path fill="none" stroke="#191970" d="M154.2901,-40.2184C170.8761,-35.115 192.9297,-28.3293 211.9361,-22.4812"/>
<polygon fill="#191970" stroke="#191970" points="213.0239,-25.8085 221.5524,-19.5223 210.9653,-19.118 213.0239,-25.8085"/>
</g>
</g>
</svg>
