<?xml version="1.0" encoding="UTF-8" standalone="no"?>
<!DOCTYPE svg PUBLIC "-//W3C//DTD SVG 1.1//EN"
 "http://www.w3.org/Graphics/SVG/1.1/DTD/svg11.dtd">
<!-- Generated by graphviz version 2.40.1 (20161225.0304)
 -->
<!-- Title: veg_ic_1b Pages: 1 -->
<svg width="715pt" height="104pt"
 viewBox="0.00 0.00 715.00 104.00" xmlns="http://www.w3.org/2000/svg" xmlns:xlink="http://www.w3.org/1999/xlink">
<g id="graph0" class="graph" transform="scale(1 1) rotate(0) translate(4 100)">
<title>veg_ic_1b</title>
<polygon fill="#ffffff" stroke="transparent" points="-4,4 -4,-100 711,-100 711,4 -4,4"/>
<!-- Node1 -->
<g id="node1" class="node">
<title>Node1</title>
<polygon fill="#bfbfbf" stroke="#000000" points="0,-38.5 0,-57.5 65,-57.5 65,-38.5 0,-38.5"/>
<text text-anchor="middle" x="32.5" y="-45.5" font-family="Helvetica,sans-Serif" font-size="10.00" fill="#000000">veg_ic_1b</text>
</g>
<!-- Node2 -->
<g id="node2" class="node">
<title>Node2</title>
<g id="a_node2"><a xlink:href="veg__ctl_8f90.xhtml#a2d84a35e79cd510dab2d4419f33f5e4d" target="_top" xlink:title="Top&#45;level control routine for vegetation section Top&#45;level control routine for vegetation section...">
<polygon fill="#ffffff" stroke="#000000" points="101,-38.5 101,-57.5 153,-57.5 153,-38.5 101,-38.5"/>
<text text-anchor="middle" x="127" y="-45.5" font-family="Helvetica,sans-Serif" font-size="10.00" fill="#000000">veg_ctl</text>
</a>
</g>
</g>
<!-- Node1&#45;&gt;Node2 -->
<g id="edge1" class="edge">
<title>Node1&#45;&gt;Node2</title>
<path fill="none" stroke="#191970" d="M75.1781,-48C83.9766,-48 92.9885,-48 100.9782,-48"/>
<polygon fill="#191970" stroke="#191970" points="75.0216,-44.5001 65.0215,-48 75.0215,-51.5001 75.0216,-44.5001"/>
</g>
<!-- Node3 -->
<g id="node3" class="node">
<title>Node3</title>
<g id="a_node3"><a xlink:href="atmos__physics2_8f90.xhtml#a0f74e8c75312201121b305cd566b175a" target="_top" xlink:title="Interface to Atmos Physics parametrizations after S&#45;L advection. ">
<polygon fill="#ffffff" stroke="#000000" points="189,-38.5 189,-57.5 284,-57.5 284,-38.5 189,-38.5"/>
<text text-anchor="middle" x="236.5" y="-45.5" font-family="Helvetica,sans-Serif" font-size="10.00" fill="#000000">atmos_physics2</text>
</a>
</g>
</g>
<!-- Node2&#45;&gt;Node3 -->
<g id="edge2" class="edge">
<title>Node2&#45;&gt;Node3</title>
<path fill="none" stroke="#191970" d="M163.4289,-48C171.5047,-48 180.1816,-48 188.636,-48"/>
<polygon fill="#191970" stroke="#191970" points="163.228,-44.5001 153.228,-48 163.2279,-51.5001 163.228,-44.5001"/>
</g>
<!-- Node4 -->
<g id="node4" class="node">
<title>Node4</title>
<g id="a_node4"><a xlink:href="atm__step_8f90.xhtml#ac0ee2467a1a9959b7065fdb8fd27bce4" target="_top" xlink:title="Perform a 1&#45;timestep integration of the Atmosphere Model. ">
<polygon fill="#ffffff" stroke="#000000" points="329,-76.5 329,-95.5 391,-95.5 391,-76.5 329,-76.5"/>
<text text-anchor="middle" x="360" y="-83.5" font-family="Helvetica,sans-Serif" font-size="10.00" fill="#000000">atm_step</text>
</a>
</g>
</g>
<!-- Node3&#45;&gt;Node4 -->
<g id="edge3" class="edge">
<title>Node3&#45;&gt;Node4</title>
<path fill="none" stroke="#191970" d="M277.2397,-60.5353C294.0405,-65.7048 313.197,-71.5991 328.8457,-76.4141"/>
<polygon fill="#191970" stroke="#191970" points="278.2514,-57.1847 267.6643,-57.589 276.1927,-63.8752 278.2514,-57.1847"/>
</g>
<!-- Node8 -->
<g id="node8" class="node">
<title>Node8</title>
<g id="a_node8"><a xlink:href="atm__step__4_a_8f90.xhtml#a2319aa4963e90c64cd78bdcd5f481095" target="_top" xlink:title="Perform a 1&#45;timestep integration of the Atmosphere Model. ">
<polygon fill="#ffffff" stroke="#000000" points="320,-38.5 320,-57.5 400,-57.5 400,-38.5 320,-38.5"/>
<text text-anchor="middle" x="360" y="-45.5" font-family="Helvetica,sans-Serif" font-size="10.00" fill="#000000">atm_step_4a</text>
</a>
</g>
</g>
<!-- Node3&#45;&gt;Node8 -->
<g id="edge7" class="edge">
<title>Node3&#45;&gt;Node8</title>
<path fill="none" stroke="#191970" d="M294.3434,-48C303.0185,-48 311.7967,-48 319.9897,-48"/>
<polygon fill="#191970" stroke="#191970" points="294.2484,-44.5001 284.2483,-48 294.2483,-51.5001 294.2484,-44.5001"/>
</g>
<!-- Node10 -->
<g id="node10" class="node">
<title>Node10</title>
<g id="a_node10"><a xlink:href="scm__main_8f90.xhtml#a2c730136605550612e094ce51d33a2a5" target="_top" xlink:title="*********************************COPYRIGHT********************************* ">
<polygon fill="#ffffff" stroke="#000000" points="326.5,-.5 326.5,-19.5 393.5,-19.5 393.5,-.5 326.5,-.5"/>
<text text-anchor="middle" x="360" y="-7.5" font-family="Helvetica,sans-Serif" font-size="10.00" fill="#000000">scm_main</text>
</a>
</g>
</g>
<!-- Node3&#45;&gt;Node10 -->
<g id="edge10" class="edge">
<title>Node3&#45;&gt;Node10</title>
<path fill="none" stroke="#191970" d="M277.2397,-35.4647C294.0405,-30.2952 313.197,-24.4009 328.8457,-19.5859"/>
<polygon fill="#191970" stroke="#191970" points="276.1927,-32.1248 267.6643,-38.411 278.2514,-38.8153 276.1927,-32.1248"/>
</g>
<!-- Node5 -->
<g id="node5" class="node">
<title>Node5</title>
<g id="a_node5"><a xlink:href="u__model_8f90.xhtml#ada0cd2ce4699433bf0f9adbd882c8eec" target="_top" xlink:title="Subroutine: U_MODEL &#45;!&gt; ">
<polygon fill="#ffffff" stroke="#000000" points="444.5,-76.5 444.5,-95.5 503.5,-95.5 503.5,-76.5 444.5,-76.5"/>
<text text-anchor="middle" x="474" y="-83.5" font-family="Helvetica,sans-Serif" font-size="10.00" fill="#000000">u_model</text>
</a>
</g>
</g>
<!-- Node4&#45;&gt;Node5 -->
<g id="edge4" class="edge">
<title>Node4&#45;&gt;Node5</title>
<path fill="none" stroke="#191970" d="M401.2532,-86C415.5539,-86 431.2895,-86 444.4568,-86"/>
<polygon fill="#191970" stroke="#191970" points="401.151,-82.5001 391.151,-86 401.151,-89.5001 401.151,-82.5001"/>
</g>
<!-- Node6 -->
<g id="node6" class="node">
<title>Node6</title>
<g id="a_node6"><a xlink:href="um__shell_8f90.xhtml#a8c9bd25362824a5c301376ecb5ed5c27" target="_top" xlink:title="Subroutine: UM_SHELL !&gt; ">
<polygon fill="#ffffff" stroke="#000000" points="548,-57.5 548,-76.5 609,-76.5 609,-57.5 548,-57.5"/>
<text text-anchor="middle" x="578.5" y="-64.5" font-family="Helvetica,sans-Serif" font-size="10.00" fill="#000000">um_shell</text>
</a>
</g>
</g>
<!-- Node5&#45;&gt;Node6 -->
<g id="edge5" class="edge">
<title>Node5&#45;&gt;Node6</title>
<path fill="none" stroke="#191970" d="M513.701,-78.7816C524.951,-76.7362 537.0261,-74.5407 547.6677,-72.6059"/>
<polygon fill="#191970" stroke="#191970" points="512.8786,-75.3737 503.666,-80.6062 514.1308,-82.2608 512.8786,-75.3737"/>
</g>
<!-- Node7 -->
<g id="node7" class="node">
<title>Node7</title>
<g id="a_node7"><a xlink:href="um__main_8f90.xhtml#a8f2d13215621443a5313261c282f098b" target="_top" xlink:title="Code Owner: See Unified Model Code Owner&#39;s HTML page. ">
<polygon fill="#ffffff" stroke="#000000" points="645,-57.5 645,-76.5 707,-76.5 707,-57.5 645,-57.5"/>
<text text-anchor="middle" x="676" y="-64.5" font-family="Helvetica,sans-Serif" font-size="10.00" fill="#000000">um_main</text>
</a>
</g>
</g>
<!-- Node6&#45;&gt;Node7 -->
<g id="edge6" class="edge">
<title>Node6&#45;&gt;Node7</title>
<path fill="none" stroke="#191970" d="M619.2756,-67C627.8294,-67 636.72,-67 644.8551,-67"/>
<polygon fill="#191970" stroke="#191970" points="619.0821,-63.5001 609.0821,-67 619.0821,-70.5001 619.0821,-63.5001"/>
</g>
<!-- Node9 -->
<g id="node9" class="node">
<title>Node9</title>
<g id="a_node9"><a xlink:href="u__model__4_a_8f90.xhtml#afa05064dab5eba198b461d0928767c7e" target="_top" xlink:title="LL Subroutine: U_MODEL_4A (ENDGAME VERSION) !&gt;LL. ">
<polygon fill="#ffffff" stroke="#000000" points="436,-38.5 436,-57.5 512,-57.5 512,-38.5 436,-38.5"/>
<text text-anchor="middle" x="474" y="-45.5" font-family="Helvetica,sans-Serif" font-size="10.00" fill="#000000">u_model_4a</text>
</a>
</g>
</g>
<!-- Node8&#45;&gt;Node9 -->
<g id="edge8" class="edge">
<title>Node8&#45;&gt;Node9</title>
<path fill="none" stroke="#191970" d="M410.3998,-48C418.891,-48 427.5803,-48 435.7002,-48"/>
<polygon fill="#191970" stroke="#191970" points="410.1922,-44.5001 400.1921,-48 410.1921,-51.5001 410.1922,-44.5001"/>
</g>
<!-- Node9&#45;&gt;Node6 -->
<g id="edge9" class="edge">
<title>Node9&#45;&gt;Node6</title>
<path fill="none" stroke="#191970" d="M521.8728,-56.7041C530.7087,-58.3107 539.7128,-59.9478 547.8647,-61.43"/>
<polygon fill="#191970" stroke="#191970" points="522.4873,-53.2586 512.0225,-54.9132 521.2351,-60.1457 522.4873,-53.2586"/>
</g>
<!-- Node11 -->
<g id="node11" class="node">
<title>Node11</title>
<g id="a_node11"><a xlink:href="scm__shell_8f90.xhtml#ab15255829ee7b5be626b1c0861b40c8d" target="_top" xlink:title="scm_shell is the main calling program for the Single Column Model. ">
<polygon fill="#ffffff" stroke="#000000" points="441.5,-.5 441.5,-19.5 506.5,-19.5 506.5,-.5 441.5,-.5"/>
<text text-anchor="middle" x="474" y="-7.5" font-family="Helvetica,sans-Serif" font-size="10.00" fill="#000000">scm_shell</text>
</a>
</g>
</g>
<!-- Node10&#45;&gt;Node11 -->
<g id="edge11" class="edge">
<title>Node10&#45;&gt;Node11</title>
<path fill="none" stroke="#191970" d="M403.8248,-10C416.3307,-10 429.7319,-10 441.4371,-10"/>
<polygon fill="#191970" stroke="#191970" points="403.5872,-6.5001 393.5872,-10 403.5871,-13.5001 403.5872,-6.5001"/>
</g>
</g>
</svg>
