<?xml version="1.0" encoding="UTF-8" standalone="no"?>
<!DOCTYPE svg PUBLIC "-//W3C//DTD SVG 1.1//EN"
 "http://www.w3.org/Graphics/SVG/1.1/DTD/svg11.dtd">
<!-- Generated by graphviz version 2.40.1 (20161225.0304)
 -->
<!-- Title: vert_diff_uv Pages: 1 -->
<svg width="704pt" height="28pt"
 viewBox="0.00 0.00 704.00 28.00" xmlns="http://www.w3.org/2000/svg" xmlns:xlink="http://www.w3.org/1999/xlink">
<g id="graph0" class="graph" transform="scale(1 1) rotate(0) translate(4 24)">
<title>vert_diff_uv</title>
<polygon fill="#ffffff" stroke="transparent" points="-4,4 -4,-24 700,-24 700,4 -4,4"/>
<!-- Node7 -->
<g id="node1" class="node">
<title>Node7</title>
<polygon fill="#bfbfbf" stroke="#000000" points="0,-.5 0,-19.5 74,-19.5 74,-.5 0,-.5"/>
<text text-anchor="middle" x="37" y="-7.5" font-family="Helvetica,sans-Serif" font-size="10.00" fill="#000000">vert_diff_uv</text>
</g>
<!-- Node8 -->
<g id="node2" class="node">
<title>Node8</title>
<g id="a_node2"><a xlink:href="diff__divdamp__ctl_8f90.xhtml#a77098d9f3dd564ffb8e7ac8cba554b7b" target="_top" xlink:title="Subroutine Diff_Divdamp_Ctl. ">
<polygon fill="#ffffff" stroke="#000000" points="110,-.5 110,-19.5 208,-19.5 208,-.5 110,-.5"/>
<text text-anchor="middle" x="159" y="-7.5" font-family="Helvetica,sans-Serif" font-size="10.00" fill="#000000">diff_divdamp_ctl</text>
</a>
</g>
</g>
<!-- Node7&#45;&gt;Node8 -->
<g id="edge1" class="edge">
<title>Node7&#45;&gt;Node8</title>
<path fill="none" stroke="#191970" d="M84.5382,-10C92.8337,-10 101.4787,-10 109.8174,-10"/>
<polygon fill="#191970" stroke="#191970" points="84.267,-6.5001 74.2669,-10 84.2669,-13.5001 84.267,-6.5001"/>
</g>
<!-- Node9 -->
<g id="node3" class="node">
<title>Node9</title>
<g id="a_node3"><a xlink:href="ni__diff__ctl_8f90.xhtml#a1007de4d9c67f1cc7bebc717748c86ee" target="_top" xlink:title="Subroutine NI_DIFF_CTL. ">
<polygon fill="#ffffff" stroke="#000000" points="244,-.5 244,-19.5 308,-19.5 308,-.5 244,-.5"/>
<text text-anchor="middle" x="276" y="-7.5" font-family="Helvetica,sans-Serif" font-size="10.00" fill="#000000">ni_diff_ctl</text>
</a>
</g>
</g>
<!-- Node8&#45;&gt;Node9 -->
<g id="edge2" class="edge">
<title>Node8&#45;&gt;Node9</title>
<path fill="none" stroke="#191970" d="M218.4761,-10C227.1903,-10 235.8756,-10 243.7583,-10"/>
<polygon fill="#191970" stroke="#191970" points="218.2795,-6.5001 208.2794,-10 218.2794,-13.5001 218.2795,-6.5001"/>
</g>
<!-- Node10 -->
<g id="node4" class="node">
<title>Node10</title>
<g id="a_node4"><a xlink:href="atm__step_8f90.xhtml#ac0ee2467a1a9959b7065fdb8fd27bce4" target="_top" xlink:title="Perform a 1&#45;timestep integration of the Atmosphere Model. ">
<polygon fill="#ffffff" stroke="#000000" points="344,-.5 344,-19.5 406,-19.5 406,-.5 344,-.5"/>
<text text-anchor="middle" x="375" y="-7.5" font-family="Helvetica,sans-Serif" font-size="10.00" fill="#000000">atm_step</text>
</a>
</g>
</g>
<!-- Node9&#45;&gt;Node10 -->
<g id="edge3" class="edge">
<title>Node9&#45;&gt;Node10</title>
<path fill="none" stroke="#191970" d="M318.3157,-10C326.831,-10 335.636,-10 343.6938,-10"/>
<polygon fill="#191970" stroke="#191970" points="318.1425,-6.5001 308.1425,-10 318.1424,-13.5001 318.1425,-6.5001"/>
</g>
<!-- Node11 -->
<g id="node5" class="node">
<title>Node11</title>
<g id="a_node5"><a xlink:href="u__model_8f90.xhtml#ada0cd2ce4699433bf0f9adbd882c8eec" target="_top" xlink:title="Subroutine: U_MODEL &#45;!&gt; ">
<polygon fill="#ffffff" stroke="#000000" points="442,-.5 442,-19.5 501,-19.5 501,-.5 442,-.5"/>
<text text-anchor="middle" x="471.5" y="-7.5" font-family="Helvetica,sans-Serif" font-size="10.00" fill="#000000">u_model</text>
</a>
</g>
</g>
<!-- Node10&#45;&gt;Node11 -->
<g id="edge4" class="edge">
<title>Node10&#45;&gt;Node11</title>
<path fill="none" stroke="#191970" d="M416.3007,-10C424.8757,-10 433.7497,-10 441.8088,-10"/>
<polygon fill="#191970" stroke="#191970" points="416.0644,-6.5001 406.0644,-10 416.0644,-13.5001 416.0644,-6.5001"/>
</g>
<!-- Node12 -->
<g id="node6" class="node">
<title>Node12</title>
<g id="a_node6"><a xlink:href="um__shell_8f90.xhtml#a8c9bd25362824a5c301376ecb5ed5c27" target="_top" xlink:title="Subroutine: UM_SHELL !&gt; ">
<polygon fill="#ffffff" stroke="#000000" points="537,-.5 537,-19.5 598,-19.5 598,-.5 537,-.5"/>
<text text-anchor="middle" x="567.5" y="-7.5" font-family="Helvetica,sans-Serif" font-size="10.00" fill="#000000">um_shell</text>
</a>
</g>
</g>
<!-- Node11&#45;&gt;Node12 -->
<g id="edge5" class="edge">
<title>Node11&#45;&gt;Node12</title>
<path fill="none" stroke="#191970" d="M511.2581,-10C519.8053,-10 528.7119,-10 536.8497,-10"/>
<polygon fill="#191970" stroke="#191970" points="511.0865,-6.5001 501.0865,-10 511.0865,-13.5001 511.0865,-6.5001"/>
</g>
<!-- Node13 -->
<g id="node7" class="node">
<title>Node13</title>
<g id="a_node7"><a xlink:href="um__main_8f90.xhtml#a8f2d13215621443a5313261c282f098b" target="_top" xlink:title="Code Owner: See Unified Model Code Owner&#39;s HTML page. ">
<polygon fill="#ffffff" stroke="#000000" points="634,-.5 634,-19.5 696,-19.5 696,-.5 634,-.5"/>
<text text-anchor="middle" x="665" y="-7.5" font-family="Helvetica,sans-Serif" font-size="10.00" fill="#000000">um_main</text>
</a>
</g>
</g>
<!-- Node12&#45;&gt;Node13 -->
<g id="edge6" class="edge">
<title>Node12&#45;&gt;Node13</title>
<path fill="none" stroke="#191970" d="M608.2756,-10C616.8294,-10 625.72,-10 633.8551,-10"/>
<polygon fill="#191970" stroke="#191970" points="608.0821,-6.5001 598.0821,-10 608.0821,-13.5001 608.0821,-6.5001"/>
</g>
</g>
</svg>
