<?xml version="1.0" encoding="UTF-8" standalone="no"?>
<!DOCTYPE svg PUBLIC "-//W3C//DTD SVG 1.1//EN"
 "http://www.w3.org/Graphics/SVG/1.1/DTD/svg11.dtd">
<!-- Generated by graphviz version 2.40.1 (20161225.0304)
 -->
<!-- Title: vis_precip Pages: 1 -->
<svg width="868pt" height="104pt"
 viewBox="0.00 0.00 868.00 104.00" xmlns="http://www.w3.org/2000/svg" xmlns:xlink="http://www.w3.org/1999/xlink">
<g id="graph0" class="graph" transform="scale(1 1) rotate(0) translate(4 100)">
<title>vis_precip</title>
<polygon fill="#ffffff" stroke="transparent" points="-4,4 -4,-100 864,-100 864,4 -4,4"/>
<!-- Node1 -->
<g id="node1" class="node">
<title>Node1</title>
<polygon fill="#bfbfbf" stroke="#000000" points="0,-38.5 0,-57.5 66,-57.5 66,-38.5 0,-38.5"/>
<text text-anchor="middle" x="33" y="-45.5" font-family="Helvetica,sans-Serif" font-size="10.00" fill="#000000">vis_precip</text>
</g>
<!-- Node2 -->
<g id="node2" class="node">
<title>Node2</title>
<g id="a_node2"><a xlink:href="diagnostics__bl_8f90.xhtml#a50229e39ea09211655a2e283d999410f" target="_top" xlink:title="This file belongs in section: boundary layer. ">
<polygon fill="#ffffff" stroke="#000000" points="109.5,-57.5 109.5,-76.5 195.5,-76.5 195.5,-57.5 109.5,-57.5"/>
<text text-anchor="middle" x="152.5" y="-64.5" font-family="Helvetica,sans-Serif" font-size="10.00" fill="#000000">diagnostics_bl</text>
</a>
</g>
</g>
<!-- Node1&#45;&gt;Node2 -->
<g id="edge1" class="edge">
<title>Node1&#45;&gt;Node2</title>
<path fill="none" stroke="#191970" d="M76.2551,-54.8774C86.9477,-56.5775 98.405,-58.3991 109.1043,-60.1003"/>
<polygon fill="#191970" stroke="#191970" points="76.713,-51.4063 66.2874,-53.2926 75.6138,-58.3195 76.713,-51.4063"/>
</g>
<!-- Node13 -->
<g id="node13" class="node">
<title>Node13</title>
<g id="a_node13"><a xlink:href="dgnstcs__imp__ctl2_8f90.xhtml#a7a449dfc0ca4da965d5c1d1b0c9a6dbe" target="_top" xlink:title="Calculate and output some SCM diagnostics. ">
<polygon fill="#ffffff" stroke="#000000" points="102,-19.5 102,-38.5 203,-38.5 203,-19.5 102,-19.5"/>
<text text-anchor="middle" x="152.5" y="-26.5" font-family="Helvetica,sans-Serif" font-size="10.00" fill="#000000">dgnstcs_imp_ctl2</text>
</a>
</g>
</g>
<!-- Node1&#45;&gt;Node13 -->
<g id="edge13" class="edge">
<title>Node1&#45;&gt;Node13</title>
<path fill="none" stroke="#191970" d="M76.2,-41.1314C84.5573,-39.8026 93.3835,-38.3993 101.9512,-37.0371"/>
<polygon fill="#191970" stroke="#191970" points="75.6138,-37.6805 66.2874,-42.7074 76.713,-44.5937 75.6138,-37.6805"/>
</g>
<!-- Node3 -->
<g id="node3" class="node">
<title>Node3</title>
<g id="a_node3"><a xlink:href="ni__imp__ctl_8f90.xhtml#a9d192b5c45d7330f88208ed64fe4d6b4" target="_top" xlink:title="Subroutine NI_imp_ctl Subroutine NI_imp_ctl &#160;">
<polygon fill="#ffffff" stroke="#000000" points="239,-38.5 239,-57.5 306,-57.5 306,-38.5 239,-38.5"/>
<text text-anchor="middle" x="272.5" y="-45.5" font-family="Helvetica,sans-Serif" font-size="10.00" fill="#000000">ni_imp_ctl</text>
</a>
</g>
</g>
<!-- Node2&#45;&gt;Node3 -->
<g id="edge2" class="edge">
<title>Node2&#45;&gt;Node3</title>
<path fill="none" stroke="#191970" d="M205.9108,-58.5433C217.0378,-56.7815 228.4707,-54.9713 238.654,-53.3589"/>
<polygon fill="#191970" stroke="#191970" points="205.1523,-55.1197 195.8228,-60.1406 206.2471,-62.0336 205.1523,-55.1197"/>
</g>
<!-- Node4 -->
<g id="node4" class="node">
<title>Node4</title>
<g id="a_node4"><a xlink:href="atmos__physics2_8f90.xhtml#a0f74e8c75312201121b305cd566b175a" target="_top" xlink:title="Interface to Atmos Physics parametrizations after S&#45;L advection. ">
<polygon fill="#ffffff" stroke="#000000" points="342,-38.5 342,-57.5 437,-57.5 437,-38.5 342,-38.5"/>
<text text-anchor="middle" x="389.5" y="-45.5" font-family="Helvetica,sans-Serif" font-size="10.00" fill="#000000">atmos_physics2</text>
</a>
</g>
</g>
<!-- Node3&#45;&gt;Node4 -->
<g id="edge3" class="edge">
<title>Node3&#45;&gt;Node4</title>
<path fill="none" stroke="#191970" d="M316.2248,-48C324.4962,-48 333.1894,-48 341.582,-48"/>
<polygon fill="#191970" stroke="#191970" points="316.0275,-44.5001 306.0275,-48 316.0275,-51.5001 316.0275,-44.5001"/>
</g>
<!-- Node5 -->
<g id="node5" class="node">
<title>Node5</title>
<g id="a_node5"><a xlink:href="atm__step_8f90.xhtml#ac0ee2467a1a9959b7065fdb8fd27bce4" target="_top" xlink:title="Perform a 1&#45;timestep integration of the Atmosphere Model. ">
<polygon fill="#ffffff" stroke="#000000" points="482,-76.5 482,-95.5 544,-95.5 544,-76.5 482,-76.5"/>
<text text-anchor="middle" x="513" y="-83.5" font-family="Helvetica,sans-Serif" font-size="10.00" fill="#000000">atm_step</text>
</a>
</g>
</g>
<!-- Node4&#45;&gt;Node5 -->
<g id="edge4" class="edge">
<title>Node4&#45;&gt;Node5</title>
<path fill="none" stroke="#191970" d="M430.2397,-60.5353C447.0405,-65.7048 466.197,-71.5991 481.8457,-76.4141"/>
<polygon fill="#191970" stroke="#191970" points="431.2514,-57.1847 420.6643,-57.589 429.1927,-63.8752 431.2514,-57.1847"/>
</g>
<!-- Node9 -->
<g id="node9" class="node">
<title>Node9</title>
<g id="a_node9"><a xlink:href="atm__step__4_a_8f90.xhtml#a2319aa4963e90c64cd78bdcd5f481095" target="_top" xlink:title="Perform a 1&#45;timestep integration of the Atmosphere Model. ">
<polygon fill="#ffffff" stroke="#000000" points="473,-38.5 473,-57.5 553,-57.5 553,-38.5 473,-38.5"/>
<text text-anchor="middle" x="513" y="-45.5" font-family="Helvetica,sans-Serif" font-size="10.00" fill="#000000">atm_step_4a</text>
</a>
</g>
</g>
<!-- Node4&#45;&gt;Node9 -->
<g id="edge8" class="edge">
<title>Node4&#45;&gt;Node9</title>
<path fill="none" stroke="#191970" d="M447.3434,-48C456.0185,-48 464.7967,-48 472.9897,-48"/>
<polygon fill="#191970" stroke="#191970" points="447.2484,-44.5001 437.2483,-48 447.2483,-51.5001 447.2484,-44.5001"/>
</g>
<!-- Node11 -->
<g id="node11" class="node">
<title>Node11</title>
<g id="a_node11"><a xlink:href="scm__main_8f90.xhtml#a2c730136605550612e094ce51d33a2a5" target="_top" xlink:title="*********************************COPYRIGHT********************************* ">
<polygon fill="#ffffff" stroke="#000000" points="479.5,-.5 479.5,-19.5 546.5,-19.5 546.5,-.5 479.5,-.5"/>
<text text-anchor="middle" x="513" y="-7.5" font-family="Helvetica,sans-Serif" font-size="10.00" fill="#000000">scm_main</text>
</a>
</g>
</g>
<!-- Node4&#45;&gt;Node11 -->
<g id="edge11" class="edge">
<title>Node4&#45;&gt;Node11</title>
<path fill="none" stroke="#191970" d="M430.2397,-35.4647C447.0405,-30.2952 466.197,-24.4009 481.8457,-19.5859"/>
<polygon fill="#191970" stroke="#191970" points="429.1927,-32.1248 420.6643,-38.411 431.2514,-38.8153 429.1927,-32.1248"/>
</g>
<!-- Node6 -->
<g id="node6" class="node">
<title>Node6</title>
<g id="a_node6"><a xlink:href="u__model_8f90.xhtml#ada0cd2ce4699433bf0f9adbd882c8eec" target="_top" xlink:title="Subroutine: U_MODEL &#45;!&gt; ">
<polygon fill="#ffffff" stroke="#000000" points="597.5,-76.5 597.5,-95.5 656.5,-95.5 656.5,-76.5 597.5,-76.5"/>
<text text-anchor="middle" x="627" y="-83.5" font-family="Helvetica,sans-Serif" font-size="10.00" fill="#000000">u_model</text>
</a>
</g>
</g>
<!-- Node5&#45;&gt;Node6 -->
<g id="edge5" class="edge">
<title>Node5&#45;&gt;Node6</title>
<path fill="none" stroke="#191970" d="M554.2532,-86C568.5539,-86 584.2895,-86 597.4568,-86"/>
<polygon fill="#191970" stroke="#191970" points="554.151,-82.5001 544.151,-86 554.151,-89.5001 554.151,-82.5001"/>
</g>
<!-- Node7 -->
<g id="node7" class="node">
<title>Node7</title>
<g id="a_node7"><a xlink:href="um__shell_8f90.xhtml#a8c9bd25362824a5c301376ecb5ed5c27" target="_top" xlink:title="Subroutine: UM_SHELL !&gt; ">
<polygon fill="#ffffff" stroke="#000000" points="701,-57.5 701,-76.5 762,-76.5 762,-57.5 701,-57.5"/>
<text text-anchor="middle" x="731.5" y="-64.5" font-family="Helvetica,sans-Serif" font-size="10.00" fill="#000000">um_shell</text>
</a>
</g>
</g>
<!-- Node6&#45;&gt;Node7 -->
<g id="edge6" class="edge">
<title>Node6&#45;&gt;Node7</title>
<path fill="none" stroke="#191970" d="M666.701,-78.7816C677.951,-76.7362 690.0261,-74.5407 700.6677,-72.6059"/>
<polygon fill="#191970" stroke="#191970" points="665.8786,-75.3737 656.666,-80.6062 667.1308,-82.2608 665.8786,-75.3737"/>
</g>
<!-- Node8 -->
<g id="node8" class="node">
<title>Node8</title>
<g id="a_node8"><a xlink:href="um__main_8f90.xhtml#a8f2d13215621443a5313261c282f098b" target="_top" xlink:title="Code Owner: See Unified Model Code Owner&#39;s HTML page. ">
<polygon fill="#ffffff" stroke="#000000" points="798,-57.5 798,-76.5 860,-76.5 860,-57.5 798,-57.5"/>
<text text-anchor="middle" x="829" y="-64.5" font-family="Helvetica,sans-Serif" font-size="10.00" fill="#000000">um_main</text>
</a>
</g>
</g>
<!-- Node7&#45;&gt;Node8 -->
<g id="edge7" class="edge">
<title>Node7&#45;&gt;Node8</title>
<path fill="none" stroke="#191970" d="M772.2756,-67C780.8294,-67 789.72,-67 797.8551,-67"/>
<polygon fill="#191970" stroke="#191970" points="772.0821,-63.5001 762.0821,-67 772.0821,-70.5001 772.0821,-63.5001"/>
</g>
<!-- Node10 -->
<g id="node10" class="node">
<title>Node10</title>
<g id="a_node10"><a xlink:href="u__model__4_a_8f90.xhtml#afa05064dab5eba198b461d0928767c7e" target="_top" xlink:title="LL Subroutine: U_MODEL_4A (ENDGAME VERSION) !&gt;LL. ">
<polygon fill="#ffffff" stroke="#000000" points="589,-38.5 589,-57.5 665,-57.5 665,-38.5 589,-38.5"/>
<text text-anchor="middle" x="627" y="-45.5" font-family="Helvetica,sans-Serif" font-size="10.00" fill="#000000">u_model_4a</text>
</a>
</g>
</g>
<!-- Node9&#45;&gt;Node10 -->
<g id="edge9" class="edge">
<title>Node9&#45;&gt;Node10</title>
<path fill="none" stroke="#191970" d="M563.3998,-48C571.891,-48 580.5803,-48 588.7002,-48"/>
<polygon fill="#191970" stroke="#191970" points="563.1922,-44.5001 553.1921,-48 563.1921,-51.5001 563.1922,-44.5001"/>
</g>
<!-- Node10&#45;&gt;Node7 -->
<g id="edge10" class="edge">
<title>Node10&#45;&gt;Node7</title>
<path fill="none" stroke="#191970" d="M674.8728,-56.7041C683.7087,-58.3107 692.7128,-59.9478 700.8647,-61.43"/>
<polygon fill="#191970" stroke="#191970" points="675.4873,-53.2586 665.0225,-54.9132 674.2351,-60.1457 675.4873,-53.2586"/>
</g>
<!-- Node12 -->
<g id="node12" class="node">
<title>Node12</title>
<g id="a_node12"><a xlink:href="scm__shell_8f90.xhtml#ab15255829ee7b5be626b1c0861b40c8d" target="_top" xlink:title="scm_shell is the main calling program for the Single Column Model. ">
<polygon fill="#ffffff" stroke="#000000" points="594.5,-.5 594.5,-19.5 659.5,-19.5 659.5,-.5 594.5,-.5"/>
<text text-anchor="middle" x="627" y="-7.5" font-family="Helvetica,sans-Serif" font-size="10.00" fill="#000000">scm_shell</text>
</a>
</g>
</g>
<!-- Node11&#45;&gt;Node12 -->
<g id="edge12" class="edge">
<title>Node11&#45;&gt;Node12</title>
<path fill="none" stroke="#191970" d="M556.8248,-10C569.3307,-10 582.7319,-10 594.4371,-10"/>
<polygon fill="#191970" stroke="#191970" points="556.5872,-6.5001 546.5872,-10 556.5871,-13.5001 556.5872,-6.5001"/>
</g>
<!-- Node13&#45;&gt;Node3 -->
<g id="edge14" class="edge">
<title>Node13&#45;&gt;Node3</title>
<path fill="none" stroke="#191970" d="M212.9971,-38.5787C221.8445,-39.9795 230.6775,-41.3781 238.7265,-42.6525"/>
<polygon fill="#191970" stroke="#191970" points="213.4673,-35.1096 203.043,-37.0026 212.3726,-42.0235 213.4673,-35.1096"/>
</g>
</g>
</svg>
