<?xml version="1.0" encoding="UTF-8" standalone="no"?>
<!DOCTYPE svg PUBLIC "-//W3C//DTD SVG 1.1//EN"
 "http://www.w3.org/Graphics/SVG/1.1/DTD/svg11.dtd">
<!-- Generated by graphviz version 2.40.1 (20161225.0304)
 -->
<!-- Title: visbty Pages: 1 -->
<svg width="849pt" height="104pt"
 viewBox="0.00 0.00 849.00 104.00" xmlns="http://www.w3.org/2000/svg" xmlns:xlink="http://www.w3.org/1999/xlink">
<g id="graph0" class="graph" transform="scale(1 1) rotate(0) translate(4 100)">
<title>visbty</title>
<polygon fill="#ffffff" stroke="transparent" points="-4,4 -4,-100 845,-100 845,4 -4,4"/>
<!-- Node6 -->
<g id="node1" class="node">
<title>Node6</title>
<polygon fill="#bfbfbf" stroke="#000000" points="0,-38.5 0,-57.5 47,-57.5 47,-38.5 0,-38.5"/>
<text text-anchor="middle" x="23.5" y="-45.5" font-family="Helvetica,sans-Serif" font-size="10.00" fill="#000000">visbty</text>
</g>
<!-- Node7 -->
<g id="node2" class="node">
<title>Node7</title>
<g id="a_node2"><a xlink:href="diagnostics__bl_8f90.xhtml#a50229e39ea09211655a2e283d999410f" target="_top" xlink:title="This file belongs in section: boundary layer. ">
<polygon fill="#ffffff" stroke="#000000" points="90.5,-76.5 90.5,-95.5 176.5,-95.5 176.5,-76.5 90.5,-76.5"/>
<text text-anchor="middle" x="133.5" y="-83.5" font-family="Helvetica,sans-Serif" font-size="10.00" fill="#000000">diagnostics_bl</text>
</a>
</g>
</g>
<!-- Node6&#45;&gt;Node7 -->
<g id="edge1" class="edge">
<title>Node6&#45;&gt;Node7</title>
<path fill="none" stroke="#191970" d="M56.8828,-59.5322C72.4774,-64.9195 90.8295,-71.2593 105.6624,-76.3834"/>
<polygon fill="#191970" stroke="#191970" points="57.6925,-56.1091 47.0978,-56.152 55.4068,-62.7254 57.6925,-56.1091"/>
</g>
<!-- Node18 -->
<g id="node13" class="node">
<title>Node18</title>
<g id="a_node13"><a xlink:href="diagnostics__lscld_8f90.xhtml#a5d774d776a0a1ba0d40a8e04859c9b42" target="_top" xlink:title="Diagnostic output area for Large Scale Cloud (Section 9) Diagnostics. ">
<polygon fill="#ffffff" stroke="#000000" points="83.5,-38.5 83.5,-57.5 183.5,-57.5 183.5,-38.5 83.5,-38.5"/>
<text text-anchor="middle" x="133.5" y="-45.5" font-family="Helvetica,sans-Serif" font-size="10.00" fill="#000000">diagnostics_lscld</text>
</a>
</g>
</g>
<!-- Node6&#45;&gt;Node18 -->
<g id="edge13" class="edge">
<title>Node6&#45;&gt;Node18</title>
<path fill="none" stroke="#191970" d="M57.3685,-48C65.5624,-48 74.4942,-48 83.2632,-48"/>
<polygon fill="#191970" stroke="#191970" points="57.0978,-44.5001 47.0978,-48 57.0977,-51.5001 57.0978,-44.5001"/>
</g>
<!-- Node19 -->
<g id="node14" class="node">
<title>Node19</title>
<g id="a_node14"><a xlink:href="dgnstcs__imp__ctl2_8f90.xhtml#a7a449dfc0ca4da965d5c1d1b0c9a6dbe" target="_top" xlink:title="Calculate and output some SCM diagnostics. ">
<polygon fill="#ffffff" stroke="#000000" points="83,-.5 83,-19.5 184,-19.5 184,-.5 83,-.5"/>
<text text-anchor="middle" x="133.5" y="-7.5" font-family="Helvetica,sans-Serif" font-size="10.00" fill="#000000">dgnstcs_imp_ctl2</text>
</a>
</g>
</g>
<!-- Node6&#45;&gt;Node19 -->
<g id="edge15" class="edge">
<title>Node6&#45;&gt;Node19</title>
<path fill="none" stroke="#191970" d="M56.8828,-36.4678C72.4774,-31.0805 90.8295,-24.7407 105.6624,-19.6166"/>
<polygon fill="#191970" stroke="#191970" points="55.4068,-33.2746 47.0978,-39.848 57.6925,-39.8909 55.4068,-33.2746"/>
</g>
<!-- Node8 -->
<g id="node3" class="node">
<title>Node8</title>
<g id="a_node3"><a xlink:href="ni__imp__ctl_8f90.xhtml#a9d192b5c45d7330f88208ed64fe4d6b4" target="_top" xlink:title="Subroutine NI_imp_ctl Subroutine NI_imp_ctl &#160;">
<polygon fill="#ffffff" stroke="#000000" points="220,-38.5 220,-57.5 287,-57.5 287,-38.5 220,-38.5"/>
<text text-anchor="middle" x="253.5" y="-45.5" font-family="Helvetica,sans-Serif" font-size="10.00" fill="#000000">ni_imp_ctl</text>
</a>
</g>
</g>
<!-- Node7&#45;&gt;Node8 -->
<g id="edge2" class="edge">
<title>Node7&#45;&gt;Node8</title>
<path fill="none" stroke="#191970" d="M173.5435,-73.3196C189.7574,-68.1852 208.1656,-62.3559 223.2286,-57.5859"/>
<polygon fill="#191970" stroke="#191970" points="172.2578,-70.0553 163.7811,-76.411 174.3711,-76.7287 172.2578,-70.0553"/>
</g>
<!-- Node9 -->
<g id="node4" class="node">
<title>Node9</title>
<g id="a_node4"><a xlink:href="atmos__physics2_8f90.xhtml#a0f74e8c75312201121b305cd566b175a" target="_top" xlink:title="Interface to Atmos Physics parametrizations after S&#45;L advection. ">
<polygon fill="#ffffff" stroke="#000000" points="323,-38.5 323,-57.5 418,-57.5 418,-38.5 323,-38.5"/>
<text text-anchor="middle" x="370.5" y="-45.5" font-family="Helvetica,sans-Serif" font-size="10.00" fill="#000000">atmos_physics2</text>
</a>
</g>
</g>
<!-- Node8&#45;&gt;Node9 -->
<g id="edge3" class="edge">
<title>Node8&#45;&gt;Node9</title>
<path fill="none" stroke="#191970" d="M297.2248,-48C305.4962,-48 314.1894,-48 322.582,-48"/>
<polygon fill="#191970" stroke="#191970" points="297.0275,-44.5001 287.0275,-48 297.0275,-51.5001 297.0275,-44.5001"/>
</g>
<!-- Node10 -->
<g id="node5" class="node">
<title>Node10</title>
<g id="a_node5"><a xlink:href="atm__step_8f90.xhtml#ac0ee2467a1a9959b7065fdb8fd27bce4" target="_top" xlink:title="Perform a 1&#45;timestep integration of the Atmosphere Model. ">
<polygon fill="#ffffff" stroke="#000000" points="463,-76.5 463,-95.5 525,-95.5 525,-76.5 463,-76.5"/>
<text text-anchor="middle" x="494" y="-83.5" font-family="Helvetica,sans-Serif" font-size="10.00" fill="#000000">atm_step</text>
</a>
</g>
</g>
<!-- Node9&#45;&gt;Node10 -->
<g id="edge4" class="edge">
<title>Node9&#45;&gt;Node10</title>
<path fill="none" stroke="#191970" d="M411.2397,-60.5353C428.0405,-65.7048 447.197,-71.5991 462.8457,-76.4141"/>
<polygon fill="#191970" stroke="#191970" points="412.2514,-57.1847 401.6643,-57.589 410.1927,-63.8752 412.2514,-57.1847"/>
</g>
<!-- Node14 -->
<g id="node9" class="node">
<title>Node14</title>
<g id="a_node9"><a xlink:href="atm__step__4_a_8f90.xhtml#a2319aa4963e90c64cd78bdcd5f481095" target="_top" xlink:title="Perform a 1&#45;timestep integration of the Atmosphere Model. ">
<polygon fill="#ffffff" stroke="#000000" points="454,-38.5 454,-57.5 534,-57.5 534,-38.5 454,-38.5"/>
<text text-anchor="middle" x="494" y="-45.5" font-family="Helvetica,sans-Serif" font-size="10.00" fill="#000000">atm_step_4a</text>
</a>
</g>
</g>
<!-- Node9&#45;&gt;Node14 -->
<g id="edge8" class="edge">
<title>Node9&#45;&gt;Node14</title>
<path fill="none" stroke="#191970" d="M428.3434,-48C437.0185,-48 445.7967,-48 453.9897,-48"/>
<polygon fill="#191970" stroke="#191970" points="428.2484,-44.5001 418.2483,-48 428.2483,-51.5001 428.2484,-44.5001"/>
</g>
<!-- Node16 -->
<g id="node11" class="node">
<title>Node16</title>
<g id="a_node11"><a xlink:href="scm__main_8f90.xhtml#a2c730136605550612e094ce51d33a2a5" target="_top" xlink:title="*********************************COPYRIGHT********************************* ">
<polygon fill="#ffffff" stroke="#000000" points="460.5,-.5 460.5,-19.5 527.5,-19.5 527.5,-.5 460.5,-.5"/>
<text text-anchor="middle" x="494" y="-7.5" font-family="Helvetica,sans-Serif" font-size="10.00" fill="#000000">scm_main</text>
</a>
</g>
</g>
<!-- Node9&#45;&gt;Node16 -->
<g id="edge11" class="edge">
<title>Node9&#45;&gt;Node16</title>
<path fill="none" stroke="#191970" d="M411.2397,-35.4647C428.0405,-30.2952 447.197,-24.4009 462.8457,-19.5859"/>
<polygon fill="#191970" stroke="#191970" points="410.1927,-32.1248 401.6643,-38.411 412.2514,-38.8153 410.1927,-32.1248"/>
</g>
<!-- Node11 -->
<g id="node6" class="node">
<title>Node11</title>
<g id="a_node6"><a xlink:href="u__model_8f90.xhtml#ada0cd2ce4699433bf0f9adbd882c8eec" target="_top" xlink:title="Subroutine: U_MODEL &#45;!&gt; ">
<polygon fill="#ffffff" stroke="#000000" points="578.5,-76.5 578.5,-95.5 637.5,-95.5 637.5,-76.5 578.5,-76.5"/>
<text text-anchor="middle" x="608" y="-83.5" font-family="Helvetica,sans-Serif" font-size="10.00" fill="#000000">u_model</text>
</a>
</g>
</g>
<!-- Node10&#45;&gt;Node11 -->
<g id="edge5" class="edge">
<title>Node10&#45;&gt;Node11</title>
<path fill="none" stroke="#191970" d="M535.2532,-86C549.5539,-86 565.2895,-86 578.4568,-86"/>
<polygon fill="#191970" stroke="#191970" points="535.151,-82.5001 525.151,-86 535.151,-89.5001 535.151,-82.5001"/>
</g>
<!-- Node12 -->
<g id="node7" class="node">
<title>Node12</title>
<g id="a_node7"><a xlink:href="um__shell_8f90.xhtml#a8c9bd25362824a5c301376ecb5ed5c27" target="_top" xlink:title="Subroutine: UM_SHELL !&gt; ">
<polygon fill="#ffffff" stroke="#000000" points="682,-57.5 682,-76.5 743,-76.5 743,-57.5 682,-57.5"/>
<text text-anchor="middle" x="712.5" y="-64.5" font-family="Helvetica,sans-Serif" font-size="10.00" fill="#000000">um_shell</text>
</a>
</g>
</g>
<!-- Node11&#45;&gt;Node12 -->
<g id="edge6" class="edge">
<title>Node11&#45;&gt;Node12</title>
<path fill="none" stroke="#191970" d="M647.701,-78.7816C658.951,-76.7362 671.0261,-74.5407 681.6677,-72.6059"/>
<polygon fill="#191970" stroke="#191970" points="646.8786,-75.3737 637.666,-80.6062 648.1308,-82.2608 646.8786,-75.3737"/>
</g>
<!-- Node13 -->
<g id="node8" class="node">
<title>Node13</title>
<g id="a_node8"><a xlink:href="um__main_8f90.xhtml#a8f2d13215621443a5313261c282f098b" target="_top" xlink:title="Code Owner: See Unified Model Code Owner&#39;s HTML page. ">
<polygon fill="#ffffff" stroke="#000000" points="779,-57.5 779,-76.5 841,-76.5 841,-57.5 779,-57.5"/>
<text text-anchor="middle" x="810" y="-64.5" font-family="Helvetica,sans-Serif" font-size="10.00" fill="#000000">um_main</text>
</a>
</g>
</g>
<!-- Node12&#45;&gt;Node13 -->
<g id="edge7" class="edge">
<title>Node12&#45;&gt;Node13</title>
<path fill="none" stroke="#191970" d="M753.2756,-67C761.8294,-67 770.72,-67 778.8551,-67"/>
<polygon fill="#191970" stroke="#191970" points="753.0821,-63.5001 743.0821,-67 753.0821,-70.5001 753.0821,-63.5001"/>
</g>
<!-- Node15 -->
<g id="node10" class="node">
<title>Node15</title>
<g id="a_node10"><a xlink:href="u__model__4_a_8f90.xhtml#afa05064dab5eba198b461d0928767c7e" target="_top" xlink:title="LL Subroutine: U_MODEL_4A (ENDGAME VERSION) !&gt;LL. ">
<polygon fill="#ffffff" stroke="#000000" points="570,-38.5 570,-57.5 646,-57.5 646,-38.5 570,-38.5"/>
<text text-anchor="middle" x="608" y="-45.5" font-family="Helvetica,sans-Serif" font-size="10.00" fill="#000000">u_model_4a</text>
</a>
</g>
</g>
<!-- Node14&#45;&gt;Node15 -->
<g id="edge9" class="edge">
<title>Node14&#45;&gt;Node15</title>
<path fill="none" stroke="#191970" d="M544.3998,-48C552.891,-48 561.5803,-48 569.7002,-48"/>
<polygon fill="#191970" stroke="#191970" points="544.1922,-44.5001 534.1921,-48 544.1921,-51.5001 544.1922,-44.5001"/>
</g>
<!-- Node15&#45;&gt;Node12 -->
<g id="edge10" class="edge">
<title>Node15&#45;&gt;Node12</title>
<path fill="none" stroke="#191970" d="M655.8728,-56.7041C664.7087,-58.3107 673.7128,-59.9478 681.8647,-61.43"/>
<polygon fill="#191970" stroke="#191970" points="656.4873,-53.2586 646.0225,-54.9132 655.2351,-60.1457 656.4873,-53.2586"/>
</g>
<!-- Node17 -->
<g id="node12" class="node">
<title>Node17</title>
<g id="a_node12"><a xlink:href="scm__shell_8f90.xhtml#ab15255829ee7b5be626b1c0861b40c8d" target="_top" xlink:title="scm_shell is the main calling program for the Single Column Model. ">
<polygon fill="#ffffff" stroke="#000000" points="575.5,-.5 575.5,-19.5 640.5,-19.5 640.5,-.5 575.5,-.5"/>
<text text-anchor="middle" x="608" y="-7.5" font-family="Helvetica,sans-Serif" font-size="10.00" fill="#000000">scm_shell</text>
</a>
</g>
</g>
<!-- Node16&#45;&gt;Node17 -->
<g id="edge12" class="edge">
<title>Node16&#45;&gt;Node17</title>
<path fill="none" stroke="#191970" d="M537.8248,-10C550.3307,-10 563.7319,-10 575.4371,-10"/>
<polygon fill="#191970" stroke="#191970" points="537.5872,-6.5001 527.5872,-10 537.5871,-13.5001 537.5872,-6.5001"/>
</g>
<!-- Node18&#45;&gt;Node8 -->
<g id="edge14" class="edge">
<title>Node18&#45;&gt;Node8</title>
<path fill="none" stroke="#191970" d="M193.7875,-48C202.7608,-48 211.7255,-48 219.8788,-48"/>
<polygon fill="#191970" stroke="#191970" points="193.6955,-44.5001 183.6955,-48 193.6955,-51.5001 193.6955,-44.5001"/>
</g>
<!-- Node19&#45;&gt;Node8 -->
<g id="edge16" class="edge">
<title>Node19&#45;&gt;Node8</title>
<path fill="none" stroke="#191970" d="M173.5435,-22.6804C189.7574,-27.8148 208.1656,-33.6441 223.2286,-38.4141"/>
<polygon fill="#191970" stroke="#191970" points="174.3711,-19.2713 163.7811,-19.589 172.2578,-25.9447 174.3711,-19.2713"/>
</g>
</g>
</svg>
